# MagicaVoxel @ Ephtracy

# material
mtllib alien_eye1b.mtl
usemtl palette

# normals
vn -1 0 0
vn 1 0 0
vn 0 0 1
vn 0 0 -1
vn 0 -1 0
vn 0 1 0

# texcoords
vt 0.634766 0.5
vt 0.669922 0.5
vt 0.958984 0.5
vt 0.986328 0.5
vt 0.990234 0.5

# verts
v -4 6 2
v -4 6 -2
v -4 7 3
v -4 7 2
v -4 7 -2
v -4 7 -3
v -4 11 3
v -4 11 -3
v -3 6 3
v -3 6 2
v -3 6 -2
v -3 6 -3
v -3 7 3
v -3 7 2
v -3 7 -2
v -3 7 -3
v -3 7 -4
v -3 11 3
v -3 11 -3
v -3 11 -4
v -3 12 3
v -3 12 -3
v -2 2 2
v -2 2 -0
v -2 3 -0
v -2 3 -1
v -2 4 2
v -2 4 -1
v -2 5 2
v -2 5 -2
v -2 6 2
v -2 6 -2
v -2 6 -3
v -2 6 -4
v -2 7 -3
v -2 7 -4
v -1 0 2
v -1 0 -5
v -1 1 3
v -1 1 2
v -1 1 -2
v -1 1 -5
v -1 2 3
v -1 2 2
v -1 2 -0
v -1 2 -2
v -1 3 -1
v -1 3 -2
v -1 4 3
v -1 4 2
v -1 4 1
v -1 4 -1
v -1 4 -2
v -1 5 1
v -1 5 -1
v -1 8 4
v -1 8 3
v -1 10 4
v -1 10 3
v 1 0 2
v 1 0 -5
v 1 1 3
v 1 1 2
v 1 1 -2
v 1 1 -5
v 1 2 3
v 1 2 2
v 1 2 -0
v 1 2 -2
v 1 3 -1
v 1 3 -2
v 1 4 3
v 1 4 2
v 1 4 1
v 1 4 -1
v 1 4 -2
v 1 5 1
v 1 5 -1
v 1 8 4
v 1 8 3
v 1 10 4
v 1 10 3
v 2 2 2
v 2 2 -0
v 2 3 -0
v 2 3 -1
v 2 4 2
v 2 4 -1
v 2 5 2
v 2 5 -2
v 2 6 2
v 2 6 -2
v 2 6 -3
v 2 6 -4
v 2 7 -3
v 2 7 -4
v 3 6 3
v 3 6 2
v 3 6 -2
v 3 6 -3
v 3 7 3
v 3 7 2
v 3 7 -2
v 3 7 -3
v 3 7 -4
v 3 11 3
v 3 11 -3
v 3 11 -4
v 3 12 3
v 3 12 -3
v 4 6 2
v 4 6 -2
v 4 7 3
v 4 7 2
v 4 7 -2
v 4 7 -3
v 4 11 3
v 4 11 -3
v -1 8 4
v -1 10 4
v 1 8 4
v 1 10 4
v -4 7 3
v -4 11 3
v -3 6 3
v -3 7 3
v -3 8 3
v -3 10 3
v -3 11 3
v -3 12 3
v -2 7 3
v -2 8 3
v -2 10 3
v -2 11 3
v -1 1 3
v -1 2 3
v -1 4 3
v -1 8 3
v -1 10 3
v 1 1 3
v 1 2 3
v 1 4 3
v 1 8 3
v 1 10 3
v 2 7 3
v 2 8 3
v 2 10 3
v 2 11 3
v 3 6 3
v 3 7 3
v 3 8 3
v 3 10 3
v 3 11 3
v 3 12 3
v 4 7 3
v 4 11 3
v -4 6 2
v -4 7 2
v -3 6 2
v -3 7 2
v -2 2 2
v -2 4 2
v -2 5 2
v -2 6 2
v -1 0 2
v -1 1 2
v -1 2 2
v -1 4 2
v 1 0 2
v 1 1 2
v 1 2 2
v 1 4 2
v 2 2 2
v 2 4 2
v 2 5 2
v 2 6 2
v 3 6 2
v 3 7 2
v 4 6 2
v 4 7 2
v -1 4 1
v -1 5 1
v 1 4 1
v 1 5 1
v -2 2 -0
v -2 3 -0
v -1 2 -0
v -1 3 -0
v 1 2 -0
v 1 3 -0
v 2 2 -0
v 2 3 -0
v -2 3 -1
v -2 4 -1
v -1 3 -1
v -1 4 -1
v -1 5 -1
v 1 3 -1
v 1 4 -1
v 1 5 -1
v 2 3 -1
v 2 4 -1
v -4 6 -2
v -4 7 -2
v -3 6 -2
v -3 7 -2
v -2 5 -2
v -2 6 -2
v -1 1 -2
v -1 2 -2
v -1 3 -2
v -1 4 -2
v 1 1 -2
v 1 2 -2
v 1 3 -2
v 1 4 -2
v 2 5 -2
v 2 6 -2
v 3 6 -2
v 3 7 -2
v 4 6 -2
v 4 7 -2
v -4 7 -3
v -4 11 -3
v -3 6 -3
v -3 7 -3
v -3 11 -3
v -3 12 -3
v -2 6 -3
v -2 7 -3
v 2 6 -3
v 2 7 -3
v 3 6 -3
v 3 7 -3
v 3 11 -3
v 3 12 -3
v 4 7 -3
v 4 11 -3
v -3 7 -4
v -3 11 -4
v -2 6 -4
v -2 7 -4
v 2 6 -4
v 2 7 -4
v 3 7 -4
v 3 11 -4
v -1 0 -5
v -1 1 -5
v 1 0 -5
v 1 1 -5
v -1 0 2
v 1 0 2
v -1 0 -5
v 1 0 -5
v -1 1 3
v 1 1 3
v -1 1 2
v 1 1 2
v -2 2 2
v -1 2 2
v 1 2 2
v 2 2 2
v -2 2 -0
v -1 2 -0
v 1 2 -0
v 2 2 -0
v -2 3 -0
v -1 3 -0
v 1 3 -0
v 2 3 -0
v -2 3 -1
v -1 3 -1
v 1 3 -1
v 2 3 -1
v -1 3 -2
v 1 3 -2
v -2 5 2
v 2 5 2
v -1 5 1
v 1 5 1
v -1 5 -1
v 1 5 -1
v -2 5 -2
v 2 5 -2
v -3 6 3
v 3 6 3
v -4 6 2
v -3 6 2
v -2 6 2
v 2 6 2
v 3 6 2
v 4 6 2
v -4 6 -2
v -3 6 -2
v -2 6 -2
v 2 6 -2
v 3 6 -2
v 4 6 -2
v -3 6 -3
v -2 6 -3
v 2 6 -3
v 3 6 -3
v -2 6 -4
v 2 6 -4
v -4 7 3
v -3 7 3
v 3 7 3
v 4 7 3
v -4 7 2
v -3 7 2
v 3 7 2
v 4 7 2
v -4 7 -2
v -3 7 -2
v 3 7 -2
v 4 7 -2
v -4 7 -3
v -3 7 -3
v -2 7 -3
v 2 7 -3
v 3 7 -3
v 4 7 -3
v -3 7 -4
v -2 7 -4
v 2 7 -4
v 3 7 -4
v -1 8 4
v 1 8 4
v -1 8 3
v 1 8 3
v -1 1 -2
v 1 1 -2
v -1 1 -5
v 1 1 -5
v -1 2 -0
v 1 2 -0
v -1 2 -2
v 1 2 -2
v -1 4 3
v 1 4 3
v -2 4 2
v -1 4 2
v 1 4 2
v 2 4 2
v -1 4 1
v 1 4 1
v -2 4 -1
v -1 4 -1
v 1 4 -1
v 2 4 -1
v -1 4 -2
v 1 4 -2
v -1 10 4
v 1 10 4
v -1 10 3
v 1 10 3
v -4 11 3
v -3 11 3
v 3 11 3
v 4 11 3
v -4 11 -3
v -3 11 -3
v 3 11 -3
v 4 11 -3
v -3 11 -4
v 3 11 -4
v -3 12 3
v 3 12 3
v -3 12 -3
v 3 12 -3

# faces
f 4/1/1 2/1/1 1/1/1
f 5/1/1 2/1/1 4/1/1
f 7/1/1 4/1/1 3/1/1
f 7/1/1 6/1/1 5/1/1
f 7/1/1 5/1/1 4/1/1
f 8/1/1 6/1/1 7/1/1
f 13/1/1 10/1/1 9/1/1
f 14/1/1 10/1/1 13/1/1
f 15/1/1 12/1/1 11/1/1
f 16/1/1 12/1/1 15/1/1
f 19/1/1 17/1/1 16/1/1
f 20/1/1 17/1/1 19/1/1
f 21/1/1 19/1/1 18/1/1
f 22/1/1 19/1/1 21/1/1
f 25/4/1 24/4/1 23/4/1
f 27/4/1 25/4/1 23/4/1
f 27/4/1 26/4/1 25/4/1
f 28/4/1 26/4/1 27/4/1
f 31/2/1 30/2/1 29/2/1
f 32/2/1 30/2/1 31/2/1
f 35/1/1 34/1/1 33/1/1
f 36/1/1 34/1/1 35/1/1
f 40/1/1 38/1/1 37/1/1
f 41/1/1 38/1/1 40/1/1
f 42/1/1 38/1/1 41/1/1
f 43/1/1 40/1/1 39/1/1
f 43/1/1 41/1/1 40/1/1
f 44/1/1 41/1/1 43/1/1
f 45/1/1 41/1/1 44/1/1
f 46/1/1 41/1/1 45/1/1
f 49/4/1 44/4/1 43/4/1
f 50/4/1 44/4/1 49/4/1
f 52/4/1 48/4/1 47/4/1
f 53/4/1 48/4/1 52/4/1
f 54/1/1 52/1/1 51/1/1
f 55/1/1 52/1/1 54/1/1
f 58/5/1 57/5/1 56/5/1
f 59/5/1 57/5/1 58/5/1
f 60/1/2 61/1/2 63/1/2
f 63/1/2 61/1/2 64/1/2
f 64/1/2 61/1/2 65/1/2
f 62/1/2 63/1/2 66/1/2
f 63/1/2 64/1/2 66/1/2
f 66/1/2 64/1/2 67/1/2
f 67/1/2 64/1/2 68/1/2
f 68/1/2 64/1/2 69/1/2
f 66/4/2 67/4/2 72/4/2
f 72/4/2 67/4/2 73/4/2
f 70/4/2 71/4/2 75/4/2
f 75/4/2 71/4/2 76/4/2
f 74/1/2 75/1/2 77/1/2
f 77/1/2 75/1/2 78/1/2
f 79/5/2 80/5/2 81/5/2
f 81/5/2 80/5/2 82/5/2
f 83/4/2 84/4/2 85/4/2
f 83/4/2 85/4/2 87/4/2
f 85/4/2 86/4/2 87/4/2
f 87/4/2 86/4/2 88/4/2
f 89/2/2 90/2/2 91/2/2
f 91/2/2 90/2/2 92/2/2
f 93/1/2 94/1/2 95/1/2
f 95/1/2 94/1/2 96/1/2
f 97/1/2 98/1/2 101/1/2
f 101/1/2 98/1/2 102/1/2
f 99/1/2 100/1/2 103/1/2
f 103/1/2 100/1/2 104/1/2
f 104/1/2 105/1/2 107/1/2
f 107/1/2 105/1/2 108/1/2
f 106/1/2 107/1/2 109/1/2
f 109/1/2 107/1/2 110/1/2
f 111/1/2 112/1/2 114/1/2
f 114/1/2 112/1/2 115/1/2
f 113/1/2 114/1/2 117/1/2
f 115/1/2 116/1/2 117/1/2
f 114/1/2 115/1/2 117/1/2
f 117/1/2 116/1/2 118/1/2
f 121/5/3 120/5/3 119/5/3
f 122/5/3 120/5/3 121/5/3
f 126/1/3 124/1/3 123/1/3
f 127/1/3 124/1/3 126/1/3
f 128/1/3 124/1/3 127/1/3
f 129/1/3 124/1/3 128/1/3
f 131/1/3 126/1/3 125/1/3
f 131/1/3 127/1/3 126/1/3
f 132/3/3 128/3/3 127/3/3
f 132/1/3 127/1/3 131/1/3
f 133/1/3 130/1/3 129/1/3
f 133/3/3 128/3/3 132/3/3
f 133/1/3 129/1/3 128/1/3
f 134/1/3 130/1/3 133/1/3
f 138/3/3 132/3/3 131/3/3
f 138/3/3 133/3/3 132/3/3
f 138/3/3 134/3/3 133/3/3
f 139/3/3 134/3/3 138/3/3
f 140/1/3 136/1/3 135/1/3
f 141/4/3 137/4/3 136/4/3
f 141/1/3 136/1/3 140/1/3
f 142/4/3 137/4/3 141/4/3
f 143/3/3 138/3/3 131/3/3
f 144/3/3 134/3/3 139/3/3
f 145/1/3 131/1/3 125/1/3
f 145/3/3 144/3/3 143/3/3
f 145/3/3 143/3/3 131/3/3
f 146/3/3 144/3/3 145/3/3
f 147/3/3 134/3/3 144/3/3
f 147/3/3 144/3/3 146/3/3
f 148/1/3 130/1/3 134/1/3
f 148/3/3 134/3/3 147/3/3
f 149/1/3 146/1/3 145/1/3
f 149/1/3 145/1/3 125/1/3
f 150/1/3 146/1/3 149/1/3
f 151/3/3 147/3/3 146/3/3
f 151/1/3 146/1/3 150/1/3
f 152/1/3 148/1/3 147/1/3
f 152/3/3 147/3/3 151/3/3
f 153/1/3 130/1/3 148/1/3
f 153/1/3 148/1/3 152/1/3
f 154/1/3 130/1/3 153/1/3
f 155/1/3 152/1/3 151/1/3
f 155/1/3 153/1/3 152/1/3
f 155/1/3 151/1/3 150/1/3
f 156/1/3 153/1/3 155/1/3
f 159/1/3 158/1/3 157/1/3
f 160/1/3 158/1/3 159/1/3
f 167/4/3 162/4/3 161/4/3
f 168/4/3 162/4/3 167/4/3
f 169/1/3 166/1/3 165/1/3
f 170/1/3 166/1/3 169/1/3
f 173/4/3 172/4/3 171/4/3
f 174/4/3 172/4/3 173/4/3
f 175/2/3 164/2/3 163/2/3
f 176/2/3 164/2/3 175/2/3
f 179/1/3 178/1/3 177/1/3
f 180/1/3 178/1/3 179/1/3
f 183/1/3 182/1/3 181/1/3
f 184/1/3 182/1/3 183/1/3
f 185/4/4 186/4/4 187/4/4
f 187/4/4 186/4/4 188/4/4
f 187/1/4 188/1/4 189/1/4
f 189/1/4 188/1/4 190/1/4
f 189/4/4 190/4/4 191/4/4
f 191/4/4 190/4/4 192/4/4
f 193/4/4 194/4/4 195/4/4
f 195/4/4 194/4/4 196/4/4
f 196/1/4 197/1/4 199/1/4
f 199/1/4 197/1/4 200/1/4
f 198/4/4 199/4/4 201/4/4
f 201/4/4 199/4/4 202/4/4
f 203/1/4 204/1/4 205/1/4
f 205/1/4 204/1/4 206/1/4
f 209/1/4 210/1/4 213/1/4
f 213/1/4 210/1/4 214/1/4
f 211/4/4 212/4/4 215/4/4
f 215/4/4 212/4/4 216/4/4
f 207/2/4 208/2/4 217/2/4
f 217/2/4 208/2/4 218/2/4
f 219/1/4 220/1/4 221/1/4
f 221/1/4 220/1/4 222/1/4
f 223/1/4 224/1/4 226/1/4
f 226/1/4 224/1/4 227/1/4
f 225/1/4 226/1/4 229/1/4
f 229/1/4 226/1/4 230/1/4
f 231/1/4 232/1/4 233/1/4
f 233/1/4 232/1/4 234/1/4
f 227/1/4 228/1/4 235/1/4
f 235/1/4 228/1/4 236/1/4
f 234/1/4 235/1/4 237/1/4
f 237/1/4 235/1/4 238/1/4
f 239/1/4 240/1/4 242/1/4
f 241/1/4 242/1/4 243/1/4
f 242/1/4 240/1/4 244/1/4
f 243/1/4 242/1/4 244/1/4
f 244/1/4 240/1/4 245/1/4
f 245/1/4 240/1/4 246/1/4
f 247/1/4 248/1/4 249/1/4
f 249/1/4 248/1/4 250/1/4
f 253/1/5 252/1/5 251/1/5
f 254/1/5 252/1/5 253/1/5
f 257/1/5 256/1/5 255/1/5
f 258/1/5 256/1/5 257/1/5
f 263/4/5 260/4/5 259/4/5
f 264/4/5 260/4/5 263/4/5
f 265/4/5 262/4/5 261/4/5
f 266/4/5 262/4/5 265/4/5
f 271/4/5 268/4/5 267/4/5
f 272/1/5 269/1/5 268/1/5
f 272/4/5 268/4/5 271/4/5
f 273/4/5 270/4/5 269/4/5
f 273/1/5 269/1/5 272/1/5
f 274/4/5 270/4/5 273/4/5
f 275/4/5 273/4/5 272/4/5
f 276/4/5 273/4/5 275/4/5
f 279/2/5 278/2/5 277/2/5
f 280/2/5 278/2/5 279/2/5
f 281/2/5 279/2/5 277/2/5
f 282/2/5 278/2/5 280/2/5
f 283/2/5 281/2/5 277/2/5
f 283/2/5 282/2/5 281/2/5
f 284/2/5 278/2/5 282/2/5
f 284/2/5 282/2/5 283/2/5
f 288/1/5 286/1/5 285/1/5
f 289/1/5 286/1/5 288/1/5
f 290/1/5 286/1/5 289/1/5
f 291/1/5 286/1/5 290/1/5
f 293/1/5 288/1/5 287/1/5
f 293/1/5 289/1/5 288/1/5
f 294/1/5 289/1/5 293/1/5
f 295/1/5 289/1/5 294/1/5
f 296/1/5 292/1/5 291/1/5
f 296/1/5 291/1/5 290/1/5
f 297/1/5 292/1/5 296/1/5
f 298/1/5 292/1/5 297/1/5
f 299/1/5 295/1/5 294/1/5
f 299/1/5 297/1/5 296/1/5
f 299/1/5 296/1/5 295/1/5
f 300/1/5 297/1/5 299/1/5
f 301/1/5 297/1/5 300/1/5
f 302/1/5 297/1/5 301/1/5
f 303/1/5 301/1/5 300/1/5
f 304/1/5 301/1/5 303/1/5
f 309/1/5 306/1/5 305/1/5
f 310/1/5 306/1/5 309/1/5
f 311/1/5 308/1/5 307/1/5
f 312/1/5 308/1/5 311/1/5
f 317/1/5 314/1/5 313/1/5
f 318/1/5 314/1/5 317/1/5
f 321/1/5 316/1/5 315/1/5
f 322/1/5 316/1/5 321/1/5
f 323/1/5 319/1/5 318/1/5
f 324/1/5 319/1/5 323/1/5
f 325/1/5 321/1/5 320/1/5
f 326/1/5 321/1/5 325/1/5
f 329/5/5 328/5/5 327/5/5
f 330/5/5 328/5/5 329/5/5
f 331/1/6 332/1/6 333/1/6
f 333/1/6 332/1/6 334/1/6
f 335/1/6 336/1/6 337/1/6
f 337/1/6 336/1/6 338/1/6
f 339/4/6 340/4/6 342/4/6
f 342/4/6 340/4/6 343/4/6
f 341/4/6 342/4/6 345/4/6
f 342/1/6 343/1/6 345/1/6
f 343/4/6 344/4/6 346/4/6
f 345/1/6 343/1/6 346/1/6
f 341/4/6 345/4/6 347/4/6
f 347/4/6 345/4/6 348/4/6
f 346/4/6 344/4/6 349/4/6
f 349/4/6 344/4/6 350/4/6
f 348/4/6 349/4/6 351/4/6
f 351/4/6 349/4/6 352/4/6
f 353/5/6 354/5/6 355/5/6
f 355/5/6 354/5/6 356/5/6
f 357/1/6 358/1/6 361/1/6
f 361/1/6 358/1/6 362/1/6
f 359/1/6 360/1/6 363/1/6
f 363/1/6 360/1/6 364/1/6
f 362/1/6 363/1/6 365/1/6
f 365/1/6 363/1/6 366/1/6
f 367/1/6 368/1/6 369/1/6
f 369/1/6 368/1/6 370/1/6
