# MagicaVoxel @ Ephtracy

# material
mtllib alien_bot2.mtl
usemtl palette

# normals
vn -1 0 0
vn 1 0 0
vn 0 0 1
vn 0 0 -1
vn 0 -1 0
vn 0 1 0

# texcoords
vt 0.841797 0.5
vt 0.982422 0.5
vt 0.986328 0.5
vt 0.990234 0.5

# verts
v -5 8 4
v -5 8 3
v -5 8 -4
v -5 9 4
v -5 9 3
v -5 9 -3
v -5 10 4
v -5 10 3
v -5 10 -3
v -5 11 4
v -5 11 3
v -5 11 -4
v -3 0 2
v -3 0 1
v -3 5 2
v -3 5 1
v -3 5 -1
v -3 5 -3
v -3 7 -1
v -3 7 -3
v -2 0 -1
v -2 0 -2
v -2 5 3
v -2 5 2
v -2 5 1
v -2 5 -0
v -2 5 -1
v -2 5 -2
v -2 6 -0
v -2 6 -1
v -2 7 2
v -2 7 -0
v -2 7 -1
v -2 7 -3
v -2 8 4
v -2 8 3
v -2 9 4
v -2 9 3
v -2 9 2
v -2 9 -3
v -2 10 2
v -2 10 -3
v -2 11 3
v -2 11 -3
v -1 5 -0
v -1 5 -1
v -1 6 -0
v -1 6 -1
v -1 8 -3
v -1 8 -4
v -1 9 4
v -1 9 3
v -1 10 4
v -1 10 3
v -1 10 -3
v -1 10 -4
v 1 0 -1
v 1 0 -2
v 1 4 2
v 1 4 1
v 1 5 3
v 1 5 2
v 1 5 1
v 1 5 -1
v 1 5 -2
v 1 5 -3
v 1 6 -1
v 1 6 -2
v 1 7 3
v 1 7 2
v 1 7 -2
v 1 7 -3
v 1 8 -2
v 1 8 -3
v 2 0 2
v 2 0 1
v 2 4 2
v 2 4 1
v 3 10 1
v 3 10 -0
v 3 11 1
v 3 11 -0
v 4 8 4
v 4 8 3
v 4 8 -4
v 4 9 4
v 4 9 3
v 4 9 2
v 4 9 -3
v 4 10 4
v 4 10 3
v 4 10 2
v 4 10 1
v 4 10 -0
v 4 10 -3
v 4 11 4
v 4 11 3
v 4 11 1
v 4 11 -0
v 4 11 -4
v -4 8 4
v -4 8 3
v -4 8 -4
v -4 9 4
v -4 9 3
v -4 9 2
v -4 9 -3
v -4 10 4
v -4 10 3
v -4 10 2
v -4 10 1
v -4 10 -0
v -4 10 -3
v -4 11 4
v -4 11 3
v -4 11 1
v -4 11 -0
v -4 11 -4
v -3 10 1
v -3 10 -0
v -3 11 1
v -3 11 -0
v -2 0 2
v -2 0 1
v -2 4 2
v -2 4 1
v -1 0 -1
v -1 0 -2
v -1 4 2
v -1 4 1
v -1 5 3
v -1 5 2
v -1 5 1
v -1 5 -1
v -1 5 -2
v -1 5 -3
v -1 6 -1
v -1 6 -2
v -1 7 3
v -1 7 2
v -1 7 -2
v -1 7 -3
v -1 8 -2
v -1 8 -3
v 1 5 -0
v 1 5 -1
v 1 6 -0
v 1 6 -1
v 1 8 -3
v 1 8 -4
v 1 9 4
v 1 9 3
v 1 10 4
v 1 10 3
v 1 10 -3
v 1 10 -4
v 2 0 -1
v 2 0 -2
v 2 5 3
v 2 5 2
v 2 5 1
v 2 5 -0
v 2 5 -1
v 2 5 -2
v 2 6 -0
v 2 6 -1
v 2 7 2
v 2 7 -0
v 2 7 -1
v 2 7 -3
v 2 8 4
v 2 8 3
v 2 9 4
v 2 9 3
v 2 9 2
v 2 9 -3
v 2 10 2
v 2 10 -3
v 2 11 3
v 2 11 -3
v 3 0 2
v 3 0 1
v 3 5 2
v 3 5 1
v 3 5 -1
v 3 5 -3
v 3 7 -1
v 3 7 -3
v 5 8 4
v 5 8 3
v 5 8 -4
v 5 9 4
v 5 9 3
v 5 9 -3
v 5 10 4
v 5 10 3
v 5 10 -3
v 5 11 4
v 5 11 3
v 5 11 -4
v -5 8 4
v -5 9 4
v -5 10 4
v -5 11 4
v -4 8 4
v -4 9 4
v -4 10 4
v -4 11 4
v -2 8 4
v -2 9 4
v -1 8 4
v -1 9 4
v -1 10 4
v 1 8 4
v 1 9 4
v 1 10 4
v 2 8 4
v 2 9 4
v 4 8 4
v 4 9 4
v 4 10 4
v 4 11 4
v 5 8 4
v 5 9 4
v 5 10 4
v 5 11 4
v -5 9 3
v -5 10 3
v -4 9 3
v -4 10 3
v -2 5 3
v -2 8 3
v -2 9 3
v -2 11 3
v -1 5 3
v -1 7 3
v -1 8 3
v -1 9 3
v -1 10 3
v 1 5 3
v 1 7 3
v 1 8 3
v 1 9 3
v 1 10 3
v 2 5 3
v 2 8 3
v 2 9 3
v 2 11 3
v 4 9 3
v 4 10 3
v 5 9 3
v 5 10 3
v -4 9 2
v -4 10 2
v -3 0 2
v -3 5 2
v -2 0 2
v -2 4 2
v -2 5 2
v -2 9 2
v -2 10 2
v -1 4 2
v -1 5 2
v -1 7 2
v 1 4 2
v 1 5 2
v 1 7 2
v 2 0 2
v 2 4 2
v 2 5 2
v 2 9 2
v 2 10 2
v 3 0 2
v 3 5 2
v 4 9 2
v 4 10 2
v -4 10 1
v -4 11 1
v -3 10 1
v -3 11 1
v 3 10 1
v 3 11 1
v 4 10 1
v 4 11 1
v -3 5 -1
v -3 7 -1
v -2 0 -1
v -2 5 -1
v -2 6 -1
v -2 7 -1
v -1 0 -1
v -1 5 -1
v -1 6 -1
v 1 0 -1
v 1 5 -1
v 1 6 -1
v 2 0 -1
v 2 5 -1
v 2 6 -1
v 2 7 -1
v 3 5 -1
v 3 7 -1
v -3 0 1
v -3 5 1
v -2 0 1
v -2 4 1
v -2 5 1
v -1 4 1
v -1 5 1
v 1 4 1
v 1 5 1
v 2 0 1
v 2 4 1
v 2 5 1
v 3 0 1
v 3 5 1
v -4 10 -0
v -4 11 -0
v -3 10 -0
v -3 11 -0
v -2 5 -0
v -2 6 -0
v -1 5 -0
v -1 6 -0
v 1 5 -0
v 1 6 -0
v 2 5 -0
v 2 6 -0
v 3 10 -0
v 3 11 -0
v 4 10 -0
v 4 11 -0
v -1 5 -1
v -1 6 -1
v 1 5 -1
v 1 6 -1
v -2 0 -2
v -2 5 -2
v -1 0 -2
v -1 5 -2
v -1 6 -2
v -1 7 -2
v -1 8 -2
v 1 0 -2
v 1 5 -2
v 1 6 -2
v 1 7 -2
v 1 8 -2
v 2 0 -2
v 2 5 -2
v -4 9 -3
v -4 10 -3
v -3 5 -3
v -3 7 -3
v -2 7 -3
v -2 9 -3
v -2 10 -3
v -2 11 -3
v -1 5 -3
v -1 7 -3
v -1 8 -3
v -1 10 -3
v 1 5 -3
v 1 7 -3
v 1 8 -3
v 1 10 -3
v 2 7 -3
v 2 9 -3
v 2 10 -3
v 2 11 -3
v 3 5 -3
v 3 7 -3
v 4 9 -3
v 4 10 -3
v -5 8 -4
v -5 11 -4
v -4 8 -4
v -4 11 -4
v -1 8 -4
v -1 10 -4
v 1 8 -4
v 1 10 -4
v 4 8 -4
v 4 11 -4
v 5 8 -4
v 5 11 -4
v -3 0 2
v -2 0 2
v 2 0 2
v 3 0 2
v -3 0 1
v -2 0 1
v 2 0 1
v 3 0 1
v -2 0 -1
v -1 0 -1
v 1 0 -1
v 2 0 -1
v -2 0 -2
v -1 0 -2
v 1 0 -2
v 2 0 -2
v -2 4 2
v -1 4 2
v 1 4 2
v 2 4 2
v -2 4 1
v -1 4 1
v 1 4 1
v 2 4 1
v -2 5 3
v -1 5 3
v 1 5 3
v 2 5 3
v -2 5 2
v -1 5 2
v 1 5 2
v 2 5 2
v -2 5 1
v -1 5 1
v 1 5 1
v 2 5 1
v -2 5 -0
v -1 5 -0
v 1 5 -0
v 2 5 -0
v -3 5 -1
v -2 5 -1
v -1 5 -1
v 1 5 -1
v 2 5 -1
v 3 5 -1
v -2 5 -2
v -1 5 -2
v 1 5 -2
v 2 5 -2
v -3 5 -3
v -1 5 -3
v 1 5 -3
v 3 5 -3
v -2 6 -0
v -1 6 -0
v 1 6 -0
v 2 6 -0
v -2 6 -1
v -1 6 -1
v 1 6 -1
v 2 6 -1
v -1 6 -2
v 1 6 -2
v -1 7 3
v 1 7 3
v -1 7 2
v 1 7 2
v -5 8 4
v -4 8 4
v -2 8 4
v -1 8 4
v 1 8 4
v 2 8 4
v 4 8 4
v 5 8 4
v -5 8 3
v -4 8 3
v -2 8 3
v -1 8 3
v 1 8 3
v 2 8 3
v 4 8 3
v 5 8 3
v -1 8 -2
v 1 8 -2
v -1 8 -3
v 1 8 -3
v -5 8 -4
v -4 8 -4
v -1 8 -4
v 1 8 -4
v 4 8 -4
v 5 8 -4
v -4 9 2
v -2 9 2
v 2 9 2
v 4 9 2
v -4 9 -3
v -2 9 -3
v 2 9 -3
v 4 9 -3
v -5 10 4
v -4 10 4
v 4 10 4
v 5 10 4
v -5 10 3
v -4 10 3
v 4 10 3
v 5 10 3
v -3 5 2
v -2 5 2
v 2 5 2
v 3 5 2
v -3 5 1
v -2 5 1
v 2 5 1
v 3 5 1
v -3 7 -1
v -2 7 -1
v 2 7 -1
v 3 7 -1
v -3 7 -3
v -2 7 -3
v 2 7 -3
v 3 7 -3
v -5 9 4
v -4 9 4
v -2 9 4
v -1 9 4
v 1 9 4
v 2 9 4
v 4 9 4
v 5 9 4
v -5 9 3
v -4 9 3
v -2 9 3
v -1 9 3
v 1 9 3
v 2 9 3
v 4 9 3
v 5 9 3
v -1 10 4
v 1 10 4
v -1 10 3
v 1 10 3
v -4 10 2
v -2 10 2
v 2 10 2
v 4 10 2
v -4 10 1
v -3 10 1
v 3 10 1
v 4 10 1
v -4 10 -0
v -3 10 -0
v 3 10 -0
v 4 10 -0
v -4 10 -3
v -2 10 -3
v -1 10 -3
v 1 10 -3
v 2 10 -3
v 4 10 -3
v -1 10 -4
v 1 10 -4
v -5 11 4
v -4 11 4
v 4 11 4
v 5 11 4
v -5 11 3
v -4 11 3
v -2 11 3
v 2 11 3
v 4 11 3
v 5 11 3
v -4 11 1
v -3 11 1
v 3 11 1
v 4 11 1
v -4 11 -0
v -3 11 -0
v 3 11 -0
v 4 11 -0
v -2 11 -3
v 2 11 -3
v -5 11 -4
v -4 11 -4
v 4 11 -4
v 5 11 -4

# faces
f 4/1/1 2/1/1 1/1/1
f 5/4/1 3/4/1 2/4/1
f 5/1/1 2/1/1 4/1/1
f 6/4/1 3/4/1 5/4/1
f 8/3/1 6/3/1 5/3/1
f 9/4/1 3/4/1 6/4/1
f 9/3/1 6/3/1 8/3/1
f 10/1/1 8/1/1 7/1/1
f 11/4/1 9/4/1 8/4/1
f 11/1/1 8/1/1 10/1/1
f 12/4/1 3/4/1 9/4/1
f 12/4/1 9/4/1 11/4/1
f 15/2/1 14/2/1 13/2/1
f 16/2/1 14/2/1 15/2/1
f 19/2/1 18/2/1 17/2/1
f 20/2/1 18/2/1 19/2/1
f 27/2/1 22/2/1 21/2/1
f 28/2/1 22/2/1 27/2/1
f 29/2/1 26/2/1 25/2/1
f 29/2/1 25/2/1 24/2/1
f 31/4/1 24/4/1 23/4/1
f 31/2/1 29/2/1 24/2/1
f 32/3/1 30/3/1 29/3/1
f 32/2/1 29/2/1 31/2/1
f 33/3/1 30/3/1 32/3/1
f 36/4/1 31/4/1 23/4/1
f 37/4/1 36/4/1 35/4/1
f 38/4/1 31/4/1 36/4/1
f 38/4/1 36/4/1 37/4/1
f 39/3/1 33/3/1 32/3/1
f 39/4/1 31/4/1 38/4/1
f 39/3/1 34/3/1 33/3/1
f 39/3/1 32/3/1 31/3/1
f 40/3/1 34/3/1 39/3/1
f 41/4/1 39/4/1 38/4/1
f 43/4/1 41/4/1 38/4/1
f 43/4/1 42/4/1 41/4/1
f 44/4/1 42/4/1 43/4/1
f 47/3/1 46/3/1 45/3/1
f 48/3/1 46/3/1 47/3/1
f 53/4/1 52/4/1 51/4/1
f 54/4/1 52/4/1 53/4/1
f 55/4/1 50/4/1 49/4/1
f 56/4/1 50/4/1 55/4/1
f 62/2/1 60/2/1 59/2/1
f 63/2/1 60/2/1 62/2/1
f 64/2/1 58/2/1 57/2/1
f 65/2/1 58/2/1 64/2/1
f 67/3/1 65/3/1 64/3/1
f 68/2/1 66/2/1 65/2/1
f 68/3/1 65/3/1 67/3/1
f 69/4/1 62/4/1 61/4/1
f 70/4/1 62/4/1 69/4/1
f 71/2/1 66/2/1 68/2/1
f 72/2/1 66/2/1 71/2/1
f 73/3/1 72/3/1 71/3/1
f 74/3/1 72/3/1 73/3/1
f 77/2/1 76/2/1 75/2/1
f 78/2/1 76/2/1 77/2/1
f 81/4/1 80/4/1 79/4/1
f 82/4/1 80/4/1 81/4/1
f 86/1/1 84/1/1 83/1/1
f 87/4/1 85/4/1 84/4/1
f 87/1/1 84/1/1 86/1/1
f 88/4/1 85/4/1 87/4/1
f 89/4/1 85/4/1 88/4/1
f 91/3/1 88/3/1 87/3/1
f 92/3/1 88/3/1 91/3/1
f 95/4/1 85/4/1 89/4/1
f 96/1/1 91/1/1 90/1/1
f 97/4/1 93/4/1 92/4/1
f 97/1/1 91/1/1 96/1/1
f 97/4/1 92/4/1 91/4/1
f 98/4/1 93/4/1 97/4/1
f 99/4/1 95/4/1 94/4/1
f 100/4/1 85/4/1 95/4/1
f 100/4/1 95/4/1 99/4/1
f 101/1/2 102/1/2 104/1/2
f 102/4/2 103/4/2 105/4/2
f 104/1/2 102/1/2 105/1/2
f 105/4/2 103/4/2 106/4/2
f 106/4/2 103/4/2 107/4/2
f 105/3/2 106/3/2 109/3/2
f 109/3/2 106/3/2 110/3/2
f 107/4/2 103/4/2 113/4/2
f 108/1/2 109/1/2 114/1/2
f 110/4/2 111/4/2 115/4/2
f 114/1/2 109/1/2 115/1/2
f 109/4/2 110/4/2 115/4/2
f 115/4/2 111/4/2 116/4/2
f 112/4/2 113/4/2 117/4/2
f 113/4/2 103/4/2 118/4/2
f 117/4/2 113/4/2 118/4/2
f 119/4/2 120/4/2 121/4/2
f 121/4/2 120/4/2 122/4/2
f 123/2/2 124/2/2 125/2/2
f 125/2/2 124/2/2 126/2/2
f 129/2/2 130/2/2 132/2/2
f 132/2/2 130/2/2 133/2/2
f 127/2/2 128/2/2 134/2/2
f 134/2/2 128/2/2 135/2/2
f 134/3/2 135/3/2 137/3/2
f 135/2/2 136/2/2 138/2/2
f 137/3/2 135/3/2 138/3/2
f 131/4/2 132/4/2 139/4/2
f 139/4/2 132/4/2 140/4/2
f 138/2/2 136/2/2 141/2/2
f 141/2/2 136/2/2 142/2/2
f 141/3/2 142/3/2 143/3/2
f 143/3/2 142/3/2 144/3/2
f 145/3/2 146/3/2 147/3/2
f 147/3/2 146/3/2 148/3/2
f 151/4/2 152/4/2 153/4/2
f 153/4/2 152/4/2 154/4/2
f 149/4/2 150/4/2 155/4/2
f 155/4/2 150/4/2 156/4/2
f 157/2/2 158/2/2 163/2/2
f 163/2/2 158/2/2 164/2/2
f 161/2/2 162/2/2 165/2/2
f 160/2/2 161/2/2 165/2/2
f 159/4/2 160/4/2 167/4/2
f 160/2/2 165/2/2 167/2/2
f 165/3/2 166/3/2 168/3/2
f 167/2/2 165/2/2 168/2/2
f 168/3/2 166/3/2 169/3/2
f 159/4/2 167/4/2 172/4/2
f 171/4/2 172/4/2 173/4/2
f 172/4/2 167/4/2 174/4/2
f 173/4/2 172/4/2 174/4/2
f 168/3/2 169/3/2 175/3/2
f 174/4/2 167/4/2 175/4/2
f 169/3/2 170/3/2 175/3/2
f 167/3/2 168/3/2 175/3/2
f 175/3/2 170/3/2 176/3/2
f 174/4/2 175/4/2 177/4/2
f 174/4/2 177/4/2 179/4/2
f 177/4/2 178/4/2 179/4/2
f 179/4/2 178/4/2 180/4/2
f 181/2/2 182/2/2 183/2/2
f 183/2/2 182/2/2 184/2/2
f 185/2/2 186/2/2 187/2/2
f 187/2/2 186/2/2 188/2/2
f 189/1/2 190/1/2 192/1/2
f 190/4/2 191/4/2 193/4/2
f 192/1/2 190/1/2 193/1/2
f 193/4/2 191/4/2 194/4/2
f 193/3/2 194/3/2 196/3/2
f 194/4/2 191/4/2 197/4/2
f 196/3/2 194/3/2 197/3/2
f 195/1/2 196/1/2 198/1/2
f 196/4/2 197/4/2 199/4/2
f 198/1/2 196/1/2 199/1/2
f 197/4/2 191/4/2 200/4/2
f 199/4/2 197/4/2 200/4/2
f 205/1/3 202/1/3 201/1/3
f 206/1/3 202/1/3 205/1/3
f 207/1/3 204/1/3 203/1/3
f 208/1/3 204/1/3 207/1/3
f 211/4/3 210/4/3 209/4/3
f 212/4/3 210/4/3 211/4/3
f 214/1/3 212/1/3 211/1/3
f 215/4/3 213/4/3 212/4/3
f 215/1/3 212/1/3 214/1/3
f 216/4/3 213/4/3 215/4/3
f 217/4/3 215/4/3 214/4/3
f 218/4/3 215/4/3 217/4/3
f 223/1/3 220/1/3 219/1/3
f 224/1/3 220/1/3 223/1/3
f 225/1/3 222/1/3 221/1/3
f 226/1/3 222/1/3 225/1/3
f 229/3/3 228/3/3 227/3/3
f 230/3/3 228/3/3 229/3/3
f 235/4/3 232/4/3 231/4/3
f 236/4/3 232/4/3 235/4/3
f 237/4/3 232/4/3 236/4/3
f 238/4/3 234/4/3 233/4/3
f 239/4/3 234/4/3 238/4/3
f 241/3/3 237/3/3 236/3/3
f 242/3/3 237/3/3 241/3/3
f 244/4/3 234/4/3 239/4/3
f 245/4/3 242/4/3 241/4/3
f 245/4/3 241/4/3 240/4/3
f 246/4/3 242/4/3 245/4/3
f 247/4/3 244/4/3 243/4/3
f 248/4/3 234/4/3 244/4/3
f 248/4/3 244/4/3 247/4/3
f 251/3/3 250/3/3 249/3/3
f 252/3/3 250/3/3 251/3/3
f 257/2/3 256/2/3 255/2/3
f 258/2/3 256/2/3 257/2/3
f 259/2/3 256/2/3 258/2/3
f 260/3/3 254/3/3 253/3/3
f 261/3/3 254/3/3 260/3/3
f 262/2/3 259/2/3 258/2/3
f 263/2/3 259/2/3 262/2/3
f 266/3/3 264/3/3 263/3/3
f 267/3/3 264/3/3 266/3/3
f 269/2/3 266/2/3 265/2/3
f 270/2/3 266/2/3 269/2/3
f 273/2/3 270/2/3 269/2/3
f 273/2/3 269/2/3 268/2/3
f 274/2/3 270/2/3 273/2/3
f 275/3/3 272/3/3 271/3/3
f 276/3/3 272/3/3 275/3/3
f 279/4/3 278/4/3 277/4/3
f 280/4/3 278/4/3 279/4/3
f 283/4/3 282/4/3 281/4/3
f 284/4/3 282/4/3 283/4/3
f 288/2/3 286/2/3 285/2/3
f 289/2/3 286/2/3 288/2/3
f 290/2/3 286/2/3 289/2/3
f 291/2/3 288/2/3 287/2/3
f 292/3/3 289/3/3 288/3/3
f 292/2/3 288/2/3 291/2/3
f 293/3/3 289/3/3 292/3/3
f 297/2/3 295/2/3 294/2/3
f 298/3/3 296/3/3 295/3/3
f 298/2/3 295/2/3 297/2/3
f 299/3/3 296/3/3 298/3/3
f 301/2/3 299/2/3 298/2/3
f 301/2/3 300/2/3 299/2/3
f 302/2/3 300/2/3 301/2/3
f 303/2/4 304/2/4 305/2/4
f 305/2/4 304/2/4 306/2/4
f 306/2/4 304/2/4 307/2/4
f 306/2/4 307/2/4 308/2/4
f 308/2/4 307/2/4 309/2/4
f 310/2/4 311/2/4 313/2/4
f 313/2/4 311/2/4 314/2/4
f 312/2/4 313/2/4 315/2/4
f 313/2/4 314/2/4 315/2/4
f 315/2/4 314/2/4 316/2/4
f 317/4/4 318/4/4 319/4/4
f 319/4/4 318/4/4 320/4/4
f 321/2/4 322/2/4 323/2/4
f 323/2/4 322/2/4 324/2/4
f 325/2/4 326/2/4 327/2/4
f 327/2/4 326/2/4 328/2/4
f 329/4/4 330/4/4 331/4/4
f 331/4/4 330/4/4 332/4/4
f 333/3/4 334/3/4 335/3/4
f 335/3/4 334/3/4 336/3/4
f 337/2/4 338/2/4 339/2/4
f 339/2/4 338/2/4 340/2/4
f 342/3/4 343/3/4 346/3/4
f 341/3/4 342/3/4 346/3/4
f 346/3/4 343/3/4 347/3/4
f 347/3/4 343/3/4 348/3/4
f 344/2/4 345/2/4 349/2/4
f 349/2/4 345/2/4 350/2/4
f 353/2/4 354/2/4 355/2/4
f 351/3/4 352/3/4 356/3/4
f 356/3/4 352/3/4 357/3/4
f 353/2/4 355/2/4 359/2/4
f 355/3/4 356/3/4 360/3/4
f 359/2/4 355/2/4 360/2/4
f 356/3/4 357/3/4 360/3/4
f 360/3/4 357/3/4 361/3/4
f 357/4/4 358/4/4 362/4/4
f 361/3/4 357/3/4 362/3/4
f 362/4/4 358/4/4 366/4/4
f 364/3/4 365/3/4 367/3/4
f 365/3/4 366/3/4 367/3/4
f 363/2/4 364/2/4 367/2/4
f 367/3/4 366/3/4 368/3/4
f 366/4/4 358/4/4 369/4/4
f 368/3/4 366/3/4 369/3/4
f 369/4/4 358/4/4 370/4/4
f 363/2/4 367/2/4 371/2/4
f 371/2/4 367/2/4 372/2/4
f 368/3/4 369/3/4 373/3/4
f 373/3/4 369/3/4 374/3/4
f 375/4/4 376/4/4 377/4/4
f 377/4/4 376/4/4 378/4/4
f 379/4/4 380/4/4 381/4/4
f 381/4/4 380/4/4 382/4/4
f 383/4/4 384/4/4 385/4/4
f 385/4/4 384/4/4 386/4/4
f 391/2/5 388/2/5 387/2/5
f 392/2/5 388/2/5 391/2/5
f 393/2/5 390/2/5 389/2/5
f 394/2/5 390/2/5 393/2/5
f 399/2/5 396/2/5 395/2/5
f 400/2/5 396/2/5 399/2/5
f 401/2/5 398/2/5 397/2/5
f 402/2/5 398/2/5 401/2/5
f 407/2/5 404/2/5 403/2/5
f 408/2/5 404/2/5 407/2/5
f 409/2/5 406/2/5 405/2/5
f 410/2/5 406/2/5 409/2/5
f 415/4/5 412/4/5 411/4/5
f 416/4/5 412/4/5 415/4/5
f 417/4/5 414/4/5 413/4/5
f 418/4/5 414/4/5 417/4/5
f 420/3/5 417/3/5 416/3/5
f 421/3/5 417/3/5 420/3/5
f 423/2/5 420/2/5 419/2/5
f 424/3/5 421/3/5 420/3/5
f 424/2/5 420/2/5 423/2/5
f 425/2/5 422/2/5 421/2/5
f 425/3/5 421/3/5 424/3/5
f 426/2/5 422/2/5 425/2/5
f 429/3/5 425/3/5 424/3/5
f 430/3/5 425/3/5 429/3/5
f 433/2/5 428/2/5 427/2/5
f 436/2/5 432/2/5 431/2/5
f 437/2/5 434/2/5 433/2/5
f 437/2/5 433/2/5 427/2/5
f 438/2/5 434/2/5 437/2/5
f 439/2/5 436/2/5 435/2/5
f 440/2/5 432/2/5 436/2/5
f 440/2/5 436/2/5 439/2/5
f 445/3/5 442/3/5 441/3/5
f 446/3/5 442/3/5 445/3/5
f 447/3/5 444/3/5 443/3/5
f 448/3/5 444/3/5 447/3/5
f 449/3/5 447/3/5 446/3/5
f 450/3/5 447/3/5 449/3/5
f 453/3/5 452/3/5 451/3/5
f 454/3/5 452/3/5 453/3/5
f 463/1/5 456/1/5 455/1/5
f 464/1/5 456/1/5 463/1/5
f 465/4/5 458/4/5 457/4/5
f 466/1/5 459/1/5 458/1/5
f 466/4/5 458/4/5 465/4/5
f 467/4/5 460/4/5 459/4/5
f 467/1/5 459/1/5 466/1/5
f 468/4/5 460/4/5 467/4/5
f 469/1/5 462/1/5 461/1/5
f 470/1/5 462/1/5 469/1/5
f 473/3/5 472/3/5 471/3/5
f 474/3/5 472/3/5 473/3/5
f 475/4/5 464/4/5 463/4/5
f 476/4/5 464/4/5 475/4/5
f 477/4/5 474/4/5 473/4/5
f 478/4/5 474/4/5 477/4/5
f 479/4/5 470/4/5 469/4/5
f 480/4/5 470/4/5 479/4/5
f 485/3/5 482/3/5 481/3/5
f 486/3/5 482/3/5 485/3/5
f 487/3/5 484/3/5 483/3/5
f 488/3/5 484/3/5 487/3/5
f 493/1/5 490/1/5 489/1/5
f 494/1/5 490/1/5 493/1/5
f 495/1/5 492/1/5 491/1/5
f 496/1/5 492/1/5 495/1/5
f 497/2/6 498/2/6 501/2/6
f 501/2/6 498/2/6 502/2/6
f 499/2/6 500/2/6 503/2/6
f 503/2/6 500/2/6 504/2/6
f 505/2/6 506/2/6 509/2/6
f 509/2/6 506/2/6 510/2/6
f 507/2/6 508/2/6 511/2/6
f 511/2/6 508/2/6 512/2/6
f 513/1/6 514/1/6 521/1/6
f 521/1/6 514/1/6 522/1/6
f 515/4/6 516/4/6 523/4/6
f 523/4/6 516/4/6 524/4/6
f 517/4/6 518/4/6 525/4/6
f 525/4/6 518/4/6 526/4/6
f 519/1/6 520/1/6 527/1/6
f 527/1/6 520/1/6 528/1/6
f 529/4/6 530/4/6 531/4/6
f 531/4/6 530/4/6 532/4/6
f 533/3/6 534/3/6 537/3/6
f 537/3/6 534/3/6 538/3/6
f 535/3/6 536/3/6 539/3/6
f 539/3/6 536/3/6 540/3/6
f 538/3/6 534/3/6 542/3/6
f 535/3/6 539/3/6 543/3/6
f 541/3/6 542/3/6 545/3/6
f 542/3/6 534/3/6 546/3/6
f 545/3/6 542/3/6 546/3/6
f 543/3/6 544/3/6 549/3/6
f 535/3/6 543/3/6 549/3/6
f 549/3/6 544/3/6 550/3/6
f 547/4/6 548/4/6 551/4/6
f 551/4/6 548/4/6 552/4/6
f 553/1/6 554/1/6 557/1/6
f 557/1/6 554/1/6 558/1/6
f 555/1/6 556/1/6 561/1/6
f 561/1/6 556/1/6 562/1/6
f 557/4/6 558/4/6 563/4/6
f 561/4/6 562/4/6 566/4/6
f 563/4/6 564/4/6 567/4/6
f 557/4/6 563/4/6 567/4/6
f 567/4/6 564/4/6 568/4/6
f 565/4/6 566/4/6 569/4/6
f 566/4/6 562/4/6 570/4/6
f 569/4/6 566/4/6 570/4/6
f 559/4/6 560/4/6 571/4/6
f 571/4/6 560/4/6 572/4/6
f 557/4/6 567/4/6 573/4/6
f 573/4/6 567/4/6 574/4/6
f 570/4/6 562/4/6 575/4/6
f 575/4/6 562/4/6 576/4/6
