# MagicaVoxel @ Ephtracy

# material
mtllib alien_engi1a.mtl
usemtl palette

# normals
vn -1 0 0
vn 1 0 0
vn 0 0 1
vn 0 0 -1
vn 0 -1 0
vn 0 1 0

# texcoords
vt 0.587891 0.5
vt 0.978516 0.5
vt 0.986328 0.5
vt 0.990234 0.5
vt 0.994141 0.5

# verts
v -4 2 1
v -4 2 -0
v -4 3 1
v -4 3 -0
v -4 5 1
v -4 5 -0
v -4 6 1
v -4 6 -0
v -3 2 2
v -3 2 1
v -3 2 -0
v -3 2 -1
v -3 3 2
v -3 3 1
v -3 3 -0
v -3 3 -1
v -3 5 1
v -3 5 -0
v -3 6 2
v -3 6 1
v -3 6 -0
v -3 6 -1
v -3 7 2
v -3 7 -1
v -3 11 2
v -3 11 -1
v -2 0 1
v -2 0 -0
v -2 1 1
v -2 1 -0
v -2 2 1
v -2 2 -0
v -2 6 1
v -2 6 -1
v -2 7 1
v -2 7 -1
v -2 7 -2
v -2 11 -1
v -2 11 -2
v 1 0 1
v 1 0 -0
v 1 1 1
v 1 1 -0
v 1 2 1
v 1 2 -0
v -1 0 1
v -1 0 -0
v -1 1 1
v -1 1 -0
v -1 2 1
v -1 2 -0
v 2 0 1
v 2 0 -0
v 2 1 1
v 2 1 -0
v 2 2 1
v 2 2 -0
v 2 6 1
v 2 6 -1
v 2 7 1
v 2 7 -1
v 2 7 -2
v 2 11 -1
v 2 11 -2
v 3 2 2
v 3 2 1
v 3 2 -0
v 3 2 -1
v 3 3 2
v 3 3 1
v 3 3 -0
v 3 3 -1
v 3 5 1
v 3 5 -0
v 3 6 2
v 3 6 1
v 3 6 -0
v 3 6 -1
v 3 7 2
v 3 7 -1
v 3 11 2
v 3 11 -1
v 4 2 1
v 4 2 -0
v 4 3 1
v 4 3 -0
v 4 5 1
v 4 5 -0
v 4 6 1
v 4 6 -0
v -3 2 2
v -3 3 2
v -3 6 2
v -3 7 2
v -3 11 2
v -2 8 2
v -2 10 2
v -1 8 2
v -1 10 2
v 1 8 2
v 1 10 2
v 2 8 2
v 2 10 2
v 3 2 2
v 3 3 2
v 3 6 2
v 3 7 2
v 3 11 2
v -4 2 1
v -4 3 1
v -4 5 1
v -4 6 1
v -3 2 1
v -3 3 1
v -3 5 1
v -3 6 1
v -2 0 1
v -2 1 1
v -2 2 1
v -2 6 1
v -2 7 1
v -1 0 1
v -1 1 1
v -1 2 1
v 1 0 1
v 1 1 1
v 1 2 1
v 2 0 1
v 2 1 1
v 2 2 1
v 2 6 1
v 2 7 1
v 3 2 1
v 3 3 1
v 3 5 1
v 3 6 1
v 4 2 1
v 4 3 1
v 4 5 1
v 4 6 1
v -4 2 -0
v -4 3 -0
v -4 5 -0
v -4 6 -0
v -3 2 -0
v -3 3 -0
v -3 5 -0
v -3 6 -0
v -2 0 -0
v -2 1 -0
v -2 2 -0
v -1 0 -0
v -1 1 -0
v -1 2 -0
v 1 0 -0
v 1 1 -0
v 1 2 -0
v 2 0 -0
v 2 1 -0
v 2 2 -0
v 3 2 -0
v 3 3 -0
v 3 5 -0
v 3 6 -0
v 4 2 -0
v 4 3 -0
v 4 5 -0
v 4 6 -0
v -3 2 -1
v -3 3 -1
v -3 6 -1
v -3 7 -1
v -3 11 -1
v -2 6 -1
v -2 7 -1
v -2 11 -1
v 2 6 -1
v 2 7 -1
v 2 11 -1
v 3 2 -1
v 3 3 -1
v 3 6 -1
v 3 7 -1
v 3 11 -1
v -2 7 -2
v -2 11 -2
v 2 7 -2
v 2 11 -2
v -2 0 1
v -1 0 1
v 1 0 1
v 2 0 1
v -2 0 -0
v -1 0 -0
v 1 0 -0
v 2 0 -0
v -3 2 2
v 3 2 2
v -4 2 1
v -3 2 1
v -2 2 1
v -1 2 1
v 1 2 1
v 2 2 1
v 3 2 1
v 4 2 1
v -4 2 -0
v -3 2 -0
v -2 2 -0
v -1 2 -0
v 1 2 -0
v 2 2 -0
v 3 2 -0
v 4 2 -0
v -3 2 -1
v 3 2 -1
v -3 7 2
v 3 7 2
v -2 7 1
v 2 7 1
v -3 7 -1
v -2 7 -1
v 2 7 -1
v 3 7 -1
v -2 7 -2
v 2 7 -2
v -3 6 2
v 3 6 2
v -4 6 1
v -3 6 1
v -2 6 1
v 2 6 1
v 3 6 1
v 4 6 1
v -4 6 -0
v -3 6 -0
v 3 6 -0
v 4 6 -0
v -3 6 -1
v -2 6 -1
v 2 6 -1
v 3 6 -1
v -3 11 2
v 3 11 2
v -3 11 -1
v -2 11 -1
v 2 11 -1
v 3 11 -1
v -2 11 -2
v 2 11 -2

# faces
f 3/1/1 2/1/1 1/1/1
f 4/1/1 2/1/1 3/1/1
f 5/3/1 4/3/1 3/3/1
f 6/3/1 4/3/1 5/3/1
f 7/2/1 6/2/1 5/2/1
f 8/2/1 6/2/1 7/2/1
f 13/3/1 10/3/1 9/3/1
f 14/3/1 10/3/1 13/3/1
f 15/3/1 12/3/1 11/3/1
f 16/3/1 12/3/1 15/3/1
f 17/2/1 14/2/1 13/2/1
f 18/2/1 16/2/1 15/2/1
f 19/2/1 17/2/1 13/2/1
f 20/2/1 17/2/1 19/2/1
f 21/2/1 16/2/1 18/2/1
f 22/2/1 16/2/1 21/2/1
f 25/1/1 24/1/1 23/1/1
f 26/1/1 24/1/1 25/1/1
f 29/4/1 28/4/1 27/4/1
f 30/4/1 28/4/1 29/4/1
f 31/1/1 30/1/1 29/1/1
f 32/1/1 30/1/1 31/1/1
f 35/1/1 34/1/1 33/1/1
f 36/1/1 34/1/1 35/1/1
f 38/1/1 37/1/1 36/1/1
f 39/1/1 37/1/1 38/1/1
f 42/4/1 41/4/1 40/4/1
f 43/4/1 41/4/1 42/4/1
f 44/1/1 43/1/1 42/1/1
f 45/1/1 43/1/1 44/1/1
f 46/4/2 47/4/2 48/4/2
f 48/4/2 47/4/2 49/4/2
f 48/1/2 49/1/2 50/1/2
f 50/1/2 49/1/2 51/1/2
f 52/4/2 53/4/2 54/4/2
f 54/4/2 53/4/2 55/4/2
f 54/1/2 55/1/2 56/1/2
f 56/1/2 55/1/2 57/1/2
f 58/1/2 59/1/2 60/1/2
f 60/1/2 59/1/2 61/1/2
f 61/1/2 62/1/2 63/1/2
f 63/1/2 62/1/2 64/1/2
f 65/3/2 66/3/2 69/3/2
f 69/3/2 66/3/2 70/3/2
f 67/3/2 68/3/2 71/3/2
f 71/3/2 68/3/2 72/3/2
f 69/2/2 70/2/2 73/2/2
f 71/2/2 72/2/2 74/2/2
f 69/2/2 73/2/2 75/2/2
f 75/2/2 73/2/2 76/2/2
f 74/2/2 72/2/2 77/2/2
f 77/2/2 72/2/2 78/2/2
f 79/1/2 80/1/2 81/1/2
f 81/1/2 80/1/2 82/1/2
f 83/1/2 84/1/2 85/1/2
f 85/1/2 84/1/2 86/1/2
f 85/3/2 86/3/2 87/3/2
f 87/3/2 86/3/2 88/3/2
f 87/2/2 88/2/2 89/2/2
f 89/2/2 88/2/2 90/2/2
f 96/1/3 95/1/3 94/1/3
f 97/1/3 95/1/3 96/1/3
f 98/1/3 96/1/3 94/1/3
f 98/5/3 97/5/3 96/5/3
f 99/1/3 95/1/3 97/1/3
f 99/5/3 97/5/3 98/5/3
f 100/1/3 98/1/3 94/1/3
f 100/1/3 99/1/3 98/1/3
f 101/1/3 95/1/3 99/1/3
f 101/1/3 99/1/3 100/1/3
f 102/1/3 100/1/3 94/1/3
f 102/5/3 101/5/3 100/5/3
f 103/1/3 95/1/3 101/1/3
f 103/5/3 101/5/3 102/5/3
f 104/3/3 92/3/3 91/3/3
f 105/2/3 93/2/3 92/2/3
f 105/3/3 92/3/3 104/3/3
f 106/2/3 93/2/3 105/2/3
f 107/1/3 102/1/3 94/1/3
f 107/1/3 103/1/3 102/1/3
f 108/1/3 95/1/3 103/1/3
f 108/1/3 103/1/3 107/1/3
f 113/1/3 110/1/3 109/1/3
f 114/3/3 111/3/3 110/3/3
f 114/1/3 110/1/3 113/1/3
f 115/2/3 112/2/3 111/2/3
f 115/3/3 111/3/3 114/3/3
f 116/2/3 112/2/3 115/2/3
f 122/4/3 118/4/3 117/4/3
f 123/1/3 119/1/3 118/1/3
f 123/4/3 118/4/3 122/4/3
f 124/1/3 119/1/3 123/1/3
f 128/4/3 126/4/3 125/4/3
f 129/1/3 127/1/3 126/1/3
f 129/4/3 126/4/3 128/4/3
f 130/1/3 127/1/3 129/1/3
f 131/1/3 121/1/3 120/1/3
f 132/1/3 121/1/3 131/1/3
f 137/1/3 134/1/3 133/1/3
f 138/3/3 135/3/3 134/3/3
f 138/1/3 134/1/3 137/1/3
f 139/2/3 136/2/3 135/2/3
f 139/3/3 135/3/3 138/3/3
f 140/2/3 136/2/3 139/2/3
f 141/1/4 142/1/4 145/1/4
f 142/3/4 143/3/4 146/3/4
f 145/1/4 142/1/4 146/1/4
f 143/2/4 144/2/4 147/2/4
f 146/3/4 143/3/4 147/3/4
f 147/2/4 144/2/4 148/2/4
f 149/4/4 150/4/4 152/4/4
f 150/1/4 151/1/4 153/1/4
f 152/4/4 150/4/4 153/4/4
f 153/1/4 151/1/4 154/1/4
f 155/4/4 156/4/4 158/4/4
f 156/1/4 157/1/4 159/1/4
f 158/4/4 156/4/4 159/4/4
f 159/1/4 157/1/4 160/1/4
f 161/1/4 162/1/4 165/1/4
f 162/3/4 163/3/4 166/3/4
f 165/1/4 162/1/4 166/1/4
f 163/2/4 164/2/4 167/2/4
f 166/3/4 163/3/4 167/3/4
f 167/2/4 164/2/4 168/2/4
f 170/2/4 171/2/4 174/2/4
f 172/1/4 173/1/4 175/1/4
f 175/1/4 173/1/4 176/1/4
f 170/2/4 174/2/4 177/2/4
f 174/1/4 175/1/4 177/1/4
f 177/1/4 175/1/4 178/1/4
f 169/3/4 170/3/4 180/3/4
f 170/2/4 177/2/4 181/2/4
f 180/3/4 170/3/4 181/3/4
f 181/2/4 177/2/4 182/2/4
f 178/1/4 179/1/4 183/1/4
f 183/1/4 179/1/4 184/1/4
f 185/1/4 186/1/4 187/1/4
f 187/1/4 186/1/4 188/1/4
f 193/4/5 190/4/5 189/4/5
f 194/4/5 190/4/5 193/4/5
f 195/4/5 192/4/5 191/4/5
f 196/4/5 192/4/5 195/4/5
f 200/3/5 198/3/5 197/3/5
f 201/3/5 198/3/5 200/3/5
f 202/3/5 198/3/5 201/3/5
f 203/3/5 198/3/5 202/3/5
f 204/3/5 198/3/5 203/3/5
f 205/3/5 198/3/5 204/3/5
f 207/1/5 200/1/5 199/1/5
f 208/3/5 201/3/5 200/3/5
f 208/1/5 200/1/5 207/1/5
f 209/3/5 201/3/5 208/3/5
f 210/1/5 203/1/5 202/1/5
f 211/1/5 203/1/5 210/1/5
f 212/3/5 205/3/5 204/3/5
f 213/1/5 206/1/5 205/1/5
f 213/3/5 205/3/5 212/3/5
f 214/1/5 206/1/5 213/1/5
f 215/3/5 212/3/5 211/3/5
f 215/3/5 211/3/5 210/3/5
f 215/3/5 213/3/5 212/3/5
f 215/3/5 209/3/5 208/3/5
f 215/3/5 210/3/5 209/3/5
f 216/3/5 213/3/5 215/3/5
f 219/1/5 218/1/5 217/1/5
f 220/1/5 218/1/5 219/1/5
f 221/1/5 219/1/5 217/1/5
f 222/1/5 219/1/5 221/1/5
f 223/1/5 218/1/5 220/1/5
f 224/1/5 218/1/5 223/1/5
f 225/1/5 223/1/5 222/1/5
f 226/1/5 223/1/5 225/1/5
f 227/2/6 228/2/6 230/2/6
f 230/2/6 228/2/6 231/2/6
f 231/2/6 228/2/6 232/2/6
f 232/2/6 228/2/6 233/2/6
f 229/2/6 230/2/6 235/2/6
f 230/2/6 231/2/6 235/2/6
f 235/2/6 231/2/6 236/2/6
f 233/2/6 234/2/6 237/2/6
f 232/2/6 233/2/6 237/2/6
f 237/2/6 234/2/6 238/2/6
f 236/2/6 231/2/6 239/2/6
f 239/2/6 231/2/6 240/2/6
f 232/2/6 237/2/6 241/2/6
f 241/2/6 237/2/6 242/2/6
f 243/1/6 244/1/6 245/1/6
f 245/1/6 244/1/6 246/1/6
f 246/1/6 244/1/6 247/1/6
f 247/1/6 244/1/6 248/1/6
f 246/1/6 247/1/6 249/1/6
f 249/1/6 247/1/6 250/1/6
