# MagicaVoxel @ Ephtracy

# material
mtllib alien_tool3.mtl
usemtl palette

# normals
vn -1 0 0
vn 1 0 0
vn 0 0 1
vn 0 0 -1
vn 0 -1 0
vn 0 1 0

# texcoords
vt 0.744141 0.5
vt 0.978516 0.5
vt 0.982422 0.5
vt 0.986328 0.5

# verts
v -1.5 0 1.5
v -1.5 0 0.5
v -1.5 0 -0.5
v -1.5 0 -2.5
v -1.5 2 -0.5
v -1.5 2 -2.5
v -1.5 3 1.5
v -1.5 3 0.5
v -0.5 1 2.5
v -0.5 1 1.5
v -0.5 1 0.5
v -0.5 1 -0.5
v -0.5 2 2.5
v -0.5 2 1.5
v -0.5 2 0.5
v -0.5 2 -0.5
v 0.5 1 2.5
v 0.5 1 1.5
v 0.5 1 0.5
v 0.5 1 -0.5
v 0.5 2 2.5
v 0.5 2 1.5
v 0.5 2 0.5
v 0.5 2 -0.5
v 1.5 0 1.5
v 1.5 0 0.5
v 1.5 0 -0.5
v 1.5 0 -2.5
v 1.5 2 -0.5
v 1.5 2 -2.5
v 1.5 3 1.5
v 1.5 3 0.5
v -0.5 1 2.5
v -0.5 2 2.5
v 0.5 1 2.5
v 0.5 2 2.5
v -1.5 0 1.5
v -1.5 3 1.5
v -0.5 1 1.5
v -0.5 2 1.5
v 0.5 1 1.5
v 0.5 2 1.5
v 1.5 0 1.5
v 1.5 3 1.5
v -1.5 0 -0.5
v -1.5 2 -0.5
v -0.5 1 -0.5
v -0.5 2 -0.5
v 0.5 1 -0.5
v 0.5 2 -0.5
v 1.5 0 -0.5
v 1.5 2 -0.5
v -1.5 0 0.5
v -1.5 3 0.5
v -0.5 1 0.5
v -0.5 2 0.5
v 0.5 1 0.5
v 0.5 2 0.5
v 1.5 0 0.5
v 1.5 3 0.5
v -1.5 0 -2.5
v -1.5 2 -2.5
v 1.5 0 -2.5
v 1.5 2 -2.5
v -1.5 0 1.5
v 1.5 0 1.5
v -1.5 0 0.5
v 1.5 0 0.5
v -1.5 0 -0.5
v 1.5 0 -0.5
v -1.5 0 -2.5
v 1.5 0 -2.5
v -0.5 1 2.5
v 0.5 1 2.5
v -0.5 1 1.5
v 0.5 1 1.5
v -0.5 1 0.5
v 0.5 1 0.5
v -0.5 1 -0.5
v 0.5 1 -0.5
v -0.5 2 2.5
v 0.5 2 2.5
v -0.5 2 1.5
v 0.5 2 1.5
v -0.5 2 0.5
v 0.5 2 0.5
v -1.5 2 -0.5
v -0.5 2 -0.5
v 0.5 2 -0.5
v 1.5 2 -0.5
v -1.5 2 -2.5
v 1.5 2 -2.5
v -1.5 3 1.5
v 1.5 3 1.5
v -1.5 3 0.5
v 1.5 3 0.5

# faces
f 5/4/1 4/4/1 3/4/1
f 6/4/1 4/4/1 5/4/1
f 7/3/1 2/3/1 1/3/1
f 8/3/1 2/3/1 7/3/1
f 13/1/1 10/1/1 9/1/1
f 14/1/1 10/1/1 13/1/1
f 15/2/1 12/2/1 11/2/1
f 16/2/1 12/2/1 15/2/1
f 17/1/2 18/1/2 21/1/2
f 21/1/2 18/1/2 22/1/2
f 19/2/2 20/2/2 23/2/2
f 23/2/2 20/2/2 24/2/2
f 27/4/2 28/4/2 29/4/2
f 29/4/2 28/4/2 30/4/2
f 25/3/2 26/3/2 31/3/2
f 31/3/2 26/3/2 32/3/2
f 35/1/3 34/1/3 33/1/3
f 36/1/3 34/1/3 35/1/3
f 39/3/3 38/3/3 37/3/3
f 40/3/3 38/3/3 39/3/3
f 41/3/3 39/3/3 37/3/3
f 42/3/3 38/3/3 40/3/3
f 43/3/3 41/3/3 37/3/3
f 43/3/3 42/3/3 41/3/3
f 44/3/3 38/3/3 42/3/3
f 44/3/3 42/3/3 43/3/3
f 47/4/3 46/4/3 45/4/3
f 48/4/3 46/4/3 47/4/3
f 49/4/3 47/4/3 45/4/3
f 51/4/3 49/4/3 45/4/3
f 51/4/3 50/4/3 49/4/3
f 52/4/3 50/4/3 51/4/3
f 53/3/4 54/3/4 55/3/4
f 55/3/4 54/3/4 56/3/4
f 53/3/4 55/3/4 57/3/4
f 56/3/4 54/3/4 58/3/4
f 53/3/4 57/3/4 59/3/4
f 57/3/4 58/3/4 59/3/4
f 58/3/4 54/3/4 60/3/4
f 59/3/4 58/3/4 60/3/4
f 61/4/4 62/4/4 63/4/4
f 63/4/4 62/4/4 64/4/4
f 67/3/5 66/3/5 65/3/5
f 68/3/5 66/3/5 67/3/5
f 71/4/5 70/4/5 69/4/5
f 72/4/5 70/4/5 71/4/5
f 75/1/5 74/1/5 73/1/5
f 76/1/5 74/1/5 75/1/5
f 79/2/5 78/2/5 77/2/5
f 80/2/5 78/2/5 79/2/5
f 81/1/6 82/1/6 83/1/6
f 83/1/6 82/1/6 84/1/6
f 85/2/6 86/2/6 88/2/6
f 88/2/6 86/2/6 89/2/6
f 88/4/6 89/4/6 91/4/6
f 89/4/6 90/4/6 91/4/6
f 87/4/6 88/4/6 91/4/6
f 91/4/6 90/4/6 92/4/6
f 93/3/6 94/3/6 95/3/6
f 95/3/6 94/3/6 96/3/6
