# MagicaVoxel @ Ephtracy

# material
mtllib alien_lift.mtl
usemtl palette

# normals
vn -1 0 0
vn 1 0 0
vn 0 0 1
vn 0 0 -1
vn 0 -1 0
vn 0 1 0

# texcoords
vt 0.435547 0.5
vt 0.462891 0.5
vt 0.958984 0.5

# verts
v -6 1 4
v -6 1 -4
v -6 2 4
v -6 2 -4
v -6 4 4
v -6 4 -4
v -6 6 4
v -6 6 -4
v -6 8 4
v -6 8 -4
v -6 10 4
v -6 10 -4
v -6 12 4
v -6 12 -4
v -6 14 4
v -6 14 -4
v -6 16 4
v -6 16 -4
v -6 18 4
v -6 18 -4
v -6 20 4
v -6 20 -4
v -6 21 4
v -6 21 -4
v 0 0 -1
v 0 0 -2
v 0 1 -1
v 0 1 -2
v 4 0 -2
v 4 0 -3
v 4 1 -2
v 4 1 -3
v 5 4 4
v 5 4 -3
v 5 6 4
v 5 6 -3
v 5 8 4
v 5 8 -3
v 5 10 4
v 5 10 -3
v 5 12 4
v 5 12 -3
v 5 14 4
v 5 14 -3
v 5 16 4
v 5 16 -3
v 5 18 4
v 5 18 -3
v -5 4 4
v -5 4 -3
v -5 6 4
v -5 6 -3
v -5 8 4
v -5 8 -3
v -5 10 4
v -5 10 -3
v -5 12 4
v -5 12 -3
v -5 14 4
v -5 14 -3
v -5 16 4
v -5 16 -3
v -5 18 4
v -5 18 -3
v 1 0 -1
v 1 0 -2
v 1 1 -1
v 1 1 -2
v 5 0 -2
v 5 0 -3
v 5 1 -2
v 5 1 -3
v 6 1 4
v 6 1 -4
v 6 2 4
v 6 2 -4
v 6 4 4
v 6 4 -4
v 6 6 4
v 6 6 -4
v 6 8 4
v 6 8 -4
v 6 10 4
v 6 10 -4
v 6 12 4
v 6 12 -4
v 6 14 4
v 6 14 -4
v 6 16 4
v 6 16 -4
v 6 18 4
v 6 18 -4
v 6 20 4
v 6 20 -4
v 6 21 4
v 6 21 -4
v -6 1 4
v -6 2 4
v -6 4 4
v -6 6 4
v -6 8 4
v -6 10 4
v -6 12 4
v -6 14 4
v -6 16 4
v -6 18 4
v -6 20 4
v -6 21 4
v -5 4 4
v -5 6 4
v -5 8 4
v -5 10 4
v -5 12 4
v -5 14 4
v -5 16 4
v -5 18 4
v 5 4 4
v 5 6 4
v 5 8 4
v 5 10 4
v 5 12 4
v 5 14 4
v 5 16 4
v 5 18 4
v 6 1 4
v 6 2 4
v 6 4 4
v 6 6 4
v 6 8 4
v 6 10 4
v 6 12 4
v 6 14 4
v 6 16 4
v 6 18 4
v 6 20 4
v 6 21 4
v 0 0 -1
v 0 1 -1
v 1 0 -1
v 1 1 -1
v 4 0 -2
v 4 1 -2
v 5 0 -2
v 5 1 -2
v -5 4 -3
v -5 6 -3
v -5 8 -3
v -5 10 -3
v -5 12 -3
v -5 14 -3
v -5 16 -3
v -5 18 -3
v 5 4 -3
v 5 6 -3
v 5 8 -3
v 5 10 -3
v 5 12 -3
v 5 14 -3
v 5 16 -3
v 5 18 -3
v 0 0 -2
v 0 1 -2
v 1 0 -2
v 1 1 -2
v 4 0 -3
v 4 1 -3
v 5 0 -3
v 5 1 -3
v -6 1 -4
v -6 2 -4
v -6 4 -4
v -6 6 -4
v -6 8 -4
v -6 10 -4
v -6 12 -4
v -6 14 -4
v -6 16 -4
v -6 18 -4
v -6 20 -4
v -6 21 -4
v 6 1 -4
v 6 2 -4
v 6 4 -4
v 6 6 -4
v 6 8 -4
v 6 10 -4
v 6 12 -4
v 6 14 -4
v 6 16 -4
v 6 18 -4
v 6 20 -4
v 6 21 -4
v 0 0 -1
v 1 0 -1
v 0 0 -2
v 1 0 -2
v 4 0 -2
v 5 0 -2
v 4 0 -3
v 5 0 -3
v -6 1 4
v 6 1 4
v 0 1 -1
v 1 1 -1
v 0 1 -2
v 1 1 -2
v 4 1 -2
v 5 1 -2
v 4 1 -3
v 5 1 -3
v -6 1 -4
v 6 1 -4
v -6 4 4
v -5 4 4
v 5 4 4
v 6 4 4
v -5 4 -3
v 5 4 -3
v -6 4 -4
v 6 4 -4
v -6 8 4
v -5 8 4
v 5 8 4
v 6 8 4
v -5 8 -3
v 5 8 -3
v -6 8 -4
v 6 8 -4
v -6 12 4
v -5 12 4
v 5 12 4
v 6 12 4
v -5 12 -3
v 5 12 -3
v -6 12 -4
v 6 12 -4
v -6 16 4
v -5 16 4
v 5 16 4
v 6 16 4
v -5 16 -3
v 5 16 -3
v -6 16 -4
v 6 16 -4
v -6 20 4
v 6 20 4
v -6 20 -4
v 6 20 -4
v -6 2 4
v 6 2 4
v -6 2 -4
v 6 2 -4
v -6 6 4
v -5 6 4
v 5 6 4
v 6 6 4
v -5 6 -3
v 5 6 -3
v -6 6 -4
v 6 6 -4
v -6 10 4
v -5 10 4
v 5 10 4
v 6 10 4
v -5 10 -3
v 5 10 -3
v -6 10 -4
v 6 10 -4
v -6 14 4
v -5 14 4
v 5 14 4
v 6 14 4
v -5 14 -3
v 5 14 -3
v -6 14 -4
v 6 14 -4
v -6 18 4
v -5 18 4
v 5 18 4
v 6 18 4
v -5 18 -3
v 5 18 -3
v -6 18 -4
v 6 18 -4
v -6 21 4
v 6 21 4
v -6 21 -4
v 6 21 -4

# faces
f 3/3/1 2/3/1 1/3/1
f 4/3/1 2/3/1 3/3/1
f 7/3/1 6/3/1 5/3/1
f 8/3/1 6/3/1 7/3/1
f 11/3/1 10/3/1 9/3/1
f 12/3/1 10/3/1 11/3/1
f 15/3/1 14/3/1 13/3/1
f 16/3/1 14/3/1 15/3/1
f 19/3/1 18/3/1 17/3/1
f 20/3/1 18/3/1 19/3/1
f 23/3/1 22/3/1 21/3/1
f 24/3/1 22/3/1 23/3/1
f 27/1/1 26/1/1 25/1/1
f 28/1/1 26/1/1 27/1/1
f 31/2/1 30/2/1 29/2/1
f 32/2/1 30/2/1 31/2/1
f 35/3/1 34/3/1 33/3/1
f 36/3/1 34/3/1 35/3/1
f 39/3/1 38/3/1 37/3/1
f 40/3/1 38/3/1 39/3/1
f 43/3/1 42/3/1 41/3/1
f 44/3/1 42/3/1 43/3/1
f 47/3/1 46/3/1 45/3/1
f 48/3/1 46/3/1 47/3/1
f 49/3/2 50/3/2 51/3/2
f 51/3/2 50/3/2 52/3/2
f 53/3/2 54/3/2 55/3/2
f 55/3/2 54/3/2 56/3/2
f 57/3/2 58/3/2 59/3/2
f 59/3/2 58/3/2 60/3/2
f 61/3/2 62/3/2 63/3/2
f 63/3/2 62/3/2 64/3/2
f 65/1/2 66/1/2 67/1/2
f 67/1/2 66/1/2 68/1/2
f 69/2/2 70/2/2 71/2/2
f 71/2/2 70/2/2 72/2/2
f 73/3/2 74/3/2 75/3/2
f 75/3/2 74/3/2 76/3/2
f 77/3/2 78/3/2 79/3/2
f 79/3/2 78/3/2 80/3/2
f 81/3/2 82/3/2 83/3/2
f 83/3/2 82/3/2 84/3/2
f 85/3/2 86/3/2 87/3/2
f 87/3/2 86/3/2 88/3/2
f 89/3/2 90/3/2 91/3/2
f 91/3/2 90/3/2 92/3/2
f 93/3/2 94/3/2 95/3/2
f 95/3/2 94/3/2 96/3/2
f 109/3/3 100/3/3 99/3/3
f 110/3/3 100/3/3 109/3/3
f 111/3/3 102/3/3 101/3/3
f 112/3/3 102/3/3 111/3/3
f 113/3/3 104/3/3 103/3/3
f 114/3/3 104/3/3 113/3/3
f 115/3/3 106/3/3 105/3/3
f 116/3/3 106/3/3 115/3/3
f 125/3/3 98/3/3 97/3/3
f 126/3/3 98/3/3 125/3/3
f 127/3/3 118/3/3 117/3/3
f 128/3/3 118/3/3 127/3/3
f 129/3/3 120/3/3 119/3/3
f 130/3/3 120/3/3 129/3/3
f 131/3/3 122/3/3 121/3/3
f 132/3/3 122/3/3 131/3/3
f 133/3/3 124/3/3 123/3/3
f 134/3/3 124/3/3 133/3/3
f 135/3/3 108/3/3 107/3/3
f 136/3/3 108/3/3 135/3/3
f 139/1/3 138/1/3 137/1/3
f 140/1/3 138/1/3 139/1/3
f 143/2/3 142/2/3 141/2/3
f 144/2/3 142/2/3 143/2/3
f 153/3/3 146/3/3 145/3/3
f 154/3/3 146/3/3 153/3/3
f 155/3/3 148/3/3 147/3/3
f 156/3/3 148/3/3 155/3/3
f 157/3/3 150/3/3 149/3/3
f 158/3/3 150/3/3 157/3/3
f 159/3/3 152/3/3 151/3/3
f 160/3/3 152/3/3 159/3/3
f 161/1/4 162/1/4 163/1/4
f 163/1/4 162/1/4 164/1/4
f 165/2/4 166/2/4 167/2/4
f 167/2/4 166/2/4 168/2/4
f 169/3/4 170/3/4 181/3/4
f 181/3/4 170/3/4 182/3/4
f 171/3/4 172/3/4 183/3/4
f 183/3/4 172/3/4 184/3/4
f 173/3/4 174/3/4 185/3/4
f 185/3/4 174/3/4 186/3/4
f 175/3/4 176/3/4 187/3/4
f 187/3/4 176/3/4 188/3/4
f 177/3/4 178/3/4 189/3/4
f 189/3/4 178/3/4 190/3/4
f 179/3/4 180/3/4 191/3/4
f 191/3/4 180/3/4 192/3/4
f 195/1/5 194/1/5 193/1/5
f 196/1/5 194/1/5 195/1/5
f 199/2/5 198/2/5 197/2/5
f 200/2/5 198/2/5 199/2/5
f 203/3/5 202/3/5 201/3/5
f 204/3/5 202/3/5 203/3/5
f 205/3/5 203/3/5 201/3/5
f 206/3/5 202/3/5 204/3/5
f 207/3/5 202/3/5 206/3/5
f 208/3/5 202/3/5 207/3/5
f 209/3/5 206/3/5 205/3/5
f 209/3/5 207/3/5 206/3/5
f 210/3/5 202/3/5 208/3/5
f 211/3/5 205/3/5 201/3/5
f 211/3/5 210/3/5 209/3/5
f 211/3/5 209/3/5 205/3/5
f 212/3/5 202/3/5 210/3/5
f 212/3/5 210/3/5 211/3/5
f 217/3/5 214/3/5 213/3/5
f 218/3/5 216/3/5 215/3/5
f 219/3/5 217/3/5 213/3/5
f 219/3/5 218/3/5 217/3/5
f 220/3/5 216/3/5 218/3/5
f 220/3/5 218/3/5 219/3/5
f 225/3/5 222/3/5 221/3/5
f 226/3/5 224/3/5 223/3/5
f 227/3/5 225/3/5 221/3/5
f 227/3/5 226/3/5 225/3/5
f 228/3/5 224/3/5 226/3/5
f 228/3/5 226/3/5 227/3/5
f 233/3/5 230/3/5 229/3/5
f 234/3/5 232/3/5 231/3/5
f 235/3/5 233/3/5 229/3/5
f 235/3/5 234/3/5 233/3/5
f 236/3/5 232/3/5 234/3/5
f 236/3/5 234/3/5 235/3/5
f 241/3/5 238/3/5 237/3/5
f 242/3/5 240/3/5 239/3/5
f 243/3/5 241/3/5 237/3/5
f 243/3/5 242/3/5 241/3/5
f 244/3/5 240/3/5 242/3/5
f 244/3/5 242/3/5 243/3/5
f 247/3/5 246/3/5 245/3/5
f 248/3/5 246/3/5 247/3/5
f 249/3/6 250/3/6 251/3/6
f 251/3/6 250/3/6 252/3/6
f 253/3/6 254/3/6 257/3/6
f 255/3/6 256/3/6 258/3/6
f 253/3/6 257/3/6 259/3/6
f 257/3/6 258/3/6 259/3/6
f 258/3/6 256/3/6 260/3/6
f 259/3/6 258/3/6 260/3/6
f 261/3/6 262/3/6 265/3/6
f 263/3/6 264/3/6 266/3/6
f 261/3/6 265/3/6 267/3/6
f 265/3/6 266/3/6 267/3/6
f 266/3/6 264/3/6 268/3/6
f 267/3/6 266/3/6 268/3/6
f 269/3/6 270/3/6 273/3/6
f 271/3/6 272/3/6 274/3/6
f 269/3/6 273/3/6 275/3/6
f 273/3/6 274/3/6 275/3/6
f 274/3/6 272/3/6 276/3/6
f 275/3/6 274/3/6 276/3/6
f 277/3/6 278/3/6 281/3/6
f 279/3/6 280/3/6 282/3/6
f 277/3/6 281/3/6 283/3/6
f 281/3/6 282/3/6 283/3/6
f 282/3/6 280/3/6 284/3/6
f 283/3/6 282/3/6 284/3/6
f 285/3/6 286/3/6 287/3/6
f 287/3/6 286/3/6 288/3/6
