# MagicaVoxel @ Ephtracy

# material
mtllib alien_bot3.mtl
usemtl palette

# normals
vn -1 0 0
vn 1 0 0
vn 0 0 1
vn 0 0 -1
vn 0 -1 0
vn 0 1 0

# texcoords
vt 0.841797 0.5
vt 0.982422 0.5
vt 0.986328 0.5
vt 0.990234 0.5

# verts
v -5 6 4
v -5 6 2
v -5 6 -4
v -5 7 4
v -5 7 2
v -5 7 -3
v -5 7 -4
v -5 8 2
v -5 8 -1
v -5 9 3
v -5 9 -1
v -5 9 -3
v -5 9 -4
v -5 10 3
v -5 10 -3
v -5 10 -4
v -3 0 2
v -3 0 1
v -3 5 2
v -3 5 1
v -3 5 -1
v -3 5 -3
v -3 7 -1
v -3 7 -3
v -2 0 -1
v -2 0 -2
v -2 5 3
v -2 5 2
v -2 5 1
v -2 5 -0
v -2 5 -1
v -2 5 -2
v -2 6 3
v -2 6 2
v -2 6 -0
v -2 6 -1
v -2 7 3
v -2 7 2
v -2 7 -0
v -2 7 -1
v -2 7 -3
v -2 8 4
v -2 8 3
v -2 9 4
v -2 9 3
v -2 9 2
v -2 9 -3
v -2 10 3
v -2 10 2
v -1 5 -0
v -1 5 -1
v -1 6 3
v -1 6 2
v -1 6 -0
v -1 6 -1
v -1 7 4
v -1 7 3
v -1 7 2
v -1 8 4
v -1 8 3
v -1 8 -3
v -1 8 -4
v -1 9 4
v -1 9 3
v -1 10 4
v -1 10 3
v -1 10 2
v -1 10 -3
v -1 10 -4
v -1 11 3
v -1 11 -3
v 1 0 -1
v 1 0 -2
v 1 4 2
v 1 4 1
v 1 5 2
v 1 5 1
v 1 5 -1
v 1 5 -2
v 1 5 -3
v 1 6 -1
v 1 6 -2
v 1 7 -2
v 1 7 -3
v 1 8 -2
v 1 8 -3
v 2 0 2
v 2 0 1
v 2 4 2
v 2 4 1
v 4 6 4
v 4 6 2
v 4 6 -4
v 4 7 4
v 4 7 2
v 4 7 -3
v 4 7 -4
v 4 8 2
v 4 8 -1
v 4 9 3
v 4 9 2
v 4 9 -1
v 4 9 -3
v 4 9 -4
v 4 10 3
v 4 10 2
v 4 10 -3
v 4 10 -4
v -4 6 4
v -4 6 2
v -4 6 -4
v -4 7 4
v -4 7 2
v -4 7 -3
v -4 7 -4
v -4 8 2
v -4 8 -1
v -4 9 3
v -4 9 2
v -4 9 -1
v -4 9 -3
v -4 9 -4
v -4 10 3
v -4 10 2
v -4 10 -3
v -4 10 -4
v -2 0 2
v -2 0 1
v -2 4 2
v -2 4 1
v -1 0 -1
v -1 0 -2
v -1 4 2
v -1 4 1
v -1 5 2
v -1 5 1
v -1 5 -1
v -1 5 -2
v -1 5 -3
v -1 6 -1
v -1 6 -2
v -1 7 -2
v -1 7 -3
v -1 8 -2
v -1 8 -3
v 1 5 -0
v 1 5 -1
v 1 6 3
v 1 6 2
v 1 6 -0
v 1 6 -1
v 1 7 4
v 1 7 3
v 1 7 2
v 1 8 4
v 1 8 3
v 1 8 -3
v 1 8 -4
v 1 9 4
v 1 9 3
v 1 10 4
v 1 10 3
v 1 10 2
v 1 10 -3
v 1 10 -4
v 1 11 3
v 1 11 -3
v 2 0 -1
v 2 0 -2
v 2 5 3
v 2 5 2
v 2 5 1
v 2 5 -0
v 2 5 -1
v 2 5 -2
v 2 6 3
v 2 6 2
v 2 6 -0
v 2 6 -1
v 2 7 3
v 2 7 2
v 2 7 -0
v 2 7 -1
v 2 7 -3
v 2 8 4
v 2 8 3
v 2 9 4
v 2 9 3
v 2 9 2
v 2 9 -3
v 2 10 3
v 2 10 2
v 3 0 2
v 3 0 1
v 3 5 2
v 3 5 1
v 3 5 -1
v 3 5 -3
v 3 7 -1
v 3 7 -3
v 5 6 4
v 5 6 2
v 5 6 -4
v 5 7 4
v 5 7 2
v 5 7 -3
v 5 7 -4
v 5 8 2
v 5 8 -1
v 5 9 3
v 5 9 -1
v 5 9 -3
v 5 9 -4
v 5 10 3
v 5 10 -3
v 5 10 -4
v -5 6 4
v -5 7 4
v -4 6 4
v -4 7 4
v -2 8 4
v -2 9 4
v -1 7 4
v -1 8 4
v -1 9 4
v -1 10 4
v 1 7 4
v 1 8 4
v 1 9 4
v 1 10 4
v 2 8 4
v 2 9 4
v 4 6 4
v 4 7 4
v 5 6 4
v 5 7 4
v -5 9 3
v -5 10 3
v -4 9 3
v -4 10 3
v -2 5 3
v -2 6 3
v -2 7 3
v -2 8 3
v -2 9 3
v -2 10 3
v -1 6 3
v -1 7 3
v -1 8 3
v -1 9 3
v -1 10 3
v -1 11 3
v 1 6 3
v 1 7 3
v 1 8 3
v 1 9 3
v 1 10 3
v 1 11 3
v 2 5 3
v 2 6 3
v 2 7 3
v 2 8 3
v 2 9 3
v 2 10 3
v 4 9 3
v 4 10 3
v 5 9 3
v 5 10 3
v -5 7 2
v -5 8 2
v -4 7 2
v -4 8 2
v -4 9 2
v -4 10 2
v -3 0 2
v -3 5 2
v -2 0 2
v -2 4 2
v -2 5 2
v -2 6 2
v -2 7 2
v -2 9 2
v -2 10 2
v -1 4 2
v -1 5 2
v -1 6 2
v -1 7 2
v 1 4 2
v 1 5 2
v 1 6 2
v 1 7 2
v 2 0 2
v 2 4 2
v 2 5 2
v 2 6 2
v 2 7 2
v 2 9 2
v 2 10 2
v 3 0 2
v 3 5 2
v 4 7 2
v 4 8 2
v 4 9 2
v 4 10 2
v 5 7 2
v 5 8 2
v -5 8 -1
v -5 9 -1
v -4 8 -1
v -4 9 -1
v -3 5 -1
v -3 7 -1
v -2 0 -1
v -2 5 -1
v -2 6 -1
v -2 7 -1
v -1 0 -1
v -1 5 -1
v -1 6 -1
v 1 0 -1
v 1 5 -1
v 1 6 -1
v 2 0 -1
v 2 5 -1
v 2 6 -1
v 2 7 -1
v 3 5 -1
v 3 7 -1
v 4 8 -1
v 4 9 -1
v 5 8 -1
v 5 9 -1
v -3 0 1
v -3 5 1
v -2 0 1
v -2 4 1
v -2 5 1
v -1 4 1
v -1 5 1
v 1 4 1
v 1 5 1
v 2 0 1
v 2 4 1
v 2 5 1
v 3 0 1
v 3 5 1
v -2 5 -0
v -2 6 -0
v -1 5 -0
v -1 6 -0
v 1 5 -0
v 1 6 -0
v 2 5 -0
v 2 6 -0
v -1 5 -1
v -1 6 -1
v 1 5 -1
v 1 6 -1
v -2 0 -2
v -2 5 -2
v -1 0 -2
v -1 5 -2
v -1 6 -2
v -1 7 -2
v -1 8 -2
v 1 0 -2
v 1 5 -2
v 1 6 -2
v 1 7 -2
v 1 8 -2
v 2 0 -2
v 2 5 -2
v -5 7 -3
v -5 9 -3
v -4 7 -3
v -4 9 -3
v -4 10 -3
v -3 5 -3
v -3 7 -3
v -2 7 -3
v -2 9 -3
v -1 5 -3
v -1 7 -3
v -1 8 -3
v -1 10 -3
v -1 11 -3
v 1 5 -3
v 1 7 -3
v 1 8 -3
v 1 10 -3
v 1 11 -3
v 2 7 -3
v 2 9 -3
v 3 5 -3
v 3 7 -3
v 4 7 -3
v 4 9 -3
v 4 10 -3
v 5 7 -3
v 5 9 -3
v -5 6 -4
v -5 7 -4
v -5 9 -4
v -5 10 -4
v -4 6 -4
v -4 7 -4
v -4 9 -4
v -4 10 -4
v -1 8 -4
v -1 10 -4
v 1 8 -4
v 1 10 -4
v 4 6 -4
v 4 7 -4
v 4 9 -4
v 4 10 -4
v 5 6 -4
v 5 7 -4
v 5 9 -4
v 5 10 -4
v -3 0 2
v -2 0 2
v 2 0 2
v 3 0 2
v -3 0 1
v -2 0 1
v 2 0 1
v 3 0 1
v -2 0 -1
v -1 0 -1
v 1 0 -1
v 2 0 -1
v -2 0 -2
v -1 0 -2
v 1 0 -2
v 2 0 -2
v -2 4 2
v -1 4 2
v 1 4 2
v 2 4 2
v -2 4 1
v -1 4 1
v 1 4 1
v 2 4 1
v -2 5 3
v 2 5 3
v -2 5 2
v -1 5 2
v 1 5 2
v 2 5 2
v -2 5 1
v -1 5 1
v 1 5 1
v 2 5 1
v -2 5 -0
v -1 5 -0
v 1 5 -0
v 2 5 -0
v -3 5 -1
v -2 5 -1
v -1 5 -1
v 1 5 -1
v 2 5 -1
v 3 5 -1
v -2 5 -2
v -1 5 -2
v 1 5 -2
v 2 5 -2
v -3 5 -3
v -1 5 -3
v 1 5 -3
v 3 5 -3
v -5 6 4
v -4 6 4
v 4 6 4
v 5 6 4
v -5 6 2
v -4 6 2
v 4 6 2
v 5 6 2
v -2 6 -0
v -1 6 -0
v 1 6 -0
v 2 6 -0
v -2 6 -1
v -1 6 -1
v 1 6 -1
v 2 6 -1
v -1 6 -2
v 1 6 -2
v -5 6 -4
v -4 6 -4
v 4 6 -4
v 5 6 -4
v -1 7 4
v 1 7 4
v -2 7 3
v -1 7 3
v 1 7 3
v 2 7 3
v -2 7 2
v -1 7 2
v 1 7 2
v 2 7 2
v -2 8 4
v -1 8 4
v 1 8 4
v 2 8 4
v -2 8 3
v -1 8 3
v 1 8 3
v 2 8 3
v -1 8 -2
v 1 8 -2
v -1 8 -3
v 1 8 -3
v -1 8 -4
v 1 8 -4
v -5 9 3
v -4 9 3
v 4 9 3
v 5 9 3
v -4 9 2
v -2 9 2
v 2 9 2
v 4 9 2
v -5 9 -1
v -4 9 -1
v 4 9 -1
v 5 9 -1
v -5 9 -3
v -4 9 -3
v -2 9 -3
v 2 9 -3
v 4 9 -3
v 5 9 -3
v -5 9 -4
v -4 9 -4
v 4 9 -4
v 5 9 -4
v -3 5 2
v -2 5 2
v 2 5 2
v 3 5 2
v -3 5 1
v -2 5 1
v 2 5 1
v 3 5 1
v -2 6 3
v -1 6 3
v 1 6 3
v 2 6 3
v -2 6 2
v -1 6 2
v 1 6 2
v 2 6 2
v -5 7 4
v -4 7 4
v 4 7 4
v 5 7 4
v -5 7 2
v -4 7 2
v 4 7 2
v 5 7 2
v -3 7 -1
v -2 7 -1
v 2 7 -1
v 3 7 -1
v -5 7 -3
v -4 7 -3
v -3 7 -3
v -2 7 -3
v 2 7 -3
v 3 7 -3
v 4 7 -3
v 5 7 -3
v -5 7 -4
v -4 7 -4
v 4 7 -4
v 5 7 -4
v -5 8 2
v -4 8 2
v 4 8 2
v 5 8 2
v -5 8 -1
v -4 8 -1
v 4 8 -1
v 5 8 -1
v -2 9 4
v -1 9 4
v 1 9 4
v 2 9 4
v -2 9 3
v -1 9 3
v 1 9 3
v 2 9 3
v -1 10 4
v 1 10 4
v -5 10 3
v -4 10 3
v -2 10 3
v -1 10 3
v 1 10 3
v 2 10 3
v 4 10 3
v 5 10 3
v -4 10 2
v -2 10 2
v -1 10 2
v 1 10 2
v 2 10 2
v 4 10 2
v -5 10 -3
v -4 10 -3
v -1 10 -3
v 1 10 -3
v 4 10 -3
v 5 10 -3
v -5 10 -4
v -4 10 -4
v -1 10 -4
v 1 10 -4
v 4 10 -4
v 5 10 -4
v -1 11 3
v 1 11 3
v -1 11 -3
v 1 11 -3

# faces
f 4/1/1 2/1/1 1/1/1
f 5/4/1 3/4/1 2/4/1
f 5/1/1 2/1/1 4/1/1
f 6/4/1 3/4/1 5/4/1
f 7/4/1 3/4/1 6/4/1
f 8/4/1 6/4/1 5/4/1
f 9/4/1 6/4/1 8/4/1
f 11/4/1 6/4/1 9/4/1
f 12/4/1 6/4/1 11/4/1
f 14/3/1 11/3/1 10/3/1
f 14/3/1 12/3/1 11/3/1
f 15/4/1 13/4/1 12/4/1
f 15/3/1 12/3/1 14/3/1
f 16/4/1 13/4/1 15/4/1
f 19/2/1 18/2/1 17/2/1
f 20/2/1 18/2/1 19/2/1
f 23/2/1 22/2/1 21/2/1
f 24/2/1 22/2/1 23/2/1
f 31/2/1 26/2/1 25/2/1
f 32/2/1 26/2/1 31/2/1
f 33/4/1 28/4/1 27/4/1
f 34/2/1 30/2/1 29/2/1
f 34/4/1 28/4/1 33/4/1
f 34/2/1 29/2/1 28/2/1
f 35/2/1 30/2/1 34/2/1
f 38/2/1 35/2/1 34/2/1
f 39/3/1 36/3/1 35/3/1
f 39/2/1 35/2/1 38/2/1
f 40/3/1 36/3/1 39/3/1
f 43/4/1 38/4/1 37/4/1
f 44/4/1 43/4/1 42/4/1
f 45/4/1 38/4/1 43/4/1
f 45/4/1 43/4/1 44/4/1
f 46/3/1 40/3/1 39/3/1
f 46/4/1 38/4/1 45/4/1
f 46/3/1 41/3/1 40/3/1
f 46/3/1 39/3/1 38/3/1
f 47/3/1 41/3/1 46/3/1
f 48/4/1 46/4/1 45/4/1
f 49/4/1 46/4/1 48/4/1
f 54/3/1 51/3/1 50/3/1
f 55/3/1 51/3/1 54/3/1
f 57/4/1 53/4/1 52/4/1
f 58/4/1 53/4/1 57/4/1
f 59/4/1 57/4/1 56/4/1
f 60/4/1 57/4/1 59/4/1
f 65/4/1 64/4/1 63/4/1
f 66/4/1 64/4/1 65/4/1
f 68/4/1 62/4/1 61/4/1
f 69/4/1 62/4/1 68/4/1
f 70/4/1 67/4/1 66/4/1
f 70/4/1 68/4/1 67/4/1
f 71/4/1 68/4/1 70/4/1
f 76/2/1 75/2/1 74/2/1
f 77/2/1 75/2/1 76/2/1
f 78/2/1 73/2/1 72/2/1
f 79/2/1 73/2/1 78/2/1
f 81/3/1 79/3/1 78/3/1
f 82/2/1 80/2/1 79/2/1
f 82/3/1 79/3/1 81/3/1
f 83/2/1 80/2/1 82/2/1
f 84/2/1 80/2/1 83/2/1
f 85/3/1 84/3/1 83/3/1
f 86/3/1 84/3/1 85/3/1
f 89/2/1 88/2/1 87/2/1
f 90/2/1 88/2/1 89/2/1
f 94/1/1 92/1/1 91/1/1
f 95/4/1 93/4/1 92/4/1
f 95/1/1 92/1/1 94/1/1
f 96/4/1 93/4/1 95/4/1
f 97/4/1 93/4/1 96/4/1
f 98/4/1 96/4/1 95/4/1
f 99/4/1 96/4/1 98/4/1
f 102/4/1 96/4/1 99/4/1
f 103/4/1 96/4/1 102/4/1
f 105/3/1 101/3/1 100/3/1
f 106/3/1 101/3/1 105/3/1
f 107/4/1 104/4/1 103/4/1
f 108/4/1 104/4/1 107/4/1
f 109/1/2 110/1/2 112/1/2
f 110/4/2 111/4/2 113/4/2
f 112/1/2 110/1/2 113/1/2
f 113/4/2 111/4/2 114/4/2
f 114/4/2 111/4/2 115/4/2
f 113/4/2 114/4/2 116/4/2
f 116/4/2 114/4/2 117/4/2
f 117/4/2 114/4/2 120/4/2
f 120/4/2 114/4/2 121/4/2
f 118/3/2 119/3/2 123/3/2
f 123/3/2 119/3/2 124/3/2
f 121/4/2 122/4/2 125/4/2
f 125/4/2 122/4/2 126/4/2
f 127/2/2 128/2/2 129/2/2
f 129/2/2 128/2/2 130/2/2
f 133/2/2 134/2/2 135/2/2
f 135/2/2 134/2/2 136/2/2
f 131/2/2 132/2/2 137/2/2
f 137/2/2 132/2/2 138/2/2
f 137/3/2 138/3/2 140/3/2
f 138/2/2 139/2/2 141/2/2
f 140/3/2 138/3/2 141/3/2
f 141/2/2 139/2/2 142/2/2
f 142/2/2 139/2/2 143/2/2
f 142/3/2 143/3/2 144/3/2
f 144/3/2 143/3/2 145/3/2
f 146/3/2 147/3/2 150/3/2
f 150/3/2 147/3/2 151/3/2
f 148/4/2 149/4/2 153/4/2
f 153/4/2 149/4/2 154/4/2
f 152/4/2 153/4/2 155/4/2
f 155/4/2 153/4/2 156/4/2
f 159/4/2 160/4/2 161/4/2
f 161/4/2 160/4/2 162/4/2
f 157/4/2 158/4/2 164/4/2
f 164/4/2 158/4/2 165/4/2
f 162/4/2 163/4/2 166/4/2
f 163/4/2 164/4/2 166/4/2
f 166/4/2 164/4/2 167/4/2
f 168/2/2 169/2/2 174/2/2
f 174/2/2 169/2/2 175/2/2
f 170/4/2 171/4/2 176/4/2
f 172/2/2 173/2/2 177/2/2
f 176/4/2 171/4/2 177/4/2
f 171/2/2 172/2/2 177/2/2
f 177/2/2 173/2/2 178/2/2
f 177/2/2 178/2/2 181/2/2
f 178/3/2 179/3/2 182/3/2
f 181/2/2 178/2/2 182/2/2
f 182/3/2 179/3/2 183/3/2
f 180/4/2 181/4/2 186/4/2
f 185/4/2 186/4/2 187/4/2
f 186/4/2 181/4/2 188/4/2
f 187/4/2 186/4/2 188/4/2
f 182/3/2 183/3/2 189/3/2
f 188/4/2 181/4/2 189/4/2
f 183/3/2 184/3/2 189/3/2
f 181/3/2 182/3/2 189/3/2
f 189/3/2 184/3/2 190/3/2
f 188/4/2 189/4/2 191/4/2
f 191/4/2 189/4/2 192/4/2
f 193/2/2 194/2/2 195/2/2
f 195/2/2 194/2/2 196/2/2
f 197/2/2 198/2/2 199/2/2
f 199/2/2 198/2/2 200/2/2
f 201/1/2 202/1/2 204/1/2
f 202/4/2 203/4/2 205/4/2
f 204/1/2 202/1/2 205/1/2
f 205/4/2 203/4/2 206/4/2
f 206/4/2 203/4/2 207/4/2
f 205/4/2 206/4/2 208/4/2
f 208/4/2 206/4/2 209/4/2
f 209/4/2 206/4/2 211/4/2
f 211/4/2 206/4/2 212/4/2
f 210/3/2 211/3/2 214/3/2
f 211/3/2 212/3/2 214/3/2
f 212/4/2 213/4/2 215/4/2
f 214/3/2 212/3/2 215/3/2
f 215/4/2 213/4/2 216/4/2
f 219/1/3 218/1/3 217/1/3
f 220/1/3 218/1/3 219/1/3
f 224/4/3 222/4/3 221/4/3
f 225/4/3 222/4/3 224/4/3
f 227/4/3 224/4/3 223/4/3
f 228/1/3 225/1/3 224/1/3
f 228/4/3 224/4/3 227/4/3
f 229/4/3 226/4/3 225/4/3
f 229/1/3 225/1/3 228/1/3
f 230/4/3 226/4/3 229/4/3
f 231/4/3 229/4/3 228/4/3
f 232/4/3 229/4/3 231/4/3
f 235/1/3 234/1/3 233/1/3
f 236/1/3 234/1/3 235/1/3
f 239/3/3 238/3/3 237/3/3
f 240/3/3 238/3/3 239/3/3
f 247/4/3 242/4/3 241/4/3
f 248/4/3 244/4/3 243/4/3
f 249/4/3 244/4/3 248/4/3
f 250/4/3 246/4/3 245/4/3
f 251/4/3 246/4/3 250/4/3
f 253/4/3 247/4/3 241/4/3
f 253/4/3 248/4/3 247/4/3
f 254/4/3 248/4/3 253/4/3
f 257/4/3 252/4/3 251/4/3
f 258/4/3 252/4/3 257/4/3
f 259/4/3 253/4/3 241/4/3
f 260/4/3 253/4/3 259/4/3
f 261/4/3 255/4/3 254/4/3
f 262/4/3 255/4/3 261/4/3
f 263/4/3 257/4/3 256/4/3
f 264/4/3 257/4/3 263/4/3
f 267/3/3 266/3/3 265/3/3
f 268/3/3 266/3/3 267/3/3
f 271/4/3 270/4/3 269/4/3
f 272/4/3 270/4/3 271/4/3
f 277/2/3 276/2/3 275/2/3
f 278/2/3 276/2/3 277/2/3
f 279/2/3 276/2/3 278/2/3
f 282/3/3 274/3/3 273/3/3
f 283/3/3 274/3/3 282/3/3
f 284/2/3 279/2/3 278/2/3
f 285/2/3 279/2/3 284/2/3
f 286/2/3 281/2/3 280/2/3
f 287/2/3 281/2/3 286/2/3
f 293/2/3 289/2/3 288/2/3
f 294/2/3 289/2/3 293/2/3
f 295/2/3 291/2/3 290/2/3
f 296/2/3 291/2/3 295/2/3
f 299/2/3 294/2/3 293/2/3
f 299/2/3 293/2/3 292/2/3
f 300/2/3 294/2/3 299/2/3
f 303/3/3 298/3/3 297/3/3
f 304/3/3 298/3/3 303/3/3
f 305/4/3 302/4/3 301/4/3
f 306/4/3 302/4/3 305/4/3
f 309/4/3 308/4/3 307/4/3
f 310/4/3 308/4/3 309/4/3
f 314/2/3 312/2/3 311/2/3
f 315/2/3 312/2/3 314/2/3
f 316/2/3 312/2/3 315/2/3
f 317/2/3 314/2/3 313/2/3
f 318/3/3 315/3/3 314/3/3
f 318/2/3 314/2/3 317/2/3
f 319/3/3 315/3/3 318/3/3
f 323/2/3 321/2/3 320/2/3
f 324/3/3 322/3/3 321/3/3
f 324/2/3 321/2/3 323/2/3
f 325/3/3 322/3/3 324/3/3
f 327/2/3 325/2/3 324/2/3
f 327/2/3 326/2/3 325/2/3
f 328/2/3 326/2/3 327/2/3
f 331/4/3 330/4/3 329/4/3
f 332/4/3 330/4/3 331/4/3
f 333/2/4 334/2/4 335/2/4
f 335/2/4 334/2/4 336/2/4
f 336/2/4 334/2/4 337/2/4
f 336/2/4 337/2/4 338/2/4
f 338/2/4 337/2/4 339/2/4
f 340/2/4 341/2/4 343/2/4
f 343/2/4 341/2/4 344/2/4
f 342/2/4 343/2/4 345/2/4
f 343/2/4 344/2/4 345/2/4
f 345/2/4 344/2/4 346/2/4
f 347/2/4 348/2/4 349/2/4
f 349/2/4 348/2/4 350/2/4
f 351/2/4 352/2/4 353/2/4
f 353/2/4 352/2/4 354/2/4
f 355/3/4 356/3/4 357/3/4
f 357/3/4 356/3/4 358/3/4
f 359/2/4 360/2/4 361/2/4
f 361/2/4 360/2/4 362/2/4
f 364/3/4 365/3/4 368/3/4
f 363/3/4 364/3/4 368/3/4
f 368/3/4 365/3/4 369/3/4
f 369/3/4 365/3/4 370/3/4
f 366/2/4 367/2/4 371/2/4
f 371/2/4 367/2/4 372/2/4
f 373/4/4 374/4/4 375/4/4
f 375/4/4 374/4/4 376/4/4
f 378/2/4 379/2/4 380/2/4
f 376/3/4 377/3/4 381/3/4
f 378/2/4 380/2/4 382/2/4
f 380/3/4 381/3/4 383/3/4
f 382/2/4 380/2/4 383/2/4
f 383/3/4 381/3/4 384/3/4
f 381/3/4 377/3/4 385/3/4
f 384/3/4 381/3/4 385/3/4
f 385/4/4 386/4/4 390/4/4
f 390/4/4 386/4/4 391/4/4
f 388/3/4 389/3/4 392/3/4
f 387/2/4 388/2/4 392/2/4
f 389/3/4 390/3/4 392/3/4
f 392/3/4 390/3/4 393/3/4
f 387/2/4 392/2/4 394/2/4
f 394/2/4 392/2/4 395/2/4
f 393/3/4 390/3/4 397/3/4
f 397/3/4 390/3/4 398/3/4
f 396/4/4 397/4/4 399/4/4
f 399/4/4 397/4/4 400/4/4
f 401/4/4 402/4/4 405/4/4
f 405/4/4 402/4/4 406/4/4
f 403/4/4 404/4/4 407/4/4
f 407/4/4 404/4/4 408/4/4
f 409/4/4 410/4/4 411/4/4
f 411/4/4 410/4/4 412/4/4
f 413/4/4 414/4/4 417/4/4
f 417/4/4 414/4/4 418/4/4
f 415/4/4 416/4/4 419/4/4
f 419/4/4 416/4/4 420/4/4
f 425/2/5 422/2/5 421/2/5
f 426/2/5 422/2/5 425/2/5
f 427/2/5 424/2/5 423/2/5
f 428/2/5 424/2/5 427/2/5
f 433/2/5 430/2/5 429/2/5
f 434/2/5 430/2/5 433/2/5
f 435/2/5 432/2/5 431/2/5
f 436/2/5 432/2/5 435/2/5
f 441/2/5 438/2/5 437/2/5
f 442/2/5 438/2/5 441/2/5
f 443/2/5 440/2/5 439/2/5
f 444/2/5 440/2/5 443/2/5
f 447/4/5 446/4/5 445/4/5
f 448/4/5 446/4/5 447/4/5
f 449/4/5 446/4/5 448/4/5
f 450/4/5 446/4/5 449/4/5
f 452/3/5 449/3/5 448/3/5
f 453/3/5 449/3/5 452/3/5
f 455/2/5 452/2/5 451/2/5
f 456/3/5 453/3/5 452/3/5
f 456/2/5 452/2/5 455/2/5
f 457/2/5 454/2/5 453/2/5
f 457/3/5 453/3/5 456/3/5
f 458/2/5 454/2/5 457/2/5
f 461/3/5 457/3/5 456/3/5
f 462/3/5 457/3/5 461/3/5
f 465/2/5 460/2/5 459/2/5
f 468/2/5 464/2/5 463/2/5
f 469/2/5 466/2/5 465/2/5
f 469/2/5 465/2/5 459/2/5
f 470/2/5 466/2/5 469/2/5
f 471/2/5 468/2/5 467/2/5
f 472/2/5 464/2/5 468/2/5
f 472/2/5 468/2/5 471/2/5
f 477/1/5 474/1/5 473/1/5
f 478/1/5 474/1/5 477/1/5
f 479/1/5 476/1/5 475/1/5
f 480/1/5 476/1/5 479/1/5
f 485/3/5 482/3/5 481/3/5
f 486/3/5 482/3/5 485/3/5
f 487/3/5 484/3/5 483/3/5
f 488/3/5 484/3/5 487/3/5
f 489/3/5 487/3/5 486/3/5
f 490/3/5 487/3/5 489/3/5
f 491/4/5 478/4/5 477/4/5
f 492/4/5 478/4/5 491/4/5
f 493/4/5 480/4/5 479/4/5
f 494/4/5 480/4/5 493/4/5
f 498/4/5 496/4/5 495/4/5
f 499/4/5 496/4/5 498/4/5
f 501/4/5 498/4/5 497/4/5
f 502/4/5 498/4/5 501/4/5
f 503/4/5 500/4/5 499/4/5
f 504/4/5 500/4/5 503/4/5
f 509/4/5 506/4/5 505/4/5
f 510/4/5 506/4/5 509/4/5
f 511/4/5 508/4/5 507/4/5
f 512/4/5 508/4/5 511/4/5
f 515/3/5 514/3/5 513/3/5
f 516/3/5 514/3/5 515/3/5
f 517/4/5 516/4/5 515/4/5
f 518/4/5 516/4/5 517/4/5
f 523/3/5 520/3/5 519/3/5
f 526/3/5 522/3/5 521/3/5
f 527/3/5 524/3/5 523/3/5
f 527/3/5 523/3/5 519/3/5
f 528/3/5 524/3/5 527/3/5
f 529/3/5 526/3/5 525/3/5
f 529/3/5 522/3/5 526/3/5
f 530/3/5 522/3/5 529/3/5
f 532/3/5 524/3/5 528/3/5
f 533/3/5 524/3/5 532/3/5
f 534/3/5 529/3/5 525/3/5
f 535/3/5 529/3/5 534/3/5
f 537/4/5 532/4/5 531/4/5
f 538/4/5 532/4/5 537/4/5
f 539/4/5 536/4/5 535/4/5
f 540/4/5 536/4/5 539/4/5
f 541/2/6 542/2/6 545/2/6
f 545/2/6 542/2/6 546/2/6
f 543/2/6 544/2/6 547/2/6
f 547/2/6 544/2/6 548/2/6
f 549/4/6 550/4/6 553/4/6
f 553/4/6 550/4/6 554/4/6
f 551/4/6 552/4/6 555/4/6
f 555/4/6 552/4/6 556/4/6
f 557/1/6 558/1/6 561/1/6
f 561/1/6 558/1/6 562/1/6
f 559/1/6 560/1/6 563/1/6
f 563/1/6 560/1/6 564/1/6
f 565/2/6 566/2/6 571/2/6
f 571/2/6 566/2/6 572/2/6
f 567/2/6 568/2/6 573/2/6
f 573/2/6 568/2/6 574/2/6
f 569/4/6 570/4/6 577/4/6
f 577/4/6 570/4/6 578/4/6
f 575/4/6 576/4/6 579/4/6
f 579/4/6 576/4/6 580/4/6
f 581/4/6 582/4/6 585/4/6
f 585/4/6 582/4/6 586/4/6
f 583/4/6 584/4/6 587/4/6
f 587/4/6 584/4/6 588/4/6
f 589/4/6 590/4/6 593/4/6
f 593/4/6 590/4/6 594/4/6
f 591/4/6 592/4/6 595/4/6
f 595/4/6 592/4/6 596/4/6
f 597/4/6 598/4/6 602/4/6
f 602/4/6 598/4/6 603/4/6
f 599/3/6 600/3/6 607/3/6
f 601/4/6 602/4/6 608/4/6
f 608/4/6 602/4/6 609/4/6
f 603/4/6 604/4/6 610/4/6
f 610/4/6 604/4/6 611/4/6
f 605/3/6 606/3/6 612/3/6
f 599/3/6 607/3/6 613/3/6
f 608/3/6 609/3/6 613/3/6
f 607/3/6 608/3/6 613/3/6
f 613/3/6 609/3/6 614/3/6
f 614/3/6 609/3/6 615/3/6
f 610/3/6 611/3/6 616/3/6
f 611/3/6 612/3/6 616/3/6
f 612/3/6 606/3/6 617/3/6
f 616/3/6 612/3/6 617/3/6
f 617/3/6 606/3/6 618/3/6
f 613/4/6 614/4/6 619/4/6
f 619/4/6 614/4/6 620/4/6
f 615/4/6 616/4/6 621/4/6
f 621/4/6 616/4/6 622/4/6
f 617/4/6 618/4/6 623/4/6
f 623/4/6 618/4/6 624/4/6
f 625/4/6 626/4/6 627/4/6
f 627/4/6 626/4/6 628/4/6
