# MagicaVoxel @ Ephtracy

# material
mtllib alien_engi2b.mtl
usemtl palette

# normals
vn -1 0 0
vn 1 0 0
vn 0 0 1
vn 0 0 -1
vn 0 -1 0
vn 0 1 0

# texcoords
vt 0.0449219 0.5
vt 0.587891 0.5
vt 0.615234 0.5
vt 0.958984 0.5
vt 0.986328 0.5
vt 0.990234 0.5
vt 0.994141 0.5

# verts
v -4 2 1
v -4 2 -0
v -4 5 1
v -4 5 -0
v -4 6 1
v -4 6 -0
v -3 1 1
v -3 1 -0
v -3 2 2
v -3 2 1
v -3 2 -0
v -3 2 -1
v -3 5 2
v -3 5 1
v -3 5 -0
v -3 5 -1
v -3 6 2
v -3 6 1
v -3 6 -0
v -3 6 -1
v -3 7 2
v -3 7 -1
v -3 10 2
v -3 10 -1
v -3 11 2
v -3 11 -1
v -2 0 1
v -2 0 -0
v -2 1 1
v -2 1 -0
v -2 6 1
v -2 6 -1
v -2 7 1
v -2 7 -1
v -2 7 -2
v -2 10 -1
v -2 11 -1
v -2 11 -2
v 1 0 1
v 1 0 -0
v 1 1 1
v 1 1 -0
v 1 2 1
v 1 2 -0
v -1 0 1
v -1 0 -0
v -1 1 1
v -1 1 -0
v -1 2 1
v -1 2 -0
v 2 0 1
v 2 0 -0
v 2 1 1
v 2 1 -0
v 2 6 1
v 2 6 -1
v 2 7 1
v 2 7 -1
v 2 7 -2
v 2 10 -1
v 2 11 -1
v 2 11 -2
v 3 1 1
v 3 1 -0
v 3 2 2
v 3 2 1
v 3 2 -0
v 3 2 -1
v 3 3 2
v 3 3 1
v 3 4 2
v 3 4 1
v 3 5 2
v 3 5 1
v 3 5 -0
v 3 5 -1
v 3 6 2
v 3 6 1
v 3 6 -0
v 3 6 -1
v 3 7 2
v 3 7 -1
v 3 10 2
v 3 10 -1
v 3 11 2
v 3 11 -1
v 4 2 1
v 4 2 -0
v 4 5 1
v 4 5 -0
v 4 6 1
v 4 6 -0
v -3 2 2
v -3 5 2
v -3 6 2
v -3 7 2
v -3 10 2
v -3 11 2
v -2 3 2
v -2 4 2
v -2 5 2
v -2 6 2
v -2 8 2
v -2 10 2
v -2 11 2
v -1 8 2
v -1 10 2
v 1 8 2
v 1 10 2
v 2 5 2
v 2 6 2
v 2 8 2
v 2 10 2
v 2 11 2
v 3 2 2
v 3 3 2
v 3 4 2
v 3 5 2
v 3 6 2
v 3 7 2
v 3 10 2
v 3 11 2
v -4 2 1
v -4 5 1
v -4 6 1
v -3 1 1
v -3 2 1
v -3 5 1
v -3 6 1
v -2 0 1
v -2 1 1
v -2 6 1
v -2 7 1
v -1 0 1
v -1 1 1
v -1 2 1
v 1 0 1
v 1 1 1
v 1 2 1
v 2 0 1
v 2 1 1
v 2 6 1
v 2 7 1
v 3 1 1
v 3 2 1
v 3 3 1
v 3 4 1
v 3 5 1
v 3 6 1
v 4 2 1
v 4 5 1
v 4 6 1
v -4 2 -0
v -4 5 -0
v -4 6 -0
v -3 1 -0
v -3 2 -0
v -3 5 -0
v -3 6 -0
v -2 0 -0
v -2 1 -0
v -1 0 -0
v -1 1 -0
v -1 2 -0
v 1 0 -0
v 1 1 -0
v 1 2 -0
v 2 0 -0
v 2 1 -0
v 3 1 -0
v 3 2 -0
v 3 5 -0
v 3 6 -0
v 4 2 -0
v 4 5 -0
v 4 6 -0
v -3 2 -1
v -3 5 -1
v -3 6 -1
v -3 7 -1
v -3 10 -1
v -3 11 -1
v -2 5 -1
v -2 6 -1
v -2 7 -1
v -2 10 -1
v -2 11 -1
v 2 5 -1
v 2 6 -1
v 2 7 -1
v 2 10 -1
v 2 11 -1
v 3 2 -1
v 3 5 -1
v 3 6 -1
v 3 7 -1
v 3 10 -1
v 3 11 -1
v -2 7 -2
v -2 11 -2
v 2 7 -2
v 2 11 -2
v -2 0 1
v -1 0 1
v 1 0 1
v 2 0 1
v -2 0 -0
v -1 0 -0
v 1 0 -0
v 2 0 -0
v -3 1 1
v -2 1 1
v 2 1 1
v 3 1 1
v -3 1 -0
v -2 1 -0
v 2 1 -0
v 3 1 -0
v -3 2 2
v 3 2 2
v -4 2 1
v -3 2 1
v -1 2 1
v 1 2 1
v 3 2 1
v 4 2 1
v -4 2 -0
v -3 2 -0
v -1 2 -0
v 1 2 -0
v 3 2 -0
v 4 2 -0
v -3 2 -1
v 3 2 -1
v -3 7 2
v 3 7 2
v -2 7 1
v 2 7 1
v -3 7 -1
v -2 7 -1
v 2 7 -1
v 3 7 -1
v -2 7 -2
v 2 7 -2
v -3 6 2
v -2 6 2
v 2 6 2
v 3 6 2
v -4 6 1
v -3 6 1
v -2 6 1
v 2 6 1
v 3 6 1
v 4 6 1
v -4 6 -0
v -3 6 -0
v 3 6 -0
v 4 6 -0
v -3 6 -1
v -2 6 -1
v 2 6 -1
v 3 6 -1
v -3 11 2
v -2 11 2
v 2 11 2
v 3 11 2
v -3 11 -1
v -2 11 -1
v 2 11 -1
v 3 11 -1
v -2 11 -2
v 2 11 -2

# faces
f 3/3/1 2/3/1 1/3/1
f 4/3/1 2/3/1 3/3/1
f 5/4/1 4/4/1 3/4/1
f 6/4/1 4/4/1 5/4/1
f 10/4/1 8/4/1 7/4/1
f 11/4/1 8/4/1 10/4/1
f 13/4/1 10/4/1 9/4/1
f 14/4/1 10/4/1 13/4/1
f 15/4/1 12/4/1 11/4/1
f 16/4/1 12/4/1 15/4/1
f 17/1/1 14/1/1 13/1/1
f 18/1/1 14/1/1 17/1/1
f 19/1/1 16/1/1 15/1/1
f 20/1/1 16/1/1 19/1/1
f 23/3/1 22/3/1 21/3/1
f 24/3/1 22/3/1 23/3/1
f 25/2/1 24/2/1 23/2/1
f 26/2/1 24/2/1 25/2/1
f 29/6/1 28/6/1 27/6/1
f 30/6/1 28/6/1 29/6/1
f 33/3/1 32/3/1 31/3/1
f 34/3/1 32/3/1 33/3/1
f 36/3/1 35/3/1 34/3/1
f 37/3/1 35/3/1 36/3/1
f 38/3/1 35/3/1 37/3/1
f 41/6/1 40/6/1 39/6/1
f 42/6/1 40/6/1 41/6/1
f 43/4/1 42/4/1 41/4/1
f 44/4/1 42/4/1 43/4/1
f 45/6/2 46/6/2 47/6/2
f 47/6/2 46/6/2 48/6/2
f 47/4/2 48/4/2 49/4/2
f 49/4/2 48/4/2 50/4/2
f 51/6/2 52/6/2 53/6/2
f 53/6/2 52/6/2 54/6/2
f 55/3/2 56/3/2 57/3/2
f 57/3/2 56/3/2 58/3/2
f 58/3/2 59/3/2 60/3/2
f 60/3/2 59/3/2 61/3/2
f 61/3/2 59/3/2 62/3/2
f 63/4/2 64/4/2 66/4/2
f 66/4/2 64/4/2 67/4/2
f 65/4/2 66/4/2 69/4/2
f 69/4/2 66/4/2 70/4/2
f 69/1/2 70/1/2 71/1/2
f 71/1/2 70/1/2 72/1/2
f 71/4/2 72/4/2 73/4/2
f 73/4/2 72/4/2 74/4/2
f 67/4/2 68/4/2 75/4/2
f 75/4/2 68/4/2 76/4/2
f 73/1/2 74/1/2 77/1/2
f 77/1/2 74/1/2 78/1/2
f 75/1/2 76/1/2 79/1/2
f 79/1/2 76/1/2 80/1/2
f 81/3/2 82/3/2 83/3/2
f 83/3/2 82/3/2 84/3/2
f 83/2/2 84/2/2 85/2/2
f 85/2/2 84/2/2 86/2/2
f 87/3/2 88/3/2 89/3/2
f 89/3/2 88/3/2 90/3/2
f 89/4/2 90/4/2 91/4/2
f 91/4/2 90/4/2 92/4/2
f 99/4/3 94/4/3 93/4/3
f 100/4/3 94/4/3 99/4/3
f 101/1/3 95/1/3 94/1/3
f 101/4/3 94/4/3 100/4/3
f 102/1/3 95/1/3 101/1/3
f 103/3/3 97/3/3 96/3/3
f 104/2/3 98/2/3 97/2/3
f 104/3/3 97/3/3 103/3/3
f 105/2/3 98/2/3 104/2/3
f 106/3/3 103/3/3 96/3/3
f 106/7/3 104/7/3 103/7/3
f 107/3/3 105/3/3 104/3/3
f 107/7/3 104/7/3 106/7/3
f 108/3/3 106/3/3 96/3/3
f 108/3/3 107/3/3 106/3/3
f 109/3/3 105/3/3 107/3/3
f 109/3/3 107/3/3 108/3/3
f 110/4/3 102/4/3 101/4/3
f 110/4/3 101/4/3 100/4/3
f 111/4/3 102/4/3 110/4/3
f 112/7/3 109/7/3 108/7/3
f 112/3/3 108/3/3 96/3/3
f 113/3/3 105/3/3 109/3/3
f 113/7/3 109/7/3 112/7/3
f 114/3/3 105/3/3 113/3/3
f 115/4/3 99/4/3 93/4/3
f 116/1/3 100/1/3 99/1/3
f 116/4/3 99/4/3 115/4/3
f 117/4/3 110/4/3 100/4/3
f 117/1/3 100/1/3 116/1/3
f 118/1/3 111/1/3 110/1/3
f 118/4/3 110/4/3 117/4/3
f 119/1/3 111/1/3 118/1/3
f 120/3/3 112/3/3 96/3/3
f 120/3/3 113/3/3 112/3/3
f 121/2/3 114/2/3 113/2/3
f 121/3/3 113/3/3 120/3/3
f 122/2/3 114/2/3 121/2/3
f 127/3/3 124/3/3 123/3/3
f 128/4/3 125/4/3 124/4/3
f 128/3/3 124/3/3 127/3/3
f 129/4/3 125/4/3 128/4/3
f 131/4/3 127/4/3 126/4/3
f 134/6/3 131/6/3 130/6/3
f 135/4/3 127/4/3 131/4/3
f 135/6/3 131/6/3 134/6/3
f 136/4/3 127/4/3 135/4/3
f 140/6/3 138/6/3 137/6/3
f 141/4/3 139/4/3 138/4/3
f 141/6/3 138/6/3 140/6/3
f 142/3/3 133/3/3 132/3/3
f 143/3/3 133/3/3 142/3/3
f 144/4/3 139/4/3 141/4/3
f 145/4/3 139/4/3 144/4/3
f 150/3/3 146/3/3 145/3/3
f 150/3/3 148/3/3 147/3/3
f 150/3/3 147/3/3 146/3/3
f 151/4/3 149/4/3 148/4/3
f 151/3/3 148/3/3 150/3/3
f 152/4/3 149/4/3 151/4/3
f 153/3/4 154/3/4 157/3/4
f 154/4/4 155/4/4 158/4/4
f 157/3/4 154/3/4 158/3/4
f 158/4/4 155/4/4 159/4/4
f 156/4/4 157/4/4 161/4/4
f 160/6/4 161/6/4 162/6/4
f 161/4/4 157/4/4 163/4/4
f 162/6/4 161/6/4 163/6/4
f 163/4/4 157/4/4 164/4/4
f 165/6/4 166/6/4 168/6/4
f 166/4/4 167/4/4 169/4/4
f 168/6/4 166/6/4 169/6/4
f 169/4/4 167/4/4 170/4/4
f 170/4/4 167/4/4 171/4/4
f 171/3/4 172/3/4 174/3/4
f 172/4/4 173/4/4 175/4/4
f 174/3/4 172/3/4 175/3/4
f 175/4/4 173/4/4 176/4/4
f 177/4/4 178/4/4 183/4/4
f 178/1/4 179/1/4 183/1/4
f 183/1/4 179/1/4 184/1/4
f 180/3/4 181/3/4 185/3/4
f 181/2/4 182/2/4 186/2/4
f 185/3/4 181/3/4 186/3/4
f 186/2/4 182/2/4 187/2/4
f 183/4/4 184/4/4 188/4/4
f 177/4/4 183/4/4 188/4/4
f 184/3/4 185/3/4 189/3/4
f 188/4/4 184/4/4 189/4/4
f 189/3/4 185/3/4 190/3/4
f 177/4/4 188/4/4 193/4/4
f 188/1/4 189/1/4 194/1/4
f 193/4/4 188/4/4 194/4/4
f 194/1/4 189/1/4 195/1/4
f 190/3/4 191/3/4 196/3/4
f 191/2/4 192/2/4 197/2/4
f 196/3/4 191/3/4 197/3/4
f 197/2/4 192/2/4 198/2/4
f 199/3/4 200/3/4 201/3/4
f 201/3/4 200/3/4 202/3/4
f 207/6/5 204/6/5 203/6/5
f 208/6/5 204/6/5 207/6/5
f 209/6/5 206/6/5 205/6/5
f 210/6/5 206/6/5 209/6/5
f 215/4/5 212/4/5 211/4/5
f 216/4/5 212/4/5 215/4/5
f 217/4/5 214/4/5 213/4/5
f 218/4/5 214/4/5 217/4/5
f 222/4/5 220/4/5 219/4/5
f 223/4/5 220/4/5 222/4/5
f 224/4/5 220/4/5 223/4/5
f 225/4/5 220/4/5 224/4/5
f 227/3/5 222/3/5 221/3/5
f 228/3/5 222/3/5 227/3/5
f 229/6/5 224/6/5 223/6/5
f 230/6/5 224/6/5 229/6/5
f 231/3/5 226/3/5 225/3/5
f 232/3/5 226/3/5 231/3/5
f 233/4/5 230/4/5 229/4/5
f 233/4/5 231/4/5 230/4/5
f 233/4/5 229/4/5 228/4/5
f 234/4/5 231/4/5 233/4/5
f 237/3/5 236/3/5 235/3/5
f 238/3/5 236/3/5 237/3/5
f 239/3/5 237/3/5 235/3/5
f 240/3/5 237/3/5 239/3/5
f 241/3/5 236/3/5 238/3/5
f 242/3/5 236/3/5 241/3/5
f 243/3/5 241/3/5 240/3/5
f 244/3/5 241/3/5 243/3/5
f 245/1/6 246/1/6 250/1/6
f 246/4/6 247/4/6 251/4/6
f 250/1/6 246/1/6 251/1/6
f 247/1/6 248/1/6 252/1/6
f 251/4/6 247/4/6 252/4/6
f 252/1/6 248/1/6 253/1/6
f 249/4/6 250/4/6 255/4/6
f 250/1/6 251/1/6 256/1/6
f 255/4/6 250/4/6 256/4/6
f 253/4/6 254/4/6 257/4/6
f 252/1/6 253/1/6 257/1/6
f 257/4/6 254/4/6 258/4/6
f 256/1/6 251/1/6 259/1/6
f 259/1/6 251/1/6 260/1/6
f 252/1/6 257/1/6 261/1/6
f 261/1/6 257/1/6 262/1/6
f 263/2/6 264/2/6 267/2/6
f 264/3/6 265/3/6 268/3/6
f 267/2/6 264/2/6 268/2/6
f 265/2/6 266/2/6 269/2/6
f 268/3/6 265/3/6 269/3/6
f 269/2/6 266/2/6 270/2/6
f 268/3/6 269/3/6 271/3/6
f 271/3/6 269/3/6 272/3/6
