# MagicaVoxel @ Ephtracy

# material
mtllib alien_infected1.mtl
usemtl palette

# normals
vn -1 0 0
vn 1 0 0
vn 0 0 1
vn 0 0 -1
vn 0 -1 0
vn 0 1 0

# texcoords
vt 0.0332031 0.5
vt 0.0605469 0.5
vt 0.0683594 0.5
vt 0.244141 0.5
vt 0.369141 0.5
vt 0.990234 0.5

# verts
v -5 0 6
v -5 0 4
v -5 0 -0
v -5 0 -3
v -5 1 6
v -5 1 4
v -5 1 -0
v -5 1 -3
v -5 6 -2
v -5 6 -3
v -5 7 -2
v -5 7 -3
v -4 0 1
v -4 0 -0
v -4 1 1
v -4 1 -0
v -4 1 -1
v -4 4 -0
v -4 4 -1
v -4 5 -0
v -4 5 -1
v -4 5 -2
v -4 5 -3
v -4 6 -0
v -4 6 -1
v -4 6 -2
v -4 6 -3
v -4 7 1
v -4 7 -1
v -4 7 -2
v -4 7 -3
v -4 8 1
v -4 8 -3
v -3 0 4
v -3 0 3
v -3 0 1
v -3 1 4
v -3 1 3
v -3 1 1
v -3 1 -0
v -3 1 -1
v -3 1 -3
v -3 2 3
v -3 2 2
v -3 4 2
v -3 4 1
v -3 4 -0
v -3 4 -1
v -3 4 -2
v -3 4 -3
v -3 5 -0
v -3 5 -1
v -3 5 -2
v -3 6 -0
v -3 6 -1
v -3 6 -2
v -3 7 2
v -3 7 1
v -3 7 -1
v -3 8 2
v -3 8 1
v -3 8 -2
v -3 9 1
v -3 9 -2
v -2 4 -2
v -2 4 -3
v -2 4 -4
v -2 5 -2
v -2 5 -3
v -2 8 -2
v -2 8 -3
v -2 8 -4
v -2 9 -2
v -2 9 -3
v -1 0 6
v -1 0 3
v -1 1 6
v -1 1 3
v -1 5 1
v -1 5 -0
v -1 6 1
v -1 6 -0
v 0 4 -3
v 0 4 -4
v 0 5 -3
v 0 5 -4
v 1 8 1
v 1 8 -0
v 1 9 1
v 1 9 -0
v 2 5 1
v 2 5 -0
v 2 6 1
v 2 6 -0
v 2 7 2
v 2 7 1
v 2 8 2
v 2 8 1
v 4 0 2
v 4 0 1
v 4 1 2
v 4 1 1
v -4 0 6
v -4 0 5
v -4 1 6
v -4 1 5
v -2 0 5
v -2 0 3
v -2 1 5
v -2 1 3
v -2 5 1
v -2 5 -0
v -2 6 1
v -2 6 -0
v -2 7 2
v -2 7 1
v -2 8 2
v -2 8 1
v -1 4 -3
v -1 4 -4
v -1 5 -3
v -1 5 -4
v -1 8 1
v -1 8 -0
v -1 9 1
v -1 9 -0
v 0 0 6
v 0 0 4
v 0 1 6
v 0 1 4
v 1 4 -3
v 1 4 -4
v 1 5 1
v 1 5 -0
v 1 5 -3
v 1 5 -4
v 1 6 1
v 1 6 -0
v 2 0 4
v 2 0 3
v 2 1 4
v 2 1 3
v 2 4 -2
v 2 4 -3
v 2 5 -2
v 2 5 -3
v 2 5 -4
v 2 8 -2
v 2 8 -3
v 2 8 -4
v 2 9 -2
v 2 9 -3
v 3 0 2
v 3 0 -0
v 3 0 -1
v 3 0 -3
v 3 1 3
v 3 1 2
v 3 2 3
v 3 2 2
v 3 3 -0
v 3 3 -1
v 3 4 2
v 3 4 1
v 3 4 -0
v 3 4 -1
v 3 4 -2
v 3 4 -3
v 3 5 -0
v 3 5 -1
v 3 5 -2
v 3 6 -0
v 3 6 -1
v 3 6 -2
v 3 7 2
v 3 7 1
v 3 7 -1
v 3 8 2
v 3 8 1
v 3 8 -2
v 3 9 1
v 3 9 -2
v 4 0 3
v 4 0 2
v 4 0 -0
v 4 0 -1
v 4 1 3
v 4 1 2
v 4 3 -0
v 4 3 -1
v 4 4 -0
v 4 4 -1
v 4 5 -0
v 4 5 -1
v 4 5 -2
v 4 5 -3
v 4 6 -0
v 4 6 -1
v 4 6 -2
v 4 6 -3
v 4 7 1
v 4 7 -1
v 4 7 -2
v 4 7 -3
v 4 8 1
v 4 8 -3
v 5 0 2
v 5 0 1
v 5 1 2
v 5 1 1
v 5 6 -2
v 5 6 -3
v 5 7 -2
v 5 7 -3
v -5 0 6
v -5 1 6
v -4 0 6
v -4 1 6
v -1 0 6
v -1 1 6
v 0 0 6
v 0 1 6
v -4 0 5
v -4 1 5
v -2 0 5
v -2 1 5
v 0 0 4
v 0 1 4
v 2 0 4
v 2 1 4
v -3 1 3
v -3 2 3
v -2 0 3
v -2 1 3
v -1 0 3
v -1 1 3
v 0 1 3
v 0 2 3
v 2 0 3
v 2 1 3
v 3 1 3
v 3 2 3
v 4 0 3
v 4 1 3
v -3 2 2
v -3 4 2
v -3 7 2
v -3 8 2
v -2 7 2
v -2 8 2
v -1 2 2
v -1 4 2
v 0 2 2
v 2 7 2
v 2 8 2
v 3 2 2
v 3 4 2
v 3 7 2
v 3 8 2
v 4 0 2
v 4 1 2
v 5 0 2
v 5 1 2
v -4 0 1
v -4 1 1
v -4 7 1
v -4 8 1
v -3 0 1
v -3 1 1
v -3 4 1
v -3 7 1
v -3 8 1
v -3 9 1
v -2 5 1
v -2 6 1
v -2 7 1
v -2 8 1
v -1 4 1
v -1 5 1
v -1 6 1
v -1 8 1
v -1 9 1
v 1 5 1
v 1 6 1
v 1 8 1
v 1 9 1
v 2 5 1
v 2 6 1
v 2 7 1
v 2 8 1
v 3 4 1
v 3 7 1
v 3 8 1
v 3 9 1
v 4 7 1
v 4 8 1
v -5 0 -0
v -5 1 -0
v -4 0 -0
v -4 1 -0
v -4 4 -0
v -4 5 -0
v -4 6 -0
v -3 1 -0
v -3 4 -0
v -3 5 -0
v -3 6 -0
v -2 5 -0
v -2 6 -0
v -1 5 -0
v -1 6 -0
v -1 8 -0
v -1 9 -0
v 1 5 -0
v 1 6 -0
v 1 8 -0
v 1 9 -0
v 2 5 -0
v 2 6 -0
v 3 0 -0
v 3 3 -0
v 3 4 -0
v 3 5 -0
v 3 6 -0
v 4 0 -0
v 4 3 -0
v 4 4 -0
v 4 5 -0
v 4 6 -0
v -4 6 -1
v -4 7 -1
v -3 6 -1
v -3 7 -1
v 3 6 -1
v 3 7 -1
v 4 6 -1
v 4 7 -1
v -5 6 -2
v -5 7 -2
v -4 5 -2
v -4 6 -2
v -4 7 -2
v -3 5 -2
v -3 6 -2
v 3 5 -2
v 3 6 -2
v 4 5 -2
v 4 6 -2
v 4 7 -2
v 5 6 -2
v 5 7 -2
v -5 0 4
v -5 1 4
v -3 0 4
v -3 1 4
v 3 0 2
v 3 1 2
v 4 0 2
v 4 1 2
v 4 0 1
v 4 1 1
v 5 0 1
v 5 1 1
v -4 1 -1
v -4 4 -1
v -4 5 -1
v -4 6 -1
v -3 1 -1
v -3 4 -1
v -3 5 -1
v -3 6 -1
v 3 0 -1
v 3 3 -1
v 3 4 -1
v 3 5 -1
v 3 6 -1
v 4 0 -1
v 4 3 -1
v 4 4 -1
v 4 5 -1
v 4 6 -1
v -3 4 -2
v -3 5 -2
v -3 8 -2
v -3 9 -2
v -2 4 -2
v -2 5 -2
v -2 8 -2
v -2 9 -2
v 2 4 -2
v 2 5 -2
v 2 8 -2
v 2 9 -2
v 3 4 -2
v 3 5 -2
v 3 8 -2
v 3 9 -2
v -5 0 -3
v -5 1 -3
v -5 6 -3
v -5 7 -3
v -4 5 -3
v -4 6 -3
v -4 7 -3
v -4 8 -3
v -3 0 -3
v -3 1 -3
v -3 4 -3
v -2 1 -3
v -2 4 -3
v -2 5 -3
v -2 8 -3
v -2 9 -3
v -1 4 -3
v -1 5 -3
v 0 4 -3
v 0 5 -3
v 1 4 -3
v 1 5 -3
v 2 4 -3
v 2 5 -3
v 2 8 -3
v 2 9 -3
v 3 0 -3
v 3 4 -3
v 4 5 -3
v 4 6 -3
v 4 7 -3
v 4 8 -3
v 5 6 -3
v 5 7 -3
v -2 4 -4
v -2 8 -4
v -1 4 -4
v -1 5 -4
v 0 4 -4
v 0 5 -4
v 1 4 -4
v 1 5 -4
v 2 5 -4
v 2 8 -4
v -5 0 6
v -4 0 6
v -1 0 6
v 0 0 6
v -4 0 5
v -2 0 5
v -5 0 4
v -3 0 4
v 0 0 4
v 2 0 4
v -3 0 3
v -2 0 3
v -1 0 3
v 2 0 3
v 4 0 3
v -2 0 2
v 3 0 2
v 4 0 2
v 5 0 2
v -4 0 1
v -3 0 1
v -2 0 1
v -1 0 1
v 1 0 1
v 2 0 1
v 4 0 1
v 5 0 1
v -5 0 -0
v -4 0 -0
v -3 0 -0
v -2 0 -0
v 2 0 -0
v 3 0 -0
v 4 0 -0
v -4 0 -1
v -3 0 -1
v -2 0 -1
v 2 0 -1
v 3 0 -1
v 4 0 -1
v -2 0 -2
v -1 0 -2
v 1 0 -2
v 2 0 -2
v -5 0 -3
v -3 0 -3
v 3 0 -3
v -2 4 -3
v -1 4 -3
v 0 4 -3
v 1 4 -3
v -2 4 -4
v -1 4 -4
v 0 4 -4
v 1 4 -4
v -4 5 -0
v -3 5 -0
v 3 5 -0
v 4 5 -0
v -4 5 -1
v -3 5 -1
v 3 5 -1
v 4 5 -1
v -4 5 -2
v -3 5 -2
v -2 5 -2
v 2 5 -2
v 3 5 -2
v 4 5 -2
v -4 5 -3
v -2 5 -3
v -1 5 -3
v 0 5 -3
v 1 5 -3
v 2 5 -3
v 4 5 -3
v -1 5 -4
v 0 5 -4
v 1 5 -4
v 2 5 -4
v -2 6 1
v -1 6 1
v 1 6 1
v 2 6 1
v -2 6 -0
v -1 6 -0
v 1 6 -0
v 2 6 -0
v -4 6 -1
v -3 6 -1
v 3 6 -1
v 4 6 -1
v -5 6 -2
v -4 6 -2
v -3 6 -2
v 3 6 -2
v 4 6 -2
v 5 6 -2
v -5 6 -3
v -4 6 -3
v 4 6 -3
v 5 6 -3
v -3 7 2
v -2 7 2
v 2 7 2
v 3 7 2
v -4 7 1
v -3 7 1
v -2 7 1
v 2 7 1
v 3 7 1
v 4 7 1
v -4 7 -1
v -3 7 -1
v 3 7 -1
v 4 7 -1
v -5 1 6
v -4 1 6
v -1 1 6
v 0 1 6
v -4 1 5
v -2 1 5
v -5 1 4
v -3 1 4
v 0 1 4
v 2 1 4
v -3 1 3
v -2 1 3
v -1 1 3
v 0 1 3
v 2 1 3
v 3 1 3
v 4 1 3
v 3 1 2
v 4 1 2
v 5 1 2
v -4 1 1
v -3 1 1
v 4 1 1
v 5 1 1
v -5 1 -0
v -4 1 -0
v -3 1 -0
v -4 1 -1
v -3 1 -1
v -5 1 -3
v -3 1 -3
v -3 2 3
v 0 2 3
v 3 2 3
v -3 2 2
v -1 2 2
v 0 2 2
v 3 2 2
v -3 4 2
v -1 4 2
v 3 4 2
v -3 4 1
v -1 4 1
v 3 4 1
v -4 4 -0
v -3 4 -0
v 3 4 -0
v 4 4 -0
v -4 4 -1
v -3 4 -1
v 3 4 -1
v 4 4 -1
v -3 4 -2
v -2 4 -2
v 2 4 -2
v 3 4 -2
v -3 4 -3
v -2 4 -3
v 2 4 -3
v 3 4 -3
v -2 5 1
v -1 5 1
v 1 5 1
v 2 5 1
v -2 5 -0
v -1 5 -0
v 1 5 -0
v 2 5 -0
v -4 6 -0
v -3 6 -0
v 3 6 -0
v 4 6 -0
v -4 6 -1
v -3 6 -1
v 3 6 -1
v 4 6 -1
v -5 7 -2
v -4 7 -2
v 4 7 -2
v 5 7 -2
v -5 7 -3
v -4 7 -3
v 4 7 -3
v 5 7 -3
v -3 8 2
v -2 8 2
v 2 8 2
v 3 8 2
v -4 8 1
v -3 8 1
v -2 8 1
v -1 8 1
v 1 8 1
v 2 8 1
v 3 8 1
v 4 8 1
v -1 8 -0
v 1 8 -0
v -3 8 -2
v -2 8 -2
v 2 8 -2
v 3 8 -2
v -4 8 -3
v -2 8 -3
v 2 8 -3
v 4 8 -3
v -2 8 -4
v 2 8 -4
v -3 9 1
v -1 9 1
v 1 9 1
v 3 9 1
v -1 9 -0
v 1 9 -0
v -3 9 -2
v -2 9 -2
v 2 9 -2
v 3 9 -2
v -2 9 -3
v 2 9 -3

# faces
f 5/4/1 2/4/1 1/4/1
f 6/4/1 2/4/1 5/4/1
f 7/4/1 4/4/1 3/4/1
f 8/4/1 4/4/1 7/4/1
f 11/3/1 10/3/1 9/3/1
f 12/3/1 10/3/1 11/3/1
f 15/4/1 14/4/1 13/4/1
f 16/4/1 14/4/1 15/4/1
f 18/4/1 17/4/1 16/4/1
f 19/4/1 17/4/1 18/4/1
f 24/4/1 21/4/1 20/4/1
f 25/4/1 21/4/1 24/4/1
f 26/3/1 23/3/1 22/3/1
f 27/3/1 23/3/1 26/3/1
f 29/3/1 26/3/1 25/3/1
f 30/3/1 26/3/1 29/3/1
f 32/3/1 29/3/1 28/3/1
f 32/3/1 31/3/1 30/3/1
f 32/3/1 30/3/1 29/3/1
f 33/3/1 31/3/1 32/3/1
f 37/4/1 35/4/1 34/4/1
f 38/2/1 36/2/1 35/2/1
f 38/4/1 35/4/1 37/4/1
f 39/2/1 36/2/1 38/2/1
f 43/4/1 39/4/1 38/4/1
f 43/4/1 40/4/1 39/4/1
f 44/4/1 40/4/1 43/4/1
f 45/4/1 40/4/1 44/4/1
f 46/4/1 40/4/1 45/4/1
f 47/4/1 40/4/1 46/4/1
f 48/4/1 42/4/1 41/4/1
f 49/4/1 42/4/1 48/4/1
f 50/4/1 42/4/1 49/4/1
f 51/4/1 47/4/1 46/4/1
f 51/4/1 49/4/1 48/4/1
f 51/4/1 48/4/1 47/4/1
f 52/4/1 49/4/1 51/4/1
f 53/4/1 49/4/1 52/4/1
f 54/4/1 51/4/1 46/4/1
f 55/1/1 53/1/1 52/1/1
f 56/1/1 53/1/1 55/1/1
f 58/4/1 54/4/1 46/4/1
f 58/4/1 55/4/1 54/4/1
f 59/4/1 55/4/1 58/4/1
f 60/3/1 58/3/1 57/3/1
f 61/3/1 58/3/1 60/3/1
f 63/3/1 62/3/1 61/3/1
f 64/3/1 62/3/1 63/3/1
f 68/1/1 66/1/1 65/1/1
f 69/3/1 67/3/1 66/3/1
f 69/1/1 66/1/1 68/1/1
f 71/3/1 67/3/1 69/3/1
f 72/3/1 67/3/1 71/3/1
f 73/3/1 71/3/1 70/3/1
f 74/3/1 71/3/1 73/3/1
f 77/4/1 76/4/1 75/4/1
f 78/4/1 76/4/1 77/4/1
f 81/1/1 80/1/1 79/1/1
f 82/1/1 80/1/1 81/1/1
f 85/3/1 84/3/1 83/3/1
f 86/3/1 84/3/1 85/3/1
f 89/3/1 88/3/1 87/3/1
f 90/3/1 88/3/1 89/3/1
f 93/1/1 92/1/1 91/1/1
f 94/1/1 92/1/1 93/1/1
f 97/3/1 96/3/1 95/3/1
f 98/3/1 96/3/1 97/3/1
f 101/4/1 100/4/1 99/4/1
f 102/4/1 100/4/1 101/4/1
f 103/4/2 104/4/2 105/4/2
f 105/4/2 104/4/2 106/4/2
f 107/4/2 108/4/2 109/4/2
f 109/4/2 108/4/2 110/4/2
f 111/4/2 112/4/2 113/4/2
f 113/4/2 112/4/2 114/4/2
f 115/3/2 116/3/2 117/3/2
f 117/3/2 116/3/2 118/3/2
f 119/3/2 120/3/2 121/3/2
f 121/3/2 120/3/2 122/3/2
f 123/3/2 124/3/2 125/3/2
f 125/3/2 124/3/2 126/3/2
f 127/4/2 128/4/2 129/4/2
f 129/4/2 128/4/2 130/4/2
f 131/3/2 132/3/2 135/3/2
f 135/3/2 132/3/2 136/3/2
f 133/1/2 134/1/2 137/1/2
f 137/1/2 134/1/2 138/1/2
f 139/4/2 140/4/2 141/4/2
f 141/4/2 140/4/2 142/4/2
f 143/1/2 144/1/2 145/1/2
f 145/1/2 144/1/2 146/1/2
f 146/3/2 147/3/2 149/3/2
f 149/3/2 147/3/2 150/3/2
f 148/3/2 149/3/2 151/3/2
f 151/3/2 149/3/2 152/3/2
f 153/2/2 154/2/2 158/2/2
f 157/2/2 158/2/2 159/2/2
f 158/2/2 154/2/2 160/2/2
f 159/2/2 158/2/2 160/2/2
f 160/2/2 154/2/2 161/2/2
f 155/2/2 156/2/2 162/2/2
f 160/2/2 161/2/2 163/2/2
f 163/2/2 161/2/2 164/2/2
f 164/2/2 161/2/2 165/2/2
f 162/2/2 156/2/2 166/2/2
f 166/2/2 156/2/2 167/2/2
f 167/2/2 156/2/2 168/2/2
f 164/1/2 165/1/2 169/1/2
f 166/1/2 167/1/2 169/1/2
f 165/1/2 166/1/2 169/1/2
f 169/1/2 167/1/2 170/1/2
f 170/1/2 167/1/2 171/1/2
f 164/1/2 169/1/2 172/1/2
f 170/1/2 171/1/2 173/1/2
f 173/1/2 171/1/2 174/1/2
f 164/1/2 172/1/2 176/1/2
f 172/1/2 173/1/2 176/1/2
f 176/1/2 173/1/2 177/1/2
f 175/3/2 176/3/2 178/3/2
f 178/3/2 176/3/2 179/3/2
f 179/3/2 180/3/2 181/3/2
f 181/3/2 180/3/2 182/3/2
f 183/4/2 184/4/2 187/4/2
f 187/4/2 184/4/2 188/4/2
f 185/1/2 186/1/2 189/1/2
f 189/1/2 186/1/2 190/1/2
f 189/2/2 190/2/2 191/2/2
f 191/2/2 190/2/2 192/2/2
f 193/1/2 194/1/2 197/1/2
f 197/1/2 194/1/2 198/1/2
f 195/3/2 196/3/2 199/3/2
f 199/3/2 196/3/2 200/3/2
f 198/3/2 199/3/2 202/3/2
f 202/3/2 199/3/2 203/3/2
f 201/3/2 202/3/2 205/3/2
f 203/3/2 204/3/2 205/3/2
f 202/3/2 203/3/2 205/3/2
f 205/3/2 204/3/2 206/3/2
f 207/4/2 208/4/2 209/4/2
f 209/4/2 208/4/2 210/4/2
f 211/3/2 212/3/2 213/3/2
f 213/3/2 212/3/2 214/3/2
f 217/4/3 216/4/3 215/4/3
f 218/4/3 216/4/3 217/4/3
f 221/4/3 220/4/3 219/4/3
f 222/4/3 220/4/3 221/4/3
f 225/4/3 224/4/3 223/4/3
f 226/4/3 224/4/3 225/4/3
f 229/4/3 228/4/3 227/4/3
f 230/4/3 228/4/3 229/4/3
f 234/4/3 232/4/3 231/4/3
f 235/4/3 234/4/3 233/4/3
f 236/4/3 232/4/3 234/4/3
f 236/4/3 234/4/3 235/4/3
f 237/4/3 232/4/3 236/4/3
f 238/4/3 232/4/3 237/4/3
f 240/2/3 238/2/3 237/2/3
f 241/2/3 238/2/3 240/2/3
f 241/4/3 240/4/3 239/4/3
f 242/2/3 238/2/3 241/2/3
f 243/4/3 241/4/3 239/4/3
f 244/4/3 241/4/3 243/4/3
f 249/3/3 248/3/3 247/3/3
f 250/3/3 248/3/3 249/3/3
f 251/4/3 246/4/3 245/4/3
f 252/4/3 246/4/3 251/4/3
f 253/2/3 252/2/3 251/2/3
f 256/2/3 252/2/3 253/2/3
f 257/2/3 252/2/3 256/2/3
f 258/3/3 255/3/3 254/3/3
f 259/3/3 255/3/3 258/3/3
f 262/4/3 261/4/3 260/4/3
f 263/4/3 261/4/3 262/4/3
f 268/4/3 265/4/3 264/4/3
f 269/4/3 265/4/3 268/4/3
f 271/3/3 267/3/3 266/3/3
f 272/3/3 267/3/3 271/3/3
f 274/4/3 271/4/3 270/4/3
f 275/4/3 271/4/3 274/4/3
f 276/4/3 271/4/3 275/4/3
f 277/3/3 273/3/3 272/3/3
f 278/4/3 274/4/3 270/4/3
f 279/4/3 274/4/3 278/4/3
f 280/1/3 276/1/3 275/1/3
f 280/1/3 277/1/3 276/1/3
f 281/3/3 273/3/3 277/3/3
f 281/1/3 277/1/3 280/1/3
f 282/3/3 273/3/3 281/3/3
f 283/1/3 279/1/3 278/1/3
f 283/1/3 280/1/3 279/1/3
f 283/1/3 281/1/3 280/1/3
f 284/1/3 281/1/3 283/1/3
f 285/1/3 281/1/3 284/1/3
f 287/1/3 283/1/3 278/1/3
f 288/1/3 285/1/3 284/1/3
f 289/1/3 285/1/3 288/1/3
f 290/3/3 286/3/3 285/3/3
f 290/1/3 285/1/3 289/1/3
f 291/1/3 289/1/3 288/1/3
f 291/1/3 287/1/3 278/1/3
f 291/1/3 288/1/3 287/1/3
f 292/1/3 289/1/3 291/1/3
f 293/3/3 286/3/3 290/3/3
f 294/3/3 286/3/3 293/3/3
f 295/3/3 293/3/3 292/3/3
f 296/3/3 293/3/3 295/3/3
f 299/4/3 298/4/3 297/4/3
f 300/4/3 298/4/3 299/4/3
f 304/4/3 301/4/3 300/4/3
f 305/4/3 301/4/3 304/4/3
f 306/4/3 303/4/3 302/4/3
f 307/4/3 303/4/3 306/4/3
f 310/6/3 309/6/3 308/6/3
f 311/6/3 309/6/3 310/6/3
f 316/3/3 313/3/3 312/3/3
f 317/3/3 313/3/3 316/3/3
f 318/6/3 315/6/3 314/6/3
f 319/6/3 315/6/3 318/6/3
f 325/1/3 321/1/3 320/1/3
f 326/2/3 322/2/3 321/2/3
f 326/1/3 321/1/3 325/1/3
f 327/2/3 322/2/3 326/2/3
f 328/1/3 324/1/3 323/1/3
f 329/1/3 324/1/3 328/1/3
f 332/3/3 331/3/3 330/3/3
f 333/3/3 331/3/3 332/3/3
f 336/3/3 335/3/3 334/3/3
f 337/3/3 335/3/3 336/3/3
f 341/3/3 339/3/3 338/3/3
f 342/3/3 339/3/3 341/3/3
f 343/3/3 341/3/3 340/3/3
f 344/3/3 341/3/3 343/3/3
f 347/3/3 346/3/3 345/3/3
f 348/3/3 346/3/3 347/3/3
f 350/3/3 349/3/3 348/3/3
f 351/3/3 349/3/3 350/3/3
f 352/4/4 353/4/4 354/4/4
f 354/4/4 353/4/4 355/4/4
f 356/4/4 357/4/4 358/4/4
f 358/4/4 357/4/4 359/4/4
f 360/4/4 361/4/4 362/4/4
f 362/4/4 361/4/4 363/4/4
f 364/4/4 365/4/4 368/4/4
f 368/4/4 365/4/4 369/4/4
f 366/4/4 367/4/4 370/4/4
f 370/4/4 367/4/4 371/4/4
f 372/1/4 373/1/4 377/1/4
f 373/2/4 374/2/4 378/2/4
f 377/1/4 373/1/4 378/1/4
f 378/2/4 374/2/4 379/2/4
f 375/1/4 376/1/4 380/1/4
f 380/1/4 376/1/4 381/1/4
f 382/4/4 383/4/4 386/4/4
f 386/4/4 383/4/4 387/4/4
f 384/3/4 385/3/4 388/3/4
f 388/3/4 385/3/4 389/3/4
f 390/1/4 391/1/4 394/1/4
f 394/1/4 391/1/4 395/1/4
f 392/3/4 393/3/4 396/3/4
f 396/3/4 393/3/4 397/3/4
f 400/3/4 401/3/4 403/3/4
f 403/3/4 401/3/4 404/3/4
f 398/4/4 399/4/4 406/4/4
f 406/4/4 399/4/4 407/4/4
f 406/2/4 407/2/4 409/2/4
f 407/4/4 408/4/4 409/4/4
f 409/4/4 408/4/4 410/4/4
f 404/3/4 405/3/4 411/3/4
f 402/3/4 403/3/4 411/3/4
f 403/3/4 404/3/4 411/3/4
f 411/3/4 405/3/4 412/3/4
f 409/2/4 410/2/4 414/2/4
f 409/2/4 414/2/4 416/2/4
f 414/1/4 415/1/4 416/1/4
f 416/1/4 415/1/4 417/1/4
f 409/2/4 416/2/4 418/2/4
f 409/2/4 418/2/4 420/2/4
f 418/1/4 419/1/4 420/1/4
f 420/1/4 419/1/4 421/1/4
f 412/3/4 413/3/4 422/3/4
f 422/3/4 413/3/4 423/3/4
f 406/2/4 409/2/4 424/2/4
f 409/2/4 420/2/4 424/2/4
f 424/2/4 420/2/4 425/2/4
f 421/3/4 422/3/4 426/3/4
f 426/3/4 422/3/4 427/3/4
f 427/3/4 422/3/4 428/3/4
f 428/3/4 422/3/4 429/3/4
f 427/3/4 428/3/4 430/3/4
f 430/3/4 428/3/4 431/3/4
f 432/3/4 433/3/4 434/3/4
f 434/3/4 433/3/4 435/3/4
f 435/3/4 433/3/4 437/3/4
f 436/3/4 437/3/4 438/3/4
f 437/3/4 433/3/4 439/3/4
f 438/3/4 437/3/4 439/3/4
f 439/3/4 433/3/4 440/3/4
f 440/3/4 433/3/4 441/3/4
f 446/4/5 443/4/5 442/4/5
f 448/4/5 446/4/5 442/4/5
f 448/4/5 447/4/5 446/4/5
f 449/4/5 447/4/5 448/4/5
f 450/4/5 445/4/5 444/4/5
f 452/4/5 447/4/5 449/4/5
f 453/4/5 447/4/5 452/4/5
f 454/4/5 451/4/5 450/4/5
f 454/4/5 450/4/5 444/4/5
f 455/4/5 451/4/5 454/4/5
f 457/2/5 453/2/5 452/2/5
f 457/4/5 456/4/5 455/4/5
f 457/4/5 455/4/5 454/4/5
f 457/4/5 454/4/5 453/4/5
f 458/4/5 456/4/5 457/4/5
f 459/4/5 456/4/5 458/4/5
f 462/2/5 457/2/5 452/2/5
f 462/2/5 458/2/5 457/2/5
f 463/2/5 458/2/5 462/2/5
f 464/2/5 458/2/5 463/2/5
f 465/2/5 458/2/5 464/2/5
f 466/2/5 458/2/5 465/2/5
f 467/4/5 460/4/5 459/4/5
f 468/4/5 460/4/5 467/4/5
f 470/4/5 462/4/5 461/4/5
f 471/2/5 463/2/5 462/2/5
f 471/4/5 462/4/5 470/4/5
f 472/1/5 464/1/5 463/1/5
f 472/2/5 463/2/5 471/2/5
f 473/2/5 458/2/5 466/2/5
f 473/1/5 466/1/5 465/1/5
f 474/2/5 458/2/5 473/2/5
f 476/4/5 470/4/5 469/4/5
f 476/1/5 471/1/5 470/1/5
f 476/1/5 472/1/5 471/1/5
f 477/1/5 472/1/5 476/1/5
f 478/1/5 464/1/5 472/1/5
f 478/1/5 472/1/5 477/1/5
f 479/1/5 475/1/5 474/1/5
f 479/1/5 474/1/5 473/1/5
f 479/1/5 473/1/5 465/1/5
f 480/1/5 475/1/5 479/1/5
f 481/1/5 475/1/5 480/1/5
f 482/1/5 464/1/5 478/1/5
f 482/2/5 478/2/5 477/2/5
f 483/5/5 465/5/5 464/5/5
f 483/1/5 464/1/5 482/1/5
f 484/1/5 479/1/5 465/1/5
f 484/5/5 465/5/5 483/5/5
f 485/2/5 480/2/5 479/2/5
f 485/1/5 479/1/5 484/1/5
f 486/4/5 477/4/5 476/4/5
f 486/4/5 476/4/5 469/4/5
f 487/2/5 484/2/5 483/2/5
f 487/4/5 477/4/5 486/4/5
f 487/2/5 482/2/5 477/2/5
f 487/2/5 483/2/5 482/2/5
f 487/2/5 485/2/5 484/2/5
f 488/2/5 480/2/5 485/2/5
f 488/2/5 485/2/5 487/2/5
f 493/3/5 490/3/5 489/3/5
f 494/3/5 490/3/5 493/3/5
f 495/3/5 492/3/5 491/3/5
f 496/3/5 492/3/5 495/3/5
f 501/4/5 498/4/5 497/4/5
f 502/4/5 498/4/5 501/4/5
f 503/1/5 500/1/5 499/1/5
f 504/1/5 500/1/5 503/1/5
f 511/3/5 506/3/5 505/3/5
f 511/3/5 507/3/5 506/3/5
f 512/3/5 507/3/5 511/3/5
f 516/3/5 510/3/5 509/3/5
f 516/3/5 509/3/5 508/3/5
f 517/3/5 510/3/5 516/3/5
f 518/3/5 514/3/5 513/3/5
f 519/3/5 514/3/5 518/3/5
f 520/3/5 516/3/5 515/3/5
f 521/3/5 516/3/5 520/3/5
f 526/1/5 523/1/5 522/1/5
f 527/1/5 523/1/5 526/1/5
f 528/1/5 525/1/5 524/1/5
f 529/1/5 525/1/5 528/1/5
f 535/3/5 531/3/5 530/3/5
f 536/3/5 531/3/5 535/3/5
f 537/3/5 533/3/5 532/3/5
f 538/3/5 533/3/5 537/3/5
f 540/3/5 535/3/5 534/3/5
f 541/3/5 535/3/5 540/3/5
f 542/3/5 539/3/5 538/3/5
f 543/3/5 539/3/5 542/3/5
f 549/3/5 545/3/5 544/3/5
f 550/3/5 545/3/5 549/3/5
f 551/3/5 547/3/5 546/3/5
f 552/3/5 547/3/5 551/3/5
f 554/3/5 549/3/5 548/3/5
f 555/3/5 549/3/5 554/3/5
f 556/3/5 553/3/5 552/3/5
f 557/3/5 553/3/5 556/3/5
f 558/4/6 559/4/6 562/4/6
f 558/4/6 562/4/6 564/4/6
f 562/4/6 563/4/6 564/4/6
f 564/4/6 563/4/6 565/4/6
f 560/4/6 561/4/6 566/4/6
f 565/4/6 563/4/6 568/4/6
f 568/4/6 563/4/6 569/4/6
f 566/4/6 567/4/6 570/4/6
f 560/4/6 566/4/6 570/4/6
f 570/4/6 567/4/6 571/4/6
f 571/4/6 567/4/6 572/4/6
f 573/4/6 574/4/6 575/4/6
f 575/4/6 574/4/6 576/4/6
f 576/4/6 577/4/6 580/4/6
f 580/4/6 577/4/6 581/4/6
f 578/4/6 579/4/6 583/4/6
f 583/4/6 579/4/6 584/4/6
f 582/4/6 583/4/6 585/4/6
f 582/4/6 585/4/6 587/4/6
f 585/4/6 586/4/6 587/4/6
f 587/4/6 586/4/6 588/4/6
f 589/4/6 590/4/6 592/4/6
f 592/4/6 590/4/6 593/4/6
f 590/2/6 591/2/6 594/2/6
f 593/4/6 590/4/6 594/4/6
f 594/2/6 591/2/6 595/2/6
f 596/4/6 597/4/6 599/4/6
f 597/2/6 598/2/6 600/2/6
f 599/4/6 597/4/6 600/4/6
f 600/2/6 598/2/6 601/2/6
f 602/4/6 603/4/6 606/4/6
f 606/4/6 603/4/6 607/4/6
f 604/2/6 605/2/6 608/2/6
f 608/2/6 605/2/6 609/2/6
f 610/4/6 611/4/6 614/4/6
f 614/4/6 611/4/6 615/4/6
f 612/2/6 613/2/6 616/2/6
f 616/2/6 613/2/6 617/2/6
f 618/4/6 619/4/6 622/4/6
f 622/4/6 619/4/6 623/4/6
f 620/1/6 621/1/6 624/1/6
f 624/1/6 621/1/6 625/1/6
f 626/4/6 627/4/6 630/4/6
f 630/4/6 627/4/6 631/4/6
f 628/1/6 629/1/6 632/1/6
f 632/1/6 629/1/6 633/1/6
f 634/3/6 635/3/6 638/3/6
f 638/3/6 635/3/6 639/3/6
f 636/3/6 637/3/6 640/3/6
f 640/3/6 637/3/6 641/3/6
f 642/3/6 643/3/6 647/3/6
f 647/3/6 643/3/6 648/3/6
f 644/3/6 645/3/6 651/3/6
f 651/3/6 645/3/6 652/3/6
f 649/1/6 650/1/6 654/1/6
f 654/1/6 650/1/6 655/1/6
f 646/3/6 647/3/6 656/3/6
f 652/3/6 653/3/6 659/3/6
f 646/3/6 656/3/6 660/3/6
f 656/3/6 657/3/6 660/3/6
f 660/3/6 657/3/6 661/3/6
f 658/3/6 659/3/6 662/3/6
f 659/3/6 653/3/6 663/3/6
f 662/3/6 659/3/6 663/3/6
f 661/3/6 662/3/6 664/3/6
f 664/3/6 662/3/6 665/3/6
f 666/3/6 667/3/6 670/3/6
f 668/3/6 669/3/6 671/3/6
f 666/3/6 670/3/6 672/3/6
f 670/3/6 671/3/6 672/3/6
f 672/3/6 671/3/6 673/3/6
f 671/3/6 669/3/6 674/3/6
f 673/3/6 671/3/6 674/3/6
f 674/3/6 669/3/6 675/3/6
f 673/3/6 674/3/6 676/3/6
f 676/3/6 674/3/6 677/3/6
