# MagicaVoxel @ Ephtracy

# material
mtllib alien_infected2.mtl
usemtl palette

# normals
vn -1 0 0
vn 1 0 0
vn 0 0 1
vn 0 0 -1
vn 0 -1 0
vn 0 1 0

# texcoords
vt 0.0332031 0.5
vt 0.208984 0.5
vt 0.244141 0.5
vt 0.615234 0.5
vt 0.783203 0.5
vt 0.982422 0.5
vt 0.986328 0.5
vt 0.990234 0.5
vt 0.994141 0.5

# verts
v -4 0 3.5
v -4 0 -2.5
v -4 1 3.5
v -4 1 -0.5
v -4 1 -1.5
v -4 1 -2.5
v -4 3 -0.5
v -4 3 -1.5
v -4 4 -0.5
v -4 4 -1.5
v -4 5 -0.5
v -4 5 -1.5
v -4 6 -0.5
v -4 6 -1.5
v -4 7 -0.5
v -4 7 -1.5
v -3 0 -2.5
v -3 0 -3.5
v -3 1 1.5
v -3 1 -0.5
v -3 1 -1.5
v -3 1 -2.5
v -3 1 -3.5
v -3 2 1.5
v -3 2 0.5
v -3 2 -0.5
v -3 2 -1.5
v -3 2 -3.5
v -3 3 -0.5
v -3 3 -1.5
v -3 4 -0.5
v -3 4 -1.5
v -3 5 1.5
v -3 5 0.5
v -3 5 -0.5
v -3 5 -1.5
v -3 5 -2.5
v -3 5 -3.5
v -3 6 -0.5
v -3 6 -1.5
v -3 6 -2.5
v -3 7 -0.5
v -3 7 -1.5
v -3 8 1.5
v -3 8 0.5
v -3 8 -0.5
v -3 8 -2.5
v -3 8 -3.5
v -3 9 1.5
v -3 9 0.5
v -3 10 0.5
v -3 10 -3.5
v -2 5 -2.5
v -2 5 -3.5
v -2 6 -2.5
v -2 6 -3.5
v -2 8 -2.5
v -2 8 -3.5
v -1 6 0.5
v -1 6 -0.5
v -1 7 0.5
v -1 7 -0.5
v -1 9 1.5
v -1 9 0.5
v -1 10 1.5
v -1 10 0.5
v 0 0 4.5
v 0 0 3.5
v 0 1 4.5
v 0 1 3.5
v 0 1 2.5
v 0 1 1.5
v 0 2 1.5
v 0 3 2.5
v 0 3 1.5
v 0 4 2.5
v 0 4 1.5
v 1 0 3.5
v 1 0 2.5
v 1 1 3.5
v 1 1 2.5
v 2 0 2.5
v 2 0 1.5
v 2 1 2.5
v 2 1 1.5
v 2 6 0.5
v 2 6 -0.5
v 2 7 0.5
v 2 7 -0.5
v 3 0 -3.5
v 3 0 -4.5
v 3 1 -3.5
v 3 1 -4.5
v -3 0 3.5
v -3 0 2.5
v -3 1 3.5
v -3 1 2.5
v -2 6 0.5
v -2 6 -0.5
v -2 7 0.5
v -2 7 -0.5
v -1 0 2.5
v -1 0 1.5
v -1 1 2.5
v -1 1 1.5
v 1 3 2.5
v 1 3 1.5
v 1 4 2.5
v 1 4 1.5
v 1 6 0.5
v 1 6 -0.5
v 1 7 0.5
v 1 7 -0.5
v 1 9 1.5
v 1 9 0.5
v 1 10 1.5
v 1 10 0.5
v 2 0 4.5
v 2 0 2.5
v 2 1 4.5
v 2 1 2.5
v 2 5 -2.5
v 2 5 -3.5
v 2 6 -2.5
v 2 6 -3.5
v 2 8 -2.5
v 2 8 -3.5
v 3 0 -1.5
v 3 0 -3.5
v 3 1 2.5
v 3 1 1.5
v 3 1 -1.5
v 3 1 -3.5
v 3 2 -1.5
v 3 2 -3.5
v 3 3 2.5
v 3 3 1.5
v 3 3 0.5
v 3 3 -1.5
v 3 4 -1.5
v 3 4 -2.5
v 3 5 1.5
v 3 5 0.5
v 3 5 -1.5
v 3 5 -2.5
v 3 5 -3.5
v 3 6 0.5
v 3 6 -0.5
v 3 6 -1.5
v 3 6 -2.5
v 3 7 -0.5
v 3 7 -1.5
v 3 8 1.5
v 3 8 0.5
v 3 8 -0.5
v 3 8 -2.5
v 3 8 -3.5
v 3 9 1.5
v 3 9 0.5
v 3 10 0.5
v 3 10 -3.5
v 4 0 2.5
v 4 0 -1.5
v 4 0 -3.5
v 4 0 -4.5
v 4 1 2.5
v 4 1 1.5
v 4 1 -0.5
v 4 1 -1.5
v 4 1 -3.5
v 4 1 -4.5
v 4 3 1.5
v 4 3 0.5
v 4 3 -0.5
v 4 3 -1.5
v 4 4 -0.5
v 4 4 -1.5
v 4 5 0.5
v 4 5 -1.5
v 4 6 -0.5
v 4 6 -1.5
v 4 7 -0.5
v 4 7 -1.5
v 0 0 4.5
v 0 1 4.5
v 2 0 4.5
v 2 1 4.5
v -4 0 3.5
v -4 1 3.5
v -3 0 3.5
v -3 1 3.5
v -3 0 2.5
v -3 1 2.5
v -1 0 2.5
v -1 1 2.5
v 0 1 2.5
v 0 3 2.5
v 0 4 2.5
v 1 1 2.5
v 1 3 2.5
v 1 4 2.5
v 2 0 2.5
v 2 1 2.5
v 3 1 2.5
v 3 3 2.5
v 4 0 2.5
v 4 1 2.5
v -3 1 1.5
v -3 2 1.5
v -3 5 1.5
v -3 8 1.5
v -3 9 1.5
v -2 8 1.5
v -2 9 1.5
v -1 0 1.5
v -1 1 1.5
v -1 9 1.5
v -1 10 1.5
v 0 1 1.5
v 0 2 1.5
v 0 3 1.5
v 0 4 1.5
v 0 5 1.5
v 0 8 1.5
v 0 9 1.5
v 1 3 1.5
v 1 4 1.5
v 1 9 1.5
v 1 10 1.5
v 2 0 1.5
v 2 1 1.5
v 2 3 1.5
v 2 4 1.5
v 3 1 1.5
v 3 3 1.5
v 3 5 1.5
v 3 8 1.5
v 3 9 1.5
v 4 1 1.5
v 4 3 1.5
v -3 5 0.5
v -3 8 0.5
v -3 9 0.5
v -3 10 0.5
v -2 6 0.5
v -2 7 0.5
v -2 8 0.5
v -2 9 0.5
v -1 5 0.5
v -1 6 0.5
v -1 7 0.5
v -1 9 0.5
v -1 10 0.5
v 0 5 0.5
v 0 8 0.5
v 1 5 0.5
v 1 6 0.5
v 1 7 0.5
v 1 9 0.5
v 1 10 0.5
v 2 5 0.5
v 2 6 0.5
v 2 7 0.5
v 2 8 0.5
v 3 3 0.5
v 3 5 0.5
v 3 6 0.5
v 3 8 0.5
v 3 9 0.5
v 3 10 0.5
v 4 3 0.5
v 4 5 0.5
v -4 1 -0.5
v -4 3 -0.5
v -4 4 -0.5
v -4 5 -0.5
v -4 6 -0.5
v -4 7 -0.5
v -3 1 -0.5
v -3 2 -0.5
v -3 3 -0.5
v -3 4 -0.5
v -3 5 -0.5
v -3 6 -0.5
v -3 7 -0.5
v -2 6 -0.5
v -2 7 -0.5
v -1 6 -0.5
v -1 7 -0.5
v 1 6 -0.5
v 1 7 -0.5
v 2 6 -0.5
v 2 7 -0.5
v 3 6 -0.5
v 3 7 -0.5
v 4 6 -0.5
v 4 7 -0.5
v 3 0 -3.5
v 3 1 -3.5
v 4 0 -3.5
v 4 1 -3.5
v 0 0 3.5
v 0 1 3.5
v 1 0 3.5
v 1 1 3.5
v 1 0 2.5
v 1 1 2.5
v 2 0 2.5
v 2 1 2.5
v -4 1 -1.5
v -4 3 -1.5
v -4 4 -1.5
v -4 5 -1.5
v -4 6 -1.5
v -4 7 -1.5
v -3 1 -1.5
v -3 2 -1.5
v -3 3 -1.5
v -3 4 -1.5
v -3 5 -1.5
v -3 6 -1.5
v -3 7 -1.5
v 3 0 -1.5
v 3 1 -1.5
v 3 2 -1.5
v 3 3 -1.5
v 3 4 -1.5
v 3 5 -1.5
v 3 6 -1.5
v 3 7 -1.5
v 4 0 -1.5
v 4 1 -1.5
v 4 3 -1.5
v 4 4 -1.5
v 4 5 -1.5
v 4 6 -1.5
v 4 7 -1.5
v -4 0 -2.5
v -4 1 -2.5
v -3 0 -2.5
v -3 1 -2.5
v -3 5 -2.5
v -3 6 -2.5
v -3 8 -2.5
v -2 5 -2.5
v -2 6 -2.5
v -2 8 -2.5
v 2 5 -2.5
v 2 6 -2.5
v 2 8 -2.5
v 3 5 -2.5
v 3 6 -2.5
v 3 8 -2.5
v -3 0 -3.5
v -3 1 -3.5
v -3 2 -3.5
v -3 5 -3.5
v -3 8 -3.5
v -3 10 -3.5
v -2 5 -3.5
v -2 6 -3.5
v -2 8 -3.5
v 2 5 -3.5
v 2 6 -3.5
v 2 8 -3.5
v 3 0 -3.5
v 3 1 -3.5
v 3 2 -3.5
v 3 5 -3.5
v 3 8 -3.5
v 3 10 -3.5
v 3 0 -4.5
v 3 1 -4.5
v 4 0 -4.5
v 4 1 -4.5
v 0 0 4.5
v 2 0 4.5
v -4 0 3.5
v -3 0 3.5
v 0 0 3.5
v 1 0 3.5
v -3 0 2.5
v -1 0 2.5
v 1 0 2.5
v 2 0 2.5
v 4 0 2.5
v -1 0 1.5
v 2 0 1.5
v 3 0 -1.5
v 4 0 -1.5
v -4 0 -2.5
v -3 0 -2.5
v -3 0 -3.5
v 3 0 -3.5
v 4 0 -3.5
v 3 0 -4.5
v 4 0 -4.5
v 0 1 2.5
v 1 1 2.5
v 2 1 2.5
v 0 1 1.5
v 2 1 1.5
v -4 6 -0.5
v -3 6 -0.5
v 3 6 -0.5
v 4 6 -0.5
v -4 6 -1.5
v -3 6 -1.5
v 3 6 -1.5
v 4 6 -1.5
v -2 7 0.5
v -1 7 0.5
v 1 7 0.5
v 2 7 0.5
v -2 7 -0.5
v -1 7 -0.5
v 1 7 -0.5
v 2 7 -0.5
v -3 8 1.5
v -2 8 1.5
v 0 8 1.5
v 3 8 1.5
v -3 8 0.5
v -2 8 0.5
v 0 8 0.5
v 2 8 0.5
v 3 8 0.5
v -3 8 -2.5
v -2 8 -2.5
v 2 8 -2.5
v 3 8 -2.5
v -3 8 -3.5
v -2 8 -3.5
v 2 8 -3.5
v 3 8 -3.5
v 0 1 4.5
v 2 1 4.5
v -4 1 3.5
v -3 1 3.5
v 0 1 3.5
v 1 1 3.5
v -3 1 2.5
v -1 1 2.5
v 1 1 2.5
v 2 1 2.5
v 3 1 2.5
v 4 1 2.5
v -3 1 1.5
v -1 1 1.5
v 3 1 1.5
v 4 1 1.5
v -4 1 -0.5
v -3 1 -0.5
v -4 1 -1.5
v -3 1 -1.5
v -4 1 -2.5
v -3 1 -2.5
v 3 1 -3.5
v 4 1 -3.5
v 3 1 -4.5
v 4 1 -4.5
v 1 3 2.5
v 3 3 2.5
v 1 3 1.5
v 2 3 1.5
v 3 3 1.5
v 4 3 1.5
v 3 3 0.5
v 4 3 0.5
v 0 4 2.5
v 1 4 2.5
v 0 4 1.5
v 1 4 1.5
v -3 5 1.5
v 0 5 1.5
v 3 5 1.5
v -3 5 0.5
v -1 5 0.5
v 0 5 0.5
v 1 5 0.5
v 2 5 0.5
v 3 5 0.5
v 4 5 0.5
v -4 5 -0.5
v -3 5 -0.5
v -4 5 -1.5
v -3 5 -1.5
v 3 5 -1.5
v 4 5 -1.5
v -3 5 -2.5
v -2 5 -2.5
v 2 5 -2.5
v 3 5 -2.5
v -3 5 -3.5
v -2 5 -3.5
v 2 5 -3.5
v 3 5 -3.5
v -2 6 0.5
v -1 6 0.5
v 1 6 0.5
v 2 6 0.5
v -2 6 -0.5
v -1 6 -0.5
v 1 6 -0.5
v 2 6 -0.5
v -4 7 -0.5
v -3 7 -0.5
v 3 7 -0.5
v 4 7 -0.5
v -4 7 -1.5
v -3 7 -1.5
v 3 7 -1.5
v 4 7 -1.5
v -3 9 1.5
v -2 9 1.5
v -1 9 1.5
v 1 9 1.5
v 3 9 1.5
v -3 9 0.5
v -2 9 0.5
v -1 9 0.5
v 1 9 0.5
v 3 9 0.5
v -1 10 1.5
v 1 10 1.5
v -3 10 0.5
v -1 10 0.5
v 1 10 0.5
v 3 10 0.5
v -3 10 -3.5
v 3 10 -3.5

# faces
f 3/3/1 2/3/1 1/3/1
f 4/3/1 2/3/1 3/3/1
f 5/3/1 2/3/1 4/3/1
f 6/3/1 2/3/1 5/3/1
f 7/1/1 5/1/1 4/1/1
f 8/1/1 5/1/1 7/1/1
f 9/4/1 8/4/1 7/4/1
f 10/4/1 8/4/1 9/4/1
f 11/6/1 10/6/1 9/6/1
f 12/6/1 10/6/1 11/6/1
f 15/1/1 14/1/1 13/1/1
f 16/1/1 14/1/1 15/1/1
f 22/3/1 18/3/1 17/3/1
f 23/3/1 18/3/1 22/3/1
f 24/7/1 20/7/1 19/7/1
f 25/7/1 20/7/1 24/7/1
f 26/7/1 20/7/1 25/7/1
f 27/7/1 22/7/1 21/7/1
f 27/7/1 23/7/1 22/7/1
f 28/7/1 23/7/1 27/7/1
f 29/4/1 26/4/1 25/4/1
f 30/4/1 28/4/1 27/4/1
f 31/4/1 29/4/1 25/4/1
f 32/4/1 28/4/1 30/4/1
f 33/3/1 25/3/1 24/3/1
f 34/4/1 31/4/1 25/4/1
f 34/3/1 25/3/1 33/3/1
f 35/4/1 31/4/1 34/4/1
f 36/4/1 28/4/1 32/4/1
f 37/4/1 28/4/1 36/4/1
f 38/4/1 28/4/1 37/4/1
f 39/1/1 35/1/1 34/1/1
f 39/1/1 37/1/1 36/1/1
f 39/1/1 36/1/1 35/1/1
f 40/1/1 37/1/1 39/1/1
f 41/1/1 37/1/1 40/1/1
f 42/1/1 39/1/1 34/1/1
f 43/8/1 41/8/1 40/8/1
f 45/1/1 42/1/1 34/1/1
f 46/8/1 43/8/1 42/8/1
f 46/1/1 42/1/1 45/1/1
f 47/8/1 41/8/1 43/8/1
f 47/8/1 43/8/1 46/8/1
f 49/5/1 47/5/1 46/5/1
f 49/5/1 48/5/1 47/5/1
f 49/5/1 45/5/1 44/5/1
f 49/5/1 46/5/1 45/5/1
f 50/5/1 48/5/1 49/5/1
f 51/5/1 48/5/1 50/5/1
f 52/5/1 48/5/1 51/5/1
f 55/1/1 54/1/1 53/1/1
f 56/1/1 54/1/1 55/1/1
f 57/8/1 56/8/1 55/8/1
f 58/8/1 56/8/1 57/8/1
f 61/3/1 60/3/1 59/3/1
f 62/3/1 60/3/1 61/3/1
f 65/2/1 64/2/1 63/2/1
f 66/2/1 64/2/1 65/2/1
f 69/3/1 68/3/1 67/3/1
f 70/3/1 68/3/1 69/3/1
f 73/3/1 72/3/1 71/3/1
f 74/3/1 73/3/1 71/3/1
f 75/3/1 73/3/1 74/3/1
f 76/6/1 75/6/1 74/6/1
f 77/6/1 75/6/1 76/6/1
f 80/3/1 79/3/1 78/3/1
f 81/3/1 79/3/1 80/3/1
f 84/3/1 83/3/1 82/3/1
f 85/3/1 83/3/1 84/3/1
f 88/1/1 87/1/1 86/1/1
f 89/1/1 87/1/1 88/1/1
f 92/3/1 91/3/1 90/3/1
f 93/3/1 91/3/1 92/3/1
f 94/3/2 95/3/2 96/3/2
f 96/3/2 95/3/2 97/3/2
f 98/1/2 99/1/2 100/1/2
f 100/1/2 99/1/2 101/1/2
f 102/3/2 103/3/2 104/3/2
f 104/3/2 103/3/2 105/3/2
f 106/6/2 107/6/2 108/6/2
f 108/6/2 107/6/2 109/6/2
f 110/3/2 111/3/2 112/3/2
f 112/3/2 111/3/2 113/3/2
f 114/2/2 115/2/2 116/2/2
f 116/2/2 115/2/2 117/2/2
f 118/3/2 119/3/2 120/3/2
f 120/3/2 119/3/2 121/3/2
f 122/1/2 123/1/2 124/1/2
f 124/1/2 123/1/2 125/1/2
f 124/8/2 125/8/2 126/8/2
f 126/8/2 125/8/2 127/8/2
f 128/3/2 129/3/2 132/3/2
f 132/3/2 129/3/2 133/3/2
f 132/7/2 133/7/2 134/7/2
f 134/7/2 133/7/2 135/7/2
f 130/3/2 131/3/2 136/3/2
f 136/3/2 131/3/2 137/3/2
f 134/4/2 135/4/2 139/4/2
f 139/4/2 135/4/2 140/4/2
f 140/4/2 135/4/2 141/4/2
f 137/4/2 138/4/2 142/4/2
f 142/4/2 138/4/2 143/4/2
f 140/3/2 141/3/2 144/3/2
f 141/4/2 135/4/2 145/4/2
f 144/3/2 141/3/2 145/3/2
f 145/4/2 135/4/2 146/4/2
f 143/3/2 144/3/2 147/3/2
f 144/3/2 145/3/2 147/3/2
f 147/3/2 145/3/2 148/3/2
f 148/3/2 145/3/2 149/3/2
f 149/3/2 145/3/2 150/3/2
f 147/1/2 148/1/2 151/1/2
f 149/8/2 150/8/2 152/8/2
f 147/1/2 151/1/2 154/1/2
f 151/8/2 152/8/2 155/8/2
f 154/1/2 151/1/2 155/1/2
f 152/8/2 150/8/2 156/8/2
f 155/8/2 152/8/2 156/8/2
f 155/5/2 156/5/2 158/5/2
f 156/5/2 157/5/2 158/5/2
f 153/5/2 154/5/2 158/5/2
f 154/5/2 155/5/2 158/5/2
f 158/5/2 157/5/2 159/5/2
f 159/5/2 157/5/2 160/5/2
f 160/5/2 157/5/2 161/5/2
f 162/3/2 163/3/2 166/3/2
f 166/3/2 163/3/2 167/3/2
f 167/3/2 163/3/2 168/3/2
f 168/3/2 163/3/2 169/3/2
f 164/3/2 165/3/2 170/3/2
f 170/3/2 165/3/2 171/3/2
f 167/3/2 168/3/2 172/3/2
f 172/3/2 168/3/2 173/3/2
f 168/1/2 169/1/2 174/1/2
f 173/3/2 168/3/2 174/3/2
f 174/1/2 169/1/2 175/1/2
f 173/3/2 174/3/2 176/3/2
f 174/4/2 175/4/2 176/4/2
f 176/4/2 175/4/2 177/4/2
f 173/3/2 176/3/2 178/3/2
f 176/3/2 177/3/2 178/3/2
f 178/3/2 177/3/2 179/3/2
f 180/3/2 181/3/2 182/3/2
f 182/3/2 181/3/2 183/3/2
f 186/3/3 185/3/3 184/3/3
f 187/3/3 185/3/3 186/3/3
f 190/3/3 189/3/3 188/3/3
f 191/3/3 189/3/3 190/3/3
f 194/3/3 193/3/3 192/3/3
f 195/3/3 193/3/3 194/3/3
f 199/3/3 197/3/3 196/3/3
f 200/6/3 198/6/3 197/6/3
f 200/3/3 197/3/3 199/3/3
f 201/6/3 198/6/3 200/6/3
f 203/3/3 200/3/3 199/3/3
f 204/3/3 200/3/3 203/3/3
f 204/3/3 203/3/3 202/3/3
f 205/3/3 200/3/3 204/3/3
f 206/3/3 204/3/3 202/3/3
f 207/3/3 204/3/3 206/3/3
f 213/5/3 212/5/3 211/5/3
f 214/5/3 212/5/3 213/5/3
f 216/7/3 209/7/3 208/7/3
f 217/3/3 214/3/3 213/3/3
f 219/3/3 216/3/3 215/3/3
f 219/7/3 209/7/3 216/7/3
f 220/3/3 210/3/3 209/3/3
f 220/7/3 209/7/3 219/7/3
f 221/3/3 210/3/3 220/3/3
f 222/3/3 210/3/3 221/3/3
f 223/3/3 210/3/3 222/3/3
f 224/3/3 217/3/3 213/3/3
f 225/2/3 218/2/3 217/2/3
f 225/3/3 217/3/3 224/3/3
f 227/4/3 223/4/3 222/4/3
f 228/5/3 225/5/3 224/5/3
f 228/2/3 218/2/3 225/2/3
f 229/2/3 218/2/3 228/2/3
f 230/3/3 219/3/3 215/3/3
f 231/3/3 219/3/3 230/3/3
f 232/2/3 227/2/3 226/2/3
f 233/4/3 223/4/3 227/4/3
f 233/2/3 227/2/3 232/2/3
f 235/4/3 233/4/3 232/4/3
f 236/4/3 223/4/3 233/4/3
f 236/4/3 233/4/3 235/4/3
f 237/5/3 228/5/3 224/5/3
f 238/5/3 228/5/3 237/5/3
f 239/3/3 235/3/3 234/3/3
f 240/3/3 235/3/3 239/3/3
f 245/1/3 242/1/3 241/1/3
f 246/1/3 242/1/3 245/1/3
f 247/1/3 242/1/3 246/1/3
f 248/5/3 244/5/3 243/5/3
f 249/1/3 245/1/3 241/1/3
f 250/1/3 245/1/3 249/1/3
f 251/3/3 247/3/3 246/3/3
f 252/5/3 244/5/3 248/5/3
f 253/5/3 244/5/3 252/5/3
f 254/3/3 250/3/3 249/3/3
f 254/3/3 251/3/3 250/3/3
f 255/3/3 247/3/3 251/3/3
f 255/3/3 251/3/3 254/3/3
f 256/3/3 255/3/3 254/3/3
f 257/3/3 255/3/3 256/3/3
f 258/3/3 255/3/3 257/3/3
f 261/1/3 257/1/3 256/1/3
f 262/1/3 257/1/3 261/1/3
f 263/3/3 255/3/3 258/3/3
f 264/3/3 255/3/3 263/3/3
f 266/3/3 262/3/3 261/3/3
f 267/1/3 263/1/3 262/1/3
f 267/1/3 264/1/3 263/1/3
f 267/3/3 262/3/3 266/3/3
f 268/1/3 264/1/3 267/1/3
f 269/5/3 260/5/3 259/5/3
f 270/5/3 260/5/3 269/5/3
f 271/3/3 266/3/3 265/3/3
f 272/3/3 266/3/3 271/3/3
f 279/1/3 274/1/3 273/1/3
f 280/1/3 274/1/3 279/1/3
f 281/4/3 275/4/3 274/4/3
f 281/1/3 274/1/3 280/1/3
f 282/6/3 276/6/3 275/6/3
f 282/4/3 275/4/3 281/4/3
f 283/6/3 276/6/3 282/6/3
f 284/1/3 278/1/3 277/1/3
f 285/1/3 278/1/3 284/1/3
f 288/9/3 287/9/3 286/9/3
f 289/9/3 287/9/3 288/9/3
f 292/9/3 291/9/3 290/9/3
f 293/9/3 291/9/3 292/9/3
f 296/3/3 295/3/3 294/3/3
f 297/3/3 295/3/3 296/3/3
f 300/3/3 299/3/3 298/3/3
f 301/3/3 299/3/3 300/3/3
f 302/3/4 303/3/4 304/3/4
f 304/3/4 303/3/4 305/3/4
f 306/3/4 307/3/4 308/3/4
f 308/3/4 307/3/4 309/3/4
f 310/1/4 311/1/4 316/1/4
f 316/1/4 311/1/4 317/1/4
f 311/4/4 312/4/4 318/4/4
f 317/1/4 311/1/4 318/1/4
f 312/6/4 313/6/4 319/6/4
f 318/4/4 312/4/4 319/4/4
f 319/6/4 313/6/4 320/6/4
f 314/1/4 315/1/4 321/1/4
f 321/1/4 315/1/4 322/1/4
f 323/3/4 324/3/4 331/3/4
f 324/1/4 325/1/4 332/1/4
f 331/3/4 324/3/4 332/3/4
f 325/1/4 326/1/4 332/1/4
f 326/4/4 327/4/4 333/4/4
f 332/1/4 326/1/4 333/1/4
f 327/3/4 328/3/4 334/3/4
f 333/4/4 327/4/4 334/4/4
f 334/3/4 328/3/4 335/3/4
f 329/3/4 330/3/4 336/3/4
f 336/3/4 330/3/4 337/3/4
f 338/3/4 339/3/4 340/3/4
f 340/3/4 339/3/4 341/3/4
f 342/1/4 343/1/4 345/1/4
f 343/8/4 344/8/4 346/8/4
f 345/1/4 343/1/4 346/1/4
f 346/8/4 344/8/4 347/8/4
f 348/3/4 349/3/4 351/3/4
f 349/8/4 350/8/4 352/8/4
f 351/3/4 349/3/4 352/3/4
f 352/8/4 350/8/4 353/8/4
f 356/4/4 357/4/4 360/4/4
f 358/5/4 359/5/4 362/5/4
f 360/1/4 361/1/4 363/1/4
f 356/4/4 360/4/4 363/4/4
f 361/8/4 362/8/4 364/8/4
f 363/1/4 361/1/4 364/1/4
f 362/5/4 359/5/4 365/5/4
f 364/8/4 362/8/4 365/8/4
f 354/3/4 355/3/4 366/3/4
f 355/7/4 356/7/4 367/7/4
f 366/3/4 355/3/4 367/3/4
f 356/4/4 363/4/4 368/4/4
f 367/7/4 356/7/4 368/7/4
f 368/4/4 363/4/4 369/4/4
f 365/5/4 359/5/4 370/5/4
f 370/5/4 359/5/4 371/5/4
f 372/3/4 373/3/4 374/3/4
f 374/3/4 373/3/4 375/3/4
f 380/3/5 377/3/5 376/3/5
f 381/3/5 377/3/5 380/3/5
f 382/3/5 379/3/5 378/3/5
f 384/3/5 377/3/5 381/3/5
f 385/3/5 377/3/5 384/3/5
f 387/3/5 383/3/5 382/3/5
f 388/3/5 386/3/5 385/3/5
f 389/3/5 386/3/5 388/3/5
f 389/3/5 388/3/5 387/3/5
f 390/3/5 386/3/5 389/3/5
f 391/3/5 387/3/5 382/3/5
f 391/3/5 382/3/5 378/3/5
f 391/3/5 389/3/5 387/3/5
f 392/3/5 389/3/5 391/3/5
f 393/3/5 389/3/5 392/3/5
f 394/3/5 389/3/5 393/3/5
f 396/3/5 395/3/5 394/3/5
f 397/3/5 395/3/5 396/3/5
f 401/3/5 399/3/5 398/3/5
f 401/3/5 400/3/5 399/3/5
f 402/3/5 400/3/5 401/3/5
f 407/1/5 404/1/5 403/1/5
f 408/1/5 404/1/5 407/1/5
f 409/3/5 406/3/5 405/3/5
f 410/3/5 406/3/5 409/3/5
f 415/3/5 412/3/5 411/3/5
f 416/3/5 412/3/5 415/3/5
f 417/3/5 414/3/5 413/3/5
f 418/3/5 414/3/5 417/3/5
f 423/5/5 420/5/5 419/5/5
f 424/3/5 421/3/5 420/3/5
f 424/5/5 420/5/5 423/5/5
f 425/5/5 422/5/5 421/5/5
f 425/3/5 421/3/5 424/3/5
f 426/5/5 422/5/5 425/5/5
f 427/5/5 422/5/5 426/5/5
f 432/5/5 429/5/5 428/5/5
f 433/5/5 429/5/5 432/5/5
f 434/5/5 431/5/5 430/5/5
f 435/5/5 431/5/5 434/5/5
f 436/3/6 437/3/6 440/3/6
f 440/3/6 437/3/6 441/3/6
f 438/3/6 439/3/6 442/3/6
f 441/3/6 437/3/6 444/3/6
f 444/3/6 437/3/6 445/3/6
f 442/3/6 443/3/6 448/3/6
f 438/3/6 442/3/6 448/3/6
f 448/3/6 443/3/6 449/3/6
f 446/3/6 447/3/6 450/3/6
f 450/3/6 447/3/6 451/3/6
f 438/3/6 448/3/6 452/3/6
f 452/3/6 448/3/6 453/3/6
f 454/3/6 455/3/6 456/3/6
f 456/3/6 455/3/6 457/3/6
f 458/3/6 459/3/6 460/3/6
f 460/3/6 459/3/6 461/3/6
f 462/3/6 463/3/6 464/3/6
f 464/3/6 463/3/6 465/3/6
f 465/3/6 463/3/6 466/3/6
f 466/3/6 467/3/6 468/3/6
f 468/3/6 467/3/6 469/3/6
f 470/6/6 471/6/6 472/6/6
f 472/6/6 471/6/6 473/6/6
f 474/3/6 475/3/6 477/3/6
f 477/3/6 475/3/6 478/3/6
f 475/4/6 476/4/6 479/4/6
f 478/3/6 475/3/6 479/3/6
f 479/4/6 476/4/6 480/4/6
f 480/4/6 476/4/6 481/4/6
f 481/4/6 476/4/6 482/4/6
f 484/6/6 485/6/6 486/6/6
f 486/6/6 485/6/6 487/6/6
f 482/3/6 483/3/6 488/3/6
f 488/3/6 483/3/6 489/3/6
f 490/4/6 491/4/6 494/4/6
f 494/4/6 491/4/6 495/4/6
f 492/4/6 493/4/6 496/4/6
f 496/4/6 493/4/6 497/4/6
f 498/1/6 499/1/6 502/1/6
f 502/1/6 499/1/6 503/1/6
f 500/1/6 501/1/6 504/1/6
f 504/1/6 501/1/6 505/1/6
f 506/1/6 507/1/6 510/1/6
f 510/1/6 507/1/6 511/1/6
f 508/3/6 509/3/6 512/3/6
f 512/3/6 509/3/6 513/3/6
f 514/5/6 515/5/6 519/5/6
f 515/3/6 516/3/6 520/3/6
f 519/5/6 515/5/6 520/5/6
f 520/3/6 516/3/6 521/3/6
f 517/5/6 518/5/6 522/5/6
f 522/5/6 518/5/6 523/5/6
f 524/2/6 525/2/6 527/2/6
f 527/2/6 525/2/6 528/2/6
f 526/5/6 527/5/6 530/5/6
f 528/5/6 529/5/6 530/5/6
f 527/5/6 528/5/6 530/5/6
f 530/5/6 529/5/6 531/5/6
