# MagicaVoxel @ Ephtracy

# material
mtllib alien_engi2a.mtl
usemtl palette

# normals
vn -1 0 0
vn 1 0 0
vn 0 0 1
vn 0 0 -1
vn 0 -1 0
vn 0 1 0

# texcoords
vt 0.0449219 0.5
vt 0.587891 0.5
vt 0.615234 0.5
vt 0.958984 0.5
vt 0.986328 0.5
vt 0.990234 0.5
vt 0.994141 0.5

# verts
v -4 2 1
v -4 2 -0
v -4 5 1
v -4 5 -0
v -4 6 1
v -4 6 -0
v -3 1 1
v -3 1 -0
v -3 2 2
v -3 2 1
v -3 2 -0
v -3 2 -1
v -3 5 2
v -3 5 1
v -3 5 -0
v -3 5 -1
v -3 6 2
v -3 6 1
v -3 6 -0
v -3 6 -1
v -3 7 2
v -3 7 1
v -3 7 -1
v -3 8 1
v -3 8 -0
v -3 9 -0
v -3 9 -1
v -3 11 2
v -3 11 -1
v -2 0 1
v -2 0 -0
v -2 1 1
v -2 1 -0
v -2 6 1
v -2 6 -1
v -2 7 1
v -2 7 -1
v -2 7 -2
v -2 9 -1
v -2 10 -1
v -2 10 -2
v -2 11 -1
v -2 11 -2
v 1 0 1
v 1 0 -0
v 1 1 1
v 1 1 -0
v 1 2 1
v 1 2 -0
v -1 0 1
v -1 0 -0
v -1 1 1
v -1 1 -0
v -1 2 1
v -1 2 -0
v 2 0 1
v 2 0 -0
v 2 1 1
v 2 1 -0
v 2 6 1
v 2 6 -1
v 2 7 1
v 2 7 -1
v 2 7 -2
v 2 9 -1
v 2 10 -1
v 2 10 -2
v 2 11 -1
v 2 11 -2
v 3 1 1
v 3 1 -0
v 3 2 2
v 3 2 1
v 3 2 -0
v 3 2 -1
v 3 5 2
v 3 5 1
v 3 5 -0
v 3 5 -1
v 3 6 2
v 3 6 1
v 3 6 -0
v 3 6 -1
v 3 7 2
v 3 7 1
v 3 7 -1
v 3 8 1
v 3 8 -0
v 3 9 -0
v 3 9 -1
v 3 11 2
v 3 11 -1
v 4 2 1
v 4 2 -0
v 4 5 1
v 4 5 -0
v 4 6 1
v 4 6 -0
v -3 2 2
v -3 5 2
v -3 6 2
v -3 7 2
v -3 11 2
v -2 2 2
v -2 5 2
v -2 8 2
v -2 10 2
v -1 2 2
v -1 5 2
v -1 8 2
v -1 10 2
v 1 8 2
v 1 10 2
v 2 8 2
v 2 10 2
v 3 2 2
v 3 5 2
v 3 6 2
v 3 7 2
v 3 11 2
v -4 2 1
v -4 5 1
v -4 6 1
v -3 1 1
v -3 2 1
v -3 5 1
v -3 6 1
v -2 0 1
v -2 1 1
v -2 2 1
v -2 6 1
v -2 7 1
v -1 0 1
v -1 1 1
v -1 2 1
v 1 0 1
v 1 1 1
v 1 2 1
v 2 0 1
v 2 1 1
v 2 6 1
v 2 7 1
v 3 1 1
v 3 2 1
v 3 5 1
v 3 6 1
v 4 2 1
v 4 5 1
v 4 6 1
v -4 2 -0
v -4 5 -0
v -4 6 -0
v -3 1 -0
v -3 2 -0
v -3 5 -0
v -3 6 -0
v -2 0 -0
v -2 1 -0
v -1 0 -0
v -1 1 -0
v -1 2 -0
v 1 0 -0
v 1 1 -0
v 1 2 -0
v 2 0 -0
v 2 1 -0
v 3 1 -0
v 3 2 -0
v 3 5 -0
v 3 6 -0
v 4 2 -0
v 4 5 -0
v 4 6 -0
v -3 2 -1
v -3 5 -1
v -3 6 -1
v -3 7 -1
v -3 9 -1
v -3 11 -1
v -2 6 -1
v -2 7 -1
v -2 9 -1
v -2 10 -1
v -2 11 -1
v 2 6 -1
v 2 7 -1
v 2 9 -1
v 2 10 -1
v 2 11 -1
v 3 2 -1
v 3 5 -1
v 3 6 -1
v 3 7 -1
v 3 9 -1
v 3 11 -1
v -2 7 -2
v -2 10 -2
v -2 11 -2
v -1 10 -2
v -1 11 -2
v 1 10 -2
v 1 11 -2
v 2 7 -2
v 2 10 -2
v 2 11 -2
v -2 0 1
v -1 0 1
v 1 0 1
v 2 0 1
v -2 0 -0
v -1 0 -0
v 1 0 -0
v 2 0 -0
v -3 1 1
v -2 1 1
v 2 1 1
v 3 1 1
v -3 1 -0
v -2 1 -0
v 2 1 -0
v 3 1 -0
v -3 2 2
v -2 2 2
v -1 2 2
v 3 2 2
v -4 2 1
v -3 2 1
v -2 2 1
v -1 2 1
v 1 2 1
v 3 2 1
v 4 2 1
v -4 2 -0
v -3 2 -0
v -1 2 -0
v 1 2 -0
v 3 2 -0
v 4 2 -0
v -3 2 -1
v 3 2 -1
v -3 7 2
v 3 7 2
v -3 7 1
v -2 7 1
v 2 7 1
v 3 7 1
v -3 7 -1
v -2 7 -1
v 2 7 -1
v 3 7 -1
v -2 7 -2
v 2 7 -2
v -3 6 2
v 3 6 2
v -4 6 1
v -3 6 1
v -2 6 1
v 2 6 1
v 3 6 1
v 4 6 1
v -4 6 -0
v -3 6 -0
v 3 6 -0
v 4 6 -0
v -3 6 -1
v -2 6 -1
v 2 6 -1
v 3 6 -1
v -3 11 2
v 3 11 2
v -1 11 1
v 1 11 1
v -3 11 -1
v -2 11 -1
v 2 11 -1
v 3 11 -1
v -2 11 -2
v -1 11 -2
v 1 11 -2
v 2 11 -2

# faces
f 3/2/1 2/2/1 1/2/1
f 4/2/1 2/2/1 3/2/1
f 5/1/1 4/1/1 3/1/1
f 6/1/1 4/1/1 5/1/1
f 10/4/1 8/4/1 7/4/1
f 11/4/1 8/4/1 10/4/1
f 13/4/1 10/4/1 9/4/1
f 14/4/1 10/4/1 13/4/1
f 15/4/1 12/4/1 11/4/1
f 16/4/1 12/4/1 15/4/1
f 17/1/1 14/1/1 13/1/1
f 18/1/1 14/1/1 17/1/1
f 19/1/1 16/1/1 15/1/1
f 20/1/1 16/1/1 19/1/1
f 24/2/1 22/2/1 21/2/1
f 24/3/1 23/3/1 22/3/1
f 25/3/1 23/3/1 24/3/1
f 26/2/1 25/2/1 24/2/1
f 26/3/1 23/3/1 25/3/1
f 27/3/1 23/3/1 26/3/1
f 28/2/1 24/2/1 21/2/1
f 28/2/1 26/2/1 24/2/1
f 28/2/1 27/2/1 26/2/1
f 29/2/1 27/2/1 28/2/1
f 32/6/1 31/6/1 30/6/1
f 33/6/1 31/6/1 32/6/1
f 36/2/1 35/2/1 34/2/1
f 37/2/1 35/2/1 36/2/1
f 39/3/1 38/3/1 37/3/1
f 40/3/1 38/3/1 39/3/1
f 41/3/1 38/3/1 40/3/1
f 42/2/1 41/2/1 40/2/1
f 43/2/1 41/2/1 42/2/1
f 46/6/1 45/6/1 44/6/1
f 47/6/1 45/6/1 46/6/1
f 48/4/1 47/4/1 46/4/1
f 49/4/1 47/4/1 48/4/1
f 50/6/2 51/6/2 52/6/2
f 52/6/2 51/6/2 53/6/2
f 52/4/2 53/4/2 54/4/2
f 54/4/2 53/4/2 55/4/2
f 56/6/2 57/6/2 58/6/2
f 58/6/2 57/6/2 59/6/2
f 60/2/2 61/2/2 62/2/2
f 62/2/2 61/2/2 63/2/2
f 63/3/2 64/3/2 65/3/2
f 65/3/2 64/3/2 66/3/2
f 66/3/2 64/3/2 67/3/2
f 66/2/2 67/2/2 68/2/2
f 68/2/2 67/2/2 69/2/2
f 70/4/2 71/4/2 73/4/2
f 73/4/2 71/4/2 74/4/2
f 72/4/2 73/4/2 76/4/2
f 76/4/2 73/4/2 77/4/2
f 74/4/2 75/4/2 78/4/2
f 78/4/2 75/4/2 79/4/2
f 76/1/2 77/1/2 80/1/2
f 80/1/2 77/1/2 81/1/2
f 78/1/2 79/1/2 82/1/2
f 82/1/2 79/1/2 83/1/2
f 84/2/2 85/2/2 87/2/2
f 85/3/2 86/3/2 87/3/2
f 87/3/2 86/3/2 88/3/2
f 87/2/2 88/2/2 89/2/2
f 88/3/2 86/3/2 89/3/2
f 89/3/2 86/3/2 90/3/2
f 84/2/2 87/2/2 91/2/2
f 87/2/2 89/2/2 91/2/2
f 89/2/2 90/2/2 91/2/2
f 91/2/2 90/2/2 92/2/2
f 93/2/2 94/2/2 95/2/2
f 95/2/2 94/2/2 96/2/2
f 95/1/2 96/1/2 97/1/2
f 97/1/2 96/1/2 98/1/2
f 104/4/3 100/4/3 99/4/3
f 105/1/3 101/1/3 100/1/3
f 105/4/3 100/4/3 104/4/3
f 106/2/3 103/2/3 102/2/3
f 107/2/3 103/2/3 106/2/3
f 108/1/3 105/1/3 104/1/3
f 109/1/3 101/1/3 105/1/3
f 109/1/3 105/1/3 108/1/3
f 110/2/3 106/2/3 102/2/3
f 110/7/3 107/7/3 106/7/3
f 111/2/3 103/2/3 107/2/3
f 111/7/3 107/7/3 110/7/3
f 112/2/3 110/2/3 102/2/3
f 112/2/3 111/2/3 110/2/3
f 113/2/3 103/2/3 111/2/3
f 113/2/3 111/2/3 112/2/3
f 114/2/3 112/2/3 102/2/3
f 114/7/3 113/7/3 112/7/3
f 115/2/3 103/2/3 113/2/3
f 115/7/3 113/7/3 114/7/3
f 116/4/3 109/4/3 108/4/3
f 117/1/3 101/1/3 109/1/3
f 117/4/3 109/4/3 116/4/3
f 118/1/3 101/1/3 117/1/3
f 119/2/3 114/2/3 102/2/3
f 119/2/3 115/2/3 114/2/3
f 120/2/3 103/2/3 115/2/3
f 120/2/3 115/2/3 119/2/3
f 125/2/3 122/2/3 121/2/3
f 126/1/3 123/1/3 122/1/3
f 126/2/3 122/2/3 125/2/3
f 127/1/3 123/1/3 126/1/3
f 129/4/3 125/4/3 124/4/3
f 130/4/3 125/4/3 129/4/3
f 133/6/3 129/6/3 128/6/3
f 134/4/3 130/4/3 129/4/3
f 134/6/3 129/6/3 133/6/3
f 135/4/3 130/4/3 134/4/3
f 139/6/3 137/6/3 136/6/3
f 140/4/3 138/4/3 137/4/3
f 140/6/3 137/6/3 139/6/3
f 141/2/3 132/2/3 131/2/3
f 142/2/3 132/2/3 141/2/3
f 143/4/3 138/4/3 140/4/3
f 144/4/3 138/4/3 143/4/3
f 147/2/3 145/2/3 144/2/3
f 148/1/3 146/1/3 145/1/3
f 148/2/3 145/2/3 147/2/3
f 149/1/3 146/1/3 148/1/3
f 150/2/4 151/2/4 154/2/4
f 151/1/4 152/1/4 155/1/4
f 154/2/4 151/2/4 155/2/4
f 155/1/4 152/1/4 156/1/4
f 153/4/4 154/4/4 158/4/4
f 157/6/4 158/6/4 159/6/4
f 158/4/4 154/4/4 160/4/4
f 159/6/4 158/6/4 160/6/4
f 160/4/4 154/4/4 161/4/4
f 162/6/4 163/6/4 165/6/4
f 163/4/4 164/4/4 166/4/4
f 165/6/4 163/6/4 166/6/4
f 166/4/4 164/4/4 167/4/4
f 167/4/4 164/4/4 168/4/4
f 168/2/4 169/2/4 171/2/4
f 169/1/4 170/1/4 172/1/4
f 171/2/4 169/2/4 172/2/4
f 172/1/4 170/1/4 173/1/4
f 175/1/4 176/1/4 180/1/4
f 177/3/4 178/3/4 181/3/4
f 178/2/4 179/2/4 182/2/4
f 181/3/4 178/3/4 182/3/4
f 182/2/4 179/2/4 183/2/4
f 183/2/4 179/2/4 184/2/4
f 180/2/4 181/2/4 185/2/4
f 175/1/4 180/1/4 185/1/4
f 185/2/4 181/2/4 186/2/4
f 174/4/4 175/4/4 190/4/4
f 175/1/4 185/1/4 191/1/4
f 190/4/4 175/4/4 191/4/4
f 191/1/4 185/1/4 192/1/4
f 186/3/4 187/3/4 193/3/4
f 188/2/4 189/2/4 194/2/4
f 193/3/4 187/3/4 194/3/4
f 187/2/4 188/2/4 194/2/4
f 194/2/4 189/2/4 195/2/4
f 196/3/4 197/3/4 199/3/4
f 197/2/4 198/2/4 199/2/4
f 199/2/4 198/2/4 200/2/4
f 196/3/4 199/3/4 201/3/4
f 199/3/4 200/3/4 201/3/4
f 201/3/4 200/3/4 202/3/4
f 196/3/4 201/3/4 203/3/4
f 201/2/4 202/2/4 204/2/4
f 203/3/4 201/3/4 204/3/4
f 204/2/4 202/2/4 205/2/4
f 210/6/5 207/6/5 206/6/5
f 211/6/5 207/6/5 210/6/5
f 212/6/5 209/6/5 208/6/5
f 213/6/5 209/6/5 212/6/5
f 218/4/5 215/4/5 214/4/5
f 219/4/5 215/4/5 218/4/5
f 220/4/5 217/4/5 216/4/5
f 221/4/5 217/4/5 220/4/5
f 227/4/5 223/4/5 222/4/5
f 228/1/5 224/1/5 223/1/5
f 228/4/5 223/4/5 227/4/5
f 229/4/5 225/4/5 224/4/5
f 229/1/5 224/1/5 228/1/5
f 230/4/5 225/4/5 229/4/5
f 231/4/5 225/4/5 230/4/5
f 233/2/5 227/2/5 226/2/5
f 234/2/5 227/2/5 233/2/5
f 235/6/5 230/6/5 229/6/5
f 236/6/5 230/6/5 235/6/5
f 237/2/5 232/2/5 231/2/5
f 238/2/5 232/2/5 237/2/5
f 239/4/5 236/4/5 235/4/5
f 239/4/5 237/4/5 236/4/5
f 239/4/5 235/4/5 234/4/5
f 240/4/5 237/4/5 239/4/5
f 243/2/5 242/2/5 241/2/5
f 244/2/5 242/2/5 243/2/5
f 245/2/5 242/2/5 244/2/5
f 246/2/5 242/2/5 245/2/5
f 247/3/5 244/3/5 243/3/5
f 248/3/5 244/3/5 247/3/5
f 249/3/5 246/3/5 245/3/5
f 250/3/5 246/3/5 249/3/5
f 251/3/5 249/3/5 248/3/5
f 252/3/5 249/3/5 251/3/5
f 253/1/6 254/1/6 256/1/6
f 256/1/6 254/1/6 257/1/6
f 257/1/6 254/1/6 258/1/6
f 258/1/6 254/1/6 259/1/6
f 255/1/6 256/1/6 261/1/6
f 256/1/6 257/1/6 261/1/6
f 261/1/6 257/1/6 262/1/6
f 259/1/6 260/1/6 263/1/6
f 258/1/6 259/1/6 263/1/6
f 263/1/6 260/1/6 264/1/6
f 262/1/6 257/1/6 265/1/6
f 265/1/6 257/1/6 266/1/6
f 258/1/6 263/1/6 267/1/6
f 267/1/6 263/1/6 268/1/6
f 269/2/6 270/2/6 271/2/6
f 271/2/6 270/2/6 272/2/6
f 269/2/6 271/2/6 273/2/6
f 273/2/6 271/2/6 274/2/6
f 272/2/6 270/2/6 275/2/6
f 275/2/6 270/2/6 276/2/6
f 274/2/6 271/2/6 277/2/6
f 271/3/6 272/3/6 278/3/6
f 277/2/6 271/2/6 278/2/6
f 272/2/6 275/2/6 279/2/6
f 278/3/6 272/3/6 279/3/6
f 279/2/6 275/2/6 280/2/6
