# MagicaVoxel @ Ephtracy

# material
mtllib base_street1.mtl
usemtl palette

# normals
vn -1 0 0
vn 1 0 0
vn 0 0 1
vn 0 0 -1
vn 0 -1 0
vn 0 1 0

# texcoords
vt 0.0214844 0.5
vt 0.767578 0.5
vt 0.958984 0.5
vt 0.974609 0.5

# verts
v -25 0 25
v -25 0 11
v -25 0 10
v -25 0 9
v -25 0 -9
v -25 0 -10
v -25 0 -11
v -25 0 -25
v -25 1 25
v -25 1 11
v -25 1 10
v -25 1 9
v -25 1 -9
v -25 1 -10
v -25 1 -11
v -25 1 -25
v 25 0 25
v 25 0 11
v 25 0 10
v 25 0 9
v 25 0 -9
v 25 0 -10
v 25 0 -11
v 25 0 -25
v 25 1 25
v 25 1 11
v 25 1 10
v 25 1 9
v 25 1 -9
v 25 1 -10
v 25 1 -11
v 25 1 -25
v -25 0 25
v -25 1 25
v 25 0 25
v 25 1 25
v -25 0 -25
v -25 1 -25
v 25 0 -25
v 25 1 -25
v -25 0 25
v 25 0 25
v -25 0 11
v 25 0 11
v -25 0 10
v 25 0 10
v -25 0 9
v 25 0 9
v -22 0 1
v -16 0 1
v -10 0 1
v -4 0 1
v 3 0 1
v 10 0 1
v 16 0 1
v 22 0 1
v -22 0 -1
v -16 0 -1
v -10 0 -1
v -4 0 -1
v 3 0 -1
v 10 0 -1
v 16 0 -1
v 22 0 -1
v -25 0 -9
v 25 0 -9
v -25 0 -10
v 25 0 -10
v -25 0 -11
v 25 0 -11
v -25 0 -25
v 25 0 -25
v -25 1 25
v 25 1 25
v -25 1 11
v 25 1 11
v -25 1 10
v 25 1 10
v -25 1 9
v 25 1 9
v -22 1 1
v -16 1 1
v -10 1 1
v -4 1 1
v 3 1 1
v 10 1 1
v 16 1 1
v 22 1 1
v -22 1 -1
v -16 1 -1
v -10 1 -1
v -4 1 -1
v 3 1 -1
v 10 1 -1
v 16 1 -1
v 22 1 -1
v -25 1 -9
v 25 1 -9
v -25 1 -10
v 25 1 -10
v -25 1 -11
v 25 1 -11
v -25 1 -25
v 25 1 -25

# faces
f 9/2/1 2/2/1 1/2/1
f 10/4/1 3/4/1 2/4/1
f 10/2/1 2/2/1 9/2/1
f 11/3/1 4/3/1 3/3/1
f 11/4/1 3/4/1 10/4/1
f 12/4/1 5/4/1 4/4/1
f 12/3/1 4/3/1 11/3/1
f 13/3/1 6/3/1 5/3/1
f 13/4/1 5/4/1 12/4/1
f 14/4/1 7/4/1 6/4/1
f 14/3/1 6/3/1 13/3/1
f 15/2/1 8/2/1 7/2/1
f 15/4/1 7/4/1 14/4/1
f 16/2/1 8/2/1 15/2/1
f 17/2/2 18/2/2 25/2/2
f 18/4/2 19/4/2 26/4/2
f 25/2/2 18/2/2 26/2/2
f 19/3/2 20/3/2 27/3/2
f 26/4/2 19/4/2 27/4/2
f 20/4/2 21/4/2 28/4/2
f 27/3/2 20/3/2 28/3/2
f 21/3/2 22/3/2 29/3/2
f 28/4/2 21/4/2 29/4/2
f 22/4/2 23/4/2 30/4/2
f 29/3/2 22/3/2 30/3/2
f 23/2/2 24/2/2 31/2/2
f 30/4/2 23/4/2 31/4/2
f 31/2/2 24/2/2 32/2/2
f 35/2/3 34/2/3 33/2/3
f 36/2/3 34/2/3 35/2/3
f 37/2/4 38/2/4 39/2/4
f 39/2/4 38/2/4 40/2/4
f 43/2/5 42/2/5 41/2/5
f 44/2/5 42/2/5 43/2/5
f 45/4/5 44/4/5 43/4/5
f 46/4/5 44/4/5 45/4/5
f 47/3/5 46/3/5 45/3/5
f 48/3/5 46/3/5 47/3/5
f 49/4/5 48/4/5 47/4/5
f 50/4/5 48/4/5 49/4/5
f 51/4/5 48/4/5 50/4/5
f 52/4/5 48/4/5 51/4/5
f 53/4/5 48/4/5 52/4/5
f 54/4/5 48/4/5 53/4/5
f 55/4/5 48/4/5 54/4/5
f 56/4/5 48/4/5 55/4/5
f 57/4/5 49/4/5 47/4/5
f 57/1/5 50/1/5 49/1/5
f 58/4/5 51/4/5 50/4/5
f 58/1/5 50/1/5 57/1/5
f 59/1/5 52/1/5 51/1/5
f 59/4/5 51/4/5 58/4/5
f 60/4/5 53/4/5 52/4/5
f 60/1/5 52/1/5 59/1/5
f 61/1/5 54/1/5 53/1/5
f 61/4/5 53/4/5 60/4/5
f 62/4/5 55/4/5 54/4/5
f 62/1/5 54/1/5 61/1/5
f 63/1/5 56/1/5 55/1/5
f 63/4/5 55/4/5 62/4/5
f 64/4/5 48/4/5 56/4/5
f 64/1/5 56/1/5 63/1/5
f 65/4/5 63/4/5 62/4/5
f 65/4/5 62/4/5 61/4/5
f 65/4/5 64/4/5 63/4/5
f 65/4/5 61/4/5 60/4/5
f 65/4/5 60/4/5 59/4/5
f 65/4/5 59/4/5 58/4/5
f 65/4/5 58/4/5 57/4/5
f 65/4/5 57/4/5 47/4/5
f 66/4/5 48/4/5 64/4/5
f 66/4/5 64/4/5 65/4/5
f 67/3/5 66/3/5 65/3/5
f 68/3/5 66/3/5 67/3/5
f 69/4/5 68/4/5 67/4/5
f 70/4/5 68/4/5 69/4/5
f 71/2/5 70/2/5 69/2/5
f 72/2/5 70/2/5 71/2/5
f 73/2/6 74/2/6 75/2/6
f 75/2/6 74/2/6 76/2/6
f 75/4/6 76/4/6 77/4/6
f 77/4/6 76/4/6 78/4/6
f 77/3/6 78/3/6 79/3/6
f 79/3/6 78/3/6 80/3/6
f 79/4/6 80/4/6 81/4/6
f 81/4/6 80/4/6 82/4/6
f 82/4/6 80/4/6 83/4/6
f 83/4/6 80/4/6 84/4/6
f 84/4/6 80/4/6 85/4/6
f 85/4/6 80/4/6 86/4/6
f 86/4/6 80/4/6 87/4/6
f 87/4/6 80/4/6 88/4/6
f 79/4/6 81/4/6 89/4/6
f 81/1/6 82/1/6 89/1/6
f 82/4/6 83/4/6 90/4/6
f 89/1/6 82/1/6 90/1/6
f 83/1/6 84/1/6 91/1/6
f 90/4/6 83/4/6 91/4/6
f 84/4/6 85/4/6 92/4/6
f 91/1/6 84/1/6 92/1/6
f 85/1/6 86/1/6 93/1/6
f 92/4/6 85/4/6 93/4/6
f 86/4/6 87/4/6 94/4/6
f 93/1/6 86/1/6 94/1/6
f 87/1/6 88/1/6 95/1/6
f 94/4/6 87/4/6 95/4/6
f 88/4/6 80/4/6 96/4/6
f 95/1/6 88/1/6 96/1/6
f 94/4/6 95/4/6 97/4/6
f 93/4/6 94/4/6 97/4/6
f 95/4/6 96/4/6 97/4/6
f 92/4/6 93/4/6 97/4/6
f 91/4/6 92/4/6 97/4/6
f 90/4/6 91/4/6 97/4/6
f 89/4/6 90/4/6 97/4/6
f 79/4/6 89/4/6 97/4/6
f 96/4/6 80/4/6 98/4/6
f 97/4/6 96/4/6 98/4/6
f 97/3/6 98/3/6 99/3/6
f 99/3/6 98/3/6 100/3/6
f 99/4/6 100/4/6 101/4/6
f 101/4/6 100/4/6 102/4/6
f 101/2/6 102/2/6 103/2/6
f 103/2/6 102/2/6 104/2/6
