# MagicaVoxel @ Ephtracy

# material
mtllib bld_store12.mtl
usemtl palette

# normals
vn -1 0 0
vn 1 0 0
vn 0 0 1
vn 0 0 -1
vn 0 -1 0
vn 0 1 0

# texcoords
vt 0.142578 0.5
vt 0.201172 0.5
vt 0.341797 0.5
vt 0.369141 0.5
vt 0.373047 0.5
vt 0.962891 0.5
vt 0.966797 0.5
vt 0.970703 0.5
vt 0.974609 0.5
vt 0.978516 0.5
vt 0.982422 0.5
vt 0.990234 0.5

# verts
v -32 0 30
v -32 0 -32
v -32 15 32
v -32 15 30
v -32 15 29
v -32 15 28
v -32 17 32
v -32 17 29
v -32 23 28
v -32 23 -32
v -32 24 29
v -32 24 28
v -27 7 21
v -27 7 20
v -27 8 21
v -27 8 20
v -13 0 30
v -13 0 20
v -13 3 29
v -13 3 20
v -13 4 29
v -13 4 21
v -13 4 20
v -13 14 29
v -13 14 21
v -13 15 30
v -13 15 29
v -13 15 21
v -13 15 20
v -12 3 31
v -12 3 30
v -12 4 31
v -12 4 30
v -12 8 31
v -12 8 30
v -12 14 31
v -12 14 30
v 3 10 31
v 3 10 30
v 3 14 31
v 3 14 30
v 18 10 31
v 18 10 30
v 18 14 31
v 18 14 30
v 31 22 27
v 31 22 -31
v 31 23 27
v 31 23 -31
v -31 0 30
v -31 0 20
v -31 15 30
v -31 15 20
v -31 22 27
v -31 22 -31
v -31 23 27
v -31 23 -31
v -17 7 21
v -17 7 20
v -17 8 21
v -17 8 20
v 2 8 31
v 2 8 30
v 2 14 31
v 2 14 30
v 17 10 31
v 17 10 30
v 17 14 31
v 17 14 30
v 31 3 31
v 31 3 30
v 31 4 31
v 31 4 30
v 31 10 31
v 31 10 30
v 31 14 31
v 31 14 30
v 32 0 30
v 32 0 -32
v 32 15 32
v 32 15 30
v 32 15 29
v 32 17 32
v 32 17 29
v 32 17 28
v 32 23 28
v 32 23 -32
v 32 24 29
v 32 24 28
v -32 15 32
v -32 17 32
v 32 15 32
v 32 17 32
v -12 3 31
v -12 4 31
v -12 8 31
v -12 14 31
v 2 8 31
v 2 14 31
v 3 10 31
v 3 14 31
v 17 10 31
v 17 14 31
v 18 10 31
v 18 14 31
v 31 3 31
v 31 4 31
v 31 10 31
v 31 14 31
v -32 0 30
v -32 15 30
v -31 0 30
v -31 15 30
v -13 0 30
v -13 15 30
v -12 3 30
v -12 4 30
v -12 8 30
v -12 14 30
v -12 15 30
v 2 4 30
v 2 8 30
v 2 14 30
v 3 4 30
v 3 10 30
v 3 14 30
v 17 4 30
v 17 10 30
v 17 14 30
v 18 4 30
v 18 10 30
v 18 14 30
v 31 3 30
v 31 4 30
v 31 10 30
v 31 14 30
v 31 15 30
v 32 0 30
v 32 15 30
v -32 17 29
v -32 24 29
v -31 17 29
v -31 23 29
v -30 18 29
v -30 22 29
v -28 19 29
v -28 21 29
v -27 18 29
v -27 19 29
v -27 21 29
v -27 22 29
v -26 18 29
v -26 22 29
v -24 18 29
v -24 22 29
v -23 18 29
v -23 22 29
v -21 18 29
v -21 20 29
v -20 20 29
v -20 22 29
v -19 18 29
v -19 22 29
v -17 18 29
v -17 20 29
v -16 20 29
v -16 22 29
v -15 18 29
v -15 22 29
v -13 19 29
v -13 21 29
v -12 18 29
v -12 19 29
v -12 21 29
v -12 22 29
v -11 18 29
v -11 22 29
v -9 19 29
v -9 21 29
v -8 18 29
v -8 19 29
v -8 21 29
v -8 22 29
v 8 18 29
v 8 19 29
v 8 21 29
v 8 22 29
v 9 19 29
v 9 21 29
v 11 18 29
v 11 22 29
v 12 18 29
v 12 19 29
v 12 21 29
v 12 22 29
v 13 19 29
v 13 21 29
v 15 18 29
v 15 22 29
v 16 20 29
v 16 22 29
v 17 18 29
v 17 20 29
v 19 18 29
v 19 22 29
v 20 20 29
v 20 22 29
v 21 18 29
v 21 20 29
v 23 18 29
v 23 22 29
v 24 18 29
v 24 22 29
v 26 18 29
v 26 22 29
v 27 18 29
v 27 19 29
v 27 21 29
v 27 22 29
v 28 19 29
v 28 21 29
v 30 18 29
v 30 22 29
v 31 17 29
v 31 23 29
v 32 17 29
v 32 24 29
v -27 7 21
v -27 8 21
v -17 7 21
v -17 8 21
v -31 0 20
v -31 15 20
v -28 0 20
v -28 15 20
v -27 0 20
v -27 1 20
v -27 7 20
v -27 8 20
v -27 14 20
v -26 2 20
v -26 6 20
v -26 9 20
v -26 13 20
v -24 11 20
v -24 12 20
v -20 11 20
v -20 12 20
v -18 2 20
v -18 6 20
v -18 9 20
v -18 13 20
v -17 0 20
v -17 1 20
v -17 7 20
v -17 8 20
v -17 14 20
v -16 0 20
v -16 15 20
v -13 0 20
v -13 3 20
v -13 4 20
v -13 15 20
v -31 22 -31
v -31 23 -31
v 31 22 -31
v 31 23 -31
v -32 23 28
v -32 24 28
v 32 23 28
v 32 24 28
v -31 22 27
v -31 23 27
v 31 22 27
v 31 23 27
v -32 0 -32
v -32 23 -32
v 32 0 -32
v 32 23 -32
v -32 0 30
v -31 0 30
v -13 0 30
v 32 0 30
v -12 0 29
v 5 0 29
v 9 0 29
v 31 0 29
v -12 0 28
v 5 0 28
v 9 0 28
v 31 0 28
v -31 0 20
v -28 0 20
v -27 0 20
v -17 0 20
v -16 0 20
v -13 0 20
v -28 0 19
v -27 0 19
v -17 0 19
v -16 0 19
v -32 0 -32
v 32 0 -32
v -12 3 31
v 31 3 31
v -12 3 30
v 31 3 30
v -27 7 21
v -17 7 21
v -27 7 20
v -17 7 20
v -12 8 31
v 2 8 31
v -12 8 30
v 2 8 30
v 3 10 31
v 17 10 31
v 18 10 31
v 31 10 31
v 3 10 30
v 17 10 30
v 18 10 30
v 31 10 30
v -32 15 32
v 32 15 32
v -32 15 30
v -31 15 30
v -13 15 30
v -12 15 30
v 31 15 30
v 32 15 30
v -13 15 29
v -13 15 21
v -31 15 20
v -28 15 20
v -16 15 20
v -13 15 20
v -12 4 31
v 31 4 31
v -12 4 30
v 2 4 30
v 3 4 30
v 17 4 30
v 18 4 30
v 31 4 30
v -27 8 21
v -17 8 21
v -27 8 20
v -17 8 20
v -12 14 31
v 2 14 31
v 3 14 31
v 17 14 31
v 18 14 31
v 31 14 31
v -12 14 30
v 2 14 30
v 3 14 30
v 17 14 30
v 18 14 30
v 31 14 30
v -32 17 32
v 32 17 32
v -32 17 29
v -31 17 29
v 31 17 29
v 32 17 29
v -31 22 27
v 31 22 27
v -31 22 -31
v 31 22 -31
v -32 23 28
v 32 23 28
v -31 23 27
v 31 23 27
v -31 23 -31
v 31 23 -31
v -32 23 -32
v 32 23 -32
v -32 24 29
v 32 24 29
v -32 24 28
v 32 24 28

# faces
f 4/9/1 2/9/1 1/9/1
f 5/9/1 2/9/1 4/9/1
f 6/9/1 2/9/1 5/9/1
f 7/11/1 4/11/1 3/11/1
f 7/11/1 5/11/1 4/11/1
f 8/12/1 6/12/1 5/12/1
f 8/11/1 5/11/1 7/11/1
f 9/9/1 2/9/1 6/9/1
f 9/12/1 6/12/1 8/12/1
f 10/9/1 2/9/1 9/9/1
f 11/12/1 9/12/1 8/12/1
f 12/12/1 9/12/1 11/12/1
f 15/8/1 14/8/1 13/8/1
f 16/8/1 14/8/1 15/8/1
f 19/9/1 18/9/1 17/9/1
f 20/9/1 18/9/1 19/9/1
f 21/9/1 19/9/1 17/9/1
f 21/8/1 20/8/1 19/8/1
f 22/8/1 20/8/1 21/8/1
f 23/8/1 20/8/1 22/8/1
f 24/9/1 21/9/1 17/9/1
f 24/1/1 22/1/1 21/1/1
f 25/9/1 23/9/1 22/9/1
f 25/1/1 22/1/1 24/1/1
f 26/9/1 24/9/1 17/9/1
f 27/8/1 25/8/1 24/8/1
f 27/9/1 24/9/1 26/9/1
f 28/9/1 23/9/1 25/9/1
f 28/8/1 25/8/1 27/8/1
f 29/9/1 23/9/1 28/9/1
f 32/8/1 31/8/1 30/8/1
f 33/8/1 31/8/1 32/8/1
f 36/4/1 35/4/1 34/4/1
f 37/4/1 35/4/1 36/4/1
f 40/4/1 39/4/1 38/4/1
f 41/4/1 39/4/1 40/4/1
f 44/4/1 43/4/1 42/4/1
f 45/4/1 43/4/1 44/4/1
f 48/9/1 47/9/1 46/9/1
f 49/9/1 47/9/1 48/9/1
f 50/9/2 51/9/2 52/9/2
f 52/9/2 51/9/2 53/9/2
f 54/9/2 55/9/2 56/9/2
f 56/9/2 55/9/2 57/9/2
f 58/8/2 59/8/2 60/8/2
f 60/8/2 59/8/2 61/8/2
f 62/4/2 63/4/2 64/4/2
f 64/4/2 63/4/2 65/4/2
f 66/4/2 67/4/2 68/4/2
f 68/4/2 67/4/2 69/4/2
f 70/8/2 71/8/2 72/8/2
f 72/8/2 71/8/2 73/8/2
f 74/4/2 75/4/2 76/4/2
f 76/4/2 75/4/2 77/4/2
f 78/9/2 79/9/2 81/9/2
f 81/9/2 79/9/2 82/9/2
f 80/11/2 81/11/2 83/11/2
f 81/11/2 82/11/2 83/11/2
f 82/9/2 79/9/2 84/9/2
f 83/11/2 82/11/2 84/11/2
f 84/9/2 79/9/2 85/9/2
f 85/9/2 79/9/2 86/9/2
f 84/12/2 85/12/2 86/12/2
f 86/9/2 79/9/2 87/9/2
f 84/12/2 86/12/2 88/12/2
f 88/12/2 86/12/2 89/12/2
f 92/11/3 91/11/3 90/11/3
f 93/11/3 91/11/3 92/11/3
f 98/4/3 97/4/3 96/4/3
f 99/4/3 97/4/3 98/4/3
f 102/4/3 101/4/3 100/4/3
f 103/4/3 101/4/3 102/4/3
f 106/8/3 95/8/3 94/8/3
f 107/8/3 95/8/3 106/8/3
f 108/4/3 105/4/3 104/4/3
f 109/4/3 105/4/3 108/4/3
f 112/9/3 111/9/3 110/9/3
f 113/9/3 111/9/3 112/9/3
f 116/9/3 115/9/3 114/9/3
f 117/9/3 115/9/3 116/9/3
f 118/9/3 115/9/3 117/9/3
f 119/9/3 115/9/3 118/9/3
f 120/9/3 115/9/3 119/9/3
f 121/1/3 118/1/3 117/1/3
f 122/1/3 118/1/3 121/1/3
f 123/8/3 120/8/3 119/8/3
f 124/9/3 122/9/3 121/9/3
f 124/9/3 123/9/3 122/9/3
f 125/9/3 123/9/3 124/9/3
f 126/8/3 120/8/3 123/8/3
f 126/9/3 123/9/3 125/9/3
f 127/1/3 125/1/3 124/1/3
f 128/1/3 125/1/3 127/1/3
f 129/8/3 120/8/3 126/8/3
f 130/9/3 128/9/3 127/9/3
f 130/9/3 129/9/3 128/9/3
f 131/9/3 129/9/3 130/9/3
f 132/8/3 120/8/3 129/8/3
f 132/9/3 129/9/3 131/9/3
f 133/9/3 116/9/3 114/9/3
f 134/1/3 131/1/3 130/1/3
f 135/1/3 131/1/3 134/1/3
f 136/8/3 120/8/3 132/8/3
f 137/8/3 120/8/3 136/8/3
f 138/9/3 135/9/3 134/9/3
f 138/9/3 133/9/3 114/9/3
f 138/9/3 137/9/3 136/9/3
f 138/9/3 136/9/3 135/9/3
f 138/9/3 134/9/3 133/9/3
f 139/9/3 137/9/3 138/9/3
f 142/12/3 141/12/3 140/12/3
f 143/12/3 141/12/3 142/12/3
f 144/3/3 143/3/3 142/3/3
f 145/3/3 143/3/3 144/3/3
f 146/4/3 145/4/3 144/4/3
f 147/4/3 145/4/3 146/4/3
f 148/3/3 144/3/3 142/3/3
f 148/4/3 146/4/3 144/4/3
f 149/3/3 147/3/3 146/3/3
f 149/4/3 146/4/3 148/4/3
f 150/4/3 145/4/3 147/4/3
f 150/3/3 147/3/3 149/3/3
f 151/3/3 143/3/3 145/3/3
f 151/4/3 145/4/3 150/4/3
f 152/3/3 149/3/3 148/3/3
f 152/3/3 150/3/3 149/3/3
f 152/3/3 151/3/3 150/3/3
f 152/3/3 148/3/3 142/3/3
f 153/3/3 143/3/3 151/3/3
f 153/3/3 151/3/3 152/3/3
f 154/3/3 152/3/3 142/3/3
f 154/4/3 153/4/3 152/4/3
f 155/3/3 143/3/3 153/3/3
f 155/4/3 153/4/3 154/4/3
f 156/3/3 154/3/3 142/3/3
f 156/3/3 155/3/3 154/3/3
f 157/3/3 143/3/3 155/3/3
f 157/3/3 155/3/3 156/3/3
f 158/3/3 156/3/3 142/3/3
f 158/4/3 157/4/3 156/4/3
f 159/4/3 157/4/3 158/4/3
f 160/3/3 159/3/3 158/3/3
f 160/4/3 157/4/3 159/4/3
f 161/3/3 143/3/3 157/3/3
f 161/4/3 157/4/3 160/4/3
f 162/3/3 160/3/3 158/3/3
f 162/3/3 158/3/3 142/3/3
f 162/3/3 161/3/3 160/3/3
f 163/3/3 143/3/3 161/3/3
f 163/3/3 161/3/3 162/3/3
f 164/3/3 162/3/3 142/3/3
f 164/4/3 163/4/3 162/4/3
f 165/4/3 163/4/3 164/4/3
f 166/3/3 165/3/3 164/3/3
f 166/4/3 163/4/3 165/4/3
f 167/3/3 143/3/3 163/3/3
f 167/4/3 163/4/3 166/4/3
f 168/3/3 166/3/3 164/3/3
f 168/3/3 164/3/3 142/3/3
f 168/3/3 167/3/3 166/3/3
f 169/3/3 143/3/3 167/3/3
f 169/3/3 167/3/3 168/3/3
f 170/4/3 169/4/3 168/4/3
f 171/4/3 169/4/3 170/4/3
f 172/3/3 168/3/3 142/3/3
f 172/4/3 170/4/3 168/4/3
f 173/3/3 171/3/3 170/3/3
f 173/4/3 170/4/3 172/4/3
f 174/4/3 169/4/3 171/4/3
f 174/3/3 171/3/3 173/3/3
f 175/3/3 143/3/3 169/3/3
f 175/4/3 169/4/3 174/4/3
f 176/3/3 173/3/3 172/3/3
f 176/3/3 174/3/3 173/3/3
f 176/3/3 175/3/3 174/3/3
f 176/3/3 172/3/3 142/3/3
f 177/3/3 143/3/3 175/3/3
f 177/3/3 175/3/3 176/3/3
f 178/4/3 177/4/3 176/4/3
f 179/4/3 177/4/3 178/4/3
f 180/3/3 176/3/3 142/3/3
f 180/4/3 178/4/3 176/4/3
f 181/3/3 179/3/3 178/3/3
f 181/4/3 178/4/3 180/4/3
f 182/4/3 177/4/3 179/4/3
f 182/3/3 179/3/3 181/3/3
f 183/3/3 143/3/3 177/3/3
f 183/4/3 177/4/3 182/4/3
f 184/3/3 181/3/3 180/3/3
f 184/3/3 182/3/3 181/3/3
f 184/3/3 183/3/3 182/3/3
f 184/3/3 180/3/3 142/3/3
f 185/3/3 183/3/3 184/3/3
f 186/3/3 183/3/3 185/3/3
f 187/3/3 143/3/3 183/3/3
f 187/3/3 183/3/3 186/3/3
f 188/3/3 186/3/3 185/3/3
f 188/4/3 185/4/3 184/4/3
f 189/4/3 187/4/3 186/4/3
f 189/3/3 186/3/3 188/3/3
f 190/3/3 184/3/3 142/3/3
f 190/4/3 188/4/3 184/4/3
f 190/4/3 189/4/3 188/4/3
f 191/3/3 143/3/3 187/3/3
f 191/4/3 189/4/3 190/4/3
f 191/4/3 187/4/3 189/4/3
f 192/3/3 190/3/3 142/3/3
f 192/3/3 191/3/3 190/3/3
f 193/3/3 191/3/3 192/3/3
f 194/3/3 191/3/3 193/3/3
f 195/3/3 143/3/3 191/3/3
f 195/3/3 191/3/3 194/3/3
f 196/3/3 194/3/3 193/3/3
f 196/4/3 193/4/3 192/4/3
f 197/4/3 195/4/3 194/4/3
f 197/3/3 194/3/3 196/3/3
f 198/3/3 192/3/3 142/3/3
f 198/4/3 196/4/3 192/4/3
f 198/4/3 197/4/3 196/4/3
f 199/3/3 143/3/3 195/3/3
f 199/4/3 197/4/3 198/4/3
f 199/4/3 195/4/3 197/4/3
f 200/3/3 199/3/3 198/3/3
f 201/3/3 143/3/3 199/3/3
f 201/3/3 199/3/3 200/3/3
f 202/3/3 198/3/3 142/3/3
f 202/3/3 200/3/3 198/3/3
f 203/4/3 201/4/3 200/4/3
f 203/3/3 200/3/3 202/3/3
f 204/3/3 202/3/3 142/3/3
f 204/4/3 203/4/3 202/4/3
f 205/3/3 143/3/3 201/3/3
f 205/4/3 203/4/3 204/4/3
f 205/4/3 201/4/3 203/4/3
f 206/3/3 205/3/3 204/3/3
f 207/3/3 143/3/3 205/3/3
f 207/3/3 205/3/3 206/3/3
f 208/3/3 204/3/3 142/3/3
f 208/3/3 206/3/3 204/3/3
f 209/4/3 207/4/3 206/4/3
f 209/3/3 206/3/3 208/3/3
f 210/3/3 208/3/3 142/3/3
f 210/4/3 209/4/3 208/4/3
f 211/3/3 143/3/3 207/3/3
f 211/4/3 209/4/3 210/4/3
f 211/4/3 207/4/3 209/4/3
f 212/3/3 210/3/3 142/3/3
f 212/3/3 211/3/3 210/3/3
f 213/3/3 143/3/3 211/3/3
f 213/3/3 211/3/3 212/3/3
f 214/3/3 212/3/3 142/3/3
f 214/4/3 213/4/3 212/4/3
f 215/3/3 143/3/3 213/3/3
f 215/4/3 213/4/3 214/4/3
f 216/3/3 214/3/3 142/3/3
f 216/3/3 215/3/3 214/3/3
f 217/3/3 215/3/3 216/3/3
f 218/3/3 215/3/3 217/3/3
f 219/3/3 143/3/3 215/3/3
f 219/3/3 215/3/3 218/3/3
f 220/3/3 218/3/3 217/3/3
f 220/4/3 217/4/3 216/4/3
f 221/4/3 219/4/3 218/4/3
f 221/3/3 218/3/3 220/3/3
f 222/3/3 216/3/3 142/3/3
f 222/4/3 220/4/3 216/4/3
f 222/4/3 221/4/3 220/4/3
f 223/3/3 143/3/3 219/3/3
f 223/4/3 221/4/3 222/4/3
f 223/4/3 219/4/3 221/4/3
f 224/3/3 222/3/3 142/3/3
f 224/3/3 223/3/3 222/3/3
f 225/12/3 141/12/3 143/12/3
f 225/3/3 223/3/3 224/3/3
f 225/3/3 143/3/3 223/3/3
f 226/12/3 225/12/3 224/12/3
f 227/12/3 141/12/3 225/12/3
f 227/12/3 225/12/3 226/12/3
f 230/8/3 229/8/3 228/8/3
f 231/8/3 229/8/3 230/8/3
f 234/9/3 233/9/3 232/9/3
f 235/9/3 233/9/3 234/9/3
f 236/5/3 235/5/3 234/5/3
f 237/5/3 235/5/3 236/5/3
f 238/5/3 235/5/3 237/5/3
f 239/5/3 235/5/3 238/5/3
f 240/5/3 235/5/3 239/5/3
f 241/6/3 238/6/3 237/6/3
f 242/6/3 238/6/3 241/6/3
f 243/6/3 240/6/3 239/6/3
f 244/6/3 240/6/3 243/6/3
f 245/1/3 244/1/3 243/1/3
f 246/1/3 244/1/3 245/1/3
f 247/1/3 245/1/3 243/1/3
f 247/7/3 246/7/3 245/7/3
f 248/1/3 244/1/3 246/1/3
f 248/7/3 246/7/3 247/7/3
f 249/6/3 241/6/3 237/6/3
f 249/1/3 242/1/3 241/1/3
f 250/6/3 238/6/3 242/6/3
f 250/1/3 242/1/3 249/1/3
f 251/1/3 248/1/3 247/1/3
f 251/6/3 243/6/3 239/6/3
f 251/1/3 247/1/3 243/1/3
f 252/1/3 244/1/3 248/1/3
f 252/1/3 248/1/3 251/1/3
f 252/6/3 240/6/3 244/6/3
f 253/2/3 237/2/3 236/2/3
f 254/6/3 249/6/3 237/6/3
f 254/2/3 237/2/3 253/2/3
f 254/6/3 250/6/3 249/6/3
f 255/6/3 238/6/3 250/6/3
f 255/6/3 250/6/3 254/6/3
f 256/6/3 251/6/3 239/6/3
f 256/6/3 252/6/3 251/6/3
f 257/6/3 240/6/3 252/6/3
f 257/5/3 235/5/3 240/5/3
f 257/6/3 252/6/3 256/6/3
f 258/5/3 256/5/3 255/5/3
f 258/5/3 255/5/3 254/5/3
f 258/5/3 257/5/3 256/5/3
f 258/5/3 254/5/3 253/5/3
f 259/5/3 235/5/3 257/5/3
f 259/5/3 257/5/3 258/5/3
f 260/9/3 259/9/3 258/9/3
f 261/9/3 259/9/3 260/9/3
f 262/9/3 259/9/3 261/9/3
f 263/9/3 259/9/3 262/9/3
f 266/9/3 265/9/3 264/9/3
f 267/9/3 265/9/3 266/9/3
f 268/12/4 269/12/4 270/12/4
f 270/12/4 269/12/4 271/12/4
f 272/9/4 273/9/4 274/9/4
f 274/9/4 273/9/4 275/9/4
f 276/9/4 277/9/4 278/9/4
f 278/9/4 277/9/4 279/9/4
f 284/9/5 283/9/5 282/9/5
f 285/9/5 283/9/5 284/9/5
f 286/9/5 283/9/5 285/9/5
f 287/9/5 283/9/5 286/9/5
f 288/9/5 284/9/5 282/9/5
f 288/10/5 285/10/5 284/10/5
f 289/9/5 286/9/5 285/9/5
f 289/10/5 285/10/5 288/10/5
f 290/10/5 287/10/5 286/10/5
f 290/9/5 286/9/5 289/9/5
f 291/9/5 283/9/5 287/9/5
f 291/10/5 287/10/5 290/10/5
f 292/9/5 281/9/5 280/9/5
f 297/9/5 290/9/5 289/9/5
f 297/9/5 289/9/5 288/9/5
f 297/9/5 288/9/5 282/9/5
f 297/9/5 291/9/5 290/9/5
f 298/5/5 294/5/5 293/5/5
f 298/9/5 293/9/5 292/9/5
f 299/2/5 295/2/5 294/2/5
f 299/5/5 294/5/5 298/5/5
f 300/5/5 296/5/5 295/5/5
f 300/2/5 295/2/5 299/2/5
f 301/9/5 297/9/5 296/9/5
f 301/5/5 296/5/5 300/5/5
f 302/9/5 299/9/5 298/9/5
f 302/9/5 298/9/5 292/9/5
f 302/9/5 301/9/5 300/9/5
f 302/9/5 300/9/5 299/9/5
f 302/9/5 292/9/5 280/9/5
f 303/9/5 283/9/5 291/9/5
f 303/9/5 301/9/5 302/9/5
f 303/9/5 297/9/5 301/9/5
f 303/9/5 291/9/5 297/9/5
f 306/8/5 305/8/5 304/8/5
f 307/8/5 305/8/5 306/8/5
f 310/8/5 309/8/5 308/8/5
f 311/8/5 309/8/5 310/8/5
f 314/4/5 313/4/5 312/4/5
f 315/4/5 313/4/5 314/4/5
f 320/4/5 317/4/5 316/4/5
f 321/4/5 317/4/5 320/4/5
f 322/4/5 319/4/5 318/4/5
f 323/4/5 319/4/5 322/4/5
f 326/11/5 325/11/5 324/11/5
f 327/11/5 325/11/5 326/11/5
f 328/11/5 325/11/5 327/11/5
f 329/11/5 325/11/5 328/11/5
f 330/11/5 325/11/5 329/11/5
f 331/11/5 325/11/5 330/11/5
f 332/9/5 328/9/5 327/9/5
f 333/9/5 332/9/5 327/9/5
f 334/9/5 333/9/5 327/9/5
f 335/9/5 333/9/5 334/9/5
f 336/9/5 333/9/5 335/9/5
f 337/9/5 333/9/5 336/9/5
f 338/8/6 339/8/6 340/8/6
f 340/8/6 339/8/6 341/8/6
f 341/8/6 339/8/6 342/8/6
f 342/8/6 339/8/6 343/8/6
f 343/8/6 339/8/6 344/8/6
f 344/8/6 339/8/6 345/8/6
f 346/8/6 347/8/6 348/8/6
f 348/8/6 347/8/6 349/8/6
f 350/4/6 351/4/6 356/4/6
f 356/4/6 351/4/6 357/4/6
f 352/4/6 353/4/6 358/4/6
f 358/4/6 353/4/6 359/4/6
f 354/4/6 355/4/6 360/4/6
f 360/4/6 355/4/6 361/4/6
f 362/11/6 363/11/6 364/11/6
f 364/11/6 363/11/6 365/11/6
f 365/11/6 363/11/6 366/11/6
f 366/11/6 363/11/6 367/11/6
f 368/8/6 369/8/6 370/8/6
f 370/8/6 369/8/6 371/8/6
f 372/9/6 373/9/6 374/9/6
f 374/9/6 373/9/6 375/9/6
f 372/9/6 374/9/6 376/9/6
f 375/9/6 373/9/6 377/9/6
f 372/9/6 376/9/6 378/9/6
f 376/9/6 377/9/6 378/9/6
f 377/9/6 373/9/6 379/9/6
f 378/9/6 377/9/6 379/9/6
f 380/12/6 381/12/6 382/12/6
f 382/12/6 381/12/6 383/12/6
