# MagicaVoxel @ Ephtracy

# material
mtllib bld_store16a.mtl
usemtl palette

# normals
vn -1 0 0
vn 1 0 0
vn 0 0 1
vn 0 0 -1
vn 0 -1 0
vn 0 1 0

# texcoords
vt 0.142578 0.5
vt 0.201172 0.5
vt 0.373047 0.5
vt 0.837891 0.5
vt 0.962891 0.5
vt 0.966797 0.5
vt 0.970703 0.5
vt 0.974609 0.5
vt 0.978516 0.5
vt 0.982422 0.5
vt 0.990234 0.5

# verts
v -32 0 32
v -32 0 31
v -32 0 30
v -32 0 -32
v -32 15 30
v -32 15 28
v -32 23 28
v -32 23 -32
v -32 24 32
v -32 24 31
v -32 24 28
v -28 0 31
v -28 0 30
v -28 13 31
v -28 13 30
v -27 7 21
v -27 7 20
v -27 8 21
v -27 8 20
v -19 0 32
v -19 0 31
v -19 5 31
v -19 6 31
v -19 13 32
v -19 13 31
v -13 0 30
v -13 0 20
v -13 3 29
v -13 3 20
v -13 4 29
v -13 4 21
v -13 4 20
v -13 14 29
v -13 14 21
v -13 15 30
v -13 15 29
v -13 15 21
v -13 15 20
v -12 3 31
v -12 3 30
v -12 4 31
v -12 4 30
v 31 0 31
v 31 0 30
v 31 3 31
v 31 3 30
v 31 4 31
v 31 4 30
v 31 14 30
v 31 15 31
v 31 15 30
v 31 17 30
v 31 17 29
v 31 22 27
v 31 22 -31
v 31 23 29
v 31 23 27
v 31 23 -31
v 31 24 30
v 31 24 29
v -31 0 31
v -31 0 30
v -31 0 20
v -31 15 31
v -31 15 30
v -31 15 20
v -31 17 30
v -31 17 29
v -31 22 27
v -31 22 -31
v -31 23 29
v -31 23 27
v -31 23 -31
v -31 24 30
v -31 24 29
v -28 0 32
v -28 0 31
v -28 13 32
v -28 13 31
v -19 0 31
v -19 0 30
v -19 5 31
v -19 5 30
v -19 6 31
v -19 6 30
v -19 13 31
v -19 13 30
v -17 7 21
v -17 7 20
v -17 8 21
v -17 8 20
v 32 0 32
v 32 0 31
v 32 0 30
v 32 0 -32
v 32 15 30
v 32 15 29
v 32 17 29
v 32 17 28
v 32 23 28
v 32 23 -32
v 32 24 32
v 32 24 31
v 32 24 28
v -32 0 32
v -32 24 32
v -28 0 32
v -28 13 32
v -19 0 32
v -19 13 32
v 17 7 32
v 17 11 32
v 17 12 32
v 17 20 32
v 18 13 32
v 18 19 32
v 19 7 32
v 19 11 32
v 20 7 32
v 20 11 32
v 20 13 32
v 20 19 32
v 22 7 32
v 22 11 32
v 23 7 32
v 23 11 32
v 24 7 32
v 24 11 32
v 24 13 32
v 24 19 32
v 25 7 32
v 25 11 32
v 26 13 32
v 26 19 32
v 27 7 32
v 27 11 32
v 27 12 32
v 27 20 32
v 32 0 32
v 32 24 32
v -28 0 31
v -28 13 31
v -26 9 31
v -26 11 31
v -22 9 31
v -22 11 31
v -21 5 31
v -21 6 31
v -19 0 31
v -19 5 31
v -19 6 31
v -19 13 31
v -13 0 30
v -13 15 30
v -12 3 30
v -12 4 30
v -12 14 30
v -12 15 30
v 2 4 30
v 2 14 30
v 3 4 30
v 3 14 30
v 17 4 30
v 17 14 30
v 18 4 30
v 18 14 30
v 31 0 30
v 31 3 30
v 31 4 30
v 31 14 30
v 31 15 30
v -31 17 29
v -31 23 29
v -31 24 29
v 31 17 29
v 31 23 29
v 31 24 29
v -27 7 21
v -27 8 21
v -17 7 21
v -17 8 21
v -31 0 20
v -31 15 20
v -28 0 20
v -28 15 20
v -27 0 20
v -27 1 20
v -27 7 20
v -27 8 20
v -27 14 20
v -26 2 20
v -26 6 20
v -26 9 20
v -26 13 20
v -24 11 20
v -24 12 20
v -20 11 20
v -20 12 20
v -18 2 20
v -18 6 20
v -18 9 20
v -18 13 20
v -17 0 20
v -17 1 20
v -17 7 20
v -17 8 20
v -17 14 20
v -16 0 20
v -16 15 20
v -13 0 20
v -13 3 20
v -13 4 20
v -13 15 20
v -31 22 -31
v -31 23 -31
v 31 22 -31
v 31 23 -31
v -31 0 31
v -31 15 31
v -28 0 31
v -28 13 31
v -19 0 31
v -19 5 31
v -19 6 31
v -19 13 31
v -12 3 31
v -12 4 31
v 17 7 31
v 17 11 31
v 17 12 31
v 17 15 31
v 18 13 31
v 18 15 31
v 19 7 31
v 19 11 31
v 20 7 31
v 20 11 31
v 20 13 31
v 20 15 31
v 22 7 31
v 22 11 31
v 23 7 31
v 23 11 31
v 24 7 31
v 24 11 31
v 24 13 31
v 24 15 31
v 25 7 31
v 25 11 31
v 26 13 31
v 26 15 31
v 27 7 31
v 27 11 31
v 27 12 31
v 27 15 31
v 31 0 31
v 31 3 31
v 31 4 31
v 31 15 31
v -31 17 30
v -31 24 30
v -28 0 30
v -28 13 30
v -26 9 30
v -26 11 30
v -22 9 30
v -22 11 30
v -21 5 30
v -21 6 30
v -19 0 30
v -19 5 30
v -19 6 30
v -19 13 30
v 31 17 30
v 31 24 30
v -32 23 28
v -32 24 28
v 32 23 28
v 32 24 28
v -31 22 27
v -31 23 27
v 31 22 27
v 31 23 27
v -32 0 -32
v -32 23 -32
v 32 0 -32
v 32 23 -32
v -32 0 32
v -28 0 32
v -19 0 32
v 32 0 32
v -32 0 31
v -31 0 31
v -28 0 31
v -19 0 31
v 31 0 31
v 32 0 31
v -32 0 30
v -31 0 30
v -28 0 30
v -19 0 30
v -13 0 30
v 31 0 30
v 32 0 30
v -12 0 29
v 5 0 29
v 9 0 29
v 31 0 29
v -12 0 28
v 5 0 28
v 9 0 28
v 31 0 28
v -31 0 20
v -28 0 20
v -27 0 20
v -17 0 20
v -16 0 20
v -13 0 20
v -28 0 19
v -27 0 19
v -17 0 19
v -16 0 19
v -32 0 -32
v 32 0 -32
v -12 3 31
v 31 3 31
v -12 3 30
v 31 3 30
v -27 7 21
v -17 7 21
v -27 7 20
v -17 7 20
v -28 13 32
v -19 13 32
v -28 13 31
v -19 13 31
v -31 15 31
v 17 15 31
v 18 15 31
v 20 15 31
v 24 15 31
v 26 15 31
v 27 15 31
v 31 15 31
v -31 15 30
v -13 15 30
v -12 15 30
v 31 15 30
v -13 15 29
v -13 15 21
v -31 15 20
v -28 15 20
v -16 15 20
v -13 15 20
v -12 4 31
v 31 4 31
v -12 4 30
v 2 4 30
v 3 4 30
v 17 4 30
v 18 4 30
v 31 4 30
v -27 8 21
v -17 8 21
v -27 8 20
v -17 8 20
v -28 13 31
v -19 13 31
v -28 13 30
v -19 13 30
v -31 17 30
v 31 17 30
v -31 17 29
v 31 17 29
v -31 22 27
v 31 22 27
v -31 22 -31
v 31 22 -31
v -32 23 28
v 32 23 28
v -31 23 27
v 31 23 27
v -31 23 -31
v 31 23 -31
v -32 23 -32
v 32 23 -32
v -32 24 32
v 32 24 32
v -32 24 31
v 32 24 31
v -31 24 30
v 31 24 30
v -31 24 29
v 31 24 29
v -32 24 28
v 32 24 28

# faces
f 5/11/1 3/11/1 2/11/1
f 5/8/1 4/8/1 3/8/1
f 6/8/1 4/8/1 5/8/1
f 7/11/1 6/11/1 5/11/1
f 7/8/1 4/8/1 6/8/1
f 8/8/1 4/8/1 7/8/1
f 9/4/1 2/4/1 1/4/1
f 10/11/1 5/11/1 2/11/1
f 10/4/1 2/4/1 9/4/1
f 10/11/1 7/11/1 5/11/1
f 11/11/1 7/11/1 10/11/1
f 14/11/1 13/11/1 12/11/1
f 15/11/1 13/11/1 14/11/1
f 18/7/1 17/7/1 16/7/1
f 19/7/1 17/7/1 18/7/1
f 22/4/1 21/4/1 20/4/1
f 23/4/1 22/4/1 20/4/1
f 24/4/1 23/4/1 20/4/1
f 25/4/1 23/4/1 24/4/1
f 28/8/1 27/8/1 26/8/1
f 29/8/1 27/8/1 28/8/1
f 30/8/1 28/8/1 26/8/1
f 30/7/1 29/7/1 28/7/1
f 31/7/1 29/7/1 30/7/1
f 32/7/1 29/7/1 31/7/1
f 33/8/1 30/8/1 26/8/1
f 33/1/1 31/1/1 30/1/1
f 34/8/1 32/8/1 31/8/1
f 34/1/1 31/1/1 33/1/1
f 35/8/1 33/8/1 26/8/1
f 36/7/1 34/7/1 33/7/1
f 36/8/1 33/8/1 35/8/1
f 37/8/1 32/8/1 34/8/1
f 37/7/1 34/7/1 36/7/1
f 38/8/1 32/8/1 37/8/1
f 41/7/1 40/7/1 39/7/1
f 42/7/1 40/7/1 41/7/1
f 45/11/1 44/11/1 43/11/1
f 46/11/1 44/11/1 45/11/1
f 49/11/1 48/11/1 47/11/1
f 50/11/1 49/11/1 47/11/1
f 51/11/1 49/11/1 50/11/1
f 56/11/1 53/11/1 52/11/1
f 57/8/1 55/8/1 54/8/1
f 58/8/1 55/8/1 57/8/1
f 59/11/1 56/11/1 52/11/1
f 60/11/1 56/11/1 59/11/1
f 61/11/2 62/11/2 64/11/2
f 62/8/2 63/8/2 65/8/2
f 64/11/2 62/11/2 65/11/2
f 65/8/2 63/8/2 66/8/2
f 67/11/2 68/11/2 71/11/2
f 69/8/2 70/8/2 72/8/2
f 72/8/2 70/8/2 73/8/2
f 67/11/2 71/11/2 74/11/2
f 74/11/2 71/11/2 75/11/2
f 76/4/2 77/4/2 78/4/2
f 78/4/2 77/4/2 79/4/2
f 80/11/2 81/11/2 82/11/2
f 82/11/2 81/11/2 83/11/2
f 82/5/2 83/5/2 84/5/2
f 84/5/2 83/5/2 85/5/2
f 84/11/2 85/11/2 86/11/2
f 86/11/2 85/11/2 87/11/2
f 88/7/2 89/7/2 90/7/2
f 90/7/2 89/7/2 91/7/2
f 93/11/2 94/11/2 96/11/2
f 94/8/2 95/8/2 96/8/2
f 96/8/2 95/8/2 97/8/2
f 96/11/2 97/11/2 98/11/2
f 97/8/2 95/8/2 98/8/2
f 98/8/2 95/8/2 99/8/2
f 98/11/2 99/11/2 100/11/2
f 99/8/2 95/8/2 100/8/2
f 100/8/2 95/8/2 101/8/2
f 92/4/2 93/4/2 102/4/2
f 93/11/2 96/11/2 103/11/2
f 102/4/2 93/4/2 103/4/2
f 96/11/2 98/11/2 103/11/2
f 98/11/2 100/11/2 103/11/2
f 103/11/2 100/11/2 104/11/2
f 107/4/3 106/4/3 105/4/3
f 108/4/3 106/4/3 107/4/3
f 110/4/3 106/4/3 108/4/3
f 111/4/3 110/4/3 109/4/3
f 112/4/3 110/4/3 111/4/3
f 113/4/3 110/4/3 112/4/3
f 114/4/3 106/4/3 110/4/3
f 114/4/3 110/4/3 113/4/3
f 115/6/3 114/6/3 113/6/3
f 116/6/3 114/6/3 115/6/3
f 117/4/3 111/4/3 109/4/3
f 117/6/3 112/6/3 111/6/3
f 118/4/3 113/4/3 112/4/3
f 118/6/3 112/6/3 117/6/3
f 119/4/3 117/4/3 109/4/3
f 119/4/3 118/4/3 117/4/3
f 120/4/3 113/4/3 118/4/3
f 120/4/3 118/4/3 119/4/3
f 121/4/3 116/4/3 115/4/3
f 121/6/3 115/6/3 113/6/3
f 122/6/3 114/6/3 116/6/3
f 122/4/3 116/4/3 121/4/3
f 123/4/3 119/4/3 109/4/3
f 123/6/3 120/6/3 119/6/3
f 124/4/3 113/4/3 120/4/3
f 124/6/3 120/6/3 123/6/3
f 125/4/3 123/4/3 109/4/3
f 125/4/3 124/4/3 123/4/3
f 126/4/3 113/4/3 124/4/3
f 126/4/3 124/4/3 125/4/3
f 127/4/3 125/4/3 109/4/3
f 127/6/3 126/6/3 125/6/3
f 128/4/3 113/4/3 126/4/3
f 128/6/3 126/6/3 127/6/3
f 129/6/3 121/6/3 113/6/3
f 129/6/3 122/6/3 121/6/3
f 130/6/3 114/6/3 122/6/3
f 130/6/3 122/6/3 129/6/3
f 131/4/3 127/4/3 109/4/3
f 131/4/3 128/4/3 127/4/3
f 132/4/3 113/4/3 128/4/3
f 132/4/3 128/4/3 131/4/3
f 133/6/3 129/6/3 113/6/3
f 133/4/3 130/4/3 129/4/3
f 134/6/3 114/6/3 130/6/3
f 134/4/3 130/4/3 133/4/3
f 135/4/3 131/4/3 109/4/3
f 135/6/3 132/6/3 131/6/3
f 136/4/3 113/4/3 132/4/3
f 136/6/3 132/6/3 135/6/3
f 137/6/3 133/6/3 113/6/3
f 137/4/3 113/4/3 136/4/3
f 137/6/3 134/6/3 133/6/3
f 138/6/3 114/6/3 134/6/3
f 138/6/3 134/6/3 137/6/3
f 138/4/3 106/4/3 114/4/3
f 139/4/3 135/4/3 109/4/3
f 139/4/3 137/4/3 136/4/3
f 139/4/3 138/4/3 137/4/3
f 139/4/3 136/4/3 135/4/3
f 140/4/3 106/4/3 138/4/3
f 140/4/3 138/4/3 139/4/3
f 143/11/3 142/11/3 141/11/3
f 144/11/3 142/11/3 143/11/3
f 145/11/3 143/11/3 141/11/3
f 145/6/3 144/6/3 143/6/3
f 146/11/3 142/11/3 144/11/3
f 146/6/3 144/6/3 145/6/3
f 147/11/3 145/11/3 141/11/3
f 147/11/3 146/11/3 145/11/3
f 148/11/3 146/11/3 147/11/3
f 149/11/3 147/11/3 141/11/3
f 150/5/3 148/5/3 147/5/3
f 150/11/3 147/11/3 149/11/3
f 151/11/3 146/11/3 148/11/3
f 151/5/3 148/5/3 150/5/3
f 152/11/3 142/11/3 146/11/3
f 152/11/3 146/11/3 151/11/3
f 155/8/3 154/8/3 153/8/3
f 156/8/3 154/8/3 155/8/3
f 157/8/3 154/8/3 156/8/3
f 158/8/3 154/8/3 157/8/3
f 159/1/3 157/1/3 156/1/3
f 160/7/3 158/7/3 157/7/3
f 160/1/3 157/1/3 159/1/3
f 161/8/3 160/8/3 159/8/3
f 162/7/3 158/7/3 160/7/3
f 162/8/3 160/8/3 161/8/3
f 163/1/3 162/1/3 161/1/3
f 164/7/3 158/7/3 162/7/3
f 164/1/3 162/1/3 163/1/3
f 165/8/3 164/8/3 163/8/3
f 166/7/3 158/7/3 164/7/3
f 166/8/3 164/8/3 165/8/3
f 167/8/3 155/8/3 153/8/3
f 168/8/3 155/8/3 167/8/3
f 169/1/3 166/1/3 165/1/3
f 170/7/3 158/7/3 166/7/3
f 170/1/3 166/1/3 169/1/3
f 171/7/3 158/7/3 170/7/3
f 175/8/3 173/8/3 172/8/3
f 176/11/3 174/11/3 173/11/3
f 176/8/3 173/8/3 175/8/3
f 177/11/3 174/11/3 176/11/3
f 180/7/3 179/7/3 178/7/3
f 181/7/3 179/7/3 180/7/3
f 184/8/3 183/8/3 182/8/3
f 185/8/3 183/8/3 184/8/3
f 186/3/3 185/3/3 184/3/3
f 187/3/3 185/3/3 186/3/3
f 188/3/3 185/3/3 187/3/3
f 189/3/3 185/3/3 188/3/3
f 190/3/3 185/3/3 189/3/3
f 191/5/3 188/5/3 187/5/3
f 192/5/3 188/5/3 191/5/3
f 193/5/3 190/5/3 189/5/3
f 194/5/3 190/5/3 193/5/3
f 195/1/3 194/1/3 193/1/3
f 196/1/3 194/1/3 195/1/3
f 197/1/3 195/1/3 193/1/3
f 197/6/3 196/6/3 195/6/3
f 198/1/3 194/1/3 196/1/3
f 198/6/3 196/6/3 197/6/3
f 199/5/3 191/5/3 187/5/3
f 199/1/3 192/1/3 191/1/3
f 200/5/3 188/5/3 192/5/3
f 200/1/3 192/1/3 199/1/3
f 201/1/3 198/1/3 197/1/3
f 201/5/3 193/5/3 189/5/3
f 201/1/3 197/1/3 193/1/3
f 202/1/3 194/1/3 198/1/3
f 202/1/3 198/1/3 201/1/3
f 202/5/3 190/5/3 194/5/3
f 203/2/3 187/2/3 186/2/3
f 204/5/3 199/5/3 187/5/3
f 204/2/3 187/2/3 203/2/3
f 204/5/3 200/5/3 199/5/3
f 205/5/3 188/5/3 200/5/3
f 205/5/3 200/5/3 204/5/3
f 206/5/3 201/5/3 189/5/3
f 206/5/3 202/5/3 201/5/3
f 207/5/3 190/5/3 202/5/3
f 207/3/3 185/3/3 190/3/3
f 207/5/3 202/5/3 206/5/3
f 208/3/3 206/3/3 205/3/3
f 208/3/3 205/3/3 204/3/3
f 208/3/3 207/3/3 206/3/3
f 208/3/3 204/3/3 203/3/3
f 209/3/3 185/3/3 207/3/3
f 209/3/3 207/3/3 208/3/3
f 210/8/3 209/8/3 208/8/3
f 211/8/3 209/8/3 210/8/3
f 212/8/3 209/8/3 211/8/3
f 213/8/3 209/8/3 212/8/3
f 216/8/3 215/8/3 214/8/3
f 217/8/3 215/8/3 216/8/3
f 218/4/4 219/4/4 220/4/4
f 220/4/4 219/4/4 221/4/4
f 221/4/4 219/4/4 225/4/4
f 223/4/4 224/4/4 226/4/4
f 224/4/4 225/4/4 226/4/4
f 222/4/4 223/4/4 226/4/4
f 226/4/4 225/4/4 227/4/4
f 227/4/4 225/4/4 228/4/4
f 228/4/4 225/4/4 229/4/4
f 229/4/4 225/4/4 230/4/4
f 225/4/4 219/4/4 231/4/4
f 230/4/4 225/4/4 231/4/4
f 230/6/4 231/6/4 232/6/4
f 232/6/4 231/6/4 233/6/4
f 227/4/4 228/4/4 234/4/4
f 228/6/4 229/6/4 234/6/4
f 229/4/4 230/4/4 235/4/4
f 234/6/4 229/6/4 235/6/4
f 227/4/4 234/4/4 236/4/4
f 234/4/4 235/4/4 236/4/4
f 235/4/4 230/4/4 237/4/4
f 236/4/4 235/4/4 237/4/4
f 232/4/4 233/4/4 238/4/4
f 230/6/4 232/6/4 238/6/4
f 238/4/4 233/4/4 239/4/4
f 227/4/4 236/4/4 240/4/4
f 236/6/4 237/6/4 240/6/4
f 237/4/4 230/4/4 241/4/4
f 240/6/4 237/6/4 241/6/4
f 227/4/4 240/4/4 242/4/4
f 240/4/4 241/4/4 242/4/4
f 241/4/4 230/4/4 243/4/4
f 242/4/4 241/4/4 243/4/4
f 227/4/4 242/4/4 244/4/4
f 242/6/4 243/6/4 244/6/4
f 243/4/4 230/4/4 245/4/4
f 244/6/4 243/6/4 245/6/4
f 238/6/4 239/6/4 246/6/4
f 230/6/4 238/6/4 246/6/4
f 246/6/4 239/6/4 247/6/4
f 227/4/4 244/4/4 248/4/4
f 244/4/4 245/4/4 248/4/4
f 245/4/4 230/4/4 249/4/4
f 248/4/4 245/4/4 249/4/4
f 246/4/4 247/4/4 250/4/4
f 230/6/4 246/6/4 250/6/4
f 250/4/4 247/4/4 251/4/4
f 227/4/4 248/4/4 252/4/4
f 248/6/4 249/6/4 252/6/4
f 249/4/4 230/4/4 253/4/4
f 252/6/4 249/6/4 253/6/4
f 250/6/4 251/6/4 254/6/4
f 253/4/4 230/4/4 254/4/4
f 230/6/4 250/6/4 254/6/4
f 254/6/4 251/6/4 255/6/4
f 222/4/4 226/4/4 256/4/4
f 256/4/4 226/4/4 257/4/4
f 227/4/4 252/4/4 258/4/4
f 252/4/4 253/4/4 258/4/4
f 253/4/4 254/4/4 258/4/4
f 254/4/4 255/4/4 258/4/4
f 258/4/4 255/4/4 259/4/4
f 262/11/4 263/11/4 264/11/4
f 264/11/4 263/11/4 265/11/4
f 262/11/4 264/11/4 266/11/4
f 264/6/4 265/6/4 266/6/4
f 265/11/4 263/11/4 267/11/4
f 266/6/4 265/6/4 267/6/4
f 262/11/4 266/11/4 268/11/4
f 266/11/4 267/11/4 268/11/4
f 268/11/4 267/11/4 269/11/4
f 262/11/4 268/11/4 270/11/4
f 268/5/4 269/5/4 271/5/4
f 270/11/4 268/11/4 271/11/4
f 269/11/4 267/11/4 272/11/4
f 271/5/4 269/5/4 272/5/4
f 267/11/4 263/11/4 273/11/4
f 272/11/4 267/11/4 273/11/4
f 260/11/4 261/11/4 274/11/4
f 274/11/4 261/11/4 275/11/4
f 276/11/4 277/11/4 278/11/4
f 278/11/4 277/11/4 279/11/4
f 280/8/4 281/8/4 282/8/4
f 282/8/4 281/8/4 283/8/4
f 284/8/4 285/8/4 286/8/4
f 286/8/4 285/8/4 287/8/4
f 292/4/5 289/4/5 288/4/5
f 293/4/5 289/4/5 292/4/5
f 294/4/5 289/4/5 293/4/5
f 295/4/5 291/4/5 290/4/5
f 296/4/5 291/4/5 295/4/5
f 297/4/5 291/4/5 296/4/5
f 298/11/5 293/11/5 292/11/5
f 299/11/5 293/11/5 298/11/5
f 300/11/5 295/11/5 294/11/5
f 301/11/5 295/11/5 300/11/5
f 303/11/5 297/11/5 296/11/5
f 304/11/5 297/11/5 303/11/5
f 305/8/5 303/8/5 302/8/5
f 305/8/5 304/8/5 303/8/5
f 306/8/5 304/8/5 305/8/5
f 307/8/5 304/8/5 306/8/5
f 308/8/5 304/8/5 307/8/5
f 309/8/5 305/8/5 302/8/5
f 309/9/5 306/9/5 305/9/5
f 310/8/5 307/8/5 306/8/5
f 310/9/5 306/9/5 309/9/5
f 311/9/5 308/9/5 307/9/5
f 311/8/5 307/8/5 310/8/5
f 312/8/5 304/8/5 308/8/5
f 312/9/5 308/9/5 311/9/5
f 313/8/5 299/8/5 298/8/5
f 318/8/5 311/8/5 310/8/5
f 318/8/5 310/8/5 309/8/5
f 318/8/5 309/8/5 302/8/5
f 318/8/5 312/8/5 311/8/5
f 319/3/5 315/3/5 314/3/5
f 319/8/5 314/8/5 313/8/5
f 320/2/5 316/2/5 315/2/5
f 320/3/5 315/3/5 319/3/5
f 321/3/5 317/3/5 316/3/5
f 321/2/5 316/2/5 320/2/5
f 322/8/5 318/8/5 317/8/5
f 322/3/5 317/3/5 321/3/5
f 323/8/5 320/8/5 319/8/5
f 323/8/5 319/8/5 313/8/5
f 323/8/5 322/8/5 321/8/5
f 323/8/5 321/8/5 320/8/5
f 323/8/5 313/8/5 298/8/5
f 324/8/5 304/8/5 312/8/5
f 324/8/5 322/8/5 323/8/5
f 324/8/5 318/8/5 322/8/5
f 324/8/5 312/8/5 318/8/5
f 327/7/5 326/7/5 325/7/5
f 328/7/5 326/7/5 327/7/5
f 331/7/5 330/7/5 329/7/5
f 332/7/5 330/7/5 331/7/5
f 335/4/5 334/4/5 333/4/5
f 336/4/5 334/4/5 335/4/5
f 345/10/5 338/10/5 337/10/5
f 345/10/5 344/10/5 343/10/5
f 345/10/5 343/10/5 342/10/5
f 345/10/5 342/10/5 341/10/5
f 345/10/5 341/10/5 340/10/5
f 345/10/5 340/10/5 339/10/5
f 345/10/5 339/10/5 338/10/5
f 346/10/5 344/10/5 345/10/5
f 347/10/5 344/10/5 346/10/5
f 348/10/5 344/10/5 347/10/5
f 349/8/5 346/8/5 345/8/5
f 350/8/5 349/8/5 345/8/5
f 351/8/5 350/8/5 345/8/5
f 352/8/5 350/8/5 351/8/5
f 353/8/5 350/8/5 352/8/5
f 354/8/5 350/8/5 353/8/5
f 355/7/6 356/7/6 357/7/6
f 357/7/6 356/7/6 358/7/6
f 358/7/6 356/7/6 359/7/6
f 359/7/6 356/7/6 360/7/6
f 360/7/6 356/7/6 361/7/6
f 361/7/6 356/7/6 362/7/6
f 363/7/6 364/7/6 365/7/6
f 365/7/6 364/7/6 366/7/6
f 367/11/6 368/11/6 369/11/6
f 369/11/6 368/11/6 370/11/6
f 371/10/6 372/10/6 373/10/6
f 373/10/6 372/10/6 374/10/6
f 375/7/6 376/7/6 377/7/6
f 377/7/6 376/7/6 378/7/6
f 379/8/6 380/8/6 381/8/6
f 381/8/6 380/8/6 382/8/6
f 379/8/6 381/8/6 383/8/6
f 382/8/6 380/8/6 384/8/6
f 379/8/6 383/8/6 385/8/6
f 383/8/6 384/8/6 385/8/6
f 384/8/6 380/8/6 386/8/6
f 385/8/6 384/8/6 386/8/6
f 387/4/6 388/4/6 389/4/6
f 389/4/6 388/4/6 390/4/6
f 389/11/6 390/11/6 391/11/6
f 391/11/6 390/11/6 392/11/6
f 389/11/6 391/11/6 393/11/6
f 392/11/6 390/11/6 394/11/6
f 389/11/6 393/11/6 395/11/6
f 393/11/6 394/11/6 395/11/6
f 394/11/6 390/11/6 396/11/6
f 395/11/6 394/11/6 396/11/6
