# MagicaVoxel @ Ephtracy

# material
mtllib bld_store10.mtl
usemtl palette

# normals
vn -1 0 0
vn 1 0 0
vn 0 0 1
vn 0 0 -1
vn 0 -1 0
vn 0 1 0

# texcoords
vt 0.00976563 0.5
vt 0.205078 0.5
vt 0.228516 0.5
vt 0.615234 0.5
vt 0.966797 0.5
vt 0.970703 0.5
vt 0.974609 0.5
vt 0.982422 0.5
vt 0.990234 0.5

# verts
v -16 0 30
v -16 0 -32
v -16 15 32
v -16 15 30
v -16 15 29
v -16 17 32
v -16 17 29
v -16 17 28
v -16 23 28
v -16 23 -32
v -16 24 29
v -16 24 28
v -3 1 30
v -3 1 29
v -3 2 30
v -3 2 29
v 15 0 30
v 15 0 29
v 15 2 29
v 15 4 29
v 15 6 29
v 15 8 29
v 15 10 29
v 15 12 29
v 15 14 29
v 15 15 30
v 15 15 29
v 15 22 27
v 15 22 -31
v 15 23 27
v 15 23 -31
v -15 0 30
v -15 0 29
v -15 2 29
v -15 4 29
v -15 6 29
v -15 8 29
v -15 10 29
v -15 12 29
v -15 14 29
v -15 15 30
v -15 15 29
v -15 22 27
v -15 22 -31
v -15 23 27
v -15 23 -31
v 4 1 30
v 4 1 29
v 4 2 30
v 4 2 29
v 16 0 30
v 16 0 -32
v 16 15 32
v 16 15 30
v 16 15 29
v 16 17 32
v 16 17 29
v 16 17 28
v 16 23 28
v 16 23 -32
v 16 24 29
v 16 24 28
v -16 15 32
v -16 17 32
v 16 15 32
v 16 17 32
v -16 0 30
v -16 15 30
v -15 0 30
v -15 15 30
v -3 1 30
v -3 2 30
v 4 1 30
v 4 2 30
v 15 0 30
v 15 15 30
v 16 0 30
v 16 15 30
v -16 17 29
v -16 24 29
v -15 0 29
v -15 2 29
v -15 4 29
v -15 6 29
v -15 8 29
v -15 10 29
v -15 12 29
v -15 14 29
v -15 15 29
v -15 17 29
v -15 23 29
v -14 8 29
v -14 10 29
v -13 6 29
v -13 8 29
v -12 2 29
v -12 4 29
v -12 6 29
v -12 7 29
v -12 9 29
v -11 4 29
v -11 6 29
v -11 7 29
v -11 8 29
v -11 10 29
v -11 11 29
v -10 2 29
v -10 3 29
v -10 5 29
v -10 6 29
v -10 9 29
v -10 10 29
v -10 11 29
v -10 12 29
v -9 4 29
v -9 5 29
v -9 7 29
v -9 8 29
v -9 9 29
v -9 10 29
v -9 11 29
v -8 3 29
v -8 4 29
v -8 5 29
v -8 7 29
v -8 8 29
v -8 12 29
v -8 13 29
v -7 5 29
v -7 7 29
v -7 9 29
v -7 10 29
v -7 11 29
v -7 12 29
v -6 4 29
v -6 5 29
v -6 7 29
v -6 10 29
v -5 6 29
v -5 7 29
v -5 11 29
v -5 18 29
v -5 21 29
v -4 11 29
v -4 12 29
v -3 1 29
v -3 2 29
v -3 6 29
v -3 7 29
v -3 8 29
v -3 11 29
v -3 12 29
v -3 13 29
v -3 14 29
v -3 18 29
v -3 21 29
v -2 5 29
v -2 6 29
v -2 8 29
v -2 9 29
v -2 11 29
v -2 12 29
v -2 18 29
v -2 21 29
v -1 7 29
v -1 8 29
v -1 11 29
v -1 12 29
v -1 14 29
v -1 18 29
v -1 21 29
v 0 6 29
v 0 7 29
v 0 8 29
v 0 9 29
v 0 10 29
v 0 11 29
v 0 18 29
v 0 21 29
v 1 7 29
v 1 8 29
v 1 10 29
v 2 18 29
v 2 19 29
v 3 19 29
v 3 21 29
v 4 1 29
v 4 2 29
v 4 18 29
v 4 21 29
v 5 18 29
v 5 21 29
v 15 0 29
v 15 2 29
v 15 4 29
v 15 6 29
v 15 8 29
v 15 10 29
v 15 12 29
v 15 14 29
v 15 15 29
v 15 17 29
v 15 23 29
v 16 17 29
v 16 24 29
v -15 22 -31
v -15 23 -31
v 15 22 -31
v 15 23 -31
v -16 23 28
v -16 24 28
v 16 23 28
v 16 24 28
v -15 22 27
v -15 23 27
v 15 22 27
v 15 23 27
v -16 0 -32
v -16 23 -32
v 16 0 -32
v 16 23 -32
v -16 0 30
v -15 0 30
v 15 0 30
v 16 0 30
v -15 0 29
v 15 0 29
v -15 0 28
v 15 0 28
v -16 0 -32
v 16 0 -32
v -3 1 30
v 4 1 30
v -3 1 29
v 4 1 29
v -16 15 32
v 16 15 32
v -16 15 30
v -15 15 30
v 15 15 30
v 16 15 30
v -15 15 29
v 15 15 29
v -3 2 30
v 4 2 30
v -3 2 29
v 4 2 29
v -16 17 32
v 16 17 32
v -16 17 29
v -15 17 29
v 15 17 29
v 16 17 29
v -15 22 27
v 15 22 27
v -15 22 -31
v 15 22 -31
v -16 23 28
v 16 23 28
v -15 23 27
v 15 23 27
v -15 23 -31
v 15 23 -31
v -16 23 -32
v 16 23 -32
v -16 24 29
v 16 24 29
v -16 24 28
v 16 24 28

# faces
f 4/7/1 2/7/1 1/7/1
f 5/7/1 2/7/1 4/7/1
f 6/8/1 4/8/1 3/8/1
f 6/8/1 5/8/1 4/8/1
f 7/7/1 2/7/1 5/7/1
f 7/8/1 5/8/1 6/8/1
f 8/7/1 2/7/1 7/7/1
f 9/7/1 2/7/1 8/7/1
f 9/9/1 8/9/1 7/9/1
f 10/7/1 2/7/1 9/7/1
f 11/9/1 9/9/1 7/9/1
f 12/9/1 9/9/1 11/9/1
f 15/8/1 14/8/1 13/8/1
f 16/8/1 14/8/1 15/8/1
f 19/7/1 18/7/1 17/7/1
f 20/7/1 19/7/1 17/7/1
f 21/7/1 20/7/1 17/7/1
f 22/7/1 21/7/1 17/7/1
f 23/7/1 22/7/1 17/7/1
f 24/7/1 23/7/1 17/7/1
f 25/7/1 24/7/1 17/7/1
f 26/7/1 25/7/1 17/7/1
f 27/7/1 25/7/1 26/7/1
f 30/7/1 29/7/1 28/7/1
f 31/7/1 29/7/1 30/7/1
f 32/7/2 33/7/2 34/7/2
f 32/7/2 34/7/2 35/7/2
f 32/7/2 35/7/2 36/7/2
f 32/7/2 36/7/2 37/7/2
f 32/7/2 37/7/2 38/7/2
f 32/7/2 38/7/2 39/7/2
f 32/7/2 39/7/2 40/7/2
f 32/7/2 40/7/2 41/7/2
f 41/7/2 40/7/2 42/7/2
f 43/7/2 44/7/2 45/7/2
f 45/7/2 44/7/2 46/7/2
f 47/8/2 48/8/2 49/8/2
f 49/8/2 48/8/2 50/8/2
f 51/7/2 52/7/2 54/7/2
f 54/7/2 52/7/2 55/7/2
f 53/8/2 54/8/2 56/8/2
f 54/8/2 55/8/2 56/8/2
f 55/7/2 52/7/2 57/7/2
f 56/8/2 55/8/2 57/8/2
f 57/7/2 52/7/2 58/7/2
f 58/7/2 52/7/2 59/7/2
f 57/9/2 58/9/2 59/9/2
f 59/7/2 52/7/2 60/7/2
f 57/9/2 59/9/2 61/9/2
f 61/9/2 59/9/2 62/9/2
f 65/8/3 64/8/3 63/8/3
f 66/8/3 64/8/3 65/8/3
f 69/7/3 68/7/3 67/7/3
f 70/7/3 68/7/3 69/7/3
f 73/8/3 72/8/3 71/8/3
f 74/8/3 72/8/3 73/8/3
f 77/7/3 76/7/3 75/7/3
f 78/7/3 76/7/3 77/7/3
f 90/9/3 80/9/3 79/9/3
f 91/9/3 80/9/3 90/9/3
f 92/7/3 85/7/3 84/7/3
f 92/5/3 86/5/3 85/5/3
f 93/7/3 87/7/3 86/7/3
f 93/5/3 86/5/3 92/5/3
f 94/5/3 84/5/3 83/5/3
f 94/7/3 92/7/3 84/7/3
f 95/3/3 93/3/3 92/3/3
f 95/7/3 92/7/3 94/7/3
f 96/5/3 82/5/3 81/5/3
f 96/7/3 83/7/3 82/7/3
f 97/5/3 94/5/3 83/5/3
f 97/7/3 83/7/3 96/7/3
f 98/3/3 95/3/3 94/3/3
f 98/5/3 94/5/3 97/5/3
f 99/3/3 95/3/3 98/3/3
f 100/3/3 93/3/3 95/3/3
f 100/3/3 95/3/3 99/3/3
f 101/3/3 99/3/3 98/3/3
f 101/3/3 97/3/3 96/3/3
f 101/3/3 98/3/3 97/3/3
f 102/3/3 99/3/3 101/3/3
f 103/2/3 100/2/3 99/2/3
f 103/3/3 99/3/3 102/3/3
f 104/2/3 100/2/3 103/2/3
f 105/3/3 93/3/3 100/3/3
f 105/7/3 87/7/3 93/7/3
f 106/7/3 87/7/3 105/7/3
f 107/5/3 96/5/3 81/5/3
f 107/3/3 101/3/3 96/3/3
f 108/3/3 101/3/3 107/3/3
f 109/2/3 102/2/3 101/2/3
f 110/3/3 104/3/3 103/3/3
f 110/2/3 102/2/3 109/2/3
f 110/3/3 103/3/3 102/3/3
f 111/2/3 100/2/3 104/2/3
f 111/3/3 106/3/3 105/3/3
f 111/3/3 105/3/3 100/3/3
f 112/3/3 106/3/3 111/3/3
f 113/7/3 87/7/3 106/7/3
f 113/3/3 106/3/3 112/3/3
f 114/5/3 88/5/3 87/5/3
f 114/7/3 87/7/3 113/7/3
f 115/3/3 101/3/3 108/3/3
f 115/2/3 109/2/3 101/2/3
f 116/3/3 110/3/3 109/3/3
f 116/2/3 109/2/3 115/2/3
f 117/3/3 104/3/3 110/3/3
f 117/3/3 110/3/3 116/3/3
f 118/2/3 112/2/3 111/2/3
f 118/3/3 104/3/3 117/3/3
f 118/2/3 111/2/3 104/2/3
f 119/2/3 112/2/3 118/2/3
f 120/3/3 114/3/3 113/3/3
f 120/2/3 112/2/3 119/2/3
f 120/3/3 113/3/3 112/3/3
f 121/3/3 114/3/3 120/3/3
f 122/3/3 116/3/3 115/3/3
f 122/3/3 117/3/3 116/3/3
f 122/3/3 115/3/3 108/3/3
f 122/7/3 108/7/3 107/7/3
f 123/3/3 117/3/3 122/3/3
f 124/3/3 117/3/3 123/3/3
f 125/2/3 118/2/3 117/2/3
f 125/3/3 117/3/3 124/3/3
f 126/3/3 119/3/3 118/3/3
f 126/2/3 118/2/3 125/2/3
f 127/3/3 114/3/3 121/3/3
f 127/5/3 88/5/3 114/5/3
f 128/5/3 88/5/3 127/5/3
f 129/2/3 125/2/3 124/2/3
f 129/3/3 124/3/3 123/3/3
f 130/3/3 126/3/3 125/3/3
f 130/2/3 125/2/3 129/2/3
f 131/3/3 119/3/3 126/3/3
f 131/3/3 126/3/3 130/3/3
f 131/2/3 121/2/3 120/2/3
f 131/2/3 120/2/3 119/2/3
f 132/2/3 121/2/3 131/2/3
f 133/3/3 127/3/3 121/3/3
f 133/2/3 121/2/3 132/2/3
f 133/3/3 128/3/3 127/3/3
f 134/3/3 128/3/3 133/3/3
f 135/3/3 130/3/3 129/3/3
f 135/3/3 129/3/3 123/3/3
f 135/3/3 132/3/3 131/3/3
f 135/3/3 131/3/3 130/3/3
f 135/7/3 123/7/3 122/7/3
f 136/3/3 132/3/3 135/3/3
f 137/3/3 132/3/3 136/3/3
f 138/2/3 134/2/3 133/2/3
f 138/3/3 132/3/3 137/3/3
f 138/2/3 133/2/3 132/2/3
f 139/3/3 137/3/3 136/3/3
f 140/2/3 138/2/3 137/2/3
f 140/3/3 137/3/3 139/3/3
f 141/2/3 134/2/3 138/2/3
f 141/2/3 138/2/3 140/2/3
f 142/4/3 91/4/3 90/4/3
f 143/4/3 91/4/3 142/4/3
f 144/2/3 134/2/3 141/2/3
f 144/3/3 141/3/3 140/3/3
f 145/3/3 128/3/3 134/3/3
f 145/2/3 134/2/3 144/2/3
f 146/5/3 107/5/3 81/5/3
f 147/7/3 122/7/3 107/7/3
f 147/5/3 107/5/3 146/5/3
f 147/7/3 135/7/3 122/7/3
f 148/2/3 140/2/3 139/2/3
f 148/3/3 139/3/3 136/3/3
f 149/3/3 144/3/3 140/3/3
f 149/2/3 140/2/3 148/2/3
f 149/3/3 145/3/3 144/3/3
f 150/3/3 145/3/3 149/3/3
f 151/3/3 145/3/3 150/3/3
f 152/3/3 128/3/3 145/3/3
f 152/3/3 145/3/3 151/3/3
f 153/5/3 88/5/3 128/5/3
f 153/3/3 128/3/3 152/3/3
f 154/7/3 89/7/3 88/7/3
f 154/5/3 88/5/3 153/5/3
f 155/4/3 142/4/3 90/4/3
f 155/1/3 143/1/3 142/1/3
f 156/4/3 91/4/3 143/4/3
f 156/1/3 143/1/3 155/1/3
f 157/3/3 148/3/3 136/3/3
f 157/5/3 136/5/3 135/5/3
f 157/3/3 149/3/3 148/3/3
f 158/3/3 149/3/3 157/3/3
f 159/3/3 151/3/3 150/3/3
f 159/2/3 150/2/3 149/2/3
f 160/3/3 151/3/3 159/3/3
f 161/2/3 152/2/3 151/2/3
f 161/3/3 151/3/3 160/3/3
f 162/3/3 153/3/3 152/3/3
f 162/2/3 152/2/3 161/2/3
f 162/3/3 154/3/3 153/3/3
f 163/4/3 155/4/3 90/4/3
f 163/4/3 156/4/3 155/4/3
f 164/4/3 91/4/3 156/4/3
f 164/4/3 156/4/3 163/4/3
f 165/2/3 160/2/3 159/2/3
f 165/3/3 149/3/3 158/3/3
f 165/2/3 159/2/3 149/2/3
f 166/2/3 160/2/3 165/2/3
f 167/3/3 161/3/3 160/3/3
f 167/3/3 162/3/3 161/3/3
f 168/3/3 154/3/3 162/3/3
f 168/3/3 162/3/3 167/3/3
f 169/7/3 89/7/3 154/7/3
f 169/3/3 154/3/3 168/3/3
f 170/4/3 163/4/3 90/4/3
f 170/1/3 164/1/3 163/1/3
f 171/4/3 91/4/3 164/4/3
f 171/1/3 164/1/3 170/1/3
f 172/3/3 166/3/3 165/3/3
f 172/5/3 158/5/3 157/5/3
f 172/3/3 165/3/3 158/3/3
f 173/3/3 166/3/3 172/3/3
f 174/2/3 160/2/3 166/2/3
f 174/3/3 166/3/3 173/3/3
f 175/3/3 167/3/3 160/3/3
f 175/2/3 160/2/3 174/2/3
f 176/3/3 167/3/3 175/3/3
f 177/7/3 168/7/3 167/7/3
f 177/3/3 167/3/3 176/3/3
f 178/4/3 170/4/3 90/4/3
f 178/4/3 171/4/3 170/4/3
f 179/4/3 91/4/3 171/4/3
f 179/4/3 171/4/3 178/4/3
f 180/7/3 173/7/3 172/7/3
f 180/3/3 174/3/3 173/3/3
f 180/3/3 176/3/3 175/3/3
f 180/3/3 175/3/3 174/3/3
f 181/3/3 176/3/3 180/3/3
f 182/7/3 177/7/3 176/7/3
f 182/3/3 176/3/3 181/3/3
f 183/1/3 179/1/3 178/1/3
f 183/4/3 178/4/3 90/4/3
f 184/1/3 179/1/3 183/1/3
f 185/4/3 184/4/3 183/4/3
f 185/1/3 179/1/3 184/1/3
f 186/4/3 91/4/3 179/4/3
f 186/1/3 179/1/3 185/1/3
f 187/5/3 146/5/3 81/5/3
f 188/7/3 135/7/3 147/7/3
f 189/4/3 185/4/3 183/4/3
f 189/4/3 183/4/3 90/4/3
f 189/4/3 186/4/3 185/4/3
f 190/4/3 91/4/3 186/4/3
f 190/4/3 186/4/3 189/4/3
f 191/4/3 189/4/3 90/4/3
f 191/1/3 190/1/3 189/1/3
f 192/4/3 91/4/3 190/4/3
f 192/1/3 190/1/3 191/1/3
f 193/5/3 188/5/3 187/5/3
f 193/5/3 187/5/3 81/5/3
f 194/7/3 135/7/3 188/7/3
f 194/5/3 188/5/3 193/5/3
f 195/5/3 172/5/3 157/5/3
f 195/7/3 135/7/3 194/7/3
f 195/5/3 157/5/3 135/5/3
f 196/7/3 181/7/3 180/7/3
f 196/5/3 172/5/3 195/5/3
f 196/7/3 180/7/3 172/7/3
f 197/5/3 182/5/3 181/5/3
f 197/7/3 181/7/3 196/7/3
f 198/7/3 177/7/3 182/7/3
f 198/5/3 182/5/3 197/5/3
f 199/7/3 168/7/3 177/7/3
f 199/7/3 177/7/3 198/7/3
f 199/5/3 169/5/3 168/5/3
f 200/7/3 89/7/3 169/7/3
f 200/5/3 169/5/3 199/5/3
f 201/7/3 89/7/3 200/7/3
f 202/4/3 192/4/3 191/4/3
f 202/4/3 191/4/3 90/4/3
f 203/4/3 91/4/3 192/4/3
f 203/4/3 192/4/3 202/4/3
f 203/9/3 80/9/3 91/9/3
f 204/9/3 203/9/3 202/9/3
f 205/9/3 80/9/3 203/9/3
f 205/9/3 203/9/3 204/9/3
f 208/7/3 207/7/3 206/7/3
f 209/7/3 207/7/3 208/7/3
f 210/9/4 211/9/4 212/9/4
f 212/9/4 211/9/4 213/9/4
f 214/7/4 215/7/4 216/7/4
f 216/7/4 215/7/4 217/7/4
f 218/7/4 219/7/4 220/7/4
f 220/7/4 219/7/4 221/7/4
f 226/7/5 223/7/5 222/7/5
f 227/7/5 225/7/5 224/7/5
f 228/7/5 226/7/5 222/7/5
f 228/5/5 227/5/5 226/5/5
f 229/7/5 225/7/5 227/7/5
f 229/5/5 227/5/5 228/5/5
f 230/7/5 228/7/5 222/7/5
f 230/7/5 229/7/5 228/7/5
f 231/7/5 225/7/5 229/7/5
f 231/7/5 229/7/5 230/7/5
f 234/8/5 233/8/5 232/8/5
f 235/8/5 233/8/5 234/8/5
f 238/8/5 237/8/5 236/8/5
f 239/8/5 237/8/5 238/8/5
f 240/8/5 237/8/5 239/8/5
f 241/8/5 237/8/5 240/8/5
f 242/8/5 240/8/5 239/8/5
f 243/8/5 240/8/5 242/8/5
f 244/8/6 245/8/6 246/8/6
f 246/8/6 245/8/6 247/8/6
f 248/8/6 249/8/6 250/8/6
f 250/8/6 249/8/6 251/8/6
f 251/8/6 249/8/6 252/8/6
f 252/8/6 249/8/6 253/8/6
f 254/6/6 255/6/6 256/6/6
f 256/6/6 255/6/6 257/6/6
f 258/7/6 259/7/6 260/7/6
f 260/7/6 259/7/6 261/7/6
f 258/7/6 260/7/6 262/7/6
f 261/7/6 259/7/6 263/7/6
f 258/7/6 262/7/6 264/7/6
f 262/7/6 263/7/6 264/7/6
f 263/7/6 259/7/6 265/7/6
f 264/7/6 263/7/6 265/7/6
f 266/9/6 267/9/6 268/9/6
f 268/9/6 267/9/6 269/9/6
