# MagicaVoxel @ Ephtracy

# material
mtllib bld_store11.mtl
usemtl palette

# normals
vn -1 0 0
vn 1 0 0
vn 0 0 1
vn 0 0 -1
vn 0 -1 0
vn 0 1 0

# texcoords
vt 0.142578 0.5
vt 0.201172 0.5
vt 0.373047 0.5
vt 0.642578 0.5
vt 0.958984 0.5
vt 0.962891 0.5
vt 0.966797 0.5
vt 0.970703 0.5
vt 0.974609 0.5
vt 0.978516 0.5
vt 0.982422 0.5
vt 0.990234 0.5

# verts
v -16 0 30
v -16 0 -32
v -16 15 32
v -16 15 30
v -16 15 29
v -16 17 32
v -16 17 29
v -16 17 28
v -16 23 28
v -16 23 -32
v -16 24 29
v -16 24 28
v -12 7 21
v -12 7 20
v -12 8 21
v -12 8 20
v 2 0 30
v 2 0 20
v 2 3 30
v 2 3 20
v 2 4 30
v 2 4 29
v 2 4 21
v 2 4 20
v 2 14 29
v 2 14 21
v 2 15 30
v 2 15 29
v 2 15 21
v 2 15 20
v 3 3 31
v 3 3 30
v 3 4 31
v 3 4 30
v 15 0 28
v 15 0 19
v 15 3 28
v 15 3 27
v 15 4 29
v 15 4 27
v 15 14 29
v 15 14 26
v 15 14 19
v 15 22 27
v 15 22 -31
v 15 23 27
v 15 23 -31
v -15 0 30
v -15 0 20
v -15 15 30
v -15 15 29
v -15 15 20
v -15 22 27
v -15 22 -31
v -15 23 27
v -15 23 -31
v -2 7 21
v -2 7 20
v -2 8 21
v -2 8 20
v 3 0 28
v 3 0 19
v 3 3 28
v 3 3 27
v 3 3 20
v 3 4 29
v 3 4 27
v 3 4 21
v 3 4 20
v 3 14 29
v 3 14 26
v 3 14 21
v 3 14 19
v 15 3 31
v 15 3 30
v 15 4 31
v 15 4 30
v 16 0 30
v 16 0 -32
v 16 15 32
v 16 15 30
v 16 15 29
v 16 17 32
v 16 17 29
v 16 17 28
v 16 23 28
v 16 23 -32
v 16 24 29
v 16 24 28
v -16 15 32
v -16 17 32
v 16 15 32
v 16 17 32
v 3 3 31
v 3 4 31
v 15 3 31
v 15 4 31
v -16 0 30
v -16 15 30
v -15 0 30
v -15 15 30
v 2 0 30
v 2 3 30
v 2 4 30
v 2 15 30
v 3 3 30
v 3 4 30
v 3 14 30
v 3 15 30
v 15 3 30
v 15 4 30
v 15 14 30
v 15 15 30
v 16 0 30
v 16 15 30
v -16 17 29
v -16 24 29
v -15 17 29
v -15 23 29
v -14 18 29
v -14 22 29
v -13 18 29
v -13 22 29
v -12 18 29
v -12 22 29
v -11 18 29
v -11 22 29
v -10 18 29
v -10 22 29
v -8 18 29
v -8 22 29
v -7 18 29
v -7 22 29
v -6 18 29
v -6 22 29
v -5 18 29
v -5 20 29
v -4 20 29
v -4 22 29
v -2 18 29
v -2 22 29
v -1 18 29
v -1 22 29
v 0 18 29
v 0 22 29
v 1 18 29
v 1 22 29
v 3 18 29
v 3 19 29
v 4 19 29
v 4 22 29
v 5 18 29
v 5 22 29
v 7 18 29
v 7 22 29
v 8 18 29
v 8 22 29
v 9 18 29
v 9 22 29
v 10 18 29
v 10 22 29
v 11 18 29
v 11 19 29
v 12 19 29
v 12 22 29
v 13 18 29
v 13 22 29
v 14 18 29
v 14 22 29
v 15 17 29
v 15 23 29
v 16 17 29
v 16 24 29
v -12 7 21
v -12 8 21
v -2 7 21
v -2 8 21
v -15 0 20
v -15 15 20
v -13 0 20
v -13 15 20
v -12 0 20
v -12 1 20
v -12 7 20
v -12 8 20
v -12 14 20
v -11 2 20
v -11 6 20
v -11 9 20
v -11 13 20
v -9 11 20
v -9 12 20
v -5 11 20
v -5 12 20
v -3 2 20
v -3 6 20
v -3 9 20
v -3 13 20
v -2 0 20
v -2 1 20
v -2 7 20
v -2 8 20
v -2 14 20
v -1 0 20
v -1 15 20
v 2 0 20
v 2 3 20
v 2 4 20
v 2 15 20
v 3 0 19
v 3 14 19
v 15 0 19
v 15 14 19
v -15 22 -31
v -15 23 -31
v 15 22 -31
v 15 23 -31
v 3 4 29
v 3 14 29
v 15 4 29
v 15 14 29
v -16 23 28
v -16 24 28
v 3 0 28
v 3 3 28
v 15 0 28
v 15 3 28
v 16 23 28
v 16 24 28
v -15 22 27
v -15 23 27
v 3 3 27
v 3 4 27
v 15 3 27
v 15 4 27
v 15 22 27
v 15 23 27
v -16 0 -32
v -16 23 -32
v 16 0 -32
v 16 23 -32
v -16 0 30
v -15 0 30
v 2 0 30
v 16 0 30
v 3 0 29
v 15 0 29
v 3 0 28
v 15 0 28
v -15 0 20
v -13 0 20
v -12 0 20
v -2 0 20
v -1 0 20
v 2 0 20
v -13 0 19
v -12 0 19
v -2 0 19
v -1 0 19
v 3 0 19
v 15 0 19
v -16 0 -32
v 16 0 -32
v 3 3 31
v 15 3 31
v 3 3 30
v 15 3 30
v 3 3 28
v 15 3 28
v 3 3 27
v 15 3 27
v -12 7 21
v -2 7 21
v -12 7 20
v -2 7 20
v 3 14 29
v 15 14 29
v 3 14 26
v 15 14 26
v 3 14 21
v 3 14 19
v 15 14 19
v -16 15 32
v 16 15 32
v -16 15 30
v -15 15 30
v 2 15 30
v 3 15 30
v 15 15 30
v 16 15 30
v -15 15 29
v 2 15 29
v 2 15 21
v -15 15 20
v -13 15 20
v -1 15 20
v 2 15 20
v 3 4 31
v 15 4 31
v 3 4 30
v 15 4 30
v 3 4 29
v 15 4 29
v 3 4 27
v 15 4 27
v -12 8 21
v -2 8 21
v -12 8 20
v -2 8 20
v -16 17 32
v 16 17 32
v -16 17 29
v -15 17 29
v 15 17 29
v 16 17 29
v -15 22 27
v 15 22 27
v -15 22 -31
v 15 22 -31
v -16 23 28
v 16 23 28
v -15 23 27
v 15 23 27
v -15 23 -31
v 15 23 -31
v -16 23 -32
v 16 23 -32
v -16 24 29
v 16 24 29
v -16 24 28
v 16 24 28

# faces
f 4/9/1 2/9/1 1/9/1
f 5/9/1 2/9/1 4/9/1
f 6/11/1 4/11/1 3/11/1
f 6/11/1 5/11/1 4/11/1
f 7/9/1 2/9/1 5/9/1
f 7/11/1 5/11/1 6/11/1
f 8/9/1 2/9/1 7/9/1
f 9/9/1 2/9/1 8/9/1
f 9/12/1 8/12/1 7/12/1
f 10/9/1 2/9/1 9/9/1
f 11/12/1 9/12/1 7/12/1
f 12/12/1 9/12/1 11/12/1
f 15/8/1 14/8/1 13/8/1
f 16/8/1 14/8/1 15/8/1
f 19/9/1 18/9/1 17/9/1
f 20/9/1 18/9/1 19/9/1
f 21/8/1 20/8/1 19/8/1
f 22/8/1 20/8/1 21/8/1
f 23/8/1 20/8/1 22/8/1
f 24/8/1 20/8/1 23/8/1
f 25/9/1 22/9/1 21/9/1
f 25/1/1 23/1/1 22/1/1
f 26/9/1 24/9/1 23/9/1
f 26/1/1 23/1/1 25/1/1
f 27/9/1 25/9/1 21/9/1
f 28/8/1 26/8/1 25/8/1
f 28/9/1 25/9/1 27/9/1
f 29/9/1 24/9/1 26/9/1
f 29/8/1 26/8/1 28/8/1
f 30/9/1 24/9/1 29/9/1
f 33/8/1 32/8/1 31/8/1
f 34/8/1 32/8/1 33/8/1
f 37/9/1 36/9/1 35/9/1
f 38/9/1 36/9/1 37/9/1
f 40/9/1 36/9/1 38/9/1
f 41/9/1 40/9/1 39/9/1
f 42/9/1 36/9/1 40/9/1
f 42/9/1 40/9/1 41/9/1
f 43/9/1 36/9/1 42/9/1
f 46/9/1 45/9/1 44/9/1
f 47/9/1 45/9/1 46/9/1
f 48/9/2 49/9/2 50/9/2
f 50/9/2 49/9/2 51/9/2
f 51/9/2 49/9/2 52/9/2
f 53/9/2 54/9/2 55/9/2
f 55/9/2 54/9/2 56/9/2
f 57/8/2 58/8/2 59/8/2
f 59/8/2 58/8/2 60/8/2
f 61/9/2 62/9/2 63/9/2
f 63/9/2 62/9/2 64/9/2
f 64/9/2 62/9/2 65/9/2
f 64/8/2 65/8/2 67/8/2
f 67/8/2 65/8/2 68/8/2
f 65/9/2 62/9/2 69/9/2
f 68/8/2 65/8/2 69/8/2
f 67/1/2 68/1/2 70/1/2
f 66/1/2 67/1/2 70/1/2
f 70/1/2 68/1/2 71/1/2
f 68/9/2 69/9/2 72/9/2
f 71/1/2 68/1/2 72/1/2
f 69/9/2 62/9/2 73/9/2
f 72/9/2 69/9/2 73/9/2
f 74/8/2 75/8/2 76/8/2
f 76/8/2 75/8/2 77/8/2
f 78/9/2 79/9/2 81/9/2
f 81/9/2 79/9/2 82/9/2
f 80/11/2 81/11/2 83/11/2
f 81/11/2 82/11/2 83/11/2
f 82/9/2 79/9/2 84/9/2
f 83/11/2 82/11/2 84/11/2
f 84/9/2 79/9/2 85/9/2
f 85/9/2 79/9/2 86/9/2
f 84/12/2 85/12/2 86/12/2
f 86/9/2 79/9/2 87/9/2
f 84/12/2 86/12/2 88/12/2
f 88/12/2 86/12/2 89/12/2
f 92/11/3 91/11/3 90/11/3
f 93/11/3 91/11/3 92/11/3
f 96/8/3 95/8/3 94/8/3
f 97/8/3 95/8/3 96/8/3
f 100/9/3 99/9/3 98/9/3
f 101/9/3 99/9/3 100/9/3
f 106/9/3 103/9/3 102/9/3
f 106/8/3 104/8/3 103/8/3
f 107/9/3 105/9/3 104/9/3
f 107/8/3 104/8/3 106/8/3
f 108/9/3 105/9/3 107/9/3
f 109/9/3 105/9/3 108/9/3
f 110/9/3 106/9/3 102/9/3
f 111/1/3 108/1/3 107/1/3
f 112/8/3 109/8/3 108/8/3
f 112/1/3 108/1/3 111/1/3
f 113/8/3 109/8/3 112/8/3
f 114/9/3 111/9/3 110/9/3
f 114/9/3 110/9/3 102/9/3
f 114/9/3 113/9/3 112/9/3
f 114/9/3 112/9/3 111/9/3
f 115/9/3 113/9/3 114/9/3
f 118/12/3 117/12/3 116/12/3
f 119/12/3 117/12/3 118/12/3
f 120/4/3 119/4/3 118/4/3
f 121/4/3 119/4/3 120/4/3
f 122/4/3 120/4/3 118/4/3
f 122/5/3 121/5/3 120/5/3
f 123/4/3 119/4/3 121/4/3
f 123/5/3 121/5/3 122/5/3
f 124/4/3 122/4/3 118/4/3
f 124/4/3 123/4/3 122/4/3
f 125/4/3 119/4/3 123/4/3
f 125/4/3 123/4/3 124/4/3
f 126/4/3 124/4/3 118/4/3
f 126/5/3 125/5/3 124/5/3
f 127/4/3 119/4/3 125/4/3
f 127/5/3 125/5/3 126/5/3
f 128/4/3 126/4/3 118/4/3
f 128/4/3 127/4/3 126/4/3
f 129/4/3 119/4/3 127/4/3
f 129/4/3 127/4/3 128/4/3
f 130/4/3 128/4/3 118/4/3
f 130/5/3 129/5/3 128/5/3
f 131/4/3 119/4/3 129/4/3
f 131/5/3 129/5/3 130/5/3
f 132/4/3 130/4/3 118/4/3
f 132/4/3 131/4/3 130/4/3
f 133/4/3 119/4/3 131/4/3
f 133/4/3 131/4/3 132/4/3
f 134/4/3 132/4/3 118/4/3
f 134/5/3 133/5/3 132/5/3
f 135/4/3 119/4/3 133/4/3
f 135/5/3 133/5/3 134/5/3
f 136/4/3 134/4/3 118/4/3
f 136/4/3 135/4/3 134/4/3
f 137/4/3 135/4/3 136/4/3
f 138/5/3 137/5/3 136/5/3
f 138/4/3 135/4/3 137/4/3
f 139/4/3 119/4/3 135/4/3
f 139/4/3 135/4/3 138/4/3
f 140/5/3 138/5/3 136/5/3
f 140/4/3 136/4/3 118/4/3
f 140/5/3 139/5/3 138/5/3
f 141/4/3 119/4/3 139/4/3
f 141/5/3 139/5/3 140/5/3
f 142/4/3 140/4/3 118/4/3
f 142/4/3 141/4/3 140/4/3
f 143/4/3 119/4/3 141/4/3
f 143/4/3 141/4/3 142/4/3
f 144/4/3 142/4/3 118/4/3
f 144/5/3 143/5/3 142/5/3
f 145/4/3 119/4/3 143/4/3
f 145/5/3 143/5/3 144/5/3
f 146/4/3 144/4/3 118/4/3
f 146/4/3 145/4/3 144/4/3
f 147/4/3 119/4/3 145/4/3
f 147/4/3 145/4/3 146/4/3
f 148/4/3 146/4/3 118/4/3
f 148/5/3 147/5/3 146/5/3
f 149/5/3 147/5/3 148/5/3
f 150/4/3 149/4/3 148/4/3
f 150/5/3 147/5/3 149/5/3
f 151/4/3 119/4/3 147/4/3
f 151/5/3 147/5/3 150/5/3
f 152/4/3 150/4/3 148/4/3
f 152/4/3 148/4/3 118/4/3
f 152/4/3 151/4/3 150/4/3
f 153/4/3 119/4/3 151/4/3
f 153/4/3 151/4/3 152/4/3
f 154/4/3 152/4/3 118/4/3
f 154/5/3 153/5/3 152/5/3
f 155/4/3 119/4/3 153/4/3
f 155/5/3 153/5/3 154/5/3
f 156/4/3 154/4/3 118/4/3
f 156/4/3 155/4/3 154/4/3
f 157/4/3 119/4/3 155/4/3
f 157/4/3 155/4/3 156/4/3
f 158/4/3 156/4/3 118/4/3
f 158/5/3 157/5/3 156/5/3
f 159/4/3 119/4/3 157/4/3
f 159/5/3 157/5/3 158/5/3
f 160/4/3 158/4/3 118/4/3
f 160/4/3 159/4/3 158/4/3
f 161/4/3 119/4/3 159/4/3
f 161/4/3 159/4/3 160/4/3
f 162/4/3 160/4/3 118/4/3
f 162/5/3 161/5/3 160/5/3
f 163/5/3 161/5/3 162/5/3
f 164/4/3 163/4/3 162/4/3
f 164/5/3 161/5/3 163/5/3
f 165/4/3 119/4/3 161/4/3
f 165/5/3 161/5/3 164/5/3
f 166/4/3 164/4/3 162/4/3
f 166/4/3 162/4/3 118/4/3
f 166/4/3 165/4/3 164/4/3
f 167/4/3 119/4/3 165/4/3
f 167/4/3 165/4/3 166/4/3
f 168/4/3 166/4/3 118/4/3
f 168/5/3 167/5/3 166/5/3
f 169/4/3 119/4/3 167/4/3
f 169/5/3 167/5/3 168/5/3
f 170/4/3 168/4/3 118/4/3
f 170/4/3 169/4/3 168/4/3
f 171/12/3 117/12/3 119/12/3
f 171/4/3 169/4/3 170/4/3
f 171/4/3 119/4/3 169/4/3
f 172/12/3 171/12/3 170/12/3
f 173/12/3 117/12/3 171/12/3
f 173/12/3 171/12/3 172/12/3
f 176/8/3 175/8/3 174/8/3
f 177/8/3 175/8/3 176/8/3
f 180/9/3 179/9/3 178/9/3
f 181/9/3 179/9/3 180/9/3
f 182/3/3 181/3/3 180/3/3
f 183/3/3 181/3/3 182/3/3
f 184/3/3 181/3/3 183/3/3
f 185/3/3 181/3/3 184/3/3
f 186/3/3 181/3/3 185/3/3
f 187/6/3 184/6/3 183/6/3
f 188/6/3 184/6/3 187/6/3
f 189/6/3 186/6/3 185/6/3
f 190/6/3 186/6/3 189/6/3
f 191/1/3 190/1/3 189/1/3
f 192/1/3 190/1/3 191/1/3
f 193/1/3 191/1/3 189/1/3
f 193/7/3 192/7/3 191/7/3
f 194/1/3 190/1/3 192/1/3
f 194/7/3 192/7/3 193/7/3
f 195/6/3 187/6/3 183/6/3
f 195/1/3 188/1/3 187/1/3
f 196/6/3 184/6/3 188/6/3
f 196/1/3 188/1/3 195/1/3
f 197/1/3 194/1/3 193/1/3
f 197/6/3 189/6/3 185/6/3
f 197/1/3 193/1/3 189/1/3
f 198/1/3 190/1/3 194/1/3
f 198/1/3 194/1/3 197/1/3
f 198/6/3 186/6/3 190/6/3
f 199/2/3 183/2/3 182/2/3
f 200/6/3 195/6/3 183/6/3
f 200/2/3 183/2/3 199/2/3
f 200/6/3 196/6/3 195/6/3
f 201/6/3 184/6/3 196/6/3
f 201/6/3 196/6/3 200/6/3
f 202/6/3 197/6/3 185/6/3
f 202/6/3 198/6/3 197/6/3
f 203/6/3 186/6/3 198/6/3
f 203/3/3 181/3/3 186/3/3
f 203/6/3 198/6/3 202/6/3
f 204/3/3 202/3/3 201/3/3
f 204/3/3 201/3/3 200/3/3
f 204/3/3 203/3/3 202/3/3
f 204/3/3 200/3/3 199/3/3
f 205/3/3 181/3/3 203/3/3
f 205/3/3 203/3/3 204/3/3
f 206/9/3 205/9/3 204/9/3
f 207/9/3 205/9/3 206/9/3
f 208/9/3 205/9/3 207/9/3
f 209/9/3 205/9/3 208/9/3
f 212/9/3 211/9/3 210/9/3
f 213/9/3 211/9/3 212/9/3
f 216/9/3 215/9/3 214/9/3
f 217/9/3 215/9/3 216/9/3
f 218/1/4 219/1/4 220/1/4
f 220/1/4 219/1/4 221/1/4
f 224/10/4 225/10/4 226/10/4
f 226/10/4 225/10/4 227/10/4
f 222/12/4 223/12/4 228/12/4
f 228/12/4 223/12/4 229/12/4
f 232/8/4 233/8/4 234/8/4
f 234/8/4 233/8/4 235/8/4
f 230/9/4 231/9/4 236/9/4
f 236/9/4 231/9/4 237/9/4
f 238/9/4 239/9/4 240/9/4
f 240/9/4 239/9/4 241/9/4
f 246/9/5 245/9/5 244/9/5
f 247/9/5 245/9/5 246/9/5
f 248/9/5 246/9/5 244/9/5
f 248/10/5 247/10/5 246/10/5
f 249/9/5 245/9/5 247/9/5
f 249/10/5 247/10/5 248/10/5
f 250/9/5 243/9/5 242/9/5
f 255/9/5 248/9/5 244/9/5
f 256/9/5 251/9/5 250/9/5
f 256/3/5 252/3/5 251/3/5
f 257/2/5 253/2/5 252/2/5
f 257/3/5 252/3/5 256/3/5
f 258/3/5 254/3/5 253/3/5
f 258/2/5 253/2/5 257/2/5
f 259/9/5 255/9/5 254/9/5
f 259/3/5 254/3/5 258/3/5
f 260/9/5 248/9/5 255/9/5
f 260/9/5 255/9/5 259/9/5
f 261/9/5 245/9/5 249/9/5
f 262/9/5 260/9/5 259/9/5
f 262/9/5 261/9/5 260/9/5
f 262/9/5 257/9/5 256/9/5
f 262/9/5 250/9/5 242/9/5
f 262/9/5 258/9/5 257/9/5
f 262/9/5 256/9/5 250/9/5
f 262/9/5 259/9/5 258/9/5
f 263/9/5 245/9/5 261/9/5
f 263/9/5 261/9/5 262/9/5
f 266/8/5 265/8/5 264/8/5
f 267/8/5 265/8/5 266/8/5
f 270/8/5 269/8/5 268/8/5
f 271/8/5 269/8/5 270/8/5
f 274/8/5 273/8/5 272/8/5
f 275/8/5 273/8/5 274/8/5
f 278/8/5 277/8/5 276/8/5
f 279/8/5 277/8/5 278/8/5
f 280/9/5 279/9/5 278/9/5
f 281/9/5 279/9/5 280/9/5
f 282/9/5 279/9/5 281/9/5
f 285/11/5 284/11/5 283/11/5
f 286/11/5 284/11/5 285/11/5
f 287/11/5 284/11/5 286/11/5
f 288/11/5 284/11/5 287/11/5
f 289/11/5 284/11/5 288/11/5
f 290/11/5 284/11/5 289/11/5
f 291/11/5 287/11/5 286/11/5
f 292/11/5 287/11/5 291/11/5
f 293/9/5 292/9/5 291/9/5
f 294/9/5 293/9/5 291/9/5
f 295/9/5 293/9/5 294/9/5
f 296/9/5 293/9/5 295/9/5
f 297/9/5 293/9/5 296/9/5
f 298/8/6 299/8/6 300/8/6
f 300/8/6 299/8/6 301/8/6
f 302/8/6 303/8/6 304/8/6
f 304/8/6 303/8/6 305/8/6
f 306/8/6 307/8/6 308/8/6
f 308/8/6 307/8/6 309/8/6
f 310/11/6 311/11/6 312/11/6
f 312/11/6 311/11/6 313/11/6
f 313/11/6 311/11/6 314/11/6
f 314/11/6 311/11/6 315/11/6
f 316/8/6 317/8/6 318/8/6
f 318/8/6 317/8/6 319/8/6
f 320/9/6 321/9/6 322/9/6
f 322/9/6 321/9/6 323/9/6
f 320/9/6 322/9/6 324/9/6
f 323/9/6 321/9/6 325/9/6
f 320/9/6 324/9/6 326/9/6
f 324/9/6 325/9/6 326/9/6
f 325/9/6 321/9/6 327/9/6
f 326/9/6 325/9/6 327/9/6
f 328/12/6 329/12/6 330/12/6
f 330/12/6 329/12/6 331/12/6
