# MagicaVoxel @ Ephtracy

# material
mtllib bld_story05.mtl
usemtl palette

# normals
vn -1 0 0
vn 1 0 0
vn 0 0 1
vn 0 0 -1
vn 0 -1 0
vn 0 1 0

# texcoords
vt 0.0917969 0.5
vt 0.142578 0.5
vt 0.306641 0.5
vt 0.970703 0.5
vt 0.974609 0.5
vt 0.978516 0.5
vt 0.986328 0.5

# verts
v -16 0 32
v -16 0 30
v -16 0 -28
v -16 20 32
v -16 20 30
v -16 20 -28
v -8 0 31
v -8 0 30
v -8 3 30
v -8 4 30
v -8 4 29
v -8 8 30
v -8 8 29
v -8 9 30
v -8 9 29
v -8 11 30
v -8 11 29
v -8 12 30
v -8 12 29
v -8 16 30
v -8 16 29
v -8 17 31
v -8 17 30
v -8 18 31
v -8 18 30
v -8 19 31
v -8 19 30
v 6 0 31
v 6 0 30
v 6 3 30
v 6 4 30
v 6 4 29
v 6 8 30
v 6 8 29
v 6 9 30
v 6 9 29
v 6 11 30
v 6 11 29
v 6 12 30
v 6 12 29
v 6 16 30
v 6 16 29
v 6 17 31
v 6 17 30
v 6 18 31
v 6 18 30
v 6 19 31
v 6 19 30
v 13 4 30
v 13 4 29
v 13 8 30
v 13 8 29
v 13 9 30
v 13 9 29
v 13 11 30
v 13 11 29
v 13 12 30
v 13 12 29
v 13 16 30
v 13 16 29
v 14 0 32
v 14 0 30
v 14 3 30
v 14 17 31
v 14 17 30
v 14 18 31
v 14 18 30
v 14 19 31
v 14 19 30
v 14 20 32
v 14 20 31
v 15 19 29
v 15 19 -27
v 15 20 29
v 15 20 -27
v -15 19 29
v -15 19 -27
v -15 20 29
v -15 20 -27
v -14 0 32
v -14 0 30
v -14 3 30
v -14 17 31
v -14 17 30
v -14 18 31
v -14 18 30
v -14 19 31
v -14 19 30
v -14 20 32
v -14 20 31
v -13 4 30
v -13 4 29
v -13 8 30
v -13 8 29
v -13 9 30
v -13 9 29
v -13 11 30
v -13 11 29
v -13 12 30
v -13 12 29
v -13 16 30
v -13 16 29
v -6 0 31
v -6 0 30
v -6 3 30
v -6 4 30
v -6 4 29
v -6 8 30
v -6 8 29
v -6 9 30
v -6 9 29
v -6 11 30
v -6 11 29
v -6 12 30
v -6 12 29
v -6 16 30
v -6 16 29
v -6 17 31
v -6 17 30
v -6 18 31
v -6 18 30
v -6 19 31
v -6 19 30
v 8 0 31
v 8 0 30
v 8 3 30
v 8 4 30
v 8 4 29
v 8 8 30
v 8 8 29
v 8 9 30
v 8 9 29
v 8 11 30
v 8 11 29
v 8 12 30
v 8 12 29
v 8 16 30
v 8 16 29
v 8 17 31
v 8 17 30
v 8 18 31
v 8 18 30
v 8 19 31
v 8 19 30
v 16 0 32
v 16 0 30
v 16 0 -28
v 16 20 32
v 16 20 30
v 16 20 -28
v -16 0 32
v -16 20 32
v -14 0 32
v -14 20 32
v 14 0 32
v 14 20 32
v 16 0 32
v 16 20 32
v -14 17 31
v -14 18 31
v -14 19 31
v -14 20 31
v -8 0 31
v -8 17 31
v -8 18 31
v -8 19 31
v -6 0 31
v -6 17 31
v -6 18 31
v -6 19 31
v 6 0 31
v 6 17 31
v 6 18 31
v 6 19 31
v 8 0 31
v 8 17 31
v 8 18 31
v 8 19 31
v 14 17 31
v 14 18 31
v 14 19 31
v 14 20 31
v -14 0 30
v -14 3 30
v -14 17 30
v -14 18 30
v -14 19 30
v -13 4 30
v -13 8 30
v -13 9 30
v -13 11 30
v -13 12 30
v -13 16 30
v -8 0 30
v -8 3 30
v -8 4 30
v -8 8 30
v -8 9 30
v -8 11 30
v -8 12 30
v -8 16 30
v -8 17 30
v -8 18 30
v -8 19 30
v -6 0 30
v -6 3 30
v -6 4 30
v -6 8 30
v -6 9 30
v -6 11 30
v -6 12 30
v -6 16 30
v -6 17 30
v -6 18 30
v -6 19 30
v 6 0 30
v 6 3 30
v 6 4 30
v 6 8 30
v 6 9 30
v 6 11 30
v 6 12 30
v 6 16 30
v 6 17 30
v 6 18 30
v 6 19 30
v 8 0 30
v 8 3 30
v 8 4 30
v 8 8 30
v 8 9 30
v 8 11 30
v 8 12 30
v 8 16 30
v 8 17 30
v 8 18 30
v 8 19 30
v 13 4 30
v 13 8 30
v 13 9 30
v 13 11 30
v 13 12 30
v 13 16 30
v 14 0 30
v 14 3 30
v 14 17 30
v 14 18 30
v 14 19 30
v -13 4 29
v -13 8 29
v -13 9 29
v -13 11 29
v -13 12 29
v -13 16 29
v -8 4 29
v -8 8 29
v -8 9 29
v -8 11 29
v -8 12 29
v -8 16 29
v -6 4 29
v -6 8 29
v -6 9 29
v -6 11 29
v -6 12 29
v -6 16 29
v 6 4 29
v 6 8 29
v 6 9 29
v 6 11 29
v 6 12 29
v 6 16 29
v 8 4 29
v 8 8 29
v 8 9 29
v 8 11 29
v 8 12 29
v 8 16 29
v 13 4 29
v 13 8 29
v 13 9 29
v 13 11 29
v 13 12 29
v 13 16 29
v -15 19 -27
v -15 20 -27
v 15 19 -27
v 15 20 -27
v -15 19 29
v -15 20 29
v 15 19 29
v 15 20 29
v -16 0 -28
v -16 20 -28
v 16 0 -28
v 16 20 -28
v -16 0 32
v -14 0 32
v 14 0 32
v 16 0 32
v -8 0 31
v -6 0 31
v 6 0 31
v 8 0 31
v -16 0 30
v -14 0 30
v -8 0 30
v -6 0 30
v 6 0 30
v 8 0 30
v 14 0 30
v 16 0 30
v -16 0 -28
v 16 0 -28
v -13 8 30
v -8 8 30
v -6 8 30
v 6 8 30
v 8 8 30
v 13 8 30
v -13 8 29
v -8 8 29
v -6 8 29
v 6 8 29
v 8 8 29
v 13 8 29
v -13 11 30
v -8 11 30
v -6 11 30
v 6 11 30
v 8 11 30
v 13 11 30
v -13 11 29
v -8 11 29
v -6 11 29
v 6 11 29
v 8 11 29
v 13 11 29
v -13 16 30
v -8 16 30
v -6 16 30
v 6 16 30
v 8 16 30
v 13 16 30
v -13 16 29
v -8 16 29
v -6 16 29
v 6 16 29
v 8 16 29
v 13 16 29
v -14 17 31
v -8 17 31
v -6 17 31
v 6 17 31
v 8 17 31
v 14 17 31
v -14 17 30
v -8 17 30
v -6 17 30
v 6 17 30
v 8 17 30
v 14 17 30
v -14 19 31
v -8 19 31
v -6 19 31
v 6 19 31
v 8 19 31
v 14 19 31
v -14 19 30
v -8 19 30
v -6 19 30
v 6 19 30
v 8 19 30
v 14 19 30
v -13 4 30
v -8 4 30
v -6 4 30
v 6 4 30
v 8 4 30
v 13 4 30
v -13 4 29
v -8 4 29
v -6 4 29
v 6 4 29
v 8 4 29
v 13 4 29
v -13 9 30
v -8 9 30
v -6 9 30
v 6 9 30
v 8 9 30
v 13 9 30
v -13 9 29
v -8 9 29
v -6 9 29
v 6 9 29
v 8 9 29
v 13 9 29
v -13 12 30
v -8 12 30
v -6 12 30
v 6 12 30
v 8 12 30
v 13 12 30
v -13 12 29
v -8 12 29
v -6 12 29
v 6 12 29
v 8 12 29
v 13 12 29
v -14 18 31
v -8 18 31
v -6 18 31
v 6 18 31
v 8 18 31
v 14 18 31
v -14 18 30
v -8 18 30
v -6 18 30
v 6 18 30
v 8 18 30
v 14 18 30
v -15 19 29
v 15 19 29
v -15 19 -27
v 15 19 -27
v -16 20 32
v -14 20 32
v 14 20 32
v 16 20 32
v -14 20 31
v 14 20 31
v -16 20 30
v -14 20 30
v 14 20 30
v 16 20 30
v -15 20 29
v 15 20 29
v -15 20 -27
v 15 20 -27
v -16 20 -28
v 16 20 -28

# faces
f 4/4/1 2/4/1 1/4/1
f 5/5/1 3/5/1 2/5/1
f 5/4/1 2/4/1 4/4/1
f 6/5/1 3/5/1 5/5/1
f 9/6/1 8/6/1 7/6/1
f 10/6/1 9/6/1 7/6/1
f 12/6/1 10/6/1 7/6/1
f 12/6/1 11/6/1 10/6/1
f 13/6/1 11/6/1 12/6/1
f 14/6/1 12/6/1 7/6/1
f 16/6/1 14/6/1 7/6/1
f 16/6/1 15/6/1 14/6/1
f 17/6/1 15/6/1 16/6/1
f 18/6/1 16/6/1 7/6/1
f 20/6/1 18/6/1 7/6/1
f 20/6/1 19/6/1 18/6/1
f 21/6/1 19/6/1 20/6/1
f 22/6/1 20/6/1 7/6/1
f 23/6/1 20/6/1 22/6/1
f 26/6/1 25/6/1 24/6/1
f 27/6/1 25/6/1 26/6/1
f 30/6/1 29/6/1 28/6/1
f 31/6/1 30/6/1 28/6/1
f 33/6/1 31/6/1 28/6/1
f 33/6/1 32/6/1 31/6/1
f 34/6/1 32/6/1 33/6/1
f 35/6/1 33/6/1 28/6/1
f 37/6/1 35/6/1 28/6/1
f 37/6/1 36/6/1 35/6/1
f 38/6/1 36/6/1 37/6/1
f 39/6/1 37/6/1 28/6/1
f 41/6/1 39/6/1 28/6/1
f 41/6/1 40/6/1 39/6/1
f 42/6/1 40/6/1 41/6/1
f 43/6/1 41/6/1 28/6/1
f 44/6/1 41/6/1 43/6/1
f 47/6/1 46/6/1 45/6/1
f 48/6/1 46/6/1 47/6/1
f 51/6/1 50/6/1 49/6/1
f 52/6/1 50/6/1 51/6/1
f 55/6/1 54/6/1 53/6/1
f 56/6/1 54/6/1 55/6/1
f 59/6/1 58/6/1 57/6/1
f 60/6/1 58/6/1 59/6/1
f 63/4/1 62/4/1 61/4/1
f 64/4/1 63/4/1 61/4/1
f 65/4/1 63/4/1 64/4/1
f 66/4/1 64/4/1 61/4/1
f 68/4/1 66/4/1 61/4/1
f 68/4/1 67/4/1 66/4/1
f 69/4/1 67/4/1 68/4/1
f 70/4/1 68/4/1 61/4/1
f 71/4/1 68/4/1 70/4/1
f 74/5/1 73/5/1 72/5/1
f 75/5/1 73/5/1 74/5/1
f 76/5/2 77/5/2 78/5/2
f 78/5/2 77/5/2 79/5/2
f 80/4/2 81/4/2 82/4/2
f 80/4/2 82/4/2 83/4/2
f 83/4/2 82/4/2 84/4/2
f 80/4/2 83/4/2 85/4/2
f 80/4/2 85/4/2 87/4/2
f 85/4/2 86/4/2 87/4/2
f 87/4/2 86/4/2 88/4/2
f 80/4/2 87/4/2 89/4/2
f 89/4/2 87/4/2 90/4/2
f 91/6/2 92/6/2 93/6/2
f 93/6/2 92/6/2 94/6/2
f 95/6/2 96/6/2 97/6/2
f 97/6/2 96/6/2 98/6/2
f 99/6/2 100/6/2 101/6/2
f 101/6/2 100/6/2 102/6/2
f 103/6/2 104/6/2 105/6/2
f 103/6/2 105/6/2 106/6/2
f 103/6/2 106/6/2 108/6/2
f 106/6/2 107/6/2 108/6/2
f 108/6/2 107/6/2 109/6/2
f 103/6/2 108/6/2 110/6/2
f 103/6/2 110/6/2 112/6/2
f 110/6/2 111/6/2 112/6/2
f 112/6/2 111/6/2 113/6/2
f 103/6/2 112/6/2 114/6/2
f 103/6/2 114/6/2 116/6/2
f 114/6/2 115/6/2 116/6/2
f 116/6/2 115/6/2 117/6/2
f 103/6/2 116/6/2 118/6/2
f 118/6/2 116/6/2 119/6/2
f 120/6/2 121/6/2 122/6/2
f 122/6/2 121/6/2 123/6/2
f 124/6/2 125/6/2 126/6/2
f 124/6/2 126/6/2 127/6/2
f 124/6/2 127/6/2 129/6/2
f 127/6/2 128/6/2 129/6/2
f 129/6/2 128/6/2 130/6/2
f 124/6/2 129/6/2 131/6/2
f 124/6/2 131/6/2 133/6/2
f 131/6/2 132/6/2 133/6/2
f 133/6/2 132/6/2 134/6/2
f 124/6/2 133/6/2 135/6/2
f 124/6/2 135/6/2 137/6/2
f 135/6/2 136/6/2 137/6/2
f 137/6/2 136/6/2 138/6/2
f 124/6/2 137/6/2 139/6/2
f 139/6/2 137/6/2 140/6/2
f 141/6/2 142/6/2 143/6/2
f 143/6/2 142/6/2 144/6/2
f 145/4/2 146/4/2 148/4/2
f 146/5/2 147/5/2 149/5/2
f 148/4/2 146/4/2 149/4/2
f 149/5/2 147/5/2 150/5/2
f 153/4/3 152/4/3 151/4/3
f 154/4/3 152/4/3 153/4/3
f 157/4/3 156/4/3 155/4/3
f 158/4/3 156/4/3 157/4/3
f 164/6/3 160/6/3 159/6/3
f 165/6/3 160/6/3 164/6/3
f 166/6/3 162/6/3 161/6/3
f 167/6/3 165/6/3 164/6/3
f 167/6/3 166/6/3 165/6/3
f 167/6/3 164/6/3 163/6/3
f 168/6/3 166/6/3 167/6/3
f 169/6/3 166/6/3 168/6/3
f 170/6/3 162/6/3 166/6/3
f 170/6/3 166/6/3 169/6/3
f 172/6/3 169/6/3 168/6/3
f 173/6/3 169/6/3 172/6/3
f 174/6/3 162/6/3 170/6/3
f 175/6/3 173/6/3 172/6/3
f 175/6/3 174/6/3 173/6/3
f 175/6/3 172/6/3 171/6/3
f 176/6/3 174/6/3 175/6/3
f 177/6/3 174/6/3 176/6/3
f 178/6/3 162/6/3 174/6/3
f 178/6/3 174/6/3 177/6/3
f 179/6/3 177/6/3 176/6/3
f 180/6/3 177/6/3 179/6/3
f 181/6/3 162/6/3 178/6/3
f 182/6/3 162/6/3 181/6/3
f 188/6/3 185/6/3 184/6/3
f 189/6/3 185/6/3 188/6/3
f 190/6/3 185/6/3 189/6/3
f 191/6/3 185/6/3 190/6/3
f 192/6/3 185/6/3 191/6/3
f 193/6/3 185/6/3 192/6/3
f 194/5/3 184/5/3 183/5/3
f 195/6/3 188/6/3 184/6/3
f 195/5/3 184/5/3 194/5/3
f 196/6/3 188/6/3 195/6/3
f 197/6/3 190/6/3 189/6/3
f 198/6/3 190/6/3 197/6/3
f 199/6/3 192/6/3 191/6/3
f 200/6/3 192/6/3 199/6/3
f 201/6/3 185/6/3 193/6/3
f 202/6/3 185/6/3 201/6/3
f 203/6/3 187/6/3 186/6/3
f 204/6/3 187/6/3 203/6/3
f 216/5/3 206/5/3 205/5/3
f 217/6/3 207/6/3 206/6/3
f 217/5/3 206/5/3 216/5/3
f 218/6/3 207/6/3 217/6/3
f 219/6/3 209/6/3 208/6/3
f 220/6/3 209/6/3 219/6/3
f 221/6/3 211/6/3 210/6/3
f 222/6/3 211/6/3 221/6/3
f 223/6/3 213/6/3 212/6/3
f 224/6/3 213/6/3 223/6/3
f 225/6/3 215/6/3 214/6/3
f 226/6/3 215/6/3 225/6/3
f 238/6/3 229/6/3 228/6/3
f 239/6/3 231/6/3 230/6/3
f 240/6/3 231/6/3 239/6/3
f 241/6/3 233/6/3 232/6/3
f 242/6/3 233/6/3 241/6/3
f 243/6/3 235/6/3 234/6/3
f 244/5/3 228/5/3 227/5/3
f 245/6/3 243/6/3 242/6/3
f 245/5/3 228/5/3 244/5/3
f 245/6/3 238/6/3 228/6/3
f 245/6/3 240/6/3 239/6/3
f 245/6/3 242/6/3 241/6/3
f 245/6/3 241/6/3 240/6/3
f 245/6/3 239/6/3 238/6/3
f 246/6/3 235/6/3 243/6/3
f 246/6/3 243/6/3 245/6/3
f 247/6/3 237/6/3 236/6/3
f 248/6/3 237/6/3 247/6/3
f 255/3/3 250/3/3 249/3/3
f 256/3/3 250/3/3 255/3/3
f 257/3/3 252/3/3 251/3/3
f 258/3/3 252/3/3 257/3/3
f 259/3/3 254/3/3 253/3/3
f 260/3/3 254/3/3 259/3/3
f 267/3/3 262/3/3 261/3/3
f 268/3/3 262/3/3 267/3/3
f 269/3/3 264/3/3 263/3/3
f 270/3/3 264/3/3 269/3/3
f 271/3/3 266/3/3 265/3/3
f 272/3/3 266/3/3 271/3/3
f 279/3/3 274/3/3 273/3/3
f 280/3/3 274/3/3 279/3/3
f 281/3/3 276/3/3 275/3/3
f 282/3/3 276/3/3 281/3/3
f 283/3/3 278/3/3 277/3/3
f 284/3/3 278/3/3 283/3/3
f 287/5/3 286/5/3 285/5/3
f 288/5/3 286/5/3 287/5/3
f 289/5/4 290/5/4 291/5/4
f 291/5/4 290/5/4 292/5/4
f 293/5/4 294/5/4 295/5/4
f 295/5/4 294/5/4 296/5/4
f 305/4/5 298/4/5 297/4/5
f 306/4/5 298/4/5 305/4/5
f 307/6/5 302/6/5 301/6/5
f 308/6/5 302/6/5 307/6/5
f 309/6/5 304/6/5 303/6/5
f 310/6/5 304/6/5 309/6/5
f 311/4/5 300/4/5 299/4/5
f 312/4/5 300/4/5 311/4/5
f 313/5/5 308/5/5 307/5/5
f 313/5/5 310/5/5 309/5/5
f 313/5/5 312/5/5 311/5/5
f 313/5/5 311/5/5 310/5/5
f 313/5/5 306/5/5 305/5/5
f 313/5/5 309/5/5 308/5/5
f 313/5/5 307/5/5 306/5/5
f 314/5/5 312/5/5 313/5/5
f 321/6/5 316/6/5 315/6/5
f 322/6/5 316/6/5 321/6/5
f 323/6/5 318/6/5 317/6/5
f 324/6/5 318/6/5 323/6/5
f 325/6/5 320/6/5 319/6/5
f 326/6/5 320/6/5 325/6/5
f 333/6/5 328/6/5 327/6/5
f 334/6/5 328/6/5 333/6/5
f 335/6/5 330/6/5 329/6/5
f 336/6/5 330/6/5 335/6/5
f 337/6/5 332/6/5 331/6/5
f 338/6/5 332/6/5 337/6/5
f 345/6/5 340/6/5 339/6/5
f 346/6/5 340/6/5 345/6/5
f 347/6/5 342/6/5 341/6/5
f 348/6/5 342/6/5 347/6/5
f 349/6/5 344/6/5 343/6/5
f 350/6/5 344/6/5 349/6/5
f 357/6/5 352/6/5 351/6/5
f 358/6/5 352/6/5 357/6/5
f 359/6/5 354/6/5 353/6/5
f 360/6/5 354/6/5 359/6/5
f 361/6/5 356/6/5 355/6/5
f 362/6/5 356/6/5 361/6/5
f 369/6/5 364/6/5 363/6/5
f 370/6/5 364/6/5 369/6/5
f 371/6/5 366/6/5 365/6/5
f 372/6/5 366/6/5 371/6/5
f 373/6/5 368/6/5 367/6/5
f 374/6/5 368/6/5 373/6/5
f 375/6/6 376/6/6 381/6/6
f 381/6/6 376/6/6 382/6/6
f 377/6/6 378/6/6 383/6/6
f 383/6/6 378/6/6 384/6/6
f 379/6/6 380/6/6 385/6/6
f 385/6/6 380/6/6 386/6/6
f 387/6/6 388/6/6 393/6/6
f 393/6/6 388/6/6 394/6/6
f 389/6/6 390/6/6 395/6/6
f 395/6/6 390/6/6 396/6/6
f 391/6/6 392/6/6 397/6/6
f 397/6/6 392/6/6 398/6/6
f 399/6/6 400/6/6 405/6/6
f 405/6/6 400/6/6 406/6/6
f 401/6/6 402/6/6 407/6/6
f 407/6/6 402/6/6 408/6/6
f 403/6/6 404/6/6 409/6/6
f 409/6/6 404/6/6 410/6/6
f 411/6/6 412/6/6 417/6/6
f 417/6/6 412/6/6 418/6/6
f 413/6/6 414/6/6 419/6/6
f 419/6/6 414/6/6 420/6/6
f 415/6/6 416/6/6 421/6/6
f 421/6/6 416/6/6 422/6/6
f 423/4/6 424/4/6 425/4/6
f 425/4/6 424/4/6 426/4/6
f 427/4/6 428/4/6 431/4/6
f 429/4/6 430/4/6 432/4/6
f 427/4/6 431/4/6 433/4/6
f 431/6/6 432/6/6 434/6/6
f 433/4/6 431/4/6 434/4/6
f 432/4/6 430/4/6 435/4/6
f 434/6/6 432/6/6 435/6/6
f 435/4/6 430/4/6 436/4/6
f 433/5/6 434/5/6 437/5/6
f 434/5/6 435/5/6 437/5/6
f 435/5/6 436/5/6 437/5/6
f 437/5/6 436/5/6 438/5/6
f 433/5/6 437/5/6 439/5/6
f 438/5/6 436/5/6 440/5/6
f 433/5/6 439/5/6 441/5/6
f 439/5/6 440/5/6 441/5/6
f 440/5/6 436/5/6 442/5/6
f 441/5/6 440/5/6 442/5/6
