# MagicaVoxel @ Ephtracy

# material
mtllib bld_store06.mtl
usemtl palette

# normals
vn -1 0 0
vn 1 0 0
vn 0 0 1
vn 0 0 -1
vn 0 -1 0
vn 0 1 0

# texcoords
vt 0.142578 0.5
vt 0.177734 0.5
vt 0.201172 0.5
vt 0.373047 0.5
vt 0.958984 0.5
vt 0.970703 0.5
vt 0.974609 0.5
vt 0.978516 0.5
vt 0.982422 0.5
vt 0.990234 0.5

# verts
v -32 0 30
v -32 0 -32
v -32 15 32
v -32 15 30
v -32 15 29
v -32 17 32
v -32 17 29
v -32 17 28
v -32 23 28
v -32 23 -32
v -32 24 29
v -32 24 28
v -27 7 21
v -27 7 20
v -27 8 21
v -27 8 20
v -13 0 30
v -13 0 20
v -13 3 30
v -13 3 20
v -13 4 30
v -13 4 29
v -13 4 21
v -13 4 20
v -13 5 29
v -13 5 21
v -13 15 30
v -13 15 29
v -13 15 21
v -13 15 20
v -12 3 31
v -12 3 30
v -12 4 31
v -12 4 30
v 5 0 28
v 5 0 19
v 5 3 28
v 5 3 27
v 5 4 29
v 5 4 27
v 5 5 29
v 5 15 29
v 5 15 19
v 31 22 28
v 31 22 -30
v 31 22 -31
v 31 23 28
v 31 23 -31
v -31 0 30
v -31 0 20
v -31 15 30
v -31 15 29
v -31 15 20
v -31 22 28
v -31 22 -30
v -31 22 -31
v -31 23 28
v -31 23 -31
v -17 7 21
v -17 7 20
v -17 8 21
v -17 8 20
v -12 0 28
v -12 0 19
v -12 3 28
v -12 3 27
v -12 3 20
v -12 4 29
v -12 4 27
v -12 4 21
v -12 4 20
v -12 5 29
v -12 5 21
v -12 15 29
v -12 15 21
v -12 15 19
v 31 3 31
v 31 3 30
v 31 4 31
v 31 4 30
v 32 0 30
v 32 0 -32
v 32 15 32
v 32 15 30
v 32 15 29
v 32 17 32
v 32 17 29
v 32 17 28
v 32 23 28
v 32 23 -32
v 32 24 29
v 32 24 28
v -32 15 32
v -32 17 32
v 32 15 32
v 32 17 32
v -12 3 31
v -12 4 31
v 31 3 31
v 31 4 31
v -32 0 30
v -32 15 30
v -31 0 30
v -31 15 30
v -13 0 30
v -13 3 30
v -13 4 30
v -13 15 30
v -12 3 30
v -12 4 30
v -12 5 30
v -12 15 30
v 0 4 30
v 0 5 30
v 1 4 30
v 1 5 30
v 12 4 30
v 12 5 30
v 13 4 30
v 13 5 30
v 31 3 30
v 31 4 30
v 31 5 30
v 31 15 30
v 32 0 30
v 32 15 30
v -32 17 29
v -32 24 29
v -31 17 29
v -31 23 29
v 31 17 29
v 31 23 29
v 32 17 29
v 32 24 29
v -27 7 21
v -27 8 21
v -17 7 21
v -17 8 21
v -31 0 20
v -31 15 20
v -28 0 20
v -28 15 20
v -27 0 20
v -27 1 20
v -27 7 20
v -27 8 20
v -27 14 20
v -17 0 20
v -17 1 20
v -17 7 20
v -17 8 20
v -17 14 20
v -16 0 20
v -16 15 20
v -13 0 20
v -13 3 20
v -13 4 20
v -13 15 20
v -12 0 19
v -12 15 19
v 5 0 19
v 5 15 19
v -31 22 -31
v -31 23 -31
v 31 22 -31
v 31 23 -31
v -12 4 29
v -12 5 29
v -12 15 29
v 0 4 29
v 0 5 29
v 1 4 29
v 1 5 29
v 5 4 29
v 5 5 29
v 5 15 29
v -32 23 28
v -32 24 28
v -31 22 28
v -31 23 28
v -12 0 28
v -12 3 28
v 5 0 28
v 5 3 28
v 31 22 28
v 31 23 28
v 32 23 28
v 32 24 28
v -12 3 27
v -12 4 27
v 5 3 27
v 5 4 27
v -32 0 -32
v -32 23 -32
v 32 0 -32
v 32 23 -32
v -32 0 30
v -31 0 30
v -13 0 30
v 32 0 30
v -12 0 29
v 5 0 29
v 9 0 29
v 25 0 29
v -12 0 28
v 5 0 28
v 9 0 28
v 25 0 28
v -31 0 20
v -28 0 20
v -27 0 20
v -17 0 20
v -16 0 20
v -13 0 20
v -31 0 19
v -28 0 19
v -27 0 19
v -17 0 19
v -16 0 19
v -12 0 19
v 5 0 19
v 31 0 19
v -31 0 -30
v 31 0 -30
v -32 0 -32
v 32 0 -32
v -12 3 31
v 31 3 31
v -12 3 30
v 31 3 30
v -12 3 28
v 5 3 28
v -12 3 27
v 5 3 27
v -27 7 21
v -17 7 21
v -27 7 20
v -17 7 20
v -32 15 32
v 32 15 32
v -32 15 30
v -31 15 30
v -13 15 30
v -12 15 30
v 31 15 30
v 32 15 30
v -31 15 29
v -13 15 29
v -12 15 29
v 5 15 29
v -13 15 21
v -12 15 21
v -31 15 20
v -28 15 20
v -16 15 20
v -13 15 20
v -12 15 19
v 5 15 19
v -12 4 31
v 31 4 31
v -12 4 30
v 0 4 30
v 1 4 30
v 12 4 30
v 13 4 30
v 31 4 30
v -12 4 29
v 0 4 29
v 1 4 29
v 5 4 29
v -12 4 27
v 5 4 27
v -27 8 21
v -17 8 21
v -27 8 20
v -17 8 20
v -32 17 32
v 32 17 32
v -32 17 29
v -31 17 29
v 31 17 29
v 32 17 29
v -31 22 28
v 31 22 28
v -31 22 -30
v 31 22 -30
v -31 22 -31
v 31 22 -31
v -32 23 28
v -31 23 28
v 31 23 28
v 32 23 28
v -31 23 -31
v 31 23 -31
v -32 23 -32
v 32 23 -32
v -32 24 29
v 32 24 29
v -32 24 28
v 32 24 28

# faces
f 4/7/1 2/7/1 1/7/1
f 5/7/1 2/7/1 4/7/1
f 6/9/1 4/9/1 3/9/1
f 6/9/1 5/9/1 4/9/1
f 7/7/1 2/7/1 5/7/1
f 7/9/1 5/9/1 6/9/1
f 8/7/1 2/7/1 7/7/1
f 9/7/1 2/7/1 8/7/1
f 9/10/1 8/10/1 7/10/1
f 10/7/1 2/7/1 9/7/1
f 11/10/1 9/10/1 7/10/1
f 12/10/1 9/10/1 11/10/1
f 15/6/1 14/6/1 13/6/1
f 16/6/1 14/6/1 15/6/1
f 19/7/1 18/7/1 17/7/1
f 20/7/1 18/7/1 19/7/1
f 21/6/1 20/6/1 19/6/1
f 22/6/1 20/6/1 21/6/1
f 23/6/1 20/6/1 22/6/1
f 24/6/1 20/6/1 23/6/1
f 25/7/1 22/7/1 21/7/1
f 25/1/1 23/1/1 22/1/1
f 26/7/1 24/7/1 23/7/1
f 26/1/1 23/1/1 25/1/1
f 27/7/1 25/7/1 21/7/1
f 28/5/1 26/5/1 25/5/1
f 28/7/1 25/7/1 27/7/1
f 29/7/1 24/7/1 26/7/1
f 29/5/1 26/5/1 28/5/1
f 30/7/1 24/7/1 29/7/1
f 33/6/1 32/6/1 31/6/1
f 34/6/1 32/6/1 33/6/1
f 37/7/1 36/7/1 35/7/1
f 38/7/1 36/7/1 37/7/1
f 40/7/1 36/7/1 38/7/1
f 41/7/1 40/7/1 39/7/1
f 42/7/1 40/7/1 41/7/1
f 43/7/1 36/7/1 40/7/1
f 43/7/1 40/7/1 42/7/1
f 47/7/1 45/7/1 44/7/1
f 47/7/1 46/7/1 45/7/1
f 48/7/1 46/7/1 47/7/1
f 49/7/2 50/7/2 51/7/2
f 51/7/2 50/7/2 52/7/2
f 52/7/2 50/7/2 53/7/2
f 54/7/2 55/7/2 57/7/2
f 55/7/2 56/7/2 57/7/2
f 57/7/2 56/7/2 58/7/2
f 59/6/2 60/6/2 61/6/2
f 61/6/2 60/6/2 62/6/2
f 63/7/2 64/7/2 65/7/2
f 65/7/2 64/7/2 66/7/2
f 66/7/2 64/7/2 67/7/2
f 66/6/2 67/6/2 69/6/2
f 69/6/2 67/6/2 70/6/2
f 67/7/2 64/7/2 71/7/2
f 70/6/2 67/6/2 71/6/2
f 69/1/2 70/1/2 72/1/2
f 68/1/2 69/1/2 72/1/2
f 70/7/2 71/7/2 73/7/2
f 72/1/2 70/1/2 73/1/2
f 72/5/2 73/5/2 74/5/2
f 73/7/2 71/7/2 75/7/2
f 74/5/2 73/5/2 75/5/2
f 71/7/2 64/7/2 76/7/2
f 75/7/2 71/7/2 76/7/2
f 77/6/2 78/6/2 79/6/2
f 79/6/2 78/6/2 80/6/2
f 81/7/2 82/7/2 84/7/2
f 84/7/2 82/7/2 85/7/2
f 83/9/2 84/9/2 86/9/2
f 84/9/2 85/9/2 86/9/2
f 85/7/2 82/7/2 87/7/2
f 86/9/2 85/9/2 87/9/2
f 87/7/2 82/7/2 88/7/2
f 88/7/2 82/7/2 89/7/2
f 87/10/2 88/10/2 89/10/2
f 89/7/2 82/7/2 90/7/2
f 87/10/2 89/10/2 91/10/2
f 91/10/2 89/10/2 92/10/2
f 95/9/3 94/9/3 93/9/3
f 96/9/3 94/9/3 95/9/3
f 99/6/3 98/6/3 97/6/3
f 100/6/3 98/6/3 99/6/3
f 103/7/3 102/7/3 101/7/3
f 104/7/3 102/7/3 103/7/3
f 109/7/3 106/7/3 105/7/3
f 109/6/3 107/6/3 106/6/3
f 110/7/3 108/7/3 107/7/3
f 110/6/3 107/6/3 109/6/3
f 111/7/3 108/7/3 110/7/3
f 112/7/3 108/7/3 111/7/3
f 113/1/3 111/1/3 110/1/3
f 114/5/3 112/5/3 111/5/3
f 114/1/3 111/1/3 113/1/3
f 115/7/3 114/7/3 113/7/3
f 116/5/3 112/5/3 114/5/3
f 116/7/3 114/7/3 115/7/3
f 117/1/3 116/1/3 115/1/3
f 118/5/3 112/5/3 116/5/3
f 118/1/3 116/1/3 117/1/3
f 119/7/3 118/7/3 117/7/3
f 120/5/3 112/5/3 118/5/3
f 120/7/3 118/7/3 119/7/3
f 121/7/3 109/7/3 105/7/3
f 122/1/3 120/1/3 119/1/3
f 123/5/3 112/5/3 120/5/3
f 123/1/3 120/1/3 122/1/3
f 124/5/3 112/5/3 123/5/3
f 125/7/3 122/7/3 121/7/3
f 125/7/3 121/7/3 105/7/3
f 125/7/3 124/7/3 123/7/3
f 125/7/3 123/7/3 122/7/3
f 126/7/3 124/7/3 125/7/3
f 129/10/3 128/10/3 127/10/3
f 130/10/3 128/10/3 129/10/3
f 131/2/3 130/2/3 129/2/3
f 132/10/3 128/10/3 130/10/3
f 132/2/3 130/2/3 131/2/3
f 133/10/3 132/10/3 131/10/3
f 134/10/3 128/10/3 132/10/3
f 134/10/3 132/10/3 133/10/3
f 137/6/3 136/6/3 135/6/3
f 138/6/3 136/6/3 137/6/3
f 141/7/3 140/7/3 139/7/3
f 142/7/3 140/7/3 141/7/3
f 143/4/3 142/4/3 141/4/3
f 144/4/3 142/4/3 143/4/3
f 145/4/3 142/4/3 144/4/3
f 146/4/3 142/4/3 145/4/3
f 147/4/3 142/4/3 146/4/3
f 148/3/3 144/3/3 143/3/3
f 149/5/3 145/5/3 144/5/3
f 149/3/3 144/3/3 148/3/3
f 150/5/3 145/5/3 149/5/3
f 151/5/3 147/5/3 146/5/3
f 152/4/3 142/4/3 147/4/3
f 152/5/3 147/5/3 151/5/3
f 153/4/3 151/4/3 150/4/3
f 153/4/3 150/4/3 149/4/3
f 153/4/3 152/4/3 151/4/3
f 153/4/3 149/4/3 148/4/3
f 154/4/3 142/4/3 152/4/3
f 154/4/3 152/4/3 153/4/3
f 155/7/3 154/7/3 153/7/3
f 156/7/3 154/7/3 155/7/3
f 157/7/3 154/7/3 156/7/3
f 158/7/3 154/7/3 157/7/3
f 161/6/3 160/6/3 159/6/3
f 162/6/3 160/6/3 161/6/3
f 165/7/3 164/7/3 163/7/3
f 166/7/3 164/7/3 165/7/3
f 167/1/4 168/1/4 170/1/4
f 168/5/4 169/5/4 171/5/4
f 170/1/4 168/1/4 171/1/4
f 170/7/4 171/7/4 172/7/4
f 171/5/4 169/5/4 173/5/4
f 172/7/4 171/7/4 173/7/4
f 172/1/4 173/1/4 174/1/4
f 173/5/4 169/5/4 175/5/4
f 174/1/4 173/1/4 175/1/4
f 175/5/4 169/5/4 176/5/4
f 177/10/4 178/10/4 180/10/4
f 181/8/4 182/8/4 183/8/4
f 183/8/4 182/8/4 184/8/4
f 179/2/4 180/2/4 185/2/4
f 180/10/4 178/10/4 186/10/4
f 185/2/4 180/2/4 186/2/4
f 186/10/4 178/10/4 187/10/4
f 187/10/4 178/10/4 188/10/4
f 189/6/4 190/6/4 191/6/4
f 191/6/4 190/6/4 192/6/4
f 193/7/4 194/7/4 195/7/4
f 195/7/4 194/7/4 196/7/4
f 201/7/5 200/7/5 199/7/5
f 202/7/5 200/7/5 201/7/5
f 203/7/5 200/7/5 202/7/5
f 204/7/5 200/7/5 203/7/5
f 205/7/5 201/7/5 199/7/5
f 205/8/5 202/8/5 201/8/5
f 206/7/5 203/7/5 202/7/5
f 206/8/5 202/8/5 205/8/5
f 207/8/5 204/8/5 203/8/5
f 207/7/5 203/7/5 206/7/5
f 208/7/5 200/7/5 204/7/5
f 208/8/5 204/8/5 207/8/5
f 209/7/5 198/7/5 197/7/5
f 214/7/5 205/7/5 199/7/5
f 215/7/5 209/7/5 197/7/5
f 215/7/5 210/7/5 209/7/5
f 216/4/5 211/4/5 210/4/5
f 216/7/5 210/7/5 215/7/5
f 217/3/5 212/3/5 211/3/5
f 217/4/5 211/4/5 216/4/5
f 218/4/5 213/4/5 212/4/5
f 218/3/5 212/3/5 217/3/5
f 219/7/5 214/7/5 213/7/5
f 219/4/5 213/4/5 218/4/5
f 220/7/5 205/7/5 214/7/5
f 220/7/5 214/7/5 219/7/5
f 221/7/5 207/7/5 206/7/5
f 221/7/5 208/7/5 207/7/5
f 222/7/5 200/7/5 208/7/5
f 222/7/5 208/7/5 221/7/5
f 223/6/5 221/6/5 220/6/5
f 223/6/5 220/6/5 219/6/5
f 223/6/5 222/6/5 221/6/5
f 223/6/5 217/6/5 216/6/5
f 223/6/5 216/6/5 215/6/5
f 223/7/5 215/7/5 197/7/5
f 223/6/5 219/6/5 218/6/5
f 223/6/5 218/6/5 217/6/5
f 224/7/5 200/7/5 222/7/5
f 224/6/5 222/6/5 223/6/5
f 225/7/5 223/7/5 197/7/5
f 225/7/5 224/7/5 223/7/5
f 226/7/5 200/7/5 224/7/5
f 226/7/5 224/7/5 225/7/5
f 229/6/5 228/6/5 227/6/5
f 230/6/5 228/6/5 229/6/5
f 233/6/5 232/6/5 231/6/5
f 234/6/5 232/6/5 233/6/5
f 237/6/5 236/6/5 235/6/5
f 238/6/5 236/6/5 237/6/5
f 241/9/5 240/9/5 239/9/5
f 242/9/5 240/9/5 241/9/5
f 243/9/5 240/9/5 242/9/5
f 244/9/5 240/9/5 243/9/5
f 245/9/5 240/9/5 244/9/5
f 246/9/5 240/9/5 245/9/5
f 247/9/5 243/9/5 242/9/5
f 248/9/5 243/9/5 247/9/5
f 251/7/5 248/7/5 247/7/5
f 252/10/5 250/10/5 249/10/5
f 253/7/5 251/7/5 247/7/5
f 254/7/5 251/7/5 253/7/5
f 255/7/5 251/7/5 254/7/5
f 256/7/5 251/7/5 255/7/5
f 257/10/5 250/10/5 252/10/5
f 258/10/5 250/10/5 257/10/5
f 259/6/6 260/6/6 261/6/6
f 261/6/6 260/6/6 262/6/6
f 262/6/6 260/6/6 263/6/6
f 263/6/6 260/6/6 264/6/6
f 264/6/6 260/6/6 265/6/6
f 265/6/6 260/6/6 266/6/6
f 267/6/6 268/6/6 271/6/6
f 269/6/6 270/6/6 271/6/6
f 268/6/6 269/6/6 271/6/6
f 271/6/6 270/6/6 272/6/6
f 273/6/6 274/6/6 275/6/6
f 275/6/6 274/6/6 276/6/6
f 277/9/6 278/9/6 279/9/6
f 279/9/6 278/9/6 280/9/6
f 280/9/6 278/9/6 281/9/6
f 281/9/6 278/9/6 282/9/6
f 283/6/6 284/6/6 285/6/6
f 285/6/6 284/6/6 286/6/6
f 285/7/6 286/7/6 287/7/6
f 287/7/6 286/7/6 288/7/6
f 289/7/6 290/7/6 293/7/6
f 291/7/6 292/7/6 294/7/6
f 289/7/6 293/7/6 295/7/6
f 293/7/6 294/7/6 295/7/6
f 294/7/6 292/7/6 296/7/6
f 295/7/6 294/7/6 296/7/6
f 297/10/6 298/10/6 299/10/6
f 299/10/6 298/10/6 300/10/6
