# MagicaVoxel @ Ephtracy

# material
mtllib bld_story03b.mtl
usemtl palette

# normals
vn -1 0 0
vn 1 0 0
vn 0 0 1
vn 0 0 -1
vn 0 -1 0
vn 0 1 0

# texcoords
vt 0.0917969 0.5
vt 0.306641 0.5
vt 0.861328 0.5
vt 0.970703 0.5
vt 0.974609 0.5

# verts
v -16 0 32
v -16 0 30
v -16 0 -28
v -16 20 32
v -16 20 30
v -16 20 -28
v -7 5 31
v -7 5 29
v -7 6 31
v -7 6 30
v -7 6 29
v -7 6 28
v -7 7 29
v -7 7 28
v -7 9 29
v -7 9 28
v -7 10 29
v -7 10 28
v -7 12 29
v -7 12 28
v -7 13 29
v -7 13 28
v -7 15 29
v -7 15 28
v -7 16 30
v -7 16 29
v -7 16 28
v -1 6 30
v -1 6 29
v -1 10 30
v -1 10 29
v -1 11 30
v -1 11 29
v -1 15 30
v -1 15 29
v 6 6 30
v 6 6 29
v 6 10 30
v 6 10 29
v 6 11 30
v 6 11 29
v 6 15 30
v 6 15 29
v 14 0 32
v 14 0 30
v 14 3 30
v 14 3 28
v 14 4 29
v 14 4 28
v 14 6 29
v 14 6 28
v 14 7 29
v 14 7 28
v 14 9 29
v 14 9 28
v 14 10 29
v 14 10 28
v 14 12 29
v 14 12 28
v 14 13 29
v 14 13 28
v 14 15 29
v 14 15 28
v 14 16 29
v 14 16 28
v 14 18 30
v 14 18 29
v 14 20 32
v 14 20 30
v 15 19 29
v 15 19 -27
v 15 20 29
v 15 20 -27
v -15 19 29
v -15 19 -27
v -15 20 29
v -15 20 -27
v -14 0 32
v -14 0 30
v -14 3 30
v -14 3 28
v -14 4 29
v -14 4 28
v -14 6 29
v -14 6 28
v -14 7 29
v -14 7 28
v -14 9 29
v -14 9 28
v -14 10 29
v -14 10 28
v -14 12 29
v -14 12 28
v -14 13 29
v -14 13 28
v -14 15 29
v -14 15 28
v -14 16 29
v -14 16 28
v -14 18 30
v -14 18 29
v -14 20 32
v -14 20 30
v -6 6 30
v -6 6 29
v -6 10 30
v -6 10 29
v -6 11 30
v -6 11 29
v -6 15 30
v -6 15 29
v 1 6 30
v 1 6 29
v 1 10 30
v 1 10 29
v 1 11 30
v 1 11 29
v 1 15 30
v 1 15 29
v 7 5 31
v 7 5 29
v 7 6 31
v 7 6 30
v 7 6 29
v 7 6 28
v 7 7 29
v 7 7 28
v 7 9 29
v 7 9 28
v 7 10 29
v 7 10 28
v 7 12 29
v 7 12 28
v 7 13 29
v 7 13 28
v 7 15 29
v 7 15 28
v 7 16 30
v 7 16 29
v 7 16 28
v 16 0 32
v 16 0 30
v 16 0 -28
v 16 20 32
v 16 20 30
v 16 20 -28
v -16 0 32
v -16 20 32
v -14 0 32
v -14 20 32
v 14 0 32
v 14 20 32
v 16 0 32
v 16 20 32
v -7 5 31
v -7 6 31
v 7 5 31
v 7 6 31
v -14 0 30
v -14 3 30
v -14 18 30
v -14 20 30
v -7 6 30
v -7 16 30
v -6 6 30
v -6 10 30
v -6 11 30
v -6 15 30
v -1 6 30
v -1 10 30
v -1 11 30
v -1 15 30
v 1 6 30
v 1 10 30
v 1 11 30
v 1 15 30
v 6 6 30
v 6 10 30
v 6 11 30
v 6 15 30
v 7 6 30
v 7 16 30
v 14 0 30
v 14 3 30
v 14 18 30
v 14 20 30
v -14 4 29
v -14 6 29
v -14 7 29
v -14 9 29
v -14 10 29
v -14 12 29
v -14 13 29
v -14 15 29
v -14 16 29
v -14 18 29
v -7 5 29
v -7 6 29
v -7 7 29
v -7 9 29
v -7 10 29
v -7 12 29
v -7 13 29
v -7 15 29
v -7 16 29
v -6 6 29
v -6 10 29
v -6 11 29
v -6 15 29
v -1 6 29
v -1 10 29
v -1 11 29
v -1 15 29
v 1 6 29
v 1 10 29
v 1 11 29
v 1 15 29
v 6 6 29
v 6 10 29
v 6 11 29
v 6 15 29
v 7 5 29
v 7 6 29
v 7 7 29
v 7 9 29
v 7 10 29
v 7 12 29
v 7 13 29
v 7 15 29
v 7 16 29
v 14 4 29
v 14 6 29
v 14 7 29
v 14 9 29
v 14 10 29
v 14 12 29
v 14 13 29
v 14 15 29
v 14 16 29
v 14 18 29
v -14 3 28
v -14 4 28
v -14 6 28
v -14 7 28
v -14 9 28
v -14 10 28
v -14 12 28
v -14 13 28
v -14 15 28
v -14 16 28
v -7 6 28
v -7 7 28
v -7 9 28
v -7 10 28
v -7 12 28
v -7 13 28
v -7 15 28
v -7 16 28
v 7 6 28
v 7 7 28
v 7 9 28
v 7 10 28
v 7 12 28
v 7 13 28
v 7 15 28
v 7 16 28
v 14 3 28
v 14 4 28
v 14 6 28
v 14 7 28
v 14 9 28
v 14 10 28
v 14 12 28
v 14 13 28
v 14 15 28
v 14 16 28
v -15 19 -27
v -15 20 -27
v 15 19 -27
v 15 20 -27
v -15 19 29
v -15 20 29
v 15 19 29
v 15 20 29
v -16 0 -28
v -16 20 -28
v 16 0 -28
v 16 20 -28
v -16 0 32
v -14 0 32
v 14 0 32
v 16 0 32
v -16 0 30
v -14 0 30
v 14 0 30
v 16 0 30
v -16 0 -28
v 16 0 -28
v -14 4 29
v 14 4 29
v -14 4 28
v 14 4 28
v -7 5 31
v 7 5 31
v -7 5 29
v 7 5 29
v -14 7 29
v -7 7 29
v 7 7 29
v 14 7 29
v -14 7 28
v -7 7 28
v 7 7 28
v 14 7 28
v -6 10 30
v -1 10 30
v 1 10 30
v 6 10 30
v -14 10 29
v -7 10 29
v -6 10 29
v -1 10 29
v 1 10 29
v 6 10 29
v 7 10 29
v 14 10 29
v -14 10 28
v -7 10 28
v 7 10 28
v 14 10 28
v -14 13 29
v -7 13 29
v 7 13 29
v 14 13 29
v -14 13 28
v -7 13 28
v 7 13 28
v 14 13 28
v -6 15 30
v -1 15 30
v 1 15 30
v 6 15 30
v -6 15 29
v -1 15 29
v 1 15 29
v 6 15 29
v -14 16 29
v -7 16 29
v 7 16 29
v 14 16 29
v -14 16 28
v -7 16 28
v 7 16 28
v 14 16 28
v -14 18 30
v 14 18 30
v -14 18 29
v 14 18 29
v -14 3 30
v 14 3 30
v -14 3 28
v 14 3 28
v -7 6 31
v 7 6 31
v -7 6 30
v -6 6 30
v -1 6 30
v 1 6 30
v 6 6 30
v 7 6 30
v -14 6 29
v -7 6 29
v -6 6 29
v -1 6 29
v 1 6 29
v 6 6 29
v 7 6 29
v 14 6 29
v -14 6 28
v -7 6 28
v 7 6 28
v 14 6 28
v -14 9 29
v -7 9 29
v 7 9 29
v 14 9 29
v -14 9 28
v -7 9 28
v 7 9 28
v 14 9 28
v -6 11 30
v -1 11 30
v 1 11 30
v 6 11 30
v -6 11 29
v -1 11 29
v 1 11 29
v 6 11 29
v -14 12 29
v -7 12 29
v 7 12 29
v 14 12 29
v -14 12 28
v -7 12 28
v 7 12 28
v 14 12 28
v -14 15 29
v -7 15 29
v 7 15 29
v 14 15 29
v -14 15 28
v -7 15 28
v 7 15 28
v 14 15 28
v -7 16 30
v 7 16 30
v -7 16 29
v 7 16 29
v -15 19 29
v 15 19 29
v -15 19 -27
v 15 19 -27
v -16 20 32
v -14 20 32
v 14 20 32
v 16 20 32
v -16 20 30
v -14 20 30
v 14 20 30
v 16 20 30
v -15 20 29
v 15 20 29
v -15 20 -27
v 15 20 -27
v -16 20 -28
v 16 20 -28

# faces
f 4/4/1 2/4/1 1/4/1
f 5/5/1 3/5/1 2/5/1
f 5/4/1 2/4/1 4/4/1
f 6/5/1 3/5/1 5/5/1
f 9/4/1 8/4/1 7/4/1
f 10/4/1 8/4/1 9/4/1
f 11/4/1 8/4/1 10/4/1
f 13/4/1 12/4/1 11/4/1
f 13/4/1 11/4/1 10/4/1
f 14/4/1 12/4/1 13/4/1
f 15/4/1 13/4/1 10/4/1
f 17/4/1 15/4/1 10/4/1
f 17/4/1 16/4/1 15/4/1
f 18/4/1 16/4/1 17/4/1
f 19/4/1 17/4/1 10/4/1
f 21/4/1 19/4/1 10/4/1
f 21/4/1 20/4/1 19/4/1
f 22/4/1 20/4/1 21/4/1
f 23/4/1 21/4/1 10/4/1
f 25/4/1 23/4/1 10/4/1
f 25/4/1 24/4/1 23/4/1
f 26/4/1 24/4/1 25/4/1
f 27/4/1 24/4/1 26/4/1
f 30/4/1 29/4/1 28/4/1
f 31/4/1 29/4/1 30/4/1
f 34/4/1 33/4/1 32/4/1
f 35/4/1 33/4/1 34/4/1
f 38/4/1 37/4/1 36/4/1
f 39/4/1 37/4/1 38/4/1
f 42/4/1 41/4/1 40/4/1
f 43/4/1 41/4/1 42/4/1
f 46/4/1 45/4/1 44/4/1
f 48/4/1 47/4/1 46/4/1
f 49/4/1 47/4/1 48/4/1
f 50/4/1 48/4/1 46/4/1
f 52/4/1 50/4/1 46/4/1
f 52/4/1 51/4/1 50/4/1
f 53/4/1 51/4/1 52/4/1
f 54/4/1 52/4/1 46/4/1
f 56/4/1 54/4/1 46/4/1
f 56/4/1 55/4/1 54/4/1
f 57/4/1 55/4/1 56/4/1
f 58/4/1 56/4/1 46/4/1
f 60/4/1 58/4/1 46/4/1
f 60/4/1 59/4/1 58/4/1
f 61/4/1 59/4/1 60/4/1
f 62/4/1 60/4/1 46/4/1
f 64/4/1 62/4/1 46/4/1
f 64/4/1 63/4/1 62/4/1
f 65/4/1 63/4/1 64/4/1
f 66/4/1 46/4/1 44/4/1
f 66/4/1 64/4/1 46/4/1
f 67/4/1 64/4/1 66/4/1
f 68/4/1 66/4/1 44/4/1
f 69/4/1 66/4/1 68/4/1
f 72/5/1 71/5/1 70/5/1
f 73/5/1 71/5/1 72/5/1
f 74/5/2 75/5/2 76/5/2
f 76/5/2 75/5/2 77/5/2
f 78/4/2 79/4/2 80/4/2
f 80/4/2 81/4/2 82/4/2
f 82/4/2 81/4/2 83/4/2
f 80/4/2 82/4/2 84/4/2
f 80/4/2 84/4/2 86/4/2
f 84/4/2 85/4/2 86/4/2
f 86/4/2 85/4/2 87/4/2
f 80/4/2 86/4/2 88/4/2
f 80/4/2 88/4/2 90/4/2
f 88/4/2 89/4/2 90/4/2
f 90/4/2 89/4/2 91/4/2
f 80/4/2 90/4/2 92/4/2
f 80/4/2 92/4/2 94/4/2
f 92/4/2 93/4/2 94/4/2
f 94/4/2 93/4/2 95/4/2
f 80/4/2 94/4/2 96/4/2
f 80/4/2 96/4/2 98/4/2
f 96/4/2 97/4/2 98/4/2
f 98/4/2 97/4/2 99/4/2
f 78/4/2 80/4/2 100/4/2
f 80/4/2 98/4/2 100/4/2
f 100/4/2 98/4/2 101/4/2
f 78/4/2 100/4/2 102/4/2
f 102/4/2 100/4/2 103/4/2
f 104/4/2 105/4/2 106/4/2
f 106/4/2 105/4/2 107/4/2
f 108/4/2 109/4/2 110/4/2
f 110/4/2 109/4/2 111/4/2
f 112/4/2 113/4/2 114/4/2
f 114/4/2 113/4/2 115/4/2
f 116/4/2 117/4/2 118/4/2
f 118/4/2 117/4/2 119/4/2
f 120/4/2 121/4/2 122/4/2
f 122/4/2 121/4/2 123/4/2
f 123/4/2 121/4/2 124/4/2
f 124/4/2 125/4/2 126/4/2
f 123/4/2 124/4/2 126/4/2
f 126/4/2 125/4/2 127/4/2
f 123/4/2 126/4/2 128/4/2
f 123/4/2 128/4/2 130/4/2
f 128/4/2 129/4/2 130/4/2
f 130/4/2 129/4/2 131/4/2
f 123/4/2 130/4/2 132/4/2
f 123/4/2 132/4/2 134/4/2
f 132/4/2 133/4/2 134/4/2
f 134/4/2 133/4/2 135/4/2
f 123/4/2 134/4/2 136/4/2
f 123/4/2 136/4/2 138/4/2
f 136/4/2 137/4/2 138/4/2
f 138/4/2 137/4/2 139/4/2
f 139/4/2 137/4/2 140/4/2
f 141/4/2 142/4/2 144/4/2
f 142/5/2 143/5/2 145/5/2
f 144/4/2 142/4/2 145/4/2
f 145/5/2 143/5/2 146/5/2
f 149/4/3 148/4/3 147/4/3
f 150/4/3 148/4/3 149/4/3
f 153/4/3 152/4/3 151/4/3
f 154/4/3 152/4/3 153/4/3
f 157/4/3 156/4/3 155/4/3
f 158/4/3 156/4/3 157/4/3
f 165/4/3 164/4/3 163/4/3
f 166/4/3 164/4/3 165/4/3
f 167/4/3 164/4/3 166/4/3
f 168/4/3 164/4/3 167/4/3
f 170/4/3 167/4/3 166/4/3
f 171/4/3 167/4/3 170/4/3
f 172/4/3 164/4/3 168/4/3
f 173/4/3 171/4/3 170/4/3
f 173/4/3 172/4/3 171/4/3
f 173/4/3 170/4/3 169/4/3
f 174/4/3 172/4/3 173/4/3
f 175/4/3 172/4/3 174/4/3
f 176/4/3 164/4/3 172/4/3
f 176/4/3 172/4/3 175/4/3
f 178/4/3 175/4/3 174/4/3
f 179/4/3 175/4/3 178/4/3
f 180/4/3 164/4/3 176/4/3
f 181/4/3 179/4/3 178/4/3
f 181/4/3 180/4/3 179/4/3
f 181/4/3 178/4/3 177/4/3
f 182/4/3 164/4/3 180/4/3
f 182/4/3 180/4/3 181/4/3
f 183/5/3 160/5/3 159/5/3
f 184/5/3 160/5/3 183/5/3
f 185/5/3 162/5/3 161/5/3
f 186/5/3 162/5/3 185/5/3
f 197/3/3 188/3/3 187/3/3
f 198/3/3 188/3/3 197/3/3
f 199/3/3 190/3/3 189/3/3
f 200/3/3 190/3/3 199/3/3
f 201/3/3 192/3/3 191/3/3
f 202/3/3 192/3/3 201/3/3
f 203/3/3 194/3/3 193/3/3
f 204/3/3 194/3/3 203/3/3
f 205/3/3 196/3/3 195/3/3
f 210/2/3 207/2/3 206/2/3
f 211/2/3 207/2/3 210/2/3
f 212/2/3 209/2/3 208/2/3
f 213/2/3 209/2/3 212/2/3
f 218/2/3 215/2/3 214/2/3
f 219/2/3 215/2/3 218/2/3
f 220/2/3 217/2/3 216/2/3
f 221/2/3 217/2/3 220/2/3
f 222/3/3 197/3/3 187/3/3
f 230/3/3 196/3/3 205/3/3
f 231/3/3 222/3/3 187/3/3
f 231/3/3 223/3/3 222/3/3
f 232/3/3 223/3/3 231/3/3
f 233/3/3 225/3/3 224/3/3
f 234/3/3 225/3/3 233/3/3
f 235/3/3 227/3/3 226/3/3
f 236/3/3 227/3/3 235/3/3
f 237/3/3 229/3/3 228/3/3
f 238/3/3 229/3/3 237/3/3
f 239/3/3 196/3/3 230/3/3
f 240/3/3 196/3/3 239/3/3
f 251/3/3 244/3/3 243/3/3
f 252/3/3 244/3/3 251/3/3
f 253/3/3 246/3/3 245/3/3
f 254/3/3 246/3/3 253/3/3
f 255/3/3 248/3/3 247/3/3
f 256/3/3 248/3/3 255/3/3
f 257/3/3 250/3/3 249/3/3
f 258/3/3 250/3/3 257/3/3
f 267/3/3 242/3/3 241/3/3
f 268/3/3 242/3/3 267/3/3
f 269/3/3 260/3/3 259/3/3
f 270/3/3 260/3/3 269/3/3
f 271/3/3 262/3/3 261/3/3
f 272/3/3 262/3/3 271/3/3
f 273/3/3 264/3/3 263/3/3
f 274/3/3 264/3/3 273/3/3
f 275/3/3 266/3/3 265/3/3
f 276/3/3 266/3/3 275/3/3
f 279/5/3 278/5/3 277/5/3
f 280/5/3 278/5/3 279/5/3
f 281/5/4 282/5/4 283/5/4
f 283/5/4 282/5/4 284/5/4
f 285/5/4 286/5/4 287/5/4
f 287/5/4 286/5/4 288/5/4
f 293/4/5 290/4/5 289/4/5
f 294/4/5 290/4/5 293/4/5
f 295/4/5 292/4/5 291/4/5
f 296/4/5 292/4/5 295/4/5
f 297/5/5 294/5/5 293/5/5
f 297/5/5 295/5/5 294/5/5
f 297/5/5 296/5/5 295/5/5
f 298/5/5 296/5/5 297/5/5
f 301/3/5 300/3/5 299/3/5
f 302/3/5 300/3/5 301/3/5
f 305/4/5 304/4/5 303/4/5
f 306/4/5 304/4/5 305/4/5
f 311/3/5 308/3/5 307/3/5
f 312/3/5 308/3/5 311/3/5
f 313/3/5 310/3/5 309/3/5
f 314/3/5 310/3/5 313/3/5
f 321/4/5 316/4/5 315/4/5
f 322/4/5 316/4/5 321/4/5
f 323/4/5 318/4/5 317/4/5
f 324/4/5 318/4/5 323/4/5
f 327/3/5 320/3/5 319/3/5
f 328/3/5 320/3/5 327/3/5
f 329/3/5 326/3/5 325/3/5
f 330/3/5 326/3/5 329/3/5
f 335/3/5 332/3/5 331/3/5
f 336/3/5 332/3/5 335/3/5
f 337/3/5 334/3/5 333/3/5
f 338/3/5 334/3/5 337/3/5
f 343/4/5 340/4/5 339/4/5
f 344/4/5 340/4/5 343/4/5
f 345/4/5 342/4/5 341/4/5
f 346/4/5 342/4/5 345/4/5
f 351/3/5 348/3/5 347/3/5
f 352/3/5 348/3/5 351/3/5
f 353/3/5 350/3/5 349/3/5
f 354/3/5 350/3/5 353/3/5
f 357/5/5 356/5/5 355/5/5
f 358/5/5 356/5/5 357/5/5
f 359/5/6 360/5/6 361/5/6
f 361/5/6 360/5/6 362/5/6
f 363/4/6 364/4/6 365/4/6
f 365/4/6 364/4/6 366/4/6
f 366/4/6 364/4/6 367/4/6
f 367/4/6 364/4/6 368/4/6
f 368/4/6 364/4/6 369/4/6
f 369/4/6 364/4/6 370/4/6
f 366/4/6 367/4/6 373/4/6
f 373/4/6 367/4/6 374/4/6
f 368/4/6 369/4/6 375/4/6
f 375/4/6 369/4/6 376/4/6
f 371/3/6 372/3/6 379/3/6
f 379/3/6 372/3/6 380/3/6
f 377/3/6 378/3/6 381/3/6
f 381/3/6 378/3/6 382/3/6
f 383/3/6 384/3/6 387/3/6
f 387/3/6 384/3/6 388/3/6
f 385/3/6 386/3/6 389/3/6
f 389/3/6 386/3/6 390/3/6
f 391/4/6 392/4/6 395/4/6
f 395/4/6 392/4/6 396/4/6
f 393/4/6 394/4/6 397/4/6
f 397/4/6 394/4/6 398/4/6
f 399/3/6 400/3/6 403/3/6
f 403/3/6 400/3/6 404/3/6
f 401/3/6 402/3/6 405/3/6
f 405/3/6 402/3/6 406/3/6
f 407/3/6 408/3/6 411/3/6
f 411/3/6 408/3/6 412/3/6
f 409/3/6 410/3/6 413/3/6
f 413/3/6 410/3/6 414/3/6
f 415/4/6 416/4/6 417/4/6
f 417/4/6 416/4/6 418/4/6
f 419/4/6 420/4/6 421/4/6
f 421/4/6 420/4/6 422/4/6
f 423/4/6 424/4/6 427/4/6
f 427/4/6 424/4/6 428/4/6
f 425/4/6 426/4/6 429/4/6
f 429/4/6 426/4/6 430/4/6
f 427/5/6 428/5/6 431/5/6
f 428/5/6 429/5/6 431/5/6
f 429/5/6 430/5/6 431/5/6
f 431/5/6 430/5/6 432/5/6
f 427/5/6 431/5/6 433/5/6
f 432/5/6 430/5/6 434/5/6
f 427/5/6 433/5/6 435/5/6
f 433/5/6 434/5/6 435/5/6
f 434/5/6 430/5/6 436/5/6
f 435/5/6 434/5/6 436/5/6
