# MagicaVoxel @ Ephtracy

# material
mtllib bld_story06.mtl
usemtl palette

# normals
vn -1 0 0
vn 1 0 0
vn 0 0 1
vn 0 0 -1
vn 0 -1 0
vn 0 1 0

# texcoords
vt 0.00585938 0.5
vt 0.0917969 0.5
vt 0.142578 0.5
vt 0.306641 0.5
vt 0.970703 0.5
vt 0.974609 0.5
vt 0.978516 0.5
vt 0.986328 0.5

# verts
v -16 0 32
v -16 0 30
v -16 0 -28
v -16 20 32
v -16 20 30
v -16 20 -28
v -8 0 32
v -8 0 31
v -8 17 31
v -8 18 31
v -8 19 31
v -8 20 32
v -8 20 31
v -7 0 31
v -7 0 30
v -7 17 31
v -7 17 30
v 14 0 32
v 14 0 30
v 14 17 31
v 14 17 30
v 14 18 31
v 14 19 31
v 14 20 32
v 14 20 31
v 15 19 29
v 15 19 -27
v 15 20 29
v 15 20 -27
v -15 19 29
v -15 19 -27
v -15 20 29
v -15 20 -27
v -14 0 32
v -14 0 30
v -14 17 31
v -14 17 30
v -14 18 31
v -14 19 31
v -14 20 32
v -14 20 31
v 7 0 31
v 7 0 30
v 7 17 31
v 7 17 30
v 8 0 32
v 8 0 31
v 8 17 31
v 8 18 31
v 8 19 31
v 8 20 32
v 8 20 31
v 16 0 32
v 16 0 30
v 16 0 -28
v 16 20 32
v 16 20 30
v 16 20 -28
v -16 0 32
v -16 20 32
v -14 0 32
v -14 20 32
v -8 0 32
v -8 20 32
v 8 0 32
v 8 20 32
v 14 0 32
v 14 20 32
v 16 0 32
v 16 20 32
v -14 17 31
v -14 18 31
v -14 19 31
v -14 20 31
v -8 17 31
v -8 18 31
v -8 19 31
v -8 20 31
v 8 17 31
v 8 18 31
v 8 19 31
v 8 20 31
v 14 17 31
v 14 18 31
v 14 19 31
v 14 20 31
v -14 0 30
v -14 17 30
v -7 0 30
v -7 17 30
v 7 0 30
v 7 17 30
v 14 0 30
v 14 17 30
v -15 19 -27
v -15 20 -27
v 15 19 -27
v 15 20 -27
v -8 0 31
v -8 17 31
v -7 0 31
v -7 17 31
v 7 0 31
v 7 17 31
v 8 0 31
v 8 17 31
v -15 19 29
v -15 20 29
v 15 19 29
v 15 20 29
v -16 0 -28
v -16 20 -28
v 16 0 -28
v 16 20 -28
v -16 0 32
v -14 0 32
v -8 0 32
v 8 0 32
v 14 0 32
v 16 0 32
v -8 0 31
v -7 0 31
v -6 0 31
v 6 0 31
v 7 0 31
v 8 0 31
v -16 0 30
v -14 0 30
v -7 0 30
v -6 0 30
v 6 0 30
v 7 0 30
v 14 0 30
v 16 0 30
v -16 0 -28
v 16 0 -28
v -14 17 31
v -8 17 31
v -7 17 31
v 7 17 31
v 8 17 31
v 14 17 31
v -14 17 30
v -7 17 30
v 7 17 30
v 14 17 30
v -15 19 29
v 15 19 29
v -15 19 -27
v 15 19 -27
v -16 20 32
v -14 20 32
v -8 20 32
v 8 20 32
v 14 20 32
v 16 20 32
v -14 20 31
v -8 20 31
v 8 20 31
v 14 20 31
v -16 20 30
v -14 20 30
v 14 20 30
v 16 20 30
v -15 20 29
v 15 20 29
v -15 20 -27
v 15 20 -27
v -16 20 -28
v 16 20 -28

# faces
f 4/5/1 2/5/1 1/5/1
f 5/6/1 3/6/1 2/6/1
f 5/5/1 2/5/1 4/5/1
f 6/6/1 3/6/1 5/6/1
f 9/1/1 8/1/1 7/1/1
f 10/1/1 9/1/1 7/1/1
f 11/1/1 10/1/1 7/1/1
f 12/1/1 11/1/1 7/1/1
f 13/1/1 11/1/1 12/1/1
f 16/7/1 15/7/1 14/7/1
f 17/7/1 15/7/1 16/7/1
f 20/5/1 19/5/1 18/5/1
f 21/5/1 19/5/1 20/5/1
f 22/5/1 20/5/1 18/5/1
f 23/5/1 22/5/1 18/5/1
f 24/5/1 23/5/1 18/5/1
f 25/5/1 23/5/1 24/5/1
f 28/6/1 27/6/1 26/6/1
f 29/6/1 27/6/1 28/6/1
f 30/6/2 31/6/2 32/6/2
f 32/6/2 31/6/2 33/6/2
f 34/5/2 35/5/2 36/5/2
f 36/5/2 35/5/2 37/5/2
f 34/5/2 36/5/2 38/5/2
f 34/5/2 38/5/2 39/5/2
f 34/5/2 39/5/2 40/5/2
f 40/5/2 39/5/2 41/5/2
f 42/7/2 43/7/2 44/7/2
f 44/7/2 43/7/2 45/7/2
f 46/1/2 47/1/2 48/1/2
f 46/1/2 48/1/2 49/1/2
f 46/1/2 49/1/2 50/1/2
f 46/1/2 50/1/2 51/1/2
f 51/1/2 50/1/2 52/1/2
f 53/5/2 54/5/2 56/5/2
f 54/6/2 55/6/2 57/6/2
f 56/5/2 54/5/2 57/5/2
f 57/6/2 55/6/2 58/6/2
f 61/5/3 60/5/3 59/5/3
f 62/5/3 60/5/3 61/5/3
f 65/1/3 64/1/3 63/1/3
f 66/1/3 64/1/3 65/1/3
f 69/5/3 68/5/3 67/5/3
f 70/5/3 68/5/3 69/5/3
f 75/7/3 72/7/3 71/7/3
f 76/6/3 73/6/3 72/6/3
f 76/7/3 72/7/3 75/7/3
f 77/7/3 74/7/3 73/7/3
f 77/6/3 73/6/3 76/6/3
f 78/7/3 74/7/3 77/7/3
f 83/7/3 80/7/3 79/7/3
f 84/6/3 81/6/3 80/6/3
f 84/7/3 80/7/3 83/7/3
f 85/7/3 82/7/3 81/7/3
f 85/6/3 81/6/3 84/6/3
f 86/7/3 82/7/3 85/7/3
f 89/6/3 88/6/3 87/6/3
f 90/6/3 88/6/3 89/6/3
f 93/6/3 92/6/3 91/6/3
f 94/6/3 92/6/3 93/6/3
f 97/6/3 96/6/3 95/6/3
f 98/6/3 96/6/3 97/6/3
f 99/1/4 100/1/4 101/1/4
f 101/1/4 100/1/4 102/1/4
f 103/1/4 104/1/4 105/1/4
f 105/1/4 104/1/4 106/1/4
f 107/6/4 108/6/4 109/6/4
f 109/6/4 108/6/4 110/6/4
f 111/6/4 112/6/4 113/6/4
f 113/6/4 112/6/4 114/6/4
f 121/1/5 118/1/5 117/1/5
f 122/1/5 118/1/5 121/1/5
f 123/1/5 118/1/5 122/1/5
f 124/1/5 118/1/5 123/1/5
f 125/1/5 118/1/5 124/1/5
f 126/1/5 118/1/5 125/1/5
f 127/5/5 116/5/5 115/5/5
f 128/5/5 116/5/5 127/5/5
f 129/7/5 123/7/5 122/7/5
f 130/6/5 124/6/5 123/6/5
f 130/7/5 123/7/5 129/7/5
f 131/7/5 125/7/5 124/7/5
f 131/6/5 124/6/5 130/6/5
f 132/7/5 125/7/5 131/7/5
f 133/5/5 120/5/5 119/5/5
f 134/5/5 120/5/5 133/5/5
f 135/6/5 132/6/5 131/6/5
f 135/6/5 131/6/5 130/6/5
f 135/6/5 134/6/5 133/6/5
f 135/6/5 133/6/5 132/6/5
f 135/6/5 130/6/5 129/6/5
f 135/6/5 128/6/5 127/6/5
f 135/6/5 129/6/5 128/6/5
f 136/6/5 134/6/5 135/6/5
f 143/7/5 138/7/5 137/7/5
f 143/7/5 139/7/5 138/7/5
f 144/7/5 139/7/5 143/7/5
f 145/7/5 142/7/5 141/7/5
f 145/7/5 141/7/5 140/7/5
f 146/7/5 142/7/5 145/7/5
f 147/5/6 148/5/6 149/5/6
f 149/5/6 148/5/6 150/5/6
f 151/5/6 152/5/6 157/5/6
f 153/1/6 154/1/6 158/1/6
f 158/1/6 154/1/6 159/1/6
f 155/5/6 156/5/6 160/5/6
f 151/5/6 157/5/6 161/5/6
f 158/7/6 159/7/6 162/7/6
f 161/5/6 157/5/6 162/5/6
f 159/7/6 160/7/6 162/7/6
f 157/7/6 158/7/6 162/7/6
f 160/5/6 156/5/6 163/5/6
f 162/7/6 160/7/6 163/7/6
f 163/5/6 156/5/6 164/5/6
f 161/6/6 162/6/6 165/6/6
f 162/6/6 163/6/6 165/6/6
f 163/6/6 164/6/6 165/6/6
f 165/6/6 164/6/6 166/6/6
f 161/6/6 165/6/6 167/6/6
f 166/6/6 164/6/6 168/6/6
f 161/6/6 167/6/6 169/6/6
f 167/6/6 168/6/6 169/6/6
f 168/6/6 164/6/6 170/6/6
f 169/6/6 168/6/6 170/6/6
