# MagicaVoxel @ Ephtracy

# material
mtllib bld_store07.mtl
usemtl palette

# normals
vn -1 0 0
vn 1 0 0
vn 0 0 1
vn 0 0 -1
vn 0 -1 0
vn 0 1 0

# texcoords
vt 0.142578 0.5
vt 0.201172 0.5
vt 0.373047 0.5
vt 0.638672 0.5
vt 0.958984 0.5
vt 0.962891 0.5
vt 0.966797 0.5
vt 0.970703 0.5
vt 0.974609 0.5
vt 0.978516 0.5
vt 0.982422 0.5
vt 0.990234 0.5

# verts
v -16 0 30
v -16 0 -32
v -16 15 32
v -16 15 30
v -16 15 29
v -16 17 32
v -16 17 29
v -16 17 28
v -16 23 28
v -16 23 -32
v -16 24 29
v -16 24 28
v -15 3 31
v -15 3 30
v -15 4 31
v -15 4 30
v -3 0 28
v -3 0 19
v -3 3 28
v -3 3 27
v -3 3 20
v -3 4 29
v -3 4 27
v -3 4 21
v -3 4 20
v -3 5 28
v -3 5 25
v -3 5 24
v -3 5 22
v -3 7 24
v -3 7 22
v -3 11 28
v -3 11 25
v -3 14 29
v -3 14 26
v -3 14 21
v -3 14 19
v 2 7 21
v 2 7 20
v 2 8 21
v 2 8 20
v 15 0 30
v 15 0 20
v 15 15 30
v 15 15 29
v 15 15 20
v 15 22 27
v 15 22 -31
v 15 23 27
v 15 23 -31
v -15 0 28
v -15 0 19
v -15 3 28
v -15 3 27
v -15 4 29
v -15 4 27
v -15 14 29
v -15 14 26
v -15 14 19
v -15 22 27
v -15 22 -31
v -15 23 27
v -15 23 -31
v -3 3 31
v -3 3 30
v -3 4 31
v -3 4 30
v -2 0 30
v -2 0 20
v -2 3 30
v -2 3 20
v -2 4 30
v -2 4 29
v -2 4 21
v -2 4 20
v -2 5 28
v -2 5 25
v -2 5 24
v -2 5 22
v -2 7 24
v -2 7 22
v -2 11 28
v -2 11 25
v -2 14 29
v -2 14 21
v -2 15 30
v -2 15 29
v -2 15 21
v -2 15 20
v 12 7 21
v 12 7 20
v 12 8 21
v 12 8 20
v 16 0 30
v 16 0 -32
v 16 15 32
v 16 15 30
v 16 15 29
v 16 17 32
v 16 17 29
v 16 17 28
v 16 23 28
v 16 23 -32
v 16 24 29
v 16 24 28
v -16 15 32
v -16 17 32
v 16 15 32
v 16 17 32
v -15 3 31
v -15 4 31
v -3 3 31
v -3 4 31
v -16 0 30
v -16 15 30
v -15 3 30
v -15 4 30
v -15 14 30
v -15 15 30
v -14 5 30
v -14 13 30
v -4 5 30
v -4 13 30
v -3 3 30
v -3 4 30
v -3 14 30
v -3 15 30
v -2 0 30
v -2 3 30
v -2 4 30
v -2 15 30
v 15 0 30
v 15 15 30
v 16 0 30
v 16 15 30
v -16 17 29
v -16 24 29
v -15 17 29
v -15 23 29
v -12 19 29
v -12 21 29
v -11 19 29
v -11 21 29
v -10 19 29
v -10 21 29
v -9 19 29
v -9 21 29
v -8 19 29
v -8 21 29
v -5 19 29
v -5 20 29
v -4 19 29
v -4 20 29
v -2 19 29
v -2 21 29
v 0 19 29
v 0 21 29
v 3 19 29
v 3 21 29
v 4 19 29
v 4 21 29
v 5 19 29
v 5 20 29
v 6 19 29
v 6 20 29
v 8 19 29
v 8 21 29
v 9 19 29
v 9 21 29
v 12 19 29
v 12 21 29
v 15 17 29
v 15 23 29
v 16 17 29
v 16 24 29
v 2 7 21
v 2 8 21
v 12 7 21
v 12 8 21
v -2 0 20
v -2 3 20
v -2 4 20
v -2 15 20
v 1 0 20
v 1 15 20
v 2 0 20
v 2 1 20
v 2 7 20
v 2 8 20
v 2 14 20
v 3 2 20
v 3 6 20
v 3 9 20
v 3 13 20
v 5 11 20
v 5 12 20
v 9 11 20
v 9 12 20
v 11 2 20
v 11 6 20
v 11 9 20
v 11 13 20
v 12 0 20
v 12 1 20
v 12 7 20
v 12 8 20
v 12 14 20
v 13 0 20
v 13 15 20
v 15 0 20
v 15 15 20
v -15 0 19
v -15 14 19
v -3 0 19
v -3 14 19
v -15 22 -31
v -15 23 -31
v 15 22 -31
v 15 23 -31
v -15 4 29
v -15 14 29
v -14 5 29
v -14 13 29
v -4 5 29
v -4 13 29
v -3 4 29
v -3 14 29
v -16 23 28
v -16 24 28
v -15 0 28
v -15 3 28
v -3 0 28
v -3 3 28
v 16 23 28
v 16 24 28
v -15 3 27
v -15 4 27
v -15 22 27
v -15 23 27
v -3 3 27
v -3 4 27
v 15 22 27
v 15 23 27
v -16 0 -32
v -16 23 -32
v 16 0 -32
v 16 23 -32
v -16 0 30
v -2 0 30
v 15 0 30
v 16 0 30
v -15 0 29
v -3 0 29
v -15 0 28
v -3 0 28
v -2 0 20
v 1 0 20
v 2 0 20
v 12 0 20
v 13 0 20
v 15 0 20
v -15 0 19
v -3 0 19
v 1 0 19
v 2 0 19
v 12 0 19
v 13 0 19
v -16 0 -32
v 16 0 -32
v -15 3 31
v -3 3 31
v -15 3 30
v -3 3 30
v -15 3 28
v -3 3 28
v -15 3 27
v -3 3 27
v 2 7 21
v 12 7 21
v 2 7 20
v 12 7 20
v -15 14 29
v -3 14 29
v -15 14 26
v -3 14 26
v -3 14 21
v -15 14 19
v -3 14 19
v -16 15 32
v 16 15 32
v -16 15 30
v -15 15 30
v -3 15 30
v -2 15 30
v 15 15 30
v 16 15 30
v -2 15 29
v 15 15 29
v -2 15 21
v -2 15 20
v 1 15 20
v 13 15 20
v 15 15 20
v -15 4 31
v -3 4 31
v -15 4 30
v -3 4 30
v -15 4 29
v -3 4 29
v -15 4 27
v -3 4 27
v 2 8 21
v 12 8 21
v 2 8 20
v 12 8 20
v -16 17 32
v 16 17 32
v -16 17 29
v -15 17 29
v 15 17 29
v 16 17 29
v -15 22 27
v 15 22 27
v -15 22 -31
v 15 22 -31
v -16 23 28
v 16 23 28
v -15 23 27
v 15 23 27
v -15 23 -31
v 15 23 -31
v -16 23 -32
v 16 23 -32
v -16 24 29
v 16 24 29
v -16 24 28
v 16 24 28

# faces
f 4/9/1 2/9/1 1/9/1
f 5/9/1 2/9/1 4/9/1
f 6/11/1 4/11/1 3/11/1
f 6/11/1 5/11/1 4/11/1
f 7/9/1 2/9/1 5/9/1
f 7/11/1 5/11/1 6/11/1
f 8/9/1 2/9/1 7/9/1
f 9/9/1 2/9/1 8/9/1
f 9/12/1 8/12/1 7/12/1
f 10/9/1 2/9/1 9/9/1
f 11/12/1 9/12/1 7/12/1
f 12/12/1 9/12/1 11/12/1
f 15/8/1 14/8/1 13/8/1
f 16/8/1 14/8/1 15/8/1
f 19/9/1 18/9/1 17/9/1
f 20/9/1 18/9/1 19/9/1
f 21/9/1 18/9/1 20/9/1
f 23/8/1 21/8/1 20/8/1
f 24/8/1 21/8/1 23/8/1
f 25/9/1 18/9/1 21/9/1
f 25/8/1 21/8/1 24/8/1
f 26/1/1 24/1/1 23/1/1
f 26/1/1 23/1/1 22/1/1
f 27/1/1 24/1/1 26/1/1
f 28/1/1 24/1/1 27/1/1
f 29/1/1 24/1/1 28/1/1
f 30/1/1 28/1/1 27/1/1
f 30/4/1 29/4/1 28/4/1
f 31/1/1 24/1/1 29/1/1
f 31/4/1 29/4/1 30/4/1
f 32/1/1 26/1/1 22/1/1
f 32/4/1 27/4/1 26/4/1
f 33/1/1 31/1/1 30/1/1
f 33/4/1 27/4/1 32/4/1
f 33/1/1 30/1/1 27/1/1
f 34/1/1 32/1/1 22/1/1
f 34/1/1 33/1/1 32/1/1
f 35/1/1 33/1/1 34/1/1
f 36/9/1 25/9/1 24/9/1
f 36/1/1 33/1/1 35/1/1
f 36/1/1 24/1/1 31/1/1
f 36/1/1 31/1/1 33/1/1
f 37/9/1 18/9/1 25/9/1
f 37/9/1 25/9/1 36/9/1
f 40/8/1 39/8/1 38/8/1
f 41/8/1 39/8/1 40/8/1
f 44/9/1 43/9/1 42/9/1
f 45/9/1 43/9/1 44/9/1
f 46/9/1 43/9/1 45/9/1
f 49/9/1 48/9/1 47/9/1
f 50/9/1 48/9/1 49/9/1
f 51/9/2 52/9/2 53/9/2
f 53/9/2 52/9/2 54/9/2
f 54/9/2 52/9/2 56/9/2
f 55/9/2 56/9/2 57/9/2
f 56/9/2 52/9/2 58/9/2
f 57/9/2 56/9/2 58/9/2
f 58/9/2 52/9/2 59/9/2
f 60/9/2 61/9/2 62/9/2
f 62/9/2 61/9/2 63/9/2
f 64/8/2 65/8/2 66/8/2
f 66/8/2 65/8/2 67/8/2
f 68/9/2 69/9/2 70/9/2
f 70/9/2 69/9/2 71/9/2
f 70/8/2 71/8/2 72/8/2
f 72/8/2 71/8/2 73/8/2
f 73/8/2 71/8/2 74/8/2
f 74/8/2 71/8/2 75/8/2
f 73/1/2 74/1/2 76/1/2
f 76/1/2 74/1/2 77/1/2
f 77/1/2 74/1/2 78/1/2
f 78/1/2 74/1/2 79/1/2
f 77/1/2 78/1/2 80/1/2
f 78/4/2 79/4/2 80/4/2
f 79/1/2 74/1/2 81/1/2
f 80/4/2 79/4/2 81/4/2
f 73/1/2 76/1/2 82/1/2
f 76/4/2 77/4/2 82/4/2
f 80/1/2 81/1/2 83/1/2
f 82/4/2 77/4/2 83/4/2
f 77/1/2 80/1/2 83/1/2
f 72/9/2 73/9/2 84/9/2
f 73/1/2 82/1/2 84/1/2
f 82/1/2 83/1/2 84/1/2
f 83/1/2 81/1/2 85/1/2
f 84/1/2 83/1/2 85/1/2
f 74/9/2 75/9/2 85/9/2
f 81/1/2 74/1/2 85/1/2
f 72/9/2 84/9/2 86/9/2
f 84/8/2 85/8/2 87/8/2
f 86/9/2 84/9/2 87/9/2
f 85/9/2 75/9/2 88/9/2
f 87/8/2 85/8/2 88/8/2
f 88/9/2 75/9/2 89/9/2
f 90/8/2 91/8/2 92/8/2
f 92/8/2 91/8/2 93/8/2
f 94/9/2 95/9/2 97/9/2
f 97/9/2 95/9/2 98/9/2
f 96/11/2 97/11/2 99/11/2
f 97/11/2 98/11/2 99/11/2
f 98/9/2 95/9/2 100/9/2
f 99/11/2 98/11/2 100/11/2
f 100/9/2 95/9/2 101/9/2
f 101/9/2 95/9/2 102/9/2
f 100/12/2 101/12/2 102/12/2
f 102/9/2 95/9/2 103/9/2
f 100/12/2 102/12/2 104/12/2
f 104/12/2 102/12/2 105/12/2
f 108/11/3 107/11/3 106/11/3
f 109/11/3 107/11/3 108/11/3
f 112/8/3 111/8/3 110/8/3
f 113/8/3 111/8/3 112/8/3
f 116/9/3 115/9/3 114/9/3
f 117/9/3 115/9/3 116/9/3
f 118/9/3 115/9/3 117/9/3
f 119/9/3 115/9/3 118/9/3
f 120/1/3 118/1/3 117/1/3
f 121/1/3 118/1/3 120/1/3
f 122/1/3 120/1/3 117/1/3
f 122/4/3 121/4/3 120/4/3
f 123/1/3 118/1/3 121/1/3
f 123/4/3 121/4/3 122/4/3
f 124/9/3 116/9/3 114/9/3
f 125/1/3 122/1/3 117/1/3
f 125/1/3 123/1/3 122/1/3
f 126/1/3 118/1/3 123/1/3
f 126/8/3 119/8/3 118/8/3
f 126/1/3 123/1/3 125/1/3
f 127/8/3 119/8/3 126/8/3
f 128/9/3 124/9/3 114/9/3
f 129/8/3 125/8/3 124/8/3
f 129/9/3 124/9/3 128/9/3
f 130/9/3 126/9/3 125/9/3
f 130/8/3 125/8/3 129/8/3
f 130/9/3 127/9/3 126/9/3
f 131/9/3 127/9/3 130/9/3
f 134/9/3 133/9/3 132/9/3
f 135/9/3 133/9/3 134/9/3
f 138/12/3 137/12/3 136/12/3
f 139/12/3 137/12/3 138/12/3
f 140/5/3 139/5/3 138/5/3
f 141/5/3 139/5/3 140/5/3
f 142/5/3 140/5/3 138/5/3
f 142/4/3 141/4/3 140/4/3
f 143/5/3 139/5/3 141/5/3
f 143/4/3 141/4/3 142/4/3
f 144/5/3 142/5/3 138/5/3
f 144/5/3 143/5/3 142/5/3
f 145/5/3 139/5/3 143/5/3
f 145/5/3 143/5/3 144/5/3
f 146/5/3 144/5/3 138/5/3
f 146/4/3 145/4/3 144/4/3
f 147/5/3 139/5/3 145/5/3
f 147/4/3 145/4/3 146/4/3
f 148/5/3 146/5/3 138/5/3
f 148/5/3 147/5/3 146/5/3
f 149/5/3 139/5/3 147/5/3
f 149/5/3 147/5/3 148/5/3
f 150/5/3 148/5/3 138/5/3
f 150/4/3 149/4/3 148/4/3
f 151/4/3 149/4/3 150/4/3
f 152/5/3 150/5/3 138/5/3
f 152/5/3 151/5/3 150/5/3
f 153/4/3 149/4/3 151/4/3
f 153/5/3 151/5/3 152/5/3
f 154/5/3 152/5/3 138/5/3
f 154/4/3 153/4/3 152/4/3
f 155/5/3 139/5/3 149/5/3
f 155/4/3 153/4/3 154/4/3
f 155/4/3 149/4/3 153/4/3
f 156/5/3 154/5/3 138/5/3
f 156/5/3 155/5/3 154/5/3
f 157/5/3 139/5/3 155/5/3
f 157/5/3 155/5/3 156/5/3
f 158/5/3 156/5/3 138/5/3
f 158/4/3 157/4/3 156/4/3
f 159/5/3 139/5/3 157/5/3
f 159/4/3 157/4/3 158/4/3
f 160/5/3 158/5/3 138/5/3
f 160/5/3 159/5/3 158/5/3
f 161/5/3 139/5/3 159/5/3
f 161/5/3 159/5/3 160/5/3
f 162/5/3 160/5/3 138/5/3
f 162/4/3 161/4/3 160/4/3
f 163/4/3 161/4/3 162/4/3
f 164/5/3 162/5/3 138/5/3
f 164/5/3 163/5/3 162/5/3
f 165/4/3 161/4/3 163/4/3
f 165/5/3 163/5/3 164/5/3
f 166/5/3 164/5/3 138/5/3
f 166/4/3 165/4/3 164/4/3
f 167/5/3 139/5/3 161/5/3
f 167/4/3 165/4/3 166/4/3
f 167/4/3 161/4/3 165/4/3
f 168/5/3 166/5/3 138/5/3
f 168/5/3 167/5/3 166/5/3
f 169/5/3 139/5/3 167/5/3
f 169/5/3 167/5/3 168/5/3
f 170/5/3 168/5/3 138/5/3
f 170/4/3 169/4/3 168/4/3
f 171/5/3 139/5/3 169/5/3
f 171/4/3 169/4/3 170/4/3
f 172/5/3 170/5/3 138/5/3
f 172/5/3 171/5/3 170/5/3
f 173/12/3 137/12/3 139/12/3
f 173/5/3 171/5/3 172/5/3
f 173/5/3 139/5/3 171/5/3
f 174/12/3 173/12/3 172/12/3
f 175/12/3 137/12/3 173/12/3
f 175/12/3 173/12/3 174/12/3
f 178/8/3 177/8/3 176/8/3
f 179/8/3 177/8/3 178/8/3
f 184/9/3 181/9/3 180/9/3
f 184/9/3 183/9/3 182/9/3
f 184/9/3 182/9/3 181/9/3
f 185/9/3 183/9/3 184/9/3
f 186/3/3 185/3/3 184/3/3
f 187/3/3 185/3/3 186/3/3
f 188/3/3 185/3/3 187/3/3
f 189/3/3 185/3/3 188/3/3
f 190/3/3 185/3/3 189/3/3
f 191/6/3 188/6/3 187/6/3
f 192/6/3 188/6/3 191/6/3
f 193/6/3 190/6/3 189/6/3
f 194/6/3 190/6/3 193/6/3
f 195/1/3 194/1/3 193/1/3
f 196/1/3 194/1/3 195/1/3
f 197/1/3 195/1/3 193/1/3
f 197/7/3 196/7/3 195/7/3
f 198/1/3 194/1/3 196/1/3
f 198/7/3 196/7/3 197/7/3
f 199/6/3 191/6/3 187/6/3
f 199/1/3 192/1/3 191/1/3
f 200/6/3 188/6/3 192/6/3
f 200/1/3 192/1/3 199/1/3
f 201/1/3 198/1/3 197/1/3
f 201/6/3 193/6/3 189/6/3
f 201/1/3 197/1/3 193/1/3
f 202/1/3 194/1/3 198/1/3
f 202/1/3 198/1/3 201/1/3
f 202/6/3 190/6/3 194/6/3
f 203/2/3 187/2/3 186/2/3
f 204/6/3 199/6/3 187/6/3
f 204/2/3 187/2/3 203/2/3
f 204/6/3 200/6/3 199/6/3
f 205/6/3 188/6/3 200/6/3
f 205/6/3 200/6/3 204/6/3
f 206/6/3 201/6/3 189/6/3
f 206/6/3 202/6/3 201/6/3
f 207/6/3 190/6/3 202/6/3
f 207/3/3 185/3/3 190/3/3
f 207/6/3 202/6/3 206/6/3
f 208/3/3 206/3/3 205/3/3
f 208/3/3 205/3/3 204/3/3
f 208/3/3 207/3/3 206/3/3
f 208/3/3 204/3/3 203/3/3
f 209/3/3 185/3/3 207/3/3
f 209/3/3 207/3/3 208/3/3
f 210/9/3 209/9/3 208/9/3
f 211/9/3 209/9/3 210/9/3
f 214/9/3 213/9/3 212/9/3
f 215/9/3 213/9/3 214/9/3
f 218/9/3 217/9/3 216/9/3
f 219/9/3 217/9/3 218/9/3
f 220/1/4 221/1/4 222/1/4
f 222/1/4 221/1/4 223/1/4
f 220/1/4 222/1/4 224/1/4
f 222/4/4 223/4/4 224/4/4
f 223/1/4 221/1/4 225/1/4
f 224/4/4 223/4/4 225/4/4
f 220/1/4 224/1/4 226/1/4
f 224/1/4 225/1/4 226/1/4
f 225/1/4 221/1/4 227/1/4
f 226/1/4 225/1/4 227/1/4
f 230/10/4 231/10/4 232/10/4
f 232/10/4 231/10/4 233/10/4
f 228/12/4 229/12/4 234/12/4
f 234/12/4 229/12/4 235/12/4
f 236/8/4 237/8/4 240/8/4
f 240/8/4 237/8/4 241/8/4
f 238/9/4 239/9/4 242/9/4
f 242/9/4 239/9/4 243/9/4
f 244/9/4 245/9/4 246/9/4
f 246/9/4 245/9/4 247/9/4
f 252/9/5 249/9/5 248/9/5
f 253/9/5 249/9/5 252/9/5
f 254/9/5 252/9/5 248/9/5
f 254/10/5 253/10/5 252/10/5
f 255/9/5 249/9/5 253/9/5
f 255/10/5 253/10/5 254/10/5
f 256/9/5 249/9/5 255/9/5
f 261/9/5 251/9/5 250/9/5
f 262/9/5 254/9/5 248/9/5
f 263/9/5 256/9/5 255/9/5
f 263/9/5 257/9/5 256/9/5
f 264/3/5 258/3/5 257/3/5
f 264/9/5 257/9/5 263/9/5
f 265/2/5 259/2/5 258/2/5
f 265/3/5 258/3/5 264/3/5
f 266/3/5 260/3/5 259/3/5
f 266/2/5 259/2/5 265/2/5
f 267/9/5 261/9/5 260/9/5
f 267/3/5 260/3/5 266/3/5
f 268/9/5 265/9/5 264/9/5
f 268/9/5 266/9/5 265/9/5
f 268/9/5 267/9/5 266/9/5
f 268/9/5 262/9/5 248/9/5
f 268/9/5 263/9/5 262/9/5
f 268/9/5 264/9/5 263/9/5
f 269/9/5 261/9/5 267/9/5
f 269/9/5 267/9/5 268/9/5
f 269/9/5 251/9/5 261/9/5
f 272/8/5 271/8/5 270/8/5
f 273/8/5 271/8/5 272/8/5
f 276/8/5 275/8/5 274/8/5
f 277/8/5 275/8/5 276/8/5
f 280/8/5 279/8/5 278/8/5
f 281/8/5 279/8/5 280/8/5
f 284/8/5 283/8/5 282/8/5
f 285/8/5 283/8/5 284/8/5
f 286/9/5 285/9/5 284/9/5
f 287/9/5 286/9/5 284/9/5
f 288/9/5 286/9/5 287/9/5
f 291/11/5 290/11/5 289/11/5
f 292/11/5 290/11/5 291/11/5
f 293/11/5 290/11/5 292/11/5
f 294/11/5 290/11/5 293/11/5
f 295/11/5 290/11/5 294/11/5
f 296/11/5 290/11/5 295/11/5
f 297/11/5 295/11/5 294/11/5
f 298/11/5 295/11/5 297/11/5
f 299/9/5 298/9/5 297/9/5
f 300/9/5 298/9/5 299/9/5
f 301/9/5 298/9/5 300/9/5
f 302/9/5 298/9/5 301/9/5
f 303/9/5 298/9/5 302/9/5
f 304/8/6 305/8/6 306/8/6
f 306/8/6 305/8/6 307/8/6
f 308/8/6 309/8/6 310/8/6
f 310/8/6 309/8/6 311/8/6
f 312/8/6 313/8/6 314/8/6
f 314/8/6 313/8/6 315/8/6
f 316/11/6 317/11/6 318/11/6
f 318/11/6 317/11/6 319/11/6
f 319/11/6 317/11/6 320/11/6
f 320/11/6 317/11/6 321/11/6
f 322/8/6 323/8/6 324/8/6
f 324/8/6 323/8/6 325/8/6
f 326/9/6 327/9/6 328/9/6
f 328/9/6 327/9/6 329/9/6
f 326/9/6 328/9/6 330/9/6
f 329/9/6 327/9/6 331/9/6
f 326/9/6 330/9/6 332/9/6
f 330/9/6 331/9/6 332/9/6
f 331/9/6 327/9/6 333/9/6
f 332/9/6 331/9/6 333/9/6
f 334/12/6 335/12/6 336/12/6
f 336/12/6 335/12/6 337/12/6
