# MagicaVoxel @ Ephtracy

# material
mtllib bld_store13.mtl
usemtl palette

# normals
vn -1 0 0
vn 1 0 0
vn 0 0 1
vn 0 0 -1
vn 0 -1 0
vn 0 1 0

# texcoords
vt 0.142578 0.5
vt 0.962891 0.5
vt 0.970703 0.5
vt 0.974609 0.5
vt 0.978516 0.5
vt 0.982422 0.5
vt 0.990234 0.5

# verts
v -32 0 31
v -32 0 -32
v -32 15 32
v -32 15 31
v -32 15 29
v -32 17 32
v -32 17 29
v -32 17 28
v -32 23 28
v -32 23 -32
v -32 24 29
v -32 24 28
v -27 3 31
v -27 3 30
v -27 4 31
v -27 4 30
v -24 7 21
v -24 7 20
v -24 8 21
v -24 8 20
v -18 0 31
v -18 0 30
v -18 3 30
v -18 4 30
v -18 14 30
v -18 15 31
v -18 15 30
v -12 3 31
v -12 3 30
v -12 4 31
v -12 4 30
v -10 4 21
v -10 4 20
v -10 14 21
v -10 15 21
v -10 15 20
v -3 0 31
v -3 0 30
v -3 3 30
v -3 4 30
v -3 14 30
v -3 15 31
v -3 15 30
v 3 3 31
v 3 3 30
v 3 4 31
v 3 4 30
v 12 0 31
v 12 0 30
v 12 3 30
v 12 4 30
v 12 14 30
v 12 15 31
v 12 15 30
v 18 3 31
v 18 3 30
v 18 4 31
v 18 4 30
v 28 0 31
v 28 0 30
v 28 3 30
v 28 4 30
v 28 14 30
v 28 15 31
v 28 15 30
v 31 22 28
v 31 22 -31
v 31 23 28
v 31 23 -31
v -31 22 28
v -31 22 -31
v -31 23 28
v -31 23 -31
v -28 0 31
v -28 0 30
v -28 3 30
v -28 4 30
v -28 4 21
v -28 4 20
v -28 14 30
v -28 14 21
v -28 15 31
v -28 15 30
v -28 15 21
v -28 15 20
v -19 3 31
v -19 3 30
v -19 4 31
v -19 4 30
v -14 7 21
v -14 7 20
v -14 8 21
v -14 8 20
v -13 0 31
v -13 0 30
v -13 3 30
v -13 4 30
v -13 14 30
v -13 15 31
v -13 15 30
v -4 3 31
v -4 3 30
v -4 4 31
v -4 4 30
v 2 0 31
v 2 0 30
v 2 3 30
v 2 4 30
v 2 14 30
v 2 15 31
v 2 15 30
v 11 3 31
v 11 3 30
v 11 4 31
v 11 4 30
v 17 0 31
v 17 0 30
v 17 3 30
v 17 4 30
v 17 14 30
v 17 15 31
v 17 15 30
v 27 3 31
v 27 3 30
v 27 4 31
v 27 4 30
v 32 0 31
v 32 0 -32
v 32 15 32
v 32 15 31
v 32 15 29
v 32 17 32
v 32 17 29
v 32 17 28
v 32 23 28
v 32 23 -32
v 32 24 29
v 32 24 28
v -32 15 32
v -32 17 32
v 32 15 32
v 32 17 32
v -32 0 31
v -32 15 31
v -28 0 31
v -28 15 31
v -27 3 31
v -27 4 31
v -19 3 31
v -19 4 31
v -18 0 31
v -18 15 31
v -13 0 31
v -13 15 31
v -12 3 31
v -12 4 31
v -4 3 31
v -4 4 31
v -3 0 31
v -3 15 31
v 2 0 31
v 2 15 31
v 3 3 31
v 3 4 31
v 11 3 31
v 11 4 31
v 12 0 31
v 12 15 31
v 17 0 31
v 17 15 31
v 18 3 31
v 18 4 31
v 27 3 31
v 27 4 31
v 28 0 31
v 28 15 31
v 32 0 31
v 32 15 31
v -28 0 30
v -28 3 30
v -28 4 30
v -28 14 30
v -28 15 30
v -27 3 30
v -27 4 30
v -19 3 30
v -19 4 30
v -18 0 30
v -18 3 30
v -18 4 30
v -18 14 30
v -18 15 30
v -13 0 30
v -13 3 30
v -13 4 30
v -13 14 30
v -13 15 30
v -12 3 30
v -12 4 30
v -4 3 30
v -4 4 30
v -3 0 30
v -3 3 30
v -3 4 30
v -3 14 30
v -3 15 30
v 2 0 30
v 2 3 30
v 2 4 30
v 2 14 30
v 2 15 30
v 3 3 30
v 3 4 30
v 11 3 30
v 11 4 30
v 12 0 30
v 12 3 30
v 12 4 30
v 12 14 30
v 12 15 30
v 17 0 30
v 17 3 30
v 17 4 30
v 17 14 30
v 17 15 30
v 18 3 30
v 18 4 30
v 27 3 30
v 27 4 30
v 28 0 30
v 28 3 30
v 28 4 30
v 28 14 30
v 28 15 30
v -32 17 29
v -32 24 29
v -31 17 29
v -31 23 29
v -28 19 29
v -28 21 29
v 28 19 29
v 28 21 29
v 31 17 29
v 31 23 29
v 32 17 29
v 32 24 29
v -28 4 20
v -28 15 20
v -24 7 20
v -24 8 20
v -14 7 20
v -14 8 20
v -10 4 20
v -10 15 20
v -31 22 -31
v -31 23 -31
v 31 22 -31
v 31 23 -31
v -32 23 28
v -32 24 28
v -31 22 28
v -31 23 28
v 31 22 28
v 31 23 28
v 32 23 28
v 32 24 28
v -28 4 21
v -28 14 21
v -28 15 21
v -24 7 21
v -24 8 21
v -14 7 21
v -14 8 21
v -10 4 21
v -10 14 21
v -10 15 21
v -32 0 -32
v -32 23 -32
v 32 0 -32
v 32 23 -32
v -32 0 31
v -28 0 31
v -18 0 31
v -13 0 31
v -3 0 31
v 2 0 31
v 12 0 31
v 17 0 31
v 28 0 31
v 32 0 31
v -28 0 30
v -18 0 30
v -13 0 30
v -3 0 30
v 2 0 30
v 12 0 30
v 17 0 30
v 28 0 30
v -10 0 29
v -9 0 29
v 8 0 29
v 12 0 29
v -10 0 28
v -9 0 28
v 8 0 28
v 12 0 28
v 28 0 28
v -28 0 20
v -10 0 20
v -32 0 -32
v 32 0 -32
v -27 3 31
v -19 3 31
v -12 3 31
v -4 3 31
v 3 3 31
v 11 3 31
v 18 3 31
v 27 3 31
v -27 3 30
v -19 3 30
v -12 3 30
v -4 3 30
v 3 3 30
v 11 3 30
v 18 3 30
v 27 3 30
v -24 7 21
v -14 7 21
v -24 7 20
v -14 7 20
v -32 15 32
v 32 15 32
v -32 15 31
v -28 15 31
v -18 15 31
v -13 15 31
v -3 15 31
v 2 15 31
v 12 15 31
v 17 15 31
v 28 15 31
v 32 15 31
v -28 15 30
v -18 15 30
v -13 15 30
v -3 15 30
v 2 15 30
v 12 15 30
v 17 15 30
v 28 15 30
v -28 15 21
v -10 15 21
v -28 15 20
v -10 15 20
v -27 4 31
v -19 4 31
v -12 4 31
v -4 4 31
v 3 4 31
v 11 4 31
v 18 4 31
v 27 4 31
v -27 4 30
v -19 4 30
v -12 4 30
v -4 4 30
v 3 4 30
v 11 4 30
v 18 4 30
v 27 4 30
v -28 4 21
v -10 4 21
v -28 4 20
v -10 4 20
v -24 8 21
v -14 8 21
v -24 8 20
v -14 8 20
v -32 17 32
v 32 17 32
v -32 17 29
v -31 17 29
v 31 17 29
v 32 17 29
v -31 22 28
v 31 22 28
v -31 22 -31
v 31 22 -31
v -32 23 28
v -31 23 28
v 31 23 28
v 32 23 28
v -31 23 -31
v 31 23 -31
v -32 23 -32
v 32 23 -32
v -32 24 29
v 32 24 29
v -32 24 28
v 32 24 28

# faces
f 4/4/1 2/4/1 1/4/1
f 5/4/1 2/4/1 4/4/1
f 6/6/1 4/6/1 3/6/1
f 6/6/1 5/6/1 4/6/1
f 7/4/1 2/4/1 5/4/1
f 7/6/1 5/6/1 6/6/1
f 8/4/1 2/4/1 7/4/1
f 9/4/1 2/4/1 8/4/1
f 9/7/1 8/7/1 7/7/1
f 10/4/1 2/4/1 9/4/1
f 11/7/1 9/7/1 7/7/1
f 12/7/1 9/7/1 11/7/1
f 15/3/1 14/3/1 13/3/1
f 16/3/1 14/3/1 15/3/1
f 19/3/1 18/3/1 17/3/1
f 20/3/1 18/3/1 19/3/1
f 23/4/1 22/4/1 21/4/1
f 24/4/1 23/4/1 21/4/1
f 25/4/1 24/4/1 21/4/1
f 26/4/1 25/4/1 21/4/1
f 27/4/1 25/4/1 26/4/1
f 30/3/1 29/3/1 28/3/1
f 31/3/1 29/3/1 30/3/1
f 34/4/1 33/4/1 32/4/1
f 35/4/1 33/4/1 34/4/1
f 36/4/1 33/4/1 35/4/1
f 39/4/1 38/4/1 37/4/1
f 40/4/1 39/4/1 37/4/1
f 41/4/1 40/4/1 37/4/1
f 42/4/1 41/4/1 37/4/1
f 43/4/1 41/4/1 42/4/1
f 46/3/1 45/3/1 44/3/1
f 47/3/1 45/3/1 46/3/1
f 50/4/1 49/4/1 48/4/1
f 51/4/1 50/4/1 48/4/1
f 52/4/1 51/4/1 48/4/1
f 53/4/1 52/4/1 48/4/1
f 54/4/1 52/4/1 53/4/1
f 57/3/1 56/3/1 55/3/1
f 58/3/1 56/3/1 57/3/1
f 61/4/1 60/4/1 59/4/1
f 62/4/1 61/4/1 59/4/1
f 63/4/1 62/4/1 59/4/1
f 64/4/1 63/4/1 59/4/1
f 65/4/1 63/4/1 64/4/1
f 68/4/1 67/4/1 66/4/1
f 69/4/1 67/4/1 68/4/1
f 70/4/2 71/4/2 72/4/2
f 72/4/2 71/4/2 73/4/2
f 74/4/2 75/4/2 76/4/2
f 74/4/2 76/4/2 77/4/2
f 74/4/2 77/4/2 80/4/2
f 78/4/2 79/4/2 81/4/2
f 74/4/2 80/4/2 82/4/2
f 82/4/2 80/4/2 83/4/2
f 81/4/2 79/4/2 84/4/2
f 84/4/2 79/4/2 85/4/2
f 86/3/2 87/3/2 88/3/2
f 88/3/2 87/3/2 89/3/2
f 90/3/2 91/3/2 92/3/2
f 92/3/2 91/3/2 93/3/2
f 94/4/2 95/4/2 96/4/2
f 94/4/2 96/4/2 97/4/2
f 94/4/2 97/4/2 98/4/2
f 94/4/2 98/4/2 99/4/2
f 99/4/2 98/4/2 100/4/2
f 101/3/2 102/3/2 103/3/2
f 103/3/2 102/3/2 104/3/2
f 105/4/2 106/4/2 107/4/2
f 105/4/2 107/4/2 108/4/2
f 105/4/2 108/4/2 109/4/2
f 105/4/2 109/4/2 110/4/2
f 110/4/2 109/4/2 111/4/2
f 112/3/2 113/3/2 114/3/2
f 114/3/2 113/3/2 115/3/2
f 116/4/2 117/4/2 118/4/2
f 116/4/2 118/4/2 119/4/2
f 116/4/2 119/4/2 120/4/2
f 116/4/2 120/4/2 121/4/2
f 121/4/2 120/4/2 122/4/2
f 123/3/2 124/3/2 125/3/2
f 125/3/2 124/3/2 126/3/2
f 127/4/2 128/4/2 130/4/2
f 130/4/2 128/4/2 131/4/2
f 129/6/2 130/6/2 132/6/2
f 130/6/2 131/6/2 132/6/2
f 131/4/2 128/4/2 133/4/2
f 132/6/2 131/6/2 133/6/2
f 133/4/2 128/4/2 134/4/2
f 134/4/2 128/4/2 135/4/2
f 133/7/2 134/7/2 135/7/2
f 135/4/2 128/4/2 136/4/2
f 133/7/2 135/7/2 137/7/2
f 137/7/2 135/7/2 138/7/2
f 141/6/3 140/6/3 139/6/3
f 142/6/3 140/6/3 141/6/3
f 145/4/3 144/4/3 143/4/3
f 146/4/3 144/4/3 145/4/3
f 149/3/3 148/3/3 147/3/3
f 150/3/3 148/3/3 149/3/3
f 153/4/3 152/4/3 151/4/3
f 154/4/3 152/4/3 153/4/3
f 157/3/3 156/3/3 155/3/3
f 158/3/3 156/3/3 157/3/3
f 161/4/3 160/4/3 159/4/3
f 162/4/3 160/4/3 161/4/3
f 165/3/3 164/3/3 163/3/3
f 166/3/3 164/3/3 165/3/3
f 169/4/3 168/4/3 167/4/3
f 170/4/3 168/4/3 169/4/3
f 173/3/3 172/3/3 171/3/3
f 174/3/3 172/3/3 173/3/3
f 177/4/3 176/4/3 175/4/3
f 178/4/3 176/4/3 177/4/3
f 184/5/3 180/5/3 179/5/3
f 184/3/3 181/3/3 180/3/3
f 185/1/3 182/1/3 181/1/3
f 185/3/3 181/3/3 184/3/3
f 186/5/3 184/5/3 179/5/3
f 187/1/3 182/1/3 185/1/3
f 188/5/3 186/5/3 179/5/3
f 189/3/3 187/3/3 186/3/3
f 189/5/3 186/5/3 188/5/3
f 190/1/3 182/1/3 187/1/3
f 190/3/3 187/3/3 189/3/3
f 191/3/3 183/3/3 182/3/3
f 191/1/3 182/1/3 190/1/3
f 192/3/3 183/3/3 191/3/3
f 198/5/3 194/5/3 193/5/3
f 198/3/3 195/3/3 194/3/3
f 199/1/3 196/1/3 195/1/3
f 199/3/3 195/3/3 198/3/3
f 200/5/3 198/5/3 193/5/3
f 201/1/3 196/1/3 199/1/3
f 202/5/3 200/5/3 193/5/3
f 203/3/3 201/3/3 200/3/3
f 203/5/3 200/5/3 202/5/3
f 204/1/3 196/1/3 201/1/3
f 204/3/3 201/3/3 203/3/3
f 205/3/3 197/3/3 196/3/3
f 205/1/3 196/1/3 204/1/3
f 206/3/3 197/3/3 205/3/3
f 212/5/3 208/5/3 207/5/3
f 212/3/3 209/3/3 208/3/3
f 213/1/3 210/1/3 209/1/3
f 213/3/3 209/3/3 212/3/3
f 214/5/3 212/5/3 207/5/3
f 215/1/3 210/1/3 213/1/3
f 216/5/3 214/5/3 207/5/3
f 217/4/3 215/4/3 214/4/3
f 217/5/3 214/5/3 216/5/3
f 218/1/3 210/1/3 215/1/3
f 218/4/3 215/4/3 217/4/3
f 219/3/3 211/3/3 210/3/3
f 219/1/3 210/1/3 218/1/3
f 220/3/3 211/3/3 219/3/3
f 226/5/3 222/5/3 221/5/3
f 226/3/3 223/3/3 222/3/3
f 227/1/3 224/1/3 223/1/3
f 227/3/3 223/3/3 226/3/3
f 228/5/3 226/5/3 221/5/3
f 229/1/3 224/1/3 227/1/3
f 230/5/3 228/5/3 221/5/3
f 231/3/3 229/3/3 228/3/3
f 231/5/3 228/5/3 230/5/3
f 232/1/3 224/1/3 229/1/3
f 232/3/3 229/3/3 231/3/3
f 233/3/3 225/3/3 224/3/3
f 233/1/3 224/1/3 232/1/3
f 234/3/3 225/3/3 233/3/3
f 237/7/3 236/7/3 235/7/3
f 238/7/3 236/7/3 237/7/3
f 239/6/3 238/6/3 237/6/3
f 240/6/3 238/6/3 239/6/3
f 241/6/3 239/6/3 237/6/3
f 241/2/3 240/2/3 239/2/3
f 242/6/3 238/6/3 240/6/3
f 242/2/3 240/2/3 241/2/3
f 243/6/3 241/6/3 237/6/3
f 243/6/3 242/6/3 241/6/3
f 244/7/3 236/7/3 238/7/3
f 244/6/3 242/6/3 243/6/3
f 244/6/3 238/6/3 242/6/3
f 245/7/3 244/7/3 243/7/3
f 246/7/3 236/7/3 244/7/3
f 246/7/3 244/7/3 245/7/3
f 249/4/3 248/4/3 247/4/3
f 250/4/3 248/4/3 249/4/3
f 251/4/3 249/4/3 247/4/3
f 252/4/3 248/4/3 250/4/3
f 253/4/3 251/4/3 247/4/3
f 253/4/3 252/4/3 251/4/3
f 254/4/3 248/4/3 252/4/3
f 254/4/3 252/4/3 253/4/3
f 257/4/3 256/4/3 255/4/3
f 258/4/3 256/4/3 257/4/3
f 259/7/4 260/7/4 262/7/4
f 261/6/4 262/6/4 263/6/4
f 262/7/4 260/7/4 264/7/4
f 263/6/4 262/6/4 264/6/4
f 264/7/4 260/7/4 265/7/4
f 265/7/4 260/7/4 266/7/4
f 267/1/4 268/1/4 270/1/4
f 270/1/4 268/1/4 271/1/4
f 267/1/4 270/1/4 272/1/4
f 271/1/4 268/1/4 273/1/4
f 267/1/4 272/1/4 274/1/4
f 272/1/4 273/1/4 274/1/4
f 268/3/4 269/3/4 275/3/4
f 274/1/4 273/1/4 275/1/4
f 273/1/4 268/1/4 275/1/4
f 275/3/4 269/3/4 276/3/4
f 277/4/4 278/4/4 279/4/4
f 279/4/4 278/4/4 280/4/4
f 291/4/5 282/4/5 281/4/5
f 292/4/5 284/4/5 283/4/5
f 293/4/5 284/4/5 292/4/5
f 294/4/5 286/4/5 285/4/5
f 295/4/5 286/4/5 294/4/5
f 296/4/5 288/4/5 287/4/5
f 297/4/5 288/4/5 296/4/5
f 298/4/5 290/4/5 289/4/5
f 299/5/5 297/5/5 296/5/5
f 299/5/5 298/5/5 297/5/5
f 299/5/5 293/5/5 292/5/5
f 299/5/5 295/5/5 294/5/5
f 299/5/5 296/5/5 295/5/5
f 299/5/5 292/5/5 291/5/5
f 299/5/5 294/5/5 293/5/5
f 300/5/5 298/5/5 299/5/5
f 301/5/5 298/5/5 300/5/5
f 302/5/5 298/5/5 301/5/5
f 303/5/5 299/5/5 291/5/5
f 303/1/5 300/1/5 299/1/5
f 304/5/5 301/5/5 300/5/5
f 304/1/5 300/1/5 303/1/5
f 305/4/5 302/4/5 301/4/5
f 305/5/5 301/5/5 304/5/5
f 306/5/5 298/5/5 302/5/5
f 306/4/5 302/4/5 305/4/5
f 307/4/5 290/4/5 298/4/5
f 307/5/5 298/5/5 306/5/5
f 308/4/5 291/4/5 281/4/5
f 308/5/5 303/5/5 291/5/5
f 309/4/5 306/4/5 305/4/5
f 309/5/5 303/5/5 308/5/5
f 309/4/5 305/4/5 304/4/5
f 309/4/5 307/4/5 306/4/5
f 309/4/5 304/4/5 303/4/5
f 310/4/5 308/4/5 281/4/5
f 310/4/5 309/4/5 308/4/5
f 311/4/5 307/4/5 309/4/5
f 311/4/5 309/4/5 310/4/5
f 311/4/5 290/4/5 307/4/5
f 320/3/5 313/3/5 312/3/5
f 321/3/5 313/3/5 320/3/5
f 322/3/5 315/3/5 314/3/5
f 323/3/5 315/3/5 322/3/5
f 324/3/5 317/3/5 316/3/5
f 325/3/5 317/3/5 324/3/5
f 326/3/5 319/3/5 318/3/5
f 327/3/5 319/3/5 326/3/5
f 330/3/5 329/3/5 328/3/5
f 331/3/5 329/3/5 330/3/5
f 334/6/5 333/6/5 332/6/5
f 335/6/5 333/6/5 334/6/5
f 336/6/5 333/6/5 335/6/5
f 337/6/5 333/6/5 336/6/5
f 338/6/5 333/6/5 337/6/5
f 339/6/5 333/6/5 338/6/5
f 340/6/5 333/6/5 339/6/5
f 341/6/5 333/6/5 340/6/5
f 342/6/5 333/6/5 341/6/5
f 343/6/5 333/6/5 342/6/5
f 344/6/5 336/6/5 335/6/5
f 345/6/5 336/6/5 344/6/5
f 346/6/5 338/6/5 337/6/5
f 347/6/5 338/6/5 346/6/5
f 348/6/5 340/6/5 339/6/5
f 349/6/5 340/6/5 348/6/5
f 350/6/5 342/6/5 341/6/5
f 351/6/5 342/6/5 350/6/5
f 354/7/5 353/7/5 352/7/5
f 355/7/5 353/7/5 354/7/5
f 356/3/6 357/3/6 364/3/6
f 364/3/6 357/3/6 365/3/6
f 358/3/6 359/3/6 366/3/6
f 366/3/6 359/3/6 367/3/6
f 360/3/6 361/3/6 368/3/6
f 368/3/6 361/3/6 369/3/6
f 362/3/6 363/3/6 370/3/6
f 370/3/6 363/3/6 371/3/6
f 372/3/6 373/3/6 374/3/6
f 374/3/6 373/3/6 375/3/6
f 376/3/6 377/3/6 378/3/6
f 378/3/6 377/3/6 379/3/6
f 380/6/6 381/6/6 382/6/6
f 382/6/6 381/6/6 383/6/6
f 383/6/6 381/6/6 384/6/6
f 384/6/6 381/6/6 385/6/6
f 386/3/6 387/3/6 388/3/6
f 388/3/6 387/3/6 389/3/6
f 390/4/6 391/4/6 394/4/6
f 392/4/6 393/4/6 395/4/6
f 390/4/6 394/4/6 396/4/6
f 394/4/6 395/4/6 396/4/6
f 395/4/6 393/4/6 397/4/6
f 396/4/6 395/4/6 397/4/6
f 398/7/6 399/7/6 400/7/6
f 400/7/6 399/7/6 401/7/6
