# MagicaVoxel @ Ephtracy

# material
mtllib bld_story05a.mtl
usemtl palette

# normals
vn -1 0 0
vn 1 0 0
vn 0 0 1
vn 0 0 -1
vn 0 -1 0
vn 0 1 0

# texcoords
vt 0.0917969 0.5
vt 0.142578 0.5
vt 0.306641 0.5
vt 0.970703 0.5
vt 0.974609 0.5
vt 0.978516 0.5
vt 0.986328 0.5

# verts
v -16 0 32
v -16 0 30
v -16 0 -28
v -16 20 32
v -16 20 30
v -16 20 -28
v -8 0 31
v -8 0 30
v -8 17 31
v -8 17 30
v 6 0 31
v 6 0 30
v 6 17 31
v 6 17 30
v 14 0 32
v 14 0 30
v 14 17 31
v 14 17 30
v 14 18 31
v 14 19 31
v 14 20 32
v 14 20 31
v 15 19 29
v 15 19 -27
v 15 20 29
v 15 20 -27
v -15 19 29
v -15 19 -27
v -15 20 29
v -15 20 -27
v -14 0 32
v -14 0 30
v -14 17 31
v -14 17 30
v -14 18 31
v -14 19 31
v -14 20 32
v -14 20 31
v -6 0 31
v -6 0 30
v -6 17 31
v -6 17 30
v 8 0 31
v 8 0 30
v 8 17 31
v 8 17 30
v 16 0 32
v 16 0 30
v 16 0 -28
v 16 20 32
v 16 20 30
v 16 20 -28
v -16 0 32
v -16 20 32
v -14 0 32
v -14 20 32
v 14 0 32
v 14 20 32
v 16 0 32
v 16 20 32
v -14 17 31
v -14 18 31
v -14 19 31
v -14 20 31
v -8 0 31
v -8 17 31
v -8 18 31
v -8 19 31
v -6 0 31
v -6 17 31
v -6 18 31
v -6 19 31
v 6 0 31
v 6 17 31
v 6 18 31
v 6 19 31
v 8 0 31
v 8 17 31
v 8 18 31
v 8 19 31
v 14 17 31
v 14 18 31
v 14 19 31
v 14 20 31
v -14 0 30
v -14 17 30
v -8 0 30
v -8 17 30
v -6 0 30
v -6 17 30
v 6 0 30
v 6 17 30
v 8 0 30
v 8 17 30
v 14 0 30
v 14 17 30
v -15 19 -27
v -15 20 -27
v 15 19 -27
v 15 20 -27
v -15 19 29
v -15 20 29
v 15 19 29
v 15 20 29
v -16 0 -28
v -16 20 -28
v 16 0 -28
v 16 20 -28
v -16 0 32
v -14 0 32
v 14 0 32
v 16 0 32
v -8 0 31
v -6 0 31
v 6 0 31
v 8 0 31
v -16 0 30
v -14 0 30
v -8 0 30
v -6 0 30
v 6 0 30
v 8 0 30
v 14 0 30
v 16 0 30
v -16 0 -28
v 16 0 -28
v -14 17 31
v -8 17 31
v -6 17 31
v 6 17 31
v 8 17 31
v 14 17 31
v -14 17 30
v -8 17 30
v -6 17 30
v 6 17 30
v 8 17 30
v 14 17 30
v -15 19 29
v 15 19 29
v -15 19 -27
v 15 19 -27
v -16 20 32
v -14 20 32
v 14 20 32
v 16 20 32
v -14 20 31
v 14 20 31
v -16 20 30
v -14 20 30
v 14 20 30
v 16 20 30
v -15 20 29
v 15 20 29
v -15 20 -27
v 15 20 -27
v -16 20 -28
v 16 20 -28

# faces
f 4/4/1 2/4/1 1/4/1
f 5/5/1 3/5/1 2/5/1
f 5/4/1 2/4/1 4/4/1
f 6/5/1 3/5/1 5/5/1
f 9/6/1 8/6/1 7/6/1
f 10/6/1 8/6/1 9/6/1
f 13/6/1 12/6/1 11/6/1
f 14/6/1 12/6/1 13/6/1
f 17/4/1 16/4/1 15/4/1
f 18/4/1 16/4/1 17/4/1
f 19/4/1 17/4/1 15/4/1
f 20/4/1 19/4/1 15/4/1
f 21/4/1 20/4/1 15/4/1
f 22/4/1 20/4/1 21/4/1
f 25/5/1 24/5/1 23/5/1
f 26/5/1 24/5/1 25/5/1
f 27/5/2 28/5/2 29/5/2
f 29/5/2 28/5/2 30/5/2
f 31/4/2 32/4/2 33/4/2
f 33/4/2 32/4/2 34/4/2
f 31/4/2 33/4/2 35/4/2
f 31/4/2 35/4/2 36/4/2
f 31/4/2 36/4/2 37/4/2
f 37/4/2 36/4/2 38/4/2
f 39/6/2 40/6/2 41/6/2
f 41/6/2 40/6/2 42/6/2
f 43/6/2 44/6/2 45/6/2
f 45/6/2 44/6/2 46/6/2
f 47/4/2 48/4/2 50/4/2
f 48/5/2 49/5/2 51/5/2
f 50/4/2 48/4/2 51/4/2
f 51/5/2 49/5/2 52/5/2
f 55/4/3 54/4/3 53/4/3
f 56/4/3 54/4/3 55/4/3
f 59/4/3 58/4/3 57/4/3
f 60/4/3 58/4/3 59/4/3
f 66/6/3 62/6/3 61/6/3
f 67/5/3 63/5/3 62/5/3
f 67/6/3 62/6/3 66/6/3
f 68/6/3 64/6/3 63/6/3
f 68/5/3 63/5/3 67/5/3
f 69/6/3 67/6/3 66/6/3
f 69/6/3 66/6/3 65/6/3
f 69/6/3 68/6/3 67/6/3
f 70/6/3 68/6/3 69/6/3
f 71/6/3 68/6/3 70/6/3
f 72/6/3 64/6/3 68/6/3
f 72/6/3 68/6/3 71/6/3
f 74/6/3 71/6/3 70/6/3
f 75/5/3 72/5/3 71/5/3
f 75/6/3 71/6/3 74/6/3
f 76/6/3 64/6/3 72/6/3
f 76/5/3 72/5/3 75/5/3
f 77/6/3 74/6/3 73/6/3
f 77/6/3 75/6/3 74/6/3
f 77/6/3 76/6/3 75/6/3
f 78/6/3 76/6/3 77/6/3
f 79/6/3 76/6/3 78/6/3
f 80/6/3 64/6/3 76/6/3
f 80/6/3 76/6/3 79/6/3
f 81/6/3 79/6/3 78/6/3
f 82/5/3 80/5/3 79/5/3
f 82/6/3 79/6/3 81/6/3
f 83/6/3 64/6/3 80/6/3
f 83/5/3 80/5/3 82/5/3
f 84/6/3 64/6/3 83/6/3
f 87/5/3 86/5/3 85/5/3
f 88/5/3 86/5/3 87/5/3
f 91/5/3 90/5/3 89/5/3
f 92/5/3 90/5/3 91/5/3
f 95/5/3 94/5/3 93/5/3
f 96/5/3 94/5/3 95/5/3
f 99/5/3 98/5/3 97/5/3
f 100/5/3 98/5/3 99/5/3
f 101/5/4 102/5/4 103/5/4
f 103/5/4 102/5/4 104/5/4
f 105/5/4 106/5/4 107/5/4
f 107/5/4 106/5/4 108/5/4
f 117/4/5 110/4/5 109/4/5
f 118/4/5 110/4/5 117/4/5
f 119/6/5 114/6/5 113/6/5
f 120/6/5 114/6/5 119/6/5
f 121/6/5 116/6/5 115/6/5
f 122/6/5 116/6/5 121/6/5
f 123/4/5 112/4/5 111/4/5
f 124/4/5 112/4/5 123/4/5
f 125/5/5 120/5/5 119/5/5
f 125/5/5 122/5/5 121/5/5
f 125/5/5 124/5/5 123/5/5
f 125/5/5 123/5/5 122/5/5
f 125/5/5 118/5/5 117/5/5
f 125/5/5 121/5/5 120/5/5
f 125/5/5 119/5/5 118/5/5
f 126/5/5 124/5/5 125/5/5
f 133/6/5 128/6/5 127/6/5
f 134/6/5 128/6/5 133/6/5
f 135/6/5 130/6/5 129/6/5
f 136/6/5 130/6/5 135/6/5
f 137/6/5 132/6/5 131/6/5
f 138/6/5 132/6/5 137/6/5
f 139/4/6 140/4/6 141/4/6
f 141/4/6 140/4/6 142/4/6
f 143/4/6 144/4/6 147/4/6
f 145/4/6 146/4/6 148/4/6
f 143/4/6 147/4/6 149/4/6
f 147/6/6 148/6/6 150/6/6
f 149/4/6 147/4/6 150/4/6
f 148/4/6 146/4/6 151/4/6
f 150/6/6 148/6/6 151/6/6
f 151/4/6 146/4/6 152/4/6
f 149/5/6 150/5/6 153/5/6
f 150/5/6 151/5/6 153/5/6
f 151/5/6 152/5/6 153/5/6
f 153/5/6 152/5/6 154/5/6
f 149/5/6 153/5/6 155/5/6
f 154/5/6 152/5/6 156/5/6
f 149/5/6 155/5/6 157/5/6
f 155/5/6 156/5/6 157/5/6
f 156/5/6 152/5/6 158/5/6
f 157/5/6 156/5/6 158/5/6
