# MagicaVoxel @ Ephtracy

# material
mtllib bld_store17.mtl
usemtl palette

# normals
vn -1 0 0
vn 1 0 0
vn 0 0 1
vn 0 0 -1
vn 0 -1 0
vn 0 1 0

# texcoords
vt 0.306641 0.5
vt 0.341797 0.5
vt 0.369141 0.5
vt 0.373047 0.5
vt 0.958984 0.5
vt 0.962891 0.5
vt 0.970703 0.5
vt 0.974609 0.5
vt 0.990234 0.5

# verts
v -32 0 29
v -32 0 -32
v -32 23 29
v -32 23 -32
v -12 1 21
v -12 1 20
v -12 14 21
v -12 14 20
v -7 7 22
v -7 7 21
v -7 9 22
v -7 9 21
v -5 17 30
v -5 17 29
v -5 23 29
v -5 30 30
v -5 30 29
v -3 24 31
v -3 24 30
v -3 26 31
v -3 26 30
v -1 19 31
v -1 19 30
v -1 24 31
v -1 24 30
v -1 26 31
v -1 26 30
v -1 28 31
v -1 28 30
v 1 1 21
v 1 1 20
v 1 14 21
v 1 14 20
v 2 7 22
v 2 7 21
v 2 9 22
v 2 9 21
v 29 0 21
v 29 0 20
v 29 16 21
v 29 16 20
v 30 0 29
v 30 0 28
v 30 0 21
v 30 17 29
v 30 17 28
v 30 17 21
v 30 22 27
v 30 22 -30
v 30 23 27
v 30 23 -30
v -30 0 29
v -30 0 28
v -30 0 21
v -30 17 29
v -30 17 28
v -30 17 21
v -30 22 27
v -30 22 -30
v -30 23 27
v -30 23 -30
v -29 0 21
v -29 0 20
v -29 16 21
v -29 16 20
v -2 7 22
v -2 7 21
v -2 9 22
v -2 9 21
v -1 1 21
v -1 1 20
v -1 14 21
v -1 14 20
v 1 19 31
v 1 19 30
v 1 24 31
v 1 24 30
v 1 26 31
v 1 26 30
v 1 28 31
v 1 28 30
v 3 24 31
v 3 24 30
v 3 26 31
v 3 26 30
v 5 17 30
v 5 17 29
v 5 23 29
v 5 30 30
v 5 30 29
v 7 7 22
v 7 7 21
v 7 9 22
v 7 9 21
v 12 1 21
v 12 1 20
v 12 14 21
v 12 14 20
v 32 0 29
v 32 0 -32
v 32 23 29
v 32 23 -32
v -3 24 31
v -3 26 31
v -1 19 31
v -1 24 31
v -1 26 31
v -1 28 31
v 1 19 31
v 1 24 31
v 1 26 31
v 1 28 31
v 3 24 31
v 3 26 31
v -5 17 30
v -5 30 30
v -3 24 30
v -3 26 30
v -1 19 30
v -1 24 30
v -1 26 30
v -1 28 30
v 1 19 30
v 1 24 30
v 1 26 30
v 1 28 30
v 3 24 30
v 3 26 30
v 5 17 30
v 5 30 30
v -32 0 29
v -32 23 29
v -30 0 29
v -30 17 29
v -5 17 29
v -5 23 29
v 5 17 29
v 5 23 29
v 30 0 29
v 30 17 29
v 32 0 29
v 32 23 29
v -7 7 22
v -7 9 22
v -2 7 22
v -2 9 22
v 2 7 22
v 2 9 22
v 7 7 22
v 7 9 22
v -30 0 21
v -30 17 21
v -29 0 21
v -29 16 21
v -12 1 21
v -12 14 21
v -7 7 21
v -7 9 21
v -2 7 21
v -2 9 21
v -1 1 21
v -1 14 21
v 1 1 21
v 1 14 21
v 2 7 21
v 2 9 21
v 7 7 21
v 7 9 21
v 12 1 21
v 12 14 21
v 29 0 21
v 29 16 21
v 30 0 21
v 30 17 21
v -29 0 20
v -29 16 20
v -28 0 20
v -28 15 20
v -27 3 20
v -27 13 20
v -26 2 20
v -26 3 20
v -26 13 20
v -26 14 20
v -24 2 20
v -24 3 20
v -24 13 20
v -24 14 20
v -23 3 20
v -23 13 20
v -22 0 20
v -22 15 20
v -20 0 20
v -20 15 20
v -19 3 20
v -19 13 20
v -18 2 20
v -18 3 20
v -18 13 20
v -18 14 20
v -16 2 20
v -16 3 20
v -16 13 20
v -16 14 20
v -15 3 20
v -15 13 20
v -14 0 20
v -14 15 20
v -13 0 20
v -13 15 20
v -12 1 20
v -12 14 20
v -1 1 20
v -1 14 20
v 1 1 20
v 1 14 20
v 12 1 20
v 12 14 20
v 13 0 20
v 13 15 20
v 14 0 20
v 14 15 20
v 15 3 20
v 15 13 20
v 16 2 20
v 16 3 20
v 16 13 20
v 16 14 20
v 18 2 20
v 18 3 20
v 18 13 20
v 18 14 20
v 19 3 20
v 19 13 20
v 20 0 20
v 20 15 20
v 22 0 20
v 22 15 20
v 23 3 20
v 23 13 20
v 24 2 20
v 24 3 20
v 24 13 20
v 24 14 20
v 26 2 20
v 26 3 20
v 26 13 20
v 26 14 20
v 27 3 20
v 27 13 20
v 28 0 20
v 28 15 20
v 29 0 20
v 29 16 20
v -30 22 -30
v -30 23 -30
v 30 22 -30
v 30 23 -30
v -5 23 29
v -5 30 29
v 5 23 29
v 5 30 29
v -30 22 27
v -30 23 27
v 30 22 27
v 30 23 27
v -32 0 -32
v -32 23 -32
v 32 0 -32
v 32 23 -32
v -32 0 29
v -30 0 29
v 30 0 29
v 32 0 29
v -31 0 28
v -30 0 28
v 30 0 28
v 31 0 28
v -31 0 21
v -30 0 21
v -29 0 21
v 29 0 21
v 30 0 21
v 31 0 21
v -30 0 20
v -29 0 20
v -28 0 20
v -22 0 20
v -20 0 20
v -14 0 20
v -13 0 20
v 13 0 20
v 14 0 20
v 20 0 20
v 22 0 20
v 28 0 20
v 29 0 20
v 30 0 20
v -29 0 19
v -28 0 19
v -22 0 19
v -20 0 19
v -14 0 19
v -13 0 19
v 13 0 19
v 14 0 19
v 20 0 19
v 22 0 19
v 28 0 19
v 29 0 19
v -31 0 -31
v 31 0 -31
v -32 0 -32
v 32 0 -32
v -12 1 21
v -1 1 21
v 1 1 21
v 12 1 21
v -12 1 20
v -1 1 20
v 1 1 20
v 12 1 20
v -7 7 22
v -2 7 22
v 2 7 22
v 7 7 22
v -7 7 21
v -2 7 21
v 2 7 21
v 7 7 21
v -29 16 21
v 29 16 21
v -29 16 20
v 29 16 20
v -5 17 30
v 5 17 30
v -30 17 29
v -5 17 29
v 5 17 29
v 30 17 29
v -30 17 28
v -5 17 28
v 5 17 28
v 30 17 28
v -30 17 21
v 30 17 21
v -1 19 31
v 1 19 31
v -1 19 30
v 1 19 30
v -3 24 31
v -1 24 31
v 1 24 31
v 3 24 31
v -3 24 30
v -1 24 30
v 1 24 30
v 3 24 30
v -7 9 22
v -2 9 22
v 2 9 22
v 7 9 22
v -7 9 21
v -2 9 21
v 2 9 21
v 7 9 21
v -12 14 21
v -1 14 21
v 1 14 21
v 12 14 21
v -12 14 20
v -1 14 20
v 1 14 20
v 12 14 20
v -30 22 27
v 30 22 27
v -30 22 -30
v 30 22 -30
v -32 23 29
v -5 23 29
v 5 23 29
v 32 23 29
v -31 23 28
v -5 23 28
v 5 23 28
v 31 23 28
v -30 23 27
v 30 23 27
v -30 23 -30
v 30 23 -30
v -31 23 -31
v 31 23 -31
v -32 23 -32
v 32 23 -32
v -3 26 31
v -1 26 31
v 1 26 31
v 3 26 31
v -3 26 30
v -1 26 30
v 1 26 30
v 3 26 30
v -1 28 31
v 1 28 31
v -1 28 30
v 1 28 30
v -5 30 30
v 5 30 30
v -5 30 29
v 5 30 29

# faces
f 3/6/1 2/6/1 1/6/1
f 4/6/1 2/6/1 3/6/1
f 7/3/1 6/3/1 5/3/1
f 8/3/1 6/3/1 7/3/1
f 11/5/1 10/5/1 9/5/1
f 12/5/1 10/5/1 11/5/1
f 15/8/1 14/8/1 13/8/1
f 16/8/1 15/8/1 13/8/1
f 17/8/1 15/8/1 16/8/1
f 20/5/1 19/5/1 18/5/1
f 21/5/1 19/5/1 20/5/1
f 24/5/1 23/5/1 22/5/1
f 25/5/1 23/5/1 24/5/1
f 28/5/1 27/5/1 26/5/1
f 29/5/1 27/5/1 28/5/1
f 32/3/1 31/3/1 30/3/1
f 33/3/1 31/3/1 32/3/1
f 36/5/1 35/5/1 34/5/1
f 37/5/1 35/5/1 36/5/1
f 40/5/1 39/5/1 38/5/1
f 41/5/1 39/5/1 40/5/1
f 45/6/1 43/6/1 42/6/1
f 46/5/1 44/5/1 43/5/1
f 46/6/1 43/6/1 45/6/1
f 47/5/1 44/5/1 46/5/1
f 50/8/1 49/8/1 48/8/1
f 51/8/1 49/8/1 50/8/1
f 52/6/2 53/6/2 55/6/2
f 53/5/2 54/5/2 56/5/2
f 55/6/2 53/6/2 56/6/2
f 56/5/2 54/5/2 57/5/2
f 58/8/2 59/8/2 60/8/2
f 60/8/2 59/8/2 61/8/2
f 62/5/2 63/5/2 64/5/2
f 64/5/2 63/5/2 65/5/2
f 66/5/2 67/5/2 68/5/2
f 68/5/2 67/5/2 69/5/2
f 70/3/2 71/3/2 72/3/2
f 72/3/2 71/3/2 73/3/2
f 74/5/2 75/5/2 76/5/2
f 76/5/2 75/5/2 77/5/2
f 78/5/2 79/5/2 80/5/2
f 80/5/2 79/5/2 81/5/2
f 82/5/2 83/5/2 84/5/2
f 84/5/2 83/5/2 85/5/2
f 86/8/2 87/8/2 88/8/2
f 86/8/2 88/8/2 89/8/2
f 89/8/2 88/8/2 90/8/2
f 91/5/2 92/5/2 93/5/2
f 93/5/2 92/5/2 94/5/2
f 95/3/2 96/3/2 97/3/2
f 97/3/2 96/3/2 98/3/2
f 99/6/2 100/6/2 101/6/2
f 101/6/2 100/6/2 102/6/2
f 106/5/3 104/5/3 103/5/3
f 107/5/3 104/5/3 106/5/3
f 109/5/3 106/5/3 105/5/3
f 109/5/3 108/5/3 107/5/3
f 109/5/3 107/5/3 106/5/3
f 110/5/3 108/5/3 109/5/3
f 111/5/3 108/5/3 110/5/3
f 112/5/3 108/5/3 111/5/3
f 113/5/3 111/5/3 110/5/3
f 114/5/3 111/5/3 113/5/3
f 117/8/3 116/8/3 115/8/3
f 118/8/3 116/8/3 117/8/3
f 119/8/3 117/8/3 115/8/3
f 120/8/3 117/8/3 119/8/3
f 121/8/3 116/8/3 118/8/3
f 122/8/3 116/8/3 121/8/3
f 123/8/3 119/8/3 115/8/3
f 126/8/3 116/8/3 122/8/3
f 127/8/3 124/8/3 123/8/3
f 128/8/3 126/8/3 125/8/3
f 129/8/3 127/8/3 123/8/3
f 129/8/3 128/8/3 127/8/3
f 129/8/3 123/8/3 115/8/3
f 130/8/3 126/8/3 128/8/3
f 130/8/3 128/8/3 129/8/3
f 130/8/3 116/8/3 126/8/3
f 133/6/3 132/6/3 131/6/3
f 134/6/3 132/6/3 133/6/3
f 135/6/3 132/6/3 134/6/3
f 136/6/3 132/6/3 135/6/3
f 140/6/3 138/6/3 137/6/3
f 141/6/3 140/6/3 139/6/3
f 142/6/3 138/6/3 140/6/3
f 142/6/3 140/6/3 141/6/3
f 145/5/3 144/5/3 143/5/3
f 146/5/3 144/5/3 145/5/3
f 149/5/3 148/5/3 147/5/3
f 150/5/3 148/5/3 149/5/3
f 153/5/3 152/5/3 151/5/3
f 154/5/3 152/5/3 153/5/3
f 157/3/3 156/3/3 155/3/3
f 158/3/3 156/3/3 157/3/3
f 159/3/3 157/3/3 155/3/3
f 160/3/3 156/3/3 158/3/3
f 161/3/3 159/3/3 155/3/3
f 161/3/3 160/3/3 159/3/3
f 162/3/3 156/3/3 160/3/3
f 162/3/3 160/3/3 161/3/3
f 165/3/3 164/3/3 163/3/3
f 166/3/3 164/3/3 165/3/3
f 167/3/3 165/3/3 163/3/3
f 168/3/3 164/3/3 166/3/3
f 169/3/3 167/3/3 163/3/3
f 169/3/3 168/3/3 167/3/3
f 170/3/3 164/3/3 168/3/3
f 170/3/3 168/3/3 169/3/3
f 172/5/3 152/5/3 154/5/3
f 173/5/3 172/5/3 171/5/3
f 174/5/3 152/5/3 172/5/3
f 174/5/3 172/5/3 173/5/3
f 177/5/3 176/5/3 175/5/3
f 178/5/3 176/5/3 177/5/3
f 179/3/3 178/3/3 177/3/3
f 180/3/3 178/3/3 179/3/3
f 181/3/3 179/3/3 177/3/3
f 182/1/3 180/1/3 179/1/3
f 182/3/3 179/3/3 181/3/3
f 183/3/3 178/3/3 180/3/3
f 183/1/3 180/1/3 182/1/3
f 184/3/3 178/3/3 183/3/3
f 185/1/3 182/1/3 181/1/3
f 185/3/3 181/3/3 177/3/3
f 185/1/3 184/1/3 183/1/3
f 185/1/3 183/1/3 182/1/3
f 186/1/3 184/1/3 185/1/3
f 187/1/3 184/1/3 186/1/3
f 188/3/3 178/3/3 184/3/3
f 188/1/3 184/1/3 187/1/3
f 189/1/3 187/1/3 186/1/3
f 189/3/3 186/3/3 185/3/3
f 190/3/3 188/3/3 187/3/3
f 190/1/3 187/1/3 189/1/3
f 191/3/3 185/3/3 177/3/3
f 191/3/3 189/3/3 185/3/3
f 191/3/3 190/3/3 189/3/3
f 192/5/3 176/5/3 178/5/3
f 192/3/3 190/3/3 191/3/3
f 192/3/3 178/3/3 188/3/3
f 192/3/3 188/3/3 190/3/3
f 193/5/3 192/5/3 191/5/3
f 194/5/3 176/5/3 192/5/3
f 194/5/3 192/5/3 193/5/3
f 195/3/3 194/3/3 193/3/3
f 196/3/3 194/3/3 195/3/3
f 197/3/3 195/3/3 193/3/3
f 198/1/3 196/1/3 195/1/3
f 198/3/3 195/3/3 197/3/3
f 199/3/3 194/3/3 196/3/3
f 199/1/3 196/1/3 198/1/3
f 200/3/3 194/3/3 199/3/3
f 201/1/3 198/1/3 197/1/3
f 201/3/3 197/3/3 193/3/3
f 201/1/3 200/1/3 199/1/3
f 201/1/3 199/1/3 198/1/3
f 202/1/3 200/1/3 201/1/3
f 203/1/3 200/1/3 202/1/3
f 204/3/3 194/3/3 200/3/3
f 204/1/3 200/1/3 203/1/3
f 205/1/3 203/1/3 202/1/3
f 205/3/3 202/3/3 201/3/3
f 206/3/3 204/3/3 203/3/3
f 206/1/3 203/1/3 205/1/3
f 207/3/3 201/3/3 193/3/3
f 207/3/3 205/3/3 201/3/3
f 207/3/3 206/3/3 205/3/3
f 208/5/3 176/5/3 194/5/3
f 208/3/3 206/3/3 207/3/3
f 208/3/3 194/3/3 204/3/3
f 208/3/3 204/3/3 206/3/3
f 209/5/3 208/5/3 207/5/3
f 210/5/3 176/5/3 208/5/3
f 210/5/3 208/5/3 209/5/3
f 211/4/3 210/4/3 209/4/3
f 212/4/3 210/4/3 211/4/3
f 213/4/3 211/4/3 209/4/3
f 214/4/3 210/4/3 212/4/3
f 215/4/3 213/4/3 209/4/3
f 215/4/3 214/4/3 213/4/3
f 216/4/3 210/4/3 214/4/3
f 216/4/3 214/4/3 215/4/3
f 217/4/3 215/4/3 209/4/3
f 218/4/3 210/4/3 216/4/3
f 219/4/3 217/4/3 209/4/3
f 219/4/3 218/4/3 217/4/3
f 220/5/3 176/5/3 210/5/3
f 220/4/3 218/4/3 219/4/3
f 220/4/3 210/4/3 218/4/3
f 221/5/3 220/5/3 219/5/3
f 222/5/3 176/5/3 220/5/3
f 222/5/3 220/5/3 221/5/3
f 223/3/3 222/3/3 221/3/3
f 224/3/3 222/3/3 223/3/3
f 225/3/3 223/3/3 221/3/3
f 226/1/3 224/1/3 223/1/3
f 226/3/3 223/3/3 225/3/3
f 227/3/3 222/3/3 224/3/3
f 227/1/3 224/1/3 226/1/3
f 228/3/3 222/3/3 227/3/3
f 229/1/3 226/1/3 225/1/3
f 229/3/3 225/3/3 221/3/3
f 229/1/3 228/1/3 227/1/3
f 229/1/3 227/1/3 226/1/3
f 230/1/3 228/1/3 229/1/3
f 231/1/3 228/1/3 230/1/3
f 232/3/3 222/3/3 228/3/3
f 232/1/3 228/1/3 231/1/3
f 233/1/3 231/1/3 230/1/3
f 233/3/3 230/3/3 229/3/3
f 234/3/3 232/3/3 231/3/3
f 234/1/3 231/1/3 233/1/3
f 235/3/3 229/3/3 221/3/3
f 235/3/3 233/3/3 229/3/3
f 235/3/3 234/3/3 233/3/3
f 236/5/3 176/5/3 222/5/3
f 236/3/3 234/3/3 235/3/3
f 236/3/3 222/3/3 232/3/3
f 236/3/3 232/3/3 234/3/3
f 237/5/3 236/5/3 235/5/3
f 238/5/3 176/5/3 236/5/3
f 238/5/3 236/5/3 237/5/3
f 239/3/3 238/3/3 237/3/3
f 240/3/3 238/3/3 239/3/3
f 241/3/3 239/3/3 237/3/3
f 242/1/3 240/1/3 239/1/3
f 242/3/3 239/3/3 241/3/3
f 243/3/3 238/3/3 240/3/3
f 243/1/3 240/1/3 242/1/3
f 244/3/3 238/3/3 243/3/3
f 245/1/3 242/1/3 241/1/3
f 245/3/3 241/3/3 237/3/3
f 245/1/3 244/1/3 243/1/3
f 245/1/3 243/1/3 242/1/3
f 246/1/3 244/1/3 245/1/3
f 247/1/3 244/1/3 246/1/3
f 248/3/3 238/3/3 244/3/3
f 248/1/3 244/1/3 247/1/3
f 249/1/3 247/1/3 246/1/3
f 249/3/3 246/3/3 245/3/3
f 250/3/3 248/3/3 247/3/3
f 250/1/3 247/1/3 249/1/3
f 251/3/3 245/3/3 237/3/3
f 251/3/3 249/3/3 245/3/3
f 251/3/3 250/3/3 249/3/3
f 252/5/3 176/5/3 238/5/3
f 252/3/3 250/3/3 251/3/3
f 252/3/3 238/3/3 248/3/3
f 252/3/3 248/3/3 250/3/3
f 253/5/3 252/5/3 251/5/3
f 254/5/3 176/5/3 252/5/3
f 254/5/3 252/5/3 253/5/3
f 257/8/3 256/8/3 255/8/3
f 258/8/3 256/8/3 257/8/3
f 259/8/4 260/8/4 261/8/4
f 261/8/4 260/8/4 262/8/4
f 263/8/4 264/8/4 265/8/4
f 265/8/4 264/8/4 266/8/4
f 267/6/4 268/6/4 269/6/4
f 269/6/4 268/6/4 270/6/4
f 275/6/5 272/6/5 271/6/5
f 276/6/5 272/6/5 275/6/5
f 277/6/5 274/6/5 273/6/5
f 278/6/5 274/6/5 277/6/5
f 279/5/5 276/5/5 275/5/5
f 279/6/5 275/6/5 271/6/5
f 280/5/5 276/5/5 279/5/5
f 283/5/5 278/5/5 277/5/5
f 284/6/5 274/6/5 278/6/5
f 284/5/5 278/5/5 283/5/5
f 285/5/5 281/5/5 280/5/5
f 285/8/5 280/8/5 279/8/5
f 286/5/5 281/5/5 285/5/5
f 297/5/5 283/5/5 282/5/5
f 298/8/5 284/8/5 283/8/5
f 298/5/5 283/5/5 297/5/5
f 299/8/5 286/8/5 285/8/5
f 299/5/5 287/5/5 286/5/5
f 300/3/5 288/3/5 287/3/5
f 300/5/5 287/5/5 299/5/5
f 301/5/5 289/5/5 288/5/5
f 301/3/5 288/3/5 300/3/5
f 302/3/5 290/3/5 289/3/5
f 302/5/5 289/5/5 301/5/5
f 303/5/5 291/5/5 290/5/5
f 303/3/5 290/3/5 302/3/5
f 304/4/5 292/4/5 291/4/5
f 304/5/5 291/5/5 303/5/5
f 305/5/5 293/5/5 292/5/5
f 305/4/5 292/4/5 304/4/5
f 306/3/5 294/3/5 293/3/5
f 306/5/5 293/5/5 305/5/5
f 307/5/5 295/5/5 294/5/5
f 307/3/5 294/3/5 306/3/5
f 308/3/5 296/3/5 295/3/5
f 308/5/5 295/5/5 307/5/5
f 309/5/5 297/5/5 296/5/5
f 309/3/5 296/3/5 308/3/5
f 310/8/5 298/8/5 297/8/5
f 310/5/5 297/5/5 309/5/5
f 311/8/5 307/8/5 306/8/5
f 311/6/5 279/6/5 271/6/5
f 311/8/5 310/8/5 309/8/5
f 311/8/5 308/8/5 307/8/5
f 311/8/5 306/8/5 305/8/5
f 311/8/5 305/8/5 304/8/5
f 311/8/5 304/8/5 303/8/5
f 311/8/5 303/8/5 302/8/5
f 311/8/5 302/8/5 301/8/5
f 311/8/5 301/8/5 300/8/5
f 311/8/5 300/8/5 299/8/5
f 311/8/5 299/8/5 285/8/5
f 311/8/5 309/8/5 308/8/5
f 311/8/5 285/8/5 279/8/5
f 312/8/5 298/8/5 310/8/5
f 312/8/5 310/8/5 311/8/5
f 312/6/5 274/6/5 284/6/5
f 312/8/5 284/8/5 298/8/5
f 313/6/5 311/6/5 271/6/5
f 313/6/5 312/6/5 311/6/5
f 314/6/5 274/6/5 312/6/5
f 314/6/5 312/6/5 313/6/5
f 319/3/5 316/3/5 315/3/5
f 320/3/5 316/3/5 319/3/5
f 321/3/5 318/3/5 317/3/5
f 322/3/5 318/3/5 321/3/5
f 327/5/5 324/5/5 323/5/5
f 328/5/5 324/5/5 327/5/5
f 329/5/5 326/5/5 325/5/5
f 330/5/5 326/5/5 329/5/5
f 333/5/5 332/5/5 331/5/5
f 334/5/5 332/5/5 333/5/5
f 338/8/5 336/8/5 335/8/5
f 339/8/5 336/8/5 338/8/5
f 341/6/5 338/6/5 337/6/5
f 342/5/5 339/5/5 338/5/5
f 342/6/5 338/6/5 341/6/5
f 343/6/5 340/6/5 339/6/5
f 343/5/5 339/5/5 342/5/5
f 344/6/5 340/6/5 343/6/5
f 345/5/5 342/5/5 341/5/5
f 345/5/5 343/5/5 342/5/5
f 345/5/5 344/5/5 343/5/5
f 346/5/5 344/5/5 345/5/5
f 349/5/5 348/5/5 347/5/5
f 350/5/5 348/5/5 349/5/5
f 355/5/5 352/5/5 351/5/5
f 356/5/5 352/5/5 355/5/5
f 357/5/5 354/5/5 353/5/5
f 358/5/5 354/5/5 357/5/5
f 359/5/6 360/5/6 363/5/6
f 363/5/6 360/5/6 364/5/6
f 361/5/6 362/5/6 365/5/6
f 365/5/6 362/5/6 366/5/6
f 367/3/6 368/3/6 371/3/6
f 371/3/6 368/3/6 372/3/6
f 369/3/6 370/3/6 373/3/6
f 373/3/6 370/3/6 374/3/6
f 375/7/6 376/7/6 377/7/6
f 377/7/6 376/7/6 378/7/6
f 379/6/6 380/6/6 383/6/6
f 380/5/6 381/5/6 384/5/6
f 383/6/6 380/6/6 384/6/6
f 381/6/6 382/6/6 385/6/6
f 384/5/6 381/5/6 385/5/6
f 385/6/6 382/6/6 386/6/6
f 383/8/6 384/8/6 387/8/6
f 384/8/6 385/8/6 387/8/6
f 385/8/6 386/8/6 387/8/6
f 387/8/6 386/8/6 388/8/6
f 383/8/6 387/8/6 389/8/6
f 388/8/6 386/8/6 390/8/6
f 379/6/6 383/6/6 391/6/6
f 389/8/6 390/8/6 391/8/6
f 383/8/6 389/8/6 391/8/6
f 386/6/6 382/6/6 392/6/6
f 391/8/6 390/8/6 392/8/6
f 390/8/6 386/8/6 392/8/6
f 379/6/6 391/6/6 393/6/6
f 391/6/6 392/6/6 393/6/6
f 392/6/6 382/6/6 394/6/6
f 393/6/6 392/6/6 394/6/6
f 395/5/6 396/5/6 399/5/6
f 399/5/6 396/5/6 400/5/6
f 397/5/6 398/5/6 401/5/6
f 401/5/6 398/5/6 402/5/6
f 403/5/6 404/5/6 405/5/6
f 405/5/6 404/5/6 406/5/6
f 407/8/6 408/8/6 409/8/6
f 409/8/6 408/8/6 410/8/6
