# MagicaVoxel @ Ephtracy

# material
mtllib bld_store16.mtl
usemtl palette

# normals
vn -1 0 0
vn 1 0 0
vn 0 0 1
vn 0 0 -1
vn 0 -1 0
vn 0 1 0

# texcoords
vt 0.142578 0.5
vt 0.201172 0.5
vt 0.373047 0.5
vt 0.962891 0.5
vt 0.966797 0.5
vt 0.970703 0.5
vt 0.974609 0.5
vt 0.978516 0.5
vt 0.982422 0.5
vt 0.986328 0.5
vt 0.990234 0.5

# verts
v -32 0 32
v -32 0 30
v -32 0 -32
v -32 15 30
v -32 15 29
v -32 17 29
v -32 17 28
v -32 23 28
v -32 23 -32
v -32 24 32
v -32 24 28
v 17 7 21
v 17 7 20
v 17 8 21
v 17 8 20
v 19 0 31
v 19 0 30
v 19 5 31
v 19 5 30
v 19 6 31
v 19 6 30
v 19 13 31
v 19 13 30
v 28 0 32
v 28 0 31
v 28 13 32
v 28 13 31
v 31 0 31
v 31 0 30
v 31 0 20
v 31 15 31
v 31 15 30
v 31 15 20
v 31 17 30
v 31 17 29
v 31 22 27
v 31 22 -31
v 31 23 29
v 31 23 27
v 31 23 -31
v 31 24 30
v 31 24 29
v -31 0 31
v -31 0 30
v -31 3 31
v -31 3 30
v -31 4 31
v -31 4 30
v -31 14 30
v -31 15 31
v -31 15 30
v -31 17 30
v -31 17 29
v -31 22 27
v -31 22 -31
v -31 23 29
v -31 23 27
v -31 23 -31
v -31 24 30
v -31 24 29
v 12 3 31
v 12 3 30
v 12 4 31
v 12 4 30
v 13 0 30
v 13 0 20
v 13 3 29
v 13 3 20
v 13 4 29
v 13 4 21
v 13 4 20
v 13 14 29
v 13 14 21
v 13 15 30
v 13 15 29
v 13 15 21
v 13 15 20
v 19 0 32
v 19 0 31
v 19 5 31
v 19 6 31
v 19 13 32
v 19 13 31
v 27 7 21
v 27 7 20
v 27 8 21
v 27 8 20
v 28 0 31
v 28 0 30
v 28 13 31
v 28 13 30
v 32 0 32
v 32 0 30
v 32 0 -32
v 32 15 30
v 32 15 28
v 32 23 28
v 32 23 -32
v 32 24 32
v 32 24 28
v -32 0 32
v -32 24 32
v -28 15 32
v -28 20 32
v -26 15 32
v -26 20 32
v -25 15 32
v -25 20 32
v -24 15 32
v -24 20 32
v -23 15 32
v -23 20 32
v -22 15 32
v -22 16 32
v -21 16 32
v -21 20 32
v -20 15 32
v -20 20 32
v -19 15 32
v -19 20 32
v -18 15 32
v -18 20 32
v -16 15 32
v -16 20 32
v -15 15 32
v -15 20 32
v -14 15 32
v -14 20 32
v -13 15 32
v -13 20 32
v -11 15 32
v -11 20 32
v -10 15 32
v -10 20 32
v -9 15 32
v -9 20 32
v -8 15 32
v -8 20 32
v -6 15 32
v -6 20 32
v 19 0 32
v 19 13 32
v 28 0 32
v 28 13 32
v 32 0 32
v 32 24 32
v 19 0 31
v 19 5 31
v 19 6 31
v 19 13 31
v 21 5 31
v 21 6 31
v 22 9 31
v 22 11 31
v 26 9 31
v 26 11 31
v 28 0 31
v 28 13 31
v -31 0 30
v -31 3 30
v -31 4 30
v -31 14 30
v -31 15 30
v -18 4 30
v -18 14 30
v -17 4 30
v -17 14 30
v -3 4 30
v -3 14 30
v -2 4 30
v -2 14 30
v 12 3 30
v 12 4 30
v 12 14 30
v 12 15 30
v 13 0 30
v 13 15 30
v -31 17 29
v -31 23 29
v -31 24 29
v 31 17 29
v 31 23 29
v 31 24 29
v 17 7 21
v 17 8 21
v 27 7 21
v 27 8 21
v 13 0 20
v 13 3 20
v 13 4 20
v 13 15 20
v 16 0 20
v 16 15 20
v 17 0 20
v 17 1 20
v 17 7 20
v 17 8 20
v 17 14 20
v 18 2 20
v 18 6 20
v 18 9 20
v 18 13 20
v 20 11 20
v 20 12 20
v 24 11 20
v 24 12 20
v 26 2 20
v 26 6 20
v 26 9 20
v 26 13 20
v 27 0 20
v 27 1 20
v 27 7 20
v 27 8 20
v 27 14 20
v 28 0 20
v 28 15 20
v 31 0 20
v 31 15 20
v -31 22 -31
v -31 23 -31
v 31 22 -31
v 31 23 -31
v -31 0 31
v -31 3 31
v -31 4 31
v -31 15 31
v 12 3 31
v 12 4 31
v 19 0 31
v 19 5 31
v 19 6 31
v 19 13 31
v 28 0 31
v 28 13 31
v 31 0 31
v 31 15 31
v -31 17 30
v -31 24 30
v 19 0 30
v 19 5 30
v 19 6 30
v 19 13 30
v 21 5 30
v 21 6 30
v 22 9 30
v 22 11 30
v 26 9 30
v 26 11 30
v 28 0 30
v 28 13 30
v 31 17 30
v 31 24 30
v -32 23 28
v -32 24 28
v 32 23 28
v 32 24 28
v -31 22 27
v -31 23 27
v 31 22 27
v 31 23 27
v -32 0 -32
v -32 23 -32
v 32 0 -32
v 32 23 -32
v -32 0 32
v 19 0 32
v 28 0 32
v 32 0 32
v -31 0 31
v 19 0 31
v 28 0 31
v 31 0 31
v -32 0 30
v -31 0 30
v 13 0 30
v 19 0 30
v 28 0 30
v 31 0 30
v 32 0 30
v -31 0 29
v -9 0 29
v -5 0 29
v 12 0 29
v -31 0 28
v -9 0 28
v -5 0 28
v 12 0 28
v 13 0 20
v 16 0 20
v 17 0 20
v 27 0 20
v 28 0 20
v 31 0 20
v 16 0 19
v 17 0 19
v 27 0 19
v 28 0 19
v -32 0 -32
v 32 0 -32
v -31 3 31
v 12 3 31
v -31 3 30
v 12 3 30
v 17 7 21
v 27 7 21
v 17 7 20
v 27 7 20
v 19 13 32
v 28 13 32
v 19 13 31
v 28 13 31
v -31 15 31
v 31 15 31
v -31 15 30
v 12 15 30
v 13 15 30
v 31 15 30
v 13 15 29
v 13 15 21
v 13 15 20
v 16 15 20
v 28 15 20
v 31 15 20
v -31 4 31
v 12 4 31
v -31 4 30
v -18 4 30
v -17 4 30
v -3 4 30
v -2 4 30
v 12 4 30
v 17 8 21
v 27 8 21
v 17 8 20
v 27 8 20
v 19 13 31
v 28 13 31
v 19 13 30
v 28 13 30
v -31 17 30
v 31 17 30
v -31 17 29
v 31 17 29
v -31 22 27
v 31 22 27
v -31 22 -31
v 31 22 -31
v -32 23 28
v 32 23 28
v -31 23 27
v 31 23 27
v -31 23 -31
v 31 23 -31
v -32 23 -32
v 32 23 -32
v -32 24 32
v 32 24 32
v -31 24 30
v 31 24 30
v -31 24 29
v 31 24 29
v -32 24 28
v 32 24 28

# faces
f 4/11/1 2/11/1 1/11/1
f 4/7/1 3/7/1 2/7/1
f 5/7/1 3/7/1 4/7/1
f 6/11/1 5/11/1 4/11/1
f 6/7/1 3/7/1 5/7/1
f 7/7/1 3/7/1 6/7/1
f 8/11/1 7/11/1 6/11/1
f 8/7/1 3/7/1 7/7/1
f 9/7/1 3/7/1 8/7/1
f 10/11/1 4/11/1 1/11/1
f 10/11/1 6/11/1 4/11/1
f 10/11/1 8/11/1 6/11/1
f 11/11/1 8/11/1 10/11/1
f 14/6/1 13/6/1 12/6/1
f 15/6/1 13/6/1 14/6/1
f 18/10/1 17/10/1 16/10/1
f 19/10/1 17/10/1 18/10/1
f 20/4/1 19/4/1 18/4/1
f 21/4/1 19/4/1 20/4/1
f 22/10/1 21/10/1 20/10/1
f 23/10/1 21/10/1 22/10/1
f 26/11/1 25/11/1 24/11/1
f 27/11/1 25/11/1 26/11/1
f 31/11/1 29/11/1 28/11/1
f 32/7/1 30/7/1 29/7/1
f 32/11/1 29/11/1 31/11/1
f 33/7/1 30/7/1 32/7/1
f 38/11/1 35/11/1 34/11/1
f 39/7/1 37/7/1 36/7/1
f 40/7/1 37/7/1 39/7/1
f 41/11/1 38/11/1 34/11/1
f 42/11/1 38/11/1 41/11/1
f 43/11/2 44/11/2 45/11/2
f 45/11/2 44/11/2 46/11/2
f 47/11/2 48/11/2 49/11/2
f 47/11/2 49/11/2 50/11/2
f 50/11/2 49/11/2 51/11/2
f 52/11/2 53/11/2 56/11/2
f 54/7/2 55/7/2 57/7/2
f 57/7/2 55/7/2 58/7/2
f 52/11/2 56/11/2 59/11/2
f 59/11/2 56/11/2 60/11/2
f 61/6/2 62/6/2 63/6/2
f 63/6/2 62/6/2 64/6/2
f 65/7/2 66/7/2 67/7/2
f 67/7/2 66/7/2 68/7/2
f 65/7/2 67/7/2 69/7/2
f 67/6/2 68/6/2 69/6/2
f 69/6/2 68/6/2 70/6/2
f 70/6/2 68/6/2 71/6/2
f 65/7/2 69/7/2 72/7/2
f 69/1/2 70/1/2 72/1/2
f 70/7/2 71/7/2 73/7/2
f 72/1/2 70/1/2 73/1/2
f 65/7/2 72/7/2 74/7/2
f 72/6/2 73/6/2 75/6/2
f 74/7/2 72/7/2 75/7/2
f 73/7/2 71/7/2 76/7/2
f 75/6/2 73/6/2 76/6/2
f 76/7/2 71/7/2 77/7/2
f 78/11/2 79/11/2 80/11/2
f 78/11/2 80/11/2 81/11/2
f 78/11/2 81/11/2 82/11/2
f 82/11/2 81/11/2 83/11/2
f 84/6/2 85/6/2 86/6/2
f 86/6/2 85/6/2 87/6/2
f 88/10/2 89/10/2 90/10/2
f 90/10/2 89/10/2 91/10/2
f 92/11/2 93/11/2 95/11/2
f 93/7/2 94/7/2 95/7/2
f 95/7/2 94/7/2 96/7/2
f 95/11/2 96/11/2 97/11/2
f 96/7/2 94/7/2 97/7/2
f 97/7/2 94/7/2 98/7/2
f 92/11/2 95/11/2 99/11/2
f 95/11/2 97/11/2 99/11/2
f 99/11/2 97/11/2 100/11/2
f 103/11/3 102/11/3 101/11/3
f 104/11/3 102/11/3 103/11/3
f 105/11/3 103/11/3 101/11/3
f 105/5/3 104/5/3 103/5/3
f 106/11/3 102/11/3 104/11/3
f 106/5/3 104/5/3 105/5/3
f 107/11/3 105/11/3 101/11/3
f 107/11/3 106/11/3 105/11/3
f 108/11/3 102/11/3 106/11/3
f 108/11/3 106/11/3 107/11/3
f 109/11/3 107/11/3 101/11/3
f 109/5/3 108/5/3 107/5/3
f 110/11/3 102/11/3 108/11/3
f 110/5/3 108/5/3 109/5/3
f 111/11/3 109/11/3 101/11/3
f 111/11/3 110/11/3 109/11/3
f 112/11/3 102/11/3 110/11/3
f 112/11/3 110/11/3 111/11/3
f 113/11/3 111/11/3 101/11/3
f 113/5/3 112/5/3 111/5/3
f 114/5/3 112/5/3 113/5/3
f 115/11/3 114/11/3 113/11/3
f 115/5/3 112/5/3 114/5/3
f 116/11/3 102/11/3 112/11/3
f 116/5/3 112/5/3 115/5/3
f 117/11/3 115/11/3 113/11/3
f 117/11/3 113/11/3 101/11/3
f 117/11/3 116/11/3 115/11/3
f 118/11/3 102/11/3 116/11/3
f 118/11/3 116/11/3 117/11/3
f 119/11/3 117/11/3 101/11/3
f 119/5/3 118/5/3 117/5/3
f 120/11/3 102/11/3 118/11/3
f 120/5/3 118/5/3 119/5/3
f 121/11/3 119/11/3 101/11/3
f 121/11/3 120/11/3 119/11/3
f 122/11/3 102/11/3 120/11/3
f 122/11/3 120/11/3 121/11/3
f 123/11/3 121/11/3 101/11/3
f 123/5/3 122/5/3 121/5/3
f 124/11/3 102/11/3 122/11/3
f 124/5/3 122/5/3 123/5/3
f 125/11/3 123/11/3 101/11/3
f 125/11/3 124/11/3 123/11/3
f 126/11/3 102/11/3 124/11/3
f 126/11/3 124/11/3 125/11/3
f 127/11/3 125/11/3 101/11/3
f 127/5/3 126/5/3 125/5/3
f 128/11/3 102/11/3 126/11/3
f 128/5/3 126/5/3 127/5/3
f 129/11/3 127/11/3 101/11/3
f 129/11/3 128/11/3 127/11/3
f 130/11/3 102/11/3 128/11/3
f 130/11/3 128/11/3 129/11/3
f 131/11/3 129/11/3 101/11/3
f 131/5/3 130/5/3 129/5/3
f 132/11/3 102/11/3 130/11/3
f 132/5/3 130/5/3 131/5/3
f 133/11/3 131/11/3 101/11/3
f 133/11/3 132/11/3 131/11/3
f 134/11/3 102/11/3 132/11/3
f 134/11/3 132/11/3 133/11/3
f 135/11/3 133/11/3 101/11/3
f 135/5/3 134/5/3 133/5/3
f 136/11/3 102/11/3 134/11/3
f 136/5/3 134/5/3 135/5/3
f 137/11/3 135/11/3 101/11/3
f 137/11/3 136/11/3 135/11/3
f 138/11/3 102/11/3 136/11/3
f 138/11/3 136/11/3 137/11/3
f 139/11/3 137/11/3 101/11/3
f 139/5/3 138/5/3 137/5/3
f 140/11/3 102/11/3 138/11/3
f 140/5/3 138/5/3 139/5/3
f 141/11/3 139/11/3 101/11/3
f 141/11/3 140/11/3 139/11/3
f 142/11/3 140/11/3 141/11/3
f 144/11/3 140/11/3 142/11/3
f 145/11/3 144/11/3 143/11/3
f 146/11/3 102/11/3 140/11/3
f 146/11/3 144/11/3 145/11/3
f 146/11/3 140/11/3 144/11/3
f 151/10/3 148/10/3 147/10/3
f 151/4/3 149/4/3 148/4/3
f 152/10/3 150/10/3 149/10/3
f 152/4/3 149/4/3 151/4/3
f 153/10/3 152/10/3 151/10/3
f 153/10/3 150/10/3 152/10/3
f 154/10/3 150/10/3 153/10/3
f 155/10/3 153/10/3 151/10/3
f 155/5/3 154/5/3 153/5/3
f 156/10/3 150/10/3 154/10/3
f 156/5/3 154/5/3 155/5/3
f 157/10/3 151/10/3 147/10/3
f 157/10/3 155/10/3 151/10/3
f 157/10/3 156/10/3 155/10/3
f 158/10/3 150/10/3 156/10/3
f 158/10/3 156/10/3 157/10/3
f 164/1/3 162/1/3 161/1/3
f 165/6/3 163/6/3 162/6/3
f 165/1/3 162/1/3 164/1/3
f 166/7/3 165/7/3 164/7/3
f 167/6/3 163/6/3 165/6/3
f 167/7/3 165/7/3 166/7/3
f 168/1/3 167/1/3 166/1/3
f 169/6/3 163/6/3 167/6/3
f 169/1/3 167/1/3 168/1/3
f 170/7/3 169/7/3 168/7/3
f 171/6/3 163/6/3 169/6/3
f 171/7/3 169/7/3 170/7/3
f 172/7/3 160/7/3 159/7/3
f 173/1/3 171/1/3 170/1/3
f 174/6/3 163/6/3 171/6/3
f 174/1/3 171/1/3 173/1/3
f 175/6/3 163/6/3 174/6/3
f 176/7/3 173/7/3 172/7/3
f 176/7/3 172/7/3 159/7/3
f 176/7/3 175/7/3 174/7/3
f 176/7/3 174/7/3 173/7/3
f 177/7/3 175/7/3 176/7/3
f 181/7/3 179/7/3 178/7/3
f 182/11/3 180/11/3 179/11/3
f 182/7/3 179/7/3 181/7/3
f 183/11/3 180/11/3 182/11/3
f 186/6/3 185/6/3 184/6/3
f 187/6/3 185/6/3 186/6/3
f 192/7/3 189/7/3 188/7/3
f 192/7/3 191/7/3 190/7/3
f 192/7/3 190/7/3 189/7/3
f 193/7/3 191/7/3 192/7/3
f 194/3/3 193/3/3 192/3/3
f 195/3/3 193/3/3 194/3/3
f 196/3/3 193/3/3 195/3/3
f 197/3/3 193/3/3 196/3/3
f 198/3/3 193/3/3 197/3/3
f 199/4/3 196/4/3 195/4/3
f 200/4/3 196/4/3 199/4/3
f 201/4/3 198/4/3 197/4/3
f 202/4/3 198/4/3 201/4/3
f 203/1/3 202/1/3 201/1/3
f 204/1/3 202/1/3 203/1/3
f 205/1/3 203/1/3 201/1/3
f 205/5/3 204/5/3 203/5/3
f 206/1/3 202/1/3 204/1/3
f 206/5/3 204/5/3 205/5/3
f 207/4/3 199/4/3 195/4/3
f 207/1/3 200/1/3 199/1/3
f 208/4/3 196/4/3 200/4/3
f 208/1/3 200/1/3 207/1/3
f 209/1/3 206/1/3 205/1/3
f 209/4/3 201/4/3 197/4/3
f 209/1/3 205/1/3 201/1/3
f 210/1/3 202/1/3 206/1/3
f 210/1/3 206/1/3 209/1/3
f 210/4/3 198/4/3 202/4/3
f 211/2/3 195/2/3 194/2/3
f 212/4/3 207/4/3 195/4/3
f 212/2/3 195/2/3 211/2/3
f 212/4/3 208/4/3 207/4/3
f 213/4/3 196/4/3 208/4/3
f 213/4/3 208/4/3 212/4/3
f 214/4/3 209/4/3 197/4/3
f 214/4/3 210/4/3 209/4/3
f 215/4/3 198/4/3 210/4/3
f 215/3/3 193/3/3 198/3/3
f 215/4/3 210/4/3 214/4/3
f 216/3/3 214/3/3 213/3/3
f 216/3/3 213/3/3 212/3/3
f 216/3/3 215/3/3 214/3/3
f 216/3/3 212/3/3 211/3/3
f 217/3/3 193/3/3 215/3/3
f 217/3/3 215/3/3 216/3/3
f 218/7/3 217/7/3 216/7/3
f 219/7/3 217/7/3 218/7/3
f 222/7/3 221/7/3 220/7/3
f 223/7/3 221/7/3 222/7/3
f 224/11/4 225/11/4 228/11/4
f 226/11/4 227/11/4 229/11/4
f 224/11/4 228/11/4 230/11/4
f 228/11/4 229/11/4 230/11/4
f 229/11/4 227/11/4 231/11/4
f 230/11/4 229/11/4 231/11/4
f 231/11/4 227/11/4 232/11/4
f 232/11/4 227/11/4 233/11/4
f 233/11/4 227/11/4 235/11/4
f 234/11/4 235/11/4 236/11/4
f 235/11/4 227/11/4 237/11/4
f 236/11/4 235/11/4 237/11/4
f 240/10/4 241/10/4 244/10/4
f 241/4/4 242/4/4 244/4/4
f 242/10/4 243/10/4 245/10/4
f 244/4/4 242/4/4 245/4/4
f 244/10/4 245/10/4 246/10/4
f 245/10/4 243/10/4 246/10/4
f 246/10/4 243/10/4 247/10/4
f 244/10/4 246/10/4 248/10/4
f 246/5/4 247/5/4 248/5/4
f 247/10/4 243/10/4 249/10/4
f 248/5/4 247/5/4 249/5/4
f 240/10/4 244/10/4 250/10/4
f 244/10/4 248/10/4 250/10/4
f 248/10/4 249/10/4 250/10/4
f 249/10/4 243/10/4 251/10/4
f 250/10/4 249/10/4 251/10/4
f 238/11/4 239/11/4 252/11/4
f 252/11/4 239/11/4 253/11/4
f 254/11/4 255/11/4 256/11/4
f 256/11/4 255/11/4 257/11/4
f 258/7/4 259/7/4 260/7/4
f 260/7/4 259/7/4 261/7/4
f 262/7/4 263/7/4 264/7/4
f 264/7/4 263/7/4 265/7/4
f 270/11/5 267/11/5 266/11/5
f 271/11/5 267/11/5 270/11/5
f 272/11/5 269/11/5 268/11/5
f 273/11/5 269/11/5 272/11/5
f 274/11/5 270/11/5 266/11/5
f 275/11/5 270/11/5 274/11/5
f 277/10/5 272/10/5 271/10/5
f 278/10/5 272/10/5 277/10/5
f 279/11/5 269/11/5 273/11/5
f 280/11/5 269/11/5 279/11/5
f 281/7/5 276/7/5 275/7/5
f 281/7/5 275/7/5 274/7/5
f 282/7/5 276/7/5 281/7/5
f 283/7/5 276/7/5 282/7/5
f 284/7/5 276/7/5 283/7/5
f 285/7/5 281/7/5 274/7/5
f 285/8/5 282/8/5 281/8/5
f 286/7/5 283/7/5 282/7/5
f 286/8/5 282/8/5 285/8/5
f 287/8/5 284/8/5 283/8/5
f 287/7/5 283/7/5 286/7/5
f 288/7/5 276/7/5 284/7/5
f 288/8/5 284/8/5 287/8/5
f 289/7/5 287/7/5 286/7/5
f 289/7/5 276/7/5 288/7/5
f 289/7/5 288/7/5 287/7/5
f 289/7/5 286/7/5 285/7/5
f 294/7/5 280/7/5 279/7/5
f 295/7/5 290/7/5 289/7/5
f 295/3/5 291/3/5 290/3/5
f 296/2/5 292/2/5 291/2/5
f 296/3/5 291/3/5 295/3/5
f 297/3/5 293/3/5 292/3/5
f 297/2/5 292/2/5 296/2/5
f 298/7/5 294/7/5 293/7/5
f 298/3/5 293/3/5 297/3/5
f 299/7/5 296/7/5 295/7/5
f 299/7/5 285/7/5 274/7/5
f 299/7/5 298/7/5 297/7/5
f 299/7/5 289/7/5 285/7/5
f 299/7/5 295/7/5 289/7/5
f 299/7/5 297/7/5 296/7/5
f 300/7/5 294/7/5 298/7/5
f 300/7/5 298/7/5 299/7/5
f 300/7/5 280/7/5 294/7/5
f 303/6/5 302/6/5 301/6/5
f 304/6/5 302/6/5 303/6/5
f 307/6/5 306/6/5 305/6/5
f 308/6/5 306/6/5 307/6/5
f 311/11/5 310/11/5 309/11/5
f 312/11/5 310/11/5 311/11/5
f 315/9/5 314/9/5 313/9/5
f 316/9/5 314/9/5 315/9/5
f 317/9/5 314/9/5 316/9/5
f 318/9/5 314/9/5 317/9/5
f 319/7/5 318/7/5 317/7/5
f 320/7/5 318/7/5 319/7/5
f 321/7/5 318/7/5 320/7/5
f 322/7/5 318/7/5 321/7/5
f 323/7/5 318/7/5 322/7/5
f 324/7/5 318/7/5 323/7/5
f 325/6/6 326/6/6 327/6/6
f 327/6/6 326/6/6 328/6/6
f 328/6/6 326/6/6 329/6/6
f 329/6/6 326/6/6 330/6/6
f 330/6/6 326/6/6 331/6/6
f 331/6/6 326/6/6 332/6/6
f 333/6/6 334/6/6 335/6/6
f 335/6/6 334/6/6 336/6/6
f 337/10/6 338/10/6 339/10/6
f 339/10/6 338/10/6 340/10/6
f 341/9/6 342/9/6 343/9/6
f 343/9/6 342/9/6 344/9/6
f 345/6/6 346/6/6 347/6/6
f 347/6/6 346/6/6 348/6/6
f 349/7/6 350/7/6 351/7/6
f 351/7/6 350/7/6 352/7/6
f 349/7/6 351/7/6 353/7/6
f 352/7/6 350/7/6 354/7/6
f 349/7/6 353/7/6 355/7/6
f 353/7/6 354/7/6 355/7/6
f 354/7/6 350/7/6 356/7/6
f 355/7/6 354/7/6 356/7/6
f 357/11/6 358/11/6 359/11/6
f 359/11/6 358/11/6 360/11/6
f 357/11/6 359/11/6 361/11/6
f 360/11/6 358/11/6 362/11/6
f 357/11/6 361/11/6 363/11/6
f 361/11/6 362/11/6 363/11/6
f 362/11/6 358/11/6 364/11/6
f 363/11/6 362/11/6 364/11/6
