# MagicaVoxel @ Ephtracy

# material
mtllib bld_story03a.mtl
usemtl palette

# normals
vn -1 0 0
vn 1 0 0
vn 0 0 1
vn 0 0 -1
vn 0 -1 0
vn 0 1 0

# texcoords
vt 0.0332031 0.5
vt 0.0917969 0.5
vt 0.142578 0.5
vt 0.306641 0.5
vt 0.970703 0.5
vt 0.974609 0.5

# verts
v -16 0 32
v -16 0 30
v -16 0 -28
v -16 20 32
v -16 20 30
v -16 20 -28
v -7 5 31
v -7 5 29
v -7 6 31
v -7 6 30
v -7 6 29
v -7 6 28
v -7 7 29
v -7 7 28
v -7 9 29
v -7 9 28
v -7 10 29
v -7 10 28
v -7 12 29
v -7 12 28
v -7 13 29
v -7 13 28
v -7 15 29
v -7 15 28
v -7 16 30
v -7 16 29
v -7 16 28
v -1 6 30
v -1 6 29
v -1 10 30
v -1 10 29
v -1 11 30
v -1 11 29
v -1 15 30
v -1 15 29
v 6 6 30
v 6 6 29
v 6 10 30
v 6 10 29
v 6 11 30
v 6 11 29
v 6 15 30
v 6 15 29
v 14 0 32
v 14 0 30
v 14 3 30
v 14 3 28
v 14 4 29
v 14 4 28
v 14 6 29
v 14 6 28
v 14 7 29
v 14 7 28
v 14 9 29
v 14 9 28
v 14 10 29
v 14 10 28
v 14 12 29
v 14 12 28
v 14 13 29
v 14 13 28
v 14 15 29
v 14 15 28
v 14 16 29
v 14 16 28
v 14 18 30
v 14 18 29
v 14 20 32
v 14 20 30
v 15 19 29
v 15 19 -27
v 15 20 29
v 15 20 -27
v -15 19 29
v -15 19 -27
v -15 20 29
v -15 20 -27
v -14 0 32
v -14 0 30
v -14 3 30
v -14 3 28
v -14 4 29
v -14 4 28
v -14 6 29
v -14 6 28
v -14 7 29
v -14 7 28
v -14 9 29
v -14 9 28
v -14 10 29
v -14 10 28
v -14 12 29
v -14 12 28
v -14 13 29
v -14 13 28
v -14 15 29
v -14 15 28
v -14 16 29
v -14 16 28
v -14 18 30
v -14 18 29
v -14 20 32
v -14 20 30
v -6 6 30
v -6 6 29
v -6 10 30
v -6 10 29
v -6 11 30
v -6 11 29
v -6 15 30
v -6 15 29
v 1 6 30
v 1 6 29
v 1 10 30
v 1 10 29
v 1 11 30
v 1 11 29
v 1 15 30
v 1 15 29
v 7 5 31
v 7 5 29
v 7 6 31
v 7 6 30
v 7 6 29
v 7 6 28
v 7 7 29
v 7 7 28
v 7 9 29
v 7 9 28
v 7 10 29
v 7 10 28
v 7 12 29
v 7 12 28
v 7 13 29
v 7 13 28
v 7 15 29
v 7 15 28
v 7 16 30
v 7 16 29
v 7 16 28
v 16 0 32
v 16 0 30
v 16 0 -28
v 16 20 32
v 16 20 30
v 16 20 -28
v -16 0 32
v -16 20 32
v -14 0 32
v -14 20 32
v 14 0 32
v 14 20 32
v 16 0 32
v 16 20 32
v -7 5 31
v -7 6 31
v 7 5 31
v 7 6 31
v -14 0 30
v -14 3 30
v -14 18 30
v -14 20 30
v -7 6 30
v -7 16 30
v -6 6 30
v -6 10 30
v -6 11 30
v -6 15 30
v -1 6 30
v -1 10 30
v -1 11 30
v -1 15 30
v 1 6 30
v 1 10 30
v 1 11 30
v 1 15 30
v 6 6 30
v 6 10 30
v 6 11 30
v 6 15 30
v 7 6 30
v 7 16 30
v 14 0 30
v 14 3 30
v 14 18 30
v 14 20 30
v -14 4 29
v -14 6 29
v -14 7 29
v -14 9 29
v -14 10 29
v -14 12 29
v -14 13 29
v -14 15 29
v -14 16 29
v -14 18 29
v -7 5 29
v -7 6 29
v -7 7 29
v -7 9 29
v -7 10 29
v -7 12 29
v -7 13 29
v -7 15 29
v -7 16 29
v -6 6 29
v -6 10 29
v -6 11 29
v -6 15 29
v -1 6 29
v -1 10 29
v -1 11 29
v -1 15 29
v 1 6 29
v 1 10 29
v 1 11 29
v 1 15 29
v 6 6 29
v 6 10 29
v 6 11 29
v 6 15 29
v 7 5 29
v 7 6 29
v 7 7 29
v 7 9 29
v 7 10 29
v 7 12 29
v 7 13 29
v 7 15 29
v 7 16 29
v 14 4 29
v 14 6 29
v 14 7 29
v 14 9 29
v 14 10 29
v 14 12 29
v 14 13 29
v 14 15 29
v 14 16 29
v 14 18 29
v -14 3 28
v -14 4 28
v -14 6 28
v -14 7 28
v -14 9 28
v -14 10 28
v -14 12 28
v -14 13 28
v -14 15 28
v -14 16 28
v -7 6 28
v -7 7 28
v -7 9 28
v -7 10 28
v -7 12 28
v -7 13 28
v -7 15 28
v -7 16 28
v 7 6 28
v 7 7 28
v 7 9 28
v 7 10 28
v 7 12 28
v 7 13 28
v 7 15 28
v 7 16 28
v 14 3 28
v 14 4 28
v 14 6 28
v 14 7 28
v 14 9 28
v 14 10 28
v 14 12 28
v 14 13 28
v 14 15 28
v 14 16 28
v -15 19 -27
v -15 20 -27
v 15 19 -27
v 15 20 -27
v -15 19 29
v -15 20 29
v 15 19 29
v 15 20 29
v -16 0 -28
v -16 20 -28
v 16 0 -28
v 16 20 -28
v -16 0 32
v -14 0 32
v 14 0 32
v 16 0 32
v -16 0 30
v -14 0 30
v 14 0 30
v 16 0 30
v -16 0 -28
v 16 0 -28
v -14 4 29
v 14 4 29
v -14 4 28
v 14 4 28
v -7 5 31
v 7 5 31
v -7 5 29
v 7 5 29
v -14 7 29
v -7 7 29
v 7 7 29
v 14 7 29
v -14 7 28
v -7 7 28
v 7 7 28
v 14 7 28
v -6 10 30
v -1 10 30
v 1 10 30
v 6 10 30
v -14 10 29
v -7 10 29
v -6 10 29
v -1 10 29
v 1 10 29
v 6 10 29
v 7 10 29
v 14 10 29
v -14 10 28
v -7 10 28
v 7 10 28
v 14 10 28
v -14 13 29
v -7 13 29
v 7 13 29
v 14 13 29
v -14 13 28
v -7 13 28
v 7 13 28
v 14 13 28
v -6 15 30
v -1 15 30
v 1 15 30
v 6 15 30
v -6 15 29
v -1 15 29
v 1 15 29
v 6 15 29
v -14 16 29
v -7 16 29
v 7 16 29
v 14 16 29
v -14 16 28
v -7 16 28
v 7 16 28
v 14 16 28
v -14 18 30
v 14 18 30
v -14 18 29
v 14 18 29
v -14 3 30
v 14 3 30
v -14 3 28
v 14 3 28
v -7 6 31
v 7 6 31
v -7 6 30
v -6 6 30
v -1 6 30
v 1 6 30
v 6 6 30
v 7 6 30
v -14 6 29
v -7 6 29
v -6 6 29
v -1 6 29
v 1 6 29
v 6 6 29
v 7 6 29
v 14 6 29
v -14 6 28
v -7 6 28
v 7 6 28
v 14 6 28
v -14 9 29
v -7 9 29
v 7 9 29
v 14 9 29
v -14 9 28
v -7 9 28
v 7 9 28
v 14 9 28
v -6 11 30
v -1 11 30
v 1 11 30
v 6 11 30
v -6 11 29
v -1 11 29
v 1 11 29
v 6 11 29
v -14 12 29
v -7 12 29
v 7 12 29
v 14 12 29
v -14 12 28
v -7 12 28
v 7 12 28
v 14 12 28
v -14 15 29
v -7 15 29
v 7 15 29
v 14 15 29
v -14 15 28
v -7 15 28
v 7 15 28
v 14 15 28
v -7 16 30
v 7 16 30
v -7 16 29
v 7 16 29
v -15 19 29
v 15 19 29
v -15 19 -27
v 15 19 -27
v -16 20 32
v -14 20 32
v 14 20 32
v 16 20 32
v -16 20 30
v -14 20 30
v 14 20 30
v 16 20 30
v -15 20 29
v 15 20 29
v -15 20 -27
v 15 20 -27
v -16 20 -28
v 16 20 -28

# faces
f 4/5/1 2/5/1 1/5/1
f 5/6/1 3/6/1 2/6/1
f 5/5/1 2/5/1 4/5/1
f 6/6/1 3/6/1 5/6/1
f 9/5/1 8/5/1 7/5/1
f 10/5/1 8/5/1 9/5/1
f 11/5/1 8/5/1 10/5/1
f 13/5/1 12/5/1 11/5/1
f 13/5/1 11/5/1 10/5/1
f 14/5/1 12/5/1 13/5/1
f 15/5/1 13/5/1 10/5/1
f 17/5/1 15/5/1 10/5/1
f 17/5/1 16/5/1 15/5/1
f 18/5/1 16/5/1 17/5/1
f 19/5/1 17/5/1 10/5/1
f 21/5/1 19/5/1 10/5/1
f 21/5/1 20/5/1 19/5/1
f 22/5/1 20/5/1 21/5/1
f 23/5/1 21/5/1 10/5/1
f 25/5/1 23/5/1 10/5/1
f 25/5/1 24/5/1 23/5/1
f 26/5/1 24/5/1 25/5/1
f 27/5/1 24/5/1 26/5/1
f 30/5/1 29/5/1 28/5/1
f 31/5/1 29/5/1 30/5/1
f 34/5/1 33/5/1 32/5/1
f 35/5/1 33/5/1 34/5/1
f 38/5/1 37/5/1 36/5/1
f 39/5/1 37/5/1 38/5/1
f 42/5/1 41/5/1 40/5/1
f 43/5/1 41/5/1 42/5/1
f 46/5/1 45/5/1 44/5/1
f 48/5/1 47/5/1 46/5/1
f 49/5/1 47/5/1 48/5/1
f 50/5/1 48/5/1 46/5/1
f 52/5/1 50/5/1 46/5/1
f 52/5/1 51/5/1 50/5/1
f 53/5/1 51/5/1 52/5/1
f 54/5/1 52/5/1 46/5/1
f 56/5/1 54/5/1 46/5/1
f 56/5/1 55/5/1 54/5/1
f 57/5/1 55/5/1 56/5/1
f 58/5/1 56/5/1 46/5/1
f 60/5/1 58/5/1 46/5/1
f 60/5/1 59/5/1 58/5/1
f 61/5/1 59/5/1 60/5/1
f 62/5/1 60/5/1 46/5/1
f 64/5/1 62/5/1 46/5/1
f 64/5/1 63/5/1 62/5/1
f 65/5/1 63/5/1 64/5/1
f 66/5/1 46/5/1 44/5/1
f 66/5/1 64/5/1 46/5/1
f 67/5/1 64/5/1 66/5/1
f 68/5/1 66/5/1 44/5/1
f 69/5/1 66/5/1 68/5/1
f 72/6/1 71/6/1 70/6/1
f 73/6/1 71/6/1 72/6/1
f 74/6/2 75/6/2 76/6/2
f 76/6/2 75/6/2 77/6/2
f 78/5/2 79/5/2 80/5/2
f 80/5/2 81/5/2 82/5/2
f 82/5/2 81/5/2 83/5/2
f 80/5/2 82/5/2 84/5/2
f 80/5/2 84/5/2 86/5/2
f 84/5/2 85/5/2 86/5/2
f 86/5/2 85/5/2 87/5/2
f 80/5/2 86/5/2 88/5/2
f 80/5/2 88/5/2 90/5/2
f 88/5/2 89/5/2 90/5/2
f 90/5/2 89/5/2 91/5/2
f 80/5/2 90/5/2 92/5/2
f 80/5/2 92/5/2 94/5/2
f 92/5/2 93/5/2 94/5/2
f 94/5/2 93/5/2 95/5/2
f 80/5/2 94/5/2 96/5/2
f 80/5/2 96/5/2 98/5/2
f 96/5/2 97/5/2 98/5/2
f 98/5/2 97/5/2 99/5/2
f 78/5/2 80/5/2 100/5/2
f 80/5/2 98/5/2 100/5/2
f 100/5/2 98/5/2 101/5/2
f 78/5/2 100/5/2 102/5/2
f 102/5/2 100/5/2 103/5/2
f 104/5/2 105/5/2 106/5/2
f 106/5/2 105/5/2 107/5/2
f 108/5/2 109/5/2 110/5/2
f 110/5/2 109/5/2 111/5/2
f 112/5/2 113/5/2 114/5/2
f 114/5/2 113/5/2 115/5/2
f 116/5/2 117/5/2 118/5/2
f 118/5/2 117/5/2 119/5/2
f 120/5/2 121/5/2 122/5/2
f 122/5/2 121/5/2 123/5/2
f 123/5/2 121/5/2 124/5/2
f 124/5/2 125/5/2 126/5/2
f 123/5/2 124/5/2 126/5/2
f 126/5/2 125/5/2 127/5/2
f 123/5/2 126/5/2 128/5/2
f 123/5/2 128/5/2 130/5/2
f 128/5/2 129/5/2 130/5/2
f 130/5/2 129/5/2 131/5/2
f 123/5/2 130/5/2 132/5/2
f 123/5/2 132/5/2 134/5/2
f 132/5/2 133/5/2 134/5/2
f 134/5/2 133/5/2 135/5/2
f 123/5/2 134/5/2 136/5/2
f 123/5/2 136/5/2 138/5/2
f 136/5/2 137/5/2 138/5/2
f 138/5/2 137/5/2 139/5/2
f 139/5/2 137/5/2 140/5/2
f 141/5/2 142/5/2 144/5/2
f 142/6/2 143/6/2 145/6/2
f 144/5/2 142/5/2 145/5/2
f 145/6/2 143/6/2 146/6/2
f 149/5/3 148/5/3 147/5/3
f 150/5/3 148/5/3 149/5/3
f 153/5/3 152/5/3 151/5/3
f 154/5/3 152/5/3 153/5/3
f 157/5/3 156/5/3 155/5/3
f 158/5/3 156/5/3 157/5/3
f 165/5/3 164/5/3 163/5/3
f 166/5/3 164/5/3 165/5/3
f 167/5/3 164/5/3 166/5/3
f 168/5/3 164/5/3 167/5/3
f 170/5/3 167/5/3 166/5/3
f 171/5/3 167/5/3 170/5/3
f 172/5/3 164/5/3 168/5/3
f 173/5/3 171/5/3 170/5/3
f 173/5/3 172/5/3 171/5/3
f 173/5/3 170/5/3 169/5/3
f 174/5/3 172/5/3 173/5/3
f 175/5/3 172/5/3 174/5/3
f 176/5/3 164/5/3 172/5/3
f 176/5/3 172/5/3 175/5/3
f 178/5/3 175/5/3 174/5/3
f 179/5/3 175/5/3 178/5/3
f 180/5/3 164/5/3 176/5/3
f 181/5/3 179/5/3 178/5/3
f 181/5/3 180/5/3 179/5/3
f 181/5/3 178/5/3 177/5/3
f 182/5/3 164/5/3 180/5/3
f 182/5/3 180/5/3 181/5/3
f 183/6/3 160/6/3 159/6/3
f 184/6/3 160/6/3 183/6/3
f 185/6/3 162/6/3 161/6/3
f 186/6/3 162/6/3 185/6/3
f 197/1/3 188/1/3 187/1/3
f 198/1/3 188/1/3 197/1/3
f 199/1/3 190/1/3 189/1/3
f 200/1/3 190/1/3 199/1/3
f 201/1/3 192/1/3 191/1/3
f 202/1/3 192/1/3 201/1/3
f 203/1/3 194/1/3 193/1/3
f 204/1/3 194/1/3 203/1/3
f 205/1/3 196/1/3 195/1/3
f 210/4/3 207/4/3 206/4/3
f 211/4/3 207/4/3 210/4/3
f 212/4/3 209/4/3 208/4/3
f 213/4/3 209/4/3 212/4/3
f 218/4/3 215/4/3 214/4/3
f 219/4/3 215/4/3 218/4/3
f 220/4/3 217/4/3 216/4/3
f 221/4/3 217/4/3 220/4/3
f 222/1/3 197/1/3 187/1/3
f 230/1/3 196/1/3 205/1/3
f 231/1/3 222/1/3 187/1/3
f 231/1/3 223/1/3 222/1/3
f 232/1/3 223/1/3 231/1/3
f 233/1/3 225/1/3 224/1/3
f 234/1/3 225/1/3 233/1/3
f 235/1/3 227/1/3 226/1/3
f 236/1/3 227/1/3 235/1/3
f 237/1/3 229/1/3 228/1/3
f 238/1/3 229/1/3 237/1/3
f 239/1/3 196/1/3 230/1/3
f 240/1/3 196/1/3 239/1/3
f 251/1/3 244/1/3 243/1/3
f 252/1/3 244/1/3 251/1/3
f 253/1/3 246/1/3 245/1/3
f 254/1/3 246/1/3 253/1/3
f 255/1/3 248/1/3 247/1/3
f 256/1/3 248/1/3 255/1/3
f 257/1/3 250/1/3 249/1/3
f 258/1/3 250/1/3 257/1/3
f 267/1/3 242/1/3 241/1/3
f 268/1/3 242/1/3 267/1/3
f 269/1/3 260/1/3 259/1/3
f 270/1/3 260/1/3 269/1/3
f 271/1/3 262/1/3 261/1/3
f 272/1/3 262/1/3 271/1/3
f 273/1/3 264/1/3 263/1/3
f 274/1/3 264/1/3 273/1/3
f 275/1/3 266/1/3 265/1/3
f 276/1/3 266/1/3 275/1/3
f 279/6/3 278/6/3 277/6/3
f 280/6/3 278/6/3 279/6/3
f 281/6/4 282/6/4 283/6/4
f 283/6/4 282/6/4 284/6/4
f 285/6/4 286/6/4 287/6/4
f 287/6/4 286/6/4 288/6/4
f 293/5/5 290/5/5 289/5/5
f 294/5/5 290/5/5 293/5/5
f 295/5/5 292/5/5 291/5/5
f 296/5/5 292/5/5 295/5/5
f 297/6/5 294/6/5 293/6/5
f 297/6/5 295/6/5 294/6/5
f 297/6/5 296/6/5 295/6/5
f 298/6/5 296/6/5 297/6/5
f 301/1/5 300/1/5 299/1/5
f 302/1/5 300/1/5 301/1/5
f 305/5/5 304/5/5 303/5/5
f 306/5/5 304/5/5 305/5/5
f 311/1/5 308/1/5 307/1/5
f 312/1/5 308/1/5 311/1/5
f 313/1/5 310/1/5 309/1/5
f 314/1/5 310/1/5 313/1/5
f 321/5/5 316/5/5 315/5/5
f 322/5/5 316/5/5 321/5/5
f 323/5/5 318/5/5 317/5/5
f 324/5/5 318/5/5 323/5/5
f 327/1/5 320/1/5 319/1/5
f 328/1/5 320/1/5 327/1/5
f 329/1/5 326/1/5 325/1/5
f 330/1/5 326/1/5 329/1/5
f 335/1/5 332/1/5 331/1/5
f 336/1/5 332/1/5 335/1/5
f 337/1/5 334/1/5 333/1/5
f 338/1/5 334/1/5 337/1/5
f 343/5/5 340/5/5 339/5/5
f 344/5/5 340/5/5 343/5/5
f 345/5/5 342/5/5 341/5/5
f 346/5/5 342/5/5 345/5/5
f 351/1/5 348/1/5 347/1/5
f 352/1/5 348/1/5 351/1/5
f 353/1/5 350/1/5 349/1/5
f 354/1/5 350/1/5 353/1/5
f 357/6/5 356/6/5 355/6/5
f 358/6/5 356/6/5 357/6/5
f 359/6/6 360/6/6 361/6/6
f 361/6/6 360/6/6 362/6/6
f 363/5/6 364/5/6 365/5/6
f 365/5/6 364/5/6 366/5/6
f 366/5/6 364/5/6 367/5/6
f 367/5/6 364/5/6 368/5/6
f 368/5/6 364/5/6 369/5/6
f 369/5/6 364/5/6 370/5/6
f 366/5/6 367/5/6 373/5/6
f 373/5/6 367/5/6 374/5/6
f 368/5/6 369/5/6 375/5/6
f 375/5/6 369/5/6 376/5/6
f 371/1/6 372/1/6 379/1/6
f 379/1/6 372/1/6 380/1/6
f 377/1/6 378/1/6 381/1/6
f 381/1/6 378/1/6 382/1/6
f 383/1/6 384/1/6 387/1/6
f 387/1/6 384/1/6 388/1/6
f 385/1/6 386/1/6 389/1/6
f 389/1/6 386/1/6 390/1/6
f 391/5/6 392/5/6 395/5/6
f 395/5/6 392/5/6 396/5/6
f 393/5/6 394/5/6 397/5/6
f 397/5/6 394/5/6 398/5/6
f 399/1/6 400/1/6 403/1/6
f 403/1/6 400/1/6 404/1/6
f 401/1/6 402/1/6 405/1/6
f 405/1/6 402/1/6 406/1/6
f 407/1/6 408/1/6 411/1/6
f 411/1/6 408/1/6 412/1/6
f 409/1/6 410/1/6 413/1/6
f 413/1/6 410/1/6 414/1/6
f 415/5/6 416/5/6 417/5/6
f 417/5/6 416/5/6 418/5/6
f 419/5/6 420/5/6 421/5/6
f 421/5/6 420/5/6 422/5/6
f 423/5/6 424/5/6 427/5/6
f 427/5/6 424/5/6 428/5/6
f 425/5/6 426/5/6 429/5/6
f 429/5/6 426/5/6 430/5/6
f 427/6/6 428/6/6 431/6/6
f 428/6/6 429/6/6 431/6/6
f 429/6/6 430/6/6 431/6/6
f 431/6/6 430/6/6 432/6/6
f 427/6/6 431/6/6 433/6/6
f 432/6/6 430/6/6 434/6/6
f 427/6/6 433/6/6 435/6/6
f 433/6/6 434/6/6 435/6/6
f 434/6/6 430/6/6 436/6/6
f 435/6/6 434/6/6 436/6/6
