# MagicaVoxel @ Ephtracy

# material
mtllib bld_store01.mtl
usemtl palette

# normals
vn -1 0 0
vn 1 0 0
vn 0 0 1
vn 0 0 -1
vn 0 -1 0
vn 0 1 0

# texcoords
vt 0.142578 0.5
vt 0.201172 0.5
vt 0.205078 0.5
vt 0.373047 0.5
vt 0.861328 0.5
vt 0.962891 0.5
vt 0.966797 0.5
vt 0.970703 0.5
vt 0.974609 0.5
vt 0.978516 0.5
vt 0.982422 0.5
vt 0.990234 0.5

# verts
v -32 0 30
v -32 0 -32
v -32 15 32
v -32 15 30
v -32 15 29
v -32 17 32
v -32 17 29
v -32 17 28
v -32 23 28
v -32 23 -32
v -32 24 29
v -32 24 28
v -30 3 31
v -30 3 30
v -30 4 31
v -30 4 30
v -10 0 28
v -10 0 27
v -10 3 28
v -10 3 27
v -5 7 21
v -5 7 20
v -5 8 21
v -5 8 20
v 9 0 30
v 9 0 20
v 9 3 31
v 9 3 30
v 9 3 20
v 9 4 31
v 9 4 30
v 9 4 29
v 9 4 20
v 9 5 23
v 9 5 21
v 9 7 23
v 9 7 21
v 9 8 22
v 9 8 21
v 9 9 22
v 9 9 21
v 9 14 29
v 9 14 20
v 9 15 30
v 9 15 29
v 9 15 20
v 27 0 28
v 27 0 27
v 27 3 28
v 27 3 27
v 30 22 28
v 30 22 -30
v 30 23 28
v 30 23 -30
v -30 22 28
v -30 22 -30
v -30 23 28
v -30 23 -30
v -27 0 28
v -27 0 27
v -27 3 28
v -27 3 27
v -9 0 30
v -9 0 20
v -9 3 31
v -9 3 30
v -9 3 20
v -9 4 31
v -9 4 30
v -9 4 29
v -9 4 20
v -9 5 27
v -9 5 21
v -9 12 27
v -9 12 21
v -9 14 29
v -9 14 20
v -9 15 30
v -9 15 29
v -9 15 20
v 5 7 21
v 5 7 20
v 5 8 21
v 5 8 20
v 10 0 28
v 10 0 27
v 10 3 28
v 10 3 27
v 30 3 31
v 30 3 30
v 30 4 31
v 30 4 30
v 32 0 30
v 32 0 -32
v 32 15 32
v 32 15 30
v 32 15 29
v 32 17 32
v 32 17 29
v 32 17 28
v 32 23 28
v 32 23 -32
v 32 24 29
v 32 24 28
v -32 15 32
v -32 17 32
v 32 15 32
v 32 17 32
v -30 3 31
v -30 4 31
v -9 3 31
v -9 4 31
v 9 3 31
v 9 4 31
v 30 3 31
v 30 4 31
v -32 0 30
v -32 15 30
v -30 3 30
v -30 4 30
v -30 14 30
v -30 15 30
v -25 5 30
v -25 11 30
v -19 5 30
v -19 11 30
v -18 5 30
v -18 7 30
v -18 8 30
v -18 10 30
v -16 5 30
v -16 7 30
v -16 8 30
v -16 10 30
v -10 4 30
v -10 14 30
v -10 15 30
v -9 0 30
v -9 3 30
v -9 4 30
v -9 15 30
v 9 0 30
v 9 3 30
v 9 4 30
v 9 15 30
v 10 4 30
v 10 14 30
v 10 15 30
v 30 3 30
v 30 4 30
v 30 14 30
v 30 15 30
v 32 0 30
v 32 15 30
v -32 17 29
v -32 24 29
v -31 17 29
v -31 23 29
v -30 19 29
v -30 22 29
v -29 18 29
v -29 19 29
v -29 20 29
v -29 22 29
v -28 20 29
v -28 22 29
v -27 18 29
v -27 20 29
v -26 18 29
v -26 19 29
v -25 19 29
v -25 20 29
v -24 20 29
v -24 21 29
v -23 19 29
v -23 20 29
v -23 21 29
v -22 18 29
v -22 19 29
v -21 18 29
v -21 20 29
v -21 21 29
v -21 22 29
v -20 18 29
v -20 19 29
v -19 18 29
v -19 19 29
v -18 18 29
v -18 19 29
v -18 21 29
v -18 22 29
v -17 18 29
v -17 19 29
v -16 18 29
v -16 20 29
v -14 18 29
v -14 20 29
v -13 18 29
v -13 19 29
v -13 21 29
v -13 22 29
v -12 18 29
v -12 19 29
v -11 18 29
v -11 19 29
v -11 20 29
v -11 21 29
v -10 20 29
v -10 22 29
v -9 18 29
v -9 19 29
v -9 20 29
v -9 21 29
v -8 19 29
v -8 20 29
v -8 21 29
v -8 22 29
v -7 19 29
v -7 20 29
v -6 18 29
v -6 19 29
v -6 21 29
v -6 22 29
v -4 18 29
v -4 19 29
v -3 19 29
v -3 21 29
v -2 20 29
v -2 21 29
v -1 19 29
v -1 20 29
v -1 21 29
v -1 22 29
v 1 19 29
v 1 20 29
v 1 21 29
v 1 22 29
v 2 20 29
v 2 21 29
v 3 19 29
v 3 21 29
v 4 18 29
v 4 19 29
v 6 18 29
v 6 19 29
v 6 21 29
v 6 22 29
v 7 19 29
v 7 20 29
v 8 19 29
v 8 20 29
v 8 21 29
v 8 22 29
v 9 18 29
v 9 19 29
v 9 20 29
v 9 21 29
v 10 20 29
v 10 22 29
v 11 18 29
v 11 19 29
v 11 20 29
v 11 21 29
v 12 18 29
v 12 19 29
v 13 18 29
v 13 19 29
v 13 21 29
v 13 22 29
v 14 18 29
v 14 20 29
v 16 18 29
v 16 20 29
v 17 18 29
v 17 19 29
v 18 18 29
v 18 19 29
v 18 21 29
v 18 22 29
v 19 18 29
v 19 19 29
v 20 18 29
v 20 19 29
v 21 18 29
v 21 20 29
v 21 21 29
v 21 22 29
v 22 18 29
v 22 19 29
v 23 19 29
v 23 20 29
v 23 21 29
v 24 20 29
v 24 21 29
v 25 19 29
v 25 20 29
v 26 18 29
v 26 19 29
v 27 18 29
v 27 20 29
v 28 20 29
v 28 22 29
v 29 18 29
v 29 19 29
v 29 20 29
v 29 22 29
v 30 19 29
v 30 22 29
v 31 17 29
v 31 23 29
v 32 17 29
v 32 24 29
v -27 0 27
v -27 3 27
v -10 0 27
v -10 3 27
v 10 0 27
v 10 3 27
v 27 0 27
v 27 3 27
v -5 7 21
v -5 8 21
v 5 7 21
v 5 8 21
v -9 0 20
v -9 3 20
v -9 4 20
v -9 14 20
v -9 15 20
v -6 0 20
v -6 15 20
v -5 0 20
v -5 1 20
v -5 7 20
v -5 8 20
v -5 14 20
v -4 2 20
v -4 6 20
v -4 9 20
v -4 13 20
v -2 11 20
v -2 12 20
v 2 11 20
v 2 12 20
v 4 2 20
v 4 6 20
v 4 9 20
v 4 13 20
v 5 0 20
v 5 1 20
v 5 7 20
v 5 8 20
v 5 14 20
v 6 0 20
v 6 15 20
v 9 0 20
v 9 3 20
v 9 4 20
v 9 14 20
v 9 15 20
v -30 22 -30
v -30 23 -30
v 30 22 -30
v 30 23 -30
v -32 23 28
v -32 24 28
v -30 22 28
v -30 23 28
v -27 0 28
v -27 3 28
v -10 0 28
v -10 3 28
v 10 0 28
v 10 3 28
v 27 0 28
v 27 3 28
v 30 22 28
v 30 23 28
v 32 23 28
v 32 24 28
v -32 0 -32
v -32 23 -32
v 32 0 -32
v 32 23 -32
v -32 0 30
v -9 0 30
v 9 0 30
v 32 0 30
v -27 0 29
v -10 0 29
v 10 0 29
v 27 0 29
v -27 0 28
v -10 0 28
v 10 0 28
v 27 0 28
v -27 0 27
v -10 0 27
v 10 0 27
v 27 0 27
v -9 0 20
v -6 0 20
v -5 0 20
v 5 0 20
v 6 0 20
v 9 0 20
v -27 0 19
v -10 0 19
v -6 0 19
v -5 0 19
v 5 0 19
v 6 0 19
v 10 0 19
v 27 0 19
v -32 0 -32
v 32 0 -32
v -30 3 31
v -9 3 31
v 9 3 31
v 30 3 31
v -30 3 30
v -9 3 30
v 9 3 30
v 30 3 30
v -27 3 28
v -10 3 28
v 10 3 28
v 27 3 28
v -27 3 27
v -10 3 27
v 10 3 27
v 27 3 27
v -5 7 21
v 5 7 21
v -5 7 20
v 5 7 20
v -32 15 32
v 32 15 32
v -32 15 30
v -30 15 30
v -10 15 30
v -9 15 30
v 9 15 30
v 10 15 30
v 30 15 30
v 32 15 30
v -9 15 29
v 9 15 29
v -9 15 20
v -6 15 20
v 6 15 20
v 9 15 20
v -30 4 31
v -9 4 31
v 9 4 31
v 30 4 31
v -30 4 30
v -10 4 30
v -9 4 30
v 9 4 30
v 10 4 30
v 30 4 30
v -5 8 21
v 5 8 21
v -5 8 20
v 5 8 20
v -32 17 32
v 32 17 32
v -32 17 29
v -31 17 29
v 31 17 29
v 32 17 29
v -30 22 28
v 30 22 28
v -30 22 -30
v 30 22 -30
v -32 23 28
v -30 23 28
v 30 23 28
v 32 23 28
v -30 23 -30
v 30 23 -30
v -32 23 -32
v 32 23 -32
v -32 24 29
v 32 24 29
v -32 24 28
v 32 24 28

# faces
f 4/9/1 2/9/1 1/9/1
f 5/9/1 2/9/1 4/9/1
f 6/11/1 4/11/1 3/11/1
f 6/11/1 5/11/1 4/11/1
f 7/9/1 2/9/1 5/9/1
f 7/11/1 5/11/1 6/11/1
f 8/9/1 2/9/1 7/9/1
f 9/9/1 2/9/1 8/9/1
f 9/12/1 8/12/1 7/12/1
f 10/9/1 2/9/1 9/9/1
f 11/12/1 9/12/1 7/12/1
f 12/12/1 9/12/1 11/12/1
f 15/8/1 14/8/1 13/8/1
f 16/8/1 14/8/1 15/8/1
f 19/9/1 18/9/1 17/9/1
f 20/9/1 18/9/1 19/9/1
f 23/8/1 22/8/1 21/8/1
f 24/8/1 22/8/1 23/8/1
f 28/9/1 26/9/1 25/9/1
f 29/9/1 26/9/1 28/9/1
f 30/8/1 28/8/1 27/8/1
f 30/8/1 29/8/1 28/8/1
f 31/8/1 29/8/1 30/8/1
f 32/8/1 29/8/1 31/8/1
f 33/8/1 29/8/1 32/8/1
f 34/1/1 33/1/1 32/1/1
f 35/1/1 33/1/1 34/1/1
f 36/1/1 34/1/1 32/1/1
f 36/3/1 35/3/1 34/3/1
f 37/1/1 33/1/1 35/1/1
f 37/3/1 35/3/1 36/3/1
f 38/1/1 37/1/1 36/1/1
f 39/1/1 33/1/1 37/1/1
f 39/1/1 37/1/1 38/1/1
f 40/1/1 38/1/1 36/1/1
f 40/3/1 39/3/1 38/3/1
f 41/1/1 33/1/1 39/1/1
f 41/3/1 39/3/1 40/3/1
f 42/9/1 32/9/1 31/9/1
f 42/1/1 36/1/1 32/1/1
f 42/1/1 41/1/1 40/1/1
f 42/1/1 40/1/1 36/1/1
f 43/1/1 33/1/1 41/1/1
f 43/1/1 41/1/1 42/1/1
f 44/9/1 42/9/1 31/9/1
f 45/8/1 43/8/1 42/8/1
f 45/9/1 42/9/1 44/9/1
f 46/8/1 43/8/1 45/8/1
f 49/9/1 48/9/1 47/9/1
f 50/9/1 48/9/1 49/9/1
f 53/9/1 52/9/1 51/9/1
f 54/9/1 52/9/1 53/9/1
f 55/9/2 56/9/2 57/9/2
f 57/9/2 56/9/2 58/9/2
f 59/9/2 60/9/2 61/9/2
f 61/9/2 60/9/2 62/9/2
f 63/9/2 64/9/2 66/9/2
f 66/9/2 64/9/2 67/9/2
f 65/8/2 66/8/2 68/8/2
f 66/8/2 67/8/2 68/8/2
f 68/8/2 67/8/2 69/8/2
f 69/8/2 67/8/2 70/8/2
f 70/8/2 67/8/2 71/8/2
f 70/1/2 71/1/2 72/1/2
f 72/1/2 71/1/2 73/1/2
f 70/1/2 72/1/2 74/1/2
f 72/3/2 73/3/2 74/3/2
f 73/1/2 71/1/2 75/1/2
f 74/3/2 73/3/2 75/3/2
f 69/9/2 70/9/2 76/9/2
f 70/1/2 74/1/2 76/1/2
f 74/1/2 75/1/2 76/1/2
f 75/1/2 71/1/2 77/1/2
f 76/1/2 75/1/2 77/1/2
f 69/9/2 76/9/2 78/9/2
f 76/8/2 77/8/2 79/8/2
f 78/9/2 76/9/2 79/9/2
f 79/8/2 77/8/2 80/8/2
f 81/8/2 82/8/2 83/8/2
f 83/8/2 82/8/2 84/8/2
f 85/9/2 86/9/2 87/9/2
f 87/9/2 86/9/2 88/9/2
f 89/8/2 90/8/2 91/8/2
f 91/8/2 90/8/2 92/8/2
f 93/9/2 94/9/2 96/9/2
f 96/9/2 94/9/2 97/9/2
f 95/11/2 96/11/2 98/11/2
f 96/11/2 97/11/2 98/11/2
f 97/9/2 94/9/2 99/9/2
f 98/11/2 97/11/2 99/11/2
f 99/9/2 94/9/2 100/9/2
f 100/9/2 94/9/2 101/9/2
f 99/12/2 100/12/2 101/12/2
f 101/9/2 94/9/2 102/9/2
f 99/12/2 101/12/2 103/12/2
f 103/12/2 101/12/2 104/12/2
f 107/11/3 106/11/3 105/11/3
f 108/11/3 106/11/3 107/11/3
f 111/8/3 110/8/3 109/8/3
f 112/8/3 110/8/3 111/8/3
f 115/8/3 114/8/3 113/8/3
f 116/8/3 114/8/3 115/8/3
f 119/9/3 118/9/3 117/9/3
f 120/9/3 118/9/3 119/9/3
f 121/9/3 118/9/3 120/9/3
f 122/9/3 118/9/3 121/9/3
f 123/1/3 121/1/3 120/1/3
f 124/1/3 121/1/3 123/1/3
f 125/1/3 123/1/3 120/1/3
f 125/3/3 124/3/3 123/3/3
f 126/1/3 121/1/3 124/1/3
f 126/3/3 124/3/3 125/3/3
f 127/1/3 125/1/3 120/1/3
f 127/1/3 126/1/3 125/1/3
f 128/1/3 126/1/3 127/1/3
f 129/1/3 126/1/3 128/1/3
f 130/1/3 126/1/3 129/1/3
f 131/1/3 127/1/3 120/1/3
f 131/3/3 128/3/3 127/3/3
f 132/1/3 129/1/3 128/1/3
f 132/3/3 128/3/3 131/3/3
f 133/3/3 130/3/3 129/3/3
f 133/1/3 129/1/3 132/1/3
f 134/1/3 126/1/3 130/1/3
f 134/3/3 130/3/3 133/3/3
f 135/1/3 133/1/3 132/1/3
f 135/1/3 132/1/3 131/1/3
f 135/1/3 134/1/3 133/1/3
f 135/1/3 131/1/3 120/1/3
f 136/8/3 122/8/3 121/8/3
f 136/1/3 134/1/3 135/1/3
f 136/1/3 121/1/3 126/1/3
f 136/1/3 126/1/3 134/1/3
f 137/8/3 122/8/3 136/8/3
f 138/9/3 119/9/3 117/9/3
f 139/9/3 119/9/3 138/9/3
f 140/9/3 136/9/3 135/9/3
f 140/9/3 137/9/3 136/9/3
f 141/9/3 137/9/3 140/9/3
f 146/9/3 145/9/3 144/9/3
f 147/9/3 145/9/3 146/9/3
f 148/9/3 145/9/3 147/9/3
f 149/9/3 143/9/3 142/9/3
f 150/1/3 147/1/3 146/1/3
f 151/8/3 148/8/3 147/8/3
f 151/1/3 147/1/3 150/1/3
f 152/8/3 148/8/3 151/8/3
f 153/9/3 149/9/3 142/9/3
f 153/9/3 150/9/3 149/9/3
f 153/9/3 152/9/3 151/9/3
f 153/9/3 151/9/3 150/9/3
f 154/9/3 152/9/3 153/9/3
f 157/12/3 156/12/3 155/12/3
f 158/12/3 156/12/3 157/12/3
f 159/5/3 158/5/3 157/5/3
f 160/5/3 158/5/3 159/5/3
f 161/5/3 159/5/3 157/5/3
f 162/3/3 160/3/3 159/3/3
f 162/5/3 159/5/3 161/5/3
f 163/3/3 160/3/3 162/3/3
f 164/5/3 158/5/3 160/5/3
f 164/3/3 160/3/3 163/3/3
f 165/3/3 163/3/3 162/3/3
f 165/3/3 162/3/3 161/3/3
f 165/5/3 164/5/3 163/5/3
f 166/5/3 158/5/3 164/5/3
f 166/5/3 164/5/3 165/5/3
f 167/3/3 165/3/3 161/3/3
f 167/5/3 161/5/3 157/5/3
f 167/3/3 166/3/3 165/3/3
f 168/3/3 166/3/3 167/3/3
f 169/5/3 167/5/3 157/5/3
f 169/5/3 168/5/3 167/5/3
f 170/5/3 168/5/3 169/5/3
f 171/3/3 170/3/3 169/3/3
f 171/5/3 168/5/3 170/5/3
f 172/3/3 166/3/3 168/3/3
f 172/5/3 168/5/3 171/5/3
f 173/3/3 172/3/3 171/3/3
f 173/3/3 166/3/3 172/3/3
f 174/3/3 166/3/3 173/3/3
f 175/3/3 171/3/3 169/3/3
f 175/3/3 173/3/3 171/3/3
f 176/5/3 174/5/3 173/5/3
f 176/3/3 173/3/3 175/3/3
f 177/3/3 166/3/3 174/3/3
f 177/5/3 174/5/3 176/5/3
f 178/5/3 169/5/3 157/5/3
f 178/3/3 175/3/3 169/3/3
f 179/5/3 176/5/3 175/5/3
f 179/3/3 175/3/3 178/3/3
f 180/5/3 178/5/3 157/5/3
f 180/5/3 179/5/3 178/5/3
f 181/5/3 176/5/3 179/5/3
f 181/5/3 179/5/3 180/5/3
f 181/3/3 177/3/3 176/3/3
f 182/3/3 166/3/3 177/3/3
f 182/3/3 177/3/3 181/3/3
f 183/5/3 158/5/3 166/5/3
f 183/3/3 166/3/3 182/3/3
f 184/3/3 182/3/3 181/3/3
f 184/5/3 180/5/3 157/5/3
f 184/3/3 181/3/3 180/3/3
f 185/3/3 182/3/3 184/3/3
f 186/5/3 184/5/3 157/5/3
f 186/5/3 185/5/3 184/5/3
f 187/3/3 182/3/3 185/3/3
f 187/5/3 185/5/3 186/5/3
f 188/5/3 186/5/3 157/5/3
f 188/3/3 187/3/3 186/3/3
f 189/3/3 182/3/3 187/3/3
f 189/3/3 187/3/3 188/3/3
f 190/5/3 183/5/3 182/5/3
f 190/3/3 182/3/3 189/3/3
f 191/5/3 158/5/3 183/5/3
f 191/5/3 183/5/3 190/5/3
f 192/5/3 189/5/3 188/5/3
f 192/5/3 188/5/3 157/5/3
f 193/3/3 190/3/3 189/3/3
f 193/5/3 189/5/3 192/5/3
f 193/3/3 191/3/3 190/3/3
f 194/5/3 192/5/3 157/5/3
f 194/3/3 193/3/3 192/3/3
f 195/3/3 191/3/3 193/3/3
f 195/3/3 193/3/3 194/3/3
f 196/5/3 194/5/3 157/5/3
f 196/5/3 195/5/3 194/5/3
f 197/3/3 191/3/3 195/3/3
f 197/5/3 195/5/3 196/5/3
f 198/5/3 196/5/3 157/5/3
f 198/3/3 197/3/3 196/3/3
f 199/3/3 197/3/3 198/3/3
f 200/3/3 191/3/3 197/3/3
f 200/3/3 197/3/3 199/3/3
f 201/5/3 158/5/3 191/5/3
f 201/3/3 191/3/3 200/3/3
f 202/5/3 199/5/3 198/5/3
f 202/5/3 198/5/3 157/5/3
f 203/3/3 200/3/3 199/3/3
f 203/5/3 199/5/3 202/5/3
f 204/5/3 202/5/3 157/5/3
f 204/3/3 203/3/3 202/3/3
f 205/3/3 200/3/3 203/3/3
f 205/3/3 203/3/3 204/3/3
f 206/3/3 200/3/3 205/3/3
f 207/5/3 201/5/3 200/5/3
f 207/3/3 200/3/3 206/3/3
f 208/3/3 206/3/3 205/3/3
f 208/5/3 207/5/3 206/5/3
f 209/5/3 158/5/3 201/5/3
f 209/5/3 207/5/3 208/5/3
f 209/5/3 201/5/3 207/5/3
f 210/5/3 204/5/3 157/5/3
f 210/5/3 205/5/3 204/5/3
f 211/3/3 208/3/3 205/3/3
f 211/5/3 205/5/3 210/5/3
f 211/3/3 209/3/3 208/3/3
f 212/3/3 209/3/3 211/3/3
f 213/3/3 209/3/3 212/3/3
f 214/3/3 211/3/3 210/3/3
f 214/3/3 212/3/3 211/3/3
f 215/5/3 213/5/3 212/5/3
f 215/3/3 212/3/3 214/3/3
f 216/3/3 209/3/3 213/3/3
f 216/5/3 213/5/3 215/5/3
f 217/5/3 158/5/3 209/5/3
f 217/3/3 209/3/3 216/3/3
f 218/5/3 215/5/3 214/5/3
f 218/3/3 214/3/3 210/3/3
f 219/3/3 216/3/3 215/3/3
f 219/5/3 215/5/3 218/5/3
f 220/5/3 210/5/3 157/5/3
f 220/3/3 218/3/3 210/3/3
f 220/3/3 219/3/3 218/3/3
f 221/3/3 219/3/3 220/3/3
f 222/3/3 216/3/3 219/3/3
f 222/3/3 219/3/3 221/3/3
f 222/5/3 217/5/3 216/5/3
f 223/5/3 158/5/3 217/5/3
f 223/5/3 217/5/3 222/5/3
f 224/5/3 221/5/3 220/5/3
f 224/5/3 220/5/3 157/5/3
f 225/3/3 223/3/3 222/3/3
f 225/5/3 221/5/3 224/5/3
f 225/3/3 222/3/3 221/3/3
f 226/3/3 225/3/3 224/3/3
f 226/3/3 223/3/3 225/3/3
f 227/3/3 223/3/3 226/3/3
f 228/5/3 227/5/3 226/5/3
f 229/3/3 223/3/3 227/3/3
f 229/5/3 227/5/3 228/5/3
f 230/3/3 226/3/3 224/3/3
f 230/5/3 228/5/3 226/5/3
f 231/3/3 229/3/3 228/3/3
f 231/5/3 228/5/3 230/5/3
f 232/3/3 223/3/3 229/3/3
f 232/3/3 229/3/3 231/3/3
f 233/5/3 158/5/3 223/5/3
f 233/3/3 223/3/3 232/3/3
f 234/3/3 232/3/3 231/3/3
f 234/3/3 231/3/3 230/3/3
f 234/3/3 230/3/3 224/3/3
f 235/3/3 232/3/3 234/3/3
f 236/5/3 233/5/3 232/5/3
f 236/3/3 232/3/3 235/3/3
f 237/5/3 158/5/3 233/5/3
f 237/5/3 233/5/3 236/5/3
f 238/3/3 236/3/3 235/3/3
f 238/5/3 235/5/3 234/5/3
f 238/3/3 237/3/3 236/3/3
f 239/3/3 237/3/3 238/3/3
f 240/3/3 234/3/3 224/3/3
f 240/5/3 238/5/3 234/5/3
f 240/5/3 239/5/3 238/5/3
f 241/3/3 237/3/3 239/3/3
f 241/5/3 239/5/3 240/5/3
f 242/5/3 224/5/3 157/5/3
f 242/3/3 240/3/3 224/3/3
f 242/3/3 241/3/3 240/3/3
f 243/3/3 241/3/3 242/3/3
f 244/5/3 242/5/3 157/5/3
f 244/5/3 243/5/3 242/5/3
f 245/3/3 241/3/3 243/3/3
f 245/5/3 243/5/3 244/5/3
f 246/3/3 237/3/3 241/3/3
f 246/3/3 241/3/3 245/3/3
f 247/5/3 158/5/3 237/5/3
f 247/3/3 237/3/3 246/3/3
f 248/3/3 246/3/3 245/3/3
f 248/3/3 245/3/3 244/3/3
f 249/3/3 246/3/3 248/3/3
f 250/3/3 248/3/3 244/3/3
f 250/5/3 249/5/3 248/5/3
f 251/3/3 246/3/3 249/3/3
f 251/5/3 249/5/3 250/5/3
f 252/5/3 247/5/3 246/5/3
f 252/3/3 246/3/3 251/3/3
f 253/5/3 158/5/3 247/5/3
f 253/5/3 247/5/3 252/5/3
f 254/3/3 251/3/3 250/3/3
f 254/5/3 244/5/3 157/5/3
f 254/3/3 250/3/3 244/3/3
f 255/3/3 251/3/3 254/3/3
f 256/5/3 252/5/3 251/5/3
f 256/3/3 251/3/3 255/3/3
f 257/3/3 253/3/3 252/3/3
f 257/5/3 252/5/3 256/5/3
f 258/3/3 256/3/3 255/3/3
f 258/3/3 257/3/3 256/3/3
f 259/5/3 158/5/3 253/5/3
f 259/3/3 257/3/3 258/3/3
f 259/3/3 253/3/3 257/3/3
f 260/5/3 255/5/3 254/5/3
f 260/5/3 254/5/3 157/5/3
f 261/3/3 258/3/3 255/3/3
f 261/5/3 255/5/3 260/5/3
f 262/5/3 259/5/3 258/5/3
f 262/3/3 258/3/3 261/3/3
f 263/5/3 259/5/3 262/5/3
f 264/5/3 260/5/3 157/5/3
f 264/3/3 261/3/3 260/3/3
f 264/3/3 263/3/3 262/3/3
f 264/3/3 262/3/3 261/3/3
f 265/3/3 263/3/3 264/3/3
f 266/5/3 264/5/3 157/5/3
f 266/5/3 265/5/3 264/5/3
f 267/3/3 263/3/3 265/3/3
f 267/5/3 265/5/3 266/5/3
f 268/5/3 259/5/3 263/5/3
f 268/3/3 263/3/3 267/3/3
f 269/5/3 158/5/3 259/5/3
f 269/5/3 259/5/3 268/5/3
f 270/3/3 268/3/3 267/3/3
f 270/3/3 267/3/3 266/3/3
f 270/3/3 269/3/3 268/3/3
f 270/5/3 266/5/3 157/5/3
f 271/3/3 269/3/3 270/3/3
f 272/5/3 270/5/3 157/5/3
f 272/5/3 271/5/3 270/5/3
f 273/3/3 269/3/3 271/3/3
f 273/5/3 271/5/3 272/5/3
f 274/5/3 272/5/3 157/5/3
f 274/3/3 273/3/3 272/3/3
f 275/3/3 273/3/3 274/3/3
f 276/5/3 274/5/3 157/5/3
f 276/5/3 275/5/3 274/5/3
f 277/3/3 273/3/3 275/3/3
f 277/5/3 275/5/3 276/5/3
f 278/3/3 269/3/3 273/3/3
f 278/3/3 273/3/3 277/3/3
f 279/5/3 158/5/3 269/5/3
f 279/3/3 269/3/3 278/3/3
f 280/3/3 278/3/3 277/3/3
f 280/3/3 277/3/3 276/3/3
f 280/5/3 276/5/3 157/5/3
f 281/3/3 278/3/3 280/3/3
f 282/5/3 280/5/3 157/5/3
f 282/5/3 281/5/3 280/5/3
f 283/3/3 278/3/3 281/3/3
f 283/5/3 281/5/3 282/5/3
f 284/5/3 282/5/3 157/5/3
f 284/3/3 283/3/3 282/3/3
f 285/3/3 278/3/3 283/3/3
f 285/3/3 283/3/3 284/3/3
f 286/5/3 279/5/3 278/5/3
f 286/3/3 278/3/3 285/3/3
f 287/5/3 158/5/3 279/5/3
f 287/5/3 279/5/3 286/5/3
f 288/5/3 285/5/3 284/5/3
f 288/5/3 284/5/3 157/5/3
f 289/5/3 285/5/3 288/5/3
f 290/3/3 289/3/3 288/3/3
f 290/5/3 285/5/3 289/5/3
f 291/3/3 286/3/3 285/3/3
f 291/5/3 285/5/3 290/5/3
f 291/3/3 287/3/3 286/3/3
f 292/3/3 287/3/3 291/3/3
f 293/3/3 291/3/3 290/3/3
f 293/5/3 292/5/3 291/5/3
f 294/3/3 287/3/3 292/3/3
f 294/5/3 292/5/3 293/5/3
f 295/3/3 290/3/3 288/3/3
f 295/3/3 293/3/3 290/3/3
f 295/3/3 294/3/3 293/3/3
f 296/3/3 294/3/3 295/3/3
f 297/5/3 288/5/3 157/5/3
f 297/3/3 295/3/3 288/3/3
f 298/5/3 296/5/3 295/5/3
f 298/3/3 295/3/3 297/3/3
f 299/5/3 297/5/3 157/5/3
f 299/5/3 298/5/3 297/5/3
f 300/3/3 294/3/3 296/3/3
f 300/5/3 298/5/3 299/5/3
f 300/5/3 296/5/3 298/5/3
f 301/3/3 300/3/3 299/3/3
f 301/3/3 294/3/3 300/3/3
f 302/3/3 287/3/3 294/3/3
f 302/3/3 294/3/3 301/3/3
f 302/5/3 158/5/3 287/5/3
f 303/3/3 301/3/3 299/3/3
f 303/5/3 299/5/3 157/5/3
f 304/3/3 301/3/3 303/3/3
f 305/5/3 302/5/3 301/5/3
f 305/3/3 301/3/3 304/3/3
f 306/5/3 158/5/3 302/5/3
f 306/5/3 302/5/3 305/5/3
f 307/3/3 305/3/3 304/3/3
f 307/5/3 304/5/3 303/5/3
f 307/3/3 306/3/3 305/3/3
f 308/5/3 158/5/3 306/5/3
f 308/3/3 306/3/3 307/3/3
f 309/5/3 307/5/3 303/5/3
f 309/5/3 303/5/3 157/5/3
f 309/5/3 308/5/3 307/5/3
f 310/12/3 156/12/3 158/12/3
f 310/5/3 308/5/3 309/5/3
f 310/5/3 158/5/3 308/5/3
f 311/12/3 310/12/3 309/12/3
f 312/12/3 156/12/3 310/12/3
f 312/12/3 310/12/3 311/12/3
f 315/12/3 314/12/3 313/12/3
f 316/12/3 314/12/3 315/12/3
f 319/12/3 318/12/3 317/12/3
f 320/12/3 318/12/3 319/12/3
f 323/8/3 322/8/3 321/8/3
f 324/8/3 322/8/3 323/8/3
f 330/9/3 326/9/3 325/9/3
f 330/9/3 329/9/3 328/9/3
f 330/9/3 328/9/3 327/9/3
f 330/9/3 327/9/3 326/9/3
f 331/9/3 329/9/3 330/9/3
f 332/4/3 331/4/3 330/4/3
f 333/4/3 331/4/3 332/4/3
f 334/4/3 331/4/3 333/4/3
f 335/4/3 331/4/3 334/4/3
f 336/4/3 331/4/3 335/4/3
f 337/6/3 334/6/3 333/6/3
f 338/6/3 334/6/3 337/6/3
f 339/6/3 336/6/3 335/6/3
f 340/6/3 336/6/3 339/6/3
f 341/1/3 340/1/3 339/1/3
f 342/1/3 340/1/3 341/1/3
f 343/1/3 341/1/3 339/1/3
f 343/7/3 342/7/3 341/7/3
f 344/1/3 340/1/3 342/1/3
f 344/7/3 342/7/3 343/7/3
f 345/6/3 337/6/3 333/6/3
f 345/1/3 338/1/3 337/1/3
f 346/6/3 334/6/3 338/6/3
f 346/1/3 338/1/3 345/1/3
f 347/1/3 344/1/3 343/1/3
f 347/6/3 339/6/3 335/6/3
f 347/1/3 343/1/3 339/1/3
f 348/1/3 340/1/3 344/1/3
f 348/1/3 344/1/3 347/1/3
f 348/6/3 336/6/3 340/6/3
f 349/2/3 333/2/3 332/2/3
f 350/6/3 345/6/3 333/6/3
f 350/2/3 333/2/3 349/2/3
f 350/6/3 346/6/3 345/6/3
f 351/6/3 334/6/3 346/6/3
f 351/6/3 346/6/3 350/6/3
f 352/6/3 347/6/3 335/6/3
f 352/6/3 348/6/3 347/6/3
f 353/6/3 336/6/3 348/6/3
f 353/4/3 331/4/3 336/4/3
f 353/6/3 348/6/3 352/6/3
f 354/4/3 352/4/3 351/4/3
f 354/4/3 351/4/3 350/4/3
f 354/4/3 353/4/3 352/4/3
f 354/4/3 350/4/3 349/4/3
f 355/4/3 331/4/3 353/4/3
f 355/4/3 353/4/3 354/4/3
f 356/9/3 355/9/3 354/9/3
f 357/9/3 355/9/3 356/9/3
f 358/9/3 355/9/3 357/9/3
f 359/9/3 355/9/3 358/9/3
f 360/9/3 355/9/3 359/9/3
f 363/9/3 362/9/3 361/9/3
f 364/9/3 362/9/3 363/9/3
f 365/12/4 366/12/4 368/12/4
f 369/10/4 370/10/4 371/10/4
f 371/10/4 370/10/4 372/10/4
f 373/10/4 374/10/4 375/10/4
f 375/10/4 374/10/4 376/10/4
f 367/5/4 368/5/4 377/5/4
f 368/12/4 366/12/4 378/12/4
f 377/5/4 368/5/4 378/5/4
f 378/12/4 366/12/4 379/12/4
f 379/12/4 366/12/4 380/12/4
f 381/9/4 382/9/4 383/9/4
f 383/9/4 382/9/4 384/9/4
f 389/9/5 386/9/5 385/9/5
f 390/9/5 386/9/5 389/9/5
f 391/9/5 388/9/5 387/9/5
f 392/9/5 388/9/5 391/9/5
f 393/9/5 389/9/5 385/9/5
f 393/10/5 390/10/5 389/10/5
f 394/9/5 386/9/5 390/9/5
f 394/10/5 390/10/5 393/10/5
f 395/10/5 392/10/5 391/10/5
f 395/9/5 391/9/5 387/9/5
f 396/9/5 388/9/5 392/9/5
f 396/10/5 392/10/5 395/10/5
f 397/9/5 393/9/5 385/9/5
f 398/9/5 386/9/5 394/9/5
f 399/9/5 395/9/5 387/9/5
f 400/9/5 388/9/5 396/9/5
f 401/9/5 386/9/5 398/9/5
f 406/9/5 399/9/5 387/9/5
f 407/12/5 398/12/5 397/12/5
f 407/9/5 397/9/5 385/9/5
f 408/9/5 401/9/5 398/9/5
f 408/12/5 398/12/5 407/12/5
f 408/9/5 402/9/5 401/9/5
f 409/4/5 403/4/5 402/4/5
f 409/9/5 402/9/5 408/9/5
f 410/2/5 404/2/5 403/2/5
f 410/4/5 403/4/5 409/4/5
f 411/4/5 405/4/5 404/4/5
f 411/2/5 404/2/5 410/2/5
f 412/9/5 406/9/5 405/9/5
f 412/4/5 405/4/5 411/4/5
f 413/9/5 399/9/5 406/9/5
f 413/9/5 406/9/5 412/9/5
f 413/12/5 400/12/5 399/12/5
f 414/9/5 388/9/5 400/9/5
f 414/12/5 400/12/5 413/12/5
f 415/9/5 410/9/5 409/9/5
f 415/9/5 411/9/5 410/9/5
f 415/9/5 414/9/5 413/9/5
f 415/9/5 408/9/5 407/9/5
f 415/9/5 412/9/5 411/9/5
f 415/9/5 407/9/5 385/9/5
f 415/9/5 413/9/5 412/9/5
f 415/9/5 409/9/5 408/9/5
f 416/9/5 388/9/5 414/9/5
f 416/9/5 414/9/5 415/9/5
f 421/8/5 418/8/5 417/8/5
f 422/8/5 418/8/5 421/8/5
f 423/8/5 420/8/5 419/8/5
f 424/8/5 420/8/5 423/8/5
f 429/8/5 426/8/5 425/8/5
f 430/8/5 426/8/5 429/8/5
f 431/8/5 428/8/5 427/8/5
f 432/8/5 428/8/5 431/8/5
f 435/8/5 434/8/5 433/8/5
f 436/8/5 434/8/5 435/8/5
f 439/11/5 438/11/5 437/11/5
f 440/11/5 438/11/5 439/11/5
f 441/11/5 438/11/5 440/11/5
f 442/11/5 438/11/5 441/11/5
f 443/11/5 438/11/5 442/11/5
f 444/11/5 438/11/5 443/11/5
f 445/11/5 438/11/5 444/11/5
f 446/11/5 438/11/5 445/11/5
f 447/9/5 443/9/5 442/9/5
f 448/9/5 443/9/5 447/9/5
f 449/9/5 448/9/5 447/9/5
f 450/9/5 448/9/5 449/9/5
f 451/9/5 448/9/5 450/9/5
f 452/9/5 448/9/5 451/9/5
f 453/8/6 454/8/6 457/8/6
f 457/8/6 454/8/6 458/8/6
f 458/8/6 454/8/6 459/8/6
f 455/8/6 456/8/6 460/8/6
f 460/8/6 456/8/6 461/8/6
f 461/8/6 456/8/6 462/8/6
f 463/8/6 464/8/6 465/8/6
f 465/8/6 464/8/6 466/8/6
f 467/11/6 468/11/6 469/11/6
f 469/11/6 468/11/6 470/11/6
f 470/11/6 468/11/6 471/11/6
f 471/11/6 468/11/6 472/11/6
f 473/8/6 474/8/6 475/8/6
f 475/8/6 474/8/6 476/8/6
f 477/9/6 478/9/6 481/9/6
f 479/9/6 480/9/6 482/9/6
f 477/9/6 481/9/6 483/9/6
f 481/9/6 482/9/6 483/9/6
f 482/9/6 480/9/6 484/9/6
f 483/9/6 482/9/6 484/9/6
f 485/12/6 486/12/6 487/12/6
f 487/12/6 486/12/6 488/12/6
