# MagicaVoxel @ Ephtracy

# material
mtllib bld_house2.mtl
usemtl palette

# normals
vn -1 0 0
vn 1 0 0
vn 0 0 1
vn 0 0 -1
vn 0 -1 0
vn 0 1 0

# texcoords
vt 0.306641 0.5
vt 0.537109 0.5
vt 0.958984 0.5
vt 0.970703 0.5
vt 0.990234 0.5

# verts
v -32 0 32
v -32 0 -32
v -32 1 32
v -32 1 22
v -32 1 -16
v -32 1 -32
v -32 24 22
v -32 24 -16
v -30 1 -30
v -30 1 -32
v -30 18 -16
v -30 18 -30
v -30 20 -16
v -30 20 -32
v -27 1 27
v -27 1 22
v -27 2 27
v -27 2 22
v -27 2 21
v -27 18 22
v -27 18 21
v -26 8 23
v -26 8 22
v -26 10 23
v -26 10 22
v -1 1 -30
v -1 1 -32
v -1 18 -30
v -1 18 -32
v 15 1 -16
v 15 1 -21
v 15 2 -15
v 15 2 -16
v 15 2 -21
v 15 18 -15
v 15 18 -16
v 25 8 -16
v 25 8 -17
v 25 10 -16
v 25 10 -17
v 30 2 22
v 30 2 21
v 30 2 -15
v 30 2 -16
v 30 22 22
v 30 22 21
v 30 22 -15
v 30 22 -16
v -30 2 22
v -30 2 21
v -30 2 -15
v -30 2 -16
v -30 18 -15
v -30 18 -16
v -30 20 -15
v -30 20 -16
v -30 22 22
v -30 22 21
v -30 22 -15
v -30 22 -16
v -28 1 -30
v -28 1 -32
v -28 18 -30
v -28 18 -32
v -25 8 23
v -25 8 22
v -25 10 23
v -25 10 22
v -15 1 27
v -15 1 22
v -15 2 27
v -15 2 22
v -15 2 21
v -15 18 22
v -15 18 21
v 1 1 -30
v 1 1 -32
v 1 18 -15
v 1 18 -30
v 1 20 -15
v 1 20 -32
v 26 8 -16
v 26 8 -17
v 26 10 -16
v 26 10 -17
v 27 1 -16
v 27 1 -21
v 27 2 -15
v 27 2 -16
v 27 2 -21
v 27 18 -15
v 27 18 -16
v 32 0 32
v 32 0 -32
v 32 1 32
v 32 1 22
v 32 1 -16
v 32 1 -32
v 32 24 22
v 32 24 -16
v -32 0 32
v -32 1 32
v 32 0 32
v 32 1 32
v -27 1 27
v -27 2 27
v -15 1 27
v -15 2 27
v -26 8 23
v -26 10 23
v -25 8 23
v -25 10 23
v -32 1 22
v -32 24 22
v -30 2 22
v -30 22 22
v -27 1 22
v -27 2 22
v -27 18 22
v -26 2 22
v -26 3 22
v -26 8 22
v -26 10 22
v -26 16 22
v -25 8 22
v -25 10 22
v -16 2 22
v -16 3 22
v -16 16 22
v -15 1 22
v -15 2 22
v -15 18 22
v 30 2 22
v 30 22 22
v 32 1 22
v 32 24 22
v -30 2 21
v -30 22 21
v -27 2 21
v -27 18 21
v -15 2 21
v -15 18 21
v 30 2 21
v 30 22 21
v -30 1 -30
v -30 18 -30
v -28 1 -30
v -28 18 -30
v -1 1 -30
v -1 18 -30
v 1 1 -30
v 1 18 -30
v -30 2 -15
v -30 18 -15
v -30 20 -15
v -30 22 -15
v 1 18 -15
v 1 20 -15
v 15 2 -15
v 15 18 -15
v 27 2 -15
v 27 18 -15
v 30 2 -15
v 30 22 -15
v -32 1 -16
v -32 24 -16
v -30 2 -16
v -30 18 -16
v -30 20 -16
v -30 22 -16
v 15 1 -16
v 15 2 -16
v 15 18 -16
v 16 2 -16
v 16 3 -16
v 16 16 -16
v 25 8 -16
v 25 10 -16
v 26 2 -16
v 26 3 -16
v 26 8 -16
v 26 10 -16
v 26 16 -16
v 27 1 -16
v 27 2 -16
v 27 18 -16
v 30 2 -16
v 30 22 -16
v 32 1 -16
v 32 24 -16
v 25 8 -17
v 25 10 -17
v 26 8 -17
v 26 10 -17
v 15 1 -21
v 15 2 -21
v 27 1 -21
v 27 2 -21
v -32 0 -32
v -32 1 -32
v -30 1 -32
v -30 20 -32
v -28 1 -32
v -28 18 -32
v -1 1 -32
v -1 18 -32
v 1 1 -32
v 1 20 -32
v 32 0 -32
v 32 1 -32
v -32 0 32
v 32 0 32
v -32 0 -32
v 32 0 -32
v -26 8 23
v -25 8 23
v -26 8 22
v -25 8 22
v 25 8 -16
v 26 8 -16
v 25 8 -17
v 26 8 -17
v -30 18 -15
v 1 18 -15
v -30 18 -16
v -30 18 -30
v -28 18 -30
v -1 18 -30
v 1 18 -30
v -28 18 -32
v -1 18 -32
v -30 22 22
v 30 22 22
v -30 22 21
v 30 22 21
v -30 22 -15
v 30 22 -15
v -30 22 -16
v 30 22 -16
v -32 1 32
v 32 1 32
v -27 1 27
v -15 1 27
v -32 1 22
v -27 1 22
v -15 1 22
v 32 1 22
v -32 1 -16
v 15 1 -16
v 27 1 -16
v 32 1 -16
v 15 1 -21
v 27 1 -21
v -30 1 -30
v -28 1 -30
v -1 1 -30
v 1 1 -30
v -32 1 -32
v -30 1 -32
v -28 1 -32
v -1 1 -32
v 1 1 -32
v 32 1 -32
v -27 2 27
v -15 2 27
v -30 2 22
v -27 2 22
v -26 2 22
v -16 2 22
v -15 2 22
v 30 2 22
v -30 2 21
v -27 2 21
v -15 2 21
v 30 2 21
v -30 2 -15
v 15 2 -15
v 27 2 -15
v 30 2 -15
v -30 2 -16
v 15 2 -16
v 16 2 -16
v 26 2 -16
v 27 2 -16
v 30 2 -16
v 15 2 -21
v 27 2 -21
v -26 10 23
v -25 10 23
v -26 10 22
v -25 10 22
v 25 10 -16
v 26 10 -16
v 25 10 -17
v 26 10 -17
v -27 18 22
v -15 18 22
v -27 18 21
v -15 18 21
v 15 18 -15
v 27 18 -15
v 15 18 -16
v 27 18 -16
v -30 20 -15
v 1 20 -15
v -30 20 -16
v -30 20 -32
v 1 20 -32
v -32 24 22
v 32 24 22
v -32 24 -16
v 32 24 -16

# faces
f 3/4/1 2/4/1 1/4/1
f 4/4/1 2/4/1 3/4/1
f 5/4/1 2/4/1 4/4/1
f 6/4/1 2/4/1 5/4/1
f 7/3/1 5/3/1 4/3/1
f 8/3/1 5/3/1 7/3/1
f 12/3/1 10/3/1 9/3/1
f 13/3/1 12/3/1 11/3/1
f 14/3/1 10/3/1 12/3/1
f 14/3/1 12/3/1 13/3/1
f 17/3/1 16/3/1 15/3/1
f 18/3/1 16/3/1 17/3/1
f 20/3/1 19/3/1 18/3/1
f 21/3/1 19/3/1 20/3/1
f 24/5/1 23/5/1 22/5/1
f 25/5/1 23/5/1 24/5/1
f 28/3/1 27/3/1 26/3/1
f 29/3/1 27/3/1 28/3/1
f 33/3/1 31/3/1 30/3/1
f 34/3/1 31/3/1 33/3/1
f 35/3/1 33/3/1 32/3/1
f 36/3/1 33/3/1 35/3/1
f 39/5/1 38/5/1 37/5/1
f 40/5/1 38/5/1 39/5/1
f 45/3/1 42/3/1 41/3/1
f 46/3/1 42/3/1 45/3/1
f 47/3/1 44/3/1 43/3/1
f 48/3/1 44/3/1 47/3/1
f 51/3/2 52/3/2 53/3/2
f 53/3/2 52/3/2 54/3/2
f 49/3/2 50/3/2 57/3/2
f 57/3/2 50/3/2 58/3/2
f 55/3/2 56/3/2 59/3/2
f 59/3/2 56/3/2 60/3/2
f 61/3/2 62/3/2 63/3/2
f 63/3/2 62/3/2 64/3/2
f 65/5/2 66/5/2 67/5/2
f 67/5/2 66/5/2 68/5/2
f 69/3/2 70/3/2 71/3/2
f 71/3/2 70/3/2 72/3/2
f 72/3/2 73/3/2 74/3/2
f 74/3/2 73/3/2 75/3/2
f 76/3/2 77/3/2 79/3/2
f 78/3/2 79/3/2 80/3/2
f 79/3/2 77/3/2 81/3/2
f 80/3/2 79/3/2 81/3/2
f 82/5/2 83/5/2 84/5/2
f 84/5/2 83/5/2 85/5/2
f 86/3/2 87/3/2 89/3/2
f 89/3/2 87/3/2 90/3/2
f 88/3/2 89/3/2 91/3/2
f 91/3/2 89/3/2 92/3/2
f 93/4/2 94/4/2 95/4/2
f 95/4/2 94/4/2 96/4/2
f 96/4/2 94/4/2 97/4/2
f 97/4/2 94/4/2 98/4/2
f 96/3/2 97/3/2 99/3/2
f 99/3/2 97/3/2 100/3/2
f 103/4/3 102/4/3 101/4/3
f 104/4/3 102/4/3 103/4/3
f 107/3/3 106/3/3 105/3/3
f 108/3/3 106/3/3 107/3/3
f 111/5/3 110/5/3 109/5/3
f 112/5/3 110/5/3 111/5/3
f 115/3/3 114/3/3 113/3/3
f 116/3/3 114/3/3 115/3/3
f 117/3/3 115/3/3 113/3/3
f 118/3/3 115/3/3 117/3/3
f 120/3/3 119/3/3 118/3/3
f 121/3/3 119/3/3 120/3/3
f 122/3/3 119/3/3 121/3/3
f 123/3/3 119/3/3 122/3/3
f 124/3/3 119/3/3 123/3/3
f 125/1/3 122/1/3 121/1/3
f 126/1/3 124/1/3 123/1/3
f 127/4/3 121/4/3 120/4/3
f 128/1/3 126/1/3 125/1/3
f 128/4/3 121/4/3 127/4/3
f 128/1/3 125/1/3 121/1/3
f 129/3/3 119/3/3 124/3/3
f 129/1/3 126/1/3 128/1/3
f 129/1/3 124/1/3 126/1/3
f 131/3/3 128/3/3 127/3/3
f 131/3/3 129/3/3 128/3/3
f 132/3/3 119/3/3 129/3/3
f 132/3/3 129/3/3 131/3/3
f 133/3/3 131/3/3 130/3/3
f 134/3/3 114/3/3 116/3/3
f 135/3/3 133/3/3 130/3/3
f 135/3/3 134/3/3 133/3/3
f 136/3/3 114/3/3 134/3/3
f 136/3/3 134/3/3 135/3/3
f 139/1/3 138/1/3 137/1/3
f 140/1/3 138/1/3 139/1/3
f 142/1/3 138/1/3 140/1/3
f 143/1/3 142/1/3 141/1/3
f 144/1/3 138/1/3 142/1/3
f 144/1/3 142/1/3 143/1/3
f 147/3/3 146/3/3 145/3/3
f 148/3/3 146/3/3 147/3/3
f 151/3/3 150/3/3 149/3/3
f 152/3/3 150/3/3 151/3/3
f 153/1/4 154/1/4 157/1/4
f 155/1/4 156/1/4 158/1/4
f 153/1/4 157/1/4 159/1/4
f 157/1/4 158/1/4 159/1/4
f 159/1/4 158/1/4 160/1/4
f 160/1/4 158/1/4 162/1/4
f 161/1/4 162/1/4 163/1/4
f 158/1/4 156/1/4 164/1/4
f 163/1/4 162/1/4 164/1/4
f 162/1/4 158/1/4 164/1/4
f 165/3/4 166/3/4 167/3/4
f 167/3/4 166/3/4 168/3/4
f 168/3/4 166/3/4 169/3/4
f 169/3/4 166/3/4 170/3/4
f 165/3/4 167/3/4 171/3/4
f 171/3/4 167/3/4 172/3/4
f 172/3/4 173/3/4 174/3/4
f 174/3/4 173/3/4 175/3/4
f 175/3/4 173/3/4 176/3/4
f 175/1/4 176/1/4 177/1/4
f 177/1/4 176/1/4 178/1/4
f 174/4/4 175/4/4 179/4/4
f 175/1/4 177/1/4 180/1/4
f 179/4/4 175/4/4 180/4/4
f 180/1/4 177/1/4 181/1/4
f 178/1/4 176/1/4 182/1/4
f 176/3/4 173/3/4 183/3/4
f 182/1/4 176/1/4 183/1/4
f 180/3/4 181/3/4 185/3/4
f 181/3/4 182/3/4 185/3/4
f 182/3/4 183/3/4 185/3/4
f 179/3/4 180/3/4 185/3/4
f 183/3/4 173/3/4 186/3/4
f 185/3/4 183/3/4 186/3/4
f 184/3/4 185/3/4 187/3/4
f 170/3/4 166/3/4 188/3/4
f 184/3/4 187/3/4 189/3/4
f 187/3/4 188/3/4 189/3/4
f 188/3/4 166/3/4 190/3/4
f 189/3/4 188/3/4 190/3/4
f 191/5/4 192/5/4 193/5/4
f 193/5/4 192/5/4 194/5/4
f 195/3/4 196/3/4 197/3/4
f 197/3/4 196/3/4 198/3/4
f 199/4/4 200/4/4 201/4/4
f 199/4/4 201/4/4 203/4/4
f 201/3/4 202/3/4 203/3/4
f 203/3/4 202/3/4 204/3/4
f 199/4/4 203/4/4 205/4/4
f 204/3/4 202/3/4 206/3/4
f 199/4/4 205/4/4 207/4/4
f 205/3/4 206/3/4 207/3/4
f 206/3/4 202/3/4 208/3/4
f 207/3/4 206/3/4 208/3/4
f 199/4/4 207/4/4 209/4/4
f 209/4/4 207/4/4 210/4/4
f 213/4/5 212/4/5 211/4/5
f 214/4/5 212/4/5 213/4/5
f 217/5/5 216/5/5 215/5/5
f 218/5/5 216/5/5 217/5/5
f 221/5/5 220/5/5 219/5/5
f 222/5/5 220/5/5 221/5/5
f 225/3/5 224/3/5 223/3/5
f 226/3/5 224/3/5 225/3/5
f 227/3/5 224/3/5 226/3/5
f 228/3/5 224/3/5 227/3/5
f 229/3/5 224/3/5 228/3/5
f 230/3/5 228/3/5 227/3/5
f 231/3/5 228/3/5 230/3/5
f 234/3/5 233/3/5 232/3/5
f 235/3/5 233/3/5 234/3/5
f 238/3/5 237/3/5 236/3/5
f 239/3/5 237/3/5 238/3/5
f 240/4/6 241/4/6 242/4/6
f 242/4/6 241/4/6 243/4/6
f 240/4/6 242/4/6 244/4/6
f 244/4/6 242/4/6 245/4/6
f 243/4/6 241/4/6 246/4/6
f 246/4/6 241/4/6 247/4/6
f 248/4/6 249/4/6 252/4/6
f 250/4/6 251/4/6 253/4/6
f 248/4/6 252/4/6 254/4/6
f 252/4/6 253/4/6 254/4/6
f 254/4/6 253/4/6 255/4/6
f 255/4/6 253/4/6 256/4/6
f 256/4/6 253/4/6 257/4/6
f 248/4/6 254/4/6 258/4/6
f 258/4/6 254/4/6 259/4/6
f 255/4/6 256/4/6 260/4/6
f 260/4/6 256/4/6 261/4/6
f 257/4/6 253/4/6 262/4/6
f 253/4/6 251/4/6 263/4/6
f 262/4/6 253/4/6 263/4/6
f 264/3/6 265/3/6 267/3/6
f 267/3/6 265/3/6 268/3/6
f 268/3/6 265/3/6 269/3/6
f 269/3/6 265/3/6 270/3/6
f 266/3/6 267/3/6 272/3/6
f 272/3/6 267/3/6 273/3/6
f 270/3/6 271/3/6 274/3/6
f 274/3/6 271/3/6 275/3/6
f 276/3/6 277/3/6 280/3/6
f 280/3/6 277/3/6 281/3/6
f 278/3/6 279/3/6 284/3/6
f 284/3/6 279/3/6 285/3/6
f 282/3/6 283/3/6 286/3/6
f 283/3/6 284/3/6 286/3/6
f 281/3/6 282/3/6 286/3/6
f 286/3/6 284/3/6 287/3/6
f 288/5/6 289/5/6 290/5/6
f 290/5/6 289/5/6 291/5/6
f 292/5/6 293/5/6 294/5/6
f 294/5/6 293/5/6 295/5/6
f 296/3/6 297/3/6 298/3/6
f 298/3/6 297/3/6 299/3/6
f 300/3/6 301/3/6 302/3/6
f 302/3/6 301/3/6 303/3/6
f 304/3/6 305/3/6 306/3/6
f 306/3/6 305/3/6 307/3/6
f 307/3/6 305/3/6 308/3/6
f 309/3/6 310/3/6 311/3/6
f 311/3/6 310/3/6 312/3/6
