# MagicaVoxel @ Ephtracy

# material
mtllib chr_hunter1.mtl
usemtl palette

# normals
vn -1 0 0
vn 1 0 0
vn 0 0 1
vn 0 0 -1
vn 0 -1 0
vn 0 1 0

# texcoords
vt 0.0332031 0.5
vt 0.0605469 0.5
vt 0.0917969 0.5
vt 0.341797 0.5
vt 0.373047 0.5
vt 0.962891 0.5
vt 0.990234 0.5
vt 0.994141 0.5

# verts
v -4 2 1
v -4 2 -0
v -4 5 1
v -4 5 -0
v -4 6 1
v -4 6 -0
v -4 7 1
v -4 7 -0
v -4 7 -1
v -4 8 2
v -4 8 1
v -4 8 -0
v -4 8 -1
v -4 8 -2
v -4 10 2
v -4 10 -2
v -3 1 2
v -3 1 -1
v -3 2 3
v -3 2 2
v -3 2 1
v -3 2 -0
v -3 2 -1
v -3 2 -2
v -3 5 1
v -3 5 -0
v -3 6 3
v -3 6 2
v -3 6 1
v -3 6 -0
v -3 6 -1
v -3 6 -2
v -3 7 1
v -3 7 -0
v -3 7 -1
v -3 7 -2
v -3 8 2
v -3 8 1
v -3 8 -1
v -3 8 -2
v -2 0 1
v -2 0 -0
v -2 1 1
v -2 1 -0
v -2 6 -1
v -2 6 -2
v -2 7 -1
v -2 7 -2
v -2 7 -3
v -2 10 -2
v -2 10 -3
v 1 0 1
v 1 0 -0
v 1 1 2
v 1 1 1
v 1 1 -0
v 1 1 -1
v 1 2 2
v 1 2 -1
v 1 5 3
v 1 5 2
v 1 6 3
v 1 6 2
v -1 0 1
v -1 0 -0
v -1 1 2
v -1 1 1
v -1 1 -0
v -1 1 -1
v -1 2 2
v -1 2 -1
v -1 5 3
v -1 5 2
v -1 6 3
v -1 6 2
v 2 0 1
v 2 0 -0
v 2 1 1
v 2 1 -0
v 2 7 -2
v 2 7 -3
v 2 10 -2
v 2 10 -3
v 3 1 2
v 3 1 -1
v 3 2 3
v 3 2 2
v 3 2 1
v 3 2 -0
v 3 2 -1
v 3 2 -2
v 3 5 1
v 3 5 -0
v 3 6 3
v 3 6 2
v 3 6 1
v 3 6 -0
v 3 6 -1
v 3 6 -2
v 3 7 1
v 3 7 -0
v 3 7 -1
v 3 8 2
v 3 8 1
v 3 10 -1
v 3 10 -2
v 4 2 1
v 4 2 -0
v 4 5 1
v 4 5 -0
v 4 6 1
v 4 6 -0
v 4 7 1
v 4 7 -0
v 4 7 -1
v 4 8 2
v 4 8 1
v 4 8 -0
v 4 10 2
v 4 10 -1
v -3 2 3
v -3 6 3
v -1 2 3
v -1 3 3
v -1 5 3
v -1 6 3
v 1 2 3
v 1 3 3
v 1 5 3
v 1 6 3
v 3 2 3
v 3 6 3
v -4 8 2
v -4 10 2
v -3 1 2
v -3 2 2
v -3 6 2
v -3 8 2
v -3 10 2
v -2 7 2
v -2 8 2
v -1 1 2
v -1 2 2
v -1 5 2
v -1 6 2
v -1 7 2
v -1 8 2
v 1 1 2
v 1 2 2
v 1 5 2
v 1 6 2
v 1 7 2
v 1 8 2
v 2 7 2
v 2 8 2
v 3 1 2
v 3 2 2
v 3 6 2
v 3 8 2
v 3 10 2
v 4 8 2
v 4 10 2
v -4 2 1
v -4 5 1
v -4 6 1
v -4 7 1
v -4 8 1
v -3 2 1
v -3 5 1
v -3 6 1
v -3 7 1
v -3 8 1
v -2 0 1
v -2 1 1
v -1 0 1
v -1 1 1
v 1 0 1
v 1 1 1
v 2 0 1
v 2 1 1
v 3 2 1
v 3 5 1
v 3 6 1
v 3 7 1
v 3 8 1
v 4 2 1
v 4 5 1
v 4 6 1
v 4 7 1
v 4 8 1
v -4 2 -0
v -4 5 -0
v -4 6 -0
v -3 2 -0
v -3 5 -0
v -3 6 -0
v -2 0 -0
v -2 1 -0
v -1 0 -0
v -1 1 -0
v 1 0 -0
v 1 1 -0
v 2 0 -0
v 2 1 -0
v 3 2 -0
v 3 5 -0
v 3 6 -0
v 4 2 -0
v 4 5 -0
v 4 6 -0
v -4 7 -1
v -4 8 -1
v -3 1 -1
v -3 2 -1
v -3 6 -1
v -3 7 -1
v -3 8 -1
v -2 6 -1
v -2 7 -1
v -1 1 -1
v -1 2 -1
v 1 1 -1
v 1 2 -1
v 3 1 -1
v 3 2 -1
v 3 7 -1
v 3 10 -1
v 4 7 -1
v 4 10 -1
v -4 8 -2
v -4 10 -2
v -3 2 -2
v -3 6 -2
v -3 7 -2
v -3 8 -2
v -2 6 -2
v -2 7 -2
v -2 10 -2
v 2 6 -2
v 2 7 -2
v 2 10 -2
v 3 2 -2
v 3 6 -2
v 3 10 -2
v -2 7 -3
v -2 10 -3
v 2 7 -3
v 2 10 -3
v -2 0 1
v -1 0 1
v 1 0 1
v 2 0 1
v -2 0 -0
v -1 0 -0
v 1 0 -0
v 2 0 -0
v -3 1 2
v -1 1 2
v 1 1 2
v 3 1 2
v -2 1 1
v -1 1 1
v 1 1 1
v 2 1 1
v -2 1 -0
v -1 1 -0
v 1 1 -0
v 2 1 -0
v -3 1 -1
v -1 1 -1
v 1 1 -1
v 3 1 -1
v -3 2 3
v -1 2 3
v 1 2 3
v 3 2 3
v -3 2 2
v -1 2 2
v 1 2 2
v 3 2 2
v -4 2 1
v -3 2 1
v 3 2 1
v 4 2 1
v -4 2 -0
v -3 2 -0
v 3 2 -0
v 4 2 -0
v -3 2 -1
v -1 2 -1
v 1 2 -1
v 3 2 -1
v -3 2 -2
v 3 2 -2
v -4 7 1
v -3 7 1
v 3 7 1
v 4 7 1
v -4 7 -0
v -3 7 -0
v 3 7 -0
v 4 7 -0
v -4 7 -1
v -3 7 -1
v -2 7 -1
v 3 7 -1
v 4 7 -1
v -3 7 -2
v -2 7 -2
v 2 7 -2
v -2 7 -3
v 2 7 -3
v -4 8 2
v -3 8 2
v 3 8 2
v 4 8 2
v -4 8 1
v -3 8 1
v 3 8 1
v 4 8 1
v -4 8 -1
v -3 8 -1
v -4 8 -2
v -3 8 -2
v -1 5 3
v 1 5 3
v -1 5 2
v 1 5 2
v -3 6 3
v -1 6 3
v 1 6 3
v 3 6 3
v -3 6 2
v -1 6 2
v 1 6 2
v 3 6 2
v -4 6 1
v -3 6 1
v 3 6 1
v 4 6 1
v -4 6 -0
v -3 6 -0
v 3 6 -0
v 4 6 -0
v -3 6 -1
v -2 6 -1
v -3 6 -2
v -2 6 -2
v -4 10 2
v -3 10 2
v 3 10 2
v 4 10 2
v -3 10 -1
v -2 10 -1
v 2 10 -1
v 3 10 -1
v 4 10 -1
v -4 10 -2
v -2 10 -2
v 2 10 -2
v 3 10 -2
v -2 10 -3
v 2 10 -3

# faces
f 3/1/1 2/1/1 1/1/1
f 4/1/1 2/1/1 3/1/1
f 5/6/1 4/6/1 3/6/1
f 6/6/1 4/6/1 5/6/1
f 11/2/1 8/2/1 7/2/1
f 12/5/1 9/5/1 8/5/1
f 12/2/1 8/2/1 11/2/1
f 13/5/1 9/5/1 12/5/1
f 15/5/1 11/5/1 10/5/1
f 15/5/1 14/5/1 13/5/1
f 15/5/1 13/5/1 12/5/1
f 15/5/1 12/5/1 11/5/1
f 16/5/1 14/5/1 15/5/1
f 20/4/1 18/4/1 17/4/1
f 21/4/1 18/4/1 20/4/1
f 22/4/1 18/4/1 21/4/1
f 23/4/1 18/4/1 22/4/1
f 25/3/1 20/3/1 19/3/1
f 25/3/1 21/3/1 20/3/1
f 26/3/1 24/3/1 23/3/1
f 26/3/1 23/3/1 22/3/1
f 27/3/1 25/3/1 19/3/1
f 28/3/1 25/3/1 27/3/1
f 29/3/1 25/3/1 28/3/1
f 30/3/1 24/3/1 26/3/1
f 31/3/1 24/3/1 30/3/1
f 32/3/1 24/3/1 31/3/1
f 33/1/1 29/1/1 28/1/1
f 33/1/1 31/1/1 30/1/1
f 33/1/1 30/1/1 29/1/1
f 34/1/1 31/1/1 33/1/1
f 35/1/1 31/1/1 34/1/1
f 37/1/1 33/1/1 28/1/1
f 38/1/1 33/1/1 37/1/1
f 39/5/1 36/5/1 35/5/1
f 40/5/1 36/5/1 39/5/1
f 43/7/1 42/7/1 41/7/1
f 44/7/1 42/7/1 43/7/1
f 47/1/1 46/1/1 45/1/1
f 48/1/1 46/1/1 47/1/1
f 50/5/1 49/5/1 48/5/1
f 51/5/1 49/5/1 50/5/1
f 55/7/1 53/7/1 52/7/1
f 56/7/1 53/7/1 55/7/1
f 58/4/1 55/4/1 54/4/1
f 58/4/1 57/4/1 56/4/1
f 58/4/1 56/4/1 55/4/1
f 59/4/1 57/4/1 58/4/1
f 62/3/1 61/3/1 60/3/1
f 63/3/1 61/3/1 62/3/1
f 64/7/2 65/7/2 67/7/2
f 67/7/2 65/7/2 68/7/2
f 66/4/2 67/4/2 70/4/2
f 68/4/2 69/4/2 70/4/2
f 67/4/2 68/4/2 70/4/2
f 70/4/2 69/4/2 71/4/2
f 72/3/2 73/3/2 74/3/2
f 74/3/2 73/3/2 75/3/2
f 76/7/2 77/7/2 78/7/2
f 78/7/2 77/7/2 79/7/2
f 80/5/2 81/5/2 82/5/2
f 82/5/2 81/5/2 83/5/2
f 84/4/2 85/4/2 87/4/2
f 87/4/2 85/4/2 88/4/2
f 88/4/2 85/4/2 89/4/2
f 89/4/2 85/4/2 90/4/2
f 86/3/2 87/3/2 92/3/2
f 87/3/2 88/3/2 92/3/2
f 90/3/2 91/3/2 93/3/2
f 89/3/2 90/3/2 93/3/2
f 86/3/2 92/3/2 94/3/2
f 94/3/2 92/3/2 95/3/2
f 95/3/2 92/3/2 96/3/2
f 93/3/2 91/3/2 97/3/2
f 97/3/2 91/3/2 98/3/2
f 98/3/2 91/3/2 99/3/2
f 95/1/2 96/1/2 100/1/2
f 96/1/2 97/1/2 100/1/2
f 97/1/2 98/1/2 100/1/2
f 100/1/2 98/1/2 101/1/2
f 98/5/2 99/5/2 102/5/2
f 101/1/2 98/1/2 102/1/2
f 95/1/2 100/1/2 103/1/2
f 103/1/2 100/1/2 104/1/2
f 102/5/2 99/5/2 105/5/2
f 105/5/2 99/5/2 106/5/2
f 107/1/2 108/1/2 109/1/2
f 109/1/2 108/1/2 110/1/2
f 109/6/2 110/6/2 111/6/2
f 111/6/2 110/6/2 112/6/2
f 113/2/2 114/2/2 117/2/2
f 114/5/2 115/5/2 118/5/2
f 117/2/2 114/2/2 118/2/2
f 116/5/2 117/5/2 119/5/2
f 117/5/2 118/5/2 119/5/2
f 118/5/2 115/5/2 120/5/2
f 119/5/2 118/5/2 120/5/2
f 123/3/3 122/3/3 121/3/3
f 124/3/3 122/3/3 123/3/3
f 125/3/3 122/3/3 124/3/3
f 126/3/3 122/3/3 125/3/3
f 127/4/3 124/4/3 123/4/3
f 128/6/3 125/6/3 124/6/3
f 128/4/3 124/4/3 127/4/3
f 129/6/3 125/6/3 128/6/3
f 131/3/3 128/3/3 127/3/3
f 131/3/3 130/3/3 129/3/3
f 131/3/3 129/3/3 128/3/3
f 132/3/3 130/3/3 131/3/3
f 138/5/3 134/5/3 133/5/3
f 139/5/3 134/5/3 138/5/3
f 140/1/3 138/1/3 137/1/3
f 140/1/3 139/1/3 138/1/3
f 141/1/3 139/1/3 140/1/3
f 142/4/3 136/4/3 135/4/3
f 143/4/3 136/4/3 142/4/3
f 145/1/3 140/1/3 137/1/3
f 146/8/3 141/8/3 140/8/3
f 146/1/3 140/1/3 145/1/3
f 147/1/3 139/1/3 141/1/3
f 147/8/3 141/8/3 146/8/3
f 150/1/3 146/1/3 145/1/3
f 150/1/3 145/1/3 144/1/3
f 150/1/3 147/1/3 146/1/3
f 151/1/3 147/1/3 150/1/3
f 152/1/3 147/1/3 151/1/3
f 153/1/3 139/1/3 147/1/3
f 153/1/3 147/1/3 152/1/3
f 154/1/3 152/1/3 151/1/3
f 154/8/3 153/8/3 152/8/3
f 155/1/3 139/1/3 153/1/3
f 155/8/3 153/8/3 154/8/3
f 156/4/3 149/4/3 148/4/3
f 157/4/3 149/4/3 156/4/3
f 158/1/3 154/1/3 151/1/3
f 158/1/3 155/1/3 154/1/3
f 159/1/3 139/1/3 155/1/3
f 159/1/3 155/1/3 158/1/3
f 160/1/3 139/1/3 159/1/3
f 161/5/3 160/5/3 159/5/3
f 162/5/3 160/5/3 161/5/3
f 168/1/3 164/1/3 163/1/3
f 169/6/3 165/6/3 164/6/3
f 169/1/3 164/1/3 168/1/3
f 170/6/3 165/6/3 169/6/3
f 171/2/3 167/2/3 166/2/3
f 172/2/3 167/2/3 171/2/3
f 175/7/3 174/7/3 173/7/3
f 176/7/3 174/7/3 175/7/3
f 179/7/3 178/7/3 177/7/3
f 180/7/3 178/7/3 179/7/3
f 186/1/3 182/1/3 181/1/3
f 187/6/3 183/6/3 182/6/3
f 187/1/3 182/1/3 186/1/3
f 188/6/3 183/6/3 187/6/3
f 189/2/3 185/2/3 184/2/3
f 190/2/3 185/2/3 189/2/3
f 191/1/4 192/1/4 194/1/4
f 192/6/4 193/6/4 195/6/4
f 194/1/4 192/1/4 195/1/4
f 195/6/4 193/6/4 196/6/4
f 197/7/4 198/7/4 199/7/4
f 199/7/4 198/7/4 200/7/4
f 201/7/4 202/7/4 203/7/4
f 203/7/4 202/7/4 204/7/4
f 205/1/4 206/1/4 208/1/4
f 206/6/4 207/6/4 209/6/4
f 208/1/4 206/1/4 209/1/4
f 209/6/4 207/6/4 210/6/4
f 211/5/4 212/5/4 216/5/4
f 216/5/4 212/5/4 217/5/4
f 215/1/4 216/1/4 218/1/4
f 218/1/4 216/1/4 219/1/4
f 213/4/4 214/4/4 220/4/4
f 220/4/4 214/4/4 221/4/4
f 222/4/4 223/4/4 224/4/4
f 224/4/4 223/4/4 225/4/4
f 226/5/4 227/5/4 228/5/4
f 228/5/4 227/5/4 229/5/4
f 230/5/4 231/5/4 235/5/4
f 232/3/4 233/3/4 236/3/4
f 234/5/4 235/5/4 237/5/4
f 235/5/4 231/5/4 238/5/4
f 237/5/4 235/5/4 238/5/4
f 232/3/4 236/3/4 239/3/4
f 236/1/4 237/1/4 239/1/4
f 239/1/4 237/1/4 240/1/4
f 232/3/4 239/3/4 242/3/4
f 240/5/4 241/5/4 243/5/4
f 242/3/4 239/3/4 243/3/4
f 239/5/4 240/5/4 243/5/4
f 243/5/4 241/5/4 244/5/4
f 245/5/4 246/5/4 247/5/4
f 247/5/4 246/5/4 248/5/4
f 253/7/5 250/7/5 249/7/5
f 254/7/5 250/7/5 253/7/5
f 255/7/5 252/7/5 251/7/5
f 256/7/5 252/7/5 255/7/5
f 261/4/5 258/4/5 257/4/5
f 262/4/5 258/4/5 261/4/5
f 263/4/5 260/4/5 259/4/5
f 264/4/5 260/4/5 263/4/5
f 265/4/5 261/4/5 257/4/5
f 268/4/5 260/4/5 264/4/5
f 269/4/5 266/4/5 265/4/5
f 269/4/5 265/4/5 257/4/5
f 270/4/5 266/4/5 269/4/5
f 271/4/5 268/4/5 267/4/5
f 272/4/5 260/4/5 268/4/5
f 272/4/5 268/4/5 271/4/5
f 277/3/5 274/3/5 273/3/5
f 278/4/5 275/4/5 274/4/5
f 278/3/5 274/3/5 277/3/5
f 279/3/5 276/3/5 275/3/5
f 279/4/5 275/4/5 278/4/5
f 280/3/5 276/3/5 279/3/5
f 285/1/5 282/1/5 281/1/5
f 286/1/5 282/1/5 285/1/5
f 287/1/5 284/1/5 283/1/5
f 288/1/5 284/1/5 287/1/5
f 290/4/5 279/4/5 278/4/5
f 291/4/5 279/4/5 290/4/5
f 293/3/5 290/3/5 289/3/5
f 293/3/5 292/3/5 291/3/5
f 293/3/5 291/3/5 290/3/5
f 294/3/5 292/3/5 293/3/5
f 299/2/5 296/2/5 295/2/5
f 300/2/5 296/2/5 299/2/5
f 301/2/5 298/2/5 297/2/5
f 302/2/5 298/2/5 301/2/5
f 303/5/5 300/5/5 299/5/5
f 304/5/5 300/5/5 303/5/5
f 306/5/5 302/5/5 301/5/5
f 307/5/5 302/5/5 306/5/5
f 308/5/5 305/5/5 304/5/5
f 309/5/5 305/5/5 308/5/5
f 311/5/5 310/5/5 309/5/5
f 312/5/5 310/5/5 311/5/5
f 317/5/5 314/5/5 313/5/5
f 318/5/5 314/5/5 317/5/5
f 319/5/5 316/5/5 315/5/5
f 320/5/5 316/5/5 319/5/5
f 323/5/5 322/5/5 321/5/5
f 324/5/5 322/5/5 323/5/5
f 325/6/6 326/6/6 327/6/6
f 327/6/6 326/6/6 328/6/6
f 329/3/6 330/3/6 333/3/6
f 333/3/6 330/3/6 334/3/6
f 331/3/6 332/3/6 335/3/6
f 335/3/6 332/3/6 336/3/6
f 337/6/6 338/6/6 341/6/6
f 341/6/6 338/6/6 342/6/6
f 339/6/6 340/6/6 343/6/6
f 343/6/6 340/6/6 344/6/6
f 345/3/6 346/3/6 347/3/6
f 347/3/6 346/3/6 348/3/6
f 349/5/6 350/5/6 353/5/6
f 350/1/6 351/1/6 353/1/6
f 353/1/6 351/1/6 354/1/6
f 354/1/6 351/1/6 355/1/6
f 351/5/6 352/5/6 356/5/6
f 355/1/6 351/1/6 356/1/6
f 356/5/6 352/5/6 357/5/6
f 349/5/6 353/5/6 358/5/6
f 353/5/6 354/5/6 358/5/6
f 354/1/6 355/1/6 359/1/6
f 358/5/6 354/5/6 359/5/6
f 355/5/6 356/5/6 360/5/6
f 359/1/6 355/1/6 360/1/6
f 360/5/6 356/5/6 361/5/6
f 359/5/6 360/5/6 362/5/6
f 362/5/6 360/5/6 363/5/6
