# MagicaVoxel @ Ephtracy

# material
mtllib chr_base.mtl
usemtl palette

# normals
vn -1 0 0
vn 1 0 0
vn 0 0 1
vn 0 0 -1
vn 0 -1 0
vn 0 1 0

# texcoords
vt 0.0332031 0.5
vt 0.0605469 0.5
vt 0.970703 0.5
vt 0.978516 0.5
vt 0.986328 0.5
vt 0.990234 0.5
vt 0.994141 0.5

# verts
v -4 2 0.5
v -4 2 -0.5
v -4 3 0.5
v -4 3 -0.5
v -4 6 0.5
v -4 6 -0.5
v -4 7 0.5
v -4 7 -0.5
v -4 8 0.5
v -4 8 -0.5
v -3 1 1.5
v -3 1 -1.5
v -3 2 2.5
v -3 2 1.5
v -3 2 0.5
v -3 2 -0.5
v -3 2 -1.5
v -3 2 -2.5
v -3 3 2.5
v -3 3 0.5
v -3 3 -0.5
v -3 3 -2.5
v -3 6 2.5
v -3 6 1.5
v -3 6 0.5
v -3 6 -0.5
v -3 6 -1.5
v -3 6 -2.5
v -3 7 0.5
v -3 7 -0.5
v -3 8 0.5
v -3 8 -0.5
v -3 10 1.5
v -3 10 -1.5
v -2 0 0.5
v -2 0 -0.5
v -2 1 0.5
v -2 1 -0.5
v -2 6 -1.5
v -2 6 -2.5
v -2 10 -1.5
v -2 10 -2.5
v 1 0 0.5
v 1 0 -0.5
v 1 1 1.5
v 1 1 0.5
v 1 1 -0.5
v 1 1 -1.5
v 1 2 1.5
v 1 2 -1.5
v -1 0 0.5
v -1 0 -0.5
v -1 1 1.5
v -1 1 0.5
v -1 1 -0.5
v -1 1 -1.5
v -1 2 1.5
v -1 2 -1.5
v 2 0 0.5
v 2 0 -0.5
v 2 1 0.5
v 2 1 -0.5
v 2 6 -1.5
v 2 6 -2.5
v 2 10 -1.5
v 2 10 -2.5
v 3 1 1.5
v 3 1 -1.5
v 3 2 2.5
v 3 2 1.5
v 3 2 0.5
v 3 2 -0.5
v 3 2 -1.5
v 3 2 -2.5
v 3 3 2.5
v 3 3 0.5
v 3 3 -0.5
v 3 3 -2.5
v 3 6 2.5
v 3 6 1.5
v 3 6 0.5
v 3 6 -0.5
v 3 6 -1.5
v 3 6 -2.5
v 3 7 0.5
v 3 7 -0.5
v 3 8 0.5
v 3 8 -0.5
v 3 10 1.5
v 3 10 -1.5
v 4 2 0.5
v 4 2 -0.5
v 4 3 0.5
v 4 3 -0.5
v 4 6 0.5
v 4 6 -0.5
v 4 7 0.5
v 4 7 -0.5
v 4 8 0.5
v 4 8 -0.5
v -3 2 2.5
v -3 3 2.5
v -3 6 2.5
v 3 2 2.5
v 3 3 2.5
v 3 6 2.5
v -3 1 1.5
v -3 2 1.5
v -3 6 1.5
v -3 10 1.5
v -2 7 1.5
v -2 8 1.5
v -1 1 1.5
v -1 2 1.5
v -1 7 1.5
v -1 8 1.5
v 1 1 1.5
v 1 2 1.5
v 1 7 1.5
v 1 8 1.5
v 2 7 1.5
v 2 8 1.5
v 3 1 1.5
v 3 2 1.5
v 3 6 1.5
v 3 10 1.5
v -4 2 0.5
v -4 3 0.5
v -4 6 0.5
v -4 7 0.5
v -4 8 0.5
v -3 2 0.5
v -3 3 0.5
v -3 6 0.5
v -3 7 0.5
v -3 8 0.5
v -2 0 0.5
v -2 1 0.5
v -1 0 0.5
v -1 1 0.5
v 1 0 0.5
v 1 1 0.5
v 2 0 0.5
v 2 1 0.5
v 3 2 0.5
v 3 3 0.5
v 3 6 0.5
v 3 7 0.5
v 3 8 0.5
v 4 2 0.5
v 4 3 0.5
v 4 6 0.5
v 4 7 0.5
v 4 8 0.5
v -4 2 -0.5
v -4 3 -0.5
v -4 6 -0.5
v -4 7 -0.5
v -4 8 -0.5
v -3 2 -0.5
v -3 3 -0.5
v -3 6 -0.5
v -3 7 -0.5
v -3 8 -0.5
v -2 0 -0.5
v -2 1 -0.5
v -1 0 -0.5
v -1 1 -0.5
v 1 0 -0.5
v 1 1 -0.5
v 2 0 -0.5
v 2 1 -0.5
v 3 2 -0.5
v 3 3 -0.5
v 3 6 -0.5
v 3 7 -0.5
v 3 8 -0.5
v 4 2 -0.5
v 4 3 -0.5
v 4 6 -0.5
v 4 7 -0.5
v 4 8 -0.5
v -3 1 -1.5
v -3 2 -1.5
v -3 6 -1.5
v -3 10 -1.5
v -2 6 -1.5
v -2 10 -1.5
v -1 1 -1.5
v -1 2 -1.5
v 1 1 -1.5
v 1 2 -1.5
v 2 6 -1.5
v 2 10 -1.5
v 3 1 -1.5
v 3 2 -1.5
v 3 6 -1.5
v 3 10 -1.5
v -3 2 -2.5
v -3 3 -2.5
v -3 6 -2.5
v -2 6 -2.5
v -2 10 -2.5
v 2 6 -2.5
v 2 10 -2.5
v 3 2 -2.5
v 3 3 -2.5
v 3 6 -2.5
v -2 0 0.5
v -1 0 0.5
v 1 0 0.5
v 2 0 0.5
v -2 0 -0.5
v -1 0 -0.5
v 1 0 -0.5
v 2 0 -0.5
v -3 1 1.5
v -1 1 1.5
v 1 1 1.5
v 3 1 1.5
v -2 1 0.5
v -1 1 0.5
v 1 1 0.5
v 2 1 0.5
v -2 1 -0.5
v -1 1 -0.5
v 1 1 -0.5
v 2 1 -0.5
v -3 1 -1.5
v -1 1 -1.5
v 1 1 -1.5
v 3 1 -1.5
v -3 2 2.5
v 3 2 2.5
v -3 2 1.5
v -1 2 1.5
v 1 2 1.5
v 3 2 1.5
v -4 2 0.5
v -3 2 0.5
v 3 2 0.5
v 4 2 0.5
v -4 2 -0.5
v -3 2 -0.5
v 3 2 -0.5
v 4 2 -0.5
v -3 2 -1.5
v -1 2 -1.5
v 1 2 -1.5
v 3 2 -1.5
v -3 2 -2.5
v 3 2 -2.5
v -4 7 0.5
v -3 7 0.5
v 3 7 0.5
v 4 7 0.5
v -4 7 -0.5
v -3 7 -0.5
v 3 7 -0.5
v 4 7 -0.5
v -3 6 2.5
v 3 6 2.5
v -3 6 1.5
v 3 6 1.5
v -4 6 0.5
v -3 6 0.5
v 3 6 0.5
v 4 6 0.5
v -4 6 -0.5
v -3 6 -0.5
v 3 6 -0.5
v 4 6 -0.5
v -3 6 -1.5
v -2 6 -1.5
v 2 6 -1.5
v 3 6 -1.5
v -3 6 -2.5
v -2 6 -2.5
v 2 6 -2.5
v 3 6 -2.5
v -4 8 0.5
v -3 8 0.5
v 3 8 0.5
v 4 8 0.5
v -4 8 -0.5
v -3 8 -0.5
v 3 8 -0.5
v 4 8 -0.5
v -3 10 1.5
v 3 10 1.5
v -3 10 -1.5
v -2 10 -1.5
v 2 10 -1.5
v 3 10 -1.5
v -2 10 -2.5
v 2 10 -2.5

# faces
f 3/1/1 2/1/1 1/1/1
f 4/1/1 2/1/1 3/1/1
f 5/5/1 4/5/1 3/5/1
f 6/5/1 4/5/1 5/5/1
f 9/2/1 8/2/1 7/2/1
f 10/2/1 8/2/1 9/2/1
f 14/3/1 12/3/1 11/3/1
f 15/3/1 12/3/1 14/3/1
f 16/3/1 12/3/1 15/3/1
f 17/3/1 12/3/1 16/3/1
f 19/3/1 14/3/1 13/3/1
f 19/3/1 15/3/1 14/3/1
f 20/3/1 15/3/1 19/3/1
f 21/3/1 18/3/1 17/3/1
f 21/3/1 17/3/1 16/3/1
f 22/3/1 18/3/1 21/3/1
f 23/4/1 20/4/1 19/4/1
f 24/4/1 20/4/1 23/4/1
f 25/4/1 20/4/1 24/4/1
f 26/4/1 22/4/1 21/4/1
f 27/4/1 22/4/1 26/4/1
f 28/4/1 22/4/1 27/4/1
f 29/1/1 25/1/1 24/1/1
f 29/1/1 27/1/1 26/1/1
f 29/1/1 26/1/1 25/1/1
f 30/1/1 27/1/1 29/1/1
f 31/1/1 29/1/1 24/1/1
f 32/1/1 27/1/1 30/1/1
f 33/1/1 31/1/1 24/1/1
f 33/1/1 32/1/1 31/1/1
f 34/1/1 27/1/1 32/1/1
f 34/1/1 32/1/1 33/1/1
f 37/6/1 36/6/1 35/6/1
f 38/6/1 36/6/1 37/6/1
f 41/1/1 40/1/1 39/1/1
f 42/1/1 40/1/1 41/1/1
f 46/6/1 44/6/1 43/6/1
f 47/6/1 44/6/1 46/6/1
f 49/3/1 46/3/1 45/3/1
f 49/3/1 48/3/1 47/3/1
f 49/3/1 47/3/1 46/3/1
f 50/3/1 48/3/1 49/3/1
f 51/6/2 52/6/2 54/6/2
f 54/6/2 52/6/2 55/6/2
f 53/3/2 54/3/2 57/3/2
f 55/3/2 56/3/2 57/3/2
f 54/3/2 55/3/2 57/3/2
f 57/3/2 56/3/2 58/3/2
f 59/6/2 60/6/2 61/6/2
f 61/6/2 60/6/2 62/6/2
f 63/1/2 64/1/2 65/1/2
f 65/1/2 64/1/2 66/1/2
f 67/3/2 68/3/2 70/3/2
f 70/3/2 68/3/2 71/3/2
f 71/3/2 68/3/2 72/3/2
f 72/3/2 68/3/2 73/3/2
f 69/3/2 70/3/2 75/3/2
f 70/3/2 71/3/2 75/3/2
f 75/3/2 71/3/2 76/3/2
f 73/3/2 74/3/2 77/3/2
f 72/3/2 73/3/2 77/3/2
f 77/3/2 74/3/2 78/3/2
f 75/4/2 76/4/2 79/4/2
f 79/4/2 76/4/2 80/4/2
f 80/4/2 76/4/2 81/4/2
f 77/4/2 78/4/2 82/4/2
f 82/4/2 78/4/2 83/4/2
f 83/4/2 78/4/2 84/4/2
f 80/1/2 81/1/2 85/1/2
f 82/1/2 83/1/2 85/1/2
f 81/1/2 82/1/2 85/1/2
f 85/1/2 83/1/2 86/1/2
f 80/1/2 85/1/2 87/1/2
f 86/1/2 83/1/2 88/1/2
f 80/1/2 87/1/2 89/1/2
f 87/1/2 88/1/2 89/1/2
f 88/1/2 83/1/2 90/1/2
f 89/1/2 88/1/2 90/1/2
f 91/1/2 92/1/2 93/1/2
f 93/1/2 92/1/2 94/1/2
f 93/5/2 94/5/2 95/5/2
f 95/5/2 94/5/2 96/5/2
f 97/2/2 98/2/2 99/2/2
f 99/2/2 98/2/2 100/2/2
f 104/3/3 102/3/3 101/3/3
f 105/4/3 103/4/3 102/4/3
f 105/3/3 102/3/3 104/3/3
f 106/4/3 103/4/3 105/4/3
f 111/1/3 110/1/3 109/1/3
f 112/1/3 110/1/3 111/1/3
f 113/3/3 108/3/3 107/3/3
f 114/3/3 108/3/3 113/3/3
f 115/1/3 111/1/3 109/1/3
f 115/7/3 112/7/3 111/7/3
f 116/1/3 110/1/3 112/1/3
f 116/7/3 112/7/3 115/7/3
f 119/1/3 115/1/3 109/1/3
f 119/1/3 116/1/3 115/1/3
f 120/1/3 110/1/3 116/1/3
f 120/1/3 116/1/3 119/1/3
f 121/1/3 119/1/3 109/1/3
f 121/7/3 120/7/3 119/7/3
f 122/1/3 110/1/3 120/1/3
f 122/7/3 120/7/3 121/7/3
f 123/3/3 118/3/3 117/3/3
f 124/3/3 118/3/3 123/3/3
f 125/1/3 121/1/3 109/1/3
f 125/1/3 122/1/3 121/1/3
f 126/1/3 110/1/3 122/1/3
f 126/1/3 122/1/3 125/1/3
f 132/1/3 128/1/3 127/1/3
f 133/5/3 129/5/3 128/5/3
f 133/1/3 128/1/3 132/1/3
f 134/5/3 129/5/3 133/5/3
f 135/2/3 131/2/3 130/2/3
f 136/2/3 131/2/3 135/2/3
f 139/6/3 138/6/3 137/6/3
f 140/6/3 138/6/3 139/6/3
f 143/6/3 142/6/3 141/6/3
f 144/6/3 142/6/3 143/6/3
f 150/1/3 146/1/3 145/1/3
f 151/5/3 147/5/3 146/5/3
f 151/1/3 146/1/3 150/1/3
f 152/5/3 147/5/3 151/5/3
f 153/2/3 149/2/3 148/2/3
f 154/2/3 149/2/3 153/2/3
f 155/1/4 156/1/4 160/1/4
f 156/5/4 157/5/4 161/5/4
f 160/1/4 156/1/4 161/1/4
f 161/5/4 157/5/4 162/5/4
f 158/2/4 159/2/4 163/2/4
f 163/2/4 159/2/4 164/2/4
f 165/6/4 166/6/4 167/6/4
f 167/6/4 166/6/4 168/6/4
f 169/6/4 170/6/4 171/6/4
f 171/6/4 170/6/4 172/6/4
f 173/1/4 174/1/4 178/1/4
f 174/5/4 175/5/4 179/5/4
f 178/1/4 174/1/4 179/1/4
f 179/5/4 175/5/4 180/5/4
f 176/2/4 177/2/4 181/2/4
f 181/2/4 177/2/4 182/2/4
f 185/1/4 186/1/4 187/1/4
f 187/1/4 186/1/4 188/1/4
f 183/3/4 184/3/4 189/3/4
f 189/3/4 184/3/4 190/3/4
f 191/3/4 192/3/4 195/3/4
f 195/3/4 192/3/4 196/3/4
f 193/1/4 194/1/4 197/1/4
f 197/1/4 194/1/4 198/1/4
f 200/4/4 201/4/4 202/4/4
f 200/4/4 202/4/4 204/4/4
f 202/1/4 203/1/4 204/1/4
f 204/1/4 203/1/4 205/1/4
f 199/3/4 200/3/4 206/3/4
f 200/4/4 204/4/4 207/4/4
f 206/3/4 200/3/4 207/3/4
f 207/4/4 204/4/4 208/4/4
f 213/6/5 210/6/5 209/6/5
f 214/6/5 210/6/5 213/6/5
f 215/6/5 212/6/5 211/6/5
f 216/6/5 212/6/5 215/6/5
f 221/3/5 218/3/5 217/3/5
f 222/3/5 218/3/5 221/3/5
f 223/3/5 220/3/5 219/3/5
f 224/3/5 220/3/5 223/3/5
f 225/3/5 221/3/5 217/3/5
f 228/3/5 220/3/5 224/3/5
f 229/3/5 226/3/5 225/3/5
f 229/3/5 225/3/5 217/3/5
f 230/3/5 226/3/5 229/3/5
f 231/3/5 228/3/5 227/3/5
f 232/3/5 220/3/5 228/3/5
f 232/3/5 228/3/5 231/3/5
f 235/3/5 234/3/5 233/3/5
f 236/3/5 234/3/5 235/3/5
f 237/3/5 234/3/5 236/3/5
f 238/3/5 234/3/5 237/3/5
f 243/1/5 240/1/5 239/1/5
f 244/1/5 240/1/5 243/1/5
f 245/1/5 242/1/5 241/1/5
f 246/1/5 242/1/5 245/1/5
f 248/3/5 237/3/5 236/3/5
f 249/3/5 237/3/5 248/3/5
f 251/3/5 248/3/5 247/3/5
f 251/3/5 250/3/5 249/3/5
f 251/3/5 249/3/5 248/3/5
f 252/3/5 250/3/5 251/3/5
f 257/2/5 254/2/5 253/2/5
f 258/2/5 254/2/5 257/2/5
f 259/2/5 256/2/5 255/2/5
f 260/2/5 256/2/5 259/2/5
f 261/4/6 262/4/6 263/4/6
f 263/4/6 262/4/6 264/4/6
f 265/5/6 266/5/6 269/5/6
f 269/5/6 266/5/6 270/5/6
f 267/5/6 268/5/6 271/5/6
f 271/5/6 268/5/6 272/5/6
f 273/4/6 274/4/6 277/4/6
f 277/4/6 274/4/6 278/4/6
f 275/4/6 276/4/6 279/4/6
f 279/4/6 276/4/6 280/4/6
f 281/2/6 282/2/6 285/2/6
f 285/2/6 282/2/6 286/2/6
f 283/2/6 284/2/6 287/2/6
f 287/2/6 284/2/6 288/2/6
f 289/1/6 290/1/6 291/1/6
f 291/1/6 290/1/6 292/1/6
f 292/1/6 290/1/6 293/1/6
f 293/1/6 290/1/6 294/1/6
f 292/1/6 293/1/6 295/1/6
f 295/1/6 293/1/6 296/1/6
