# MagicaVoxel @ Ephtracy

# material
mtllib chr_beau.mtl
usemtl palette

# normals
vn -1 0 0
vn 1 0 0
vn 0 0 1
vn 0 0 -1
vn 0 -1 0
vn 0 1 0

# texcoords
vt 0.0332031 0.5
vt 0.0605469 0.5
vt 0.537109 0.5
vt 0.587891 0.5
vt 0.646484 0.5
vt 0.958984 0.5
vt 0.994141 0.5

# verts
v -4 2 0.5
v -4 2 -0.5
v -4 3 0.5
v -4 3 -0.5
v -4 6 0.5
v -4 6 -0.5
v -4 7 0.5
v -4 7 -0.5
v -4 8 0.5
v -4 8 -0.5
v -4 8 -1.5
v -4 9 0.5
v -4 9 -0.5
v -4 10 0.5
v -4 10 -1.5
v -3 1 1.5
v -3 1 -1.5
v -3 2 2.5
v -3 2 1.5
v -3 2 0.5
v -3 2 -0.5
v -3 2 -1.5
v -3 2 -2.5
v -3 3 2.5
v -3 3 0.5
v -3 3 -0.5
v -3 3 -2.5
v -3 6 2.5
v -3 6 1.5
v -3 6 0.5
v -3 6 -0.5
v -3 6 -1.5
v -3 6 -2.5
v -3 7 1.5
v -3 7 0.5
v -3 7 -0.5
v -3 8 0.5
v -3 8 -0.5
v -3 8 -1.5
v -3 8 -2.5
v -3 9 1.5
v -3 9 0.5
v -3 9 -0.5
v -3 10 1.5
v -3 10 0.5
v -3 10 -1.5
v -3 10 -2.5
v -3 11 0.5
v -3 11 -1.5
v -2 0 0.5
v -2 0 -0.5
v -2 1 0.5
v -2 1 -0.5
v -2 4 3.5
v -2 4 2.5
v -2 6 3.5
v -2 6 2.5
v -2 6 -1.5
v -2 6 -2.5
v -2 7 -2.5
v -2 7 -3.5
v -2 8 -1.5
v -2 8 -2.5
v -2 10 1.5
v -2 10 0.5
v -2 10 -1.5
v -2 10 -2.5
v -2 10 -3.5
v -2 11 1.5
v -2 11 0.5
v -2 11 -1.5
v -2 11 -2.5
v -1 3 3.5
v -1 3 2.5
v -1 4 3.5
v -1 4 2.5
v -1 6 2.5
v -1 6 1.5
v -1 7 2.5
v -1 7 1.5
v 1 0 0.5
v 1 0 -0.5
v 1 1 1.5
v 1 1 0.5
v 1 1 -0.5
v 1 1 -1.5
v 1 2 1.5
v 1 2 -1.5
v -1 0 0.5
v -1 0 -0.5
v -1 1 1.5
v -1 1 0.5
v -1 1 -0.5
v -1 1 -1.5
v -1 2 1.5
v -1 2 -1.5
v 1 3 3.5
v 1 3 2.5
v 1 4 3.5
v 1 4 2.5
v 1 6 2.5
v 1 6 1.5
v 1 7 2.5
v 1 7 1.5
v 2 0 0.5
v 2 0 -0.5
v 2 1 0.5
v 2 1 -0.5
v 2 4 3.5
v 2 4 2.5
v 2 6 3.5
v 2 6 2.5
v 2 6 -1.5
v 2 6 -2.5
v 2 7 -2.5
v 2 7 -3.5
v 2 8 -1.5
v 2 8 -2.5
v 2 10 1.5
v 2 10 0.5
v 2 10 -1.5
v 2 10 -2.5
v 2 10 -3.5
v 2 11 1.5
v 2 11 0.5
v 2 11 -1.5
v 2 11 -2.5
v 3 1 1.5
v 3 1 -1.5
v 3 2 2.5
v 3 2 1.5
v 3 2 0.5
v 3 2 -0.5
v 3 2 -1.5
v 3 2 -2.5
v 3 3 2.5
v 3 3 0.5
v 3 3 -0.5
v 3 3 -2.5
v 3 6 2.5
v 3 6 1.5
v 3 6 0.5
v 3 6 -0.5
v 3 6 -1.5
v 3 6 -2.5
v 3 7 1.5
v 3 7 0.5
v 3 7 -0.5
v 3 8 0.5
v 3 8 -0.5
v 3 8 -1.5
v 3 8 -2.5
v 3 9 1.5
v 3 9 0.5
v 3 9 -0.5
v 3 10 1.5
v 3 10 0.5
v 3 10 -1.5
v 3 10 -2.5
v 3 11 0.5
v 3 11 -1.5
v 4 2 0.5
v 4 2 -0.5
v 4 3 0.5
v 4 3 -0.5
v 4 6 0.5
v 4 6 -0.5
v 4 7 0.5
v 4 7 -0.5
v 4 8 0.5
v 4 8 -0.5
v 4 8 -1.5
v 4 9 0.5
v 4 9 -0.5
v 4 10 0.5
v 4 10 -1.5
v -2 4 3.5
v -2 6 3.5
v -1 3 3.5
v -1 4 3.5
v 1 3 3.5
v 1 4 3.5
v 2 4 3.5
v 2 6 3.5
v -3 2 2.5
v -3 3 2.5
v -3 6 2.5
v -2 4 2.5
v -2 6 2.5
v -1 3 2.5
v -1 4 2.5
v -1 6 2.5
v -1 7 2.5
v 1 3 2.5
v 1 4 2.5
v 1 6 2.5
v 1 7 2.5
v 2 4 2.5
v 2 6 2.5
v 3 2 2.5
v 3 3 2.5
v 3 6 2.5
v -3 1 1.5
v -3 2 1.5
v -3 6 1.5
v -3 7 1.5
v -3 9 1.5
v -3 10 1.5
v -2 7 1.5
v -2 8 1.5
v -2 10 1.5
v -2 11 1.5
v -1 1 1.5
v -1 2 1.5
v -1 6 1.5
v -1 7 1.5
v -1 8 1.5
v 1 1 1.5
v 1 2 1.5
v 1 6 1.5
v 1 7 1.5
v 1 8 1.5
v 2 7 1.5
v 2 8 1.5
v 2 10 1.5
v 2 11 1.5
v 3 1 1.5
v 3 2 1.5
v 3 6 1.5
v 3 7 1.5
v 3 9 1.5
v 3 10 1.5
v -4 2 0.5
v -4 3 0.5
v -4 6 0.5
v -4 7 0.5
v -4 8 0.5
v -4 9 0.5
v -4 10 0.5
v -3 2 0.5
v -3 3 0.5
v -3 6 0.5
v -3 7 0.5
v -3 8 0.5
v -3 9 0.5
v -3 10 0.5
v -3 11 0.5
v -2 0 0.5
v -2 1 0.5
v -2 10 0.5
v -2 11 0.5
v -1 0 0.5
v -1 1 0.5
v 1 0 0.5
v 1 1 0.5
v 2 0 0.5
v 2 1 0.5
v 2 10 0.5
v 2 11 0.5
v 3 2 0.5
v 3 3 0.5
v 3 6 0.5
v 3 7 0.5
v 3 8 0.5
v 3 9 0.5
v 3 10 0.5
v 3 11 0.5
v 4 2 0.5
v 4 3 0.5
v 4 6 0.5
v 4 7 0.5
v 4 8 0.5
v 4 9 0.5
v 4 10 0.5
v -4 8 -0.5
v -4 9 -0.5
v -3 8 -0.5
v -3 9 -0.5
v 3 8 -0.5
v 3 9 -0.5
v 4 8 -0.5
v 4 9 -0.5
v -4 2 -0.5
v -4 3 -0.5
v -4 6 -0.5
v -4 7 -0.5
v -4 8 -0.5
v -3 2 -0.5
v -3 3 -0.5
v -3 6 -0.5
v -3 7 -0.5
v -3 8 -0.5
v -2 0 -0.5
v -2 1 -0.5
v -1 0 -0.5
v -1 1 -0.5
v 1 0 -0.5
v 1 1 -0.5
v 2 0 -0.5
v 2 1 -0.5
v 3 2 -0.5
v 3 3 -0.5
v 3 6 -0.5
v 3 7 -0.5
v 3 8 -0.5
v 4 2 -0.5
v 4 3 -0.5
v 4 6 -0.5
v 4 7 -0.5
v 4 8 -0.5
v -4 8 -1.5
v -4 10 -1.5
v -3 1 -1.5
v -3 2 -1.5
v -3 6 -1.5
v -3 8 -1.5
v -3 10 -1.5
v -3 11 -1.5
v -2 6 -1.5
v -2 8 -1.5
v -2 10 -1.5
v -2 11 -1.5
v -1 1 -1.5
v -1 2 -1.5
v 1 1 -1.5
v 1 2 -1.5
v 2 6 -1.5
v 2 8 -1.5
v 2 10 -1.5
v 2 11 -1.5
v 3 1 -1.5
v 3 2 -1.5
v 3 6 -1.5
v 3 8 -1.5
v 3 10 -1.5
v 3 11 -1.5
v 4 8 -1.5
v 4 10 -1.5
v -3 2 -2.5
v -3 3 -2.5
v -3 6 -2.5
v -3 8 -2.5
v -3 10 -2.5
v -2 6 -2.5
v -2 7 -2.5
v -2 8 -2.5
v -2 10 -2.5
v -2 11 -2.5
v 2 6 -2.5
v 2 7 -2.5
v 2 8 -2.5
v 2 10 -2.5
v 2 11 -2.5
v 3 2 -2.5
v 3 3 -2.5
v 3 6 -2.5
v 3 8 -2.5
v 3 10 -2.5
v -2 7 -3.5
v -2 10 -3.5
v 2 7 -3.5
v 2 10 -3.5
v -2 0 0.5
v -1 0 0.5
v 1 0 0.5
v 2 0 0.5
v -2 0 -0.5
v -1 0 -0.5
v 1 0 -0.5
v 2 0 -0.5
v -3 1 1.5
v -1 1 1.5
v 1 1 1.5
v 3 1 1.5
v -2 1 0.5
v -1 1 0.5
v 1 1 0.5
v 2 1 0.5
v -2 1 -0.5
v -1 1 -0.5
v 1 1 -0.5
v 2 1 -0.5
v -3 1 -1.5
v -1 1 -1.5
v 1 1 -1.5
v 3 1 -1.5
v -3 2 2.5
v 3 2 2.5
v -3 2 1.5
v -1 2 1.5
v 1 2 1.5
v 3 2 1.5
v -4 2 0.5
v -3 2 0.5
v 3 2 0.5
v 4 2 0.5
v -4 2 -0.5
v -3 2 -0.5
v 3 2 -0.5
v 4 2 -0.5
v -3 2 -1.5
v -1 2 -1.5
v 1 2 -1.5
v 3 2 -1.5
v -3 2 -2.5
v 3 2 -2.5
v -1 3 3.5
v 1 3 3.5
v -1 3 2.5
v 1 3 2.5
v -2 4 3.5
v -1 4 3.5
v 1 4 3.5
v 2 4 3.5
v -2 4 2.5
v -1 4 2.5
v 1 4 2.5
v 2 4 2.5
v -4 7 0.5
v -3 7 0.5
v 3 7 0.5
v 4 7 0.5
v -4 7 -0.5
v -3 7 -0.5
v 3 7 -0.5
v 4 7 -0.5
v -2 7 -2.5
v 2 7 -2.5
v -2 7 -3.5
v 2 7 -3.5
v -4 8 -0.5
v -3 8 -0.5
v 3 8 -0.5
v 4 8 -0.5
v -4 8 -1.5
v -3 8 -1.5
v -2 8 -1.5
v 2 8 -1.5
v 3 8 -1.5
v 4 8 -1.5
v -3 8 -2.5
v -2 8 -2.5
v 2 8 -2.5
v 3 8 -2.5
v -4 9 0.5
v -3 9 0.5
v 3 9 0.5
v 4 9 0.5
v -4 9 -0.5
v -3 9 -0.5
v 3 9 -0.5
v 4 9 -0.5
v -2 6 3.5
v 2 6 3.5
v -3 6 2.5
v -2 6 2.5
v -1 6 2.5
v 1 6 2.5
v 2 6 2.5
v 3 6 2.5
v -3 6 1.5
v -1 6 1.5
v 1 6 1.5
v 3 6 1.5
v -4 6 0.5
v -3 6 0.5
v 3 6 0.5
v 4 6 0.5
v -4 6 -0.5
v -3 6 -0.5
v 3 6 -0.5
v 4 6 -0.5
v -3 6 -1.5
v -2 6 -1.5
v 2 6 -1.5
v 3 6 -1.5
v -3 6 -2.5
v -2 6 -2.5
v 2 6 -2.5
v 3 6 -2.5
v -1 7 2.5
v 1 7 2.5
v -1 7 1.5
v 1 7 1.5
v -4 8 0.5
v -3 8 0.5
v 3 8 0.5
v 4 8 0.5
v -4 8 -0.5
v -3 8 -0.5
v 3 8 -0.5
v 4 8 -0.5
v -3 10 1.5
v -2 10 1.5
v 2 10 1.5
v 3 10 1.5
v -4 10 0.5
v -3 10 0.5
v -2 10 0.5
v 2 10 0.5
v 3 10 0.5
v 4 10 0.5
v -4 10 -1.5
v -3 10 -1.5
v -2 10 -1.5
v 2 10 -1.5
v 3 10 -1.5
v 4 10 -1.5
v -3 10 -2.5
v -2 10 -2.5
v 2 10 -2.5
v 3 10 -2.5
v -2 10 -3.5
v 2 10 -3.5
v -2 11 1.5
v 2 11 1.5
v -3 11 0.5
v -2 11 0.5
v 2 11 0.5
v 3 11 0.5
v -3 11 -1.5
v -2 11 -1.5
v 2 11 -1.5
v 3 11 -1.5
v -2 11 -2.5
v 2 11 -2.5

# faces
f 3/1/1 2/1/1 1/1/1
f 4/1/1 2/1/1 3/1/1
f 5/4/1 4/4/1 3/4/1
f 6/4/1 4/4/1 5/4/1
f 9/2/1 8/2/1 7/2/1
f 10/2/1 8/2/1 9/2/1
f 13/3/1 11/3/1 10/3/1
f 14/3/1 13/3/1 12/3/1
f 15/3/1 11/3/1 13/3/1
f 15/3/1 13/3/1 14/3/1
f 19/5/1 17/5/1 16/5/1
f 20/5/1 17/5/1 19/5/1
f 21/5/1 17/5/1 20/5/1
f 22/5/1 17/5/1 21/5/1
f 24/5/1 19/5/1 18/5/1
f 24/5/1 20/5/1 19/5/1
f 25/5/1 20/5/1 24/5/1
f 26/5/1 23/5/1 22/5/1
f 26/5/1 22/5/1 21/5/1
f 27/5/1 23/5/1 26/5/1
f 28/4/1 25/4/1 24/4/1
f 29/4/1 25/4/1 28/4/1
f 30/4/1 25/4/1 29/4/1
f 31/4/1 27/4/1 26/4/1
f 32/4/1 27/4/1 31/4/1
f 33/4/1 27/4/1 32/4/1
f 34/1/1 30/1/1 29/1/1
f 34/1/1 32/1/1 31/1/1
f 34/1/1 31/1/1 30/1/1
f 35/1/1 32/1/1 34/1/1
f 36/1/1 32/1/1 35/1/1
f 37/6/1 35/6/1 34/6/1
f 38/1/1 32/1/1 36/1/1
f 39/1/1 32/1/1 38/1/1
f 41/6/1 37/6/1 34/6/1
f 41/6/1 38/6/1 37/6/1
f 42/6/1 38/6/1 41/6/1
f 43/6/1 38/6/1 42/6/1
f 44/1/1 42/1/1 41/1/1
f 45/1/1 42/1/1 44/1/1
f 46/3/1 40/3/1 39/3/1
f 47/3/1 40/3/1 46/3/1
f 48/3/1 46/3/1 45/3/1
f 49/3/1 46/3/1 48/3/1
f 52/1/1 51/1/1 50/1/1
f 53/1/1 51/1/1 52/1/1
f 56/3/1 55/3/1 54/3/1
f 57/3/1 55/3/1 56/3/1
f 60/1/1 59/1/1 58/1/1
f 62/1/1 60/1/1 58/1/1
f 63/3/1 61/3/1 60/3/1
f 63/1/1 60/1/1 62/1/1
f 67/3/1 61/3/1 63/3/1
f 68/3/1 61/3/1 67/3/1
f 69/3/1 65/3/1 64/3/1
f 70/3/1 65/3/1 69/3/1
f 71/3/1 67/3/1 66/3/1
f 72/3/1 67/3/1 71/3/1
f 75/3/1 74/3/1 73/3/1
f 76/3/1 74/3/1 75/3/1
f 79/3/1 78/3/1 77/3/1
f 80/3/1 78/3/1 79/3/1
f 84/1/1 82/1/1 81/1/1
f 85/1/1 82/1/1 84/1/1
f 87/5/1 84/5/1 83/5/1
f 87/5/1 86/5/1 85/5/1
f 87/5/1 85/5/1 84/5/1
f 88/5/1 86/5/1 87/5/1
f 89/1/2 90/1/2 92/1/2
f 92/1/2 90/1/2 93/1/2
f 91/5/2 92/5/2 95/5/2
f 93/5/2 94/5/2 95/5/2
f 92/5/2 93/5/2 95/5/2
f 95/5/2 94/5/2 96/5/2
f 97/3/2 98/3/2 99/3/2
f 99/3/2 98/3/2 100/3/2
f 101/3/2 102/3/2 103/3/2
f 103/3/2 102/3/2 104/3/2
f 105/1/2 106/1/2 107/1/2
f 107/1/2 106/1/2 108/1/2
f 109/3/2 110/3/2 111/3/2
f 111/3/2 110/3/2 112/3/2
f 113/1/2 114/1/2 115/1/2
f 113/1/2 115/1/2 117/1/2
f 115/3/2 116/3/2 118/3/2
f 117/1/2 115/1/2 118/1/2
f 118/3/2 116/3/2 122/3/2
f 122/3/2 116/3/2 123/3/2
f 119/3/2 120/3/2 124/3/2
f 124/3/2 120/3/2 125/3/2
f 121/3/2 122/3/2 126/3/2
f 126/3/2 122/3/2 127/3/2
f 128/5/2 129/5/2 131/5/2
f 131/5/2 129/5/2 132/5/2
f 132/5/2 129/5/2 133/5/2
f 133/5/2 129/5/2 134/5/2
f 130/5/2 131/5/2 136/5/2
f 131/5/2 132/5/2 136/5/2
f 136/5/2 132/5/2 137/5/2
f 134/5/2 135/5/2 138/5/2
f 133/5/2 134/5/2 138/5/2
f 138/5/2 135/5/2 139/5/2
f 136/4/2 137/4/2 140/4/2
f 140/4/2 137/4/2 141/4/2
f 141/4/2 137/4/2 142/4/2
f 138/4/2 139/4/2 143/4/2
f 143/4/2 139/4/2 144/4/2
f 144/4/2 139/4/2 145/4/2
f 141/1/2 142/1/2 146/1/2
f 143/1/2 144/1/2 146/1/2
f 142/1/2 143/1/2 146/1/2
f 146/1/2 144/1/2 147/1/2
f 147/1/2 144/1/2 148/1/2
f 146/6/2 147/6/2 149/6/2
f 148/1/2 144/1/2 150/1/2
f 150/1/2 144/1/2 151/1/2
f 146/6/2 149/6/2 153/6/2
f 149/6/2 150/6/2 153/6/2
f 153/6/2 150/6/2 154/6/2
f 154/6/2 150/6/2 155/6/2
f 153/1/2 154/1/2 156/1/2
f 156/1/2 154/1/2 157/1/2
f 151/3/2 152/3/2 158/3/2
f 158/3/2 152/3/2 159/3/2
f 157/3/2 158/3/2 160/3/2
f 160/3/2 158/3/2 161/3/2
f 162/1/2 163/1/2 164/1/2
f 164/1/2 163/1/2 165/1/2
f 164/4/2 165/4/2 166/4/2
f 166/4/2 165/4/2 167/4/2
f 168/2/2 169/2/2 170/2/2
f 170/2/2 169/2/2 171/2/2
f 171/3/2 172/3/2 174/3/2
f 173/3/2 174/3/2 175/3/2
f 174/3/2 172/3/2 176/3/2
f 175/3/2 174/3/2 176/3/2
f 180/3/3 178/3/3 177/3/3
f 181/3/3 180/3/3 179/3/3
f 182/3/3 178/3/3 180/3/3
f 182/3/3 180/3/3 181/3/3
f 183/3/3 178/3/3 182/3/3
f 184/3/3 178/3/3 183/3/3
f 188/4/3 187/4/3 186/4/3
f 189/4/3 187/4/3 188/4/3
f 190/5/3 186/5/3 185/5/3
f 190/4/3 188/4/3 186/4/3
f 191/4/3 188/4/3 190/4/3
f 194/5/3 190/5/3 185/5/3
f 196/3/3 193/3/3 192/3/3
f 197/3/3 193/3/3 196/3/3
f 198/4/3 195/4/3 194/4/3
f 200/5/3 194/5/3 185/5/3
f 201/4/3 199/4/3 198/4/3
f 201/5/3 194/5/3 200/5/3
f 201/4/3 198/4/3 194/4/3
f 202/4/3 199/4/3 201/4/3
f 209/1/3 206/1/3 205/1/3
f 209/6/3 207/6/3 206/6/3
f 210/6/3 207/6/3 209/6/3
f 211/1/3 208/1/3 207/1/3
f 213/5/3 204/5/3 203/5/3
f 214/5/3 204/5/3 213/5/3
f 215/1/3 209/1/3 205/1/3
f 216/7/3 210/7/3 209/7/3
f 216/1/3 209/1/3 215/1/3
f 217/6/3 207/6/3 210/6/3
f 217/7/3 210/7/3 216/7/3
f 221/6/3 217/6/3 216/6/3
f 222/6/3 207/6/3 217/6/3
f 222/6/3 217/6/3 221/6/3
f 223/1/3 221/1/3 220/1/3
f 223/7/3 222/7/3 221/7/3
f 224/6/3 207/6/3 222/6/3
f 224/7/3 222/7/3 223/7/3
f 225/3/3 212/3/3 211/3/3
f 225/1/3 211/1/3 207/1/3
f 226/3/3 212/3/3 225/3/3
f 227/5/3 219/5/3 218/5/3
f 228/5/3 219/5/3 227/5/3
f 229/1/3 223/1/3 220/1/3
f 230/6/3 224/6/3 223/6/3
f 230/1/3 223/1/3 229/1/3
f 231/6/3 207/6/3 224/6/3
f 231/6/3 224/6/3 230/6/3
f 231/1/3 225/1/3 207/1/3
f 232/1/3 225/1/3 231/1/3
f 240/1/3 234/1/3 233/1/3
f 241/4/3 235/4/3 234/4/3
f 241/1/3 234/1/3 240/1/3
f 242/4/3 235/4/3 241/4/3
f 243/2/3 237/2/3 236/2/3
f 244/2/3 237/2/3 243/2/3
f 245/3/3 239/3/3 238/3/3
f 246/3/3 239/3/3 245/3/3
f 250/3/3 247/3/3 246/3/3
f 251/3/3 247/3/3 250/3/3
f 252/1/3 249/1/3 248/1/3
f 253/1/3 249/1/3 252/1/3
f 256/1/3 255/1/3 254/1/3
f 257/1/3 255/1/3 256/1/3
f 266/3/3 259/3/3 258/3/3
f 267/3/3 259/3/3 266/3/3
f 268/1/3 261/1/3 260/1/3
f 269/4/3 262/4/3 261/4/3
f 269/1/3 261/1/3 268/1/3
f 270/4/3 262/4/3 269/4/3
f 271/2/3 264/2/3 263/2/3
f 272/2/3 264/2/3 271/2/3
f 273/3/3 266/3/3 265/3/3
f 274/3/3 266/3/3 273/3/3
f 277/3/3 276/3/3 275/3/3
f 278/3/3 276/3/3 277/3/3
f 281/3/3 280/3/3 279/3/3
f 282/3/3 280/3/3 281/3/3
f 283/1/4 284/1/4 288/1/4
f 284/4/4 285/4/4 289/4/4
f 288/1/4 284/1/4 289/1/4
f 289/4/4 285/4/4 290/4/4
f 286/2/4 287/2/4 291/2/4
f 291/2/4 287/2/4 292/2/4
f 293/1/4 294/1/4 295/1/4
f 295/1/4 294/1/4 296/1/4
f 297/1/4 298/1/4 299/1/4
f 299/1/4 298/1/4 300/1/4
f 301/1/4 302/1/4 306/1/4
f 302/4/4 303/4/4 307/4/4
f 306/1/4 302/1/4 307/1/4
f 307/4/4 303/4/4 308/4/4
f 304/2/4 305/2/4 309/2/4
f 309/2/4 305/2/4 310/2/4
f 311/3/4 312/3/4 316/3/4
f 316/3/4 312/3/4 317/3/4
f 315/1/4 316/1/4 319/1/4
f 319/1/4 316/1/4 320/1/4
f 317/3/4 318/3/4 321/3/4
f 321/3/4 318/3/4 322/3/4
f 313/5/4 314/5/4 323/5/4
f 323/5/4 314/5/4 324/5/4
f 325/5/4 326/5/4 331/5/4
f 331/5/4 326/5/4 332/5/4
f 327/1/4 328/1/4 333/1/4
f 333/1/4 328/1/4 334/1/4
f 329/3/4 330/3/4 335/3/4
f 335/3/4 330/3/4 336/3/4
f 334/3/4 335/3/4 337/3/4
f 337/3/4 335/3/4 338/3/4
f 340/4/4 341/4/4 344/4/4
f 342/3/4 343/3/4 346/3/4
f 346/3/4 343/3/4 347/3/4
f 344/1/4 345/1/4 349/1/4
f 340/4/4 344/4/4 349/4/4
f 349/1/4 345/1/4 350/1/4
f 347/3/4 348/3/4 352/3/4
f 352/3/4 348/3/4 353/3/4
f 339/5/4 340/5/4 354/5/4
f 340/4/4 349/4/4 355/4/4
f 354/5/4 340/5/4 355/5/4
f 355/4/4 349/4/4 356/4/4
f 351/3/4 352/3/4 357/3/4
f 357/3/4 352/3/4 358/3/4
f 359/3/4 360/3/4 361/3/4
f 361/3/4 360/3/4 362/3/4
f 367/1/5 364/1/5 363/1/5
f 368/1/5 364/1/5 367/1/5
f 369/1/5 366/1/5 365/1/5
f 370/1/5 366/1/5 369/1/5
f 375/5/5 372/5/5 371/5/5
f 376/5/5 372/5/5 375/5/5
f 377/5/5 374/5/5 373/5/5
f 378/5/5 374/5/5 377/5/5
f 379/5/5 375/5/5 371/5/5
f 382/5/5 374/5/5 378/5/5
f 383/5/5 380/5/5 379/5/5
f 383/5/5 379/5/5 371/5/5
f 384/5/5 380/5/5 383/5/5
f 385/5/5 382/5/5 381/5/5
f 386/5/5 374/5/5 382/5/5
f 386/5/5 382/5/5 385/5/5
f 389/5/5 388/5/5 387/5/5
f 390/5/5 388/5/5 389/5/5
f 391/5/5 388/5/5 390/5/5
f 392/5/5 388/5/5 391/5/5
f 397/1/5 394/1/5 393/1/5
f 398/1/5 394/1/5 397/1/5
f 399/1/5 396/1/5 395/1/5
f 400/1/5 396/1/5 399/1/5
f 402/5/5 391/5/5 390/5/5
f 403/5/5 391/5/5 402/5/5
f 405/5/5 402/5/5 401/5/5
f 405/5/5 404/5/5 403/5/5
f 405/5/5 403/5/5 402/5/5
f 406/5/5 404/5/5 405/5/5
f 409/3/5 408/3/5 407/3/5
f 410/3/5 408/3/5 409/3/5
f 415/3/5 412/3/5 411/3/5
f 416/3/5 412/3/5 415/3/5
f 417/3/5 414/3/5 413/3/5
f 418/3/5 414/3/5 417/3/5
f 423/2/5 420/2/5 419/2/5
f 424/2/5 420/2/5 423/2/5
f 425/2/5 422/2/5 421/2/5
f 426/2/5 422/2/5 425/2/5
f 429/3/5 428/3/5 427/3/5
f 430/3/5 428/3/5 429/3/5
f 435/3/5 432/3/5 431/3/5
f 436/3/5 432/3/5 435/3/5
f 439/3/5 434/3/5 433/3/5
f 440/3/5 434/3/5 439/3/5
f 441/3/5 437/3/5 436/3/5
f 442/3/5 437/3/5 441/3/5
f 443/3/5 439/3/5 438/3/5
f 444/3/5 439/3/5 443/3/5
f 449/3/5 446/3/5 445/3/5
f 450/3/5 446/3/5 449/3/5
f 451/3/5 448/3/5 447/3/5
f 452/3/5 448/3/5 451/3/5
f 453/3/6 454/3/6 456/3/6
f 456/3/6 454/3/6 457/3/6
f 457/3/6 454/3/6 458/3/6
f 458/3/6 454/3/6 459/3/6
f 455/4/6 456/4/6 461/4/6
f 456/4/6 457/4/6 461/4/6
f 461/4/6 457/4/6 462/4/6
f 459/4/6 460/4/6 463/4/6
f 458/4/6 459/4/6 463/4/6
f 463/4/6 460/4/6 464/4/6
f 465/4/6 466/4/6 469/4/6
f 469/4/6 466/4/6 470/4/6
f 467/4/6 468/4/6 471/4/6
f 471/4/6 468/4/6 472/4/6
f 473/4/6 474/4/6 477/4/6
f 477/4/6 474/4/6 478/4/6
f 475/4/6 476/4/6 479/4/6
f 479/4/6 476/4/6 480/4/6
f 481/3/6 482/3/6 483/3/6
f 483/3/6 482/3/6 484/3/6
f 485/2/6 486/2/6 489/2/6
f 489/2/6 486/2/6 490/2/6
f 487/2/6 488/2/6 491/2/6
f 491/2/6 488/2/6 492/2/6
f 493/1/6 494/1/6 498/1/6
f 498/1/6 494/1/6 499/1/6
f 495/1/6 496/1/6 500/1/6
f 500/1/6 496/1/6 501/1/6
f 497/3/6 498/3/6 503/3/6
f 503/3/6 498/3/6 504/3/6
f 501/3/6 502/3/6 507/3/6
f 507/3/6 502/3/6 508/3/6
f 504/3/6 505/3/6 509/3/6
f 509/3/6 505/3/6 510/3/6
f 506/3/6 507/3/6 511/3/6
f 511/3/6 507/3/6 512/3/6
f 510/3/6 511/3/6 513/3/6
f 513/3/6 511/3/6 514/3/6
f 515/3/6 516/3/6 518/3/6
f 518/3/6 516/3/6 519/3/6
f 517/3/6 518/3/6 521/3/6
f 519/3/6 520/3/6 521/3/6
f 518/3/6 519/3/6 521/3/6
f 521/3/6 520/3/6 522/3/6
f 522/3/6 520/3/6 523/3/6
f 523/3/6 520/3/6 524/3/6
f 522/3/6 523/3/6 525/3/6
f 525/3/6 523/3/6 526/3/6
