# MagicaVoxel @ Ephtracy

# material
mtllib chr_beardo2.mtl
usemtl palette

# normals
vn -1 0 0
vn 1 0 0
vn 0 0 1
vn 0 0 -1
vn 0 -1 0
vn 0 1 0

# texcoords
vt 0.0605469 0.5
vt 0.341797 0.5
vt 0.537109 0.5
vt 0.587891 0.5
vt 0.958984 0.5
vt 0.962891 0.5
vt 0.990234 0.5

# verts
v -4 2 0.5
v -4 2 -0.5
v -4 3 0.5
v -4 3 -0.5
v -4 6 0.5
v -4 6 -0.5
v -4 7 1.5
v -4 7 0.5
v -4 7 -0.5
v -4 7 -1.5
v -4 8 0.5
v -4 8 -0.5
v -4 10 1.5
v -4 10 -1.5
v -4 11 1.5
v -4 11 -1.5
v -3 1 1.5
v -3 1 -1.5
v -3 2 2.5
v -3 2 1.5
v -3 2 0.5
v -3 2 -0.5
v -3 2 -1.5
v -3 2 -2.5
v -3 3 2.5
v -3 3 0.5
v -3 3 -0.5
v -3 3 -2.5
v -3 6 2.5
v -3 6 1.5
v -3 6 0.5
v -3 6 -0.5
v -3 6 -1.5
v -3 6 -2.5
v -3 7 2.5
v -3 7 1.5
v -3 7 0.5
v -3 7 -0.5
v -3 7 -1.5
v -3 7 -2.5
v -3 10 4.5
v -3 10 1.5
v -3 10 -1.5
v -3 10 -2.5
v -3 11 4.5
v -3 11 1.5
v -3 11 -1.5
v -3 11 -2.5
v -3 12 1.5
v -3 12 -1.5
v -2 0 0.5
v -2 0 -0.5
v -2 1 0.5
v -2 1 -0.5
v -2 5 3.5
v -2 5 2.5
v -2 6 3.5
v -2 6 2.5
v -2 6 -1.5
v -2 6 -2.5
v -2 7 -1.5
v -2 7 -2.5
v -2 7 -3.5
v -2 10 -2.5
v -2 10 -3.5
v -2 11 -1.5
v -2 11 -2.5
v -2 11 -3.5
v -2 12 -1.5
v -2 12 -2.5
v -1 4 3.5
v -1 4 2.5
v -1 5 3.5
v -1 5 2.5
v 1 0 0.5
v 1 0 -0.5
v 1 1 1.5
v 1 1 0.5
v 1 1 -0.5
v 1 1 -1.5
v 1 2 1.5
v 1 2 -1.5
v -1 0 0.5
v -1 0 -0.5
v -1 1 1.5
v -1 1 0.5
v -1 1 -0.5
v -1 1 -1.5
v -1 2 1.5
v -1 2 -1.5
v 1 4 3.5
v 1 4 2.5
v 1 5 3.5
v 1 5 2.5
v 2 0 0.5
v 2 0 -0.5
v 2 1 0.5
v 2 1 -0.5
v 2 5 3.5
v 2 5 2.5
v 2 6 3.5
v 2 6 2.5
v 2 6 -1.5
v 2 6 -2.5
v 2 7 -1.5
v 2 7 -2.5
v 2 7 -3.5
v 2 10 -2.5
v 2 10 -3.5
v 2 11 -1.5
v 2 11 -2.5
v 2 11 -3.5
v 2 12 -1.5
v 2 12 -2.5
v 3 1 1.5
v 3 1 -1.5
v 3 2 2.5
v 3 2 1.5
v 3 2 0.5
v 3 2 -0.5
v 3 2 -1.5
v 3 2 -2.5
v 3 3 2.5
v 3 3 0.5
v 3 3 -0.5
v 3 3 -2.5
v 3 6 2.5
v 3 6 1.5
v 3 6 0.5
v 3 6 -0.5
v 3 6 -1.5
v 3 6 -2.5
v 3 7 2.5
v 3 7 1.5
v 3 7 0.5
v 3 7 -0.5
v 3 7 -1.5
v 3 7 -2.5
v 3 10 4.5
v 3 10 1.5
v 3 10 -1.5
v 3 10 -2.5
v 3 11 4.5
v 3 11 1.5
v 3 11 -1.5
v 3 11 -2.5
v 3 12 1.5
v 3 12 -1.5
v 4 2 0.5
v 4 2 -0.5
v 4 3 0.5
v 4 3 -0.5
v 4 6 0.5
v 4 6 -0.5
v 4 7 1.5
v 4 7 0.5
v 4 7 -0.5
v 4 7 -1.5
v 4 8 0.5
v 4 8 -0.5
v 4 10 1.5
v 4 10 -1.5
v 4 11 1.5
v 4 11 -1.5
v -3 10 4.5
v -3 11 4.5
v 3 10 4.5
v 3 11 4.5
v -2 5 3.5
v -2 6 3.5
v -1 4 3.5
v -1 5 3.5
v 1 4 3.5
v 1 5 3.5
v 2 5 3.5
v 2 6 3.5
v -3 2 2.5
v -3 3 2.5
v -3 6 2.5
v -3 7 2.5
v -2 5 2.5
v -2 6 2.5
v -1 4 2.5
v -1 5 2.5
v 1 4 2.5
v 1 5 2.5
v 2 5 2.5
v 2 6 2.5
v 3 2 2.5
v 3 3 2.5
v 3 6 2.5
v 3 7 2.5
v -4 7 1.5
v -4 10 1.5
v -4 11 1.5
v -3 1 1.5
v -3 2 1.5
v -3 7 1.5
v -3 10 1.5
v -3 11 1.5
v -3 12 1.5
v -2 7 1.5
v -2 8 1.5
v -1 1 1.5
v -1 2 1.5
v -1 7 1.5
v -1 8 1.5
v 1 1 1.5
v 1 2 1.5
v 1 7 1.5
v 1 8 1.5
v 2 7 1.5
v 2 8 1.5
v 3 1 1.5
v 3 2 1.5
v 3 7 1.5
v 3 10 1.5
v 3 11 1.5
v 3 12 1.5
v 4 7 1.5
v 4 10 1.5
v 4 11 1.5
v -4 2 0.5
v -4 3 0.5
v -4 6 0.5
v -3 2 0.5
v -3 3 0.5
v -3 6 0.5
v -2 0 0.5
v -2 1 0.5
v -1 0 0.5
v -1 1 0.5
v 1 0 0.5
v 1 1 0.5
v 2 0 0.5
v 2 1 0.5
v 3 2 0.5
v 3 3 0.5
v 3 6 0.5
v 4 2 0.5
v 4 3 0.5
v 4 6 0.5
v -4 2 -0.5
v -4 3 -0.5
v -4 6 -0.5
v -3 2 -0.5
v -3 3 -0.5
v -3 6 -0.5
v -2 0 -0.5
v -2 1 -0.5
v -1 0 -0.5
v -1 1 -0.5
v 1 0 -0.5
v 1 1 -0.5
v 2 0 -0.5
v 2 1 -0.5
v 3 2 -0.5
v 3 3 -0.5
v 3 6 -0.5
v 4 2 -0.5
v 4 3 -0.5
v 4 6 -0.5
v -4 7 -1.5
v -4 10 -1.5
v -4 11 -1.5
v -3 1 -1.5
v -3 2 -1.5
v -3 6 -1.5
v -3 7 -1.5
v -3 10 -1.5
v -3 11 -1.5
v -3 12 -1.5
v -2 6 -1.5
v -2 7 -1.5
v -2 11 -1.5
v -2 12 -1.5
v -1 1 -1.5
v -1 2 -1.5
v 1 1 -1.5
v 1 2 -1.5
v 2 6 -1.5
v 2 7 -1.5
v 2 11 -1.5
v 2 12 -1.5
v 3 1 -1.5
v 3 2 -1.5
v 3 6 -1.5
v 3 7 -1.5
v 3 10 -1.5
v 3 11 -1.5
v 3 12 -1.5
v 4 7 -1.5
v 4 10 -1.5
v 4 11 -1.5
v -3 2 -2.5
v -3 3 -2.5
v -3 6 -2.5
v -3 7 -2.5
v -3 10 -2.5
v -3 11 -2.5
v -2 6 -2.5
v -2 7 -2.5
v -2 10 -2.5
v -2 11 -2.5
v -2 12 -2.5
v 2 6 -2.5
v 2 7 -2.5
v 2 10 -2.5
v 2 11 -2.5
v 2 12 -2.5
v 3 2 -2.5
v 3 3 -2.5
v 3 6 -2.5
v 3 7 -2.5
v 3 10 -2.5
v 3 11 -2.5
v -2 7 -3.5
v -2 10 -3.5
v -2 11 -3.5
v 2 7 -3.5
v 2 10 -3.5
v 2 11 -3.5
v -2 0 0.5
v -1 0 0.5
v 1 0 0.5
v 2 0 0.5
v -2 0 -0.5
v -1 0 -0.5
v 1 0 -0.5
v 2 0 -0.5
v -3 1 1.5
v -1 1 1.5
v 1 1 1.5
v 3 1 1.5
v -2 1 0.5
v -1 1 0.5
v 1 1 0.5
v 2 1 0.5
v -2 1 -0.5
v -1 1 -0.5
v 1 1 -0.5
v 2 1 -0.5
v -3 1 -1.5
v -1 1 -1.5
v 1 1 -1.5
v 3 1 -1.5
v -3 2 2.5
v 3 2 2.5
v -3 2 1.5
v -1 2 1.5
v 1 2 1.5
v 3 2 1.5
v -4 2 0.5
v -3 2 0.5
v 3 2 0.5
v 4 2 0.5
v -4 2 -0.5
v -3 2 -0.5
v 3 2 -0.5
v 4 2 -0.5
v -3 2 -1.5
v -1 2 -1.5
v 1 2 -1.5
v 3 2 -1.5
v -3 2 -2.5
v 3 2 -2.5
v -1 4 3.5
v 1 4 3.5
v -1 4 2.5
v 1 4 2.5
v -2 5 3.5
v -1 5 3.5
v 1 5 3.5
v 2 5 3.5
v -2 5 2.5
v -1 5 2.5
v 1 5 2.5
v 2 5 2.5
v -4 7 1.5
v -3 7 1.5
v 3 7 1.5
v 4 7 1.5
v -4 7 0.5
v -3 7 0.5
v 3 7 0.5
v 4 7 0.5
v -4 7 -0.5
v -3 7 -0.5
v 3 7 -0.5
v 4 7 -0.5
v -4 7 -1.5
v -3 7 -1.5
v -2 7 -1.5
v 2 7 -1.5
v 3 7 -1.5
v 4 7 -1.5
v -3 7 -2.5
v -2 7 -2.5
v 2 7 -2.5
v 3 7 -2.5
v -2 7 -3.5
v 2 7 -3.5
v -3 10 4.5
v 3 10 4.5
v -3 10 1.5
v 3 10 1.5
v -2 6 3.5
v 2 6 3.5
v -2 6 2.5
v 2 6 2.5
v -4 6 0.5
v -3 6 0.5
v 3 6 0.5
v 4 6 0.5
v -4 6 -0.5
v -3 6 -0.5
v 3 6 -0.5
v 4 6 -0.5
v -3 6 -1.5
v -2 6 -1.5
v 2 6 -1.5
v 3 6 -1.5
v -3 6 -2.5
v -2 6 -2.5
v 2 6 -2.5
v 3 6 -2.5
v -3 7 2.5
v 3 7 2.5
v -3 7 1.5
v -2 7 1.5
v -1 7 1.5
v 1 7 1.5
v 2 7 1.5
v 3 7 1.5
v -3 11 4.5
v 3 11 4.5
v -4 11 1.5
v -3 11 1.5
v 3 11 1.5
v 4 11 1.5
v -4 11 -1.5
v -3 11 -1.5
v -2 11 -1.5
v 2 11 -1.5
v 3 11 -1.5
v 4 11 -1.5
v -3 11 -2.5
v -2 11 -2.5
v 2 11 -2.5
v 3 11 -2.5
v -2 11 -3.5
v 2 11 -3.5
v -3 12 1.5
v 3 12 1.5
v -3 12 -1.5
v -2 12 -1.5
v 2 12 -1.5
v 3 12 -1.5
v -2 12 -2.5
v 2 12 -2.5

# faces
f 3/1/1 2/1/1 1/1/1
f 4/1/1 2/1/1 3/1/1
f 5/5/1 4/5/1 3/5/1
f 6/5/1 4/5/1 5/5/1
f 11/1/1 9/1/1 8/1/1
f 11/3/1 8/3/1 7/3/1
f 12/3/1 10/3/1 9/3/1
f 12/1/1 9/1/1 11/1/1
f 13/3/1 11/3/1 7/3/1
f 13/3/1 12/3/1 11/3/1
f 14/3/1 10/3/1 12/3/1
f 14/3/1 12/3/1 13/3/1
f 15/4/1 14/4/1 13/4/1
f 16/4/1 14/4/1 15/4/1
f 20/2/1 18/2/1 17/2/1
f 21/2/1 18/2/1 20/2/1
f 22/2/1 18/2/1 21/2/1
f 23/2/1 18/2/1 22/2/1
f 25/2/1 20/2/1 19/2/1
f 25/2/1 21/2/1 20/2/1
f 26/2/1 21/2/1 25/2/1
f 27/2/1 24/2/1 23/2/1
f 27/2/1 23/2/1 22/2/1
f 28/2/1 24/2/1 27/2/1
f 29/5/1 26/5/1 25/5/1
f 30/5/1 26/5/1 29/5/1
f 31/5/1 26/5/1 30/5/1
f 32/5/1 28/5/1 27/5/1
f 33/5/1 28/5/1 32/5/1
f 34/5/1 28/5/1 33/5/1
f 35/3/1 30/3/1 29/3/1
f 36/1/1 31/1/1 30/1/1
f 36/3/1 30/3/1 35/3/1
f 36/1/1 32/1/1 31/1/1
f 36/1/1 33/1/1 32/1/1
f 37/1/1 33/1/1 36/1/1
f 38/1/1 33/1/1 37/1/1
f 39/1/1 33/1/1 38/1/1
f 43/3/1 40/3/1 39/3/1
f 44/3/1 40/3/1 43/3/1
f 45/6/1 42/6/1 41/6/1
f 46/6/1 42/6/1 45/6/1
f 47/4/1 44/4/1 43/4/1
f 48/4/1 44/4/1 47/4/1
f 49/4/1 47/4/1 46/4/1
f 50/4/1 47/4/1 49/4/1
f 53/7/1 52/7/1 51/7/1
f 54/7/1 52/7/1 53/7/1
f 57/3/1 56/3/1 55/3/1
f 58/3/1 56/3/1 57/3/1
f 61/1/1 60/1/1 59/1/1
f 62/1/1 60/1/1 61/1/1
f 64/3/1 63/3/1 62/3/1
f 65/3/1 63/3/1 64/3/1
f 67/4/1 65/4/1 64/4/1
f 68/4/1 65/4/1 67/4/1
f 69/4/1 67/4/1 66/4/1
f 70/4/1 67/4/1 69/4/1
f 73/3/1 72/3/1 71/3/1
f 74/3/1 72/3/1 73/3/1
f 78/7/1 76/7/1 75/7/1
f 79/7/1 76/7/1 78/7/1
f 81/2/1 78/2/1 77/2/1
f 81/2/1 80/2/1 79/2/1
f 81/2/1 79/2/1 78/2/1
f 82/2/1 80/2/1 81/2/1
f 83/7/2 84/7/2 86/7/2
f 86/7/2 84/7/2 87/7/2
f 85/2/2 86/2/2 89/2/2
f 87/2/2 88/2/2 89/2/2
f 86/2/2 87/2/2 89/2/2
f 89/2/2 88/2/2 90/2/2
f 91/3/2 92/3/2 93/3/2
f 93/3/2 92/3/2 94/3/2
f 95/7/2 96/7/2 97/7/2
f 97/7/2 96/7/2 98/7/2
f 99/3/2 100/3/2 101/3/2
f 101/3/2 100/3/2 102/3/2
f 103/1/2 104/1/2 105/1/2
f 105/1/2 104/1/2 106/1/2
f 106/3/2 107/3/2 108/3/2
f 108/3/2 107/3/2 109/3/2
f 108/4/2 109/4/2 111/4/2
f 111/4/2 109/4/2 112/4/2
f 110/4/2 111/4/2 113/4/2
f 113/4/2 111/4/2 114/4/2
f 115/2/2 116/2/2 118/2/2
f 118/2/2 116/2/2 119/2/2
f 119/2/2 116/2/2 120/2/2
f 120/2/2 116/2/2 121/2/2
f 117/2/2 118/2/2 123/2/2
f 118/2/2 119/2/2 123/2/2
f 123/2/2 119/2/2 124/2/2
f 121/2/2 122/2/2 125/2/2
f 120/2/2 121/2/2 125/2/2
f 125/2/2 122/2/2 126/2/2
f 123/5/2 124/5/2 127/5/2
f 127/5/2 124/5/2 128/5/2
f 128/5/2 124/5/2 129/5/2
f 125/5/2 126/5/2 130/5/2
f 130/5/2 126/5/2 131/5/2
f 131/5/2 126/5/2 132/5/2
f 127/3/2 128/3/2 133/3/2
f 128/1/2 129/1/2 134/1/2
f 133/3/2 128/3/2 134/3/2
f 129/1/2 130/1/2 134/1/2
f 130/1/2 131/1/2 134/1/2
f 134/1/2 131/1/2 135/1/2
f 135/1/2 131/1/2 136/1/2
f 136/1/2 131/1/2 137/1/2
f 137/3/2 138/3/2 141/3/2
f 141/3/2 138/3/2 142/3/2
f 139/6/2 140/6/2 143/6/2
f 143/6/2 140/6/2 144/6/2
f 141/4/2 142/4/2 145/4/2
f 145/4/2 142/4/2 146/4/2
f 144/4/2 145/4/2 147/4/2
f 147/4/2 145/4/2 148/4/2
f 149/1/2 150/1/2 151/1/2
f 151/1/2 150/1/2 152/1/2
f 151/5/2 152/5/2 153/5/2
f 153/5/2 152/5/2 154/5/2
f 156/1/2 157/1/2 159/1/2
f 155/3/2 156/3/2 159/3/2
f 157/3/2 158/3/2 160/3/2
f 159/1/2 157/1/2 160/1/2
f 155/3/2 159/3/2 161/3/2
f 159/3/2 160/3/2 161/3/2
f 160/3/2 158/3/2 162/3/2
f 161/3/2 160/3/2 162/3/2
f 161/4/2 162/4/2 163/4/2
f 163/4/2 162/4/2 164/4/2
f 167/6/3 166/6/3 165/6/3
f 168/6/3 166/6/3 167/6/3
f 172/3/3 170/3/3 169/3/3
f 173/3/3 172/3/3 171/3/3
f 174/3/3 170/3/3 172/3/3
f 174/3/3 172/3/3 173/3/3
f 175/3/3 170/3/3 174/3/3
f 176/3/3 170/3/3 175/3/3
f 181/5/3 179/5/3 178/5/3
f 182/3/3 180/3/3 179/3/3
f 182/5/3 179/5/3 181/5/3
f 183/5/3 181/5/3 178/5/3
f 184/5/3 181/5/3 183/5/3
f 185/5/3 183/5/3 178/5/3
f 187/5/3 186/5/3 185/5/3
f 188/3/3 180/3/3 182/3/3
f 189/2/3 178/2/3 177/2/3
f 190/5/3 188/5/3 187/5/3
f 190/2/3 178/2/3 189/2/3
f 190/5/3 187/5/3 185/5/3
f 190/5/3 185/5/3 178/5/3
f 191/3/3 180/3/3 188/3/3
f 191/5/3 188/5/3 190/5/3
f 192/3/3 180/3/3 191/3/3
f 198/3/3 194/3/3 193/3/3
f 199/4/3 195/4/3 194/4/3
f 199/3/3 194/3/3 198/3/3
f 200/4/3 195/4/3 199/4/3
f 202/1/3 199/1/3 198/1/3
f 203/1/3 199/1/3 202/1/3
f 204/2/3 197/2/3 196/2/3
f 205/2/3 197/2/3 204/2/3
f 206/7/3 203/7/3 202/7/3
f 207/1/3 199/1/3 203/1/3
f 207/7/3 203/7/3 206/7/3
f 210/1/3 207/1/3 206/1/3
f 211/1/3 199/1/3 207/1/3
f 211/1/3 207/1/3 210/1/3
f 212/7/3 211/7/3 210/7/3
f 213/1/3 199/1/3 211/1/3
f 213/7/3 211/7/3 212/7/3
f 214/2/3 209/2/3 208/2/3
f 215/2/3 209/2/3 214/2/3
f 216/1/3 213/1/3 212/1/3
f 217/1/3 199/1/3 213/1/3
f 217/1/3 213/1/3 216/1/3
f 218/4/3 201/4/3 200/4/3
f 219/4/3 201/4/3 218/4/3
f 220/3/3 217/3/3 216/3/3
f 221/4/3 218/4/3 217/4/3
f 221/3/3 217/3/3 220/3/3
f 222/4/3 218/4/3 221/4/3
f 226/1/3 224/1/3 223/1/3
f 227/5/3 225/5/3 224/5/3
f 227/1/3 224/1/3 226/1/3
f 228/5/3 225/5/3 227/5/3
f 231/7/3 230/7/3 229/7/3
f 232/7/3 230/7/3 231/7/3
f 235/7/3 234/7/3 233/7/3
f 236/7/3 234/7/3 235/7/3
f 240/1/3 238/1/3 237/1/3
f 241/5/3 239/5/3 238/5/3
f 241/1/3 238/1/3 240/1/3
f 242/5/3 239/5/3 241/5/3
f 243/1/4 244/1/4 246/1/4
f 244/5/4 245/5/4 247/5/4
f 246/1/4 244/1/4 247/1/4
f 247/5/4 245/5/4 248/5/4
f 249/7/4 250/7/4 251/7/4
f 251/7/4 250/7/4 252/7/4
f 253/7/4 254/7/4 255/7/4
f 255/7/4 254/7/4 256/7/4
f 257/1/4 258/1/4 260/1/4
f 258/5/4 259/5/4 261/5/4
f 260/1/4 258/1/4 261/1/4
f 261/5/4 259/5/4 262/5/4
f 263/3/4 264/3/4 269/3/4
f 264/4/4 265/4/4 270/4/4
f 269/3/4 264/3/4 270/3/4
f 270/4/4 265/4/4 271/4/4
f 268/1/4 269/1/4 273/1/4
f 273/1/4 269/1/4 274/1/4
f 271/4/4 272/4/4 275/4/4
f 275/4/4 272/4/4 276/4/4
f 266/2/4 267/2/4 277/2/4
f 277/2/4 267/2/4 278/2/4
f 279/2/4 280/2/4 285/2/4
f 285/2/4 280/2/4 286/2/4
f 281/1/4 282/1/4 287/1/4
f 287/1/4 282/1/4 288/1/4
f 283/4/4 284/4/4 290/4/4
f 290/4/4 284/4/4 291/4/4
f 288/3/4 289/3/4 292/3/4
f 289/4/4 290/4/4 293/4/4
f 292/3/4 289/3/4 293/3/4
f 293/4/4 290/4/4 294/4/4
f 296/5/4 297/5/4 301/5/4
f 298/3/4 299/3/4 302/3/4
f 299/4/4 300/4/4 303/4/4
f 302/3/4 299/3/4 303/3/4
f 303/4/4 300/4/4 304/4/4
f 301/1/4 302/1/4 306/1/4
f 296/5/4 301/5/4 306/5/4
f 306/1/4 302/1/4 307/1/4
f 304/4/4 305/4/4 309/4/4
f 309/4/4 305/4/4 310/4/4
f 295/2/4 296/2/4 311/2/4
f 296/5/4 306/5/4 312/5/4
f 311/2/4 296/2/4 312/2/4
f 312/5/4 306/5/4 313/5/4
f 307/3/4 308/3/4 314/3/4
f 308/4/4 309/4/4 315/4/4
f 314/3/4 308/3/4 315/3/4
f 315/4/4 309/4/4 316/4/4
f 317/3/4 318/3/4 320/3/4
f 318/4/4 319/4/4 321/4/4
f 320/3/4 318/3/4 321/3/4
f 321/4/4 319/4/4 322/4/4
f 327/7/5 324/7/5 323/7/5
f 328/7/5 324/7/5 327/7/5
f 329/7/5 326/7/5 325/7/5
f 330/7/5 326/7/5 329/7/5
f 335/2/5 332/2/5 331/2/5
f 336/2/5 332/2/5 335/2/5
f 337/2/5 334/2/5 333/2/5
f 338/2/5 334/2/5 337/2/5
f 339/2/5 335/2/5 331/2/5
f 342/2/5 334/2/5 338/2/5
f 343/2/5 340/2/5 339/2/5
f 343/2/5 339/2/5 331/2/5
f 344/2/5 340/2/5 343/2/5
f 345/2/5 342/2/5 341/2/5
f 346/2/5 334/2/5 342/2/5
f 346/2/5 342/2/5 345/2/5
f 349/2/5 348/2/5 347/2/5
f 350/2/5 348/2/5 349/2/5
f 351/2/5 348/2/5 350/2/5
f 352/2/5 348/2/5 351/2/5
f 357/1/5 354/1/5 353/1/5
f 358/1/5 354/1/5 357/1/5
f 359/1/5 356/1/5 355/1/5
f 360/1/5 356/1/5 359/1/5
f 362/2/5 351/2/5 350/2/5
f 363/2/5 351/2/5 362/2/5
f 365/2/5 362/2/5 361/2/5
f 365/2/5 364/2/5 363/2/5
f 365/2/5 363/2/5 362/2/5
f 366/2/5 364/2/5 365/2/5
f 369/3/5 368/3/5 367/3/5
f 370/3/5 368/3/5 369/3/5
f 375/3/5 372/3/5 371/3/5
f 376/3/5 372/3/5 375/3/5
f 377/3/5 374/3/5 373/3/5
f 378/3/5 374/3/5 377/3/5
f 383/3/5 380/3/5 379/3/5
f 384/3/5 380/3/5 383/3/5
f 385/3/5 382/3/5 381/3/5
f 386/3/5 382/3/5 385/3/5
f 387/1/5 384/1/5 383/1/5
f 388/1/5 384/1/5 387/1/5
f 389/1/5 386/1/5 385/1/5
f 390/1/5 386/1/5 389/1/5
f 391/3/5 388/3/5 387/3/5
f 392/3/5 388/3/5 391/3/5
f 395/3/5 390/3/5 389/3/5
f 396/3/5 390/3/5 395/3/5
f 397/3/5 393/3/5 392/3/5
f 398/3/5 393/3/5 397/3/5
f 399/3/5 395/3/5 394/3/5
f 400/3/5 395/3/5 399/3/5
f 401/3/5 399/3/5 398/3/5
f 402/3/5 399/3/5 401/3/5
f 405/6/5 404/6/5 403/6/5
f 406/6/5 404/6/5 405/6/5
f 407/3/6 408/3/6 409/3/6
f 409/3/6 408/3/6 410/3/6
f 411/5/6 412/5/6 415/5/6
f 415/5/6 412/5/6 416/5/6
f 413/5/6 414/5/6 417/5/6
f 417/5/6 414/5/6 418/5/6
f 419/5/6 420/5/6 423/5/6
f 423/5/6 420/5/6 424/5/6
f 421/5/6 422/5/6 425/5/6
f 425/5/6 422/5/6 426/5/6
f 427/3/6 428/3/6 429/3/6
f 429/3/6 428/3/6 430/3/6
f 430/3/6 428/3/6 431/3/6
f 431/3/6 428/3/6 432/3/6
f 432/3/6 428/3/6 433/3/6
f 433/3/6 428/3/6 434/3/6
f 435/6/6 436/6/6 438/6/6
f 438/6/6 436/6/6 439/6/6
f 437/4/6 438/4/6 441/4/6
f 441/4/6 438/4/6 442/4/6
f 439/4/6 440/4/6 445/4/6
f 445/4/6 440/4/6 446/4/6
f 442/4/6 443/4/6 447/4/6
f 447/4/6 443/4/6 448/4/6
f 444/4/6 445/4/6 449/4/6
f 449/4/6 445/4/6 450/4/6
f 448/4/6 449/4/6 451/4/6
f 451/4/6 449/4/6 452/4/6
f 453/4/6 454/4/6 455/4/6
f 455/4/6 454/4/6 456/4/6
f 456/4/6 454/4/6 457/4/6
f 457/4/6 454/4/6 458/4/6
f 456/4/6 457/4/6 459/4/6
f 459/4/6 457/4/6 460/4/6
