# MagicaVoxel @ Ephtracy

# material
mtllib chr_hazmat2.mtl
usemtl palette

# normals
vn -1 0 0
vn 1 0 0
vn 0 0 1
vn 0 0 -1
vn 0 -1 0
vn 0 1 0

# texcoords
vt 0.0332031 0.5
vt 0.0410156 0.5
vt 0.0683594 0.5
vt 0.0878906 0.5
vt 0.587891 0.5
vt 0.958984 0.5
vt 0.970703 0.5
vt 0.990234 0.5
vt 0.994141 0.5

# verts
v -4 2 1.5
v -4 2 0.5
v -4 3 1.5
v -4 3 0.5
v -4 6 1.5
v -4 6 0.5
v -3 1 2.5
v -3 1 -0.5
v -3 2 3.5
v -3 2 2.5
v -3 2 1.5
v -3 2 0.5
v -3 2 -0.5
v -3 2 -1.5
v -3 3 1.5
v -3 3 0.5
v -3 6 1.5
v -3 6 0.5
v -3 11 3.5
v -3 11 -1.5
v -2 0 1.5
v -2 0 0.5
v -2 1 1.5
v -2 1 0.5
v -1 4 -1.5
v -1 4 -3.5
v -1 9 -1.5
v -1 9 -3.5
v 1 0 1.5
v 1 0 0.5
v 1 1 2.5
v 1 1 1.5
v 1 1 0.5
v 1 1 -0.5
v 1 2 2.5
v 1 2 -0.5
v -1 0 1.5
v -1 0 0.5
v -1 1 2.5
v -1 1 1.5
v -1 1 0.5
v -1 1 -0.5
v -1 2 2.5
v -1 2 1.5
v -1 2 0.5
v -1 2 -0.5
v 1 4 -1.5
v 1 4 -3.5
v 1 9 -1.5
v 1 9 -3.5
v 2 0 1.5
v 2 0 0.5
v 2 1 1.5
v 2 1 0.5
v 3 1 2.5
v 3 1 -0.5
v 3 2 3.5
v 3 2 2.5
v 3 2 1.5
v 3 2 0.5
v 3 2 -0.5
v 3 2 -1.5
v 3 3 1.5
v 3 3 0.5
v 3 6 1.5
v 3 6 0.5
v 3 11 3.5
v 3 11 -1.5
v 4 2 1.5
v 4 2 0.5
v 4 3 1.5
v 4 3 0.5
v 4 6 1.5
v 4 6 0.5
v -3 2 3.5
v -3 11 3.5
v -2 7 3.5
v -2 9 3.5
v 2 7 3.5
v 2 9 3.5
v 3 2 3.5
v 3 11 3.5
v -3 1 2.5
v -3 2 2.5
v -1 1 2.5
v -1 2 2.5
v 1 1 2.5
v 1 2 2.5
v 3 1 2.5
v 3 2 2.5
v -4 2 1.5
v -4 3 1.5
v -4 6 1.5
v -3 2 1.5
v -3 3 1.5
v -3 6 1.5
v -2 0 1.5
v -2 1 1.5
v -1 0 1.5
v -1 1 1.5
v 1 0 1.5
v 1 1 1.5
v 2 0 1.5
v 2 1 1.5
v 3 2 1.5
v 3 3 1.5
v 3 6 1.5
v 4 2 1.5
v 4 3 1.5
v 4 6 1.5
v -4 2 0.5
v -4 3 0.5
v -4 6 0.5
v -3 2 0.5
v -3 3 0.5
v -3 6 0.5
v -2 0 0.5
v -2 1 0.5
v -1 0 0.5
v -1 1 0.5
v 1 0 0.5
v 1 1 0.5
v 2 0 0.5
v 2 1 0.5
v 3 2 0.5
v 3 3 0.5
v 3 6 0.5
v 4 2 0.5
v 4 3 0.5
v 4 6 0.5
v -3 1 -0.5
v -3 2 -0.5
v -1 1 -0.5
v -1 2 -0.5
v 1 1 -0.5
v 1 2 -0.5
v 3 1 -0.5
v 3 2 -0.5
v -3 2 -1.5
v -3 11 -1.5
v -1 4 -1.5
v -1 9 -1.5
v 1 4 -1.5
v 1 9 -1.5
v 3 2 -1.5
v 3 11 -1.5
v -1 4 -3.5
v -1 9 -3.5
v 1 4 -3.5
v 1 9 -3.5
v -2 0 1.5
v -1 0 1.5
v 1 0 1.5
v 2 0 1.5
v -2 0 0.5
v -1 0 0.5
v 1 0 0.5
v 2 0 0.5
v -3 1 2.5
v -1 1 2.5
v 1 1 2.5
v 3 1 2.5
v -2 1 1.5
v -1 1 1.5
v 1 1 1.5
v 2 1 1.5
v -2 1 0.5
v -1 1 0.5
v 1 1 0.5
v 2 1 0.5
v -3 1 -0.5
v -1 1 -0.5
v 1 1 -0.5
v 3 1 -0.5
v -3 2 3.5
v 3 2 3.5
v -3 2 2.5
v -1 2 2.5
v 1 2 2.5
v 3 2 2.5
v -4 2 1.5
v -3 2 1.5
v -1 2 1.5
v 3 2 1.5
v 4 2 1.5
v -4 2 0.5
v -3 2 0.5
v -1 2 0.5
v 3 2 0.5
v 4 2 0.5
v -3 2 -0.5
v -1 2 -0.5
v 1 2 -0.5
v 3 2 -0.5
v -3 2 -1.5
v 3 2 -1.5
v -1 4 -1.5
v 1 4 -1.5
v -1 4 -3.5
v 1 4 -3.5
v -4 6 1.5
v -3 6 1.5
v 3 6 1.5
v 4 6 1.5
v -4 6 0.5
v -3 6 0.5
v 3 6 0.5
v 4 6 0.5
v -1 9 -1.5
v 1 9 -1.5
v -1 9 -3.5
v 1 9 -3.5
v -3 11 3.5
v 3 11 3.5
v -3 11 -1.5
v 3 11 -1.5

# faces
f 3/5/1 2/5/1 1/5/1
f 4/5/1 2/5/1 3/5/1
f 5/4/1 4/4/1 3/4/1
f 6/4/1 4/4/1 5/4/1
f 10/4/1 8/4/1 7/4/1
f 11/4/1 8/4/1 10/4/1
f 12/4/1 8/4/1 11/4/1
f 13/4/1 8/4/1 12/4/1
f 15/4/1 10/4/1 9/4/1
f 15/4/1 11/4/1 10/4/1
f 16/4/1 14/4/1 13/4/1
f 16/4/1 13/4/1 12/4/1
f 17/4/1 15/4/1 9/4/1
f 18/4/1 14/4/1 16/4/1
f 19/4/1 17/4/1 9/4/1
f 19/4/1 18/4/1 17/4/1
f 20/4/1 14/4/1 18/4/1
f 20/4/1 18/4/1 19/4/1
f 23/8/1 22/8/1 21/8/1
f 24/8/1 22/8/1 23/8/1
f 27/3/1 26/3/1 25/3/1
f 28/3/1 26/3/1 27/3/1
f 32/8/1 30/8/1 29/8/1
f 33/8/1 30/8/1 32/8/1
f 35/4/1 32/4/1 31/4/1
f 35/4/1 34/4/1 33/4/1
f 35/4/1 33/4/1 32/4/1
f 36/4/1 34/4/1 35/4/1
f 37/8/2 38/8/2 40/8/2
f 40/8/2 38/8/2 41/8/2
f 39/4/2 40/4/2 43/4/2
f 40/7/2 41/7/2 44/7/2
f 43/4/2 40/4/2 44/4/2
f 41/4/2 42/4/2 45/4/2
f 44/7/2 41/7/2 45/7/2
f 45/4/2 42/4/2 46/4/2
f 47/3/2 48/3/2 49/3/2
f 49/3/2 48/3/2 50/3/2
f 51/8/2 52/8/2 53/8/2
f 53/8/2 52/8/2 54/8/2
f 55/4/2 56/4/2 58/4/2
f 58/4/2 56/4/2 59/4/2
f 59/4/2 56/4/2 60/4/2
f 60/4/2 56/4/2 61/4/2
f 57/4/2 58/4/2 63/4/2
f 58/4/2 59/4/2 63/4/2
f 61/4/2 62/4/2 64/4/2
f 60/4/2 61/4/2 64/4/2
f 57/4/2 63/4/2 65/4/2
f 64/4/2 62/4/2 66/4/2
f 57/4/2 65/4/2 67/4/2
f 65/4/2 66/4/2 67/4/2
f 66/4/2 62/4/2 68/4/2
f 67/4/2 66/4/2 68/4/2
f 69/5/2 70/5/2 71/5/2
f 71/5/2 70/5/2 72/5/2
f 71/4/2 72/4/2 73/4/2
f 73/4/2 72/4/2 74/4/2
f 77/4/3 76/4/3 75/4/3
f 78/4/3 76/4/3 77/4/3
f 79/4/3 77/4/3 75/4/3
f 79/6/3 78/6/3 77/6/3
f 80/4/3 76/4/3 78/4/3
f 80/6/3 78/6/3 79/6/3
f 81/4/3 79/4/3 75/4/3
f 81/4/3 80/4/3 79/4/3
f 82/4/3 76/4/3 80/4/3
f 82/4/3 80/4/3 81/4/3
f 85/4/3 84/4/3 83/4/3
f 86/4/3 84/4/3 85/4/3
f 89/4/3 88/4/3 87/4/3
f 90/4/3 88/4/3 89/4/3
f 94/5/3 92/5/3 91/5/3
f 95/4/3 93/4/3 92/4/3
f 95/5/3 92/5/3 94/5/3
f 96/4/3 93/4/3 95/4/3
f 99/8/3 98/8/3 97/8/3
f 100/8/3 98/8/3 99/8/3
f 103/8/3 102/8/3 101/8/3
f 104/8/3 102/8/3 103/8/3
f 108/5/3 106/5/3 105/5/3
f 109/4/3 107/4/3 106/4/3
f 109/5/3 106/5/3 108/5/3
f 110/4/3 107/4/3 109/4/3
f 111/5/4 112/5/4 114/5/4
f 112/4/4 113/4/4 115/4/4
f 114/5/4 112/5/4 115/5/4
f 115/4/4 113/4/4 116/4/4
f 117/8/4 118/8/4 119/8/4
f 119/8/4 118/8/4 120/8/4
f 121/8/4 122/8/4 123/8/4
f 123/8/4 122/8/4 124/8/4
f 125/5/4 126/5/4 128/5/4
f 126/4/4 127/4/4 129/4/4
f 128/5/4 126/5/4 129/5/4
f 129/4/4 127/4/4 130/4/4
f 131/4/4 132/4/4 133/4/4
f 133/4/4 132/4/4 134/4/4
f 135/4/4 136/4/4 137/4/4
f 137/4/4 136/4/4 138/4/4
f 139/4/4 140/4/4 141/4/4
f 141/4/4 140/4/4 142/4/4
f 139/4/4 141/4/4 143/4/4
f 142/4/4 140/4/4 144/4/4
f 139/4/4 143/4/4 145/4/4
f 143/4/4 144/4/4 145/4/4
f 144/4/4 140/4/4 146/4/4
f 145/4/4 144/4/4 146/4/4
f 147/3/4 148/3/4 149/3/4
f 149/3/4 148/3/4 150/3/4
f 155/8/5 152/8/5 151/8/5
f 156/8/5 152/8/5 155/8/5
f 157/8/5 154/8/5 153/8/5
f 158/8/5 154/8/5 157/8/5
f 163/4/5 160/4/5 159/4/5
f 164/4/5 160/4/5 163/4/5
f 165/4/5 162/4/5 161/4/5
f 166/4/5 162/4/5 165/4/5
f 167/4/5 163/4/5 159/4/5
f 170/4/5 162/4/5 166/4/5
f 171/4/5 168/4/5 167/4/5
f 171/4/5 167/4/5 159/4/5
f 172/4/5 168/4/5 171/4/5
f 173/4/5 170/4/5 169/4/5
f 174/4/5 162/4/5 170/4/5
f 174/4/5 170/4/5 173/4/5
f 177/4/5 176/4/5 175/4/5
f 178/4/5 176/4/5 177/4/5
f 179/4/5 176/4/5 178/4/5
f 180/4/5 176/4/5 179/4/5
f 183/4/5 179/4/5 178/4/5
f 186/5/5 182/5/5 181/5/5
f 187/5/5 182/5/5 186/5/5
f 188/4/5 179/4/5 183/4/5
f 189/5/5 185/5/5 184/5/5
f 190/5/5 185/5/5 189/5/5
f 192/4/5 179/4/5 188/4/5
f 193/4/5 179/4/5 192/4/5
f 195/4/5 192/4/5 191/4/5
f 195/4/5 194/4/5 193/4/5
f 195/4/5 193/4/5 192/4/5
f 196/4/5 194/4/5 195/4/5
f 199/3/5 198/3/5 197/3/5
f 200/3/5 198/3/5 199/3/5
f 201/4/6 202/4/6 205/4/6
f 205/4/6 202/4/6 206/4/6
f 203/4/6 204/4/6 207/4/6
f 207/4/6 204/4/6 208/4/6
f 209/3/6 210/3/6 211/3/6
f 211/3/6 210/3/6 212/3/6
f 213/4/6 214/4/6 215/4/6
f 215/4/6 214/4/6 216/4/6
