# MagicaVoxel @ Ephtracy

# material
mtllib chr_mike.mtl
usemtl palette

# normals
vn -1 0 0
vn 1 0 0
vn 0 0 1
vn 0 0 -1
vn 0 -1 0
vn 0 1 0

# texcoords
vt 0.0332031 0.5
vt 0.0605469 0.5
vt 0.537109 0.5
vt 0.947266 0.5
vt 0.990234 0.5
vt 0.994141 0.5

# verts
v -4 2 1
v -4 2 -0
v -4 5 1
v -4 5 -0
v -4 6 1
v -4 6 -0
v -4 7 1
v -4 7 -0
v -4 7 -1
v -4 8 2
v -4 8 1
v -4 8 -0
v -4 10 2
v -4 10 -1
v -3 1 2
v -3 1 -1
v -3 2 3
v -3 2 2
v -3 2 1
v -3 2 -0
v -3 2 -1
v -3 2 -2
v -3 3 3
v -3 3 1
v -3 3 -0
v -3 3 -2
v -3 5 1
v -3 5 -0
v -3 6 3
v -3 6 2
v -3 6 1
v -3 6 -0
v -3 6 -1
v -3 6 -2
v -3 7 1
v -3 7 -0
v -3 7 -1
v -3 7 -2
v -3 8 2
v -3 8 1
v -3 9 3
v -3 9 2
v -3 10 3
v -3 10 2
v -3 10 -1
v -3 10 -2
v -3 11 2
v -3 11 -1
v -2 0 1
v -2 0 -0
v -2 1 1
v -2 1 -0
v -2 6 -1
v -2 6 -2
v -2 7 -1
v -2 7 -2
v -2 7 -3
v -2 10 -1
v -2 10 -2
v -2 10 -3
v -2 11 -1
v -2 11 -2
v 1 0 1
v 1 0 -0
v 1 1 2
v 1 1 1
v 1 1 -0
v 1 1 -1
v 1 2 2
v 1 2 -1
v 2 9 3
v 2 9 2
v 2 10 3
v 2 10 2
v -1 0 1
v -1 0 -0
v -1 1 2
v -1 1 1
v -1 1 -0
v -1 1 -1
v -1 2 2
v -1 2 -1
v 1 9 3
v 1 9 2
v 1 10 3
v 1 10 2
v 2 0 1
v 2 0 -0
v 2 1 1
v 2 1 -0
v 2 6 -1
v 2 6 -2
v 2 7 -1
v 2 7 -2
v 2 7 -3
v 2 10 -1
v 2 10 -2
v 2 10 -3
v 2 11 -1
v 2 11 -2
v 3 1 2
v 3 1 -1
v 3 2 3
v 3 2 2
v 3 2 1
v 3 2 -0
v 3 2 -1
v 3 2 -2
v 3 3 3
v 3 3 1
v 3 3 -0
v 3 3 -2
v 3 5 1
v 3 5 -0
v 3 6 3
v 3 6 2
v 3 6 1
v 3 6 -0
v 3 6 -1
v 3 6 -2
v 3 7 1
v 3 7 -0
v 3 7 -1
v 3 7 -2
v 3 8 2
v 3 8 1
v 3 9 3
v 3 9 2
v 3 10 3
v 3 10 2
v 3 10 -1
v 3 10 -2
v 3 11 2
v 3 11 -1
v 4 2 1
v 4 2 -0
v 4 5 1
v 4 5 -0
v 4 6 1
v 4 6 -0
v 4 7 1
v 4 7 -0
v 4 7 -1
v 4 8 2
v 4 8 1
v 4 8 -0
v 4 10 2
v 4 10 -1
v -3 2 3
v -3 3 3
v -3 6 3
v -3 9 3
v -3 10 3
v 1 9 3
v 1 10 3
v 2 9 3
v 2 10 3
v 3 2 3
v 3 3 3
v 3 6 3
v 3 9 3
v 3 10 3
v -4 8 2
v -4 10 2
v -3 1 2
v -3 2 2
v -3 6 2
v -3 8 2
v -3 9 2
v -3 10 2
v -3 11 2
v -2 7 2
v -2 8 2
v -1 1 2
v -1 2 2
v -1 7 2
v -1 8 2
v 1 1 2
v 1 2 2
v 1 7 2
v 1 8 2
v 1 9 2
v 1 10 2
v 2 7 2
v 2 8 2
v 2 9 2
v 2 10 2
v 3 1 2
v 3 2 2
v 3 6 2
v 3 8 2
v 3 9 2
v 3 10 2
v 3 11 2
v 4 8 2
v 4 10 2
v -4 2 1
v -4 5 1
v -4 6 1
v -4 7 1
v -4 8 1
v -3 2 1
v -3 3 1
v -3 5 1
v -3 6 1
v -3 7 1
v -3 8 1
v -2 0 1
v -2 1 1
v -1 0 1
v -1 1 1
v 1 0 1
v 1 1 1
v 2 0 1
v 2 1 1
v 3 2 1
v 3 3 1
v 3 5 1
v 3 6 1
v 3 7 1
v 3 8 1
v 4 2 1
v 4 5 1
v 4 6 1
v 4 7 1
v 4 8 1
v -4 2 -0
v -4 5 -0
v -4 6 -0
v -3 2 -0
v -3 3 -0
v -3 5 -0
v -3 6 -0
v -2 0 -0
v -2 1 -0
v -1 0 -0
v -1 1 -0
v 1 0 -0
v 1 1 -0
v 2 0 -0
v 2 1 -0
v 3 2 -0
v 3 3 -0
v 3 5 -0
v 3 6 -0
v 4 2 -0
v 4 5 -0
v 4 6 -0
v -4 7 -1
v -4 10 -1
v -3 1 -1
v -3 2 -1
v -3 6 -1
v -3 7 -1
v -3 10 -1
v -3 11 -1
v -2 6 -1
v -2 7 -1
v -2 10 -1
v -2 11 -1
v -1 1 -1
v -1 2 -1
v 1 1 -1
v 1 2 -1
v 2 6 -1
v 2 7 -1
v 2 10 -1
v 2 11 -1
v 3 1 -1
v 3 2 -1
v 3 6 -1
v 3 7 -1
v 3 10 -1
v 3 11 -1
v 4 7 -1
v 4 10 -1
v -3 2 -2
v -3 3 -2
v -3 6 -2
v -3 7 -2
v -3 10 -2
v -2 6 -2
v -2 7 -2
v -2 10 -2
v -2 11 -2
v 2 6 -2
v 2 7 -2
v 2 10 -2
v 2 11 -2
v 3 2 -2
v 3 3 -2
v 3 6 -2
v 3 7 -2
v 3 10 -2
v -2 7 -3
v -2 10 -3
v 2 7 -3
v 2 10 -3
v -2 0 1
v -1 0 1
v 1 0 1
v 2 0 1
v -2 0 -0
v -1 0 -0
v 1 0 -0
v 2 0 -0
v -3 1 2
v -1 1 2
v 1 1 2
v 3 1 2
v -2 1 1
v -1 1 1
v 1 1 1
v 2 1 1
v -2 1 -0
v -1 1 -0
v 1 1 -0
v 2 1 -0
v -3 1 -1
v -1 1 -1
v 1 1 -1
v 3 1 -1
v -3 2 3
v 3 2 3
v -3 2 2
v -1 2 2
v 1 2 2
v 3 2 2
v -4 2 1
v -3 2 1
v 3 2 1
v 4 2 1
v -4 2 -0
v -3 2 -0
v 3 2 -0
v 4 2 -0
v -3 2 -1
v -1 2 -1
v 1 2 -1
v 3 2 -1
v -3 2 -2
v 3 2 -2
v -4 7 1
v -3 7 1
v 3 7 1
v 4 7 1
v -4 7 -0
v -3 7 -0
v 3 7 -0
v 4 7 -0
v -4 7 -1
v -3 7 -1
v -2 7 -1
v 2 7 -1
v 3 7 -1
v 4 7 -1
v -3 7 -2
v -2 7 -2
v 2 7 -2
v 3 7 -2
v -2 7 -3
v 2 7 -3
v -4 8 2
v -3 8 2
v 3 8 2
v 4 8 2
v -4 8 1
v -3 8 1
v 3 8 1
v 4 8 1
v -3 9 3
v 1 9 3
v 2 9 3
v 3 9 3
v -3 9 2
v 1 9 2
v 2 9 2
v 3 9 2
v -3 6 3
v 3 6 3
v -3 6 2
v 3 6 2
v -4 6 1
v -3 6 1
v 3 6 1
v 4 6 1
v -4 6 -0
v -3 6 -0
v 3 6 -0
v 4 6 -0
v -3 6 -1
v -2 6 -1
v 2 6 -1
v 3 6 -1
v -3 6 -2
v -2 6 -2
v 2 6 -2
v 3 6 -2
v -3 10 3
v 1 10 3
v 2 10 3
v 3 10 3
v -4 10 2
v -3 10 2
v 1 10 2
v 2 10 2
v 3 10 2
v 4 10 2
v -4 10 -1
v -3 10 -1
v -2 10 -1
v 2 10 -1
v 3 10 -1
v 4 10 -1
v -3 10 -2
v -2 10 -2
v 2 10 -2
v 3 10 -2
v -2 10 -3
v 2 10 -3
v -3 11 2
v 3 11 2
v -3 11 -1
v -2 11 -1
v 2 11 -1
v 3 11 -1
v -2 11 -2
v 2 11 -2

# faces
f 3/1/1 2/1/1 1/1/1
f 4/1/1 2/1/1 3/1/1
f 5/5/1 4/5/1 3/5/1
f 6/5/1 4/5/1 5/5/1
f 11/2/1 8/2/1 7/2/1
f 12/3/1 9/3/1 8/3/1
f 12/2/1 8/2/1 11/2/1
f 13/3/1 11/3/1 10/3/1
f 13/3/1 12/3/1 11/3/1
f 14/3/1 9/3/1 12/3/1
f 14/3/1 12/3/1 13/3/1
f 18/4/1 16/4/1 15/4/1
f 19/4/1 16/4/1 18/4/1
f 20/4/1 16/4/1 19/4/1
f 21/4/1 16/4/1 20/4/1
f 23/4/1 18/4/1 17/4/1
f 23/4/1 19/4/1 18/4/1
f 24/4/1 19/4/1 23/4/1
f 25/4/1 22/4/1 21/4/1
f 25/4/1 21/4/1 20/4/1
f 26/4/1 22/4/1 25/4/1
f 27/5/1 24/5/1 23/5/1
f 28/5/1 26/5/1 25/5/1
f 29/5/1 27/5/1 23/5/1
f 30/5/1 27/5/1 29/5/1
f 31/5/1 27/5/1 30/5/1
f 32/5/1 26/5/1 28/5/1
f 33/5/1 26/5/1 32/5/1
f 34/5/1 26/5/1 33/5/1
f 35/1/1 31/1/1 30/1/1
f 35/1/1 33/1/1 32/1/1
f 35/1/1 32/1/1 31/1/1
f 36/1/1 33/1/1 35/1/1
f 37/1/1 33/1/1 36/1/1
f 39/1/1 35/1/1 30/1/1
f 40/1/1 35/1/1 39/1/1
f 43/3/1 42/3/1 41/3/1
f 44/3/1 42/3/1 43/3/1
f 45/3/1 38/3/1 37/3/1
f 46/3/1 38/3/1 45/3/1
f 47/3/1 45/3/1 44/3/1
f 48/3/1 45/3/1 47/3/1
f 51/6/1 50/6/1 49/6/1
f 52/6/1 50/6/1 51/6/1
f 55/1/1 54/1/1 53/1/1
f 56/1/1 54/1/1 55/1/1
f 59/3/1 57/3/1 56/3/1
f 60/3/1 57/3/1 59/3/1
f 61/3/1 59/3/1 58/3/1
f 62/3/1 59/3/1 61/3/1
f 66/6/1 64/6/1 63/6/1
f 67/6/1 64/6/1 66/6/1
f 69/4/1 66/4/1 65/4/1
f 69/4/1 68/4/1 67/4/1
f 69/4/1 67/4/1 66/4/1
f 70/4/1 68/4/1 69/4/1
f 73/3/1 72/3/1 71/3/1
f 74/3/1 72/3/1 73/3/1
f 75/6/2 76/6/2 78/6/2
f 78/6/2 76/6/2 79/6/2
f 77/4/2 78/4/2 81/4/2
f 79/4/2 80/4/2 81/4/2
f 78/4/2 79/4/2 81/4/2
f 81/4/2 80/4/2 82/4/2
f 83/3/2 84/3/2 85/3/2
f 85/3/2 84/3/2 86/3/2
f 87/6/2 88/6/2 89/6/2
f 89/6/2 88/6/2 90/6/2
f 91/1/2 92/1/2 93/1/2
f 93/1/2 92/1/2 94/1/2
f 94/3/2 95/3/2 97/3/2
f 97/3/2 95/3/2 98/3/2
f 96/3/2 97/3/2 99/3/2
f 99/3/2 97/3/2 100/3/2
f 101/4/2 102/4/2 104/4/2
f 104/4/2 102/4/2 105/4/2
f 105/4/2 102/4/2 106/4/2
f 106/4/2 102/4/2 107/4/2
f 103/4/2 104/4/2 109/4/2
f 104/4/2 105/4/2 109/4/2
f 109/4/2 105/4/2 110/4/2
f 107/4/2 108/4/2 111/4/2
f 106/4/2 107/4/2 111/4/2
f 111/4/2 108/4/2 112/4/2
f 109/5/2 110/5/2 113/5/2
f 111/5/2 112/5/2 114/5/2
f 109/5/2 113/5/2 115/5/2
f 115/5/2 113/5/2 116/5/2
f 116/5/2 113/5/2 117/5/2
f 114/5/2 112/5/2 118/5/2
f 118/5/2 112/5/2 119/5/2
f 119/5/2 112/5/2 120/5/2
f 116/1/2 117/1/2 121/1/2
f 118/1/2 119/1/2 121/1/2
f 117/1/2 118/1/2 121/1/2
f 121/1/2 119/1/2 122/1/2
f 122/1/2 119/1/2 123/1/2
f 116/1/2 121/1/2 125/1/2
f 125/1/2 121/1/2 126/1/2
f 127/3/2 128/3/2 129/3/2
f 129/3/2 128/3/2 130/3/2
f 123/3/2 124/3/2 131/3/2
f 131/3/2 124/3/2 132/3/2
f 130/3/2 131/3/2 133/3/2
f 133/3/2 131/3/2 134/3/2
f 135/1/2 136/1/2 137/1/2
f 137/1/2 136/1/2 138/1/2
f 137/5/2 138/5/2 139/5/2
f 139/5/2 138/5/2 140/5/2
f 141/2/2 142/2/2 145/2/2
f 142/3/2 143/3/2 146/3/2
f 145/2/2 142/2/2 146/2/2
f 144/3/2 145/3/2 147/3/2
f 145/3/2 146/3/2 147/3/2
f 146/3/2 143/3/2 148/3/2
f 147/3/2 146/3/2 148/3/2
f 154/3/3 153/3/3 152/3/3
f 155/3/3 153/3/3 154/3/3
f 158/4/3 150/4/3 149/4/3
f 159/5/3 151/5/3 150/5/3
f 159/4/3 150/4/3 158/4/3
f 160/5/3 151/5/3 159/5/3
f 161/3/3 157/3/3 156/3/3
f 162/3/3 157/3/3 161/3/3
f 168/3/3 164/3/3 163/3/3
f 169/3/3 164/3/3 168/3/3
f 170/3/3 164/3/3 169/3/3
f 172/1/3 168/1/3 167/1/3
f 172/1/3 169/1/3 168/1/3
f 173/1/3 169/1/3 172/1/3
f 174/4/3 166/4/3 165/4/3
f 175/4/3 166/4/3 174/4/3
f 176/1/3 172/1/3 167/1/3
f 176/6/3 173/6/3 172/6/3
f 177/1/3 169/1/3 173/1/3
f 177/6/3 173/6/3 176/6/3
f 180/1/3 176/1/3 167/1/3
f 180/1/3 177/1/3 176/1/3
f 181/1/3 169/1/3 177/1/3
f 181/1/3 177/1/3 180/1/3
f 182/1/3 169/1/3 181/1/3
f 183/3/3 171/3/3 170/3/3
f 184/1/3 180/1/3 167/1/3
f 184/6/3 181/6/3 180/6/3
f 185/1/3 182/1/3 181/1/3
f 185/6/3 181/6/3 184/6/3
f 185/1/3 183/1/3 182/1/3
f 186/1/3 183/1/3 185/1/3
f 187/3/3 171/3/3 183/3/3
f 187/1/3 183/1/3 186/1/3
f 188/4/3 179/4/3 178/4/3
f 189/4/3 179/4/3 188/4/3
f 190/1/3 184/1/3 167/1/3
f 190/1/3 186/1/3 185/1/3
f 190/1/3 185/1/3 184/1/3
f 191/1/3 186/1/3 190/1/3
f 192/1/3 186/1/3 191/1/3
f 193/3/3 171/3/3 187/3/3
f 194/3/3 171/3/3 193/3/3
f 195/3/3 192/3/3 191/3/3
f 195/3/3 193/3/3 192/3/3
f 196/3/3 193/3/3 195/3/3
f 202/1/3 198/1/3 197/1/3
f 203/1/3 198/1/3 202/1/3
f 204/5/3 199/5/3 198/5/3
f 204/1/3 198/1/3 203/1/3
f 205/5/3 199/5/3 204/5/3
f 206/2/3 201/2/3 200/2/3
f 207/2/3 201/2/3 206/2/3
f 210/6/3 209/6/3 208/6/3
f 211/6/3 209/6/3 210/6/3
f 214/6/3 213/6/3 212/6/3
f 215/6/3 213/6/3 214/6/3
f 222/1/3 217/1/3 216/1/3
f 222/1/3 218/1/3 217/1/3
f 223/5/3 219/5/3 218/5/3
f 223/1/3 218/1/3 222/1/3
f 224/5/3 219/5/3 223/5/3
f 225/2/3 221/2/3 220/2/3
f 226/2/3 221/2/3 225/2/3
f 227/1/4 228/1/4 230/1/4
f 230/1/4 228/1/4 231/1/4
f 228/5/4 229/5/4 232/5/4
f 231/1/4 228/1/4 232/1/4
f 232/5/4 229/5/4 233/5/4
f 234/6/4 235/6/4 236/6/4
f 236/6/4 235/6/4 237/6/4
f 238/6/4 239/6/4 240/6/4
f 240/6/4 239/6/4 241/6/4
f 242/1/4 243/1/4 246/1/4
f 243/1/4 244/1/4 246/1/4
f 244/5/4 245/5/4 247/5/4
f 246/1/4 244/1/4 247/1/4
f 247/5/4 245/5/4 248/5/4
f 249/3/4 250/3/4 254/3/4
f 254/3/4 250/3/4 255/3/4
f 253/1/4 254/1/4 257/1/4
f 257/1/4 254/1/4 258/1/4
f 255/3/4 256/3/4 259/3/4
f 259/3/4 256/3/4 260/3/4
f 251/4/4 252/4/4 261/4/4
f 261/4/4 252/4/4 262/4/4
f 263/4/4 264/4/4 269/4/4
f 269/4/4 264/4/4 270/4/4
f 265/1/4 266/1/4 271/1/4
f 271/1/4 266/1/4 272/1/4
f 267/3/4 268/3/4 273/3/4
f 273/3/4 268/3/4 274/3/4
f 272/3/4 273/3/4 275/3/4
f 275/3/4 273/3/4 276/3/4
f 278/5/4 279/5/4 282/5/4
f 280/3/4 281/3/4 283/3/4
f 283/3/4 281/3/4 284/3/4
f 278/5/4 282/5/4 286/5/4
f 282/1/4 283/1/4 286/1/4
f 286/1/4 283/1/4 287/1/4
f 284/3/4 285/3/4 288/3/4
f 288/3/4 285/3/4 289/3/4
f 277/4/4 278/4/4 290/4/4
f 278/5/4 286/5/4 291/5/4
f 290/4/4 278/4/4 291/4/4
f 291/5/4 286/5/4 292/5/4
f 287/3/4 288/3/4 293/3/4
f 293/3/4 288/3/4 294/3/4
f 295/3/4 296/3/4 297/3/4
f 297/3/4 296/3/4 298/3/4
f 303/6/5 300/6/5 299/6/5
f 304/6/5 300/6/5 303/6/5
f 305/6/5 302/6/5 301/6/5
f 306/6/5 302/6/5 305/6/5
f 311/4/5 308/4/5 307/4/5
f 312/4/5 308/4/5 311/4/5
f 313/4/5 310/4/5 309/4/5
f 314/4/5 310/4/5 313/4/5
f 315/4/5 311/4/5 307/4/5
f 318/4/5 310/4/5 314/4/5
f 319/4/5 316/4/5 315/4/5
f 319/4/5 315/4/5 307/4/5
f 320/4/5 316/4/5 319/4/5
f 321/4/5 318/4/5 317/4/5
f 322/4/5 310/4/5 318/4/5
f 322/4/5 318/4/5 321/4/5
f 325/4/5 324/4/5 323/4/5
f 326/4/5 324/4/5 325/4/5
f 327/4/5 324/4/5 326/4/5
f 328/4/5 324/4/5 327/4/5
f 333/1/5 330/1/5 329/1/5
f 334/1/5 330/1/5 333/1/5
f 335/1/5 332/1/5 331/1/5
f 336/1/5 332/1/5 335/1/5
f 338/4/5 327/4/5 326/4/5
f 339/4/5 327/4/5 338/4/5
f 341/4/5 338/4/5 337/4/5
f 341/4/5 340/4/5 339/4/5
f 341/4/5 339/4/5 338/4/5
f 342/4/5 340/4/5 341/4/5
f 347/2/5 344/2/5 343/2/5
f 348/2/5 344/2/5 347/2/5
f 349/2/5 346/2/5 345/2/5
f 350/2/5 346/2/5 349/2/5
f 351/3/5 348/3/5 347/3/5
f 352/3/5 348/3/5 351/3/5
f 355/3/5 350/3/5 349/3/5
f 356/3/5 350/3/5 355/3/5
f 357/3/5 353/3/5 352/3/5
f 358/3/5 353/3/5 357/3/5
f 359/3/5 355/3/5 354/3/5
f 360/3/5 355/3/5 359/3/5
f 361/3/5 359/3/5 358/3/5
f 362/3/5 359/3/5 361/3/5
f 367/3/5 364/3/5 363/3/5
f 368/3/5 364/3/5 367/3/5
f 369/3/5 366/3/5 365/3/5
f 370/3/5 366/3/5 369/3/5
f 375/3/5 372/3/5 371/3/5
f 376/3/5 372/3/5 375/3/5
f 377/3/5 374/3/5 373/3/5
f 378/3/5 374/3/5 377/3/5
f 379/5/6 380/5/6 381/5/6
f 381/5/6 380/5/6 382/5/6
f 383/5/6 384/5/6 387/5/6
f 387/5/6 384/5/6 388/5/6
f 385/5/6 386/5/6 389/5/6
f 389/5/6 386/5/6 390/5/6
f 391/5/6 392/5/6 395/5/6
f 395/5/6 392/5/6 396/5/6
f 393/5/6 394/5/6 397/5/6
f 397/5/6 394/5/6 398/5/6
f 399/3/6 400/3/6 404/3/6
f 404/3/6 400/3/6 405/3/6
f 401/3/6 402/3/6 406/3/6
f 406/3/6 402/3/6 407/3/6
f 403/3/6 404/3/6 409/3/6
f 409/3/6 404/3/6 410/3/6
f 407/3/6 408/3/6 413/3/6
f 413/3/6 408/3/6 414/3/6
f 410/3/6 411/3/6 415/3/6
f 415/3/6 411/3/6 416/3/6
f 412/3/6 413/3/6 417/3/6
f 417/3/6 413/3/6 418/3/6
f 416/3/6 417/3/6 419/3/6
f 419/3/6 417/3/6 420/3/6
f 421/3/6 422/3/6 423/3/6
f 423/3/6 422/3/6 424/3/6
f 424/3/6 422/3/6 425/3/6
f 425/3/6 422/3/6 426/3/6
f 424/3/6 425/3/6 427/3/6
f 427/3/6 425/3/6 428/3/6
