# MagicaVoxel @ Ephtracy

# material
mtllib chr_army3.mtl
usemtl palette

# normals
vn -1 0 0
vn 1 0 0
vn 0 0 1
vn 0 0 -1
vn 0 -1 0
vn 0 1 0

# texcoords
vt 0.201172 0.5
vt 0.341797 0.5
vt 0.509766 0.5
vt 0.654297 0.5
vt 0.677734 0.5
vt 0.978516 0.5
vt 0.986328 0.5
vt 0.994141 0.5

# verts
v -4 2 0.5
v -4 2 -0.5
v -4 4 0.5
v -4 4 -0.5
v -4 5 0.5
v -4 5 -0.5
v -4 6 0.5
v -4 6 -0.5
v -4 7 0.5
v -4 7 -0.5
v -4 8 0.5
v -4 8 -0.5
v -3 1 1.5
v -3 1 0.5
v -3 1 -1.5
v -3 2 2.5
v -3 2 1.5
v -3 2 0.5
v -3 2 -0.5
v -3 2 -1.5
v -3 2 -2.5
v -3 3 2.5
v -3 3 1.5
v -3 3 0.5
v -3 3 -0.5
v -3 3 -2.5
v -3 4 2.5
v -3 4 1.5
v -3 4 0.5
v -3 4 -0.5
v -3 4 -1.5
v -3 5 1.5
v -3 5 0.5
v -3 5 -0.5
v -3 5 -1.5
v -3 6 2.5
v -3 6 1.5
v -3 6 0.5
v -3 6 -0.5
v -3 6 -1.5
v -3 6 -2.5
v -3 7 0.5
v -3 7 -0.5
v -3 7 -1.5
v -3 7 -2.5
v -3 8 0.5
v -3 8 -0.5
v -3 9 2.5
v -3 9 1.5
v -3 9 0.5
v -3 9 -1.5
v -3 9 -2.5
v -3 9 -3.5
v -3 10 1.5
v -3 10 0.5
v -3 10 -1.5
v -3 10 -3.5
v -3 11 2.5
v -3 11 1.5
v -3 11 0.5
v -3 11 -0.5
v -3 11 -2.5
v -3 11 -3.5
v -3 12 1.5
v -3 12 0.5
v -3 12 -0.5
v -3 12 -2.5
v -2 0 0.5
v -2 0 -0.5
v -2 1 0.5
v -2 1 -0.5
v -2 6 -1.5
v -2 6 -2.5
v -2 7 -1.5
v -2 7 -2.5
v -2 11 2.5
v -2 11 1.5
v -2 11 -2.5
v -2 11 -3.5
v -2 12 2.5
v -2 12 1.5
v -2 12 -2.5
v -2 12 -3.5
v 1 0 0.5
v 1 0 -0.5
v 1 1 1.5
v 1 1 0.5
v 1 1 -0.5
v 1 1 -1.5
v 1 2 1.5
v 1 2 -1.5
v -1 0 0.5
v -1 0 -0.5
v -1 1 1.5
v -1 1 0.5
v -1 1 -0.5
v -1 1 -1.5
v -1 2 1.5
v -1 2 -0.5
v -1 2 -1.5
v 2 0 0.5
v 2 0 -0.5
v 2 1 0.5
v 2 1 -0.5
v 2 6 -1.5
v 2 6 -2.5
v 2 7 -1.5
v 2 7 -2.5
v 2 11 2.5
v 2 11 1.5
v 2 11 -2.5
v 2 11 -3.5
v 2 12 2.5
v 2 12 1.5
v 2 12 -2.5
v 2 12 -3.5
v 3 1 1.5
v 3 1 0.5
v 3 1 -0.5
v 3 1 -1.5
v 3 2 2.5
v 3 2 1.5
v 3 2 0.5
v 3 2 -0.5
v 3 2 -1.5
v 3 2 -2.5
v 3 3 2.5
v 3 3 0.5
v 3 3 -0.5
v 3 3 -1.5
v 3 3 -2.5
v 3 4 2.5
v 3 4 1.5
v 3 4 0.5
v 3 4 -0.5
v 3 4 -1.5
v 3 4 -2.5
v 3 5 2.5
v 3 5 1.5
v 3 5 0.5
v 3 5 -0.5
v 3 5 -1.5
v 3 5 -2.5
v 3 6 2.5
v 3 6 1.5
v 3 6 0.5
v 3 6 -0.5
v 3 6 -1.5
v 3 6 -2.5
v 3 7 0.5
v 3 7 -0.5
v 3 7 -1.5
v 3 7 -2.5
v 3 8 0.5
v 3 8 -0.5
v 3 9 2.5
v 3 9 1.5
v 3 9 0.5
v 3 9 -1.5
v 3 9 -2.5
v 3 9 -3.5
v 3 10 2.5
v 3 10 1.5
v 3 10 0.5
v 3 10 -0.5
v 3 10 -1.5
v 3 10 -2.5
v 3 10 -3.5
v 3 11 2.5
v 3 11 1.5
v 3 11 0.5
v 3 11 -0.5
v 3 11 -1.5
v 3 11 -2.5
v 3 11 -3.5
v 3 12 1.5
v 3 12 -1.5
v 3 12 -2.5
v 4 2 0.5
v 4 2 -0.5
v 4 4 0.5
v 4 4 -0.5
v 4 5 0.5
v 4 5 -0.5
v 4 6 0.5
v 4 6 -0.5
v 4 7 0.5
v 4 7 -0.5
v 4 8 0.5
v 4 8 -0.5
v -3 2 2.5
v -3 3 2.5
v -3 4 2.5
v -3 6 2.5
v -3 9 2.5
v -3 11 2.5
v -2 3 2.5
v -2 4 2.5
v -2 5 2.5
v -2 6 2.5
v -2 10 2.5
v -2 11 2.5
v -2 12 2.5
v -1 4 2.5
v -1 5 2.5
v -1 10 2.5
v -1 11 2.5
v 0 9 2.5
v 0 10 2.5
v 0 11 2.5
v 0 12 2.5
v 1 3 2.5
v 1 4 2.5
v 1 5 2.5
v 1 9 2.5
v 1 10 2.5
v 1 11 2.5
v 1 12 2.5
v 2 3 2.5
v 2 4 2.5
v 2 5 2.5
v 2 6 2.5
v 2 10 2.5
v 2 11 2.5
v 2 12 2.5
v 3 2 2.5
v 3 3 2.5
v 3 4 2.5
v 3 5 2.5
v 3 6 2.5
v 3 9 2.5
v 3 10 2.5
v 3 11 2.5
v -3 1 1.5
v -3 2 1.5
v -3 6 1.5
v -3 9 1.5
v -3 11 1.5
v -3 12 1.5
v -2 1 1.5
v -2 2 1.5
v -2 6 1.5
v -2 7 1.5
v -2 8 1.5
v -2 11 1.5
v -2 12 1.5
v -1 1 1.5
v -1 2 1.5
v -1 7 1.5
v -1 8 1.5
v 0 9 1.5
v 1 1 1.5
v 1 2 1.5
v 1 7 1.5
v 1 8 1.5
v 1 9 1.5
v 2 1 1.5
v 2 2 1.5
v 2 6 1.5
v 2 7 1.5
v 2 8 1.5
v 2 11 1.5
v 2 12 1.5
v 3 1 1.5
v 3 2 1.5
v 3 6 1.5
v 3 9 1.5
v 3 11 1.5
v 3 12 1.5
v -4 2 0.5
v -4 4 0.5
v -4 5 0.5
v -4 6 0.5
v -4 7 0.5
v -4 8 0.5
v -3 2 0.5
v -3 3 0.5
v -3 4 0.5
v -3 5 0.5
v -3 6 0.5
v -3 7 0.5
v -3 8 0.5
v -2 0 0.5
v -2 1 0.5
v -1 0 0.5
v -1 1 0.5
v 1 0 0.5
v 1 1 0.5
v 2 0 0.5
v 2 1 0.5
v 3 2 0.5
v 3 3 0.5
v 3 4 0.5
v 3 5 0.5
v 3 6 0.5
v 3 7 0.5
v 3 8 0.5
v 4 2 0.5
v 4 4 0.5
v 4 5 0.5
v 4 6 0.5
v 4 7 0.5
v 4 8 0.5
v -4 2 -0.5
v -4 4 -0.5
v -4 5 -0.5
v -4 6 -0.5
v -4 7 -0.5
v -4 8 -0.5
v -3 2 -0.5
v -3 3 -0.5
v -3 4 -0.5
v -3 5 -0.5
v -3 6 -0.5
v -3 7 -0.5
v -3 8 -0.5
v -2 0 -0.5
v -2 1 -0.5
v -1 0 -0.5
v -1 1 -0.5
v 1 0 -0.5
v 1 1 -0.5
v 2 0 -0.5
v 2 1 -0.5
v 3 2 -0.5
v 3 3 -0.5
v 3 4 -0.5
v 3 5 -0.5
v 3 6 -0.5
v 3 7 -0.5
v 3 8 -0.5
v 4 2 -0.5
v 4 4 -0.5
v 4 5 -0.5
v 4 6 -0.5
v 4 7 -0.5
v 4 8 -0.5
v -3 1 -1.5
v -3 2 -1.5
v -3 6 -1.5
v -3 7 -1.5
v -2 1 -1.5
v -2 2 -1.5
v -2 6 -1.5
v -2 7 -1.5
v -1 1 -1.5
v -1 2 -1.5
v 1 1 -1.5
v 1 2 -1.5
v 2 1 -1.5
v 2 2 -1.5
v 2 6 -1.5
v 2 7 -1.5
v 3 1 -1.5
v 3 2 -1.5
v 3 6 -1.5
v 3 7 -1.5
v -3 2 -2.5
v -3 3 -2.5
v -3 6 -2.5
v -3 7 -2.5
v -3 9 -2.5
v -3 11 -2.5
v -3 12 -2.5
v -2 6 -2.5
v -2 7 -2.5
v -2 9 -2.5
v -2 11 -2.5
v -2 12 -2.5
v 0 3 -2.5
v 0 5 -2.5
v 1 3 -2.5
v 1 4 -2.5
v 1 5 -2.5
v 1 6 -2.5
v 2 3 -2.5
v 2 4 -2.5
v 2 5 -2.5
v 2 6 -2.5
v 2 7 -2.5
v 2 11 -2.5
v 2 12 -2.5
v 3 2 -2.5
v 3 3 -2.5
v 3 4 -2.5
v 3 5 -2.5
v 3 6 -2.5
v 3 7 -2.5
v 3 9 -2.5
v 3 11 -2.5
v 3 12 -2.5
v -3 9 -3.5
v -3 10 -3.5
v -3 11 -3.5
v -2 9 -3.5
v -2 10 -3.5
v -2 11 -3.5
v -2 12 -3.5
v -1 11 -3.5
v -1 12 -3.5
v 0 10 -3.5
v 0 11 -3.5
v 1 10 -3.5
v 1 11 -3.5
v 2 10 -3.5
v 2 11 -3.5
v 2 12 -3.5
v 3 9 -3.5
v 3 10 -3.5
v 3 11 -3.5
v -2 0 0.5
v -1 0 0.5
v 1 0 0.5
v 2 0 0.5
v -2 0 -0.5
v -1 0 -0.5
v 1 0 -0.5
v 2 0 -0.5
v -3 1 1.5
v -2 1 1.5
v -1 1 1.5
v 1 1 1.5
v 2 1 1.5
v 3 1 1.5
v -3 1 0.5
v -2 1 0.5
v -1 1 0.5
v 1 1 0.5
v 2 1 0.5
v 3 1 0.5
v -2 1 -0.5
v -1 1 -0.5
v 1 1 -0.5
v 2 1 -0.5
v 3 1 -0.5
v -3 1 -1.5
v -2 1 -1.5
v -1 1 -1.5
v 1 1 -1.5
v 2 1 -1.5
v 3 1 -1.5
v -3 2 2.5
v 3 2 2.5
v -3 2 1.5
v -2 2 1.5
v -1 2 1.5
v 1 2 1.5
v 2 2 1.5
v 3 2 1.5
v -4 2 0.5
v -3 2 0.5
v 3 2 0.5
v 4 2 0.5
v -4 2 -0.5
v -3 2 -0.5
v -1 2 -0.5
v 3 2 -0.5
v 4 2 -0.5
v -3 2 -1.5
v -2 2 -1.5
v -1 2 -1.5
v 1 2 -1.5
v 2 2 -1.5
v 3 2 -1.5
v -3 2 -2.5
v 3 2 -2.5
v -4 7 0.5
v -3 7 0.5
v 3 7 0.5
v 4 7 0.5
v -4 7 -0.5
v -3 7 -0.5
v 3 7 -0.5
v 4 7 -0.5
v -3 7 -1.5
v -2 7 -1.5
v 2 7 -1.5
v 3 7 -1.5
v -3 7 -2.5
v -2 7 -2.5
v 2 7 -2.5
v 3 7 -2.5
v -3 9 2.5
v 0 9 2.5
v 1 9 2.5
v 3 9 2.5
v -3 9 1.5
v 0 9 1.5
v 1 9 1.5
v 3 9 1.5
v -3 9 -2.5
v -2 9 -2.5
v 3 9 -2.5
v -3 9 -3.5
v -2 9 -3.5
v 3 9 -3.5
v -3 6 2.5
v -2 6 2.5
v 2 6 2.5
v 3 6 2.5
v -3 6 1.5
v -2 6 1.5
v 2 6 1.5
v 3 6 1.5
v -4 6 0.5
v -3 6 0.5
v 3 6 0.5
v 4 6 0.5
v -4 6 -0.5
v -3 6 -0.5
v 3 6 -0.5
v 4 6 -0.5
v -3 6 -1.5
v -2 6 -1.5
v 2 6 -1.5
v 3 6 -1.5
v -3 6 -2.5
v -2 6 -2.5
v 2 6 -2.5
v 3 6 -2.5
v -4 8 0.5
v -3 8 0.5
v 3 8 0.5
v 4 8 0.5
v -4 8 -0.5
v -3 8 -0.5
v 3 8 -0.5
v 4 8 -0.5
v -3 11 2.5
v -2 11 2.5
v 2 11 2.5
v 3 11 2.5
v -3 11 1.5
v -2 11 1.5
v 2 11 1.5
v 3 11 1.5
v -3 11 -2.5
v -2 11 -2.5
v 2 11 -2.5
v 3 11 -2.5
v -3 11 -3.5
v -2 11 -3.5
v 2 11 -3.5
v 3 11 -3.5
v -2 12 2.5
v 0 12 2.5
v 1 12 2.5
v 2 12 2.5
v -3 12 1.5
v -2 12 1.5
v -1 12 1.5
v 0 12 1.5
v 1 12 1.5
v 2 12 1.5
v 3 12 1.5
v -3 12 0.5
v -2 12 0.5
v -1 12 0.5
v 1 12 0.5
v 2 12 0.5
v -3 12 -0.5
v -2 12 -0.5
v -1 12 -0.5
v 0 12 -0.5
v 1 12 -0.5
v -2 12 -1.5
v -1 12 -1.5
v 0 12 -1.5
v 1 12 -1.5
v 2 12 -1.5
v 3 12 -1.5
v -3 12 -2.5
v -2 12 -2.5
v -1 12 -2.5
v 0 12 -2.5
v 2 12 -2.5
v 3 12 -2.5
v -2 12 -3.5
v -1 12 -3.5
v 2 12 -3.5

# faces
f 3/1/1 2/1/1 1/1/1
f 4/1/1 2/1/1 3/1/1
f 5/4/1 4/4/1 3/4/1
f 6/4/1 4/4/1 5/4/1
f 7/5/1 6/5/1 5/5/1
f 8/5/1 6/5/1 7/5/1
f 11/1/1 10/1/1 9/1/1
f 12/1/1 10/1/1 11/1/1
f 17/5/1 14/5/1 13/5/1
f 18/4/1 15/4/1 14/4/1
f 18/5/1 14/5/1 17/5/1
f 19/4/1 15/4/1 18/4/1
f 20/4/1 15/4/1 19/4/1
f 22/7/1 17/7/1 16/7/1
f 22/7/1 18/7/1 17/7/1
f 23/7/1 18/7/1 22/7/1
f 24/7/1 18/7/1 23/7/1
f 25/7/1 21/7/1 20/7/1
f 25/7/1 20/7/1 19/7/1
f 26/7/1 21/7/1 25/7/1
f 27/5/1 23/5/1 22/5/1
f 28/4/1 24/4/1 23/4/1
f 28/5/1 23/5/1 27/5/1
f 29/4/1 24/4/1 28/4/1
f 30/4/1 26/4/1 25/4/1
f 31/4/1 26/4/1 30/4/1
f 32/4/1 29/4/1 28/4/1
f 32/4/1 28/4/1 27/4/1
f 33/4/1 29/4/1 32/4/1
f 34/5/1 31/5/1 30/5/1
f 35/4/1 26/4/1 31/4/1
f 35/5/1 31/5/1 34/5/1
f 36/4/1 32/4/1 27/4/1
f 37/5/1 33/5/1 32/5/1
f 37/4/1 32/4/1 36/4/1
f 38/5/1 33/5/1 37/5/1
f 39/4/1 35/4/1 34/4/1
f 40/4/1 26/4/1 35/4/1
f 40/4/1 35/4/1 39/4/1
f 41/4/1 26/4/1 40/4/1
f 42/1/1 39/1/1 38/1/1
f 42/1/1 38/1/1 37/1/1
f 42/1/1 40/1/1 39/1/1
f 43/1/1 40/1/1 42/1/1
f 44/1/1 40/1/1 43/1/1
f 46/1/1 42/1/1 37/1/1
f 47/6/1 45/6/1 44/6/1
f 47/6/1 44/6/1 43/6/1
f 49/1/1 46/1/1 37/1/1
f 50/6/1 47/6/1 46/6/1
f 50/1/1 46/1/1 49/1/1
f 51/6/1 45/6/1 47/6/1
f 51/6/1 47/6/1 50/6/1
f 52/6/1 45/6/1 51/6/1
f 54/4/1 51/4/1 50/4/1
f 54/4/1 49/4/1 48/4/1
f 54/4/1 50/4/1 49/4/1
f 55/4/1 51/4/1 54/4/1
f 56/5/1 52/5/1 51/5/1
f 56/4/1 51/4/1 55/4/1
f 56/5/1 53/5/1 52/5/1
f 57/5/1 53/5/1 56/5/1
f 58/4/1 54/4/1 48/4/1
f 59/5/1 55/5/1 54/5/1
f 59/4/1 54/4/1 58/4/1
f 60/4/1 56/4/1 55/4/1
f 60/5/1 55/5/1 59/5/1
f 60/4/1 57/4/1 56/4/1
f 61/4/1 57/4/1 60/4/1
f 62/4/1 57/4/1 61/4/1
f 63/4/1 57/4/1 62/4/1
f 64/4/1 60/4/1 59/4/1
f 65/5/1 61/5/1 60/5/1
f 65/4/1 60/4/1 64/4/1
f 66/4/1 62/4/1 61/4/1
f 66/5/1 61/5/1 65/5/1
f 67/4/1 62/4/1 66/4/1
f 70/7/1 69/7/1 68/7/1
f 71/7/1 69/7/1 70/7/1
f 74/1/1 73/1/1 72/1/1
f 75/1/1 73/1/1 74/1/1
f 80/4/1 77/4/1 76/4/1
f 81/4/1 77/4/1 80/4/1
f 82/5/1 79/5/1 78/5/1
f 83/5/1 79/5/1 82/5/1
f 87/7/1 85/7/1 84/7/1
f 88/7/1 85/7/1 87/7/1
f 90/4/1 87/4/1 86/4/1
f 90/4/1 89/4/1 88/4/1
f 90/4/1 88/4/1 87/4/1
f 91/4/1 89/4/1 90/4/1
f 92/7/2 93/7/2 95/7/2
f 95/7/2 93/7/2 96/7/2
f 94/4/2 95/4/2 98/4/2
f 95/4/2 96/4/2 98/4/2
f 96/5/2 97/5/2 99/5/2
f 98/4/2 96/4/2 99/4/2
f 99/5/2 97/5/2 100/5/2
f 101/7/2 102/7/2 103/7/2
f 103/7/2 102/7/2 104/7/2
f 105/1/2 106/1/2 107/1/2
f 107/1/2 106/1/2 108/1/2
f 109/4/2 110/4/2 113/4/2
f 113/4/2 110/4/2 114/4/2
f 111/4/2 112/4/2 115/4/2
f 115/4/2 112/4/2 116/4/2
f 117/5/2 118/5/2 122/5/2
f 118/4/2 119/4/2 123/4/2
f 122/5/2 118/5/2 123/5/2
f 119/5/2 120/5/2 124/5/2
f 123/4/2 119/4/2 124/4/2
f 124/5/2 120/5/2 125/5/2
f 122/7/2 123/7/2 127/7/2
f 121/7/2 122/7/2 127/7/2
f 127/7/2 123/7/2 128/7/2
f 125/7/2 126/7/2 129/7/2
f 124/7/2 125/7/2 129/7/2
f 129/7/2 126/7/2 130/7/2
f 130/7/2 126/7/2 131/7/2
f 127/4/2 128/4/2 132/4/2
f 132/4/2 128/4/2 133/4/2
f 133/4/2 128/4/2 134/4/2
f 129/4/2 130/4/2 135/4/2
f 130/5/2 131/5/2 136/5/2
f 135/4/2 130/4/2 136/4/2
f 136/5/2 131/5/2 137/5/2
f 132/5/2 133/5/2 138/5/2
f 133/4/2 134/4/2 139/4/2
f 138/5/2 133/5/2 139/5/2
f 139/4/2 134/4/2 140/4/2
f 135/4/2 136/4/2 141/4/2
f 136/4/2 137/4/2 141/4/2
f 141/4/2 137/4/2 142/4/2
f 142/4/2 137/4/2 143/4/2
f 138/4/2 139/4/2 144/4/2
f 139/5/2 140/5/2 145/5/2
f 144/4/2 139/4/2 145/4/2
f 145/5/2 140/5/2 146/5/2
f 141/4/2 142/4/2 147/4/2
f 142/5/2 143/5/2 148/5/2
f 147/4/2 142/4/2 148/4/2
f 148/5/2 143/5/2 149/5/2
f 145/1/2 146/1/2 150/1/2
f 146/1/2 147/1/2 150/1/2
f 147/1/2 148/1/2 150/1/2
f 150/1/2 148/1/2 151/1/2
f 151/1/2 148/1/2 152/1/2
f 145/1/2 150/1/2 154/1/2
f 152/6/2 153/6/2 155/6/2
f 151/6/2 152/6/2 155/6/2
f 145/1/2 154/1/2 157/1/2
f 154/6/2 155/6/2 158/6/2
f 157/1/2 154/1/2 158/1/2
f 155/6/2 153/6/2 159/6/2
f 158/6/2 155/6/2 159/6/2
f 159/6/2 153/6/2 160/6/2
f 158/4/2 159/4/2 162/4/2
f 157/4/2 158/4/2 162/4/2
f 156/4/2 157/4/2 162/4/2
f 162/4/2 159/4/2 163/4/2
f 163/4/2 159/4/2 164/4/2
f 164/4/2 159/4/2 165/4/2
f 159/5/2 160/5/2 166/5/2
f 165/4/2 159/4/2 166/4/2
f 160/4/2 161/4/2 167/4/2
f 166/5/2 160/5/2 167/5/2
f 167/4/2 161/4/2 168/4/2
f 162/5/2 163/5/2 169/5/2
f 163/4/2 164/4/2 170/4/2
f 169/5/2 163/5/2 170/5/2
f 164/5/2 165/5/2 171/5/2
f 170/4/2 164/4/2 171/4/2
f 165/4/2 166/4/2 172/4/2
f 171/5/2 165/5/2 172/5/2
f 166/4/2 167/4/2 172/4/2
f 172/4/2 167/4/2 173/4/2
f 167/5/2 168/5/2 174/5/2
f 173/4/2 167/4/2 174/4/2
f 174/5/2 168/5/2 175/5/2
f 170/4/2 171/4/2 176/4/2
f 172/4/2 173/4/2 176/4/2
f 171/4/2 172/4/2 176/4/2
f 173/5/2 174/5/2 177/5/2
f 176/4/2 173/4/2 177/4/2
f 177/5/2 174/5/2 178/5/2
f 179/1/2 180/1/2 181/1/2
f 181/1/2 180/1/2 182/1/2
f 181/4/2 182/4/2 183/4/2
f 183/4/2 182/4/2 184/4/2
f 183/5/2 184/5/2 185/5/2
f 185/5/2 184/5/2 186/5/2
f 187/1/2 188/1/2 189/1/2
f 189/1/2 188/1/2 190/1/2
f 197/7/3 192/7/3 191/7/3
f 197/5/3 193/5/3 192/5/3
f 198/4/3 194/4/3 193/4/3
f 198/5/3 193/5/3 197/5/3
f 199/4/3 194/4/3 198/4/3
f 200/4/3 194/4/3 199/4/3
f 201/4/3 196/4/3 195/4/3
f 202/4/3 196/4/3 201/4/3
f 204/4/3 198/4/3 197/4/3
f 204/3/3 199/3/3 198/3/3
f 205/2/3 200/2/3 199/2/3
f 205/3/3 199/3/3 204/3/3
f 206/5/3 202/5/3 201/5/3
f 206/4/3 201/4/3 195/4/3
f 207/4/3 203/4/3 202/4/3
f 207/5/3 202/5/3 206/5/3
f 208/4/3 206/4/3 195/4/3
f 208/4/3 207/4/3 206/4/3
f 209/4/3 207/4/3 208/4/3
f 210/4/3 203/4/3 207/4/3
f 210/4/3 207/4/3 209/4/3
f 211/4/3 203/4/3 210/4/3
f 212/4/3 204/4/3 197/4/3
f 212/7/3 197/7/3 191/7/3
f 213/2/3 205/2/3 204/2/3
f 213/4/3 204/4/3 212/4/3
f 214/2/3 200/2/3 205/2/3
f 214/2/3 205/2/3 213/2/3
f 215/5/3 209/5/3 208/5/3
f 216/4/3 210/4/3 209/4/3
f 216/5/3 209/5/3 215/5/3
f 217/5/3 211/5/3 210/5/3
f 217/4/3 210/4/3 216/4/3
f 218/5/3 211/5/3 217/5/3
f 219/3/3 213/3/3 212/3/3
f 219/7/3 212/7/3 191/7/3
f 220/4/3 214/4/3 213/4/3
f 220/3/3 213/3/3 219/3/3
f 221/2/3 200/2/3 214/2/3
f 221/4/3 214/4/3 220/4/3
f 222/2/3 200/2/3 221/2/3
f 223/4/3 216/4/3 215/4/3
f 223/4/3 218/4/3 217/4/3
f 223/4/3 217/4/3 216/4/3
f 224/4/3 218/4/3 223/4/3
f 225/4/3 218/4/3 224/4/3
f 226/7/3 219/7/3 191/7/3
f 227/4/3 220/4/3 219/4/3
f 227/7/3 219/7/3 226/7/3
f 228/5/3 221/5/3 220/5/3
f 228/4/3 220/4/3 227/4/3
f 229/4/3 222/4/3 221/4/3
f 229/5/3 221/5/3 228/5/3
f 230/4/3 222/4/3 229/4/3
f 231/4/3 223/4/3 215/4/3
f 232/5/3 224/5/3 223/5/3
f 232/4/3 223/4/3 231/4/3
f 233/5/3 224/5/3 232/5/3
f 240/5/3 235/5/3 234/5/3
f 241/5/3 235/5/3 240/5/3
f 242/1/3 237/1/3 236/1/3
f 243/1/3 237/1/3 242/1/3
f 244/1/3 237/1/3 243/1/3
f 245/4/3 239/4/3 238/4/3
f 246/4/3 239/4/3 245/4/3
f 247/4/3 241/4/3 240/4/3
f 248/4/3 241/4/3 247/4/3
f 249/1/3 243/1/3 242/1/3
f 249/8/3 244/8/3 243/8/3
f 250/1/3 237/1/3 244/1/3
f 250/8/3 244/8/3 249/8/3
f 251/1/3 237/1/3 250/1/3
f 251/1/3 250/1/3 249/1/3
f 254/1/3 249/1/3 242/1/3
f 254/1/3 251/1/3 249/1/3
f 255/1/3 251/1/3 254/1/3
f 256/1/3 251/1/3 255/1/3
f 257/4/3 253/4/3 252/4/3
f 258/4/3 253/4/3 257/4/3
f 259/1/3 254/1/3 242/1/3
f 260/8/3 255/8/3 254/8/3
f 260/1/3 254/1/3 259/1/3
f 261/1/3 256/1/3 255/1/3
f 261/8/3 255/8/3 260/8/3
f 264/5/3 258/5/3 257/5/3
f 265/5/3 258/5/3 264/5/3
f 266/1/3 261/1/3 260/1/3
f 266/1/3 260/1/3 259/1/3
f 267/1/3 256/1/3 261/1/3
f 267/1/3 261/1/3 266/1/3
f 268/4/3 263/4/3 262/4/3
f 269/4/3 263/4/3 268/4/3
f 276/1/3 271/1/3 270/1/3
f 277/1/3 271/1/3 276/1/3
f 278/4/3 272/4/3 271/4/3
f 278/1/3 271/1/3 277/1/3
f 279/5/3 273/5/3 272/5/3
f 279/4/3 272/4/3 278/4/3
f 280/5/3 273/5/3 279/5/3
f 281/1/3 275/1/3 274/1/3
f 282/1/3 275/1/3 281/1/3
f 285/7/3 284/7/3 283/7/3
f 286/7/3 284/7/3 285/7/3
f 289/7/3 288/7/3 287/7/3
f 290/7/3 288/7/3 289/7/3
f 298/1/3 292/1/3 291/1/3
f 298/1/3 293/1/3 292/1/3
f 299/4/3 294/4/3 293/4/3
f 299/1/3 293/1/3 298/1/3
f 300/5/3 295/5/3 294/5/3
f 300/4/3 294/4/3 299/4/3
f 301/5/3 295/5/3 300/5/3
f 302/1/3 297/1/3 296/1/3
f 303/1/3 297/1/3 302/1/3
f 304/1/4 305/1/4 310/1/4
f 310/1/4 305/1/4 311/1/4
f 305/4/4 306/4/4 312/4/4
f 311/1/4 305/1/4 312/1/4
f 306/5/4 307/5/4 313/5/4
f 312/4/4 306/4/4 313/4/4
f 313/5/4 307/5/4 314/5/4
f 308/1/4 309/1/4 315/1/4
f 315/1/4 309/1/4 316/1/4
f 317/7/4 318/7/4 319/7/4
f 319/7/4 318/7/4 320/7/4
f 321/7/4 322/7/4 323/7/4
f 323/7/4 322/7/4 324/7/4
f 325/1/4 326/1/4 332/1/4
f 326/1/4 327/1/4 332/1/4
f 327/4/4 328/4/4 333/4/4
f 332/1/4 327/1/4 333/1/4
f 328/5/4 329/5/4 334/5/4
f 333/4/4 328/4/4 334/4/4
f 334/5/4 329/5/4 335/5/4
f 330/1/4 331/1/4 336/1/4
f 336/1/4 331/1/4 337/1/4
f 338/4/4 339/4/4 342/4/4
f 342/4/4 339/4/4 343/4/4
f 340/1/4 341/1/4 344/1/4
f 344/1/4 341/1/4 345/1/4
f 342/5/4 343/5/4 346/5/4
f 346/5/4 343/5/4 347/5/4
f 348/4/4 349/4/4 350/4/4
f 350/4/4 349/4/4 351/4/4
f 350/5/4 351/5/4 354/5/4
f 354/5/4 351/5/4 355/5/4
f 352/1/4 353/1/4 356/1/4
f 356/1/4 353/1/4 357/1/4
f 359/4/4 360/4/4 365/4/4
f 361/6/4 362/6/4 366/6/4
f 366/6/4 362/6/4 367/6/4
f 363/4/4 364/4/4 368/4/4
f 368/4/4 364/4/4 369/4/4
f 358/7/4 359/7/4 370/7/4
f 359/4/4 365/4/4 370/4/4
f 370/4/4 365/4/4 371/4/4
f 358/7/4 370/7/4 372/7/4
f 370/5/4 371/5/4 372/5/4
f 372/5/4 371/5/4 373/5/4
f 371/4/4 365/4/4 374/4/4
f 373/5/4 371/5/4 374/5/4
f 365/1/4 366/1/4 375/1/4
f 374/4/4 365/4/4 375/4/4
f 372/4/4 373/4/4 376/4/4
f 358/7/4 372/7/4 376/7/4
f 373/5/4 374/5/4 377/5/4
f 376/4/4 373/4/4 377/4/4
f 374/5/4 375/5/4 377/5/4
f 377/5/4 375/5/4 378/5/4
f 375/1/4 366/1/4 379/1/4
f 378/5/4 375/5/4 379/5/4
f 366/6/4 367/6/4 380/6/4
f 379/1/4 366/1/4 380/1/4
f 358/7/4 376/7/4 383/7/4
f 376/5/4 377/5/4 384/5/4
f 383/7/4 376/7/4 384/7/4
f 377/4/4 378/4/4 385/4/4
f 384/5/4 377/5/4 385/5/4
f 378/5/4 379/5/4 386/5/4
f 385/4/4 378/4/4 386/4/4
f 386/5/4 379/5/4 387/5/4
f 380/6/4 367/6/4 388/6/4
f 388/6/4 367/6/4 389/6/4
f 381/5/4 382/5/4 390/5/4
f 390/5/4 382/5/4 391/5/4
f 392/5/4 393/5/4 395/5/4
f 393/4/4 394/4/4 396/4/4
f 395/5/4 393/5/4 396/5/4
f 396/4/4 394/4/4 397/4/4
f 395/4/4 396/4/4 399/4/4
f 397/5/4 398/5/4 399/5/4
f 396/4/4 397/4/4 399/4/4
f 399/5/4 398/5/4 400/5/4
f 395/4/4 399/4/4 401/4/4
f 399/4/4 400/4/4 401/4/4
f 401/4/4 400/4/4 402/4/4
f 395/4/4 401/4/4 403/4/4
f 401/5/4 402/5/4 403/5/4
f 402/4/4 400/4/4 404/4/4
f 403/5/4 402/5/4 404/5/4
f 395/4/4 403/4/4 405/4/4
f 403/4/4 404/4/4 405/4/4
f 404/4/4 400/4/4 406/4/4
f 405/4/4 404/4/4 406/4/4
f 406/4/4 400/4/4 407/4/4
f 395/4/4 405/4/4 408/4/4
f 405/5/4 406/5/4 409/5/4
f 408/4/4 405/4/4 409/4/4
f 409/5/4 406/5/4 410/5/4
f 415/7/5 412/7/5 411/7/5
f 416/7/5 412/7/5 415/7/5
f 417/7/5 414/7/5 413/7/5
f 418/7/5 414/7/5 417/7/5
f 425/5/5 420/5/5 419/5/5
f 426/4/5 421/4/5 420/4/5
f 426/5/5 420/5/5 425/5/5
f 427/4/5 421/4/5 426/4/5
f 428/4/5 423/4/5 422/4/5
f 429/5/5 424/5/5 423/5/5
f 429/4/5 423/4/5 428/4/5
f 430/5/5 424/5/5 429/5/5
f 431/4/5 426/4/5 425/4/5
f 434/4/5 430/4/5 429/4/5
f 435/4/5 430/4/5 434/4/5
f 436/4/5 431/4/5 425/4/5
f 437/5/5 432/5/5 431/5/5
f 437/4/5 431/4/5 436/4/5
f 438/5/5 432/5/5 437/5/5
f 439/4/5 434/4/5 433/4/5
f 440/5/5 435/5/5 434/5/5
f 440/4/5 434/4/5 439/4/5
f 441/5/5 435/5/5 440/5/5
f 444/7/5 443/7/5 442/7/5
f 445/7/5 443/7/5 444/7/5
f 446/7/5 443/7/5 445/7/5
f 447/7/5 443/7/5 446/7/5
f 448/7/5 443/7/5 447/7/5
f 449/7/5 443/7/5 448/7/5
f 454/1/5 451/1/5 450/1/5
f 455/1/5 451/1/5 454/1/5
f 456/4/5 447/4/5 446/4/5
f 457/1/5 453/1/5 452/1/5
f 458/1/5 453/1/5 457/1/5
f 461/4/5 447/4/5 456/4/5
f 462/4/5 447/4/5 461/4/5
f 465/7/5 460/7/5 459/7/5
f 465/7/5 464/7/5 463/7/5
f 465/7/5 463/7/5 462/7/5
f 465/7/5 462/7/5 461/7/5
f 465/7/5 461/7/5 460/7/5
f 466/7/5 464/7/5 465/7/5
f 471/1/5 468/1/5 467/1/5
f 472/1/5 468/1/5 471/1/5
f 473/1/5 470/1/5 469/1/5
f 474/1/5 470/1/5 473/1/5
f 479/6/5 476/6/5 475/6/5
f 480/6/5 476/6/5 479/6/5
f 481/6/5 478/6/5 477/6/5
f 482/6/5 478/6/5 481/6/5
f 487/4/5 484/4/5 483/4/5
f 488/5/5 485/5/5 484/5/5
f 488/4/5 484/4/5 487/4/5
f 489/4/5 486/4/5 485/4/5
f 489/5/5 485/5/5 488/5/5
f 490/4/5 486/4/5 489/4/5
f 494/5/5 492/5/5 491/5/5
f 495/4/5 493/4/5 492/4/5
f 495/5/5 492/5/5 494/5/5
f 496/4/5 493/4/5 495/4/5
f 497/4/6 498/4/6 501/4/6
f 498/2/6 499/2/6 502/2/6
f 501/4/6 498/4/6 502/4/6
f 499/4/6 500/4/6 503/4/6
f 502/2/6 499/2/6 503/2/6
f 503/4/6 500/4/6 504/4/6
f 505/5/6 506/5/6 509/5/6
f 509/5/6 506/5/6 510/5/6
f 507/5/6 508/5/6 511/5/6
f 511/5/6 508/5/6 512/5/6
f 513/4/6 514/4/6 517/4/6
f 517/4/6 514/4/6 518/4/6
f 515/5/6 516/5/6 519/5/6
f 519/5/6 516/5/6 520/5/6
f 521/1/6 522/1/6 525/1/6
f 525/1/6 522/1/6 526/1/6
f 523/1/6 524/1/6 527/1/6
f 527/1/6 524/1/6 528/1/6
f 529/4/6 530/4/6 533/4/6
f 533/4/6 530/4/6 534/4/6
f 531/5/6 532/5/6 535/5/6
f 535/5/6 532/5/6 536/5/6
f 537/4/6 538/4/6 541/4/6
f 541/4/6 538/4/6 542/4/6
f 539/5/6 540/5/6 543/5/6
f 543/5/6 540/5/6 544/5/6
f 545/4/6 546/4/6 550/4/6
f 550/4/6 546/4/6 551/4/6
f 546/5/6 547/5/6 552/5/6
f 551/4/6 546/4/6 552/4/6
f 547/4/6 548/4/6 553/4/6
f 552/5/6 547/5/6 553/5/6
f 553/4/6 548/4/6 554/4/6
f 549/4/6 550/4/6 556/4/6
f 550/5/6 551/5/6 557/5/6
f 556/4/6 550/4/6 557/4/6
f 551/4/6 552/4/6 558/4/6
f 557/5/6 551/5/6 558/5/6
f 552/4/6 553/4/6 558/4/6
f 553/5/6 554/5/6 559/5/6
f 558/4/6 553/4/6 559/4/6
f 554/4/6 555/4/6 560/4/6
f 559/5/6 554/5/6 560/5/6
f 556/5/6 557/5/6 561/5/6
f 558/4/6 559/4/6 562/4/6
f 561/5/6 557/5/6 562/5/6
f 557/4/6 558/4/6 562/4/6
f 559/4/6 560/4/6 562/4/6
f 562/4/6 560/4/6 563/4/6
f 563/4/6 560/4/6 564/4/6
f 564/4/6 560/4/6 565/4/6
f 561/4/6 562/4/6 566/4/6
f 562/5/6 563/5/6 566/5/6
f 563/4/6 564/4/6 567/4/6
f 566/5/6 563/5/6 567/5/6
f 564/5/6 565/5/6 568/5/6
f 567/4/6 564/4/6 568/4/6
f 565/4/6 560/4/6 569/4/6
f 568/5/6 565/5/6 569/5/6
f 560/4/6 555/4/6 570/4/6
f 569/4/6 560/4/6 570/4/6
f 570/4/6 555/4/6 571/4/6
f 566/4/6 567/4/6 572/4/6
f 561/4/6 566/4/6 572/4/6
f 572/4/6 567/4/6 573/4/6
f 567/5/6 568/5/6 574/5/6
f 573/4/6 567/4/6 574/4/6
f 568/4/6 569/4/6 575/4/6
f 574/5/6 568/5/6 575/5/6
f 569/4/6 570/4/6 575/4/6
f 570/5/6 571/5/6 576/5/6
f 575/4/6 570/4/6 576/4/6
f 576/5/6 571/5/6 577/5/6
f 573/5/6 574/5/6 578/5/6
f 575/4/6 576/4/6 579/4/6
f 578/5/6 574/5/6 579/5/6
f 574/4/6 575/4/6 579/4/6
f 579/4/6 576/4/6 580/4/6
