# MagicaVoxel @ Ephtracy

# material
mtllib chr_mission1.mtl
usemtl palette

# normals
vn -1 0 0
vn 1 0 0
vn 0 0 1
vn 0 0 -1
vn 0 -1 0
vn 0 1 0

# texcoords
vt 0.0332031 0.5
vt 0.958984 0.5
vt 0.978516 0.5
vt 0.986328 0.5
vt 0.990234 0.5
vt 0.994141 0.5

# verts
v -4 2 0.5
v -4 2 -0.5
v -4 4 0.5
v -4 4 -0.5
v -4 6 0.5
v -4 6 -0.5
v -4 7 0.5
v -4 7 -0.5
v -4 8 1.5
v -4 8 0.5
v -4 8 -0.5
v -4 8 -1.5
v -4 9 2.5
v -4 9 1.5
v -4 10 2.5
v -4 10 -1.5
v -3 1 1.5
v -3 1 -1.5
v -3 2 2.5
v -3 2 1.5
v -3 2 0.5
v -3 2 -0.5
v -3 2 -1.5
v -3 2 -2.5
v -3 3 2.5
v -3 3 0.5
v -3 3 -0.5
v -3 3 -2.5
v -3 4 0.5
v -3 4 -0.5
v -3 6 2.5
v -3 6 1.5
v -3 6 0.5
v -3 6 -0.5
v -3 6 -1.5
v -3 6 -2.5
v -3 7 0.5
v -3 7 -0.5
v -3 7 -1.5
v -3 7 -2.5
v -3 8 1.5
v -3 8 0.5
v -3 8 -0.5
v -3 8 -1.5
v -3 10 2.5
v -3 10 -1.5
v -3 11 2.5
v -3 11 -2.5
v -2 0 0.5
v -2 0 -0.5
v -2 1 0.5
v -2 1 -0.5
v -2 6 -1.5
v -2 6 -2.5
v -2 7 -1.5
v -2 7 -2.5
v -2 7 -3.5
v -2 10 -2.5
v -2 10 -3.5
v 1 0 0.5
v 1 0 -0.5
v 1 1 1.5
v 1 1 0.5
v 1 1 -0.5
v 1 1 -1.5
v 1 2 1.5
v 1 2 -1.5
v 2 10 1.5
v 2 10 0.5
v 2 11 1.5
v 2 11 0.5
v -2 10 2.5
v -2 10 1.5
v -2 11 2.5
v -2 11 1.5
v -1 0 0.5
v -1 0 -0.5
v -1 1 1.5
v -1 1 0.5
v -1 1 -0.5
v -1 1 -1.5
v -1 2 1.5
v -1 2 -1.5
v 0 9 2.5
v 0 9 1.5
v 0 10 2.5
v 0 10 1.5
v 1 10 1.5
v 1 10 0.5
v 1 11 1.5
v 1 11 0.5
v 2 0 0.5
v 2 0 -0.5
v 2 1 0.5
v 2 1 -0.5
v 2 6 -1.5
v 2 6 -2.5
v 2 7 -1.5
v 2 7 -2.5
v 2 7 -3.5
v 2 10 -2.5
v 2 10 -3.5
v 3 1 1.5
v 3 1 -1.5
v 3 2 2.5
v 3 2 1.5
v 3 2 0.5
v 3 2 -0.5
v 3 2 -1.5
v 3 2 -2.5
v 3 3 2.5
v 3 3 0.5
v 3 3 -0.5
v 3 3 -2.5
v 3 4 2.5
v 3 4 1.5
v 3 4 0.5
v 3 4 -0.5
v 3 5 2.5
v 3 5 1.5
v 3 6 2.5
v 3 6 1.5
v 3 6 0.5
v 3 6 -0.5
v 3 6 -1.5
v 3 6 -2.5
v 3 7 0.5
v 3 7 -0.5
v 3 7 -1.5
v 3 7 -2.5
v 3 8 1.5
v 3 8 0.5
v 3 8 -0.5
v 3 8 -1.5
v 3 10 1.5
v 3 10 -1.5
v 3 11 1.5
v 3 11 -2.5
v 4 2 0.5
v 4 2 -0.5
v 4 4 0.5
v 4 4 -0.5
v 4 6 0.5
v 4 6 -0.5
v 4 7 0.5
v 4 7 -0.5
v 4 8 1.5
v 4 8 0.5
v 4 8 -0.5
v 4 8 -1.5
v 4 10 1.5
v 4 10 -1.5
v -4 9 2.5
v -4 10 2.5
v -3 2 2.5
v -3 3 2.5
v -3 6 2.5
v -3 10 2.5
v -3 11 2.5
v -2 10 2.5
v -2 11 2.5
v -1 4 2.5
v -1 6 2.5
v 0 4 2.5
v 0 6 2.5
v 0 9 2.5
v 0 10 2.5
v 1 4 2.5
v 1 5 2.5
v 3 2 2.5
v 3 3 2.5
v 3 4 2.5
v 3 5 2.5
v 3 6 2.5
v -4 8 1.5
v -4 9 1.5
v -3 1 1.5
v -3 2 1.5
v -3 6 1.5
v -3 8 1.5
v -3 9 1.5
v -2 7 1.5
v -2 8 1.5
v -2 10 1.5
v -2 11 1.5
v -1 1 1.5
v -1 2 1.5
v -1 6 1.5
v -1 7 1.5
v -1 8 1.5
v 0 6 1.5
v 0 9 1.5
v 0 10 1.5
v 1 1 1.5
v 1 2 1.5
v 1 7 1.5
v 1 8 1.5
v 1 10 1.5
v 1 11 1.5
v 2 7 1.5
v 2 8 1.5
v 2 10 1.5
v 2 11 1.5
v 3 1 1.5
v 3 2 1.5
v 3 6 1.5
v 3 8 1.5
v 3 10 1.5
v 3 11 1.5
v 4 8 1.5
v 4 10 1.5
v -4 2 0.5
v -4 4 0.5
v -4 6 0.5
v -4 7 0.5
v -4 8 0.5
v -3 2 0.5
v -3 3 0.5
v -3 4 0.5
v -3 6 0.5
v -3 7 0.5
v -3 8 0.5
v -2 0 0.5
v -2 1 0.5
v -1 0 0.5
v -1 1 0.5
v 1 0 0.5
v 1 1 0.5
v 1 10 0.5
v 1 11 0.5
v 2 0 0.5
v 2 1 0.5
v 2 10 0.5
v 2 11 0.5
v 3 2 0.5
v 3 3 0.5
v 3 4 0.5
v 3 6 0.5
v 3 7 0.5
v 3 8 0.5
v 4 2 0.5
v 4 4 0.5
v 4 6 0.5
v 4 7 0.5
v 4 8 0.5
v -4 2 -0.5
v -4 4 -0.5
v -4 6 -0.5
v -4 7 -0.5
v -4 8 -0.5
v -3 2 -0.5
v -3 3 -0.5
v -3 4 -0.5
v -3 6 -0.5
v -3 7 -0.5
v -3 8 -0.5
v -2 0 -0.5
v -2 1 -0.5
v -1 0 -0.5
v -1 1 -0.5
v 1 0 -0.5
v 1 1 -0.5
v 2 0 -0.5
v 2 1 -0.5
v 3 2 -0.5
v 3 3 -0.5
v 3 4 -0.5
v 3 6 -0.5
v 3 7 -0.5
v 3 8 -0.5
v 4 2 -0.5
v 4 4 -0.5
v 4 6 -0.5
v 4 7 -0.5
v 4 8 -0.5
v -4 8 -1.5
v -4 10 -1.5
v -3 1 -1.5
v -3 2 -1.5
v -3 6 -1.5
v -3 7 -1.5
v -3 8 -1.5
v -3 10 -1.5
v -2 6 -1.5
v -2 7 -1.5
v -1 1 -1.5
v -1 2 -1.5
v 1 1 -1.5
v 1 2 -1.5
v 2 6 -1.5
v 2 7 -1.5
v 3 1 -1.5
v 3 2 -1.5
v 3 6 -1.5
v 3 7 -1.5
v 3 8 -1.5
v 3 10 -1.5
v 4 8 -1.5
v 4 10 -1.5
v -3 2 -2.5
v -3 3 -2.5
v -3 6 -2.5
v -3 7 -2.5
v -3 11 -2.5
v -2 6 -2.5
v -2 7 -2.5
v -2 10 -2.5
v 2 6 -2.5
v 2 7 -2.5
v 2 10 -2.5
v 3 2 -2.5
v 3 3 -2.5
v 3 6 -2.5
v 3 7 -2.5
v 3 11 -2.5
v -2 7 -3.5
v -2 10 -3.5
v 2 7 -3.5
v 2 10 -3.5
v -2 0 0.5
v -1 0 0.5
v 1 0 0.5
v 2 0 0.5
v -2 0 -0.5
v -1 0 -0.5
v 1 0 -0.5
v 2 0 -0.5
v -3 1 1.5
v -1 1 1.5
v 1 1 1.5
v 3 1 1.5
v -2 1 0.5
v -1 1 0.5
v 1 1 0.5
v 2 1 0.5
v -2 1 -0.5
v -1 1 -0.5
v 1 1 -0.5
v 2 1 -0.5
v -3 1 -1.5
v -1 1 -1.5
v 1 1 -1.5
v 3 1 -1.5
v -3 2 2.5
v 3 2 2.5
v -3 2 1.5
v -1 2 1.5
v 1 2 1.5
v 3 2 1.5
v -4 2 0.5
v -3 2 0.5
v 3 2 0.5
v 4 2 0.5
v -4 2 -0.5
v -3 2 -0.5
v 3 2 -0.5
v 4 2 -0.5
v -3 2 -1.5
v -1 2 -1.5
v 1 2 -1.5
v 3 2 -1.5
v -3 2 -2.5
v 3 2 -2.5
v -4 7 0.5
v -3 7 0.5
v 3 7 0.5
v 4 7 0.5
v -4 7 -0.5
v -3 7 -0.5
v 3 7 -0.5
v 4 7 -0.5
v -3 7 -1.5
v -2 7 -1.5
v 2 7 -1.5
v 3 7 -1.5
v -3 7 -2.5
v -2 7 -2.5
v 2 7 -2.5
v 3 7 -2.5
v -2 7 -3.5
v 2 7 -3.5
v -4 8 1.5
v -3 8 1.5
v 3 8 1.5
v 4 8 1.5
v -4 8 0.5
v -3 8 0.5
v 3 8 0.5
v 4 8 0.5
v -4 8 -0.5
v -3 8 -0.5
v 3 8 -0.5
v 4 8 -0.5
v -4 8 -1.5
v -3 8 -1.5
v 3 8 -1.5
v 4 8 -1.5
v -4 9 2.5
v 0 9 2.5
v -4 9 1.5
v -3 9 1.5
v 0 9 1.5
v -3 6 2.5
v -1 6 2.5
v 0 6 2.5
v 3 6 2.5
v -3 6 1.5
v -1 6 1.5
v 0 6 1.5
v 3 6 1.5
v -4 6 0.5
v -3 6 0.5
v 3 6 0.5
v 4 6 0.5
v -4 6 -0.5
v -3 6 -0.5
v 3 6 -0.5
v 4 6 -0.5
v -3 6 -1.5
v -2 6 -1.5
v 2 6 -1.5
v 3 6 -1.5
v -3 6 -2.5
v -2 6 -2.5
v 2 6 -2.5
v 3 6 -2.5
v -4 10 2.5
v -3 10 2.5
v -2 10 2.5
v 0 10 2.5
v -2 10 1.5
v 0 10 1.5
v 1 10 1.5
v 2 10 1.5
v 3 10 1.5
v 4 10 1.5
v 1 10 0.5
v 2 10 0.5
v -4 10 -1.5
v -3 10 -1.5
v 3 10 -1.5
v 4 10 -1.5
v -2 10 -2.5
v 2 10 -2.5
v -2 10 -3.5
v 2 10 -3.5
v -3 11 2.5
v -2 11 2.5
v -2 11 1.5
v 1 11 1.5
v 2 11 1.5
v 3 11 1.5
v 1 11 0.5
v 2 11 0.5
v -3 11 -2.5
v 3 11 -2.5

# faces
f 3/1/1 2/1/1 1/1/1
f 4/1/1 2/1/1 3/1/1
f 5/2/1 4/2/1 3/2/1
f 6/2/1 4/2/1 5/2/1
f 10/1/1 8/1/1 7/1/1
f 11/1/1 8/1/1 10/1/1
f 14/4/1 11/4/1 10/4/1
f 14/4/1 12/4/1 11/4/1
f 14/4/1 10/4/1 9/4/1
f 15/4/1 14/4/1 13/4/1
f 16/4/1 12/4/1 14/4/1
f 16/4/1 14/4/1 15/4/1
f 20/4/1 18/4/1 17/4/1
f 21/4/1 18/4/1 20/4/1
f 22/4/1 18/4/1 21/4/1
f 23/4/1 18/4/1 22/4/1
f 25/4/1 20/4/1 19/4/1
f 25/4/1 21/4/1 20/4/1
f 26/4/1 21/4/1 25/4/1
f 27/4/1 24/4/1 23/4/1
f 27/4/1 23/4/1 22/4/1
f 28/4/1 24/4/1 27/4/1
f 29/2/1 26/2/1 25/2/1
f 30/2/1 28/2/1 27/2/1
f 31/2/1 29/2/1 25/2/1
f 32/2/1 29/2/1 31/2/1
f 33/2/1 29/2/1 32/2/1
f 34/2/1 28/2/1 30/2/1
f 35/2/1 28/2/1 34/2/1
f 36/2/1 28/2/1 35/2/1
f 37/1/1 33/1/1 32/1/1
f 37/1/1 35/1/1 34/1/1
f 37/1/1 34/1/1 33/1/1
f 38/1/1 35/1/1 37/1/1
f 39/1/1 35/1/1 38/1/1
f 41/1/1 37/1/1 32/1/1
f 42/1/1 37/1/1 41/1/1
f 43/1/1 39/1/1 38/1/1
f 44/4/1 40/4/1 39/4/1
f 44/1/1 39/1/1 43/1/1
f 46/4/1 40/4/1 44/4/1
f 47/4/1 46/4/1 45/4/1
f 48/4/1 40/4/1 46/4/1
f 48/4/1 46/4/1 47/4/1
f 51/5/1 50/5/1 49/5/1
f 52/5/1 50/5/1 51/5/1
f 55/1/1 54/1/1 53/1/1
f 56/1/1 54/1/1 55/1/1
f 58/4/1 57/4/1 56/4/1
f 59/4/1 57/4/1 58/4/1
f 63/5/1 61/5/1 60/5/1
f 64/5/1 61/5/1 63/5/1
f 66/4/1 63/4/1 62/4/1
f 66/4/1 65/4/1 64/4/1
f 66/4/1 64/4/1 63/4/1
f 67/4/1 65/4/1 66/4/1
f 70/4/1 69/4/1 68/4/1
f 71/4/1 69/4/1 70/4/1
f 72/4/2 73/4/2 74/4/2
f 74/4/2 73/4/2 75/4/2
f 76/5/2 77/5/2 79/5/2
f 79/5/2 77/5/2 80/5/2
f 78/4/2 79/4/2 82/4/2
f 80/4/2 81/4/2 82/4/2
f 79/4/2 80/4/2 82/4/2
f 82/4/2 81/4/2 83/4/2
f 84/4/2 85/4/2 86/4/2
f 86/4/2 85/4/2 87/4/2
f 88/4/2 89/4/2 90/4/2
f 90/4/2 89/4/2 91/4/2
f 92/5/2 93/5/2 94/5/2
f 94/5/2 93/5/2 95/5/2
f 96/1/2 97/1/2 98/1/2
f 98/1/2 97/1/2 99/1/2
f 99/4/2 100/4/2 101/4/2
f 101/4/2 100/4/2 102/4/2
f 103/4/2 104/4/2 106/4/2
f 106/4/2 104/4/2 107/4/2
f 107/4/2 104/4/2 108/4/2
f 108/4/2 104/4/2 109/4/2
f 105/4/2 106/4/2 111/4/2
f 106/4/2 107/4/2 111/4/2
f 111/4/2 107/4/2 112/4/2
f 109/4/2 110/4/2 113/4/2
f 108/4/2 109/4/2 113/4/2
f 113/4/2 110/4/2 114/4/2
f 111/2/2 112/2/2 115/2/2
f 115/2/2 112/2/2 116/2/2
f 116/2/2 112/2/2 117/2/2
f 113/2/2 114/2/2 118/2/2
f 115/3/2 116/3/2 119/3/2
f 116/2/2 117/2/2 120/2/2
f 119/3/2 116/3/2 120/3/2
f 119/2/2 120/2/2 121/2/2
f 120/2/2 117/2/2 122/2/2
f 121/2/2 120/2/2 122/2/2
f 122/2/2 117/2/2 123/2/2
f 118/2/2 114/2/2 124/2/2
f 124/2/2 114/2/2 125/2/2
f 125/2/2 114/2/2 126/2/2
f 122/1/2 123/1/2 127/1/2
f 124/1/2 125/1/2 127/1/2
f 123/1/2 124/1/2 127/1/2
f 127/1/2 125/1/2 128/1/2
f 128/1/2 125/1/2 129/1/2
f 122/1/2 127/1/2 131/1/2
f 131/1/2 127/1/2 132/1/2
f 128/1/2 129/1/2 133/1/2
f 129/4/2 130/4/2 134/4/2
f 133/1/2 129/1/2 134/1/2
f 134/4/2 130/4/2 136/4/2
f 135/4/2 136/4/2 137/4/2
f 136/4/2 130/4/2 138/4/2
f 137/4/2 136/4/2 138/4/2
f 139/1/2 140/1/2 141/1/2
f 141/1/2 140/1/2 142/1/2
f 141/2/2 142/2/2 143/2/2
f 143/2/2 142/2/2 144/2/2
f 145/1/2 146/1/2 148/1/2
f 148/1/2 146/1/2 149/1/2
f 148/4/2 149/4/2 151/4/2
f 149/4/2 150/4/2 151/4/2
f 147/4/2 148/4/2 151/4/2
f 151/4/2 150/4/2 152/4/2
f 158/4/3 154/4/3 153/4/3
f 160/4/3 158/4/3 153/4/3
f 160/4/3 159/4/3 158/4/3
f 161/4/3 159/4/3 160/4/3
f 162/2/3 157/2/3 156/2/3
f 163/2/3 157/2/3 162/2/3
f 164/2/3 162/2/3 156/2/3
f 164/5/3 163/5/3 162/5/3
f 165/5/3 163/5/3 164/5/3
f 166/4/3 160/4/3 153/4/3
f 167/4/3 160/4/3 166/4/3
f 168/2/3 165/2/3 164/2/3
f 168/2/3 164/2/3 156/2/3
f 169/2/3 165/2/3 168/2/3
f 170/4/3 156/4/3 155/4/3
f 171/2/3 168/2/3 156/2/3
f 171/4/3 156/4/3 170/4/3
f 172/3/3 169/3/3 168/3/3
f 172/2/3 168/2/3 171/2/3
f 173/2/3 165/2/3 169/2/3
f 173/3/3 169/3/3 172/3/3
f 174/2/3 165/2/3 173/2/3
f 180/4/3 176/4/3 175/4/3
f 181/4/3 176/4/3 180/4/3
f 182/1/3 180/1/3 179/1/3
f 182/1/3 181/1/3 180/1/3
f 183/1/3 181/1/3 182/1/3
f 186/4/3 178/4/3 177/4/3
f 187/4/3 178/4/3 186/4/3
f 188/1/3 182/1/3 179/1/3
f 189/6/3 183/6/3 182/6/3
f 189/1/3 182/1/3 188/1/3
f 190/1/3 181/1/3 183/1/3
f 190/6/3 183/6/3 189/6/3
f 191/1/3 189/1/3 188/1/3
f 191/1/3 190/1/3 189/1/3
f 192/1/3 181/1/3 190/1/3
f 192/1/3 190/1/3 191/1/3
f 193/4/3 185/4/3 184/4/3
f 196/1/3 192/1/3 191/1/3
f 196/1/3 193/1/3 192/1/3
f 197/1/3 193/1/3 196/1/3
f 198/4/3 185/4/3 193/4/3
f 198/1/3 193/1/3 197/1/3
f 199/4/3 185/4/3 198/4/3
f 200/6/3 197/6/3 196/6/3
f 200/1/3 196/1/3 191/1/3
f 201/1/3 198/1/3 197/1/3
f 201/6/3 197/6/3 200/6/3
f 202/1/3 198/1/3 201/1/3
f 204/4/3 195/4/3 194/4/3
f 205/4/3 195/4/3 204/4/3
f 206/1/3 200/1/3 191/1/3
f 206/1/3 201/1/3 200/1/3
f 206/1/3 202/1/3 201/1/3
f 207/1/3 202/1/3 206/1/3
f 208/4/3 203/4/3 202/4/3
f 208/1/3 202/1/3 207/1/3
f 209/4/3 203/4/3 208/4/3
f 210/4/3 208/4/3 207/4/3
f 211/4/3 208/4/3 210/4/3
f 217/1/3 213/1/3 212/1/3
f 218/1/3 213/1/3 217/1/3
f 219/2/3 214/2/3 213/2/3
f 219/1/3 213/1/3 218/1/3
f 220/2/3 214/2/3 219/2/3
f 221/1/3 216/1/3 215/1/3
f 222/1/3 216/1/3 221/1/3
f 225/5/3 224/5/3 223/5/3
f 226/5/3 224/5/3 225/5/3
f 231/5/3 228/5/3 227/5/3
f 232/5/3 228/5/3 231/5/3
f 233/4/3 230/4/3 229/4/3
f 234/4/3 230/4/3 233/4/3
f 241/1/3 236/1/3 235/1/3
f 241/1/3 237/1/3 236/1/3
f 242/2/3 238/2/3 237/2/3
f 242/1/3 237/1/3 241/1/3
f 243/2/3 238/2/3 242/2/3
f 244/1/3 240/1/3 239/1/3
f 245/1/3 240/1/3 244/1/3
f 246/1/4 247/1/4 251/1/4
f 251/1/4 247/1/4 252/1/4
f 247/2/4 248/2/4 253/2/4
f 252/1/4 247/1/4 253/1/4
f 253/2/4 248/2/4 254/2/4
f 249/1/4 250/1/4 255/1/4
f 255/1/4 250/1/4 256/1/4
f 257/5/4 258/5/4 259/5/4
f 259/5/4 258/5/4 260/5/4
f 261/5/4 262/5/4 263/5/4
f 263/5/4 262/5/4 264/5/4
f 265/1/4 266/1/4 271/1/4
f 266/1/4 267/1/4 271/1/4
f 267/2/4 268/2/4 272/2/4
f 271/1/4 267/1/4 272/1/4
f 272/2/4 268/2/4 273/2/4
f 269/1/4 270/1/4 274/1/4
f 274/1/4 270/1/4 275/1/4
f 276/4/4 277/4/4 282/4/4
f 282/4/4 277/4/4 283/4/4
f 280/1/4 281/1/4 284/1/4
f 284/1/4 281/1/4 285/1/4
f 278/4/4 279/4/4 286/4/4
f 286/4/4 279/4/4 287/4/4
f 288/4/4 289/4/4 292/4/4
f 292/4/4 289/4/4 293/4/4
f 290/1/4 291/1/4 294/1/4
f 294/1/4 291/1/4 295/1/4
f 296/4/4 297/4/4 298/4/4
f 298/4/4 297/4/4 299/4/4
f 301/2/4 302/2/4 305/2/4
f 303/4/4 304/4/4 306/4/4
f 306/4/4 304/4/4 307/4/4
f 301/2/4 305/2/4 308/2/4
f 305/1/4 306/1/4 308/1/4
f 308/1/4 306/1/4 309/1/4
f 307/4/4 304/4/4 310/4/4
f 300/4/4 301/4/4 311/4/4
f 301/2/4 308/2/4 312/2/4
f 311/4/4 301/4/4 312/4/4
f 312/2/4 308/2/4 313/2/4
f 309/4/4 310/4/4 314/4/4
f 310/4/4 304/4/4 315/4/4
f 314/4/4 310/4/4 315/4/4
f 316/4/4 317/4/4 318/4/4
f 318/4/4 317/4/4 319/4/4
f 324/5/5 321/5/5 320/5/5
f 325/5/5 321/5/5 324/5/5
f 326/5/5 323/5/5 322/5/5
f 327/5/5 323/5/5 326/5/5
f 332/4/5 329/4/5 328/4/5
f 333/4/5 329/4/5 332/4/5
f 334/4/5 331/4/5 330/4/5
f 335/4/5 331/4/5 334/4/5
f 336/4/5 332/4/5 328/4/5
f 339/4/5 331/4/5 335/4/5
f 340/4/5 337/4/5 336/4/5
f 340/4/5 336/4/5 328/4/5
f 341/4/5 337/4/5 340/4/5
f 342/4/5 339/4/5 338/4/5
f 343/4/5 331/4/5 339/4/5
f 343/4/5 339/4/5 342/4/5
f 346/4/5 345/4/5 344/4/5
f 347/4/5 345/4/5 346/4/5
f 348/4/5 345/4/5 347/4/5
f 349/4/5 345/4/5 348/4/5
f 354/1/5 351/1/5 350/1/5
f 355/1/5 351/1/5 354/1/5
f 356/1/5 353/1/5 352/1/5
f 357/1/5 353/1/5 356/1/5
f 359/4/5 348/4/5 347/4/5
f 360/4/5 348/4/5 359/4/5
f 362/4/5 359/4/5 358/4/5
f 362/4/5 361/4/5 360/4/5
f 362/4/5 360/4/5 359/4/5
f 363/4/5 361/4/5 362/4/5
f 368/1/5 365/1/5 364/1/5
f 369/1/5 365/1/5 368/1/5
f 370/1/5 367/1/5 366/1/5
f 371/1/5 367/1/5 370/1/5
f 376/4/5 373/4/5 372/4/5
f 377/4/5 373/4/5 376/4/5
f 378/4/5 375/4/5 374/4/5
f 379/4/5 375/4/5 378/4/5
f 380/4/5 378/4/5 377/4/5
f 381/4/5 378/4/5 380/4/5
f 386/4/5 383/4/5 382/4/5
f 387/4/5 383/4/5 386/4/5
f 388/4/5 385/4/5 384/4/5
f 389/4/5 385/4/5 388/4/5
f 394/4/5 391/4/5 390/4/5
f 395/4/5 391/4/5 394/4/5
f 396/4/5 393/4/5 392/4/5
f 397/4/5 393/4/5 396/4/5
f 400/4/5 399/4/5 398/4/5
f 401/4/5 399/4/5 400/4/5
f 402/4/5 399/4/5 401/4/5
f 403/2/6 404/2/6 407/2/6
f 404/5/6 405/5/6 408/5/6
f 407/2/6 404/2/6 408/2/6
f 405/2/6 406/2/6 409/2/6
f 408/5/6 405/5/6 409/5/6
f 409/2/6 406/2/6 410/2/6
f 411/2/6 412/2/6 415/2/6
f 415/2/6 412/2/6 416/2/6
f 413/2/6 414/2/6 417/2/6
f 417/2/6 414/2/6 418/2/6
f 419/2/6 420/2/6 423/2/6
f 423/2/6 420/2/6 424/2/6
f 421/2/6 422/2/6 425/2/6
f 425/2/6 422/2/6 426/2/6
f 429/4/6 430/4/6 431/4/6
f 431/4/6 430/4/6 432/4/6
f 433/1/6 434/1/6 437/1/6
f 437/1/6 434/1/6 438/1/6
f 427/4/6 428/4/6 439/4/6
f 439/4/6 428/4/6 440/4/6
f 435/4/6 436/4/6 441/4/6
f 441/4/6 436/4/6 442/4/6
f 443/4/6 444/4/6 445/4/6
f 445/4/6 444/4/6 446/4/6
f 447/4/6 448/4/6 449/4/6
f 449/4/6 450/4/6 453/4/6
f 451/4/6 452/4/6 454/4/6
f 447/4/6 449/4/6 455/4/6
f 453/4/6 454/4/6 455/4/6
f 449/4/6 453/4/6 455/4/6
f 454/4/6 452/4/6 456/4/6
f 455/4/6 454/4/6 456/4/6
