# MagicaVoxel @ Ephtracy

# material
mtllib chr_naked1.mtl
usemtl palette

# normals
vn -1 0 0
vn 1 0 0
vn 0 0 1
vn 0 0 -1
vn 0 -1 0
vn 0 1 0

# texcoords
vt 0.0332031 0.5
vt 0.0605469 0.5
vt 0.830078 0.5
vt 0.970703 0.5
vt 0.990234 0.5
vt 0.994141 0.5

# verts
v -4 2 1
v -4 2 -0
v -4 6 1
v -4 6 -0
v -4 7 1
v -4 7 -0
v -4 8 1
v -4 8 -0
v -4 8 -2
v -4 9 2
v -4 9 1
v -4 9 -1
v -4 9 -2
v -4 10 2
v -4 10 -1
v -3 1 2
v -3 1 -1
v -3 2 3
v -3 2 2
v -3 2 1
v -3 2 -0
v -3 2 -1
v -3 2 -2
v -3 3 3
v -3 3 1
v -3 3 -0
v -3 3 -2
v -3 6 3
v -3 6 2
v -3 6 1
v -3 6 -0
v -3 6 -1
v -3 6 -2
v -3 7 1
v -3 7 -0
v -3 7 -1
v -3 7 -2
v -3 8 1
v -3 8 -0
v -3 8 -1
v -3 8 -2
v -3 9 3
v -3 9 2
v -3 9 1
v -3 9 -1
v -3 9 -2
v -3 10 3
v -3 10 2
v -3 10 -1
v -3 10 -2
v -3 11 2
v -3 11 -1
v -2 0 1
v -2 0 -0
v -2 1 1
v -2 1 -0
v -2 6 -1
v -2 6 -2
v -2 7 -1
v -2 7 -2
v -2 7 -3
v -2 10 -1
v -2 10 -2
v -2 10 -3
v -2 11 -1
v -2 11 -2
v 1 0 1
v 1 0 -0
v 1 1 2
v 1 1 1
v 1 1 -0
v 1 1 -1
v 1 2 2
v 1 2 -1
v 1 9 3
v 1 9 2
v 1 10 3
v 1 10 2
v -2 9 3
v -2 9 2
v -2 10 3
v -2 10 2
v -1 0 1
v -1 0 -0
v -1 1 2
v -1 1 1
v -1 1 -0
v -1 1 -1
v -1 2 2
v -1 2 -1
v 2 0 1
v 2 0 -0
v 2 1 1
v 2 1 -0
v 2 6 -1
v 2 6 -2
v 2 7 -1
v 2 7 -2
v 2 7 -3
v 2 8 -2
v 2 8 -3
v 2 9 -2
v 2 9 -3
v 2 10 -2
v 2 10 -3
v 3 1 2
v 3 1 -1
v 3 2 3
v 3 2 2
v 3 2 1
v 3 2 -0
v 3 2 -1
v 3 2 -2
v 3 3 3
v 3 3 1
v 3 3 -0
v 3 3 -2
v 3 6 3
v 3 6 2
v 3 6 1
v 3 6 -0
v 3 6 -1
v 3 6 -2
v 3 7 1
v 3 7 -0
v 3 7 -1
v 3 7 -2
v 3 8 1
v 3 8 -2
v 3 8 -3
v 3 9 3
v 3 9 2
v 3 9 1
v 3 9 -2
v 3 9 -3
v 3 10 3
v 3 10 2
v 3 10 -0
v 3 11 2
v 3 11 -0
v 3 11 -1
v 3 11 -2
v 4 2 1
v 4 2 -0
v 4 6 1
v 4 6 -0
v 4 7 1
v 4 7 -0
v 4 7 -1
v 4 8 1
v 4 8 -0
v 4 9 2
v 4 9 1
v 4 10 2
v 4 10 -0
v 4 11 -0
v 4 11 -1
v -3 2 3
v -3 3 3
v -3 6 3
v -3 9 3
v -3 10 3
v -2 9 3
v -2 10 3
v 1 9 3
v 1 10 3
v 3 2 3
v 3 3 3
v 3 6 3
v 3 9 3
v 3 10 3
v -4 9 2
v -4 10 2
v -3 1 2
v -3 2 2
v -3 6 2
v -3 9 2
v -3 10 2
v -3 11 2
v -2 7 2
v -2 8 2
v -2 9 2
v -2 10 2
v -1 1 2
v -1 2 2
v -1 7 2
v -1 8 2
v 1 1 2
v 1 2 2
v 1 7 2
v 1 8 2
v 1 9 2
v 1 10 2
v 2 7 2
v 2 8 2
v 3 1 2
v 3 2 2
v 3 6 2
v 3 9 2
v 3 10 2
v 3 11 2
v 4 9 2
v 4 10 2
v -4 2 1
v -4 6 1
v -4 7 1
v -4 8 1
v -4 9 1
v -3 2 1
v -3 3 1
v -3 6 1
v -3 7 1
v -3 8 1
v -3 9 1
v -2 0 1
v -2 1 1
v -1 0 1
v -1 1 1
v 1 0 1
v 1 1 1
v 2 0 1
v 2 1 1
v 3 2 1
v 3 3 1
v 3 6 1
v 3 7 1
v 3 8 1
v 3 9 1
v 4 2 1
v 4 6 1
v 4 7 1
v 4 8 1
v 4 9 1
v 3 10 -0
v 3 11 -0
v 4 10 -0
v 4 11 -0
v -4 2 -0
v -4 6 -0
v -4 7 -0
v -4 8 -0
v -3 2 -0
v -3 3 -0
v -3 6 -0
v -3 7 -0
v -3 8 -0
v -2 0 -0
v -2 1 -0
v -1 0 -0
v -1 1 -0
v 1 0 -0
v 1 1 -0
v 2 0 -0
v 2 1 -0
v 3 2 -0
v 3 3 -0
v 3 6 -0
v 4 2 -0
v 4 6 -0
v -4 9 -1
v -4 10 -1
v -3 1 -1
v -3 2 -1
v -3 6 -1
v -3 7 -1
v -3 9 -1
v -3 10 -1
v -3 11 -1
v -2 6 -1
v -2 7 -1
v -2 10 -1
v -2 11 -1
v -1 1 -1
v -1 2 -1
v 1 1 -1
v 1 2 -1
v 2 6 -1
v 2 7 -1
v 3 1 -1
v 3 2 -1
v 3 6 -1
v 3 7 -1
v 3 11 -1
v 4 7 -1
v 4 11 -1
v -4 8 -2
v -4 9 -2
v -3 2 -2
v -3 3 -2
v -3 6 -2
v -3 7 -2
v -3 8 -2
v -3 9 -2
v -3 10 -2
v -2 6 -2
v -2 7 -2
v -2 10 -2
v -2 11 -2
v 2 6 -2
v 2 7 -2
v 2 8 -2
v 2 9 -2
v 2 10 -2
v 3 2 -2
v 3 3 -2
v 3 6 -2
v 3 7 -2
v 3 8 -2
v 3 9 -2
v 3 11 -2
v -2 7 -3
v -2 10 -3
v 2 7 -3
v 2 8 -3
v 2 9 -3
v 2 10 -3
v 3 8 -3
v 3 9 -3
v -2 0 1
v -1 0 1
v 1 0 1
v 2 0 1
v -2 0 -0
v -1 0 -0
v 1 0 -0
v 2 0 -0
v -3 1 2
v -1 1 2
v 1 1 2
v 3 1 2
v -2 1 1
v -1 1 1
v 1 1 1
v 2 1 1
v -2 1 -0
v -1 1 -0
v 1 1 -0
v 2 1 -0
v -3 1 -1
v -1 1 -1
v 1 1 -1
v 3 1 -1
v -3 2 3
v 3 2 3
v -3 2 2
v -1 2 2
v 1 2 2
v 3 2 2
v -4 2 1
v -3 2 1
v 3 2 1
v 4 2 1
v -4 2 -0
v -3 2 -0
v 3 2 -0
v 4 2 -0
v -3 2 -1
v -1 2 -1
v 1 2 -1
v 3 2 -1
v -3 2 -2
v 3 2 -2
v -4 7 1
v -3 7 1
v 3 7 1
v 4 7 1
v -4 7 -0
v -3 7 -0
v 3 7 -0
v 4 7 -0
v -3 7 -1
v -2 7 -1
v 2 7 -1
v 3 7 -1
v 4 7 -1
v -3 7 -2
v -2 7 -2
v 2 7 -2
v 3 7 -2
v -2 7 -3
v 2 7 -3
v -4 8 -0
v -3 8 -0
v -3 8 -1
v -4 8 -2
v -3 8 -2
v 2 8 -2
v 3 8 -2
v 2 8 -3
v 3 8 -3
v -3 9 3
v -2 9 3
v 1 9 3
v 3 9 3
v -4 9 2
v -3 9 2
v -2 9 2
v 1 9 2
v 3 9 2
v 4 9 2
v -4 9 1
v -3 9 1
v 3 9 1
v 4 9 1
v -3 6 3
v 3 6 3
v -3 6 2
v 3 6 2
v -4 6 1
v -3 6 1
v 3 6 1
v 4 6 1
v -4 6 -0
v -3 6 -0
v 3 6 -0
v 4 6 -0
v -3 6 -1
v -2 6 -1
v 2 6 -1
v 3 6 -1
v -3 6 -2
v -2 6 -2
v 2 6 -2
v 3 6 -2
v -4 9 -1
v -3 9 -1
v -4 9 -2
v -3 9 -2
v 2 9 -2
v 3 9 -2
v 2 9 -3
v 3 9 -3
v -3 10 3
v -2 10 3
v 1 10 3
v 3 10 3
v -4 10 2
v -3 10 2
v -2 10 2
v 1 10 2
v 3 10 2
v 4 10 2
v 3 10 -0
v 4 10 -0
v -4 10 -1
v -3 10 -1
v -2 10 -1
v -3 10 -2
v -2 10 -2
v 2 10 -2
v -2 10 -3
v 2 10 -3
v -3 11 2
v 3 11 2
v 3 11 -0
v 4 11 -0
v -3 11 -1
v -2 11 -1
v 3 11 -1
v 4 11 -1
v -2 11 -2
v 3 11 -2

# faces
f 3/1/1 2/1/1 1/1/1
f 4/1/1 2/1/1 3/1/1
f 7/2/1 6/2/1 5/2/1
f 8/2/1 6/2/1 7/2/1
f 11/5/1 8/5/1 7/5/1
f 11/5/1 9/5/1 8/5/1
f 12/5/1 9/5/1 11/5/1
f 13/5/1 9/5/1 12/5/1
f 14/5/1 11/5/1 10/5/1
f 14/5/1 12/5/1 11/5/1
f 15/5/1 12/5/1 14/5/1
f 19/4/1 17/4/1 16/4/1
f 20/4/1 17/4/1 19/4/1
f 21/4/1 17/4/1 20/4/1
f 22/4/1 17/4/1 21/4/1
f 24/4/1 19/4/1 18/4/1
f 24/4/1 20/4/1 19/4/1
f 25/4/1 20/4/1 24/4/1
f 26/4/1 23/4/1 22/4/1
f 26/4/1 22/4/1 21/4/1
f 27/4/1 23/4/1 26/4/1
f 28/1/1 25/1/1 24/1/1
f 29/1/1 25/1/1 28/1/1
f 30/1/1 25/1/1 29/1/1
f 31/1/1 27/1/1 26/1/1
f 32/1/1 27/1/1 31/1/1
f 33/1/1 27/1/1 32/1/1
f 34/1/1 30/1/1 29/1/1
f 34/1/1 32/1/1 31/1/1
f 34/1/1 31/1/1 30/1/1
f 35/1/1 32/1/1 34/1/1
f 36/1/1 32/1/1 35/1/1
f 38/1/1 34/1/1 29/1/1
f 39/1/1 36/1/1 35/1/1
f 40/5/1 37/5/1 36/5/1
f 40/1/1 36/1/1 39/1/1
f 41/5/1 37/5/1 40/5/1
f 43/1/1 38/1/1 29/1/1
f 44/1/1 38/1/1 43/1/1
f 47/5/1 43/5/1 42/5/1
f 48/5/1 43/5/1 47/5/1
f 49/5/1 46/5/1 45/5/1
f 50/5/1 46/5/1 49/5/1
f 51/5/1 49/5/1 48/5/1
f 52/5/1 49/5/1 51/5/1
f 55/3/1 54/3/1 53/3/1
f 56/3/1 54/3/1 55/3/1
f 59/1/1 58/1/1 57/1/1
f 60/1/1 58/1/1 59/1/1
f 63/5/1 61/5/1 60/5/1
f 64/5/1 61/5/1 63/5/1
f 65/5/1 63/5/1 62/5/1
f 66/5/1 63/5/1 65/5/1
f 70/3/1 68/3/1 67/3/1
f 71/3/1 68/3/1 70/3/1
f 73/4/1 70/4/1 69/4/1
f 73/4/1 72/4/1 71/4/1
f 73/4/1 71/4/1 70/4/1
f 74/4/1 72/4/1 73/4/1
f 77/5/1 76/5/1 75/5/1
f 78/5/1 76/5/1 77/5/1
f 79/5/2 80/5/2 81/5/2
f 81/5/2 80/5/2 82/5/2
f 83/3/2 84/3/2 86/3/2
f 86/3/2 84/3/2 87/3/2
f 85/4/2 86/4/2 89/4/2
f 87/4/2 88/4/2 89/4/2
f 86/4/2 87/4/2 89/4/2
f 89/4/2 88/4/2 90/4/2
f 91/3/2 92/3/2 93/3/2
f 93/3/2 92/3/2 94/3/2
f 95/1/2 96/1/2 97/1/2
f 97/1/2 96/1/2 98/1/2
f 98/5/2 99/5/2 100/5/2
f 100/5/2 99/5/2 101/5/2
f 102/5/2 103/5/2 104/5/2
f 104/5/2 103/5/2 105/5/2
f 106/4/2 107/4/2 109/4/2
f 109/4/2 107/4/2 110/4/2
f 110/4/2 107/4/2 111/4/2
f 111/4/2 107/4/2 112/4/2
f 108/4/2 109/4/2 114/4/2
f 109/4/2 110/4/2 114/4/2
f 114/4/2 110/4/2 115/4/2
f 112/4/2 113/4/2 116/4/2
f 111/4/2 112/4/2 116/4/2
f 116/4/2 113/4/2 117/4/2
f 114/1/2 115/1/2 118/1/2
f 118/1/2 115/1/2 119/1/2
f 119/1/2 115/1/2 120/1/2
f 116/1/2 117/1/2 121/1/2
f 121/1/2 117/1/2 122/1/2
f 122/1/2 117/1/2 123/1/2
f 119/1/2 120/1/2 124/1/2
f 121/1/2 122/1/2 124/1/2
f 120/1/2 121/1/2 124/1/2
f 124/1/2 122/1/2 125/1/2
f 125/1/2 122/1/2 126/1/2
f 119/1/2 124/1/2 128/1/2
f 126/5/2 127/5/2 129/5/2
f 119/1/2 128/1/2 132/1/2
f 132/1/2 128/1/2 133/1/2
f 126/5/2 129/5/2 134/5/2
f 129/5/2 130/5/2 134/5/2
f 134/5/2 130/5/2 135/5/2
f 131/5/2 132/5/2 136/5/2
f 136/5/2 132/5/2 137/5/2
f 137/5/2 138/5/2 139/5/2
f 139/5/2 138/5/2 140/5/2
f 126/5/2 134/5/2 141/5/2
f 141/5/2 134/5/2 142/5/2
f 143/1/2 144/1/2 145/1/2
f 145/1/2 144/1/2 146/1/2
f 147/2/2 148/2/2 150/2/2
f 148/5/2 149/5/2 151/5/2
f 150/2/2 148/2/2 151/2/2
f 150/5/2 151/5/2 153/5/2
f 152/5/2 153/5/2 154/5/2
f 151/5/2 149/5/2 155/5/2
f 154/5/2 153/5/2 155/5/2
f 153/5/2 151/5/2 155/5/2
f 155/5/2 149/5/2 156/5/2
f 156/5/2 149/5/2 157/5/2
f 163/5/3 162/5/3 161/5/3
f 164/5/3 162/5/3 163/5/3
f 167/4/3 159/4/3 158/4/3
f 168/1/3 160/1/3 159/1/3
f 168/4/3 159/4/3 167/4/3
f 169/1/3 160/1/3 168/1/3
f 170/5/3 166/5/3 165/5/3
f 171/5/3 166/5/3 170/5/3
f 177/5/3 173/5/3 172/5/3
f 178/5/3 173/5/3 177/5/3
f 180/1/3 177/1/3 176/1/3
f 181/1/3 177/1/3 180/1/3
f 182/1/3 177/1/3 181/1/3
f 183/5/3 179/5/3 178/5/3
f 184/4/3 175/4/3 174/4/3
f 185/4/3 175/4/3 184/4/3
f 186/1/3 180/1/3 176/1/3
f 186/6/3 181/6/3 180/6/3
f 187/1/3 183/1/3 182/1/3
f 187/6/3 181/6/3 186/6/3
f 187/1/3 182/1/3 181/1/3
f 190/1/3 186/1/3 176/1/3
f 190/1/3 187/1/3 186/1/3
f 191/1/3 183/1/3 187/1/3
f 191/1/3 187/1/3 190/1/3
f 192/1/3 183/1/3 191/1/3
f 193/5/3 179/5/3 183/5/3
f 193/1/3 183/1/3 192/1/3
f 194/1/3 190/1/3 176/1/3
f 194/6/3 191/6/3 190/6/3
f 195/1/3 192/1/3 191/1/3
f 195/6/3 191/6/3 194/6/3
f 196/4/3 189/4/3 188/4/3
f 197/4/3 189/4/3 196/4/3
f 198/1/3 194/1/3 176/1/3
f 198/1/3 195/1/3 194/1/3
f 199/1/3 192/1/3 195/1/3
f 199/1/3 195/1/3 198/1/3
f 200/5/3 179/5/3 193/5/3
f 201/5/3 179/5/3 200/5/3
f 202/5/3 200/5/3 199/5/3
f 203/5/3 200/5/3 202/5/3
f 209/1/3 205/1/3 204/1/3
f 210/1/3 205/1/3 209/1/3
f 211/1/3 205/1/3 210/1/3
f 212/2/3 207/2/3 206/2/3
f 213/5/3 208/5/3 207/5/3
f 213/2/3 207/2/3 212/2/3
f 214/5/3 208/5/3 213/5/3
f 217/3/3 216/3/3 215/3/3
f 218/3/3 216/3/3 217/3/3
f 221/3/3 220/3/3 219/3/3
f 222/3/3 220/3/3 221/3/3
f 229/1/3 224/1/3 223/1/3
f 229/1/3 225/1/3 224/1/3
f 230/1/3 225/1/3 229/1/3
f 231/2/3 227/2/3 226/2/3
f 232/5/3 228/5/3 227/5/3
f 232/2/3 227/2/3 231/2/3
f 233/5/3 228/5/3 232/5/3
f 236/5/3 235/5/3 234/5/3
f 237/5/3 235/5/3 236/5/3
f 238/1/4 239/1/4 242/1/4
f 242/1/4 239/1/4 243/1/4
f 243/1/4 239/1/4 244/1/4
f 240/2/4 241/2/4 245/2/4
f 245/2/4 241/2/4 246/2/4
f 247/3/4 248/3/4 249/3/4
f 249/3/4 248/3/4 250/3/4
f 251/3/4 252/3/4 253/3/4
f 253/3/4 252/3/4 254/3/4
f 255/1/4 256/1/4 258/1/4
f 256/1/4 257/1/4 258/1/4
f 258/1/4 257/1/4 259/1/4
f 260/5/4 261/5/4 266/5/4
f 266/5/4 261/5/4 267/5/4
f 264/1/4 265/1/4 269/1/4
f 269/1/4 265/1/4 270/1/4
f 267/5/4 268/5/4 271/5/4
f 271/5/4 268/5/4 272/5/4
f 262/4/4 263/4/4 273/4/4
f 273/4/4 263/4/4 274/4/4
f 275/4/4 276/4/4 279/4/4
f 279/4/4 276/4/4 280/4/4
f 277/1/4 278/1/4 281/1/4
f 281/1/4 278/1/4 282/1/4
f 282/5/4 283/5/4 284/5/4
f 284/5/4 283/5/4 285/5/4
f 286/5/4 287/5/4 292/5/4
f 292/5/4 287/5/4 293/5/4
f 289/1/4 290/1/4 295/1/4
f 293/5/4 294/5/4 296/5/4
f 291/5/4 292/5/4 296/5/4
f 292/5/4 293/5/4 296/5/4
f 296/5/4 294/5/4 297/5/4
f 289/1/4 295/1/4 299/1/4
f 295/1/4 296/1/4 299/1/4
f 299/1/4 296/1/4 300/1/4
f 297/5/4 298/5/4 303/5/4
f 288/4/4 289/4/4 304/4/4
f 289/1/4 299/1/4 305/1/4
f 304/4/4 289/4/4 305/4/4
f 305/1/4 299/1/4 306/1/4
f 300/5/4 301/5/4 307/5/4
f 307/5/4 301/5/4 308/5/4
f 302/5/4 303/5/4 309/5/4
f 303/5/4 298/5/4 310/5/4
f 309/5/4 303/5/4 310/5/4
f 311/5/4 312/5/4 313/5/4
f 313/5/4 312/5/4 314/5/4
f 314/5/4 312/5/4 315/5/4
f 315/5/4 312/5/4 316/5/4
f 314/5/4 315/5/4 317/5/4
f 317/5/4 315/5/4 318/5/4
f 323/3/5 320/3/5 319/3/5
f 324/3/5 320/3/5 323/3/5
f 325/3/5 322/3/5 321/3/5
f 326/3/5 322/3/5 325/3/5
f 331/4/5 328/4/5 327/4/5
f 332/4/5 328/4/5 331/4/5
f 333/4/5 330/4/5 329/4/5
f 334/4/5 330/4/5 333/4/5
f 335/4/5 331/4/5 327/4/5
f 338/4/5 330/4/5 334/4/5
f 339/4/5 336/4/5 335/4/5
f 339/4/5 335/4/5 327/4/5
f 340/4/5 336/4/5 339/4/5
f 341/4/5 338/4/5 337/4/5
f 342/4/5 330/4/5 338/4/5
f 342/4/5 338/4/5 341/4/5
f 345/4/5 344/4/5 343/4/5
f 346/4/5 344/4/5 345/4/5
f 347/4/5 344/4/5 346/4/5
f 348/4/5 344/4/5 347/4/5
f 353/1/5 350/1/5 349/1/5
f 354/1/5 350/1/5 353/1/5
f 355/1/5 352/1/5 351/1/5
f 356/1/5 352/1/5 355/1/5
f 358/4/5 347/4/5 346/4/5
f 359/4/5 347/4/5 358/4/5
f 361/4/5 358/4/5 357/4/5
f 361/4/5 360/4/5 359/4/5
f 361/4/5 359/4/5 358/4/5
f 362/4/5 360/4/5 361/4/5
f 367/2/5 364/2/5 363/2/5
f 368/2/5 364/2/5 367/2/5
f 369/2/5 366/2/5 365/2/5
f 370/2/5 366/2/5 369/2/5
f 374/5/5 370/5/5 369/5/5
f 375/5/5 370/5/5 374/5/5
f 376/5/5 372/5/5 371/5/5
f 377/5/5 372/5/5 376/5/5
f 378/5/5 374/5/5 373/5/5
f 379/5/5 374/5/5 378/5/5
f 380/5/5 378/5/5 377/5/5
f 381/5/5 378/5/5 380/5/5
f 384/5/5 383/5/5 382/5/5
f 385/5/5 384/5/5 382/5/5
f 386/5/5 384/5/5 385/5/5
f 389/5/5 388/5/5 387/5/5
f 390/5/5 388/5/5 389/5/5
f 396/5/5 392/5/5 391/5/5
f 397/5/5 392/5/5 396/5/5
f 398/5/5 394/5/5 393/5/5
f 399/5/5 394/5/5 398/5/5
f 401/5/5 396/5/5 395/5/5
f 402/5/5 396/5/5 401/5/5
f 403/5/5 400/5/5 399/5/5
f 404/5/5 400/5/5 403/5/5
f 405/1/6 406/1/6 407/1/6
f 407/1/6 406/1/6 408/1/6
f 409/1/6 410/1/6 413/1/6
f 413/1/6 410/1/6 414/1/6
f 411/1/6 412/1/6 415/1/6
f 415/1/6 412/1/6 416/1/6
f 417/1/6 418/1/6 421/1/6
f 421/1/6 418/1/6 422/1/6
f 419/1/6 420/1/6 423/1/6
f 423/1/6 420/1/6 424/1/6
f 425/5/6 426/5/6 427/5/6
f 427/5/6 426/5/6 428/5/6
f 429/5/6 430/5/6 431/5/6
f 431/5/6 430/5/6 432/5/6
f 433/5/6 434/5/6 438/5/6
f 438/5/6 434/5/6 439/5/6
f 435/5/6 436/5/6 440/5/6
f 440/5/6 436/5/6 441/5/6
f 441/5/6 442/5/6 443/5/6
f 443/5/6 442/5/6 444/5/6
f 437/5/6 438/5/6 445/5/6
f 445/5/6 438/5/6 446/5/6
f 446/5/6 447/5/6 448/5/6
f 448/5/6 447/5/6 449/5/6
f 449/5/6 450/5/6 451/5/6
f 451/5/6 450/5/6 452/5/6
f 453/5/6 454/5/6 455/5/6
f 453/5/6 455/5/6 457/5/6
f 455/5/6 456/5/6 457/5/6
f 457/5/6 456/5/6 458/5/6
f 458/5/6 456/5/6 459/5/6
f 459/5/6 456/5/6 460/5/6
f 458/5/6 459/5/6 461/5/6
f 461/5/6 459/5/6 462/5/6
