# MagicaVoxel @ Ephtracy

# material
mtllib chr_bridget.mtl
usemtl palette

# normals
vn -1 0 0
vn 1 0 0
vn 0 0 1
vn 0 0 -1
vn 0 -1 0
vn 0 1 0

# texcoords
vt 0.0332031 0.5
vt 0.228516 0.5
vt 0.642578 0.5
vt 0.986328 0.5
vt 0.990234 0.5
vt 0.994141 0.5

# verts
v -4.5 2 1.5
v -4.5 2 0.5
v -4.5 3 1.5
v -4.5 3 0.5
v -4.5 4 2.5
v -4.5 4 1.5
v -4.5 4 -0.5
v -4.5 4 -1.5
v -4.5 6 1.5
v -4.5 6 0.5
v -4.5 6 -0.5
v -4.5 7 -0.5
v -4.5 7 -1.5
v -4.5 9 -0.5
v -4.5 9 -1.5
v -4.5 10 2.5
v -4.5 10 -1.5
v -3.5 1 2.5
v -3.5 1 -0.5
v -3.5 2 3.5
v -3.5 2 2.5
v -3.5 2 1.5
v -3.5 2 0.5
v -3.5 2 -0.5
v -3.5 2 -1.5
v -3.5 3 3.5
v -3.5 3 1.5
v -3.5 3 0.5
v -3.5 3 -1.5
v -3.5 4 2.5
v -3.5 4 1.5
v -3.5 4 -0.5
v -3.5 4 -1.5
v -3.5 5 -1.5
v -3.5 5 -2.5
v -3.5 6 3.5
v -3.5 6 2.5
v -3.5 6 0.5
v -3.5 6 -0.5
v -3.5 7 -0.5
v -3.5 7 -1.5
v -3.5 7 -2.5
v -3.5 9 3.5
v -3.5 9 2.5
v -3.5 9 -0.5
v -3.5 9 -1.5
v -3.5 10 3.5
v -3.5 10 2.5
v -3.5 10 -0.5
v -3.5 11 2.5
v -3.5 11 -0.5
v -2.5 0 1.5
v -2.5 0 0.5
v -2.5 1 1.5
v -2.5 1 0.5
v -2.5 4 -1.5
v -2.5 4 -3.5
v -2.5 5 -1.5
v -2.5 5 -2.5
v -2.5 5 -3.5
v -2.5 7 -1.5
v -2.5 7 -2.5
v -2.5 10 -0.5
v -2.5 10 -1.5
v -2.5 10 -2.5
v -2.5 11 -0.5
v -2.5 11 -1.5
v -1.5 3 -1.5
v -1.5 3 -2.5
v -1.5 4 -1.5
v -1.5 4 -2.5
v -0.5 2 -1.5
v -0.5 2 -2.5
v -0.5 3 -1.5
v -0.5 3 -2.5
v 0.5 0 1.5
v 0.5 0 0.5
v 0.5 1 2.5
v 0.5 1 1.5
v 0.5 1 0.5
v 0.5 1 -0.5
v 0.5 2 2.5
v 0.5 2 -0.5
v 0.5 5 3.5
v 0.5 5 2.5
v 0.5 6 3.5
v 0.5 6 2.5
v 0.5 9 3.5
v 0.5 9 2.5
v 0.5 10 3.5
v 0.5 10 2.5
v -2.5 9 3.5
v -2.5 9 2.5
v -2.5 10 3.5
v -2.5 10 2.5
v -1.5 0 1.5
v -1.5 0 0.5
v -1.5 1 2.5
v -1.5 1 1.5
v -1.5 1 0.5
v -1.5 1 -0.5
v -1.5 2 2.5
v -1.5 2 -0.5
v -1.5 4 -2.5
v -1.5 4 -3.5
v -1.5 5 3.5
v -1.5 5 2.5
v -1.5 5 -2.5
v -1.5 5 -3.5
v -1.5 6 3.5
v -1.5 6 2.5
v -0.5 4 -1.5
v -0.5 4 -2.5
v -0.5 5 -1.5
v -0.5 5 -2.5
v 0.5 3 -1.5
v 0.5 3 -2.5
v 0.5 4 -1.5
v 0.5 4 -2.5
v 1.5 0 1.5
v 1.5 0 0.5
v 1.5 1 1.5
v 1.5 1 0.5
v 1.5 2 -1.5
v 1.5 2 -2.5
v 1.5 3 -1.5
v 1.5 3 -2.5
v 1.5 5 -1.5
v 1.5 5 -2.5
v 1.5 6 -1.5
v 1.5 10 -0.5
v 1.5 10 -1.5
v 1.5 10 -2.5
v 1.5 11 -0.5
v 1.5 11 -1.5
v 2.5 1 2.5
v 2.5 1 -0.5
v 2.5 2 3.5
v 2.5 2 2.5
v 2.5 2 1.5
v 2.5 2 0.5
v 2.5 2 -0.5
v 2.5 2 -1.5
v 2.5 3 3.5
v 2.5 3 1.5
v 2.5 3 0.5
v 2.5 3 -0.5
v 2.5 3 -1.5
v 2.5 5 2.5
v 2.5 5 1.5
v 2.5 5 0.5
v 2.5 6 3.5
v 2.5 6 2.5
v 2.5 6 1.5
v 2.5 6 0.5
v 2.5 6 -0.5
v 2.5 7 2.5
v 2.5 7 1.5
v 2.5 7 0.5
v 2.5 7 -0.5
v 2.5 8 -0.5
v 2.5 8 -1.5
v 2.5 10 2.5
v 2.5 10 1.5
v 2.5 10 0.5
v 2.5 10 -0.5
v 2.5 10 -1.5
v 2.5 11 2.5
v 2.5 11 1.5
v 2.5 11 0.5
v 2.5 11 -0.5
v 3.5 2 1.5
v 3.5 2 0.5
v 3.5 3 1.5
v 3.5 3 0.5
v 3.5 3 -0.5
v 3.5 3 -1.5
v 3.5 4 -0.5
v 3.5 4 -1.5
v 3.5 5 2.5
v 3.5 5 1.5
v 3.5 5 0.5
v 3.5 6 2.5
v 3.5 6 1.5
v 3.5 6 0.5
v 3.5 6 -0.5
v 3.5 6 -1.5
v 3.5 7 2.5
v 3.5 7 1.5
v 3.5 7 0.5
v 3.5 7 -0.5
v 3.5 8 -0.5
v 3.5 8 -1.5
v 3.5 9 3.5
v 3.5 9 2.5
v 3.5 10 3.5
v 3.5 10 1.5
v 3.5 10 0.5
v 3.5 10 -0.5
v 3.5 11 1.5
v 3.5 11 0.5
v 4.5 4 -0.5
v 4.5 4 -1.5
v 4.5 6 -0.5
v 4.5 6 -1.5
v -3.5 2 3.5
v -3.5 3 3.5
v -3.5 6 3.5
v -3.5 9 3.5
v -3.5 10 3.5
v -2.5 9 3.5
v -2.5 10 3.5
v -1.5 5 3.5
v -1.5 6 3.5
v 0.5 5 3.5
v 0.5 6 3.5
v 0.5 9 3.5
v 0.5 10 3.5
v 2.5 2 3.5
v 2.5 3 3.5
v 2.5 6 3.5
v 3.5 9 3.5
v 3.5 10 3.5
v -4.5 4 2.5
v -4.5 10 2.5
v -3.5 1 2.5
v -3.5 2 2.5
v -3.5 4 2.5
v -3.5 6 2.5
v -3.5 9 2.5
v -3.5 10 2.5
v -3.5 11 2.5
v -2.5 7 2.5
v -2.5 8 2.5
v -2.5 9 2.5
v -2.5 10 2.5
v -1.5 1 2.5
v -1.5 2 2.5
v -1.5 5 2.5
v -1.5 6 2.5
v -1.5 7 2.5
v -1.5 8 2.5
v 0.5 1 2.5
v 0.5 2 2.5
v 0.5 5 2.5
v 0.5 6 2.5
v 0.5 7 2.5
v 0.5 8 2.5
v 0.5 9 2.5
v 0.5 10 2.5
v 1.5 7 2.5
v 1.5 8 2.5
v 2.5 1 2.5
v 2.5 2 2.5
v 2.5 5 2.5
v 2.5 6 2.5
v 2.5 7 2.5
v 2.5 9 2.5
v 2.5 10 2.5
v 2.5 11 2.5
v 3.5 5 2.5
v 3.5 6 2.5
v 3.5 7 2.5
v 3.5 9 2.5
v -4.5 2 1.5
v -4.5 3 1.5
v -4.5 4 1.5
v -3.5 2 1.5
v -3.5 3 1.5
v -3.5 4 1.5
v -2.5 0 1.5
v -2.5 1 1.5
v -1.5 0 1.5
v -1.5 1 1.5
v 0.5 0 1.5
v 0.5 1 1.5
v 1.5 0 1.5
v 1.5 1 1.5
v 2.5 2 1.5
v 2.5 3 1.5
v 2.5 5 1.5
v 2.5 6 1.5
v 2.5 7 1.5
v 2.5 10 1.5
v 2.5 11 1.5
v 3.5 2 1.5
v 3.5 3 1.5
v 3.5 5 1.5
v 3.5 6 1.5
v 3.5 7 1.5
v 3.5 10 1.5
v 3.5 11 1.5
v -4.5 4 -0.5
v -4.5 6 -0.5
v -3.5 4 -0.5
v -3.5 6 -0.5
v 2.5 3 -0.5
v 2.5 6 -0.5
v 2.5 7 -0.5
v 3.5 3 -0.5
v 3.5 4 -0.5
v 3.5 6 -0.5
v 3.5 7 -0.5
v 4.5 4 -0.5
v 4.5 6 -0.5
v -4.5 2 0.5
v -4.5 3 0.5
v -4.5 6 0.5
v -3.5 2 0.5
v -3.5 3 0.5
v -3.5 6 0.5
v -2.5 0 0.5
v -2.5 1 0.5
v -1.5 0 0.5
v -1.5 1 0.5
v 0.5 0 0.5
v 0.5 1 0.5
v 1.5 0 0.5
v 1.5 1 0.5
v 2.5 2 0.5
v 2.5 3 0.5
v 2.5 5 0.5
v 2.5 6 0.5
v 2.5 7 0.5
v 2.5 10 0.5
v 2.5 11 0.5
v 3.5 2 0.5
v 3.5 3 0.5
v 3.5 5 0.5
v 3.5 6 0.5
v 3.5 7 0.5
v 3.5 10 0.5
v 3.5 11 0.5
v -4.5 7 -0.5
v -4.5 9 -0.5
v -3.5 1 -0.5
v -3.5 2 -0.5
v -3.5 7 -0.5
v -3.5 9 -0.5
v -3.5 10 -0.5
v -3.5 11 -0.5
v -2.5 10 -0.5
v -2.5 11 -0.5
v -1.5 1 -0.5
v -1.5 2 -0.5
v 0.5 1 -0.5
v 0.5 2 -0.5
v 1.5 10 -0.5
v 1.5 11 -0.5
v 2.5 1 -0.5
v 2.5 2 -0.5
v 2.5 8 -0.5
v 2.5 10 -0.5
v 2.5 11 -0.5
v 3.5 8 -0.5
v 3.5 10 -0.5
v -4.5 4 -1.5
v -4.5 7 -1.5
v -4.5 9 -1.5
v -4.5 10 -1.5
v -3.5 2 -1.5
v -3.5 3 -1.5
v -3.5 4 -1.5
v -3.5 5 -1.5
v -3.5 7 -1.5
v -3.5 9 -1.5
v -2.5 4 -1.5
v -2.5 5 -1.5
v -2.5 7 -1.5
v -2.5 10 -1.5
v -2.5 11 -1.5
v -1.5 3 -1.5
v -1.5 4 -1.5
v -0.5 2 -1.5
v -0.5 3 -1.5
v -0.5 4 -1.5
v -0.5 5 -1.5
v 0.5 3 -1.5
v 0.5 4 -1.5
v 1.5 2 -1.5
v 1.5 3 -1.5
v 1.5 5 -1.5
v 1.5 6 -1.5
v 1.5 10 -1.5
v 1.5 11 -1.5
v 2.5 2 -1.5
v 2.5 3 -1.5
v 2.5 6 -1.5
v 2.5 8 -1.5
v 2.5 10 -1.5
v 3.5 3 -1.5
v 3.5 4 -1.5
v 3.5 6 -1.5
v 3.5 8 -1.5
v 4.5 4 -1.5
v 4.5 6 -1.5
v -3.5 5 -2.5
v -3.5 7 -2.5
v -2.5 5 -2.5
v -2.5 7 -2.5
v -2.5 10 -2.5
v -1.5 3 -2.5
v -1.5 4 -2.5
v -1.5 5 -2.5
v -0.5 2 -2.5
v -0.5 3 -2.5
v -0.5 4 -2.5
v -0.5 5 -2.5
v 0.5 3 -2.5
v 0.5 4 -2.5
v 1.5 2 -2.5
v 1.5 3 -2.5
v 1.5 5 -2.5
v 1.5 10 -2.5
v -2.5 4 -3.5
v -2.5 5 -3.5
v -1.5 4 -3.5
v -1.5 5 -3.5
v -2.5 0 1.5
v -1.5 0 1.5
v 0.5 0 1.5
v 1.5 0 1.5
v -2.5 0 0.5
v -1.5 0 0.5
v 0.5 0 0.5
v 1.5 0 0.5
v -3.5 1 2.5
v -1.5 1 2.5
v 0.5 1 2.5
v 2.5 1 2.5
v -2.5 1 1.5
v -1.5 1 1.5
v 0.5 1 1.5
v 1.5 1 1.5
v -2.5 1 0.5
v -1.5 1 0.5
v 0.5 1 0.5
v 1.5 1 0.5
v -3.5 1 -0.5
v -1.5 1 -0.5
v 0.5 1 -0.5
v 2.5 1 -0.5
v -3.5 2 3.5
v 2.5 2 3.5
v -3.5 2 2.5
v -1.5 2 2.5
v 0.5 2 2.5
v 2.5 2 2.5
v -4.5 2 1.5
v -3.5 2 1.5
v 2.5 2 1.5
v 3.5 2 1.5
v -4.5 2 0.5
v -3.5 2 0.5
v 2.5 2 0.5
v 3.5 2 0.5
v -3.5 2 -0.5
v -1.5 2 -0.5
v 0.5 2 -0.5
v 2.5 2 -0.5
v -3.5 2 -1.5
v -0.5 2 -1.5
v 1.5 2 -1.5
v 2.5 2 -1.5
v -0.5 2 -2.5
v 1.5 2 -2.5
v 2.5 3 -0.5
v 3.5 3 -0.5
v -1.5 3 -1.5
v -0.5 3 -1.5
v 2.5 3 -1.5
v 3.5 3 -1.5
v -1.5 3 -2.5
v -0.5 3 -2.5
v -4.5 4 2.5
v -3.5 4 2.5
v -4.5 4 1.5
v -3.5 4 1.5
v -4.5 4 -0.5
v -3.5 4 -0.5
v 3.5 4 -0.5
v 4.5 4 -0.5
v -4.5 4 -1.5
v -3.5 4 -1.5
v -2.5 4 -1.5
v -1.5 4 -1.5
v 3.5 4 -1.5
v 4.5 4 -1.5
v -1.5 4 -2.5
v -2.5 4 -3.5
v -1.5 4 -3.5
v 2.5 5 2.5
v 3.5 5 2.5
v 2.5 5 1.5
v 3.5 5 1.5
v -3.5 5 -1.5
v -2.5 5 -1.5
v -0.5 5 -1.5
v 1.5 5 -1.5
v -3.5 5 -2.5
v -2.5 5 -2.5
v -0.5 5 -2.5
v 1.5 5 -2.5
v -4.5 6 0.5
v -3.5 6 0.5
v -4.5 6 -0.5
v -3.5 6 -0.5
v 2.5 7 2.5
v 3.5 7 2.5
v 2.5 7 1.5
v 3.5 7 1.5
v 2.5 7 0.5
v 3.5 7 0.5
v 2.5 7 -0.5
v 3.5 7 -0.5
v -3.5 9 3.5
v -2.5 9 3.5
v 0.5 9 3.5
v 3.5 9 3.5
v -3.5 9 2.5
v -2.5 9 2.5
v 0.5 9 2.5
v 2.5 9 2.5
v 3.5 9 2.5
v -4.5 9 -0.5
v -3.5 9 -0.5
v -4.5 9 -1.5
v -3.5 9 -1.5
v 0.5 3 -1.5
v 1.5 3 -1.5
v 0.5 3 -2.5
v 1.5 3 -2.5
v -0.5 4 -1.5
v 0.5 4 -1.5
v -0.5 4 -2.5
v 0.5 4 -2.5
v -1.5 5 3.5
v 0.5 5 3.5
v -1.5 5 2.5
v 0.5 5 2.5
v -2.5 5 -2.5
v -1.5 5 -2.5
v -2.5 5 -3.5
v -1.5 5 -3.5
v -3.5 6 3.5
v -1.5 6 3.5
v 0.5 6 3.5
v 2.5 6 3.5
v -3.5 6 2.5
v -1.5 6 2.5
v 0.5 6 2.5
v 2.5 6 2.5
v 3.5 6 2.5
v 2.5 6 1.5
v 3.5 6 1.5
v 3.5 6 -0.5
v 4.5 6 -0.5
v 3.5 6 -1.5
v 4.5 6 -1.5
v -4.5 7 -0.5
v -3.5 7 -0.5
v -4.5 7 -1.5
v -3.5 7 -1.5
v -2.5 7 -1.5
v -3.5 7 -2.5
v -2.5 7 -2.5
v 2.5 8 -0.5
v 3.5 8 -0.5
v 2.5 8 -1.5
v 3.5 8 -1.5
v -3.5 10 3.5
v -2.5 10 3.5
v 0.5 10 3.5
v 3.5 10 3.5
v -4.5 10 2.5
v -3.5 10 2.5
v -2.5 10 2.5
v 0.5 10 2.5
v 2.5 10 2.5
v 2.5 10 1.5
v 3.5 10 1.5
v 2.5 10 0.5
v 3.5 10 0.5
v -3.5 10 -0.5
v -2.5 10 -0.5
v 1.5 10 -0.5
v 2.5 10 -0.5
v 3.5 10 -0.5
v -4.5 10 -1.5
v -2.5 10 -1.5
v 1.5 10 -1.5
v 2.5 10 -1.5
v -2.5 10 -2.5
v 1.5 10 -2.5
v -3.5 11 2.5
v 2.5 11 2.5
v 2.5 11 1.5
v 3.5 11 1.5
v 2.5 11 0.5
v 3.5 11 0.5
v -3.5 11 -0.5
v -2.5 11 -0.5
v 1.5 11 -0.5
v 2.5 11 -0.5
v -2.5 11 -1.5
v 1.5 11 -1.5

# faces
f 3/1/1 2/1/1 1/1/1
f 4/1/1 2/1/1 3/1/1
f 6/3/1 4/3/1 3/3/1
f 9/2/1 6/2/1 5/2/1
f 9/3/1 4/3/1 6/3/1
f 10/3/1 4/3/1 9/3/1
f 11/2/1 8/2/1 7/2/1
f 12/2/1 10/2/1 9/2/1
f 12/2/1 11/2/1 10/2/1
f 12/2/1 8/2/1 11/2/1
f 13/2/1 8/2/1 12/2/1
f 14/2/1 12/2/1 9/2/1
f 16/2/1 9/2/1 5/2/1
f 16/2/1 15/2/1 14/2/1
f 16/2/1 14/2/1 9/2/1
f 17/2/1 15/2/1 16/2/1
f 21/5/1 19/5/1 18/5/1
f 22/5/1 19/5/1 21/5/1
f 23/5/1 19/5/1 22/5/1
f 24/5/1 19/5/1 23/5/1
f 26/5/1 21/5/1 20/5/1
f 26/5/1 22/5/1 21/5/1
f 27/5/1 22/5/1 26/5/1
f 28/5/1 25/5/1 24/5/1
f 28/5/1 24/5/1 23/5/1
f 29/5/1 25/5/1 28/5/1
f 30/3/1 27/3/1 26/3/1
f 31/3/1 27/3/1 30/3/1
f 32/3/1 29/3/1 28/3/1
f 33/3/1 29/3/1 32/3/1
f 36/3/1 30/3/1 26/3/1
f 37/3/1 30/3/1 36/3/1
f 38/3/1 32/3/1 28/3/1
f 39/3/1 32/3/1 38/3/1
f 41/2/1 35/2/1 34/2/1
f 42/2/1 35/2/1 41/2/1
f 45/2/1 41/2/1 40/2/1
f 46/2/1 41/2/1 45/2/1
f 47/2/1 44/2/1 43/2/1
f 48/2/1 44/2/1 47/2/1
f 50/2/1 49/2/1 48/2/1
f 51/2/1 49/2/1 50/2/1
f 54/5/1 53/5/1 52/5/1
f 55/5/1 53/5/1 54/5/1
f 58/2/1 57/2/1 56/2/1
f 59/2/1 57/2/1 58/2/1
f 60/2/1 57/2/1 59/2/1
f 64/2/1 62/2/1 61/2/1
f 65/2/1 62/2/1 64/2/1
f 66/2/1 64/2/1 63/2/1
f 67/2/1 64/2/1 66/2/1
f 70/2/1 69/2/1 68/2/1
f 71/2/1 69/2/1 70/2/1
f 74/2/1 73/2/1 72/2/1
f 75/2/1 73/2/1 74/2/1
f 79/5/1 77/5/1 76/5/1
f 80/5/1 77/5/1 79/5/1
f 82/5/1 79/5/1 78/5/1
f 82/5/1 81/5/1 80/5/1
f 82/5/1 80/5/1 79/5/1
f 83/5/1 81/5/1 82/5/1
f 86/3/1 85/3/1 84/3/1
f 87/3/1 85/3/1 86/3/1
f 90/2/1 89/2/1 88/2/1
f 91/2/1 89/2/1 90/2/1
f 92/2/2 93/2/2 94/2/2
f 94/2/2 93/2/2 95/2/2
f 96/5/2 97/5/2 99/5/2
f 99/5/2 97/5/2 100/5/2
f 98/5/2 99/5/2 102/5/2
f 100/5/2 101/5/2 102/5/2
f 99/5/2 100/5/2 102/5/2
f 102/5/2 101/5/2 103/5/2
f 104/2/2 105/2/2 108/2/2
f 108/2/2 105/2/2 109/2/2
f 106/3/2 107/3/2 110/3/2
f 110/3/2 107/3/2 111/3/2
f 112/2/2 113/2/2 114/2/2
f 114/2/2 113/2/2 115/2/2
f 116/2/2 117/2/2 118/2/2
f 118/2/2 117/2/2 119/2/2
f 120/5/2 121/5/2 122/5/2
f 122/5/2 121/5/2 123/5/2
f 124/2/2 125/2/2 126/2/2
f 126/2/2 125/2/2 127/2/2
f 128/2/2 129/2/2 130/2/2
f 130/2/2 129/2/2 132/2/2
f 132/2/2 129/2/2 133/2/2
f 131/2/2 132/2/2 134/2/2
f 134/2/2 132/2/2 135/2/2
f 136/5/2 137/5/2 139/5/2
f 139/5/2 137/5/2 140/5/2
f 140/5/2 137/5/2 141/5/2
f 141/5/2 137/5/2 142/5/2
f 138/5/2 139/5/2 144/5/2
f 139/5/2 140/5/2 144/5/2
f 144/5/2 140/5/2 145/5/2
f 142/5/2 143/5/2 146/5/2
f 141/5/2 142/5/2 146/5/2
f 146/5/2 143/5/2 147/5/2
f 147/5/2 143/5/2 148/5/2
f 144/3/2 145/3/2 149/3/2
f 149/3/2 145/3/2 150/3/2
f 146/3/2 147/3/2 151/3/2
f 144/3/2 149/3/2 152/3/2
f 152/3/2 149/3/2 153/3/2
f 151/3/2 147/3/2 155/3/2
f 155/3/2 147/3/2 156/3/2
f 153/1/2 154/1/2 157/1/2
f 157/1/2 154/1/2 158/1/2
f 155/1/2 156/1/2 159/1/2
f 159/1/2 156/1/2 160/1/2
f 161/2/2 162/2/2 166/2/2
f 166/2/2 162/2/2 167/2/2
f 163/2/2 164/2/2 168/2/2
f 168/2/2 164/2/2 169/2/2
f 165/2/2 166/2/2 170/2/2
f 170/2/2 166/2/2 171/2/2
f 172/1/2 173/1/2 174/1/2
f 174/1/2 173/1/2 175/1/2
f 176/2/2 177/2/2 178/2/2
f 178/2/2 177/2/2 179/2/2
f 174/3/2 175/3/2 181/3/2
f 181/3/2 175/3/2 182/3/2
f 180/2/2 181/2/2 183/2/2
f 181/4/2 182/4/2 184/4/2
f 183/2/2 181/2/2 184/2/2
f 184/4/2 182/4/2 185/4/2
f 184/2/2 185/2/2 189/2/2
f 189/2/2 185/2/2 190/2/2
f 186/2/2 187/2/2 191/2/2
f 189/2/2 190/2/2 192/2/2
f 190/2/2 191/2/2 192/2/2
f 191/2/2 187/2/2 192/2/2
f 188/2/2 189/2/2 192/2/2
f 192/2/2 187/2/2 193/2/2
f 188/2/2 192/2/2 195/2/2
f 194/2/2 195/2/2 196/2/2
f 195/2/2 192/2/2 197/2/2
f 196/2/2 195/2/2 197/2/2
f 197/2/2 192/2/2 198/2/2
f 198/2/2 192/2/2 199/2/2
f 197/2/2 198/2/2 200/2/2
f 200/2/2 198/2/2 201/2/2
f 202/2/2 203/2/2 204/2/2
f 204/2/2 203/2/2 205/2/2
f 211/2/3 210/2/3 209/2/3
f 212/2/3 210/2/3 211/2/3
f 213/3/3 208/3/3 207/3/3
f 214/3/3 208/3/3 213/3/3
f 215/3/3 213/3/3 207/3/3
f 219/5/3 207/5/3 206/5/3
f 220/3/3 216/3/3 215/3/3
f 220/5/3 207/5/3 219/5/3
f 220/3/3 215/3/3 207/3/3
f 221/3/3 216/3/3 220/3/3
f 222/2/3 218/2/3 217/2/3
f 223/2/3 218/2/3 222/2/3
f 228/2/3 225/2/3 224/2/3
f 229/2/3 225/2/3 228/2/3
f 230/2/3 225/2/3 229/2/3
f 231/2/3 225/2/3 230/2/3
f 233/1/3 230/1/3 229/1/3
f 234/1/3 230/1/3 233/1/3
f 235/1/3 230/1/3 234/1/3
f 236/2/3 232/2/3 231/2/3
f 237/5/3 227/5/3 226/5/3
f 238/5/3 227/5/3 237/5/3
f 240/1/3 233/1/3 229/1/3
f 241/6/3 234/6/3 233/6/3
f 241/1/3 233/1/3 240/1/3
f 242/1/3 236/1/3 235/1/3
f 242/6/3 234/6/3 241/6/3
f 242/1/3 235/1/3 234/1/3
f 245/1/3 241/1/3 240/1/3
f 245/1/3 240/1/3 239/1/3
f 245/1/3 242/1/3 241/1/3
f 246/1/3 242/1/3 245/1/3
f 247/1/3 242/1/3 246/1/3
f 248/1/3 236/1/3 242/1/3
f 248/1/3 242/1/3 247/1/3
f 249/1/3 236/1/3 248/1/3
f 250/2/3 232/2/3 236/2/3
f 250/1/3 236/1/3 249/1/3
f 251/1/3 247/1/3 246/1/3
f 251/6/3 248/6/3 247/6/3
f 252/1/3 249/1/3 248/1/3
f 252/6/3 248/6/3 251/6/3
f 253/5/3 244/5/3 243/5/3
f 254/5/3 244/5/3 253/5/3
f 256/1/3 251/1/3 246/1/3
f 256/1/3 252/1/3 251/1/3
f 257/1/3 252/1/3 256/1/3
f 258/1/3 249/1/3 252/1/3
f 258/1/3 252/1/3 257/1/3
f 259/2/3 232/2/3 250/2/3
f 260/2/3 232/2/3 259/2/3
f 261/2/3 256/2/3 255/2/3
f 262/2/3 256/2/3 261/2/3
f 263/2/3 258/2/3 257/2/3
f 264/2/3 258/2/3 263/2/3
f 268/1/3 266/1/3 265/1/3
f 269/3/3 267/3/3 266/3/3
f 269/1/3 266/1/3 268/1/3
f 270/3/3 267/3/3 269/3/3
f 273/5/3 272/5/3 271/5/3
f 274/5/3 272/5/3 273/5/3
f 277/5/3 276/5/3 275/5/3
f 278/5/3 276/5/3 277/5/3
f 286/1/3 280/1/3 279/1/3
f 287/3/3 281/3/3 280/3/3
f 287/1/3 280/1/3 286/1/3
f 288/3/3 281/3/3 287/3/3
f 289/2/3 283/2/3 282/2/3
f 290/2/3 283/2/3 289/2/3
f 291/2/3 285/2/3 284/2/3
f 292/2/3 285/2/3 291/2/3
f 295/2/3 294/2/3 293/2/3
f 296/2/3 294/2/3 295/2/3
f 300/2/3 298/2/3 297/2/3
f 300/2/3 299/2/3 298/2/3
f 301/2/3 299/2/3 300/2/3
f 302/2/3 299/2/3 301/2/3
f 303/2/3 299/2/3 302/2/3
f 304/2/3 302/2/3 301/2/3
f 305/2/3 302/2/3 304/2/3
f 306/1/4 307/1/4 309/1/4
f 307/3/4 308/3/4 310/3/4
f 309/1/4 307/1/4 310/1/4
f 310/3/4 308/3/4 311/3/4
f 312/5/4 313/5/4 314/5/4
f 314/5/4 313/5/4 315/5/4
f 316/5/4 317/5/4 318/5/4
f 318/5/4 317/5/4 319/5/4
f 320/1/4 321/1/4 327/1/4
f 321/3/4 322/3/4 328/3/4
f 327/1/4 321/1/4 328/1/4
f 322/4/4 323/4/4 329/4/4
f 328/3/4 322/3/4 329/3/4
f 323/2/4 324/2/4 330/2/4
f 329/4/4 323/4/4 330/4/4
f 330/2/4 324/2/4 331/2/4
f 325/2/4 326/2/4 332/2/4
f 332/2/4 326/2/4 333/2/4
f 334/2/4 335/2/4 338/2/4
f 338/2/4 335/2/4 339/2/4
f 340/2/4 341/2/4 342/2/4
f 342/2/4 341/2/4 343/2/4
f 336/5/4 337/5/4 344/5/4
f 344/5/4 337/5/4 345/5/4
f 346/5/4 347/5/4 350/5/4
f 350/5/4 347/5/4 351/5/4
f 348/2/4 349/2/4 353/2/4
f 353/2/4 349/2/4 354/2/4
f 352/2/4 353/2/4 355/2/4
f 355/2/4 353/2/4 356/2/4
f 357/2/4 358/2/4 363/2/4
f 363/2/4 358/2/4 364/2/4
f 364/2/4 358/2/4 365/2/4
f 359/2/4 360/2/4 366/2/4
f 362/3/4 363/3/4 367/3/4
f 363/3/4 364/3/4 367/3/4
f 367/3/4 364/3/4 368/3/4
f 365/2/4 366/2/4 369/2/4
f 366/2/4 360/2/4 370/2/4
f 369/2/4 366/2/4 370/2/4
f 361/5/4 362/5/4 372/5/4
f 362/3/4 367/3/4 372/3/4
f 372/3/4 367/3/4 373/3/4
f 361/5/4 372/5/4 374/5/4
f 374/5/4 372/5/4 375/5/4
f 376/3/4 377/3/4 379/3/4
f 378/3/4 379/3/4 381/3/4
f 379/3/4 377/3/4 382/3/4
f 381/3/4 379/3/4 382/3/4
f 370/2/4 371/2/4 384/2/4
f 384/2/4 371/2/4 385/2/4
f 380/5/4 381/5/4 386/5/4
f 382/3/4 383/3/4 387/3/4
f 386/5/4 381/5/4 387/5/4
f 381/3/4 382/3/4 387/3/4
f 383/2/4 384/2/4 388/2/4
f 387/3/4 383/3/4 388/3/4
f 388/2/4 384/2/4 389/2/4
f 389/2/4 384/2/4 390/2/4
f 387/2/4 388/2/4 391/2/4
f 388/2/4 389/2/4 391/2/4
f 391/2/4 389/2/4 392/2/4
f 392/2/4 389/2/4 393/2/4
f 393/2/4 389/2/4 394/2/4
f 392/2/4 393/2/4 395/2/4
f 395/2/4 393/2/4 396/2/4
f 397/2/4 398/2/4 399/2/4
f 399/2/4 398/2/4 400/2/4
f 399/2/4 400/2/4 404/2/4
f 400/2/4 401/2/4 404/2/4
f 402/2/4 403/2/4 406/2/4
f 403/2/4 404/2/4 406/2/4
f 406/2/4 404/2/4 407/2/4
f 404/2/4 401/2/4 408/2/4
f 407/2/4 404/2/4 408/2/4
f 406/2/4 407/2/4 409/2/4
f 405/2/4 406/2/4 409/2/4
f 409/2/4 407/2/4 410/2/4
f 405/2/4 409/2/4 411/2/4
f 411/2/4 409/2/4 412/2/4
f 408/2/4 401/2/4 413/2/4
f 413/2/4 401/2/4 414/2/4
f 415/2/4 416/2/4 417/2/4
f 417/2/4 416/2/4 418/2/4
f 423/5/5 420/5/5 419/5/5
f 424/5/5 420/5/5 423/5/5
f 425/5/5 422/5/5 421/5/5
f 426/5/5 422/5/5 425/5/5
f 431/5/5 428/5/5 427/5/5
f 432/5/5 428/5/5 431/5/5
f 433/5/5 430/5/5 429/5/5
f 434/5/5 430/5/5 433/5/5
f 435/5/5 431/5/5 427/5/5
f 438/5/5 430/5/5 434/5/5
f 439/5/5 436/5/5 435/5/5
f 439/5/5 435/5/5 427/5/5
f 440/5/5 436/5/5 439/5/5
f 441/5/5 438/5/5 437/5/5
f 442/5/5 430/5/5 438/5/5
f 442/5/5 438/5/5 441/5/5
f 445/5/5 444/5/5 443/5/5
f 446/5/5 444/5/5 445/5/5
f 447/5/5 444/5/5 446/5/5
f 448/5/5 444/5/5 447/5/5
f 453/1/5 450/1/5 449/1/5
f 454/1/5 450/1/5 453/1/5
f 455/1/5 452/1/5 451/1/5
f 456/1/5 452/1/5 455/1/5
f 458/5/5 447/5/5 446/5/5
f 459/5/5 447/5/5 458/5/5
f 461/5/5 458/5/5 457/5/5
f 461/5/5 460/5/5 459/5/5
f 461/5/5 459/5/5 458/5/5
f 462/5/5 460/5/5 461/5/5
f 463/5/5 460/5/5 462/5/5
f 464/5/5 460/5/5 463/5/5
f 465/2/5 463/2/5 462/2/5
f 466/2/5 463/2/5 465/2/5
f 471/2/5 468/2/5 467/2/5
f 472/2/5 468/2/5 471/2/5
f 473/2/5 470/2/5 469/2/5
f 474/2/5 470/2/5 473/2/5
f 477/2/5 476/2/5 475/2/5
f 478/2/5 476/2/5 477/2/5
f 483/2/5 480/2/5 479/2/5
f 484/2/5 480/2/5 483/2/5
f 487/2/5 482/2/5 481/2/5
f 488/2/5 482/2/5 487/2/5
f 489/2/5 486/2/5 485/2/5
f 490/2/5 489/2/5 485/2/5
f 491/2/5 489/2/5 490/2/5
f 494/2/5 493/2/5 492/2/5
f 495/2/5 493/2/5 494/2/5
f 500/2/5 497/2/5 496/2/5
f 501/2/5 497/2/5 500/2/5
f 502/2/5 499/2/5 498/2/5
f 503/2/5 499/2/5 502/2/5
f 506/2/5 505/2/5 504/2/5
f 507/2/5 505/2/5 506/2/5
f 510/2/5 509/2/5 508/2/5
f 511/2/5 509/2/5 510/2/5
f 514/2/5 513/2/5 512/2/5
f 515/2/5 513/2/5 514/2/5
f 520/2/5 517/2/5 516/2/5
f 521/2/5 517/2/5 520/2/5
f 522/2/5 519/2/5 518/2/5
f 523/2/5 519/2/5 522/2/5
f 524/2/5 519/2/5 523/2/5
f 527/2/5 526/2/5 525/2/5
f 528/2/5 526/2/5 527/2/5
f 529/2/6 530/2/6 531/2/6
f 531/2/6 530/2/6 532/2/6
f 533/2/6 534/2/6 535/2/6
f 535/2/6 534/2/6 536/2/6
f 537/3/6 538/3/6 539/3/6
f 539/3/6 538/3/6 540/3/6
f 541/2/6 542/2/6 543/2/6
f 543/2/6 542/2/6 544/2/6
f 545/3/6 546/3/6 549/3/6
f 549/3/6 546/3/6 550/3/6
f 547/3/6 548/3/6 551/3/6
f 551/3/6 548/3/6 552/3/6
f 552/2/6 553/2/6 554/2/6
f 554/2/6 553/2/6 555/2/6
f 556/2/6 557/2/6 558/2/6
f 558/2/6 557/2/6 559/2/6
f 560/2/6 561/2/6 562/2/6
f 562/2/6 561/2/6 563/2/6
f 563/2/6 564/2/6 565/2/6
f 565/2/6 564/2/6 566/2/6
f 567/2/6 568/2/6 569/2/6
f 569/2/6 568/2/6 570/2/6
f 571/2/6 572/2/6 576/2/6
f 576/2/6 572/2/6 577/2/6
f 573/2/6 574/2/6 578/2/6
f 578/2/6 574/2/6 579/2/6
f 579/2/6 574/2/6 580/2/6
f 580/2/6 574/2/6 581/2/6
f 575/2/6 576/2/6 584/2/6
f 582/2/6 583/2/6 587/2/6
f 587/2/6 583/2/6 588/2/6
f 584/2/6 585/2/6 589/2/6
f 575/2/6 584/2/6 589/2/6
f 589/2/6 585/2/6 590/2/6
f 586/2/6 587/2/6 591/2/6
f 591/2/6 587/2/6 592/2/6
f 590/2/6 591/2/6 593/2/6
f 593/2/6 591/2/6 594/2/6
f 595/2/6 596/2/6 597/2/6
f 595/2/6 597/2/6 599/2/6
f 597/2/6 598/2/6 599/2/6
f 599/2/6 598/2/6 600/2/6
f 595/2/6 599/2/6 601/2/6
f 601/2/6 599/2/6 602/2/6
f 602/2/6 599/2/6 603/2/6
f 603/2/6 599/2/6 604/2/6
f 602/2/6 603/2/6 605/2/6
f 605/2/6 603/2/6 606/2/6
