# MagicaVoxel @ Ephtracy

# material
mtllib chr_hunter2.mtl
usemtl palette

# normals
vn -1 0 0
vn 1 0 0
vn 0 0 1
vn 0 0 -1
vn 0 -1 0
vn 0 1 0

# texcoords
vt 0.0917969 0.5
vt 0.537109 0.5
vt 0.849609 0.5
vt 0.986328 0.5
vt 0.990234 0.5
vt 0.994141 0.5

# verts
v -5 9 2.5
v -5 9 1.5
v -5 10 2.5
v -5 10 1.5
v -4 2 1.5
v -4 2 0.5
v -4 3 1.5
v -4 3 0.5
v -4 6 1.5
v -4 6 0.5
v -4 7 1.5
v -4 7 0.5
v -4 7 -0.5
v -4 8 2.5
v -4 8 1.5
v -4 8 0.5
v -4 8 -0.5
v -4 8 -1.5
v -4 9 3.5
v -4 9 2.5
v -4 9 1.5
v -4 10 3.5
v -4 10 2.5
v -4 10 1.5
v -4 10 -0.5
v -4 11 2.5
v -4 11 1.5
v -4 11 -0.5
v -4 11 -1.5
v -3 1 2.5
v -3 1 -0.5
v -3 2 3.5
v -3 2 2.5
v -3 2 1.5
v -3 2 0.5
v -3 2 -0.5
v -3 2 -1.5
v -3 3 1.5
v -3 3 0.5
v -3 6 3.5
v -3 6 2.5
v -3 6 1.5
v -3 6 0.5
v -3 6 -0.5
v -3 6 -1.5
v -3 7 1.5
v -3 7 0.5
v -3 7 -0.5
v -3 7 -1.5
v -3 8 2.5
v -3 8 1.5
v -3 8 -0.5
v -3 8 -1.5
v -3 10 1.5
v -3 10 -0.5
v -3 11 1.5
v -3 11 -0.5
v -2 0 1.5
v -2 0 0.5
v -2 1 1.5
v -2 1 0.5
v -2 6 -0.5
v -2 6 -1.5
v -2 7 -0.5
v -2 7 -1.5
v -2 7 -3.5
v -2 10 -2.5
v -2 10 -3.5
v -2 11 -1.5
v -2 11 -2.5
v 0 8 -2.5
v 0 8 -3.5
v 0 9 3.5
v 0 9 2.5
v 0 9 -2.5
v 0 9 -3.5
v 0 10 3.5
v 0 10 2.5
v 0 11 -0.5
v 0 11 -1.5
v 0 12 -0.5
v 0 12 -1.5
v 1 0 1.5
v 1 0 0.5
v 1 1 2.5
v 1 1 1.5
v 1 1 0.5
v 1 1 -0.5
v 1 2 2.5
v 1 2 -0.5
v 1 5 3.5
v 1 5 2.5
v 1 6 3.5
v 1 6 2.5
v 1 9 -2.5
v 1 9 -3.5
v 1 10 1.5
v 1 10 0.5
v 1 10 -2.5
v 1 10 -3.5
v 1 11 1.5
v 1 11 0.5
v 3 9 3.5
v 3 9 2.5
v 3 10 3.5
v 3 10 2.5
v -3 9 3.5
v -3 9 2.5
v -3 10 3.5
v -3 10 2.5
v -1 0 1.5
v -1 0 0.5
v -1 1 2.5
v -1 1 1.5
v -1 1 0.5
v -1 1 -0.5
v -1 2 2.5
v -1 2 -0.5
v -1 5 3.5
v -1 5 2.5
v -1 6 3.5
v -1 6 2.5
v -1 7 -2.5
v -1 7 -3.5
v -1 9 -2.5
v -1 9 -3.5
v -1 10 1.5
v -1 10 0.5
v -1 11 1.5
v -1 11 0.5
v 0 9 -2.5
v 0 9 -3.5
v 0 10 -2.5
v 0 10 -3.5
v 1 8 -2.5
v 1 8 -3.5
v 1 9 -2.5
v 1 9 -3.5
v 1 11 -0.5
v 1 11 -1.5
v 1 12 -0.5
v 1 12 -1.5
v 2 0 1.5
v 2 0 0.5
v 2 1 1.5
v 2 1 0.5
v 2 7 -1.5
v 2 7 -2.5
v 2 9 3.5
v 2 9 2.5
v 2 9 -1.5
v 2 9 -2.5
v 2 9 -3.5
v 2 10 3.5
v 2 10 2.5
v 2 10 -1.5
v 2 10 -2.5
v 2 10 -3.5
v 2 11 -1.5
v 2 11 -2.5
v 3 1 2.5
v 3 1 -0.5
v 3 2 3.5
v 3 2 2.5
v 3 2 1.5
v 3 2 0.5
v 3 2 -0.5
v 3 2 -1.5
v 3 3 1.5
v 3 3 0.5
v 3 6 3.5
v 3 6 2.5
v 3 6 1.5
v 3 6 0.5
v 3 6 -0.5
v 3 6 -1.5
v 3 7 1.5
v 3 7 0.5
v 3 7 -0.5
v 3 8 2.5
v 3 8 1.5
v 3 9 -1.5
v 3 9 -2.5
v 3 10 1.5
v 3 10 -0.5
v 3 10 -1.5
v 3 10 -2.5
v 3 11 1.5
v 3 11 -1.5
v 4 2 1.5
v 4 2 0.5
v 4 3 1.5
v 4 3 0.5
v 4 6 1.5
v 4 6 0.5
v 4 7 1.5
v 4 7 0.5
v 4 7 -0.5
v 4 8 2.5
v 4 8 1.5
v 4 8 0.5
v 4 9 3.5
v 4 9 2.5
v 4 9 1.5
v 4 10 3.5
v 4 10 2.5
v 4 10 1.5
v 4 10 -0.5
v 4 11 2.5
v 4 11 1.5
v 5 9 2.5
v 5 9 1.5
v 5 10 2.5
v 5 10 1.5
v -4 9 3.5
v -4 10 3.5
v -3 2 3.5
v -3 6 3.5
v -3 9 3.5
v -3 10 3.5
v -1 2 3.5
v -1 3 3.5
v -1 5 3.5
v -1 6 3.5
v 0 9 3.5
v 0 10 3.5
v 1 2 3.5
v 1 3 3.5
v 1 5 3.5
v 1 6 3.5
v 2 9 3.5
v 2 10 3.5
v 3 2 3.5
v 3 6 3.5
v 3 9 3.5
v 3 10 3.5
v 4 9 3.5
v 4 10 3.5
v -5 9 2.5
v -5 10 2.5
v -4 8 2.5
v -4 9 2.5
v -4 10 2.5
v -4 11 2.5
v -3 1 2.5
v -3 2 2.5
v -3 6 2.5
v -3 8 2.5
v -3 9 2.5
v -3 10 2.5
v -2 7 2.5
v -2 8 2.5
v -1 1 2.5
v -1 2 2.5
v -1 5 2.5
v -1 6 2.5
v -1 7 2.5
v -1 8 2.5
v 0 9 2.5
v 0 10 2.5
v 1 1 2.5
v 1 2 2.5
v 1 5 2.5
v 1 6 2.5
v 1 7 2.5
v 1 8 2.5
v 2 7 2.5
v 2 8 2.5
v 2 9 2.5
v 2 10 2.5
v 3 1 2.5
v 3 2 2.5
v 3 6 2.5
v 3 8 2.5
v 3 9 2.5
v 3 10 2.5
v 4 8 2.5
v 4 9 2.5
v 4 10 2.5
v 4 11 2.5
v 5 9 2.5
v 5 10 2.5
v -4 2 1.5
v -4 3 1.5
v -4 6 1.5
v -4 7 1.5
v -4 8 1.5
v -3 2 1.5
v -3 3 1.5
v -3 6 1.5
v -3 7 1.5
v -3 8 1.5
v -2 0 1.5
v -2 1 1.5
v -1 0 1.5
v -1 1 1.5
v 1 0 1.5
v 1 1 1.5
v 2 0 1.5
v 2 1 1.5
v 3 2 1.5
v 3 3 1.5
v 3 6 1.5
v 3 7 1.5
v 3 8 1.5
v 4 2 1.5
v 4 3 1.5
v 4 6 1.5
v 4 7 1.5
v 4 8 1.5
v -1 10 0.5
v -1 11 0.5
v 1 10 0.5
v 1 11 0.5
v -4 10 -0.5
v -4 11 -0.5
v -3 10 -0.5
v -3 11 -0.5
v 0 11 -0.5
v 0 12 -0.5
v 1 11 -0.5
v 1 12 -0.5
v -5 9 1.5
v -5 10 1.5
v -4 9 1.5
v -4 10 1.5
v -4 11 1.5
v -3 10 1.5
v -3 11 1.5
v -1 10 1.5
v -1 11 1.5
v 1 10 1.5
v 1 11 1.5
v 3 10 1.5
v 3 11 1.5
v 4 9 1.5
v 4 10 1.5
v 4 11 1.5
v 5 9 1.5
v 5 10 1.5
v -4 2 0.5
v -4 3 0.5
v -4 6 0.5
v -3 2 0.5
v -3 3 0.5
v -3 6 0.5
v -2 0 0.5
v -2 1 0.5
v -1 0 0.5
v -1 1 0.5
v 1 0 0.5
v 1 1 0.5
v 2 0 0.5
v 2 1 0.5
v 3 2 0.5
v 3 3 0.5
v 3 6 0.5
v 4 2 0.5
v 4 3 0.5
v 4 6 0.5
v -4 7 -0.5
v -4 8 -0.5
v -3 1 -0.5
v -3 2 -0.5
v -3 6 -0.5
v -3 7 -0.5
v -3 8 -0.5
v -2 6 -0.5
v -2 7 -0.5
v -1 1 -0.5
v -1 2 -0.5
v 1 1 -0.5
v 1 2 -0.5
v 3 1 -0.5
v 3 2 -0.5
v 3 7 -0.5
v 3 10 -0.5
v 4 7 -0.5
v 4 10 -0.5
v -4 8 -1.5
v -4 11 -1.5
v -3 2 -1.5
v -3 6 -1.5
v -3 7 -1.5
v -3 8 -1.5
v -2 6 -1.5
v -2 7 -1.5
v -2 11 -1.5
v 0 11 -1.5
v 0 12 -1.5
v 1 11 -1.5
v 1 12 -1.5
v 2 6 -1.5
v 2 7 -1.5
v 2 9 -1.5
v 2 10 -1.5
v 2 11 -1.5
v 3 2 -1.5
v 3 6 -1.5
v 3 9 -1.5
v 3 10 -1.5
v 3 11 -1.5
v -2 10 -2.5
v -2 11 -2.5
v -1 7 -2.5
v -1 9 -2.5
v 0 8 -2.5
v 0 9 -2.5
v 0 10 -2.5
v 1 8 -2.5
v 1 9 -2.5
v 1 10 -2.5
v 2 7 -2.5
v 2 9 -2.5
v 2 10 -2.5
v 2 11 -2.5
v 3 9 -2.5
v 3 10 -2.5
v -2 7 -3.5
v -2 10 -3.5
v -1 7 -3.5
v -1 9 -3.5
v 0 8 -3.5
v 0 9 -3.5
v 0 10 -3.5
v 1 8 -3.5
v 1 9 -3.5
v 1 10 -3.5
v 2 9 -3.5
v 2 10 -3.5
v -2 0 1.5
v -1 0 1.5
v 1 0 1.5
v 2 0 1.5
v -2 0 0.5
v -1 0 0.5
v 1 0 0.5
v 2 0 0.5
v -3 1 2.5
v -1 1 2.5
v 1 1 2.5
v 3 1 2.5
v -2 1 1.5
v -1 1 1.5
v 1 1 1.5
v 2 1 1.5
v -2 1 0.5
v -1 1 0.5
v 1 1 0.5
v 2 1 0.5
v -3 1 -0.5
v -1 1 -0.5
v 1 1 -0.5
v 3 1 -0.5
v -3 2 3.5
v -1 2 3.5
v 1 2 3.5
v 3 2 3.5
v -3 2 2.5
v -1 2 2.5
v 1 2 2.5
v 3 2 2.5
v -4 2 1.5
v -3 2 1.5
v 3 2 1.5
v 4 2 1.5
v -4 2 0.5
v -3 2 0.5
v 3 2 0.5
v 4 2 0.5
v -3 2 -0.5
v -1 2 -0.5
v 1 2 -0.5
v 3 2 -0.5
v -3 2 -1.5
v 3 2 -1.5
v -4 7 1.5
v -3 7 1.5
v 3 7 1.5
v 4 7 1.5
v -4 7 0.5
v -3 7 0.5
v 3 7 0.5
v 4 7 0.5
v -4 7 -0.5
v -3 7 -0.5
v -2 7 -0.5
v 3 7 -0.5
v 4 7 -0.5
v -3 7 -1.5
v -2 7 -1.5
v 2 7 -1.5
v -1 7 -2.5
v 2 7 -2.5
v -2 7 -3.5
v -1 7 -3.5
v -4 8 2.5
v -3 8 2.5
v 3 8 2.5
v 4 8 2.5
v -4 8 1.5
v -3 8 1.5
v 3 8 1.5
v 4 8 1.5
v -4 8 -0.5
v -3 8 -0.5
v -4 8 -1.5
v -3 8 -1.5
v 0 8 -2.5
v 1 8 -2.5
v 0 8 -3.5
v 1 8 -3.5
v -4 9 3.5
v -3 9 3.5
v 0 9 3.5
v 2 9 3.5
v 3 9 3.5
v 4 9 3.5
v -5 9 2.5
v -4 9 2.5
v -3 9 2.5
v 0 9 2.5
v 2 9 2.5
v 3 9 2.5
v 4 9 2.5
v 5 9 2.5
v -5 9 1.5
v -4 9 1.5
v 4 9 1.5
v 5 9 1.5
v 2 9 -1.5
v 3 9 -1.5
v -1 9 -2.5
v 0 9 -2.5
v 1 9 -2.5
v 2 9 -2.5
v 3 9 -2.5
v -1 9 -3.5
v 0 9 -3.5
v 1 9 -3.5
v 2 9 -3.5
v -1 5 3.5
v 1 5 3.5
v -1 5 2.5
v 1 5 2.5
v -3 6 3.5
v -1 6 3.5
v 1 6 3.5
v 3 6 3.5
v -3 6 2.5
v -1 6 2.5
v 1 6 2.5
v 3 6 2.5
v -4 6 1.5
v -3 6 1.5
v 3 6 1.5
v 4 6 1.5
v -4 6 0.5
v -3 6 0.5
v 3 6 0.5
v 4 6 0.5
v -3 6 -0.5
v -2 6 -0.5
v -3 6 -1.5
v -2 6 -1.5
v 0 9 -2.5
v 1 9 -2.5
v 0 9 -3.5
v 1 9 -3.5
v -4 10 3.5
v -3 10 3.5
v 0 10 3.5
v 2 10 3.5
v 3 10 3.5
v 4 10 3.5
v -5 10 2.5
v -4 10 2.5
v -3 10 2.5
v 0 10 2.5
v 2 10 2.5
v 3 10 2.5
v 4 10 2.5
v 5 10 2.5
v -5 10 1.5
v -4 10 1.5
v -3 10 1.5
v -1 10 1.5
v 1 10 1.5
v 3 10 1.5
v 4 10 1.5
v 5 10 1.5
v -1 10 0.5
v 1 10 0.5
v -4 10 -0.5
v -3 10 -0.5
v 3 10 -0.5
v 4 10 -0.5
v 2 10 -1.5
v 3 10 -1.5
v -2 10 -2.5
v 0 10 -2.5
v 1 10 -2.5
v 2 10 -2.5
v 3 10 -2.5
v -2 10 -3.5
v 0 10 -3.5
v 1 10 -3.5
v 2 10 -3.5
v -4 11 2.5
v 4 11 2.5
v -4 11 1.5
v -3 11 1.5
v -1 11 1.5
v 1 11 1.5
v 3 11 1.5
v 4 11 1.5
v -1 11 0.5
v 1 11 0.5
v -4 11 -0.5
v -3 11 -0.5
v 0 11 -0.5
v 1 11 -0.5
v -4 11 -1.5
v -2 11 -1.5
v 0 11 -1.5
v 1 11 -1.5
v 2 11 -1.5
v 3 11 -1.5
v -2 11 -2.5
v 2 11 -2.5
v 0 12 -0.5
v 1 12 -0.5
v 0 12 -1.5
v 1 12 -1.5

# faces
f 3/6/1 2/6/1 1/6/1
f 4/6/1 2/6/1 3/6/1
f 7/2/1 6/2/1 5/2/1
f 8/2/1 6/2/1 7/2/1
f 9/3/1 8/3/1 7/3/1
f 10/3/1 8/3/1 9/3/1
f 15/2/1 12/2/1 11/2/1
f 16/6/1 13/6/1 12/6/1
f 16/2/1 12/2/1 15/2/1
f 17/6/1 13/6/1 16/6/1
f 20/6/1 15/6/1 14/6/1
f 20/6/1 18/6/1 17/6/1
f 20/6/1 17/6/1 16/6/1
f 20/6/1 16/6/1 15/6/1
f 21/6/1 18/6/1 20/6/1
f 22/6/1 20/6/1 19/6/1
f 23/6/1 20/6/1 22/6/1
f 24/6/1 18/6/1 21/6/1
f 25/6/1 18/6/1 24/6/1
f 26/6/1 24/6/1 23/6/1
f 27/6/1 24/6/1 26/6/1
f 28/6/1 18/6/1 25/6/1
f 29/6/1 18/6/1 28/6/1
f 33/4/1 31/4/1 30/4/1
f 34/4/1 31/4/1 33/4/1
f 35/4/1 31/4/1 34/4/1
f 36/4/1 31/4/1 35/4/1
f 38/1/1 33/1/1 32/1/1
f 38/1/1 34/1/1 33/1/1
f 39/1/1 37/1/1 36/1/1
f 39/1/1 36/1/1 35/1/1
f 40/1/1 38/1/1 32/1/1
f 41/1/1 38/1/1 40/1/1
f 42/1/1 38/1/1 41/1/1
f 43/1/1 37/1/1 39/1/1
f 44/1/1 37/1/1 43/1/1
f 45/1/1 37/1/1 44/1/1
f 46/2/1 42/2/1 41/2/1
f 46/2/1 44/2/1 43/2/1
f 46/2/1 43/2/1 42/2/1
f 47/2/1 44/2/1 46/2/1
f 48/2/1 44/2/1 47/2/1
f 50/2/1 46/2/1 41/2/1
f 51/2/1 46/2/1 50/2/1
f 52/6/1 49/6/1 48/6/1
f 53/6/1 49/6/1 52/6/1
f 56/6/1 55/6/1 54/6/1
f 57/6/1 55/6/1 56/6/1
f 60/5/1 59/5/1 58/5/1
f 61/5/1 59/5/1 60/5/1
f 64/2/1 63/2/1 62/2/1
f 65/2/1 63/2/1 64/2/1
f 67/6/1 66/6/1 65/6/1
f 68/6/1 66/6/1 67/6/1
f 69/6/1 67/6/1 65/6/1
f 70/6/1 67/6/1 69/6/1
f 75/6/1 72/6/1 71/6/1
f 76/6/1 72/6/1 75/6/1
f 77/6/1 74/6/1 73/6/1
f 78/6/1 74/6/1 77/6/1
f 81/6/1 80/6/1 79/6/1
f 82/6/1 80/6/1 81/6/1
f 86/5/1 84/5/1 83/5/1
f 87/5/1 84/5/1 86/5/1
f 89/4/1 86/4/1 85/4/1
f 89/4/1 88/4/1 87/4/1
f 89/4/1 87/4/1 86/4/1
f 90/4/1 88/4/1 89/4/1
f 93/1/1 92/1/1 91/1/1
f 94/1/1 92/1/1 93/1/1
f 99/6/1 96/6/1 95/6/1
f 100/6/1 96/6/1 99/6/1
f 101/6/1 98/6/1 97/6/1
f 102/6/1 98/6/1 101/6/1
f 105/6/1 104/6/1 103/6/1
f 106/6/1 104/6/1 105/6/1
f 107/6/2 108/6/2 109/6/2
f 109/6/2 108/6/2 110/6/2
f 111/5/2 112/5/2 114/5/2
f 114/5/2 112/5/2 115/5/2
f 113/4/2 114/4/2 117/4/2
f 115/4/2 116/4/2 117/4/2
f 114/4/2 115/4/2 117/4/2
f 117/4/2 116/4/2 118/4/2
f 119/1/2 120/1/2 121/1/2
f 121/1/2 120/1/2 122/1/2
f 123/6/2 124/6/2 125/6/2
f 125/6/2 124/6/2 126/6/2
f 127/6/2 128/6/2 129/6/2
f 129/6/2 128/6/2 130/6/2
f 131/6/2 132/6/2 133/6/2
f 133/6/2 132/6/2 134/6/2
f 135/6/2 136/6/2 137/6/2
f 137/6/2 136/6/2 138/6/2
f 139/6/2 140/6/2 141/6/2
f 141/6/2 140/6/2 142/6/2
f 143/5/2 144/5/2 145/5/2
f 145/5/2 144/5/2 146/5/2
f 147/6/2 148/6/2 151/6/2
f 151/6/2 148/6/2 152/6/2
f 149/6/2 150/6/2 154/6/2
f 154/6/2 150/6/2 155/6/2
f 152/6/2 153/6/2 157/6/2
f 157/6/2 153/6/2 158/6/2
f 156/6/2 157/6/2 159/6/2
f 159/6/2 157/6/2 160/6/2
f 161/4/2 162/4/2 164/4/2
f 164/4/2 162/4/2 165/4/2
f 165/4/2 162/4/2 166/4/2
f 166/4/2 162/4/2 167/4/2
f 163/1/2 164/1/2 169/1/2
f 164/1/2 165/1/2 169/1/2
f 167/1/2 168/1/2 170/1/2
f 166/1/2 167/1/2 170/1/2
f 163/1/2 169/1/2 171/1/2
f 171/1/2 169/1/2 172/1/2
f 172/1/2 169/1/2 173/1/2
f 170/1/2 168/1/2 174/1/2
f 174/1/2 168/1/2 175/1/2
f 175/1/2 168/1/2 176/1/2
f 172/2/2 173/2/2 177/2/2
f 173/2/2 174/2/2 177/2/2
f 174/2/2 175/2/2 177/2/2
f 177/2/2 175/2/2 178/2/2
f 175/6/2 176/6/2 179/6/2
f 178/2/2 175/2/2 179/2/2
f 172/2/2 177/2/2 180/2/2
f 180/2/2 177/2/2 181/2/2
f 179/6/2 176/6/2 182/6/2
f 179/6/2 182/6/2 185/6/2
f 182/6/2 183/6/2 185/6/2
f 185/6/2 183/6/2 186/6/2
f 186/6/2 183/6/2 187/6/2
f 184/6/2 185/6/2 188/6/2
f 185/6/2 186/6/2 188/6/2
f 188/6/2 186/6/2 189/6/2
f 190/2/2 191/2/2 192/2/2
f 192/2/2 191/2/2 193/2/2
f 192/3/2 193/3/2 194/3/2
f 194/3/2 193/3/2 195/3/2
f 196/2/2 197/2/2 200/2/2
f 197/6/2 198/6/2 201/6/2
f 200/2/2 197/2/2 201/2/2
f 199/6/2 200/6/2 203/6/2
f 200/6/2 201/6/2 203/6/2
f 203/6/2 201/6/2 204/6/2
f 202/6/2 203/6/2 205/6/2
f 205/6/2 203/6/2 206/6/2
f 204/6/2 201/6/2 207/6/2
f 201/6/2 198/6/2 208/6/2
f 207/6/2 201/6/2 208/6/2
f 206/6/2 207/6/2 209/6/2
f 209/6/2 207/6/2 210/6/2
f 211/6/2 212/6/2 213/6/2
f 213/6/2 212/6/2 214/6/2
f 219/6/3 216/6/3 215/6/3
f 220/6/3 216/6/3 219/6/3
f 221/1/3 218/1/3 217/1/3
f 222/1/3 218/1/3 221/1/3
f 223/1/3 218/1/3 222/1/3
f 224/1/3 218/1/3 223/1/3
f 227/4/3 222/4/3 221/4/3
f 228/3/3 223/3/3 222/3/3
f 228/4/3 222/4/3 227/4/3
f 229/3/3 223/3/3 228/3/3
f 231/6/3 226/6/3 225/6/3
f 232/6/3 226/6/3 231/6/3
f 233/1/3 230/1/3 229/1/3
f 233/1/3 228/1/3 227/1/3
f 233/1/3 229/1/3 228/1/3
f 234/1/3 230/1/3 233/1/3
f 237/6/3 236/6/3 235/6/3
f 238/6/3 236/6/3 237/6/3
f 242/6/3 240/6/3 239/6/3
f 243/6/3 240/6/3 242/6/3
f 248/6/3 242/6/3 241/6/3
f 249/6/3 242/6/3 248/6/3
f 250/6/3 244/6/3 243/6/3
f 251/2/3 249/2/3 248/2/3
f 251/2/3 250/2/3 249/2/3
f 251/2/3 248/2/3 247/2/3
f 252/2/3 250/2/3 251/2/3
f 253/4/3 246/4/3 245/4/3
f 254/4/3 246/4/3 253/4/3
f 256/2/3 251/2/3 247/2/3
f 257/6/3 252/6/3 251/6/3
f 257/2/3 251/2/3 256/2/3
f 258/2/3 250/2/3 252/2/3
f 258/6/3 252/6/3 257/6/3
f 259/2/3 257/2/3 256/2/3
f 259/2/3 250/2/3 258/2/3
f 259/2/3 258/2/3 257/2/3
f 259/2/3 256/2/3 255/2/3
f 260/6/3 244/6/3 250/6/3
f 260/2/3 250/2/3 259/2/3
f 263/2/3 259/2/3 255/2/3
f 264/2/3 259/2/3 263/2/3
f 265/2/3 259/2/3 264/2/3
f 266/2/3 259/2/3 265/2/3
f 267/2/3 265/2/3 264/2/3
f 267/6/3 266/6/3 265/6/3
f 268/2/3 259/2/3 266/2/3
f 268/6/3 266/6/3 267/6/3
f 269/2/3 259/2/3 268/2/3
f 270/6/3 244/6/3 260/6/3
f 271/4/3 262/4/3 261/4/3
f 272/4/3 262/4/3 271/4/3
f 273/2/3 270/2/3 269/2/3
f 273/2/3 269/2/3 268/2/3
f 273/2/3 267/2/3 264/2/3
f 273/2/3 268/2/3 267/2/3
f 274/2/3 270/2/3 273/2/3
f 275/2/3 270/2/3 274/2/3
f 276/6/3 244/6/3 270/6/3
f 276/2/3 270/2/3 275/2/3
f 277/6/3 275/6/3 274/6/3
f 278/6/3 275/6/3 277/6/3
f 279/6/3 244/6/3 276/6/3
f 280/6/3 244/6/3 279/6/3
f 281/6/3 279/6/3 278/6/3
f 282/6/3 279/6/3 281/6/3
f 288/2/3 284/2/3 283/2/3
f 289/3/3 285/3/3 284/3/3
f 289/2/3 284/2/3 288/2/3
f 290/3/3 285/3/3 289/3/3
f 291/2/3 287/2/3 286/2/3
f 292/2/3 287/2/3 291/2/3
f 295/5/3 294/5/3 293/5/3
f 296/5/3 294/5/3 295/5/3
f 299/5/3 298/5/3 297/5/3
f 300/5/3 298/5/3 299/5/3
f 306/2/3 302/2/3 301/2/3
f 307/3/3 303/3/3 302/3/3
f 307/2/3 302/2/3 306/2/3
f 308/3/3 303/3/3 307/3/3
f 309/2/3 305/2/3 304/2/3
f 310/2/3 305/2/3 309/2/3
f 313/6/3 312/6/3 311/6/3
f 314/6/3 312/6/3 313/6/3
f 317/6/3 316/6/3 315/6/3
f 318/6/3 316/6/3 317/6/3
f 321/6/3 320/6/3 319/6/3
f 322/6/3 320/6/3 321/6/3
f 323/6/4 324/6/4 325/6/4
f 325/6/4 324/6/4 326/6/4
f 326/6/4 327/6/4 328/6/4
f 328/6/4 327/6/4 329/6/4
f 330/6/4 331/6/4 332/6/4
f 332/6/4 331/6/4 333/6/4
f 334/6/4 335/6/4 337/6/4
f 337/6/4 335/6/4 338/6/4
f 336/6/4 337/6/4 339/6/4
f 339/6/4 337/6/4 340/6/4
f 341/2/4 342/2/4 344/2/4
f 342/3/4 343/3/4 345/3/4
f 344/2/4 342/2/4 345/2/4
f 345/3/4 343/3/4 346/3/4
f 347/5/4 348/5/4 349/5/4
f 349/5/4 348/5/4 350/5/4
f 351/5/4 352/5/4 353/5/4
f 353/5/4 352/5/4 354/5/4
f 355/2/4 356/2/4 358/2/4
f 356/3/4 357/3/4 359/3/4
f 358/2/4 356/2/4 359/2/4
f 359/3/4 357/3/4 360/3/4
f 361/6/4 362/6/4 366/6/4
f 366/6/4 362/6/4 367/6/4
f 365/2/4 366/2/4 368/2/4
f 368/2/4 366/2/4 369/2/4
f 363/4/4 364/4/4 370/4/4
f 370/4/4 364/4/4 371/4/4
f 372/4/4 373/4/4 374/4/4
f 374/4/4 373/4/4 375/4/4
f 376/6/4 377/6/4 378/6/4
f 378/6/4 377/6/4 379/6/4
f 380/6/4 381/6/4 385/6/4
f 382/1/4 383/1/4 386/1/4
f 384/6/4 385/6/4 387/6/4
f 385/6/4 381/6/4 388/6/4
f 387/6/4 385/6/4 388/6/4
f 389/6/4 390/6/4 391/6/4
f 391/6/4 390/6/4 392/6/4
f 382/1/4 386/1/4 393/1/4
f 386/2/4 387/2/4 393/2/4
f 393/2/4 387/2/4 394/2/4
f 382/1/4 393/1/4 398/1/4
f 393/6/4 394/6/4 399/6/4
f 398/1/4 393/1/4 399/1/4
f 394/6/4 395/6/4 399/6/4
f 399/6/4 395/6/4 400/6/4
f 396/6/4 397/6/4 401/6/4
f 401/6/4 397/6/4 402/6/4
f 405/6/4 406/6/4 407/6/4
f 407/6/4 406/6/4 408/6/4
f 403/6/4 404/6/4 409/6/4
f 405/6/4 407/6/4 410/6/4
f 408/6/4 409/6/4 411/6/4
f 409/6/4 404/6/4 412/6/4
f 411/6/4 409/6/4 412/6/4
f 405/6/4 410/6/4 413/6/4
f 410/6/4 411/6/4 413/6/4
f 413/6/4 411/6/4 414/6/4
f 412/6/4 404/6/4 415/6/4
f 415/6/4 404/6/4 416/6/4
f 414/6/4 415/6/4 417/6/4
f 417/6/4 415/6/4 418/6/4
f 419/6/4 420/6/4 421/6/4
f 421/6/4 420/6/4 422/6/4
f 422/6/4 420/6/4 424/6/4
f 424/6/4 420/6/4 425/6/4
f 423/6/4 424/6/4 426/6/4
f 426/6/4 424/6/4 427/6/4
f 427/6/4 428/6/4 429/6/4
f 429/6/4 428/6/4 430/6/4
f 435/5/5 432/5/5 431/5/5
f 436/5/5 432/5/5 435/5/5
f 437/5/5 434/5/5 433/5/5
f 438/5/5 434/5/5 437/5/5
f 443/4/5 440/4/5 439/4/5
f 444/4/5 440/4/5 443/4/5
f 445/4/5 442/4/5 441/4/5
f 446/4/5 442/4/5 445/4/5
f 447/4/5 443/4/5 439/4/5
f 450/4/5 442/4/5 446/4/5
f 451/4/5 448/4/5 447/4/5
f 451/4/5 447/4/5 439/4/5
f 452/4/5 448/4/5 451/4/5
f 453/4/5 450/4/5 449/4/5
f 454/4/5 442/4/5 450/4/5
f 454/4/5 450/4/5 453/4/5
f 459/1/5 456/1/5 455/1/5
f 460/4/5 457/4/5 456/4/5
f 460/1/5 456/1/5 459/1/5
f 461/1/5 458/1/5 457/1/5
f 461/4/5 457/4/5 460/4/5
f 462/1/5 458/1/5 461/1/5
f 467/2/5 464/2/5 463/2/5
f 468/2/5 464/2/5 467/2/5
f 469/2/5 466/2/5 465/2/5
f 470/2/5 466/2/5 469/2/5
f 472/4/5 461/4/5 460/4/5
f 473/4/5 461/4/5 472/4/5
f 475/1/5 472/1/5 471/1/5
f 475/1/5 474/1/5 473/1/5
f 475/1/5 473/1/5 472/1/5
f 476/1/5 474/1/5 475/1/5
f 481/2/5 478/2/5 477/2/5
f 482/2/5 478/2/5 481/2/5
f 483/2/5 480/2/5 479/2/5
f 484/2/5 480/2/5 483/2/5
f 485/6/5 482/6/5 481/6/5
f 486/6/5 482/6/5 485/6/5
f 488/6/5 484/6/5 483/6/5
f 489/6/5 484/6/5 488/6/5
f 490/6/5 487/6/5 486/6/5
f 491/6/5 487/6/5 490/6/5
f 493/6/5 492/6/5 491/6/5
f 494/6/5 492/6/5 493/6/5
f 495/6/5 493/6/5 491/6/5
f 496/6/5 493/6/5 495/6/5
f 501/6/5 498/6/5 497/6/5
f 502/6/5 498/6/5 501/6/5
f 503/6/5 500/6/5 499/6/5
f 504/6/5 500/6/5 503/6/5
f 507/6/5 506/6/5 505/6/5
f 508/6/5 506/6/5 507/6/5
f 511/6/5 510/6/5 509/6/5
f 512/6/5 510/6/5 511/6/5
f 520/6/5 514/6/5 513/6/5
f 521/6/5 514/6/5 520/6/5
f 522/6/5 516/6/5 515/6/5
f 523/6/5 516/6/5 522/6/5
f 524/6/5 518/6/5 517/6/5
f 525/6/5 518/6/5 524/6/5
f 527/6/5 520/6/5 519/6/5
f 528/6/5 520/6/5 527/6/5
f 529/6/5 526/6/5 525/6/5
f 530/6/5 526/6/5 529/6/5
f 536/6/5 532/6/5 531/6/5
f 537/6/5 532/6/5 536/6/5
f 538/6/5 534/6/5 533/6/5
f 539/6/5 534/6/5 538/6/5
f 540/6/5 536/6/5 535/6/5
f 541/6/5 536/6/5 540/6/5
f 542/3/6 543/3/6 544/3/6
f 544/3/6 543/3/6 545/3/6
f 546/1/6 547/1/6 550/1/6
f 550/1/6 547/1/6 551/1/6
f 548/1/6 549/1/6 552/1/6
f 552/1/6 549/1/6 553/1/6
f 554/3/6 555/3/6 558/3/6
f 558/3/6 555/3/6 559/3/6
f 556/3/6 557/3/6 560/3/6
f 560/3/6 557/3/6 561/3/6
f 562/1/6 563/1/6 564/1/6
f 564/1/6 563/1/6 565/1/6
f 566/6/6 567/6/6 568/6/6
f 568/6/6 567/6/6 569/6/6
f 570/6/6 571/6/6 577/6/6
f 577/6/6 571/6/6 578/6/6
f 572/6/6 573/6/6 579/6/6
f 579/6/6 573/6/6 580/6/6
f 574/6/6 575/6/6 581/6/6
f 581/6/6 575/6/6 582/6/6
f 576/6/6 577/6/6 584/6/6
f 584/6/6 577/6/6 585/6/6
f 582/6/6 583/6/6 590/6/6
f 590/6/6 583/6/6 591/6/6
f 587/2/6 588/2/6 592/2/6
f 592/2/6 588/2/6 593/2/6
f 585/6/6 586/6/6 594/6/6
f 594/6/6 586/6/6 595/6/6
f 589/6/6 590/6/6 596/6/6
f 596/6/6 590/6/6 597/6/6
f 598/6/6 599/6/6 603/6/6
f 603/6/6 599/6/6 604/6/6
f 600/6/6 601/6/6 605/6/6
f 605/6/6 601/6/6 606/6/6
f 602/6/6 603/6/6 607/6/6
f 607/6/6 603/6/6 608/6/6
f 609/6/6 610/6/6 611/6/6
f 611/6/6 610/6/6 612/6/6
f 612/6/6 610/6/6 613/6/6
f 613/6/6 610/6/6 614/6/6
f 614/6/6 610/6/6 615/6/6
f 615/6/6 610/6/6 616/6/6
f 612/6/6 613/6/6 617/6/6
f 614/6/6 615/6/6 618/6/6
f 612/6/6 617/6/6 620/6/6
f 617/6/6 618/6/6 620/6/6
f 620/6/6 618/6/6 621/6/6
f 618/6/6 615/6/6 622/6/6
f 621/6/6 618/6/6 622/6/6
f 620/6/6 621/6/6 623/6/6
f 619/6/6 620/6/6 623/6/6
f 623/6/6 621/6/6 624/6/6
f 624/6/6 621/6/6 625/6/6
f 622/6/6 615/6/6 626/6/6
f 626/6/6 615/6/6 627/6/6
f 627/6/6 615/6/6 628/6/6
f 624/6/6 625/6/6 629/6/6
f 626/6/6 627/6/6 629/6/6
f 625/6/6 626/6/6 629/6/6
f 629/6/6 627/6/6 630/6/6
f 631/6/6 632/6/6 633/6/6
f 633/6/6 632/6/6 634/6/6
