# MagicaVoxel @ Ephtracy

# material
mtllib chr_super5.mtl
usemtl palette

# normals
vn -1 0 0
vn 1 0 0
vn 0 0 1
vn 0 0 -1
vn 0 -1 0
vn 0 1 0

# texcoords
vt 0.0332031 0.5
vt 0.611328 0.5
vt 0.841797 0.5
vt 0.966797 0.5
vt 0.974609 0.5
vt 0.982422 0.5

# verts
v -4 2 0.5
v -4 2 -0.5
v -4 3 0.5
v -4 3 -0.5
v -4 4 0.5
v -4 4 -0.5
v -4 5 0.5
v -4 5 -0.5
v -4 6 0.5
v -4 6 -0.5
v -4 7 0.5
v -4 7 -1.5
v -4 8 0.5
v -4 8 -1.5
v -3 1 1.5
v -3 1 -1.5
v -3 2 2.5
v -3 2 1.5
v -3 2 0.5
v -3 2 -0.5
v -3 2 -1.5
v -3 2 -2.5
v -3 3 0.5
v -3 3 -0.5
v -3 4 0.5
v -3 4 -0.5
v -3 5 0.5
v -3 5 -0.5
v -3 6 2.5
v -3 6 1.5
v -3 6 0.5
v -3 6 -0.5
v -3 6 -1.5
v -3 6 -2.5
v -3 7 1.5
v -3 7 0.5
v -3 7 -1.5
v -3 8 1.5
v -3 8 0.5
v -3 8 -1.5
v -3 9 1.5
v -3 9 0.5
v -3 10 1.5
v -3 10 -1.5
v -2 0 0.5
v -2 0 -0.5
v -2 1 0.5
v -2 1 -0.5
v -2 6 -1.5
v -2 6 -2.5
v -2 10 -1.5
v -2 10 -2.5
v 1 0 0.5
v 1 0 -0.5
v 1 1 1.5
v 1 1 0.5
v 1 1 -0.5
v 1 1 -1.5
v 1 2 1.5
v 1 2 -1.5
v -1 0 0.5
v -1 0 -0.5
v -1 1 1.5
v -1 1 0.5
v -1 1 -0.5
v -1 1 -1.5
v -1 2 1.5
v -1 2 -1.5
v 2 0 0.5
v 2 0 -0.5
v 2 1 0.5
v 2 1 -0.5
v 2 6 -1.5
v 2 6 -2.5
v 2 10 -1.5
v 2 10 -2.5
v 3 1 1.5
v 3 1 -1.5
v 3 2 2.5
v 3 2 1.5
v 3 2 0.5
v 3 2 -0.5
v 3 2 -1.5
v 3 2 -2.5
v 3 3 0.5
v 3 3 -0.5
v 3 4 0.5
v 3 4 -0.5
v 3 5 0.5
v 3 5 -0.5
v 3 6 2.5
v 3 6 1.5
v 3 6 0.5
v 3 6 -0.5
v 3 6 -1.5
v 3 6 -2.5
v 3 7 1.5
v 3 7 0.5
v 3 7 -1.5
v 3 8 1.5
v 3 8 0.5
v 3 8 -1.5
v 3 9 1.5
v 3 9 0.5
v 3 10 1.5
v 3 10 -1.5
v 4 2 0.5
v 4 2 -0.5
v 4 3 0.5
v 4 3 -0.5
v 4 4 0.5
v 4 4 -0.5
v 4 5 0.5
v 4 5 -0.5
v 4 6 0.5
v 4 6 -0.5
v 4 7 0.5
v 4 7 -1.5
v 4 8 0.5
v 4 8 -1.5
v -3 2 2.5
v -3 6 2.5
v -2 3 2.5
v -2 5 2.5
v -1 2 2.5
v -1 3 2.5
v -1 5 2.5
v -1 6 2.5
v 1 2 2.5
v 1 3 2.5
v 1 5 2.5
v 1 6 2.5
v 2 3 2.5
v 2 5 2.5
v 3 2 2.5
v 3 6 2.5
v -3 1 1.5
v -3 2 1.5
v -3 6 1.5
v -3 7 1.5
v -3 8 1.5
v -3 9 1.5
v -3 10 1.5
v -1 1 1.5
v -1 2 1.5
v -1 6 1.5
v -1 7 1.5
v -1 8 1.5
v 1 1 1.5
v 1 2 1.5
v 1 6 1.5
v 1 7 1.5
v 1 8 1.5
v 3 1 1.5
v 3 2 1.5
v 3 6 1.5
v 3 7 1.5
v 3 8 1.5
v 3 9 1.5
v 3 10 1.5
v -4 2 0.5
v -4 3 0.5
v -4 4 0.5
v -4 5 0.5
v -4 6 0.5
v -4 7 0.5
v -4 8 0.5
v -3 2 0.5
v -3 3 0.5
v -3 4 0.5
v -3 5 0.5
v -3 6 0.5
v -3 7 0.5
v -3 8 0.5
v -2 0 0.5
v -2 1 0.5
v -1 0 0.5
v -1 1 0.5
v 1 0 0.5
v 1 1 0.5
v 2 0 0.5
v 2 1 0.5
v 3 2 0.5
v 3 3 0.5
v 3 4 0.5
v 3 5 0.5
v 3 6 0.5
v 3 7 0.5
v 3 8 0.5
v 4 2 0.5
v 4 3 0.5
v 4 4 0.5
v 4 5 0.5
v 4 6 0.5
v 4 7 0.5
v 4 8 0.5
v -4 2 -0.5
v -4 3 -0.5
v -4 4 -0.5
v -4 5 -0.5
v -4 6 -0.5
v -3 2 -0.5
v -3 3 -0.5
v -3 4 -0.5
v -3 5 -0.5
v -3 6 -0.5
v -2 0 -0.5
v -2 1 -0.5
v -1 0 -0.5
v -1 1 -0.5
v 1 0 -0.5
v 1 1 -0.5
v 2 0 -0.5
v 2 1 -0.5
v 3 2 -0.5
v 3 3 -0.5
v 3 4 -0.5
v 3 5 -0.5
v 3 6 -0.5
v 4 2 -0.5
v 4 3 -0.5
v 4 4 -0.5
v 4 5 -0.5
v 4 6 -0.5
v -4 7 -1.5
v -4 8 -1.5
v -3 1 -1.5
v -3 2 -1.5
v -3 6 -1.5
v -3 7 -1.5
v -3 8 -1.5
v -3 10 -1.5
v -2 6 -1.5
v -2 10 -1.5
v -1 1 -1.5
v -1 2 -1.5
v 1 1 -1.5
v 1 2 -1.5
v 2 6 -1.5
v 2 10 -1.5
v 3 1 -1.5
v 3 2 -1.5
v 3 6 -1.5
v 3 7 -1.5
v 3 8 -1.5
v 3 10 -1.5
v 4 7 -1.5
v 4 8 -1.5
v -3 2 -2.5
v -3 6 -2.5
v -2 6 -2.5
v -2 10 -2.5
v 2 6 -2.5
v 2 10 -2.5
v 3 2 -2.5
v 3 6 -2.5
v -2 0 0.5
v -1 0 0.5
v 1 0 0.5
v 2 0 0.5
v -2 0 -0.5
v -1 0 -0.5
v 1 0 -0.5
v 2 0 -0.5
v -3 1 1.5
v -1 1 1.5
v 1 1 1.5
v 3 1 1.5
v -2 1 0.5
v -1 1 0.5
v 1 1 0.5
v 2 1 0.5
v -2 1 -0.5
v -1 1 -0.5
v 1 1 -0.5
v 2 1 -0.5
v -3 1 -1.5
v -1 1 -1.5
v 1 1 -1.5
v 3 1 -1.5
v -3 2 2.5
v -1 2 2.5
v 1 2 2.5
v 3 2 2.5
v -3 2 1.5
v -1 2 1.5
v 1 2 1.5
v 3 2 1.5
v -4 2 0.5
v -3 2 0.5
v 3 2 0.5
v 4 2 0.5
v -4 2 -0.5
v -3 2 -0.5
v 3 2 -0.5
v 4 2 -0.5
v -3 2 -1.5
v -1 2 -1.5
v 1 2 -1.5
v 3 2 -1.5
v -3 2 -2.5
v 3 2 -2.5
v -4 7 0.5
v -3 7 0.5
v 3 7 0.5
v 4 7 0.5
v -4 7 -1.5
v -3 7 -1.5
v 3 7 -1.5
v 4 7 -1.5
v -3 6 2.5
v -1 6 2.5
v 1 6 2.5
v 3 6 2.5
v -3 6 1.5
v -1 6 1.5
v 1 6 1.5
v 3 6 1.5
v -4 6 0.5
v -3 6 0.5
v 3 6 0.5
v 4 6 0.5
v -4 6 -0.5
v -3 6 -0.5
v 3 6 -0.5
v 4 6 -0.5
v -3 6 -1.5
v -2 6 -1.5
v 2 6 -1.5
v 3 6 -1.5
v -3 6 -2.5
v -2 6 -2.5
v 2 6 -2.5
v 3 6 -2.5
v -4 8 0.5
v -3 8 0.5
v 3 8 0.5
v 4 8 0.5
v -4 8 -1.5
v -3 8 -1.5
v 3 8 -1.5
v 4 8 -1.5
v -3 10 1.5
v 3 10 1.5
v -3 10 -1.5
v -2 10 -1.5
v 2 10 -1.5
v 3 10 -1.5
v -2 10 -2.5
v 2 10 -2.5

# faces
f 3/4/1 2/4/1 1/4/1
f 4/4/1 2/4/1 3/4/1
f 5/6/1 4/6/1 3/6/1
f 6/6/1 4/6/1 5/6/1
f 7/3/1 6/3/1 5/3/1
f 8/3/1 6/3/1 7/3/1
f 9/6/1 8/6/1 7/6/1
f 10/6/1 8/6/1 9/6/1
f 13/6/1 12/6/1 11/6/1
f 14/6/1 12/6/1 13/6/1
f 18/6/1 16/6/1 15/6/1
f 19/6/1 16/6/1 18/6/1
f 20/6/1 16/6/1 19/6/1
f 21/6/1 16/6/1 20/6/1
f 23/6/1 18/6/1 17/6/1
f 23/6/1 19/6/1 18/6/1
f 24/6/1 22/6/1 21/6/1
f 24/6/1 21/6/1 20/6/1
f 25/6/1 23/6/1 17/6/1
f 26/6/1 22/6/1 24/6/1
f 27/6/1 25/6/1 17/6/1
f 28/6/1 22/6/1 26/6/1
f 29/6/1 27/6/1 17/6/1
f 30/6/1 27/6/1 29/6/1
f 31/6/1 27/6/1 30/6/1
f 32/6/1 22/6/1 28/6/1
f 33/6/1 22/6/1 32/6/1
f 34/6/1 22/6/1 33/6/1
f 35/1/1 31/1/1 30/1/1
f 36/6/1 33/6/1 32/6/1
f 36/1/1 31/1/1 35/1/1
f 36/6/1 32/6/1 31/6/1
f 37/6/1 33/6/1 36/6/1
f 38/6/1 36/6/1 35/6/1
f 39/6/1 36/6/1 38/6/1
f 41/3/1 39/3/1 38/3/1
f 42/6/1 40/6/1 39/6/1
f 42/3/1 39/3/1 41/3/1
f 43/6/1 42/6/1 41/6/1
f 44/6/1 40/6/1 42/6/1
f 44/6/1 42/6/1 43/6/1
f 47/4/1 46/4/1 45/4/1
f 48/4/1 46/4/1 47/4/1
f 51/6/1 50/6/1 49/6/1
f 52/6/1 50/6/1 51/6/1
f 56/4/1 54/4/1 53/4/1
f 57/4/1 54/4/1 56/4/1
f 59/6/1 56/6/1 55/6/1
f 59/6/1 58/6/1 57/6/1
f 59/6/1 57/6/1 56/6/1
f 60/6/1 58/6/1 59/6/1
f 61/4/2 62/4/2 64/4/2
f 64/4/2 62/4/2 65/4/2
f 63/6/2 64/6/2 67/6/2
f 65/6/2 66/6/2 67/6/2
f 64/6/2 65/6/2 67/6/2
f 67/6/2 66/6/2 68/6/2
f 69/4/2 70/4/2 71/4/2
f 71/4/2 70/4/2 72/4/2
f 73/6/2 74/6/2 75/6/2
f 75/6/2 74/6/2 76/6/2
f 77/6/2 78/6/2 80/6/2
f 80/6/2 78/6/2 81/6/2
f 81/6/2 78/6/2 82/6/2
f 82/6/2 78/6/2 83/6/2
f 79/6/2 80/6/2 85/6/2
f 80/6/2 81/6/2 85/6/2
f 83/6/2 84/6/2 86/6/2
f 82/6/2 83/6/2 86/6/2
f 79/6/2 85/6/2 87/6/2
f 86/6/2 84/6/2 88/6/2
f 79/6/2 87/6/2 89/6/2
f 88/6/2 84/6/2 90/6/2
f 79/6/2 89/6/2 91/6/2
f 91/6/2 89/6/2 92/6/2
f 92/6/2 89/6/2 93/6/2
f 90/6/2 84/6/2 94/6/2
f 94/6/2 84/6/2 95/6/2
f 95/6/2 84/6/2 96/6/2
f 92/1/2 93/1/2 97/1/2
f 94/6/2 95/6/2 98/6/2
f 97/1/2 93/1/2 98/1/2
f 93/6/2 94/6/2 98/6/2
f 98/6/2 95/6/2 99/6/2
f 97/6/2 98/6/2 100/6/2
f 100/6/2 98/6/2 101/6/2
f 100/3/2 101/3/2 103/3/2
f 101/6/2 102/6/2 104/6/2
f 103/3/2 101/3/2 104/3/2
f 103/6/2 104/6/2 105/6/2
f 104/6/2 102/6/2 106/6/2
f 105/6/2 104/6/2 106/6/2
f 107/4/2 108/4/2 109/4/2
f 109/4/2 108/4/2 110/4/2
f 109/6/2 110/6/2 111/6/2
f 111/6/2 110/6/2 112/6/2
f 111/3/2 112/3/2 113/3/2
f 113/3/2 112/3/2 114/3/2
f 113/6/2 114/6/2 115/6/2
f 115/6/2 114/6/2 116/6/2
f 117/6/2 118/6/2 119/6/2
f 119/6/2 118/6/2 120/6/2
f 123/6/3 122/6/3 121/6/3
f 124/6/3 122/6/3 123/6/3
f 125/6/3 123/6/3 121/6/3
f 126/5/3 124/5/3 123/5/3
f 126/6/3 123/6/3 125/6/3
f 127/6/3 122/6/3 124/6/3
f 127/5/3 124/5/3 126/5/3
f 128/6/3 122/6/3 127/6/3
f 129/5/3 126/5/3 125/5/3
f 129/5/3 127/5/3 126/5/3
f 129/5/3 128/5/3 127/5/3
f 130/5/3 128/5/3 129/5/3
f 131/5/3 128/5/3 130/5/3
f 132/5/3 128/5/3 131/5/3
f 133/6/3 130/6/3 129/6/3
f 133/5/3 131/5/3 130/5/3
f 134/6/3 132/6/3 131/6/3
f 134/5/3 131/5/3 133/5/3
f 135/6/3 133/6/3 129/6/3
f 135/6/3 134/6/3 133/6/3
f 136/6/3 132/6/3 134/6/3
f 136/6/3 134/6/3 135/6/3
f 144/6/3 138/6/3 137/6/3
f 145/6/3 138/6/3 144/6/3
f 146/1/3 140/1/3 139/1/3
f 147/6/3 141/6/3 140/6/3
f 147/1/3 140/1/3 146/1/3
f 148/3/3 142/3/3 141/3/3
f 148/6/3 141/6/3 147/6/3
f 151/1/3 147/1/3 146/1/3
f 152/3/3 148/3/3 147/3/3
f 152/1/3 147/1/3 151/1/3
f 153/3/3 142/3/3 148/3/3
f 153/3/3 148/3/3 152/3/3
f 154/6/3 150/6/3 149/6/3
f 155/6/3 150/6/3 154/6/3
f 156/1/3 152/1/3 151/1/3
f 157/6/3 153/6/3 152/6/3
f 157/1/3 152/1/3 156/1/3
f 158/3/3 142/3/3 153/3/3
f 158/6/3 153/6/3 157/6/3
f 159/6/3 143/6/3 142/6/3
f 159/3/3 142/3/3 158/3/3
f 160/6/3 143/6/3 159/6/3
f 168/4/3 162/4/3 161/4/3
f 169/6/3 163/6/3 162/6/3
f 169/4/3 162/4/3 168/4/3
f 170/3/3 164/3/3 163/3/3
f 170/6/3 163/6/3 169/6/3
f 171/6/3 165/6/3 164/6/3
f 171/3/3 164/3/3 170/3/3
f 172/6/3 165/6/3 171/6/3
f 173/6/3 167/6/3 166/6/3
f 174/6/3 167/6/3 173/6/3
f 177/4/3 176/4/3 175/4/3
f 178/4/3 176/4/3 177/4/3
f 181/4/3 180/4/3 179/4/3
f 182/4/3 180/4/3 181/4/3
f 190/4/3 184/4/3 183/4/3
f 191/6/3 185/6/3 184/6/3
f 191/4/3 184/4/3 190/4/3
f 192/3/3 186/3/3 185/3/3
f 192/6/3 185/6/3 191/6/3
f 193/6/3 187/6/3 186/6/3
f 193/3/3 186/3/3 192/3/3
f 194/6/3 187/6/3 193/6/3
f 195/6/3 189/6/3 188/6/3
f 196/6/3 189/6/3 195/6/3
f 197/4/4 198/4/4 202/4/4
f 198/6/4 199/6/4 203/6/4
f 202/4/4 198/4/4 203/4/4
f 199/3/4 200/3/4 204/3/4
f 203/6/4 199/6/4 204/6/4
f 200/6/4 201/6/4 205/6/4
f 204/3/4 200/3/4 205/3/4
f 205/6/4 201/6/4 206/6/4
f 207/4/4 208/4/4 209/4/4
f 209/4/4 208/4/4 210/4/4
f 211/4/4 212/4/4 213/4/4
f 213/4/4 212/4/4 214/4/4
f 215/4/4 216/4/4 220/4/4
f 216/6/4 217/6/4 221/6/4
f 220/4/4 216/4/4 221/4/4
f 217/3/4 218/3/4 222/3/4
f 221/6/4 217/6/4 222/6/4
f 218/6/4 219/6/4 223/6/4
f 222/3/4 218/3/4 223/3/4
f 223/6/4 219/6/4 224/6/4
f 225/6/4 226/6/4 230/6/4
f 230/6/4 226/6/4 231/6/4
f 229/6/4 230/6/4 233/6/4
f 231/6/4 232/6/4 233/6/4
f 230/6/4 231/6/4 233/6/4
f 233/6/4 232/6/4 234/6/4
f 227/6/4 228/6/4 235/6/4
f 235/6/4 228/6/4 236/6/4
f 237/6/4 238/6/4 241/6/4
f 241/6/4 238/6/4 242/6/4
f 239/6/4 240/6/4 243/6/4
f 243/6/4 240/6/4 244/6/4
f 244/6/4 240/6/4 245/6/4
f 245/6/4 240/6/4 246/6/4
f 244/6/4 245/6/4 247/6/4
f 247/6/4 245/6/4 248/6/4
f 249/6/4 250/6/4 251/6/4
f 249/6/4 251/6/4 253/6/4
f 251/6/4 252/6/4 253/6/4
f 253/6/4 252/6/4 254/6/4
f 249/6/4 253/6/4 255/6/4
f 255/6/4 253/6/4 256/6/4
f 261/4/5 258/4/5 257/4/5
f 262/4/5 258/4/5 261/4/5
f 263/4/5 260/4/5 259/4/5
f 264/4/5 260/4/5 263/4/5
f 269/6/5 266/6/5 265/6/5
f 270/6/5 266/6/5 269/6/5
f 271/6/5 268/6/5 267/6/5
f 272/6/5 268/6/5 271/6/5
f 273/6/5 269/6/5 265/6/5
f 276/6/5 268/6/5 272/6/5
f 277/6/5 274/6/5 273/6/5
f 277/6/5 273/6/5 265/6/5
f 278/6/5 274/6/5 277/6/5
f 279/6/5 276/6/5 275/6/5
f 280/6/5 268/6/5 276/6/5
f 280/6/5 276/6/5 279/6/5
f 285/6/5 282/6/5 281/6/5
f 286/5/5 283/5/5 282/5/5
f 286/6/5 282/6/5 285/6/5
f 287/6/5 284/6/5 283/6/5
f 287/5/5 283/5/5 286/5/5
f 288/6/5 284/6/5 287/6/5
f 293/4/5 290/4/5 289/4/5
f 294/4/5 290/4/5 293/4/5
f 295/4/5 292/4/5 291/4/5
f 296/4/5 292/4/5 295/4/5
f 298/6/5 287/6/5 286/6/5
f 299/6/5 287/6/5 298/6/5
f 301/6/5 298/6/5 297/6/5
f 301/6/5 300/6/5 299/6/5
f 301/6/5 299/6/5 298/6/5
f 302/6/5 300/6/5 301/6/5
f 307/6/5 304/6/5 303/6/5
f 308/6/5 304/6/5 307/6/5
f 309/6/5 306/6/5 305/6/5
f 310/6/5 306/6/5 309/6/5
f 311/6/6 312/6/6 315/6/6
f 312/5/6 313/5/6 316/5/6
f 315/6/6 312/6/6 316/6/6
f 313/6/6 314/6/6 317/6/6
f 316/5/6 313/5/6 317/5/6
f 317/6/6 314/6/6 318/6/6
f 319/6/6 320/6/6 323/6/6
f 323/6/6 320/6/6 324/6/6
f 321/6/6 322/6/6 325/6/6
f 325/6/6 322/6/6 326/6/6
f 327/6/6 328/6/6 331/6/6
f 331/6/6 328/6/6 332/6/6
f 329/6/6 330/6/6 333/6/6
f 333/6/6 330/6/6 334/6/6
f 335/6/6 336/6/6 339/6/6
f 339/6/6 336/6/6 340/6/6
f 337/6/6 338/6/6 341/6/6
f 341/6/6 338/6/6 342/6/6
f 343/6/6 344/6/6 345/6/6
f 345/6/6 344/6/6 346/6/6
f 346/6/6 344/6/6 347/6/6
f 347/6/6 344/6/6 348/6/6
f 346/6/6 347/6/6 349/6/6
f 349/6/6 347/6/6 350/6/6
