# MagicaVoxel @ Ephtracy

# material
mtllib chr_suit4.mtl
usemtl palette

# normals
vn -1 0 0
vn 1 0 0
vn 0 0 1
vn 0 0 -1
vn 0 -1 0
vn 0 1 0

# texcoords
vt 0.0332031 0.5
vt 0.0605469 0.5
vt 0.369141 0.5
vt 0.962891 0.5
vt 0.966797 0.5
vt 0.970703 0.5
vt 0.974609 0.5
vt 0.990234 0.5
vt 0.994141 0.5

# verts
v -4 2 0.5
v -4 2 -0.5
v -4 3 0.5
v -4 3 -0.5
v -4 4 0.5
v -4 4 -0.5
v -4 6 0.5
v -4 6 -0.5
v -4 7 0.5
v -4 7 -0.5
v -4 8 0.5
v -4 8 -0.5
v -4 8 -1.5
v -4 9 0.5
v -4 9 -0.5
v -4 9 -1.5
v -4 9 -2.5
v -4 10 0.5
v -4 10 -2.5
v -3 1 1.5
v -3 1 -1.5
v -3 2 2.5
v -3 2 1.5
v -3 2 0.5
v -3 2 -0.5
v -3 2 -1.5
v -3 2 -2.5
v -3 3 0.5
v -3 3 -0.5
v -3 4 0.5
v -3 4 -0.5
v -3 6 2.5
v -3 6 1.5
v -3 6 0.5
v -3 6 -0.5
v -3 6 -1.5
v -3 6 -2.5
v -3 7 0.5
v -3 7 -0.5
v -3 8 0.5
v -3 8 -0.5
v -3 8 -1.5
v -3 9 0.5
v -3 9 -0.5
v -3 10 1.5
v -3 10 0.5
v -3 10 -1.5
v -3 11 0.5
v -3 11 -1.5
v -2 0 0.5
v -2 0 -0.5
v -2 1 0.5
v -2 1 -0.5
v -2 6 -1.5
v -2 6 -2.5
v -2 9 -1.5
v -2 9 -2.5
v -2 9 -3.5
v -2 10 -1.5
v -2 10 -2.5
v -2 10 -3.5
v -2 11 -1.5
v -2 11 -2.5
v 1 0 0.5
v 1 0 -0.5
v 1 1 1.5
v 1 1 0.5
v 1 1 -0.5
v 1 1 -1.5
v 1 2 1.5
v 1 2 0.5
v 1 2 -0.5
v 1 2 -1.5
v 1 10 0.5
v 1 10 -0.5
v 1 11 0.5
v 1 11 -0.5
v 2 9 2.5
v 2 9 1.5
v 2 10 2.5
v 2 10 1.5
v 2 10 0.5
v 2 11 1.5
v 2 11 0.5
v -1 0 0.5
v -1 0 -0.5
v -1 1 1.5
v -1 1 0.5
v -1 1 -0.5
v -1 1 -1.5
v -1 2 1.5
v -1 2 -1.5
v -1 10 0.5
v -1 10 -0.5
v -1 11 0.5
v -1 11 -0.5
v 2 0 0.5
v 2 0 -0.5
v 2 1 0.5
v 2 1 -0.5
v 2 6 -1.5
v 2 6 -2.5
v 2 9 -1.5
v 2 9 -2.5
v 2 9 -3.5
v 2 10 -1.5
v 2 10 -2.5
v 2 10 -3.5
v 2 11 -1.5
v 2 11 -2.5
v 3 1 1.5
v 3 1 -1.5
v 3 2 2.5
v 3 2 1.5
v 3 2 0.5
v 3 2 -0.5
v 3 2 -1.5
v 3 2 -2.5
v 3 3 0.5
v 3 3 -0.5
v 3 4 0.5
v 3 4 -0.5
v 3 6 2.5
v 3 6 1.5
v 3 6 0.5
v 3 6 -0.5
v 3 6 -1.5
v 3 6 -2.5
v 3 7 0.5
v 3 7 -0.5
v 3 8 0.5
v 3 8 -0.5
v 3 9 2.5
v 3 9 1.5
v 3 9 -1.5
v 3 9 -2.5
v 3 10 2.5
v 3 10 1.5
v 3 10 -1.5
v 3 10 -2.5
v 3 11 1.5
v 3 11 -1.5
v 4 2 0.5
v 4 2 -0.5
v 4 3 0.5
v 4 3 -0.5
v 4 4 0.5
v 4 4 -0.5
v 4 6 0.5
v 4 6 -0.5
v 4 7 0.5
v 4 7 -0.5
v 4 8 0.5
v 4 8 -0.5
v 4 9 1.5
v 4 9 -1.5
v 4 10 1.5
v 4 10 -1.5
v -3 2 2.5
v -3 6 2.5
v -1 2 2.5
v -1 3 2.5
v -1 6 2.5
v 1 2 2.5
v 1 3 2.5
v 1 6 2.5
v 2 9 2.5
v 2 10 2.5
v 3 2 2.5
v 3 6 2.5
v 3 9 2.5
v 3 10 2.5
v -3 1 1.5
v -3 2 1.5
v -3 6 1.5
v -3 10 1.5
v -2 7 1.5
v -2 8 1.5
v -1 1 1.5
v -1 2 1.5
v -1 6 1.5
v -1 7 1.5
v -1 8 1.5
v 1 1 1.5
v 1 2 1.5
v 1 6 1.5
v 1 7 1.5
v 1 8 1.5
v 2 7 1.5
v 2 8 1.5
v 2 9 1.5
v 2 10 1.5
v 2 11 1.5
v 3 1 1.5
v 3 2 1.5
v 3 6 1.5
v 3 9 1.5
v 3 10 1.5
v 3 11 1.5
v 4 9 1.5
v 4 10 1.5
v -4 2 0.5
v -4 3 0.5
v -4 4 0.5
v -4 6 0.5
v -4 7 0.5
v -4 8 0.5
v -4 9 0.5
v -4 10 0.5
v -3 2 0.5
v -3 3 0.5
v -3 4 0.5
v -3 6 0.5
v -3 7 0.5
v -3 8 0.5
v -3 9 0.5
v -3 10 0.5
v -3 11 0.5
v -2 0 0.5
v -2 1 0.5
v -1 0 0.5
v -1 1 0.5
v -1 10 0.5
v -1 11 0.5
v 1 0 0.5
v 1 1 0.5
v 1 10 0.5
v 1 11 0.5
v 2 0 0.5
v 2 1 0.5
v 2 10 0.5
v 2 11 0.5
v 3 2 0.5
v 3 3 0.5
v 3 4 0.5
v 3 6 0.5
v 3 7 0.5
v 3 8 0.5
v 4 2 0.5
v 4 3 0.5
v 4 4 0.5
v 4 6 0.5
v 4 7 0.5
v 4 8 0.5
v -4 8 -0.5
v -4 9 -0.5
v -3 8 -0.5
v -3 9 -0.5
v -1 10 -0.5
v -1 11 -0.5
v 1 10 -0.5
v 1 11 -0.5
v -4 2 -0.5
v -4 3 -0.5
v -4 4 -0.5
v -4 6 -0.5
v -4 7 -0.5
v -4 8 -0.5
v -3 2 -0.5
v -3 3 -0.5
v -3 4 -0.5
v -3 6 -0.5
v -3 7 -0.5
v -3 8 -0.5
v -2 0 -0.5
v -2 1 -0.5
v -1 0 -0.5
v -1 1 -0.5
v 1 0 -0.5
v 1 1 -0.5
v 2 0 -0.5
v 2 1 -0.5
v 3 2 -0.5
v 3 3 -0.5
v 3 4 -0.5
v 3 6 -0.5
v 3 7 -0.5
v 3 8 -0.5
v 4 2 -0.5
v 4 3 -0.5
v 4 4 -0.5
v 4 6 -0.5
v 4 7 -0.5
v 4 8 -0.5
v -4 8 -1.5
v -4 9 -1.5
v -3 1 -1.5
v -3 2 -1.5
v -3 6 -1.5
v -3 8 -1.5
v -3 9 -1.5
v -3 10 -1.5
v -3 11 -1.5
v -2 6 -1.5
v -2 9 -1.5
v -2 10 -1.5
v -2 11 -1.5
v -1 1 -1.5
v -1 2 -1.5
v 1 1 -1.5
v 1 2 -1.5
v 2 6 -1.5
v 2 9 -1.5
v 2 10 -1.5
v 2 11 -1.5
v 3 1 -1.5
v 3 2 -1.5
v 3 6 -1.5
v 3 9 -1.5
v 3 10 -1.5
v 3 11 -1.5
v 4 9 -1.5
v 4 10 -1.5
v -4 9 -2.5
v -4 10 -2.5
v -3 2 -2.5
v -3 6 -2.5
v -2 6 -2.5
v -2 9 -2.5
v -2 10 -2.5
v -2 11 -2.5
v 2 6 -2.5
v 2 9 -2.5
v 2 10 -2.5
v 2 11 -2.5
v 3 2 -2.5
v 3 6 -2.5
v 3 9 -2.5
v 3 10 -2.5
v -2 9 -3.5
v -2 10 -3.5
v 2 9 -3.5
v 2 10 -3.5
v -2 0 0.5
v -1 0 0.5
v 1 0 0.5
v 2 0 0.5
v -2 0 -0.5
v -1 0 -0.5
v 1 0 -0.5
v 2 0 -0.5
v -3 1 1.5
v -1 1 1.5
v 1 1 1.5
v 3 1 1.5
v -2 1 0.5
v -1 1 0.5
v 1 1 0.5
v 2 1 0.5
v -2 1 -0.5
v -1 1 -0.5
v 1 1 -0.5
v 2 1 -0.5
v -3 1 -1.5
v -1 1 -1.5
v 1 1 -1.5
v 3 1 -1.5
v -3 2 2.5
v -1 2 2.5
v 1 2 2.5
v 3 2 2.5
v -3 2 1.5
v -1 2 1.5
v 1 2 1.5
v 3 2 1.5
v -4 2 0.5
v -3 2 0.5
v 1 2 0.5
v 3 2 0.5
v 4 2 0.5
v -4 2 -0.5
v -3 2 -0.5
v 1 2 -0.5
v 3 2 -0.5
v 4 2 -0.5
v -3 2 -1.5
v -1 2 -1.5
v 1 2 -1.5
v 3 2 -1.5
v -3 2 -2.5
v 3 2 -2.5
v -4 7 0.5
v -3 7 0.5
v 3 7 0.5
v 4 7 0.5
v -4 7 -0.5
v -3 7 -0.5
v 3 7 -0.5
v 4 7 -0.5
v -4 8 -0.5
v -3 8 -0.5
v -4 8 -1.5
v -3 8 -1.5
v 2 9 2.5
v 3 9 2.5
v 2 9 1.5
v 3 9 1.5
v 4 9 1.5
v -4 9 0.5
v -3 9 0.5
v -4 9 -0.5
v -3 9 -0.5
v -4 9 -1.5
v -3 9 -1.5
v -2 9 -1.5
v 2 9 -1.5
v 3 9 -1.5
v 4 9 -1.5
v -4 9 -2.5
v -2 9 -2.5
v 2 9 -2.5
v 3 9 -2.5
v -2 9 -3.5
v 2 9 -3.5
v -3 6 2.5
v -1 6 2.5
v 1 6 2.5
v 3 6 2.5
v -3 6 1.5
v -1 6 1.5
v 1 6 1.5
v 3 6 1.5
v -4 6 0.5
v -3 6 0.5
v 3 6 0.5
v 4 6 0.5
v -4 6 -0.5
v -3 6 -0.5
v 3 6 -0.5
v 4 6 -0.5
v -3 6 -1.5
v -2 6 -1.5
v 2 6 -1.5
v 3 6 -1.5
v -3 6 -2.5
v -2 6 -2.5
v 2 6 -2.5
v 3 6 -2.5
v -4 8 0.5
v -3 8 0.5
v 3 8 0.5
v 4 8 0.5
v -4 8 -0.5
v -3 8 -0.5
v 3 8 -0.5
v 4 8 -0.5
v 2 10 2.5
v 3 10 2.5
v -3 10 1.5
v 2 10 1.5
v 3 10 1.5
v 4 10 1.5
v -4 10 0.5
v -3 10 0.5
v -1 10 0.5
v 1 10 0.5
v 2 10 0.5
v -1 10 -0.5
v 1 10 -0.5
v -3 10 -1.5
v -2 10 -1.5
v 2 10 -1.5
v 3 10 -1.5
v 4 10 -1.5
v -4 10 -2.5
v -2 10 -2.5
v 2 10 -2.5
v 3 10 -2.5
v -2 10 -3.5
v 2 10 -3.5
v 2 11 1.5
v 3 11 1.5
v -3 11 0.5
v -1 11 0.5
v 1 11 0.5
v 2 11 0.5
v -1 11 -0.5
v 1 11 -0.5
v -3 11 -1.5
v -2 11 -1.5
v 2 11 -1.5
v 3 11 -1.5
v -2 11 -2.5
v 2 11 -2.5

# faces
f 3/1/1 2/1/1 1/1/1
f 4/1/1 2/1/1 3/1/1
f 5/4/1 4/4/1 3/4/1
f 6/4/1 4/4/1 5/4/1
f 7/5/1 6/5/1 5/5/1
f 8/5/1 6/5/1 7/5/1
f 11/2/1 10/2/1 9/2/1
f 12/2/1 10/2/1 11/2/1
f 15/3/1 13/3/1 12/3/1
f 16/3/1 13/3/1 15/3/1
f 18/3/1 15/3/1 14/3/1
f 18/3/1 17/3/1 16/3/1
f 18/3/1 16/3/1 15/3/1
f 19/3/1 17/3/1 18/3/1
f 23/7/1 21/7/1 20/7/1
f 24/7/1 21/7/1 23/7/1
f 25/7/1 21/7/1 24/7/1
f 26/7/1 21/7/1 25/7/1
f 28/5/1 23/5/1 22/5/1
f 28/5/1 24/5/1 23/5/1
f 29/5/1 27/5/1 26/5/1
f 29/5/1 26/5/1 25/5/1
f 30/5/1 28/5/1 22/5/1
f 31/5/1 27/5/1 29/5/1
f 32/5/1 30/5/1 22/5/1
f 33/5/1 30/5/1 32/5/1
f 34/5/1 30/5/1 33/5/1
f 35/5/1 27/5/1 31/5/1
f 36/5/1 27/5/1 35/5/1
f 37/5/1 27/5/1 36/5/1
f 38/1/1 34/1/1 33/1/1
f 38/1/1 36/1/1 35/1/1
f 38/1/1 35/1/1 34/1/1
f 39/1/1 36/1/1 38/1/1
f 40/1/1 38/1/1 33/1/1
f 41/1/1 36/1/1 39/1/1
f 42/1/1 36/1/1 41/1/1
f 43/1/1 40/1/1 33/1/1
f 43/1/1 41/1/1 40/1/1
f 44/1/1 41/1/1 43/1/1
f 45/1/1 43/1/1 33/1/1
f 46/1/1 43/1/1 45/1/1
f 48/3/1 47/3/1 46/3/1
f 49/3/1 47/3/1 48/3/1
f 52/8/1 51/8/1 50/8/1
f 53/8/1 51/8/1 52/8/1
f 56/1/1 55/1/1 54/1/1
f 57/1/1 55/1/1 56/1/1
f 60/3/1 58/3/1 57/3/1
f 61/3/1 58/3/1 60/3/1
f 62/3/1 60/3/1 59/3/1
f 63/3/1 60/3/1 62/3/1
f 67/8/1 65/8/1 64/8/1
f 68/8/1 65/8/1 67/8/1
f 70/7/1 67/7/1 66/7/1
f 71/6/1 68/6/1 67/6/1
f 71/7/1 67/7/1 70/7/1
f 72/7/1 69/7/1 68/7/1
f 72/6/1 68/6/1 71/6/1
f 73/7/1 69/7/1 72/7/1
f 76/3/1 75/3/1 74/3/1
f 77/3/1 75/3/1 76/3/1
f 80/3/1 79/3/1 78/3/1
f 81/3/1 79/3/1 80/3/1
f 83/3/1 82/3/1 81/3/1
f 84/3/1 82/3/1 83/3/1
f 85/8/2 86/8/2 88/8/2
f 88/8/2 86/8/2 89/8/2
f 87/7/2 88/7/2 91/7/2
f 89/7/2 90/7/2 91/7/2
f 88/7/2 89/7/2 91/7/2
f 91/7/2 90/7/2 92/7/2
f 93/3/2 94/3/2 95/3/2
f 95/3/2 94/3/2 96/3/2
f 97/8/2 98/8/2 99/8/2
f 99/8/2 98/8/2 100/8/2
f 101/1/2 102/1/2 103/1/2
f 103/1/2 102/1/2 104/1/2
f 104/3/2 105/3/2 107/3/2
f 107/3/2 105/3/2 108/3/2
f 106/3/2 107/3/2 109/3/2
f 109/3/2 107/3/2 110/3/2
f 111/7/2 112/7/2 114/7/2
f 114/7/2 112/7/2 115/7/2
f 115/7/2 112/7/2 116/7/2
f 116/7/2 112/7/2 117/7/2
f 113/5/2 114/5/2 119/5/2
f 114/5/2 115/5/2 119/5/2
f 117/5/2 118/5/2 120/5/2
f 116/5/2 117/5/2 120/5/2
f 113/5/2 119/5/2 121/5/2
f 120/5/2 118/5/2 122/5/2
f 113/5/2 121/5/2 123/5/2
f 123/5/2 121/5/2 124/5/2
f 124/5/2 121/5/2 125/5/2
f 122/5/2 118/5/2 126/5/2
f 126/5/2 118/5/2 127/5/2
f 127/5/2 118/5/2 128/5/2
f 124/1/2 125/1/2 129/1/2
f 126/1/2 127/1/2 129/1/2
f 125/1/2 126/1/2 129/1/2
f 129/1/2 127/1/2 130/1/2
f 124/1/2 129/1/2 131/1/2
f 130/1/2 127/1/2 132/1/2
f 124/1/2 131/1/2 134/1/2
f 131/1/2 132/1/2 134/1/2
f 132/1/2 127/1/2 135/1/2
f 134/1/2 132/1/2 135/1/2
f 133/3/2 134/3/2 137/3/2
f 137/3/2 134/3/2 138/3/2
f 135/3/2 136/3/2 139/3/2
f 139/3/2 136/3/2 140/3/2
f 138/3/2 139/3/2 141/3/2
f 141/3/2 139/3/2 142/3/2
f 143/1/2 144/1/2 145/1/2
f 145/1/2 144/1/2 146/1/2
f 145/4/2 146/4/2 147/4/2
f 147/4/2 146/4/2 148/4/2
f 147/5/2 148/5/2 149/5/2
f 149/5/2 148/5/2 150/5/2
f 151/2/2 152/2/2 153/2/2
f 153/2/2 152/2/2 154/2/2
f 155/3/2 156/3/2 157/3/2
f 157/3/2 156/3/2 158/3/2
f 161/5/3 160/5/3 159/5/3
f 162/5/3 160/5/3 161/5/3
f 163/5/3 160/5/3 162/5/3
f 164/7/3 162/7/3 161/7/3
f 165/4/3 163/4/3 162/4/3
f 165/7/3 162/7/3 164/7/3
f 166/4/3 163/4/3 165/4/3
f 169/5/3 166/5/3 165/5/3
f 169/5/3 165/5/3 164/5/3
f 170/5/3 166/5/3 169/5/3
f 171/3/3 168/3/3 167/3/3
f 172/3/3 168/3/3 171/3/3
f 177/1/3 176/1/3 175/1/3
f 178/1/3 176/1/3 177/1/3
f 179/7/3 174/7/3 173/7/3
f 180/7/3 174/7/3 179/7/3
f 181/1/3 177/1/3 175/1/3
f 182/9/3 178/9/3 177/9/3
f 182/1/3 177/1/3 181/1/3
f 183/1/3 176/1/3 178/1/3
f 183/9/3 178/9/3 182/9/3
f 186/1/3 182/1/3 181/1/3
f 186/1/3 183/1/3 182/1/3
f 187/1/3 183/1/3 186/1/3
f 188/1/3 176/1/3 183/1/3
f 188/1/3 183/1/3 187/1/3
f 189/1/3 187/1/3 186/1/3
f 189/9/3 188/9/3 187/9/3
f 190/1/3 176/1/3 188/1/3
f 190/9/3 188/9/3 189/9/3
f 191/1/3 176/1/3 190/1/3
f 192/1/3 176/1/3 191/1/3
f 194/7/3 185/7/3 184/7/3
f 195/7/3 185/7/3 194/7/3
f 196/1/3 189/1/3 186/1/3
f 196/1/3 190/1/3 189/1/3
f 196/1/3 191/1/3 190/1/3
f 197/1/3 191/1/3 196/1/3
f 198/3/3 193/3/3 192/3/3
f 199/3/3 193/3/3 198/3/3
f 200/3/3 198/3/3 197/3/3
f 201/3/3 198/3/3 200/3/3
f 210/1/3 203/1/3 202/1/3
f 211/4/3 204/4/3 203/4/3
f 211/1/3 203/1/3 210/1/3
f 212/5/3 205/5/3 204/5/3
f 212/4/3 204/4/3 211/4/3
f 213/5/3 205/5/3 212/5/3
f 214/2/3 207/2/3 206/2/3
f 215/2/3 207/2/3 214/2/3
f 216/3/3 209/3/3 208/3/3
f 217/3/3 209/3/3 216/3/3
f 221/8/3 220/8/3 219/8/3
f 222/8/3 220/8/3 221/8/3
f 223/3/3 218/3/3 217/3/3
f 224/3/3 218/3/3 223/3/3
f 229/8/3 226/8/3 225/8/3
f 230/8/3 226/8/3 229/8/3
f 231/3/3 228/3/3 227/3/3
f 232/3/3 228/3/3 231/3/3
f 239/1/3 234/1/3 233/1/3
f 240/4/3 235/4/3 234/4/3
f 240/1/3 234/1/3 239/1/3
f 241/5/3 236/5/3 235/5/3
f 241/4/3 235/4/3 240/4/3
f 242/5/3 236/5/3 241/5/3
f 243/2/3 238/2/3 237/2/3
f 244/2/3 238/2/3 243/2/3
f 247/3/3 246/3/3 245/3/3
f 248/3/3 246/3/3 247/3/3
f 251/3/3 250/3/3 249/3/3
f 252/3/3 250/3/3 251/3/3
f 253/1/4 254/1/4 259/1/4
f 254/4/4 255/4/4 260/4/4
f 259/1/4 254/1/4 260/1/4
f 255/5/4 256/5/4 261/5/4
f 260/4/4 255/4/4 261/4/4
f 261/5/4 256/5/4 262/5/4
f 257/2/4 258/2/4 263/2/4
f 263/2/4 258/2/4 264/2/4
f 265/8/4 266/8/4 267/8/4
f 267/8/4 266/8/4 268/8/4
f 269/8/4 270/8/4 271/8/4
f 271/8/4 270/8/4 272/8/4
f 273/1/4 274/1/4 279/1/4
f 274/4/4 275/4/4 280/4/4
f 279/1/4 274/1/4 280/1/4
f 275/5/4 276/5/4 281/5/4
f 280/4/4 275/4/4 281/4/4
f 281/5/4 276/5/4 282/5/4
f 277/2/4 278/2/4 283/2/4
f 283/2/4 278/2/4 284/2/4
f 285/3/4 286/3/4 290/3/4
f 290/3/4 286/3/4 291/3/4
f 289/1/4 290/1/4 294/1/4
f 290/1/4 291/1/4 294/1/4
f 294/1/4 291/1/4 295/1/4
f 292/3/4 293/3/4 296/3/4
f 296/3/4 293/3/4 297/3/4
f 287/7/4 288/7/4 298/7/4
f 298/7/4 288/7/4 299/7/4
f 300/7/4 301/7/4 306/7/4
f 306/7/4 301/7/4 307/7/4
f 302/1/4 303/1/4 308/1/4
f 308/1/4 303/1/4 309/1/4
f 304/3/4 305/3/4 310/3/4
f 310/3/4 305/3/4 311/3/4
f 309/3/4 310/3/4 312/3/4
f 312/3/4 310/3/4 313/3/4
f 316/5/4 317/5/4 318/5/4
f 314/3/4 315/3/4 319/3/4
f 319/3/4 315/3/4 320/3/4
f 316/5/4 318/5/4 322/5/4
f 318/1/4 319/1/4 322/1/4
f 322/1/4 319/1/4 323/1/4
f 320/3/4 321/3/4 324/3/4
f 324/3/4 321/3/4 325/3/4
f 316/5/4 322/5/4 326/5/4
f 326/5/4 322/5/4 327/5/4
f 323/3/4 324/3/4 328/3/4
f 328/3/4 324/3/4 329/3/4
f 330/3/4 331/3/4 332/3/4
f 332/3/4 331/3/4 333/3/4
f 338/8/5 335/8/5 334/8/5
f 339/8/5 335/8/5 338/8/5
f 340/8/5 337/8/5 336/8/5
f 341/8/5 337/8/5 340/8/5
f 346/7/5 343/7/5 342/7/5
f 347/7/5 343/7/5 346/7/5
f 348/7/5 345/7/5 344/7/5
f 349/7/5 345/7/5 348/7/5
f 350/7/5 346/7/5 342/7/5
f 353/7/5 345/7/5 349/7/5
f 354/7/5 351/7/5 350/7/5
f 354/7/5 350/7/5 342/7/5
f 355/7/5 351/7/5 354/7/5
f 356/7/5 353/7/5 352/7/5
f 357/7/5 345/7/5 353/7/5
f 357/7/5 353/7/5 356/7/5
f 362/5/5 359/5/5 358/5/5
f 363/7/5 360/7/5 359/7/5
f 363/5/5 359/5/5 362/5/5
f 364/5/5 361/5/5 360/5/5
f 364/7/5 360/7/5 363/7/5
f 365/5/5 361/5/5 364/5/5
f 368/7/5 364/7/5 363/7/5
f 371/1/5 367/1/5 366/1/5
f 372/1/5 367/1/5 371/1/5
f 373/7/5 368/7/5 363/7/5
f 374/1/5 370/1/5 369/1/5
f 375/1/5 370/1/5 374/1/5
f 377/7/5 373/7/5 363/7/5
f 378/7/5 373/7/5 377/7/5
f 380/5/5 377/5/5 376/5/5
f 380/5/5 379/5/5 378/5/5
f 380/5/5 378/5/5 377/5/5
f 381/5/5 379/5/5 380/5/5
f 386/2/5 383/2/5 382/2/5
f 387/2/5 383/2/5 386/2/5
f 388/2/5 385/2/5 384/2/5
f 389/2/5 385/2/5 388/2/5
f 392/3/5 391/3/5 390/3/5
f 393/3/5 391/3/5 392/3/5
f 396/3/5 395/3/5 394/3/5
f 397/3/5 395/3/5 396/3/5
f 401/3/5 400/3/5 399/3/5
f 402/3/5 400/3/5 401/3/5
f 407/3/5 398/3/5 397/3/5
f 408/3/5 398/3/5 407/3/5
f 409/3/5 405/3/5 404/3/5
f 409/3/5 404/3/5 403/3/5
f 410/3/5 405/3/5 409/3/5
f 411/3/5 407/3/5 406/3/5
f 412/3/5 407/3/5 411/3/5
f 413/3/5 411/3/5 410/3/5
f 414/3/5 411/3/5 413/3/5
f 415/5/6 416/5/6 419/5/6
f 416/4/6 417/4/6 420/4/6
f 419/5/6 416/5/6 420/5/6
f 417/5/6 418/5/6 421/5/6
f 420/4/6 417/4/6 421/4/6
f 421/5/6 418/5/6 422/5/6
f 423/5/6 424/5/6 427/5/6
f 427/5/6 424/5/6 428/5/6
f 425/5/6 426/5/6 429/5/6
f 429/5/6 426/5/6 430/5/6
f 431/5/6 432/5/6 435/5/6
f 435/5/6 432/5/6 436/5/6
f 433/5/6 434/5/6 437/5/6
f 437/5/6 434/5/6 438/5/6
f 439/2/6 440/2/6 443/2/6
f 443/2/6 440/2/6 444/2/6
f 441/2/6 442/2/6 445/2/6
f 445/2/6 442/2/6 446/2/6
f 447/3/6 448/3/6 450/3/6
f 450/3/6 448/3/6 451/3/6
f 449/1/6 450/1/6 454/1/6
f 454/1/6 450/1/6 455/1/6
f 455/1/6 450/1/6 456/1/6
f 456/1/6 450/1/6 457/1/6
f 455/1/6 456/1/6 458/1/6
f 458/1/6 456/1/6 459/1/6
f 453/3/6 454/3/6 460/3/6
f 451/3/6 452/3/6 463/3/6
f 463/3/6 452/3/6 464/3/6
f 453/3/6 460/3/6 465/3/6
f 460/3/6 461/3/6 465/3/6
f 465/3/6 461/3/6 466/3/6
f 462/3/6 463/3/6 467/3/6
f 467/3/6 463/3/6 468/3/6
f 466/3/6 467/3/6 469/3/6
f 469/3/6 467/3/6 470/3/6
f 471/3/6 472/3/6 476/3/6
f 473/3/6 474/3/6 477/3/6
f 475/3/6 476/3/6 478/3/6
f 473/3/6 477/3/6 479/3/6
f 477/3/6 478/3/6 479/3/6
f 479/3/6 478/3/6 480/3/6
f 478/3/6 476/3/6 481/3/6
f 480/3/6 478/3/6 481/3/6
f 476/3/6 472/3/6 481/3/6
f 481/3/6 472/3/6 482/3/6
f 480/3/6 481/3/6 483/3/6
f 483/3/6 481/3/6 484/3/6
