# MagicaVoxel @ Ephtracy

# material
mtllib chr_cop2.mtl
usemtl palette

# normals
vn -1 0 0
vn 1 0 0
vn 0 0 1
vn 0 0 -1
vn 0 -1 0
vn 0 1 0

# texcoords
vt 0.208984 0.5
vt 0.369141 0.5
vt 0.373047 0.5
vt 0.615234 0.5
vt 0.642578 0.5
vt 0.783203 0.5
vt 0.982422 0.5
vt 0.986328 0.5
vt 0.990234 0.5
vt 0.994141 0.5

# verts
v -4 2 0.5
v -4 2 -0.5
v -4 4 0.5
v -4 4 -0.5
v -4 5 0.5
v -4 5 -0.5
v -4 6 0.5
v -4 6 -0.5
v -4 7 0.5
v -4 7 -0.5
v -4 8 0.5
v -4 8 -0.5
v -3 1 1.5
v -3 1 -1.5
v -3 2 2.5
v -3 2 1.5
v -3 2 0.5
v -3 2 -0.5
v -3 2 -1.5
v -3 2 -2.5
v -3 3 2.5
v -3 3 0.5
v -3 3 -0.5
v -3 3 -2.5
v -3 4 0.5
v -3 4 -0.5
v -3 5 0.5
v -3 5 -0.5
v -3 6 2.5
v -3 6 1.5
v -3 6 0.5
v -3 6 -0.5
v -3 6 -1.5
v -3 6 -2.5
v -3 7 0.5
v -3 7 -0.5
v -3 7 -1.5
v -3 7 -2.5
v -3 8 0.5
v -3 8 -0.5
v -3 9 2.5
v -3 9 1.5
v -3 9 0.5
v -3 9 -2.5
v -3 10 2.5
v -3 10 1.5
v -3 11 1.5
v -3 11 -2.5
v -2 0 0.5
v -2 0 -0.5
v -2 1 0.5
v -2 1 -0.5
v -2 6 -1.5
v -2 6 -2.5
v -2 7 -1.5
v -2 7 -2.5
v -2 7 -3.5
v -2 9 -2.5
v -2 9 -3.5
v -1 4 -2.5
v -1 4 -3.5
v -1 6 -2.5
v -1 6 -3.5
v -1 7 -2.5
v -1 7 -3.5
v -1 10 2.5
v -1 10 1.5
v -1 11 2.5
v -1 11 1.5
v 0 4 3.5
v 0 4 2.5
v 0 5 3.5
v 0 5 2.5
v 1 0 0.5
v 1 0 -0.5
v 1 1 1.5
v 1 1 0.5
v 1 1 -0.5
v 1 1 -1.5
v 1 2 1.5
v 1 2 -1.5
v 1 5 2.5
v 1 5 1.5
v 1 6 2.5
v 1 6 1.5
v -1 0 0.5
v -1 0 -0.5
v -1 1 1.5
v -1 1 0.5
v -1 1 -0.5
v -1 1 -1.5
v -1 2 1.5
v -1 2 -1.5
v -1 5 2.5
v -1 5 1.5
v -1 6 2.5
v -1 6 1.5
v 1 4 3.5
v 1 4 2.5
v 1 4 -2.5
v 1 4 -3.5
v 1 5 3.5
v 1 5 2.5
v 1 6 -2.5
v 1 6 -3.5
v 1 7 -2.5
v 1 7 -3.5
v 1 10 2.5
v 1 10 1.5
v 1 11 2.5
v 1 11 1.5
v 2 0 0.5
v 2 0 -0.5
v 2 1 0.5
v 2 1 -0.5
v 2 6 -1.5
v 2 6 -2.5
v 2 7 -1.5
v 2 7 -2.5
v 2 7 -3.5
v 2 9 -2.5
v 2 9 -3.5
v 3 1 1.5
v 3 1 -1.5
v 3 2 2.5
v 3 2 1.5
v 3 2 0.5
v 3 2 -0.5
v 3 2 -1.5
v 3 2 -2.5
v 3 3 2.5
v 3 3 1.5
v 3 3 0.5
v 3 3 -0.5
v 3 3 -2.5
v 3 4 2.5
v 3 4 1.5
v 3 4 0.5
v 3 4 -0.5
v 3 5 0.5
v 3 5 -0.5
v 3 6 2.5
v 3 6 1.5
v 3 6 0.5
v 3 6 -0.5
v 3 6 -1.5
v 3 6 -2.5
v 3 7 0.5
v 3 7 -0.5
v 3 7 -1.5
v 3 7 -2.5
v 3 8 0.5
v 3 8 -0.5
v 3 9 2.5
v 3 9 1.5
v 3 9 0.5
v 3 9 -2.5
v 3 10 2.5
v 3 10 1.5
v 3 11 1.5
v 3 11 -2.5
v 4 2 0.5
v 4 2 -0.5
v 4 4 0.5
v 4 4 -0.5
v 4 5 0.5
v 4 5 -0.5
v 4 6 0.5
v 4 6 -0.5
v 4 7 0.5
v 4 7 -0.5
v 4 8 0.5
v 4 8 -0.5
v 0 4 3.5
v 0 5 3.5
v 1 4 3.5
v 1 5 3.5
v -3 2 2.5
v -3 3 2.5
v -3 6 2.5
v -3 9 2.5
v -3 10 2.5
v -1 3 2.5
v -1 5 2.5
v -1 6 2.5
v -1 10 2.5
v -1 11 2.5
v 0 3 2.5
v 0 4 2.5
v 0 5 2.5
v 1 3 2.5
v 1 4 2.5
v 1 5 2.5
v 1 6 2.5
v 1 10 2.5
v 1 11 2.5
v 2 4 2.5
v 2 5 2.5
v 3 2 2.5
v 3 3 2.5
v 3 4 2.5
v 3 6 2.5
v 3 9 2.5
v 3 10 2.5
v -3 1 1.5
v -3 2 1.5
v -3 6 1.5
v -3 9 1.5
v -3 10 1.5
v -3 11 1.5
v -2 7 1.5
v -2 8 1.5
v -1 1 1.5
v -1 2 1.5
v -1 5 1.5
v -1 6 1.5
v -1 7 1.5
v -1 8 1.5
v -1 10 1.5
v -1 11 1.5
v 0 5 1.5
v 1 1 1.5
v 1 2 1.5
v 1 5 1.5
v 1 6 1.5
v 1 7 1.5
v 1 8 1.5
v 1 10 1.5
v 1 11 1.5
v 2 7 1.5
v 2 8 1.5
v 3 1 1.5
v 3 2 1.5
v 3 6 1.5
v 3 9 1.5
v 3 10 1.5
v 3 11 1.5
v -4 2 0.5
v -4 4 0.5
v -4 5 0.5
v -4 6 0.5
v -4 7 0.5
v -4 8 0.5
v -3 2 0.5
v -3 3 0.5
v -3 4 0.5
v -3 5 0.5
v -3 6 0.5
v -3 7 0.5
v -3 8 0.5
v -2 0 0.5
v -2 1 0.5
v -1 0 0.5
v -1 1 0.5
v 1 0 0.5
v 1 1 0.5
v 2 0 0.5
v 2 1 0.5
v 3 2 0.5
v 3 3 0.5
v 3 4 0.5
v 3 5 0.5
v 3 6 0.5
v 3 7 0.5
v 3 8 0.5
v 4 2 0.5
v 4 4 0.5
v 4 5 0.5
v 4 6 0.5
v 4 7 0.5
v 4 8 0.5
v -4 2 -0.5
v -4 4 -0.5
v -4 5 -0.5
v -4 6 -0.5
v -4 7 -0.5
v -4 8 -0.5
v -3 2 -0.5
v -3 3 -0.5
v -3 4 -0.5
v -3 5 -0.5
v -3 6 -0.5
v -3 7 -0.5
v -3 8 -0.5
v -2 0 -0.5
v -2 1 -0.5
v -1 0 -0.5
v -1 1 -0.5
v 1 0 -0.5
v 1 1 -0.5
v 2 0 -0.5
v 2 1 -0.5
v 3 2 -0.5
v 3 3 -0.5
v 3 4 -0.5
v 3 5 -0.5
v 3 6 -0.5
v 3 7 -0.5
v 3 8 -0.5
v 4 2 -0.5
v 4 4 -0.5
v 4 5 -0.5
v 4 6 -0.5
v 4 7 -0.5
v 4 8 -0.5
v -3 1 -1.5
v -3 2 -1.5
v -3 6 -1.5
v -3 7 -1.5
v -2 6 -1.5
v -2 7 -1.5
v -1 1 -1.5
v -1 2 -1.5
v 1 1 -1.5
v 1 2 -1.5
v 2 6 -1.5
v 2 7 -1.5
v 3 1 -1.5
v 3 2 -1.5
v 3 6 -1.5
v 3 7 -1.5
v -3 2 -2.5
v -3 3 -2.5
v -3 6 -2.5
v -3 7 -2.5
v -3 9 -2.5
v -3 11 -2.5
v -2 6 -2.5
v -2 7 -2.5
v -2 9 -2.5
v -1 4 -2.5
v -1 6 -2.5
v -1 7 -2.5
v 1 4 -2.5
v 1 6 -2.5
v 1 7 -2.5
v 2 6 -2.5
v 2 7 -2.5
v 2 9 -2.5
v 3 2 -2.5
v 3 3 -2.5
v 3 6 -2.5
v 3 7 -2.5
v 3 9 -2.5
v 3 11 -2.5
v -2 7 -3.5
v -2 9 -3.5
v -1 4 -3.5
v -1 6 -3.5
v -1 7 -3.5
v 1 4 -3.5
v 1 6 -3.5
v 1 7 -3.5
v 2 7 -3.5
v 2 9 -3.5
v -2 0 0.5
v -1 0 0.5
v 1 0 0.5
v 2 0 0.5
v -2 0 -0.5
v -1 0 -0.5
v 1 0 -0.5
v 2 0 -0.5
v -3 1 1.5
v -1 1 1.5
v 1 1 1.5
v 3 1 1.5
v -2 1 0.5
v -1 1 0.5
v 1 1 0.5
v 2 1 0.5
v -2 1 -0.5
v -1 1 -0.5
v 1 1 -0.5
v 2 1 -0.5
v -3 1 -1.5
v -1 1 -1.5
v 1 1 -1.5
v 3 1 -1.5
v -3 2 2.5
v 3 2 2.5
v -3 2 1.5
v -1 2 1.5
v 1 2 1.5
v 3 2 1.5
v -4 2 0.5
v -3 2 0.5
v 3 2 0.5
v 4 2 0.5
v -4 2 -0.5
v -3 2 -0.5
v 3 2 -0.5
v 4 2 -0.5
v -3 2 -1.5
v -1 2 -1.5
v 1 2 -1.5
v 3 2 -1.5
v -3 2 -2.5
v 3 2 -2.5
v 0 4 3.5
v 1 4 3.5
v 0 4 2.5
v 1 4 2.5
v -1 4 -2.5
v 1 4 -2.5
v -1 4 -3.5
v 1 4 -3.5
v -4 7 0.5
v -3 7 0.5
v 3 7 0.5
v 4 7 0.5
v -4 7 -0.5
v -3 7 -0.5
v 3 7 -0.5
v 4 7 -0.5
v -3 7 -1.5
v -2 7 -1.5
v 2 7 -1.5
v 3 7 -1.5
v -3 7 -2.5
v -2 7 -2.5
v -1 7 -2.5
v 1 7 -2.5
v 2 7 -2.5
v 3 7 -2.5
v -2 7 -3.5
v -1 7 -3.5
v 1 7 -3.5
v 2 7 -3.5
v -3 9 2.5
v 3 9 2.5
v -3 9 1.5
v 3 9 1.5
v 0 5 3.5
v 1 5 3.5
v -1 5 2.5
v 0 5 2.5
v 1 5 2.5
v -1 5 1.5
v 0 5 1.5
v 1 5 1.5
v -3 6 2.5
v -1 6 2.5
v 1 6 2.5
v 3 6 2.5
v -3 6 1.5
v -1 6 1.5
v 1 6 1.5
v 3 6 1.5
v -4 6 0.5
v -3 6 0.5
v 3 6 0.5
v 4 6 0.5
v -4 6 -0.5
v -3 6 -0.5
v 3 6 -0.5
v 4 6 -0.5
v -3 6 -1.5
v -2 6 -1.5
v 2 6 -1.5
v 3 6 -1.5
v -3 6 -2.5
v -2 6 -2.5
v 2 6 -2.5
v 3 6 -2.5
v -4 8 0.5
v -3 8 0.5
v 3 8 0.5
v 4 8 0.5
v -4 8 -0.5
v -3 8 -0.5
v 3 8 -0.5
v 4 8 -0.5
v -2 9 -2.5
v 2 9 -2.5
v -2 9 -3.5
v 2 9 -3.5
v -3 10 2.5
v -1 10 2.5
v 1 10 2.5
v 3 10 2.5
v -3 10 1.5
v -1 10 1.5
v 1 10 1.5
v 3 10 1.5
v -1 11 2.5
v 1 11 2.5
v -3 11 1.5
v -1 11 1.5
v 1 11 1.5
v 3 11 1.5
v -3 11 -2.5
v 3 11 -2.5

# faces
f 3/3/1 2/3/1 1/3/1
f 4/3/1 2/3/1 3/3/1
f 5/4/1 4/4/1 3/4/1
f 6/4/1 4/4/1 5/4/1
f 7/7/1 6/7/1 5/7/1
f 8/7/1 6/7/1 7/7/1
f 11/3/1 10/3/1 9/3/1
f 12/3/1 10/3/1 11/3/1
f 16/6/1 14/6/1 13/6/1
f 17/6/1 14/6/1 16/6/1
f 18/6/1 14/6/1 17/6/1
f 19/6/1 14/6/1 18/6/1
f 21/8/1 16/8/1 15/8/1
f 21/8/1 17/8/1 16/8/1
f 22/8/1 17/8/1 21/8/1
f 23/8/1 20/8/1 19/8/1
f 23/8/1 19/8/1 18/8/1
f 24/8/1 20/8/1 23/8/1
f 25/4/1 22/4/1 21/4/1
f 26/4/1 24/4/1 23/4/1
f 27/4/1 25/4/1 21/4/1
f 28/4/1 24/4/1 26/4/1
f 29/4/1 27/4/1 21/4/1
f 30/4/1 27/4/1 29/4/1
f 31/4/1 27/4/1 30/4/1
f 32/4/1 24/4/1 28/4/1
f 33/4/1 24/4/1 32/4/1
f 34/4/1 24/4/1 33/4/1
f 35/3/1 31/3/1 30/3/1
f 35/3/1 33/3/1 32/3/1
f 35/3/1 32/3/1 31/3/1
f 36/3/1 33/3/1 35/3/1
f 37/3/1 33/3/1 36/3/1
f 39/3/1 35/3/1 30/3/1
f 40/10/1 38/10/1 37/10/1
f 40/10/1 37/10/1 36/10/1
f 42/3/1 39/3/1 30/3/1
f 43/10/1 40/10/1 39/10/1
f 43/3/1 39/3/1 42/3/1
f 44/10/1 38/10/1 40/10/1
f 44/10/1 40/10/1 43/10/1
f 45/6/1 42/6/1 41/6/1
f 45/6/1 43/6/1 42/6/1
f 45/6/1 44/6/1 43/6/1
f 46/6/1 44/6/1 45/6/1
f 47/6/1 44/6/1 46/6/1
f 48/6/1 44/6/1 47/6/1
f 51/8/1 50/8/1 49/8/1
f 52/8/1 50/8/1 51/8/1
f 55/3/1 54/3/1 53/3/1
f 56/3/1 54/3/1 55/3/1
f 58/10/1 57/10/1 56/10/1
f 59/10/1 57/10/1 58/10/1
f 62/10/1 61/10/1 60/10/1
f 63/10/1 61/10/1 62/10/1
f 64/9/1 63/9/1 62/9/1
f 65/9/1 63/9/1 64/9/1
f 68/1/1 67/1/1 66/1/1
f 69/1/1 67/1/1 68/1/1
f 72/7/1 71/7/1 70/7/1
f 73/7/1 71/7/1 72/7/1
f 77/8/1 75/8/1 74/8/1
f 78/8/1 75/8/1 77/8/1
f 80/6/1 77/6/1 76/6/1
f 80/6/1 79/6/1 78/6/1
f 80/6/1 78/6/1 77/6/1
f 81/6/1 79/6/1 80/6/1
f 84/4/1 83/4/1 82/4/1
f 85/4/1 83/4/1 84/4/1
f 86/8/2 87/8/2 89/8/2
f 89/8/2 87/8/2 90/8/2
f 88/6/2 89/6/2 92/6/2
f 90/6/2 91/6/2 92/6/2
f 89/6/2 90/6/2 92/6/2
f 92/6/2 91/6/2 93/6/2
f 94/4/2 95/4/2 96/4/2
f 96/4/2 95/4/2 97/4/2
f 98/7/2 99/7/2 102/7/2
f 102/7/2 99/7/2 103/7/2
f 100/10/2 101/10/2 104/10/2
f 104/10/2 101/10/2 105/10/2
f 104/9/2 105/9/2 106/9/2
f 106/9/2 105/9/2 107/9/2
f 108/1/2 109/1/2 110/1/2
f 110/1/2 109/1/2 111/1/2
f 112/8/2 113/8/2 114/8/2
f 114/8/2 113/8/2 115/8/2
f 116/3/2 117/3/2 118/3/2
f 118/3/2 117/3/2 119/3/2
f 119/10/2 120/10/2 121/10/2
f 121/10/2 120/10/2 122/10/2
f 123/6/2 124/6/2 126/6/2
f 126/6/2 124/6/2 127/6/2
f 127/6/2 124/6/2 128/6/2
f 128/6/2 124/6/2 129/6/2
f 125/8/2 126/8/2 131/8/2
f 126/8/2 127/8/2 131/8/2
f 131/8/2 127/8/2 132/8/2
f 132/8/2 127/8/2 133/8/2
f 129/8/2 130/8/2 134/8/2
f 128/8/2 129/8/2 134/8/2
f 134/8/2 130/8/2 135/8/2
f 131/7/2 132/7/2 136/7/2
f 132/4/2 133/4/2 137/4/2
f 136/7/2 132/7/2 137/7/2
f 137/4/2 133/4/2 138/4/2
f 134/4/2 135/4/2 139/4/2
f 137/4/2 138/4/2 140/4/2
f 136/4/2 137/4/2 140/4/2
f 139/4/2 135/4/2 141/4/2
f 136/4/2 140/4/2 142/4/2
f 142/4/2 140/4/2 143/4/2
f 143/4/2 140/4/2 144/4/2
f 141/4/2 135/4/2 145/4/2
f 145/4/2 135/4/2 146/4/2
f 146/4/2 135/4/2 147/4/2
f 143/3/2 144/3/2 148/3/2
f 145/3/2 146/3/2 148/3/2
f 144/3/2 145/3/2 148/3/2
f 148/3/2 146/3/2 149/3/2
f 149/3/2 146/3/2 150/3/2
f 143/3/2 148/3/2 152/3/2
f 150/10/2 151/10/2 153/10/2
f 149/10/2 150/10/2 153/10/2
f 143/3/2 152/3/2 155/3/2
f 152/10/2 153/10/2 156/10/2
f 155/3/2 152/3/2 156/3/2
f 153/10/2 151/10/2 157/10/2
f 156/10/2 153/10/2 157/10/2
f 154/6/2 155/6/2 158/6/2
f 155/6/2 156/6/2 158/6/2
f 156/6/2 157/6/2 158/6/2
f 158/6/2 157/6/2 159/6/2
f 159/6/2 157/6/2 160/6/2
f 160/6/2 157/6/2 161/6/2
f 162/3/2 163/3/2 164/3/2
f 164/3/2 163/3/2 165/3/2
f 164/4/2 165/4/2 166/4/2
f 166/4/2 165/4/2 167/4/2
f 166/7/2 167/7/2 168/7/2
f 168/7/2 167/7/2 169/7/2
f 170/3/2 171/3/2 172/3/2
f 172/3/2 171/3/2 173/3/2
f 176/7/3 175/7/3 174/7/3
f 177/7/3 175/7/3 176/7/3
f 183/8/3 179/8/3 178/8/3
f 183/4/3 180/4/3 179/4/3
f 184/4/3 180/4/3 183/4/3
f 185/4/3 180/4/3 184/4/3
f 186/6/3 182/6/3 181/6/3
f 188/8/3 183/8/3 178/8/3
f 188/5/3 184/5/3 183/5/3
f 189/5/3 184/5/3 188/5/3
f 190/5/3 184/5/3 189/5/3
f 191/8/3 188/8/3 178/8/3
f 191/4/3 189/4/3 188/4/3
f 192/4/3 189/4/3 191/4/3
f 195/1/3 187/1/3 186/1/3
f 195/6/3 186/6/3 181/6/3
f 196/1/3 187/1/3 195/1/3
f 197/7/3 192/7/3 191/7/3
f 197/1/3 193/1/3 192/1/3
f 198/4/3 194/4/3 193/4/3
f 198/1/3 193/1/3 197/1/3
f 199/8/3 191/8/3 178/8/3
f 200/7/3 197/7/3 191/7/3
f 200/8/3 191/8/3 199/8/3
f 201/4/3 198/4/3 197/4/3
f 201/7/3 197/7/3 200/7/3
f 202/4/3 194/4/3 198/4/3
f 202/4/3 198/4/3 201/4/3
f 203/6/3 195/6/3 181/6/3
f 204/6/3 195/6/3 203/6/3
f 211/3/3 208/3/3 207/3/3
f 212/3/3 208/3/3 211/3/3
f 213/6/3 206/6/3 205/6/3
f 214/6/3 206/6/3 213/6/3
f 216/3/3 211/3/3 207/3/3
f 217/10/3 212/10/3 211/10/3
f 217/3/3 211/3/3 216/3/3
f 218/3/3 208/3/3 212/3/3
f 218/10/3 212/10/3 217/10/3
f 219/6/3 210/6/3 209/6/3
f 220/6/3 210/6/3 219/6/3
f 221/3/3 217/3/3 216/3/3
f 221/3/3 216/3/3 215/3/3
f 221/3/3 218/3/3 217/3/3
f 224/3/3 218/3/3 221/3/3
f 225/3/3 218/3/3 224/3/3
f 226/3/3 218/3/3 225/3/3
f 227/3/3 208/3/3 218/3/3
f 227/3/3 218/3/3 226/3/3
f 230/3/3 226/3/3 225/3/3
f 230/10/3 227/10/3 226/10/3
f 231/3/3 208/3/3 227/3/3
f 231/10/3 227/10/3 230/10/3
f 232/6/3 223/6/3 222/6/3
f 233/6/3 223/6/3 232/6/3
f 234/3/3 230/3/3 225/3/3
f 234/3/3 231/3/3 230/3/3
f 235/3/3 208/3/3 231/3/3
f 235/3/3 231/3/3 234/3/3
f 236/6/3 229/6/3 228/6/3
f 237/6/3 229/6/3 236/6/3
f 244/3/3 239/3/3 238/3/3
f 245/3/3 239/3/3 244/3/3
f 246/4/3 240/4/3 239/4/3
f 246/3/3 239/3/3 245/3/3
f 247/7/3 241/7/3 240/7/3
f 247/4/3 240/4/3 246/4/3
f 248/7/3 241/7/3 247/7/3
f 249/3/3 243/3/3 242/3/3
f 250/3/3 243/3/3 249/3/3
f 253/8/3 252/8/3 251/8/3
f 254/8/3 252/8/3 253/8/3
f 257/8/3 256/8/3 255/8/3
f 258/8/3 256/8/3 257/8/3
f 266/3/3 260/3/3 259/3/3
f 266/3/3 261/3/3 260/3/3
f 267/4/3 262/4/3 261/4/3
f 267/3/3 261/3/3 266/3/3
f 268/7/3 263/7/3 262/7/3
f 268/4/3 262/4/3 267/4/3
f 269/7/3 263/7/3 268/7/3
f 270/3/3 265/3/3 264/3/3
f 271/3/3 265/3/3 270/3/3
f 272/3/4 273/3/4 278/3/4
f 278/3/4 273/3/4 279/3/4
f 273/4/4 274/4/4 280/4/4
f 279/3/4 273/3/4 280/3/4
f 274/7/4 275/7/4 281/7/4
f 280/4/4 274/4/4 281/4/4
f 281/7/4 275/7/4 282/7/4
f 276/3/4 277/3/4 283/3/4
f 283/3/4 277/3/4 284/3/4
f 285/8/4 286/8/4 287/8/4
f 287/8/4 286/8/4 288/8/4
f 289/8/4 290/8/4 291/8/4
f 291/8/4 290/8/4 292/8/4
f 293/3/4 294/3/4 300/3/4
f 294/3/4 295/3/4 300/3/4
f 295/4/4 296/4/4 301/4/4
f 300/3/4 295/3/4 301/3/4
f 296/7/4 297/7/4 302/7/4
f 301/4/4 296/4/4 302/4/4
f 302/7/4 297/7/4 303/7/4
f 298/3/4 299/3/4 304/3/4
f 304/3/4 299/3/4 305/3/4
f 308/3/4 309/3/4 310/3/4
f 310/3/4 309/3/4 311/3/4
f 306/6/4 307/6/4 312/6/4
f 312/6/4 307/6/4 313/6/4
f 314/6/4 315/6/4 318/6/4
f 318/6/4 315/6/4 319/6/4
f 316/3/4 317/3/4 320/3/4
f 320/3/4 317/3/4 321/3/4
f 323/4/4 324/4/4 328/4/4
f 325/10/4 326/10/4 329/10/4
f 326/6/4 327/6/4 330/6/4
f 329/10/4 326/10/4 330/10/4
f 323/4/4 328/4/4 331/4/4
f 328/3/4 329/3/4 332/3/4
f 331/4/4 328/4/4 332/4/4
f 332/3/4 329/3/4 333/3/4
f 323/4/4 331/4/4 334/4/4
f 334/4/4 335/4/4 337/4/4
f 335/3/4 336/3/4 337/3/4
f 337/3/4 336/3/4 338/3/4
f 330/6/4 327/6/4 339/6/4
f 322/8/4 323/8/4 340/8/4
f 334/4/4 337/4/4 341/4/4
f 340/8/4 323/8/4 341/8/4
f 323/4/4 334/4/4 341/4/4
f 341/4/4 337/4/4 342/4/4
f 338/10/4 339/10/4 343/10/4
f 339/6/4 327/6/4 344/6/4
f 343/10/4 339/10/4 344/10/4
f 344/6/4 327/6/4 345/6/4
f 346/10/4 347/10/4 350/10/4
f 348/10/4 349/10/4 351/10/4
f 349/9/4 350/9/4 352/9/4
f 351/10/4 349/10/4 352/10/4
f 350/10/4 347/10/4 353/10/4
f 352/9/4 350/9/4 353/9/4
f 353/10/4 347/10/4 354/10/4
f 354/10/4 347/10/4 355/10/4
f 360/8/5 357/8/5 356/8/5
f 361/8/5 357/8/5 360/8/5
f 362/8/5 359/8/5 358/8/5
f 363/8/5 359/8/5 362/8/5
f 368/6/5 365/6/5 364/6/5
f 369/6/5 365/6/5 368/6/5
f 370/6/5 367/6/5 366/6/5
f 371/6/5 367/6/5 370/6/5
f 372/6/5 368/6/5 364/6/5
f 375/6/5 367/6/5 371/6/5
f 376/6/5 373/6/5 372/6/5
f 376/6/5 372/6/5 364/6/5
f 377/6/5 373/6/5 376/6/5
f 378/6/5 375/6/5 374/6/5
f 379/6/5 367/6/5 375/6/5
f 379/6/5 375/6/5 378/6/5
f 382/8/5 381/8/5 380/8/5
f 383/8/5 381/8/5 382/8/5
f 384/8/5 381/8/5 383/8/5
f 385/8/5 381/8/5 384/8/5
f 390/3/5 387/3/5 386/3/5
f 391/3/5 387/3/5 390/3/5
f 392/3/5 389/3/5 388/3/5
f 393/3/5 389/3/5 392/3/5
f 395/6/5 384/6/5 383/6/5
f 396/6/5 384/6/5 395/6/5
f 398/8/5 395/8/5 394/8/5
f 398/8/5 397/8/5 396/8/5
f 398/8/5 396/8/5 395/8/5
f 399/8/5 397/8/5 398/8/5
f 402/7/5 401/7/5 400/7/5
f 403/7/5 401/7/5 402/7/5
f 406/10/5 405/10/5 404/10/5
f 407/10/5 405/10/5 406/10/5
f 412/3/5 409/3/5 408/3/5
f 413/3/5 409/3/5 412/3/5
f 414/3/5 411/3/5 410/3/5
f 415/3/5 411/3/5 414/3/5
f 420/10/5 417/10/5 416/10/5
f 421/10/5 417/10/5 420/10/5
f 424/10/5 419/10/5 418/10/5
f 425/10/5 419/10/5 424/10/5
f 426/10/5 422/10/5 421/10/5
f 427/10/5 422/10/5 426/10/5
f 428/10/5 424/10/5 423/10/5
f 429/10/5 424/10/5 428/10/5
f 432/6/5 431/6/5 430/6/5
f 433/6/5 431/6/5 432/6/5
f 434/7/6 435/7/6 437/7/6
f 437/7/6 435/7/6 438/7/6
f 436/5/6 437/5/6 439/5/6
f 437/4/6 438/4/6 440/4/6
f 439/5/6 437/5/6 440/5/6
f 440/4/6 438/4/6 441/4/6
f 442/4/6 443/4/6 446/4/6
f 446/4/6 443/4/6 447/4/6
f 444/4/6 445/4/6 448/4/6
f 448/4/6 445/4/6 449/4/6
f 450/7/6 451/7/6 454/7/6
f 454/7/6 451/7/6 455/7/6
f 452/7/6 453/7/6 456/7/6
f 456/7/6 453/7/6 457/7/6
f 458/4/6 459/4/6 462/4/6
f 462/4/6 459/4/6 463/4/6
f 460/4/6 461/4/6 464/4/6
f 464/4/6 461/4/6 465/4/6
f 466/3/6 467/3/6 470/3/6
f 470/3/6 467/3/6 471/3/6
f 468/3/6 469/3/6 472/3/6
f 472/3/6 469/3/6 473/3/6
f 474/10/6 475/10/6 476/10/6
f 476/10/6 475/10/6 477/10/6
f 478/6/6 479/6/6 482/6/6
f 482/6/6 479/6/6 483/6/6
f 480/6/6 481/6/6 484/6/6
f 484/6/6 481/6/6 485/6/6
f 486/1/6 487/1/6 489/1/6
f 489/1/6 487/1/6 490/1/6
f 488/6/6 489/6/6 492/6/6
f 490/6/6 491/6/6 492/6/6
f 489/6/6 490/6/6 492/6/6
f 492/6/6 491/6/6 493/6/6
