# MagicaVoxel @ Ephtracy

# material
mtllib chr_army2b.mtl
usemtl palette

# normals
vn -1 0 0
vn 1 0 0
vn 0 0 1
vn 0 0 -1
vn 0 -1 0
vn 0 1 0

# texcoords
vt 0.0136719 0.5
vt 0.201172 0.5
vt 0.369141 0.5
vt 0.486328 0.5
vt 0.509766 0.5
vt 0.654297 0.5
vt 0.677734 0.5
vt 0.986328 0.5
vt 0.994141 0.5

# verts
v -4 2 1
v -4 2 -0
v -4 4 1
v -4 4 -0
v -4 5 1
v -4 5 -0
v -4 6 1
v -4 6 -0
v -4 7 1
v -4 7 -0
v -4 8 1
v -4 8 -0
v -3 1 2
v -3 1 1
v -3 1 -1
v -3 2 3
v -3 2 2
v -3 2 1
v -3 2 -0
v -3 2 -1
v -3 2 -2
v -3 3 3
v -3 3 2
v -3 3 1
v -3 3 -0
v -3 3 -2
v -3 4 3
v -3 4 2
v -3 4 1
v -3 4 -0
v -3 4 -1
v -3 5 2
v -3 5 1
v -3 5 -0
v -3 5 -1
v -3 6 3
v -3 6 2
v -3 6 1
v -3 6 -0
v -3 6 -1
v -3 6 -2
v -3 7 1
v -3 7 -0
v -3 7 -1
v -3 7 -2
v -3 8 1
v -3 8 -0
v -3 8 -1
v -3 9 3
v -3 9 2
v -3 9 1
v -3 9 -1
v -3 9 -2
v -3 9 -3
v -3 10 2
v -3 10 1
v -3 10 -1
v -3 10 -3
v -3 11 3
v -3 11 2
v -3 11 1
v -3 11 -0
v -3 11 -2
v -3 11 -3
v -3 12 2
v -3 12 1
v -3 12 -0
v -3 12 -2
v -2 0 1
v -2 0 -0
v -2 1 1
v -2 1 -0
v -2 2 4
v -2 2 3
v -2 2 -2
v -2 2 -3
v -2 2 -4
v -2 3 4
v -2 3 3
v -2 3 -2
v -2 3 -3
v -2 4 4
v -2 4 3
v -2 4 -2
v -2 4 -3
v -2 5 -2
v -2 5 -3
v -2 6 -1
v -2 6 -2
v -2 6 -3
v -2 6 -4
v -2 7 -1
v -2 7 -2
v -2 7 -3
v -2 9 -2
v -2 9 -3
v -2 11 3
v -2 11 2
v -2 11 -2
v -2 11 -3
v -2 12 3
v -2 12 2
v -2 12 -2
v -2 12 -3
v 1 0 1
v 1 0 -0
v 1 1 2
v 1 1 1
v 1 1 -0
v 1 1 -1
v 1 2 2
v 1 2 -1
v -1 0 1
v -1 0 -0
v -1 1 2
v -1 1 1
v -1 1 -0
v -1 1 -1
v -1 2 4
v -1 2 3
v -1 2 2
v -1 2 -0
v -1 2 -1
v -1 3 4
v -1 3 3
v -1 4 4
v -1 4 3
v 2 0 1
v 2 0 -0
v 2 1 1
v 2 1 -0
v 2 2 -2
v 2 2 -3
v 2 2 -4
v 2 3 -2
v 2 3 -3
v 2 4 -2
v 2 4 -3
v 2 4 -4
v 2 5 -2
v 2 5 -3
v 2 5 -4
v 2 6 -1
v 2 6 -2
v 2 6 -4
v 2 7 -1
v 2 7 -2
v 2 7 -3
v 2 9 -2
v 2 9 -3
v 2 11 3
v 2 11 2
v 2 11 -2
v 2 11 -3
v 2 12 3
v 2 12 2
v 2 12 -2
v 2 12 -3
v 3 1 2
v 3 1 1
v 3 1 -0
v 3 1 -1
v 3 2 3
v 3 2 2
v 3 2 1
v 3 2 -0
v 3 2 -1
v 3 2 -2
v 3 3 3
v 3 3 1
v 3 3 -0
v 3 3 -1
v 3 3 -2
v 3 4 3
v 3 4 2
v 3 4 1
v 3 4 -0
v 3 4 -1
v 3 4 -2
v 3 5 3
v 3 5 2
v 3 5 1
v 3 5 -0
v 3 5 -1
v 3 5 -2
v 3 6 3
v 3 6 2
v 3 6 1
v 3 6 -0
v 3 6 -1
v 3 6 -2
v 3 7 1
v 3 7 -0
v 3 7 -1
v 3 7 -2
v 3 8 1
v 3 8 -0
v 3 9 3
v 3 9 2
v 3 9 1
v 3 9 -1
v 3 9 -2
v 3 9 -3
v 3 10 3
v 3 10 2
v 3 10 1
v 3 10 -0
v 3 10 -1
v 3 10 -2
v 3 10 -3
v 3 11 3
v 3 11 2
v 3 11 1
v 3 11 -0
v 3 11 -1
v 3 11 -2
v 3 11 -3
v 3 12 2
v 3 12 -1
v 3 12 -2
v 4 2 1
v 4 2 -0
v 4 4 1
v 4 4 -0
v 4 5 1
v 4 5 -0
v 4 6 1
v 4 6 -0
v 4 7 1
v 4 7 -0
v 4 8 1
v 4 8 -0
v -2 2 4
v -2 3 4
v -2 4 4
v -1 2 4
v -1 3 4
v -1 4 4
v -3 2 3
v -3 3 3
v -3 4 3
v -3 6 3
v -3 9 3
v -3 11 3
v -2 2 3
v -2 3 3
v -2 4 3
v -2 6 3
v -2 10 3
v -2 11 3
v -2 12 3
v -1 2 3
v -1 3 3
v -1 4 3
v -1 5 3
v -1 6 3
v -1 10 3
v -1 11 3
v 0 4 3
v 0 5 3
v 0 6 3
v 0 9 3
v 0 10 3
v 0 11 3
v 0 12 3
v 1 3 3
v 1 5 3
v 1 6 3
v 1 9 3
v 1 10 3
v 1 11 3
v 1 12 3
v 2 3 3
v 2 4 3
v 2 5 3
v 2 6 3
v 2 10 3
v 2 11 3
v 2 12 3
v 3 2 3
v 3 3 3
v 3 4 3
v 3 5 3
v 3 6 3
v 3 9 3
v 3 10 3
v 3 11 3
v -3 1 2
v -3 2 2
v -3 6 2
v -3 9 2
v -3 11 2
v -3 12 2
v -2 1 2
v -2 2 2
v -2 6 2
v -2 7 2
v -2 8 2
v -2 11 2
v -2 12 2
v -1 1 2
v -1 2 2
v -1 6 2
v -1 7 2
v -1 8 2
v 0 6 2
v 0 9 2
v 1 1 2
v 1 2 2
v 1 6 2
v 1 7 2
v 1 8 2
v 1 9 2
v 2 1 2
v 2 2 2
v 2 6 2
v 2 7 2
v 2 8 2
v 2 11 2
v 2 12 2
v 3 1 2
v 3 2 2
v 3 6 2
v 3 9 2
v 3 11 2
v 3 12 2
v -4 2 1
v -4 4 1
v -4 5 1
v -4 6 1
v -4 7 1
v -4 8 1
v -3 2 1
v -3 3 1
v -3 4 1
v -3 5 1
v -3 6 1
v -3 7 1
v -3 8 1
v -2 0 1
v -2 1 1
v -1 0 1
v -1 1 1
v 1 0 1
v 1 1 1
v 2 0 1
v 2 1 1
v 3 2 1
v 3 3 1
v 3 4 1
v 3 5 1
v 3 6 1
v 3 7 1
v 3 8 1
v 4 2 1
v 4 4 1
v 4 5 1
v 4 6 1
v 4 7 1
v 4 8 1
v -4 2 -0
v -4 4 -0
v -4 5 -0
v -4 6 -0
v -4 7 -0
v -4 8 -0
v -3 2 -0
v -3 3 -0
v -3 4 -0
v -3 5 -0
v -3 6 -0
v -3 7 -0
v -3 8 -0
v -2 0 -0
v -2 1 -0
v -1 0 -0
v -1 1 -0
v 1 0 -0
v 1 1 -0
v 2 0 -0
v 2 1 -0
v 3 2 -0
v 3 3 -0
v 3 4 -0
v 3 5 -0
v 3 6 -0
v 3 7 -0
v 3 8 -0
v 4 2 -0
v 4 4 -0
v 4 5 -0
v 4 6 -0
v 4 7 -0
v 4 8 -0
v -3 1 -1
v -3 2 -1
v -3 6 -1
v -3 7 -1
v -2 1 -1
v -2 2 -1
v -2 6 -1
v -2 7 -1
v -1 1 -1
v -1 2 -1
v 1 1 -1
v 1 2 -1
v 2 1 -1
v 2 2 -1
v 2 6 -1
v 2 7 -1
v 3 1 -1
v 3 2 -1
v 3 6 -1
v 3 7 -1
v -3 2 -2
v -3 3 -2
v -3 6 -2
v -3 7 -2
v -3 9 -2
v -3 11 -2
v -3 12 -2
v -2 2 -2
v -2 3 -2
v -2 4 -2
v -2 5 -2
v -2 6 -2
v -2 7 -2
v -2 9 -2
v -2 11 -2
v -2 12 -2
v 2 2 -2
v 2 3 -2
v 2 4 -2
v 2 5 -2
v 2 6 -2
v 2 7 -2
v 2 9 -2
v 2 11 -2
v 2 12 -2
v 3 2 -2
v 3 3 -2
v 3 4 -2
v 3 5 -2
v 3 6 -2
v 3 7 -2
v 3 9 -2
v 3 11 -2
v 3 12 -2
v -3 9 -3
v -3 10 -3
v -3 11 -3
v -2 7 -3
v -2 9 -3
v -2 10 -3
v -2 11 -3
v -2 12 -3
v -1 11 -3
v -1 12 -3
v 0 10 -3
v 0 11 -3
v 1 10 -3
v 1 11 -3
v 2 7 -3
v 2 9 -3
v 2 10 -3
v 2 11 -3
v 2 12 -3
v 3 9 -3
v 3 10 -3
v 3 11 -3
v -2 2 -4
v -2 6 -4
v -1 2 -4
v -1 3 -4
v -1 4 -4
v -1 5 -4
v 0 2 -4
v 0 3 -4
v 0 4 -4
v 0 5 -4
v 0 6 -4
v 1 3 -4
v 1 4 -4
v 1 5 -4
v 2 2 -4
v 2 4 -4
v 2 5 -4
v 2 6 -4
v -2 0 1
v -1 0 1
v 1 0 1
v 2 0 1
v -2 0 -0
v -1 0 -0
v 1 0 -0
v 2 0 -0
v -3 1 2
v -2 1 2
v -1 1 2
v 1 1 2
v 2 1 2
v 3 1 2
v -3 1 1
v -2 1 1
v -1 1 1
v 1 1 1
v 2 1 1
v 3 1 1
v -2 1 -0
v -1 1 -0
v 1 1 -0
v 2 1 -0
v 3 1 -0
v -3 1 -1
v -2 1 -1
v -1 1 -1
v 1 1 -1
v 2 1 -1
v 3 1 -1
v -2 2 4
v -1 2 4
v -3 2 3
v -2 2 3
v -1 2 3
v 3 2 3
v -3 2 2
v -2 2 2
v -1 2 2
v 1 2 2
v 2 2 2
v 3 2 2
v -4 2 1
v -3 2 1
v 3 2 1
v 4 2 1
v -4 2 -0
v -3 2 -0
v -1 2 -0
v 3 2 -0
v 4 2 -0
v -3 2 -1
v -2 2 -1
v -1 2 -1
v 1 2 -1
v 2 2 -1
v 3 2 -1
v -3 2 -2
v -2 2 -2
v 2 2 -2
v 3 2 -2
v -2 2 -3
v -1 2 -3
v 0 2 -3
v 2 2 -3
v -2 2 -4
v -1 2 -4
v 0 2 -4
v 2 2 -4
v -4 7 1
v -3 7 1
v 3 7 1
v 4 7 1
v -4 7 -0
v -3 7 -0
v 3 7 -0
v 4 7 -0
v -3 7 -1
v -2 7 -1
v 2 7 -1
v 3 7 -1
v -3 7 -2
v -2 7 -2
v 2 7 -2
v 3 7 -2
v -2 7 -3
v 2 7 -3
v -3 9 3
v 0 9 3
v 1 9 3
v 3 9 3
v -3 9 2
v 0 9 2
v 1 9 2
v 3 9 2
v -3 9 -2
v -2 9 -2
v 2 9 -2
v 3 9 -2
v -3 9 -3
v -2 9 -3
v 2 9 -3
v 3 9 -3
v -2 4 4
v -1 4 4
v -2 4 3
v -1 4 3
v -3 6 3
v -2 6 3
v -1 6 3
v 0 6 3
v 1 6 3
v 2 6 3
v 3 6 3
v -3 6 2
v -2 6 2
v -1 6 2
v 0 6 2
v 1 6 2
v 2 6 2
v 3 6 2
v -4 6 1
v -3 6 1
v 3 6 1
v 4 6 1
v -4 6 -0
v -3 6 -0
v 3 6 -0
v 4 6 -0
v -3 6 -1
v -2 6 -1
v 2 6 -1
v 3 6 -1
v -3 6 -2
v -2 6 -2
v 2 6 -2
v 3 6 -2
v -2 6 -3
v 0 6 -3
v -2 6 -4
v 0 6 -4
v 2 6 -4
v -4 8 1
v -3 8 1
v 3 8 1
v 4 8 1
v -4 8 -0
v -3 8 -0
v 3 8 -0
v 4 8 -0
v -3 11 3
v -2 11 3
v 2 11 3
v 3 11 3
v -3 11 2
v -2 11 2
v 2 11 2
v 3 11 2
v -3 11 -2
v -2 11 -2
v 2 11 -2
v 3 11 -2
v -3 11 -3
v -2 11 -3
v 2 11 -3
v 3 11 -3
v -2 12 3
v 0 12 3
v 1 12 3
v 2 12 3
v -3 12 2
v -2 12 2
v -1 12 2
v 0 12 2
v 1 12 2
v 2 12 2
v 3 12 2
v -3 12 1
v -2 12 1
v -1 12 1
v 1 12 1
v 2 12 1
v -3 12 -0
v -2 12 -0
v -1 12 -0
v 0 12 -0
v 1 12 -0
v -2 12 -1
v -1 12 -1
v 0 12 -1
v 1 12 -1
v 2 12 -1
v 3 12 -1
v -3 12 -2
v -2 12 -2
v -1 12 -2
v 0 12 -2
v 2 12 -2
v 3 12 -2
v -2 12 -3
v -1 12 -3
v 2 12 -3

# faces
f 3/2/1 2/2/1 1/2/1
f 4/2/1 2/2/1 3/2/1
f 5/6/1 4/6/1 3/6/1
f 6/6/1 4/6/1 5/6/1
f 7/7/1 6/7/1 5/7/1
f 8/7/1 6/7/1 7/7/1
f 11/2/1 10/2/1 9/2/1
f 12/2/1 10/2/1 11/2/1
f 17/7/1 14/7/1 13/7/1
f 18/6/1 15/6/1 14/6/1
f 18/7/1 14/7/1 17/7/1
f 19/6/1 15/6/1 18/6/1
f 20/6/1 15/6/1 19/6/1
f 22/8/1 17/8/1 16/8/1
f 22/8/1 18/8/1 17/8/1
f 23/8/1 18/8/1 22/8/1
f 24/8/1 18/8/1 23/8/1
f 25/8/1 21/8/1 20/8/1
f 25/8/1 20/8/1 19/8/1
f 26/8/1 21/8/1 25/8/1
f 27/7/1 23/7/1 22/7/1
f 28/6/1 24/6/1 23/6/1
f 28/7/1 23/7/1 27/7/1
f 29/6/1 24/6/1 28/6/1
f 30/6/1 26/6/1 25/6/1
f 31/6/1 26/6/1 30/6/1
f 32/6/1 29/6/1 28/6/1
f 32/6/1 28/6/1 27/6/1
f 33/6/1 29/6/1 32/6/1
f 34/7/1 31/7/1 30/7/1
f 35/6/1 26/6/1 31/6/1
f 35/7/1 31/7/1 34/7/1
f 36/6/1 32/6/1 27/6/1
f 37/7/1 33/7/1 32/7/1
f 37/6/1 32/6/1 36/6/1
f 38/7/1 33/7/1 37/7/1
f 39/6/1 35/6/1 34/6/1
f 40/6/1 26/6/1 35/6/1
f 40/6/1 35/6/1 39/6/1
f 41/6/1 26/6/1 40/6/1
f 42/2/1 39/2/1 38/2/1
f 42/2/1 38/2/1 37/2/1
f 42/2/1 40/2/1 39/2/1
f 43/2/1 40/2/1 42/2/1
f 44/2/1 40/2/1 43/2/1
f 46/2/1 42/2/1 37/2/1
f 47/2/1 44/2/1 43/2/1
f 48/1/1 45/1/1 44/1/1
f 48/2/1 44/2/1 47/2/1
f 50/2/1 46/2/1 37/2/1
f 51/1/1 47/1/1 46/1/1
f 51/1/1 48/1/1 47/1/1
f 51/2/1 46/2/1 50/2/1
f 52/1/1 45/1/1 48/1/1
f 52/1/1 48/1/1 51/1/1
f 53/1/1 45/1/1 52/1/1
f 55/6/1 52/6/1 51/6/1
f 55/6/1 50/6/1 49/6/1
f 55/6/1 51/6/1 50/6/1
f 56/6/1 52/6/1 55/6/1
f 57/7/1 53/7/1 52/7/1
f 57/6/1 52/6/1 56/6/1
f 57/7/1 54/7/1 53/7/1
f 58/7/1 54/7/1 57/7/1
f 59/6/1 55/6/1 49/6/1
f 60/7/1 56/7/1 55/7/1
f 60/6/1 55/6/1 59/6/1
f 61/6/1 57/6/1 56/6/1
f 61/7/1 56/7/1 60/7/1
f 61/6/1 58/6/1 57/6/1
f 62/6/1 58/6/1 61/6/1
f 63/6/1 58/6/1 62/6/1
f 64/6/1 58/6/1 63/6/1
f 65/6/1 61/6/1 60/6/1
f 66/7/1 62/7/1 61/7/1
f 66/6/1 61/6/1 65/6/1
f 67/6/1 63/6/1 62/6/1
f 67/7/1 62/7/1 66/7/1
f 68/6/1 63/6/1 67/6/1
f 71/8/1 70/8/1 69/8/1
f 72/8/1 70/8/1 71/8/1
f 78/4/1 74/4/1 73/4/1
f 79/4/1 74/4/1 78/4/1
f 80/4/1 76/4/1 75/4/1
f 81/6/1 77/6/1 76/6/1
f 81/4/1 76/4/1 80/4/1
f 82/5/1 79/5/1 78/5/1
f 83/5/1 79/5/1 82/5/1
f 84/6/1 81/6/1 80/6/1
f 85/6/1 77/6/1 81/6/1
f 85/6/1 81/6/1 84/6/1
f 86/4/1 85/4/1 84/4/1
f 87/6/1 77/6/1 85/6/1
f 87/4/1 85/4/1 86/4/1
f 89/5/1 87/5/1 86/5/1
f 90/6/1 77/6/1 87/6/1
f 90/5/1 87/5/1 89/5/1
f 91/6/1 77/6/1 90/6/1
f 92/2/1 89/2/1 88/2/1
f 93/2/1 89/2/1 92/2/1
f 95/1/1 94/1/1 93/1/1
f 96/1/1 94/1/1 95/1/1
f 101/6/1 98/6/1 97/6/1
f 102/6/1 98/6/1 101/6/1
f 103/7/1 100/7/1 99/7/1
f 104/7/1 100/7/1 103/7/1
f 108/8/1 106/8/1 105/8/1
f 109/8/1 106/8/1 108/8/1
f 111/6/1 108/6/1 107/6/1
f 111/6/1 110/6/1 109/6/1
f 111/6/1 109/6/1 108/6/1
f 112/6/1 110/6/1 111/6/1
f 113/8/2 114/8/2 116/8/2
f 116/8/2 114/8/2 117/8/2
f 115/6/2 116/6/2 121/6/2
f 116/6/2 117/6/2 121/6/2
f 117/7/2 118/7/2 122/7/2
f 121/6/2 117/6/2 122/6/2
f 122/7/2 118/7/2 123/7/2
f 119/4/2 120/4/2 124/4/2
f 124/4/2 120/4/2 125/4/2
f 124/5/2 125/5/2 126/5/2
f 126/5/2 125/5/2 127/5/2
f 128/8/2 129/8/2 130/8/2
f 130/8/2 129/8/2 131/8/2
f 132/4/2 133/4/2 135/4/2
f 133/5/2 134/5/2 136/5/2
f 135/4/2 133/4/2 136/4/2
f 135/5/2 136/5/2 137/5/2
f 136/5/2 134/5/2 138/5/2
f 137/5/2 136/5/2 138/5/2
f 138/5/2 134/5/2 139/5/2
f 137/4/2 138/4/2 140/4/2
f 138/6/2 139/6/2 141/6/2
f 140/4/2 138/4/2 141/4/2
f 141/6/2 139/6/2 142/6/2
f 140/5/2 141/5/2 144/5/2
f 141/5/2 142/5/2 144/5/2
f 144/5/2 142/5/2 145/5/2
f 143/2/2 144/2/2 146/2/2
f 146/2/2 144/2/2 147/2/2
f 147/1/2 148/1/2 149/1/2
f 149/1/2 148/1/2 150/1/2
f 151/6/2 152/6/2 155/6/2
f 155/6/2 152/6/2 156/6/2
f 153/6/2 154/6/2 157/6/2
f 157/6/2 154/6/2 158/6/2
f 159/7/2 160/7/2 164/7/2
f 160/6/2 161/6/2 165/6/2
f 164/7/2 160/7/2 165/7/2
f 161/7/2 162/7/2 166/7/2
f 165/6/2 161/6/2 166/6/2
f 166/7/2 162/7/2 167/7/2
f 164/8/2 165/8/2 169/8/2
f 163/8/2 164/8/2 169/8/2
f 169/8/2 165/8/2 170/8/2
f 167/8/2 168/8/2 171/8/2
f 166/8/2 167/8/2 171/8/2
f 171/8/2 168/8/2 172/8/2
f 172/8/2 168/8/2 173/8/2
f 169/6/2 170/6/2 174/6/2
f 174/6/2 170/6/2 175/6/2
f 175/6/2 170/6/2 176/6/2
f 171/6/2 172/6/2 177/6/2
f 172/7/2 173/7/2 178/7/2
f 177/6/2 172/6/2 178/6/2
f 178/7/2 173/7/2 179/7/2
f 174/7/2 175/7/2 180/7/2
f 175/6/2 176/6/2 181/6/2
f 180/7/2 175/7/2 181/7/2
f 181/6/2 176/6/2 182/6/2
f 177/6/2 178/6/2 183/6/2
f 178/6/2 179/6/2 183/6/2
f 183/6/2 179/6/2 184/6/2
f 184/6/2 179/6/2 185/6/2
f 180/6/2 181/6/2 186/6/2
f 181/7/2 182/7/2 187/7/2
f 186/6/2 181/6/2 187/6/2
f 187/7/2 182/7/2 188/7/2
f 183/6/2 184/6/2 189/6/2
f 184/7/2 185/7/2 190/7/2
f 189/6/2 184/6/2 190/6/2
f 190/7/2 185/7/2 191/7/2
f 187/2/2 188/2/2 192/2/2
f 188/2/2 189/2/2 192/2/2
f 189/2/2 190/2/2 192/2/2
f 192/2/2 190/2/2 193/2/2
f 193/2/2 190/2/2 194/2/2
f 187/2/2 192/2/2 196/2/2
f 194/1/2 195/1/2 197/1/2
f 193/1/2 194/1/2 197/1/2
f 187/2/2 196/2/2 199/2/2
f 196/1/2 197/1/2 200/1/2
f 199/2/2 196/2/2 200/2/2
f 197/1/2 195/1/2 201/1/2
f 200/1/2 197/1/2 201/1/2
f 201/1/2 195/1/2 202/1/2
f 200/6/2 201/6/2 204/6/2
f 199/6/2 200/6/2 204/6/2
f 198/6/2 199/6/2 204/6/2
f 204/6/2 201/6/2 205/6/2
f 205/6/2 201/6/2 206/6/2
f 206/6/2 201/6/2 207/6/2
f 201/7/2 202/7/2 208/7/2
f 207/6/2 201/6/2 208/6/2
f 202/6/2 203/6/2 209/6/2
f 208/7/2 202/7/2 209/7/2
f 209/6/2 203/6/2 210/6/2
f 204/7/2 205/7/2 211/7/2
f 205/6/2 206/6/2 212/6/2
f 211/7/2 205/7/2 212/7/2
f 206/7/2 207/7/2 213/7/2
f 212/6/2 206/6/2 213/6/2
f 207/6/2 208/6/2 214/6/2
f 213/7/2 207/7/2 214/7/2
f 208/6/2 209/6/2 214/6/2
f 214/6/2 209/6/2 215/6/2
f 209/7/2 210/7/2 216/7/2
f 215/6/2 209/6/2 216/6/2
f 216/7/2 210/7/2 217/7/2
f 212/6/2 213/6/2 218/6/2
f 214/6/2 215/6/2 218/6/2
f 213/6/2 214/6/2 218/6/2
f 215/7/2 216/7/2 219/7/2
f 218/6/2 215/6/2 219/6/2
f 219/7/2 216/7/2 220/7/2
f 221/2/2 222/2/2 223/2/2
f 223/2/2 222/2/2 224/2/2
f 223/6/2 224/6/2 225/6/2
f 225/6/2 224/6/2 226/6/2
f 225/7/2 226/7/2 227/7/2
f 227/7/2 226/7/2 228/7/2
f 229/2/2 230/2/2 231/2/2
f 231/2/2 230/2/2 232/2/2
f 236/4/3 234/4/3 233/4/3
f 237/5/3 235/5/3 234/5/3
f 237/4/3 234/4/3 236/4/3
f 238/5/3 235/5/3 237/5/3
f 245/8/3 240/8/3 239/8/3
f 246/7/3 241/7/3 240/7/3
f 246/8/3 240/8/3 245/8/3
f 247/6/3 242/6/3 241/6/3
f 247/7/3 241/7/3 246/7/3
f 248/6/3 242/6/3 247/6/3
f 249/6/3 244/6/3 243/6/3
f 250/6/3 244/6/3 249/6/3
f 254/5/3 248/5/3 247/5/3
f 255/5/3 248/5/3 254/5/3
f 256/5/3 248/5/3 255/5/3
f 257/7/3 250/7/3 249/7/3
f 257/6/3 249/6/3 243/6/3
f 258/6/3 251/6/3 250/6/3
f 258/7/3 250/7/3 257/7/3
f 259/7/3 255/7/3 254/7/3
f 259/6/3 254/6/3 253/6/3
f 260/6/3 256/6/3 255/6/3
f 260/7/3 255/7/3 259/7/3
f 261/6/3 256/6/3 260/6/3
f 262/6/3 257/6/3 243/6/3
f 262/6/3 258/6/3 257/6/3
f 263/6/3 258/6/3 262/6/3
f 264/6/3 251/6/3 258/6/3
f 264/6/3 258/6/3 263/6/3
f 265/6/3 251/6/3 264/6/3
f 266/8/3 253/8/3 252/8/3
f 266/6/3 259/6/3 253/6/3
f 266/6/3 260/6/3 259/6/3
f 267/7/3 261/7/3 260/7/3
f 267/6/3 260/6/3 266/6/3
f 268/7/3 261/7/3 267/7/3
f 269/7/3 263/7/3 262/7/3
f 270/6/3 264/6/3 263/6/3
f 270/7/3 263/7/3 269/7/3
f 271/7/3 265/7/3 264/7/3
f 271/6/3 264/6/3 270/6/3
f 272/7/3 265/7/3 271/7/3
f 273/8/3 266/8/3 252/8/3
f 273/5/3 268/5/3 267/5/3
f 273/5/3 267/5/3 266/5/3
f 274/5/3 268/5/3 273/5/3
f 275/5/3 268/5/3 274/5/3
f 276/5/3 268/5/3 275/5/3
f 277/6/3 270/6/3 269/6/3
f 277/6/3 272/6/3 271/6/3
f 277/6/3 271/6/3 270/6/3
f 278/6/3 272/6/3 277/6/3
f 279/6/3 272/6/3 278/6/3
f 280/8/3 273/8/3 252/8/3
f 281/6/3 274/6/3 273/6/3
f 281/8/3 273/8/3 280/8/3
f 282/7/3 275/7/3 274/7/3
f 282/6/3 274/6/3 281/6/3
f 283/6/3 276/6/3 275/6/3
f 283/7/3 275/7/3 282/7/3
f 284/6/3 276/6/3 283/6/3
f 285/6/3 277/6/3 269/6/3
f 286/7/3 278/7/3 277/7/3
f 286/6/3 277/6/3 285/6/3
f 287/7/3 278/7/3 286/7/3
f 294/7/3 289/7/3 288/7/3
f 295/7/3 289/7/3 294/7/3
f 296/2/3 291/2/3 290/2/3
f 297/2/3 291/2/3 296/2/3
f 298/2/3 291/2/3 297/2/3
f 299/6/3 293/6/3 292/6/3
f 300/6/3 293/6/3 299/6/3
f 301/6/3 295/6/3 294/6/3
f 302/6/3 295/6/3 301/6/3
f 303/2/3 297/2/3 296/2/3
f 304/9/3 298/9/3 297/9/3
f 304/2/3 297/2/3 303/2/3
f 305/2/3 291/2/3 298/2/3
f 305/9/3 298/9/3 304/9/3
f 306/2/3 304/2/3 303/2/3
f 306/2/3 305/2/3 304/2/3
f 307/2/3 291/2/3 305/2/3
f 307/2/3 305/2/3 306/2/3
f 310/2/3 307/2/3 306/2/3
f 311/2/3 307/2/3 310/2/3
f 312/2/3 307/2/3 311/2/3
f 313/2/3 307/2/3 312/2/3
f 314/6/3 309/6/3 308/6/3
f 315/6/3 309/6/3 314/6/3
f 316/2/3 311/2/3 310/2/3
f 317/9/3 312/9/3 311/9/3
f 317/2/3 311/2/3 316/2/3
f 318/2/3 313/2/3 312/2/3
f 318/9/3 312/9/3 317/9/3
f 321/7/3 315/7/3 314/7/3
f 322/7/3 315/7/3 321/7/3
f 323/2/3 318/2/3 317/2/3
f 323/2/3 317/2/3 316/2/3
f 324/2/3 313/2/3 318/2/3
f 324/2/3 318/2/3 323/2/3
f 325/6/3 320/6/3 319/6/3
f 326/6/3 320/6/3 325/6/3
f 333/2/3 328/2/3 327/2/3
f 334/2/3 328/2/3 333/2/3
f 335/6/3 329/6/3 328/6/3
f 335/2/3 328/2/3 334/2/3
f 336/7/3 330/7/3 329/7/3
f 336/6/3 329/6/3 335/6/3
f 337/7/3 330/7/3 336/7/3
f 338/2/3 332/2/3 331/2/3
f 339/2/3 332/2/3 338/2/3
f 342/8/3 341/8/3 340/8/3
f 343/8/3 341/8/3 342/8/3
f 346/8/3 345/8/3 344/8/3
f 347/8/3 345/8/3 346/8/3
f 355/2/3 349/2/3 348/2/3
f 355/2/3 350/2/3 349/2/3
f 356/6/3 351/6/3 350/6/3
f 356/2/3 350/2/3 355/2/3
f 357/7/3 352/7/3 351/7/3
f 357/6/3 351/6/3 356/6/3
f 358/7/3 352/7/3 357/7/3
f 359/2/3 354/2/3 353/2/3
f 360/2/3 354/2/3 359/2/3
f 361/2/4 362/2/4 367/2/4
f 367/2/4 362/2/4 368/2/4
f 362/6/4 363/6/4 369/6/4
f 368/2/4 362/2/4 369/2/4
f 363/7/4 364/7/4 370/7/4
f 369/6/4 363/6/4 370/6/4
f 370/7/4 364/7/4 371/7/4
f 365/2/4 366/2/4 372/2/4
f 372/2/4 366/2/4 373/2/4
f 374/8/4 375/8/4 376/8/4
f 376/8/4 375/8/4 377/8/4
f 378/8/4 379/8/4 380/8/4
f 380/8/4 379/8/4 381/8/4
f 382/2/4 383/2/4 389/2/4
f 383/2/4 384/2/4 389/2/4
f 384/6/4 385/6/4 390/6/4
f 389/2/4 384/2/4 390/2/4
f 385/7/4 386/7/4 391/7/4
f 390/6/4 385/6/4 391/6/4
f 391/7/4 386/7/4 392/7/4
f 387/2/4 388/2/4 393/2/4
f 393/2/4 388/2/4 394/2/4
f 395/6/4 396/6/4 399/6/4
f 399/6/4 396/6/4 400/6/4
f 397/2/4 398/2/4 401/2/4
f 401/2/4 398/2/4 402/2/4
f 399/7/4 400/7/4 403/7/4
f 403/7/4 400/7/4 404/7/4
f 405/6/4 406/6/4 407/6/4
f 407/6/4 406/6/4 408/6/4
f 407/7/4 408/7/4 411/7/4
f 411/7/4 408/7/4 412/7/4
f 409/2/4 410/2/4 413/2/4
f 413/2/4 410/2/4 414/2/4
f 415/8/4 416/8/4 422/8/4
f 416/6/4 417/6/4 423/6/4
f 422/8/4 416/8/4 423/8/4
f 423/6/4 417/6/4 424/6/4
f 424/6/4 417/6/4 425/6/4
f 425/6/4 417/6/4 426/6/4
f 418/1/4 419/1/4 427/1/4
f 427/1/4 419/1/4 428/1/4
f 420/6/4 421/6/4 429/6/4
f 429/6/4 421/6/4 430/6/4
f 426/2/4 427/2/4 435/2/4
f 435/2/4 427/2/4 436/2/4
f 431/8/4 432/8/4 440/8/4
f 432/7/4 433/7/4 441/7/4
f 440/8/4 432/8/4 441/8/4
f 433/6/4 434/6/4 442/6/4
f 441/7/4 433/7/4 442/7/4
f 434/7/4 435/7/4 443/7/4
f 442/6/4 434/6/4 443/6/4
f 443/7/4 435/7/4 444/7/4
f 436/1/4 437/1/4 445/1/4
f 445/1/4 437/1/4 446/1/4
f 438/7/4 439/7/4 447/7/4
f 447/7/4 439/7/4 448/7/4
f 449/7/4 450/7/4 453/7/4
f 450/6/4 451/6/4 454/6/4
f 453/7/4 450/7/4 454/7/4
f 454/6/4 451/6/4 455/6/4
f 453/6/4 454/6/4 457/6/4
f 455/7/4 456/7/4 457/7/4
f 454/6/4 455/6/4 457/6/4
f 457/7/4 456/7/4 458/7/4
f 453/6/4 457/6/4 459/6/4
f 457/6/4 458/6/4 459/6/4
f 459/6/4 458/6/4 460/6/4
f 453/6/4 459/6/4 461/6/4
f 459/7/4 460/7/4 461/7/4
f 460/6/4 458/6/4 462/6/4
f 461/7/4 460/7/4 462/7/4
f 452/1/4 453/1/4 463/1/4
f 453/6/4 461/6/4 464/6/4
f 463/1/4 453/1/4 464/1/4
f 461/6/4 462/6/4 464/6/4
f 464/6/4 462/6/4 465/6/4
f 462/6/4 458/6/4 466/6/4
f 465/6/4 462/6/4 466/6/4
f 466/6/4 458/6/4 467/6/4
f 464/6/4 465/6/4 468/6/4
f 465/7/4 466/7/4 469/7/4
f 468/6/4 465/6/4 469/6/4
f 469/7/4 466/7/4 470/7/4
f 471/6/4 472/6/4 473/6/4
f 473/6/4 472/6/4 474/6/4
f 474/6/4 472/6/4 475/6/4
f 475/6/4 472/6/4 476/6/4
f 473/4/4 474/4/4 477/4/4
f 474/5/4 475/5/4 478/5/4
f 477/4/4 474/4/4 478/4/4
f 475/4/4 476/4/4 479/4/4
f 478/5/4 475/5/4 479/5/4
f 476/6/4 472/6/4 480/6/4
f 479/4/4 476/4/4 480/4/4
f 480/6/4 472/6/4 481/6/4
f 478/6/4 479/6/4 482/6/4
f 477/5/4 478/5/4 482/5/4
f 479/4/4 480/4/4 483/4/4
f 482/6/4 479/6/4 483/6/4
f 480/5/4 481/5/4 484/5/4
f 483/4/4 480/4/4 484/4/4
f 482/5/4 483/5/4 485/5/4
f 477/5/4 482/5/4 485/5/4
f 483/6/4 484/6/4 486/6/4
f 485/5/4 483/5/4 486/5/4
f 484/5/4 481/5/4 487/5/4
f 486/6/4 484/6/4 487/6/4
f 487/5/4 481/5/4 488/5/4
f 493/8/5 490/8/5 489/8/5
f 494/8/5 490/8/5 493/8/5
f 495/8/5 492/8/5 491/8/5
f 496/8/5 492/8/5 495/8/5
f 503/7/5 498/7/5 497/7/5
f 504/6/5 499/6/5 498/6/5
f 504/7/5 498/7/5 503/7/5
f 505/6/5 499/6/5 504/6/5
f 506/6/5 501/6/5 500/6/5
f 507/7/5 502/7/5 501/7/5
f 507/6/5 501/6/5 506/6/5
f 508/7/5 502/7/5 507/7/5
f 509/6/5 504/6/5 503/6/5
f 512/6/5 508/6/5 507/6/5
f 513/6/5 508/6/5 512/6/5
f 514/6/5 509/6/5 503/6/5
f 515/7/5 510/7/5 509/7/5
f 515/6/5 509/6/5 514/6/5
f 516/7/5 510/7/5 515/7/5
f 517/6/5 512/6/5 511/6/5
f 518/7/5 513/7/5 512/7/5
f 518/6/5 512/6/5 517/6/5
f 519/7/5 513/7/5 518/7/5
f 523/4/5 521/4/5 520/4/5
f 524/4/5 521/4/5 523/4/5
f 526/8/5 523/8/5 522/8/5
f 526/8/5 525/8/5 524/8/5
f 526/8/5 524/8/5 523/8/5
f 527/8/5 525/8/5 526/8/5
f 528/8/5 525/8/5 527/8/5
f 529/8/5 525/8/5 528/8/5
f 530/8/5 525/8/5 529/8/5
f 531/8/5 525/8/5 530/8/5
f 536/2/5 533/2/5 532/2/5
f 537/2/5 533/2/5 536/2/5
f 538/6/5 529/6/5 528/6/5
f 539/2/5 535/2/5 534/2/5
f 540/2/5 535/2/5 539/2/5
f 543/6/5 529/6/5 538/6/5
f 544/6/5 529/6/5 543/6/5
f 547/8/5 542/8/5 541/8/5
f 547/8/5 546/8/5 545/8/5
f 547/8/5 545/8/5 544/8/5
f 547/8/5 544/8/5 543/8/5
f 547/8/5 543/8/5 542/8/5
f 548/8/5 546/8/5 547/8/5
f 549/8/5 546/8/5 548/8/5
f 550/8/5 546/8/5 549/8/5
f 551/4/5 549/4/5 548/4/5
f 552/4/5 549/4/5 551/4/5
f 553/4/5 549/4/5 552/4/5
f 554/4/5 549/4/5 553/4/5
f 555/6/5 552/6/5 551/6/5
f 556/4/5 553/4/5 552/4/5
f 556/6/5 552/6/5 555/6/5
f 557/5/5 554/5/5 553/5/5
f 557/4/5 553/4/5 556/4/5
f 558/5/5 554/5/5 557/5/5
f 563/2/5 560/2/5 559/2/5
f 564/2/5 560/2/5 563/2/5
f 565/2/5 562/2/5 561/2/5
f 566/2/5 562/2/5 565/2/5
f 571/1/5 568/1/5 567/1/5
f 572/1/5 568/1/5 571/1/5
f 573/1/5 570/1/5 569/1/5
f 574/1/5 570/1/5 573/1/5
f 575/1/5 573/1/5 572/1/5
f 576/1/5 573/1/5 575/1/5
f 581/6/5 578/6/5 577/6/5
f 582/7/5 579/7/5 578/7/5
f 582/6/5 578/6/5 581/6/5
f 583/6/5 580/6/5 579/6/5
f 583/7/5 579/7/5 582/7/5
f 584/6/5 580/6/5 583/6/5
f 589/7/5 586/7/5 585/7/5
f 590/7/5 586/7/5 589/7/5
f 591/6/5 588/6/5 587/6/5
f 592/6/5 588/6/5 591/6/5
f 593/5/6 594/5/6 595/5/6
f 595/5/6 594/5/6 596/5/6
f 597/6/6 598/6/6 604/6/6
f 598/5/6 599/5/6 605/5/6
f 604/6/6 598/6/6 605/6/6
f 599/6/6 600/6/6 606/6/6
f 605/5/6 599/5/6 606/5/6
f 600/7/6 601/7/6 607/7/6
f 606/6/6 600/6/6 607/6/6
f 601/5/6 602/5/6 608/5/6
f 607/7/6 601/7/6 608/7/6
f 602/6/6 603/6/6 609/6/6
f 608/5/6 602/5/6 609/5/6
f 609/6/6 603/6/6 610/6/6
f 611/7/6 612/7/6 615/7/6
f 615/7/6 612/7/6 616/7/6
f 613/7/6 614/7/6 617/7/6
f 617/7/6 614/7/6 618/7/6
f 619/6/6 620/6/6 623/6/6
f 623/6/6 620/6/6 624/6/6
f 621/7/6 622/7/6 625/7/6
f 625/7/6 622/7/6 626/7/6
f 624/5/6 625/5/6 627/5/6
f 627/5/6 625/5/6 628/5/6
f 627/6/6 628/6/6 629/6/6
f 628/5/6 625/5/6 630/5/6
f 629/6/6 628/6/6 630/6/6
f 630/5/6 625/5/6 631/5/6
f 632/2/6 633/2/6 636/2/6
f 636/2/6 633/2/6 637/2/6
f 634/2/6 635/2/6 638/2/6
f 638/2/6 635/2/6 639/2/6
f 640/6/6 641/6/6 644/6/6
f 644/6/6 641/6/6 645/6/6
f 642/7/6 643/7/6 646/7/6
f 646/7/6 643/7/6 647/7/6
f 648/6/6 649/6/6 652/6/6
f 652/6/6 649/6/6 653/6/6
f 650/7/6 651/7/6 654/7/6
f 654/7/6 651/7/6 655/7/6
f 656/6/6 657/6/6 661/6/6
f 661/6/6 657/6/6 662/6/6
f 657/7/6 658/7/6 663/7/6
f 662/6/6 657/6/6 663/6/6
f 658/6/6 659/6/6 664/6/6
f 663/7/6 658/7/6 664/7/6
f 664/6/6 659/6/6 665/6/6
f 660/6/6 661/6/6 667/6/6
f 661/7/6 662/7/6 668/7/6
f 667/6/6 661/6/6 668/6/6
f 662/6/6 663/6/6 669/6/6
f 668/7/6 662/7/6 669/7/6
f 663/6/6 664/6/6 669/6/6
f 664/7/6 665/7/6 670/7/6
f 669/6/6 664/6/6 670/6/6
f 665/6/6 666/6/6 671/6/6
f 670/7/6 665/7/6 671/7/6
f 667/7/6 668/7/6 672/7/6
f 669/6/6 670/6/6 673/6/6
f 672/7/6 668/7/6 673/7/6
f 668/6/6 669/6/6 673/6/6
f 670/6/6 671/6/6 673/6/6
f 673/6/6 671/6/6 674/6/6
f 674/6/6 671/6/6 675/6/6
f 675/6/6 671/6/6 676/6/6
f 672/6/6 673/6/6 677/6/6
f 673/7/6 674/7/6 677/7/6
f 674/6/6 675/6/6 678/6/6
f 677/7/6 674/7/6 678/7/6
f 675/7/6 676/7/6 679/7/6
f 678/6/6 675/6/6 679/6/6
f 676/6/6 671/6/6 680/6/6
f 679/7/6 676/7/6 680/7/6
f 671/6/6 666/6/6 681/6/6
f 680/6/6 671/6/6 681/6/6
f 681/6/6 666/6/6 682/6/6
f 677/6/6 678/6/6 683/6/6
f 672/6/6 677/6/6 683/6/6
f 683/6/6 678/6/6 684/6/6
f 678/7/6 679/7/6 685/7/6
f 684/6/6 678/6/6 685/6/6
f 679/6/6 680/6/6 686/6/6
f 685/7/6 679/7/6 686/7/6
f 680/6/6 681/6/6 686/6/6
f 681/7/6 682/7/6 687/7/6
f 686/6/6 681/6/6 687/6/6
f 687/7/6 682/7/6 688/7/6
f 684/7/6 685/7/6 689/7/6
f 686/6/6 687/6/6 690/6/6
f 689/7/6 685/7/6 690/7/6
f 685/6/6 686/6/6 690/6/6
f 690/6/6 687/6/6 691/6/6
