# MagicaVoxel @ Ephtracy

# material
mtllib chr_naked6.mtl
usemtl palette

# normals
vn -1 0 0
vn 1 0 0
vn 0 0 1
vn 0 0 -1
vn 0 -1 0
vn 0 1 0

# texcoords
vt 0.537109 0.5
vt 0.986328 0.5
vt 0.990234 0.5
vt 0.994141 0.5

# verts
v -6 8 1
v -6 8 -2
v -6 11 1
v -6 11 -2
v -4 2 1
v -4 2 -0
v -4 6 1
v -4 6 -0
v -4 7 1
v -4 7 -0
v -4 8 1
v -4 8 -0
v -3 1 2
v -3 1 -1
v -3 2 3
v -3 2 2
v -3 2 1
v -3 2 -0
v -3 2 -1
v -3 2 -2
v -3 6 3
v -3 6 2
v -3 6 1
v -3 6 -0
v -3 6 -1
v -3 6 -2
v -3 7 1
v -3 7 -0
v -3 7 -1
v -3 7 -2
v -3 8 1
v -3 8 -0
v -3 8 -1
v -3 9 2
v -3 9 1
v -3 9 -0
v -3 9 -1
v -3 10 3
v -3 10 2
v -3 10 -0
v -3 10 -1
v -3 10 -2
v -3 11 3
v -3 11 -1
v -2 0 1
v -2 0 -0
v -2 1 1
v -2 1 -0
v -2 6 -1
v -2 6 -2
v -2 7 -1
v -2 7 -2
v -2 7 -3
v -2 10 -1
v -2 10 -2
v -2 10 -3
v -2 11 -1
v -2 11 -2
v 1 0 1
v 1 0 -0
v 1 1 2
v 1 1 1
v 1 1 -0
v 1 1 -1
v 1 2 2
v 1 2 -0
v 1 2 -1
v 1 5 3
v 1 5 2
v 1 6 3
v 1 6 2
v 4 8 1
v 4 8 -0
v 4 8 -2
v 4 9 -0
v 4 9 -1
v 4 10 -0
v 4 10 -1
v 4 11 1
v 4 11 -2
v -4 8 1
v -4 8 -0
v -4 8 -2
v -4 9 -0
v -4 9 -1
v -4 10 -0
v -4 10 -1
v -4 11 1
v -4 11 -2
v -2 10 3
v -2 10 2
v -2 11 3
v -2 11 2
v -1 0 1
v -1 0 -0
v -1 1 2
v -1 1 1
v -1 1 -0
v -1 1 -1
v -1 2 2
v -1 2 -0
v -1 2 -1
v -1 5 3
v -1 5 2
v -1 6 3
v -1 6 2
v 2 0 1
v 2 0 -0
v 2 1 1
v 2 1 -0
v 2 6 -1
v 2 6 -2
v 2 7 -1
v 2 7 -2
v 2 7 -3
v 2 10 -1
v 2 10 -2
v 2 10 -3
v 2 11 -1
v 2 11 -2
v 3 1 2
v 3 1 -1
v 3 2 3
v 3 2 2
v 3 2 1
v 3 2 -0
v 3 2 -1
v 3 2 -2
v 3 6 3
v 3 6 2
v 3 6 1
v 3 6 -0
v 3 6 -1
v 3 6 -2
v 3 7 1
v 3 7 -0
v 3 7 -1
v 3 7 -2
v 3 8 1
v 3 8 -0
v 3 8 -1
v 3 9 2
v 3 9 1
v 3 9 -0
v 3 9 -1
v 3 10 -0
v 3 10 -1
v 3 10 -2
v 3 11 2
v 3 11 -1
v 4 2 1
v 4 2 -0
v 4 6 1
v 4 6 -0
v 4 7 1
v 4 7 -0
v 4 8 1
v 4 8 -0
v 6 8 1
v 6 8 -2
v 6 11 1
v 6 11 -2
v -3 2 3
v -3 6 3
v -3 10 3
v -3 11 3
v -2 10 3
v -2 11 3
v -1 2 3
v -1 3 3
v -1 5 3
v -1 6 3
v 1 2 3
v 1 3 3
v 1 5 3
v 1 6 3
v 3 2 3
v 3 6 3
v -3 1 2
v -3 2 2
v -3 6 2
v -3 9 2
v -3 10 2
v -2 7 2
v -2 8 2
v -2 9 2
v -2 10 2
v -2 11 2
v -1 1 2
v -1 2 2
v -1 5 2
v -1 6 2
v -1 7 2
v -1 8 2
v 1 1 2
v 1 2 2
v 1 5 2
v 1 6 2
v 1 7 2
v 1 8 2
v 2 7 2
v 2 8 2
v 2 9 2
v 2 10 2
v 3 1 2
v 3 2 2
v 3 6 2
v 3 9 2
v 3 11 2
v -6 8 1
v -6 11 1
v -4 2 1
v -4 6 1
v -4 7 1
v -4 8 1
v -4 11 1
v -3 2 1
v -3 6 1
v -3 7 1
v -3 8 1
v -2 0 1
v -2 1 1
v -1 0 1
v -1 1 1
v 1 0 1
v 1 1 1
v 2 0 1
v 2 1 1
v 3 2 1
v 3 6 1
v 3 7 1
v 3 8 1
v 4 2 1
v 4 6 1
v 4 7 1
v 4 8 1
v 4 11 1
v 6 8 1
v 6 11 1
v -4 9 -0
v -4 10 -0
v -3 9 -0
v -3 10 -0
v 3 9 -0
v 3 10 -0
v 4 9 -0
v 4 10 -0
v -4 2 -0
v -4 6 -0
v -4 7 -0
v -4 8 -0
v -3 2 -0
v -3 6 -0
v -3 7 -0
v -3 8 -0
v -2 0 -0
v -2 1 -0
v -1 0 -0
v -1 1 -0
v 1 0 -0
v 1 1 -0
v 2 0 -0
v 2 1 -0
v 3 2 -0
v 3 6 -0
v 3 7 -0
v 3 8 -0
v 4 2 -0
v 4 6 -0
v 4 7 -0
v 4 8 -0
v -4 9 -1
v -4 10 -1
v -3 1 -1
v -3 2 -1
v -3 6 -1
v -3 7 -1
v -3 9 -1
v -3 10 -1
v -3 11 -1
v -2 6 -1
v -2 7 -1
v -2 10 -1
v -2 11 -1
v -1 1 -1
v -1 2 -1
v 1 1 -1
v 1 2 -1
v 2 6 -1
v 2 7 -1
v 2 10 -1
v 2 11 -1
v 3 1 -1
v 3 2 -1
v 3 6 -1
v 3 7 -1
v 3 9 -1
v 3 10 -1
v 3 11 -1
v 4 9 -1
v 4 10 -1
v -6 8 -2
v -6 11 -2
v -4 8 -2
v -4 11 -2
v -3 2 -2
v -3 6 -2
v -3 7 -2
v -3 10 -2
v -2 6 -2
v -2 7 -2
v -2 10 -2
v -2 11 -2
v 2 6 -2
v 2 7 -2
v 2 10 -2
v 2 11 -2
v 3 2 -2
v 3 6 -2
v 3 7 -2
v 3 10 -2
v 4 8 -2
v 4 11 -2
v 6 8 -2
v 6 11 -2
v -2 7 -3
v -2 10 -3
v 2 7 -3
v 2 10 -3
v -2 0 1
v -1 0 1
v 1 0 1
v 2 0 1
v -2 0 -0
v -1 0 -0
v 1 0 -0
v 2 0 -0
v -3 1 2
v -1 1 2
v 1 1 2
v 3 1 2
v -2 1 1
v -1 1 1
v 1 1 1
v 2 1 1
v -2 1 -0
v -1 1 -0
v 1 1 -0
v 2 1 -0
v -3 1 -1
v -1 1 -1
v 1 1 -1
v 3 1 -1
v -3 2 3
v -1 2 3
v 1 2 3
v 3 2 3
v -3 2 2
v -1 2 2
v 1 2 2
v 3 2 2
v -4 2 1
v -3 2 1
v 3 2 1
v 4 2 1
v -4 2 -0
v -3 2 -0
v -1 2 -0
v 1 2 -0
v 3 2 -0
v 4 2 -0
v -3 2 -1
v -1 2 -1
v 1 2 -1
v 3 2 -1
v -3 2 -2
v 3 2 -2
v -4 7 1
v -3 7 1
v 3 7 1
v 4 7 1
v -4 7 -0
v -3 7 -0
v 3 7 -0
v 4 7 -0
v -3 7 -1
v -2 7 -1
v 2 7 -1
v 3 7 -1
v -3 7 -2
v -2 7 -2
v 2 7 -2
v 3 7 -2
v -2 7 -3
v 2 7 -3
v -6 8 1
v -4 8 1
v 4 8 1
v 6 8 1
v -4 8 -0
v 4 8 -0
v -6 8 -2
v -4 8 -2
v 4 8 -2
v 6 8 -2
v -4 9 -0
v -3 9 -0
v 3 9 -0
v 4 9 -0
v -4 9 -1
v -3 9 -1
v 3 9 -1
v 4 9 -1
v -3 10 3
v -2 10 3
v -3 10 2
v -2 10 2
v -1 5 3
v 1 5 3
v -1 5 2
v 1 5 2
v -3 6 3
v -1 6 3
v 1 6 3
v 3 6 3
v -3 6 2
v -1 6 2
v 1 6 2
v 3 6 2
v -4 6 1
v -3 6 1
v 3 6 1
v 4 6 1
v -4 6 -0
v -3 6 -0
v 3 6 -0
v 4 6 -0
v -3 6 -1
v -2 6 -1
v 2 6 -1
v 3 6 -1
v -3 6 -2
v -2 6 -2
v 2 6 -2
v 3 6 -2
v -4 8 1
v -3 8 1
v 3 8 1
v 4 8 1
v -4 8 -0
v -3 8 -0
v 3 8 -0
v 4 8 -0
v -4 10 -0
v -3 10 -0
v 3 10 -0
v 4 10 -0
v -4 10 -1
v -3 10 -1
v -2 10 -1
v 2 10 -1
v 3 10 -1
v 4 10 -1
v -3 10 -2
v -2 10 -2
v 2 10 -2
v 3 10 -2
v -2 10 -3
v 2 10 -3
v -3 11 3
v -2 11 3
v -2 11 2
v 3 11 2
v -6 11 1
v -4 11 1
v 4 11 1
v 6 11 1
v -3 11 -1
v -2 11 -1
v 2 11 -1
v 3 11 -1
v -6 11 -2
v -4 11 -2
v -2 11 -2
v 2 11 -2
v 4 11 -2
v 6 11 -2

# faces
f 3/4/1 2/4/1 1/4/1
f 4/4/1 2/4/1 3/4/1
f 7/1/1 6/1/1 5/1/1
f 8/1/1 6/1/1 7/1/1
f 11/1/1 10/1/1 9/1/1
f 12/1/1 10/1/1 11/1/1
f 16/1/1 14/1/1 13/1/1
f 17/1/1 14/1/1 16/1/1
f 18/1/1 14/1/1 17/1/1
f 19/1/1 14/1/1 18/1/1
f 21/1/1 16/1/1 15/1/1
f 21/1/1 17/1/1 16/1/1
f 22/1/1 17/1/1 21/1/1
f 23/1/1 17/1/1 22/1/1
f 24/1/1 20/1/1 19/1/1
f 24/1/1 19/1/1 18/1/1
f 25/1/1 20/1/1 24/1/1
f 26/1/1 20/1/1 25/1/1
f 27/1/1 23/1/1 22/1/1
f 27/1/1 25/1/1 24/1/1
f 27/1/1 24/1/1 23/1/1
f 28/1/1 25/1/1 27/1/1
f 29/1/1 25/1/1 28/1/1
f 31/1/1 27/1/1 22/1/1
f 32/1/1 29/1/1 28/1/1
f 33/4/1 30/4/1 29/4/1
f 33/1/1 29/1/1 32/1/1
f 34/1/1 31/1/1 22/1/1
f 35/4/1 32/4/1 31/4/1
f 35/1/1 31/1/1 34/1/1
f 35/4/1 33/4/1 32/4/1
f 36/4/1 33/4/1 35/4/1
f 37/4/1 30/4/1 33/4/1
f 37/4/1 33/4/1 36/4/1
f 39/4/1 36/4/1 35/4/1
f 39/4/1 35/4/1 34/4/1
f 40/4/1 36/4/1 39/4/1
f 41/4/1 30/4/1 37/4/1
f 42/4/1 30/4/1 41/4/1
f 43/4/1 40/4/1 39/4/1
f 43/4/1 39/4/1 38/4/1
f 43/4/1 41/4/1 40/4/1
f 44/4/1 41/4/1 43/4/1
f 47/3/1 46/3/1 45/3/1
f 48/3/1 46/3/1 47/3/1
f 51/1/1 50/1/1 49/1/1
f 52/1/1 50/1/1 51/1/1
f 55/4/1 53/4/1 52/4/1
f 56/4/1 53/4/1 55/4/1
f 57/4/1 55/4/1 54/4/1
f 58/4/1 55/4/1 57/4/1
f 62/3/1 60/3/1 59/3/1
f 63/3/1 60/3/1 62/3/1
f 65/1/1 62/1/1 61/1/1
f 65/1/1 64/1/1 63/1/1
f 65/1/1 63/1/1 62/1/1
f 66/1/1 64/1/1 65/1/1
f 67/1/1 64/1/1 66/1/1
f 70/1/1 69/1/1 68/1/1
f 71/1/1 69/1/1 70/1/1
f 75/4/1 73/4/1 72/4/1
f 75/4/1 74/4/1 73/4/1
f 76/4/1 74/4/1 75/4/1
f 77/4/1 75/4/1 72/4/1
f 78/4/1 74/4/1 76/4/1
f 79/4/1 77/4/1 72/4/1
f 79/4/1 78/4/1 77/4/1
f 80/4/1 74/4/1 78/4/1
f 80/4/1 78/4/1 79/4/1
f 81/4/2 82/4/2 84/4/2
f 82/4/2 83/4/2 84/4/2
f 84/4/2 83/4/2 85/4/2
f 81/4/2 84/4/2 86/4/2
f 85/4/2 83/4/2 87/4/2
f 81/4/2 86/4/2 88/4/2
f 86/4/2 87/4/2 88/4/2
f 87/4/2 83/4/2 89/4/2
f 88/4/2 87/4/2 89/4/2
f 90/4/2 91/4/2 92/4/2
f 92/4/2 91/4/2 93/4/2
f 94/3/2 95/3/2 97/3/2
f 97/3/2 95/3/2 98/3/2
f 96/1/2 97/1/2 100/1/2
f 98/1/2 99/1/2 100/1/2
f 97/1/2 98/1/2 100/1/2
f 100/1/2 99/1/2 101/1/2
f 101/1/2 99/1/2 102/1/2
f 103/1/2 104/1/2 105/1/2
f 105/1/2 104/1/2 106/1/2
f 107/3/2 108/3/2 109/3/2
f 109/3/2 108/3/2 110/3/2
f 111/1/2 112/1/2 113/1/2
f 113/1/2 112/1/2 114/1/2
f 114/4/2 115/4/2 117/4/2
f 117/4/2 115/4/2 118/4/2
f 116/4/2 117/4/2 119/4/2
f 119/4/2 117/4/2 120/4/2
f 121/1/2 122/1/2 124/1/2
f 124/1/2 122/1/2 125/1/2
f 125/1/2 122/1/2 126/1/2
f 126/1/2 122/1/2 127/1/2
f 123/1/2 124/1/2 129/1/2
f 124/1/2 125/1/2 129/1/2
f 129/1/2 125/1/2 130/1/2
f 130/1/2 125/1/2 131/1/2
f 127/1/2 128/1/2 132/1/2
f 126/1/2 127/1/2 132/1/2
f 132/1/2 128/1/2 133/1/2
f 133/1/2 128/1/2 134/1/2
f 130/1/2 131/1/2 135/1/2
f 132/1/2 133/1/2 135/1/2
f 131/1/2 132/1/2 135/1/2
f 135/1/2 133/1/2 136/1/2
f 136/1/2 133/1/2 137/1/2
f 130/1/2 135/1/2 139/1/2
f 136/1/2 137/1/2 140/1/2
f 137/4/2 138/4/2 141/4/2
f 140/1/2 137/1/2 141/1/2
f 130/1/2 139/1/2 142/1/2
f 139/4/2 140/4/2 143/4/2
f 142/1/2 139/1/2 143/1/2
f 140/4/2 141/4/2 143/4/2
f 143/4/2 141/4/2 144/4/2
f 141/4/2 138/4/2 145/4/2
f 144/4/2 141/4/2 145/4/2
f 143/4/2 144/4/2 146/4/2
f 142/4/2 143/4/2 146/4/2
f 145/4/2 138/4/2 147/4/2
f 147/4/2 138/4/2 148/4/2
f 142/4/2 146/4/2 149/4/2
f 146/4/2 147/4/2 149/4/2
f 149/4/2 147/4/2 150/4/2
f 151/1/2 152/1/2 153/1/2
f 153/1/2 152/1/2 154/1/2
f 155/1/2 156/1/2 157/1/2
f 157/1/2 156/1/2 158/1/2
f 159/4/2 160/4/2 161/4/2
f 161/4/2 160/4/2 162/4/2
f 167/4/3 166/4/3 165/4/3
f 168/4/3 166/4/3 167/4/3
f 169/1/3 164/1/3 163/1/3
f 170/1/3 164/1/3 169/1/3
f 171/1/3 164/1/3 170/1/3
f 172/1/3 164/1/3 171/1/3
f 173/4/3 170/4/3 169/4/3
f 174/1/3 171/1/3 170/1/3
f 174/4/3 170/4/3 173/4/3
f 175/1/3 171/1/3 174/1/3
f 177/1/3 174/1/3 173/1/3
f 177/1/3 176/1/3 175/1/3
f 177/1/3 175/1/3 174/1/3
f 178/1/3 176/1/3 177/1/3
f 184/1/3 182/1/3 181/1/3
f 185/1/3 182/1/3 184/1/3
f 186/4/3 183/4/3 182/4/3
f 186/1/3 182/1/3 185/1/3
f 187/4/3 183/4/3 186/4/3
f 189/1/3 180/1/3 179/1/3
f 190/1/3 180/1/3 189/1/3
f 192/1/3 184/1/3 181/1/3
f 193/3/3 185/3/3 184/3/3
f 193/1/3 184/1/3 192/1/3
f 194/1/3 186/1/3 185/1/3
f 194/3/3 185/3/3 193/3/3
f 194/1/3 187/1/3 186/1/3
f 197/1/3 192/1/3 191/1/3
f 197/1/3 193/1/3 192/1/3
f 197/1/3 194/1/3 193/1/3
f 198/1/3 194/1/3 197/1/3
f 199/1/3 194/1/3 198/1/3
f 200/1/3 187/1/3 194/1/3
f 200/1/3 194/1/3 199/1/3
f 201/1/3 199/1/3 198/1/3
f 201/3/3 200/3/3 199/3/3
f 202/1/3 187/1/3 200/1/3
f 202/3/3 200/3/3 201/3/3
f 203/1/3 187/1/3 202/1/3
f 204/4/3 188/4/3 187/4/3
f 204/1/3 187/1/3 203/1/3
f 205/1/3 196/1/3 195/1/3
f 206/1/3 196/1/3 205/1/3
f 207/1/3 203/1/3 202/1/3
f 207/1/3 201/1/3 198/1/3
f 207/1/3 202/1/3 201/1/3
f 208/4/3 204/4/3 203/4/3
f 208/1/3 203/1/3 207/1/3
f 209/4/3 188/4/3 204/4/3
f 209/4/3 204/4/3 208/4/3
f 215/4/3 211/4/3 210/4/3
f 216/4/3 211/4/3 215/4/3
f 217/1/3 213/1/3 212/1/3
f 218/1/3 213/1/3 217/1/3
f 219/1/3 215/1/3 214/1/3
f 220/1/3 215/1/3 219/1/3
f 223/3/3 222/3/3 221/3/3
f 224/3/3 222/3/3 223/3/3
f 227/3/3 226/3/3 225/3/3
f 228/3/3 226/3/3 227/3/3
f 233/1/3 230/1/3 229/1/3
f 234/1/3 230/1/3 233/1/3
f 235/1/3 232/1/3 231/1/3
f 236/1/3 232/1/3 235/1/3
f 238/4/3 237/4/3 236/4/3
f 239/4/3 237/4/3 238/4/3
f 242/2/3 241/2/3 240/2/3
f 243/2/3 241/2/3 242/2/3
f 246/2/3 245/2/3 244/2/3
f 247/2/3 245/2/3 246/2/3
f 248/1/4 249/1/4 252/1/4
f 252/1/4 249/1/4 253/1/4
f 250/1/4 251/1/4 254/1/4
f 254/1/4 251/1/4 255/1/4
f 256/3/4 257/3/4 258/3/4
f 258/3/4 257/3/4 259/3/4
f 260/3/4 261/3/4 262/3/4
f 262/3/4 261/3/4 263/3/4
f 264/1/4 265/1/4 268/1/4
f 268/1/4 265/1/4 269/1/4
f 266/1/4 267/1/4 270/1/4
f 270/1/4 267/1/4 271/1/4
f 272/2/4 273/2/4 278/2/4
f 278/2/4 273/2/4 279/2/4
f 276/1/4 277/1/4 281/1/4
f 281/1/4 277/1/4 282/1/4
f 279/4/4 280/4/4 283/4/4
f 283/4/4 280/4/4 284/4/4
f 274/1/4 275/1/4 285/1/4
f 285/1/4 275/1/4 286/1/4
f 287/1/4 288/1/4 293/1/4
f 293/1/4 288/1/4 294/1/4
f 289/1/4 290/1/4 295/1/4
f 295/1/4 290/1/4 296/1/4
f 291/4/4 292/4/4 298/4/4
f 298/4/4 292/4/4 299/4/4
f 297/2/4 298/2/4 300/2/4
f 300/2/4 298/2/4 301/2/4
f 302/4/4 303/4/4 304/4/4
f 304/4/4 303/4/4 305/4/4
f 306/1/4 307/1/4 310/1/4
f 308/4/4 309/4/4 311/4/4
f 311/4/4 309/4/4 312/4/4
f 306/1/4 310/1/4 314/1/4
f 310/1/4 311/1/4 314/1/4
f 314/1/4 311/1/4 315/1/4
f 312/4/4 313/4/4 316/4/4
f 316/4/4 313/4/4 317/4/4
f 306/1/4 314/1/4 318/1/4
f 318/1/4 314/1/4 319/1/4
f 315/4/4 316/4/4 320/4/4
f 320/4/4 316/4/4 321/4/4
f 322/4/4 323/4/4 324/4/4
f 324/4/4 323/4/4 325/4/4
f 326/4/4 327/4/4 328/4/4
f 328/4/4 327/4/4 329/4/4
f 334/3/5 331/3/5 330/3/5
f 335/3/5 331/3/5 334/3/5
f 336/3/5 333/3/5 332/3/5
f 337/3/5 333/3/5 336/3/5
f 342/1/5 339/1/5 338/1/5
f 343/1/5 339/1/5 342/1/5
f 344/1/5 341/1/5 340/1/5
f 345/1/5 341/1/5 344/1/5
f 346/1/5 342/1/5 338/1/5
f 349/1/5 341/1/5 345/1/5
f 350/1/5 347/1/5 346/1/5
f 350/1/5 346/1/5 338/1/5
f 351/1/5 347/1/5 350/1/5
f 352/1/5 349/1/5 348/1/5
f 353/1/5 341/1/5 349/1/5
f 353/1/5 349/1/5 352/1/5
f 358/1/5 355/1/5 354/1/5
f 359/4/5 356/4/5 355/4/5
f 359/1/5 355/1/5 358/1/5
f 360/1/5 357/1/5 356/1/5
f 360/4/5 356/4/5 359/4/5
f 361/1/5 357/1/5 360/1/5
f 366/1/5 363/1/5 362/1/5
f 367/1/5 363/1/5 366/1/5
f 368/4/5 360/4/5 359/4/5
f 369/4/5 360/4/5 368/4/5
f 370/1/5 365/1/5 364/1/5
f 371/1/5 365/1/5 370/1/5
f 373/1/5 369/1/5 368/1/5
f 374/1/5 369/1/5 373/1/5
f 376/1/5 373/1/5 372/1/5
f 376/1/5 375/1/5 374/1/5
f 376/1/5 374/1/5 373/1/5
f 377/1/5 375/1/5 376/1/5
f 382/1/5 379/1/5 378/1/5
f 383/1/5 379/1/5 382/1/5
f 384/1/5 381/1/5 380/1/5
f 385/1/5 381/1/5 384/1/5
f 390/4/5 387/4/5 386/4/5
f 391/4/5 387/4/5 390/4/5
f 392/4/5 389/4/5 388/4/5
f 393/4/5 389/4/5 392/4/5
f 394/4/5 392/4/5 391/4/5
f 395/4/5 392/4/5 394/4/5
f 400/4/5 397/4/5 396/4/5
f 401/4/5 399/4/5 398/4/5
f 402/4/5 400/4/5 396/4/5
f 403/4/5 400/4/5 402/4/5
f 404/4/5 399/4/5 401/4/5
f 405/4/5 399/4/5 404/4/5
f 410/2/5 407/2/5 406/2/5
f 411/2/5 407/2/5 410/2/5
f 412/2/5 409/2/5 408/2/5
f 413/2/5 409/2/5 412/2/5
f 416/4/5 415/4/5 414/4/5
f 417/4/5 415/4/5 416/4/5
f 418/1/6 419/1/6 420/1/6
f 420/1/6 419/1/6 421/1/6
f 422/1/6 423/1/6 426/1/6
f 426/1/6 423/1/6 427/1/6
f 424/1/6 425/1/6 428/1/6
f 428/1/6 425/1/6 429/1/6
f 430/1/6 431/1/6 434/1/6
f 434/1/6 431/1/6 435/1/6
f 432/1/6 433/1/6 436/1/6
f 436/1/6 433/1/6 437/1/6
f 438/1/6 439/1/6 442/1/6
f 442/1/6 439/1/6 443/1/6
f 440/1/6 441/1/6 444/1/6
f 444/1/6 441/1/6 445/1/6
f 446/1/6 447/1/6 450/1/6
f 450/1/6 447/1/6 451/1/6
f 448/1/6 449/1/6 452/1/6
f 452/1/6 449/1/6 453/1/6
f 454/2/6 455/2/6 458/2/6
f 458/2/6 455/2/6 459/2/6
f 456/2/6 457/2/6 462/2/6
f 462/2/6 457/2/6 463/2/6
f 459/4/6 460/4/6 464/4/6
f 464/4/6 460/4/6 465/4/6
f 461/4/6 462/4/6 466/4/6
f 466/4/6 462/4/6 467/4/6
f 465/4/6 466/4/6 468/4/6
f 468/4/6 466/4/6 469/4/6
f 470/4/6 471/4/6 472/4/6
f 470/4/6 472/4/6 478/4/6
f 472/4/6 473/4/6 478/4/6
f 478/4/6 473/4/6 479/4/6
f 479/4/6 473/4/6 480/4/6
f 480/4/6 473/4/6 481/4/6
f 474/4/6 475/4/6 482/4/6
f 482/4/6 475/4/6 483/4/6
f 479/4/6 480/4/6 484/4/6
f 484/4/6 480/4/6 485/4/6
f 476/4/6 477/4/6 486/4/6
f 486/4/6 477/4/6 487/4/6
