# MagicaVoxel @ Ephtracy

# material
mtllib chr_bedroll1.mtl
usemtl palette

# normals
vn -1 0 0
vn 1 0 0
vn 0 0 1
vn 0 0 -1
vn 0 -1 0
vn 0 1 0

# texcoords
vt 0.0566406 0.5
vt 0.0605469 0.5
vt 0.0917969 0.5
vt 0.341797 0.5
vt 0.537109 0.5
vt 0.611328 0.5
vt 0.638672 0.5
vt 0.958984 0.5
vt 0.966797 0.5
vt 0.974609 0.5
vt 0.982422 0.5
vt 0.986328 0.5
vt 0.990234 0.5

# verts
v -9.5 0 5
v -9.5 0 -5
v -9.5 2 5
v -9.5 2 4
v -9.5 2 -4
v -9.5 2 -5
v -9.5 6 4
v -9.5 6 3
v -9.5 6 -3
v -9.5 6 -4
v -9.5 7 3
v -9.5 7 -3
v -6.5 4 2
v -6.5 4 1
v -6.5 4 -1
v -6.5 4 -2
v -6.5 5 2
v -6.5 5 1
v -6.5 5 -1
v -6.5 5 -2
v -6.5 6 -1
v -6.5 6 -2
v -5.5 5 3
v -5.5 5 1
v -5.5 5 -2
v -5.5 5 -3
v -5.5 6 3
v -5.5 6 1
v -5.5 6 -2
v -5.5 6 -3
v -0.5 1 3
v -0.5 1 2
v -0.5 1 -2
v -0.5 1 -3
v -0.5 2 4
v -0.5 2 3
v -0.5 2 2
v -0.5 2 -2
v -0.5 2 -3
v -0.5 2 -4
v -0.5 3 4
v -0.5 3 3
v -0.5 3 -3
v -0.5 3 -4
v -0.5 4 4
v -0.5 4 3
v -0.5 4 -3
v -0.5 4 -4
v -0.5 5 4
v -0.5 5 3
v -0.5 5 -3
v -0.5 5 -4
v 1.5 5 3
v 1.5 5 2
v 1.5 5 1
v 1.5 5 -1
v 1.5 5 -2
v 1.5 5 -3
v 1.5 8 3
v 1.5 8 -3
v 4.5 0 -4
v 4.5 0 -5
v 4.5 1 4
v 4.5 1 3
v 4.5 1 2
v 4.5 1 -2
v 4.5 1 -3
v 4.5 1 -4
v 4.5 2 3
v 4.5 2 2
v 4.5 2 -2
v 4.5 2 -3
v 4.5 4 4
v 4.5 4 3
v 4.5 4 -3
v 4.5 4 -5
v 5.5 4 4
v 5.5 4 3
v 5.5 4 1
v 5.5 4 -2
v 5.5 5 4
v 5.5 5 -2
v 7.5 4 4
v 7.5 4 3
v 7.5 4 1
v 7.5 4 -2
v 7.5 5 4
v 7.5 5 -2
v -7.5 4 2
v -7.5 4 1
v -7.5 4 -1
v -7.5 4 -2
v -7.5 6 2
v -7.5 6 1
v -7.5 6 -1
v -7.5 6 -2
v -6.5 5 3
v -6.5 5 2
v -6.5 5 -2
v -6.5 5 -3
v -6.5 6 3
v -6.5 6 2
v -6.5 6 -2
v -6.5 6 -3
v -1.5 0 5
v -1.5 0 4
v -1.5 0 -4
v -1.5 0 -5
v -1.5 1 4
v -1.5 1 3
v -1.5 1 2
v -1.5 1 -2
v -1.5 1 -3
v -1.5 1 -4
v -1.5 2 5
v -1.5 2 4
v -1.5 2 3
v -1.5 2 2
v -1.5 2 -2
v -1.5 2 -3
v -1.5 2 -4
v -1.5 2 -5
v -1.5 5 3
v -1.5 5 -3
v -1.5 6 4
v -1.5 6 3
v -1.5 6 -3
v -1.5 6 -4
v -1.5 7 3
v -1.5 7 -3
v -0.5 5 3
v -0.5 5 2
v -0.5 5 1
v -0.5 5 -1
v -0.5 5 -2
v -0.5 5 -3
v -0.5 6 3
v -0.5 6 -3
v 2.5 5 3
v 2.5 5 -3
v 2.5 8 3
v 2.5 8 -3
v 3.5 1 3
v 3.5 1 2
v 3.5 1 -2
v 3.5 1 -3
v 3.5 2 4
v 3.5 2 3
v 3.5 2 2
v 3.5 2 -2
v 3.5 2 -3
v 3.5 2 -4
v 3.5 5 4
v 3.5 5 3
v 3.5 5 -3
v 3.5 5 -4
v 4.5 4 3
v 4.5 4 1
v 4.5 4 -3
v 4.5 5 3
v 4.5 5 -3
v 6.5 4 4
v 6.5 4 3
v 6.5 4 1
v 6.5 4 -2
v 6.5 5 4
v 6.5 5 -2
v 8.5 4 4
v 8.5 4 3
v 8.5 4 1
v 8.5 4 -2
v 8.5 5 4
v 8.5 5 -2
v 9.5 0 4
v 9.5 0 3
v 9.5 0 1
v 9.5 0 -3
v 9.5 0 -5
v 9.5 4 4
v 9.5 4 3
v 9.5 4 1
v 9.5 4 -3
v 9.5 4 -5
v -9.5 0 5
v -9.5 2 5
v -7.5 0 5
v -7.5 2 5
v -5.5 0 5
v -5.5 2 5
v -2.5 0 5
v -2.5 2 5
v -1.5 0 5
v -1.5 2 5
v -9.5 2 4
v -9.5 6 4
v -7.5 2 4
v -7.5 6 4
v -5.5 2 4
v -5.5 6 4
v -2.5 2 4
v -2.5 6 4
v -1.5 0 4
v -1.5 1 4
v -1.5 2 4
v -1.5 6 4
v -0.5 2 4
v -0.5 3 4
v -0.5 4 4
v -0.5 5 4
v 0.5 0 4
v 0.5 1 4
v 0.5 3 4
v 0.5 4 4
v 2.5 0 4
v 2.5 1 4
v 2.5 2 4
v 2.5 5 4
v 3.5 2 4
v 3.5 5 4
v 4.5 0 4
v 4.5 1 4
v 4.5 4 4
v 5.5 4 4
v 5.5 5 4
v 6.5 4 4
v 6.5 5 4
v 7.5 4 4
v 7.5 5 4
v 8.5 4 4
v 8.5 5 4
v 9.5 0 4
v 9.5 4 4
v -9.5 6 3
v -9.5 7 3
v -7.5 6 3
v -7.5 7 3
v -5.5 6 3
v -5.5 7 3
v -2.5 6 3
v -2.5 7 3
v -1.5 2 3
v -1.5 5 3
v -1.5 6 3
v -1.5 7 3
v -0.5 1 3
v -0.5 2 3
v -0.5 3 3
v -0.5 4 3
v -0.5 5 3
v -0.5 6 3
v 0.5 1 3
v 1.5 5 3
v 1.5 8 3
v 2.5 1 3
v 2.5 2 3
v 2.5 5 3
v 2.5 8 3
v 3.5 1 3
v 3.5 2 3
v 3.5 5 3
v 4.5 2 3
v 4.5 4 3
v 4.5 5 3
v -1.5 1 2
v -1.5 2 2
v -0.5 1 2
v -0.5 2 2
v 3.5 1 2
v 3.5 2 2
v 4.5 1 2
v 4.5 2 2
v -7.5 4 1
v -7.5 6 1
v -6.5 4 1
v -6.5 5 1
v -5.5 5 1
v -5.5 6 1
v -7.5 4 -2
v -7.5 6 -2
v -6.5 4 -2
v -6.5 5 -2
v -6.5 6 -2
v -6.5 5 -3
v -6.5 6 -3
v -5.5 5 -3
v -5.5 6 -3
v -6.5 5 3
v -6.5 6 3
v -5.5 5 3
v -5.5 6 3
v -7.5 4 2
v -7.5 6 2
v -6.5 4 2
v -6.5 5 2
v -6.5 6 2
v -7.5 4 -1
v -7.5 6 -1
v -6.5 4 -1
v -6.5 5 -1
v -6.5 6 -1
v -6.5 5 -2
v -6.5 6 -2
v -5.5 5 -2
v -5.5 6 -2
v -1.5 1 -2
v -1.5 2 -2
v -0.5 1 -2
v -0.5 2 -2
v 3.5 1 -2
v 3.5 2 -2
v 4.5 1 -2
v 4.5 2 -2
v 5.5 4 -2
v 5.5 5 -2
v 6.5 4 -2
v 6.5 5 -2
v 7.5 4 -2
v 7.5 5 -2
v 8.5 4 -2
v 8.5 5 -2
v -9.5 6 -3
v -9.5 7 -3
v -7.5 6 -3
v -7.5 7 -3
v -5.5 6 -3
v -5.5 7 -3
v -2.5 6 -3
v -2.5 7 -3
v -1.5 2 -3
v -1.5 5 -3
v -1.5 6 -3
v -1.5 7 -3
v -0.5 1 -3
v -0.5 2 -3
v -0.5 3 -3
v -0.5 4 -3
v -0.5 5 -3
v -0.5 6 -3
v 0.5 1 -3
v 1.5 5 -3
v 1.5 8 -3
v 2.5 1 -3
v 2.5 2 -3
v 2.5 5 -3
v 2.5 8 -3
v 3.5 1 -3
v 3.5 2 -3
v 3.5 5 -3
v 4.5 2 -3
v 4.5 4 -3
v 4.5 5 -3
v -9.5 2 -4
v -9.5 6 -4
v -7.5 2 -4
v -7.5 6 -4
v -5.5 2 -4
v -5.5 6 -4
v -2.5 2 -4
v -2.5 6 -4
v -1.5 0 -4
v -1.5 1 -4
v -1.5 2 -4
v -1.5 6 -4
v -0.5 2 -4
v -0.5 3 -4
v -0.5 4 -4
v -0.5 5 -4
v 0.5 0 -4
v 0.5 1 -4
v 0.5 3 -4
v 0.5 4 -4
v 2.5 0 -4
v 2.5 1 -4
v 2.5 2 -4
v 2.5 5 -4
v 3.5 2 -4
v 3.5 5 -4
v 4.5 0 -4
v 4.5 1 -4
v -9.5 0 -5
v -9.5 2 -5
v -7.5 0 -5
v -7.5 2 -5
v -5.5 0 -5
v -5.5 2 -5
v -2.5 0 -5
v -2.5 2 -5
v -1.5 0 -5
v -1.5 2 -5
v 4.5 0 -5
v 4.5 4 -5
v 9.5 0 -5
v 9.5 4 -5
v -9.5 0 5
v -7.5 0 5
v -5.5 0 5
v -2.5 0 5
v -1.5 0 5
v -1.5 0 4
v 0.5 0 4
v 2.5 0 4
v 4.5 0 4
v 9.5 0 4
v 0.5 0 3
v 2.5 0 3
v 4.5 0 3
v 9.5 0 3
v 4.5 0 1
v 9.5 0 1
v 0.5 0 -3
v 2.5 0 -3
v 4.5 0 -3
v 9.5 0 -3
v -1.5 0 -4
v 0.5 0 -4
v 2.5 0 -4
v 4.5 0 -4
v -9.5 0 -5
v -7.5 0 -5
v -5.5 0 -5
v -2.5 0 -5
v -1.5 0 -5
v 4.5 0 -5
v 9.5 0 -5
v -0.5 2 4
v 2.5 2 4
v 3.5 2 4
v -1.5 2 3
v -0.5 2 3
v 2.5 2 3
v 3.5 2 3
v 4.5 2 3
v -1.5 2 2
v -0.5 2 2
v 3.5 2 2
v 4.5 2 2
v -1.5 2 -2
v -0.5 2 -2
v 3.5 2 -2
v 4.5 2 -2
v -1.5 2 -3
v -0.5 2 -3
v 2.5 2 -3
v 3.5 2 -3
v 4.5 2 -3
v -0.5 2 -4
v 2.5 2 -4
v 3.5 2 -4
v -6.5 6 3
v -5.5 6 3
v -7.5 6 2
v -6.5 6 2
v -7.5 6 1
v -5.5 6 1
v -7.5 6 -1
v -6.5 6 -1
v -7.5 6 -2
v -6.5 6 -2
v -5.5 6 -2
v -6.5 6 -3
v -5.5 6 -3
v -1.5 1 4
v 0.5 1 4
v 2.5 1 4
v 4.5 1 4
v -1.5 1 3
v -0.5 1 3
v 0.5 1 3
v 2.5 1 3
v 3.5 1 3
v 4.5 1 3
v -1.5 1 2
v -0.5 1 2
v 3.5 1 2
v 4.5 1 2
v -1.5 1 -2
v -0.5 1 -2
v 3.5 1 -2
v 4.5 1 -2
v -1.5 1 -3
v -0.5 1 -3
v 0.5 1 -3
v 2.5 1 -3
v 3.5 1 -3
v 4.5 1 -3
v -1.5 1 -4
v 0.5 1 -4
v 2.5 1 -4
v 4.5 1 -4
v -9.5 2 5
v -7.5 2 5
v -5.5 2 5
v -2.5 2 5
v -1.5 2 5
v -9.5 2 4
v -7.5 2 4
v -5.5 2 4
v -2.5 2 4
v -1.5 2 4
v -9.5 2 -4
v -7.5 2 -4
v -5.5 2 -4
v -2.5 2 -4
v -1.5 2 -4
v -9.5 2 -5
v -7.5 2 -5
v -5.5 2 -5
v -2.5 2 -5
v -1.5 2 -5
v 4.5 4 4
v 5.5 4 4
v 6.5 4 4
v 7.5 4 4
v 8.5 4 4
v 9.5 4 4
v 4.5 4 3
v 5.5 4 3
v 6.5 4 3
v 7.5 4 3
v 8.5 4 3
v 9.5 4 3
v -7.5 4 2
v -6.5 4 2
v -7.5 4 1
v -6.5 4 1
v 4.5 4 1
v 5.5 4 1
v 6.5 4 1
v 7.5 4 1
v 8.5 4 1
v 9.5 4 1
v -7.5 4 -1
v -6.5 4 -1
v -7.5 4 -2
v -6.5 4 -2
v 5.5 4 -2
v 6.5 4 -2
v 7.5 4 -2
v 8.5 4 -2
v 4.5 4 -3
v 9.5 4 -3
v 4.5 4 -5
v 9.5 4 -5
v -0.5 5 4
v 2.5 5 4
v 3.5 5 4
v 5.5 5 4
v 6.5 5 4
v 7.5 5 4
v 8.5 5 4
v -6.5 5 3
v -5.5 5 3
v -0.5 5 3
v 1.5 5 3
v 2.5 5 3
v 3.5 5 3
v 4.5 5 3
v -6.5 5 2
v -0.5 5 2
v 0.5 5 2
v 1.5 5 2
v -6.5 5 1
v -5.5 5 1
v -0.5 5 1
v 0.5 5 1
v 1.5 5 1
v -0.5 5 -1
v 0.5 5 -1
v 1.5 5 -1
v -6.5 5 -2
v -5.5 5 -2
v -0.5 5 -2
v 0.5 5 -2
v 1.5 5 -2
v 5.5 5 -2
v 6.5 5 -2
v 7.5 5 -2
v 8.5 5 -2
v -6.5 5 -3
v -5.5 5 -3
v -0.5 5 -3
v 1.5 5 -3
v 2.5 5 -3
v 3.5 5 -3
v 4.5 5 -3
v -0.5 5 -4
v 2.5 5 -4
v 3.5 5 -4
v -9.5 6 4
v -7.5 6 4
v -5.5 6 4
v -2.5 6 4
v -1.5 6 4
v -9.5 6 3
v -7.5 6 3
v -5.5 6 3
v -2.5 6 3
v -1.5 6 3
v -0.5 6 3
v -9.5 6 -3
v -7.5 6 -3
v -5.5 6 -3
v -2.5 6 -3
v -1.5 6 -3
v -0.5 6 -3
v -9.5 6 -4
v -7.5 6 -4
v -5.5 6 -4
v -2.5 6 -4
v -1.5 6 -4
v -9.5 7 3
v -7.5 7 3
v -5.5 7 3
v -2.5 7 3
v -1.5 7 3
v -9.5 7 -3
v -7.5 7 -3
v -5.5 7 -3
v -2.5 7 -3
v -1.5 7 -3
v 1.5 8 3
v 2.5 8 3
v 1.5 8 -3
v 2.5 8 -3

# faces
f 3/7/1 2/7/1 1/7/1
f 4/7/1 2/7/1 3/7/1
f 5/7/1 2/7/1 4/7/1
f 6/7/1 2/7/1 5/7/1
f 7/7/1 5/7/1 4/7/1
f 8/7/1 5/7/1 7/7/1
f 9/7/1 5/7/1 8/7/1
f 10/7/1 5/7/1 9/7/1
f 11/7/1 9/7/1 8/7/1
f 12/7/1 9/7/1 11/7/1
f 17/4/1 14/4/1 13/4/1
f 18/4/1 14/4/1 17/4/1
f 19/4/1 16/4/1 15/4/1
f 20/4/1 16/4/1 19/4/1
f 21/6/1 20/6/1 19/6/1
f 22/6/1 20/6/1 21/6/1
f 27/7/1 24/7/1 23/7/1
f 28/7/1 24/7/1 27/7/1
f 29/7/1 26/7/1 25/7/1
f 30/7/1 26/7/1 29/7/1
f 36/5/1 32/5/1 31/5/1
f 37/5/1 32/5/1 36/5/1
f 38/5/1 34/5/1 33/5/1
f 39/5/1 34/5/1 38/5/1
f 41/5/1 36/5/1 35/5/1
f 42/5/1 36/5/1 41/5/1
f 43/5/1 40/5/1 39/5/1
f 44/5/1 40/5/1 43/5/1
f 45/2/1 42/2/1 41/2/1
f 46/2/1 42/2/1 45/2/1
f 47/2/1 44/2/1 43/2/1
f 48/2/1 44/2/1 47/2/1
f 49/5/1 46/5/1 45/5/1
f 50/5/1 46/5/1 49/5/1
f 51/5/1 48/5/1 47/5/1
f 52/5/1 48/5/1 51/5/1
f 59/9/1 54/9/1 53/9/1
f 59/9/1 58/9/1 57/9/1
f 59/9/1 57/9/1 56/9/1
f 59/9/1 56/9/1 55/9/1
f 59/9/1 55/9/1 54/9/1
f 60/9/1 58/9/1 59/9/1
f 68/12/1 62/12/1 61/12/1
f 69/11/1 64/11/1 63/11/1
f 69/10/1 65/10/1 64/10/1
f 70/10/1 65/10/1 69/10/1
f 71/11/1 67/11/1 66/11/1
f 72/12/1 68/12/1 67/12/1
f 72/11/1 67/11/1 71/11/1
f 73/11/1 69/11/1 63/11/1
f 74/11/1 69/11/1 73/11/1
f 75/12/1 68/12/1 72/12/1
f 76/12/1 62/12/1 68/12/1
f 76/12/1 68/12/1 75/12/1
f 81/10/1 78/10/1 77/10/1
f 81/10/1 80/10/1 79/10/1
f 81/10/1 79/10/1 78/10/1
f 82/10/1 80/10/1 81/10/1
f 87/10/1 84/10/1 83/10/1
f 87/10/1 86/10/1 85/10/1
f 87/10/1 85/10/1 84/10/1
f 88/10/1 86/10/1 87/10/1
f 89/7/2 90/7/2 93/7/2
f 93/7/2 90/7/2 94/7/2
f 91/7/2 92/7/2 95/7/2
f 95/7/2 92/7/2 96/7/2
f 97/6/2 98/6/2 101/6/2
f 101/6/2 98/6/2 102/6/2
f 99/6/2 100/6/2 103/6/2
f 103/6/2 100/6/2 104/6/2
f 105/6/2 106/6/2 109/6/2
f 107/6/2 108/6/2 114/6/2
f 105/6/2 109/6/2 115/6/2
f 109/6/2 110/6/2 115/6/2
f 115/6/2 110/6/2 116/6/2
f 110/8/2 111/8/2 117/8/2
f 116/6/2 110/6/2 117/6/2
f 117/8/2 111/8/2 118/8/2
f 112/8/2 113/8/2 119/8/2
f 113/6/2 114/6/2 120/6/2
f 119/8/2 113/8/2 120/8/2
f 114/6/2 108/6/2 121/6/2
f 120/6/2 114/6/2 121/6/2
f 121/6/2 108/6/2 122/6/2
f 116/6/2 117/6/2 123/6/2
f 120/6/2 121/6/2 124/6/2
f 116/6/2 123/6/2 125/6/2
f 125/6/2 123/6/2 126/6/2
f 124/6/2 121/6/2 127/6/2
f 127/6/2 121/6/2 128/6/2
f 126/6/2 127/6/2 129/6/2
f 129/6/2 127/6/2 130/6/2
f 131/5/2 132/5/2 137/5/2
f 135/5/2 136/5/2 137/5/2
f 134/5/2 135/5/2 137/5/2
f 133/5/2 134/5/2 137/5/2
f 132/5/2 133/5/2 137/5/2
f 137/5/2 136/5/2 138/5/2
f 139/9/2 140/9/2 141/9/2
f 141/9/2 140/9/2 142/9/2
f 143/4/2 144/4/2 148/4/2
f 148/4/2 144/4/2 149/4/2
f 145/4/2 146/4/2 150/4/2
f 150/4/2 146/4/2 151/4/2
f 147/4/2 148/4/2 153/4/2
f 153/4/2 148/4/2 154/4/2
f 151/4/2 152/4/2 155/4/2
f 155/4/2 152/4/2 156/4/2
f 157/4/2 158/4/2 160/4/2
f 158/4/2 159/4/2 160/4/2
f 160/4/2 159/4/2 161/4/2
f 162/10/2 163/10/2 166/10/2
f 164/10/2 165/10/2 166/10/2
f 163/10/2 164/10/2 166/10/2
f 166/10/2 165/10/2 167/10/2
f 168/10/2 169/10/2 172/10/2
f 170/10/2 171/10/2 172/10/2
f 169/10/2 170/10/2 172/10/2
f 172/10/2 171/10/2 173/10/2
f 174/11/2 175/11/2 179/11/2
f 175/10/2 176/10/2 180/10/2
f 179/11/2 175/11/2 180/11/2
f 176/11/2 177/11/2 181/11/2
f 180/10/2 176/10/2 181/10/2
f 177/12/2 178/12/2 182/12/2
f 181/11/2 177/11/2 182/11/2
f 182/12/2 178/12/2 183/12/2
f 186/7/3 185/7/3 184/7/3
f 187/7/3 185/7/3 186/7/3
f 188/6/3 187/6/3 186/6/3
f 189/6/3 187/6/3 188/6/3
f 190/7/3 189/7/3 188/7/3
f 191/7/3 189/7/3 190/7/3
f 192/6/3 191/6/3 190/6/3
f 193/6/3 191/6/3 192/6/3
f 196/7/3 195/7/3 194/7/3
f 197/7/3 195/7/3 196/7/3
f 198/6/3 197/6/3 196/6/3
f 199/6/3 197/6/3 198/6/3
f 200/7/3 199/7/3 198/7/3
f 201/7/3 199/7/3 200/7/3
f 204/6/3 201/6/3 200/6/3
f 205/6/3 201/6/3 204/6/3
f 210/6/3 203/6/3 202/6/3
f 211/6/3 203/6/3 210/6/3
f 212/5/3 207/5/3 206/5/3
f 212/2/3 208/2/3 207/2/3
f 213/5/3 209/5/3 208/5/3
f 213/2/3 208/2/3 212/2/3
f 214/7/3 211/7/3 210/7/3
f 215/7/3 211/7/3 214/7/3
f 216/5/3 212/5/3 206/5/3
f 216/5/3 213/5/3 212/5/3
f 217/5/3 209/5/3 213/5/3
f 217/5/3 213/5/3 216/5/3
f 218/4/3 217/4/3 216/4/3
f 219/4/3 217/4/3 218/4/3
f 220/6/3 215/6/3 214/6/3
f 221/6/3 215/6/3 220/6/3
f 223/11/3 221/11/3 220/11/3
f 223/11/3 222/11/3 221/11/3
f 225/11/3 223/11/3 220/11/3
f 225/10/3 224/10/3 223/10/3
f 226/10/3 224/10/3 225/10/3
f 227/11/3 225/11/3 220/11/3
f 229/11/3 227/11/3 220/11/3
f 229/10/3 228/10/3 227/10/3
f 230/10/3 228/10/3 229/10/3
f 231/11/3 229/11/3 220/11/3
f 232/11/3 229/11/3 231/11/3
f 235/7/3 234/7/3 233/7/3
f 236/7/3 234/7/3 235/7/3
f 237/6/3 236/6/3 235/6/3
f 238/6/3 236/6/3 237/6/3
f 239/7/3 238/7/3 237/7/3
f 240/7/3 238/7/3 239/7/3
f 243/6/3 240/6/3 239/6/3
f 244/6/3 240/6/3 243/6/3
f 246/2/3 242/2/3 241/2/3
f 247/2/3 242/2/3 246/2/3
f 248/2/3 242/2/3 247/2/3
f 249/5/3 243/5/3 242/5/3
f 249/2/3 242/2/3 248/2/3
f 250/5/3 243/5/3 249/5/3
f 251/5/3 246/5/3 245/5/3
f 254/5/3 246/5/3 251/5/3
f 255/5/3 246/5/3 254/5/3
f 256/9/3 253/9/3 252/9/3
f 257/9/3 253/9/3 256/9/3
f 258/4/3 255/4/3 254/4/3
f 259/4/3 255/4/3 258/4/3
f 261/4/3 260/4/3 259/4/3
f 262/4/3 260/4/3 261/4/3
f 263/4/3 260/4/3 262/4/3
f 266/2/3 265/2/3 264/2/3
f 267/2/3 265/2/3 266/2/3
f 270/4/3 269/4/3 268/4/3
f 271/4/3 269/4/3 270/4/3
f 274/6/3 273/6/3 272/6/3
f 275/6/3 273/6/3 274/6/3
f 276/6/3 273/6/3 275/6/3
f 277/6/3 273/6/3 276/6/3
f 280/6/3 279/6/3 278/6/3
f 281/6/3 279/6/3 280/6/3
f 282/6/3 279/6/3 281/6/3
f 285/6/3 284/6/3 283/6/3
f 286/6/3 284/6/3 285/6/3
f 287/6/4 288/6/4 289/6/4
f 289/6/4 288/6/4 290/6/4
f 291/6/4 292/6/4 293/6/4
f 293/6/4 292/6/4 294/6/4
f 294/6/4 292/6/4 295/6/4
f 296/6/4 297/6/4 298/6/4
f 298/6/4 297/6/4 299/6/4
f 299/6/4 297/6/4 300/6/4
f 301/6/4 302/6/4 303/6/4
f 303/6/4 302/6/4 304/6/4
f 305/2/4 306/2/4 307/2/4
f 307/2/4 306/2/4 308/2/4
f 309/4/4 310/4/4 311/4/4
f 311/4/4 310/4/4 312/4/4
f 313/10/4 314/10/4 315/10/4
f 315/10/4 314/10/4 316/10/4
f 317/10/4 318/10/4 319/10/4
f 319/10/4 318/10/4 320/10/4
f 321/7/4 322/7/4 323/7/4
f 323/7/4 322/7/4 324/7/4
f 323/6/4 324/6/4 325/6/4
f 325/6/4 324/6/4 326/6/4
f 325/7/4 326/7/4 327/7/4
f 327/7/4 326/7/4 328/7/4
f 327/6/4 328/6/4 331/6/4
f 331/6/4 328/6/4 332/6/4
f 329/2/4 330/2/4 334/2/4
f 334/2/4 330/2/4 335/2/4
f 335/2/4 330/2/4 336/2/4
f 330/5/4 331/5/4 337/5/4
f 336/2/4 330/2/4 337/2/4
f 337/5/4 331/5/4 338/5/4
f 333/5/4 334/5/4 339/5/4
f 339/5/4 334/5/4 342/5/4
f 342/5/4 334/5/4 343/5/4
f 340/9/4 341/9/4 344/9/4
f 344/9/4 341/9/4 345/9/4
f 342/4/4 343/4/4 346/4/4
f 346/4/4 343/4/4 347/4/4
f 347/4/4 348/4/4 349/4/4
f 349/4/4 348/4/4 350/4/4
f 350/4/4 348/4/4 351/4/4
f 352/7/4 353/7/4 354/7/4
f 354/7/4 353/7/4 355/7/4
f 354/6/4 355/6/4 356/6/4
f 356/6/4 355/6/4 357/6/4
f 356/7/4 357/7/4 358/7/4
f 358/7/4 357/7/4 359/7/4
f 358/6/4 359/6/4 362/6/4
f 362/6/4 359/6/4 363/6/4
f 360/6/4 361/6/4 368/6/4
f 368/6/4 361/6/4 369/6/4
f 364/5/4 365/5/4 370/5/4
f 365/2/4 366/2/4 370/2/4
f 366/5/4 367/5/4 371/5/4
f 370/2/4 366/2/4 371/2/4
f 368/7/4 369/7/4 372/7/4
f 372/7/4 369/7/4 373/7/4
f 364/5/4 370/5/4 374/5/4
f 370/5/4 371/5/4 374/5/4
f 371/5/4 367/5/4 375/5/4
f 374/5/4 371/5/4 375/5/4
f 374/4/4 375/4/4 376/4/4
f 376/4/4 375/4/4 377/4/4
f 372/6/4 373/6/4 378/6/4
f 378/6/4 373/6/4 379/6/4
f 380/7/4 381/7/4 382/7/4
f 382/7/4 381/7/4 383/7/4
f 382/6/4 383/6/4 384/6/4
f 384/6/4 383/6/4 385/6/4
f 384/7/4 385/7/4 386/7/4
f 386/7/4 385/7/4 387/7/4
f 386/6/4 387/6/4 388/6/4
f 388/6/4 387/6/4 389/6/4
f 390/12/4 391/12/4 392/12/4
f 392/12/4 391/12/4 393/12/4
f 399/6/5 398/6/5 397/6/5
f 404/6/5 400/6/5 399/6/5
f 404/7/5 401/7/5 400/7/5
f 405/6/5 402/6/5 401/6/5
f 405/7/5 401/7/5 404/7/5
f 406/11/5 403/11/5 402/11/5
f 406/6/5 402/6/5 405/6/5
f 407/11/5 403/11/5 406/11/5
f 408/6/5 405/6/5 404/6/5
f 408/6/5 406/6/5 405/6/5
f 408/10/5 407/10/5 406/10/5
f 409/10/5 407/10/5 408/10/5
f 410/6/5 404/6/5 399/6/5
f 410/6/5 408/6/5 404/6/5
f 411/6/5 408/6/5 410/6/5
f 412/11/5 409/11/5 408/11/5
f 412/6/5 408/6/5 411/6/5
f 413/11/5 409/11/5 412/11/5
f 414/6/5 399/6/5 397/6/5
f 414/6/5 410/6/5 399/6/5
f 415/7/5 411/7/5 410/7/5
f 415/6/5 410/6/5 414/6/5
f 416/6/5 412/6/5 411/6/5
f 416/7/5 411/7/5 415/7/5
f 417/12/5 413/12/5 412/12/5
f 417/6/5 412/6/5 416/6/5
f 418/7/5 395/7/5 394/7/5
f 419/6/5 396/6/5 395/6/5
f 419/7/5 395/7/5 418/7/5
f 420/7/5 397/7/5 396/7/5
f 420/6/5 396/6/5 419/6/5
f 421/6/5 414/6/5 397/6/5
f 421/7/5 397/7/5 420/7/5
f 422/6/5 414/6/5 421/6/5
f 423/12/5 413/12/5 417/12/5
f 424/12/5 413/12/5 423/12/5
f 429/5/5 426/5/5 425/5/5
f 430/4/5 427/4/5 426/4/5
f 430/5/5 426/5/5 429/5/5
f 431/4/5 427/4/5 430/4/5
f 433/2/5 429/2/5 428/2/5
f 434/2/5 429/2/5 433/2/5
f 435/4/5 432/4/5 431/4/5
f 436/4/5 432/4/5 435/4/5
f 441/2/5 438/2/5 437/2/5
f 442/2/5 438/2/5 441/2/5
f 444/4/5 440/4/5 439/4/5
f 445/4/5 440/4/5 444/4/5
f 446/5/5 443/5/5 442/5/5
f 447/4/5 444/4/5 443/4/5
f 447/5/5 443/5/5 446/5/5
f 448/4/5 444/4/5 447/4/5
f 452/6/5 450/6/5 449/6/5
f 453/6/5 452/6/5 451/6/5
f 454/6/5 450/6/5 452/6/5
f 454/6/5 452/6/5 453/6/5
f 457/6/5 456/6/5 455/6/5
f 458/6/5 456/6/5 457/6/5
f 460/6/5 459/6/5 458/6/5
f 461/6/5 459/6/5 460/6/5
f 462/6/6 463/6/6 466/6/6
f 466/6/6 463/6/6 467/6/6
f 463/7/6 464/7/6 468/7/6
f 467/6/6 463/6/6 468/6/6
f 464/6/6 465/6/6 469/6/6
f 468/7/6 464/7/6 469/7/6
f 469/6/6 465/6/6 470/6/6
f 470/6/6 465/6/6 471/6/6
f 466/6/6 467/6/6 472/6/6
f 472/6/6 467/6/6 473/6/6
f 470/6/6 471/6/6 474/6/6
f 474/6/6 471/6/6 475/6/6
f 476/6/6 477/6/6 480/6/6
f 480/6/6 477/6/6 481/6/6
f 478/6/6 479/6/6 484/6/6
f 484/6/6 479/6/6 485/6/6
f 480/6/6 481/6/6 486/6/6
f 481/6/6 482/6/6 486/6/6
f 482/7/6 483/7/6 487/7/6
f 486/6/6 482/6/6 487/6/6
f 484/6/6 485/6/6 488/6/6
f 487/7/6 483/7/6 488/7/6
f 483/6/6 484/6/6 488/6/6
f 488/6/6 485/6/6 489/6/6
f 490/7/6 491/7/6 495/7/6
f 491/6/6 492/6/6 496/6/6
f 495/7/6 491/7/6 496/7/6
f 492/7/6 493/7/6 497/7/6
f 496/6/6 492/6/6 497/6/6
f 493/6/6 494/6/6 498/6/6
f 497/7/6 493/7/6 498/7/6
f 498/6/6 494/6/6 499/6/6
f 500/7/6 501/7/6 505/7/6
f 501/6/6 502/6/6 506/6/6
f 505/7/6 501/7/6 506/7/6
f 502/7/6 503/7/6 507/7/6
f 506/6/6 502/6/6 507/6/6
f 503/6/6 504/6/6 508/6/6
f 507/7/6 503/7/6 508/7/6
f 508/6/6 504/6/6 509/6/6
f 510/11/6 511/11/6 516/11/6
f 516/11/6 511/11/6 517/11/6
f 512/11/6 513/11/6 518/11/6
f 518/11/6 513/11/6 519/11/6
f 514/11/6 515/11/6 520/11/6
f 520/11/6 515/11/6 521/11/6
f 522/13/6 523/13/6 524/13/6
f 524/13/6 523/13/6 525/13/6
f 516/10/6 517/10/6 526/10/6
f 526/10/6 517/10/6 527/10/6
f 518/10/6 519/10/6 528/10/6
f 528/10/6 519/10/6 529/10/6
f 520/10/6 521/10/6 530/10/6
f 530/10/6 521/10/6 531/10/6
f 532/13/6 533/13/6 534/13/6
f 534/13/6 533/13/6 535/13/6
f 526/11/6 527/11/6 536/11/6
f 528/11/6 529/11/6 537/11/6
f 537/11/6 529/11/6 538/11/6
f 530/11/6 531/11/6 539/11/6
f 538/11/6 539/11/6 540/11/6
f 526/11/6 536/11/6 540/11/6
f 537/11/6 538/11/6 540/11/6
f 536/11/6 537/11/6 540/11/6
f 539/11/6 531/11/6 541/11/6
f 540/11/6 539/11/6 541/11/6
f 540/12/6 541/12/6 542/12/6
f 542/12/6 541/12/6 543/12/6
f 544/5/6 545/5/6 553/5/6
f 553/5/6 545/5/6 554/5/6
f 545/4/6 546/4/6 555/4/6
f 554/5/6 545/5/6 555/5/6
f 555/4/6 546/4/6 556/4/6
f 551/4/6 552/4/6 558/4/6
f 553/2/6 554/2/6 559/2/6
f 559/2/6 554/2/6 560/2/6
f 560/2/6 554/2/6 561/2/6
f 558/4/6 552/4/6 562/4/6
f 562/4/6 552/4/6 563/4/6
f 559/3/6 560/3/6 564/3/6
f 560/1/6 561/1/6 565/1/6
f 564/3/6 560/3/6 565/3/6
f 565/1/6 561/1/6 566/1/6
f 564/2/6 565/2/6 567/2/6
f 565/2/6 566/2/6 567/2/6
f 567/2/6 566/2/6 568/2/6
f 568/2/6 566/2/6 569/2/6
f 567/3/6 568/3/6 572/3/6
f 568/1/6 569/1/6 573/1/6
f 572/3/6 568/3/6 573/3/6
f 573/1/6 569/1/6 574/1/6
f 547/10/6 548/10/6 575/10/6
f 575/10/6 548/10/6 576/10/6
f 549/10/6 550/10/6 577/10/6
f 577/10/6 550/10/6 578/10/6
f 570/4/6 571/4/6 579/4/6
f 579/4/6 571/4/6 580/4/6
f 573/2/6 574/2/6 581/2/6
f 572/2/6 573/2/6 581/2/6
f 581/2/6 574/2/6 582/2/6
f 556/4/6 557/4/6 583/4/6
f 555/4/6 556/4/6 583/4/6
f 583/4/6 557/4/6 584/4/6
f 584/4/6 557/4/6 585/4/6
f 581/5/6 582/5/6 586/5/6
f 582/5/6 583/5/6 586/5/6
f 583/4/6 584/4/6 587/4/6
f 586/5/6 583/5/6 587/5/6
f 587/4/6 584/4/6 588/4/6
f 589/7/6 590/7/6 594/7/6
f 590/6/6 591/6/6 595/6/6
f 594/7/6 590/7/6 595/7/6
f 591/7/6 592/7/6 596/7/6
f 595/6/6 591/6/6 596/6/6
f 592/6/6 593/6/6 597/6/6
f 596/7/6 592/7/6 597/7/6
f 597/6/6 593/6/6 598/6/6
f 598/5/6 599/5/6 604/5/6
f 604/5/6 599/5/6 605/5/6
f 600/7/6 601/7/6 606/7/6
f 601/6/6 602/6/6 607/6/6
f 606/7/6 601/7/6 607/7/6
f 602/7/6 603/7/6 608/7/6
f 607/6/6 602/6/6 608/6/6
f 603/6/6 604/6/6 609/6/6
f 608/7/6 603/7/6 609/7/6
f 609/6/6 604/6/6 610/6/6
f 611/7/6 612/7/6 616/7/6
f 612/6/6 613/6/6 617/6/6
f 616/7/6 612/7/6 617/7/6
f 613/7/6 614/7/6 618/7/6
f 617/6/6 613/6/6 618/6/6
f 614/6/6 615/6/6 619/6/6
f 618/7/6 614/7/6 619/7/6
f 619/6/6 615/6/6 620/6/6
f 621/9/6 622/9/6 623/9/6
f 623/9/6 622/9/6 624/9/6
