# MagicaVoxel @ Ephtracy

# material
mtllib chr_priest.mtl
usemtl palette

# normals
vn -1 0 0
vn 1 0 0
vn 0 0 1
vn 0 0 -1
vn 0 -1 0
vn 0 1 0

# texcoords
vt 0.0332031 0.5
vt 0.0605469 0.5
vt 0.962891 0.5
vt 0.974609 0.5
vt 0.982422 0.5
vt 0.990234 0.5
vt 0.994141 0.5

# verts
v -4 2 1
v -4 2 -0
v -4 3 1
v -4 3 -0
v -4 6 1
v -4 6 -0
v -4 7 1
v -4 7 -0
v -4 8 1
v -4 8 -0
v -4 8 -1
v -4 9 2
v -4 9 1
v -4 9 -0
v -4 9 -1
v -4 10 2
v -4 10 -0
v -4 10 -1
v -3 1 2
v -3 1 -1
v -3 2 3
v -3 2 2
v -3 2 1
v -3 2 -0
v -3 2 -1
v -3 2 -2
v -3 3 1
v -3 3 -0
v -3 6 3
v -3 6 2
v -3 6 1
v -3 6 -0
v -3 6 -1
v -3 6 -2
v -3 7 1
v -3 7 -0
v -3 7 -1
v -3 7 -2
v -3 8 1
v -3 8 -0
v -3 8 -1
v -3 9 2
v -3 9 1
v -3 9 -1
v -3 10 2
v -3 10 -0
v -3 10 -1
v -3 11 2
v -3 11 -2
v -2 0 1
v -2 0 -0
v -2 1 1
v -2 1 -0
v -2 6 -1
v -2 6 -2
v -2 7 -1
v -2 7 -2
v -2 7 -3
v -2 10 3
v -2 10 2
v -2 10 -2
v -2 10 -3
v -2 11 3
v -2 11 2
v -1 9 3
v -1 9 2
v -1 10 3
v -1 10 2
v 1 0 1
v 1 0 -0
v 1 1 2
v 1 1 1
v 1 1 -0
v 1 1 -1
v 1 2 2
v 1 2 -1
v -1 0 1
v -1 0 -0
v -1 1 2
v -1 1 1
v -1 1 -0
v -1 1 -1
v -1 2 2
v -1 2 -1
v 2 0 1
v 2 0 -0
v 2 1 1
v 2 1 -0
v 2 6 -1
v 2 6 -2
v 2 7 -1
v 2 7 -2
v 2 7 -3
v 2 10 -1
v 2 10 -2
v 2 10 -3
v 2 11 -1
v 2 11 -2
v 3 1 2
v 3 1 -1
v 3 2 3
v 3 2 2
v 3 2 1
v 3 2 -0
v 3 2 -1
v 3 2 -2
v 3 3 1
v 3 3 -0
v 3 6 3
v 3 6 2
v 3 6 1
v 3 6 -0
v 3 6 -1
v 3 6 -2
v 3 7 1
v 3 7 -0
v 3 7 -1
v 3 7 -2
v 3 8 1
v 3 8 -0
v 3 8 -1
v 3 9 2
v 3 9 1
v 3 10 3
v 3 10 2
v 3 10 -1
v 3 10 -2
v 3 11 3
v 3 11 -1
v 4 2 1
v 4 2 -0
v 4 3 1
v 4 3 -0
v 4 6 1
v 4 6 -0
v 4 7 1
v 4 7 -0
v 4 8 1
v 4 8 -0
v 4 8 -1
v 4 9 3
v 4 9 2
v 4 9 1
v 4 10 3
v 4 10 2
v 4 10 -1
v -3 2 3
v -3 6 3
v -2 10 3
v -2 11 3
v -1 5 3
v -1 6 3
v -1 9 3
v -1 10 3
v 1 5 3
v 1 6 3
v 3 2 3
v 3 6 3
v 3 10 3
v 3 11 3
v 4 9 3
v 4 10 3
v -4 9 2
v -4 10 2
v -3 1 2
v -3 2 2
v -3 6 2
v -3 9 2
v -3 10 2
v -3 11 2
v -2 7 2
v -2 8 2
v -2 10 2
v -2 11 2
v -1 1 2
v -1 2 2
v -1 6 2
v -1 7 2
v -1 8 2
v -1 9 2
v -1 10 2
v 1 1 2
v 1 2 2
v 1 6 2
v 1 7 2
v 1 8 2
v 2 7 2
v 2 8 2
v 3 1 2
v 3 2 2
v 3 6 2
v 3 9 2
v -4 2 1
v -4 3 1
v -4 6 1
v -4 7 1
v -4 8 1
v -4 9 1
v -3 2 1
v -3 3 1
v -3 6 1
v -3 7 1
v -3 8 1
v -3 9 1
v -2 0 1
v -2 1 1
v -1 0 1
v -1 1 1
v 1 0 1
v 1 1 1
v 2 0 1
v 2 1 1
v 3 2 1
v 3 3 1
v 3 6 1
v 3 7 1
v 3 8 1
v 3 9 1
v 4 2 1
v 4 3 1
v 4 6 1
v 4 7 1
v 4 8 1
v 4 9 1
v -4 2 -0
v -4 3 -0
v -4 6 -0
v -4 7 -0
v -4 8 -0
v -3 2 -0
v -3 3 -0
v -3 6 -0
v -3 7 -0
v -3 8 -0
v -2 0 -0
v -2 1 -0
v -1 0 -0
v -1 1 -0
v 1 0 -0
v 1 1 -0
v 2 0 -0
v 2 1 -0
v 3 2 -0
v 3 3 -0
v 3 6 -0
v 3 7 -0
v 3 8 -0
v 4 2 -0
v 4 3 -0
v 4 6 -0
v 4 7 -0
v 4 8 -0
v -4 8 -1
v -4 9 -1
v -4 10 -1
v -3 1 -1
v -3 2 -1
v -3 6 -1
v -3 7 -1
v -3 8 -1
v -3 9 -1
v -3 10 -1
v -2 6 -1
v -2 7 -1
v -1 1 -1
v -1 2 -1
v 1 1 -1
v 1 2 -1
v 2 6 -1
v 2 7 -1
v 2 10 -1
v 2 11 -1
v 3 1 -1
v 3 2 -1
v 3 6 -1
v 3 7 -1
v 3 8 -1
v 3 10 -1
v 3 11 -1
v 4 8 -1
v 4 10 -1
v -3 2 -2
v -3 6 -2
v -3 7 -2
v -3 11 -2
v -2 6 -2
v -2 7 -2
v -2 10 -2
v 2 6 -2
v 2 7 -2
v 2 10 -2
v 2 11 -2
v 3 2 -2
v 3 6 -2
v 3 7 -2
v 3 10 -2
v -2 7 -3
v -2 10 -3
v 2 7 -3
v 2 10 -3
v -2 0 1
v -1 0 1
v 1 0 1
v 2 0 1
v -2 0 -0
v -1 0 -0
v 1 0 -0
v 2 0 -0
v -3 1 2
v -1 1 2
v 1 1 2
v 3 1 2
v -2 1 1
v -1 1 1
v 1 1 1
v 2 1 1
v -2 1 -0
v -1 1 -0
v 1 1 -0
v 2 1 -0
v -3 1 -1
v -1 1 -1
v 1 1 -1
v 3 1 -1
v -3 2 3
v 3 2 3
v -3 2 2
v -1 2 2
v 1 2 2
v 3 2 2
v -4 2 1
v -3 2 1
v 3 2 1
v 4 2 1
v -4 2 -0
v -3 2 -0
v 3 2 -0
v 4 2 -0
v -3 2 -1
v -1 2 -1
v 1 2 -1
v 3 2 -1
v -3 2 -2
v 3 2 -2
v -4 7 1
v -3 7 1
v 3 7 1
v 4 7 1
v -4 7 -0
v -3 7 -0
v 3 7 -0
v 4 7 -0
v -3 7 -1
v -2 7 -1
v 2 7 -1
v 3 7 -1
v -3 7 -2
v -2 7 -2
v 2 7 -2
v 3 7 -2
v -2 7 -3
v 2 7 -3
v -4 8 -0
v -3 8 -0
v 3 8 -0
v 4 8 -0
v -4 8 -1
v -3 8 -1
v 3 8 -1
v 4 8 -1
v -1 9 3
v 4 9 3
v -4 9 2
v -3 9 2
v -1 9 2
v 3 9 2
v 4 9 2
v -4 9 1
v -3 9 1
v 3 9 1
v 4 9 1
v -2 10 3
v -1 10 3
v -2 10 2
v -1 10 2
v -3 6 3
v -1 6 3
v 1 6 3
v 3 6 3
v -3 6 2
v -1 6 2
v 1 6 2
v 3 6 2
v -4 6 1
v -3 6 1
v 3 6 1
v 4 6 1
v -4 6 -0
v -3 6 -0
v 3 6 -0
v 4 6 -0
v -3 6 -1
v -2 6 -1
v 2 6 -1
v 3 6 -1
v -3 6 -2
v -2 6 -2
v 2 6 -2
v 3 6 -2
v 3 10 3
v 4 10 3
v -4 10 2
v -3 10 2
v 3 10 2
v 4 10 2
v -4 10 -0
v -3 10 -0
v -4 10 -1
v -3 10 -1
v 2 10 -1
v 3 10 -1
v 4 10 -1
v -2 10 -2
v 2 10 -2
v 3 10 -2
v -2 10 -3
v 2 10 -3
v -2 11 3
v 3 11 3
v -3 11 2
v -2 11 2
v 2 11 -1
v 3 11 -1
v -3 11 -2
v 2 11 -2

# faces
f 3/1/1 2/1/1 1/1/1
f 4/1/1 2/1/1 3/1/1
f 5/6/1 4/6/1 3/6/1
f 6/6/1 4/6/1 5/6/1
f 9/2/1 8/2/1 7/2/1
f 10/2/1 8/2/1 9/2/1
f 13/4/1 10/4/1 9/4/1
f 13/4/1 11/4/1 10/4/1
f 14/4/1 11/4/1 13/4/1
f 15/4/1 11/4/1 14/4/1
f 16/4/1 13/4/1 12/4/1
f 16/4/1 14/4/1 13/4/1
f 17/5/1 15/5/1 14/5/1
f 17/4/1 14/4/1 16/4/1
f 18/5/1 15/5/1 17/5/1
f 22/6/1 20/6/1 19/6/1
f 23/6/1 20/6/1 22/6/1
f 24/6/1 20/6/1 23/6/1
f 25/6/1 20/6/1 24/6/1
f 27/6/1 22/6/1 21/6/1
f 27/6/1 23/6/1 22/6/1
f 28/6/1 26/6/1 25/6/1
f 28/6/1 25/6/1 24/6/1
f 29/6/1 27/6/1 21/6/1
f 30/6/1 27/6/1 29/6/1
f 31/6/1 27/6/1 30/6/1
f 32/6/1 26/6/1 28/6/1
f 33/6/1 26/6/1 32/6/1
f 34/6/1 26/6/1 33/6/1
f 35/1/1 31/1/1 30/1/1
f 35/1/1 33/1/1 32/1/1
f 35/1/1 32/1/1 31/1/1
f 36/1/1 33/1/1 35/1/1
f 37/1/1 33/1/1 36/1/1
f 39/1/1 35/1/1 30/1/1
f 40/1/1 37/1/1 36/1/1
f 41/5/1 38/5/1 37/5/1
f 41/1/1 37/1/1 40/1/1
f 42/1/1 39/1/1 30/1/1
f 43/1/1 39/1/1 42/1/1
f 44/5/1 38/5/1 41/5/1
f 47/5/1 38/5/1 44/5/1
f 48/5/1 46/5/1 45/5/1
f 48/5/1 47/5/1 46/5/1
f 49/5/1 38/5/1 47/5/1
f 49/5/1 47/5/1 48/5/1
f 52/6/1 51/6/1 50/6/1
f 53/6/1 51/6/1 52/6/1
f 56/1/1 55/1/1 54/1/1
f 57/1/1 55/1/1 56/1/1
f 61/5/1 58/5/1 57/5/1
f 62/5/1 58/5/1 61/5/1
f 63/5/1 60/5/1 59/5/1
f 64/5/1 60/5/1 63/5/1
f 67/5/1 66/5/1 65/5/1
f 68/5/1 66/5/1 67/5/1
f 72/6/1 70/6/1 69/6/1
f 73/6/1 70/6/1 72/6/1
f 75/6/1 72/6/1 71/6/1
f 75/6/1 74/6/1 73/6/1
f 75/6/1 73/6/1 72/6/1
f 76/6/1 74/6/1 75/6/1
f 77/6/2 78/6/2 80/6/2
f 80/6/2 78/6/2 81/6/2
f 79/6/2 80/6/2 83/6/2
f 81/6/2 82/6/2 83/6/2
f 80/6/2 81/6/2 83/6/2
f 83/6/2 82/6/2 84/6/2
f 85/6/2 86/6/2 87/6/2
f 87/6/2 86/6/2 88/6/2
f 89/1/2 90/1/2 91/1/2
f 91/1/2 90/1/2 92/1/2
f 92/5/2 93/5/2 95/5/2
f 95/5/2 93/5/2 96/5/2
f 94/5/2 95/5/2 97/5/2
f 97/5/2 95/5/2 98/5/2
f 99/6/2 100/6/2 102/6/2
f 102/6/2 100/6/2 103/6/2
f 103/6/2 100/6/2 104/6/2
f 104/6/2 100/6/2 105/6/2
f 101/6/2 102/6/2 107/6/2
f 102/6/2 103/6/2 107/6/2
f 105/6/2 106/6/2 108/6/2
f 104/6/2 105/6/2 108/6/2
f 101/6/2 107/6/2 109/6/2
f 109/6/2 107/6/2 110/6/2
f 110/6/2 107/6/2 111/6/2
f 108/6/2 106/6/2 112/6/2
f 112/6/2 106/6/2 113/6/2
f 113/6/2 106/6/2 114/6/2
f 110/1/2 111/1/2 115/1/2
f 112/1/2 113/1/2 115/1/2
f 111/1/2 112/1/2 115/1/2
f 115/1/2 113/1/2 116/1/2
f 116/1/2 113/1/2 117/1/2
f 110/1/2 115/1/2 119/1/2
f 116/1/2 117/1/2 120/1/2
f 117/5/2 118/5/2 121/5/2
f 120/1/2 117/1/2 121/1/2
f 110/1/2 119/1/2 122/1/2
f 122/1/2 119/1/2 123/1/2
f 121/5/2 118/5/2 126/5/2
f 126/5/2 118/5/2 127/5/2
f 124/5/2 125/5/2 128/5/2
f 125/5/2 126/5/2 128/5/2
f 128/5/2 126/5/2 129/5/2
f 130/1/2 131/1/2 132/1/2
f 132/1/2 131/1/2 133/1/2
f 132/6/2 133/6/2 134/6/2
f 134/6/2 133/6/2 135/6/2
f 136/2/2 137/2/2 138/2/2
f 138/2/2 137/2/2 139/2/2
f 138/4/2 139/4/2 143/4/2
f 139/4/2 140/4/2 143/4/2
f 141/5/2 142/5/2 144/5/2
f 142/4/2 143/4/2 145/4/2
f 144/5/2 142/5/2 145/5/2
f 143/4/2 140/4/2 146/4/2
f 145/4/2 143/4/2 146/4/2
f 151/6/3 148/6/3 147/6/3
f 152/6/3 148/6/3 151/6/3
f 154/5/3 150/5/3 149/5/3
f 155/3/3 152/3/3 151/3/3
f 155/6/3 151/6/3 147/6/3
f 156/3/3 152/3/3 155/3/3
f 157/6/3 155/6/3 147/6/3
f 157/6/3 156/6/3 155/6/3
f 158/6/3 156/6/3 157/6/3
f 159/5/3 154/5/3 153/5/3
f 159/5/3 150/5/3 154/5/3
f 160/5/3 150/5/3 159/5/3
f 161/5/3 159/5/3 153/5/3
f 162/5/3 159/5/3 161/5/3
f 168/4/3 164/4/3 163/4/3
f 169/4/3 164/4/3 168/4/3
f 171/1/3 168/1/3 167/1/3
f 171/1/3 169/1/3 168/1/3
f 172/1/3 169/1/3 171/1/3
f 173/5/3 170/5/3 169/5/3
f 173/1/3 169/1/3 172/1/3
f 174/5/3 170/5/3 173/5/3
f 175/6/3 166/6/3 165/6/3
f 176/6/3 166/6/3 175/6/3
f 177/1/3 171/1/3 167/1/3
f 178/7/3 172/7/3 171/7/3
f 178/1/3 171/1/3 177/1/3
f 179/1/3 173/1/3 172/1/3
f 179/7/3 172/7/3 178/7/3
f 180/1/3 173/1/3 179/1/3
f 181/1/3 173/1/3 180/1/3
f 184/1/3 178/1/3 177/1/3
f 184/1/3 179/1/3 178/1/3
f 184/1/3 180/1/3 179/1/3
f 185/1/3 180/1/3 184/1/3
f 186/1/3 180/1/3 185/1/3
f 187/1/3 185/1/3 184/1/3
f 187/7/3 186/7/3 185/7/3
f 188/1/3 180/1/3 186/1/3
f 188/7/3 186/7/3 187/7/3
f 189/6/3 183/6/3 182/6/3
f 190/6/3 183/6/3 189/6/3
f 191/1/3 187/1/3 184/1/3
f 191/1/3 188/1/3 187/1/3
f 192/1/3 180/1/3 188/1/3
f 192/1/3 188/1/3 191/1/3
f 199/1/3 194/1/3 193/1/3
f 200/6/3 195/6/3 194/6/3
f 200/1/3 194/1/3 199/1/3
f 201/6/3 195/6/3 200/6/3
f 202/2/3 197/2/3 196/2/3
f 203/4/3 198/4/3 197/4/3
f 203/2/3 197/2/3 202/2/3
f 204/4/3 198/4/3 203/4/3
f 207/6/3 206/6/3 205/6/3
f 208/6/3 206/6/3 207/6/3
f 211/6/3 210/6/3 209/6/3
f 212/6/3 210/6/3 211/6/3
f 219/1/3 214/1/3 213/1/3
f 220/6/3 215/6/3 214/6/3
f 220/1/3 214/1/3 219/1/3
f 221/6/3 215/6/3 220/6/3
f 222/2/3 217/2/3 216/2/3
f 223/4/3 218/4/3 217/4/3
f 223/2/3 217/2/3 222/2/3
f 224/4/3 218/4/3 223/4/3
f 225/1/4 226/1/4 230/1/4
f 226/6/4 227/6/4 231/6/4
f 230/1/4 226/1/4 231/1/4
f 231/6/4 227/6/4 232/6/4
f 228/2/4 229/2/4 233/2/4
f 233/2/4 229/2/4 234/2/4
f 235/6/4 236/6/4 237/6/4
f 237/6/4 236/6/4 238/6/4
f 239/6/4 240/6/4 241/6/4
f 241/6/4 240/6/4 242/6/4
f 243/1/4 244/1/4 248/1/4
f 244/6/4 245/6/4 249/6/4
f 248/1/4 244/1/4 249/1/4
f 249/6/4 245/6/4 250/6/4
f 246/2/4 247/2/4 251/2/4
f 251/2/4 247/2/4 252/2/4
f 253/4/4 254/4/4 260/4/4
f 254/5/4 255/5/4 261/5/4
f 260/4/4 254/4/4 261/4/4
f 261/5/4 255/5/4 262/5/4
f 258/1/4 259/1/4 263/1/4
f 263/1/4 259/1/4 264/1/4
f 256/6/4 257/6/4 265/6/4
f 265/6/4 257/6/4 266/6/4
f 267/6/4 268/6/4 273/6/4
f 273/6/4 268/6/4 274/6/4
f 269/1/4 270/1/4 275/1/4
f 275/1/4 270/1/4 276/1/4
f 271/5/4 272/5/4 278/5/4
f 278/5/4 272/5/4 279/5/4
f 277/4/4 278/4/4 280/4/4
f 280/4/4 278/4/4 281/4/4
f 282/6/4 283/6/4 286/6/4
f 284/5/4 285/5/4 287/5/4
f 287/5/4 285/5/4 288/5/4
f 282/6/4 286/6/4 289/6/4
f 286/1/4 287/1/4 289/1/4
f 289/1/4 287/1/4 290/1/4
f 288/5/4 285/5/4 291/5/4
f 291/5/4 285/5/4 292/5/4
f 282/6/4 289/6/4 293/6/4
f 293/6/4 289/6/4 294/6/4
f 290/5/4 291/5/4 295/5/4
f 295/5/4 291/5/4 296/5/4
f 297/5/4 298/5/4 299/5/4
f 299/5/4 298/5/4 300/5/4
f 305/6/5 302/6/5 301/6/5
f 306/6/5 302/6/5 305/6/5
f 307/6/5 304/6/5 303/6/5
f 308/6/5 304/6/5 307/6/5
f 313/6/5 310/6/5 309/6/5
f 314/6/5 310/6/5 313/6/5
f 315/6/5 312/6/5 311/6/5
f 316/6/5 312/6/5 315/6/5
f 317/6/5 313/6/5 309/6/5
f 320/6/5 312/6/5 316/6/5
f 321/6/5 318/6/5 317/6/5
f 321/6/5 317/6/5 309/6/5
f 322/6/5 318/6/5 321/6/5
f 323/6/5 320/6/5 319/6/5
f 324/6/5 312/6/5 320/6/5
f 324/6/5 320/6/5 323/6/5
f 327/6/5 326/6/5 325/6/5
f 328/6/5 326/6/5 327/6/5
f 329/6/5 326/6/5 328/6/5
f 330/6/5 326/6/5 329/6/5
f 335/1/5 332/1/5 331/1/5
f 336/1/5 332/1/5 335/1/5
f 337/1/5 334/1/5 333/1/5
f 338/1/5 334/1/5 337/1/5
f 340/6/5 329/6/5 328/6/5
f 341/6/5 329/6/5 340/6/5
f 343/6/5 340/6/5 339/6/5
f 343/6/5 342/6/5 341/6/5
f 343/6/5 341/6/5 340/6/5
f 344/6/5 342/6/5 343/6/5
f 349/2/5 346/2/5 345/2/5
f 350/2/5 346/2/5 349/2/5
f 351/2/5 348/2/5 347/2/5
f 352/2/5 348/2/5 351/2/5
f 357/5/5 354/5/5 353/5/5
f 358/5/5 354/5/5 357/5/5
f 359/5/5 356/5/5 355/5/5
f 360/5/5 356/5/5 359/5/5
f 361/5/5 359/5/5 358/5/5
f 362/5/5 359/5/5 361/5/5
f 367/4/5 364/4/5 363/4/5
f 368/4/5 364/4/5 367/4/5
f 369/4/5 366/4/5 365/4/5
f 370/4/5 366/4/5 369/4/5
f 375/5/5 372/5/5 371/5/5
f 376/5/5 372/5/5 375/5/5
f 377/5/5 372/5/5 376/5/5
f 378/4/5 374/4/5 373/4/5
f 379/4/5 374/4/5 378/4/5
f 380/4/5 377/4/5 376/4/5
f 381/4/5 377/4/5 380/4/5
f 384/5/5 383/5/5 382/5/5
f 385/5/5 383/5/5 384/5/5
f 386/6/6 387/6/6 390/6/6
f 387/3/6 388/3/6 391/3/6
f 390/6/6 387/6/6 391/6/6
f 388/6/6 389/6/6 392/6/6
f 391/3/6 388/3/6 392/3/6
f 392/6/6 389/6/6 393/6/6
f 394/6/6 395/6/6 398/6/6
f 398/6/6 395/6/6 399/6/6
f 396/6/6 397/6/6 400/6/6
f 400/6/6 397/6/6 401/6/6
f 402/6/6 403/6/6 406/6/6
f 406/6/6 403/6/6 407/6/6
f 404/6/6 405/6/6 408/6/6
f 408/6/6 405/6/6 409/6/6
f 410/5/6 411/5/6 414/5/6
f 414/5/6 411/5/6 415/5/6
f 412/4/6 413/4/6 416/4/6
f 416/4/6 413/4/6 417/4/6
f 416/5/6 417/5/6 418/5/6
f 418/5/6 417/5/6 419/5/6
f 414/4/6 415/4/6 421/4/6
f 421/4/6 415/4/6 422/4/6
f 420/5/6 421/5/6 424/5/6
f 424/5/6 421/5/6 425/5/6
f 423/5/6 424/5/6 426/5/6
f 426/5/6 424/5/6 427/5/6
f 428/5/6 429/5/6 431/5/6
f 431/5/6 429/5/6 432/5/6
f 430/5/6 431/5/6 432/5/6
f 432/5/6 429/5/6 433/5/6
f 430/5/6 432/5/6 434/5/6
f 434/5/6 432/5/6 435/5/6
