# MagicaVoxel @ Ephtracy

# material
mtllib chr_army2a.mtl
usemtl palette

# normals
vn -1 0 0
vn 1 0 0
vn 0 0 1
vn 0 0 -1
vn 0 -1 0
vn 0 1 0

# texcoords
vt 0.369141 0.5
vt 0.373047 0.5
vt 0.486328 0.5
vt 0.509766 0.5
vt 0.654297 0.5
vt 0.677734 0.5
vt 0.986328 0.5
vt 0.994141 0.5

# verts
v -4 2 0.5
v -4 2 -0.5
v -4 4 0.5
v -4 4 -0.5
v -4 5 0.5
v -4 5 -0.5
v -4 6 0.5
v -4 6 -0.5
v -4 7 0.5
v -4 7 -0.5
v -4 8 0.5
v -4 8 -0.5
v -3 1 1.5
v -3 1 0.5
v -3 1 -1.5
v -3 2 2.5
v -3 2 1.5
v -3 2 0.5
v -3 2 -0.5
v -3 2 -1.5
v -3 2 -2.5
v -3 3 2.5
v -3 3 1.5
v -3 3 0.5
v -3 3 -0.5
v -3 3 -2.5
v -3 4 2.5
v -3 4 1.5
v -3 4 0.5
v -3 4 -0.5
v -3 4 -1.5
v -3 5 1.5
v -3 5 0.5
v -3 5 -0.5
v -3 5 -1.5
v -3 6 2.5
v -3 6 1.5
v -3 6 0.5
v -3 6 -0.5
v -3 6 -1.5
v -3 6 -2.5
v -3 7 0.5
v -3 7 -0.5
v -3 7 -1.5
v -3 7 -2.5
v -3 8 0.5
v -3 8 -0.5
v -3 9 2.5
v -3 9 1.5
v -3 9 -1.5
v -3 9 -2.5
v -3 9 -3.5
v -3 10 1.5
v -3 10 0.5
v -3 10 -1.5
v -3 10 -3.5
v -3 11 2.5
v -3 11 1.5
v -3 11 0.5
v -3 11 -0.5
v -3 11 -2.5
v -3 11 -3.5
v -3 12 1.5
v -3 12 0.5
v -3 12 -0.5
v -3 12 -2.5
v -2 0 0.5
v -2 0 -0.5
v -2 1 0.5
v -2 1 -0.5
v -2 2 3.5
v -2 2 2.5
v -2 2 -2.5
v -2 2 -3.5
v -2 2 -4.5
v -2 3 3.5
v -2 3 2.5
v -2 3 -2.5
v -2 3 -3.5
v -2 4 3.5
v -2 4 2.5
v -2 4 -2.5
v -2 4 -3.5
v -2 5 -2.5
v -2 5 -3.5
v -2 6 -1.5
v -2 6 -2.5
v -2 6 -3.5
v -2 6 -4.5
v -2 7 -1.5
v -2 7 -2.5
v -2 7 -3.5
v -2 9 -2.5
v -2 9 -3.5
v -2 11 2.5
v -2 11 1.5
v -2 11 -2.5
v -2 11 -3.5
v -2 12 2.5
v -2 12 1.5
v -2 12 -2.5
v -2 12 -3.5
v 1 0 0.5
v 1 0 -0.5
v 1 1 1.5
v 1 1 0.5
v 1 1 -0.5
v 1 1 -1.5
v 1 2 1.5
v 1 2 -1.5
v -1 0 0.5
v -1 0 -0.5
v -1 1 1.5
v -1 1 0.5
v -1 1 -0.5
v -1 1 -1.5
v -1 2 3.5
v -1 2 2.5
v -1 2 1.5
v -1 2 -0.5
v -1 2 -1.5
v -1 3 3.5
v -1 3 2.5
v -1 4 3.5
v -1 4 2.5
v 2 0 0.5
v 2 0 -0.5
v 2 1 0.5
v 2 1 -0.5
v 2 2 -2.5
v 2 2 -3.5
v 2 2 -4.5
v 2 3 -2.5
v 2 3 -3.5
v 2 4 -2.5
v 2 4 -3.5
v 2 4 -4.5
v 2 5 -2.5
v 2 5 -3.5
v 2 5 -4.5
v 2 6 -1.5
v 2 6 -2.5
v 2 6 -4.5
v 2 7 -1.5
v 2 7 -2.5
v 2 7 -3.5
v 2 9 -2.5
v 2 9 -3.5
v 2 11 2.5
v 2 11 1.5
v 2 11 -2.5
v 2 11 -3.5
v 2 12 2.5
v 2 12 1.5
v 2 12 -2.5
v 2 12 -3.5
v 3 1 1.5
v 3 1 0.5
v 3 1 -0.5
v 3 1 -1.5
v 3 2 2.5
v 3 2 1.5
v 3 2 0.5
v 3 2 -0.5
v 3 2 -1.5
v 3 2 -2.5
v 3 3 2.5
v 3 3 0.5
v 3 3 -0.5
v 3 3 -1.5
v 3 3 -2.5
v 3 4 2.5
v 3 4 1.5
v 3 4 0.5
v 3 4 -0.5
v 3 4 -1.5
v 3 4 -2.5
v 3 5 2.5
v 3 5 1.5
v 3 5 0.5
v 3 5 -0.5
v 3 5 -1.5
v 3 5 -2.5
v 3 6 2.5
v 3 6 1.5
v 3 6 0.5
v 3 6 -0.5
v 3 6 -1.5
v 3 6 -2.5
v 3 7 0.5
v 3 7 -0.5
v 3 7 -1.5
v 3 7 -2.5
v 3 8 0.5
v 3 8 -0.5
v 3 9 2.5
v 3 9 1.5
v 3 9 -1.5
v 3 9 -2.5
v 3 9 -3.5
v 3 10 2.5
v 3 10 1.5
v 3 10 0.5
v 3 10 -0.5
v 3 10 -1.5
v 3 10 -2.5
v 3 10 -3.5
v 3 11 2.5
v 3 11 1.5
v 3 11 0.5
v 3 11 -0.5
v 3 11 -1.5
v 3 11 -2.5
v 3 11 -3.5
v 3 12 1.5
v 3 12 -1.5
v 3 12 -2.5
v 4 2 0.5
v 4 2 -0.5
v 4 4 0.5
v 4 4 -0.5
v 4 5 0.5
v 4 5 -0.5
v 4 6 0.5
v 4 6 -0.5
v 4 7 0.5
v 4 7 -0.5
v 4 8 0.5
v 4 8 -0.5
v -2 2 3.5
v -2 3 3.5
v -2 4 3.5
v -1 2 3.5
v -1 3 3.5
v -1 4 3.5
v -3 2 2.5
v -3 3 2.5
v -3 4 2.5
v -3 6 2.5
v -3 9 2.5
v -3 11 2.5
v -2 2 2.5
v -2 3 2.5
v -2 4 2.5
v -2 6 2.5
v -2 10 2.5
v -2 11 2.5
v -2 12 2.5
v -1 2 2.5
v -1 3 2.5
v -1 4 2.5
v -1 5 2.5
v -1 6 2.5
v -1 10 2.5
v -1 11 2.5
v 0 4 2.5
v 0 5 2.5
v 0 6 2.5
v 0 9 2.5
v 0 10 2.5
v 0 11 2.5
v 0 12 2.5
v 1 3 2.5
v 1 5 2.5
v 1 6 2.5
v 1 9 2.5
v 1 10 2.5
v 1 11 2.5
v 1 12 2.5
v 2 3 2.5
v 2 4 2.5
v 2 5 2.5
v 2 6 2.5
v 2 10 2.5
v 2 11 2.5
v 2 12 2.5
v 3 2 2.5
v 3 3 2.5
v 3 4 2.5
v 3 5 2.5
v 3 6 2.5
v 3 9 2.5
v 3 10 2.5
v 3 11 2.5
v -3 1 1.5
v -3 2 1.5
v -3 6 1.5
v -3 9 1.5
v -3 11 1.5
v -3 12 1.5
v -2 1 1.5
v -2 2 1.5
v -2 6 1.5
v -2 7 1.5
v -2 8 1.5
v -2 11 1.5
v -2 12 1.5
v -1 1 1.5
v -1 2 1.5
v -1 6 1.5
v -1 7 1.5
v -1 8 1.5
v 0 6 1.5
v 0 9 1.5
v 1 1 1.5
v 1 2 1.5
v 1 6 1.5
v 1 7 1.5
v 1 8 1.5
v 1 9 1.5
v 2 1 1.5
v 2 2 1.5
v 2 6 1.5
v 2 7 1.5
v 2 8 1.5
v 2 11 1.5
v 2 12 1.5
v 3 1 1.5
v 3 2 1.5
v 3 6 1.5
v 3 9 1.5
v 3 11 1.5
v 3 12 1.5
v -4 2 0.5
v -4 4 0.5
v -4 5 0.5
v -4 6 0.5
v -4 7 0.5
v -4 8 0.5
v -3 2 0.5
v -3 3 0.5
v -3 4 0.5
v -3 5 0.5
v -3 6 0.5
v -3 7 0.5
v -3 8 0.5
v -2 0 0.5
v -2 1 0.5
v -1 0 0.5
v -1 1 0.5
v 1 0 0.5
v 1 1 0.5
v 2 0 0.5
v 2 1 0.5
v 3 2 0.5
v 3 3 0.5
v 3 4 0.5
v 3 5 0.5
v 3 6 0.5
v 3 7 0.5
v 3 8 0.5
v 4 2 0.5
v 4 4 0.5
v 4 5 0.5
v 4 6 0.5
v 4 7 0.5
v 4 8 0.5
v -4 2 -0.5
v -4 4 -0.5
v -4 5 -0.5
v -4 6 -0.5
v -4 7 -0.5
v -4 8 -0.5
v -3 2 -0.5
v -3 3 -0.5
v -3 4 -0.5
v -3 5 -0.5
v -3 6 -0.5
v -3 7 -0.5
v -3 8 -0.5
v -2 0 -0.5
v -2 1 -0.5
v -1 0 -0.5
v -1 1 -0.5
v 1 0 -0.5
v 1 1 -0.5
v 2 0 -0.5
v 2 1 -0.5
v 3 2 -0.5
v 3 3 -0.5
v 3 4 -0.5
v 3 5 -0.5
v 3 6 -0.5
v 3 7 -0.5
v 3 8 -0.5
v 4 2 -0.5
v 4 4 -0.5
v 4 5 -0.5
v 4 6 -0.5
v 4 7 -0.5
v 4 8 -0.5
v -3 1 -1.5
v -3 2 -1.5
v -3 6 -1.5
v -3 7 -1.5
v -2 1 -1.5
v -2 2 -1.5
v -2 6 -1.5
v -2 7 -1.5
v -1 1 -1.5
v -1 2 -1.5
v 1 1 -1.5
v 1 2 -1.5
v 2 1 -1.5
v 2 2 -1.5
v 2 6 -1.5
v 2 7 -1.5
v 3 1 -1.5
v 3 2 -1.5
v 3 6 -1.5
v 3 7 -1.5
v -3 2 -2.5
v -3 3 -2.5
v -3 6 -2.5
v -3 7 -2.5
v -3 9 -2.5
v -3 11 -2.5
v -3 12 -2.5
v -2 2 -2.5
v -2 3 -2.5
v -2 4 -2.5
v -2 5 -2.5
v -2 6 -2.5
v -2 7 -2.5
v -2 9 -2.5
v -2 11 -2.5
v -2 12 -2.5
v 2 2 -2.5
v 2 3 -2.5
v 2 4 -2.5
v 2 5 -2.5
v 2 6 -2.5
v 2 7 -2.5
v 2 9 -2.5
v 2 11 -2.5
v 2 12 -2.5
v 3 2 -2.5
v 3 3 -2.5
v 3 4 -2.5
v 3 5 -2.5
v 3 6 -2.5
v 3 7 -2.5
v 3 9 -2.5
v 3 11 -2.5
v 3 12 -2.5
v -3 9 -3.5
v -3 10 -3.5
v -3 11 -3.5
v -2 7 -3.5
v -2 9 -3.5
v -2 10 -3.5
v -2 11 -3.5
v -2 12 -3.5
v -1 11 -3.5
v -1 12 -3.5
v 0 10 -3.5
v 0 11 -3.5
v 1 10 -3.5
v 1 11 -3.5
v 2 7 -3.5
v 2 9 -3.5
v 2 10 -3.5
v 2 11 -3.5
v 2 12 -3.5
v 3 9 -3.5
v 3 10 -3.5
v 3 11 -3.5
v -2 2 -4.5
v -2 6 -4.5
v -1 2 -4.5
v -1 3 -4.5
v -1 4 -4.5
v -1 5 -4.5
v 0 2 -4.5
v 0 3 -4.5
v 0 4 -4.5
v 0 5 -4.5
v 0 6 -4.5
v 1 3 -4.5
v 1 4 -4.5
v 1 5 -4.5
v 2 2 -4.5
v 2 4 -4.5
v 2 5 -4.5
v 2 6 -4.5
v -2 0 0.5
v -1 0 0.5
v 1 0 0.5
v 2 0 0.5
v -2 0 -0.5
v -1 0 -0.5
v 1 0 -0.5
v 2 0 -0.5
v -3 1 1.5
v -2 1 1.5
v -1 1 1.5
v 1 1 1.5
v 2 1 1.5
v 3 1 1.5
v -3 1 0.5
v -2 1 0.5
v -1 1 0.5
v 1 1 0.5
v 2 1 0.5
v 3 1 0.5
v -2 1 -0.5
v -1 1 -0.5
v 1 1 -0.5
v 2 1 -0.5
v 3 1 -0.5
v -3 1 -1.5
v -2 1 -1.5
v -1 1 -1.5
v 1 1 -1.5
v 2 1 -1.5
v 3 1 -1.5
v -2 2 3.5
v -1 2 3.5
v -3 2 2.5
v -2 2 2.5
v -1 2 2.5
v 3 2 2.5
v -3 2 1.5
v -2 2 1.5
v -1 2 1.5
v 1 2 1.5
v 2 2 1.5
v 3 2 1.5
v -4 2 0.5
v -3 2 0.5
v 3 2 0.5
v 4 2 0.5
v -4 2 -0.5
v -3 2 -0.5
v -1 2 -0.5
v 3 2 -0.5
v 4 2 -0.5
v -3 2 -1.5
v -2 2 -1.5
v -1 2 -1.5
v 1 2 -1.5
v 2 2 -1.5
v 3 2 -1.5
v -3 2 -2.5
v -2 2 -2.5
v 2 2 -2.5
v 3 2 -2.5
v -2 2 -3.5
v -1 2 -3.5
v 0 2 -3.5
v 2 2 -3.5
v -2 2 -4.5
v -1 2 -4.5
v 0 2 -4.5
v 2 2 -4.5
v -4 7 0.5
v -3 7 0.5
v 3 7 0.5
v 4 7 0.5
v -4 7 -0.5
v -3 7 -0.5
v 3 7 -0.5
v 4 7 -0.5
v -3 7 -1.5
v -2 7 -1.5
v 2 7 -1.5
v 3 7 -1.5
v -3 7 -2.5
v -2 7 -2.5
v 2 7 -2.5
v 3 7 -2.5
v -2 7 -3.5
v 2 7 -3.5
v -3 9 2.5
v 0 9 2.5
v 1 9 2.5
v 3 9 2.5
v -3 9 1.5
v 0 9 1.5
v 1 9 1.5
v 3 9 1.5
v -3 9 -2.5
v -2 9 -2.5
v 2 9 -2.5
v 3 9 -2.5
v -3 9 -3.5
v -2 9 -3.5
v 2 9 -3.5
v 3 9 -3.5
v -2 4 3.5
v -1 4 3.5
v -2 4 2.5
v -1 4 2.5
v -3 6 2.5
v -2 6 2.5
v -1 6 2.5
v 0 6 2.5
v 1 6 2.5
v 2 6 2.5
v 3 6 2.5
v -3 6 1.5
v -2 6 1.5
v -1 6 1.5
v 0 6 1.5
v 1 6 1.5
v 2 6 1.5
v 3 6 1.5
v -4 6 0.5
v -3 6 0.5
v 3 6 0.5
v 4 6 0.5
v -4 6 -0.5
v -3 6 -0.5
v 3 6 -0.5
v 4 6 -0.5
v -3 6 -1.5
v -2 6 -1.5
v 2 6 -1.5
v 3 6 -1.5
v -3 6 -2.5
v -2 6 -2.5
v 2 6 -2.5
v 3 6 -2.5
v -2 6 -3.5
v 0 6 -3.5
v -2 6 -4.5
v 0 6 -4.5
v 2 6 -4.5
v -4 8 0.5
v -3 8 0.5
v 3 8 0.5
v 4 8 0.5
v -4 8 -0.5
v -3 8 -0.5
v 3 8 -0.5
v 4 8 -0.5
v -3 11 2.5
v -2 11 2.5
v 2 11 2.5
v 3 11 2.5
v -3 11 1.5
v -2 11 1.5
v 2 11 1.5
v 3 11 1.5
v -3 11 -2.5
v -2 11 -2.5
v 2 11 -2.5
v 3 11 -2.5
v -3 11 -3.5
v -2 11 -3.5
v 2 11 -3.5
v 3 11 -3.5
v -2 12 2.5
v 0 12 2.5
v 1 12 2.5
v 2 12 2.5
v -3 12 1.5
v -2 12 1.5
v -1 12 1.5
v 0 12 1.5
v 1 12 1.5
v 2 12 1.5
v 3 12 1.5
v -3 12 0.5
v -2 12 0.5
v -1 12 0.5
v 1 12 0.5
v 2 12 0.5
v -3 12 -0.5
v -2 12 -0.5
v -1 12 -0.5
v 0 12 -0.5
v 1 12 -0.5
v -2 12 -1.5
v -1 12 -1.5
v 0 12 -1.5
v 1 12 -1.5
v 2 12 -1.5
v 3 12 -1.5
v -3 12 -2.5
v -2 12 -2.5
v -1 12 -2.5
v 0 12 -2.5
v 2 12 -2.5
v 3 12 -2.5
v -2 12 -3.5
v -1 12 -3.5
v 2 12 -3.5

# faces
f 3/2/1 2/2/1 1/2/1
f 4/2/1 2/2/1 3/2/1
f 5/5/1 4/5/1 3/5/1
f 6/5/1 4/5/1 5/5/1
f 7/6/1 6/6/1 5/6/1
f 8/6/1 6/6/1 7/6/1
f 11/2/1 10/2/1 9/2/1
f 12/2/1 10/2/1 11/2/1
f 17/6/1 14/6/1 13/6/1
f 18/5/1 15/5/1 14/5/1
f 18/6/1 14/6/1 17/6/1
f 19/5/1 15/5/1 18/5/1
f 20/5/1 15/5/1 19/5/1
f 22/7/1 17/7/1 16/7/1
f 22/7/1 18/7/1 17/7/1
f 23/7/1 18/7/1 22/7/1
f 24/7/1 18/7/1 23/7/1
f 25/7/1 21/7/1 20/7/1
f 25/7/1 20/7/1 19/7/1
f 26/7/1 21/7/1 25/7/1
f 27/6/1 23/6/1 22/6/1
f 28/5/1 24/5/1 23/5/1
f 28/6/1 23/6/1 27/6/1
f 29/5/1 24/5/1 28/5/1
f 30/5/1 26/5/1 25/5/1
f 31/5/1 26/5/1 30/5/1
f 32/5/1 29/5/1 28/5/1
f 32/5/1 28/5/1 27/5/1
f 33/5/1 29/5/1 32/5/1
f 34/6/1 31/6/1 30/6/1
f 35/5/1 26/5/1 31/5/1
f 35/6/1 31/6/1 34/6/1
f 36/5/1 32/5/1 27/5/1
f 37/6/1 33/6/1 32/6/1
f 37/5/1 32/5/1 36/5/1
f 38/6/1 33/6/1 37/6/1
f 39/5/1 35/5/1 34/5/1
f 40/5/1 26/5/1 35/5/1
f 40/5/1 35/5/1 39/5/1
f 41/5/1 26/5/1 40/5/1
f 42/2/1 39/2/1 38/2/1
f 42/2/1 38/2/1 37/2/1
f 42/2/1 40/2/1 39/2/1
f 43/2/1 40/2/1 42/2/1
f 44/2/1 40/2/1 43/2/1
f 46/2/1 42/2/1 37/2/1
f 47/2/1 45/2/1 44/2/1
f 47/2/1 44/2/1 43/2/1
f 49/2/1 46/2/1 37/2/1
f 49/2/1 47/2/1 46/2/1
f 50/2/1 45/2/1 47/2/1
f 50/2/1 47/2/1 49/2/1
f 51/2/1 45/2/1 50/2/1
f 53/5/1 50/5/1 49/5/1
f 53/5/1 49/5/1 48/5/1
f 54/5/1 50/5/1 53/5/1
f 55/6/1 51/6/1 50/6/1
f 55/5/1 50/5/1 54/5/1
f 55/6/1 52/6/1 51/6/1
f 56/6/1 52/6/1 55/6/1
f 57/5/1 53/5/1 48/5/1
f 58/6/1 54/6/1 53/6/1
f 58/5/1 53/5/1 57/5/1
f 59/5/1 55/5/1 54/5/1
f 59/6/1 54/6/1 58/6/1
f 59/5/1 56/5/1 55/5/1
f 60/5/1 56/5/1 59/5/1
f 61/5/1 56/5/1 60/5/1
f 62/5/1 56/5/1 61/5/1
f 63/5/1 59/5/1 58/5/1
f 64/6/1 60/6/1 59/6/1
f 64/5/1 59/5/1 63/5/1
f 65/5/1 61/5/1 60/5/1
f 65/6/1 60/6/1 64/6/1
f 66/5/1 61/5/1 65/5/1
f 69/7/1 68/7/1 67/7/1
f 70/7/1 68/7/1 69/7/1
f 76/3/1 72/3/1 71/3/1
f 77/3/1 72/3/1 76/3/1
f 78/3/1 74/3/1 73/3/1
f 79/5/1 75/5/1 74/5/1
f 79/3/1 74/3/1 78/3/1
f 80/4/1 77/4/1 76/4/1
f 81/4/1 77/4/1 80/4/1
f 82/5/1 79/5/1 78/5/1
f 83/5/1 75/5/1 79/5/1
f 83/5/1 79/5/1 82/5/1
f 84/3/1 83/3/1 82/3/1
f 85/5/1 75/5/1 83/5/1
f 85/3/1 83/3/1 84/3/1
f 87/4/1 85/4/1 84/4/1
f 88/5/1 75/5/1 85/5/1
f 88/4/1 85/4/1 87/4/1
f 89/5/1 75/5/1 88/5/1
f 90/2/1 87/2/1 86/2/1
f 91/2/1 87/2/1 90/2/1
f 93/2/1 92/2/1 91/2/1
f 94/2/1 92/2/1 93/2/1
f 99/5/1 96/5/1 95/5/1
f 100/5/1 96/5/1 99/5/1
f 101/6/1 98/6/1 97/6/1
f 102/6/1 98/6/1 101/6/1
f 106/7/1 104/7/1 103/7/1
f 107/7/1 104/7/1 106/7/1
f 109/5/1 106/5/1 105/5/1
f 109/5/1 108/5/1 107/5/1
f 109/5/1 107/5/1 106/5/1
f 110/5/1 108/5/1 109/5/1
f 111/7/2 112/7/2 114/7/2
f 114/7/2 112/7/2 115/7/2
f 113/5/2 114/5/2 119/5/2
f 114/5/2 115/5/2 119/5/2
f 115/6/2 116/6/2 120/6/2
f 119/5/2 115/5/2 120/5/2
f 120/6/2 116/6/2 121/6/2
f 117/3/2 118/3/2 122/3/2
f 122/3/2 118/3/2 123/3/2
f 122/4/2 123/4/2 124/4/2
f 124/4/2 123/4/2 125/4/2
f 126/7/2 127/7/2 128/7/2
f 128/7/2 127/7/2 129/7/2
f 130/3/2 131/3/2 133/3/2
f 131/4/2 132/4/2 134/4/2
f 133/3/2 131/3/2 134/3/2
f 133/4/2 134/4/2 135/4/2
f 134/4/2 132/4/2 136/4/2
f 135/4/2 134/4/2 136/4/2
f 136/4/2 132/4/2 137/4/2
f 135/3/2 136/3/2 138/3/2
f 136/5/2 137/5/2 139/5/2
f 138/3/2 136/3/2 139/3/2
f 139/5/2 137/5/2 140/5/2
f 138/4/2 139/4/2 142/4/2
f 139/4/2 140/4/2 142/4/2
f 142/4/2 140/4/2 143/4/2
f 141/2/2 142/2/2 144/2/2
f 144/2/2 142/2/2 145/2/2
f 145/2/2 146/2/2 147/2/2
f 147/2/2 146/2/2 148/2/2
f 149/5/2 150/5/2 153/5/2
f 153/5/2 150/5/2 154/5/2
f 151/5/2 152/5/2 155/5/2
f 155/5/2 152/5/2 156/5/2
f 157/6/2 158/6/2 162/6/2
f 158/5/2 159/5/2 163/5/2
f 162/6/2 158/6/2 163/6/2
f 159/6/2 160/6/2 164/6/2
f 163/5/2 159/5/2 164/5/2
f 164/6/2 160/6/2 165/6/2
f 162/7/2 163/7/2 167/7/2
f 161/7/2 162/7/2 167/7/2
f 167/7/2 163/7/2 168/7/2
f 165/7/2 166/7/2 169/7/2
f 164/7/2 165/7/2 169/7/2
f 169/7/2 166/7/2 170/7/2
f 170/7/2 166/7/2 171/7/2
f 167/5/2 168/5/2 172/5/2
f 172/5/2 168/5/2 173/5/2
f 173/5/2 168/5/2 174/5/2
f 169/5/2 170/5/2 175/5/2
f 170/6/2 171/6/2 176/6/2
f 175/5/2 170/5/2 176/5/2
f 176/6/2 171/6/2 177/6/2
f 172/6/2 173/6/2 178/6/2
f 173/5/2 174/5/2 179/5/2
f 178/6/2 173/6/2 179/6/2
f 179/5/2 174/5/2 180/5/2
f 175/5/2 176/5/2 181/5/2
f 176/5/2 177/5/2 181/5/2
f 181/5/2 177/5/2 182/5/2
f 182/5/2 177/5/2 183/5/2
f 178/5/2 179/5/2 184/5/2
f 179/6/2 180/6/2 185/6/2
f 184/5/2 179/5/2 185/5/2
f 185/6/2 180/6/2 186/6/2
f 181/5/2 182/5/2 187/5/2
f 182/6/2 183/6/2 188/6/2
f 187/5/2 182/5/2 188/5/2
f 188/6/2 183/6/2 189/6/2
f 185/2/2 186/2/2 190/2/2
f 186/2/2 187/2/2 190/2/2
f 187/2/2 188/2/2 190/2/2
f 190/2/2 188/2/2 191/2/2
f 191/2/2 188/2/2 192/2/2
f 185/2/2 190/2/2 194/2/2
f 192/2/2 193/2/2 195/2/2
f 191/2/2 192/2/2 195/2/2
f 185/2/2 194/2/2 197/2/2
f 194/2/2 195/2/2 197/2/2
f 195/2/2 193/2/2 198/2/2
f 197/2/2 195/2/2 198/2/2
f 198/2/2 193/2/2 199/2/2
f 197/5/2 198/5/2 201/5/2
f 196/5/2 197/5/2 201/5/2
f 201/5/2 198/5/2 202/5/2
f 202/5/2 198/5/2 203/5/2
f 203/5/2 198/5/2 204/5/2
f 198/6/2 199/6/2 205/6/2
f 204/5/2 198/5/2 205/5/2
f 199/5/2 200/5/2 206/5/2
f 205/6/2 199/6/2 206/6/2
f 206/5/2 200/5/2 207/5/2
f 201/6/2 202/6/2 208/6/2
f 202/5/2 203/5/2 209/5/2
f 208/6/2 202/6/2 209/6/2
f 203/6/2 204/6/2 210/6/2
f 209/5/2 203/5/2 210/5/2
f 204/5/2 205/5/2 211/5/2
f 210/6/2 204/6/2 211/6/2
f 205/5/2 206/5/2 211/5/2
f 211/5/2 206/5/2 212/5/2
f 206/6/2 207/6/2 213/6/2
f 212/5/2 206/5/2 213/5/2
f 213/6/2 207/6/2 214/6/2
f 209/5/2 210/5/2 215/5/2
f 211/5/2 212/5/2 215/5/2
f 210/5/2 211/5/2 215/5/2
f 212/6/2 213/6/2 216/6/2
f 215/5/2 212/5/2 216/5/2
f 216/6/2 213/6/2 217/6/2
f 218/2/2 219/2/2 220/2/2
f 220/2/2 219/2/2 221/2/2
f 220/5/2 221/5/2 222/5/2
f 222/5/2 221/5/2 223/5/2
f 222/6/2 223/6/2 224/6/2
f 224/6/2 223/6/2 225/6/2
f 226/2/2 227/2/2 228/2/2
f 228/2/2 227/2/2 229/2/2
f 233/3/3 231/3/3 230/3/3
f 234/4/3 232/4/3 231/4/3
f 234/3/3 231/3/3 233/3/3
f 235/4/3 232/4/3 234/4/3
f 242/7/3 237/7/3 236/7/3
f 243/6/3 238/6/3 237/6/3
f 243/7/3 237/7/3 242/7/3
f 244/5/3 239/5/3 238/5/3
f 244/6/3 238/6/3 243/6/3
f 245/5/3 239/5/3 244/5/3
f 246/5/3 241/5/3 240/5/3
f 247/5/3 241/5/3 246/5/3
f 251/4/3 245/4/3 244/4/3
f 252/4/3 245/4/3 251/4/3
f 253/4/3 245/4/3 252/4/3
f 254/6/3 247/6/3 246/6/3
f 254/5/3 246/5/3 240/5/3
f 255/5/3 248/5/3 247/5/3
f 255/6/3 247/6/3 254/6/3
f 256/6/3 252/6/3 251/6/3
f 256/5/3 251/5/3 250/5/3
f 257/5/3 253/5/3 252/5/3
f 257/6/3 252/6/3 256/6/3
f 258/5/3 253/5/3 257/5/3
f 259/5/3 254/5/3 240/5/3
f 259/5/3 255/5/3 254/5/3
f 260/5/3 255/5/3 259/5/3
f 261/5/3 248/5/3 255/5/3
f 261/5/3 255/5/3 260/5/3
f 262/5/3 248/5/3 261/5/3
f 263/7/3 250/7/3 249/7/3
f 263/5/3 256/5/3 250/5/3
f 263/5/3 257/5/3 256/5/3
f 264/6/3 258/6/3 257/6/3
f 264/5/3 257/5/3 263/5/3
f 265/6/3 258/6/3 264/6/3
f 266/6/3 260/6/3 259/6/3
f 267/5/3 261/5/3 260/5/3
f 267/6/3 260/6/3 266/6/3
f 268/6/3 262/6/3 261/6/3
f 268/5/3 261/5/3 267/5/3
f 269/6/3 262/6/3 268/6/3
f 270/7/3 263/7/3 249/7/3
f 270/4/3 265/4/3 264/4/3
f 270/4/3 264/4/3 263/4/3
f 271/4/3 265/4/3 270/4/3
f 272/4/3 265/4/3 271/4/3
f 273/4/3 265/4/3 272/4/3
f 274/5/3 267/5/3 266/5/3
f 274/5/3 269/5/3 268/5/3
f 274/5/3 268/5/3 267/5/3
f 275/5/3 269/5/3 274/5/3
f 276/5/3 269/5/3 275/5/3
f 277/7/3 270/7/3 249/7/3
f 278/5/3 271/5/3 270/5/3
f 278/7/3 270/7/3 277/7/3
f 279/6/3 272/6/3 271/6/3
f 279/5/3 271/5/3 278/5/3
f 280/5/3 273/5/3 272/5/3
f 280/6/3 272/6/3 279/6/3
f 281/5/3 273/5/3 280/5/3
f 282/5/3 274/5/3 266/5/3
f 283/6/3 275/6/3 274/6/3
f 283/5/3 274/5/3 282/5/3
f 284/6/3 275/6/3 283/6/3
f 291/6/3 286/6/3 285/6/3
f 292/6/3 286/6/3 291/6/3
f 293/2/3 288/2/3 287/2/3
f 294/2/3 288/2/3 293/2/3
f 295/2/3 288/2/3 294/2/3
f 296/5/3 290/5/3 289/5/3
f 297/5/3 290/5/3 296/5/3
f 298/5/3 292/5/3 291/5/3
f 299/5/3 292/5/3 298/5/3
f 300/2/3 294/2/3 293/2/3
f 301/8/3 295/8/3 294/8/3
f 301/2/3 294/2/3 300/2/3
f 302/2/3 288/2/3 295/2/3
f 302/8/3 295/8/3 301/8/3
f 303/2/3 301/2/3 300/2/3
f 303/2/3 302/2/3 301/2/3
f 304/2/3 288/2/3 302/2/3
f 304/2/3 302/2/3 303/2/3
f 307/2/3 304/2/3 303/2/3
f 308/2/3 304/2/3 307/2/3
f 309/2/3 304/2/3 308/2/3
f 310/2/3 304/2/3 309/2/3
f 311/5/3 306/5/3 305/5/3
f 312/5/3 306/5/3 311/5/3
f 313/2/3 308/2/3 307/2/3
f 314/8/3 309/8/3 308/8/3
f 314/2/3 308/2/3 313/2/3
f 315/2/3 310/2/3 309/2/3
f 315/8/3 309/8/3 314/8/3
f 318/6/3 312/6/3 311/6/3
f 319/6/3 312/6/3 318/6/3
f 320/2/3 315/2/3 314/2/3
f 320/2/3 314/2/3 313/2/3
f 321/2/3 310/2/3 315/2/3
f 321/2/3 315/2/3 320/2/3
f 322/5/3 317/5/3 316/5/3
f 323/5/3 317/5/3 322/5/3
f 330/2/3 325/2/3 324/2/3
f 331/2/3 325/2/3 330/2/3
f 332/5/3 326/5/3 325/5/3
f 332/2/3 325/2/3 331/2/3
f 333/6/3 327/6/3 326/6/3
f 333/5/3 326/5/3 332/5/3
f 334/6/3 327/6/3 333/6/3
f 335/2/3 329/2/3 328/2/3
f 336/2/3 329/2/3 335/2/3
f 339/7/3 338/7/3 337/7/3
f 340/7/3 338/7/3 339/7/3
f 343/7/3 342/7/3 341/7/3
f 344/7/3 342/7/3 343/7/3
f 352/2/3 346/2/3 345/2/3
f 352/2/3 347/2/3 346/2/3
f 353/5/3 348/5/3 347/5/3
f 353/2/3 347/2/3 352/2/3
f 354/6/3 349/6/3 348/6/3
f 354/5/3 348/5/3 353/5/3
f 355/6/3 349/6/3 354/6/3
f 356/2/3 351/2/3 350/2/3
f 357/2/3 351/2/3 356/2/3
f 358/2/4 359/2/4 364/2/4
f 364/2/4 359/2/4 365/2/4
f 359/5/4 360/5/4 366/5/4
f 365/2/4 359/2/4 366/2/4
f 360/6/4 361/6/4 367/6/4
f 366/5/4 360/5/4 367/5/4
f 367/6/4 361/6/4 368/6/4
f 362/2/4 363/2/4 369/2/4
f 369/2/4 363/2/4 370/2/4
f 371/7/4 372/7/4 373/7/4
f 373/7/4 372/7/4 374/7/4
f 375/7/4 376/7/4 377/7/4
f 377/7/4 376/7/4 378/7/4
f 379/2/4 380/2/4 386/2/4
f 380/2/4 381/2/4 386/2/4
f 381/5/4 382/5/4 387/5/4
f 386/2/4 381/2/4 387/2/4
f 382/6/4 383/6/4 388/6/4
f 387/5/4 382/5/4 388/5/4
f 388/6/4 383/6/4 389/6/4
f 384/2/4 385/2/4 390/2/4
f 390/2/4 385/2/4 391/2/4
f 392/5/4 393/5/4 396/5/4
f 396/5/4 393/5/4 397/5/4
f 394/2/4 395/2/4 398/2/4
f 398/2/4 395/2/4 399/2/4
f 396/6/4 397/6/4 400/6/4
f 400/6/4 397/6/4 401/6/4
f 402/5/4 403/5/4 404/5/4
f 404/5/4 403/5/4 405/5/4
f 404/6/4 405/6/4 408/6/4
f 408/6/4 405/6/4 409/6/4
f 406/2/4 407/2/4 410/2/4
f 410/2/4 407/2/4 411/2/4
f 412/7/4 413/7/4 419/7/4
f 413/5/4 414/5/4 420/5/4
f 419/7/4 413/7/4 420/7/4
f 420/5/4 414/5/4 421/5/4
f 421/5/4 414/5/4 422/5/4
f 422/5/4 414/5/4 423/5/4
f 415/2/4 416/2/4 424/2/4
f 424/2/4 416/2/4 425/2/4
f 417/5/4 418/5/4 426/5/4
f 426/5/4 418/5/4 427/5/4
f 423/2/4 424/2/4 432/2/4
f 432/2/4 424/2/4 433/2/4
f 428/7/4 429/7/4 437/7/4
f 429/6/4 430/6/4 438/6/4
f 437/7/4 429/7/4 438/7/4
f 430/5/4 431/5/4 439/5/4
f 438/6/4 430/6/4 439/6/4
f 431/6/4 432/6/4 440/6/4
f 439/5/4 431/5/4 440/5/4
f 440/6/4 432/6/4 441/6/4
f 433/2/4 434/2/4 442/2/4
f 442/2/4 434/2/4 443/2/4
f 435/6/4 436/6/4 444/6/4
f 444/6/4 436/6/4 445/6/4
f 446/6/4 447/6/4 450/6/4
f 447/5/4 448/5/4 451/5/4
f 450/6/4 447/6/4 451/6/4
f 451/5/4 448/5/4 452/5/4
f 450/5/4 451/5/4 454/5/4
f 452/6/4 453/6/4 454/6/4
f 451/5/4 452/5/4 454/5/4
f 454/6/4 453/6/4 455/6/4
f 450/5/4 454/5/4 456/5/4
f 454/5/4 455/5/4 456/5/4
f 456/5/4 455/5/4 457/5/4
f 450/5/4 456/5/4 458/5/4
f 456/6/4 457/6/4 458/6/4
f 457/5/4 455/5/4 459/5/4
f 458/6/4 457/6/4 459/6/4
f 449/2/4 450/2/4 460/2/4
f 450/5/4 458/5/4 461/5/4
f 460/2/4 450/2/4 461/2/4
f 458/5/4 459/5/4 461/5/4
f 461/5/4 459/5/4 462/5/4
f 459/5/4 455/5/4 463/5/4
f 462/5/4 459/5/4 463/5/4
f 463/5/4 455/5/4 464/5/4
f 461/5/4 462/5/4 465/5/4
f 462/6/4 463/6/4 466/6/4
f 465/5/4 462/5/4 466/5/4
f 466/6/4 463/6/4 467/6/4
f 468/5/4 469/5/4 470/5/4
f 470/5/4 469/5/4 471/5/4
f 471/5/4 469/5/4 472/5/4
f 472/5/4 469/5/4 473/5/4
f 470/3/4 471/3/4 474/3/4
f 471/4/4 472/4/4 475/4/4
f 474/3/4 471/3/4 475/3/4
f 472/3/4 473/3/4 476/3/4
f 475/4/4 472/4/4 476/4/4
f 473/5/4 469/5/4 477/5/4
f 476/3/4 473/3/4 477/3/4
f 477/5/4 469/5/4 478/5/4
f 475/5/4 476/5/4 479/5/4
f 474/4/4 475/4/4 479/4/4
f 476/3/4 477/3/4 480/3/4
f 479/5/4 476/5/4 480/5/4
f 477/4/4 478/4/4 481/4/4
f 480/3/4 477/3/4 481/3/4
f 479/4/4 480/4/4 482/4/4
f 474/4/4 479/4/4 482/4/4
f 480/5/4 481/5/4 483/5/4
f 482/4/4 480/4/4 483/4/4
f 481/4/4 478/4/4 484/4/4
f 483/5/4 481/5/4 484/5/4
f 484/4/4 478/4/4 485/4/4
f 490/7/5 487/7/5 486/7/5
f 491/7/5 487/7/5 490/7/5
f 492/7/5 489/7/5 488/7/5
f 493/7/5 489/7/5 492/7/5
f 500/6/5 495/6/5 494/6/5
f 501/5/5 496/5/5 495/5/5
f 501/6/5 495/6/5 500/6/5
f 502/5/5 496/5/5 501/5/5
f 503/5/5 498/5/5 497/5/5
f 504/6/5 499/6/5 498/6/5
f 504/5/5 498/5/5 503/5/5
f 505/6/5 499/6/5 504/6/5
f 506/5/5 501/5/5 500/5/5
f 509/5/5 505/5/5 504/5/5
f 510/5/5 505/5/5 509/5/5
f 511/5/5 506/5/5 500/5/5
f 512/6/5 507/6/5 506/6/5
f 512/5/5 506/5/5 511/5/5
f 513/6/5 507/6/5 512/6/5
f 514/5/5 509/5/5 508/5/5
f 515/6/5 510/6/5 509/6/5
f 515/5/5 509/5/5 514/5/5
f 516/6/5 510/6/5 515/6/5
f 520/3/5 518/3/5 517/3/5
f 521/3/5 518/3/5 520/3/5
f 523/7/5 520/7/5 519/7/5
f 523/7/5 522/7/5 521/7/5
f 523/7/5 521/7/5 520/7/5
f 524/7/5 522/7/5 523/7/5
f 525/7/5 522/7/5 524/7/5
f 526/7/5 522/7/5 525/7/5
f 527/7/5 522/7/5 526/7/5
f 528/7/5 522/7/5 527/7/5
f 533/2/5 530/2/5 529/2/5
f 534/2/5 530/2/5 533/2/5
f 535/5/5 526/5/5 525/5/5
f 536/2/5 532/2/5 531/2/5
f 537/2/5 532/2/5 536/2/5
f 540/5/5 526/5/5 535/5/5
f 541/5/5 526/5/5 540/5/5
f 544/7/5 539/7/5 538/7/5
f 544/7/5 543/7/5 542/7/5
f 544/7/5 542/7/5 541/7/5
f 544/7/5 541/7/5 540/7/5
f 544/7/5 540/7/5 539/7/5
f 545/7/5 543/7/5 544/7/5
f 546/7/5 543/7/5 545/7/5
f 547/7/5 543/7/5 546/7/5
f 548/3/5 546/3/5 545/3/5
f 549/3/5 546/3/5 548/3/5
f 550/3/5 546/3/5 549/3/5
f 551/3/5 546/3/5 550/3/5
f 552/5/5 549/5/5 548/5/5
f 553/3/5 550/3/5 549/3/5
f 553/5/5 549/5/5 552/5/5
f 554/4/5 551/4/5 550/4/5
f 554/3/5 550/3/5 553/3/5
f 555/4/5 551/4/5 554/4/5
f 560/2/5 557/2/5 556/2/5
f 561/2/5 557/2/5 560/2/5
f 562/2/5 559/2/5 558/2/5
f 563/2/5 559/2/5 562/2/5
f 568/2/5 565/2/5 564/2/5
f 569/2/5 565/2/5 568/2/5
f 570/2/5 567/2/5 566/2/5
f 571/2/5 567/2/5 570/2/5
f 572/2/5 570/2/5 569/2/5
f 573/2/5 570/2/5 572/2/5
f 578/5/5 575/5/5 574/5/5
f 579/6/5 576/6/5 575/6/5
f 579/5/5 575/5/5 578/5/5
f 580/5/5 577/5/5 576/5/5
f 580/6/5 576/6/5 579/6/5
f 581/5/5 577/5/5 580/5/5
f 586/6/5 583/6/5 582/6/5
f 587/6/5 583/6/5 586/6/5
f 588/5/5 585/5/5 584/5/5
f 589/5/5 585/5/5 588/5/5
f 590/4/6 591/4/6 592/4/6
f 592/4/6 591/4/6 593/4/6
f 594/5/6 595/5/6 601/5/6
f 595/4/6 596/4/6 602/4/6
f 601/5/6 595/5/6 602/5/6
f 596/5/6 597/5/6 603/5/6
f 602/4/6 596/4/6 603/4/6
f 597/6/6 598/6/6 604/6/6
f 603/5/6 597/5/6 604/5/6
f 598/4/6 599/4/6 605/4/6
f 604/6/6 598/6/6 605/6/6
f 599/5/6 600/5/6 606/5/6
f 605/4/6 599/4/6 606/4/6
f 606/5/6 600/5/6 607/5/6
f 608/6/6 609/6/6 612/6/6
f 612/6/6 609/6/6 613/6/6
f 610/6/6 611/6/6 614/6/6
f 614/6/6 611/6/6 615/6/6
f 616/5/6 617/5/6 620/5/6
f 620/5/6 617/5/6 621/5/6
f 618/6/6 619/6/6 622/6/6
f 622/6/6 619/6/6 623/6/6
f 621/4/6 622/4/6 624/4/6
f 624/4/6 622/4/6 625/4/6
f 624/5/6 625/5/6 626/5/6
f 625/4/6 622/4/6 627/4/6
f 626/5/6 625/5/6 627/5/6
f 627/4/6 622/4/6 628/4/6
f 629/2/6 630/2/6 633/2/6
f 633/2/6 630/2/6 634/2/6
f 631/2/6 632/2/6 635/2/6
f 635/2/6 632/2/6 636/2/6
f 637/5/6 638/5/6 641/5/6
f 641/5/6 638/5/6 642/5/6
f 639/6/6 640/6/6 643/6/6
f 643/6/6 640/6/6 644/6/6
f 645/5/6 646/5/6 649/5/6
f 649/5/6 646/5/6 650/5/6
f 647/6/6 648/6/6 651/6/6
f 651/6/6 648/6/6 652/6/6
f 653/5/6 654/5/6 658/5/6
f 658/5/6 654/5/6 659/5/6
f 654/6/6 655/6/6 660/6/6
f 659/5/6 654/5/6 660/5/6
f 655/5/6 656/5/6 661/5/6
f 660/6/6 655/6/6 661/6/6
f 661/5/6 656/5/6 662/5/6
f 657/5/6 658/5/6 664/5/6
f 658/6/6 659/6/6 665/6/6
f 664/5/6 658/5/6 665/5/6
f 659/5/6 660/5/6 666/5/6
f 665/6/6 659/6/6 666/6/6
f 660/5/6 661/5/6 666/5/6
f 661/6/6 662/6/6 667/6/6
f 666/5/6 661/5/6 667/5/6
f 662/5/6 663/5/6 668/5/6
f 667/6/6 662/6/6 668/6/6
f 664/6/6 665/6/6 669/6/6
f 666/5/6 667/5/6 670/5/6
f 669/6/6 665/6/6 670/6/6
f 665/5/6 666/5/6 670/5/6
f 667/5/6 668/5/6 670/5/6
f 670/5/6 668/5/6 671/5/6
f 671/5/6 668/5/6 672/5/6
f 672/5/6 668/5/6 673/5/6
f 669/5/6 670/5/6 674/5/6
f 670/6/6 671/6/6 674/6/6
f 671/5/6 672/5/6 675/5/6
f 674/6/6 671/6/6 675/6/6
f 672/6/6 673/6/6 676/6/6
f 675/5/6 672/5/6 676/5/6
f 673/5/6 668/5/6 677/5/6
f 676/6/6 673/6/6 677/6/6
f 668/5/6 663/5/6 678/5/6
f 677/5/6 668/5/6 678/5/6
f 678/5/6 663/5/6 679/5/6
f 674/5/6 675/5/6 680/5/6
f 669/5/6 674/5/6 680/5/6
f 680/5/6 675/5/6 681/5/6
f 675/6/6 676/6/6 682/6/6
f 681/5/6 675/5/6 682/5/6
f 676/5/6 677/5/6 683/5/6
f 682/6/6 676/6/6 683/6/6
f 677/5/6 678/5/6 683/5/6
f 678/6/6 679/6/6 684/6/6
f 683/5/6 678/5/6 684/5/6
f 684/6/6 679/6/6 685/6/6
f 681/6/6 682/6/6 686/6/6
f 683/5/6 684/5/6 687/5/6
f 686/6/6 682/6/6 687/6/6
f 682/5/6 683/5/6 687/5/6
f 687/5/6 684/5/6 688/5/6
