# MagicaVoxel @ Ephtracy

# material
mtllib chr_naked4.mtl
usemtl palette

# normals
vn -1 0 0
vn 1 0 0
vn 0 0 1
vn 0 0 -1
vn 0 -1 0
vn 0 1 0

# texcoords
vt 0.373047 0.5
vt 0.990234 0.5

# verts
v -5 7 -0
v -5 7 -1
v -5 8 1
v -5 8 -0
v -5 9 2
v -5 9 1
v -5 10 2
v -5 10 -1
v -4 2 1
v -4 2 -0
v -4 6 1
v -4 6 -0
v -4 7 1
v -4 7 -0
v -4 7 -1
v -4 7 -3
v -4 8 1
v -4 8 -0
v -4 10 2
v -4 10 -1
v -4 11 2
v -4 11 -3
v -3 1 2
v -3 1 -1
v -3 2 3
v -3 2 2
v -3 2 1
v -3 2 -0
v -3 2 -1
v -3 2 -2
v -3 6 3
v -3 6 2
v -3 6 1
v -3 6 -0
v -3 6 -1
v -3 6 -2
v -3 7 1
v -3 7 -0
v -3 7 -1
v -3 8 1
v -3 9 2
v -3 9 1
v -3 11 2
v -3 11 -2
v -3 12 2
v -3 12 -2
v -2 0 1
v -2 0 -0
v -2 1 1
v -2 1 -0
v -2 6 -1
v -2 6 -2
v -2 7 -1
v -2 7 -2
v -2 7 -3
v -2 7 -4
v -2 11 -3
v -2 11 -4
v -1 2 4
v -1 2 3
v -1 3 4
v -1 3 3
v 0 1 4
v 0 1 3
v 0 2 4
v 0 2 3
v 1 0 1
v 1 0 -0
v 1 1 2
v 1 1 1
v 1 1 -0
v 1 1 -1
v 1 2 2
v 1 2 -1
v -1 0 1
v -1 0 -0
v -1 1 2
v -1 1 1
v -1 1 -0
v -1 1 -1
v -1 2 2
v -1 2 -1
v 1 1 4
v 1 1 3
v 1 2 3
v 1 3 4
v 1 3 3
v 2 0 1
v 2 0 -0
v 2 1 1
v 2 1 -0
v 2 6 -1
v 2 6 -2
v 2 7 -1
v 2 7 -2
v 2 7 -3
v 2 7 -4
v 2 10 -2
v 2 10 -3
v 2 11 -2
v 2 11 -4
v 3 1 2
v 3 1 -1
v 3 2 3
v 3 2 2
v 3 2 1
v 3 2 -0
v 3 2 -1
v 3 2 -2
v 3 6 3
v 3 6 2
v 3 6 1
v 3 6 -0
v 3 6 -1
v 3 6 -2
v 3 7 1
v 3 7 -0
v 3 7 -1
v 3 8 1
v 3 9 2
v 3 9 1
v 3 11 2
v 3 11 -2
v 3 12 2
v 3 12 -2
v 4 2 1
v 4 2 -0
v 4 6 1
v 4 6 -0
v 4 7 1
v 4 7 -0
v 4 7 -1
v 4 7 -3
v 4 8 1
v 4 8 -0
v 4 10 2
v 4 10 -1
v 4 10 -2
v 4 10 -3
v 4 11 2
v 4 11 -2
v 5 7 -0
v 5 7 -1
v 5 8 1
v 5 8 -0
v 5 9 2
v 5 9 1
v 5 10 2
v 5 10 -1
v -1 2 4
v -1 3 4
v 0 1 4
v 0 2 4
v 1 1 4
v 1 3 4
v -3 2 3
v -3 6 3
v -1 2 3
v -1 3 3
v -1 4 3
v 1 2 3
v 1 3 3
v 1 4 3
v 3 2 3
v 3 6 3
v -5 9 2
v -5 10 2
v -4 10 2
v -4 11 2
v -3 1 2
v -3 2 2
v -3 6 2
v -3 9 2
v -3 10 2
v -3 11 2
v -3 12 2
v -2 7 2
v -2 8 2
v -1 1 2
v -1 2 2
v -1 7 2
v -1 8 2
v 1 1 2
v 1 2 2
v 1 7 2
v 1 8 2
v 2 7 2
v 2 8 2
v 3 1 2
v 3 2 2
v 3 6 2
v 3 9 2
v 3 10 2
v 3 11 2
v 3 12 2
v 4 10 2
v 4 11 2
v 5 9 2
v 5 10 2
v -5 8 1
v -5 9 1
v -4 2 1
v -4 6 1
v -4 7 1
v -4 8 1
v -3 2 1
v -3 6 1
v -3 7 1
v -3 8 1
v -3 9 1
v -2 0 1
v -2 1 1
v -1 0 1
v -1 1 1
v 1 0 1
v 1 1 1
v 2 0 1
v 2 1 1
v 3 2 1
v 3 6 1
v 3 7 1
v 3 8 1
v 3 9 1
v 4 2 1
v 4 6 1
v 4 7 1
v 4 8 1
v 5 8 1
v 5 9 1
v -5 7 -0
v -5 8 -0
v -4 7 -0
v -4 8 -0
v 4 7 -0
v 4 8 -0
v 5 7 -0
v 5 8 -0
v 0 1 3
v 0 2 3
v 1 1 3
v 1 2 3
v -4 2 -0
v -4 6 -0
v -3 2 -0
v -3 6 -0
v -2 0 -0
v -2 1 -0
v -1 0 -0
v -1 1 -0
v 1 0 -0
v 1 1 -0
v 2 0 -0
v 2 1 -0
v 3 2 -0
v 3 6 -0
v 4 2 -0
v 4 6 -0
v -5 7 -1
v -5 10 -1
v -4 7 -1
v -4 10 -1
v -3 1 -1
v -3 2 -1
v -3 6 -1
v -3 7 -1
v -2 6 -1
v -2 7 -1
v -1 1 -1
v -1 2 -1
v 1 1 -1
v 1 2 -1
v 2 6 -1
v 2 7 -1
v 3 1 -1
v 3 2 -1
v 3 6 -1
v 3 7 -1
v 4 7 -1
v 4 10 -1
v 5 7 -1
v 5 10 -1
v -3 2 -2
v -3 6 -2
v -3 11 -2
v -3 12 -2
v -2 6 -2
v -2 7 -2
v 2 6 -2
v 2 7 -2
v 2 10 -2
v 2 11 -2
v 3 2 -2
v 3 6 -2
v 3 11 -2
v 3 12 -2
v 4 10 -2
v 4 11 -2
v -4 7 -3
v -4 11 -3
v -2 7 -3
v -2 11 -3
v 2 7 -3
v 2 10 -3
v 4 7 -3
v 4 10 -3
v -2 7 -4
v -2 11 -4
v 2 7 -4
v 2 11 -4
v -2 0 1
v -1 0 1
v 1 0 1
v 2 0 1
v -2 0 -0
v -1 0 -0
v 1 0 -0
v 2 0 -0
v 0 1 4
v 1 1 4
v 0 1 3
v 1 1 3
v -3 1 2
v -1 1 2
v 1 1 2
v 3 1 2
v -2 1 1
v -1 1 1
v 1 1 1
v 2 1 1
v -2 1 -0
v -1 1 -0
v 1 1 -0
v 2 1 -0
v -3 1 -1
v -1 1 -1
v 1 1 -1
v 3 1 -1
v -1 2 4
v 0 2 4
v -3 2 3
v -1 2 3
v 0 2 3
v 1 2 3
v 3 2 3
v -3 2 2
v -1 2 2
v 1 2 2
v 3 2 2
v -4 2 1
v -3 2 1
v 3 2 1
v 4 2 1
v -4 2 -0
v -3 2 -0
v 3 2 -0
v 4 2 -0
v -3 2 -1
v -1 2 -1
v 1 2 -1
v 3 2 -1
v -3 2 -2
v 3 2 -2
v -4 7 1
v -3 7 1
v 3 7 1
v 4 7 1
v -5 7 -0
v -4 7 -0
v -3 7 -0
v 3 7 -0
v 4 7 -0
v 5 7 -0
v -5 7 -1
v -4 7 -1
v -3 7 -1
v -2 7 -1
v 2 7 -1
v 3 7 -1
v 4 7 -1
v 5 7 -1
v -2 7 -2
v 2 7 -2
v -4 7 -3
v -2 7 -3
v 2 7 -3
v 4 7 -3
v -2 7 -4
v 2 7 -4
v -5 8 1
v -4 8 1
v 4 8 1
v 5 8 1
v -5 8 -0
v -4 8 -0
v 4 8 -0
v 5 8 -0
v -5 9 2
v -3 9 2
v 3 9 2
v 5 9 2
v -5 9 1
v -3 9 1
v 3 9 1
v 5 9 1
v -1 3 4
v 1 3 4
v -1 3 3
v 1 3 3
v -3 6 3
v 3 6 3
v -3 6 2
v 3 6 2
v -4 6 1
v -3 6 1
v 3 6 1
v 4 6 1
v -4 6 -0
v -3 6 -0
v 3 6 -0
v 4 6 -0
v -3 6 -1
v -2 6 -1
v 2 6 -1
v 3 6 -1
v -3 6 -2
v -2 6 -2
v 2 6 -2
v 3 6 -2
v -5 10 2
v -4 10 2
v 4 10 2
v 5 10 2
v -5 10 -1
v -4 10 -1
v 4 10 -1
v 5 10 -1
v 2 10 -2
v 4 10 -2
v 2 10 -3
v 4 10 -3
v -4 11 2
v -3 11 2
v 3 11 2
v 4 11 2
v -3 11 -2
v 2 11 -2
v 3 11 -2
v 4 11 -2
v -4 11 -3
v -2 11 -3
v -2 11 -4
v 2 11 -4
v -3 12 2
v 3 12 2
v -3 12 -2
v 3 12 -2

# faces
f 4/2/1 2/2/1 1/2/1
f 6/2/1 4/2/1 3/2/1
f 7/2/1 6/2/1 5/2/1
f 8/2/1 2/2/1 4/2/1
f 8/2/1 6/2/1 7/2/1
f 8/2/1 4/2/1 6/2/1
f 11/1/1 10/1/1 9/1/1
f 12/1/1 10/1/1 11/1/1
f 17/1/1 14/1/1 13/1/1
f 18/1/1 14/1/1 17/1/1
f 20/2/1 16/2/1 15/2/1
f 21/2/1 20/2/1 19/2/1
f 22/2/1 16/2/1 20/2/1
f 22/2/1 20/2/1 21/2/1
f 26/1/1 24/1/1 23/1/1
f 27/1/1 24/1/1 26/1/1
f 28/1/1 24/1/1 27/1/1
f 29/1/1 24/1/1 28/1/1
f 31/1/1 26/1/1 25/1/1
f 31/1/1 27/1/1 26/1/1
f 32/1/1 27/1/1 31/1/1
f 33/1/1 27/1/1 32/1/1
f 34/1/1 30/1/1 29/1/1
f 34/1/1 29/1/1 28/1/1
f 35/1/1 30/1/1 34/1/1
f 36/1/1 30/1/1 35/1/1
f 37/1/1 33/1/1 32/1/1
f 37/1/1 35/1/1 34/1/1
f 37/1/1 34/1/1 33/1/1
f 38/1/1 35/1/1 37/1/1
f 39/1/1 35/1/1 38/1/1
f 40/1/1 37/1/1 32/1/1
f 41/1/1 40/1/1 32/1/1
f 42/1/1 40/1/1 41/1/1
f 45/2/1 44/2/1 43/2/1
f 46/2/1 44/2/1 45/2/1
f 49/1/1 48/1/1 47/1/1
f 50/1/1 48/1/1 49/1/1
f 53/1/1 52/1/1 51/1/1
f 54/1/1 52/1/1 53/1/1
f 57/2/1 56/2/1 55/2/1
f 58/2/1 56/2/1 57/2/1
f 61/1/1 60/1/1 59/1/1
f 62/1/1 60/1/1 61/1/1
f 65/1/1 64/1/1 63/1/1
f 66/1/1 64/1/1 65/1/1
f 70/1/1 68/1/1 67/1/1
f 71/1/1 68/1/1 70/1/1
f 73/1/1 70/1/1 69/1/1
f 73/1/1 72/1/1 71/1/1
f 73/1/1 71/1/1 70/1/1
f 74/1/1 72/1/1 73/1/1
f 75/1/2 76/1/2 78/1/2
f 78/1/2 76/1/2 79/1/2
f 77/1/2 78/1/2 81/1/2
f 79/1/2 80/1/2 81/1/2
f 78/1/2 79/1/2 81/1/2
f 81/1/2 80/1/2 82/1/2
f 83/1/2 84/1/2 85/1/2
f 83/1/2 85/1/2 86/1/2
f 86/1/2 85/1/2 87/1/2
f 88/1/2 89/1/2 90/1/2
f 90/1/2 89/1/2 91/1/2
f 92/1/2 93/1/2 94/1/2
f 94/1/2 93/1/2 95/1/2
f 96/2/2 97/2/2 99/2/2
f 98/2/2 99/2/2 100/2/2
f 99/2/2 97/2/2 101/2/2
f 100/2/2 99/2/2 101/2/2
f 102/1/2 103/1/2 105/1/2
f 105/1/2 103/1/2 106/1/2
f 106/1/2 103/1/2 107/1/2
f 107/1/2 103/1/2 108/1/2
f 104/1/2 105/1/2 110/1/2
f 105/1/2 106/1/2 110/1/2
f 110/1/2 106/1/2 111/1/2
f 111/1/2 106/1/2 112/1/2
f 108/1/2 109/1/2 113/1/2
f 107/1/2 108/1/2 113/1/2
f 113/1/2 109/1/2 114/1/2
f 114/1/2 109/1/2 115/1/2
f 111/1/2 112/1/2 116/1/2
f 113/1/2 114/1/2 116/1/2
f 112/1/2 113/1/2 116/1/2
f 116/1/2 114/1/2 117/1/2
f 117/1/2 114/1/2 118/1/2
f 111/1/2 116/1/2 119/1/2
f 111/1/2 119/1/2 120/1/2
f 120/1/2 119/1/2 121/1/2
f 122/2/2 123/2/2 124/2/2
f 124/2/2 123/2/2 125/2/2
f 126/1/2 127/1/2 128/1/2
f 128/1/2 127/1/2 129/1/2
f 130/1/2 131/1/2 134/1/2
f 134/1/2 131/1/2 135/1/2
f 132/2/2 133/2/2 137/2/2
f 137/2/2 133/2/2 138/2/2
f 138/2/2 133/2/2 139/2/2
f 136/2/2 137/2/2 140/2/2
f 137/2/2 138/2/2 140/2/2
f 140/2/2 138/2/2 141/2/2
f 142/2/2 143/2/2 145/2/2
f 144/2/2 145/2/2 147/2/2
f 146/2/2 147/2/2 148/2/2
f 145/2/2 143/2/2 149/2/2
f 148/2/2 147/2/2 149/2/2
f 147/2/2 145/2/2 149/2/2
f 153/1/3 151/1/3 150/1/3
f 154/1/3 153/1/3 152/1/3
f 155/1/3 151/1/3 153/1/3
f 155/1/3 153/1/3 154/1/3
f 158/1/3 157/1/3 156/1/3
f 159/1/3 157/1/3 158/1/3
f 160/1/3 157/1/3 159/1/3
f 162/2/3 160/2/3 159/2/3
f 163/1/3 157/1/3 160/1/3
f 163/2/3 160/2/3 162/2/3
f 164/1/3 162/1/3 161/1/3
f 164/1/3 163/1/3 162/1/3
f 165/1/3 157/1/3 163/1/3
f 165/1/3 163/1/3 164/1/3
f 168/2/3 167/2/3 166/2/3
f 173/2/3 168/2/3 166/2/3
f 173/2/3 169/2/3 168/2/3
f 174/2/3 169/2/3 173/2/3
f 175/2/3 169/2/3 174/2/3
f 177/1/3 173/1/3 172/1/3
f 177/1/3 174/1/3 173/1/3
f 178/1/3 174/1/3 177/1/3
f 179/1/3 171/1/3 170/1/3
f 180/1/3 171/1/3 179/1/3
f 181/1/3 177/1/3 172/1/3
f 181/2/3 178/2/3 177/2/3
f 182/1/3 174/1/3 178/1/3
f 182/2/3 178/2/3 181/2/3
f 185/1/3 181/1/3 172/1/3
f 185/1/3 182/1/3 181/1/3
f 186/1/3 174/1/3 182/1/3
f 186/1/3 182/1/3 185/1/3
f 187/1/3 185/1/3 172/1/3
f 187/2/3 186/2/3 185/2/3
f 188/1/3 174/1/3 186/1/3
f 188/2/3 186/2/3 187/2/3
f 189/1/3 184/1/3 183/1/3
f 190/1/3 184/1/3 189/1/3
f 191/1/3 187/1/3 172/1/3
f 191/1/3 188/1/3 187/1/3
f 192/1/3 174/1/3 188/1/3
f 192/1/3 188/1/3 191/1/3
f 193/2/3 176/2/3 175/2/3
f 193/1/3 174/1/3 192/1/3
f 193/2/3 175/2/3 174/2/3
f 194/2/3 176/2/3 193/2/3
f 195/2/3 176/2/3 194/2/3
f 196/2/3 194/2/3 193/2/3
f 196/2/3 193/2/3 192/2/3
f 197/2/3 194/2/3 196/2/3
f 198/2/3 196/2/3 192/2/3
f 199/2/3 196/2/3 198/2/3
f 205/2/3 201/2/3 200/2/3
f 206/1/3 203/1/3 202/1/3
f 207/1/3 203/1/3 206/1/3
f 208/1/3 205/1/3 204/1/3
f 209/2/3 201/2/3 205/2/3
f 209/1/3 205/1/3 208/1/3
f 210/2/3 201/2/3 209/2/3
f 213/1/3 212/1/3 211/1/3
f 214/1/3 212/1/3 213/1/3
f 217/1/3 216/1/3 215/1/3
f 218/1/3 216/1/3 217/1/3
f 224/1/3 220/1/3 219/1/3
f 225/1/3 220/1/3 224/1/3
f 226/1/3 222/1/3 221/1/3
f 227/2/3 223/2/3 222/2/3
f 227/1/3 222/1/3 226/1/3
f 228/2/3 223/2/3 227/2/3
f 229/2/3 223/2/3 228/2/3
f 232/2/3 231/2/3 230/2/3
f 233/2/3 231/2/3 232/2/3
f 236/2/3 235/2/3 234/2/3
f 237/2/3 235/2/3 236/2/3
f 238/1/4 239/1/4 240/1/4
f 240/1/4 239/1/4 241/1/4
f 242/1/4 243/1/4 244/1/4
f 244/1/4 243/1/4 245/1/4
f 246/1/4 247/1/4 248/1/4
f 248/1/4 247/1/4 249/1/4
f 250/1/4 251/1/4 252/1/4
f 252/1/4 251/1/4 253/1/4
f 254/1/4 255/1/4 256/1/4
f 256/1/4 255/1/4 257/1/4
f 258/2/4 259/2/4 260/2/4
f 260/2/4 259/2/4 261/2/4
f 264/1/4 265/1/4 266/1/4
f 266/1/4 265/1/4 267/1/4
f 262/1/4 263/1/4 268/1/4
f 268/1/4 263/1/4 269/1/4
f 270/1/4 271/1/4 274/1/4
f 274/1/4 271/1/4 275/1/4
f 272/1/4 273/1/4 276/1/4
f 276/1/4 273/1/4 277/1/4
f 278/2/4 279/2/4 280/2/4
f 280/2/4 279/2/4 281/2/4
f 282/1/4 283/1/4 286/1/4
f 282/1/4 286/1/4 288/1/4
f 286/1/4 287/1/4 288/1/4
f 288/1/4 287/1/4 289/1/4
f 284/2/4 285/2/4 291/2/4
f 282/1/4 288/1/4 292/1/4
f 292/1/4 288/1/4 293/1/4
f 290/2/4 291/2/4 294/2/4
f 291/2/4 285/2/4 294/2/4
f 294/2/4 285/2/4 295/2/4
f 290/2/4 294/2/4 296/2/4
f 296/2/4 294/2/4 297/2/4
f 298/2/4 299/2/4 300/2/4
f 300/2/4 299/2/4 301/2/4
f 302/2/4 303/2/4 304/2/4
f 304/2/4 303/2/4 305/2/4
f 306/2/4 307/2/4 308/2/4
f 308/2/4 307/2/4 309/2/4
f 314/1/5 311/1/5 310/1/5
f 315/1/5 311/1/5 314/1/5
f 316/1/5 313/1/5 312/1/5
f 317/1/5 313/1/5 316/1/5
f 320/1/5 319/1/5 318/1/5
f 321/1/5 319/1/5 320/1/5
f 326/1/5 323/1/5 322/1/5
f 327/1/5 323/1/5 326/1/5
f 328/1/5 325/1/5 324/1/5
f 329/1/5 325/1/5 328/1/5
f 330/1/5 326/1/5 322/1/5
f 333/1/5 325/1/5 329/1/5
f 334/1/5 331/1/5 330/1/5
f 334/1/5 330/1/5 322/1/5
f 335/1/5 331/1/5 334/1/5
f 336/1/5 333/1/5 332/1/5
f 337/1/5 325/1/5 333/1/5
f 337/1/5 333/1/5 336/1/5
f 341/1/5 339/1/5 338/1/5
f 342/1/5 339/1/5 341/1/5
f 345/1/5 341/1/5 340/1/5
f 345/1/5 344/1/5 343/1/5
f 345/1/5 343/1/5 342/1/5
f 345/1/5 342/1/5 341/1/5
f 346/1/5 344/1/5 345/1/5
f 347/1/5 344/1/5 346/1/5
f 348/1/5 344/1/5 347/1/5
f 353/1/5 350/1/5 349/1/5
f 354/1/5 350/1/5 353/1/5
f 355/1/5 352/1/5 351/1/5
f 356/1/5 352/1/5 355/1/5
f 358/1/5 347/1/5 346/1/5
f 359/1/5 347/1/5 358/1/5
f 361/1/5 358/1/5 357/1/5
f 361/1/5 360/1/5 359/1/5
f 361/1/5 359/1/5 358/1/5
f 362/1/5 360/1/5 361/1/5
f 368/1/5 364/1/5 363/1/5
f 369/1/5 364/1/5 368/1/5
f 370/1/5 366/1/5 365/1/5
f 371/1/5 366/1/5 370/1/5
f 373/2/5 369/2/5 368/2/5
f 373/2/5 368/2/5 367/2/5
f 374/2/5 369/2/5 373/2/5
f 375/2/5 369/2/5 374/2/5
f 378/2/5 372/2/5 371/2/5
f 378/2/5 371/2/5 370/2/5
f 379/2/5 372/2/5 378/2/5
f 380/2/5 372/2/5 379/2/5
f 381/2/5 376/2/5 375/2/5
f 381/2/5 375/2/5 374/2/5
f 382/2/5 379/2/5 378/2/5
f 382/2/5 378/2/5 377/2/5
f 383/2/5 381/2/5 374/2/5
f 383/2/5 382/2/5 381/2/5
f 384/2/5 382/2/5 383/2/5
f 385/2/5 379/2/5 382/2/5
f 385/2/5 382/2/5 384/2/5
f 386/2/5 379/2/5 385/2/5
f 387/2/5 385/2/5 384/2/5
f 388/2/5 385/2/5 387/2/5
f 393/2/5 390/2/5 389/2/5
f 394/2/5 390/2/5 393/2/5
f 395/2/5 392/2/5 391/2/5
f 396/2/5 392/2/5 395/2/5
f 401/2/5 398/2/5 397/2/5
f 402/2/5 398/2/5 401/2/5
f 403/2/5 400/2/5 399/2/5
f 404/2/5 400/2/5 403/2/5
f 405/1/6 406/1/6 407/1/6
f 407/1/6 406/1/6 408/1/6
f 409/1/6 410/1/6 411/1/6
f 411/1/6 410/1/6 412/1/6
f 413/1/6 414/1/6 417/1/6
f 417/1/6 414/1/6 418/1/6
f 415/1/6 416/1/6 419/1/6
f 419/1/6 416/1/6 420/1/6
f 421/1/6 422/1/6 425/1/6
f 425/1/6 422/1/6 426/1/6
f 423/1/6 424/1/6 427/1/6
f 427/1/6 424/1/6 428/1/6
f 429/2/6 430/2/6 433/2/6
f 433/2/6 430/2/6 434/2/6
f 431/2/6 432/2/6 435/2/6
f 435/2/6 432/2/6 436/2/6
f 437/2/6 438/2/6 439/2/6
f 439/2/6 438/2/6 440/2/6
f 441/2/6 442/2/6 445/2/6
f 443/2/6 444/2/6 447/2/6
f 447/2/6 444/2/6 448/2/6
f 445/2/6 446/2/6 449/2/6
f 441/2/6 445/2/6 449/2/6
f 449/2/6 446/2/6 450/2/6
f 450/2/6 446/2/6 451/2/6
f 451/2/6 446/2/6 452/2/6
f 453/2/6 454/2/6 455/2/6
f 455/2/6 454/2/6 456/2/6
