# MagicaVoxel @ Ephtracy

# material
mtllib chr_goth2.mtl
usemtl palette

# normals
vn -1 0 0
vn 1 0 0
vn 0 0 1
vn 0 0 -1
vn 0 -1 0
vn 0 1 0

# texcoords
vt 0.0332031 0.5
vt 0.0605469 0.5
vt 0.201172 0.5
vt 0.240234 0.5
vt 0.525391 0.5
vt 0.994141 0.5

# verts
v -4 2 1
v -4 2 -0
v -4 4 1
v -4 4 -0
v -4 5 1
v -4 5 -0
v -4 6 1
v -4 6 -0
v -4 7 3
v -4 7 2
v -4 7 1
v -4 7 -0
v -4 7 -1
v -4 8 3
v -4 8 2
v -4 8 1
v -4 8 -0
v -4 10 2
v -4 10 1
v -4 10 -0
v -4 10 -1
v -3 1 2
v -3 1 -1
v -3 2 3
v -3 2 2
v -3 2 1
v -3 2 -0
v -3 2 -1
v -3 2 -2
v -3 4 1
v -3 4 -0
v -3 5 1
v -3 5 -0
v -3 6 3
v -3 6 2
v -3 6 1
v -3 6 -0
v -3 6 -1
v -3 6 -2
v -3 7 2
v -3 7 1
v -3 7 -0
v -3 7 -1
v -3 8 -1
v -3 8 -2
v -3 9 3
v -3 9 2
v -3 10 3
v -3 10 2
v -3 10 1
v -3 10 -0
v -3 10 -1
v -3 10 -2
v -3 11 2
v -3 11 1
v -3 11 -0
v -3 11 -1
v -2 0 1
v -2 0 -0
v -2 1 1
v -2 1 -0
v -2 6 -1
v -2 6 -2
v -2 7 -1
v -2 8 -1
v -2 8 -2
v -2 9 -2
v -2 9 -3
v -2 10 -1
v -2 10 -2
v -2 10 -3
v -2 11 -1
v -2 11 -2
v 1 0 1
v 1 0 -0
v 1 1 2
v 1 1 1
v 1 1 -0
v 1 1 -1
v 1 2 2
v 1 2 -1
v 1 4 3
v 1 4 2
v 1 5 3
v 1 5 2
v 2 5 3
v 2 5 2
v 2 6 3
v 2 6 2
v 3 7 3
v 3 7 2
v 3 8 3
v 3 8 2
v -3 7 3
v -3 7 2
v -3 8 3
v -3 8 2
v -2 5 3
v -2 5 2
v -2 6 3
v -2 6 2
v -1 0 1
v -1 0 -0
v -1 1 2
v -1 1 1
v -1 1 -0
v -1 1 -1
v -1 2 2
v -1 2 -1
v -1 4 3
v -1 4 2
v -1 5 3
v -1 5 2
v 2 0 1
v 2 0 -0
v 2 1 1
v 2 1 -0
v 2 6 -1
v 2 6 -2
v 2 7 -1
v 2 8 -1
v 2 8 -2
v 2 9 -2
v 2 9 -3
v 2 10 -1
v 2 10 -2
v 2 10 -3
v 2 11 -1
v 2 11 -2
v 3 1 2
v 3 1 -1
v 3 2 3
v 3 2 2
v 3 2 1
v 3 2 -0
v 3 2 -1
v 3 2 -2
v 3 4 1
v 3 4 -0
v 3 5 1
v 3 5 -0
v 3 6 3
v 3 6 2
v 3 6 1
v 3 6 -0
v 3 6 -1
v 3 6 -2
v 3 7 2
v 3 7 1
v 3 7 -0
v 3 7 -1
v 3 8 -1
v 3 8 -2
v 3 9 3
v 3 9 2
v 3 10 3
v 3 10 2
v 3 10 1
v 3 10 -0
v 3 10 -1
v 3 10 -2
v 3 11 2
v 3 11 1
v 3 11 -0
v 3 11 -1
v 4 2 1
v 4 2 -0
v 4 4 1
v 4 4 -0
v 4 5 1
v 4 5 -0
v 4 6 1
v 4 6 -0
v 4 7 3
v 4 7 2
v 4 7 1
v 4 7 -0
v 4 7 -1
v 4 8 3
v 4 8 2
v 4 8 1
v 4 8 -0
v 4 10 2
v 4 10 1
v 4 10 -0
v 4 10 -1
v -4 7 3
v -4 8 3
v -3 2 3
v -3 6 3
v -3 7 3
v -3 8 3
v -3 9 3
v -3 10 3
v -2 5 3
v -2 6 3
v -2 9 3
v -2 10 3
v -1 4 3
v -1 5 3
v -1 9 3
v -1 10 3
v 1 4 3
v 1 5 3
v 1 9 3
v 1 10 3
v 2 5 3
v 2 6 3
v 2 9 3
v 2 10 3
v 3 2 3
v 3 6 3
v 3 7 3
v 3 8 3
v 3 9 3
v 3 10 3
v 4 7 3
v 4 8 3
v -4 8 2
v -4 10 2
v -3 1 2
v -3 2 2
v -3 6 2
v -3 7 2
v -3 8 2
v -3 9 2
v -3 10 2
v -3 11 2
v -2 5 2
v -2 6 2
v -2 7 2
v -2 8 2
v -2 9 2
v -2 10 2
v -1 1 2
v -1 2 2
v -1 4 2
v -1 5 2
v -1 7 2
v -1 8 2
v -1 9 2
v -1 10 2
v -1 11 2
v 1 1 2
v 1 2 2
v 1 4 2
v 1 5 2
v 1 7 2
v 1 8 2
v 1 9 2
v 1 10 2
v 1 11 2
v 2 5 2
v 2 6 2
v 2 7 2
v 2 8 2
v 2 9 2
v 2 10 2
v 3 1 2
v 3 2 2
v 3 6 2
v 3 7 2
v 3 8 2
v 3 9 2
v 3 10 2
v 3 11 2
v 4 8 2
v 4 10 2
v -4 2 1
v -4 4 1
v -4 5 1
v -4 6 1
v -3 2 1
v -3 4 1
v -3 5 1
v -3 6 1
v -2 0 1
v -2 1 1
v -1 0 1
v -1 1 1
v 1 0 1
v 1 1 1
v 2 0 1
v 2 1 1
v 3 2 1
v 3 4 1
v 3 5 1
v 3 6 1
v 4 2 1
v 4 4 1
v 4 5 1
v 4 6 1
v -4 2 -0
v -4 4 -0
v -4 5 -0
v -4 6 -0
v -3 2 -0
v -3 4 -0
v -3 5 -0
v -3 6 -0
v -2 0 -0
v -2 1 -0
v -1 0 -0
v -1 1 -0
v 1 0 -0
v 1 1 -0
v 2 0 -0
v 2 1 -0
v 3 2 -0
v 3 4 -0
v 3 5 -0
v 3 6 -0
v 4 2 -0
v 4 4 -0
v 4 5 -0
v 4 6 -0
v -4 7 -1
v -4 10 -1
v -3 1 -1
v -3 2 -1
v -3 6 -1
v -3 7 -1
v -3 8 -1
v -3 10 -1
v -3 11 -1
v -2 6 -1
v -2 7 -1
v -2 8 -1
v -2 10 -1
v -2 11 -1
v -1 1 -1
v -1 2 -1
v 1 1 -1
v 1 2 -1
v 2 6 -1
v 2 7 -1
v 2 8 -1
v 2 10 -1
v 2 11 -1
v 3 1 -1
v 3 2 -1
v 3 6 -1
v 3 7 -1
v 3 8 -1
v 3 10 -1
v 3 11 -1
v 4 7 -1
v 4 10 -1
v -3 2 -2
v -3 6 -2
v -3 8 -2
v -3 10 -2
v -2 6 -2
v -2 8 -2
v -2 9 -2
v -2 10 -2
v -2 11 -2
v -1 5 -2
v -1 6 -2
v -1 9 -2
v -1 10 -2
v -1 11 -2
v 1 5 -2
v 1 6 -2
v 1 9 -2
v 1 10 -2
v 1 11 -2
v 2 6 -2
v 2 8 -2
v 2 9 -2
v 2 10 -2
v 2 11 -2
v 3 2 -2
v 3 6 -2
v 3 8 -2
v 3 10 -2
v -2 9 -3
v -2 10 -3
v -1 9 -3
v -1 10 -3
v 1 9 -3
v 1 10 -3
v 2 9 -3
v 2 10 -3
v -2 0 1
v -1 0 1
v 1 0 1
v 2 0 1
v -2 0 -0
v -1 0 -0
v 1 0 -0
v 2 0 -0
v -3 1 2
v -1 1 2
v 1 1 2
v 3 1 2
v -2 1 1
v -1 1 1
v 1 1 1
v 2 1 1
v -2 1 -0
v -1 1 -0
v 1 1 -0
v 2 1 -0
v -3 1 -1
v -1 1 -1
v 1 1 -1
v 3 1 -1
v -3 2 3
v 3 2 3
v -3 2 2
v -1 2 2
v 1 2 2
v 3 2 2
v -4 2 1
v -3 2 1
v 3 2 1
v 4 2 1
v -4 2 -0
v -3 2 -0
v 3 2 -0
v 4 2 -0
v -3 2 -1
v -1 2 -1
v 1 2 -1
v 3 2 -1
v -3 2 -2
v 3 2 -2
v -4 7 3
v -3 7 3
v 3 7 3
v 4 7 3
v -4 7 2
v -3 7 2
v 3 7 2
v 4 7 2
v -4 7 1
v -3 7 1
v 3 7 1
v 4 7 1
v -4 7 -0
v -3 7 -0
v 3 7 -0
v 4 7 -0
v -4 7 -1
v -3 7 -1
v 3 7 -1
v 4 7 -1
v -3 8 -1
v -2 8 -1
v 2 8 -1
v 3 8 -1
v -3 8 -2
v -2 8 -2
v 2 8 -2
v 3 8 -2
v -3 9 3
v -2 9 3
v -1 9 3
v 1 9 3
v 2 9 3
v 3 9 3
v -3 9 2
v -2 9 2
v -1 9 2
v 1 9 2
v 2 9 2
v 3 9 2
v -2 9 -2
v -1 9 -2
v 1 9 -2
v 2 9 -2
v -2 9 -3
v -1 9 -3
v 1 9 -3
v 2 9 -3
v -1 4 3
v 1 4 3
v -1 4 2
v 1 4 2
v -2 5 3
v -1 5 3
v 1 5 3
v 2 5 3
v -2 5 2
v -1 5 2
v 1 5 2
v 2 5 2
v -3 6 3
v -2 6 3
v 2 6 3
v 3 6 3
v -3 6 2
v -2 6 2
v 2 6 2
v 3 6 2
v -4 6 1
v -3 6 1
v 3 6 1
v 4 6 1
v -4 6 -0
v -3 6 -0
v 3 6 -0
v 4 6 -0
v -3 6 -1
v -2 6 -1
v 2 6 -1
v 3 6 -1
v -3 6 -2
v -2 6 -2
v 2 6 -2
v 3 6 -2
v -4 8 3
v -3 8 3
v 3 8 3
v 4 8 3
v -4 8 2
v -3 8 2
v 3 8 2
v 4 8 2
v -3 10 3
v -2 10 3
v -1 10 3
v 1 10 3
v 2 10 3
v 3 10 3
v -4 10 2
v -3 10 2
v -2 10 2
v -1 10 2
v 1 10 2
v 2 10 2
v 3 10 2
v 4 10 2
v -4 10 1
v -3 10 1
v 3 10 1
v 4 10 1
v -4 10 -0
v -3 10 -0
v 3 10 -0
v 4 10 -0
v -4 10 -1
v -3 10 -1
v -2 10 -1
v 2 10 -1
v 3 10 -1
v 4 10 -1
v -3 10 -2
v -2 10 -2
v -1 10 -2
v 1 10 -2
v 2 10 -2
v 3 10 -2
v -2 10 -3
v -1 10 -3
v 1 10 -3
v 2 10 -3
v -3 11 2
v -1 11 2
v 1 11 2
v 3 11 2
v -3 11 1
v -1 11 1
v 1 11 1
v 3 11 1
v -3 11 -0
v -2 11 -0
v 2 11 -0
v 3 11 -0
v -3 11 -1
v -2 11 -1
v -1 11 -1
v 1 11 -1
v 2 11 -1
v 3 11 -1
v -2 11 -2
v -1 11 -2
v 1 11 -2
v 2 11 -2

# faces
f 3/1/1 2/1/1 1/1/1
f 4/1/1 2/1/1 3/1/1
f 5/5/1 4/5/1 3/5/1
f 6/5/1 4/5/1 5/5/1
f 7/1/1 6/1/1 5/1/1
f 8/1/1 6/1/1 7/1/1
f 14/6/1 10/6/1 9/6/1
f 15/4/1 11/4/1 10/4/1
f 15/6/1 10/6/1 14/6/1
f 16/2/1 12/2/1 11/2/1
f 16/4/1 11/4/1 15/4/1
f 17/6/1 13/6/1 12/6/1
f 17/2/1 12/2/1 16/2/1
f 18/6/1 16/6/1 15/6/1
f 19/4/1 17/4/1 16/4/1
f 19/6/1 16/6/1 18/6/1
f 20/6/1 13/6/1 17/6/1
f 20/4/1 17/4/1 19/4/1
f 21/6/1 13/6/1 20/6/1
f 25/6/1 23/6/1 22/6/1
f 26/6/1 23/6/1 25/6/1
f 27/6/1 23/6/1 26/6/1
f 28/6/1 23/6/1 27/6/1
f 30/6/1 25/6/1 24/6/1
f 30/6/1 26/6/1 25/6/1
f 31/6/1 29/6/1 28/6/1
f 31/6/1 28/6/1 27/6/1
f 32/6/1 30/6/1 24/6/1
f 33/6/1 29/6/1 31/6/1
f 34/6/1 32/6/1 24/6/1
f 35/6/1 32/6/1 34/6/1
f 36/6/1 32/6/1 35/6/1
f 37/6/1 29/6/1 33/6/1
f 38/6/1 29/6/1 37/6/1
f 39/6/1 29/6/1 38/6/1
f 40/1/1 36/1/1 35/1/1
f 40/1/1 38/1/1 37/1/1
f 40/1/1 37/1/1 36/1/1
f 41/1/1 38/1/1 40/1/1
f 42/1/1 38/1/1 41/1/1
f 43/1/1 38/1/1 42/1/1
f 48/4/1 47/4/1 46/4/1
f 49/4/1 47/4/1 48/4/1
f 52/4/1 45/4/1 44/4/1
f 53/4/1 45/4/1 52/4/1
f 54/6/1 50/6/1 49/6/1
f 55/4/1 51/4/1 50/4/1
f 55/6/1 50/6/1 54/6/1
f 56/6/1 52/6/1 51/6/1
f 56/4/1 51/4/1 55/4/1
f 57/6/1 52/6/1 56/6/1
f 60/5/1 59/5/1 58/5/1
f 61/5/1 59/5/1 60/5/1
f 64/1/1 63/1/1 62/1/1
f 65/1/1 63/1/1 64/1/1
f 66/1/1 63/1/1 65/1/1
f 70/6/1 68/6/1 67/6/1
f 71/6/1 68/6/1 70/6/1
f 72/6/1 70/6/1 69/6/1
f 73/6/1 70/6/1 72/6/1
f 77/5/1 75/5/1 74/5/1
f 78/5/1 75/5/1 77/5/1
f 80/6/1 77/6/1 76/6/1
f 80/6/1 79/6/1 78/6/1
f 80/6/1 78/6/1 77/6/1
f 81/6/1 79/6/1 80/6/1
f 84/6/1 83/6/1 82/6/1
f 85/6/1 83/6/1 84/6/1
f 88/6/1 87/6/1 86/6/1
f 89/6/1 87/6/1 88/6/1
f 92/6/1 91/6/1 90/6/1
f 93/6/1 91/6/1 92/6/1
f 94/6/2 95/6/2 96/6/2
f 96/6/2 95/6/2 97/6/2
f 98/6/2 99/6/2 100/6/2
f 100/6/2 99/6/2 101/6/2
f 102/5/2 103/5/2 105/5/2
f 105/5/2 103/5/2 106/5/2
f 104/6/2 105/6/2 108/6/2
f 106/6/2 107/6/2 108/6/2
f 105/6/2 106/6/2 108/6/2
f 108/6/2 107/6/2 109/6/2
f 110/6/2 111/6/2 112/6/2
f 112/6/2 111/6/2 113/6/2
f 114/5/2 115/5/2 116/5/2
f 116/5/2 115/5/2 117/5/2
f 118/1/2 119/1/2 120/1/2
f 120/1/2 119/1/2 121/1/2
f 121/1/2 119/1/2 122/1/2
f 123/6/2 124/6/2 126/6/2
f 126/6/2 124/6/2 127/6/2
f 125/6/2 126/6/2 128/6/2
f 128/6/2 126/6/2 129/6/2
f 130/6/2 131/6/2 133/6/2
f 133/6/2 131/6/2 134/6/2
f 134/6/2 131/6/2 135/6/2
f 135/6/2 131/6/2 136/6/2
f 132/6/2 133/6/2 138/6/2
f 133/6/2 134/6/2 138/6/2
f 136/6/2 137/6/2 139/6/2
f 135/6/2 136/6/2 139/6/2
f 132/6/2 138/6/2 140/6/2
f 139/6/2 137/6/2 141/6/2
f 132/6/2 140/6/2 142/6/2
f 142/6/2 140/6/2 143/6/2
f 143/6/2 140/6/2 144/6/2
f 141/6/2 137/6/2 145/6/2
f 145/6/2 137/6/2 146/6/2
f 146/6/2 137/6/2 147/6/2
f 143/1/2 144/1/2 148/1/2
f 145/1/2 146/1/2 148/1/2
f 144/1/2 145/1/2 148/1/2
f 148/1/2 146/1/2 149/1/2
f 149/1/2 146/1/2 150/1/2
f 150/1/2 146/1/2 151/1/2
f 154/4/2 155/4/2 156/4/2
f 156/4/2 155/4/2 157/4/2
f 152/4/2 153/4/2 160/4/2
f 160/4/2 153/4/2 161/4/2
f 157/6/2 158/6/2 162/6/2
f 158/4/2 159/4/2 163/4/2
f 162/6/2 158/6/2 163/6/2
f 159/6/2 160/6/2 164/6/2
f 163/4/2 159/4/2 164/4/2
f 164/6/2 160/6/2 165/6/2
f 166/1/2 167/1/2 168/1/2
f 168/1/2 167/1/2 169/1/2
f 168/5/2 169/5/2 170/5/2
f 170/5/2 169/5/2 171/5/2
f 170/1/2 171/1/2 172/1/2
f 172/1/2 171/1/2 173/1/2
f 174/6/2 175/6/2 179/6/2
f 175/4/2 176/4/2 180/4/2
f 179/6/2 175/6/2 180/6/2
f 176/2/2 177/2/2 181/2/2
f 180/4/2 176/4/2 181/4/2
f 177/6/2 178/6/2 182/6/2
f 181/2/2 177/2/2 182/2/2
f 180/6/2 181/6/2 183/6/2
f 181/4/2 182/4/2 184/4/2
f 183/6/2 181/6/2 184/6/2
f 182/6/2 178/6/2 185/6/2
f 184/4/2 182/4/2 185/4/2
f 185/6/2 178/6/2 186/6/2
f 191/6/3 188/6/3 187/6/3
f 192/6/3 188/6/3 191/6/3
f 195/6/3 190/6/3 189/6/3
f 196/6/3 190/6/3 195/6/3
f 197/4/3 194/4/3 193/4/3
f 198/4/3 194/4/3 197/4/3
f 199/6/3 195/6/3 189/6/3
f 200/6/3 195/6/3 199/6/3
f 201/6/3 198/6/3 197/6/3
f 202/6/3 198/6/3 201/6/3
f 203/6/3 199/6/3 189/6/3
f 205/4/3 202/4/3 201/4/3
f 206/4/3 202/4/3 205/4/3
f 207/6/3 204/6/3 203/6/3
f 209/6/3 206/6/3 205/6/3
f 210/6/3 206/6/3 209/6/3
f 211/6/3 203/6/3 189/6/3
f 211/6/3 208/6/3 207/6/3
f 211/6/3 207/6/3 203/6/3
f 212/6/3 208/6/3 211/6/3
f 215/4/3 210/4/3 209/4/3
f 216/4/3 210/4/3 215/4/3
f 217/6/3 214/6/3 213/6/3
f 218/6/3 214/6/3 217/6/3
f 225/6/3 220/6/3 219/6/3
f 226/6/3 220/6/3 225/6/3
f 227/6/3 220/6/3 226/6/3
f 230/1/3 224/1/3 223/1/3
f 230/1/3 225/1/3 224/1/3
f 230/1/3 226/1/3 225/1/3
f 231/1/3 226/1/3 230/1/3
f 232/1/3 226/1/3 231/1/3
f 233/1/3 226/1/3 232/1/3
f 234/6/3 228/6/3 227/6/3
f 235/6/3 222/6/3 221/6/3
f 236/6/3 222/6/3 235/6/3
f 238/1/3 230/1/3 229/1/3
f 238/1/3 231/1/3 230/1/3
f 239/6/3 232/6/3 231/6/3
f 239/1/3 231/1/3 238/1/3
f 240/1/3 233/1/3 232/1/3
f 240/6/3 232/6/3 239/6/3
f 241/1/3 233/1/3 240/1/3
f 242/6/3 228/6/3 234/6/3
f 243/6/3 228/6/3 242/6/3
f 246/1/3 239/1/3 238/1/3
f 246/1/3 241/1/3 240/1/3
f 246/1/3 238/1/3 237/1/3
f 246/1/3 240/1/3 239/1/3
f 247/1/3 241/1/3 246/1/3
f 248/1/3 241/1/3 247/1/3
f 249/1/3 241/1/3 248/1/3
f 250/1/3 241/1/3 249/1/3
f 251/4/3 243/4/3 242/4/3
f 252/4/3 243/4/3 251/4/3
f 253/1/3 248/1/3 247/1/3
f 254/1/3 248/1/3 253/1/3
f 255/6/3 249/6/3 248/6/3
f 255/1/3 248/1/3 254/1/3
f 256/1/3 250/1/3 249/1/3
f 256/6/3 249/6/3 255/6/3
f 257/1/3 250/1/3 256/1/3
f 258/6/3 252/6/3 251/6/3
f 259/6/3 245/6/3 244/6/3
f 260/6/3 245/6/3 259/6/3
f 261/1/3 255/1/3 254/1/3
f 261/1/3 257/1/3 256/1/3
f 261/1/3 256/1/3 255/1/3
f 262/1/3 257/1/3 261/1/3
f 263/1/3 257/1/3 262/1/3
f 264/1/3 257/1/3 263/1/3
f 265/6/3 252/6/3 258/6/3
f 266/6/3 252/6/3 265/6/3
f 267/6/3 264/6/3 263/6/3
f 267/6/3 265/6/3 264/6/3
f 268/6/3 265/6/3 267/6/3
f 273/1/3 270/1/3 269/1/3
f 274/5/3 271/5/3 270/5/3
f 274/1/3 270/1/3 273/1/3
f 275/1/3 272/1/3 271/1/3
f 275/5/3 271/5/3 274/5/3
f 276/1/3 272/1/3 275/1/3
f 279/5/3 278/5/3 277/5/3
f 280/5/3 278/5/3 279/5/3
f 283/5/3 282/5/3 281/5/3
f 284/5/3 282/5/3 283/5/3
f 289/1/3 286/1/3 285/1/3
f 290/5/3 287/5/3 286/5/3
f 290/1/3 286/1/3 289/1/3
f 291/1/3 288/1/3 287/1/3
f 291/5/3 287/5/3 290/5/3
f 292/1/3 288/1/3 291/1/3
f 293/1/4 294/1/4 297/1/4
f 294/5/4 295/5/4 298/5/4
f 297/1/4 294/1/4 298/1/4
f 295/1/4 296/1/4 299/1/4
f 298/5/4 295/5/4 299/5/4
f 299/1/4 296/1/4 300/1/4
f 301/5/4 302/5/4 303/5/4
f 303/5/4 302/5/4 304/5/4
f 305/5/4 306/5/4 307/5/4
f 307/5/4 306/5/4 308/5/4
f 309/1/4 310/1/4 313/1/4
f 310/5/4 311/5/4 314/5/4
f 313/1/4 310/1/4 314/1/4
f 311/1/4 312/1/4 315/1/4
f 314/5/4 311/5/4 315/5/4
f 315/1/4 312/1/4 316/1/4
f 317/6/4 318/6/4 322/6/4
f 322/6/4 318/6/4 323/6/4
f 323/6/4 318/6/4 324/6/4
f 321/1/4 322/1/4 326/1/4
f 322/3/4 323/3/4 327/3/4
f 326/1/4 322/1/4 327/1/4
f 327/3/4 323/3/4 328/3/4
f 324/6/4 325/6/4 329/6/4
f 329/6/4 325/6/4 330/6/4
f 319/6/4 320/6/4 331/6/4
f 331/6/4 320/6/4 332/6/4
f 333/6/4 334/6/4 340/6/4
f 340/6/4 334/6/4 341/6/4
f 335/1/4 336/1/4 342/1/4
f 336/3/4 337/3/4 343/3/4
f 342/1/4 336/1/4 343/1/4
f 343/3/4 337/3/4 344/3/4
f 338/6/4 339/6/4 345/6/4
f 345/6/4 339/6/4 346/6/4
f 343/6/4 344/6/4 347/6/4
f 344/6/4 345/6/4 347/6/4
f 347/6/4 345/6/4 348/6/4
f 349/6/4 350/6/4 353/6/4
f 351/4/4 352/4/4 354/4/4
f 354/4/4 352/4/4 355/4/4
f 355/4/4 352/4/4 356/4/4
f 349/6/4 353/6/4 358/6/4
f 353/1/4 354/1/4 359/1/4
f 358/6/4 353/6/4 359/6/4
f 354/3/4 355/3/4 360/3/4
f 356/6/4 357/6/4 361/6/4
f 361/6/4 357/6/4 362/6/4
f 349/6/4 358/6/4 363/6/4
f 358/1/4 359/1/4 363/1/4
f 359/1/4 354/1/4 364/1/4
f 363/1/4 359/1/4 364/1/4
f 354/3/4 360/3/4 365/3/4
f 361/4/4 362/4/4 366/4/4
f 366/4/4 362/4/4 367/4/4
f 364/1/4 354/1/4 368/1/4
f 363/6/4 364/6/4 368/6/4
f 354/3/4 365/3/4 369/3/4
f 368/1/4 354/1/4 369/1/4
f 369/3/4 365/3/4 370/3/4
f 366/6/4 367/6/4 371/6/4
f 371/6/4 367/6/4 372/6/4
f 349/6/4 363/6/4 373/6/4
f 363/6/4 368/6/4 373/6/4
f 373/6/4 368/6/4 374/6/4
f 370/4/4 371/4/4 375/4/4
f 369/4/4 370/4/4 375/4/4
f 375/4/4 371/4/4 376/4/4
f 377/6/4 378/6/4 379/6/4
f 379/6/4 378/6/4 380/6/4
f 379/4/4 380/4/4 381/4/4
f 381/4/4 380/4/4 382/4/4
f 381/6/4 382/6/4 383/6/4
f 383/6/4 382/6/4 384/6/4
f 389/5/5 386/5/5 385/5/5
f 390/5/5 386/5/5 389/5/5
f 391/5/5 388/5/5 387/5/5
f 392/5/5 388/5/5 391/5/5
f 397/6/5 394/6/5 393/6/5
f 398/6/5 394/6/5 397/6/5
f 399/6/5 396/6/5 395/6/5
f 400/6/5 396/6/5 399/6/5
f 401/6/5 397/6/5 393/6/5
f 404/6/5 396/6/5 400/6/5
f 405/6/5 402/6/5 401/6/5
f 405/6/5 401/6/5 393/6/5
f 406/6/5 402/6/5 405/6/5
f 407/6/5 404/6/5 403/6/5
f 408/6/5 396/6/5 404/6/5
f 408/6/5 404/6/5 407/6/5
f 411/6/5 410/6/5 409/6/5
f 412/6/5 410/6/5 411/6/5
f 413/6/5 410/6/5 412/6/5
f 414/6/5 410/6/5 413/6/5
f 419/1/5 416/1/5 415/1/5
f 420/1/5 416/1/5 419/1/5
f 421/1/5 418/1/5 417/1/5
f 422/1/5 418/1/5 421/1/5
f 424/6/5 413/6/5 412/6/5
f 425/6/5 413/6/5 424/6/5
f 427/6/5 424/6/5 423/6/5
f 427/6/5 426/6/5 425/6/5
f 427/6/5 425/6/5 424/6/5
f 428/6/5 426/6/5 427/6/5
f 433/6/5 430/6/5 429/6/5
f 434/6/5 430/6/5 433/6/5
f 435/6/5 432/6/5 431/6/5
f 436/6/5 432/6/5 435/6/5
f 437/4/5 434/4/5 433/4/5
f 438/4/5 434/4/5 437/4/5
f 439/4/5 436/4/5 435/4/5
f 440/4/5 436/4/5 439/4/5
f 441/2/5 438/2/5 437/2/5
f 442/2/5 438/2/5 441/2/5
f 443/2/5 440/2/5 439/2/5
f 444/2/5 440/2/5 443/2/5
f 445/6/5 442/6/5 441/6/5
f 446/6/5 442/6/5 445/6/5
f 447/6/5 444/6/5 443/6/5
f 448/6/5 444/6/5 447/6/5
f 453/4/5 450/4/5 449/4/5
f 454/4/5 450/4/5 453/4/5
f 455/4/5 452/4/5 451/4/5
f 456/4/5 452/4/5 455/4/5
f 463/4/5 458/4/5 457/4/5
f 464/6/5 459/6/5 458/6/5
f 464/4/5 458/4/5 463/4/5
f 465/4/5 460/4/5 459/4/5
f 465/6/5 459/6/5 464/6/5
f 466/6/5 461/6/5 460/6/5
f 466/4/5 460/4/5 465/4/5
f 467/4/5 462/4/5 461/4/5
f 467/6/5 461/6/5 466/6/5
f 468/4/5 462/4/5 467/4/5
f 473/6/5 470/6/5 469/6/5
f 474/4/5 471/4/5 470/4/5
f 474/6/5 470/6/5 473/6/5
f 475/6/5 472/6/5 471/6/5
f 475/4/5 471/4/5 474/4/5
f 476/6/5 472/6/5 475/6/5
f 477/6/6 478/6/6 479/6/6
f 479/6/6 478/6/6 480/6/6
f 481/6/6 482/6/6 485/6/6
f 485/6/6 482/6/6 486/6/6
f 483/6/6 484/6/6 487/6/6
f 487/6/6 484/6/6 488/6/6
f 489/6/6 490/6/6 493/6/6
f 493/6/6 490/6/6 494/6/6
f 491/6/6 492/6/6 495/6/6
f 495/6/6 492/6/6 496/6/6
f 497/1/6 498/1/6 501/1/6
f 501/1/6 498/1/6 502/1/6
f 499/1/6 500/1/6 503/1/6
f 503/1/6 500/1/6 504/1/6
f 505/6/6 506/6/6 509/6/6
f 509/6/6 506/6/6 510/6/6
f 507/6/6 508/6/6 511/6/6
f 511/6/6 508/6/6 512/6/6
f 513/6/6 514/6/6 517/6/6
f 517/6/6 514/6/6 518/6/6
f 515/6/6 516/6/6 519/6/6
f 519/6/6 516/6/6 520/6/6
f 521/4/6 522/4/6 528/4/6
f 522/6/6 523/6/6 529/6/6
f 528/4/6 522/4/6 529/4/6
f 523/4/6 524/4/6 530/4/6
f 529/6/6 523/6/6 530/6/6
f 524/6/6 525/6/6 531/6/6
f 530/4/6 524/4/6 531/4/6
f 525/4/6 526/4/6 532/4/6
f 531/6/6 525/6/6 532/6/6
f 532/4/6 526/4/6 533/4/6
f 527/6/6 528/6/6 535/6/6
f 535/6/6 528/6/6 536/6/6
f 533/6/6 534/6/6 537/6/6
f 537/6/6 534/6/6 538/6/6
f 535/4/6 536/4/6 539/4/6
f 539/4/6 536/4/6 540/4/6
f 537/4/6 538/4/6 541/4/6
f 541/4/6 538/4/6 542/4/6
f 539/6/6 540/6/6 543/6/6
f 543/6/6 540/6/6 544/6/6
f 541/6/6 542/6/6 547/6/6
f 547/6/6 542/6/6 548/6/6
f 544/4/6 545/4/6 549/4/6
f 549/4/6 545/4/6 550/4/6
f 546/4/6 547/4/6 553/4/6
f 553/4/6 547/4/6 554/4/6
f 550/6/6 551/6/6 555/6/6
f 551/4/6 552/4/6 556/4/6
f 555/6/6 551/6/6 556/6/6
f 552/6/6 553/6/6 557/6/6
f 556/4/6 552/4/6 557/4/6
f 557/6/6 553/6/6 558/6/6
f 559/6/6 560/6/6 563/6/6
f 560/4/6 561/4/6 564/4/6
f 563/6/6 560/6/6 564/6/6
f 561/6/6 562/6/6 565/6/6
f 564/4/6 561/4/6 565/4/6
f 565/6/6 562/6/6 566/6/6
f 563/4/6 564/4/6 567/4/6
f 564/4/6 565/4/6 567/4/6
f 565/4/6 566/4/6 567/4/6
f 567/4/6 566/4/6 568/4/6
f 568/4/6 566/4/6 569/4/6
f 569/4/6 566/4/6 570/4/6
f 567/6/6 568/6/6 571/6/6
f 568/4/6 569/4/6 572/4/6
f 571/6/6 568/6/6 572/6/6
f 572/4/6 569/4/6 573/4/6
f 573/4/6 569/4/6 574/4/6
f 569/6/6 570/6/6 575/6/6
f 574/4/6 569/4/6 575/4/6
f 575/6/6 570/6/6 576/6/6
f 572/6/6 573/6/6 577/6/6
f 573/4/6 574/4/6 578/4/6
f 577/6/6 573/6/6 578/6/6
f 574/6/6 575/6/6 579/6/6
f 578/4/6 574/4/6 579/4/6
f 579/6/6 575/6/6 580/6/6
