# MagicaVoxel @ Ephtracy

# material
mtllib chr_headphones.mtl
usemtl palette

# normals
vn -1 0 0
vn 1 0 0
vn 0 0 1
vn 0 0 -1
vn 0 -1 0
vn 0 1 0

# texcoords
vt 0.0332031 0.5
vt 0.267578 0.5
vt 0.333984 0.5
vt 0.958984 0.5
vt 0.990234 0.5
vt 0.994141 0.5

# verts
v -5 6 2
v -5 6 -1
v -5 9 2
v -5 9 -1
v -4 2 1
v -4 2 -0
v -4 3 1
v -4 3 -0
v -4 4 3
v -4 4 2
v -4 4 -1
v -4 4 -2
v -4 5 2
v -4 5 1
v -4 5 -0
v -4 5 -1
v -4 6 2
v -4 6 1
v -4 6 -0
v -4 6 -1
v -4 6 -2
v -4 9 3
v -4 9 2
v -4 9 1
v -4 9 -0
v -4 9 -1
v -4 10 2
v -4 10 1
v -4 10 -0
v -4 10 -1
v -3 1 2
v -3 1 -1
v -3 2 3
v -3 2 2
v -3 2 1
v -3 2 -0
v -3 2 -1
v -3 2 -2
v -3 3 3
v -3 3 1
v -3 3 -0
v -3 3 -2
v -3 4 3
v -3 4 2
v -3 4 -1
v -3 4 -2
v -3 4 -3
v -3 5 2
v -3 5 1
v -3 5 -0
v -3 5 -1
v -3 6 -1
v -3 6 -2
v -3 6 -3
v -3 9 3
v -3 9 2
v -3 9 -1
v -3 10 3
v -3 10 2
v -3 10 1
v -3 10 -0
v -3 10 -1
v -3 10 -2
v -3 11 2
v -3 11 1
v -3 11 -0
v -3 11 -1
v -2 0 1
v -2 0 -0
v -2 1 1
v -2 1 -0
v -2 6 -2
v -2 6 -3
v -2 10 -1
v -2 10 -2
v -2 10 -3
v -2 11 -1
v -2 11 -2
v 1 0 1
v 1 0 -0
v 1 1 2
v 1 1 1
v 1 1 -0
v 1 1 -1
v 1 2 2
v 1 2 -1
v 1 5 3
v 1 5 2
v 1 5 -2
v 1 5 -3
v 1 6 3
v 1 6 2
v 1 6 -2
v 1 6 -3
v 2 4 -2
v 2 4 -3
v 2 5 -2
v 2 5 -3
v 2 9 3
v 2 9 2
v 2 10 3
v 2 10 2
v 3 6 3
v 3 6 2
v 3 9 3
v 3 9 2
v -3 6 3
v -3 6 2
v -3 9 3
v -3 9 2
v -2 4 -2
v -2 4 -3
v -2 5 -2
v -2 5 -3
v -2 9 3
v -2 9 2
v -2 10 3
v -2 10 2
v -1 0 1
v -1 0 -0
v -1 1 2
v -1 1 1
v -1 1 -0
v -1 1 -1
v -1 2 2
v -1 2 -1
v -1 5 3
v -1 5 2
v -1 5 -2
v -1 5 -3
v -1 6 3
v -1 6 2
v -1 6 -2
v -1 6 -3
v 2 0 1
v 2 0 -0
v 2 1 1
v 2 1 -0
v 2 6 -2
v 2 6 -3
v 2 10 -1
v 2 10 -2
v 2 10 -3
v 2 11 -1
v 2 11 -2
v 3 1 2
v 3 1 -1
v 3 2 3
v 3 2 2
v 3 2 1
v 3 2 -0
v 3 2 -1
v 3 2 -2
v 3 3 3
v 3 3 1
v 3 3 -0
v 3 3 -2
v 3 4 3
v 3 4 2
v 3 4 -1
v 3 4 -2
v 3 4 -3
v 3 5 2
v 3 5 1
v 3 5 -0
v 3 5 -1
v 3 6 -1
v 3 6 -2
v 3 6 -3
v 3 9 3
v 3 9 2
v 3 9 -1
v 3 10 3
v 3 10 2
v 3 10 1
v 3 10 -0
v 3 10 -1
v 3 10 -2
v 3 11 2
v 3 11 1
v 3 11 -0
v 3 11 -1
v 4 2 1
v 4 2 -0
v 4 3 1
v 4 3 -0
v 4 4 3
v 4 4 2
v 4 4 -1
v 4 4 -2
v 4 5 2
v 4 5 1
v 4 5 -0
v 4 5 -1
v 4 6 2
v 4 6 1
v 4 6 -0
v 4 6 -1
v 4 6 -2
v 4 9 3
v 4 9 2
v 4 9 1
v 4 9 -0
v 4 9 -1
v 4 10 2
v 4 10 1
v 4 10 -0
v 4 10 -1
v 5 6 2
v 5 6 -1
v 5 9 2
v 5 9 -1
v -4 4 3
v -4 9 3
v -3 2 3
v -3 3 3
v -3 4 3
v -3 6 3
v -3 9 3
v -3 10 3
v -2 9 3
v -2 10 3
v -1 5 3
v -1 6 3
v 1 5 3
v 1 6 3
v 2 9 3
v 2 10 3
v 3 2 3
v 3 3 3
v 3 4 3
v 3 6 3
v 3 9 3
v 3 10 3
v 4 4 3
v 4 9 3
v -5 6 2
v -5 9 2
v -4 6 2
v -4 9 2
v -4 10 2
v -3 1 2
v -3 2 2
v -3 6 2
v -3 9 2
v -3 10 2
v -3 11 2
v -2 7 2
v -2 8 2
v -2 9 2
v -2 10 2
v -1 1 2
v -1 2 2
v -1 5 2
v -1 6 2
v -1 7 2
v -1 8 2
v 1 1 2
v 1 2 2
v 1 5 2
v 1 6 2
v 1 7 2
v 1 8 2
v 2 7 2
v 2 8 2
v 2 9 2
v 2 10 2
v 3 1 2
v 3 2 2
v 3 6 2
v 3 9 2
v 3 10 2
v 3 11 2
v 4 6 2
v 4 9 2
v 4 10 2
v 5 6 2
v 5 9 2
v -4 2 1
v -4 3 1
v -4 5 1
v -3 2 1
v -3 3 1
v -3 5 1
v -2 0 1
v -2 1 1
v -1 0 1
v -1 1 1
v 1 0 1
v 1 1 1
v 2 0 1
v 2 1 1
v 3 2 1
v 3 3 1
v 3 5 1
v 4 2 1
v 4 3 1
v 4 5 1
v -4 4 -1
v -4 5 -1
v -3 4 -1
v -3 5 -1
v 3 4 -1
v 3 5 -1
v 4 4 -1
v 4 5 -1
v -4 4 2
v -4 5 2
v -3 4 2
v -3 5 2
v 3 4 2
v 3 5 2
v 4 4 2
v 4 5 2
v -4 2 -0
v -4 3 -0
v -4 5 -0
v -3 2 -0
v -3 3 -0
v -3 5 -0
v -2 0 -0
v -2 1 -0
v -1 0 -0
v -1 1 -0
v 1 0 -0
v 1 1 -0
v 2 0 -0
v 2 1 -0
v 3 2 -0
v 3 3 -0
v 3 5 -0
v 4 2 -0
v 4 3 -0
v 4 5 -0
v -5 6 -1
v -5 9 -1
v -4 6 -1
v -4 9 -1
v -4 10 -1
v -3 1 -1
v -3 2 -1
v -3 6 -1
v -3 9 -1
v -3 10 -1
v -3 11 -1
v -2 10 -1
v -2 11 -1
v -1 1 -1
v -1 2 -1
v 1 1 -1
v 1 2 -1
v 2 10 -1
v 2 11 -1
v 3 1 -1
v 3 2 -1
v 3 6 -1
v 3 9 -1
v 3 10 -1
v 3 11 -1
v 4 6 -1
v 4 9 -1
v 4 10 -1
v 5 6 -1
v 5 9 -1
v -4 4 -2
v -4 6 -2
v -3 2 -2
v -3 3 -2
v -3 4 -2
v -3 6 -2
v -3 10 -2
v -2 4 -2
v -2 5 -2
v -2 6 -2
v -2 10 -2
v -2 11 -2
v -1 5 -2
v -1 6 -2
v 1 5 -2
v 1 6 -2
v 2 4 -2
v 2 5 -2
v 2 6 -2
v 2 10 -2
v 2 11 -2
v 3 2 -2
v 3 3 -2
v 3 4 -2
v 3 6 -2
v 3 10 -2
v 4 4 -2
v 4 6 -2
v -3 4 -3
v -3 6 -3
v -2 4 -3
v -2 5 -3
v -2 6 -3
v -2 10 -3
v -1 5 -3
v -1 6 -3
v 1 5 -3
v 1 6 -3
v 2 4 -3
v 2 5 -3
v 2 6 -3
v 2 10 -3
v 3 4 -3
v 3 6 -3
v -2 0 1
v -1 0 1
v 1 0 1
v 2 0 1
v -2 0 -0
v -1 0 -0
v 1 0 -0
v 2 0 -0
v -3 1 2
v -1 1 2
v 1 1 2
v 3 1 2
v -2 1 1
v -1 1 1
v 1 1 1
v 2 1 1
v -2 1 -0
v -1 1 -0
v 1 1 -0
v 2 1 -0
v -3 1 -1
v -1 1 -1
v 1 1 -1
v 3 1 -1
v -3 2 3
v 3 2 3
v -3 2 2
v -1 2 2
v 1 2 2
v 3 2 2
v -4 2 1
v -3 2 1
v 3 2 1
v 4 2 1
v -4 2 -0
v -3 2 -0
v 3 2 -0
v 4 2 -0
v -3 2 -1
v -1 2 -1
v 1 2 -1
v 3 2 -1
v -3 2 -2
v 3 2 -2
v -4 4 3
v -3 4 3
v 3 4 3
v 4 4 3
v -4 4 2
v -3 4 2
v 3 4 2
v 4 4 2
v -4 4 -1
v -3 4 -1
v 3 4 -1
v 4 4 -1
v -4 4 -2
v -3 4 -2
v -2 4 -2
v 2 4 -2
v 3 4 -2
v 4 4 -2
v -3 4 -3
v -2 4 -3
v 2 4 -3
v 3 4 -3
v -4 5 2
v -3 5 2
v 3 5 2
v 4 5 2
v -4 5 1
v -3 5 1
v 3 5 1
v 4 5 1
v -4 5 -0
v -3 5 -0
v 3 5 -0
v 4 5 -0
v -4 5 -1
v -3 5 -1
v 3 5 -1
v 4 5 -1
v -2 5 -2
v -1 5 -2
v 1 5 -2
v 2 5 -2
v -2 5 -3
v -1 5 -3
v 1 5 -3
v 2 5 -3
v -5 6 2
v -4 6 2
v 4 6 2
v 5 6 2
v -4 6 1
v 4 6 1
v -4 6 -0
v 4 6 -0
v -5 6 -1
v -4 6 -1
v 4 6 -1
v 5 6 -1
v -1 6 -2
v 1 6 -2
v -1 6 -3
v 1 6 -3
v -3 9 3
v -2 9 3
v 2 9 3
v 3 9 3
v -3 9 2
v -2 9 2
v 2 9 2
v 3 9 2
v -1 5 3
v 1 5 3
v -1 5 2
v 1 5 2
v -3 6 3
v -1 6 3
v 1 6 3
v 3 6 3
v -3 6 2
v -1 6 2
v 1 6 2
v 3 6 2
v -4 6 -1
v -3 6 -1
v 3 6 -1
v 4 6 -1
v -4 6 -2
v -3 6 -2
v -2 6 -2
v 2 6 -2
v 3 6 -2
v 4 6 -2
v -3 6 -3
v -2 6 -3
v 2 6 -3
v 3 6 -3
v -4 9 3
v -3 9 3
v 3 9 3
v 4 9 3
v -5 9 2
v -4 9 2
v -3 9 2
v 3 9 2
v 4 9 2
v 5 9 2
v -4 9 1
v 4 9 1
v -4 9 -0
v 4 9 -0
v -5 9 -1
v -4 9 -1
v 4 9 -1
v 5 9 -1
v -3 10 3
v -2 10 3
v 2 10 3
v 3 10 3
v -4 10 2
v -3 10 2
v -2 10 2
v 2 10 2
v 3 10 2
v 4 10 2
v -4 10 1
v -3 10 1
v 3 10 1
v 4 10 1
v -4 10 -0
v -3 10 -0
v 3 10 -0
v 4 10 -0
v -4 10 -1
v -3 10 -1
v -2 10 -1
v 2 10 -1
v 3 10 -1
v 4 10 -1
v -3 10 -2
v -2 10 -2
v 2 10 -2
v 3 10 -2
v -2 10 -3
v 2 10 -3
v -3 11 2
v 3 11 2
v -3 11 1
v 3 11 1
v -3 11 -0
v 3 11 -0
v -3 11 -1
v -2 11 -1
v 2 11 -1
v 3 11 -1
v -2 11 -2
v 2 11 -2

# faces
f 3/4/1 2/4/1 1/4/1
f 4/4/1 2/4/1 3/4/1
f 7/1/1 6/1/1 5/1/1
f 8/1/1 6/1/1 7/1/1
f 13/5/1 10/5/1 9/5/1
f 14/2/1 8/2/1 7/2/1
f 15/2/1 8/2/1 14/2/1
f 16/5/1 12/5/1 11/5/1
f 17/5/1 13/5/1 9/5/1
f 17/5/1 14/5/1 13/5/1
f 18/2/1 15/2/1 14/2/1
f 18/5/1 14/5/1 17/5/1
f 19/5/1 16/5/1 15/5/1
f 19/2/1 15/2/1 18/2/1
f 20/5/1 12/5/1 16/5/1
f 20/5/1 16/5/1 19/5/1
f 21/5/1 12/5/1 20/5/1
f 22/5/1 17/5/1 9/5/1
f 23/5/1 17/5/1 22/5/1
f 27/5/1 24/5/1 23/5/1
f 28/4/1 25/4/1 24/4/1
f 28/5/1 24/5/1 27/5/1
f 29/5/1 26/5/1 25/5/1
f 29/4/1 25/4/1 28/4/1
f 30/5/1 26/5/1 29/5/1
f 34/3/1 32/3/1 31/3/1
f 35/3/1 32/3/1 34/3/1
f 36/3/1 32/3/1 35/3/1
f 37/3/1 32/3/1 36/3/1
f 39/3/1 34/3/1 33/3/1
f 39/3/1 35/3/1 34/3/1
f 40/3/1 35/3/1 39/3/1
f 41/3/1 38/3/1 37/3/1
f 41/3/1 37/3/1 36/3/1
f 42/3/1 38/3/1 41/3/1
f 43/2/1 40/2/1 39/2/1
f 44/2/1 40/2/1 43/2/1
f 45/2/1 42/2/1 41/2/1
f 46/2/1 42/2/1 45/2/1
f 48/2/1 40/2/1 44/2/1
f 49/2/1 40/2/1 48/2/1
f 50/2/1 45/2/1 41/2/1
f 51/2/1 45/2/1 50/2/1
f 53/5/1 47/5/1 46/5/1
f 54/5/1 47/5/1 53/5/1
f 57/5/1 53/5/1 52/5/1
f 58/5/1 56/5/1 55/5/1
f 59/5/1 56/5/1 58/5/1
f 62/5/1 53/5/1 57/5/1
f 63/5/1 53/5/1 62/5/1
f 64/5/1 60/5/1 59/5/1
f 65/4/1 61/4/1 60/4/1
f 65/5/1 60/5/1 64/5/1
f 66/5/1 62/5/1 61/5/1
f 66/4/1 61/4/1 65/4/1
f 67/5/1 62/5/1 66/5/1
f 70/5/1 69/5/1 68/5/1
f 71/5/1 69/5/1 70/5/1
f 75/5/1 73/5/1 72/5/1
f 76/5/1 73/5/1 75/5/1
f 77/5/1 75/5/1 74/5/1
f 78/5/1 75/5/1 77/5/1
f 82/5/1 80/5/1 79/5/1
f 83/5/1 80/5/1 82/5/1
f 85/3/1 82/3/1 81/3/1
f 85/3/1 84/3/1 83/3/1
f 85/3/1 83/3/1 82/3/1
f 86/3/1 84/3/1 85/3/1
f 91/2/1 88/2/1 87/2/1
f 92/2/1 88/2/1 91/2/1
f 93/5/1 90/5/1 89/5/1
f 94/5/1 90/5/1 93/5/1
f 97/5/1 96/5/1 95/5/1
f 98/5/1 96/5/1 97/5/1
f 101/5/1 100/5/1 99/5/1
f 102/5/1 100/5/1 101/5/1
f 105/5/1 104/5/1 103/5/1
f 106/5/1 104/5/1 105/5/1
f 107/5/2 108/5/2 109/5/2
f 109/5/2 108/5/2 110/5/2
f 111/5/2 112/5/2 113/5/2
f 113/5/2 112/5/2 114/5/2
f 115/5/2 116/5/2 117/5/2
f 117/5/2 116/5/2 118/5/2
f 119/5/2 120/5/2 122/5/2
f 122/5/2 120/5/2 123/5/2
f 121/3/2 122/3/2 125/3/2
f 123/3/2 124/3/2 125/3/2
f 122/3/2 123/3/2 125/3/2
f 125/3/2 124/3/2 126/3/2
f 127/2/2 128/2/2 131/2/2
f 131/2/2 128/2/2 132/2/2
f 129/5/2 130/5/2 133/5/2
f 133/5/2 130/5/2 134/5/2
f 135/5/2 136/5/2 137/5/2
f 137/5/2 136/5/2 138/5/2
f 139/5/2 140/5/2 142/5/2
f 142/5/2 140/5/2 143/5/2
f 141/5/2 142/5/2 144/5/2
f 144/5/2 142/5/2 145/5/2
f 146/3/2 147/3/2 149/3/2
f 149/3/2 147/3/2 150/3/2
f 150/3/2 147/3/2 151/3/2
f 151/3/2 147/3/2 152/3/2
f 148/3/2 149/3/2 154/3/2
f 149/3/2 150/3/2 154/3/2
f 154/3/2 150/3/2 155/3/2
f 152/3/2 153/3/2 156/3/2
f 151/3/2 152/3/2 156/3/2
f 156/3/2 153/3/2 157/3/2
f 154/2/2 155/2/2 158/2/2
f 158/2/2 155/2/2 159/2/2
f 156/2/2 157/2/2 160/2/2
f 160/2/2 157/2/2 161/2/2
f 159/2/2 155/2/2 163/2/2
f 163/2/2 155/2/2 164/2/2
f 156/2/2 160/2/2 165/2/2
f 165/2/2 160/2/2 166/2/2
f 161/5/2 162/5/2 168/5/2
f 168/5/2 162/5/2 169/5/2
f 167/5/2 168/5/2 172/5/2
f 170/5/2 171/5/2 173/5/2
f 173/5/2 171/5/2 174/5/2
f 172/5/2 168/5/2 177/5/2
f 177/5/2 168/5/2 178/5/2
f 174/5/2 175/5/2 179/5/2
f 175/4/2 176/4/2 180/4/2
f 179/5/2 175/5/2 180/5/2
f 176/5/2 177/5/2 181/5/2
f 180/4/2 176/4/2 181/4/2
f 181/5/2 177/5/2 182/5/2
f 183/1/2 184/1/2 185/1/2
f 185/1/2 184/1/2 186/1/2
f 187/5/2 188/5/2 191/5/2
f 185/2/2 186/2/2 192/2/2
f 192/2/2 186/2/2 193/2/2
f 189/5/2 190/5/2 194/5/2
f 187/5/2 191/5/2 195/5/2
f 191/5/2 192/5/2 195/5/2
f 192/2/2 193/2/2 196/2/2
f 195/5/2 192/5/2 196/5/2
f 193/5/2 194/5/2 197/5/2
f 196/2/2 193/2/2 197/2/2
f 194/5/2 190/5/2 198/5/2
f 197/5/2 194/5/2 198/5/2
f 198/5/2 190/5/2 199/5/2
f 187/5/2 195/5/2 200/5/2
f 200/5/2 195/5/2 201/5/2
f 201/5/2 202/5/2 205/5/2
f 202/4/2 203/4/2 206/4/2
f 205/5/2 202/5/2 206/5/2
f 203/5/2 204/5/2 207/5/2
f 206/4/2 203/4/2 207/4/2
f 207/5/2 204/5/2 208/5/2
f 209/4/2 210/4/2 211/4/2
f 211/4/2 210/4/2 212/4/2
f 217/5/3 214/5/3 213/5/3
f 218/5/3 214/5/3 217/5/3
f 219/5/3 214/5/3 218/5/3
f 221/5/3 220/5/3 219/5/3
f 222/5/3 220/5/3 221/5/3
f 223/2/3 217/2/3 216/2/3
f 223/2/3 218/2/3 217/2/3
f 224/2/3 218/2/3 223/2/3
f 225/2/3 223/2/3 216/2/3
f 229/3/3 216/3/3 215/3/3
f 230/2/3 226/2/3 225/2/3
f 230/3/3 216/3/3 229/3/3
f 230/2/3 225/2/3 216/2/3
f 231/2/3 226/2/3 230/2/3
f 232/2/3 226/2/3 231/2/3
f 233/5/3 228/5/3 227/5/3
f 234/5/3 228/5/3 233/5/3
f 235/5/3 232/5/3 231/5/3
f 235/5/3 233/5/3 232/5/3
f 236/5/3 233/5/3 235/5/3
f 239/4/3 238/4/3 237/4/3
f 240/4/3 238/4/3 239/4/3
f 245/5/3 241/5/3 240/5/3
f 246/5/3 241/5/3 245/5/3
f 248/1/3 245/1/3 244/1/3
f 249/1/3 245/1/3 248/1/3
f 250/1/3 245/1/3 249/1/3
f 251/5/3 247/5/3 246/5/3
f 252/3/3 243/3/3 242/3/3
f 253/3/3 243/3/3 252/3/3
f 255/1/3 248/1/3 244/1/3
f 256/6/3 249/6/3 248/6/3
f 256/1/3 248/1/3 255/1/3
f 257/1/3 251/1/3 250/1/3
f 257/6/3 249/6/3 256/6/3
f 257/1/3 250/1/3 249/1/3
f 260/1/3 256/1/3 255/1/3
f 260/1/3 255/1/3 254/1/3
f 260/1/3 257/1/3 256/1/3
f 261/1/3 257/1/3 260/1/3
f 262/1/3 257/1/3 261/1/3
f 263/1/3 251/1/3 257/1/3
f 263/1/3 257/1/3 262/1/3
f 264/1/3 262/1/3 261/1/3
f 264/6/3 263/6/3 262/6/3
f 265/1/3 251/1/3 263/1/3
f 265/6/3 263/6/3 264/6/3
f 266/1/3 251/1/3 265/1/3
f 267/5/3 247/5/3 251/5/3
f 267/1/3 251/1/3 266/1/3
f 268/3/3 259/3/3 258/3/3
f 269/3/3 259/3/3 268/3/3
f 270/1/3 264/1/3 261/1/3
f 270/1/3 266/1/3 265/1/3
f 270/1/3 265/1/3 264/1/3
f 271/1/3 266/1/3 270/1/3
f 272/5/3 247/5/3 267/5/3
f 273/5/3 247/5/3 272/5/3
f 275/5/3 272/5/3 271/5/3
f 276/5/3 272/5/3 275/5/3
f 277/4/3 275/4/3 274/4/3
f 278/4/3 275/4/3 277/4/3
f 282/1/3 280/1/3 279/1/3
f 283/2/3 281/2/3 280/2/3
f 283/1/3 280/1/3 282/1/3
f 284/2/3 281/2/3 283/2/3
f 287/5/3 286/5/3 285/5/3
f 288/5/3 286/5/3 287/5/3
f 291/5/3 290/5/3 289/5/3
f 292/5/3 290/5/3 291/5/3
f 296/1/3 294/1/3 293/1/3
f 297/2/3 295/2/3 294/2/3
f 297/1/3 294/1/3 296/1/3
f 298/2/3 295/2/3 297/2/3
f 301/5/3 300/5/3 299/5/3
f 302/5/3 300/5/3 301/5/3
f 305/5/3 304/5/3 303/5/3
f 306/5/3 304/5/3 305/5/3
f 307/5/4 308/5/4 309/5/4
f 309/5/4 308/5/4 310/5/4
f 311/5/4 312/5/4 313/5/4
f 313/5/4 312/5/4 314/5/4
f 315/1/4 316/1/4 318/1/4
f 316/2/4 317/2/4 319/2/4
f 318/1/4 316/1/4 319/1/4
f 319/2/4 317/2/4 320/2/4
f 321/5/4 322/5/4 323/5/4
f 323/5/4 322/5/4 324/5/4
f 325/5/4 326/5/4 327/5/4
f 327/5/4 326/5/4 328/5/4
f 329/1/4 330/1/4 332/1/4
f 330/2/4 331/2/4 333/2/4
f 332/1/4 330/1/4 333/1/4
f 333/2/4 331/2/4 334/2/4
f 335/4/4 336/4/4 337/4/4
f 337/4/4 336/4/4 338/4/4
f 337/3/4 338/3/4 342/3/4
f 338/5/4 339/5/4 343/5/4
f 342/3/4 338/3/4 343/3/4
f 343/5/4 339/5/4 344/5/4
f 344/5/4 345/5/4 346/5/4
f 346/5/4 345/5/4 347/5/4
f 340/3/4 341/3/4 348/3/4
f 348/3/4 341/3/4 349/3/4
f 350/3/4 351/3/4 354/3/4
f 354/3/4 351/3/4 355/3/4
f 352/5/4 353/5/4 358/5/4
f 358/5/4 353/5/4 359/5/4
f 356/3/4 357/3/4 360/3/4
f 357/5/4 358/5/4 361/5/4
f 360/3/4 357/3/4 361/3/4
f 361/5/4 358/5/4 362/5/4
f 360/4/4 361/4/4 363/4/4
f 363/4/4 361/4/4 364/4/4
f 365/5/4 366/5/4 369/5/4
f 369/5/4 366/5/4 370/5/4
f 368/2/4 369/2/4 372/2/4
f 370/5/4 371/5/4 374/5/4
f 374/5/4 371/5/4 375/5/4
f 372/2/4 373/2/4 377/2/4
f 372/2/4 377/2/4 379/2/4
f 377/2/4 378/2/4 379/2/4
f 379/2/4 378/2/4 380/2/4
f 368/2/4 372/2/4 381/2/4
f 372/2/4 379/2/4 381/2/4
f 381/2/4 379/2/4 382/2/4
f 375/5/4 376/5/4 384/5/4
f 384/5/4 376/5/4 385/5/4
f 367/3/4 368/3/4 386/3/4
f 368/2/4 381/2/4 387/2/4
f 386/3/4 368/3/4 387/3/4
f 387/2/4 381/2/4 388/2/4
f 383/5/4 384/5/4 389/5/4
f 389/5/4 384/5/4 390/5/4
f 388/5/4 389/5/4 391/5/4
f 391/5/4 389/5/4 392/5/4
f 393/5/4 394/5/4 395/5/4
f 395/5/4 394/5/4 396/5/4
f 396/5/4 394/5/4 397/5/4
f 397/5/4 398/5/4 399/5/4
f 396/5/4 397/5/4 399/5/4
f 399/5/4 398/5/4 400/5/4
f 400/5/4 398/5/4 402/5/4
f 401/5/4 402/5/4 404/5/4
f 402/5/4 398/5/4 405/5/4
f 404/5/4 402/5/4 405/5/4
f 405/5/4 398/5/4 406/5/4
f 403/5/4 404/5/4 407/5/4
f 404/5/4 405/5/4 407/5/4
f 407/5/4 405/5/4 408/5/4
f 413/5/5 410/5/5 409/5/5
f 414/5/5 410/5/5 413/5/5
f 415/5/5 412/5/5 411/5/5
f 416/5/5 412/5/5 415/5/5
f 421/3/5 418/3/5 417/3/5
f 422/3/5 418/3/5 421/3/5
f 423/3/5 420/3/5 419/3/5
f 424/3/5 420/3/5 423/3/5
f 425/3/5 421/3/5 417/3/5
f 428/3/5 420/3/5 424/3/5
f 429/3/5 426/3/5 425/3/5
f 429/3/5 425/3/5 417/3/5
f 430/3/5 426/3/5 429/3/5
f 431/3/5 428/3/5 427/3/5
f 432/3/5 420/3/5 428/3/5
f 432/3/5 428/3/5 431/3/5
f 435/3/5 434/3/5 433/3/5
f 436/3/5 434/3/5 435/3/5
f 437/3/5 434/3/5 436/3/5
f 438/3/5 434/3/5 437/3/5
f 443/1/5 440/1/5 439/1/5
f 444/1/5 440/1/5 443/1/5
f 445/1/5 442/1/5 441/1/5
f 446/1/5 442/1/5 445/1/5
f 448/3/5 437/3/5 436/3/5
f 449/3/5 437/3/5 448/3/5
f 451/3/5 448/3/5 447/3/5
f 451/3/5 450/3/5 449/3/5
f 451/3/5 449/3/5 448/3/5
f 452/3/5 450/3/5 451/3/5
f 457/5/5 454/5/5 453/5/5
f 458/5/5 454/5/5 457/5/5
f 459/5/5 456/5/5 455/5/5
f 460/5/5 456/5/5 459/5/5
f 465/5/5 462/5/5 461/5/5
f 466/5/5 462/5/5 465/5/5
f 469/5/5 464/5/5 463/5/5
f 470/5/5 464/5/5 469/5/5
f 471/5/5 467/5/5 466/5/5
f 472/5/5 467/5/5 471/5/5
f 473/5/5 469/5/5 468/5/5
f 474/5/5 469/5/5 473/5/5
f 479/5/5 476/5/5 475/5/5
f 480/5/5 476/5/5 479/5/5
f 481/5/5 478/5/5 477/5/5
f 482/5/5 478/5/5 481/5/5
f 487/5/5 484/5/5 483/5/5
f 488/5/5 484/5/5 487/5/5
f 489/5/5 486/5/5 485/5/5
f 490/5/5 486/5/5 489/5/5
f 495/5/5 492/5/5 491/5/5
f 496/5/5 492/5/5 495/5/5
f 497/5/5 494/5/5 493/5/5
f 498/5/5 494/5/5 497/5/5
f 503/4/5 500/4/5 499/4/5
f 504/4/5 502/4/5 501/4/5
f 505/4/5 503/4/5 499/4/5
f 506/4/5 502/4/5 504/4/5
f 507/4/5 505/4/5 499/4/5
f 508/4/5 505/4/5 507/4/5
f 509/4/5 502/4/5 506/4/5
f 510/4/5 502/4/5 509/4/5
f 513/5/5 512/5/5 511/5/5
f 514/5/5 512/5/5 513/5/5
f 519/5/5 516/5/5 515/5/5
f 520/5/5 516/5/5 519/5/5
f 521/5/5 518/5/5 517/5/5
f 522/5/5 518/5/5 521/5/5
f 523/2/6 524/2/6 525/2/6
f 525/2/6 524/2/6 526/2/6
f 527/2/6 528/2/6 531/2/6
f 531/2/6 528/2/6 532/2/6
f 529/2/6 530/2/6 533/2/6
f 533/2/6 530/2/6 534/2/6
f 535/5/6 536/5/6 539/5/6
f 539/5/6 536/5/6 540/5/6
f 537/5/6 538/5/6 543/5/6
f 543/5/6 538/5/6 544/5/6
f 540/5/6 541/5/6 545/5/6
f 545/5/6 541/5/6 546/5/6
f 542/5/6 543/5/6 547/5/6
f 547/5/6 543/5/6 548/5/6
f 549/5/6 550/5/6 554/5/6
f 554/5/6 550/5/6 555/5/6
f 551/5/6 552/5/6 556/5/6
f 556/5/6 552/5/6 557/5/6
f 553/4/6 554/4/6 559/4/6
f 557/4/6 558/4/6 560/4/6
f 553/4/6 559/4/6 561/4/6
f 560/4/6 558/4/6 562/4/6
f 553/4/6 561/4/6 563/4/6
f 563/4/6 561/4/6 564/4/6
f 562/4/6 558/4/6 565/4/6
f 565/4/6 558/4/6 566/4/6
f 567/5/6 568/5/6 572/5/6
f 572/5/6 568/5/6 573/5/6
f 569/5/6 570/5/6 574/5/6
f 574/5/6 570/5/6 575/5/6
f 571/5/6 572/5/6 577/5/6
f 577/5/6 572/5/6 578/5/6
f 575/5/6 576/5/6 579/5/6
f 579/5/6 576/5/6 580/5/6
f 577/4/6 578/4/6 581/4/6
f 581/4/6 578/4/6 582/4/6
f 579/4/6 580/4/6 583/4/6
f 583/4/6 580/4/6 584/4/6
f 581/5/6 582/5/6 585/5/6
f 585/5/6 582/5/6 586/5/6
f 583/5/6 584/5/6 589/5/6
f 589/5/6 584/5/6 590/5/6
f 586/5/6 587/5/6 591/5/6
f 591/5/6 587/5/6 592/5/6
f 588/5/6 589/5/6 593/5/6
f 593/5/6 589/5/6 594/5/6
f 592/5/6 593/5/6 595/5/6
f 595/5/6 593/5/6 596/5/6
f 597/5/6 598/5/6 599/5/6
f 599/5/6 598/5/6 600/5/6
f 599/4/6 600/4/6 601/4/6
f 601/4/6 600/4/6 602/4/6
f 601/5/6 602/5/6 603/5/6
f 603/5/6 602/5/6 604/5/6
f 604/5/6 602/5/6 605/5/6
f 605/5/6 602/5/6 606/5/6
f 604/5/6 605/5/6 607/5/6
f 607/5/6 605/5/6 608/5/6
