# MagicaVoxel @ Ephtracy

# material
mtllib chr_super3.mtl
usemtl palette

# normals
vn -1 0 0
vn 1 0 0
vn 0 0 1
vn 0 0 -1
vn 0 -1 0
vn 0 1 0

# texcoords
vt 0.0332031 0.5
vt 0.0449219 0.5
vt 0.0605469 0.5
vt 0.205078 0.5
vt 0.275391 0.5
vt 0.794922 0.5
vt 0.958984 0.5
vt 0.990234 0.5

# verts
v -4 2 0.5
v -4 2 -0.5
v -4 3 0.5
v -4 3 -0.5
v -4 5 0.5
v -4 5 -0.5
v -4 6 0.5
v -4 6 -0.5
v -4 7 0.5
v -4 7 -0.5
v -4 7 -1.5
v -4 8 1.5
v -4 8 0.5
v -4 8 -0.5
v -4 10 1.5
v -4 10 -1.5
v -3 1 1.5
v -3 1 -1.5
v -3 2 2.5
v -3 2 1.5
v -3 2 0.5
v -3 2 -0.5
v -3 2 -1.5
v -3 2 -2.5
v -3 2 -3.5
v -3 3 2.5
v -3 3 0.5
v -3 3 -0.5
v -3 3 -2.5
v -3 5 2.5
v -3 5 0.5
v -3 5 -0.5
v -3 5 -2.5
v -3 6 2.5
v -3 6 1.5
v -3 6 0.5
v -3 6 -0.5
v -3 6 -1.5
v -3 6 -3.5
v -3 7 1.5
v -3 7 0.5
v -3 7 -0.5
v -3 7 -1.5
v -3 7 -2.5
v -3 8 1.5
v -3 8 0.5
v -3 9 2.5
v -3 9 1.5
v -3 10 2.5
v -3 10 1.5
v -3 10 -1.5
v -3 10 -2.5
v -3 11 1.5
v -3 11 -1.5
v -2 0 0.5
v -2 0 -0.5
v -2 1 0.5
v -2 1 -0.5
v -2 1 -2.5
v -2 1 -3.5
v -2 2 -2.5
v -2 2 -3.5
v -2 6 -1.5
v -2 6 -2.5
v -2 7 -1.5
v -2 7 -2.5
v -2 7 -3.5
v -2 10 -1.5
v -2 10 -2.5
v -2 10 -3.5
v -2 11 -1.5
v -2 11 -2.5
v 0 1 -2.5
v 0 1 -3.5
v 0 2 -2.5
v 0 2 -3.5
v 1 0 0.5
v 1 0 -0.5
v 1 1 1.5
v 1 1 0.5
v 1 1 -0.5
v 1 1 -1.5
v 1 2 1.5
v 1 2 -1.5
v 1 10 1.5
v 1 10 0.5
v 1 11 1.5
v 1 11 0.5
v 2 1 -2.5
v 2 1 -3.5
v 2 2 -2.5
v 2 2 -3.5
v 2 9 2.5
v 2 9 1.5
v 2 10 2.5
v 2 10 1.5
v -1 0 0.5
v -1 0 -0.5
v -1 1 1.5
v -1 1 0.5
v -1 1 -0.5
v -1 1 -1.5
v -1 1 -2.5
v -1 1 -3.5
v -1 2 1.5
v -1 2 -1.5
v -1 2 -2.5
v -1 2 -3.5
v 0 9 2.5
v 0 9 1.5
v 0 10 2.5
v 0 10 1.5
v 0 10 0.5
v 0 11 1.5
v 0 11 0.5
v 1 1 -2.5
v 1 1 -3.5
v 1 2 -2.5
v 1 2 -3.5
v 2 0 0.5
v 2 0 -0.5
v 2 1 0.5
v 2 1 -0.5
v 2 6 -1.5
v 2 6 -2.5
v 2 7 -1.5
v 2 7 -2.5
v 2 7 -3.5
v 2 10 -1.5
v 2 10 -2.5
v 2 10 -3.5
v 2 11 -1.5
v 2 11 -2.5
v 3 1 1.5
v 3 1 -1.5
v 3 1 -2.5
v 3 1 -3.5
v 3 2 2.5
v 3 2 1.5
v 3 2 0.5
v 3 2 -0.5
v 3 2 -1.5
v 3 2 -2.5
v 3 3 2.5
v 3 3 0.5
v 3 3 -0.5
v 3 3 -2.5
v 3 4 0.5
v 3 4 -0.5
v 3 5 2.5
v 3 5 0.5
v 3 5 -0.5
v 3 5 -2.5
v 3 6 2.5
v 3 6 1.5
v 3 6 0.5
v 3 6 -0.5
v 3 6 -1.5
v 3 6 -3.5
v 3 7 1.5
v 3 7 0.5
v 3 7 -0.5
v 3 7 -1.5
v 3 7 -2.5
v 3 8 1.5
v 3 8 0.5
v 3 9 2.5
v 3 9 1.5
v 3 10 2.5
v 3 10 1.5
v 3 10 -1.5
v 3 10 -2.5
v 3 11 1.5
v 3 11 -1.5
v 4 2 0.5
v 4 2 -0.5
v 4 3 0.5
v 4 3 -0.5
v 4 4 0.5
v 4 4 -0.5
v 4 5 0.5
v 4 5 -0.5
v 4 6 0.5
v 4 6 -0.5
v 4 7 0.5
v 4 7 -0.5
v 4 7 -1.5
v 4 8 1.5
v 4 8 0.5
v 4 8 -0.5
v 4 10 1.5
v 4 10 -1.5
v -3 2 2.5
v -3 3 2.5
v -3 5 2.5
v -3 6 2.5
v -3 9 2.5
v -3 10 2.5
v -1 3 2.5
v -1 5 2.5
v 0 3 2.5
v 0 5 2.5
v 0 9 2.5
v 0 10 2.5
v 1 4 2.5
v 1 5 2.5
v 2 4 2.5
v 2 5 2.5
v 2 9 2.5
v 2 10 2.5
v 3 2 2.5
v 3 3 2.5
v 3 5 2.5
v 3 6 2.5
v 3 9 2.5
v 3 10 2.5
v -4 8 1.5
v -4 10 1.5
v -3 1 1.5
v -3 2 1.5
v -3 6 1.5
v -3 7 1.5
v -3 8 1.5
v -3 9 1.5
v -3 10 1.5
v -3 11 1.5
v -2 7 1.5
v -2 8 1.5
v -1 1 1.5
v -1 2 1.5
v -1 7 1.5
v -1 8 1.5
v 0 9 1.5
v 0 10 1.5
v 0 11 1.5
v 1 1 1.5
v 1 2 1.5
v 1 7 1.5
v 1 8 1.5
v 1 10 1.5
v 1 11 1.5
v 2 7 1.5
v 2 8 1.5
v 2 9 1.5
v 2 10 1.5
v 3 1 1.5
v 3 2 1.5
v 3 6 1.5
v 3 7 1.5
v 3 8 1.5
v 3 9 1.5
v 3 10 1.5
v 3 11 1.5
v 4 8 1.5
v 4 10 1.5
v -4 2 0.5
v -4 3 0.5
v -4 5 0.5
v -4 6 0.5
v -4 7 0.5
v -4 8 0.5
v -3 2 0.5
v -3 3 0.5
v -3 5 0.5
v -3 6 0.5
v -3 7 0.5
v -3 8 0.5
v -2 0 0.5
v -2 1 0.5
v -1 0 0.5
v -1 1 0.5
v 0 10 0.5
v 0 11 0.5
v 1 0 0.5
v 1 1 0.5
v 1 10 0.5
v 1 11 0.5
v 2 0 0.5
v 2 1 0.5
v 3 2 0.5
v 3 3 0.5
v 3 4 0.5
v 3 5 0.5
v 3 6 0.5
v 3 7 0.5
v 3 8 0.5
v 4 2 0.5
v 4 3 0.5
v 4 4 0.5
v 4 5 0.5
v 4 6 0.5
v 4 7 0.5
v 4 8 0.5
v -2 1 -2.5
v -2 2 -2.5
v -1 1 -2.5
v -1 2 -2.5
v 0 1 -2.5
v 0 2 -2.5
v 1 1 -2.5
v 1 2 -2.5
v 2 1 -2.5
v 2 2 -2.5
v 3 1 -2.5
v 3 2 -2.5
v -4 2 -0.5
v -4 3 -0.5
v -4 5 -0.5
v -4 6 -0.5
v -3 2 -0.5
v -3 3 -0.5
v -3 5 -0.5
v -3 6 -0.5
v -2 0 -0.5
v -2 1 -0.5
v -1 0 -0.5
v -1 1 -0.5
v 1 0 -0.5
v 1 1 -0.5
v 2 0 -0.5
v 2 1 -0.5
v 3 2 -0.5
v 3 3 -0.5
v 3 4 -0.5
v 3 5 -0.5
v 3 6 -0.5
v 4 2 -0.5
v 4 3 -0.5
v 4 4 -0.5
v 4 5 -0.5
v 4 6 -0.5
v -4 7 -1.5
v -4 10 -1.5
v -3 1 -1.5
v -3 2 -1.5
v -3 6 -1.5
v -3 7 -1.5
v -3 10 -1.5
v -3 11 -1.5
v -2 6 -1.5
v -2 7 -1.5
v -2 10 -1.5
v -2 11 -1.5
v -1 1 -1.5
v -1 2 -1.5
v 1 1 -1.5
v 1 2 -1.5
v 2 6 -1.5
v 2 7 -1.5
v 2 10 -1.5
v 2 11 -1.5
v 3 1 -1.5
v 3 2 -1.5
v 3 6 -1.5
v 3 7 -1.5
v 3 10 -1.5
v 3 11 -1.5
v 4 7 -1.5
v 4 10 -1.5
v -3 7 -2.5
v -3 10 -2.5
v -2 6 -2.5
v -2 7 -2.5
v -2 10 -2.5
v -2 11 -2.5
v 2 6 -2.5
v 2 7 -2.5
v 2 10 -2.5
v 2 11 -2.5
v 3 7 -2.5
v 3 10 -2.5
v -3 2 -3.5
v -3 6 -3.5
v -2 1 -3.5
v -2 2 -3.5
v -2 7 -3.5
v -2 10 -3.5
v -1 1 -3.5
v -1 2 -3.5
v 0 1 -3.5
v 0 2 -3.5
v 1 1 -3.5
v 1 2 -3.5
v 2 1 -3.5
v 2 2 -3.5
v 2 7 -3.5
v 2 10 -3.5
v 3 1 -3.5
v 3 6 -3.5
v -2 0 0.5
v -1 0 0.5
v 1 0 0.5
v 2 0 0.5
v -2 0 -0.5
v -1 0 -0.5
v 1 0 -0.5
v 2 0 -0.5
v -3 1 1.5
v -1 1 1.5
v 1 1 1.5
v 3 1 1.5
v -2 1 0.5
v -1 1 0.5
v 1 1 0.5
v 2 1 0.5
v -2 1 -0.5
v -1 1 -0.5
v 1 1 -0.5
v 2 1 -0.5
v -3 1 -1.5
v -1 1 -1.5
v 1 1 -1.5
v 3 1 -1.5
v -2 1 -2.5
v -1 1 -2.5
v 0 1 -2.5
v 1 1 -2.5
v 2 1 -2.5
v 3 1 -2.5
v -2 1 -3.5
v -1 1 -3.5
v 0 1 -3.5
v 1 1 -3.5
v 2 1 -3.5
v 3 1 -3.5
v -3 2 2.5
v 3 2 2.5
v -3 2 1.5
v -1 2 1.5
v 1 2 1.5
v 3 2 1.5
v -4 2 0.5
v -3 2 0.5
v 3 2 0.5
v 4 2 0.5
v -4 2 -0.5
v -3 2 -0.5
v 3 2 -0.5
v 4 2 -0.5
v -3 2 -1.5
v -1 2 -1.5
v 1 2 -1.5
v 3 2 -1.5
v -3 2 -2.5
v -2 2 -2.5
v -1 2 -2.5
v 0 2 -2.5
v 1 2 -2.5
v 2 2 -2.5
v 3 2 -2.5
v -3 2 -3.5
v -2 2 -3.5
v -1 2 -3.5
v 0 2 -3.5
v 1 2 -3.5
v 2 2 -3.5
v -4 7 0.5
v -3 7 0.5
v 3 7 0.5
v 4 7 0.5
v -4 7 -0.5
v -3 7 -0.5
v 3 7 -0.5
v 4 7 -0.5
v -4 7 -1.5
v -3 7 -1.5
v -2 7 -1.5
v 2 7 -1.5
v 3 7 -1.5
v 4 7 -1.5
v -3 7 -2.5
v -2 7 -2.5
v 2 7 -2.5
v 3 7 -2.5
v -2 7 -3.5
v 2 7 -3.5
v -4 8 1.5
v -3 8 1.5
v 3 8 1.5
v 4 8 1.5
v -4 8 0.5
v -3 8 0.5
v 3 8 0.5
v 4 8 0.5
v -3 9 2.5
v 0 9 2.5
v 2 9 2.5
v 3 9 2.5
v -3 9 1.5
v 0 9 1.5
v 2 9 1.5
v 3 9 1.5
v -3 6 2.5
v 3 6 2.5
v -3 6 1.5
v 3 6 1.5
v -4 6 0.5
v -3 6 0.5
v 3 6 0.5
v 4 6 0.5
v -4 6 -0.5
v -3 6 -0.5
v 3 6 -0.5
v 4 6 -0.5
v -3 6 -1.5
v -2 6 -1.5
v 2 6 -1.5
v 3 6 -1.5
v -2 6 -2.5
v 2 6 -2.5
v -3 6 -3.5
v 3 6 -3.5
v -3 10 2.5
v 0 10 2.5
v 2 10 2.5
v 3 10 2.5
v -4 10 1.5
v -3 10 1.5
v 0 10 1.5
v 1 10 1.5
v 2 10 1.5
v 3 10 1.5
v 4 10 1.5
v 0 10 0.5
v 1 10 0.5
v -4 10 -1.5
v -3 10 -1.5
v -2 10 -1.5
v 2 10 -1.5
v 3 10 -1.5
v 4 10 -1.5
v -3 10 -2.5
v -2 10 -2.5
v 2 10 -2.5
v 3 10 -2.5
v -2 10 -3.5
v 2 10 -3.5
v -3 11 1.5
v 0 11 1.5
v 1 11 1.5
v 3 11 1.5
v 0 11 0.5
v 1 11 0.5
v -3 11 -1.5
v -2 11 -1.5
v 2 11 -1.5
v 3 11 -1.5
v -2 11 -2.5
v 2 11 -2.5

# faces
f 3/6/1 2/6/1 1/6/1
f 4/6/1 2/6/1 3/6/1
f 5/1/1 4/1/1 3/1/1
f 6/1/1 4/1/1 5/1/1
f 7/6/1 6/6/1 5/6/1
f 8/6/1 6/6/1 7/6/1
f 13/3/1 10/3/1 9/3/1
f 14/8/1 11/8/1 10/8/1
f 14/3/1 10/3/1 13/3/1
f 15/8/1 13/8/1 12/8/1
f 15/8/1 14/8/1 13/8/1
f 16/8/1 11/8/1 14/8/1
f 16/8/1 14/8/1 15/8/1
f 20/1/1 18/1/1 17/1/1
f 21/1/1 18/1/1 20/1/1
f 22/1/1 18/1/1 21/1/1
f 23/1/1 18/1/1 22/1/1
f 26/4/1 20/4/1 19/4/1
f 26/4/1 21/4/1 20/4/1
f 27/4/1 21/4/1 26/4/1
f 28/4/1 24/4/1 23/4/1
f 28/4/1 23/4/1 22/4/1
f 29/2/1 25/2/1 24/2/1
f 29/4/1 24/4/1 28/4/1
f 30/5/1 27/5/1 26/5/1
f 31/5/1 27/5/1 30/5/1
f 32/5/1 29/5/1 28/5/1
f 33/2/1 25/2/1 29/2/1
f 33/5/1 29/5/1 32/5/1
f 34/2/1 31/2/1 30/2/1
f 35/2/1 31/2/1 34/2/1
f 36/2/1 31/2/1 35/2/1
f 37/2/1 33/2/1 32/2/1
f 38/2/1 33/2/1 37/2/1
f 39/2/1 25/2/1 33/2/1
f 39/2/1 33/2/1 38/2/1
f 40/1/1 38/1/1 37/1/1
f 40/1/1 36/1/1 35/1/1
f 40/1/1 37/1/1 36/1/1
f 41/1/1 38/1/1 40/1/1
f 42/1/1 38/1/1 41/1/1
f 43/1/1 38/1/1 42/1/1
f 45/8/1 41/8/1 40/8/1
f 46/8/1 41/8/1 45/8/1
f 49/8/1 48/8/1 47/8/1
f 50/8/1 48/8/1 49/8/1
f 51/8/1 44/8/1 43/8/1
f 52/8/1 44/8/1 51/8/1
f 53/8/1 51/8/1 50/8/1
f 54/8/1 51/8/1 53/8/1
f 57/6/1 56/6/1 55/6/1
f 58/6/1 56/6/1 57/6/1
f 61/2/1 60/2/1 59/2/1
f 62/2/1 60/2/1 61/2/1
f 65/1/1 64/1/1 63/1/1
f 66/1/1 64/1/1 65/1/1
f 69/8/1 67/8/1 66/8/1
f 70/8/1 67/8/1 69/8/1
f 71/8/1 69/8/1 68/8/1
f 72/8/1 69/8/1 71/8/1
f 75/2/1 74/2/1 73/2/1
f 76/2/1 74/2/1 75/2/1
f 80/6/1 78/6/1 77/6/1
f 81/6/1 78/6/1 80/6/1
f 83/1/1 80/1/1 79/1/1
f 83/1/1 82/1/1 81/1/1
f 83/1/1 81/1/1 80/1/1
f 84/1/1 82/1/1 83/1/1
f 87/8/1 86/8/1 85/8/1
f 88/8/1 86/8/1 87/8/1
f 91/2/1 90/2/1 89/2/1
f 92/2/1 90/2/1 91/2/1
f 95/8/1 94/8/1 93/8/1
f 96/8/1 94/8/1 95/8/1
f 97/6/2 98/6/2 100/6/2
f 100/6/2 98/6/2 101/6/2
f 99/1/2 100/1/2 105/1/2
f 100/1/2 101/1/2 105/1/2
f 101/1/2 102/1/2 105/1/2
f 105/1/2 102/1/2 106/1/2
f 103/2/2 104/2/2 107/2/2
f 107/2/2 104/2/2 108/2/2
f 109/8/2 110/8/2 111/8/2
f 111/8/2 110/8/2 112/8/2
f 112/8/2 113/8/2 114/8/2
f 114/8/2 113/8/2 115/8/2
f 116/2/2 117/2/2 118/2/2
f 118/2/2 117/2/2 119/2/2
f 120/6/2 121/6/2 122/6/2
f 122/6/2 121/6/2 123/6/2
f 124/1/2 125/1/2 126/1/2
f 126/1/2 125/1/2 127/1/2
f 127/8/2 128/8/2 130/8/2
f 130/8/2 128/8/2 131/8/2
f 129/8/2 130/8/2 132/8/2
f 132/8/2 130/8/2 133/8/2
f 134/1/2 135/1/2 139/1/2
f 139/1/2 135/1/2 140/1/2
f 140/1/2 135/1/2 141/1/2
f 141/1/2 135/1/2 142/1/2
f 136/2/2 137/2/2 143/2/2
f 138/4/2 139/4/2 144/4/2
f 139/4/2 140/4/2 144/4/2
f 144/4/2 140/4/2 145/4/2
f 141/4/2 142/4/2 146/4/2
f 142/4/2 143/4/2 146/4/2
f 143/2/2 137/2/2 147/2/2
f 146/4/2 143/4/2 147/4/2
f 144/5/2 145/5/2 148/5/2
f 146/5/2 147/5/2 149/5/2
f 144/5/2 148/5/2 150/5/2
f 150/5/2 148/5/2 151/5/2
f 149/5/2 147/5/2 152/5/2
f 147/2/2 137/2/2 153/2/2
f 152/5/2 147/5/2 153/5/2
f 150/2/2 151/2/2 154/2/2
f 154/2/2 151/2/2 155/2/2
f 155/2/2 151/2/2 156/2/2
f 152/2/2 153/2/2 157/2/2
f 157/2/2 153/2/2 158/2/2
f 153/2/2 137/2/2 159/2/2
f 158/2/2 153/2/2 159/2/2
f 157/1/2 158/1/2 160/1/2
f 155/1/2 156/1/2 160/1/2
f 156/1/2 157/1/2 160/1/2
f 160/1/2 158/1/2 161/1/2
f 161/1/2 158/1/2 162/1/2
f 162/1/2 158/1/2 163/1/2
f 160/8/2 161/8/2 165/8/2
f 165/8/2 161/8/2 166/8/2
f 167/8/2 168/8/2 169/8/2
f 169/8/2 168/8/2 170/8/2
f 163/8/2 164/8/2 171/8/2
f 171/8/2 164/8/2 172/8/2
f 170/8/2 171/8/2 173/8/2
f 173/8/2 171/8/2 174/8/2
f 175/6/2 176/6/2 177/6/2
f 177/6/2 176/6/2 178/6/2
f 177/1/2 178/1/2 179/1/2
f 179/1/2 178/1/2 180/1/2
f 179/2/2 180/2/2 181/2/2
f 181/2/2 180/2/2 182/2/2
f 181/6/2 182/6/2 183/6/2
f 183/6/2 182/6/2 184/6/2
f 185/3/2 186/3/2 189/3/2
f 186/8/2 187/8/2 190/8/2
f 189/3/2 186/3/2 190/3/2
f 188/8/2 189/8/2 191/8/2
f 189/8/2 190/8/2 191/8/2
f 190/8/2 187/8/2 192/8/2
f 191/8/2 190/8/2 192/8/2
f 199/4/3 194/4/3 193/4/3
f 199/5/3 195/5/3 194/5/3
f 200/2/3 196/2/3 195/2/3
f 200/5/3 195/5/3 199/5/3
f 201/4/3 199/4/3 193/4/3
f 201/8/3 200/8/3 199/8/3
f 202/2/3 196/2/3 200/2/3
f 202/8/3 200/8/3 201/8/3
f 203/8/3 198/8/3 197/8/3
f 204/8/3 198/8/3 203/8/3
f 205/5/3 202/5/3 201/5/3
f 206/2/3 196/2/3 202/2/3
f 206/5/3 202/5/3 205/5/3
f 207/5/3 205/5/3 201/5/3
f 207/8/3 206/8/3 205/8/3
f 208/2/3 196/2/3 206/2/3
f 208/8/3 206/8/3 207/8/3
f 211/4/3 201/4/3 193/4/3
f 212/5/3 207/5/3 201/5/3
f 212/4/3 201/4/3 211/4/3
f 212/5/3 208/5/3 207/5/3
f 213/2/3 196/2/3 208/2/3
f 213/5/3 208/5/3 212/5/3
f 214/2/3 196/2/3 213/2/3
f 215/8/3 210/8/3 209/8/3
f 216/8/3 210/8/3 215/8/3
f 223/8/3 218/8/3 217/8/3
f 224/8/3 218/8/3 223/8/3
f 225/8/3 218/8/3 224/8/3
f 227/1/3 222/1/3 221/1/3
f 227/8/3 223/8/3 222/8/3
f 228/1/3 224/1/3 223/1/3
f 228/8/3 223/8/3 227/8/3
f 229/1/3 220/1/3 219/1/3
f 230/1/3 220/1/3 229/1/3
f 231/1/3 227/1/3 221/1/3
f 231/7/3 228/7/3 227/7/3
f 232/1/3 224/1/3 228/1/3
f 232/7/3 228/7/3 231/7/3
f 233/1/3 224/1/3 232/1/3
f 234/8/3 226/8/3 225/8/3
f 235/8/3 226/8/3 234/8/3
f 238/1/3 231/1/3 221/1/3
f 238/8/3 232/8/3 231/8/3
f 239/1/3 233/1/3 232/1/3
f 239/8/3 232/8/3 238/8/3
f 239/1/3 234/1/3 233/1/3
f 240/1/3 234/1/3 239/1/3
f 242/1/3 238/1/3 221/1/3
f 242/7/3 239/7/3 238/7/3
f 243/1/3 240/1/3 239/1/3
f 243/7/3 239/7/3 242/7/3
f 244/1/3 240/1/3 243/1/3
f 245/8/3 241/8/3 240/8/3
f 245/1/3 240/1/3 244/1/3
f 246/1/3 237/1/3 236/1/3
f 247/1/3 237/1/3 246/1/3
f 248/1/3 242/1/3 221/1/3
f 249/8/3 243/8/3 242/8/3
f 249/1/3 242/1/3 248/1/3
f 250/1/3 244/1/3 243/1/3
f 250/8/3 243/8/3 249/8/3
f 251/1/3 244/1/3 250/1/3
f 252/8/3 241/8/3 245/8/3
f 253/8/3 241/8/3 252/8/3
f 254/8/3 251/8/3 250/8/3
f 254/8/3 252/8/3 251/8/3
f 255/8/3 252/8/3 254/8/3
f 262/6/3 257/6/3 256/6/3
f 263/1/3 258/1/3 257/1/3
f 263/6/3 257/6/3 262/6/3
f 264/6/3 259/6/3 258/6/3
f 264/1/3 258/1/3 263/1/3
f 265/6/3 259/6/3 264/6/3
f 266/3/3 261/3/3 260/3/3
f 267/3/3 261/3/3 266/3/3
f 270/6/3 269/6/3 268/6/3
f 271/6/3 269/6/3 270/6/3
f 276/8/3 273/8/3 272/8/3
f 277/8/3 273/8/3 276/8/3
f 278/6/3 275/6/3 274/6/3
f 279/6/3 275/6/3 278/6/3
f 287/6/3 281/6/3 280/6/3
f 288/1/3 282/1/3 281/1/3
f 288/6/3 281/6/3 287/6/3
f 289/2/3 283/2/3 282/2/3
f 289/1/3 282/1/3 288/1/3
f 290/6/3 284/6/3 283/6/3
f 290/2/3 283/2/3 289/2/3
f 291/6/3 284/6/3 290/6/3
f 292/3/3 286/3/3 285/3/3
f 293/3/3 286/3/3 292/3/3
f 296/2/3 295/2/3 294/2/3
f 297/2/3 295/2/3 296/2/3
f 300/2/3 299/2/3 298/2/3
f 301/2/3 299/2/3 300/2/3
f 304/2/3 303/2/3 302/2/3
f 305/2/3 303/2/3 304/2/3
f 306/6/4 307/6/4 310/6/4
f 307/1/4 308/1/4 311/1/4
f 310/6/4 307/6/4 311/6/4
f 308/6/4 309/6/4 312/6/4
f 311/1/4 308/1/4 312/1/4
f 312/6/4 309/6/4 313/6/4
f 314/6/4 315/6/4 316/6/4
f 316/6/4 315/6/4 317/6/4
f 318/6/4 319/6/4 320/6/4
f 320/6/4 319/6/4 321/6/4
f 322/6/4 323/6/4 327/6/4
f 323/1/4 324/1/4 328/1/4
f 327/6/4 323/6/4 328/6/4
f 324/2/4 325/2/4 329/2/4
f 328/1/4 324/1/4 329/1/4
f 325/6/4 326/6/4 330/6/4
f 329/2/4 325/2/4 330/2/4
f 330/6/4 326/6/4 331/6/4
f 332/8/4 333/8/4 337/8/4
f 337/8/4 333/8/4 338/8/4
f 336/1/4 337/1/4 340/1/4
f 340/1/4 337/1/4 341/1/4
f 338/8/4 339/8/4 342/8/4
f 342/8/4 339/8/4 343/8/4
f 334/1/4 335/1/4 344/1/4
f 344/1/4 335/1/4 345/1/4
f 346/1/4 347/1/4 352/1/4
f 352/1/4 347/1/4 353/1/4
f 348/1/4 349/1/4 354/1/4
f 354/1/4 349/1/4 355/1/4
f 350/8/4 351/8/4 356/8/4
f 356/8/4 351/8/4 357/8/4
f 355/8/4 356/8/4 358/8/4
f 358/8/4 356/8/4 359/8/4
f 360/8/4 361/8/4 363/8/4
f 363/8/4 361/8/4 364/8/4
f 362/1/4 363/1/4 366/1/4
f 366/1/4 363/1/4 367/1/4
f 364/8/4 365/8/4 368/8/4
f 368/8/4 365/8/4 369/8/4
f 367/8/4 368/8/4 370/8/4
f 370/8/4 368/8/4 371/8/4
f 372/2/4 373/2/4 375/2/4
f 374/2/4 375/2/4 378/2/4
f 375/2/4 373/2/4 379/2/4
f 378/2/4 375/2/4 379/2/4
f 379/2/4 373/2/4 381/2/4
f 380/2/4 381/2/4 382/2/4
f 381/2/4 373/2/4 383/2/4
f 382/2/4 381/2/4 383/2/4
f 383/2/4 373/2/4 385/2/4
f 376/8/4 377/8/4 386/8/4
f 386/8/4 377/8/4 387/8/4
f 384/2/4 385/2/4 388/2/4
f 385/2/4 373/2/4 389/2/4
f 388/2/4 385/2/4 389/2/4
f 394/6/5 391/6/5 390/6/5
f 395/6/5 391/6/5 394/6/5
f 396/6/5 393/6/5 392/6/5
f 397/6/5 393/6/5 396/6/5
f 402/1/5 399/1/5 398/1/5
f 403/1/5 399/1/5 402/1/5
f 404/1/5 401/1/5 400/1/5
f 405/1/5 401/1/5 404/1/5
f 406/1/5 402/1/5 398/1/5
f 409/1/5 401/1/5 405/1/5
f 410/1/5 407/1/5 406/1/5
f 410/1/5 406/1/5 398/1/5
f 411/1/5 407/1/5 410/1/5
f 412/1/5 409/1/5 408/1/5
f 413/1/5 401/1/5 409/1/5
f 413/1/5 409/1/5 412/1/5
f 420/2/5 415/2/5 414/2/5
f 421/2/5 415/2/5 420/2/5
f 422/2/5 417/2/5 416/2/5
f 423/2/5 417/2/5 422/2/5
f 424/2/5 419/2/5 418/2/5
f 425/2/5 419/2/5 424/2/5
f 428/4/5 427/4/5 426/4/5
f 429/4/5 427/4/5 428/4/5
f 430/4/5 427/4/5 429/4/5
f 431/4/5 427/4/5 430/4/5
f 436/6/5 433/6/5 432/6/5
f 437/6/5 433/6/5 436/6/5
f 438/6/5 435/6/5 434/6/5
f 439/6/5 435/6/5 438/6/5
f 441/6/5 430/6/5 429/6/5
f 442/6/5 430/6/5 441/6/5
f 444/4/5 441/4/5 440/4/5
f 444/4/5 443/4/5 442/4/5
f 444/4/5 442/4/5 441/4/5
f 445/4/5 443/4/5 444/4/5
f 446/4/5 443/4/5 445/4/5
f 447/4/5 443/4/5 446/4/5
f 448/4/5 443/4/5 447/4/5
f 449/4/5 443/4/5 448/4/5
f 450/4/5 443/4/5 449/4/5
f 451/2/5 445/2/5 444/2/5
f 452/2/5 445/2/5 451/2/5
f 453/2/5 447/2/5 446/2/5
f 454/2/5 447/2/5 453/2/5
f 455/2/5 449/2/5 448/2/5
f 456/2/5 449/2/5 455/2/5
f 461/3/5 458/3/5 457/3/5
f 462/3/5 458/3/5 461/3/5
f 463/3/5 460/3/5 459/3/5
f 464/3/5 460/3/5 463/3/5
f 465/8/5 462/8/5 461/8/5
f 466/8/5 462/8/5 465/8/5
f 469/8/5 464/8/5 463/8/5
f 470/8/5 464/8/5 469/8/5
f 471/8/5 467/8/5 466/8/5
f 472/8/5 467/8/5 471/8/5
f 473/8/5 469/8/5 468/8/5
f 474/8/5 469/8/5 473/8/5
f 475/8/5 473/8/5 472/8/5
f 476/8/5 473/8/5 475/8/5
f 481/8/5 478/8/5 477/8/5
f 482/8/5 478/8/5 481/8/5
f 483/8/5 480/8/5 479/8/5
f 484/8/5 480/8/5 483/8/5
f 489/8/5 486/8/5 485/8/5
f 490/8/5 486/8/5 489/8/5
f 491/8/5 488/8/5 487/8/5
f 492/8/5 488/8/5 491/8/5
f 493/2/6 494/2/6 495/2/6
f 495/2/6 494/2/6 496/2/6
f 497/6/6 498/6/6 501/6/6
f 501/6/6 498/6/6 502/6/6
f 499/6/6 500/6/6 503/6/6
f 503/6/6 500/6/6 504/6/6
f 505/2/6 506/2/6 509/2/6
f 507/2/6 508/2/6 510/2/6
f 505/2/6 509/2/6 511/2/6
f 509/2/6 510/2/6 511/2/6
f 510/2/6 508/2/6 512/2/6
f 511/2/6 510/2/6 512/2/6
f 513/8/6 514/8/6 518/8/6
f 518/8/6 514/8/6 519/8/6
f 515/8/6 516/8/6 521/8/6
f 521/8/6 516/8/6 522/8/6
f 519/1/6 520/1/6 524/1/6
f 524/1/6 520/1/6 525/1/6
f 517/8/6 518/8/6 526/8/6
f 526/8/6 518/8/6 527/8/6
f 522/8/6 523/8/6 530/8/6
f 530/8/6 523/8/6 531/8/6
f 527/8/6 528/8/6 532/8/6
f 532/8/6 528/8/6 533/8/6
f 529/8/6 530/8/6 534/8/6
f 534/8/6 530/8/6 535/8/6
f 533/8/6 534/8/6 536/8/6
f 536/8/6 534/8/6 537/8/6
f 538/8/6 539/8/6 542/8/6
f 540/8/6 541/8/6 543/8/6
f 538/8/6 542/8/6 544/8/6
f 542/8/6 543/8/6 544/8/6
f 544/8/6 543/8/6 545/8/6
f 543/8/6 541/8/6 546/8/6
f 545/8/6 543/8/6 546/8/6
f 546/8/6 541/8/6 547/8/6
f 545/8/6 546/8/6 548/8/6
f 548/8/6 546/8/6 549/8/6
