# MagicaVoxel @ Ephtracy

# material
mtllib chr_suit3.mtl
usemtl palette

# normals
vn -1 0 0
vn 1 0 0
vn 0 0 1
vn 0 0 -1
vn 0 -1 0
vn 0 1 0

# texcoords
vt 0.537109 0.5
vt 0.962891 0.5
vt 0.970703 0.5
vt 0.978516 0.5
vt 0.986328 0.5
vt 0.990234 0.5
vt 0.994141 0.5

# verts
v -4 2 1
v -4 2 -0
v -4 3 1
v -4 3 -0
v -4 6 1
v -4 6 -0
v -4 7 1
v -4 7 -0
v -4 8 1
v -4 8 -0
v -3 1 2
v -3 1 -1
v -3 2 3
v -3 2 2
v -3 2 1
v -3 2 -0
v -3 2 -1
v -3 2 -2
v -3 3 1
v -3 3 -0
v -3 6 3
v -3 6 2
v -3 6 1
v -3 6 -0
v -3 6 -1
v -3 6 -2
v -3 7 1
v -3 7 -0
v -3 8 1
v -3 8 -0
v -3 10 2
v -3 10 -1
v -2 0 1
v -2 0 -0
v -2 1 1
v -2 1 -0
v -2 6 -1
v -2 6 -2
v -2 10 -1
v -2 10 -2
v -1 7 -2
v -1 7 -3
v -1 9 3
v -1 9 2
v -1 10 2
v -1 10 -2
v -1 10 -3
v -1 11 3
v -1 11 -2
v 1 0 1
v 1 0 -0
v 1 1 2
v 1 1 1
v 1 1 -0
v 1 1 -1
v 1 2 2
v 1 2 -1
v -1 0 1
v -1 0 -0
v -1 1 2
v -1 1 1
v -1 1 -0
v -1 1 -1
v -1 2 2
v -1 2 -1
v 1 7 -2
v 1 7 -3
v 1 9 3
v 1 9 2
v 1 10 2
v 1 10 -2
v 1 10 -3
v 1 11 3
v 1 11 -2
v 2 0 1
v 2 0 -0
v 2 1 1
v 2 1 -0
v 2 6 -1
v 2 6 -2
v 2 10 -1
v 2 10 -2
v 3 1 2
v 3 1 -1
v 3 2 3
v 3 2 2
v 3 2 1
v 3 2 -0
v 3 2 -1
v 3 2 -2
v 3 3 1
v 3 3 -0
v 3 6 3
v 3 6 2
v 3 6 1
v 3 6 -0
v 3 6 -1
v 3 6 -2
v 3 7 1
v 3 7 -0
v 3 8 1
v 3 8 -0
v 3 10 2
v 3 10 -1
v 4 2 1
v 4 2 -0
v 4 3 1
v 4 3 -0
v 4 6 1
v 4 6 -0
v 4 7 1
v 4 7 -0
v 4 8 1
v 4 8 -0
v -3 2 3
v -3 6 3
v -2 4 3
v -2 6 3
v -1 3 3
v -1 4 3
v -1 6 3
v -1 9 3
v -1 11 3
v 1 3 3
v 1 4 3
v 1 6 3
v 1 9 3
v 1 11 3
v 2 4 3
v 2 6 3
v 3 2 3
v 3 6 3
v -3 1 2
v -3 2 2
v -3 6 2
v -3 10 2
v -2 6 2
v -2 7 2
v -2 8 2
v -1 1 2
v -1 2 2
v -1 6 2
v -1 7 2
v -1 8 2
v -1 9 2
v -1 10 2
v 1 1 2
v 1 2 2
v 1 6 2
v 1 7 2
v 1 8 2
v 1 9 2
v 1 10 2
v 2 6 2
v 2 7 2
v 2 8 2
v 3 1 2
v 3 2 2
v 3 6 2
v 3 10 2
v -4 2 1
v -4 3 1
v -4 6 1
v -4 7 1
v -4 8 1
v -3 2 1
v -3 3 1
v -3 6 1
v -3 7 1
v -3 8 1
v -2 0 1
v -2 1 1
v -1 0 1
v -1 1 1
v 1 0 1
v 1 1 1
v 2 0 1
v 2 1 1
v 3 2 1
v 3 3 1
v 3 6 1
v 3 7 1
v 3 8 1
v 4 2 1
v 4 3 1
v 4 6 1
v 4 7 1
v 4 8 1
v -4 2 -0
v -4 3 -0
v -4 6 -0
v -4 7 -0
v -4 8 -0
v -3 2 -0
v -3 3 -0
v -3 6 -0
v -3 7 -0
v -3 8 -0
v -2 0 -0
v -2 1 -0
v -1 0 -0
v -1 1 -0
v 1 0 -0
v 1 1 -0
v 2 0 -0
v 2 1 -0
v 3 2 -0
v 3 3 -0
v 3 6 -0
v 3 7 -0
v 3 8 -0
v 4 2 -0
v 4 3 -0
v 4 6 -0
v 4 7 -0
v 4 8 -0
v -3 1 -1
v -3 2 -1
v -3 6 -1
v -3 10 -1
v -2 6 -1
v -2 10 -1
v -1 1 -1
v -1 2 -1
v 1 1 -1
v 1 2 -1
v 2 6 -1
v 2 10 -1
v 3 1 -1
v 3 2 -1
v 3 6 -1
v 3 10 -1
v -3 2 -2
v -3 6 -2
v -2 6 -2
v -2 10 -2
v -1 7 -2
v -1 10 -2
v -1 11 -2
v 1 7 -2
v 1 10 -2
v 1 11 -2
v 2 6 -2
v 2 10 -2
v 3 2 -2
v 3 6 -2
v -1 7 -3
v -1 10 -3
v 1 7 -3
v 1 10 -3
v -2 0 1
v -1 0 1
v 1 0 1
v 2 0 1
v -2 0 -0
v -1 0 -0
v 1 0 -0
v 2 0 -0
v -3 1 2
v -1 1 2
v 1 1 2
v 3 1 2
v -2 1 1
v -1 1 1
v 1 1 1
v 2 1 1
v -2 1 -0
v -1 1 -0
v 1 1 -0
v 2 1 -0
v -3 1 -1
v -1 1 -1
v 1 1 -1
v 3 1 -1
v -3 2 3
v 3 2 3
v -3 2 2
v -1 2 2
v 1 2 2
v 3 2 2
v -4 2 1
v -3 2 1
v 3 2 1
v 4 2 1
v -4 2 -0
v -3 2 -0
v 3 2 -0
v 4 2 -0
v -3 2 -1
v -1 2 -1
v 1 2 -1
v 3 2 -1
v -3 2 -2
v 3 2 -2
v -4 7 1
v -3 7 1
v 3 7 1
v 4 7 1
v -4 7 -0
v -3 7 -0
v 3 7 -0
v 4 7 -0
v -1 7 -2
v 1 7 -2
v -1 7 -3
v 1 7 -3
v -1 9 3
v 1 9 3
v -1 9 2
v 1 9 2
v -3 6 3
v -2 6 3
v -1 6 3
v 1 6 3
v 2 6 3
v 3 6 3
v -3 6 2
v -2 6 2
v -1 6 2
v 1 6 2
v 2 6 2
v 3 6 2
v -4 6 1
v -3 6 1
v 3 6 1
v 4 6 1
v -4 6 -0
v -3 6 -0
v 3 6 -0
v 4 6 -0
v -3 6 -1
v -2 6 -1
v 2 6 -1
v 3 6 -1
v -3 6 -2
v -2 6 -2
v 2 6 -2
v 3 6 -2
v -4 8 1
v -3 8 1
v 3 8 1
v 4 8 1
v -4 8 -0
v -3 8 -0
v 3 8 -0
v 4 8 -0
v -3 10 2
v -1 10 2
v 1 10 2
v 3 10 2
v -3 10 -1
v -2 10 -1
v 2 10 -1
v 3 10 -1
v -2 10 -2
v -1 10 -2
v 1 10 -2
v 2 10 -2
v -1 10 -3
v 1 10 -3
v -1 11 3
v 1 11 3
v -1 11 -2
v 1 11 -2

# faces
f 3/1/1 2/1/1 1/1/1
f 4/1/1 2/1/1 3/1/1
f 5/5/1 4/5/1 3/5/1
f 6/5/1 4/5/1 5/5/1
f 9/1/1 8/1/1 7/1/1
f 10/1/1 8/1/1 9/1/1
f 14/3/1 12/3/1 11/3/1
f 15/3/1 12/3/1 14/3/1
f 16/3/1 12/3/1 15/3/1
f 17/3/1 12/3/1 16/3/1
f 19/5/1 14/5/1 13/5/1
f 19/5/1 15/5/1 14/5/1
f 20/5/1 18/5/1 17/5/1
f 20/5/1 17/5/1 16/5/1
f 21/5/1 19/5/1 13/5/1
f 22/5/1 19/5/1 21/5/1
f 23/5/1 19/5/1 22/5/1
f 24/5/1 18/5/1 20/5/1
f 25/5/1 18/5/1 24/5/1
f 26/5/1 18/5/1 25/5/1
f 27/1/1 23/1/1 22/1/1
f 27/1/1 25/1/1 24/1/1
f 27/1/1 24/1/1 23/1/1
f 28/1/1 25/1/1 27/1/1
f 29/1/1 27/1/1 22/1/1
f 30/1/1 25/1/1 28/1/1
f 31/1/1 29/1/1 22/1/1
f 31/1/1 30/1/1 29/1/1
f 32/1/1 25/1/1 30/1/1
f 32/1/1 30/1/1 31/1/1
f 35/6/1 34/6/1 33/6/1
f 36/6/1 34/6/1 35/6/1
f 39/1/1 38/1/1 37/1/1
f 40/1/1 38/1/1 39/1/1
f 45/6/1 44/6/1 43/6/1
f 46/6/1 42/6/1 41/6/1
f 47/6/1 42/6/1 46/6/1
f 48/6/1 45/6/1 43/6/1
f 48/6/1 46/6/1 45/6/1
f 49/6/1 46/6/1 48/6/1
f 53/6/1 51/6/1 50/6/1
f 54/6/1 51/6/1 53/6/1
f 56/3/1 53/3/1 52/3/1
f 56/3/1 55/3/1 54/3/1
f 56/3/1 54/3/1 53/3/1
f 57/3/1 55/3/1 56/3/1
f 58/6/2 59/6/2 61/6/2
f 61/6/2 59/6/2 62/6/2
f 60/3/2 61/3/2 64/3/2
f 62/3/2 63/3/2 64/3/2
f 61/3/2 62/3/2 64/3/2
f 64/3/2 63/3/2 65/3/2
f 68/6/2 69/6/2 70/6/2
f 66/6/2 67/6/2 71/6/2
f 71/6/2 67/6/2 72/6/2
f 68/6/2 70/6/2 73/6/2
f 70/6/2 71/6/2 73/6/2
f 73/6/2 71/6/2 74/6/2
f 75/6/2 76/6/2 77/6/2
f 77/6/2 76/6/2 78/6/2
f 79/1/2 80/1/2 81/1/2
f 81/1/2 80/1/2 82/1/2
f 83/3/2 84/3/2 86/3/2
f 86/3/2 84/3/2 87/3/2
f 87/3/2 84/3/2 88/3/2
f 88/3/2 84/3/2 89/3/2
f 85/5/2 86/5/2 91/5/2
f 86/5/2 87/5/2 91/5/2
f 89/5/2 90/5/2 92/5/2
f 88/5/2 89/5/2 92/5/2
f 85/5/2 91/5/2 93/5/2
f 93/5/2 91/5/2 94/5/2
f 94/5/2 91/5/2 95/5/2
f 92/5/2 90/5/2 96/5/2
f 96/5/2 90/5/2 97/5/2
f 97/5/2 90/5/2 98/5/2
f 94/1/2 95/1/2 99/1/2
f 96/1/2 97/1/2 99/1/2
f 95/1/2 96/1/2 99/1/2
f 99/1/2 97/1/2 100/1/2
f 94/1/2 99/1/2 101/1/2
f 100/1/2 97/1/2 102/1/2
f 94/1/2 101/1/2 103/1/2
f 101/1/2 102/1/2 103/1/2
f 102/1/2 97/1/2 104/1/2
f 103/1/2 102/1/2 104/1/2
f 105/1/2 106/1/2 107/1/2
f 107/1/2 106/1/2 108/1/2
f 107/5/2 108/5/2 109/5/2
f 109/5/2 108/5/2 110/5/2
f 111/1/2 112/1/2 113/1/2
f 113/1/2 112/1/2 114/1/2
f 117/5/3 116/5/3 115/5/3
f 118/5/3 116/5/3 117/5/3
f 119/5/3 117/5/3 115/5/3
f 120/4/3 118/4/3 117/4/3
f 120/5/3 117/5/3 119/5/3
f 121/4/3 118/4/3 120/4/3
f 124/2/3 121/2/3 120/2/3
f 124/5/3 119/5/3 115/5/3
f 124/2/3 120/2/3 119/2/3
f 125/2/3 121/2/3 124/2/3
f 126/2/3 121/2/3 125/2/3
f 127/6/3 123/6/3 122/6/3
f 128/6/3 123/6/3 127/6/3
f 129/4/3 126/4/3 125/4/3
f 129/5/3 125/5/3 124/5/3
f 130/4/3 126/4/3 129/4/3
f 131/5/3 124/5/3 115/5/3
f 131/5/3 129/5/3 124/5/3
f 131/5/3 130/5/3 129/5/3
f 132/5/3 130/5/3 131/5/3
f 137/1/3 136/1/3 135/1/3
f 138/1/3 136/1/3 137/1/3
f 139/1/3 136/1/3 138/1/3
f 140/3/3 134/3/3 133/3/3
f 141/3/3 134/3/3 140/3/3
f 142/1/3 138/1/3 137/1/3
f 143/7/3 139/7/3 138/7/3
f 143/1/3 138/1/3 142/1/3
f 144/1/3 136/1/3 139/1/3
f 144/7/3 139/7/3 143/7/3
f 145/1/3 136/1/3 144/1/3
f 146/1/3 136/1/3 145/1/3
f 149/1/3 143/1/3 142/1/3
f 149/1/3 144/1/3 143/1/3
f 149/1/3 145/1/3 144/1/3
f 150/1/3 145/1/3 149/1/3
f 151/1/3 145/1/3 150/1/3
f 152/1/3 145/1/3 151/1/3
f 154/1/3 150/1/3 149/1/3
f 155/7/3 151/7/3 150/7/3
f 155/1/3 150/1/3 154/1/3
f 156/1/3 153/1/3 152/1/3
f 156/7/3 151/7/3 155/7/3
f 156/1/3 152/1/3 151/1/3
f 157/3/3 148/3/3 147/3/3
f 158/3/3 148/3/3 157/3/3
f 159/1/3 155/1/3 154/1/3
f 159/1/3 156/1/3 155/1/3
f 160/1/3 153/1/3 156/1/3
f 160/1/3 156/1/3 159/1/3
f 166/1/3 162/1/3 161/1/3
f 167/5/3 163/5/3 162/5/3
f 167/1/3 162/1/3 166/1/3
f 168/5/3 163/5/3 167/5/3
f 169/1/3 165/1/3 164/1/3
f 170/1/3 165/1/3 169/1/3
f 173/6/3 172/6/3 171/6/3
f 174/6/3 172/6/3 173/6/3
f 177/6/3 176/6/3 175/6/3
f 178/6/3 176/6/3 177/6/3
f 184/1/3 180/1/3 179/1/3
f 185/5/3 181/5/3 180/5/3
f 185/1/3 180/1/3 184/1/3
f 186/5/3 181/5/3 185/5/3
f 187/1/3 183/1/3 182/1/3
f 188/1/3 183/1/3 187/1/3
f 189/1/4 190/1/4 194/1/4
f 190/5/4 191/5/4 195/5/4
f 194/1/4 190/1/4 195/1/4
f 195/5/4 191/5/4 196/5/4
f 192/1/4 193/1/4 197/1/4
f 197/1/4 193/1/4 198/1/4
f 199/6/4 200/6/4 201/6/4
f 201/6/4 200/6/4 202/6/4
f 203/6/4 204/6/4 205/6/4
f 205/6/4 204/6/4 206/6/4
f 207/1/4 208/1/4 212/1/4
f 208/5/4 209/5/4 213/5/4
f 212/1/4 208/1/4 213/1/4
f 213/5/4 209/5/4 214/5/4
f 210/1/4 211/1/4 215/1/4
f 215/1/4 211/1/4 216/1/4
f 219/1/4 220/1/4 221/1/4
f 221/1/4 220/1/4 222/1/4
f 217/3/4 218/3/4 223/3/4
f 223/3/4 218/3/4 224/3/4
f 225/3/4 226/3/4 229/3/4
f 229/3/4 226/3/4 230/3/4
f 227/1/4 228/1/4 231/1/4
f 231/1/4 228/1/4 232/1/4
f 233/5/4 234/5/4 235/5/4
f 235/1/4 236/1/4 237/1/4
f 237/1/4 236/1/4 238/1/4
f 235/1/4 237/1/4 240/1/4
f 238/6/4 239/6/4 241/6/4
f 241/6/4 239/6/4 242/6/4
f 233/5/4 235/5/4 243/5/4
f 235/1/4 240/1/4 243/1/4
f 240/1/4 241/1/4 243/1/4
f 243/1/4 241/1/4 244/1/4
f 233/5/4 243/5/4 245/5/4
f 245/5/4 243/5/4 246/5/4
f 247/6/4 248/6/4 249/6/4
f 249/6/4 248/6/4 250/6/4
f 255/6/5 252/6/5 251/6/5
f 256/6/5 252/6/5 255/6/5
f 257/6/5 254/6/5 253/6/5
f 258/6/5 254/6/5 257/6/5
f 263/3/5 260/3/5 259/3/5
f 264/3/5 260/3/5 263/3/5
f 265/3/5 262/3/5 261/3/5
f 266/3/5 262/3/5 265/3/5
f 267/3/5 263/3/5 259/3/5
f 270/3/5 262/3/5 266/3/5
f 271/3/5 268/3/5 267/3/5
f 271/3/5 267/3/5 259/3/5
f 272/3/5 268/3/5 271/3/5
f 273/3/5 270/3/5 269/3/5
f 274/3/5 262/3/5 270/3/5
f 274/3/5 270/3/5 273/3/5
f 277/5/5 276/5/5 275/5/5
f 278/5/5 276/5/5 277/5/5
f 279/5/5 276/5/5 278/5/5
f 280/5/5 276/5/5 279/5/5
f 285/1/5 282/1/5 281/1/5
f 286/1/5 282/1/5 285/1/5
f 287/1/5 284/1/5 283/1/5
f 288/1/5 284/1/5 287/1/5
f 290/3/5 279/3/5 278/3/5
f 291/3/5 279/3/5 290/3/5
f 293/5/5 290/5/5 289/5/5
f 293/5/5 292/5/5 291/5/5
f 293/5/5 291/5/5 290/5/5
f 294/5/5 292/5/5 293/5/5
f 299/1/5 296/1/5 295/1/5
f 300/1/5 296/1/5 299/1/5
f 301/1/5 298/1/5 297/1/5
f 302/1/5 298/1/5 301/1/5
f 305/6/5 304/6/5 303/6/5
f 306/6/5 304/6/5 305/6/5
f 309/6/5 308/6/5 307/6/5
f 310/6/5 308/6/5 309/6/5
f 311/5/6 312/5/6 317/5/6
f 312/4/6 313/4/6 318/4/6
f 317/5/6 312/5/6 318/5/6
f 313/2/6 314/2/6 319/2/6
f 318/4/6 313/4/6 319/4/6
f 314/4/6 315/4/6 320/4/6
f 319/2/6 314/2/6 320/2/6
f 315/5/6 316/5/6 321/5/6
f 320/4/6 315/4/6 321/4/6
f 321/5/6 316/5/6 322/5/6
f 323/5/6 324/5/6 327/5/6
f 327/5/6 324/5/6 328/5/6
f 325/5/6 326/5/6 329/5/6
f 329/5/6 326/5/6 330/5/6
f 331/5/6 332/5/6 335/5/6
f 335/5/6 332/5/6 336/5/6
f 333/5/6 334/5/6 337/5/6
f 337/5/6 334/5/6 338/5/6
f 339/1/6 340/1/6 343/1/6
f 343/1/6 340/1/6 344/1/6
f 341/1/6 342/1/6 345/1/6
f 345/1/6 342/1/6 346/1/6
f 347/1/6 348/1/6 351/1/6
f 351/1/6 348/1/6 352/1/6
f 349/1/6 350/1/6 353/1/6
f 353/1/6 350/1/6 354/1/6
f 352/1/6 348/1/6 355/1/6
f 355/1/6 348/1/6 356/1/6
f 349/1/6 353/1/6 357/1/6
f 357/1/6 353/1/6 358/1/6
f 356/6/6 357/6/6 359/6/6
f 359/6/6 357/6/6 360/6/6
f 361/6/6 362/6/6 363/6/6
f 363/6/6 362/6/6 364/6/6
