# MagicaVoxel @ Ephtracy

# material
mtllib chr_cop1.mtl
usemtl palette

# normals
vn -1 0 0
vn 1 0 0
vn 0 0 1
vn 0 0 -1
vn 0 -1 0
vn 0 1 0

# texcoords
vt 0.0332031 0.5
vt 0.0605469 0.5
vt 0.208984 0.5
vt 0.369141 0.5
vt 0.615234 0.5
vt 0.642578 0.5
vt 0.783203 0.5
vt 0.982422 0.5
vt 0.986328 0.5
vt 0.994141 0.5

# verts
v -4 2 -0
v -4 2 -1
v -4 4 -0
v -4 4 -1
v -4 5 -0
v -4 5 -1
v -4 6 -0
v -4 6 -1
v -4 7 -0
v -4 7 -1
v -4 8 -0
v -4 8 -1
v -3 1 1
v -3 1 -2
v -3 2 2
v -3 2 1
v -3 2 -0
v -3 2 -1
v -3 2 -2
v -3 2 -3
v -3 3 2
v -3 3 -0
v -3 3 -1
v -3 3 -3
v -3 4 -0
v -3 4 -1
v -3 5 -0
v -3 5 -1
v -3 6 2
v -3 6 1
v -3 6 -0
v -3 6 -1
v -3 6 -2
v -3 6 -3
v -3 7 -0
v -3 7 -1
v -3 7 -2
v -3 8 -0
v -3 8 -1
v -3 9 2
v -3 9 1
v -3 9 -0
v -3 9 -2
v -3 9 -3
v -3 10 2
v -3 10 1
v -3 11 1
v -3 11 -3
v -2 0 -0
v -2 0 -1
v -2 1 -0
v -2 1 -1
v -2 6 -2
v -2 6 -3
v -2 7 -2
v -2 7 -3
v -2 9 -2
v -2 9 -3
v -1 10 2
v -1 10 1
v -1 11 2
v -1 11 1
v 0 4 3
v 0 4 2
v 0 5 3
v 0 5 2
v 1 0 -0
v 1 0 -1
v 1 1 1
v 1 1 -0
v 1 1 -1
v 1 1 -2
v 1 2 1
v 1 2 -2
v -1 0 -0
v -1 0 -1
v -1 1 1
v -1 1 -0
v -1 1 -1
v -1 1 -2
v -1 2 1
v -1 2 -2
v 1 4 3
v 1 4 2
v 1 5 3
v 1 5 2
v 1 10 2
v 1 10 1
v 1 11 2
v 1 11 1
v 2 0 -0
v 2 0 -1
v 2 1 -0
v 2 1 -1
v 2 6 -2
v 2 6 -3
v 2 7 -2
v 2 7 -3
v 2 9 -2
v 2 9 -3
v 3 1 1
v 3 1 -2
v 3 2 2
v 3 2 1
v 3 2 -0
v 3 2 -1
v 3 2 -2
v 3 2 -3
v 3 3 2
v 3 3 1
v 3 3 -0
v 3 3 -1
v 3 3 -3
v 3 4 2
v 3 4 1
v 3 4 -0
v 3 4 -1
v 3 5 -0
v 3 5 -1
v 3 6 2
v 3 6 1
v 3 6 -0
v 3 6 -1
v 3 6 -2
v 3 6 -3
v 3 7 -0
v 3 7 -1
v 3 7 -2
v 3 8 -0
v 3 8 -1
v 3 9 2
v 3 9 1
v 3 9 -0
v 3 9 -2
v 3 9 -3
v 3 10 2
v 3 10 1
v 3 11 1
v 3 11 -3
v 4 2 -0
v 4 2 -1
v 4 4 -0
v 4 4 -1
v 4 5 -0
v 4 5 -1
v 4 6 -0
v 4 6 -1
v 4 7 -0
v 4 7 -1
v 4 8 -0
v 4 8 -1
v 0 4 3
v 0 5 3
v 1 4 3
v 1 5 3
v -3 2 2
v -3 3 2
v -3 6 2
v -3 9 2
v -3 10 2
v -1 3 2
v -1 6 2
v -1 10 2
v -1 11 2
v 0 3 2
v 0 4 2
v 0 5 2
v 0 6 2
v 1 3 2
v 1 4 2
v 1 5 2
v 1 10 2
v 1 11 2
v 2 4 2
v 2 5 2
v 3 2 2
v 3 3 2
v 3 4 2
v 3 6 2
v 3 9 2
v 3 10 2
v -3 1 1
v -3 2 1
v -3 6 1
v -3 9 1
v -3 10 1
v -3 11 1
v -2 7 1
v -2 8 1
v -1 1 1
v -1 2 1
v -1 6 1
v -1 7 1
v -1 8 1
v -1 10 1
v -1 11 1
v 0 6 1
v 1 1 1
v 1 2 1
v 1 7 1
v 1 8 1
v 1 10 1
v 1 11 1
v 2 7 1
v 2 8 1
v 3 1 1
v 3 2 1
v 3 6 1
v 3 9 1
v 3 10 1
v 3 11 1
v -4 2 -0
v -4 4 -0
v -4 5 -0
v -4 6 -0
v -4 7 -0
v -4 8 -0
v -3 2 -0
v -3 3 -0
v -3 4 -0
v -3 5 -0
v -3 6 -0
v -3 7 -0
v -3 8 -0
v -2 0 -0
v -2 1 -0
v -1 0 -0
v -1 1 -0
v 1 0 -0
v 1 1 -0
v 2 0 -0
v 2 1 -0
v 3 2 -0
v 3 3 -0
v 3 4 -0
v 3 5 -0
v 3 6 -0
v 3 7 -0
v 3 8 -0
v 4 2 -0
v 4 4 -0
v 4 5 -0
v 4 6 -0
v 4 7 -0
v 4 8 -0
v -4 2 -1
v -4 4 -1
v -4 5 -1
v -4 6 -1
v -4 7 -1
v -4 8 -1
v -3 2 -1
v -3 3 -1
v -3 4 -1
v -3 5 -1
v -3 6 -1
v -3 7 -1
v -3 8 -1
v -2 0 -1
v -2 1 -1
v -1 0 -1
v -1 1 -1
v 1 0 -1
v 1 1 -1
v 2 0 -1
v 2 1 -1
v 3 2 -1
v 3 3 -1
v 3 4 -1
v 3 5 -1
v 3 6 -1
v 3 7 -1
v 3 8 -1
v 4 2 -1
v 4 4 -1
v 4 5 -1
v 4 6 -1
v 4 7 -1
v 4 8 -1
v -3 1 -2
v -3 2 -2
v -3 6 -2
v -3 7 -2
v -3 9 -2
v -2 6 -2
v -2 7 -2
v -2 9 -2
v -1 1 -2
v -1 2 -2
v 1 1 -2
v 1 2 -2
v 2 6 -2
v 2 7 -2
v 2 9 -2
v 3 1 -2
v 3 2 -2
v 3 6 -2
v 3 7 -2
v 3 9 -2
v -3 2 -3
v -3 3 -3
v -3 6 -3
v -3 9 -3
v -3 11 -3
v -2 6 -3
v -2 7 -3
v -2 9 -3
v 2 6 -3
v 2 7 -3
v 2 9 -3
v 3 2 -3
v 3 3 -3
v 3 6 -3
v 3 9 -3
v 3 11 -3
v -2 0 -0
v -1 0 -0
v 1 0 -0
v 2 0 -0
v -2 0 -1
v -1 0 -1
v 1 0 -1
v 2 0 -1
v -3 1 1
v -1 1 1
v 1 1 1
v 3 1 1
v -2 1 -0
v -1 1 -0
v 1 1 -0
v 2 1 -0
v -2 1 -1
v -1 1 -1
v 1 1 -1
v 2 1 -1
v -3 1 -2
v -1 1 -2
v 1 1 -2
v 3 1 -2
v -3 2 2
v 3 2 2
v -3 2 1
v -1 2 1
v 1 2 1
v 3 2 1
v -4 2 -0
v -3 2 -0
v 3 2 -0
v 4 2 -0
v -4 2 -1
v -3 2 -1
v 3 2 -1
v 4 2 -1
v -3 2 -2
v -1 2 -2
v 1 2 -2
v 3 2 -2
v -3 2 -3
v 3 2 -3
v 0 4 3
v 1 4 3
v 0 4 2
v 1 4 2
v -4 7 -0
v -3 7 -0
v 3 7 -0
v 4 7 -0
v -4 7 -1
v -3 7 -1
v 3 7 -1
v 4 7 -1
v -3 9 2
v 3 9 2
v -3 9 1
v 3 9 1
v -3 9 -2
v -2 9 -2
v 2 9 -2
v 3 9 -2
v -3 9 -3
v -2 9 -3
v 2 9 -3
v 3 9 -3
v 0 5 3
v 1 5 3
v 0 5 2
v 1 5 2
v -3 6 2
v -1 6 2
v 0 6 2
v 3 6 2
v -3 6 1
v -1 6 1
v 0 6 1
v 3 6 1
v -4 6 -0
v -3 6 -0
v 3 6 -0
v 4 6 -0
v -4 6 -1
v -3 6 -1
v 3 6 -1
v 4 6 -1
v -3 6 -2
v -2 6 -2
v 2 6 -2
v 3 6 -2
v -3 6 -3
v -2 6 -3
v 2 6 -3
v 3 6 -3
v -4 8 -0
v -3 8 -0
v 3 8 -0
v 4 8 -0
v -4 8 -1
v -3 8 -1
v 3 8 -1
v 4 8 -1
v -3 10 2
v -1 10 2
v 1 10 2
v 3 10 2
v -3 10 1
v -1 10 1
v 1 10 1
v 3 10 1
v -1 11 2
v 1 11 2
v -3 11 1
v -1 11 1
v 1 11 1
v 3 11 1
v -3 11 -3
v 3 11 -3

# faces
f 3/1/1 2/1/1 1/1/1
f 4/1/1 2/1/1 3/1/1
f 5/5/1 4/5/1 3/5/1
f 6/5/1 4/5/1 5/5/1
f 7/8/1 6/8/1 5/8/1
f 8/8/1 6/8/1 7/8/1
f 11/2/1 10/2/1 9/2/1
f 12/2/1 10/2/1 11/2/1
f 16/7/1 14/7/1 13/7/1
f 17/7/1 14/7/1 16/7/1
f 18/7/1 14/7/1 17/7/1
f 19/7/1 14/7/1 18/7/1
f 21/9/1 16/9/1 15/9/1
f 21/9/1 17/9/1 16/9/1
f 22/9/1 17/9/1 21/9/1
f 23/9/1 20/9/1 19/9/1
f 23/9/1 19/9/1 18/9/1
f 24/9/1 20/9/1 23/9/1
f 25/5/1 22/5/1 21/5/1
f 26/5/1 24/5/1 23/5/1
f 27/5/1 25/5/1 21/5/1
f 28/5/1 24/5/1 26/5/1
f 29/5/1 27/5/1 21/5/1
f 30/5/1 27/5/1 29/5/1
f 31/5/1 27/5/1 30/5/1
f 32/5/1 24/5/1 28/5/1
f 33/5/1 24/5/1 32/5/1
f 34/5/1 24/5/1 33/5/1
f 35/1/1 31/1/1 30/1/1
f 35/1/1 33/1/1 32/1/1
f 35/1/1 32/1/1 31/1/1
f 36/1/1 33/1/1 35/1/1
f 37/1/1 33/1/1 36/1/1
f 38/1/1 35/1/1 30/1/1
f 39/4/1 37/4/1 36/4/1
f 41/1/1 38/1/1 30/1/1
f 42/4/1 39/4/1 38/4/1
f 42/1/1 38/1/1 41/1/1
f 43/4/1 37/4/1 39/4/1
f 43/4/1 39/4/1 42/4/1
f 45/7/1 43/7/1 42/7/1
f 45/7/1 44/7/1 43/7/1
f 45/7/1 41/7/1 40/7/1
f 45/7/1 42/7/1 41/7/1
f 46/7/1 44/7/1 45/7/1
f 47/7/1 44/7/1 46/7/1
f 48/7/1 44/7/1 47/7/1
f 51/9/1 50/9/1 49/9/1
f 52/9/1 50/9/1 51/9/1
f 55/1/1 54/1/1 53/1/1
f 56/1/1 54/1/1 55/1/1
f 57/4/1 56/4/1 55/4/1
f 58/4/1 56/4/1 57/4/1
f 61/3/1 60/3/1 59/3/1
f 62/3/1 60/3/1 61/3/1
f 65/8/1 64/8/1 63/8/1
f 66/8/1 64/8/1 65/8/1
f 70/9/1 68/9/1 67/9/1
f 71/9/1 68/9/1 70/9/1
f 73/7/1 70/7/1 69/7/1
f 73/7/1 72/7/1 71/7/1
f 73/7/1 71/7/1 70/7/1
f 74/7/1 72/7/1 73/7/1
f 75/9/2 76/9/2 78/9/2
f 78/9/2 76/9/2 79/9/2
f 77/7/2 78/7/2 81/7/2
f 79/7/2 80/7/2 81/7/2
f 78/7/2 79/7/2 81/7/2
f 81/7/2 80/7/2 82/7/2
f 83/8/2 84/8/2 85/8/2
f 85/8/2 84/8/2 86/8/2
f 87/3/2 88/3/2 89/3/2
f 89/3/2 88/3/2 90/3/2
f 91/9/2 92/9/2 93/9/2
f 93/9/2 92/9/2 94/9/2
f 95/1/2 96/1/2 97/1/2
f 97/1/2 96/1/2 98/1/2
f 97/4/2 98/4/2 99/4/2
f 99/4/2 98/4/2 100/4/2
f 101/7/2 102/7/2 104/7/2
f 104/7/2 102/7/2 105/7/2
f 105/7/2 102/7/2 106/7/2
f 106/7/2 102/7/2 107/7/2
f 103/9/2 104/9/2 109/9/2
f 104/9/2 105/9/2 109/9/2
f 109/9/2 105/9/2 110/9/2
f 110/9/2 105/9/2 111/9/2
f 107/9/2 108/9/2 112/9/2
f 106/9/2 107/9/2 112/9/2
f 112/9/2 108/9/2 113/9/2
f 109/8/2 110/8/2 114/8/2
f 110/5/2 111/5/2 115/5/2
f 114/8/2 110/8/2 115/8/2
f 115/5/2 111/5/2 116/5/2
f 112/5/2 113/5/2 117/5/2
f 115/5/2 116/5/2 118/5/2
f 114/5/2 115/5/2 118/5/2
f 117/5/2 113/5/2 119/5/2
f 114/5/2 118/5/2 120/5/2
f 120/5/2 118/5/2 121/5/2
f 121/5/2 118/5/2 122/5/2
f 119/5/2 113/5/2 123/5/2
f 123/5/2 113/5/2 124/5/2
f 124/5/2 113/5/2 125/5/2
f 121/1/2 122/1/2 126/1/2
f 123/1/2 124/1/2 126/1/2
f 122/1/2 123/1/2 126/1/2
f 126/1/2 124/1/2 127/1/2
f 127/1/2 124/1/2 128/1/2
f 121/1/2 126/1/2 129/1/2
f 127/4/2 128/4/2 130/4/2
f 121/1/2 129/1/2 132/1/2
f 129/4/2 130/4/2 133/4/2
f 132/1/2 129/1/2 133/1/2
f 130/4/2 128/4/2 134/4/2
f 133/4/2 130/4/2 134/4/2
f 133/7/2 134/7/2 136/7/2
f 134/7/2 135/7/2 136/7/2
f 131/7/2 132/7/2 136/7/2
f 132/7/2 133/7/2 136/7/2
f 136/7/2 135/7/2 137/7/2
f 137/7/2 135/7/2 138/7/2
f 138/7/2 135/7/2 139/7/2
f 140/1/2 141/1/2 142/1/2
f 142/1/2 141/1/2 143/1/2
f 142/5/2 143/5/2 144/5/2
f 144/5/2 143/5/2 145/5/2
f 144/8/2 145/8/2 146/8/2
f 146/8/2 145/8/2 147/8/2
f 148/2/2 149/2/2 150/2/2
f 150/2/2 149/2/2 151/2/2
f 154/8/3 153/8/3 152/8/3
f 155/8/3 153/8/3 154/8/3
f 161/9/3 157/9/3 156/9/3
f 161/5/3 158/5/3 157/5/3
f 162/5/3 158/5/3 161/5/3
f 163/7/3 160/7/3 159/7/3
f 165/6/3 162/6/3 161/6/3
f 165/9/3 161/9/3 156/9/3
f 166/6/3 162/6/3 165/6/3
f 167/6/3 162/6/3 166/6/3
f 168/6/3 162/6/3 167/6/3
f 169/9/3 165/9/3 156/9/3
f 169/5/3 166/5/3 165/5/3
f 170/5/3 166/5/3 169/5/3
f 171/5/3 168/5/3 167/5/3
f 172/3/3 164/3/3 163/3/3
f 172/7/3 163/7/3 159/7/3
f 173/3/3 164/3/3 172/3/3
f 174/3/3 171/3/3 170/3/3
f 174/8/3 170/8/3 169/8/3
f 175/5/3 168/5/3 171/5/3
f 175/3/3 171/3/3 174/3/3
f 176/9/3 169/9/3 156/9/3
f 177/8/3 174/8/3 169/8/3
f 177/9/3 169/9/3 176/9/3
f 178/5/3 175/5/3 174/5/3
f 178/8/3 174/8/3 177/8/3
f 179/5/3 168/5/3 175/5/3
f 179/5/3 175/5/3 178/5/3
f 180/7/3 172/7/3 159/7/3
f 181/7/3 172/7/3 180/7/3
f 188/1/3 185/1/3 184/1/3
f 189/1/3 185/1/3 188/1/3
f 190/7/3 183/7/3 182/7/3
f 191/7/3 183/7/3 190/7/3
f 192/1/3 188/1/3 184/1/3
f 193/10/3 189/10/3 188/10/3
f 193/1/3 188/1/3 192/1/3
f 194/1/3 185/1/3 189/1/3
f 194/10/3 189/10/3 193/10/3
f 195/7/3 187/7/3 186/7/3
f 196/7/3 187/7/3 195/7/3
f 197/1/3 193/1/3 192/1/3
f 197/1/3 194/1/3 193/1/3
f 200/1/3 194/1/3 197/1/3
f 201/1/3 185/1/3 194/1/3
f 201/1/3 194/1/3 200/1/3
f 204/1/3 200/1/3 197/1/3
f 204/10/3 201/10/3 200/10/3
f 205/1/3 185/1/3 201/1/3
f 205/10/3 201/10/3 204/10/3
f 206/7/3 199/7/3 198/7/3
f 207/7/3 199/7/3 206/7/3
f 208/1/3 204/1/3 197/1/3
f 208/1/3 205/1/3 204/1/3
f 209/1/3 185/1/3 205/1/3
f 209/1/3 205/1/3 208/1/3
f 210/7/3 203/7/3 202/7/3
f 211/7/3 203/7/3 210/7/3
f 218/1/3 213/1/3 212/1/3
f 219/1/3 213/1/3 218/1/3
f 220/5/3 214/5/3 213/5/3
f 220/1/3 213/1/3 219/1/3
f 221/8/3 215/8/3 214/8/3
f 221/5/3 214/5/3 220/5/3
f 222/8/3 215/8/3 221/8/3
f 223/2/3 217/2/3 216/2/3
f 224/2/3 217/2/3 223/2/3
f 227/9/3 226/9/3 225/9/3
f 228/9/3 226/9/3 227/9/3
f 231/9/3 230/9/3 229/9/3
f 232/9/3 230/9/3 231/9/3
f 240/1/3 234/1/3 233/1/3
f 240/1/3 235/1/3 234/1/3
f 241/5/3 236/5/3 235/5/3
f 241/1/3 235/1/3 240/1/3
f 242/8/3 237/8/3 236/8/3
f 242/5/3 236/5/3 241/5/3
f 243/8/3 237/8/3 242/8/3
f 244/2/3 239/2/3 238/2/3
f 245/2/3 239/2/3 244/2/3
f 246/1/4 247/1/4 252/1/4
f 252/1/4 247/1/4 253/1/4
f 247/5/4 248/5/4 254/5/4
f 253/1/4 247/1/4 254/1/4
f 248/8/4 249/8/4 255/8/4
f 254/5/4 248/5/4 255/5/4
f 255/8/4 249/8/4 256/8/4
f 250/2/4 251/2/4 257/2/4
f 257/2/4 251/2/4 258/2/4
f 259/9/4 260/9/4 261/9/4
f 261/9/4 260/9/4 262/9/4
f 263/9/4 264/9/4 265/9/4
f 265/9/4 264/9/4 266/9/4
f 267/1/4 268/1/4 274/1/4
f 268/1/4 269/1/4 274/1/4
f 269/5/4 270/5/4 275/5/4
f 274/1/4 269/1/4 275/1/4
f 270/8/4 271/8/4 276/8/4
f 275/5/4 270/5/4 276/5/4
f 276/8/4 271/8/4 277/8/4
f 272/2/4 273/2/4 278/2/4
f 278/2/4 273/2/4 279/2/4
f 282/1/4 283/1/4 285/1/4
f 283/4/4 284/4/4 286/4/4
f 285/1/4 283/1/4 286/1/4
f 286/4/4 284/4/4 287/4/4
f 280/7/4 281/7/4 288/7/4
f 288/7/4 281/7/4 289/7/4
f 290/7/4 291/7/4 295/7/4
f 295/7/4 291/7/4 296/7/4
f 292/1/4 293/1/4 297/1/4
f 293/4/4 294/4/4 298/4/4
f 297/1/4 293/1/4 298/1/4
f 298/4/4 294/4/4 299/4/4
f 301/5/4 302/5/4 305/5/4
f 303/7/4 304/7/4 307/7/4
f 305/1/4 306/1/4 308/1/4
f 301/5/4 305/5/4 308/5/4
f 306/4/4 307/4/4 309/4/4
f 308/1/4 306/1/4 309/1/4
f 307/7/4 304/7/4 310/7/4
f 309/4/4 307/4/4 310/4/4
f 300/9/4 301/9/4 311/9/4
f 301/5/4 308/5/4 312/5/4
f 311/9/4 301/9/4 312/9/4
f 312/5/4 308/5/4 313/5/4
f 310/7/4 304/7/4 314/7/4
f 314/7/4 304/7/4 315/7/4
f 320/9/5 317/9/5 316/9/5
f 321/9/5 317/9/5 320/9/5
f 322/9/5 319/9/5 318/9/5
f 323/9/5 319/9/5 322/9/5
f 328/7/5 325/7/5 324/7/5
f 329/7/5 325/7/5 328/7/5
f 330/7/5 327/7/5 326/7/5
f 331/7/5 327/7/5 330/7/5
f 332/7/5 328/7/5 324/7/5
f 335/7/5 327/7/5 331/7/5
f 336/7/5 333/7/5 332/7/5
f 336/7/5 332/7/5 324/7/5
f 337/7/5 333/7/5 336/7/5
f 338/7/5 335/7/5 334/7/5
f 339/7/5 327/7/5 335/7/5
f 339/7/5 335/7/5 338/7/5
f 342/9/5 341/9/5 340/9/5
f 343/9/5 341/9/5 342/9/5
f 344/9/5 341/9/5 343/9/5
f 345/9/5 341/9/5 344/9/5
f 350/1/5 347/1/5 346/1/5
f 351/1/5 347/1/5 350/1/5
f 352/1/5 349/1/5 348/1/5
f 353/1/5 349/1/5 352/1/5
f 355/7/5 344/7/5 343/7/5
f 356/7/5 344/7/5 355/7/5
f 358/9/5 355/9/5 354/9/5
f 358/9/5 357/9/5 356/9/5
f 358/9/5 356/9/5 355/9/5
f 359/9/5 357/9/5 358/9/5
f 362/8/5 361/8/5 360/8/5
f 363/8/5 361/8/5 362/8/5
f 368/2/5 365/2/5 364/2/5
f 369/2/5 365/2/5 368/2/5
f 370/2/5 367/2/5 366/2/5
f 371/2/5 367/2/5 370/2/5
f 374/7/5 373/7/5 372/7/5
f 375/7/5 373/7/5 374/7/5
f 380/7/5 377/7/5 376/7/5
f 381/7/5 377/7/5 380/7/5
f 382/7/5 379/7/5 378/7/5
f 383/7/5 379/7/5 382/7/5
f 384/8/6 385/8/6 386/8/6
f 386/8/6 385/8/6 387/8/6
f 388/5/6 389/5/6 392/5/6
f 389/6/6 390/6/6 393/6/6
f 392/5/6 389/5/6 393/5/6
f 390/5/6 391/5/6 394/5/6
f 393/6/6 390/6/6 394/6/6
f 394/5/6 391/5/6 395/5/6
f 396/8/6 397/8/6 400/8/6
f 400/8/6 397/8/6 401/8/6
f 398/8/6 399/8/6 402/8/6
f 402/8/6 399/8/6 403/8/6
f 404/5/6 405/5/6 408/5/6
f 408/5/6 405/5/6 409/5/6
f 406/5/6 407/5/6 410/5/6
f 410/5/6 407/5/6 411/5/6
f 412/2/6 413/2/6 416/2/6
f 416/2/6 413/2/6 417/2/6
f 414/2/6 415/2/6 418/2/6
f 418/2/6 415/2/6 419/2/6
f 420/7/6 421/7/6 424/7/6
f 424/7/6 421/7/6 425/7/6
f 422/7/6 423/7/6 426/7/6
f 426/7/6 423/7/6 427/7/6
f 428/3/6 429/3/6 431/3/6
f 431/3/6 429/3/6 432/3/6
f 430/7/6 431/7/6 434/7/6
f 432/7/6 433/7/6 434/7/6
f 431/7/6 432/7/6 434/7/6
f 434/7/6 433/7/6 435/7/6
