# MagicaVoxel @ Ephtracy

# material
mtllib chr_beardo1.mtl
usemtl palette

# normals
vn -1 0 0
vn 1 0 0
vn 0 0 1
vn 0 0 -1
vn 0 -1 0
vn 0 1 0

# texcoords
vt 0.0332031 0.5
vt 0.232422 0.5
vt 0.619141 0.5
vt 0.974609 0.5
vt 0.994141 0.5

# verts
v -4 2 0.5
v -4 2 -0.5
v -4 3 0.5
v -4 3 -0.5
v -4 6 0.5
v -4 6 -0.5
v -4 7 1.5
v -4 7 0.5
v -4 7 -0.5
v -4 7 -1.5
v -4 8 0.5
v -4 8 -0.5
v -4 10 1.5
v -4 10 -1.5
v -3 1 1.5
v -3 1 -1.5
v -3 2 2.5
v -3 2 1.5
v -3 2 0.5
v -3 2 -0.5
v -3 2 -1.5
v -3 2 -2.5
v -3 3 2.5
v -3 3 0.5
v -3 3 -0.5
v -3 3 -2.5
v -3 6 2.5
v -3 6 1.5
v -3 6 0.5
v -3 6 -0.5
v -3 6 -1.5
v -3 6 -2.5
v -3 7 2.5
v -3 7 1.5
v -3 7 0.5
v -3 7 -0.5
v -3 7 -1.5
v -3 7 -2.5
v -3 8 2.5
v -3 8 1.5
v -3 9 3.5
v -3 9 2.5
v -3 10 3.5
v -3 10 1.5
v -3 10 -1.5
v -3 10 -2.5
v -3 11 1.5
v -3 11 -1.5
v -2 0 0.5
v -2 0 -0.5
v -2 1 0.5
v -2 1 -0.5
v -2 5 3.5
v -2 5 2.5
v -2 6 3.5
v -2 6 2.5
v -2 6 -1.5
v -2 6 -2.5
v -2 7 -1.5
v -2 7 -2.5
v -2 7 -3.5
v -2 10 -1.5
v -2 10 -2.5
v -2 10 -3.5
v -2 11 -1.5
v -2 11 -2.5
v -1 4 3.5
v -1 4 2.5
v -1 5 3.5
v -1 5 2.5
v 1 0 0.5
v 1 0 -0.5
v 1 1 1.5
v 1 1 0.5
v 1 1 -0.5
v 1 1 -1.5
v 1 2 1.5
v 1 2 -1.5
v 1 9 3.5
v 1 9 2.5
v 1 10 3.5
v 1 10 2.5
v 2 8 2.5
v 2 8 1.5
v 2 9 2.5
v 2 9 1.5
v -2 8 2.5
v -2 8 1.5
v -2 9 2.5
v -2 9 1.5
v -1 0 0.5
v -1 0 -0.5
v -1 1 1.5
v -1 1 0.5
v -1 1 -0.5
v -1 1 -1.5
v -1 2 1.5
v -1 2 -1.5
v -1 9 3.5
v -1 9 2.5
v -1 10 3.5
v -1 10 2.5
v 1 4 3.5
v 1 4 2.5
v 1 5 3.5
v 1 5 2.5
v 2 0 0.5
v 2 0 -0.5
v 2 1 0.5
v 2 1 -0.5
v 2 5 3.5
v 2 5 2.5
v 2 6 3.5
v 2 6 2.5
v 2 6 -1.5
v 2 6 -2.5
v 2 7 -1.5
v 2 7 -2.5
v 2 7 -3.5
v 2 10 -1.5
v 2 10 -2.5
v 2 10 -3.5
v 2 11 -1.5
v 2 11 -2.5
v 3 1 1.5
v 3 1 -1.5
v 3 2 2.5
v 3 2 1.5
v 3 2 0.5
v 3 2 -0.5
v 3 2 -1.5
v 3 2 -2.5
v 3 3 2.5
v 3 3 0.5
v 3 3 -0.5
v 3 3 -2.5
v 3 6 2.5
v 3 6 1.5
v 3 6 0.5
v 3 6 -0.5
v 3 6 -1.5
v 3 6 -2.5
v 3 7 2.5
v 3 7 1.5
v 3 7 0.5
v 3 7 -0.5
v 3 7 -1.5
v 3 7 -2.5
v 3 8 2.5
v 3 8 1.5
v 3 9 3.5
v 3 9 2.5
v 3 10 3.5
v 3 10 1.5
v 3 10 -1.5
v 3 10 -2.5
v 3 11 1.5
v 3 11 -1.5
v 4 2 0.5
v 4 2 -0.5
v 4 3 0.5
v 4 3 -0.5
v 4 6 0.5
v 4 6 -0.5
v 4 7 1.5
v 4 7 0.5
v 4 7 -0.5
v 4 7 -1.5
v 4 8 0.5
v 4 8 -0.5
v 4 10 1.5
v 4 10 -1.5
v -3 9 3.5
v -3 10 3.5
v -2 5 3.5
v -2 6 3.5
v -1 4 3.5
v -1 5 3.5
v -1 9 3.5
v -1 10 3.5
v 1 4 3.5
v 1 5 3.5
v 1 9 3.5
v 1 10 3.5
v 2 5 3.5
v 2 6 3.5
v 3 9 3.5
v 3 10 3.5
v -3 2 2.5
v -3 3 2.5
v -3 6 2.5
v -3 7 2.5
v -3 8 2.5
v -3 9 2.5
v -2 5 2.5
v -2 6 2.5
v -2 8 2.5
v -2 9 2.5
v -1 4 2.5
v -1 5 2.5
v -1 9 2.5
v -1 10 2.5
v 1 4 2.5
v 1 5 2.5
v 1 9 2.5
v 1 10 2.5
v 2 5 2.5
v 2 6 2.5
v 2 8 2.5
v 2 9 2.5
v 3 2 2.5
v 3 3 2.5
v 3 6 2.5
v 3 7 2.5
v 3 8 2.5
v 3 9 2.5
v -4 7 1.5
v -4 10 1.5
v -3 1 1.5
v -3 2 1.5
v -3 7 1.5
v -3 8 1.5
v -3 10 1.5
v -3 11 1.5
v -2 7 1.5
v -2 8 1.5
v -2 9 1.5
v -1 1 1.5
v -1 2 1.5
v -1 7 1.5
v -1 8 1.5
v 1 1 1.5
v 1 2 1.5
v 1 7 1.5
v 1 8 1.5
v 2 7 1.5
v 2 8 1.5
v 2 9 1.5
v 3 1 1.5
v 3 2 1.5
v 3 7 1.5
v 3 8 1.5
v 3 10 1.5
v 3 11 1.5
v 4 7 1.5
v 4 10 1.5
v -4 2 0.5
v -4 3 0.5
v -4 6 0.5
v -3 2 0.5
v -3 3 0.5
v -3 6 0.5
v -2 0 0.5
v -2 1 0.5
v -1 0 0.5
v -1 1 0.5
v 1 0 0.5
v 1 1 0.5
v 2 0 0.5
v 2 1 0.5
v 3 2 0.5
v 3 3 0.5
v 3 6 0.5
v 4 2 0.5
v 4 3 0.5
v 4 6 0.5
v -4 2 -0.5
v -4 3 -0.5
v -4 6 -0.5
v -3 2 -0.5
v -3 3 -0.5
v -3 6 -0.5
v -2 0 -0.5
v -2 1 -0.5
v -1 0 -0.5
v -1 1 -0.5
v 1 0 -0.5
v 1 1 -0.5
v 2 0 -0.5
v 2 1 -0.5
v 3 2 -0.5
v 3 3 -0.5
v 3 6 -0.5
v 4 2 -0.5
v 4 3 -0.5
v 4 6 -0.5
v -4 7 -1.5
v -4 10 -1.5
v -3 1 -1.5
v -3 2 -1.5
v -3 6 -1.5
v -3 7 -1.5
v -3 10 -1.5
v -3 11 -1.5
v -2 6 -1.5
v -2 7 -1.5
v -2 10 -1.5
v -2 11 -1.5
v -1 1 -1.5
v -1 2 -1.5
v 1 1 -1.5
v 1 2 -1.5
v 2 6 -1.5
v 2 7 -1.5
v 2 10 -1.5
v 2 11 -1.5
v 3 1 -1.5
v 3 2 -1.5
v 3 6 -1.5
v 3 7 -1.5
v 3 10 -1.5
v 3 11 -1.5
v 4 7 -1.5
v 4 10 -1.5
v -3 2 -2.5
v -3 3 -2.5
v -3 6 -2.5
v -3 7 -2.5
v -3 10 -2.5
v -2 6 -2.5
v -2 7 -2.5
v -2 10 -2.5
v -2 11 -2.5
v 2 6 -2.5
v 2 7 -2.5
v 2 10 -2.5
v 2 11 -2.5
v 3 2 -2.5
v 3 3 -2.5
v 3 6 -2.5
v 3 7 -2.5
v 3 10 -2.5
v -2 7 -3.5
v -2 10 -3.5
v 2 7 -3.5
v 2 10 -3.5
v -2 0 0.5
v -1 0 0.5
v 1 0 0.5
v 2 0 0.5
v -2 0 -0.5
v -1 0 -0.5
v 1 0 -0.5
v 2 0 -0.5
v -3 1 1.5
v -1 1 1.5
v 1 1 1.5
v 3 1 1.5
v -2 1 0.5
v -1 1 0.5
v 1 1 0.5
v 2 1 0.5
v -2 1 -0.5
v -1 1 -0.5
v 1 1 -0.5
v 2 1 -0.5
v -3 1 -1.5
v -1 1 -1.5
v 1 1 -1.5
v 3 1 -1.5
v -3 2 2.5
v 3 2 2.5
v -3 2 1.5
v -1 2 1.5
v 1 2 1.5
v 3 2 1.5
v -4 2 0.5
v -3 2 0.5
v 3 2 0.5
v 4 2 0.5
v -4 2 -0.5
v -3 2 -0.5
v 3 2 -0.5
v 4 2 -0.5
v -3 2 -1.5
v -1 2 -1.5
v 1 2 -1.5
v 3 2 -1.5
v -3 2 -2.5
v 3 2 -2.5
v -1 4 3.5
v 1 4 3.5
v -1 4 2.5
v 1 4 2.5
v -2 5 3.5
v -1 5 3.5
v 1 5 3.5
v 2 5 3.5
v -2 5 2.5
v -1 5 2.5
v 1 5 2.5
v 2 5 2.5
v -4 7 1.5
v -3 7 1.5
v 3 7 1.5
v 4 7 1.5
v -4 7 0.5
v -3 7 0.5
v 3 7 0.5
v 4 7 0.5
v -4 7 -0.5
v -3 7 -0.5
v 3 7 -0.5
v 4 7 -0.5
v -4 7 -1.5
v -3 7 -1.5
v -2 7 -1.5
v 2 7 -1.5
v 3 7 -1.5
v 4 7 -1.5
v -3 7 -2.5
v -2 7 -2.5
v 2 7 -2.5
v 3 7 -2.5
v -2 7 -3.5
v 2 7 -3.5
v -3 8 2.5
v -2 8 2.5
v 2 8 2.5
v 3 8 2.5
v -3 8 1.5
v -2 8 1.5
v 2 8 1.5
v 3 8 1.5
v -3 9 3.5
v -1 9 3.5
v 1 9 3.5
v 3 9 3.5
v -3 9 2.5
v -2 9 2.5
v -1 9 2.5
v 1 9 2.5
v 2 9 2.5
v 3 9 2.5
v -2 9 1.5
v 2 9 1.5
v -2 6 3.5
v 2 6 3.5
v -2 6 2.5
v 2 6 2.5
v -4 6 0.5
v -3 6 0.5
v 3 6 0.5
v 4 6 0.5
v -4 6 -0.5
v -3 6 -0.5
v 3 6 -0.5
v 4 6 -0.5
v -3 6 -1.5
v -2 6 -1.5
v 2 6 -1.5
v 3 6 -1.5
v -3 6 -2.5
v -2 6 -2.5
v 2 6 -2.5
v 3 6 -2.5
v -3 7 2.5
v 3 7 2.5
v -3 7 1.5
v -2 7 1.5
v -1 7 1.5
v 1 7 1.5
v 2 7 1.5
v 3 7 1.5
v -3 10 3.5
v -1 10 3.5
v 1 10 3.5
v 3 10 3.5
v -1 10 2.5
v 1 10 2.5
v -4 10 1.5
v -3 10 1.5
v 3 10 1.5
v 4 10 1.5
v -4 10 -1.5
v -3 10 -1.5
v -2 10 -1.5
v 2 10 -1.5
v 3 10 -1.5
v 4 10 -1.5
v -3 10 -2.5
v -2 10 -2.5
v 2 10 -2.5
v 3 10 -2.5
v -2 10 -3.5
v 2 10 -3.5
v -3 11 1.5
v 3 11 1.5
v -3 11 -1.5
v -2 11 -1.5
v 2 11 -1.5
v 3 11 -1.5
v -2 11 -2.5
v 2 11 -2.5

# faces
f 3/1/1 2/1/1 1/1/1
f 4/1/1 2/1/1 3/1/1
f 5/3/1 4/3/1 3/3/1
f 6/3/1 4/3/1 5/3/1
f 11/1/1 9/1/1 8/1/1
f 11/2/1 8/2/1 7/2/1
f 12/2/1 10/2/1 9/2/1
f 12/1/1 9/1/1 11/1/1
f 13/2/1 11/2/1 7/2/1
f 13/2/1 12/2/1 11/2/1
f 14/2/1 10/2/1 12/2/1
f 14/2/1 12/2/1 13/2/1
f 18/4/1 16/4/1 15/4/1
f 19/4/1 16/4/1 18/4/1
f 20/4/1 16/4/1 19/4/1
f 21/4/1 16/4/1 20/4/1
f 23/4/1 18/4/1 17/4/1
f 23/4/1 19/4/1 18/4/1
f 24/4/1 19/4/1 23/4/1
f 25/4/1 22/4/1 21/4/1
f 25/4/1 21/4/1 20/4/1
f 26/4/1 22/4/1 25/4/1
f 27/3/1 24/3/1 23/3/1
f 28/3/1 24/3/1 27/3/1
f 29/3/1 24/3/1 28/3/1
f 30/3/1 26/3/1 25/3/1
f 31/3/1 26/3/1 30/3/1
f 32/3/1 26/3/1 31/3/1
f 33/2/1 28/2/1 27/2/1
f 34/1/1 29/1/1 28/1/1
f 34/2/1 28/2/1 33/2/1
f 34/1/1 30/1/1 29/1/1
f 34/1/1 31/1/1 30/1/1
f 35/1/1 31/1/1 34/1/1
f 36/1/1 31/1/1 35/1/1
f 37/1/1 31/1/1 36/1/1
f 42/2/1 40/2/1 39/2/1
f 43/2/1 42/2/1 41/2/1
f 44/2/1 40/2/1 42/2/1
f 44/2/1 42/2/1 43/2/1
f 45/2/1 38/2/1 37/2/1
f 46/2/1 38/2/1 45/2/1
f 47/2/1 45/2/1 44/2/1
f 48/2/1 45/2/1 47/2/1
f 51/2/1 50/2/1 49/2/1
f 52/2/1 50/2/1 51/2/1
f 55/2/1 54/2/1 53/2/1
f 56/2/1 54/2/1 55/2/1
f 59/1/1 58/1/1 57/1/1
f 60/1/1 58/1/1 59/1/1
f 63/2/1 61/2/1 60/2/1
f 64/2/1 61/2/1 63/2/1
f 65/2/1 63/2/1 62/2/1
f 66/2/1 63/2/1 65/2/1
f 69/2/1 68/2/1 67/2/1
f 70/2/1 68/2/1 69/2/1
f 74/2/1 72/2/1 71/2/1
f 75/2/1 72/2/1 74/2/1
f 77/4/1 74/4/1 73/4/1
f 77/4/1 76/4/1 75/4/1
f 77/4/1 75/4/1 74/4/1
f 78/4/1 76/4/1 77/4/1
f 81/2/1 80/2/1 79/2/1
f 82/2/1 80/2/1 81/2/1
f 85/2/1 84/2/1 83/2/1
f 86/2/1 84/2/1 85/2/1
f 87/2/2 88/2/2 89/2/2
f 89/2/2 88/2/2 90/2/2
f 91/2/2 92/2/2 94/2/2
f 94/2/2 92/2/2 95/2/2
f 93/4/2 94/4/2 97/4/2
f 95/4/2 96/4/2 97/4/2
f 94/4/2 95/4/2 97/4/2
f 97/4/2 96/4/2 98/4/2
f 99/2/2 100/2/2 101/2/2
f 101/2/2 100/2/2 102/2/2
f 103/2/2 104/2/2 105/2/2
f 105/2/2 104/2/2 106/2/2
f 107/2/2 108/2/2 109/2/2
f 109/2/2 108/2/2 110/2/2
f 111/2/2 112/2/2 113/2/2
f 113/2/2 112/2/2 114/2/2
f 115/1/2 116/1/2 117/1/2
f 117/1/2 116/1/2 118/1/2
f 118/2/2 119/2/2 121/2/2
f 121/2/2 119/2/2 122/2/2
f 120/2/2 121/2/2 123/2/2
f 123/2/2 121/2/2 124/2/2
f 125/4/2 126/4/2 128/4/2
f 128/4/2 126/4/2 129/4/2
f 129/4/2 126/4/2 130/4/2
f 130/4/2 126/4/2 131/4/2
f 127/4/2 128/4/2 133/4/2
f 128/4/2 129/4/2 133/4/2
f 133/4/2 129/4/2 134/4/2
f 131/4/2 132/4/2 135/4/2
f 130/4/2 131/4/2 135/4/2
f 135/4/2 132/4/2 136/4/2
f 133/3/2 134/3/2 137/3/2
f 137/3/2 134/3/2 138/3/2
f 138/3/2 134/3/2 139/3/2
f 135/3/2 136/3/2 140/3/2
f 140/3/2 136/3/2 141/3/2
f 141/3/2 136/3/2 142/3/2
f 137/2/2 138/2/2 143/2/2
f 138/1/2 139/1/2 144/1/2
f 143/2/2 138/2/2 144/2/2
f 139/1/2 140/1/2 144/1/2
f 140/1/2 141/1/2 144/1/2
f 144/1/2 141/1/2 145/1/2
f 145/1/2 141/1/2 146/1/2
f 146/1/2 141/1/2 147/1/2
f 149/2/2 150/2/2 152/2/2
f 151/2/2 152/2/2 153/2/2
f 152/2/2 150/2/2 154/2/2
f 153/2/2 152/2/2 154/2/2
f 147/2/2 148/2/2 155/2/2
f 155/2/2 148/2/2 156/2/2
f 154/2/2 155/2/2 157/2/2
f 157/2/2 155/2/2 158/2/2
f 159/1/2 160/1/2 161/1/2
f 161/1/2 160/1/2 162/1/2
f 161/3/2 162/3/2 163/3/2
f 163/3/2 162/3/2 164/3/2
f 166/1/2 167/1/2 169/1/2
f 165/2/2 166/2/2 169/2/2
f 167/2/2 168/2/2 170/2/2
f 169/1/2 167/1/2 170/1/2
f 165/2/2 169/2/2 171/2/2
f 169/2/2 170/2/2 171/2/2
f 170/2/2 168/2/2 172/2/2
f 171/2/2 170/2/2 172/2/2
f 178/2/3 176/2/3 175/2/3
f 179/2/3 174/2/3 173/2/3
f 180/2/3 174/2/3 179/2/3
f 181/2/3 178/2/3 177/2/3
f 182/2/3 176/2/3 178/2/3
f 182/2/3 178/2/3 181/2/3
f 185/2/3 176/2/3 182/2/3
f 186/2/3 176/2/3 185/2/3
f 187/2/3 184/2/3 183/2/3
f 188/2/3 184/2/3 187/2/3
f 195/3/3 191/3/3 190/3/3
f 196/2/3 192/2/3 191/2/3
f 196/3/3 191/3/3 195/3/3
f 197/2/3 194/2/3 193/2/3
f 198/2/3 194/2/3 197/2/3
f 199/3/3 195/3/3 190/3/3
f 200/3/3 195/3/3 199/3/3
f 203/3/3 199/3/3 190/3/3
f 205/2/3 202/2/3 201/2/3
f 206/2/3 202/2/3 205/2/3
f 207/3/3 204/3/3 203/3/3
f 208/2/3 192/2/3 196/2/3
f 211/4/3 190/4/3 189/4/3
f 212/3/3 207/3/3 203/3/3
f 212/4/3 190/4/3 211/4/3
f 212/3/3 203/3/3 190/3/3
f 212/3/3 208/3/3 207/3/3
f 213/2/3 192/2/3 208/2/3
f 213/3/3 208/3/3 212/3/3
f 214/2/3 192/2/3 213/2/3
f 215/2/3 210/2/3 209/2/3
f 216/2/3 210/2/3 215/2/3
f 221/2/3 218/2/3 217/2/3
f 222/2/3 218/2/3 221/2/3
f 223/2/3 218/2/3 222/2/3
f 225/1/3 222/1/3 221/1/3
f 226/1/3 222/1/3 225/1/3
f 228/4/3 220/4/3 219/4/3
f 229/4/3 220/4/3 228/4/3
f 230/5/3 226/5/3 225/5/3
f 231/1/3 227/1/3 226/1/3
f 231/5/3 226/5/3 230/5/3
f 234/1/3 231/1/3 230/1/3
f 235/1/3 227/1/3 231/1/3
f 235/1/3 231/1/3 234/1/3
f 236/5/3 235/5/3 234/5/3
f 237/1/3 227/1/3 235/1/3
f 237/5/3 235/5/3 236/5/3
f 238/1/3 227/1/3 237/1/3
f 239/4/3 233/4/3 232/4/3
f 240/4/3 233/4/3 239/4/3
f 241/1/3 237/1/3 236/1/3
f 242/1/3 237/1/3 241/1/3
f 243/2/3 224/2/3 223/2/3
f 244/2/3 224/2/3 243/2/3
f 245/2/3 242/2/3 241/2/3
f 245/2/3 243/2/3 242/2/3
f 246/2/3 243/2/3 245/2/3
f 250/1/3 248/1/3 247/1/3
f 251/3/3 249/3/3 248/3/3
f 251/1/3 248/1/3 250/1/3
f 252/3/3 249/3/3 251/3/3
f 255/2/3 254/2/3 253/2/3
f 256/2/3 254/2/3 255/2/3
f 259/2/3 258/2/3 257/2/3
f 260/2/3 258/2/3 259/2/3
f 264/1/3 262/1/3 261/1/3
f 265/3/3 263/3/3 262/3/3
f 265/1/3 262/1/3 264/1/3
f 266/3/3 263/3/3 265/3/3
f 267/1/4 268/1/4 270/1/4
f 268/3/4 269/3/4 271/3/4
f 270/1/4 268/1/4 271/1/4
f 271/3/4 269/3/4 272/3/4
f 273/2/4 274/2/4 275/2/4
f 275/2/4 274/2/4 276/2/4
f 277/2/4 278/2/4 279/2/4
f 279/2/4 278/2/4 280/2/4
f 281/1/4 282/1/4 284/1/4
f 282/3/4 283/3/4 285/3/4
f 284/1/4 282/1/4 285/1/4
f 285/3/4 283/3/4 286/3/4
f 287/2/4 288/2/4 292/2/4
f 292/2/4 288/2/4 293/2/4
f 291/1/4 292/1/4 295/1/4
f 295/1/4 292/1/4 296/1/4
f 293/2/4 294/2/4 297/2/4
f 297/2/4 294/2/4 298/2/4
f 289/4/4 290/4/4 299/4/4
f 299/4/4 290/4/4 300/4/4
f 301/4/4 302/4/4 307/4/4
f 307/4/4 302/4/4 308/4/4
f 303/1/4 304/1/4 309/1/4
f 309/1/4 304/1/4 310/1/4
f 305/2/4 306/2/4 311/2/4
f 311/2/4 306/2/4 312/2/4
f 310/2/4 311/2/4 313/2/4
f 313/2/4 311/2/4 314/2/4
f 316/3/4 317/3/4 320/3/4
f 318/2/4 319/2/4 321/2/4
f 321/2/4 319/2/4 322/2/4
f 316/3/4 320/3/4 324/3/4
f 320/1/4 321/1/4 324/1/4
f 324/1/4 321/1/4 325/1/4
f 322/2/4 323/2/4 326/2/4
f 326/2/4 323/2/4 327/2/4
f 315/4/4 316/4/4 328/4/4
f 316/3/4 324/3/4 329/3/4
f 328/4/4 316/4/4 329/4/4
f 329/3/4 324/3/4 330/3/4
f 325/2/4 326/2/4 331/2/4
f 331/2/4 326/2/4 332/2/4
f 333/2/4 334/2/4 335/2/4
f 335/2/4 334/2/4 336/2/4
f 341/2/5 338/2/5 337/2/5
f 342/2/5 338/2/5 341/2/5
f 343/2/5 340/2/5 339/2/5
f 344/2/5 340/2/5 343/2/5
f 349/4/5 346/4/5 345/4/5
f 350/4/5 346/4/5 349/4/5
f 351/4/5 348/4/5 347/4/5
f 352/4/5 348/4/5 351/4/5
f 353/4/5 349/4/5 345/4/5
f 356/4/5 348/4/5 352/4/5
f 357/4/5 354/4/5 353/4/5
f 357/4/5 353/4/5 345/4/5
f 358/4/5 354/4/5 357/4/5
f 359/4/5 356/4/5 355/4/5
f 360/4/5 348/4/5 356/4/5
f 360/4/5 356/4/5 359/4/5
f 363/4/5 362/4/5 361/4/5
f 364/4/5 362/4/5 363/4/5
f 365/4/5 362/4/5 364/4/5
f 366/4/5 362/4/5 365/4/5
f 371/1/5 368/1/5 367/1/5
f 372/1/5 368/1/5 371/1/5
f 373/1/5 370/1/5 369/1/5
f 374/1/5 370/1/5 373/1/5
f 376/4/5 365/4/5 364/4/5
f 377/4/5 365/4/5 376/4/5
f 379/4/5 376/4/5 375/4/5
f 379/4/5 378/4/5 377/4/5
f 379/4/5 377/4/5 376/4/5
f 380/4/5 378/4/5 379/4/5
f 383/2/5 382/2/5 381/2/5
f 384/2/5 382/2/5 383/2/5
f 389/2/5 386/2/5 385/2/5
f 390/2/5 386/2/5 389/2/5
f 391/2/5 388/2/5 387/2/5
f 392/2/5 388/2/5 391/2/5
f 397/2/5 394/2/5 393/2/5
f 398/2/5 394/2/5 397/2/5
f 399/2/5 396/2/5 395/2/5
f 400/2/5 396/2/5 399/2/5
f 401/1/5 398/1/5 397/1/5
f 402/1/5 398/1/5 401/1/5
f 403/1/5 400/1/5 399/1/5
f 404/1/5 400/1/5 403/1/5
f 405/2/5 402/2/5 401/2/5
f 406/2/5 402/2/5 405/2/5
f 409/2/5 404/2/5 403/2/5
f 410/2/5 404/2/5 409/2/5
f 411/2/5 407/2/5 406/2/5
f 412/2/5 407/2/5 411/2/5
f 413/2/5 409/2/5 408/2/5
f 414/2/5 409/2/5 413/2/5
f 415/2/5 413/2/5 412/2/5
f 416/2/5 413/2/5 415/2/5
f 421/2/5 418/2/5 417/2/5
f 422/2/5 418/2/5 421/2/5
f 423/2/5 420/2/5 419/2/5
f 424/2/5 420/2/5 423/2/5
f 429/2/5 426/2/5 425/2/5
f 430/2/5 426/2/5 429/2/5
f 431/2/5 426/2/5 430/2/5
f 432/2/5 428/2/5 427/2/5
f 433/2/5 428/2/5 432/2/5
f 434/2/5 428/2/5 433/2/5
f 435/2/5 431/2/5 430/2/5
f 435/2/5 433/2/5 432/2/5
f 435/2/5 432/2/5 431/2/5
f 436/2/5 433/2/5 435/2/5
f 437/2/6 438/2/6 439/2/6
f 439/2/6 438/2/6 440/2/6
f 441/3/6 442/3/6 445/3/6
f 445/3/6 442/3/6 446/3/6
f 443/3/6 444/3/6 447/3/6
f 447/3/6 444/3/6 448/3/6
f 449/3/6 450/3/6 453/3/6
f 453/3/6 450/3/6 454/3/6
f 451/3/6 452/3/6 455/3/6
f 455/3/6 452/3/6 456/3/6
f 457/2/6 458/2/6 459/2/6
f 459/2/6 458/2/6 460/2/6
f 460/2/6 458/2/6 461/2/6
f 461/2/6 458/2/6 462/2/6
f 462/2/6 458/2/6 463/2/6
f 463/2/6 458/2/6 464/2/6
f 465/2/6 466/2/6 469/2/6
f 467/2/6 468/2/6 470/2/6
f 465/2/6 469/2/6 472/2/6
f 469/2/6 470/2/6 472/2/6
f 470/2/6 468/2/6 473/2/6
f 472/2/6 470/2/6 473/2/6
f 471/2/6 472/2/6 475/2/6
f 475/2/6 472/2/6 476/2/6
f 473/2/6 474/2/6 479/2/6
f 479/2/6 474/2/6 480/2/6
f 476/2/6 477/2/6 481/2/6
f 481/2/6 477/2/6 482/2/6
f 478/2/6 479/2/6 483/2/6
f 483/2/6 479/2/6 484/2/6
f 482/2/6 483/2/6 485/2/6
f 485/2/6 483/2/6 486/2/6
f 487/2/6 488/2/6 489/2/6
f 489/2/6 488/2/6 490/2/6
f 490/2/6 488/2/6 491/2/6
f 491/2/6 488/2/6 492/2/6
f 490/2/6 491/2/6 493/2/6
f 493/2/6 491/2/6 494/2/6
