# MagicaVoxel @ Ephtracy

# material
mtllib chr_suit1.mtl
usemtl palette

# normals
vn -1 0 0
vn 1 0 0
vn 0 0 1
vn 0 0 -1
vn 0 -1 0
vn 0 1 0

# texcoords
vt 0.0332031 0.5
vt 0.0605469 0.5
vt 0.962891 0.5
vt 0.970703 0.5
vt 0.978516 0.5
vt 0.982422 0.5
vt 0.986328 0.5
vt 0.990234 0.5
vt 0.994141 0.5

# verts
v -4 2 0.5
v -4 2 -0.5
v -4 3 0.5
v -4 3 -0.5
v -4 6 0.5
v -4 6 -0.5
v -4 7 0.5
v -4 7 -0.5
v -4 8 0.5
v -4 8 -0.5
v -4 8 -1.5
v -4 9 1.5
v -4 9 -0.5
v -4 10 1.5
v -4 10 -1.5
v -3 1 1.5
v -3 1 -1.5
v -3 2 2.5
v -3 2 1.5
v -3 2 0.5
v -3 2 -0.5
v -3 2 -1.5
v -3 2 -2.5
v -3 3 2.5
v -3 3 0.5
v -3 3 -0.5
v -3 3 -1.5
v -3 6 2.5
v -3 6 1.5
v -3 6 0.5
v -3 6 -0.5
v -3 6 -1.5
v -3 6 -2.5
v -3 7 0.5
v -3 7 -0.5
v -3 8 0.5
v -3 8 -0.5
v -3 8 -1.5
v -3 8 -3.5
v -3 9 2.5
v -3 9 1.5
v -3 9 -0.5
v -3 9 -2.5
v -3 9 -3.5
v -3 10 2.5
v -3 10 1.5
v -3 10 -1.5
v -3 10 -2.5
v -3 11 1.5
v -3 11 -1.5
v -2 0 0.5
v -2 0 -0.5
v -2 1 0.5
v -2 1 -0.5
v -2 6 -1.5
v -2 6 -2.5
v -2 7 -2.5
v -2 7 -3.5
v -2 8 -1.5
v -2 8 -2.5
v -2 8 -3.5
v -2 9 -2.5
v -2 9 -3.5
v -2 10 -1.5
v -2 10 -2.5
v -2 10 -3.5
v -2 11 -1.5
v -2 11 -2.5
v 1 0 0.5
v 1 0 -0.5
v 1 1 1.5
v 1 1 0.5
v 1 1 -0.5
v 1 1 -1.5
v 1 2 1.5
v 1 2 -1.5
v 1 10 0.5
v 1 10 -0.5
v 1 11 0.5
v 1 11 -0.5
v 2 9 2.5
v 2 9 1.5
v 2 10 2.5
v 2 10 1.5
v 2 10 0.5
v 2 11 1.5
v 2 11 0.5
v -2 9 2.5
v -2 9 1.5
v -2 10 2.5
v -2 10 1.5
v -1 0 0.5
v -1 0 -0.5
v -1 1 1.5
v -1 1 0.5
v -1 1 -0.5
v -1 1 -1.5
v -1 2 1.5
v -1 2 -1.5
v -1 10 1.5
v -1 10 0.5
v -1 11 1.5
v -1 11 0.5
v 0 10 0.5
v 0 10 -0.5
v 0 11 0.5
v 0 11 -0.5
v 2 0 0.5
v 2 0 -0.5
v 2 1 0.5
v 2 1 -0.5
v 2 6 -1.5
v 2 6 -2.5
v 2 7 -1.5
v 2 7 -2.5
v 2 7 -3.5
v 2 10 -1.5
v 2 10 -2.5
v 2 10 -3.5
v 2 11 -1.5
v 2 11 -2.5
v 3 1 1.5
v 3 1 -1.5
v 3 2 2.5
v 3 2 1.5
v 3 2 0.5
v 3 2 -0.5
v 3 2 -1.5
v 3 2 -2.5
v 3 3 2.5
v 3 3 0.5
v 3 3 -0.5
v 3 3 -1.5
v 3 6 2.5
v 3 6 1.5
v 3 6 0.5
v 3 6 -0.5
v 3 6 -1.5
v 3 6 -2.5
v 3 7 0.5
v 3 7 -0.5
v 3 7 -1.5
v 3 7 -2.5
v 3 8 0.5
v 3 8 -0.5
v 3 9 2.5
v 3 9 1.5
v 3 9 -0.5
v 3 10 2.5
v 3 10 1.5
v 3 10 0.5
v 3 10 -0.5
v 3 10 -1.5
v 3 10 -2.5
v 3 11 1.5
v 3 11 0.5
v 3 11 -0.5
v 3 11 -1.5
v 4 2 0.5
v 4 2 -0.5
v 4 3 0.5
v 4 3 -0.5
v 4 6 0.5
v 4 6 -0.5
v 4 7 0.5
v 4 7 -0.5
v 4 7 -1.5
v 4 8 0.5
v 4 8 -0.5
v 4 9 1.5
v 4 9 0.5
v 4 9 -0.5
v 4 9 -1.5
v 4 10 1.5
v 4 10 0.5
v 4 10 -0.5
v 4 11 0.5
v 4 11 -0.5
v 5 9 0.5
v 5 9 -1.5
v 5 10 0.5
v 5 10 -1.5
v -3 2 2.5
v -3 3 2.5
v -3 6 2.5
v -3 9 2.5
v -3 10 2.5
v -2 4 2.5
v -2 6 2.5
v -2 9 2.5
v -2 10 2.5
v -1 3 2.5
v -1 4 2.5
v -1 6 2.5
v 0 4 2.5
v 0 5 2.5
v 1 3 2.5
v 1 4 2.5
v 1 5 2.5
v 1 6 2.5
v 2 4 2.5
v 2 6 2.5
v 2 9 2.5
v 2 10 2.5
v 3 2 2.5
v 3 3 2.5
v 3 6 2.5
v 3 9 2.5
v 3 10 2.5
v -4 9 1.5
v -4 10 1.5
v -3 1 1.5
v -3 2 1.5
v -3 6 1.5
v -3 9 1.5
v -3 10 1.5
v -3 11 1.5
v -2 6 1.5
v -2 7 1.5
v -2 8 1.5
v -2 9 1.5
v -2 10 1.5
v -1 1 1.5
v -1 2 1.5
v -1 6 1.5
v -1 7 1.5
v -1 8 1.5
v -1 10 1.5
v -1 11 1.5
v 1 1 1.5
v 1 2 1.5
v 1 6 1.5
v 1 7 1.5
v 1 8 1.5
v 2 6 1.5
v 2 7 1.5
v 2 8 1.5
v 2 9 1.5
v 2 10 1.5
v 2 11 1.5
v 3 1 1.5
v 3 2 1.5
v 3 6 1.5
v 3 9 1.5
v 3 10 1.5
v 3 11 1.5
v 4 9 1.5
v 4 10 1.5
v -4 2 0.5
v -4 3 0.5
v -4 6 0.5
v -4 7 0.5
v -4 8 0.5
v -3 2 0.5
v -3 3 0.5
v -3 6 0.5
v -3 7 0.5
v -3 8 0.5
v -2 0 0.5
v -2 1 0.5
v -1 0 0.5
v -1 1 0.5
v -1 10 0.5
v -1 11 0.5
v 0 10 0.5
v 0 11 0.5
v 1 0 0.5
v 1 1 0.5
v 1 10 0.5
v 1 11 0.5
v 2 0 0.5
v 2 1 0.5
v 2 10 0.5
v 2 11 0.5
v 3 2 0.5
v 3 3 0.5
v 3 6 0.5
v 3 7 0.5
v 3 8 0.5
v 3 10 0.5
v 3 11 0.5
v 4 2 0.5
v 4 3 0.5
v 4 6 0.5
v 4 7 0.5
v 4 8 0.5
v 4 9 0.5
v 4 10 0.5
v 4 11 0.5
v 5 9 0.5
v 5 10 0.5
v -4 8 -0.5
v -4 9 -0.5
v -3 8 -0.5
v -3 9 -0.5
v 0 10 -0.5
v 0 11 -0.5
v 1 10 -0.5
v 1 11 -0.5
v 3 8 -0.5
v 3 9 -0.5
v 4 8 -0.5
v 4 9 -0.5
v -4 2 -0.5
v -4 3 -0.5
v -4 6 -0.5
v -4 7 -0.5
v -4 8 -0.5
v -3 2 -0.5
v -3 3 -0.5
v -3 6 -0.5
v -3 7 -0.5
v -3 8 -0.5
v -2 0 -0.5
v -2 1 -0.5
v -1 0 -0.5
v -1 1 -0.5
v 1 0 -0.5
v 1 1 -0.5
v 2 0 -0.5
v 2 1 -0.5
v 3 2 -0.5
v 3 3 -0.5
v 3 6 -0.5
v 3 10 -0.5
v 3 11 -0.5
v 4 2 -0.5
v 4 3 -0.5
v 4 6 -0.5
v 4 10 -0.5
v 4 11 -0.5
v -4 8 -1.5
v -4 10 -1.5
v -3 1 -1.5
v -3 2 -1.5
v -3 6 -1.5
v -3 8 -1.5
v -3 10 -1.5
v -3 11 -1.5
v -2 6 -1.5
v -2 8 -1.5
v -2 10 -1.5
v -2 11 -1.5
v -1 1 -1.5
v -1 2 -1.5
v 1 1 -1.5
v 1 2 -1.5
v 2 6 -1.5
v 2 7 -1.5
v 2 10 -1.5
v 2 11 -1.5
v 3 1 -1.5
v 3 2 -1.5
v 3 6 -1.5
v 3 7 -1.5
v 3 10 -1.5
v 3 11 -1.5
v 4 7 -1.5
v 4 9 -1.5
v 5 9 -1.5
v 5 10 -1.5
v -3 2 -2.5
v -3 6 -2.5
v -3 9 -2.5
v -3 10 -2.5
v -2 6 -2.5
v -2 7 -2.5
v -2 9 -2.5
v -2 10 -2.5
v -2 11 -2.5
v 2 6 -2.5
v 2 7 -2.5
v 2 10 -2.5
v 2 11 -2.5
v 3 2 -2.5
v 3 6 -2.5
v 3 7 -2.5
v 3 10 -2.5
v -3 8 -3.5
v -3 9 -3.5
v -2 7 -3.5
v -2 8 -3.5
v -2 9 -3.5
v -2 10 -3.5
v 2 7 -3.5
v 2 10 -3.5
v -2 0 0.5
v -1 0 0.5
v 1 0 0.5
v 2 0 0.5
v -2 0 -0.5
v -1 0 -0.5
v 1 0 -0.5
v 2 0 -0.5
v -3 1 1.5
v -1 1 1.5
v 1 1 1.5
v 3 1 1.5
v -2 1 0.5
v -1 1 0.5
v 1 1 0.5
v 2 1 0.5
v -2 1 -0.5
v -1 1 -0.5
v 1 1 -0.5
v 2 1 -0.5
v -3 1 -1.5
v -1 1 -1.5
v 1 1 -1.5
v 3 1 -1.5
v -3 2 2.5
v 3 2 2.5
v -3 2 1.5
v -1 2 1.5
v 1 2 1.5
v 3 2 1.5
v -4 2 0.5
v -3 2 0.5
v 3 2 0.5
v 4 2 0.5
v -4 2 -0.5
v -3 2 -0.5
v 3 2 -0.5
v 4 2 -0.5
v -3 2 -1.5
v -1 2 -1.5
v 1 2 -1.5
v 3 2 -1.5
v -3 2 -2.5
v 3 2 -2.5
v -4 7 0.5
v -3 7 0.5
v 3 7 0.5
v 4 7 0.5
v -4 7 -0.5
v -3 7 -0.5
v 3 7 -0.5
v 4 7 -0.5
v 2 7 -1.5
v 3 7 -1.5
v 4 7 -1.5
v -2 7 -2.5
v 2 7 -2.5
v 3 7 -2.5
v -2 7 -3.5
v 2 7 -3.5
v -4 8 -0.5
v -3 8 -0.5
v -4 8 -1.5
v -3 8 -1.5
v -2 8 -1.5
v -2 8 -2.5
v -3 8 -3.5
v -2 8 -3.5
v -3 9 2.5
v -2 9 2.5
v 2 9 2.5
v 3 9 2.5
v -4 9 1.5
v -3 9 1.5
v -2 9 1.5
v 2 9 1.5
v 3 9 1.5
v 4 9 1.5
v 4 9 0.5
v 5 9 0.5
v -4 9 -0.5
v -3 9 -0.5
v 3 9 -0.5
v 4 9 -0.5
v 4 9 -1.5
v 5 9 -1.5
v -3 6 2.5
v -2 6 2.5
v -1 6 2.5
v 1 6 2.5
v 2 6 2.5
v 3 6 2.5
v -3 6 1.5
v -2 6 1.5
v -1 6 1.5
v 1 6 1.5
v 2 6 1.5
v 3 6 1.5
v -4 6 0.5
v -3 6 0.5
v 3 6 0.5
v 4 6 0.5
v -4 6 -0.5
v -3 6 -0.5
v 3 6 -0.5
v 4 6 -0.5
v -3 6 -1.5
v -2 6 -1.5
v 2 6 -1.5
v 3 6 -1.5
v -3 6 -2.5
v -2 6 -2.5
v 2 6 -2.5
v 3 6 -2.5
v -4 8 0.5
v -3 8 0.5
v 3 8 0.5
v 4 8 0.5
v -4 8 -0.5
v -3 8 -0.5
v 3 8 -0.5
v 4 8 -0.5
v -3 9 -2.5
v -2 9 -2.5
v -3 9 -3.5
v -2 9 -3.5
v -3 10 2.5
v -2 10 2.5
v 2 10 2.5
v 3 10 2.5
v -4 10 1.5
v -3 10 1.5
v -2 10 1.5
v -1 10 1.5
v 2 10 1.5
v 3 10 1.5
v 4 10 1.5
v -1 10 0.5
v 0 10 0.5
v 1 10 0.5
v 2 10 0.5
v 3 10 0.5
v 4 10 0.5
v 5 10 0.5
v 0 10 -0.5
v 1 10 -0.5
v 3 10 -0.5
v 4 10 -0.5
v -4 10 -1.5
v -3 10 -1.5
v -2 10 -1.5
v 2 10 -1.5
v 3 10 -1.5
v 5 10 -1.5
v -3 10 -2.5
v -2 10 -2.5
v 2 10 -2.5
v 3 10 -2.5
v -2 10 -3.5
v 2 10 -3.5
v -3 11 1.5
v -1 11 1.5
v 2 11 1.5
v 3 11 1.5
v -1 11 0.5
v 0 11 0.5
v 1 11 0.5
v 2 11 0.5
v 3 11 0.5
v 4 11 0.5
v 0 11 -0.5
v 1 11 -0.5
v 3 11 -0.5
v 4 11 -0.5
v -3 11 -1.5
v -2 11 -1.5
v 2 11 -1.5
v 3 11 -1.5
v -2 11 -2.5
v 2 11 -2.5

# faces
f 3/1/1 2/1/1 1/1/1
f 4/1/1 2/1/1 3/1/1
f 5/7/1 4/7/1 3/7/1
f 6/7/1 4/7/1 5/7/1
f 9/2/1 8/2/1 7/2/1
f 10/2/1 8/2/1 9/2/1
f 13/6/1 11/6/1 10/6/1
f 14/6/1 13/6/1 12/6/1
f 15/6/1 11/6/1 13/6/1
f 15/6/1 13/6/1 14/6/1
f 19/4/1 17/4/1 16/4/1
f 20/4/1 17/4/1 19/4/1
f 21/4/1 17/4/1 20/4/1
f 22/4/1 17/4/1 21/4/1
f 24/4/1 19/4/1 18/4/1
f 24/4/1 20/4/1 19/4/1
f 25/4/1 20/4/1 24/4/1
f 26/4/1 22/4/1 21/4/1
f 27/7/1 23/7/1 22/7/1
f 27/4/1 22/4/1 26/4/1
f 28/7/1 25/7/1 24/7/1
f 29/7/1 25/7/1 28/7/1
f 30/7/1 25/7/1 29/7/1
f 31/7/1 27/7/1 26/7/1
f 32/7/1 23/7/1 27/7/1
f 32/7/1 27/7/1 31/7/1
f 33/7/1 23/7/1 32/7/1
f 34/1/1 31/1/1 30/1/1
f 34/1/1 30/1/1 29/1/1
f 34/1/1 32/1/1 31/1/1
f 35/1/1 32/1/1 34/1/1
f 36/1/1 34/1/1 29/1/1
f 37/1/1 32/1/1 35/1/1
f 38/1/1 32/1/1 37/1/1
f 41/1/1 36/1/1 29/1/1
f 41/1/1 37/1/1 36/1/1
f 42/1/1 37/1/1 41/1/1
f 43/6/1 39/6/1 38/6/1
f 44/6/1 39/6/1 43/6/1
f 45/6/1 41/6/1 40/6/1
f 46/6/1 41/6/1 45/6/1
f 47/6/1 43/6/1 38/6/1
f 48/6/1 43/6/1 47/6/1
f 49/6/1 47/6/1 46/6/1
f 50/6/1 47/6/1 49/6/1
f 53/8/1 52/8/1 51/8/1
f 54/8/1 52/8/1 53/8/1
f 57/1/1 56/1/1 55/1/1
f 59/1/1 57/1/1 55/1/1
f 60/6/1 58/6/1 57/6/1
f 60/1/1 57/1/1 59/1/1
f 61/6/1 58/6/1 60/6/1
f 65/6/1 63/6/1 62/6/1
f 66/6/1 63/6/1 65/6/1
f 67/6/1 65/6/1 64/6/1
f 68/6/1 65/6/1 67/6/1
f 72/8/1 70/8/1 69/8/1
f 73/8/1 70/8/1 72/8/1
f 75/4/1 72/4/1 71/4/1
f 75/4/1 74/4/1 73/4/1
f 75/4/1 73/4/1 72/4/1
f 76/4/1 74/4/1 75/4/1
f 79/6/1 78/6/1 77/6/1
f 80/6/1 78/6/1 79/6/1
f 83/6/1 82/6/1 81/6/1
f 84/6/1 82/6/1 83/6/1
f 86/6/1 85/6/1 84/6/1
f 87/6/1 85/6/1 86/6/1
f 88/6/2 89/6/2 90/6/2
f 90/6/2 89/6/2 91/6/2
f 92/8/2 93/8/2 95/8/2
f 95/8/2 93/8/2 96/8/2
f 94/4/2 95/4/2 98/4/2
f 96/4/2 97/4/2 98/4/2
f 95/4/2 96/4/2 98/4/2
f 98/4/2 97/4/2 99/4/2
f 100/6/2 101/6/2 102/6/2
f 102/6/2 101/6/2 103/6/2
f 104/6/2 105/6/2 106/6/2
f 106/6/2 105/6/2 107/6/2
f 108/8/2 109/8/2 110/8/2
f 110/8/2 109/8/2 111/8/2
f 112/1/2 113/1/2 114/1/2
f 114/1/2 113/1/2 115/1/2
f 115/6/2 116/6/2 118/6/2
f 118/6/2 116/6/2 119/6/2
f 117/6/2 118/6/2 120/6/2
f 120/6/2 118/6/2 121/6/2
f 122/4/2 123/4/2 125/4/2
f 125/4/2 123/4/2 126/4/2
f 126/4/2 123/4/2 127/4/2
f 127/4/2 123/4/2 128/4/2
f 124/4/2 125/4/2 130/4/2
f 125/4/2 126/4/2 130/4/2
f 130/4/2 126/4/2 131/4/2
f 127/4/2 128/4/2 132/4/2
f 128/7/2 129/7/2 133/7/2
f 132/4/2 128/4/2 133/4/2
f 130/7/2 131/7/2 134/7/2
f 134/7/2 131/7/2 135/7/2
f 135/7/2 131/7/2 136/7/2
f 132/7/2 133/7/2 137/7/2
f 133/7/2 129/7/2 138/7/2
f 137/7/2 133/7/2 138/7/2
f 138/7/2 129/7/2 139/7/2
f 136/1/2 137/1/2 140/1/2
f 135/1/2 136/1/2 140/1/2
f 137/1/2 138/1/2 140/1/2
f 140/1/2 138/1/2 141/1/2
f 141/1/2 138/1/2 142/1/2
f 135/1/2 140/1/2 144/1/2
f 135/1/2 144/1/2 147/1/2
f 144/1/2 145/1/2 147/1/2
f 147/1/2 145/1/2 148/1/2
f 146/6/2 147/6/2 149/6/2
f 149/6/2 147/6/2 150/6/2
f 142/6/2 143/6/2 153/6/2
f 153/6/2 143/6/2 154/6/2
f 150/6/2 151/6/2 155/6/2
f 155/6/2 151/6/2 156/6/2
f 152/6/2 153/6/2 157/6/2
f 157/6/2 153/6/2 158/6/2
f 159/1/2 160/1/2 161/1/2
f 161/1/2 160/1/2 162/1/2
f 161/7/2 162/7/2 163/7/2
f 163/7/2 162/7/2 164/7/2
f 165/2/2 166/2/2 168/2/2
f 166/6/2 167/6/2 169/6/2
f 168/2/2 166/2/2 169/2/2
f 169/6/2 167/6/2 172/6/2
f 172/6/2 167/6/2 173/6/2
f 170/6/2 171/6/2 174/6/2
f 174/6/2 171/6/2 175/6/2
f 175/6/2 176/6/2 177/6/2
f 177/6/2 176/6/2 178/6/2
f 179/6/2 180/6/2 181/6/2
f 181/6/2 180/6/2 182/6/2
f 188/7/3 185/7/3 184/7/3
f 189/7/3 185/7/3 188/7/3
f 190/6/3 187/6/3 186/6/3
f 191/6/3 187/6/3 190/6/3
f 192/4/3 184/4/3 183/4/3
f 192/7/3 188/7/3 184/7/3
f 193/5/3 189/5/3 188/5/3
f 193/7/3 188/7/3 192/7/3
f 194/5/3 189/5/3 193/5/3
f 195/5/3 193/5/3 192/5/3
f 195/3/3 194/3/3 193/3/3
f 196/3/3 194/3/3 195/3/3
f 197/4/3 192/4/3 183/4/3
f 197/5/3 195/5/3 192/5/3
f 197/5/3 196/5/3 195/5/3
f 198/5/3 196/5/3 197/5/3
f 199/3/3 194/3/3 196/3/3
f 199/5/3 196/5/3 198/5/3
f 200/3/3 194/3/3 199/3/3
f 201/7/3 198/7/3 197/7/3
f 201/5/3 199/5/3 198/5/3
f 201/5/3 200/5/3 199/5/3
f 202/5/3 200/5/3 201/5/3
f 205/4/3 197/4/3 183/4/3
f 206/7/3 202/7/3 201/7/3
f 206/4/3 197/4/3 205/4/3
f 206/7/3 201/7/3 197/7/3
f 207/7/3 202/7/3 206/7/3
f 208/6/3 204/6/3 203/6/3
f 209/6/3 204/6/3 208/6/3
f 215/6/3 211/6/3 210/6/3
f 216/6/3 211/6/3 215/6/3
f 218/1/3 215/1/3 214/1/3
f 219/1/3 215/1/3 218/1/3
f 220/1/3 215/1/3 219/1/3
f 221/1/3 215/1/3 220/1/3
f 222/6/3 217/6/3 216/6/3
f 223/4/3 213/4/3 212/4/3
f 224/4/3 213/4/3 223/4/3
f 225/1/3 219/1/3 218/1/3
f 226/9/3 220/9/3 219/9/3
f 226/1/3 219/1/3 225/1/3
f 227/1/3 222/1/3 221/1/3
f 227/9/3 220/9/3 226/9/3
f 227/1/3 221/1/3 220/1/3
f 228/6/3 217/6/3 222/6/3
f 228/1/3 222/1/3 227/1/3
f 229/6/3 217/6/3 228/6/3
f 232/1/3 226/1/3 225/1/3
f 232/1/3 227/1/3 226/1/3
f 232/1/3 228/1/3 227/1/3
f 233/1/3 228/1/3 232/1/3
f 234/1/3 228/1/3 233/1/3
f 235/1/3 233/1/3 232/1/3
f 236/9/3 234/9/3 233/9/3
f 236/1/3 233/1/3 235/1/3
f 237/1/3 228/1/3 234/1/3
f 237/9/3 234/9/3 236/9/3
f 238/1/3 228/1/3 237/1/3
f 239/1/3 228/1/3 238/1/3
f 241/4/3 231/4/3 230/4/3
f 242/4/3 231/4/3 241/4/3
f 243/1/3 236/1/3 235/1/3
f 243/1/3 237/1/3 236/1/3
f 243/1/3 238/1/3 237/1/3
f 244/1/3 238/1/3 243/1/3
f 245/6/3 240/6/3 239/6/3
f 246/6/3 240/6/3 245/6/3
f 247/6/3 245/6/3 244/6/3
f 248/6/3 245/6/3 247/6/3
f 254/1/3 250/1/3 249/1/3
f 255/7/3 251/7/3 250/7/3
f 255/1/3 250/1/3 254/1/3
f 256/7/3 251/7/3 255/7/3
f 257/2/3 253/2/3 252/2/3
f 258/2/3 253/2/3 257/2/3
f 261/8/3 260/8/3 259/8/3
f 262/8/3 260/8/3 261/8/3
f 265/6/3 264/6/3 263/6/3
f 266/6/3 264/6/3 265/6/3
f 271/8/3 268/8/3 267/8/3
f 272/8/3 268/8/3 271/8/3
f 273/6/3 270/6/3 269/6/3
f 274/6/3 270/6/3 273/6/3
f 282/1/3 276/1/3 275/1/3
f 283/7/3 277/7/3 276/7/3
f 283/1/3 276/1/3 282/1/3
f 284/7/3 277/7/3 283/7/3
f 285/2/3 279/2/3 278/2/3
f 286/2/3 279/2/3 285/2/3
f 288/6/3 281/6/3 280/6/3
f 289/6/3 281/6/3 288/6/3
f 290/6/3 288/6/3 287/6/3
f 291/6/3 288/6/3 290/6/3
f 294/6/3 293/6/3 292/6/3
f 295/6/3 293/6/3 294/6/3
f 298/6/3 297/6/3 296/6/3
f 299/6/3 297/6/3 298/6/3
f 302/6/3 301/6/3 300/6/3
f 303/6/3 301/6/3 302/6/3
f 304/1/4 305/1/4 309/1/4
f 305/7/4 306/7/4 310/7/4
f 309/1/4 305/1/4 310/1/4
f 310/7/4 306/7/4 311/7/4
f 307/2/4 308/2/4 312/2/4
f 312/2/4 308/2/4 313/2/4
f 314/8/4 315/8/4 316/8/4
f 316/8/4 315/8/4 317/8/4
f 318/8/4 319/8/4 320/8/4
f 320/8/4 319/8/4 321/8/4
f 322/1/4 323/1/4 327/1/4
f 323/7/4 324/7/4 328/7/4
f 327/1/4 323/1/4 328/1/4
f 328/7/4 324/7/4 329/7/4
f 325/6/4 326/6/4 330/6/4
f 330/6/4 326/6/4 331/6/4
f 332/6/4 333/6/4 337/6/4
f 337/6/4 333/6/4 338/6/4
f 336/1/4 337/1/4 340/1/4
f 340/1/4 337/1/4 341/1/4
f 338/6/4 339/6/4 342/6/4
f 342/6/4 339/6/4 343/6/4
f 334/4/4 335/4/4 344/4/4
f 344/4/4 335/4/4 345/4/4
f 346/4/4 347/4/4 352/4/4
f 352/4/4 347/4/4 353/4/4
f 348/1/4 349/1/4 354/1/4
f 354/1/4 349/1/4 355/1/4
f 350/6/4 351/6/4 356/6/4
f 356/6/4 351/6/4 357/6/4
f 355/6/4 356/6/4 358/6/4
f 358/6/4 356/6/4 359/6/4
f 359/6/4 356/6/4 360/6/4
f 360/6/4 356/6/4 361/6/4
f 362/7/4 363/7/4 366/7/4
f 364/6/4 365/6/4 368/6/4
f 368/6/4 365/6/4 369/6/4
f 366/1/4 367/1/4 371/1/4
f 362/7/4 366/7/4 371/7/4
f 371/1/4 367/1/4 372/1/4
f 369/6/4 370/6/4 373/6/4
f 373/6/4 370/6/4 374/6/4
f 362/7/4 371/7/4 375/7/4
f 375/7/4 371/7/4 376/7/4
f 372/6/4 373/6/4 377/6/4
f 377/6/4 373/6/4 378/6/4
f 379/6/4 380/6/4 382/6/4
f 382/6/4 380/6/4 383/6/4
f 381/6/4 382/6/4 385/6/4
f 383/6/4 384/6/4 385/6/4
f 382/6/4 383/6/4 385/6/4
f 385/6/4 384/6/4 386/6/4
f 391/8/5 388/8/5 387/8/5
f 392/8/5 388/8/5 391/8/5
f 393/8/5 390/8/5 389/8/5
f 394/8/5 390/8/5 393/8/5
f 399/4/5 396/4/5 395/4/5
f 400/4/5 396/4/5 399/4/5
f 401/4/5 398/4/5 397/4/5
f 402/4/5 398/4/5 401/4/5
f 403/4/5 399/4/5 395/4/5
f 406/4/5 398/4/5 402/4/5
f 407/4/5 404/4/5 403/4/5
f 407/4/5 403/4/5 395/4/5
f 408/4/5 404/4/5 407/4/5
f 409/4/5 406/4/5 405/4/5
f 410/4/5 398/4/5 406/4/5
f 410/4/5 406/4/5 409/4/5
f 413/4/5 412/4/5 411/4/5
f 414/4/5 412/4/5 413/4/5
f 415/4/5 412/4/5 414/4/5
f 416/4/5 412/4/5 415/4/5
f 421/1/5 418/1/5 417/1/5
f 422/1/5 418/1/5 421/1/5
f 423/1/5 420/1/5 419/1/5
f 424/1/5 420/1/5 423/1/5
f 426/4/5 415/4/5 414/4/5
f 427/4/5 415/4/5 426/4/5
f 429/7/5 426/7/5 425/7/5
f 429/7/5 428/7/5 427/7/5
f 429/7/5 427/7/5 426/7/5
f 430/7/5 428/7/5 429/7/5
f 435/2/5 432/2/5 431/2/5
f 436/2/5 432/2/5 435/2/5
f 437/2/5 434/2/5 433/2/5
f 438/2/5 434/2/5 437/2/5
f 440/6/5 438/6/5 437/6/5
f 441/6/5 438/6/5 440/6/5
f 443/6/5 440/6/5 439/6/5
f 444/6/5 440/6/5 443/6/5
f 445/6/5 443/6/5 442/6/5
f 446/6/5 443/6/5 445/6/5
f 449/6/5 448/6/5 447/6/5
f 450/6/5 448/6/5 449/6/5
f 452/6/5 451/6/5 450/6/5
f 453/6/5 452/6/5 450/6/5
f 454/6/5 452/6/5 453/6/5
f 460/6/5 456/6/5 455/6/5
f 461/6/5 456/6/5 460/6/5
f 462/6/5 458/6/5 457/6/5
f 463/6/5 458/6/5 462/6/5
f 465/6/5 464/6/5 463/6/5
f 467/6/5 460/6/5 459/6/5
f 468/6/5 460/6/5 467/6/5
f 469/6/5 466/6/5 465/6/5
f 469/6/5 465/6/5 463/6/5
f 470/6/5 466/6/5 469/6/5
f 471/6/5 466/6/5 470/6/5
f 472/6/5 466/6/5 471/6/5
f 473/7/6 474/7/6 479/7/6
f 474/5/6 475/5/6 480/5/6
f 479/7/6 474/7/6 480/7/6
f 475/3/6 476/3/6 481/3/6
f 480/5/6 475/5/6 481/5/6
f 476/5/6 477/5/6 482/5/6
f 481/3/6 476/3/6 482/3/6
f 477/7/6 478/7/6 483/7/6
f 482/5/6 477/5/6 483/5/6
f 483/7/6 478/7/6 484/7/6
f 485/7/6 486/7/6 489/7/6
f 489/7/6 486/7/6 490/7/6
f 487/7/6 488/7/6 491/7/6
f 491/7/6 488/7/6 492/7/6
f 493/7/6 494/7/6 497/7/6
f 497/7/6 494/7/6 498/7/6
f 495/7/6 496/7/6 499/7/6
f 499/7/6 496/7/6 500/7/6
f 501/2/6 502/2/6 505/2/6
f 505/2/6 502/2/6 506/2/6
f 503/2/6 504/2/6 507/2/6
f 507/2/6 504/2/6 508/2/6
f 509/6/6 510/6/6 511/6/6
f 511/6/6 510/6/6 512/6/6
f 513/6/6 514/6/6 518/6/6
f 518/6/6 514/6/6 519/6/6
f 515/6/6 516/6/6 521/6/6
f 521/6/6 516/6/6 522/6/6
f 520/1/6 521/1/6 524/1/6
f 524/1/6 521/1/6 525/1/6
f 525/1/6 521/1/6 526/1/6
f 526/1/6 521/1/6 527/1/6
f 522/6/6 523/6/6 528/6/6
f 528/6/6 523/6/6 529/6/6
f 525/1/6 526/1/6 531/1/6
f 531/1/6 526/1/6 532/1/6
f 529/6/6 530/6/6 534/6/6
f 517/6/6 518/6/6 535/6/6
f 535/6/6 518/6/6 536/6/6
f 533/6/6 534/6/6 539/6/6
f 534/6/6 530/6/6 540/6/6
f 539/6/6 534/6/6 540/6/6
f 536/6/6 537/6/6 541/6/6
f 541/6/6 537/6/6 542/6/6
f 538/6/6 539/6/6 543/6/6
f 543/6/6 539/6/6 544/6/6
f 542/6/6 543/6/6 545/6/6
f 545/6/6 543/6/6 546/6/6
f 547/6/6 548/6/6 551/6/6
f 549/6/6 550/6/6 554/6/6
f 554/6/6 550/6/6 555/6/6
f 551/6/6 552/6/6 557/6/6
f 555/6/6 556/6/6 558/6/6
f 553/6/6 554/6/6 558/6/6
f 554/6/6 555/6/6 558/6/6
f 558/6/6 556/6/6 559/6/6
f 559/6/6 556/6/6 560/6/6
f 551/6/6 557/6/6 561/6/6
f 547/6/6 551/6/6 561/6/6
f 558/6/6 559/6/6 561/6/6
f 557/6/6 558/6/6 561/6/6
f 561/6/6 559/6/6 562/6/6
f 562/6/6 559/6/6 563/6/6
f 563/6/6 559/6/6 564/6/6
f 562/6/6 563/6/6 565/6/6
f 565/6/6 563/6/6 566/6/6
