# MagicaVoxel @ Ephtracy

# material
mtllib chr_scientist.mtl
usemtl palette

# normals
vn -1 0 0
vn 1 0 0
vn 0 0 1
vn 0 0 -1
vn 0 -1 0
vn 0 1 0

# texcoords
vt 0.0332031 0.5
vt 0.611328 0.5
vt 0.646484 0.5
vt 0.962891 0.5
vt 0.966797 0.5
vt 0.970703 0.5
vt 0.974609 0.5
vt 0.978516 0.5
vt 0.982422 0.5
vt 0.986328 0.5
vt 0.990234 0.5
vt 0.994141 0.5

# verts
v -5 7 -0
v -5 7 -1
v -5 8 1
v -5 8 -0
v -5 8 -1
v -5 9 2
v -5 9 1
v -5 9 -1
v -5 10 2
v -5 10 -1
v -4 2 1
v -4 2 -0
v -4 4 1
v -4 4 -0
v -4 6 1
v -4 6 -0
v -4 7 1
v -4 7 -0
v -4 7 -1
v -4 7 -2
v -4 8 1
v -4 8 -0
v -4 8 -1
v -4 9 -1
v -4 10 2
v -4 10 -1
v -4 10 -2
v -4 11 2
v -4 11 -1
v -3 1 2
v -3 1 -1
v -3 2 3
v -3 2 2
v -3 2 1
v -3 2 -0
v -3 2 -1
v -3 2 -2
v -3 4 1
v -3 4 -0
v -3 6 3
v -3 6 2
v -3 6 1
v -3 6 -0
v -3 6 -1
v -3 6 -2
v -3 7 1
v -3 7 -0
v -3 7 -1
v -3 7 -2
v -3 7 -3
v -3 8 1
v -3 9 3
v -3 9 2
v -3 9 1
v -3 10 3
v -3 10 2
v -3 10 -1
v -3 10 -2
v -3 10 -3
v -3 11 -1
v -3 11 -2
v -2 0 1
v -2 0 -0
v -2 1 1
v -2 1 -0
v -2 6 -1
v -2 6 -2
v -2 7 -1
v -2 7 -2
v -1 6 -2
v -1 6 -3
v -1 7 -2
v -1 7 -3
v 1 0 1
v 1 0 -0
v 1 1 2
v 1 1 1
v 1 1 -0
v 1 1 -1
v 1 2 2
v 1 2 -1
v 1 9 3
v 1 9 2
v 1 10 3
v 1 10 2
v -1 0 1
v -1 0 -0
v -1 1 2
v -1 1 1
v -1 1 -0
v -1 1 -1
v -1 2 2
v -1 2 -1
v -1 9 3
v -1 9 2
v -1 10 3
v -1 10 2
v 1 6 -2
v 1 6 -3
v 1 7 -2
v 1 7 -3
v 2 0 1
v 2 0 -0
v 2 1 1
v 2 1 -0
v 2 6 -1
v 2 6 -2
v 2 7 -1
v 2 7 -2
v 3 1 2
v 3 1 -1
v 3 2 3
v 3 2 2
v 3 2 1
v 3 2 -0
v 3 2 -1
v 3 2 -2
v 3 4 1
v 3 4 -0
v 3 6 3
v 3 6 2
v 3 6 1
v 3 6 -0
v 3 6 -1
v 3 6 -2
v 3 7 1
v 3 7 -0
v 3 7 -1
v 3 7 -2
v 3 7 -3
v 3 8 1
v 3 9 3
v 3 9 2
v 3 9 1
v 3 10 3
v 3 10 2
v 3 10 -1
v 3 10 -2
v 3 10 -3
v 3 11 -1
v 3 11 -2
v 4 2 1
v 4 2 -0
v 4 4 1
v 4 4 -0
v 4 6 1
v 4 6 -0
v 4 7 1
v 4 7 -0
v 4 7 -1
v 4 7 -2
v 4 8 1
v 4 8 -0
v 4 8 -1
v 4 9 -1
v 4 10 2
v 4 10 -1
v 4 10 -2
v 4 11 2
v 4 11 -1
v 5 7 -0
v 5 7 -1
v 5 8 1
v 5 8 -0
v 5 8 -1
v 5 9 2
v 5 9 1
v 5 9 -1
v 5 10 2
v 5 10 -1
v -3 2 3
v -3 6 3
v -3 9 3
v -3 10 3
v -2 2 3
v -2 3 3
v -2 5 3
v -2 6 3
v -1 2 3
v -1 3 3
v -1 5 3
v -1 6 3
v -1 9 3
v -1 10 3
v 1 9 3
v 1 10 3
v 3 2 3
v 3 6 3
v 3 9 3
v 3 10 3
v -5 9 2
v -5 10 2
v -4 10 2
v -4 11 2
v -3 1 2
v -3 2 2
v -3 6 2
v -3 9 2
v -3 10 2
v -2 2 2
v -2 6 2
v -2 7 2
v -2 8 2
v -1 1 2
v -1 2 2
v -1 6 2
v -1 7 2
v -1 8 2
v -1 9 2
v -1 10 2
v 1 1 2
v 1 2 2
v 1 7 2
v 1 8 2
v 1 9 2
v 1 10 2
v 2 7 2
v 2 8 2
v 3 1 2
v 3 2 2
v 3 6 2
v 3 9 2
v 3 10 2
v 4 10 2
v 4 11 2
v 5 9 2
v 5 10 2
v -5 8 1
v -5 9 1
v -4 2 1
v -4 4 1
v -4 6 1
v -4 7 1
v -4 8 1
v -3 2 1
v -3 4 1
v -3 6 1
v -3 7 1
v -3 8 1
v -3 9 1
v -2 0 1
v -2 1 1
v -1 0 1
v -1 1 1
v 1 0 1
v 1 1 1
v 2 0 1
v 2 1 1
v 3 2 1
v 3 4 1
v 3 6 1
v 3 7 1
v 3 8 1
v 3 9 1
v 4 2 1
v 4 4 1
v 4 6 1
v 4 7 1
v 4 8 1
v 5 8 1
v 5 9 1
v -5 7 -0
v -5 8 -0
v -4 7 -0
v -4 8 -0
v 4 7 -0
v 4 8 -0
v 5 7 -0
v 5 8 -0
v -4 2 -0
v -4 4 -0
v -4 6 -0
v -3 2 -0
v -3 4 -0
v -3 6 -0
v -2 0 -0
v -2 1 -0
v -1 0 -0
v -1 1 -0
v 1 0 -0
v 1 1 -0
v 2 0 -0
v 2 1 -0
v 3 2 -0
v 3 4 -0
v 3 6 -0
v 4 2 -0
v 4 4 -0
v 4 6 -0
v -5 7 -1
v -5 8 -1
v -5 9 -1
v -5 10 -1
v -4 7 -1
v -4 8 -1
v -4 9 -1
v -4 10 -1
v -4 11 -1
v -3 1 -1
v -3 2 -1
v -3 6 -1
v -3 7 -1
v -3 10 -1
v -3 11 -1
v -2 6 -1
v -2 7 -1
v -1 1 -1
v -1 2 -1
v 1 1 -1
v 1 2 -1
v 2 6 -1
v 2 7 -1
v 3 1 -1
v 3 2 -1
v 3 6 -1
v 3 7 -1
v 3 10 -1
v 3 11 -1
v 4 7 -1
v 4 8 -1
v 4 9 -1
v 4 10 -1
v 4 11 -1
v 5 7 -1
v 5 8 -1
v 5 9 -1
v 5 10 -1
v -4 7 -2
v -4 10 -2
v -3 2 -2
v -3 6 -2
v -3 7 -2
v -3 10 -2
v -3 11 -2
v -2 6 -2
v -2 7 -2
v -1 6 -2
v -1 7 -2
v 1 6 -2
v 1 7 -2
v 2 6 -2
v 2 7 -2
v 3 2 -2
v 3 6 -2
v 3 7 -2
v 3 10 -2
v 3 11 -2
v 4 7 -2
v 4 10 -2
v -3 7 -3
v -3 10 -3
v -1 6 -3
v -1 7 -3
v 1 6 -3
v 1 7 -3
v 3 7 -3
v 3 10 -3
v -2 0 1
v -1 0 1
v 1 0 1
v 2 0 1
v -2 0 -0
v -1 0 -0
v 1 0 -0
v 2 0 -0
v -3 1 2
v -1 1 2
v 1 1 2
v 3 1 2
v -2 1 1
v -1 1 1
v 1 1 1
v 2 1 1
v -2 1 -0
v -1 1 -0
v 1 1 -0
v 2 1 -0
v -3 1 -1
v -1 1 -1
v 1 1 -1
v 3 1 -1
v -3 2 3
v -2 2 3
v -1 2 3
v 3 2 3
v -3 2 2
v -2 2 2
v -1 2 2
v 1 2 2
v 3 2 2
v -4 2 1
v -3 2 1
v 3 2 1
v 4 2 1
v -4 2 -0
v -3 2 -0
v 3 2 -0
v 4 2 -0
v -3 2 -1
v -1 2 -1
v 1 2 -1
v 3 2 -1
v -3 2 -2
v 3 2 -2
v -1 6 -2
v 1 6 -2
v -1 6 -3
v 1 6 -3
v -4 7 1
v -3 7 1
v 3 7 1
v 4 7 1
v -5 7 -0
v -4 7 -0
v -3 7 -0
v 3 7 -0
v 4 7 -0
v 5 7 -0
v -5 7 -1
v -4 7 -1
v -3 7 -1
v -2 7 -1
v 2 7 -1
v 3 7 -1
v 4 7 -1
v 5 7 -1
v -4 7 -2
v -3 7 -2
v -2 7 -2
v -1 7 -2
v 1 7 -2
v 2 7 -2
v 3 7 -2
v 4 7 -2
v -3 7 -3
v -1 7 -3
v 1 7 -3
v 3 7 -3
v -5 8 1
v -4 8 1
v 4 8 1
v 5 8 1
v -5 8 -0
v -4 8 -0
v 4 8 -0
v 5 8 -0
v -3 9 3
v -1 9 3
v 1 9 3
v 3 9 3
v -5 9 2
v -3 9 2
v -1 9 2
v 1 9 2
v 3 9 2
v 5 9 2
v -5 9 1
v -3 9 1
v 3 9 1
v 5 9 1
v -3 6 3
v -2 6 3
v -1 6 3
v 3 6 3
v -3 6 2
v -2 6 2
v -1 6 2
v 3 6 2
v -4 6 1
v -3 6 1
v 3 6 1
v 4 6 1
v -4 6 -0
v -3 6 -0
v 3 6 -0
v 4 6 -0
v -3 6 -1
v -2 6 -1
v 2 6 -1
v 3 6 -1
v -3 6 -2
v -2 6 -2
v 2 6 -2
v 3 6 -2
v -3 10 3
v -1 10 3
v 1 10 3
v 3 10 3
v -5 10 2
v -4 10 2
v -3 10 2
v -1 10 2
v 1 10 2
v 3 10 2
v 4 10 2
v 5 10 2
v -5 10 -1
v -4 10 -1
v -3 10 -1
v 3 10 -1
v 4 10 -1
v 5 10 -1
v -4 10 -2
v -3 10 -2
v 3 10 -2
v 4 10 -2
v -3 10 -3
v 3 10 -3
v -4 11 2
v 4 11 2
v -4 11 -1
v -3 11 -1
v 3 11 -1
v 4 11 -1
v -3 11 -2
v 3 11 -2

# faces
f 4/6/1 2/6/1 1/6/1
f 5/6/1 2/6/1 4/6/1
f 7/7/1 4/7/1 3/7/1
f 7/7/1 5/7/1 4/7/1
f 8/7/1 5/7/1 7/7/1
f 9/6/1 7/6/1 6/6/1
f 9/6/1 8/6/1 7/6/1
f 10/6/1 8/6/1 9/6/1
f 13/2/1 12/2/1 11/2/1
f 14/2/1 12/2/1 13/2/1
f 15/4/1 14/4/1 13/4/1
f 16/4/1 14/4/1 15/4/1
f 21/1/1 18/1/1 17/1/1
f 22/1/1 18/1/1 21/1/1
f 23/6/1 20/6/1 19/6/1
f 24/6/1 20/6/1 23/6/1
f 26/6/1 20/6/1 24/6/1
f 27/6/1 20/6/1 26/6/1
f 28/6/1 26/6/1 25/6/1
f 29/6/1 26/6/1 28/6/1
f 33/8/1 31/8/1 30/8/1
f 34/8/1 31/8/1 33/8/1
f 35/8/1 31/8/1 34/8/1
f 36/8/1 31/8/1 35/8/1
f 38/4/1 33/4/1 32/4/1
f 38/4/1 34/4/1 33/4/1
f 39/4/1 37/4/1 36/4/1
f 39/4/1 36/4/1 35/4/1
f 40/4/1 38/4/1 32/4/1
f 41/4/1 38/4/1 40/4/1
f 42/4/1 38/4/1 41/4/1
f 43/4/1 37/4/1 39/4/1
f 44/4/1 37/4/1 43/4/1
f 45/4/1 37/4/1 44/4/1
f 46/1/1 42/1/1 41/1/1
f 46/1/1 44/1/1 43/1/1
f 46/1/1 43/1/1 42/1/1
f 47/1/1 44/1/1 46/1/1
f 48/1/1 44/1/1 47/1/1
f 51/1/1 46/1/1 41/1/1
f 53/1/1 51/1/1 41/1/1
f 54/1/1 51/1/1 53/1/1
f 55/10/1 53/10/1 52/10/1
f 56/10/1 53/10/1 55/10/1
f 58/6/1 50/6/1 49/6/1
f 59/6/1 50/6/1 58/6/1
f 60/6/1 58/6/1 57/6/1
f 61/6/1 58/6/1 60/6/1
f 64/10/1 63/10/1 62/10/1
f 65/10/1 63/10/1 64/10/1
f 68/1/1 67/1/1 66/1/1
f 69/1/1 67/1/1 68/1/1
f 72/6/1 71/6/1 70/6/1
f 73/6/1 71/6/1 72/6/1
f 77/10/1 75/10/1 74/10/1
f 78/10/1 75/10/1 77/10/1
f 80/8/1 77/8/1 76/8/1
f 80/8/1 79/8/1 78/8/1
f 80/8/1 78/8/1 77/8/1
f 81/8/1 79/8/1 80/8/1
f 84/10/1 83/10/1 82/10/1
f 85/10/1 83/10/1 84/10/1
f 86/10/2 87/10/2 89/10/2
f 89/10/2 87/10/2 90/10/2
f 88/8/2 89/8/2 92/8/2
f 90/8/2 91/8/2 92/8/2
f 89/8/2 90/8/2 92/8/2
f 92/8/2 91/8/2 93/8/2
f 94/10/2 95/10/2 96/10/2
f 96/10/2 95/10/2 97/10/2
f 98/6/2 99/6/2 100/6/2
f 100/6/2 99/6/2 101/6/2
f 102/10/2 103/10/2 104/10/2
f 104/10/2 103/10/2 105/10/2
f 106/1/2 107/1/2 108/1/2
f 108/1/2 107/1/2 109/1/2
f 110/8/2 111/8/2 113/8/2
f 113/8/2 111/8/2 114/8/2
f 114/8/2 111/8/2 115/8/2
f 115/8/2 111/8/2 116/8/2
f 112/4/2 113/4/2 118/4/2
f 113/4/2 114/4/2 118/4/2
f 116/4/2 117/4/2 119/4/2
f 115/4/2 116/4/2 119/4/2
f 112/4/2 118/4/2 120/4/2
f 120/4/2 118/4/2 121/4/2
f 121/4/2 118/4/2 122/4/2
f 119/4/2 117/4/2 123/4/2
f 123/4/2 117/4/2 124/4/2
f 124/4/2 117/4/2 125/4/2
f 121/1/2 122/1/2 126/1/2
f 123/1/2 124/1/2 126/1/2
f 122/1/2 123/1/2 126/1/2
f 126/1/2 124/1/2 127/1/2
f 127/1/2 124/1/2 128/1/2
f 121/1/2 126/1/2 131/1/2
f 121/1/2 131/1/2 133/1/2
f 133/1/2 131/1/2 134/1/2
f 132/10/2 133/10/2 135/10/2
f 135/10/2 133/10/2 136/10/2
f 129/6/2 130/6/2 138/6/2
f 138/6/2 130/6/2 139/6/2
f 137/6/2 138/6/2 140/6/2
f 140/6/2 138/6/2 141/6/2
f 142/2/2 143/2/2 144/2/2
f 144/2/2 143/2/2 145/2/2
f 144/4/2 145/4/2 146/4/2
f 146/4/2 145/4/2 147/4/2
f 148/1/2 149/1/2 152/1/2
f 152/1/2 149/1/2 153/1/2
f 150/6/2 151/6/2 154/6/2
f 154/6/2 151/6/2 155/6/2
f 155/6/2 151/6/2 157/6/2
f 157/6/2 151/6/2 158/6/2
f 156/6/2 157/6/2 159/6/2
f 159/6/2 157/6/2 160/6/2
f 161/6/2 162/6/2 164/6/2
f 164/6/2 162/6/2 165/6/2
f 163/7/2 164/7/2 167/7/2
f 164/7/2 165/7/2 167/7/2
f 167/7/2 165/7/2 168/7/2
f 166/6/2 167/6/2 169/6/2
f 167/6/2 168/6/2 169/6/2
f 169/6/2 168/6/2 170/6/2
f 175/4/3 172/4/3 171/4/3
f 176/4/3 172/4/3 175/4/3
f 177/4/3 172/4/3 176/4/3
f 178/4/3 172/4/3 177/4/3
f 179/11/3 176/11/3 175/11/3
f 180/5/3 177/5/3 176/5/3
f 180/11/3 176/11/3 179/11/3
f 181/9/3 178/9/3 177/9/3
f 181/5/3 177/5/3 180/5/3
f 182/9/3 178/9/3 181/9/3
f 183/10/3 174/10/3 173/10/3
f 184/10/3 174/10/3 183/10/3
f 187/4/3 182/4/3 181/4/3
f 187/4/3 181/4/3 180/4/3
f 187/4/3 180/4/3 179/4/3
f 188/4/3 182/4/3 187/4/3
f 189/10/3 186/10/3 185/10/3
f 190/10/3 186/10/3 189/10/3
f 193/6/3 192/6/3 191/6/3
f 198/6/3 193/6/3 191/6/3
f 198/6/3 194/6/3 193/6/3
f 199/6/3 194/6/3 198/6/3
f 200/8/3 196/8/3 195/8/3
f 201/1/3 198/1/3 197/1/3
f 202/1/3 198/1/3 201/1/3
f 203/1/3 198/1/3 202/1/3
f 204/8/3 200/8/3 195/8/3
f 205/8/3 200/8/3 204/8/3
f 206/1/3 202/1/3 201/1/3
f 207/12/3 203/12/3 202/12/3
f 207/1/3 202/1/3 206/1/3
f 208/1/3 198/1/3 203/1/3
f 208/12/3 203/12/3 207/12/3
f 209/1/3 198/1/3 208/1/3
f 210/6/3 194/6/3 199/6/3
f 213/1/3 209/1/3 208/1/3
f 213/1/3 207/1/3 206/1/3
f 213/1/3 210/1/3 209/1/3
f 213/1/3 208/1/3 207/1/3
f 214/1/3 210/1/3 213/1/3
f 215/1/3 210/1/3 214/1/3
f 216/6/3 194/6/3 210/6/3
f 216/1/3 210/1/3 215/1/3
f 217/1/3 213/1/3 206/1/3
f 217/12/3 214/12/3 213/12/3
f 218/1/3 215/1/3 214/1/3
f 218/12/3 214/12/3 217/12/3
f 219/8/3 212/8/3 211/8/3
f 220/8/3 212/8/3 219/8/3
f 221/1/3 217/1/3 206/1/3
f 221/1/3 218/1/3 217/1/3
f 222/1/3 215/1/3 218/1/3
f 222/1/3 218/1/3 221/1/3
f 223/6/3 194/6/3 216/6/3
f 224/6/3 223/6/3 222/6/3
f 224/6/3 194/6/3 223/6/3
f 225/6/3 194/6/3 224/6/3
f 226/6/3 224/6/3 222/6/3
f 227/6/3 224/6/3 226/6/3
f 234/7/3 229/7/3 228/7/3
f 235/2/3 231/2/3 230/2/3
f 236/4/3 232/4/3 231/4/3
f 236/2/3 231/2/3 235/2/3
f 237/4/3 232/4/3 236/4/3
f 238/1/3 234/1/3 233/1/3
f 239/7/3 229/7/3 234/7/3
f 239/1/3 234/1/3 238/1/3
f 240/7/3 229/7/3 239/7/3
f 243/10/3 242/10/3 241/10/3
f 244/10/3 242/10/3 243/10/3
f 247/10/3 246/10/3 245/10/3
f 248/10/3 246/10/3 247/10/3
f 255/2/3 250/2/3 249/2/3
f 256/4/3 251/4/3 250/4/3
f 256/2/3 250/2/3 255/2/3
f 257/4/3 251/4/3 256/4/3
f 258/1/3 253/1/3 252/1/3
f 259/7/3 254/7/3 253/7/3
f 259/1/3 253/1/3 258/1/3
f 260/7/3 254/7/3 259/7/3
f 261/7/3 254/7/3 260/7/3
f 264/6/3 263/6/3 262/6/3
f 265/6/3 263/6/3 264/6/3
f 268/6/3 267/6/3 266/6/3
f 269/6/3 267/6/3 268/6/3
f 270/2/4 271/2/4 273/2/4
f 271/4/4 272/4/4 274/4/4
f 273/2/4 271/2/4 274/2/4
f 274/4/4 272/4/4 275/4/4
f 276/10/4 277/10/4 278/10/4
f 278/10/4 277/10/4 279/10/4
f 280/10/4 281/10/4 282/10/4
f 282/10/4 281/10/4 283/10/4
f 284/2/4 285/2/4 287/2/4
f 285/4/4 286/4/4 288/4/4
f 287/2/4 285/2/4 288/2/4
f 288/4/4 286/4/4 289/4/4
f 290/6/4 291/6/4 294/6/4
f 291/7/4 292/7/4 295/7/4
f 294/6/4 291/6/4 295/6/4
f 292/6/4 293/6/4 296/6/4
f 295/7/4 292/7/4 296/7/4
f 296/6/4 293/6/4 297/6/4
f 297/6/4 298/6/4 303/6/4
f 303/6/4 298/6/4 304/6/4
f 301/1/4 302/1/4 305/1/4
f 305/1/4 302/1/4 306/1/4
f 299/8/4 300/8/4 307/8/4
f 307/8/4 300/8/4 308/8/4
f 309/8/4 310/8/4 313/8/4
f 313/8/4 310/8/4 314/8/4
f 311/1/4 312/1/4 315/1/4
f 315/1/4 312/1/4 316/1/4
f 317/6/4 318/6/4 322/6/4
f 322/6/4 318/6/4 323/6/4
f 319/6/4 320/6/4 324/6/4
f 320/7/4 321/7/4 325/7/4
f 324/6/4 320/6/4 325/6/4
f 321/6/4 322/6/4 326/6/4
f 325/7/4 321/7/4 326/7/4
f 326/6/4 322/6/4 327/6/4
f 328/6/4 329/6/4 332/6/4
f 332/6/4 329/6/4 333/6/4
f 330/4/4 331/4/4 335/4/4
f 330/4/4 335/4/4 337/4/4
f 335/1/4 336/1/4 337/1/4
f 337/1/4 336/1/4 338/1/4
f 330/4/4 337/4/4 339/4/4
f 330/4/4 339/4/4 341/4/4
f 339/1/4 340/1/4 341/1/4
f 341/1/4 340/1/4 342/1/4
f 330/4/4 341/4/4 343/4/4
f 343/4/4 341/4/4 344/4/4
f 333/6/4 334/6/4 346/6/4
f 346/6/4 334/6/4 347/6/4
f 345/6/4 346/6/4 348/6/4
f 348/6/4 346/6/4 349/6/4
f 350/6/4 351/6/4 353/6/4
f 352/6/4 353/6/4 354/6/4
f 353/6/4 351/6/4 355/6/4
f 354/6/4 353/6/4 355/6/4
f 355/6/4 351/6/4 356/6/4
f 356/6/4 351/6/4 357/6/4
f 362/10/5 359/10/5 358/10/5
f 363/10/5 359/10/5 362/10/5
f 364/10/5 361/10/5 360/10/5
f 365/10/5 361/10/5 364/10/5
f 370/8/5 367/8/5 366/8/5
f 371/8/5 367/8/5 370/8/5
f 372/8/5 369/8/5 368/8/5
f 373/8/5 369/8/5 372/8/5
f 374/8/5 370/8/5 366/8/5
f 377/8/5 369/8/5 373/8/5
f 378/8/5 375/8/5 374/8/5
f 378/8/5 374/8/5 366/8/5
f 379/8/5 375/8/5 378/8/5
f 380/8/5 377/8/5 376/8/5
f 381/8/5 369/8/5 377/8/5
f 381/8/5 377/8/5 380/8/5
f 386/4/5 383/4/5 382/4/5
f 387/11/5 384/11/5 383/11/5
f 387/4/5 383/4/5 386/4/5
f 388/4/5 385/4/5 384/4/5
f 388/11/5 384/11/5 387/11/5
f 389/4/5 385/4/5 388/4/5
f 390/4/5 385/4/5 389/4/5
f 395/2/5 392/2/5 391/2/5
f 396/2/5 392/2/5 395/2/5
f 397/2/5 394/2/5 393/2/5
f 398/2/5 394/2/5 397/2/5
f 400/8/5 389/8/5 388/8/5
f 401/8/5 389/8/5 400/8/5
f 403/4/5 400/4/5 399/4/5
f 403/4/5 402/4/5 401/4/5
f 403/4/5 401/4/5 400/4/5
f 404/4/5 402/4/5 403/4/5
f 407/6/5 406/6/5 405/6/5
f 408/6/5 406/6/5 407/6/5
f 414/1/5 410/1/5 409/1/5
f 415/1/5 410/1/5 414/1/5
f 416/1/5 412/1/5 411/1/5
f 417/1/5 412/1/5 416/1/5
f 419/6/5 415/6/5 414/6/5
f 419/6/5 414/6/5 413/6/5
f 420/6/5 415/6/5 419/6/5
f 421/6/5 415/6/5 420/6/5
f 424/6/5 418/6/5 417/6/5
f 424/6/5 417/6/5 416/6/5
f 425/6/5 418/6/5 424/6/5
f 426/6/5 418/6/5 425/6/5
f 427/6/5 422/6/5 421/6/5
f 427/6/5 421/6/5 420/6/5
f 428/6/5 422/6/5 427/6/5
f 429/6/5 422/6/5 428/6/5
f 432/6/5 425/6/5 424/6/5
f 432/6/5 424/6/5 423/6/5
f 433/6/5 425/6/5 432/6/5
f 434/6/5 425/6/5 433/6/5
f 435/6/5 430/6/5 429/6/5
f 435/6/5 429/6/5 428/6/5
f 436/6/5 430/6/5 435/6/5
f 437/6/5 433/6/5 432/6/5
f 437/6/5 432/6/5 431/6/5
f 438/6/5 433/6/5 437/6/5
f 443/7/5 440/7/5 439/7/5
f 444/7/5 440/7/5 443/7/5
f 445/7/5 442/7/5 441/7/5
f 446/7/5 442/7/5 445/7/5
f 452/10/5 448/10/5 447/10/5
f 453/10/5 448/10/5 452/10/5
f 454/10/5 450/10/5 449/10/5
f 455/10/5 450/10/5 454/10/5
f 457/6/5 452/6/5 451/6/5
f 458/6/5 452/6/5 457/6/5
f 459/6/5 456/6/5 455/6/5
f 460/6/5 456/6/5 459/6/5
f 461/4/6 462/4/6 465/4/6
f 462/9/6 463/9/6 466/9/6
f 465/4/6 462/4/6 466/4/6
f 463/4/6 464/4/6 467/4/6
f 466/9/6 463/9/6 467/9/6
f 467/4/6 464/4/6 468/4/6
f 469/4/6 470/4/6 473/4/6
f 473/4/6 470/4/6 474/4/6
f 471/4/6 472/4/6 475/4/6
f 475/4/6 472/4/6 476/4/6
f 477/4/6 478/4/6 481/4/6
f 481/4/6 478/4/6 482/4/6
f 479/4/6 480/4/6 483/4/6
f 483/4/6 480/4/6 484/4/6
f 485/10/6 486/10/6 491/10/6
f 491/10/6 486/10/6 492/10/6
f 487/10/6 488/10/6 493/10/6
f 493/10/6 488/10/6 494/10/6
f 489/6/6 490/6/6 497/6/6
f 497/6/6 490/6/6 498/6/6
f 495/6/6 496/6/6 501/6/6
f 501/6/6 496/6/6 502/6/6
f 498/6/6 499/6/6 503/6/6
f 503/6/6 499/6/6 504/6/6
f 500/6/6 501/6/6 505/6/6
f 505/6/6 501/6/6 506/6/6
f 504/6/6 505/6/6 507/6/6
f 507/6/6 505/6/6 508/6/6
f 509/6/6 510/6/6 511/6/6
f 511/6/6 510/6/6 512/6/6
f 512/6/6 510/6/6 513/6/6
f 513/6/6 510/6/6 514/6/6
f 512/6/6 513/6/6 515/6/6
f 515/6/6 513/6/6 516/6/6
