# MagicaVoxel @ Ephtracy

# material
mtllib chr_raver2.mtl
usemtl palette

# normals
vn -1 0 0
vn 1 0 0
vn 0 0 1
vn 0 0 -1
vn 0 -1 0
vn 0 1 0

# texcoords
vt 0.0332031 0.5
vt 0.0605469 0.5
vt 0.587891 0.5
vt 0.775391 0.5
vt 0.837891 0.5
vt 0.892578 0.5
vt 0.994141 0.5

# verts
v -4 2 1
v -4 2 -0
v -4 3 1
v -4 3 -0
v -4 6 1
v -4 6 -0
v -4 7 1
v -4 7 -0
v -4 8 2
v -4 8 1
v -4 8 -0
v -4 8 -1
v -4 10 2
v -4 10 -1
v -3 1 2
v -3 1 -1
v -3 2 3
v -3 2 2
v -3 2 1
v -3 2 -0
v -3 2 -1
v -3 2 -2
v -3 3 3
v -3 3 1
v -3 3 -0
v -3 3 -2
v -3 6 3
v -3 6 2
v -3 6 1
v -3 6 -0
v -3 6 -1
v -3 6 -2
v -3 7 1
v -3 7 -0
v -3 8 2
v -3 8 1
v -3 8 -0
v -3 8 -1
v -3 10 2
v -3 10 -1
v -3 10 -2
v -3 11 2
v -3 11 -1
v -2 0 1
v -2 0 -0
v -2 1 1
v -2 1 -0
v -2 6 -2
v -2 6 -3
v -2 9 3
v -2 9 2
v -2 10 2
v -2 10 -1
v -2 10 -2
v -2 10 -3
v -2 11 3
v -2 11 2
v -2 11 -1
v -2 11 -2
v -1 8 3
v -1 8 2
v -1 9 3
v -1 9 2
v 1 0 1
v 1 0 -0
v 1 1 2
v 1 1 1
v 1 1 -0
v 1 1 -1
v 1 2 2
v 1 2 -1
v 2 5 3
v 2 5 2
v 2 6 3
v 2 6 2
v 2 7 3
v 2 7 2
v 2 8 3
v 2 8 2
v -2 5 3
v -2 5 2
v -2 6 3
v -2 6 2
v -1 0 1
v -1 0 -0
v -1 1 2
v -1 1 1
v -1 1 -0
v -1 1 -1
v -1 2 2
v -1 2 -1
v 2 0 1
v 2 0 -0
v 2 1 1
v 2 1 -0
v 2 6 -2
v 2 6 -3
v 2 10 -1
v 2 10 -2
v 2 10 -3
v 2 11 -1
v 2 11 -2
v 3 1 2
v 3 1 -1
v 3 2 3
v 3 2 2
v 3 2 1
v 3 2 -0
v 3 2 -1
v 3 2 -2
v 3 3 3
v 3 3 1
v 3 3 -0
v 3 3 -2
v 3 6 3
v 3 6 2
v 3 6 1
v 3 6 -0
v 3 6 -1
v 3 6 -2
v 3 7 3
v 3 7 2
v 3 7 1
v 3 7 -0
v 3 8 2
v 3 8 1
v 3 10 2
v 3 10 -1
v 3 10 -2
v 3 11 3
v 3 11 -1
v 4 2 1
v 4 2 -0
v 4 3 1
v 4 3 -0
v 4 6 1
v 4 6 -0
v 4 6 -1
v 4 7 1
v 4 7 -0
v 4 8 2
v 4 8 1
v 4 8 -0
v 4 10 2
v 4 10 -1
v -3 2 3
v -3 3 3
v -3 6 3
v -2 5 3
v -2 6 3
v -2 9 3
v -2 11 3
v -1 8 3
v -1 9 3
v 2 5 3
v 2 6 3
v 2 7 3
v 2 8 3
v 3 2 3
v 3 3 3
v 3 6 3
v 3 7 3
v 3 11 3
v -4 8 2
v -4 10 2
v -3 1 2
v -3 2 2
v -3 6 2
v -3 8 2
v -3 10 2
v -3 11 2
v -2 5 2
v -2 6 2
v -2 7 2
v -2 8 2
v -2 9 2
v -2 10 2
v -2 11 2
v -1 1 2
v -1 2 2
v -1 7 2
v -1 8 2
v -1 9 2
v 1 1 2
v 1 2 2
v 1 7 2
v 1 8 2
v 2 5 2
v 2 6 2
v 2 7 2
v 2 8 2
v 3 1 2
v 3 2 2
v 3 6 2
v 3 7 2
v 3 8 2
v 3 10 2
v 4 8 2
v 4 10 2
v -4 2 1
v -4 3 1
v -4 6 1
v -4 7 1
v -4 8 1
v -3 2 1
v -3 3 1
v -3 6 1
v -3 7 1
v -3 8 1
v -2 0 1
v -2 1 1
v -1 0 1
v -1 1 1
v 1 0 1
v 1 1 1
v 2 0 1
v 2 1 1
v 3 2 1
v 3 3 1
v 3 6 1
v 3 7 1
v 3 8 1
v 4 2 1
v 4 3 1
v 4 6 1
v 4 7 1
v 4 8 1
v 3 6 -0
v 3 7 -0
v 4 6 -0
v 4 7 -0
v -4 2 -0
v -4 3 -0
v -4 6 -0
v -4 7 -0
v -4 8 -0
v -3 2 -0
v -3 3 -0
v -3 6 -0
v -3 7 -0
v -3 8 -0
v -2 0 -0
v -2 1 -0
v -1 0 -0
v -1 1 -0
v 1 0 -0
v 1 1 -0
v 2 0 -0
v 2 1 -0
v 3 2 -0
v 3 3 -0
v 3 6 -0
v 4 2 -0
v 4 3 -0
v 4 6 -0
v -4 8 -1
v -4 10 -1
v -3 1 -1
v -3 2 -1
v -3 8 -1
v -3 10 -1
v -3 11 -1
v -2 10 -1
v -2 11 -1
v -1 1 -1
v -1 2 -1
v 1 1 -1
v 1 2 -1
v 2 10 -1
v 2 11 -1
v 3 1 -1
v 3 2 -1
v 3 6 -1
v 3 10 -1
v 3 11 -1
v 4 6 -1
v 4 10 -1
v -3 2 -2
v -3 3 -2
v -3 6 -2
v -3 10 -2
v -2 6 -2
v -2 10 -2
v -2 11 -2
v 2 6 -2
v 2 10 -2
v 2 11 -2
v 3 2 -2
v 3 3 -2
v 3 6 -2
v 3 10 -2
v -2 6 -3
v -2 10 -3
v 2 6 -3
v 2 10 -3
v -2 0 1
v -1 0 1
v 1 0 1
v 2 0 1
v -2 0 -0
v -1 0 -0
v 1 0 -0
v 2 0 -0
v -3 1 2
v -1 1 2
v 1 1 2
v 3 1 2
v -2 1 1
v -1 1 1
v 1 1 1
v 2 1 1
v -2 1 -0
v -1 1 -0
v 1 1 -0
v 2 1 -0
v -3 1 -1
v -1 1 -1
v 1 1 -1
v 3 1 -1
v -3 2 3
v 3 2 3
v -3 2 2
v -1 2 2
v 1 2 2
v 3 2 2
v -4 2 1
v -3 2 1
v 3 2 1
v 4 2 1
v -4 2 -0
v -3 2 -0
v 3 2 -0
v 4 2 -0
v -3 2 -1
v -1 2 -1
v 1 2 -1
v 3 2 -1
v -3 2 -2
v 3 2 -2
v 3 6 -0
v 4 6 -0
v 3 6 -1
v 4 6 -1
v -2 6 -2
v 2 6 -2
v -2 6 -3
v 2 6 -3
v 2 7 3
v 3 7 3
v 2 7 2
v 3 7 2
v -4 7 1
v -3 7 1
v 3 7 1
v 4 7 1
v -4 7 -0
v -3 7 -0
v 3 7 -0
v 4 7 -0
v -1 8 3
v 2 8 3
v -4 8 2
v -3 8 2
v -1 8 2
v 1 8 2
v 2 8 2
v 3 8 2
v 4 8 2
v -4 8 1
v -3 8 1
v 3 8 1
v 4 8 1
v -4 8 -0
v -3 8 -0
v -4 8 -1
v -3 8 -1
v -2 9 3
v -1 9 3
v -2 9 2
v -1 9 2
v -2 5 3
v 2 5 3
v -2 5 2
v 2 5 2
v -3 6 3
v -2 6 3
v 2 6 3
v 3 6 3
v -3 6 2
v -2 6 2
v 2 6 2
v 3 6 2
v -4 6 1
v -3 6 1
v 3 6 1
v 4 6 1
v -4 6 -0
v -3 6 -0
v 3 6 -0
v 4 6 -0
v -4 10 2
v -3 10 2
v 3 10 2
v 4 10 2
v -4 10 -1
v -3 10 -1
v -2 10 -1
v 2 10 -1
v 3 10 -1
v 4 10 -1
v -3 10 -2
v -2 10 -2
v 2 10 -2
v 3 10 -2
v -2 10 -3
v 2 10 -3
v -2 11 3
v 3 11 3
v -3 11 2
v -2 11 2
v -3 11 -1
v -2 11 -1
v 2 11 -1
v 3 11 -1
v -2 11 -2
v 2 11 -2

# faces
f 3/1/1 2/1/1 1/1/1
f 4/1/1 2/1/1 3/1/1
f 5/3/1 4/3/1 3/3/1
f 6/3/1 4/3/1 5/3/1
f 10/2/1 8/2/1 7/2/1
f 11/2/1 8/2/1 10/2/1
f 13/5/1 11/5/1 10/5/1
f 13/5/1 12/5/1 11/5/1
f 13/5/1 10/5/1 9/5/1
f 14/5/1 12/5/1 13/5/1
f 18/6/1 16/6/1 15/6/1
f 19/6/1 16/6/1 18/6/1
f 20/6/1 16/6/1 19/6/1
f 21/6/1 16/6/1 20/6/1
f 23/6/1 18/6/1 17/6/1
f 23/6/1 19/6/1 18/6/1
f 24/6/1 19/6/1 23/6/1
f 25/6/1 22/6/1 21/6/1
f 25/6/1 21/6/1 20/6/1
f 26/6/1 22/6/1 25/6/1
f 27/4/1 24/4/1 23/4/1
f 28/4/1 24/4/1 27/4/1
f 29/4/1 24/4/1 28/4/1
f 30/4/1 26/4/1 25/4/1
f 31/4/1 26/4/1 30/4/1
f 32/4/1 26/4/1 31/4/1
f 33/1/1 29/1/1 28/1/1
f 33/1/1 30/1/1 29/1/1
f 33/1/1 31/1/1 30/1/1
f 34/1/1 31/1/1 33/1/1
f 35/1/1 33/1/1 28/1/1
f 36/1/1 33/1/1 35/1/1
f 37/1/1 31/1/1 34/1/1
f 38/5/1 32/5/1 31/5/1
f 38/1/1 31/1/1 37/1/1
f 40/5/1 32/5/1 38/5/1
f 41/5/1 32/5/1 40/5/1
f 42/5/1 40/5/1 39/5/1
f 43/5/1 40/5/1 42/5/1
f 46/5/1 45/5/1 44/5/1
f 47/5/1 45/5/1 46/5/1
f 52/5/1 51/5/1 50/5/1
f 54/5/1 49/5/1 48/5/1
f 55/5/1 49/5/1 54/5/1
f 56/5/1 52/5/1 50/5/1
f 57/5/1 52/5/1 56/5/1
f 58/5/1 54/5/1 53/5/1
f 59/5/1 54/5/1 58/5/1
f 62/5/1 61/5/1 60/5/1
f 63/5/1 61/5/1 62/5/1
f 67/5/1 65/5/1 64/5/1
f 68/5/1 65/5/1 67/5/1
f 70/6/1 67/6/1 66/6/1
f 70/6/1 69/6/1 68/6/1
f 70/6/1 68/6/1 67/6/1
f 71/6/1 69/6/1 70/6/1
f 74/4/1 73/4/1 72/4/1
f 75/4/1 73/4/1 74/4/1
f 78/5/1 77/5/1 76/5/1
f 79/5/1 77/5/1 78/5/1
f 80/4/2 81/4/2 82/4/2
f 82/4/2 81/4/2 83/4/2
f 84/5/2 85/5/2 87/5/2
f 87/5/2 85/5/2 88/5/2
f 86/6/2 87/6/2 90/6/2
f 88/6/2 89/6/2 90/6/2
f 87/6/2 88/6/2 90/6/2
f 90/6/2 89/6/2 91/6/2
f 92/5/2 93/5/2 94/5/2
f 94/5/2 93/5/2 95/5/2
f 96/5/2 97/5/2 99/5/2
f 99/5/2 97/5/2 100/5/2
f 98/5/2 99/5/2 101/5/2
f 101/5/2 99/5/2 102/5/2
f 103/6/2 104/6/2 106/6/2
f 106/6/2 104/6/2 107/6/2
f 107/6/2 104/6/2 108/6/2
f 108/6/2 104/6/2 109/6/2
f 105/6/2 106/6/2 111/6/2
f 106/6/2 107/6/2 111/6/2
f 111/6/2 107/6/2 112/6/2
f 109/6/2 110/6/2 113/6/2
f 108/6/2 109/6/2 113/6/2
f 113/6/2 110/6/2 114/6/2
f 111/4/2 112/4/2 115/4/2
f 115/4/2 112/4/2 116/4/2
f 116/4/2 112/4/2 117/4/2
f 113/4/2 114/4/2 118/4/2
f 118/4/2 114/4/2 119/4/2
f 119/4/2 114/4/2 120/4/2
f 116/1/2 117/1/2 122/1/2
f 117/1/2 118/1/2 122/1/2
f 122/1/2 118/1/2 123/1/2
f 123/1/2 118/1/2 124/1/2
f 121/5/2 122/5/2 125/5/2
f 122/1/2 123/1/2 125/1/2
f 125/1/2 123/1/2 126/1/2
f 121/5/2 125/5/2 127/5/2
f 119/5/2 120/5/2 128/5/2
f 128/5/2 120/5/2 129/5/2
f 121/5/2 127/5/2 130/5/2
f 127/5/2 128/5/2 130/5/2
f 130/5/2 128/5/2 131/5/2
f 132/1/2 133/1/2 134/1/2
f 134/1/2 133/1/2 135/1/2
f 134/3/2 135/3/2 136/3/2
f 136/3/2 135/3/2 137/3/2
f 137/5/2 138/5/2 140/5/2
f 139/2/2 140/2/2 142/2/2
f 140/5/2 138/5/2 143/5/2
f 142/2/2 140/2/2 143/2/2
f 141/5/2 142/5/2 144/5/2
f 142/5/2 143/5/2 144/5/2
f 143/5/2 138/5/2 145/5/2
f 144/5/2 143/5/2 145/5/2
f 149/4/3 148/4/3 147/4/3
f 150/4/3 148/4/3 149/4/3
f 154/5/3 152/5/3 151/5/3
f 155/4/3 149/4/3 147/4/3
f 158/5/3 154/5/3 153/5/3
f 159/6/3 147/6/3 146/6/3
f 160/4/3 156/4/3 155/4/3
f 160/6/3 147/6/3 159/6/3
f 160/4/3 155/4/3 147/4/3
f 161/4/3 156/4/3 160/4/3
f 162/5/3 158/5/3 157/5/3
f 163/5/3 152/5/3 154/5/3
f 163/5/3 158/5/3 162/5/3
f 163/5/3 154/5/3 158/5/3
f 169/5/3 165/5/3 164/5/3
f 170/5/3 165/5/3 169/5/3
f 173/1/3 169/1/3 168/1/3
f 173/1/3 170/1/3 169/1/3
f 174/1/3 170/1/3 173/1/3
f 175/1/3 170/1/3 174/1/3
f 176/1/3 170/1/3 175/1/3
f 177/5/3 171/5/3 170/5/3
f 177/1/3 170/1/3 176/1/3
f 178/5/3 171/5/3 177/5/3
f 179/6/3 167/6/3 166/6/3
f 180/6/3 167/6/3 179/6/3
f 181/1/3 173/1/3 172/1/3
f 181/1/3 174/1/3 173/1/3
f 181/7/3 175/7/3 174/7/3
f 182/1/3 176/1/3 175/1/3
f 182/7/3 175/7/3 181/7/3
f 183/1/3 176/1/3 182/1/3
f 186/1/3 181/1/3 172/1/3
f 186/1/3 182/1/3 181/1/3
f 187/1/3 182/1/3 186/1/3
f 188/1/3 186/1/3 172/1/3
f 189/1/3 186/1/3 188/1/3
f 190/7/3 187/7/3 186/7/3
f 190/1/3 186/1/3 189/1/3
f 191/7/3 187/7/3 190/7/3
f 192/6/3 185/6/3 184/6/3
f 193/6/3 185/6/3 192/6/3
f 194/1/3 190/1/3 189/1/3
f 195/1/3 190/1/3 194/1/3
f 198/5/3 197/5/3 196/5/3
f 199/5/3 197/5/3 198/5/3
f 205/1/3 201/1/3 200/1/3
f 206/3/3 202/3/3 201/3/3
f 206/1/3 201/1/3 205/1/3
f 207/3/3 202/3/3 206/3/3
f 208/2/3 204/2/3 203/2/3
f 209/2/3 204/2/3 208/2/3
f 212/5/3 211/5/3 210/5/3
f 213/5/3 211/5/3 212/5/3
f 216/5/3 215/5/3 214/5/3
f 217/5/3 215/5/3 216/5/3
f 223/1/3 219/1/3 218/1/3
f 224/3/3 220/3/3 219/3/3
f 224/1/3 219/1/3 223/1/3
f 225/3/3 220/3/3 224/3/3
f 226/2/3 222/2/3 221/2/3
f 227/2/3 222/2/3 226/2/3
f 230/5/3 229/5/3 228/5/3
f 231/5/3 229/5/3 230/5/3
f 232/1/4 233/1/4 237/1/4
f 233/3/4 234/3/4 238/3/4
f 237/1/4 233/1/4 238/1/4
f 238/3/4 234/3/4 239/3/4
f 235/2/4 236/2/4 240/2/4
f 240/2/4 236/2/4 241/2/4
f 242/5/4 243/5/4 244/5/4
f 244/5/4 243/5/4 245/5/4
f 246/5/4 247/5/4 248/5/4
f 248/5/4 247/5/4 249/5/4
f 250/1/4 251/1/4 253/1/4
f 251/3/4 252/3/4 254/3/4
f 253/1/4 251/1/4 254/1/4
f 254/3/4 252/3/4 255/3/4
f 256/5/4 257/5/4 260/5/4
f 260/5/4 257/5/4 261/5/4
f 261/5/4 262/5/4 263/5/4
f 263/5/4 262/5/4 264/5/4
f 258/6/4 259/6/4 265/6/4
f 265/6/4 259/6/4 266/6/4
f 267/6/4 268/6/4 271/6/4
f 271/6/4 268/6/4 272/6/4
f 269/5/4 270/5/4 274/5/4
f 274/5/4 270/5/4 275/5/4
f 273/5/4 274/5/4 276/5/4
f 276/5/4 274/5/4 277/5/4
f 279/4/4 280/4/4 282/4/4
f 280/5/4 281/5/4 282/5/4
f 282/5/4 281/5/4 283/5/4
f 279/4/4 282/4/4 285/4/4
f 283/5/4 284/5/4 286/5/4
f 286/5/4 284/5/4 287/5/4
f 278/6/4 279/6/4 288/6/4
f 279/4/4 285/4/4 289/4/4
f 288/6/4 279/6/4 289/6/4
f 285/5/4 286/5/4 290/5/4
f 289/4/4 285/4/4 290/4/4
f 290/5/4 286/5/4 291/5/4
f 292/5/4 293/5/4 294/5/4
f 294/5/4 293/5/4 295/5/4
f 300/5/5 297/5/5 296/5/5
f 301/5/5 297/5/5 300/5/5
f 302/5/5 299/5/5 298/5/5
f 303/5/5 299/5/5 302/5/5
f 308/6/5 305/6/5 304/6/5
f 309/6/5 305/6/5 308/6/5
f 310/6/5 307/6/5 306/6/5
f 311/6/5 307/6/5 310/6/5
f 312/6/5 308/6/5 304/6/5
f 315/6/5 307/6/5 311/6/5
f 316/6/5 313/6/5 312/6/5
f 316/6/5 312/6/5 304/6/5
f 317/6/5 313/6/5 316/6/5
f 318/6/5 315/6/5 314/6/5
f 319/6/5 307/6/5 315/6/5
f 319/6/5 315/6/5 318/6/5
f 322/6/5 321/6/5 320/6/5
f 323/6/5 321/6/5 322/6/5
f 324/6/5 321/6/5 323/6/5
f 325/6/5 321/6/5 324/6/5
f 330/1/5 327/1/5 326/1/5
f 331/1/5 327/1/5 330/1/5
f 332/1/5 329/1/5 328/1/5
f 333/1/5 329/1/5 332/1/5
f 335/6/5 324/6/5 323/6/5
f 336/6/5 324/6/5 335/6/5
f 338/6/5 335/6/5 334/6/5
f 338/6/5 337/6/5 336/6/5
f 338/6/5 336/6/5 335/6/5
f 339/6/5 337/6/5 338/6/5
f 342/5/5 341/5/5 340/5/5
f 343/5/5 341/5/5 342/5/5
f 346/5/5 345/5/5 344/5/5
f 347/5/5 345/5/5 346/5/5
f 350/5/5 349/5/5 348/5/5
f 351/5/5 349/5/5 350/5/5
f 356/2/5 353/2/5 352/2/5
f 357/2/5 353/2/5 356/2/5
f 358/2/5 355/2/5 354/2/5
f 359/2/5 355/2/5 358/2/5
f 364/5/5 361/5/5 360/5/5
f 365/5/5 361/5/5 364/5/5
f 366/5/5 361/5/5 365/5/5
f 369/5/5 363/5/5 362/5/5
f 370/5/5 363/5/5 369/5/5
f 371/5/5 368/5/5 367/5/5
f 372/5/5 368/5/5 371/5/5
f 375/5/5 374/5/5 373/5/5
f 376/5/5 374/5/5 375/5/5
f 379/5/5 378/5/5 377/5/5
f 380/5/5 378/5/5 379/5/5
f 381/4/6 382/4/6 383/4/6
f 383/4/6 382/4/6 384/4/6
f 385/4/6 386/4/6 389/4/6
f 389/4/6 386/4/6 390/4/6
f 387/4/6 388/4/6 391/4/6
f 391/4/6 388/4/6 392/4/6
f 393/3/6 394/3/6 397/3/6
f 397/3/6 394/3/6 398/3/6
f 395/3/6 396/3/6 399/3/6
f 399/3/6 396/3/6 400/3/6
f 401/5/6 402/5/6 405/5/6
f 405/5/6 402/5/6 406/5/6
f 403/5/6 404/5/6 409/5/6
f 409/5/6 404/5/6 410/5/6
f 406/5/6 407/5/6 411/5/6
f 411/5/6 407/5/6 412/5/6
f 408/5/6 409/5/6 413/5/6
f 413/5/6 409/5/6 414/5/6
f 412/5/6 413/5/6 415/5/6
f 415/5/6 413/5/6 416/5/6
f 417/5/6 418/5/6 420/5/6
f 419/5/6 420/5/6 421/5/6
f 420/5/6 418/5/6 422/5/6
f 421/5/6 420/5/6 422/5/6
f 422/5/6 418/5/6 423/5/6
f 423/5/6 418/5/6 424/5/6
f 422/5/6 423/5/6 425/5/6
f 425/5/6 423/5/6 426/5/6
