# MagicaVoxel @ Ephtracy

# material
mtllib chr_mayor.mtl
usemtl palette

# normals
vn -1 0 0
vn 1 0 0
vn 0 0 1
vn 0 0 -1
vn 0 -1 0
vn 0 1 0

# texcoords
vt 0.0332031 0.5
vt 0.0605469 0.5
vt 0.857422 0.5
vt 0.873047 0.5
vt 0.962891 0.5
vt 0.974609 0.5
vt 0.994141 0.5

# verts
v -4 2 1
v -4 2 -0
v -4 3 1
v -4 3 -0
v -4 6 1
v -4 6 -0
v -4 7 1
v -4 7 -0
v -4 8 2
v -4 8 1
v -4 8 -0
v -4 8 -1
v -4 9 3
v -4 9 2
v -4 9 -1
v -4 9 -2
v -4 10 3
v -4 10 -2
v -3 1 2
v -3 1 -1
v -3 2 3
v -3 2 2
v -3 2 1
v -3 2 -0
v -3 2 -1
v -3 2 -2
v -3 3 3
v -3 3 1
v -3 3 -0
v -3 3 -2
v -3 6 3
v -3 6 2
v -3 6 1
v -3 6 -0
v -3 6 -1
v -3 6 -2
v -3 7 1
v -3 7 -0
v -3 7 -1
v -3 7 -2
v -3 8 2
v -3 8 1
v -3 8 -0
v -3 8 -1
v -3 9 -1
v -3 9 -2
v -3 9 -3
v -3 10 2
v -3 10 -1
v -3 10 -2
v -3 10 -3
v -3 13 2
v -3 13 -1
v -2 0 1
v -2 0 -0
v -2 1 1
v -2 1 -0
v -2 6 -1
v -2 6 -2
v -2 7 -1
v -2 7 -2
v -2 7 -3
v -2 9 -2
v -2 9 -3
v -2 10 -1
v -2 10 -2
v -2 13 -1
v -2 13 -2
v 1 0 1
v 1 0 -0
v 1 1 2
v 1 1 1
v 1 1 -0
v 1 1 -1
v 1 2 2
v 1 2 1
v 1 2 -0
v 1 2 -1
v -1 0 1
v -1 0 -0
v -1 1 2
v -1 1 1
v -1 1 -0
v -1 1 -1
v -1 2 2
v -1 2 -1
v 2 0 1
v 2 0 -0
v 2 1 1
v 2 1 -0
v 2 6 -1
v 2 6 -2
v 2 7 -1
v 2 7 -2
v 2 7 -3
v 2 9 -2
v 2 9 -3
v 2 10 -1
v 2 10 -2
v 2 13 -1
v 2 13 -2
v 3 1 2
v 3 1 -1
v 3 2 3
v 3 2 2
v 3 2 1
v 3 2 -0
v 3 2 -1
v 3 2 -2
v 3 3 3
v 3 3 1
v 3 3 -0
v 3 3 -2
v 3 6 3
v 3 6 2
v 3 6 1
v 3 6 -0
v 3 6 -1
v 3 6 -2
v 3 7 1
v 3 7 -0
v 3 7 -1
v 3 7 -2
v 3 8 2
v 3 8 1
v 3 8 -0
v 3 8 -1
v 3 9 -1
v 3 9 -2
v 3 9 -3
v 3 10 2
v 3 10 -1
v 3 10 -2
v 3 10 -3
v 3 13 2
v 3 13 -1
v 4 2 1
v 4 2 -0
v 4 3 1
v 4 3 -0
v 4 6 1
v 4 6 -0
v 4 7 1
v 4 7 -0
v 4 8 2
v 4 8 1
v 4 8 -0
v 4 8 -1
v 4 9 3
v 4 9 2
v 4 9 -1
v 4 9 -2
v 4 10 3
v 4 10 -2
v -4 9 3
v -4 10 3
v -3 2 3
v -3 3 3
v -3 6 3
v -2 5 3
v -2 6 3
v -1 4 3
v -1 5 3
v 1 4 3
v 1 5 3
v 2 5 3
v 2 6 3
v 3 2 3
v 3 3 3
v 3 6 3
v 4 9 3
v 4 10 3
v -4 8 2
v -4 9 2
v -3 1 2
v -3 2 2
v -3 6 2
v -3 8 2
v -3 9 2
v -3 10 2
v -3 13 2
v -2 6 2
v -2 7 2
v -2 8 2
v -1 1 2
v -1 2 2
v -1 7 2
v -1 8 2
v 1 1 2
v 1 2 2
v 1 7 2
v 1 8 2
v 2 6 2
v 2 7 2
v 2 8 2
v 3 1 2
v 3 2 2
v 3 6 2
v 3 8 2
v 3 9 2
v 3 10 2
v 3 13 2
v 4 8 2
v 4 9 2
v -4 2 1
v -4 3 1
v -4 6 1
v -4 7 1
v -4 8 1
v -3 2 1
v -3 3 1
v -3 6 1
v -3 7 1
v -3 8 1
v -2 0 1
v -2 1 1
v -1 0 1
v -1 1 1
v 1 0 1
v 1 1 1
v 2 0 1
v 2 1 1
v 3 2 1
v 3 3 1
v 3 6 1
v 3 7 1
v 3 8 1
v 4 2 1
v 4 3 1
v 4 6 1
v 4 7 1
v 4 8 1
v -4 2 -0
v -4 3 -0
v -4 6 -0
v -4 7 -0
v -4 8 -0
v -3 2 -0
v -3 3 -0
v -3 6 -0
v -3 7 -0
v -3 8 -0
v -2 0 -0
v -2 1 -0
v -1 0 -0
v -1 1 -0
v 1 0 -0
v 1 1 -0
v 2 0 -0
v 2 1 -0
v 3 2 -0
v 3 3 -0
v 3 6 -0
v 3 7 -0
v 3 8 -0
v 4 2 -0
v 4 3 -0
v 4 6 -0
v 4 7 -0
v 4 8 -0
v -4 8 -1
v -4 9 -1
v -3 1 -1
v -3 2 -1
v -3 6 -1
v -3 7 -1
v -3 8 -1
v -3 9 -1
v -3 10 -1
v -3 13 -1
v -2 6 -1
v -2 7 -1
v -2 10 -1
v -2 13 -1
v -1 1 -1
v -1 2 -1
v 1 1 -1
v 1 2 -1
v 2 6 -1
v 2 7 -1
v 2 10 -1
v 2 13 -1
v 3 1 -1
v 3 2 -1
v 3 6 -1
v 3 7 -1
v 3 8 -1
v 3 9 -1
v 3 10 -1
v 3 13 -1
v 4 8 -1
v 4 9 -1
v -4 9 -2
v -4 10 -2
v -3 2 -2
v -3 3 -2
v -3 6 -2
v -3 7 -2
v -3 9 -2
v -3 10 -2
v -2 6 -2
v -2 7 -2
v -2 9 -2
v -2 10 -2
v -2 13 -2
v 2 6 -2
v 2 7 -2
v 2 9 -2
v 2 10 -2
v 2 13 -2
v 3 2 -2
v 3 3 -2
v 3 6 -2
v 3 7 -2
v 3 9 -2
v 3 10 -2
v 4 9 -2
v 4 10 -2
v -3 9 -3
v -3 10 -3
v -2 7 -3
v -2 9 -3
v 2 7 -3
v 2 9 -3
v 3 9 -3
v 3 10 -3
v -2 0 1
v -1 0 1
v 1 0 1
v 2 0 1
v -2 0 -0
v -1 0 -0
v 1 0 -0
v 2 0 -0
v -3 1 2
v -1 1 2
v 1 1 2
v 3 1 2
v -2 1 1
v -1 1 1
v 1 1 1
v 2 1 1
v -2 1 -0
v -1 1 -0
v 1 1 -0
v 2 1 -0
v -3 1 -1
v -1 1 -1
v 1 1 -1
v 3 1 -1
v -3 2 3
v 3 2 3
v -3 2 2
v -1 2 2
v 1 2 2
v 3 2 2
v -4 2 1
v -3 2 1
v 1 2 1
v 3 2 1
v 4 2 1
v -4 2 -0
v -3 2 -0
v 1 2 -0
v 3 2 -0
v 4 2 -0
v -3 2 -1
v -1 2 -1
v 1 2 -1
v 3 2 -1
v -3 2 -2
v 3 2 -2
v -4 7 1
v -3 7 1
v 3 7 1
v 4 7 1
v -4 7 -0
v -3 7 -0
v 3 7 -0
v 4 7 -0
v -3 7 -1
v -2 7 -1
v 2 7 -1
v 3 7 -1
v -3 7 -2
v -2 7 -2
v 2 7 -2
v 3 7 -2
v -2 7 -3
v 2 7 -3
v -4 8 2
v -3 8 2
v 3 8 2
v 4 8 2
v -4 8 1
v -3 8 1
v 3 8 1
v 4 8 1
v -4 8 -0
v -3 8 -0
v 3 8 -0
v 4 8 -0
v -4 8 -1
v -3 8 -1
v 3 8 -1
v 4 8 -1
v -4 9 3
v 4 9 3
v -4 9 2
v -3 9 2
v 3 9 2
v 4 9 2
v -4 9 -1
v -3 9 -1
v 3 9 -1
v 4 9 -1
v -4 9 -2
v -3 9 -2
v -2 9 -2
v 2 9 -2
v 3 9 -2
v 4 9 -2
v -3 9 -3
v -2 9 -3
v 2 9 -3
v 3 9 -3
v -3 6 3
v -2 6 3
v 2 6 3
v 3 6 3
v -3 6 2
v -2 6 2
v 2 6 2
v 3 6 2
v -4 6 1
v -3 6 1
v 3 6 1
v 4 6 1
v -4 6 -0
v -3 6 -0
v 3 6 -0
v 4 6 -0
v -3 6 -1
v -2 6 -1
v 2 6 -1
v 3 6 -1
v -3 6 -2
v -2 6 -2
v 2 6 -2
v 3 6 -2
v -4 10 3
v 4 10 3
v -3 10 2
v 3 10 2
v -3 10 -1
v -2 10 -1
v 2 10 -1
v 3 10 -1
v -4 10 -2
v -3 10 -2
v -2 10 -2
v 2 10 -2
v 3 10 -2
v 4 10 -2
v -3 10 -3
v 3 10 -3
v -3 13 2
v 3 13 2
v -3 13 -1
v -2 13 -1
v 2 13 -1
v 3 13 -1
v -2 13 -2
v 2 13 -2

# faces
f 3/1/1 2/1/1 1/1/1
f 4/1/1 2/1/1 3/1/1
f 5/4/1 4/4/1 3/4/1
f 6/4/1 4/4/1 5/4/1
f 10/2/1 8/2/1 7/2/1
f 11/2/1 8/2/1 10/2/1
f 14/6/1 11/6/1 10/6/1
f 14/6/1 12/6/1 11/6/1
f 14/6/1 10/6/1 9/6/1
f 15/6/1 12/6/1 14/6/1
f 17/4/1 14/4/1 13/4/1
f 17/4/1 16/4/1 15/4/1
f 17/4/1 15/4/1 14/4/1
f 18/4/1 16/4/1 17/4/1
f 22/4/1 20/4/1 19/4/1
f 23/4/1 20/4/1 22/4/1
f 24/4/1 20/4/1 23/4/1
f 25/4/1 20/4/1 24/4/1
f 27/4/1 22/4/1 21/4/1
f 27/4/1 23/4/1 22/4/1
f 28/4/1 23/4/1 27/4/1
f 29/4/1 26/4/1 25/4/1
f 29/4/1 25/4/1 24/4/1
f 30/4/1 26/4/1 29/4/1
f 31/3/1 28/3/1 27/3/1
f 32/3/1 28/3/1 31/3/1
f 33/3/1 28/3/1 32/3/1
f 34/3/1 30/3/1 29/3/1
f 35/3/1 30/3/1 34/3/1
f 36/3/1 30/3/1 35/3/1
f 37/1/1 33/1/1 32/1/1
f 37/1/1 35/1/1 34/1/1
f 37/1/1 34/1/1 33/1/1
f 38/1/1 35/1/1 37/1/1
f 39/1/1 35/1/1 38/1/1
f 41/1/1 37/1/1 32/1/1
f 42/1/1 37/1/1 41/1/1
f 43/1/1 39/1/1 38/1/1
f 44/6/1 40/6/1 39/6/1
f 44/1/1 39/1/1 43/1/1
f 45/6/1 40/6/1 44/6/1
f 46/6/1 40/6/1 45/6/1
f 50/4/1 47/4/1 46/4/1
f 51/4/1 47/4/1 50/4/1
f 52/4/1 49/4/1 48/4/1
f 53/4/1 49/4/1 52/4/1
f 56/4/1 55/4/1 54/4/1
f 57/4/1 55/4/1 56/4/1
f 60/1/1 59/1/1 58/1/1
f 61/1/1 59/1/1 60/1/1
f 63/6/1 62/6/1 61/6/1
f 64/6/1 62/6/1 63/6/1
f 67/4/1 66/4/1 65/4/1
f 68/4/1 66/4/1 67/4/1
f 72/4/1 70/4/1 69/4/1
f 73/4/1 70/4/1 72/4/1
f 75/4/1 72/4/1 71/4/1
f 76/5/1 73/5/1 72/5/1
f 76/4/1 72/4/1 75/4/1
f 77/4/1 74/4/1 73/4/1
f 77/5/1 73/5/1 76/5/1
f 78/4/1 74/4/1 77/4/1
f 79/4/2 80/4/2 82/4/2
f 82/4/2 80/4/2 83/4/2
f 81/4/2 82/4/2 85/4/2
f 83/4/2 84/4/2 85/4/2
f 82/4/2 83/4/2 85/4/2
f 85/4/2 84/4/2 86/4/2
f 87/4/2 88/4/2 89/4/2
f 89/4/2 88/4/2 90/4/2
f 91/1/2 92/1/2 93/1/2
f 93/1/2 92/1/2 94/1/2
f 94/6/2 95/6/2 96/6/2
f 96/6/2 95/6/2 97/6/2
f 98/4/2 99/4/2 100/4/2
f 100/4/2 99/4/2 101/4/2
f 102/4/2 103/4/2 105/4/2
f 105/4/2 103/4/2 106/4/2
f 106/4/2 103/4/2 107/4/2
f 107/4/2 103/4/2 108/4/2
f 104/4/2 105/4/2 110/4/2
f 105/4/2 106/4/2 110/4/2
f 110/4/2 106/4/2 111/4/2
f 108/4/2 109/4/2 112/4/2
f 107/4/2 108/4/2 112/4/2
f 112/4/2 109/4/2 113/4/2
f 110/3/2 111/3/2 114/3/2
f 114/3/2 111/3/2 115/3/2
f 115/3/2 111/3/2 116/3/2
f 112/3/2 113/3/2 117/3/2
f 117/3/2 113/3/2 118/3/2
f 118/3/2 113/3/2 119/3/2
f 115/1/2 116/1/2 120/1/2
f 117/1/2 118/1/2 120/1/2
f 116/1/2 117/1/2 120/1/2
f 120/1/2 118/1/2 121/1/2
f 121/1/2 118/1/2 122/1/2
f 115/1/2 120/1/2 124/1/2
f 124/1/2 120/1/2 125/1/2
f 121/1/2 122/1/2 126/1/2
f 122/6/2 123/6/2 127/6/2
f 126/1/2 122/1/2 127/1/2
f 127/6/2 123/6/2 128/6/2
f 128/6/2 123/6/2 129/6/2
f 129/4/2 130/4/2 133/4/2
f 133/4/2 130/4/2 134/4/2
f 131/4/2 132/4/2 135/4/2
f 135/4/2 132/4/2 136/4/2
f 137/1/2 138/1/2 139/1/2
f 139/1/2 138/1/2 140/1/2
f 139/4/2 140/4/2 141/4/2
f 141/4/2 140/4/2 142/4/2
f 143/2/2 144/2/2 146/2/2
f 146/2/2 144/2/2 147/2/2
f 146/6/2 147/6/2 150/6/2
f 147/6/2 148/6/2 150/6/2
f 145/6/2 146/6/2 150/6/2
f 150/6/2 148/6/2 151/6/2
f 149/4/2 150/4/2 153/4/2
f 151/4/2 152/4/2 153/4/2
f 150/4/2 151/4/2 153/4/2
f 153/4/2 152/4/2 154/4/2
f 160/3/3 159/3/3 158/3/3
f 161/3/3 159/3/3 160/3/3
f 162/3/3 160/3/3 158/3/3
f 163/4/3 161/4/3 160/4/3
f 163/3/3 160/3/3 162/3/3
f 164/3/3 162/3/3 158/3/3
f 164/4/3 163/4/3 162/4/3
f 165/4/3 161/4/3 163/4/3
f 165/4/3 163/4/3 164/4/3
f 166/3/3 165/3/3 164/3/3
f 166/4/3 161/4/3 165/4/3
f 167/4/3 161/4/3 166/4/3
f 168/4/3 158/4/3 157/4/3
f 169/3/3 164/3/3 158/3/3
f 169/4/3 158/4/3 168/4/3
f 169/3/3 166/3/3 164/3/3
f 169/3/3 167/3/3 166/3/3
f 170/3/3 167/3/3 169/3/3
f 171/4/3 156/4/3 155/4/3
f 172/4/3 156/4/3 171/4/3
f 178/6/3 174/6/3 173/6/3
f 179/6/3 174/6/3 178/6/3
f 182/1/3 178/1/3 177/1/3
f 182/1/3 179/1/3 178/1/3
f 183/1/3 179/1/3 182/1/3
f 184/1/3 179/1/3 183/1/3
f 185/4/3 176/4/3 175/4/3
f 186/4/3 176/4/3 185/4/3
f 187/1/3 183/1/3 182/1/3
f 187/7/3 184/7/3 183/7/3
f 188/1/3 179/1/3 184/1/3
f 188/7/3 184/7/3 187/7/3
f 191/1/3 187/1/3 182/1/3
f 191/1/3 188/1/3 187/1/3
f 192/1/3 179/1/3 188/1/3
f 192/1/3 188/1/3 191/1/3
f 193/1/3 191/1/3 182/1/3
f 194/7/3 192/7/3 191/7/3
f 194/1/3 191/1/3 193/1/3
f 195/1/3 179/1/3 192/1/3
f 195/7/3 192/7/3 194/7/3
f 196/4/3 190/4/3 189/4/3
f 197/4/3 190/4/3 196/4/3
f 198/1/3 194/1/3 193/1/3
f 198/1/3 195/1/3 194/1/3
f 199/1/3 179/1/3 195/1/3
f 199/1/3 195/1/3 198/1/3
f 200/1/3 179/1/3 199/1/3
f 201/4/3 181/4/3 180/4/3
f 202/4/3 181/4/3 201/4/3
f 203/6/3 200/6/3 199/6/3
f 204/6/3 200/6/3 203/6/3
f 210/1/3 206/1/3 205/1/3
f 211/4/3 207/4/3 206/4/3
f 211/1/3 206/1/3 210/1/3
f 212/4/3 207/4/3 211/4/3
f 213/2/3 209/2/3 208/2/3
f 214/2/3 209/2/3 213/2/3
f 217/4/3 216/4/3 215/4/3
f 218/4/3 216/4/3 217/4/3
f 221/4/3 220/4/3 219/4/3
f 222/4/3 220/4/3 221/4/3
f 228/1/3 224/1/3 223/1/3
f 229/4/3 225/4/3 224/4/3
f 229/1/3 224/1/3 228/1/3
f 230/4/3 225/4/3 229/4/3
f 231/2/3 227/2/3 226/2/3
f 232/2/3 227/2/3 231/2/3
f 233/1/4 234/1/4 238/1/4
f 234/4/4 235/4/4 239/4/4
f 238/1/4 234/1/4 239/1/4
f 239/4/4 235/4/4 240/4/4
f 236/2/4 237/2/4 241/2/4
f 241/2/4 237/2/4 242/2/4
f 243/4/4 244/4/4 245/4/4
f 245/4/4 244/4/4 246/4/4
f 247/4/4 248/4/4 249/4/4
f 249/4/4 248/4/4 250/4/4
f 251/1/4 252/1/4 256/1/4
f 252/4/4 253/4/4 257/4/4
f 256/1/4 252/1/4 257/1/4
f 257/4/4 253/4/4 258/4/4
f 254/2/4 255/2/4 259/2/4
f 259/2/4 255/2/4 260/2/4
f 261/6/4 262/6/4 267/6/4
f 267/6/4 262/6/4 268/6/4
f 265/1/4 266/1/4 271/1/4
f 271/1/4 266/1/4 272/1/4
f 269/4/4 270/4/4 273/4/4
f 273/4/4 270/4/4 274/4/4
f 263/4/4 264/4/4 275/4/4
f 275/4/4 264/4/4 276/4/4
f 277/4/4 278/4/4 283/4/4
f 283/4/4 278/4/4 284/4/4
f 279/1/4 280/1/4 285/1/4
f 285/1/4 280/1/4 286/1/4
f 281/4/4 282/4/4 289/4/4
f 289/4/4 282/4/4 290/4/4
f 287/6/4 288/6/4 291/6/4
f 291/6/4 288/6/4 292/6/4
f 293/4/4 294/4/4 299/4/4
f 299/4/4 294/4/4 300/4/4
f 296/3/4 297/3/4 301/3/4
f 298/6/4 299/6/4 302/6/4
f 302/6/4 299/6/4 303/6/4
f 296/3/4 301/3/4 306/3/4
f 301/1/4 302/1/4 306/1/4
f 306/1/4 302/1/4 307/1/4
f 304/4/4 305/4/4 309/4/4
f 309/4/4 305/4/4 310/4/4
f 295/4/4 296/4/4 311/4/4
f 296/3/4 306/3/4 312/3/4
f 311/4/4 296/4/4 312/4/4
f 312/3/4 306/3/4 313/3/4
f 307/6/4 308/6/4 314/6/4
f 314/6/4 308/6/4 315/6/4
f 315/4/4 316/4/4 317/4/4
f 317/4/4 316/4/4 318/4/4
f 319/4/4 320/4/4 322/4/4
f 321/6/4 322/6/4 323/6/4
f 322/4/4 320/4/4 324/4/4
f 323/6/4 322/6/4 324/6/4
f 324/4/4 320/4/4 325/4/4
f 325/4/4 320/4/4 326/4/4
f 331/4/5 328/4/5 327/4/5
f 332/4/5 328/4/5 331/4/5
f 333/4/5 330/4/5 329/4/5
f 334/4/5 330/4/5 333/4/5
f 339/4/5 336/4/5 335/4/5
f 340/4/5 336/4/5 339/4/5
f 341/4/5 338/4/5 337/4/5
f 342/4/5 338/4/5 341/4/5
f 343/4/5 339/4/5 335/4/5
f 346/4/5 338/4/5 342/4/5
f 347/4/5 344/4/5 343/4/5
f 347/4/5 343/4/5 335/4/5
f 348/4/5 344/4/5 347/4/5
f 349/4/5 346/4/5 345/4/5
f 350/4/5 338/4/5 346/4/5
f 350/4/5 346/4/5 349/4/5
f 353/4/5 352/4/5 351/4/5
f 354/4/5 352/4/5 353/4/5
f 355/4/5 352/4/5 354/4/5
f 356/4/5 352/4/5 355/4/5
f 359/4/5 355/4/5 354/4/5
f 362/1/5 358/1/5 357/1/5
f 363/1/5 358/1/5 362/1/5
f 364/4/5 359/4/5 354/4/5
f 365/1/5 361/1/5 360/1/5
f 366/1/5 361/1/5 365/1/5
f 368/4/5 364/4/5 354/4/5
f 369/4/5 364/4/5 368/4/5
f 371/4/5 368/4/5 367/4/5
f 371/4/5 370/4/5 369/4/5
f 371/4/5 369/4/5 368/4/5
f 372/4/5 370/4/5 371/4/5
f 377/2/5 374/2/5 373/2/5
f 378/2/5 374/2/5 377/2/5
f 379/2/5 376/2/5 375/2/5
f 380/2/5 376/2/5 379/2/5
f 385/6/5 382/6/5 381/6/5
f 386/6/5 382/6/5 385/6/5
f 387/6/5 384/6/5 383/6/5
f 388/6/5 384/6/5 387/6/5
f 389/6/5 387/6/5 386/6/5
f 390/6/5 387/6/5 389/6/5
f 395/6/5 392/6/5 391/6/5
f 396/6/5 392/6/5 395/6/5
f 397/6/5 394/6/5 393/6/5
f 398/6/5 394/6/5 397/6/5
f 403/6/5 400/6/5 399/6/5
f 404/6/5 400/6/5 403/6/5
f 405/6/5 402/6/5 401/6/5
f 406/6/5 402/6/5 405/6/5
f 409/4/5 408/4/5 407/4/5
f 410/4/5 408/4/5 409/4/5
f 411/4/5 408/4/5 410/4/5
f 412/4/5 408/4/5 411/4/5
f 417/4/5 414/4/5 413/4/5
f 418/4/5 414/4/5 417/4/5
f 421/4/5 416/4/5 415/4/5
f 422/4/5 416/4/5 421/4/5
f 423/4/5 419/4/5 418/4/5
f 424/4/5 419/4/5 423/4/5
f 425/4/5 421/4/5 420/4/5
f 426/4/5 421/4/5 425/4/5
f 427/3/6 428/3/6 431/3/6
f 428/4/6 429/4/6 432/4/6
f 431/3/6 428/3/6 432/3/6
f 429/3/6 430/3/6 433/3/6
f 432/4/6 429/4/6 433/4/6
f 433/3/6 430/3/6 434/3/6
f 435/4/6 436/4/6 439/4/6
f 439/4/6 436/4/6 440/4/6
f 437/4/6 438/4/6 441/4/6
f 441/4/6 438/4/6 442/4/6
f 443/3/6 444/3/6 447/3/6
f 447/3/6 444/3/6 448/3/6
f 445/3/6 446/3/6 449/3/6
f 449/3/6 446/3/6 450/3/6
f 451/4/6 452/4/6 453/4/6
f 453/4/6 452/4/6 454/4/6
f 451/4/6 453/4/6 455/4/6
f 454/4/6 452/4/6 458/4/6
f 455/4/6 456/4/6 459/4/6
f 451/4/6 455/4/6 459/4/6
f 459/4/6 456/4/6 460/4/6
f 460/4/6 456/4/6 461/4/6
f 457/4/6 458/4/6 462/4/6
f 458/4/6 452/4/6 463/4/6
f 462/4/6 458/4/6 463/4/6
f 463/4/6 452/4/6 464/4/6
f 460/4/6 461/4/6 465/4/6
f 461/4/6 462/4/6 465/4/6
f 462/4/6 463/4/6 465/4/6
f 465/4/6 463/4/6 466/4/6
f 467/4/6 468/4/6 469/4/6
f 469/4/6 468/4/6 470/4/6
f 470/4/6 468/4/6 471/4/6
f 471/4/6 468/4/6 472/4/6
f 470/4/6 471/4/6 473/4/6
f 473/4/6 471/4/6 474/4/6
