# MagicaVoxel @ Ephtracy

# material
mtllib chr_zombie2.mtl
usemtl palette

# normals
vn -1 0 0
vn 1 0 0
vn 0 0 1
vn 0 0 -1
vn 0 -1 0
vn 0 1 0

# texcoords
vt 0.341797 0.5
vt 0.857422 0.5
vt 0.958984 0.5
vt 0.966797 0.5
vt 0.990234 0.5
vt 0.994141 0.5

# verts
v -4 5 3.5
v -4 5 2.5
v -4 5 -0.5
v -4 6 3.5
v -4 6 2.5
v -4 6 1.5
v -4 6 -0.5
v -4 6 -1.5
v -4 10 2.5
v -4 10 1.5
v -4 10 -1.5
v -3 1 1.5
v -3 1 -1.5
v -3 2 2.5
v -3 2 1.5
v -3 2 -1.5
v -3 2 -2.5
v -3 5 2.5
v -3 5 -0.5
v -3 6 -0.5
v -3 6 -1.5
v -3 10 2.5
v -3 10 1.5
v -3 10 -1.5
v -3 10 -2.5
v -3 11 2.5
v -3 11 1.5
v -3 11 -1.5
v -2 0 0.5
v -2 0 -0.5
v -2 1 0.5
v -2 1 -0.5
v -2 6 -2.5
v -2 6 -3.5
v -2 10 -1.5
v -2 10 -2.5
v -2 10 -3.5
v -2 11 -1.5
v -2 11 -2.5
v 1 0 0.5
v 1 0 -0.5
v 1 1 1.5
v 1 1 0.5
v 1 1 -0.5
v 1 1 -1.5
v 1 2 1.5
v 1 2 -1.5
v 2 9 2.5
v 2 9 1.5
v 2 10 2.5
v 2 10 1.5
v 3 5 3.5
v 3 5 2.5
v 3 6 3.5
v 3 6 2.5
v 3 6 1.5
v 3 9 2.5
v 3 9 1.5
v -3 5 3.5
v -3 5 2.5
v -3 6 3.5
v -3 6 2.5
v -3 6 1.5
v -3 9 2.5
v -3 9 1.5
v -2 9 2.5
v -2 9 1.5
v -2 10 2.5
v -2 10 1.5
v -1 0 0.5
v -1 0 -0.5
v -1 1 1.5
v -1 1 0.5
v -1 1 -0.5
v -1 1 -1.5
v -1 2 1.5
v -1 2 -1.5
v 2 0 0.5
v 2 0 -0.5
v 2 1 0.5
v 2 1 -0.5
v 2 6 -2.5
v 2 6 -3.5
v 2 10 -1.5
v 2 10 -2.5
v 2 10 -3.5
v 2 11 -1.5
v 2 11 -2.5
v 3 1 1.5
v 3 1 -1.5
v 3 2 2.5
v 3 2 1.5
v 3 2 -1.5
v 3 2 -2.5
v 3 5 2.5
v 3 5 -0.5
v 3 6 -0.5
v 3 6 -1.5
v 3 10 2.5
v 3 10 1.5
v 3 10 -1.5
v 3 10 -2.5
v 3 11 2.5
v 3 11 1.5
v 3 11 -1.5
v 4 5 3.5
v 4 5 2.5
v 4 5 -0.5
v 4 6 3.5
v 4 6 2.5
v 4 6 1.5
v 4 6 -0.5
v 4 6 -1.5
v 4 10 2.5
v 4 10 1.5
v 4 10 -1.5
v -4 5 3.5
v -4 6 3.5
v -3 5 3.5
v -3 6 3.5
v 3 5 3.5
v 3 6 3.5
v 4 5 3.5
v 4 6 3.5
v -4 6 2.5
v -4 10 2.5
v -3 2 2.5
v -3 5 2.5
v -3 6 2.5
v -3 9 2.5
v -3 10 2.5
v -3 11 2.5
v -2 4 2.5
v -2 5 2.5
v -2 9 2.5
v -2 10 2.5
v -1 2 2.5
v -1 4 2.5
v 1 2 2.5
v 1 4 2.5
v 2 4 2.5
v 2 5 2.5
v 2 9 2.5
v 2 10 2.5
v 3 2 2.5
v 3 5 2.5
v 3 6 2.5
v 3 9 2.5
v 3 10 2.5
v 3 11 2.5
v 4 6 2.5
v 4 10 2.5
v -3 1 1.5
v -3 2 1.5
v -3 6 1.5
v -3 9 1.5
v -2 6 1.5
v -2 7 1.5
v -2 8 1.5
v -2 9 1.5
v -2 10 1.5
v -1 1 1.5
v -1 2 1.5
v -1 7 1.5
v -1 8 1.5
v 1 1 1.5
v 1 2 1.5
v 1 7 1.5
v 1 8 1.5
v 2 6 1.5
v 2 7 1.5
v 2 8 1.5
v 2 9 1.5
v 2 10 1.5
v 3 1 1.5
v 3 2 1.5
v 3 6 1.5
v 3 9 1.5
v -2 0 0.5
v -2 1 0.5
v -1 0 0.5
v -1 1 0.5
v 1 0 0.5
v 1 1 0.5
v 2 0 0.5
v 2 1 0.5
v -4 5 -0.5
v -4 6 -0.5
v -3 5 -0.5
v -3 6 -0.5
v -2 0 -0.5
v -2 1 -0.5
v -1 0 -0.5
v -1 1 -0.5
v 1 0 -0.5
v 1 1 -0.5
v 2 0 -0.5
v 2 1 -0.5
v 3 5 -0.5
v 3 6 -0.5
v 4 5 -0.5
v 4 6 -0.5
v -4 6 -1.5
v -4 10 -1.5
v -3 1 -1.5
v -3 2 -1.5
v -3 6 -1.5
v -3 10 -1.5
v -3 11 -1.5
v -2 10 -1.5
v -2 11 -1.5
v -1 1 -1.5
v -1 2 -1.5
v 1 1 -1.5
v 1 2 -1.5
v 2 10 -1.5
v 2 11 -1.5
v 3 1 -1.5
v 3 2 -1.5
v 3 6 -1.5
v 3 10 -1.5
v 3 11 -1.5
v 4 6 -1.5
v 4 10 -1.5
v -3 2 -2.5
v -3 10 -2.5
v -2 6 -2.5
v -2 10 -2.5
v -2 11 -2.5
v 2 6 -2.5
v 2 10 -2.5
v 2 11 -2.5
v 3 2 -2.5
v 3 10 -2.5
v -2 6 -3.5
v -2 10 -3.5
v 2 6 -3.5
v 2 10 -3.5
v -2 0 0.5
v -1 0 0.5
v 1 0 0.5
v 2 0 0.5
v -2 0 -0.5
v -1 0 -0.5
v 1 0 -0.5
v 2 0 -0.5
v -3 1 1.5
v -1 1 1.5
v 1 1 1.5
v 3 1 1.5
v -2 1 0.5
v -1 1 0.5
v 1 1 0.5
v 2 1 0.5
v -2 1 -0.5
v -1 1 -0.5
v 1 1 -0.5
v 2 1 -0.5
v -3 1 -1.5
v -1 1 -1.5
v 1 1 -1.5
v 3 1 -1.5
v -3 2 2.5
v -1 2 2.5
v 1 2 2.5
v 3 2 2.5
v -3 2 1.5
v -1 2 1.5
v 1 2 1.5
v 3 2 1.5
v -3 2 -1.5
v -1 2 -1.5
v 1 2 -1.5
v 3 2 -1.5
v -3 2 -2.5
v 3 2 -2.5
v -4 5 3.5
v -3 5 3.5
v 3 5 3.5
v 4 5 3.5
v -4 5 2.5
v -3 5 2.5
v 3 5 2.5
v 4 5 2.5
v -4 5 -0.5
v -3 5 -0.5
v 3 5 -0.5
v 4 5 -0.5
v -4 6 -0.5
v -3 6 -0.5
v 3 6 -0.5
v 4 6 -0.5
v -4 6 -1.5
v -3 6 -1.5
v 3 6 -1.5
v 4 6 -1.5
v -2 6 -2.5
v 2 6 -2.5
v -2 6 -3.5
v 2 6 -3.5
v -3 9 2.5
v -2 9 2.5
v 2 9 2.5
v 3 9 2.5
v -3 9 1.5
v -2 9 1.5
v 2 9 1.5
v 3 9 1.5
v -2 10 2.5
v 2 10 2.5
v -2 10 1.5
v 2 10 1.5
v -4 6 3.5
v -3 6 3.5
v 3 6 3.5
v 4 6 3.5
v -4 6 2.5
v -3 6 2.5
v 3 6 2.5
v 4 6 2.5
v -3 6 1.5
v -2 6 1.5
v 2 6 1.5
v 3 6 1.5
v -4 10 2.5
v -3 10 2.5
v 3 10 2.5
v 4 10 2.5
v -4 10 1.5
v -3 10 1.5
v 3 10 1.5
v 4 10 1.5
v -4 10 -1.5
v -3 10 -1.5
v -2 10 -1.5
v 2 10 -1.5
v 3 10 -1.5
v 4 10 -1.5
v -3 10 -2.5
v -2 10 -2.5
v 2 10 -2.5
v 3 10 -2.5
v -2 10 -3.5
v 2 10 -3.5
v -3 11 2.5
v 3 11 2.5
v -3 11 1.5
v 3 11 1.5
v -3 11 -1.5
v -2 11 -1.5
v 2 11 -1.5
v 3 11 -1.5
v -2 11 -2.5
v 2 11 -2.5

# faces
f 4/1/1 2/1/1 1/1/1
f 5/3/1 3/3/1 2/3/1
f 5/1/1 2/1/1 4/1/1
f 6/3/1 3/3/1 5/3/1
f 7/3/1 3/3/1 6/3/1
f 9/4/1 6/4/1 5/4/1
f 10/3/1 8/3/1 7/3/1
f 10/4/1 6/4/1 9/4/1
f 10/3/1 7/3/1 6/3/1
f 11/3/1 8/3/1 10/3/1
f 15/3/1 13/3/1 12/3/1
f 16/3/1 13/3/1 15/3/1
f 18/3/1 15/3/1 14/3/1
f 18/3/1 17/3/1 16/3/1
f 18/3/1 16/3/1 15/3/1
f 19/3/1 17/3/1 18/3/1
f 20/3/1 17/3/1 19/3/1
f 21/3/1 17/3/1 20/3/1
f 24/3/1 17/3/1 21/3/1
f 25/3/1 17/3/1 24/3/1
f 26/4/1 23/4/1 22/4/1
f 27/3/1 24/3/1 23/3/1
f 27/4/1 23/4/1 26/4/1
f 28/3/1 24/3/1 27/3/1
f 31/5/1 30/5/1 29/5/1
f 32/5/1 30/5/1 31/5/1
f 36/3/1 34/3/1 33/3/1
f 37/3/1 34/3/1 36/3/1
f 38/3/1 36/3/1 35/3/1
f 39/3/1 36/3/1 38/3/1
f 43/5/1 41/5/1 40/5/1
f 44/5/1 41/5/1 43/5/1
f 46/3/1 43/3/1 42/3/1
f 46/3/1 45/3/1 44/3/1
f 46/3/1 44/3/1 43/3/1
f 47/3/1 45/3/1 46/3/1
f 50/4/1 49/4/1 48/4/1
f 51/4/1 49/4/1 50/4/1
f 54/1/1 53/1/1 52/1/1
f 55/1/1 53/1/1 54/1/1
f 57/4/1 56/4/1 55/4/1
f 58/4/1 56/4/1 57/4/1
f 59/1/2 60/1/2 61/1/2
f 61/1/2 60/1/2 62/1/2
f 62/4/2 63/4/2 64/4/2
f 64/4/2 63/4/2 65/4/2
f 66/4/2 67/4/2 68/4/2
f 68/4/2 67/4/2 69/4/2
f 70/5/2 71/5/2 73/5/2
f 73/5/2 71/5/2 74/5/2
f 72/3/2 73/3/2 76/3/2
f 74/3/2 75/3/2 76/3/2
f 73/3/2 74/3/2 76/3/2
f 76/3/2 75/3/2 77/3/2
f 78/5/2 79/5/2 80/5/2
f 80/5/2 79/5/2 81/5/2
f 82/3/2 83/3/2 85/3/2
f 85/3/2 83/3/2 86/3/2
f 84/3/2 85/3/2 87/3/2
f 87/3/2 85/3/2 88/3/2
f 89/3/2 90/3/2 92/3/2
f 92/3/2 90/3/2 93/3/2
f 91/3/2 92/3/2 95/3/2
f 93/3/2 94/3/2 95/3/2
f 92/3/2 93/3/2 95/3/2
f 95/3/2 94/3/2 96/3/2
f 96/3/2 94/3/2 97/3/2
f 97/3/2 94/3/2 98/3/2
f 98/3/2 94/3/2 101/3/2
f 101/3/2 94/3/2 102/3/2
f 99/4/2 100/4/2 103/4/2
f 100/3/2 101/3/2 104/3/2
f 103/4/2 100/4/2 104/4/2
f 104/3/2 101/3/2 105/3/2
f 106/1/2 107/1/2 109/1/2
f 107/3/2 108/3/2 110/3/2
f 109/1/2 107/1/2 110/1/2
f 110/3/2 108/3/2 111/3/2
f 111/3/2 108/3/2 112/3/2
f 110/4/2 111/4/2 114/4/2
f 112/3/2 113/3/2 115/3/2
f 114/4/2 111/4/2 115/4/2
f 111/3/2 112/3/2 115/3/2
f 115/3/2 113/3/2 116/3/2
f 119/1/3 118/1/3 117/1/3
f 120/1/3 118/1/3 119/1/3
f 123/1/3 122/1/3 121/1/3
f 124/1/3 122/1/3 123/1/3
f 129/4/3 126/4/3 125/4/3
f 130/4/3 126/4/3 129/4/3
f 131/4/3 126/4/3 130/4/3
f 133/3/3 128/3/3 127/3/3
f 134/2/3 129/2/3 128/2/3
f 134/3/3 128/3/3 133/3/3
f 135/4/3 132/4/3 131/4/3
f 135/4/3 131/4/3 130/4/3
f 136/4/3 132/4/3 135/4/3
f 137/3/3 133/3/3 127/3/3
f 138/2/3 134/2/3 133/2/3
f 138/3/3 133/3/3 137/3/3
f 139/2/3 138/2/3 137/2/3
f 140/2/3 134/2/3 138/2/3
f 140/2/3 138/2/3 139/2/3
f 141/3/3 140/3/3 139/3/3
f 141/2/3 134/2/3 140/2/3
f 142/2/3 129/2/3 134/2/3
f 142/2/3 134/2/3 141/2/3
f 144/4/3 132/4/3 136/4/3
f 145/3/3 141/3/3 139/3/3
f 145/3/3 142/3/3 141/3/3
f 146/2/3 129/2/3 142/2/3
f 146/3/3 142/3/3 145/3/3
f 147/2/3 129/2/3 146/2/3
f 148/4/3 144/4/3 143/4/3
f 149/4/3 132/4/3 144/4/3
f 149/4/3 144/4/3 148/4/3
f 150/4/3 132/4/3 149/4/3
f 151/4/3 148/4/3 147/4/3
f 151/4/3 149/4/3 148/4/3
f 152/4/3 149/4/3 151/4/3
f 157/1/3 156/1/3 155/1/3
f 158/1/3 156/1/3 157/1/3
f 159/1/3 156/1/3 158/1/3
f 160/1/3 156/1/3 159/1/3
f 162/3/3 154/3/3 153/3/3
f 163/3/3 154/3/3 162/3/3
f 164/2/3 158/2/3 157/2/3
f 164/6/3 159/6/3 158/6/3
f 165/1/3 161/1/3 160/1/3
f 165/6/3 159/6/3 164/6/3
f 165/1/3 160/1/3 159/1/3
f 168/2/3 164/2/3 157/2/3
f 168/1/3 165/1/3 164/1/3
f 169/1/3 161/1/3 165/1/3
f 169/1/3 165/1/3 168/1/3
f 170/2/3 168/2/3 157/2/3
f 171/6/3 169/6/3 168/6/3
f 171/2/3 168/2/3 170/2/3
f 172/1/3 161/1/3 169/1/3
f 172/6/3 169/6/3 171/6/3
f 173/1/3 161/1/3 172/1/3
f 174/1/3 161/1/3 173/1/3
f 175/3/3 167/3/3 166/3/3
f 176/3/3 167/3/3 175/3/3
f 177/1/3 171/1/3 170/1/3
f 177/1/3 172/1/3 171/1/3
f 177/1/3 173/1/3 172/1/3
f 178/1/3 173/1/3 177/1/3
f 181/5/3 180/5/3 179/5/3
f 182/5/3 180/5/3 181/5/3
f 185/5/3 184/5/3 183/5/3
f 186/5/3 184/5/3 185/5/3
f 187/3/4 188/3/4 189/3/4
f 189/3/4 188/3/4 190/3/4
f 191/5/4 192/5/4 193/5/4
f 193/5/4 192/5/4 194/5/4
f 195/5/4 196/5/4 197/5/4
f 197/5/4 196/5/4 198/5/4
f 199/3/4 200/3/4 201/3/4
f 201/3/4 200/3/4 202/3/4
f 203/3/4 204/3/4 207/3/4
f 207/3/4 204/3/4 208/3/4
f 208/3/4 209/3/4 210/3/4
f 210/3/4 209/3/4 211/3/4
f 205/3/4 206/3/4 212/3/4
f 212/3/4 206/3/4 213/3/4
f 214/3/4 215/3/4 218/3/4
f 218/3/4 215/3/4 219/3/4
f 216/3/4 217/3/4 221/3/4
f 221/3/4 217/3/4 222/3/4
f 220/3/4 221/3/4 223/3/4
f 223/3/4 221/3/4 224/3/4
f 225/3/4 226/3/4 227/3/4
f 227/3/4 226/3/4 228/3/4
f 225/3/4 227/3/4 230/3/4
f 228/3/4 229/3/4 231/3/4
f 231/3/4 229/3/4 232/3/4
f 225/3/4 230/3/4 233/3/4
f 230/3/4 231/3/4 233/3/4
f 233/3/4 231/3/4 234/3/4
f 235/3/4 236/3/4 237/3/4
f 237/3/4 236/3/4 238/3/4
f 243/5/5 240/5/5 239/5/5
f 244/5/5 240/5/5 243/5/5
f 245/5/5 242/5/5 241/5/5
f 246/5/5 242/5/5 245/5/5
f 251/3/5 248/3/5 247/3/5
f 252/3/5 248/3/5 251/3/5
f 253/3/5 250/3/5 249/3/5
f 254/3/5 250/3/5 253/3/5
f 255/3/5 251/3/5 247/3/5
f 258/3/5 250/3/5 254/3/5
f 259/3/5 256/3/5 255/3/5
f 259/3/5 255/3/5 247/3/5
f 260/3/5 256/3/5 259/3/5
f 261/3/5 258/3/5 257/3/5
f 262/3/5 250/3/5 258/3/5
f 262/3/5 258/3/5 261/3/5
f 267/3/5 264/3/5 263/3/5
f 268/2/5 265/2/5 264/2/5
f 268/3/5 264/3/5 267/3/5
f 269/3/5 266/3/5 265/3/5
f 269/2/5 265/2/5 268/2/5
f 270/3/5 266/3/5 269/3/5
f 272/3/5 269/3/5 268/3/5
f 273/3/5 269/3/5 272/3/5
f 275/3/5 272/3/5 271/3/5
f 275/3/5 274/3/5 273/3/5
f 275/3/5 273/3/5 272/3/5
f 276/3/5 274/3/5 275/3/5
f 281/1/5 278/1/5 277/1/5
f 282/1/5 278/1/5 281/1/5
f 283/1/5 280/1/5 279/1/5
f 284/1/5 280/1/5 283/1/5
f 285/3/5 282/3/5 281/3/5
f 286/3/5 282/3/5 285/3/5
f 287/3/5 284/3/5 283/3/5
f 288/3/5 284/3/5 287/3/5
f 293/3/5 290/3/5 289/3/5
f 294/3/5 290/3/5 293/3/5
f 295/3/5 292/3/5 291/3/5
f 296/3/5 292/3/5 295/3/5
f 299/3/5 298/3/5 297/3/5
f 300/3/5 298/3/5 299/3/5
f 305/4/5 302/4/5 301/4/5
f 306/4/5 302/4/5 305/4/5
f 307/4/5 304/4/5 303/4/5
f 308/4/5 304/4/5 307/4/5
f 311/4/5 310/4/5 309/4/5
f 312/4/5 310/4/5 311/4/5
f 313/1/6 314/1/6 317/1/6
f 317/1/6 314/1/6 318/1/6
f 315/1/6 316/1/6 319/1/6
f 319/1/6 316/1/6 320/1/6
f 318/2/6 319/2/6 321/2/6
f 321/2/6 319/2/6 322/2/6
f 322/2/6 319/2/6 323/2/6
f 323/2/6 319/2/6 324/2/6
f 325/4/6 326/4/6 329/4/6
f 329/4/6 326/4/6 330/4/6
f 327/4/6 328/4/6 331/4/6
f 331/4/6 328/4/6 332/4/6
f 329/3/6 330/3/6 333/3/6
f 333/3/6 330/3/6 334/3/6
f 331/3/6 332/3/6 337/3/6
f 337/3/6 332/3/6 338/3/6
f 334/3/6 335/3/6 339/3/6
f 339/3/6 335/3/6 340/3/6
f 336/3/6 337/3/6 341/3/6
f 341/3/6 337/3/6 342/3/6
f 340/3/6 341/3/6 343/3/6
f 343/3/6 341/3/6 344/3/6
f 345/4/6 346/4/6 347/4/6
f 347/4/6 346/4/6 348/4/6
f 347/3/6 348/3/6 349/3/6
f 349/3/6 348/3/6 350/3/6
f 350/3/6 348/3/6 351/3/6
f 351/3/6 348/3/6 352/3/6
f 350/3/6 351/3/6 353/3/6
f 353/3/6 351/3/6 354/3/6
