# MagicaVoxel @ Ephtracy

# material
mtllib chr_beardo3.mtl
usemtl palette

# normals
vn -1 0 0
vn 1 0 0
vn 0 0 1
vn 0 0 -1
vn 0 -1 0
vn 0 1 0

# texcoords
vt 0.201172 0.5
vt 0.623047 0.5
vt 0.673828 0.5
vt 0.974609 0.5
vt 0.986328 0.5
vt 0.990234 0.5

# verts
v -4 2 1
v -4 2 -0
v -4 3 1
v -4 3 -0
v -4 6 1
v -4 6 -0
v -4 7 2
v -4 7 1
v -4 7 -0
v -4 7 -1
v -4 8 1
v -4 8 -0
v -4 10 2
v -4 10 -1
v -3 1 2
v -3 1 -1
v -3 2 3
v -3 2 2
v -3 2 1
v -3 2 -0
v -3 2 -1
v -3 2 -2
v -3 3 3
v -3 3 1
v -3 3 -0
v -3 3 -2
v -3 5 -2
v -3 5 -3
v -3 6 3
v -3 6 2
v -3 6 1
v -3 6 -0
v -3 6 -1
v -3 6 -3
v -3 7 3
v -3 7 2
v -3 7 1
v -3 7 -0
v -3 7 -1
v -3 7 -2
v -3 10 2
v -3 10 -1
v -3 11 2
v -3 11 -2
v -2 0 1
v -2 0 -0
v -2 1 1
v -2 1 -0
v -2 4 -2
v -2 4 -4
v -2 5 4
v -2 5 3
v -2 5 -2
v -2 5 -3
v -2 6 4
v -2 6 3
v -2 6 -1
v -2 6 -2
v -2 6 -3
v -2 6 -4
v -2 7 -1
v -2 7 -2
v -2 7 -3
v -2 10 -2
v -2 10 -3
v -1 4 4
v -1 4 3
v -1 5 4
v -1 5 3
v 0 5 3
v 0 5 2
v 0 6 3
v 0 6 2
v 1 0 1
v 1 0 -0
v 1 1 2
v 1 1 1
v 1 1 -0
v 1 1 -1
v 1 2 2
v 1 2 -1
v 2 10 2
v 2 10 -2
v 2 11 2
v 2 11 -2
v -2 10 2
v -2 10 -2
v -2 11 2
v -2 11 -2
v -1 0 1
v -1 0 -0
v -1 1 2
v -1 1 1
v -1 1 -0
v -1 1 -1
v -1 2 2
v -1 2 -1
v -1 5 3
v -1 5 2
v -1 6 3
v -1 6 2
v 1 4 4
v 1 4 3
v 1 4 -2
v 1 4 -4
v 1 5 4
v 1 5 3
v 1 5 -2
v 1 5 -3
v 1 6 -3
v 1 6 -4
v 2 0 1
v 2 0 -0
v 2 1 1
v 2 1 -0
v 2 5 4
v 2 5 3
v 2 5 -2
v 2 5 -3
v 2 6 4
v 2 6 3
v 2 6 -1
v 2 6 -2
v 2 6 -3
v 2 7 -1
v 2 7 -2
v 2 7 -3
v 2 10 -2
v 2 10 -3
v 3 1 2
v 3 1 -1
v 3 2 3
v 3 2 2
v 3 2 1
v 3 2 -0
v 3 2 -1
v 3 2 -2
v 3 3 3
v 3 3 1
v 3 3 -0
v 3 3 -2
v 3 6 3
v 3 6 2
v 3 6 1
v 3 6 -0
v 3 6 -1
v 3 6 -2
v 3 7 3
v 3 7 2
v 3 7 1
v 3 7 -0
v 3 7 -1
v 3 7 -2
v 3 10 2
v 3 10 -1
v 3 11 2
v 3 11 -2
v 4 2 1
v 4 2 -0
v 4 3 1
v 4 3 -0
v 4 6 1
v 4 6 -0
v 4 7 2
v 4 7 1
v 4 7 -0
v 4 7 -1
v 4 8 1
v 4 8 -0
v 4 10 2
v 4 10 -1
v -2 5 4
v -2 6 4
v -1 4 4
v -1 5 4
v 1 4 4
v 1 5 4
v 2 5 4
v 2 6 4
v -3 2 3
v -3 3 3
v -3 6 3
v -3 7 3
v -2 5 3
v -2 6 3
v -1 3 3
v -1 4 3
v -1 5 3
v 0 3 3
v 0 4 3
v 1 4 3
v 1 5 3
v 2 5 3
v 2 6 3
v 3 2 3
v 3 3 3
v 3 6 3
v 3 7 3
v -4 7 2
v -4 10 2
v -3 1 2
v -3 2 2
v -3 7 2
v -3 10 2
v -3 11 2
v -2 7 2
v -2 8 2
v -2 10 2
v -2 11 2
v -1 1 2
v -1 2 2
v -1 5 2
v -1 6 2
v -1 7 2
v -1 8 2
v 0 5 2
v 0 6 2
v 1 1 2
v 1 2 2
v 1 7 2
v 1 8 2
v 2 7 2
v 2 8 2
v 2 10 2
v 2 11 2
v 3 1 2
v 3 2 2
v 3 7 2
v 3 10 2
v 3 11 2
v 4 7 2
v 4 10 2
v -4 2 1
v -4 3 1
v -4 6 1
v -3 2 1
v -3 3 1
v -3 6 1
v -2 0 1
v -2 1 1
v -1 0 1
v -1 1 1
v 1 0 1
v 1 1 1
v 2 0 1
v 2 1 1
v 3 2 1
v 3 3 1
v 3 6 1
v 4 2 1
v 4 3 1
v 4 6 1
v -1 5 3
v -1 6 3
v 0 5 3
v 0 6 3
v -4 2 -0
v -4 3 -0
v -4 6 -0
v -3 2 -0
v -3 3 -0
v -3 6 -0
v -2 0 -0
v -2 1 -0
v -1 0 -0
v -1 1 -0
v 1 0 -0
v 1 1 -0
v 2 0 -0
v 2 1 -0
v 3 2 -0
v 3 3 -0
v 3 6 -0
v 4 2 -0
v 4 3 -0
v 4 6 -0
v -4 7 -1
v -4 10 -1
v -3 1 -1
v -3 2 -1
v -3 6 -1
v -3 7 -1
v -3 10 -1
v -2 6 -1
v -2 7 -1
v -1 1 -1
v -1 2 -1
v 1 1 -1
v 1 2 -1
v 2 6 -1
v 2 7 -1
v 3 1 -1
v 3 2 -1
v 3 6 -1
v 3 7 -1
v 3 10 -1
v 4 7 -1
v 4 10 -1
v -3 2 -2
v -3 3 -2
v -3 5 -2
v -3 7 -2
v -3 11 -2
v -2 4 -2
v -2 5 -2
v -2 6 -2
v -2 7 -2
v -2 10 -2
v -2 11 -2
v 1 4 -2
v 1 5 -2
v 2 5 -2
v 2 6 -2
v 2 7 -2
v 2 10 -2
v 2 11 -2
v 3 2 -2
v 3 3 -2
v 3 6 -2
v 3 7 -2
v 3 11 -2
v -3 5 -3
v -3 6 -3
v -2 5 -3
v -2 6 -3
v -2 7 -3
v -2 10 -3
v 1 5 -3
v 1 6 -3
v 2 5 -3
v 2 6 -3
v 2 7 -3
v 2 10 -3
v -2 4 -4
v -2 6 -4
v 1 4 -4
v 1 6 -4
v -2 0 1
v -1 0 1
v 1 0 1
v 2 0 1
v -2 0 -0
v -1 0 -0
v 1 0 -0
v 2 0 -0
v -3 1 2
v -1 1 2
v 1 1 2
v 3 1 2
v -2 1 1
v -1 1 1
v 1 1 1
v 2 1 1
v -2 1 -0
v -1 1 -0
v 1 1 -0
v 2 1 -0
v -3 1 -1
v -1 1 -1
v 1 1 -1
v 3 1 -1
v -3 2 3
v 3 2 3
v -3 2 2
v -1 2 2
v 1 2 2
v 3 2 2
v -4 2 1
v -3 2 1
v 3 2 1
v 4 2 1
v -4 2 -0
v -3 2 -0
v 3 2 -0
v 4 2 -0
v -3 2 -1
v -1 2 -1
v 1 2 -1
v 3 2 -1
v -3 2 -2
v 3 2 -2
v -1 4 4
v 1 4 4
v -1 4 3
v 0 4 3
v 1 4 3
v -2 4 -2
v 1 4 -2
v -2 4 -4
v 1 4 -4
v -2 5 4
v -1 5 4
v 1 5 4
v 2 5 4
v -2 5 3
v -1 5 3
v 1 5 3
v 2 5 3
v -3 5 -2
v -2 5 -2
v 1 5 -2
v 2 5 -2
v -3 5 -3
v -2 5 -3
v 1 5 -3
v 2 5 -3
v -1 6 3
v 0 6 3
v -1 6 2
v 0 6 2
v -4 7 2
v -3 7 2
v 3 7 2
v 4 7 2
v -4 7 1
v -3 7 1
v 3 7 1
v 4 7 1
v -4 7 -0
v -3 7 -0
v 3 7 -0
v 4 7 -0
v -4 7 -1
v -3 7 -1
v -2 7 -1
v 2 7 -1
v 3 7 -1
v 4 7 -1
v -3 7 -2
v -2 7 -2
v 2 7 -2
v 3 7 -2
v -2 7 -3
v 2 7 -3
v -1 5 3
v 0 5 3
v -1 5 2
v 0 5 2
v -2 6 4
v 2 6 4
v -2 6 3
v 2 6 3
v -4 6 1
v -3 6 1
v 3 6 1
v 4 6 1
v -4 6 -0
v -3 6 -0
v 3 6 -0
v 4 6 -0
v -3 6 -1
v -2 6 -1
v 2 6 -1
v 3 6 -1
v -2 6 -2
v 2 6 -2
v 3 6 -2
v -3 6 -3
v -2 6 -3
v 1 6 -3
v 2 6 -3
v -2 6 -4
v 1 6 -4
v -3 7 3
v 3 7 3
v -3 7 2
v -2 7 2
v -1 7 2
v 1 7 2
v 2 7 2
v 3 7 2
v -4 10 2
v -3 10 2
v -2 10 2
v 2 10 2
v 3 10 2
v 4 10 2
v -4 10 -1
v -3 10 -1
v 3 10 -1
v 4 10 -1
v -2 10 -2
v 2 10 -2
v -2 10 -3
v 2 10 -3
v -3 11 2
v -2 11 2
v 2 11 2
v 3 11 2
v -3 11 -2
v -2 11 -2
v 2 11 -2
v 3 11 -2

# faces
f 3/1/1 2/1/1 1/1/1
f 4/1/1 2/1/1 3/1/1
f 5/3/1 4/3/1 3/3/1
f 6/3/1 4/3/1 5/3/1
f 11/1/1 9/1/1 8/1/1
f 11/5/1 8/5/1 7/5/1
f 12/5/1 10/5/1 9/5/1
f 12/1/1 9/1/1 11/1/1
f 13/5/1 11/5/1 7/5/1
f 13/5/1 12/5/1 11/5/1
f 14/5/1 10/5/1 12/5/1
f 14/5/1 12/5/1 13/5/1
f 18/2/1 16/2/1 15/2/1
f 19/2/1 16/2/1 18/2/1
f 20/2/1 16/2/1 19/2/1
f 21/2/1 16/2/1 20/2/1
f 23/2/1 18/2/1 17/2/1
f 23/2/1 19/2/1 18/2/1
f 24/2/1 19/2/1 23/2/1
f 25/2/1 22/2/1 21/2/1
f 25/2/1 21/2/1 20/2/1
f 26/2/1 22/2/1 25/2/1
f 27/3/1 26/3/1 25/3/1
f 29/3/1 24/3/1 23/3/1
f 30/3/1 24/3/1 29/3/1
f 31/3/1 24/3/1 30/3/1
f 32/3/1 28/3/1 27/3/1
f 32/3/1 27/3/1 25/3/1
f 33/3/1 28/3/1 32/3/1
f 34/3/1 28/3/1 33/3/1
f 35/5/1 30/5/1 29/5/1
f 36/1/1 31/1/1 30/1/1
f 36/5/1 30/5/1 35/5/1
f 36/1/1 32/1/1 31/1/1
f 36/1/1 33/1/1 32/1/1
f 37/1/1 33/1/1 36/1/1
f 38/1/1 33/1/1 37/1/1
f 39/1/1 33/1/1 38/1/1
f 42/5/1 40/5/1 39/5/1
f 43/5/1 42/5/1 41/5/1
f 44/5/1 40/5/1 42/5/1
f 44/5/1 42/5/1 43/5/1
f 47/1/1 46/1/1 45/1/1
f 48/1/1 46/1/1 47/1/1
f 53/3/1 50/3/1 49/3/1
f 54/3/1 50/3/1 53/3/1
f 55/5/1 52/5/1 51/5/1
f 56/5/1 52/5/1 55/5/1
f 59/3/1 50/3/1 54/3/1
f 60/3/1 50/3/1 59/3/1
f 61/1/1 58/1/1 57/1/1
f 62/1/1 58/1/1 61/1/1
f 64/5/1 63/5/1 62/5/1
f 65/5/1 63/5/1 64/5/1
f 68/5/1 67/5/1 66/5/1
f 69/5/1 67/5/1 68/5/1
f 72/3/1 71/3/1 70/3/1
f 73/3/1 71/3/1 72/3/1
f 77/1/1 75/1/1 74/1/1
f 78/1/1 75/1/1 77/1/1
f 80/2/1 77/2/1 76/2/1
f 80/2/1 79/2/1 78/2/1
f 80/2/1 78/2/1 77/2/1
f 81/2/1 79/2/1 80/2/1
f 84/5/1 83/5/1 82/5/1
f 85/5/1 83/5/1 84/5/1
f 86/5/2 87/5/2 88/5/2
f 88/5/2 87/5/2 89/5/2
f 90/1/2 91/1/2 93/1/2
f 93/1/2 91/1/2 94/1/2
f 92/2/2 93/2/2 96/2/2
f 94/2/2 95/2/2 96/2/2
f 93/2/2 94/2/2 96/2/2
f 96/2/2 95/2/2 97/2/2
f 98/3/2 99/3/2 100/3/2
f 100/3/2 99/3/2 101/3/2
f 102/5/2 103/5/2 106/5/2
f 106/5/2 103/5/2 107/5/2
f 104/3/2 105/3/2 108/3/2
f 108/3/2 105/3/2 109/3/2
f 109/3/2 105/3/2 110/3/2
f 110/3/2 105/3/2 111/3/2
f 112/1/2 113/1/2 114/1/2
f 114/1/2 113/1/2 115/1/2
f 116/5/2 117/5/2 120/5/2
f 120/5/2 117/5/2 121/5/2
f 118/3/2 119/3/2 123/3/2
f 123/3/2 119/3/2 124/3/2
f 122/1/2 123/1/2 125/1/2
f 125/1/2 123/1/2 126/1/2
f 126/5/2 127/5/2 128/5/2
f 128/5/2 127/5/2 129/5/2
f 130/2/2 131/2/2 133/2/2
f 133/2/2 131/2/2 134/2/2
f 134/2/2 131/2/2 135/2/2
f 135/2/2 131/2/2 136/2/2
f 132/2/2 133/2/2 138/2/2
f 133/2/2 134/2/2 138/2/2
f 138/2/2 134/2/2 139/2/2
f 136/2/2 137/2/2 140/2/2
f 135/2/2 136/2/2 140/2/2
f 140/2/2 137/2/2 141/2/2
f 138/3/2 139/3/2 142/3/2
f 142/3/2 139/3/2 143/3/2
f 143/3/2 139/3/2 144/3/2
f 140/3/2 141/3/2 145/3/2
f 145/3/2 141/3/2 146/3/2
f 146/3/2 141/3/2 147/3/2
f 142/5/2 143/5/2 148/5/2
f 143/1/2 144/1/2 149/1/2
f 148/5/2 143/5/2 149/5/2
f 144/1/2 145/1/2 149/1/2
f 145/1/2 146/1/2 149/1/2
f 149/1/2 146/1/2 150/1/2
f 150/1/2 146/1/2 151/1/2
f 151/1/2 146/1/2 152/1/2
f 152/5/2 153/5/2 155/5/2
f 154/5/2 155/5/2 156/5/2
f 155/5/2 153/5/2 157/5/2
f 156/5/2 155/5/2 157/5/2
f 158/1/2 159/1/2 160/1/2
f 160/1/2 159/1/2 161/1/2
f 160/3/2 161/3/2 162/3/2
f 162/3/2 161/3/2 163/3/2
f 165/1/2 166/1/2 168/1/2
f 164/5/2 165/5/2 168/5/2
f 166/5/2 167/5/2 169/5/2
f 168/1/2 166/1/2 169/1/2
f 164/5/2 168/5/2 170/5/2
f 168/5/2 169/5/2 170/5/2
f 169/5/2 167/5/2 171/5/2
f 170/5/2 169/5/2 171/5/2
f 175/5/3 173/5/3 172/5/3
f 176/5/3 175/5/3 174/5/3
f 177/5/3 173/5/3 175/5/3
f 177/5/3 175/5/3 176/5/3
f 178/5/3 173/5/3 177/5/3
f 179/5/3 173/5/3 178/5/3
f 184/3/3 182/3/3 181/3/3
f 185/5/3 183/5/3 182/5/3
f 185/3/3 182/3/3 184/3/3
f 186/2/3 181/2/3 180/2/3
f 186/3/3 184/3/3 181/3/3
f 187/3/3 184/3/3 186/3/3
f 188/3/3 184/3/3 187/3/3
f 189/2/3 186/2/3 180/2/3
f 189/4/3 187/4/3 186/4/3
f 190/4/3 187/4/3 189/4/3
f 191/3/3 190/3/3 189/3/3
f 193/3/3 192/3/3 191/3/3
f 194/5/3 183/5/3 185/5/3
f 195/2/3 189/2/3 180/2/3
f 196/3/3 193/3/3 191/3/3
f 196/2/3 189/2/3 195/2/3
f 196/3/3 191/3/3 189/3/3
f 196/3/3 194/3/3 193/3/3
f 197/5/3 183/5/3 194/5/3
f 197/3/3 194/3/3 196/3/3
f 198/5/3 183/5/3 197/5/3
f 203/5/3 200/5/3 199/5/3
f 204/5/3 200/5/3 203/5/3
f 206/1/3 204/1/3 203/1/3
f 207/1/3 204/1/3 206/1/3
f 208/5/3 205/5/3 204/5/3
f 208/1/3 204/1/3 207/1/3
f 209/5/3 205/5/3 208/5/3
f 210/2/3 202/2/3 201/2/3
f 211/2/3 202/2/3 210/2/3
f 214/6/3 207/6/3 206/6/3
f 215/1/3 208/1/3 207/1/3
f 215/6/3 207/6/3 214/6/3
f 216/1/3 213/1/3 212/1/3
f 217/1/3 213/1/3 216/1/3
f 220/1/3 215/1/3 214/1/3
f 221/1/3 208/1/3 215/1/3
f 221/1/3 215/1/3 220/1/3
f 222/6/3 221/6/3 220/6/3
f 223/1/3 208/1/3 221/1/3
f 223/6/3 221/6/3 222/6/3
f 224/1/3 208/1/3 223/1/3
f 226/2/3 219/2/3 218/2/3
f 227/2/3 219/2/3 226/2/3
f 228/1/3 223/1/3 222/1/3
f 228/1/3 224/1/3 223/1/3
f 229/5/3 225/5/3 224/5/3
f 229/1/3 224/1/3 228/1/3
f 230/5/3 225/5/3 229/5/3
f 231/5/3 229/5/3 228/5/3
f 232/5/3 229/5/3 231/5/3
f 236/1/3 234/1/3 233/1/3
f 237/3/3 235/3/3 234/3/3
f 237/1/3 234/1/3 236/1/3
f 238/3/3 235/3/3 237/3/3
f 241/1/3 240/1/3 239/1/3
f 242/1/3 240/1/3 241/1/3
f 245/1/3 244/1/3 243/1/3
f 246/1/3 244/1/3 245/1/3
f 250/1/3 248/1/3 247/1/3
f 251/3/3 249/3/3 248/3/3
f 251/1/3 248/1/3 250/1/3
f 252/3/3 249/3/3 251/3/3
f 253/5/4 254/5/4 255/5/4
f 255/5/4 254/5/4 256/5/4
f 257/1/4 258/1/4 260/1/4
f 258/3/4 259/3/4 261/3/4
f 260/1/4 258/1/4 261/1/4
f 261/3/4 259/3/4 262/3/4
f 263/1/4 264/1/4 265/1/4
f 265/1/4 264/1/4 266/1/4
f 267/1/4 268/1/4 269/1/4
f 269/1/4 268/1/4 270/1/4
f 271/1/4 272/1/4 274/1/4
f 272/3/4 273/3/4 275/3/4
f 274/1/4 272/1/4 275/1/4
f 275/3/4 273/3/4 276/3/4
f 277/5/4 278/5/4 282/5/4
f 282/5/4 278/5/4 283/5/4
f 281/1/4 282/1/4 284/1/4
f 284/1/4 282/1/4 285/1/4
f 279/2/4 280/2/4 286/2/4
f 286/2/4 280/2/4 287/2/4
f 288/2/4 289/2/4 292/2/4
f 292/2/4 289/2/4 293/2/4
f 290/1/4 291/1/4 294/1/4
f 294/1/4 291/1/4 295/1/4
f 295/5/4 296/5/4 297/5/4
f 297/5/4 296/5/4 298/5/4
f 300/3/4 301/3/4 304/3/4
f 304/3/4 301/3/4 305/3/4
f 302/5/4 303/5/4 307/5/4
f 307/5/4 303/5/4 308/5/4
f 308/5/4 303/5/4 309/5/4
f 300/3/4 304/3/4 310/3/4
f 310/3/4 311/3/4 312/3/4
f 306/1/4 307/1/4 313/1/4
f 313/1/4 307/1/4 314/1/4
f 299/2/4 300/2/4 317/2/4
f 310/3/4 312/3/4 318/3/4
f 317/2/4 300/2/4 318/2/4
f 300/3/4 310/3/4 318/3/4
f 312/3/4 313/3/4 318/3/4
f 318/3/4 313/3/4 319/3/4
f 315/5/4 316/5/4 320/5/4
f 314/5/4 315/5/4 320/5/4
f 320/5/4 316/5/4 321/5/4
f 322/3/4 323/3/4 324/3/4
f 324/3/4 323/3/4 325/3/4
f 328/3/4 329/3/4 330/3/4
f 330/3/4 329/3/4 331/3/4
f 326/5/4 327/5/4 332/5/4
f 332/5/4 327/5/4 333/5/4
f 334/3/4 335/3/4 336/3/4
f 336/3/4 335/3/4 337/3/4
f 342/1/5 339/1/5 338/1/5
f 343/1/5 339/1/5 342/1/5
f 344/1/5 341/1/5 340/1/5
f 345/1/5 341/1/5 344/1/5
f 350/2/5 347/2/5 346/2/5
f 351/2/5 347/2/5 350/2/5
f 352/2/5 349/2/5 348/2/5
f 353/2/5 349/2/5 352/2/5
f 354/2/5 350/2/5 346/2/5
f 357/2/5 349/2/5 353/2/5
f 358/2/5 355/2/5 354/2/5
f 358/2/5 354/2/5 346/2/5
f 359/2/5 355/2/5 358/2/5
f 360/2/5 357/2/5 356/2/5
f 361/2/5 349/2/5 357/2/5
f 361/2/5 357/2/5 360/2/5
f 364/2/5 363/2/5 362/2/5
f 365/2/5 363/2/5 364/2/5
f 366/2/5 363/2/5 365/2/5
f 367/2/5 363/2/5 366/2/5
f 372/1/5 369/1/5 368/1/5
f 373/1/5 369/1/5 372/1/5
f 374/1/5 371/1/5 370/1/5
f 375/1/5 371/1/5 374/1/5
f 377/2/5 366/2/5 365/2/5
f 378/2/5 366/2/5 377/2/5
f 380/2/5 377/2/5 376/2/5
f 380/2/5 379/2/5 378/2/5
f 380/2/5 378/2/5 377/2/5
f 381/2/5 379/2/5 380/2/5
f 384/5/5 383/5/5 382/5/5
f 385/5/5 383/5/5 384/5/5
f 386/5/5 383/5/5 385/5/5
f 389/3/5 388/3/5 387/3/5
f 390/3/5 388/3/5 389/3/5
f 395/5/5 392/5/5 391/5/5
f 396/5/5 392/5/5 395/5/5
f 397/5/5 394/5/5 393/5/5
f 398/5/5 394/5/5 397/5/5
f 403/3/5 400/3/5 399/3/5
f 404/3/5 400/3/5 403/3/5
f 405/3/5 402/3/5 401/3/5
f 406/3/5 402/3/5 405/3/5
f 409/5/5 408/5/5 407/5/5
f 410/5/5 408/5/5 409/5/5
f 415/5/5 412/5/5 411/5/5
f 416/5/5 412/5/5 415/5/5
f 417/5/5 414/5/5 413/5/5
f 418/5/5 414/5/5 417/5/5
f 419/1/5 416/1/5 415/1/5
f 420/1/5 416/1/5 419/1/5
f 421/1/5 418/1/5 417/1/5
f 422/1/5 418/1/5 421/1/5
f 423/5/5 420/5/5 419/5/5
f 424/5/5 420/5/5 423/5/5
f 427/5/5 422/5/5 421/5/5
f 428/5/5 422/5/5 427/5/5
f 429/5/5 425/5/5 424/5/5
f 430/5/5 425/5/5 429/5/5
f 431/5/5 427/5/5 426/5/5
f 432/5/5 427/5/5 431/5/5
f 433/5/5 431/5/5 430/5/5
f 434/5/5 431/5/5 433/5/5
f 435/4/6 436/4/6 437/4/6
f 437/4/6 436/4/6 438/4/6
f 439/5/6 440/5/6 441/5/6
f 441/5/6 440/5/6 442/5/6
f 443/3/6 444/3/6 447/3/6
f 447/3/6 444/3/6 448/3/6
f 445/3/6 446/3/6 449/3/6
f 449/3/6 446/3/6 450/3/6
f 451/3/6 452/3/6 455/3/6
f 453/3/6 454/3/6 456/3/6
f 456/3/6 454/3/6 457/3/6
f 451/3/6 455/3/6 458/3/6
f 455/3/6 456/3/6 458/3/6
f 458/3/6 456/3/6 459/3/6
f 459/3/6 456/3/6 460/3/6
f 460/3/6 456/3/6 461/3/6
f 459/3/6 460/3/6 462/3/6
f 462/3/6 460/3/6 463/3/6
f 464/5/6 465/5/6 466/5/6
f 466/5/6 465/5/6 467/5/6
f 467/5/6 465/5/6 468/5/6
f 468/5/6 465/5/6 469/5/6
f 469/5/6 465/5/6 470/5/6
f 470/5/6 465/5/6 471/5/6
f 472/5/6 473/5/6 478/5/6
f 478/5/6 473/5/6 479/5/6
f 476/5/6 477/5/6 480/5/6
f 480/5/6 477/5/6 481/5/6
f 474/1/6 475/1/6 482/1/6
f 482/1/6 475/1/6 483/1/6
f 482/5/6 483/5/6 484/5/6
f 484/5/6 483/5/6 485/5/6
f 486/5/6 487/5/6 490/5/6
f 490/5/6 487/5/6 491/5/6
f 488/5/6 489/5/6 492/5/6
f 492/5/6 489/5/6 493/5/6
