# MagicaVoxel @ Ephtracy

# material
mtllib chr_mechanic.mtl
usemtl palette

# normals
vn -1 0 0
vn 1 0 0
vn 0 0 1
vn 0 0 -1
vn 0 -1 0
vn 0 1 0

# texcoords
vt 0.0332031 0.5
vt 0.373047 0.5
vt 0.611328 0.5
vt 0.958984 0.5
vt 0.986328 0.5
vt 0.994141 0.5

# verts
v -4 2 1
v -4 2 -0
v -4 4 1
v -4 4 -0
v -4 6 1
v -4 6 -0
v -4 6 -1
v -4 7 1
v -4 7 -0
v -4 8 1
v -4 8 -0
v -4 9 2
v -4 9 1
v -4 10 2
v -4 10 -1
v -3 1 2
v -3 1 -1
v -3 2 3
v -3 2 2
v -3 2 1
v -3 2 -0
v -3 2 -1
v -3 2 -2
v -3 4 1
v -3 4 -0
v -3 6 3
v -3 6 2
v -3 6 1
v -3 6 -0
v -3 6 -1
v -3 6 -2
v -3 7 1
v -3 7 -0
v -3 7 -1
v -3 7 -2
v -3 8 1
v -3 9 2
v -3 9 1
v -3 10 1
v -3 10 -1
v -3 10 -2
v -3 11 1
v -3 11 -1
v -2 0 1
v -2 0 -0
v -2 1 1
v -2 1 -0
v -2 6 -1
v -2 6 -2
v -2 6 -3
v -2 7 -1
v -2 7 -2
v -2 10 2
v -2 10 1
v -2 10 -1
v -2 10 -2
v -2 10 -3
v -2 11 2
v -2 11 1
v -2 11 -1
v -2 11 -2
v 0 9 3
v 0 9 2
v 0 10 3
v 0 10 2
v 1 0 1
v 1 0 -0
v 1 1 2
v 1 1 1
v 1 1 -0
v 1 1 -1
v 1 2 2
v 1 2 -1
v -1 0 1
v -1 0 -0
v -1 1 2
v -1 1 1
v -1 1 -0
v -1 1 -1
v -1 2 2
v -1 2 -1
v 1 6 -2
v 1 6 -3
v 1 7 -2
v 1 7 -3
v 2 0 1
v 2 0 -0
v 2 1 1
v 2 1 -0
v 2 6 -1
v 2 6 -2
v 2 7 -1
v 2 7 -2
v 2 7 -3
v 2 10 -1
v 2 10 -2
v 2 10 -3
v 2 11 -1
v 2 11 -2
v 3 1 2
v 3 1 -1
v 3 2 3
v 3 2 2
v 3 2 1
v 3 2 -0
v 3 2 -1
v 3 2 -2
v 3 4 1
v 3 4 -0
v 3 6 3
v 3 6 2
v 3 6 1
v 3 6 -0
v 3 6 -1
v 3 6 -2
v 3 7 1
v 3 7 -0
v 3 7 -1
v 3 7 -2
v 3 8 1
v 3 9 3
v 3 9 2
v 3 9 1
v 3 10 3
v 3 10 2
v 3 10 -1
v 3 10 -2
v 3 11 2
v 3 11 -1
v 4 2 1
v 4 2 -0
v 4 4 1
v 4 4 -0
v 4 6 1
v 4 6 -0
v 4 6 -1
v 4 7 1
v 4 7 -0
v 4 8 1
v 4 8 -0
v 4 9 2
v 4 9 1
v 4 10 2
v 4 10 -1
v -3 2 3
v -3 6 3
v -2 2 3
v -2 6 3
v -1 2 3
v -1 6 3
v 0 4 3
v 0 5 3
v 0 9 3
v 0 10 3
v 2 4 3
v 2 5 3
v 3 2 3
v 3 6 3
v 3 9 3
v 3 10 3
v -4 9 2
v -4 10 2
v -3 1 2
v -3 2 2
v -3 6 2
v -3 9 2
v -3 10 2
v -2 2 2
v -2 6 2
v -2 7 2
v -2 8 2
v -2 10 2
v -2 11 2
v -1 1 2
v -1 2 2
v -1 6 2
v -1 7 2
v -1 8 2
v 0 9 2
v 0 10 2
v 1 1 2
v 1 2 2
v 1 7 2
v 1 8 2
v 2 7 2
v 2 8 2
v 3 1 2
v 3 2 2
v 3 6 2
v 3 9 2
v 3 10 2
v 3 11 2
v 4 9 2
v 4 10 2
v -4 2 1
v -4 4 1
v -4 6 1
v -4 7 1
v -4 8 1
v -4 9 1
v -3 2 1
v -3 4 1
v -3 6 1
v -3 7 1
v -3 8 1
v -3 9 1
v -3 10 1
v -3 11 1
v -2 0 1
v -2 1 1
v -2 10 1
v -2 11 1
v -1 0 1
v -1 1 1
v 1 0 1
v 1 1 1
v 2 0 1
v 2 1 1
v 3 2 1
v 3 4 1
v 3 6 1
v 3 7 1
v 3 8 1
v 3 9 1
v 4 2 1
v 4 4 1
v 4 6 1
v 4 7 1
v 4 8 1
v 4 9 1
v -4 6 -0
v -4 7 -0
v -3 6 -0
v -3 7 -0
v 3 6 -0
v 3 7 -0
v 4 6 -0
v 4 7 -0
v -4 2 -0
v -4 4 -0
v -4 6 -0
v -3 2 -0
v -3 4 -0
v -3 6 -0
v -2 0 -0
v -2 1 -0
v -1 0 -0
v -1 1 -0
v 1 0 -0
v 1 1 -0
v 2 0 -0
v 2 1 -0
v 3 2 -0
v 3 4 -0
v 3 6 -0
v 4 2 -0
v 4 4 -0
v 4 6 -0
v -4 6 -1
v -4 10 -1
v -3 1 -1
v -3 2 -1
v -3 6 -1
v -3 7 -1
v -3 10 -1
v -3 11 -1
v -2 6 -1
v -2 7 -1
v -2 10 -1
v -2 11 -1
v -1 1 -1
v -1 2 -1
v 1 1 -1
v 1 2 -1
v 2 6 -1
v 2 7 -1
v 2 10 -1
v 2 11 -1
v 3 1 -1
v 3 2 -1
v 3 6 -1
v 3 7 -1
v 3 10 -1
v 3 11 -1
v 4 6 -1
v 4 10 -1
v -3 2 -2
v -3 6 -2
v -3 7 -2
v -3 10 -2
v -2 6 -2
v -2 7 -2
v -2 10 -2
v -2 11 -2
v 1 6 -2
v 1 7 -2
v 2 6 -2
v 2 7 -2
v 2 10 -2
v 2 11 -2
v 3 2 -2
v 3 6 -2
v 3 7 -2
v 3 10 -2
v -2 6 -3
v -2 10 -3
v 1 6 -3
v 1 7 -3
v 2 7 -3
v 2 10 -3
v -2 0 1
v -1 0 1
v 1 0 1
v 2 0 1
v -2 0 -0
v -1 0 -0
v 1 0 -0
v 2 0 -0
v -3 1 2
v -1 1 2
v 1 1 2
v 3 1 2
v -2 1 1
v -1 1 1
v 1 1 1
v 2 1 1
v -2 1 -0
v -1 1 -0
v 1 1 -0
v 2 1 -0
v -3 1 -1
v -1 1 -1
v 1 1 -1
v 3 1 -1
v -3 2 3
v -2 2 3
v -1 2 3
v 3 2 3
v -3 2 2
v -2 2 2
v -1 2 2
v 1 2 2
v 3 2 2
v -4 2 1
v -3 2 1
v 3 2 1
v 4 2 1
v -4 2 -0
v -3 2 -0
v 3 2 -0
v 4 2 -0
v -3 2 -1
v -1 2 -1
v 1 2 -1
v 3 2 -1
v -3 2 -2
v 3 2 -2
v -4 6 -0
v -3 6 -0
v 3 6 -0
v 4 6 -0
v -4 6 -1
v -3 6 -1
v 3 6 -1
v 4 6 -1
v -2 6 -2
v 1 6 -2
v -2 6 -3
v 1 6 -3
v -4 7 1
v -3 7 1
v 3 7 1
v 4 7 1
v -4 7 -0
v -3 7 -0
v 3 7 -0
v 4 7 -0
v -3 7 -1
v -2 7 -1
v 2 7 -1
v 3 7 -1
v -3 7 -2
v -2 7 -2
v 1 7 -2
v 2 7 -2
v 3 7 -2
v 1 7 -3
v 2 7 -3
v 0 9 3
v 3 9 3
v -4 9 2
v -3 9 2
v 0 9 2
v 3 9 2
v 4 9 2
v -4 9 1
v -3 9 1
v 3 9 1
v 4 9 1
v -3 6 3
v -2 6 3
v -1 6 3
v 3 6 3
v -3 6 2
v -2 6 2
v -1 6 2
v 3 6 2
v -4 6 1
v -3 6 1
v 3 6 1
v 4 6 1
v -4 6 -0
v -3 6 -0
v 3 6 -0
v 4 6 -0
v -3 6 -1
v -2 6 -1
v 2 6 -1
v 3 6 -1
v -3 6 -2
v -2 6 -2
v 2 6 -2
v 3 6 -2
v 0 10 3
v 3 10 3
v -4 10 2
v -3 10 2
v -2 10 2
v 0 10 2
v 3 10 2
v 4 10 2
v -3 10 1
v -2 10 1
v -4 10 -1
v -3 10 -1
v -2 10 -1
v 2 10 -1
v 3 10 -1
v 4 10 -1
v -3 10 -2
v -2 10 -2
v 2 10 -2
v 3 10 -2
v -2 10 -3
v 2 10 -3
v -2 11 2
v 3 11 2
v -3 11 1
v -2 11 1
v -3 11 -1
v -2 11 -1
v 2 11 -1
v 3 11 -1
v -2 11 -2
v 2 11 -2

# faces
f 3/1/1 2/1/1 1/1/1
f 4/1/1 2/1/1 3/1/1
f 5/3/1 4/3/1 3/3/1
f 6/3/1 4/3/1 5/3/1
f 9/2/1 7/2/1 6/2/1
f 10/1/1 9/1/1 8/1/1
f 11/2/1 7/2/1 9/2/1
f 11/1/1 9/1/1 10/1/1
f 13/2/1 11/2/1 10/2/1
f 14/2/1 13/2/1 12/2/1
f 15/2/1 7/2/1 11/2/1
f 15/2/1 13/2/1 14/2/1
f 15/2/1 11/2/1 13/2/1
f 19/3/1 17/3/1 16/3/1
f 20/3/1 17/3/1 19/3/1
f 21/3/1 17/3/1 20/3/1
f 22/3/1 17/3/1 21/3/1
f 24/3/1 19/3/1 18/3/1
f 24/3/1 20/3/1 19/3/1
f 25/3/1 23/3/1 22/3/1
f 25/3/1 22/3/1 21/3/1
f 26/3/1 24/3/1 18/3/1
f 27/3/1 24/3/1 26/3/1
f 28/3/1 24/3/1 27/3/1
f 29/3/1 23/3/1 25/3/1
f 30/3/1 23/3/1 29/3/1
f 31/3/1 23/3/1 30/3/1
f 32/1/1 28/1/1 27/1/1
f 32/1/1 29/1/1 28/1/1
f 33/1/1 29/1/1 32/1/1
f 36/1/1 32/1/1 27/1/1
f 37/1/1 36/1/1 27/1/1
f 38/1/1 36/1/1 37/1/1
f 40/2/1 35/2/1 34/2/1
f 41/2/1 35/2/1 40/2/1
f 42/2/1 40/2/1 39/2/1
f 43/2/1 40/2/1 42/2/1
f 46/5/1 45/5/1 44/5/1
f 47/5/1 45/5/1 46/5/1
f 51/1/1 49/1/1 48/1/1
f 52/2/1 50/2/1 49/2/1
f 52/1/1 49/1/1 51/1/1
f 56/2/1 50/2/1 52/2/1
f 57/2/1 50/2/1 56/2/1
f 58/2/1 54/2/1 53/2/1
f 59/2/1 54/2/1 58/2/1
f 60/2/1 56/2/1 55/2/1
f 61/2/1 56/2/1 60/2/1
f 64/2/1 63/2/1 62/2/1
f 65/2/1 63/2/1 64/2/1
f 69/5/1 67/5/1 66/5/1
f 70/5/1 67/5/1 69/5/1
f 72/3/1 69/3/1 68/3/1
f 72/3/1 71/3/1 70/3/1
f 72/3/1 70/3/1 69/3/1
f 73/3/1 71/3/1 72/3/1
f 74/5/2 75/5/2 77/5/2
f 77/5/2 75/5/2 78/5/2
f 76/3/2 77/3/2 80/3/2
f 78/3/2 79/3/2 80/3/2
f 77/3/2 78/3/2 80/3/2
f 80/3/2 79/3/2 81/3/2
f 82/2/2 83/2/2 84/2/2
f 84/2/2 83/2/2 85/2/2
f 86/5/2 87/5/2 88/5/2
f 88/5/2 87/5/2 89/5/2
f 90/1/2 91/1/2 92/1/2
f 92/1/2 91/1/2 93/1/2
f 93/2/2 94/2/2 96/2/2
f 96/2/2 94/2/2 97/2/2
f 95/2/2 96/2/2 98/2/2
f 98/2/2 96/2/2 99/2/2
f 100/3/2 101/3/2 103/3/2
f 103/3/2 101/3/2 104/3/2
f 104/3/2 101/3/2 105/3/2
f 105/3/2 101/3/2 106/3/2
f 102/3/2 103/3/2 108/3/2
f 103/3/2 104/3/2 108/3/2
f 106/3/2 107/3/2 109/3/2
f 105/3/2 106/3/2 109/3/2
f 102/3/2 108/3/2 110/3/2
f 110/3/2 108/3/2 111/3/2
f 111/3/2 108/3/2 112/3/2
f 109/3/2 107/3/2 113/3/2
f 113/3/2 107/3/2 114/3/2
f 114/3/2 107/3/2 115/3/2
f 111/1/2 112/1/2 116/1/2
f 112/1/2 113/1/2 116/1/2
f 116/1/2 113/1/2 117/1/2
f 111/1/2 116/1/2 120/1/2
f 111/1/2 120/1/2 122/1/2
f 122/1/2 120/1/2 123/1/2
f 121/2/2 122/2/2 124/2/2
f 124/2/2 122/2/2 125/2/2
f 118/2/2 119/2/2 126/2/2
f 126/2/2 119/2/2 127/2/2
f 125/2/2 126/2/2 128/2/2
f 128/2/2 126/2/2 129/2/2
f 130/1/2 131/1/2 132/1/2
f 132/1/2 131/1/2 133/1/2
f 132/3/2 133/3/2 134/3/2
f 134/3/2 133/3/2 135/3/2
f 135/2/2 136/2/2 138/2/2
f 137/1/2 138/1/2 139/1/2
f 138/2/2 136/2/2 140/2/2
f 139/1/2 138/1/2 140/1/2
f 139/2/2 140/2/2 142/2/2
f 141/2/2 142/2/2 143/2/2
f 140/2/2 136/2/2 144/2/2
f 143/2/2 142/2/2 144/2/2
f 142/2/2 140/2/2 144/2/2
f 147/3/3 146/3/3 145/3/3
f 148/3/3 146/3/3 147/3/3
f 149/5/3 148/5/3 147/5/3
f 150/5/3 148/5/3 149/5/3
f 151/3/3 150/3/3 149/3/3
f 152/3/3 150/3/3 151/3/3
f 155/4/3 152/4/3 151/4/3
f 155/3/3 151/3/3 149/3/3
f 156/3/3 150/3/3 152/3/3
f 156/4/3 152/4/3 155/4/3
f 157/3/3 155/3/3 149/3/3
f 157/3/3 156/3/3 155/3/3
f 158/3/3 150/3/3 156/3/3
f 158/3/3 156/3/3 157/3/3
f 159/2/3 154/2/3 153/2/3
f 160/2/3 154/2/3 159/2/3
f 166/2/3 162/2/3 161/2/3
f 167/2/3 162/2/3 166/2/3
f 168/3/3 164/3/3 163/3/3
f 169/1/3 166/1/3 165/1/3
f 169/1/3 167/1/3 166/1/3
f 170/1/3 167/1/3 169/1/3
f 171/1/3 167/1/3 170/1/3
f 172/1/3 167/1/3 171/1/3
f 174/3/3 168/3/3 163/3/3
f 175/3/3 168/3/3 174/3/3
f 176/1/3 170/1/3 169/1/3
f 177/6/3 171/6/3 170/6/3
f 177/1/3 170/1/3 176/1/3
f 178/1/3 172/1/3 171/1/3
f 178/6/3 171/6/3 177/6/3
f 179/1/3 177/1/3 176/1/3
f 179/1/3 172/1/3 178/1/3
f 179/1/3 178/1/3 177/1/3
f 180/2/3 173/2/3 172/2/3
f 180/1/3 172/1/3 179/1/3
f 183/1/3 179/1/3 176/1/3
f 184/1/3 179/1/3 183/1/3
f 185/1/3 183/1/3 176/1/3
f 185/6/3 184/6/3 183/6/3
f 186/1/3 179/1/3 184/1/3
f 186/6/3 184/6/3 185/6/3
f 187/3/3 182/3/3 181/3/3
f 188/3/3 182/3/3 187/3/3
f 189/1/3 185/1/3 176/1/3
f 189/1/3 186/1/3 185/1/3
f 190/1/3 179/1/3 186/1/3
f 190/1/3 186/1/3 189/1/3
f 191/2/3 173/2/3 180/2/3
f 192/2/3 173/2/3 191/2/3
f 193/2/3 191/2/3 190/2/3
f 194/2/3 191/2/3 193/2/3
f 201/1/3 196/1/3 195/1/3
f 202/3/3 197/3/3 196/3/3
f 202/1/3 196/1/3 201/1/3
f 203/3/3 197/3/3 202/3/3
f 204/1/3 199/1/3 198/1/3
f 205/2/3 200/2/3 199/2/3
f 205/1/3 199/1/3 204/1/3
f 206/2/3 200/2/3 205/2/3
f 211/2/3 208/2/3 207/2/3
f 212/2/3 208/2/3 211/2/3
f 213/5/3 210/5/3 209/5/3
f 214/5/3 210/5/3 213/5/3
f 217/5/3 216/5/3 215/5/3
f 218/5/3 216/5/3 217/5/3
f 225/1/3 220/1/3 219/1/3
f 226/3/3 221/3/3 220/3/3
f 226/1/3 220/1/3 225/1/3
f 227/3/3 221/3/3 226/3/3
f 228/1/3 223/1/3 222/1/3
f 229/2/3 224/2/3 223/2/3
f 229/1/3 223/1/3 228/1/3
f 230/2/3 224/2/3 229/2/3
f 233/2/3 232/2/3 231/2/3
f 234/2/3 232/2/3 233/2/3
f 237/2/3 236/2/3 235/2/3
f 238/2/3 236/2/3 237/2/3
f 239/1/4 240/1/4 242/1/4
f 240/3/4 241/3/4 243/3/4
f 242/1/4 240/1/4 243/1/4
f 243/3/4 241/3/4 244/3/4
f 245/5/4 246/5/4 247/5/4
f 247/5/4 246/5/4 248/5/4
f 249/5/4 250/5/4 251/5/4
f 251/5/4 250/5/4 252/5/4
f 253/1/4 254/1/4 256/1/4
f 254/3/4 255/3/4 257/3/4
f 256/1/4 254/1/4 257/1/4
f 257/3/4 255/3/4 258/3/4
f 259/2/4 260/2/4 263/2/4
f 263/2/4 260/2/4 264/2/4
f 264/2/4 260/2/4 265/2/4
f 263/1/4 264/1/4 267/1/4
f 267/1/4 264/1/4 268/1/4
f 265/2/4 266/2/4 269/2/4
f 269/2/4 266/2/4 270/2/4
f 261/3/4 262/3/4 271/3/4
f 271/3/4 262/3/4 272/3/4
f 273/3/4 274/3/4 279/3/4
f 279/3/4 274/3/4 280/3/4
f 275/1/4 276/1/4 281/1/4
f 281/1/4 276/1/4 282/1/4
f 277/2/4 278/2/4 283/2/4
f 283/2/4 278/2/4 284/2/4
f 281/2/4 282/2/4 285/2/4
f 282/2/4 283/2/4 285/2/4
f 285/2/4 283/2/4 286/2/4
f 287/3/4 288/3/4 291/3/4
f 289/2/4 290/2/4 292/2/4
f 292/2/4 290/2/4 293/2/4
f 287/3/4 291/3/4 295/3/4
f 287/3/4 295/3/4 297/3/4
f 295/1/4 296/1/4 297/1/4
f 297/1/4 296/1/4 298/1/4
f 293/2/4 294/2/4 299/2/4
f 299/2/4 294/2/4 300/2/4
f 287/3/4 297/3/4 301/3/4
f 301/3/4 297/3/4 302/3/4
f 298/2/4 299/2/4 303/2/4
f 303/2/4 299/2/4 304/2/4
f 305/2/4 306/2/4 307/2/4
f 307/2/4 306/2/4 308/2/4
f 308/2/4 306/2/4 309/2/4
f 309/2/4 306/2/4 310/2/4
f 315/5/5 312/5/5 311/5/5
f 316/5/5 312/5/5 315/5/5
f 317/5/5 314/5/5 313/5/5
f 318/5/5 314/5/5 317/5/5
f 323/3/5 320/3/5 319/3/5
f 324/3/5 320/3/5 323/3/5
f 325/3/5 322/3/5 321/3/5
f 326/3/5 322/3/5 325/3/5
f 327/3/5 323/3/5 319/3/5
f 330/3/5 322/3/5 326/3/5
f 331/3/5 328/3/5 327/3/5
f 331/3/5 327/3/5 319/3/5
f 332/3/5 328/3/5 331/3/5
f 333/3/5 330/3/5 329/3/5
f 334/3/5 322/3/5 330/3/5
f 334/3/5 330/3/5 333/3/5
f 339/3/5 336/3/5 335/3/5
f 340/5/5 337/5/5 336/5/5
f 340/3/5 336/3/5 339/3/5
f 341/3/5 338/3/5 337/3/5
f 341/5/5 337/5/5 340/5/5
f 342/3/5 338/3/5 341/3/5
f 343/3/5 338/3/5 342/3/5
f 348/1/5 345/1/5 344/1/5
f 349/1/5 345/1/5 348/1/5
f 350/1/5 347/1/5 346/1/5
f 351/1/5 347/1/5 350/1/5
f 353/3/5 342/3/5 341/3/5
f 354/3/5 342/3/5 353/3/5
f 356/3/5 353/3/5 352/3/5
f 356/3/5 355/3/5 354/3/5
f 356/3/5 354/3/5 353/3/5
f 357/3/5 355/3/5 356/3/5
f 362/2/5 359/2/5 358/2/5
f 363/2/5 359/2/5 362/2/5
f 364/2/5 361/2/5 360/2/5
f 365/2/5 361/2/5 364/2/5
f 368/2/5 367/2/5 366/2/5
f 369/2/5 367/2/5 368/2/5
f 374/1/5 371/1/5 370/1/5
f 375/1/5 371/1/5 374/1/5
f 376/1/5 373/1/5 372/1/5
f 377/1/5 373/1/5 376/1/5
f 382/2/5 379/2/5 378/2/5
f 383/2/5 379/2/5 382/2/5
f 385/2/5 381/2/5 380/2/5
f 386/2/5 381/2/5 385/2/5
f 387/2/5 385/2/5 384/2/5
f 388/2/5 385/2/5 387/2/5
f 393/2/5 390/2/5 389/2/5
f 394/2/5 390/2/5 393/2/5
f 396/2/5 392/2/5 391/2/5
f 397/2/5 392/2/5 396/2/5
f 398/2/5 395/2/5 394/2/5
f 399/2/5 395/2/5 398/2/5
f 400/3/6 401/3/6 404/3/6
f 401/5/6 402/5/6 405/5/6
f 404/3/6 401/3/6 405/3/6
f 402/3/6 403/3/6 406/3/6
f 405/5/6 402/5/6 406/5/6
f 406/3/6 403/3/6 407/3/6
f 408/3/6 409/3/6 412/3/6
f 412/3/6 409/3/6 413/3/6
f 410/3/6 411/3/6 414/3/6
f 414/3/6 411/3/6 415/3/6
f 416/3/6 417/3/6 420/3/6
f 420/3/6 417/3/6 421/3/6
f 418/3/6 419/3/6 422/3/6
f 422/3/6 419/3/6 423/3/6
f 424/2/6 425/2/6 429/2/6
f 429/2/6 425/2/6 430/2/6
f 427/1/6 428/1/6 432/1/6
f 426/2/6 427/2/6 432/2/6
f 432/1/6 428/1/6 433/1/6
f 426/2/6 432/2/6 434/2/6
f 434/2/6 432/2/6 435/2/6
f 430/2/6 431/2/6 438/2/6
f 438/2/6 431/2/6 439/2/6
f 435/2/6 436/2/6 440/2/6
f 440/2/6 436/2/6 441/2/6
f 437/2/6 438/2/6 442/2/6
f 442/2/6 438/2/6 443/2/6
f 441/2/6 442/2/6 444/2/6
f 444/2/6 442/2/6 445/2/6
f 446/2/6 447/2/6 449/2/6
f 448/2/6 449/2/6 450/2/6
f 449/2/6 447/2/6 451/2/6
f 450/2/6 449/2/6 451/2/6
f 451/2/6 447/2/6 452/2/6
f 452/2/6 447/2/6 453/2/6
f 451/2/6 452/2/6 454/2/6
f 454/2/6 452/2/6 455/2/6
