# MagicaVoxel @ Ephtracy

# material
mtllib chr_bedroll2.mtl
usemtl palette

# normals
vn -1 0 0
vn 1 0 0
vn 0 0 1
vn 0 0 -1
vn 0 -1 0
vn 0 1 0

# texcoords
vt 0.494141 0.5
vt 0.537109 0.5
vt 0.552734 0.5
vt 0.673828 0.5
vt 0.958984 0.5
vt 0.986328 0.5
vt 0.990234 0.5
vt 0.994141 0.5

# verts
v -7 0 5
v -7 0 -5
v -7 2 5
v -7 2 4
v -7 2 -4
v -7 2 -5
v -7 6 4
v -7 6 3
v -7 6 -3
v -7 6 -4
v -7 7 3
v -7 7 -3
v -4 4 2
v -4 4 1
v -4 4 -1
v -4 4 -2
v -4 5 2
v -4 5 1
v -4 5 -1
v -4 5 -2
v -4 6 -1
v -4 6 -2
v -3 5 3
v -3 5 1
v -3 5 -2
v -3 5 -3
v -3 6 3
v -3 6 1
v -3 6 -2
v -3 6 -3
v 2 1 3
v 2 1 2
v 2 1 -2
v 2 1 -3
v 2 2 4
v 2 2 3
v 2 2 2
v 2 2 -2
v 2 2 -3
v 2 2 -4
v 2 3 4
v 2 3 3
v 2 3 -3
v 2 3 -4
v 2 4 4
v 2 4 3
v 2 4 -3
v 2 4 -4
v 2 5 4
v 2 5 3
v 2 5 -3
v 2 5 -4
v 3 6 3
v 3 6 -3
v 3 8 3
v 3 8 -3
v 4 5 3
v 4 5 -3
v 4 6 3
v 4 6 -3
v -5 4 2
v -5 4 1
v -5 4 -1
v -5 4 -2
v -5 6 2
v -5 6 1
v -5 6 -1
v -5 6 -2
v -4 5 3
v -4 5 2
v -4 5 -2
v -4 5 -3
v -4 6 3
v -4 6 2
v -4 6 -2
v -4 6 -3
v 1 0 5
v 1 0 4
v 1 0 -4
v 1 0 -5
v 1 1 4
v 1 1 3
v 1 1 2
v 1 1 -2
v 1 1 -3
v 1 1 -4
v 1 2 5
v 1 2 4
v 1 2 3
v 1 2 2
v 1 2 -2
v 1 2 -3
v 1 2 -4
v 1 2 -5
v 1 5 3
v 1 5 -3
v 1 6 4
v 1 6 3
v 1 6 -3
v 1 6 -4
v 1 7 3
v 1 7 -3
v 2 5 3
v 2 5 2
v 2 5 1
v 2 5 -1
v 2 5 -2
v 2 5 -3
v 2 6 3
v 2 6 -3
v 4 7 3
v 4 7 -3
v 4 8 3
v 4 8 -3
v 5 5 3
v 5 5 -3
v 5 7 3
v 5 7 -3
v 6 1 3
v 6 1 2
v 6 1 -2
v 6 1 -3
v 6 2 4
v 6 2 3
v 6 2 2
v 6 2 -2
v 6 2 -3
v 6 2 -4
v 6 5 4
v 6 5 3
v 6 5 -3
v 6 5 -4
v 7 0 4
v 7 0 -4
v 7 1 4
v 7 1 2
v 7 1 -2
v 7 1 -4
v 7 2 3
v 7 2 2
v 7 2 -2
v 7 2 -3
v 7 5 3
v 7 5 -3
v -7 0 5
v -7 2 5
v -5 0 5
v -5 2 5
v -3 0 5
v -3 2 5
v 0 0 5
v 0 2 5
v 1 0 5
v 1 2 5
v -7 2 4
v -7 6 4
v -5 2 4
v -5 6 4
v -3 2 4
v -3 6 4
v 0 2 4
v 0 6 4
v 1 0 4
v 1 1 4
v 1 2 4
v 1 6 4
v 2 2 4
v 2 3 4
v 2 4 4
v 2 5 4
v 3 0 4
v 3 1 4
v 3 3 4
v 3 4 4
v 4 2 4
v 4 5 4
v 5 0 4
v 5 1 4
v 6 2 4
v 6 5 4
v 7 0 4
v 7 1 4
v -7 6 3
v -7 7 3
v -5 6 3
v -5 7 3
v -3 6 3
v -3 7 3
v 0 6 3
v 0 7 3
v 1 2 3
v 1 5 3
v 1 6 3
v 1 7 3
v 2 1 3
v 2 2 3
v 2 3 3
v 2 4 3
v 2 5 3
v 2 6 3
v 3 1 3
v 3 6 3
v 3 8 3
v 4 1 3
v 4 2 3
v 4 5 3
v 4 6 3
v 4 7 3
v 4 8 3
v 5 1 3
v 5 5 3
v 5 7 3
v 6 1 3
v 6 2 3
v 6 5 3
v 7 2 3
v 7 5 3
v 1 1 2
v 1 2 2
v 2 1 2
v 2 2 2
v 6 1 2
v 6 2 2
v 7 1 2
v 7 2 2
v -5 4 1
v -5 6 1
v -4 4 1
v -4 5 1
v -3 5 1
v -3 6 1
v -5 4 -2
v -5 6 -2
v -4 4 -2
v -4 5 -2
v -4 6 -2
v -4 5 -3
v -4 6 -3
v -3 5 -3
v -3 6 -3
v -4 5 3
v -4 6 3
v -3 5 3
v -3 6 3
v -5 4 2
v -5 6 2
v -4 4 2
v -4 5 2
v -4 6 2
v -5 4 -1
v -5 6 -1
v -4 4 -1
v -4 5 -1
v -4 6 -1
v -4 5 -2
v -4 6 -2
v -3 5 -2
v -3 6 -2
v 1 1 -2
v 1 2 -2
v 2 1 -2
v 2 2 -2
v 6 1 -2
v 6 2 -2
v 7 1 -2
v 7 2 -2
v -7 6 -3
v -7 7 -3
v -5 6 -3
v -5 7 -3
v -3 6 -3
v -3 7 -3
v 0 6 -3
v 0 7 -3
v 1 2 -3
v 1 5 -3
v 1 6 -3
v 1 7 -3
v 2 1 -3
v 2 2 -3
v 2 3 -3
v 2 4 -3
v 2 5 -3
v 2 6 -3
v 3 1 -3
v 3 6 -3
v 3 8 -3
v 4 1 -3
v 4 2 -3
v 4 5 -3
v 4 6 -3
v 4 7 -3
v 4 8 -3
v 5 1 -3
v 5 5 -3
v 5 7 -3
v 6 1 -3
v 6 2 -3
v 6 5 -3
v 7 2 -3
v 7 5 -3
v -7 2 -4
v -7 6 -4
v -5 2 -4
v -5 6 -4
v -3 2 -4
v -3 6 -4
v 0 2 -4
v 0 6 -4
v 1 0 -4
v 1 1 -4
v 1 2 -4
v 1 6 -4
v 2 2 -4
v 2 3 -4
v 2 4 -4
v 2 5 -4
v 3 0 -4
v 3 1 -4
v 3 3 -4
v 3 4 -4
v 4 2 -4
v 4 5 -4
v 5 0 -4
v 5 1 -4
v 6 2 -4
v 6 5 -4
v 7 0 -4
v 7 1 -4
v -7 0 -5
v -7 2 -5
v -5 0 -5
v -5 2 -5
v -3 0 -5
v -3 2 -5
v 0 0 -5
v 0 2 -5
v 1 0 -5
v 1 2 -5
v -7 0 5
v -5 0 5
v -3 0 5
v 0 0 5
v 1 0 5
v 1 0 4
v 3 0 4
v 5 0 4
v 7 0 4
v 3 0 3
v 5 0 3
v 3 0 -3
v 5 0 -3
v 1 0 -4
v 3 0 -4
v 5 0 -4
v 7 0 -4
v -7 0 -5
v -5 0 -5
v -3 0 -5
v 0 0 -5
v 1 0 -5
v 2 2 4
v 4 2 4
v 6 2 4
v 1 2 3
v 2 2 3
v 4 2 3
v 6 2 3
v 7 2 3
v 1 2 2
v 2 2 2
v 6 2 2
v 7 2 2
v 1 2 -2
v 2 2 -2
v 6 2 -2
v 7 2 -2
v 1 2 -3
v 2 2 -3
v 4 2 -3
v 6 2 -3
v 7 2 -3
v 2 2 -4
v 4 2 -4
v 6 2 -4
v -4 6 3
v -3 6 3
v 3 6 3
v 4 6 3
v -5 6 2
v -4 6 2
v -5 6 1
v -3 6 1
v -5 6 -1
v -4 6 -1
v -5 6 -2
v -4 6 -2
v -3 6 -2
v -4 6 -3
v -3 6 -3
v 3 6 -3
v 4 6 -3
v 1 1 4
v 3 1 4
v 5 1 4
v 7 1 4
v 1 1 3
v 2 1 3
v 3 1 3
v 4 1 3
v 5 1 3
v 6 1 3
v 1 1 2
v 2 1 2
v 6 1 2
v 7 1 2
v 1 1 -2
v 2 1 -2
v 6 1 -2
v 7 1 -2
v 1 1 -3
v 2 1 -3
v 3 1 -3
v 4 1 -3
v 5 1 -3
v 6 1 -3
v 1 1 -4
v 3 1 -4
v 5 1 -4
v 7 1 -4
v -7 2 5
v -5 2 5
v -3 2 5
v 0 2 5
v 1 2 5
v -7 2 4
v -5 2 4
v -3 2 4
v 0 2 4
v 1 2 4
v -7 2 -4
v -5 2 -4
v -3 2 -4
v 0 2 -4
v 1 2 -4
v -7 2 -5
v -5 2 -5
v -3 2 -5
v 0 2 -5
v 1 2 -5
v -5 4 2
v -4 4 2
v -5 4 1
v -4 4 1
v -5 4 -1
v -4 4 -1
v -5 4 -2
v -4 4 -2
v 2 5 4
v 4 5 4
v 6 5 4
v -4 5 3
v -3 5 3
v 2 5 3
v 4 5 3
v 5 5 3
v 6 5 3
v 7 5 3
v -4 5 2
v 2 5 2
v 3 5 2
v -4 5 1
v -3 5 1
v 2 5 1
v 3 5 1
v 2 5 -1
v 3 5 -1
v -4 5 -2
v -3 5 -2
v 2 5 -2
v 3 5 -2
v -4 5 -3
v -3 5 -3
v 2 5 -3
v 4 5 -3
v 5 5 -3
v 6 5 -3
v 7 5 -3
v 2 5 -4
v 4 5 -4
v 6 5 -4
v -7 6 4
v -5 6 4
v -3 6 4
v 0 6 4
v 1 6 4
v -7 6 3
v -5 6 3
v -3 6 3
v 0 6 3
v 1 6 3
v 2 6 3
v -7 6 -3
v -5 6 -3
v -3 6 -3
v 0 6 -3
v 1 6 -3
v 2 6 -3
v -7 6 -4
v -5 6 -4
v -3 6 -4
v 0 6 -4
v 1 6 -4
v -7 7 3
v -5 7 3
v -3 7 3
v 0 7 3
v 1 7 3
v 4 7 3
v 5 7 3
v -7 7 -3
v -5 7 -3
v -3 7 -3
v 0 7 -3
v 1 7 -3
v 4 7 -3
v 5 7 -3
v 3 8 3
v 4 8 3
v 3 8 -3
v 4 8 -3

# faces
f 3/1/1 2/1/1 1/1/1
f 4/1/1 2/1/1 3/1/1
f 5/1/1 2/1/1 4/1/1
f 6/1/1 2/1/1 5/1/1
f 7/1/1 5/1/1 4/1/1
f 8/1/1 5/1/1 7/1/1
f 9/1/1 5/1/1 8/1/1
f 10/1/1 5/1/1 9/1/1
f 11/1/1 9/1/1 8/1/1
f 12/1/1 9/1/1 11/1/1
f 17/4/1 14/4/1 13/4/1
f 18/4/1 14/4/1 17/4/1
f 19/4/1 16/4/1 15/4/1
f 20/4/1 16/4/1 19/4/1
f 21/3/1 20/3/1 19/3/1
f 22/3/1 20/3/1 21/3/1
f 27/1/1 24/1/1 23/1/1
f 28/1/1 24/1/1 27/1/1
f 29/1/1 26/1/1 25/1/1
f 30/1/1 26/1/1 29/1/1
f 36/6/1 32/6/1 31/6/1
f 37/6/1 32/6/1 36/6/1
f 38/6/1 34/6/1 33/6/1
f 39/6/1 34/6/1 38/6/1
f 41/6/1 36/6/1 35/6/1
f 42/6/1 36/6/1 41/6/1
f 43/6/1 40/6/1 39/6/1
f 44/6/1 40/6/1 43/6/1
f 45/2/1 42/2/1 41/2/1
f 46/2/1 42/2/1 45/2/1
f 47/2/1 44/2/1 43/2/1
f 48/2/1 44/2/1 47/2/1
f 49/6/1 46/6/1 45/6/1
f 50/6/1 46/6/1 49/6/1
f 51/6/1 48/6/1 47/6/1
f 52/6/1 48/6/1 51/6/1
f 55/4/1 54/4/1 53/4/1
f 56/4/1 54/4/1 55/4/1
f 59/4/1 58/4/1 57/4/1
f 60/4/1 58/4/1 59/4/1
f 61/1/2 62/1/2 65/1/2
f 65/1/2 62/1/2 66/1/2
f 63/1/2 64/1/2 67/1/2
f 67/1/2 64/1/2 68/1/2
f 69/3/2 70/3/2 73/3/2
f 73/3/2 70/3/2 74/3/2
f 71/3/2 72/3/2 75/3/2
f 75/3/2 72/3/2 76/3/2
f 77/3/2 78/3/2 81/3/2
f 79/3/2 80/3/2 86/3/2
f 77/3/2 81/3/2 87/3/2
f 81/3/2 82/3/2 87/3/2
f 87/3/2 82/3/2 88/3/2
f 82/5/2 83/5/2 89/5/2
f 88/3/2 82/3/2 89/3/2
f 89/5/2 83/5/2 90/5/2
f 84/5/2 85/5/2 91/5/2
f 85/3/2 86/3/2 92/3/2
f 91/5/2 85/5/2 92/5/2
f 86/3/2 80/3/2 93/3/2
f 92/3/2 86/3/2 93/3/2
f 93/3/2 80/3/2 94/3/2
f 88/3/2 89/3/2 95/3/2
f 92/3/2 93/3/2 96/3/2
f 88/3/2 95/3/2 97/3/2
f 97/3/2 95/3/2 98/3/2
f 96/3/2 93/3/2 99/3/2
f 99/3/2 93/3/2 100/3/2
f 98/3/2 99/3/2 101/3/2
f 101/3/2 99/3/2 102/3/2
f 103/6/2 104/6/2 109/6/2
f 107/6/2 108/6/2 109/6/2
f 106/6/2 107/6/2 109/6/2
f 105/6/2 106/6/2 109/6/2
f 104/6/2 105/6/2 109/6/2
f 109/6/2 108/6/2 110/6/2
f 111/4/2 112/4/2 113/4/2
f 113/4/2 112/4/2 114/4/2
f 115/4/2 116/4/2 117/4/2
f 117/4/2 116/4/2 118/4/2
f 119/4/2 120/4/2 124/4/2
f 124/4/2 120/4/2 125/4/2
f 121/4/2 122/4/2 126/4/2
f 126/4/2 122/4/2 127/4/2
f 123/4/2 124/4/2 129/4/2
f 129/4/2 124/4/2 130/4/2
f 127/4/2 128/4/2 131/4/2
f 131/4/2 128/4/2 132/4/2
f 133/3/2 134/3/2 135/3/2
f 135/3/2 134/3/2 136/3/2
f 136/3/2 134/3/2 137/3/2
f 137/3/2 134/3/2 138/3/2
f 136/4/2 137/4/2 140/4/2
f 140/4/2 137/4/2 141/4/2
f 139/4/2 140/4/2 143/4/2
f 141/4/2 142/4/2 143/4/2
f 140/4/2 141/4/2 143/4/2
f 143/4/2 142/4/2 144/4/2
f 147/1/3 146/1/3 145/1/3
f 148/1/3 146/1/3 147/1/3
f 149/3/3 148/3/3 147/3/3
f 150/3/3 148/3/3 149/3/3
f 151/1/3 150/1/3 149/1/3
f 152/1/3 150/1/3 151/1/3
f 153/3/3 152/3/3 151/3/3
f 154/3/3 152/3/3 153/3/3
f 157/1/3 156/1/3 155/1/3
f 158/1/3 156/1/3 157/1/3
f 159/3/3 158/3/3 157/3/3
f 160/3/3 158/3/3 159/3/3
f 161/1/3 160/1/3 159/1/3
f 162/1/3 160/1/3 161/1/3
f 165/3/3 162/3/3 161/3/3
f 166/3/3 162/3/3 165/3/3
f 171/3/3 164/3/3 163/3/3
f 172/3/3 164/3/3 171/3/3
f 173/6/3 168/6/3 167/6/3
f 173/2/3 169/2/3 168/2/3
f 174/6/3 170/6/3 169/6/3
f 174/2/3 169/2/3 173/2/3
f 175/6/3 173/6/3 167/6/3
f 175/6/3 174/6/3 173/6/3
f 176/6/3 170/6/3 174/6/3
f 176/6/3 174/6/3 175/6/3
f 177/1/3 172/1/3 171/1/3
f 178/1/3 172/1/3 177/1/3
f 179/4/3 176/4/3 175/4/3
f 180/4/3 176/4/3 179/4/3
f 181/3/3 178/3/3 177/3/3
f 182/3/3 178/3/3 181/3/3
f 185/1/3 184/1/3 183/1/3
f 186/1/3 184/1/3 185/1/3
f 187/3/3 186/3/3 185/3/3
f 188/3/3 186/3/3 187/3/3
f 189/1/3 188/1/3 187/1/3
f 190/1/3 188/1/3 189/1/3
f 193/3/3 190/3/3 189/3/3
f 194/3/3 190/3/3 193/3/3
f 196/2/3 192/2/3 191/2/3
f 197/2/3 192/2/3 196/2/3
f 198/2/3 192/2/3 197/2/3
f 199/6/3 193/6/3 192/6/3
f 199/2/3 192/2/3 198/2/3
f 200/6/3 193/6/3 199/6/3
f 201/6/3 196/6/3 195/6/3
f 204/6/3 196/6/3 201/6/3
f 205/6/3 196/6/3 204/6/3
f 207/4/3 203/4/3 202/4/3
f 208/4/3 203/4/3 207/4/3
f 209/4/3 203/4/3 208/4/3
f 210/4/3 205/4/3 204/4/3
f 211/4/3 207/4/3 206/4/3
f 211/4/3 208/4/3 207/4/3
f 212/4/3 208/4/3 211/4/3
f 213/4/3 205/4/3 210/4/3
f 214/4/3 205/4/3 213/4/3
f 216/4/3 215/4/3 214/4/3
f 217/4/3 215/4/3 216/4/3
f 220/2/3 219/2/3 218/2/3
f 221/2/3 219/2/3 220/2/3
f 224/4/3 223/4/3 222/4/3
f 225/4/3 223/4/3 224/4/3
f 228/3/3 227/3/3 226/3/3
f 229/3/3 227/3/3 228/3/3
f 230/3/3 227/3/3 229/3/3
f 231/3/3 227/3/3 230/3/3
f 234/3/3 233/3/3 232/3/3
f 235/3/3 233/3/3 234/3/3
f 236/3/3 233/3/3 235/3/3
f 239/3/3 238/3/3 237/3/3
f 240/3/3 238/3/3 239/3/3
f 241/3/4 242/3/4 243/3/4
f 243/3/4 242/3/4 244/3/4
f 245/3/4 246/3/4 247/3/4
f 247/3/4 246/3/4 248/3/4
f 248/3/4 246/3/4 249/3/4
f 250/3/4 251/3/4 252/3/4
f 252/3/4 251/3/4 253/3/4
f 253/3/4 251/3/4 254/3/4
f 255/3/4 256/3/4 257/3/4
f 257/3/4 256/3/4 258/3/4
f 259/2/4 260/2/4 261/2/4
f 261/2/4 260/2/4 262/2/4
f 263/4/4 264/4/4 265/4/4
f 265/4/4 264/4/4 266/4/4
f 267/1/4 268/1/4 269/1/4
f 269/1/4 268/1/4 270/1/4
f 269/3/4 270/3/4 271/3/4
f 271/3/4 270/3/4 272/3/4
f 271/1/4 272/1/4 273/1/4
f 273/1/4 272/1/4 274/1/4
f 273/3/4 274/3/4 277/3/4
f 277/3/4 274/3/4 278/3/4
f 275/2/4 276/2/4 280/2/4
f 280/2/4 276/2/4 281/2/4
f 281/2/4 276/2/4 282/2/4
f 276/6/4 277/6/4 283/6/4
f 282/2/4 276/2/4 283/2/4
f 283/6/4 277/6/4 284/6/4
f 279/6/4 280/6/4 285/6/4
f 285/6/4 280/6/4 288/6/4
f 288/6/4 280/6/4 289/6/4
f 286/4/4 287/4/4 291/4/4
f 291/4/4 287/4/4 292/4/4
f 292/4/4 287/4/4 293/4/4
f 288/4/4 289/4/4 294/4/4
f 290/4/4 291/4/4 295/4/4
f 291/4/4 292/4/4 295/4/4
f 295/4/4 292/4/4 296/4/4
f 294/4/4 289/4/4 297/4/4
f 297/4/4 289/4/4 298/4/4
f 298/4/4 299/4/4 300/4/4
f 300/4/4 299/4/4 301/4/4
f 302/1/4 303/1/4 304/1/4
f 304/1/4 303/1/4 305/1/4
f 304/3/4 305/3/4 306/3/4
f 306/3/4 305/3/4 307/3/4
f 306/1/4 307/1/4 308/1/4
f 308/1/4 307/1/4 309/1/4
f 308/3/4 309/3/4 312/3/4
f 312/3/4 309/3/4 313/3/4
f 310/3/4 311/3/4 318/3/4
f 318/3/4 311/3/4 319/3/4
f 314/6/4 315/6/4 320/6/4
f 315/2/4 316/2/4 320/2/4
f 316/6/4 317/6/4 321/6/4
f 320/2/4 316/2/4 321/2/4
f 314/6/4 320/6/4 322/6/4
f 320/6/4 321/6/4 322/6/4
f 321/6/4 317/6/4 323/6/4
f 322/6/4 321/6/4 323/6/4
f 318/1/4 319/1/4 324/1/4
f 324/1/4 319/1/4 325/1/4
f 322/4/4 323/4/4 326/4/4
f 326/4/4 323/4/4 327/4/4
f 324/3/4 325/3/4 328/3/4
f 328/3/4 325/3/4 329/3/4
f 330/1/4 331/1/4 332/1/4
f 332/1/4 331/1/4 333/1/4
f 332/3/4 333/3/4 334/3/4
f 334/3/4 333/3/4 335/3/4
f 334/1/4 335/1/4 336/1/4
f 336/1/4 335/1/4 337/1/4
f 336/3/4 337/3/4 338/3/4
f 338/3/4 337/3/4 339/3/4
f 345/3/5 344/3/5 343/3/5
f 349/3/5 346/3/5 345/3/5
f 349/1/5 347/1/5 346/1/5
f 350/3/5 348/3/5 347/3/5
f 350/1/5 347/1/5 349/1/5
f 351/3/5 349/3/5 345/3/5
f 351/3/5 350/3/5 349/3/5
f 352/3/5 348/3/5 350/3/5
f 352/3/5 350/3/5 351/3/5
f 353/3/5 345/3/5 343/3/5
f 353/3/5 351/3/5 345/3/5
f 354/1/5 352/1/5 351/1/5
f 354/3/5 351/3/5 353/3/5
f 355/3/5 348/3/5 352/3/5
f 355/1/5 352/1/5 354/1/5
f 356/3/5 348/3/5 355/3/5
f 357/1/5 341/1/5 340/1/5
f 358/3/5 342/3/5 341/3/5
f 358/1/5 341/1/5 357/1/5
f 359/1/5 343/1/5 342/1/5
f 359/3/5 342/3/5 358/3/5
f 360/3/5 353/3/5 343/3/5
f 360/1/5 343/1/5 359/1/5
f 361/3/5 353/3/5 360/3/5
f 366/6/5 363/6/5 362/6/5
f 367/4/5 364/4/5 363/4/5
f 367/6/5 363/6/5 366/6/5
f 368/4/5 364/4/5 367/4/5
f 370/2/5 366/2/5 365/2/5
f 371/2/5 366/2/5 370/2/5
f 372/4/5 369/4/5 368/4/5
f 373/4/5 369/4/5 372/4/5
f 378/2/5 375/2/5 374/2/5
f 379/2/5 375/2/5 378/2/5
f 381/4/5 377/4/5 376/4/5
f 382/4/5 377/4/5 381/4/5
f 383/6/5 380/6/5 379/6/5
f 384/4/5 381/4/5 380/4/5
f 384/6/5 380/6/5 383/6/5
f 385/4/5 381/4/5 384/4/5
f 391/3/5 387/3/5 386/3/5
f 392/3/5 391/3/5 390/3/5
f 393/3/5 387/3/5 391/3/5
f 393/3/5 391/3/5 392/3/5
f 396/3/5 395/3/5 394/3/5
f 397/3/5 395/3/5 396/3/5
f 399/3/5 398/3/5 397/3/5
f 400/3/5 398/3/5 399/3/5
f 401/4/5 389/4/5 388/4/5
f 402/4/5 389/4/5 401/4/5
f 403/3/6 404/3/6 407/3/6
f 407/3/6 404/3/6 408/3/6
f 404/1/6 405/1/6 409/1/6
f 408/3/6 404/3/6 409/3/6
f 409/1/6 405/1/6 410/1/6
f 405/3/6 406/3/6 411/3/6
f 410/1/6 405/1/6 411/1/6
f 411/3/6 406/3/6 412/3/6
f 407/3/6 408/3/6 413/3/6
f 413/3/6 408/3/6 414/3/6
f 412/3/6 406/3/6 415/3/6
f 415/3/6 406/3/6 416/3/6
f 417/3/6 418/3/6 421/3/6
f 421/3/6 418/3/6 422/3/6
f 419/3/6 420/3/6 426/3/6
f 421/3/6 422/3/6 427/3/6
f 422/3/6 423/3/6 427/3/6
f 424/1/6 425/1/6 428/1/6
f 427/3/6 423/3/6 428/3/6
f 423/1/6 424/1/6 428/1/6
f 425/3/6 426/3/6 429/3/6
f 428/1/6 425/1/6 429/1/6
f 426/3/6 420/3/6 430/3/6
f 429/3/6 426/3/6 430/3/6
f 431/1/6 432/1/6 436/1/6
f 432/3/6 433/3/6 437/3/6
f 436/1/6 432/1/6 437/1/6
f 433/1/6 434/1/6 438/1/6
f 437/3/6 433/3/6 438/3/6
f 434/3/6 435/3/6 439/3/6
f 438/1/6 434/1/6 439/1/6
f 439/3/6 435/3/6 440/3/6
f 441/1/6 442/1/6 446/1/6
f 442/3/6 443/3/6 447/3/6
f 446/1/6 442/1/6 447/1/6
f 443/1/6 444/1/6 448/1/6
f 447/3/6 443/3/6 448/3/6
f 444/3/6 445/3/6 449/3/6
f 448/1/6 444/1/6 449/1/6
f 449/3/6 445/3/6 450/3/6
f 451/7/6 452/7/6 453/7/6
f 453/7/6 452/7/6 454/7/6
f 455/7/6 456/7/6 457/7/6
f 457/7/6 456/7/6 458/7/6
f 459/6/6 460/6/6 464/6/6
f 460/4/6 461/4/6 465/4/6
f 464/6/6 460/6/6 465/6/6
f 465/4/6 461/4/6 466/4/6
f 466/4/6 461/4/6 467/4/6
f 462/4/6 463/4/6 469/4/6
f 464/2/6 465/2/6 470/2/6
f 470/2/6 465/2/6 471/2/6
f 469/4/6 463/4/6 472/4/6
f 472/4/6 463/4/6 473/4/6
f 470/8/6 471/8/6 474/8/6
f 471/2/6 465/2/6 475/2/6
f 474/8/6 471/8/6 475/8/6
f 474/2/6 475/2/6 476/2/6
f 475/2/6 465/2/6 477/2/6
f 476/2/6 475/2/6 477/2/6
f 476/8/6 477/8/6 480/8/6
f 477/2/6 465/2/6 481/2/6
f 480/8/6 477/8/6 481/8/6
f 478/4/6 479/4/6 482/4/6
f 482/4/6 479/4/6 483/4/6
f 480/2/6 481/2/6 484/2/6
f 481/2/6 465/2/6 485/2/6
f 484/2/6 481/2/6 485/2/6
f 467/4/6 468/4/6 486/4/6
f 466/4/6 467/4/6 486/4/6
f 486/4/6 468/4/6 487/4/6
f 487/4/6 468/4/6 488/4/6
f 484/6/6 485/6/6 489/6/6
f 486/4/6 487/4/6 490/4/6
f 489/6/6 485/6/6 490/6/6
f 485/4/6 486/4/6 490/4/6
f 490/4/6 487/4/6 491/4/6
f 492/1/6 493/1/6 497/1/6
f 493/3/6 494/3/6 498/3/6
f 497/1/6 493/1/6 498/1/6
f 494/1/6 495/1/6 499/1/6
f 498/3/6 494/3/6 499/3/6
f 495/3/6 496/3/6 500/3/6
f 499/1/6 495/1/6 500/1/6
f 500/3/6 496/3/6 501/3/6
f 501/6/6 502/6/6 507/6/6
f 507/6/6 502/6/6 508/6/6
f 503/1/6 504/1/6 509/1/6
f 504/3/6 505/3/6 510/3/6
f 509/1/6 504/1/6 510/1/6
f 505/1/6 506/1/6 511/1/6
f 510/3/6 505/3/6 511/3/6
f 506/3/6 507/3/6 512/3/6
f 511/1/6 506/1/6 512/1/6
f 512/3/6 507/3/6 513/3/6
f 514/1/6 515/1/6 521/1/6
f 515/3/6 516/3/6 522/3/6
f 521/1/6 515/1/6 522/1/6
f 516/1/6 517/1/6 523/1/6
f 522/3/6 516/3/6 523/3/6
f 517/3/6 518/3/6 524/3/6
f 523/1/6 517/1/6 524/1/6
f 524/3/6 518/3/6 525/3/6
f 519/4/6 520/4/6 526/4/6
f 526/4/6 520/4/6 527/4/6
f 528/4/6 529/4/6 530/4/6
f 530/4/6 529/4/6 531/4/6
