# MagicaVoxel @ Ephtracy

# material
mtllib chr_raver3.mtl
usemtl palette

# normals
vn -1 0 0
vn 1 0 0
vn 0 0 1
vn 0 0 -1
vn 0 -1 0
vn 0 1 0

# texcoords
vt 0.0175781 0.5
vt 0.0332031 0.5
vt 0.0605469 0.5
vt 0.537109 0.5
vt 0.591797 0.5
vt 0.958984 0.5
vt 0.994141 0.5

# verts
v -4 2 1
v -4 2 -0
v -4 3 1
v -4 3 -0
v -4 6 1
v -4 6 -0
v -4 7 1
v -4 7 -0
v -4 7 -1
v -4 8 2
v -4 8 1
v -4 8 -0
v -4 10 2
v -4 10 -1
v -3 1 2
v -3 1 -1
v -3 2 3
v -3 2 2
v -3 2 1
v -3 2 -0
v -3 2 -1
v -3 2 -2
v -3 3 3
v -3 3 1
v -3 3 -0
v -3 3 -2
v -3 6 3
v -3 6 2
v -3 6 1
v -3 6 -0
v -3 6 -1
v -3 6 -2
v -3 7 1
v -3 7 -0
v -3 7 -1
v -3 7 -2
v -3 8 2
v -3 8 1
v -3 10 1
v -3 10 -1
v -3 10 -2
v -3 11 1
v -3 11 -1
v -2 0 1
v -2 0 -0
v -2 1 1
v -2 1 -0
v -2 6 -1
v -2 6 -2
v -2 7 -1
v -2 7 -2
v -2 7 -3
v -2 10 2
v -2 10 1
v -2 10 -1
v -2 10 -2
v -2 10 -3
v -2 11 2
v -2 11 1
v -2 11 -1
v -2 11 -2
v -1 9 3
v -1 9 2
v -1 10 3
v -1 10 2
v 1 0 1
v 1 0 -0
v 1 1 2
v 1 1 1
v 1 1 -0
v 1 1 -1
v 1 2 2
v 1 2 -1
v -1 0 1
v -1 0 -0
v -1 1 2
v -1 1 1
v -1 1 -0
v -1 1 -1
v -1 2 2
v -1 2 -1
v 2 0 1
v 2 0 -0
v 2 1 1
v 2 1 -0
v 2 6 -1
v 2 6 -2
v 2 7 -1
v 2 7 -2
v 2 7 -3
v 2 10 -1
v 2 10 -2
v 2 10 -3
v 2 11 -1
v 2 11 -2
v 3 1 2
v 3 1 -1
v 3 2 3
v 3 2 2
v 3 2 1
v 3 2 -0
v 3 2 -1
v 3 2 -2
v 3 3 3
v 3 3 1
v 3 3 -0
v 3 3 -2
v 3 6 3
v 3 6 2
v 3 6 1
v 3 6 -0
v 3 6 -1
v 3 6 -2
v 3 7 1
v 3 7 -0
v 3 7 -1
v 3 7 -2
v 3 8 2
v 3 8 1
v 3 9 3
v 3 9 2
v 3 10 3
v 3 10 2
v 3 10 -1
v 3 10 -2
v 3 11 2
v 3 11 -1
v 4 2 1
v 4 2 -0
v 4 3 1
v 4 3 -0
v 4 6 1
v 4 6 -0
v 4 7 1
v 4 7 -0
v 4 7 -1
v 4 8 2
v 4 8 1
v 4 8 -0
v 4 10 2
v 4 10 -1
v -3 2 3
v -3 3 3
v -3 6 3
v -1 9 3
v -1 10 3
v 3 2 3
v 3 3 3
v 3 6 3
v 3 9 3
v 3 10 3
v -4 8 2
v -4 10 2
v -3 1 2
v -3 2 2
v -3 6 2
v -3 8 2
v -3 10 2
v -2 7 2
v -2 8 2
v -2 10 2
v -2 11 2
v -1 1 2
v -1 2 2
v -1 7 2
v -1 8 2
v -1 9 2
v -1 10 2
v 1 1 2
v 1 2 2
v 1 7 2
v 1 8 2
v 2 7 2
v 2 8 2
v 3 1 2
v 3 2 2
v 3 6 2
v 3 8 2
v 3 9 2
v 3 10 2
v 3 11 2
v 4 8 2
v 4 10 2
v -4 2 1
v -4 3 1
v -4 6 1
v -4 7 1
v -4 8 1
v -3 2 1
v -3 3 1
v -3 6 1
v -3 7 1
v -3 8 1
v -3 10 1
v -3 11 1
v -2 0 1
v -2 1 1
v -2 10 1
v -2 11 1
v -1 0 1
v -1 1 1
v 1 0 1
v 1 1 1
v 2 0 1
v 2 1 1
v 3 2 1
v 3 3 1
v 3 6 1
v 3 7 1
v 3 8 1
v 4 2 1
v 4 3 1
v 4 6 1
v 4 7 1
v 4 8 1
v -4 2 -0
v -4 3 -0
v -4 6 -0
v -3 2 -0
v -3 3 -0
v -3 6 -0
v -2 0 -0
v -2 1 -0
v -1 0 -0
v -1 1 -0
v 1 0 -0
v 1 1 -0
v 2 0 -0
v 2 1 -0
v 3 2 -0
v 3 3 -0
v 3 6 -0
v 4 2 -0
v 4 3 -0
v 4 6 -0
v -4 7 -1
v -4 10 -1
v -3 1 -1
v -3 2 -1
v -3 6 -1
v -3 7 -1
v -3 10 -1
v -3 11 -1
v -2 6 -1
v -2 7 -1
v -2 10 -1
v -2 11 -1
v -1 1 -1
v -1 2 -1
v 1 1 -1
v 1 2 -1
v 2 6 -1
v 2 7 -1
v 2 10 -1
v 2 11 -1
v 3 1 -1
v 3 2 -1
v 3 6 -1
v 3 7 -1
v 3 10 -1
v 3 11 -1
v 4 7 -1
v 4 10 -1
v -3 2 -2
v -3 3 -2
v -3 6 -2
v -3 7 -2
v -3 10 -2
v -2 6 -2
v -2 7 -2
v -2 10 -2
v -2 11 -2
v 2 6 -2
v 2 7 -2
v 2 10 -2
v 2 11 -2
v 3 2 -2
v 3 3 -2
v 3 6 -2
v 3 7 -2
v 3 10 -2
v -2 7 -3
v -2 10 -3
v 2 7 -3
v 2 10 -3
v -2 0 1
v -1 0 1
v 1 0 1
v 2 0 1
v -2 0 -0
v -1 0 -0
v 1 0 -0
v 2 0 -0
v -3 1 2
v -1 1 2
v 1 1 2
v 3 1 2
v -2 1 1
v -1 1 1
v 1 1 1
v 2 1 1
v -2 1 -0
v -1 1 -0
v 1 1 -0
v 2 1 -0
v -3 1 -1
v -1 1 -1
v 1 1 -1
v 3 1 -1
v -3 2 3
v 3 2 3
v -3 2 2
v -1 2 2
v 1 2 2
v 3 2 2
v -4 2 1
v -3 2 1
v 3 2 1
v 4 2 1
v -4 2 -0
v -3 2 -0
v 3 2 -0
v 4 2 -0
v -3 2 -1
v -1 2 -1
v 1 2 -1
v 3 2 -1
v -3 2 -2
v 3 2 -2
v -4 7 1
v -3 7 1
v 3 7 1
v 4 7 1
v -4 7 -0
v -3 7 -0
v 3 7 -0
v 4 7 -0
v -4 7 -1
v -3 7 -1
v -2 7 -1
v 2 7 -1
v 3 7 -1
v 4 7 -1
v -3 7 -2
v -2 7 -2
v 2 7 -2
v 3 7 -2
v -2 7 -3
v 2 7 -3
v -4 8 2
v -3 8 2
v 3 8 2
v 4 8 2
v -4 8 1
v -3 8 1
v 3 8 1
v 4 8 1
v -1 9 3
v 3 9 3
v -1 9 2
v 3 9 2
v -3 6 3
v 3 6 3
v -3 6 2
v 3 6 2
v -4 6 1
v -3 6 1
v 3 6 1
v 4 6 1
v -4 6 -0
v -3 6 -0
v 3 6 -0
v 4 6 -0
v -3 6 -1
v -2 6 -1
v 2 6 -1
v 3 6 -1
v -3 6 -2
v -2 6 -2
v 2 6 -2
v 3 6 -2
v -1 10 3
v 3 10 3
v -4 10 2
v -3 10 2
v -2 10 2
v -1 10 2
v 3 10 2
v 4 10 2
v -3 10 1
v -2 10 1
v -4 10 -1
v -3 10 -1
v -2 10 -1
v 2 10 -1
v 3 10 -1
v 4 10 -1
v -3 10 -2
v -2 10 -2
v 2 10 -2
v 3 10 -2
v -2 10 -3
v 2 10 -3
v -2 11 2
v 3 11 2
v -3 11 1
v -2 11 1
v -3 11 -1
v -2 11 -1
v 2 11 -1
v 3 11 -1
v -2 11 -2
v 2 11 -2

# faces
f 3/2/1 2/2/1 1/2/1
f 4/2/1 2/2/1 3/2/1
f 5/1/1 4/1/1 3/1/1
f 6/1/1 4/1/1 5/1/1
f 11/3/1 8/3/1 7/3/1
f 12/4/1 9/4/1 8/4/1
f 12/3/1 8/3/1 11/3/1
f 13/4/1 11/4/1 10/4/1
f 13/4/1 12/4/1 11/4/1
f 14/4/1 9/4/1 12/4/1
f 14/4/1 12/4/1 13/4/1
f 18/5/1 16/5/1 15/5/1
f 19/5/1 16/5/1 18/5/1
f 20/5/1 16/5/1 19/5/1
f 21/5/1 16/5/1 20/5/1
f 23/5/1 18/5/1 17/5/1
f 23/5/1 19/5/1 18/5/1
f 24/5/1 19/5/1 23/5/1
f 25/5/1 22/5/1 21/5/1
f 25/5/1 21/5/1 20/5/1
f 26/5/1 22/5/1 25/5/1
f 27/6/1 24/6/1 23/6/1
f 28/6/1 24/6/1 27/6/1
f 29/6/1 24/6/1 28/6/1
f 30/6/1 26/6/1 25/6/1
f 31/6/1 26/6/1 30/6/1
f 32/6/1 26/6/1 31/6/1
f 33/2/1 29/2/1 28/2/1
f 33/2/1 31/2/1 30/2/1
f 33/2/1 30/2/1 29/2/1
f 34/2/1 31/2/1 33/2/1
f 35/2/1 31/2/1 34/2/1
f 37/2/1 33/2/1 28/2/1
f 38/2/1 33/2/1 37/2/1
f 40/4/1 36/4/1 35/4/1
f 41/4/1 36/4/1 40/4/1
f 42/4/1 40/4/1 39/4/1
f 43/4/1 40/4/1 42/4/1
f 46/7/1 45/7/1 44/7/1
f 47/7/1 45/7/1 46/7/1
f 50/2/1 49/2/1 48/2/1
f 51/2/1 49/2/1 50/2/1
f 56/4/1 52/4/1 51/4/1
f 57/4/1 52/4/1 56/4/1
f 58/4/1 54/4/1 53/4/1
f 59/4/1 54/4/1 58/4/1
f 60/4/1 56/4/1 55/4/1
f 61/4/1 56/4/1 60/4/1
f 64/4/1 63/4/1 62/4/1
f 65/4/1 63/4/1 64/4/1
f 69/7/1 67/7/1 66/7/1
f 70/7/1 67/7/1 69/7/1
f 72/5/1 69/5/1 68/5/1
f 72/5/1 71/5/1 70/5/1
f 72/5/1 70/5/1 69/5/1
f 73/5/1 71/5/1 72/5/1
f 74/7/2 75/7/2 77/7/2
f 77/7/2 75/7/2 78/7/2
f 76/5/2 77/5/2 80/5/2
f 78/5/2 79/5/2 80/5/2
f 77/5/2 78/5/2 80/5/2
f 80/5/2 79/5/2 81/5/2
f 82/7/2 83/7/2 84/7/2
f 84/7/2 83/7/2 85/7/2
f 86/2/2 87/2/2 88/2/2
f 88/2/2 87/2/2 89/2/2
f 89/4/2 90/4/2 92/4/2
f 92/4/2 90/4/2 93/4/2
f 91/4/2 92/4/2 94/4/2
f 94/4/2 92/4/2 95/4/2
f 96/5/2 97/5/2 99/5/2
f 99/5/2 97/5/2 100/5/2
f 100/5/2 97/5/2 101/5/2
f 101/5/2 97/5/2 102/5/2
f 98/5/2 99/5/2 104/5/2
f 99/5/2 100/5/2 104/5/2
f 104/5/2 100/5/2 105/5/2
f 102/5/2 103/5/2 106/5/2
f 101/5/2 102/5/2 106/5/2
f 106/5/2 103/5/2 107/5/2
f 104/6/2 105/6/2 108/6/2
f 108/6/2 105/6/2 109/6/2
f 109/6/2 105/6/2 110/6/2
f 106/6/2 107/6/2 111/6/2
f 111/6/2 107/6/2 112/6/2
f 112/6/2 107/6/2 113/6/2
f 109/2/2 110/2/2 114/2/2
f 111/2/2 112/2/2 114/2/2
f 110/2/2 111/2/2 114/2/2
f 114/2/2 112/2/2 115/2/2
f 115/2/2 112/2/2 116/2/2
f 109/2/2 114/2/2 118/2/2
f 118/2/2 114/2/2 119/2/2
f 120/4/2 121/4/2 122/4/2
f 122/4/2 121/4/2 123/4/2
f 116/4/2 117/4/2 124/4/2
f 124/4/2 117/4/2 125/4/2
f 123/4/2 124/4/2 126/4/2
f 126/4/2 124/4/2 127/4/2
f 128/2/2 129/2/2 130/2/2
f 130/2/2 129/2/2 131/2/2
f 130/1/2 131/1/2 132/1/2
f 132/1/2 131/1/2 133/1/2
f 134/3/2 135/3/2 138/3/2
f 135/4/2 136/4/2 139/4/2
f 138/3/2 135/3/2 139/3/2
f 137/4/2 138/4/2 140/4/2
f 138/4/2 139/4/2 140/4/2
f 139/4/2 136/4/2 141/4/2
f 140/4/2 139/4/2 141/4/2
f 147/5/3 143/5/3 142/5/3
f 148/6/3 144/6/3 143/6/3
f 148/5/3 143/5/3 147/5/3
f 149/6/3 144/6/3 148/6/3
f 150/4/3 146/4/3 145/4/3
f 151/4/3 146/4/3 150/4/3
f 157/4/3 153/4/3 152/4/3
f 158/4/3 153/4/3 157/4/3
f 159/2/3 157/2/3 156/2/3
f 159/2/3 158/2/3 157/2/3
f 160/2/3 158/2/3 159/2/3
f 161/2/3 158/2/3 160/2/3
f 163/5/3 155/5/3 154/5/3
f 164/5/3 155/5/3 163/5/3
f 165/2/3 159/2/3 156/2/3
f 165/7/3 160/7/3 159/7/3
f 166/2/3 161/2/3 160/2/3
f 166/7/3 160/7/3 165/7/3
f 167/2/3 161/2/3 166/2/3
f 168/4/3 162/4/3 161/4/3
f 168/2/3 161/2/3 167/2/3
f 171/2/3 167/2/3 166/2/3
f 171/2/3 165/2/3 156/2/3
f 171/2/3 166/2/3 165/2/3
f 172/2/3 167/2/3 171/2/3
f 173/2/3 171/2/3 156/2/3
f 173/7/3 172/7/3 171/7/3
f 174/2/3 167/2/3 172/2/3
f 174/7/3 172/7/3 173/7/3
f 175/5/3 170/5/3 169/5/3
f 176/5/3 170/5/3 175/5/3
f 177/2/3 173/2/3 156/2/3
f 177/2/3 174/2/3 173/2/3
f 178/2/3 167/2/3 174/2/3
f 178/2/3 174/2/3 177/2/3
f 179/2/3 167/2/3 178/2/3
f 180/4/3 162/4/3 168/4/3
f 181/4/3 162/4/3 180/4/3
f 182/4/3 179/4/3 178/4/3
f 182/4/3 180/4/3 179/4/3
f 183/4/3 180/4/3 182/4/3
f 189/2/3 185/2/3 184/2/3
f 190/1/3 186/1/3 185/1/3
f 190/2/3 185/2/3 189/2/3
f 191/1/3 186/1/3 190/1/3
f 192/3/3 188/3/3 187/3/3
f 193/3/3 188/3/3 192/3/3
f 198/4/3 195/4/3 194/4/3
f 199/4/3 195/4/3 198/4/3
f 200/7/3 197/7/3 196/7/3
f 201/7/3 197/7/3 200/7/3
f 204/7/3 203/7/3 202/7/3
f 205/7/3 203/7/3 204/7/3
f 211/2/3 207/2/3 206/2/3
f 212/1/3 208/1/3 207/1/3
f 212/2/3 207/2/3 211/2/3
f 213/1/3 208/1/3 212/1/3
f 214/3/3 210/3/3 209/3/3
f 215/3/3 210/3/3 214/3/3
f 216/2/4 217/2/4 219/2/4
f 217/1/4 218/1/4 220/1/4
f 219/2/4 217/2/4 220/2/4
f 220/1/4 218/1/4 221/1/4
f 222/7/4 223/7/4 224/7/4
f 224/7/4 223/7/4 225/7/4
f 226/7/4 227/7/4 228/7/4
f 228/7/4 227/7/4 229/7/4
f 230/2/4 231/2/4 233/2/4
f 231/1/4 232/1/4 234/1/4
f 233/2/4 231/2/4 234/2/4
f 234/1/4 232/1/4 235/1/4
f 236/4/4 237/4/4 241/4/4
f 241/4/4 237/4/4 242/4/4
f 240/2/4 241/2/4 244/2/4
f 244/2/4 241/2/4 245/2/4
f 242/4/4 243/4/4 246/4/4
f 246/4/4 243/4/4 247/4/4
f 238/5/4 239/5/4 248/5/4
f 248/5/4 239/5/4 249/5/4
f 250/5/4 251/5/4 256/5/4
f 256/5/4 251/5/4 257/5/4
f 252/2/4 253/2/4 258/2/4
f 258/2/4 253/2/4 259/2/4
f 254/4/4 255/4/4 260/4/4
f 260/4/4 255/4/4 261/4/4
f 259/4/4 260/4/4 262/4/4
f 262/4/4 260/4/4 263/4/4
f 265/6/4 266/6/4 269/6/4
f 267/4/4 268/4/4 270/4/4
f 270/4/4 268/4/4 271/4/4
f 265/6/4 269/6/4 273/6/4
f 269/2/4 270/2/4 273/2/4
f 273/2/4 270/2/4 274/2/4
f 271/4/4 272/4/4 275/4/4
f 275/4/4 272/4/4 276/4/4
f 264/5/4 265/5/4 277/5/4
f 265/6/4 273/6/4 278/6/4
f 277/5/4 265/5/4 278/5/4
f 278/6/4 273/6/4 279/6/4
f 274/4/4 275/4/4 280/4/4
f 280/4/4 275/4/4 281/4/4
f 282/4/4 283/4/4 284/4/4
f 284/4/4 283/4/4 285/4/4
f 290/7/5 287/7/5 286/7/5
f 291/7/5 287/7/5 290/7/5
f 292/7/5 289/7/5 288/7/5
f 293/7/5 289/7/5 292/7/5
f 298/5/5 295/5/5 294/5/5
f 299/5/5 295/5/5 298/5/5
f 300/5/5 297/5/5 296/5/5
f 301/5/5 297/5/5 300/5/5
f 302/5/5 298/5/5 294/5/5
f 305/5/5 297/5/5 301/5/5
f 306/5/5 303/5/5 302/5/5
f 306/5/5 302/5/5 294/5/5
f 307/5/5 303/5/5 306/5/5
f 308/5/5 305/5/5 304/5/5
f 309/5/5 297/5/5 305/5/5
f 309/5/5 305/5/5 308/5/5
f 312/5/5 311/5/5 310/5/5
f 313/5/5 311/5/5 312/5/5
f 314/5/5 311/5/5 313/5/5
f 315/5/5 311/5/5 314/5/5
f 320/2/5 317/2/5 316/2/5
f 321/2/5 317/2/5 320/2/5
f 322/2/5 319/2/5 318/2/5
f 323/2/5 319/2/5 322/2/5
f 325/5/5 314/5/5 313/5/5
f 326/5/5 314/5/5 325/5/5
f 328/5/5 325/5/5 324/5/5
f 328/5/5 327/5/5 326/5/5
f 328/5/5 326/5/5 325/5/5
f 329/5/5 327/5/5 328/5/5
f 334/3/5 331/3/5 330/3/5
f 335/3/5 331/3/5 334/3/5
f 336/3/5 333/3/5 332/3/5
f 337/3/5 333/3/5 336/3/5
f 338/4/5 335/4/5 334/4/5
f 339/4/5 335/4/5 338/4/5
f 342/4/5 337/4/5 336/4/5
f 343/4/5 337/4/5 342/4/5
f 344/4/5 340/4/5 339/4/5
f 345/4/5 340/4/5 344/4/5
f 346/4/5 342/4/5 341/4/5
f 347/4/5 342/4/5 346/4/5
f 348/4/5 346/4/5 345/4/5
f 349/4/5 346/4/5 348/4/5
f 354/4/5 351/4/5 350/4/5
f 355/4/5 351/4/5 354/4/5
f 356/4/5 353/4/5 352/4/5
f 357/4/5 353/4/5 356/4/5
f 360/4/5 359/4/5 358/4/5
f 361/4/5 359/4/5 360/4/5
f 362/6/6 363/6/6 364/6/6
f 364/6/6 363/6/6 365/6/6
f 366/1/6 367/1/6 370/1/6
f 370/1/6 367/1/6 371/1/6
f 368/1/6 369/1/6 372/1/6
f 372/1/6 369/1/6 373/1/6
f 374/6/6 375/6/6 378/6/6
f 378/6/6 375/6/6 379/6/6
f 376/6/6 377/6/6 380/6/6
f 380/6/6 377/6/6 381/6/6
f 382/4/6 383/4/6 387/4/6
f 387/4/6 383/4/6 388/4/6
f 385/2/6 386/2/6 390/2/6
f 384/4/6 385/4/6 390/4/6
f 390/2/6 386/2/6 391/2/6
f 384/4/6 390/4/6 392/4/6
f 392/4/6 390/4/6 393/4/6
f 388/4/6 389/4/6 396/4/6
f 396/4/6 389/4/6 397/4/6
f 393/4/6 394/4/6 398/4/6
f 398/4/6 394/4/6 399/4/6
f 395/4/6 396/4/6 400/4/6
f 400/4/6 396/4/6 401/4/6
f 399/4/6 400/4/6 402/4/6
f 402/4/6 400/4/6 403/4/6
f 404/4/6 405/4/6 407/4/6
f 406/4/6 407/4/6 408/4/6
f 407/4/6 405/4/6 409/4/6
f 408/4/6 407/4/6 409/4/6
f 409/4/6 405/4/6 410/4/6
f 410/4/6 405/4/6 411/4/6
f 409/4/6 410/4/6 412/4/6
f 412/4/6 410/4/6 413/4/6
