# MagicaVoxel @ Ephtracy

# material
mtllib chr_sign2.mtl
usemtl palette

# normals
vn -1 0 0
vn 1 0 0
vn 0 0 1
vn 0 0 -1
vn 0 -1 0
vn 0 1 0

# texcoords
vt 0.0332031 0.5
vt 0.697266 0.5
vt 0.794922 0.5
vt 0.853516 0.5
vt 0.958984 0.5
vt 0.966797 0.5
vt 0.986328 0.5
vt 0.990234 0.5
vt 0.994141 0.5

# verts
v -4 5 3.5
v -4 5 2.5
v -4 5 -0.5
v -4 6 3.5
v -4 6 2.5
v -4 6 -0.5
v -4 7 2.5
v -4 7 1.5
v -4 7 0.5
v -4 8 2.5
v -4 8 1.5
v -4 8 0.5
v -4 8 -0.5
v -4 8 -1.5
v -4 9 -1.5
v -4 9 -2.5
v -4 10 0.5
v -4 10 -0.5
v -4 10 -2.5
v -4 11 1.5
v -4 11 -0.5
v -3 1 1.5
v -3 1 -1.5
v -3 2 2.5
v -3 2 1.5
v -3 2 -1.5
v -3 2 -2.5
v -3 3 3.5
v -3 3 2.5
v -3 3 -2.5
v -3 5 3.5
v -3 5 2.5
v -3 5 -0.5
v -3 6 3.5
v -3 6 2.5
v -3 6 1.5
v -3 6 -0.5
v -3 6 -1.5
v -3 6 -2.5
v -3 7 3.5
v -3 7 2.5
v -3 7 1.5
v -3 7 0.5
v -3 8 0.5
v -3 8 -0.5
v -3 8 -1.5
v -3 8 -2.5
v -3 9 2.5
v -3 9 1.5
v -3 9 -1.5
v -3 9 -2.5
v -3 10 2.5
v -3 10 1.5
v -3 10 -0.5
v -3 10 -2.5
v -3 11 0.5
v -3 11 -0.5
v -3 11 -2.5
v -3 12 0.5
v -3 12 -0.5
v -2 0 0.5
v -2 0 -0.5
v -2 1 0.5
v -2 1 -0.5
v -2 2 -2.5
v -2 2 -3.5
v -2 3 -2.5
v -2 6 -1.5
v -2 6 -2.5
v -2 6 -3.5
v -2 7 -2.5
v -2 7 -3.5
v -2 8 -1.5
v -2 8 -2.5
v -2 8 -3.5
v -2 10 -2.5
v -2 10 -3.5
v -2 11 1.5
v -2 11 0.5
v -2 11 -0.5
v -2 11 -2.5
v -2 12 1.5
v -2 12 0.5
v -2 12 -0.5
v -2 12 -2.5
v -1 7 -2.5
v -1 7 -3.5
v -1 8 -2.5
v -1 8 -3.5
v 1 0 0.5
v 1 0 -0.5
v 1 1 1.5
v 1 1 0.5
v 1 1 -0.5
v 1 1 -1.5
v 1 2 1.5
v 1 2 0.5
v 1 2 -0.5
v 1 2 -1.5
v 1 5 2.5
v 1 5 1.5
v 1 6 2.5
v 1 6 1.5
v 1 11 -1.5
v 1 11 -2.5
v 1 12 -1.5
v 1 12 -2.5
v 2 9 2.5
v 2 9 1.5
v 2 10 2.5
v 2 10 1.5
v 3 7 2.5
v 3 7 1.5
v 3 8 2.5
v 3 8 1.5
v -3 7 2.5
v -3 7 1.5
v -3 8 2.5
v -3 8 1.5
v -2 9 2.5
v -2 9 1.5
v -2 10 2.5
v -2 10 1.5
v -1 0 0.5
v -1 0 -0.5
v -1 1 1.5
v -1 1 0.5
v -1 1 -0.5
v -1 1 -1.5
v -1 2 1.5
v -1 2 -1.5
v -1 2 -2.5
v -1 2 -3.5
v -1 3 -2.5
v -1 5 2.5
v -1 5 1.5
v -1 6 2.5
v -1 6 1.5
v -1 6 -2.5
v -1 6 -3.5
v -1 7 -2.5
v -1 7 -3.5
v -1 11 -1.5
v -1 11 -2.5
v -1 12 -1.5
v -1 12 -2.5
v 1 7 -2.5
v 1 7 -3.5
v 1 8 -2.5
v 1 8 -3.5
v 2 0 0.5
v 2 0 -0.5
v 2 1 0.5
v 2 1 -0.5
v 2 6 -1.5
v 2 6 -2.5
v 2 8 -1.5
v 2 8 -2.5
v 2 8 -3.5
v 2 10 -2.5
v 2 10 -3.5
v 2 11 1.5
v 2 11 0.5
v 2 11 -0.5
v 2 11 -2.5
v 2 12 1.5
v 2 12 0.5
v 2 12 -0.5
v 2 12 -2.5
v 3 1 1.5
v 3 1 -1.5
v 3 2 2.5
v 3 2 1.5
v 3 2 -1.5
v 3 2 -2.5
v 3 3 3.5
v 3 3 2.5
v 3 3 -2.5
v 3 5 3.5
v 3 5 2.5
v 3 5 -0.5
v 3 6 3.5
v 3 6 2.5
v 3 6 1.5
v 3 6 -0.5
v 3 6 -1.5
v 3 6 -2.5
v 3 7 3.5
v 3 7 2.5
v 3 7 1.5
v 3 7 0.5
v 3 8 0.5
v 3 8 -0.5
v 3 8 -1.5
v 3 8 -2.5
v 3 9 2.5
v 3 9 1.5
v 3 9 -1.5
v 3 9 -2.5
v 3 10 2.5
v 3 10 1.5
v 3 10 -0.5
v 3 10 -2.5
v 3 11 0.5
v 3 11 -0.5
v 3 11 -2.5
v 3 12 0.5
v 3 12 -0.5
v 4 5 3.5
v 4 5 2.5
v 4 5 -0.5
v 4 6 3.5
v 4 6 2.5
v 4 6 -0.5
v 4 7 2.5
v 4 7 1.5
v 4 7 0.5
v 4 8 2.5
v 4 8 1.5
v 4 8 0.5
v 4 8 -0.5
v 4 8 -1.5
v 4 9 -1.5
v 4 9 -2.5
v 4 10 0.5
v 4 10 -0.5
v 4 10 -2.5
v 4 11 1.5
v 4 11 -0.5
v -4 5 3.5
v -4 6 3.5
v -3 3 3.5
v -3 5 3.5
v -3 6 3.5
v -3 7 3.5
v 3 3 3.5
v 3 5 3.5
v 3 6 3.5
v 3 7 3.5
v 4 5 3.5
v 4 6 3.5
v -4 7 2.5
v -4 8 2.5
v -3 2 2.5
v -3 3 2.5
v -3 7 2.5
v -3 8 2.5
v -3 9 2.5
v -3 10 2.5
v -2 9 2.5
v -2 10 2.5
v 2 9 2.5
v 2 10 2.5
v 3 2 2.5
v 3 3 2.5
v 3 7 2.5
v 3 8 2.5
v 3 9 2.5
v 3 10 2.5
v 4 7 2.5
v 4 8 2.5
v -4 8 1.5
v -4 11 1.5
v -3 1 1.5
v -3 2 1.5
v -3 6 1.5
v -3 7 1.5
v -3 8 1.5
v -3 9 1.5
v -3 10 1.5
v -2 7 1.5
v -2 8 1.5
v -2 9 1.5
v -2 10 1.5
v -2 11 1.5
v -2 12 1.5
v -1 1 1.5
v -1 2 1.5
v -1 5 1.5
v -1 6 1.5
v -1 7 1.5
v -1 8 1.5
v 1 1 1.5
v 1 2 1.5
v 1 5 1.5
v 1 6 1.5
v 1 7 1.5
v 1 8 1.5
v 2 7 1.5
v 2 8 1.5
v 2 9 1.5
v 2 10 1.5
v 2 11 1.5
v 2 12 1.5
v 3 1 1.5
v 3 2 1.5
v 3 6 1.5
v 3 7 1.5
v 3 8 1.5
v 3 9 1.5
v 3 10 1.5
v 4 8 1.5
v 4 11 1.5
v -3 11 0.5
v -3 12 0.5
v -2 0 0.5
v -2 1 0.5
v -2 11 0.5
v -2 12 0.5
v -1 0 0.5
v -1 1 0.5
v 1 0 0.5
v 1 1 0.5
v 2 0 0.5
v 2 1 0.5
v 2 11 0.5
v 2 12 0.5
v 3 11 0.5
v 3 12 0.5
v -3 6 2.5
v -3 7 2.5
v -1 5 2.5
v -1 6 2.5
v 1 5 2.5
v 1 6 2.5
v 3 6 2.5
v 3 7 2.5
v -4 7 0.5
v -4 8 0.5
v -3 7 0.5
v -3 8 0.5
v 3 7 0.5
v 3 8 0.5
v 4 7 0.5
v 4 8 0.5
v -4 5 -0.5
v -4 6 -0.5
v -4 10 -0.5
v -4 11 -0.5
v -3 5 -0.5
v -3 6 -0.5
v -3 10 -0.5
v -3 11 -0.5
v -3 12 -0.5
v -2 0 -0.5
v -2 1 -0.5
v -2 11 -0.5
v -2 12 -0.5
v -1 0 -0.5
v -1 1 -0.5
v 1 0 -0.5
v 1 1 -0.5
v 2 0 -0.5
v 2 1 -0.5
v 2 11 -0.5
v 2 12 -0.5
v 3 5 -0.5
v 3 6 -0.5
v 3 10 -0.5
v 3 11 -0.5
v 3 12 -0.5
v 4 5 -0.5
v 4 6 -0.5
v 4 10 -0.5
v 4 11 -0.5
v -4 8 -1.5
v -4 9 -1.5
v -3 1 -1.5
v -3 2 -1.5
v -3 6 -1.5
v -3 8 -1.5
v -3 9 -1.5
v -2 6 -1.5
v -2 8 -1.5
v -1 1 -1.5
v -1 2 -1.5
v -1 11 -1.5
v -1 12 -1.5
v 1 1 -1.5
v 1 2 -1.5
v 1 11 -1.5
v 1 12 -1.5
v 2 6 -1.5
v 2 8 -1.5
v 3 1 -1.5
v 3 2 -1.5
v 3 6 -1.5
v 3 8 -1.5
v 3 9 -1.5
v 4 8 -1.5
v 4 9 -1.5
v -4 9 -2.5
v -4 10 -2.5
v -3 2 -2.5
v -3 3 -2.5
v -3 6 -2.5
v -3 8 -2.5
v -3 9 -2.5
v -3 10 -2.5
v -3 11 -2.5
v -2 2 -2.5
v -2 3 -2.5
v -2 6 -2.5
v -2 7 -2.5
v -2 8 -2.5
v -2 10 -2.5
v -2 11 -2.5
v -2 12 -2.5
v -1 2 -2.5
v -1 3 -2.5
v -1 6 -2.5
v -1 7 -2.5
v -1 8 -2.5
v -1 11 -2.5
v -1 12 -2.5
v 1 7 -2.5
v 1 8 -2.5
v 1 11 -2.5
v 1 12 -2.5
v 2 6 -2.5
v 2 8 -2.5
v 2 10 -2.5
v 2 11 -2.5
v 2 12 -2.5
v 3 2 -2.5
v 3 3 -2.5
v 3 6 -2.5
v 3 8 -2.5
v 3 9 -2.5
v 3 10 -2.5
v 3 11 -2.5
v 4 9 -2.5
v 4 10 -2.5
v -2 2 -3.5
v -2 6 -3.5
v -2 7 -3.5
v -2 8 -3.5
v -2 10 -3.5
v -1 2 -3.5
v -1 6 -3.5
v -1 7 -3.5
v -1 8 -3.5
v 1 7 -3.5
v 1 8 -3.5
v 2 8 -3.5
v 2 10 -3.5
v -2 0 0.5
v -1 0 0.5
v 1 0 0.5
v 2 0 0.5
v -2 0 -0.5
v -1 0 -0.5
v 1 0 -0.5
v 2 0 -0.5
v -3 1 1.5
v -1 1 1.5
v 1 1 1.5
v 3 1 1.5
v -2 1 0.5
v -1 1 0.5
v 1 1 0.5
v 2 1 0.5
v -2 1 -0.5
v -1 1 -0.5
v 1 1 -0.5
v 2 1 -0.5
v -3 1 -1.5
v -1 1 -1.5
v 1 1 -1.5
v 3 1 -1.5
v -3 2 2.5
v 3 2 2.5
v -3 2 1.5
v -1 2 1.5
v 1 2 1.5
v 3 2 1.5
v 1 2 0.5
v 1 2 -0.5
v -3 2 -1.5
v -1 2 -1.5
v 1 2 -1.5
v 3 2 -1.5
v -3 2 -2.5
v -2 2 -2.5
v -1 2 -2.5
v 3 2 -2.5
v -2 2 -3.5
v -1 2 -3.5
v -3 3 3.5
v 3 3 3.5
v -3 3 2.5
v 3 3 2.5
v -4 5 3.5
v -3 5 3.5
v 3 5 3.5
v 4 5 3.5
v -4 5 2.5
v -3 5 2.5
v 3 5 2.5
v 4 5 2.5
v -4 5 -0.5
v -3 5 -0.5
v 3 5 -0.5
v 4 5 -0.5
v -4 7 2.5
v -3 7 2.5
v 3 7 2.5
v 4 7 2.5
v -4 7 1.5
v -3 7 1.5
v 3 7 1.5
v 4 7 1.5
v -4 7 0.5
v -3 7 0.5
v 3 7 0.5
v 4 7 0.5
v -1 7 -2.5
v 1 7 -2.5
v -1 7 -3.5
v 1 7 -3.5
v -4 8 0.5
v -3 8 0.5
v 3 8 0.5
v 4 8 0.5
v -4 8 -0.5
v -3 8 -0.5
v 3 8 -0.5
v 4 8 -0.5
v -4 8 -1.5
v -3 8 -1.5
v -2 8 -1.5
v 2 8 -1.5
v 3 8 -1.5
v 4 8 -1.5
v -3 8 -2.5
v -2 8 -2.5
v -1 8 -2.5
v 1 8 -2.5
v 2 8 -2.5
v 3 8 -2.5
v -2 8 -3.5
v -1 8 -3.5
v 1 8 -3.5
v 2 8 -3.5
v -3 9 2.5
v -2 9 2.5
v 2 9 2.5
v 3 9 2.5
v -3 9 1.5
v -2 9 1.5
v 2 9 1.5
v 3 9 1.5
v -4 9 -1.5
v -3 9 -1.5
v 3 9 -1.5
v 4 9 -1.5
v -4 9 -2.5
v -3 9 -2.5
v 3 9 -2.5
v 4 9 -2.5
v -1 5 2.5
v 1 5 2.5
v -1 5 1.5
v 1 5 1.5
v -4 6 3.5
v -3 6 3.5
v 3 6 3.5
v 4 6 3.5
v -4 6 2.5
v -3 6 2.5
v -1 6 2.5
v 1 6 2.5
v 3 6 2.5
v 4 6 2.5
v -3 6 1.5
v -1 6 1.5
v 1 6 1.5
v 3 6 1.5
v -4 6 -0.5
v -3 6 -0.5
v 3 6 -0.5
v 4 6 -0.5
v -3 6 -1.5
v -2 6 -1.5
v 2 6 -1.5
v 3 6 -1.5
v -3 6 -2.5
v -2 6 -2.5
v 2 6 -2.5
v 3 6 -2.5
v -3 7 3.5
v 3 7 3.5
v -3 7 2.5
v 3 7 2.5
v -2 7 -2.5
v -1 7 -2.5
v -2 7 -3.5
v -1 7 -3.5
v -4 8 2.5
v -3 8 2.5
v 3 8 2.5
v 4 8 2.5
v -4 8 1.5
v -3 8 1.5
v 3 8 1.5
v 4 8 1.5
v -3 10 2.5
v -2 10 2.5
v 2 10 2.5
v 3 10 2.5
v -3 10 1.5
v -2 10 1.5
v 2 10 1.5
v 3 10 1.5
v -4 10 -0.5
v -3 10 -0.5
v 3 10 -0.5
v 4 10 -0.5
v -4 10 -2.5
v -3 10 -2.5
v -2 10 -2.5
v 2 10 -2.5
v 3 10 -2.5
v 4 10 -2.5
v -2 10 -3.5
v 2 10 -3.5
v -4 11 1.5
v -2 11 1.5
v 2 11 1.5
v 4 11 1.5
v -3 11 0.5
v -2 11 0.5
v 2 11 0.5
v 3 11 0.5
v -4 11 -0.5
v -3 11 -0.5
v -2 11 -0.5
v 2 11 -0.5
v 3 11 -0.5
v 4 11 -0.5
v -1 11 -1.5
v 1 11 -1.5
v -3 11 -2.5
v -2 11 -2.5
v -1 11 -2.5
v 1 11 -2.5
v 2 11 -2.5
v 3 11 -2.5
v -2 12 1.5
v 2 12 1.5
v -3 12 0.5
v -2 12 0.5
v 2 12 0.5
v 3 12 0.5
v -3 12 -0.5
v -2 12 -0.5
v 2 12 -0.5
v 3 12 -0.5
v -1 12 -1.5
v 1 12 -1.5
v -2 12 -2.5
v -1 12 -2.5
v 1 12 -2.5
v 2 12 -2.5

# faces
f 4/1/1 2/1/1 1/1/1
f 5/8/1 3/8/1 2/8/1
f 5/1/1 2/1/1 4/1/1
f 6/8/1 3/8/1 5/8/1
f 10/2/1 8/2/1 7/2/1
f 11/4/1 9/4/1 8/4/1
f 11/2/1 8/2/1 10/2/1
f 12/4/1 9/4/1 11/4/1
f 15/2/1 14/2/1 13/2/1
f 17/4/1 13/4/1 12/4/1
f 17/2/1 12/2/1 11/2/1
f 18/2/1 16/2/1 15/2/1
f 18/4/1 13/4/1 17/4/1
f 18/2/1 15/2/1 13/2/1
f 19/2/1 16/2/1 18/2/1
f 20/2/1 17/2/1 11/2/1
f 20/2/1 18/2/1 17/2/1
f 21/2/1 18/2/1 20/2/1
f 25/9/1 23/9/1 22/9/1
f 26/9/1 23/9/1 25/9/1
f 29/9/1 25/9/1 24/9/1
f 29/9/1 27/9/1 26/9/1
f 29/9/1 26/9/1 25/9/1
f 30/9/1 27/9/1 29/9/1
f 31/5/1 29/5/1 28/5/1
f 32/8/1 30/8/1 29/8/1
f 32/5/1 29/5/1 31/5/1
f 33/8/1 30/8/1 32/8/1
f 37/8/1 30/8/1 33/8/1
f 38/8/1 30/8/1 37/8/1
f 39/8/1 30/8/1 38/8/1
f 40/5/1 35/5/1 34/5/1
f 41/5/1 35/5/1 40/5/1
f 42/1/1 37/1/1 36/1/1
f 42/1/1 38/1/1 37/1/1
f 43/1/1 38/1/1 42/1/1
f 44/1/1 38/1/1 43/1/1
f 45/1/1 38/1/1 44/1/1
f 46/1/1 38/1/1 45/1/1
f 50/2/1 47/2/1 46/2/1
f 51/2/1 47/2/1 50/2/1
f 52/2/1 49/2/1 48/2/1
f 53/2/1 49/2/1 52/2/1
f 57/2/1 55/2/1 54/2/1
f 58/2/1 55/2/1 57/2/1
f 59/2/1 57/2/1 56/2/1
f 60/2/1 57/2/1 59/2/1
f 63/8/1 62/8/1 61/8/1
f 64/8/1 62/8/1 63/8/1
f 67/7/1 66/7/1 65/7/1
f 69/7/1 66/7/1 67/7/1
f 70/7/1 66/7/1 69/7/1
f 71/1/1 69/1/1 68/1/1
f 71/6/1 70/6/1 69/6/1
f 72/6/1 70/6/1 71/6/1
f 73/1/1 71/1/1 68/1/1
f 74/1/1 71/1/1 73/1/1
f 76/2/1 75/2/1 74/2/1
f 77/2/1 75/2/1 76/2/1
f 82/2/1 79/2/1 78/2/1
f 83/2/1 79/2/1 82/2/1
f 84/2/1 81/2/1 80/2/1
f 85/2/1 81/2/1 84/2/1
f 88/2/1 87/2/1 86/2/1
f 89/2/1 87/2/1 88/2/1
f 93/8/1 91/8/1 90/8/1
f 94/8/1 91/8/1 93/8/1
f 96/9/1 93/9/1 92/9/1
f 97/8/1 94/8/1 93/8/1
f 97/9/1 93/9/1 96/9/1
f 98/9/1 95/9/1 94/9/1
f 98/8/1 94/8/1 97/8/1
f 99/9/1 95/9/1 98/9/1
f 102/8/1 101/8/1 100/8/1
f 103/8/1 101/8/1 102/8/1
f 106/2/1 105/2/1 104/2/1
f 107/2/1 105/2/1 106/2/1
f 110/2/1 109/2/1 108/2/1
f 111/2/1 109/2/1 110/2/1
f 114/2/1 113/2/1 112/2/1
f 115/2/1 113/2/1 114/2/1
f 116/2/2 117/2/2 118/2/2
f 118/2/2 117/2/2 119/2/2
f 120/2/2 121/2/2 122/2/2
f 122/2/2 121/2/2 123/2/2
f 124/8/2 125/8/2 127/8/2
f 127/8/2 125/8/2 128/8/2
f 126/9/2 127/9/2 130/9/2
f 128/9/2 129/9/2 130/9/2
f 127/9/2 128/9/2 130/9/2
f 130/9/2 129/9/2 131/9/2
f 132/7/2 133/7/2 134/7/2
f 135/8/2 136/8/2 137/8/2
f 137/8/2 136/8/2 138/8/2
f 134/7/2 133/7/2 139/7/2
f 139/7/2 133/7/2 140/7/2
f 139/6/2 140/6/2 141/6/2
f 141/6/2 140/6/2 142/6/2
f 143/2/2 144/2/2 145/2/2
f 145/2/2 144/2/2 146/2/2
f 147/2/2 148/2/2 149/2/2
f 149/2/2 148/2/2 150/2/2
f 151/8/2 152/8/2 153/8/2
f 153/8/2 152/8/2 154/8/2
f 155/1/2 156/1/2 157/1/2
f 157/1/2 156/1/2 158/1/2
f 158/2/2 159/2/2 160/2/2
f 160/2/2 159/2/2 161/2/2
f 162/2/2 163/2/2 166/2/2
f 166/2/2 163/2/2 167/2/2
f 164/2/2 165/2/2 168/2/2
f 168/2/2 165/2/2 169/2/2
f 170/9/2 171/9/2 173/9/2
f 173/9/2 171/9/2 174/9/2
f 172/9/2 173/9/2 177/9/2
f 174/9/2 175/9/2 177/9/2
f 173/9/2 174/9/2 177/9/2
f 177/9/2 175/9/2 178/9/2
f 176/5/2 177/5/2 179/5/2
f 177/8/2 178/8/2 180/8/2
f 179/5/2 177/5/2 180/5/2
f 180/8/2 178/8/2 181/8/2
f 181/8/2 178/8/2 185/8/2
f 185/8/2 178/8/2 186/8/2
f 186/8/2 178/8/2 187/8/2
f 182/5/2 183/5/2 188/5/2
f 188/5/2 183/5/2 189/5/2
f 184/1/2 185/1/2 190/1/2
f 185/1/2 186/1/2 190/1/2
f 190/1/2 186/1/2 191/1/2
f 191/1/2 186/1/2 192/1/2
f 192/1/2 186/1/2 193/1/2
f 193/1/2 186/1/2 194/1/2
f 194/2/2 195/2/2 198/2/2
f 198/2/2 195/2/2 199/2/2
f 196/2/2 197/2/2 200/2/2
f 200/2/2 197/2/2 201/2/2
f 202/2/2 203/2/2 205/2/2
f 205/2/2 203/2/2 206/2/2
f 204/2/2 205/2/2 207/2/2
f 207/2/2 205/2/2 208/2/2
f 209/1/2 210/1/2 212/1/2
f 210/8/2 211/8/2 213/8/2
f 212/1/2 210/1/2 213/1/2
f 213/8/2 211/8/2 214/8/2
f 215/2/2 216/2/2 218/2/2
f 216/4/2 217/4/2 219/4/2
f 218/2/2 216/2/2 219/2/2
f 219/4/2 217/4/2 220/4/2
f 221/2/2 222/2/2 223/2/2
f 220/4/2 221/4/2 225/4/2
f 219/2/2 220/2/2 225/2/2
f 223/2/2 224/2/2 226/2/2
f 225/4/2 221/4/2 226/4/2
f 221/2/2 223/2/2 226/2/2
f 226/2/2 224/2/2 227/2/2
f 219/2/2 225/2/2 228/2/2
f 225/2/2 226/2/2 228/2/2
f 228/2/2 226/2/2 229/2/2
f 233/1/3 231/1/3 230/1/3
f 234/1/3 231/1/3 233/1/3
f 236/5/3 233/5/3 232/5/3
f 236/5/3 235/5/3 234/5/3
f 236/5/3 234/5/3 233/5/3
f 237/5/3 235/5/3 236/5/3
f 238/5/3 235/5/3 237/5/3
f 239/5/3 235/5/3 238/5/3
f 240/1/3 238/1/3 237/1/3
f 241/1/3 238/1/3 240/1/3
f 246/2/3 243/2/3 242/2/3
f 247/2/3 243/2/3 246/2/3
f 250/2/3 249/2/3 248/2/3
f 251/2/3 249/2/3 250/2/3
f 254/9/3 245/9/3 244/9/3
f 255/9/3 245/9/3 254/9/3
f 258/2/3 253/2/3 252/2/3
f 259/2/3 253/2/3 258/2/3
f 260/2/3 257/2/3 256/2/3
f 261/2/3 257/2/3 260/2/3
f 268/2/3 263/2/3 262/2/3
f 269/2/3 263/2/3 268/2/3
f 270/2/3 263/2/3 269/2/3
f 271/1/3 267/1/3 266/1/3
f 271/1/3 268/1/3 267/1/3
f 271/1/3 269/1/3 268/1/3
f 272/1/3 269/1/3 271/1/3
f 273/1/3 269/1/3 272/1/3
f 274/2/3 263/2/3 270/2/3
f 275/2/3 263/2/3 274/2/3
f 277/9/3 265/9/3 264/9/3
f 278/9/3 265/9/3 277/9/3
f 280/1/3 271/1/3 266/1/3
f 281/9/3 272/9/3 271/9/3
f 281/1/3 271/1/3 280/1/3
f 282/1/3 273/1/3 272/1/3
f 282/9/3 272/9/3 281/9/3
f 282/1/3 274/1/3 273/1/3
f 285/1/3 281/1/3 280/1/3
f 285/1/3 280/1/3 279/1/3
f 285/1/3 282/1/3 281/1/3
f 286/1/3 282/1/3 285/1/3
f 287/1/3 282/1/3 286/1/3
f 288/1/3 274/1/3 282/1/3
f 288/1/3 282/1/3 287/1/3
f 289/1/3 287/1/3 286/1/3
f 289/9/3 288/9/3 287/9/3
f 290/1/3 274/1/3 288/1/3
f 290/9/3 288/9/3 289/9/3
f 291/1/3 274/1/3 290/1/3
f 292/2/3 276/2/3 275/2/3
f 292/1/3 274/1/3 291/1/3
f 292/2/3 275/2/3 274/2/3
f 293/2/3 276/2/3 292/2/3
f 294/2/3 276/2/3 293/2/3
f 295/9/3 284/9/3 283/9/3
f 296/9/3 284/9/3 295/9/3
f 297/1/3 291/1/3 290/1/3
f 297/1/3 289/1/3 286/1/3
f 297/1/3 290/1/3 289/1/3
f 298/1/3 291/1/3 297/1/3
f 299/1/3 291/1/3 298/1/3
f 300/1/3 291/1/3 299/1/3
f 301/2/3 293/2/3 292/2/3
f 302/2/3 301/2/3 300/2/3
f 302/2/3 300/2/3 299/2/3
f 303/2/3 293/2/3 301/2/3
f 303/2/3 301/2/3 302/2/3
f 308/2/3 305/2/3 304/2/3
f 309/2/3 305/2/3 308/2/3
f 310/8/3 307/8/3 306/8/3
f 311/8/3 307/8/3 310/8/3
f 314/8/3 313/8/3 312/8/3
f 315/8/3 313/8/3 314/8/3
f 318/2/3 317/2/3 316/2/3
f 319/2/3 317/2/3 318/2/3
f 320/5/4 321/5/4 323/5/4
f 322/5/4 323/5/4 324/5/4
f 323/5/4 321/5/4 325/5/4
f 324/5/4 323/5/4 325/5/4
f 325/5/4 321/5/4 326/5/4
f 326/5/4 321/5/4 327/5/4
f 328/4/4 329/4/4 330/4/4
f 330/4/4 329/4/4 331/4/4
f 332/4/4 333/4/4 334/4/4
f 334/4/4 333/4/4 335/4/4
f 336/8/4 337/8/4 340/8/4
f 340/8/4 337/8/4 341/8/4
f 338/2/4 339/2/4 342/2/4
f 342/2/4 339/2/4 343/2/4
f 343/2/4 344/2/4 347/2/4
f 347/2/4 344/2/4 348/2/4
f 345/8/4 346/8/4 349/8/4
f 349/8/4 346/8/4 350/8/4
f 351/8/4 352/8/4 353/8/4
f 353/8/4 352/8/4 354/8/4
f 355/2/4 356/2/4 360/2/4
f 360/2/4 356/2/4 361/2/4
f 357/8/4 358/8/4 362/8/4
f 362/8/4 358/8/4 363/8/4
f 359/2/4 360/2/4 364/2/4
f 364/2/4 360/2/4 365/2/4
f 366/2/4 367/2/4 371/2/4
f 371/2/4 367/2/4 372/2/4
f 370/1/4 371/1/4 373/1/4
f 373/1/4 371/1/4 374/1/4
f 368/9/4 369/9/4 375/9/4
f 375/9/4 369/9/4 376/9/4
f 377/2/4 378/2/4 381/2/4
f 381/2/4 378/2/4 382/2/4
f 379/9/4 380/9/4 385/9/4
f 385/9/4 380/9/4 386/9/4
f 383/1/4 384/1/4 387/1/4
f 387/1/4 384/1/4 388/1/4
f 388/2/4 389/2/4 390/2/4
f 390/2/4 389/2/4 391/2/4
f 392/2/4 393/2/4 398/2/4
f 398/2/4 393/2/4 399/2/4
f 394/9/4 395/9/4 401/9/4
f 395/8/4 396/8/4 402/8/4
f 401/9/4 395/9/4 402/9/4
f 402/8/4 396/8/4 403/8/4
f 399/2/4 400/2/4 405/2/4
f 397/2/4 398/2/4 405/2/4
f 398/2/4 399/2/4 405/2/4
f 405/2/4 400/2/4 406/2/4
f 406/2/4 400/2/4 407/2/4
f 404/1/4 405/1/4 412/1/4
f 412/1/4 405/1/4 413/1/4
f 407/2/4 408/2/4 414/2/4
f 406/2/4 407/2/4 414/2/4
f 414/2/4 408/2/4 415/2/4
f 411/1/4 412/1/4 416/1/4
f 406/2/4 414/2/4 418/2/4
f 416/1/4 417/1/4 420/1/4
f 410/8/4 411/8/4 420/8/4
f 411/1/4 416/1/4 420/1/4
f 420/1/4 417/1/4 421/1/4
f 418/2/4 419/2/4 422/2/4
f 406/2/4 418/2/4 422/2/4
f 422/2/4 419/2/4 423/2/4
f 423/2/4 419/2/4 424/2/4
f 409/9/4 410/9/4 425/9/4
f 410/8/4 420/8/4 426/8/4
f 425/9/4 410/9/4 426/9/4
f 426/8/4 420/8/4 427/8/4
f 422/2/4 423/2/4 428/2/4
f 421/2/4 422/2/4 428/2/4
f 428/2/4 423/2/4 429/2/4
f 429/2/4 423/2/4 430/2/4
f 430/2/4 423/2/4 431/2/4
f 429/2/4 430/2/4 432/2/4
f 432/2/4 430/2/4 433/2/4
f 434/7/4 435/7/4 439/7/4
f 435/6/4 436/6/4 440/6/4
f 439/7/4 435/7/4 440/7/4
f 440/6/4 436/6/4 441/6/4
f 437/2/4 438/2/4 442/2/4
f 441/2/4 442/2/4 443/2/4
f 442/2/4 438/2/4 444/2/4
f 443/2/4 442/2/4 444/2/4
f 444/2/4 438/2/4 445/2/4
f 445/2/4 438/2/4 446/2/4
f 451/8/5 448/8/5 447/8/5
f 452/8/5 448/8/5 451/8/5
f 453/8/5 450/8/5 449/8/5
f 454/8/5 450/8/5 453/8/5
f 459/9/5 456/9/5 455/9/5
f 460/9/5 456/9/5 459/9/5
f 461/9/5 458/9/5 457/9/5
f 462/9/5 458/9/5 461/9/5
f 463/9/5 459/9/5 455/9/5
f 466/9/5 458/9/5 462/9/5
f 467/9/5 464/9/5 463/9/5
f 467/9/5 463/9/5 455/9/5
f 468/9/5 464/9/5 467/9/5
f 469/9/5 466/9/5 465/9/5
f 470/9/5 458/9/5 466/9/5
f 470/9/5 466/9/5 469/9/5
f 473/9/5 472/9/5 471/9/5
f 474/9/5 472/9/5 473/9/5
f 475/9/5 472/9/5 474/9/5
f 476/9/5 472/9/5 475/9/5
f 477/9/5 475/9/5 474/9/5
f 478/9/5 477/9/5 474/9/5
f 480/9/5 478/9/5 474/9/5
f 481/9/5 478/9/5 480/9/5
f 483/9/5 481/9/5 480/9/5
f 483/9/5 482/9/5 481/9/5
f 483/9/5 480/9/5 479/9/5
f 484/9/5 482/9/5 483/9/5
f 485/9/5 482/9/5 484/9/5
f 486/9/5 482/9/5 485/9/5
f 487/7/5 485/7/5 484/7/5
f 488/7/5 485/7/5 487/7/5
f 491/5/5 490/5/5 489/5/5
f 492/5/5 490/5/5 491/5/5
f 497/1/5 494/1/5 493/1/5
f 498/1/5 494/1/5 497/1/5
f 499/1/5 496/1/5 495/1/5
f 500/1/5 496/1/5 499/1/5
f 501/8/5 498/8/5 497/8/5
f 502/8/5 498/8/5 501/8/5
f 503/8/5 500/8/5 499/8/5
f 504/8/5 500/8/5 503/8/5
f 509/2/5 506/2/5 505/2/5
f 510/2/5 506/2/5 509/2/5
f 511/2/5 508/2/5 507/2/5
f 512/2/5 508/2/5 511/2/5
f 513/4/5 510/4/5 509/4/5
f 514/4/5 510/4/5 513/4/5
f 515/4/5 512/4/5 511/4/5
f 516/4/5 512/4/5 515/4/5
f 519/2/5 518/2/5 517/2/5
f 520/2/5 518/2/5 519/2/5
f 525/4/5 522/4/5 521/4/5
f 526/4/5 522/4/5 525/4/5
f 527/4/5 524/4/5 523/4/5
f 528/4/5 524/4/5 527/4/5
f 529/2/5 526/2/5 525/2/5
f 530/2/5 526/2/5 529/2/5
f 533/2/5 528/2/5 527/2/5
f 534/2/5 528/2/5 533/2/5
f 535/2/5 531/2/5 530/2/5
f 536/2/5 531/2/5 535/2/5
f 539/2/5 533/2/5 532/2/5
f 540/2/5 533/2/5 539/2/5
f 541/2/5 537/2/5 536/2/5
f 542/2/5 537/2/5 541/2/5
f 543/2/5 539/2/5 538/2/5
f 544/2/5 539/2/5 543/2/5
f 549/2/5 546/2/5 545/2/5
f 550/2/5 546/2/5 549/2/5
f 551/2/5 548/2/5 547/2/5
f 552/2/5 548/2/5 551/2/5
f 557/2/5 554/2/5 553/2/5
f 558/2/5 554/2/5 557/2/5
f 559/2/5 556/2/5 555/2/5
f 560/2/5 556/2/5 559/2/5
f 561/8/6 562/8/6 563/8/6
f 563/8/6 562/8/6 564/8/6
f 565/1/6 566/1/6 569/1/6
f 569/1/6 566/1/6 570/1/6
f 567/1/6 568/1/6 573/1/6
f 573/1/6 568/1/6 574/1/6
f 570/8/6 571/8/6 575/8/6
f 569/8/6 570/8/6 575/8/6
f 575/8/6 571/8/6 576/8/6
f 573/8/6 574/8/6 577/8/6
f 572/8/6 573/8/6 577/8/6
f 577/8/6 574/8/6 578/8/6
f 569/8/6 575/8/6 579/8/6
f 579/8/6 575/8/6 580/8/6
f 578/8/6 574/8/6 581/8/6
f 581/8/6 574/8/6 582/8/6
f 583/8/6 584/8/6 587/8/6
f 587/8/6 584/8/6 588/8/6
f 585/8/6 586/8/6 589/8/6
f 589/8/6 586/8/6 590/8/6
f 591/5/6 592/5/6 593/5/6
f 593/5/6 592/5/6 594/5/6
f 595/6/6 596/6/6 597/6/6
f 597/6/6 596/6/6 598/6/6
f 599/2/6 600/2/6 603/2/6
f 603/2/6 600/2/6 604/2/6
f 601/2/6 602/2/6 605/2/6
f 605/2/6 602/2/6 606/2/6
f 607/2/6 608/2/6 611/2/6
f 611/2/6 608/2/6 612/2/6
f 609/2/6 610/2/6 613/2/6
f 613/2/6 610/2/6 614/2/6
f 615/2/6 616/2/6 619/2/6
f 619/2/6 616/2/6 620/2/6
f 617/2/6 618/2/6 623/2/6
f 623/2/6 618/2/6 624/2/6
f 621/2/6 622/2/6 625/2/6
f 625/2/6 622/2/6 626/2/6
f 627/2/6 628/2/6 631/2/6
f 631/2/6 628/2/6 632/2/6
f 629/2/6 630/2/6 633/2/6
f 633/2/6 630/2/6 634/2/6
f 627/2/6 631/2/6 635/2/6
f 635/2/6 631/2/6 636/2/6
f 634/2/6 630/2/6 639/2/6
f 639/2/6 630/2/6 640/2/6
f 636/2/6 637/2/6 643/2/6
f 643/2/6 637/2/6 644/2/6
f 641/2/6 642/2/6 645/2/6
f 645/2/6 642/2/6 646/2/6
f 638/2/6 639/2/6 647/2/6
f 647/2/6 639/2/6 648/2/6
f 649/2/6 650/2/6 652/2/6
f 652/2/6 650/2/6 653/2/6
f 651/2/6 652/2/6 655/2/6
f 653/2/6 654/2/6 655/2/6
f 652/2/6 653/2/6 655/2/6
f 655/2/6 654/2/6 656/2/6
f 656/2/6 654/2/6 657/2/6
f 657/2/6 654/2/6 658/2/6
f 656/2/6 657/2/6 659/2/6
f 659/2/6 657/2/6 660/2/6
f 656/2/6 659/2/6 661/2/6
f 661/2/6 659/2/6 662/2/6
f 660/2/6 657/2/6 663/2/6
f 663/2/6 657/2/6 664/2/6
