# MagicaVoxel @ Ephtracy

# material
mtllib chr_punk.mtl
usemtl palette

# normals
vn -1 0 0
vn 1 0 0
vn 0 0 1
vn 0 0 -1
vn 0 -1 0
vn 0 1 0

# texcoords
vt 0.0332031 0.5
vt 0.0917969 0.5
vt 0.767578 0.5
vt 0.849609 0.5
vt 0.955078 0.5
vt 0.986328 0.5
vt 0.990234 0.5
vt 0.994141 0.5

# verts
v -4 2 1
v -4 2 -0
v -4 3 1
v -4 3 -0
v -4 6 1
v -4 6 -0
v -4 7 1
v -4 7 -0
v -4 8 1
v -4 8 -0
v -3 1 2
v -3 1 -1
v -3 2 3
v -3 2 2
v -3 2 1
v -3 2 -0
v -3 2 -1
v -3 2 -2
v -3 3 3
v -3 3 1
v -3 3 -0
v -3 3 -2
v -3 6 3
v -3 6 2
v -3 6 1
v -3 6 -0
v -3 6 -1
v -3 6 -2
v -3 7 1
v -3 7 -0
v -3 8 1
v -3 8 -0
v -3 10 2
v -3 10 -1
v -2 0 1
v -2 0 -0
v -2 1 1
v -2 1 -0
v -2 6 -1
v -2 6 -2
v -2 9 -1
v -2 9 -2
v -2 10 -2
v -2 10 -3
v -2 11 3
v -2 11 -2
v -2 12 3
v -2 12 -3
v -1 8 -2
v -1 8 -3
v -1 9 3
v -1 9 2
v -1 9 -1
v -1 9 -2
v -1 10 2
v -1 10 -1
v -1 10 -2
v -1 10 -3
v -1 11 3
v -1 11 -2
v 1 0 1
v 1 0 -0
v 1 1 2
v 1 1 1
v 1 1 -0
v 1 1 -1
v 1 2 2
v 1 2 -1
v -1 0 1
v -1 0 -0
v -1 1 2
v -1 1 1
v -1 1 -0
v -1 1 -1
v -1 2 2
v -1 2 -1
v 1 8 -2
v 1 8 -3
v 1 9 3
v 1 9 2
v 1 9 -1
v 1 9 -2
v 1 10 2
v 1 10 -1
v 1 10 -2
v 1 12 3
v 1 12 -3
v 2 0 1
v 2 0 -0
v 2 1 1
v 2 1 -0
v 2 6 -1
v 2 6 -2
v 2 9 -1
v 2 9 -2
v 3 1 2
v 3 1 -1
v 3 2 3
v 3 2 2
v 3 2 1
v 3 2 -0
v 3 2 -1
v 3 2 -2
v 3 3 3
v 3 3 1
v 3 3 -0
v 3 3 -2
v 3 6 3
v 3 6 2
v 3 6 1
v 3 6 -0
v 3 6 -1
v 3 6 -2
v 3 7 1
v 3 7 -0
v 3 8 1
v 3 8 -0
v 3 10 2
v 3 10 -1
v 4 2 1
v 4 2 -0
v 4 3 1
v 4 3 -0
v 4 6 1
v 4 6 -0
v 4 7 1
v 4 7 -0
v 4 8 1
v 4 8 -0
v -3 2 3
v -3 3 3
v -3 6 3
v -2 3 3
v -2 6 3
v -2 11 3
v -2 12 3
v -1 3 3
v -1 6 3
v -1 9 3
v -1 11 3
v 1 3 3
v 1 6 3
v 1 9 3
v 1 12 3
v 2 3 3
v 2 6 3
v 3 2 3
v 3 3 3
v 3 6 3
v -3 1 2
v -3 2 2
v -3 6 2
v -3 10 2
v -2 6 2
v -2 7 2
v -2 8 2
v -1 1 2
v -1 2 2
v -1 6 2
v -1 7 2
v -1 8 2
v -1 9 2
v -1 10 2
v 1 1 2
v 1 2 2
v 1 6 2
v 1 7 2
v 1 8 2
v 1 9 2
v 1 10 2
v 2 6 2
v 2 7 2
v 2 8 2
v 3 1 2
v 3 2 2
v 3 6 2
v 3 10 2
v -4 2 1
v -4 3 1
v -4 6 1
v -4 7 1
v -4 8 1
v -3 2 1
v -3 3 1
v -3 6 1
v -3 7 1
v -3 8 1
v -2 0 1
v -2 1 1
v -1 0 1
v -1 1 1
v 1 0 1
v 1 1 1
v 2 0 1
v 2 1 1
v 3 2 1
v 3 3 1
v 3 6 1
v 3 7 1
v 3 8 1
v 4 2 1
v 4 3 1
v 4 6 1
v 4 7 1
v 4 8 1
v -2 10 -2
v -2 11 -2
v -1 10 -2
v -1 11 -2
v -4 2 -0
v -4 3 -0
v -4 6 -0
v -4 7 -0
v -4 8 -0
v -3 2 -0
v -3 3 -0
v -3 6 -0
v -3 7 -0
v -3 8 -0
v -2 0 -0
v -2 1 -0
v -1 0 -0
v -1 1 -0
v 1 0 -0
v 1 1 -0
v 2 0 -0
v 2 1 -0
v 3 2 -0
v 3 3 -0
v 3 6 -0
v 3 7 -0
v 3 8 -0
v 4 2 -0
v 4 3 -0
v 4 6 -0
v 4 7 -0
v 4 8 -0
v -3 1 -1
v -3 2 -1
v -3 6 -1
v -3 10 -1
v -2 6 -1
v -2 9 -1
v -1 1 -1
v -1 2 -1
v -1 9 -1
v -1 10 -1
v 1 1 -1
v 1 2 -1
v 1 9 -1
v 1 10 -1
v 2 6 -1
v 2 9 -1
v 3 1 -1
v 3 2 -1
v 3 6 -1
v 3 10 -1
v -3 2 -2
v -3 3 -2
v -3 6 -2
v -2 3 -2
v -2 6 -2
v -2 9 -2
v -1 3 -2
v -1 6 -2
v -1 8 -2
v -1 9 -2
v 1 3 -2
v 1 6 -2
v 1 8 -2
v 1 9 -2
v 2 3 -2
v 2 6 -2
v 2 9 -2
v 3 2 -2
v 3 3 -2
v 3 6 -2
v -2 10 -3
v -2 12 -3
v -1 8 -3
v -1 10 -3
v 1 8 -3
v 1 12 -3
v -2 0 1
v -1 0 1
v 1 0 1
v 2 0 1
v -2 0 -0
v -1 0 -0
v 1 0 -0
v 2 0 -0
v -3 1 2
v -1 1 2
v 1 1 2
v 3 1 2
v -2 1 1
v -1 1 1
v 1 1 1
v 2 1 1
v -2 1 -0
v -1 1 -0
v 1 1 -0
v 2 1 -0
v -3 1 -1
v -1 1 -1
v 1 1 -1
v 3 1 -1
v -3 2 3
v 3 2 3
v -3 2 2
v -1 2 2
v 1 2 2
v 3 2 2
v -4 2 1
v -3 2 1
v 3 2 1
v 4 2 1
v -4 2 -0
v -3 2 -0
v 3 2 -0
v 4 2 -0
v -3 2 -1
v -1 2 -1
v 1 2 -1
v 3 2 -1
v -3 2 -2
v 3 2 -2
v -4 7 1
v -3 7 1
v 3 7 1
v 4 7 1
v -4 7 -0
v -3 7 -0
v 3 7 -0
v 4 7 -0
v -1 8 -2
v 1 8 -2
v -1 8 -3
v 1 8 -3
v -1 9 3
v 1 9 3
v -1 9 2
v 1 9 2
v -2 10 -2
v -1 10 -2
v -2 10 -3
v -1 10 -3
v -2 11 3
v -1 11 3
v -2 11 -2
v -1 11 -2
v -3 6 3
v -2 6 3
v -1 6 3
v 1 6 3
v 2 6 3
v 3 6 3
v -3 6 2
v -2 6 2
v -1 6 2
v 1 6 2
v 2 6 2
v 3 6 2
v -4 6 1
v -3 6 1
v 3 6 1
v 4 6 1
v -4 6 -0
v -3 6 -0
v 3 6 -0
v 4 6 -0
v -3 6 -1
v -2 6 -1
v 2 6 -1
v 3 6 -1
v -3 6 -2
v -2 6 -2
v 2 6 -2
v 3 6 -2
v -4 8 1
v -3 8 1
v 3 8 1
v 4 8 1
v -4 8 -0
v -3 8 -0
v 3 8 -0
v 4 8 -0
v -2 9 -1
v -1 9 -1
v 1 9 -1
v 2 9 -1
v -2 9 -2
v -1 9 -2
v 1 9 -2
v 2 9 -2
v -3 10 2
v -1 10 2
v 1 10 2
v 3 10 2
v -3 10 -1
v -1 10 -1
v 1 10 -1
v 3 10 -1
v -2 12 3
v 1 12 3
v -2 12 -3
v 1 12 -3

# faces
f 3/1/1 2/1/1 1/1/1
f 4/1/1 2/1/1 3/1/1
f 5/6/1 4/6/1 3/6/1
f 6/6/1 4/6/1 5/6/1
f 9/1/1 8/1/1 7/1/1
f 10/1/1 8/1/1 9/1/1
f 14/3/1 12/3/1 11/3/1
f 15/3/1 12/3/1 14/3/1
f 16/3/1 12/3/1 15/3/1
f 17/3/1 12/3/1 16/3/1
f 19/3/1 14/3/1 13/3/1
f 19/3/1 15/3/1 14/3/1
f 20/3/1 15/3/1 19/3/1
f 21/3/1 18/3/1 17/3/1
f 21/3/1 17/3/1 16/3/1
f 22/3/1 18/3/1 21/3/1
f 23/5/1 20/5/1 19/5/1
f 24/5/1 20/5/1 23/5/1
f 25/5/1 20/5/1 24/5/1
f 26/5/1 22/5/1 21/5/1
f 27/5/1 22/5/1 26/5/1
f 28/5/1 22/5/1 27/5/1
f 29/1/1 25/1/1 24/1/1
f 29/1/1 27/1/1 26/1/1
f 29/1/1 26/1/1 25/1/1
f 30/1/1 27/1/1 29/1/1
f 31/1/1 29/1/1 24/1/1
f 32/1/1 27/1/1 30/1/1
f 33/1/1 31/1/1 24/1/1
f 33/1/1 32/1/1 31/1/1
f 34/1/1 27/1/1 32/1/1
f 34/1/1 32/1/1 33/1/1
f 37/7/1 36/7/1 35/7/1
f 38/7/1 36/7/1 37/7/1
f 41/1/1 40/1/1 39/1/1
f 42/1/1 40/1/1 41/1/1
f 46/2/1 44/2/1 43/2/1
f 47/2/1 46/2/1 45/2/1
f 48/2/1 44/2/1 46/2/1
f 48/2/1 46/2/1 47/2/1
f 54/2/1 50/2/1 49/2/1
f 55/2/1 52/2/1 51/2/1
f 56/2/1 54/2/1 53/2/1
f 57/2/1 50/2/1 54/2/1
f 57/2/1 54/2/1 56/2/1
f 58/2/1 50/2/1 57/2/1
f 59/2/1 55/2/1 51/2/1
f 59/2/1 56/2/1 55/2/1
f 59/2/1 57/2/1 56/2/1
f 60/2/1 57/2/1 59/2/1
f 64/7/1 62/7/1 61/7/1
f 65/7/1 62/7/1 64/7/1
f 67/3/1 64/3/1 63/3/1
f 67/3/1 66/3/1 65/3/1
f 67/3/1 65/3/1 64/3/1
f 68/3/1 66/3/1 67/3/1
f 69/7/2 70/7/2 72/7/2
f 72/7/2 70/7/2 73/7/2
f 71/3/2 72/3/2 75/3/2
f 73/3/2 74/3/2 75/3/2
f 72/3/2 73/3/2 75/3/2
f 75/3/2 74/3/2 76/3/2
f 77/2/2 78/2/2 82/2/2
f 79/2/2 80/2/2 83/2/2
f 81/1/2 82/1/2 84/1/2
f 82/2/2 78/2/2 85/2/2
f 84/1/2 82/1/2 85/1/2
f 79/2/2 83/2/2 86/2/2
f 83/2/2 84/2/2 86/2/2
f 84/2/2 85/2/2 86/2/2
f 85/2/2 78/2/2 87/2/2
f 86/2/2 85/2/2 87/2/2
f 88/7/2 89/7/2 90/7/2
f 90/7/2 89/7/2 91/7/2
f 92/1/2 93/1/2 94/1/2
f 94/1/2 93/1/2 95/1/2
f 96/3/2 97/3/2 99/3/2
f 99/3/2 97/3/2 100/3/2
f 100/3/2 97/3/2 101/3/2
f 101/3/2 97/3/2 102/3/2
f 98/3/2 99/3/2 104/3/2
f 99/3/2 100/3/2 104/3/2
f 104/3/2 100/3/2 105/3/2
f 102/3/2 103/3/2 106/3/2
f 101/3/2 102/3/2 106/3/2
f 106/3/2 103/3/2 107/3/2
f 104/5/2 105/5/2 108/5/2
f 108/5/2 105/5/2 109/5/2
f 109/5/2 105/5/2 110/5/2
f 106/5/2 107/5/2 111/5/2
f 111/5/2 107/5/2 112/5/2
f 112/5/2 107/5/2 113/5/2
f 109/1/2 110/1/2 114/1/2
f 111/1/2 112/1/2 114/1/2
f 110/1/2 111/1/2 114/1/2
f 114/1/2 112/1/2 115/1/2
f 109/1/2 114/1/2 116/1/2
f 115/1/2 112/1/2 117/1/2
f 109/1/2 116/1/2 118/1/2
f 116/1/2 117/1/2 118/1/2
f 117/1/2 112/1/2 119/1/2
f 118/1/2 117/1/2 119/1/2
f 120/1/2 121/1/2 122/1/2
f 122/1/2 121/1/2 123/1/2
f 122/6/2 123/6/2 124/6/2
f 124/6/2 123/6/2 125/6/2
f 126/1/2 127/1/2 128/1/2
f 128/1/2 127/1/2 129/1/2
f 133/3/3 131/3/3 130/3/3
f 133/5/3 132/5/3 131/5/3
f 134/5/3 132/5/3 133/5/3
f 137/3/3 133/3/3 130/3/3
f 137/4/3 134/4/3 133/4/3
f 138/4/3 134/4/3 137/4/3
f 140/2/3 136/2/3 135/2/3
f 141/5/3 138/5/3 137/5/3
f 141/3/3 137/3/3 130/3/3
f 142/5/3 138/5/3 141/5/3
f 143/2/3 140/2/3 139/2/3
f 144/2/3 136/2/3 140/2/3
f 144/2/3 140/2/3 143/2/3
f 145/4/3 142/4/3 141/4/3
f 145/3/3 141/3/3 130/3/3
f 146/4/3 142/4/3 145/4/3
f 147/3/3 145/3/3 130/3/3
f 148/5/3 146/5/3 145/5/3
f 148/3/3 145/3/3 147/3/3
f 149/5/3 146/5/3 148/5/3
f 154/1/3 153/1/3 152/1/3
f 155/1/3 153/1/3 154/1/3
f 156/1/3 153/1/3 155/1/3
f 157/3/3 151/3/3 150/3/3
f 158/3/3 151/3/3 157/3/3
f 159/1/3 155/1/3 154/1/3
f 160/8/3 156/8/3 155/8/3
f 160/1/3 155/1/3 159/1/3
f 161/1/3 153/1/3 156/1/3
f 161/8/3 156/8/3 160/8/3
f 162/1/3 153/1/3 161/1/3
f 163/1/3 153/1/3 162/1/3
f 166/1/3 160/1/3 159/1/3
f 166/1/3 161/1/3 160/1/3
f 166/1/3 162/1/3 161/1/3
f 167/1/3 162/1/3 166/1/3
f 168/1/3 162/1/3 167/1/3
f 169/1/3 162/1/3 168/1/3
f 171/1/3 167/1/3 166/1/3
f 172/8/3 168/8/3 167/8/3
f 172/1/3 167/1/3 171/1/3
f 173/1/3 170/1/3 169/1/3
f 173/8/3 168/8/3 172/8/3
f 173/1/3 169/1/3 168/1/3
f 174/3/3 165/3/3 164/3/3
f 175/3/3 165/3/3 174/3/3
f 176/1/3 172/1/3 171/1/3
f 176/1/3 173/1/3 172/1/3
f 177/1/3 170/1/3 173/1/3
f 177/1/3 173/1/3 176/1/3
f 183/1/3 179/1/3 178/1/3
f 184/6/3 180/6/3 179/6/3
f 184/1/3 179/1/3 183/1/3
f 185/6/3 180/6/3 184/6/3
f 186/1/3 182/1/3 181/1/3
f 187/1/3 182/1/3 186/1/3
f 190/7/3 189/7/3 188/7/3
f 191/7/3 189/7/3 190/7/3
f 194/7/3 193/7/3 192/7/3
f 195/7/3 193/7/3 194/7/3
f 201/1/3 197/1/3 196/1/3
f 202/6/3 198/6/3 197/6/3
f 202/1/3 197/1/3 201/1/3
f 203/6/3 198/6/3 202/6/3
f 204/1/3 200/1/3 199/1/3
f 205/1/3 200/1/3 204/1/3
f 208/2/3 207/2/3 206/2/3
f 209/2/3 207/2/3 208/2/3
f 210/1/4 211/1/4 215/1/4
f 211/6/4 212/6/4 216/6/4
f 215/1/4 211/1/4 216/1/4
f 216/6/4 212/6/4 217/6/4
f 213/1/4 214/1/4 218/1/4
f 218/1/4 214/1/4 219/1/4
f 220/7/4 221/7/4 222/7/4
f 222/7/4 221/7/4 223/7/4
f 224/7/4 225/7/4 226/7/4
f 226/7/4 225/7/4 227/7/4
f 228/1/4 229/1/4 233/1/4
f 229/6/4 230/6/4 234/6/4
f 233/1/4 229/1/4 234/1/4
f 234/6/4 230/6/4 235/6/4
f 231/1/4 232/1/4 236/1/4
f 236/1/4 232/1/4 237/1/4
f 240/1/4 241/1/4 242/1/4
f 242/1/4 241/1/4 243/1/4
f 238/3/4 239/3/4 244/3/4
f 244/3/4 239/3/4 245/3/4
f 243/1/4 241/1/4 246/1/4
f 246/1/4 241/1/4 247/1/4
f 250/1/4 251/1/4 253/1/4
f 248/3/4 249/3/4 254/3/4
f 254/3/4 249/3/4 255/3/4
f 252/1/4 253/1/4 256/1/4
f 253/1/4 251/1/4 257/1/4
f 256/1/4 253/1/4 257/1/4
f 258/3/4 259/3/4 261/3/4
f 259/5/4 260/5/4 261/5/4
f 261/5/4 260/5/4 262/5/4
f 258/3/4 261/3/4 264/3/4
f 261/4/4 262/4/4 264/4/4
f 262/1/4 263/1/4 265/1/4
f 264/4/4 262/4/4 265/4/4
f 265/1/4 263/1/4 266/1/4
f 266/1/4 263/1/4 267/1/4
f 258/3/4 264/3/4 268/3/4
f 264/5/4 265/5/4 268/5/4
f 265/1/4 266/1/4 269/1/4
f 268/5/4 265/5/4 269/5/4
f 269/1/4 266/1/4 270/1/4
f 258/3/4 268/3/4 272/3/4
f 268/4/4 269/4/4 272/4/4
f 270/1/4 271/1/4 273/1/4
f 272/4/4 269/4/4 273/4/4
f 269/1/4 270/1/4 273/1/4
f 273/1/4 271/1/4 274/1/4
f 258/3/4 272/3/4 275/3/4
f 272/5/4 273/5/4 276/5/4
f 275/3/4 272/3/4 276/3/4
f 276/5/4 273/5/4 277/5/4
f 278/2/4 279/2/4 281/2/4
f 280/2/4 281/2/4 282/2/4
f 281/2/4 279/2/4 283/2/4
f 282/2/4 281/2/4 283/2/4
f 288/7/5 285/7/5 284/7/5
f 289/7/5 285/7/5 288/7/5
f 290/7/5 287/7/5 286/7/5
f 291/7/5 287/7/5 290/7/5
f 296/3/5 293/3/5 292/3/5
f 297/3/5 293/3/5 296/3/5
f 298/3/5 295/3/5 294/3/5
f 299/3/5 295/3/5 298/3/5
f 300/3/5 296/3/5 292/3/5
f 303/3/5 295/3/5 299/3/5
f 304/3/5 301/3/5 300/3/5
f 304/3/5 300/3/5 292/3/5
f 305/3/5 301/3/5 304/3/5
f 306/3/5 303/3/5 302/3/5
f 307/3/5 295/3/5 303/3/5
f 307/3/5 303/3/5 306/3/5
f 310/3/5 309/3/5 308/3/5
f 311/3/5 309/3/5 310/3/5
f 312/3/5 309/3/5 311/3/5
f 313/3/5 309/3/5 312/3/5
f 318/1/5 315/1/5 314/1/5
f 319/1/5 315/1/5 318/1/5
f 320/1/5 317/1/5 316/1/5
f 321/1/5 317/1/5 320/1/5
f 323/3/5 312/3/5 311/3/5
f 324/3/5 312/3/5 323/3/5
f 326/3/5 323/3/5 322/3/5
f 326/3/5 325/3/5 324/3/5
f 326/3/5 324/3/5 323/3/5
f 327/3/5 325/3/5 326/3/5
f 332/1/5 329/1/5 328/1/5
f 333/1/5 329/1/5 332/1/5
f 334/1/5 331/1/5 330/1/5
f 335/1/5 331/1/5 334/1/5
f 338/2/5 337/2/5 336/2/5
f 339/2/5 337/2/5 338/2/5
f 342/2/5 341/2/5 340/2/5
f 343/2/5 341/2/5 342/2/5
f 346/2/5 345/2/5 344/2/5
f 347/2/5 345/2/5 346/2/5
f 350/2/5 349/2/5 348/2/5
f 351/2/5 349/2/5 350/2/5
f 352/5/6 353/5/6 358/5/6
f 353/4/6 354/4/6 359/4/6
f 358/5/6 353/5/6 359/5/6
f 354/5/6 355/5/6 360/5/6
f 359/4/6 354/4/6 360/4/6
f 355/4/6 356/4/6 361/4/6
f 360/5/6 355/5/6 361/5/6
f 356/5/6 357/5/6 362/5/6
f 361/4/6 356/4/6 362/4/6
f 362/5/6 357/5/6 363/5/6
f 364/6/6 365/6/6 368/6/6
f 368/6/6 365/6/6 369/6/6
f 366/6/6 367/6/6 370/6/6
f 370/6/6 367/6/6 371/6/6
f 372/5/6 373/5/6 376/5/6
f 376/5/6 373/5/6 377/5/6
f 374/5/6 375/5/6 378/5/6
f 378/5/6 375/5/6 379/5/6
f 380/1/6 381/1/6 384/1/6
f 384/1/6 381/1/6 385/1/6
f 382/1/6 383/1/6 386/1/6
f 386/1/6 383/1/6 387/1/6
f 388/1/6 389/1/6 392/1/6
f 392/1/6 389/1/6 393/1/6
f 390/1/6 391/1/6 394/1/6
f 394/1/6 391/1/6 395/1/6
f 396/1/6 397/1/6 400/1/6
f 400/1/6 397/1/6 401/1/6
f 398/1/6 399/1/6 402/1/6
f 402/1/6 399/1/6 403/1/6
f 404/2/6 405/2/6 406/2/6
f 406/2/6 405/2/6 407/2/6
