# MagicaVoxel @ Ephtracy

# material
mtllib chr_sports2.mtl
usemtl palette

# normals
vn -1 0 0
vn 1 0 0
vn 0 0 1
vn 0 0 -1
vn 0 -1 0
vn 0 1 0

# texcoords
vt 0.0332031 0.5
vt 0.369141 0.5
vt 0.744141 0.5
vt 0.958984 0.5
vt 0.990234 0.5

# verts
v -4 2 0.5
v -4 2 -0.5
v -4 3 0.5
v -4 3 -0.5
v -4 4 0.5
v -4 4 -0.5
v -4 5 0.5
v -4 5 -0.5
v -4 6 0.5
v -4 6 -0.5
v -4 7 0.5
v -4 7 -0.5
v -4 8 0.5
v -4 8 -0.5
v -3 1 2.5
v -3 1 -2.5
v -3 2 0.5
v -3 2 -0.5
v -3 3 0.5
v -3 3 -0.5
v -3 4 0.5
v -3 4 -0.5
v -3 5 2.5
v -3 5 0.5
v -3 5 -0.5
v -3 5 -2.5
v -3 6 2.5
v -3 6 1.5
v -3 6 0.5
v -3 6 -0.5
v -3 6 -1.5
v -3 6 -2.5
v -3 7 0.5
v -3 7 -0.5
v -3 8 0.5
v -3 8 -0.5
v -3 8 -1.5
v -3 8 -2.5
v -3 11 1.5
v -3 11 -2.5
v -2 0 0.5
v -2 0 -0.5
v -2 1 0.5
v -2 1 -0.5
v -2 6 -1.5
v -2 6 -2.5
v -2 8 -1.5
v -2 8 -2.5
v 1 0 0.5
v 1 0 -0.5
v 1 1 1.5
v 1 1 0.5
v 1 1 -0.5
v 1 1 -1.5
v 1 2 1.5
v 1 2 -1.5
v -1 0 0.5
v -1 0 -0.5
v -1 1 1.5
v -1 1 0.5
v -1 1 -0.5
v -1 1 -1.5
v -1 2 1.5
v -1 2 -1.5
v 2 0 0.5
v 2 0 -0.5
v 2 1 0.5
v 2 1 -0.5
v 2 6 -1.5
v 2 6 -2.5
v 2 8 -1.5
v 2 8 -2.5
v 3 1 2.5
v 3 1 -2.5
v 3 2 0.5
v 3 2 -0.5
v 3 3 0.5
v 3 3 -0.5
v 3 4 0.5
v 3 4 -0.5
v 3 5 2.5
v 3 5 0.5
v 3 5 -0.5
v 3 5 -2.5
v 3 6 2.5
v 3 6 1.5
v 3 6 0.5
v 3 6 -0.5
v 3 6 -1.5
v 3 6 -2.5
v 3 7 0.5
v 3 7 -0.5
v 3 8 0.5
v 3 8 -0.5
v 3 8 -1.5
v 3 8 -2.5
v 3 11 1.5
v 3 11 -2.5
v 4 2 0.5
v 4 2 -0.5
v 4 3 0.5
v 4 3 -0.5
v 4 4 0.5
v 4 4 -0.5
v 4 5 0.5
v 4 5 -0.5
v 4 6 0.5
v 4 6 -0.5
v 4 7 0.5
v 4 7 -0.5
v 4 8 0.5
v 4 8 -0.5
v -3 1 2.5
v -3 5 2.5
v -3 6 2.5
v -2 3 2.5
v -2 4 2.5
v -1 4 2.5
v -1 5 2.5
v 1 4 2.5
v 1 5 2.5
v 2 3 2.5
v 2 4 2.5
v 3 1 2.5
v 3 5 2.5
v 3 6 2.5
v -3 6 1.5
v -3 11 1.5
v -2 7 1.5
v -2 8 1.5
v -2 10 1.5
v -2 11 1.5
v -1 7 1.5
v -1 8 1.5
v 1 7 1.5
v 1 8 1.5
v 2 7 1.5
v 2 8 1.5
v 2 10 1.5
v 2 11 1.5
v 3 6 1.5
v 3 11 1.5
v -4 2 0.5
v -4 3 0.5
v -4 4 0.5
v -4 5 0.5
v -4 6 0.5
v -4 7 0.5
v -4 8 0.5
v -3 2 0.5
v -3 3 0.5
v -3 4 0.5
v -3 5 0.5
v -3 6 0.5
v -3 7 0.5
v -3 8 0.5
v -2 0 0.5
v -2 1 0.5
v -1 0 0.5
v -1 1 0.5
v 1 0 0.5
v 1 1 0.5
v 2 0 0.5
v 2 1 0.5
v 3 2 0.5
v 3 3 0.5
v 3 4 0.5
v 3 5 0.5
v 3 6 0.5
v 3 7 0.5
v 3 8 0.5
v 4 2 0.5
v 4 3 0.5
v 4 4 0.5
v 4 5 0.5
v 4 6 0.5
v 4 7 0.5
v 4 8 0.5
v -1 1 -1.5
v -1 2 -1.5
v 1 1 -1.5
v 1 2 -1.5
v -1 1 1.5
v -1 2 1.5
v 1 1 1.5
v 1 2 1.5
v -4 2 -0.5
v -4 3 -0.5
v -4 4 -0.5
v -4 5 -0.5
v -4 6 -0.5
v -4 7 -0.5
v -4 8 -0.5
v -3 2 -0.5
v -3 3 -0.5
v -3 4 -0.5
v -3 5 -0.5
v -3 6 -0.5
v -3 7 -0.5
v -3 8 -0.5
v -2 0 -0.5
v -2 1 -0.5
v -1 0 -0.5
v -1 1 -0.5
v 1 0 -0.5
v 1 1 -0.5
v 2 0 -0.5
v 2 1 -0.5
v 3 2 -0.5
v 3 3 -0.5
v 3 4 -0.5
v 3 5 -0.5
v 3 6 -0.5
v 3 7 -0.5
v 3 8 -0.5
v 4 2 -0.5
v 4 3 -0.5
v 4 4 -0.5
v 4 5 -0.5
v 4 6 -0.5
v 4 7 -0.5
v 4 8 -0.5
v -3 6 -1.5
v -3 8 -1.5
v -2 6 -1.5
v -2 8 -1.5
v 2 6 -1.5
v 2 8 -1.5
v 3 6 -1.5
v 3 8 -1.5
v -3 1 -2.5
v -3 5 -2.5
v -3 6 -2.5
v -3 8 -2.5
v -3 11 -2.5
v -2 6 -2.5
v -2 8 -2.5
v -2 11 -2.5
v -1 4 -2.5
v -1 5 -2.5
v 1 4 -2.5
v 1 5 -2.5
v 2 6 -2.5
v 2 8 -2.5
v 2 11 -2.5
v 3 1 -2.5
v 3 5 -2.5
v 3 6 -2.5
v 3 8 -2.5
v 3 11 -2.5
v -2 0 0.5
v -1 0 0.5
v 1 0 0.5
v 2 0 0.5
v -2 0 -0.5
v -1 0 -0.5
v 1 0 -0.5
v 2 0 -0.5
v -3 1 2.5
v 3 1 2.5
v -2 1 1.5
v -1 1 1.5
v 1 1 1.5
v 2 1 1.5
v -2 1 0.5
v -1 1 0.5
v 1 1 0.5
v 2 1 0.5
v -2 1 -0.5
v -1 1 -0.5
v 1 1 -0.5
v 2 1 -0.5
v -2 1 -1.5
v -1 1 -1.5
v 1 1 -1.5
v 2 1 -1.5
v -3 1 -2.5
v 3 1 -2.5
v -1 2 1.5
v 1 2 1.5
v -4 2 0.5
v -3 2 0.5
v 3 2 0.5
v 4 2 0.5
v -4 2 -0.5
v -3 2 -0.5
v 3 2 -0.5
v 4 2 -0.5
v -1 2 -1.5
v 1 2 -1.5
v -4 7 0.5
v -3 7 0.5
v 3 7 0.5
v 4 7 0.5
v -4 7 -0.5
v -3 7 -0.5
v 3 7 -0.5
v 4 7 -0.5
v -3 8 -1.5
v -2 8 -1.5
v 2 8 -1.5
v 3 8 -1.5
v -3 8 -2.5
v -2 8 -2.5
v 2 8 -2.5
v 3 8 -2.5
v -3 6 2.5
v 3 6 2.5
v -3 6 1.5
v 3 6 1.5
v -4 6 0.5
v -3 6 0.5
v 3 6 0.5
v 4 6 0.5
v -4 6 -0.5
v -3 6 -0.5
v 3 6 -0.5
v 4 6 -0.5
v -3 6 -1.5
v -2 6 -1.5
v 2 6 -1.5
v 3 6 -1.5
v -3 6 -2.5
v -2 6 -2.5
v 2 6 -2.5
v 3 6 -2.5
v -4 8 0.5
v -3 8 0.5
v 3 8 0.5
v 4 8 0.5
v -4 8 -0.5
v -3 8 -0.5
v 3 8 -0.5
v 4 8 -0.5
v -3 11 1.5
v -2 11 1.5
v 2 11 1.5
v 3 11 1.5
v -3 11 -2.5
v -2 11 -2.5
v 2 11 -2.5
v 3 11 -2.5

# faces
f 3/1/1 2/1/1 1/1/1
f 4/1/1 2/1/1 3/1/1
f 5/4/1 4/4/1 3/4/1
f 6/4/1 4/4/1 5/4/1
f 7/3/1 6/3/1 5/3/1
f 8/3/1 6/3/1 7/3/1
f 9/4/1 8/4/1 7/4/1
f 10/4/1 8/4/1 9/4/1
f 13/1/1 12/1/1 11/1/1
f 14/1/1 12/1/1 13/1/1
f 17/3/1 16/3/1 15/3/1
f 18/3/1 16/3/1 17/3/1
f 19/3/1 17/3/1 15/3/1
f 20/3/1 16/3/1 18/3/1
f 21/3/1 19/3/1 15/3/1
f 22/3/1 16/3/1 20/3/1
f 23/3/1 21/3/1 15/3/1
f 24/3/1 21/3/1 23/3/1
f 25/3/1 16/3/1 22/3/1
f 26/3/1 16/3/1 25/3/1
f 27/4/1 24/4/1 23/4/1
f 28/4/1 24/4/1 27/4/1
f 29/4/1 24/4/1 28/4/1
f 30/4/1 26/4/1 25/4/1
f 31/4/1 26/4/1 30/4/1
f 32/4/1 26/4/1 31/4/1
f 33/1/1 29/1/1 28/1/1
f 33/1/1 31/1/1 30/1/1
f 33/1/1 30/1/1 29/1/1
f 34/1/1 31/1/1 33/1/1
f 35/1/1 33/1/1 28/1/1
f 36/1/1 31/1/1 34/1/1
f 37/1/1 31/1/1 36/1/1
f 39/1/1 35/1/1 28/1/1
f 39/1/1 38/1/1 37/1/1
f 39/1/1 37/1/1 36/1/1
f 39/1/1 36/1/1 35/1/1
f 40/1/1 38/1/1 39/1/1
f 43/5/1 42/5/1 41/5/1
f 44/5/1 42/5/1 43/5/1
f 47/1/1 46/1/1 45/1/1
f 48/1/1 46/1/1 47/1/1
f 52/5/1 50/5/1 49/5/1
f 53/5/1 50/5/1 52/5/1
f 55/5/1 52/5/1 51/5/1
f 55/5/1 54/5/1 53/5/1
f 55/5/1 53/5/1 52/5/1
f 56/5/1 54/5/1 55/5/1
f 57/5/2 58/5/2 60/5/2
f 60/5/2 58/5/2 61/5/2
f 59/5/2 60/5/2 63/5/2
f 61/5/2 62/5/2 63/5/2
f 60/5/2 61/5/2 63/5/2
f 63/5/2 62/5/2 64/5/2
f 65/5/2 66/5/2 67/5/2
f 67/5/2 66/5/2 68/5/2
f 69/1/2 70/1/2 71/1/2
f 71/1/2 70/1/2 72/1/2
f 73/3/2 74/3/2 75/3/2
f 75/3/2 74/3/2 76/3/2
f 73/3/2 75/3/2 77/3/2
f 76/3/2 74/3/2 78/3/2
f 73/3/2 77/3/2 79/3/2
f 78/3/2 74/3/2 80/3/2
f 73/3/2 79/3/2 81/3/2
f 81/3/2 79/3/2 82/3/2
f 80/3/2 74/3/2 83/3/2
f 83/3/2 74/3/2 84/3/2
f 81/4/2 82/4/2 85/4/2
f 85/4/2 82/4/2 86/4/2
f 86/4/2 82/4/2 87/4/2
f 83/4/2 84/4/2 88/4/2
f 88/4/2 84/4/2 89/4/2
f 89/4/2 84/4/2 90/4/2
f 86/1/2 87/1/2 91/1/2
f 88/1/2 89/1/2 91/1/2
f 87/1/2 88/1/2 91/1/2
f 91/1/2 89/1/2 92/1/2
f 86/1/2 91/1/2 93/1/2
f 92/1/2 89/1/2 94/1/2
f 94/1/2 89/1/2 95/1/2
f 86/1/2 93/1/2 97/1/2
f 95/1/2 96/1/2 97/1/2
f 94/1/2 95/1/2 97/1/2
f 93/1/2 94/1/2 97/1/2
f 97/1/2 96/1/2 98/1/2
f 99/1/2 100/1/2 101/1/2
f 101/1/2 100/1/2 102/1/2
f 101/4/2 102/4/2 103/4/2
f 103/4/2 102/4/2 104/4/2
f 103/3/2 104/3/2 105/3/2
f 105/3/2 104/3/2 106/3/2
f 105/4/2 106/4/2 107/4/2
f 107/4/2 106/4/2 108/4/2
f 109/1/2 110/1/2 111/1/2
f 111/1/2 110/1/2 112/1/2
f 116/3/3 114/3/3 113/3/3
f 117/3/3 114/3/3 116/3/3
f 118/4/3 117/4/3 116/4/3
f 118/3/3 114/3/3 117/3/3
f 119/4/3 115/4/3 114/4/3
f 119/3/3 114/3/3 118/3/3
f 120/4/3 118/4/3 116/4/3
f 120/4/3 119/4/3 118/4/3
f 121/4/3 115/4/3 119/4/3
f 121/4/3 119/4/3 120/4/3
f 122/4/3 120/4/3 116/4/3
f 122/3/3 116/3/3 113/3/3
f 123/3/3 121/3/3 120/3/3
f 123/4/3 120/4/3 122/4/3
f 124/3/3 122/3/3 113/3/3
f 124/3/3 123/3/3 122/3/3
f 125/4/3 115/4/3 121/4/3
f 125/3/3 123/3/3 124/3/3
f 125/3/3 121/3/3 123/3/3
f 126/4/3 115/4/3 125/4/3
f 129/1/3 128/1/3 127/1/3
f 130/1/3 128/1/3 129/1/3
f 131/1/3 128/1/3 130/1/3
f 132/1/3 128/1/3 131/1/3
f 133/1/3 129/1/3 127/1/3
f 133/5/3 130/5/3 129/5/3
f 134/1/3 131/1/3 130/1/3
f 134/5/3 130/5/3 133/5/3
f 135/1/3 133/1/3 127/1/3
f 135/1/3 134/1/3 133/1/3
f 136/1/3 131/1/3 134/1/3
f 136/1/3 134/1/3 135/1/3
f 137/1/3 135/1/3 127/1/3
f 137/5/3 136/5/3 135/5/3
f 138/1/3 131/1/3 136/1/3
f 138/5/3 136/5/3 137/5/3
f 139/2/3 132/2/3 131/2/3
f 139/1/3 131/1/3 138/1/3
f 140/2/3 132/2/3 139/2/3
f 141/1/3 138/1/3 137/1/3
f 141/1/3 137/1/3 127/1/3
f 141/1/3 140/1/3 139/1/3
f 141/1/3 139/1/3 138/1/3
f 142/1/3 140/1/3 141/1/3
f 150/1/3 144/1/3 143/1/3
f 151/4/3 145/4/3 144/4/3
f 151/1/3 144/1/3 150/1/3
f 152/3/3 146/3/3 145/3/3
f 152/4/3 145/4/3 151/4/3
f 153/4/3 147/4/3 146/4/3
f 153/3/3 146/3/3 152/3/3
f 154/4/3 147/4/3 153/4/3
f 155/1/3 149/1/3 148/1/3
f 156/1/3 149/1/3 155/1/3
f 159/5/3 158/5/3 157/5/3
f 160/5/3 158/5/3 159/5/3
f 163/5/3 162/5/3 161/5/3
f 164/5/3 162/5/3 163/5/3
f 172/1/3 166/1/3 165/1/3
f 173/4/3 167/4/3 166/4/3
f 173/1/3 166/1/3 172/1/3
f 174/3/3 168/3/3 167/3/3
f 174/4/3 167/4/3 173/4/3
f 175/4/3 169/4/3 168/4/3
f 175/3/3 168/3/3 174/3/3
f 176/4/3 169/4/3 175/4/3
f 177/1/3 171/1/3 170/1/3
f 178/1/3 171/1/3 177/1/3
f 181/3/3 180/3/3 179/3/3
f 182/3/3 180/3/3 181/3/3
f 183/3/4 184/3/4 185/3/4
f 185/3/4 184/3/4 186/3/4
f 187/1/4 188/1/4 194/1/4
f 188/4/4 189/4/4 195/4/4
f 194/1/4 188/1/4 195/1/4
f 189/3/4 190/3/4 196/3/4
f 195/4/4 189/4/4 196/4/4
f 190/4/4 191/4/4 197/4/4
f 196/3/4 190/3/4 197/3/4
f 197/4/4 191/4/4 198/4/4
f 192/1/4 193/1/4 199/1/4
f 199/1/4 193/1/4 200/1/4
f 201/5/4 202/5/4 203/5/4
f 203/5/4 202/5/4 204/5/4
f 205/5/4 206/5/4 207/5/4
f 207/5/4 206/5/4 208/5/4
f 209/1/4 210/1/4 216/1/4
f 210/4/4 211/4/4 217/4/4
f 216/1/4 210/1/4 217/1/4
f 211/3/4 212/3/4 218/3/4
f 217/4/4 211/4/4 218/4/4
f 212/4/4 213/4/4 219/4/4
f 218/3/4 212/3/4 219/3/4
f 219/4/4 213/4/4 220/4/4
f 214/1/4 215/1/4 221/1/4
f 221/1/4 215/1/4 222/1/4
f 223/1/4 224/1/4 225/1/4
f 225/1/4 224/1/4 226/1/4
f 227/1/4 228/1/4 229/1/4
f 229/1/4 228/1/4 230/1/4
f 232/4/4 233/4/4 236/4/4
f 234/1/4 235/1/4 237/1/4
f 237/1/4 235/1/4 238/1/4
f 231/3/4 232/3/4 239/3/4
f 232/4/4 236/4/4 240/4/4
f 239/3/4 232/3/4 240/3/4
f 231/3/4 239/3/4 241/3/4
f 239/4/4 240/4/4 241/4/4
f 240/4/4 236/4/4 242/4/4
f 241/4/4 240/4/4 242/4/4
f 236/1/4 237/1/4 243/1/4
f 242/4/4 236/4/4 243/4/4
f 237/2/4 238/2/4 244/2/4
f 243/1/4 237/1/4 244/1/4
f 244/2/4 238/2/4 245/2/4
f 231/3/4 241/3/4 246/3/4
f 241/3/4 242/3/4 246/3/4
f 242/4/4 243/4/4 247/4/4
f 246/3/4 242/3/4 247/3/4
f 247/4/4 243/4/4 248/4/4
f 244/1/4 245/1/4 249/1/4
f 249/1/4 245/1/4 250/1/4
f 255/5/5 252/5/5 251/5/5
f 256/5/5 252/5/5 255/5/5
f 257/5/5 254/5/5 253/5/5
f 258/5/5 254/5/5 257/5/5
f 261/3/5 260/3/5 259/3/5
f 262/3/5 260/3/5 261/3/5
f 263/3/5 260/3/5 262/3/5
f 264/3/5 260/3/5 263/3/5
f 265/3/5 261/3/5 259/3/5
f 265/5/5 262/5/5 261/5/5
f 266/5/5 262/5/5 265/5/5
f 267/5/5 264/5/5 263/5/5
f 268/3/5 260/3/5 264/3/5
f 268/5/5 264/5/5 267/5/5
f 269/3/5 265/3/5 259/3/5
f 272/3/5 260/3/5 268/3/5
f 273/5/5 270/5/5 269/5/5
f 273/3/5 269/3/5 259/3/5
f 274/5/5 270/5/5 273/5/5
f 275/5/5 272/5/5 271/5/5
f 276/3/5 260/3/5 272/3/5
f 276/5/5 272/5/5 275/5/5
f 277/3/5 274/3/5 273/3/5
f 277/3/5 275/3/5 274/3/5
f 277/3/5 276/3/5 275/3/5
f 277/3/5 273/3/5 259/3/5
f 278/3/5 260/3/5 276/3/5
f 278/3/5 276/3/5 277/3/5
f 285/1/5 282/1/5 281/1/5
f 286/1/5 282/1/5 285/1/5
f 287/1/5 284/1/5 283/1/5
f 288/1/5 284/1/5 287/1/5
f 289/5/5 280/5/5 279/5/5
f 290/5/5 280/5/5 289/5/5
f 295/1/5 292/1/5 291/1/5
f 296/1/5 292/1/5 295/1/5
f 297/1/5 294/1/5 293/1/5
f 298/1/5 294/1/5 297/1/5
f 303/1/5 300/1/5 299/1/5
f 304/1/5 300/1/5 303/1/5
f 305/1/5 302/1/5 301/1/5
f 306/1/5 302/1/5 305/1/5
f 307/4/6 308/4/6 309/4/6
f 309/4/6 308/4/6 310/4/6
f 311/4/6 312/4/6 315/4/6
f 315/4/6 312/4/6 316/4/6
f 313/4/6 314/4/6 317/4/6
f 317/4/6 314/4/6 318/4/6
f 319/4/6 320/4/6 323/4/6
f 323/4/6 320/4/6 324/4/6
f 321/4/6 322/4/6 325/4/6
f 325/4/6 322/4/6 326/4/6
f 327/1/6 328/1/6 331/1/6
f 331/1/6 328/1/6 332/1/6
f 329/1/6 330/1/6 333/1/6
f 333/1/6 330/1/6 334/1/6
f 335/1/6 336/1/6 339/1/6
f 336/2/6 337/2/6 340/2/6
f 339/1/6 336/1/6 340/1/6
f 337/1/6 338/1/6 341/1/6
f 340/2/6 337/2/6 341/2/6
f 341/1/6 338/1/6 342/1/6
