# MagicaVoxel @ Ephtracy

# material
mtllib chr_costume2.mtl
usemtl palette

# normals
vn -1 0 0
vn 1 0 0
vn 0 0 1
vn 0 0 -1
vn 0 -1 0
vn 0 1 0

# texcoords
vt 0.0292969 0.5
vt 0.0917969 0.5
vt 0.373047 0.5
vt 0.990234 0.5
vt 0.994141 0.5

# verts
v -4 2 1
v -4 2 -0
v -4 3 1
v -4 3 -0
v -4 4 1
v -4 4 -0
v -4 5 1
v -4 5 -0
v -4 6 3
v -4 6 1
v -4 6 -0
v -4 6 -1
v -4 7 3
v -4 7 -1
v -4 8 3
v -4 8 -1
v -4 9 3
v -4 9 -1
v -4 10 3
v -4 10 -1
v -3 1 2
v -3 1 -1
v -3 2 3
v -3 2 2
v -3 2 1
v -3 2 -0
v -3 2 -1
v -3 2 -2
v -3 3 3
v -3 3 1
v -3 3 -0
v -3 3 -2
v -3 4 3
v -3 4 1
v -3 4 -0
v -3 4 -2
v -3 5 3
v -3 5 1
v -3 5 -0
v -3 5 -2
v -3 6 3
v -3 6 1
v -3 6 -0
v -3 6 -1
v -3 6 -2
v -3 7 -1
v -3 7 -2
v -3 8 -1
v -3 8 -2
v -3 9 -1
v -3 9 -2
v -3 10 3
v -3 10 -1
v -3 10 -2
v -3 11 3
v -3 11 1
v -3 11 -0
v -3 11 -1
v -3 12 1
v -3 12 -0
v -2 0 1
v -2 0 -0
v -2 1 1
v -2 1 -0
v -2 6 -2
v -2 6 -3
v -2 7 -2
v -2 7 -3
v -2 8 -2
v -2 8 -3
v -2 9 -2
v -2 9 -3
v -2 10 -1
v -2 10 -2
v -2 10 -3
v -2 11 -1
v -2 11 -2
v -1 2 -2
v -1 2 -3
v -1 3 -2
v -1 3 -3
v 1 0 1
v 1 0 -0
v 1 1 2
v 1 1 1
v 1 1 -0
v 1 1 -1
v 1 2 2
v 1 2 -1
v 2 9 3
v 2 9 2
v 2 10 3
v 2 10 2
v 2 11 1
v 2 11 -0
v 2 12 1
v 2 12 -0
v 3 6 3
v 3 6 2
v 3 7 3
v 3 7 2
v 3 8 3
v 3 8 2
v 3 9 3
v 3 9 2
v -3 6 3
v -3 6 2
v -3 7 3
v -3 7 2
v -3 8 3
v -3 8 2
v -3 9 3
v -3 9 2
v -2 9 3
v -2 9 2
v -2 10 3
v -2 10 2
v -2 11 1
v -2 11 -0
v -2 12 1
v -2 12 -0
v -1 0 1
v -1 0 -0
v -1 1 2
v -1 1 1
v -1 1 -0
v -1 1 -1
v -1 2 2
v -1 2 -1
v 1 2 -2
v 1 2 -3
v 1 3 -2
v 1 3 -3
v 2 0 1
v 2 0 -0
v 2 1 1
v 2 1 -0
v 2 6 -2
v 2 6 -3
v 2 7 -2
v 2 7 -3
v 2 8 -2
v 2 8 -3
v 2 9 -2
v 2 9 -3
v 2 10 -1
v 2 10 -2
v 2 10 -3
v 2 11 -1
v 2 11 -2
v 3 1 2
v 3 1 -1
v 3 2 3
v 3 2 2
v 3 2 1
v 3 2 -0
v 3 2 -1
v 3 2 -2
v 3 3 3
v 3 3 1
v 3 3 -0
v 3 3 -2
v 3 4 3
v 3 4 1
v 3 4 -0
v 3 4 -2
v 3 5 3
v 3 5 1
v 3 5 -0
v 3 5 -2
v 3 6 3
v 3 6 1
v 3 6 -0
v 3 6 -1
v 3 6 -2
v 3 7 -1
v 3 7 -2
v 3 8 -1
v 3 8 -2
v 3 9 -1
v 3 9 -2
v 3 10 3
v 3 10 -1
v 3 10 -2
v 3 11 3
v 3 11 1
v 3 11 -0
v 3 11 -1
v 3 12 1
v 3 12 -0
v 4 2 1
v 4 2 -0
v 4 3 1
v 4 3 -0
v 4 4 1
v 4 4 -0
v 4 5 1
v 4 5 -0
v 4 6 3
v 4 6 1
v 4 6 -0
v 4 6 -1
v 4 7 3
v 4 7 -1
v 4 8 3
v 4 8 -1
v 4 9 3
v 4 9 -1
v 4 10 3
v 4 10 -1
v -4 6 3
v -4 7 3
v -4 8 3
v -4 9 3
v -4 10 3
v -3 2 3
v -3 3 3
v -3 4 3
v -3 5 3
v -3 6 3
v -3 7 3
v -3 8 3
v -3 9 3
v -3 10 3
v -3 11 3
v -2 9 3
v -2 10 3
v 2 9 3
v 2 10 3
v 3 2 3
v 3 3 3
v 3 4 3
v 3 5 3
v 3 6 3
v 3 7 3
v 3 8 3
v 3 9 3
v 3 10 3
v 3 11 3
v 4 6 3
v 4 7 3
v 4 8 3
v 4 9 3
v 4 10 3
v -3 1 2
v -3 2 2
v -3 6 2
v -3 7 2
v -3 8 2
v -3 9 2
v -2 7 2
v -2 8 2
v -2 9 2
v -2 10 2
v -1 1 2
v -1 2 2
v -1 7 2
v -1 8 2
v 1 1 2
v 1 2 2
v 1 7 2
v 1 8 2
v 2 7 2
v 2 8 2
v 2 9 2
v 2 10 2
v 3 1 2
v 3 2 2
v 3 6 2
v 3 7 2
v 3 8 2
v 3 9 2
v -4 2 1
v -4 3 1
v -4 4 1
v -4 5 1
v -4 6 1
v -3 2 1
v -3 3 1
v -3 4 1
v -3 5 1
v -3 6 1
v -3 11 1
v -3 12 1
v -2 0 1
v -2 1 1
v -2 11 1
v -2 12 1
v -1 0 1
v -1 1 1
v 1 0 1
v 1 1 1
v 2 0 1
v 2 1 1
v 2 11 1
v 2 12 1
v 3 2 1
v 3 3 1
v 3 4 1
v 3 5 1
v 3 6 1
v 3 11 1
v 3 12 1
v 4 2 1
v 4 3 1
v 4 4 1
v 4 5 1
v 4 6 1
v -4 2 -0
v -4 3 -0
v -4 4 -0
v -4 5 -0
v -4 6 -0
v -3 2 -0
v -3 3 -0
v -3 4 -0
v -3 5 -0
v -3 6 -0
v -3 11 -0
v -3 12 -0
v -2 0 -0
v -2 1 -0
v -2 11 -0
v -2 12 -0
v -1 0 -0
v -1 1 -0
v 1 0 -0
v 1 1 -0
v 2 0 -0
v 2 1 -0
v 2 11 -0
v 2 12 -0
v 3 2 -0
v 3 3 -0
v 3 4 -0
v 3 5 -0
v 3 6 -0
v 3 11 -0
v 3 12 -0
v 4 2 -0
v 4 3 -0
v 4 4 -0
v 4 5 -0
v 4 6 -0
v -4 6 -1
v -4 7 -1
v -4 8 -1
v -4 9 -1
v -4 10 -1
v -3 1 -1
v -3 2 -1
v -3 6 -1
v -3 7 -1
v -3 8 -1
v -3 9 -1
v -3 10 -1
v -3 11 -1
v -2 10 -1
v -2 11 -1
v -1 1 -1
v -1 2 -1
v 1 1 -1
v 1 2 -1
v 2 10 -1
v 2 11 -1
v 3 1 -1
v 3 2 -1
v 3 6 -1
v 3 7 -1
v 3 8 -1
v 3 9 -1
v 3 10 -1
v 3 11 -1
v 4 6 -1
v 4 7 -1
v 4 8 -1
v 4 9 -1
v 4 10 -1
v -3 2 -2
v -3 3 -2
v -3 4 -2
v -3 5 -2
v -3 6 -2
v -3 7 -2
v -3 8 -2
v -3 9 -2
v -3 10 -2
v -2 6 -2
v -2 7 -2
v -2 8 -2
v -2 9 -2
v -2 10 -2
v -2 11 -2
v -1 2 -2
v -1 3 -2
v 1 2 -2
v 1 3 -2
v 2 6 -2
v 2 7 -2
v 2 8 -2
v 2 9 -2
v 2 10 -2
v 2 11 -2
v 3 2 -2
v 3 3 -2
v 3 4 -2
v 3 5 -2
v 3 6 -2
v 3 7 -2
v 3 8 -2
v 3 9 -2
v 3 10 -2
v -2 6 -3
v -2 7 -3
v -2 8 -3
v -2 9 -3
v -2 10 -3
v -1 2 -3
v -1 3 -3
v 1 2 -3
v 1 3 -3
v 2 6 -3
v 2 7 -3
v 2 8 -3
v 2 9 -3
v 2 10 -3
v -2 0 1
v -1 0 1
v 1 0 1
v 2 0 1
v -2 0 -0
v -1 0 -0
v 1 0 -0
v 2 0 -0
v -3 1 2
v -1 1 2
v 1 1 2
v 3 1 2
v -2 1 1
v -1 1 1
v 1 1 1
v 2 1 1
v -2 1 -0
v -1 1 -0
v 1 1 -0
v 2 1 -0
v -3 1 -1
v -1 1 -1
v 1 1 -1
v 3 1 -1
v -3 2 3
v 3 2 3
v -3 2 2
v -1 2 2
v 1 2 2
v 3 2 2
v -4 2 1
v -3 2 1
v 3 2 1
v 4 2 1
v -4 2 -0
v -3 2 -0
v 3 2 -0
v 4 2 -0
v -3 2 -1
v -1 2 -1
v 1 2 -1
v 3 2 -1
v -3 2 -2
v -1 2 -2
v 1 2 -2
v 3 2 -2
v -1 2 -3
v 1 2 -3
v -4 6 3
v -3 6 3
v 3 6 3
v 4 6 3
v -4 6 1
v -3 6 1
v 3 6 1
v 4 6 1
v -4 6 -0
v -3 6 -0
v 3 6 -0
v 4 6 -0
v -4 6 -1
v -3 6 -1
v 3 6 -1
v 4 6 -1
v -2 6 -2
v 2 6 -2
v -2 6 -3
v 2 6 -3
v -3 9 3
v -2 9 3
v 2 9 3
v 3 9 3
v -3 9 2
v -2 9 2
v 2 9 2
v 3 9 2
v -2 10 3
v 2 10 3
v -2 10 2
v 2 10 2
v -1 3 -2
v 1 3 -2
v -1 3 -3
v 1 3 -3
v -3 6 3
v 3 6 3
v -3 6 2
v 3 6 2
v -4 10 3
v -3 10 3
v 3 10 3
v 4 10 3
v -4 10 -1
v -3 10 -1
v -2 10 -1
v 2 10 -1
v 3 10 -1
v 4 10 -1
v -3 10 -2
v -2 10 -2
v 2 10 -2
v 3 10 -2
v -2 10 -3
v 2 10 -3
v -3 11 3
v 3 11 3
v -3 11 1
v -2 11 1
v 2 11 1
v 3 11 1
v -3 11 -0
v -2 11 -0
v 2 11 -0
v 3 11 -0
v -3 11 -1
v -2 11 -1
v 2 11 -1
v 3 11 -1
v -2 11 -2
v 2 11 -2
v -3 12 1
v -2 12 1
v 2 12 1
v 3 12 1
v -3 12 -0
v -2 12 -0
v 2 12 -0
v 3 12 -0

# faces
f 3/3/1 2/3/1 1/3/1
f 4/3/1 2/3/1 3/3/1
f 5/1/1 4/1/1 3/1/1
f 6/1/1 4/1/1 5/1/1
f 7/2/1 6/2/1 5/2/1
f 8/2/1 6/2/1 7/2/1
f 10/1/1 8/1/1 7/1/1
f 11/1/1 8/1/1 10/1/1
f 13/1/1 11/1/1 10/1/1
f 13/1/1 12/1/1 11/1/1
f 13/1/1 10/1/1 9/1/1
f 14/1/1 12/1/1 13/1/1
f 15/2/1 14/2/1 13/2/1
f 16/2/1 14/2/1 15/2/1
f 17/1/1 16/1/1 15/1/1
f 18/1/1 16/1/1 17/1/1
f 19/2/1 18/2/1 17/2/1
f 20/2/1 18/2/1 19/2/1
f 24/2/1 22/2/1 21/2/1
f 25/2/1 22/2/1 24/2/1
f 26/2/1 22/2/1 25/2/1
f 27/2/1 22/2/1 26/2/1
f 29/1/1 24/1/1 23/1/1
f 29/1/1 25/1/1 24/1/1
f 30/1/1 25/1/1 29/1/1
f 31/1/1 28/1/1 27/1/1
f 31/1/1 27/1/1 26/1/1
f 32/1/1 28/1/1 31/1/1
f 33/2/1 30/2/1 29/2/1
f 34/2/1 30/2/1 33/2/1
f 35/2/1 32/2/1 31/2/1
f 36/2/1 32/2/1 35/2/1
f 37/1/1 34/1/1 33/1/1
f 38/1/1 34/1/1 37/1/1
f 39/1/1 36/1/1 35/1/1
f 40/1/1 36/1/1 39/1/1
f 41/2/1 38/2/1 37/2/1
f 42/2/1 38/2/1 41/2/1
f 43/2/1 40/2/1 39/2/1
f 44/2/1 40/2/1 43/2/1
f 45/2/1 40/2/1 44/2/1
f 46/1/1 45/1/1 44/1/1
f 47/1/1 45/1/1 46/1/1
f 48/2/1 47/2/1 46/2/1
f 49/2/1 47/2/1 48/2/1
f 50/1/1 49/1/1 48/1/1
f 51/1/1 49/1/1 50/1/1
f 53/2/1 51/2/1 50/2/1
f 54/2/1 51/2/1 53/2/1
f 55/2/1 53/2/1 52/2/1
f 56/2/1 53/2/1 55/2/1
f 57/2/1 53/2/1 56/2/1
f 58/2/1 53/2/1 57/2/1
f 59/1/1 57/1/1 56/1/1
f 60/1/1 57/1/1 59/1/1
f 63/4/1 62/4/1 61/4/1
f 64/4/1 62/4/1 63/4/1
f 67/1/1 66/1/1 65/1/1
f 68/1/1 66/1/1 67/1/1
f 69/2/1 68/2/1 67/2/1
f 70/2/1 68/2/1 69/2/1
f 71/1/1 70/1/1 69/1/1
f 72/1/1 70/1/1 71/1/1
f 74/2/1 72/2/1 71/2/1
f 75/2/1 72/2/1 74/2/1
f 76/2/1 74/2/1 73/2/1
f 77/2/1 74/2/1 76/2/1
f 80/2/1 79/2/1 78/2/1
f 81/2/1 79/2/1 80/2/1
f 85/4/1 83/4/1 82/4/1
f 86/4/1 83/4/1 85/4/1
f 88/2/1 85/2/1 84/2/1
f 88/2/1 87/2/1 86/2/1
f 88/2/1 86/2/1 85/2/1
f 89/2/1 87/2/1 88/2/1
f 92/2/1 91/2/1 90/2/1
f 93/2/1 91/2/1 92/2/1
f 96/1/1 95/1/1 94/1/1
f 97/1/1 95/1/1 96/1/1
f 100/1/1 99/1/1 98/1/1
f 101/1/1 99/1/1 100/1/1
f 102/2/1 101/2/1 100/2/1
f 103/2/1 101/2/1 102/2/1
f 104/1/1 103/1/1 102/1/1
f 105/1/1 103/1/1 104/1/1
f 106/1/2 107/1/2 108/1/2
f 108/1/2 107/1/2 109/1/2
f 108/2/2 109/2/2 110/2/2
f 110/2/2 109/2/2 111/2/2
f 110/1/2 111/1/2 112/1/2
f 112/1/2 111/1/2 113/1/2
f 114/2/2 115/2/2 116/2/2
f 116/2/2 115/2/2 117/2/2
f 118/1/2 119/1/2 120/1/2
f 120/1/2 119/1/2 121/1/2
f 122/4/2 123/4/2 125/4/2
f 125/4/2 123/4/2 126/4/2
f 124/2/2 125/2/2 128/2/2
f 126/2/2 127/2/2 128/2/2
f 125/2/2 126/2/2 128/2/2
f 128/2/2 127/2/2 129/2/2
f 130/2/2 131/2/2 132/2/2
f 132/2/2 131/2/2 133/2/2
f 134/4/2 135/4/2 136/4/2
f 136/4/2 135/4/2 137/4/2
f 138/1/2 139/1/2 140/1/2
f 140/1/2 139/1/2 141/1/2
f 140/2/2 141/2/2 142/2/2
f 142/2/2 141/2/2 143/2/2
f 142/1/2 143/1/2 144/1/2
f 144/1/2 143/1/2 145/1/2
f 144/2/2 145/2/2 147/2/2
f 147/2/2 145/2/2 148/2/2
f 146/2/2 147/2/2 149/2/2
f 149/2/2 147/2/2 150/2/2
f 151/2/2 152/2/2 154/2/2
f 154/2/2 152/2/2 155/2/2
f 155/2/2 152/2/2 156/2/2
f 156/2/2 152/2/2 157/2/2
f 153/1/2 154/1/2 159/1/2
f 154/1/2 155/1/2 159/1/2
f 159/1/2 155/1/2 160/1/2
f 157/1/2 158/1/2 161/1/2
f 156/1/2 157/1/2 161/1/2
f 161/1/2 158/1/2 162/1/2
f 159/2/2 160/2/2 163/2/2
f 163/2/2 160/2/2 164/2/2
f 161/2/2 162/2/2 165/2/2
f 165/2/2 162/2/2 166/2/2
f 163/1/2 164/1/2 167/1/2
f 167/1/2 164/1/2 168/1/2
f 165/1/2 166/1/2 169/1/2
f 169/1/2 166/1/2 170/1/2
f 167/2/2 168/2/2 171/2/2
f 171/2/2 168/2/2 172/2/2
f 169/2/2 170/2/2 173/2/2
f 173/2/2 170/2/2 174/2/2
f 174/2/2 170/2/2 175/2/2
f 174/1/2 175/1/2 176/1/2
f 176/1/2 175/1/2 177/1/2
f 176/2/2 177/2/2 178/2/2
f 178/2/2 177/2/2 179/2/2
f 178/1/2 179/1/2 180/1/2
f 180/1/2 179/1/2 181/1/2
f 180/2/2 181/2/2 183/2/2
f 183/2/2 181/2/2 184/2/2
f 182/2/2 183/2/2 185/2/2
f 185/2/2 183/2/2 186/2/2
f 186/2/2 183/2/2 187/2/2
f 187/2/2 183/2/2 188/2/2
f 186/1/2 187/1/2 189/1/2
f 189/1/2 187/1/2 190/1/2
f 191/3/2 192/3/2 193/3/2
f 193/3/2 192/3/2 194/3/2
f 193/1/2 194/1/2 195/1/2
f 195/1/2 194/1/2 196/1/2
f 195/2/2 196/2/2 197/2/2
f 197/2/2 196/2/2 198/2/2
f 197/1/2 198/1/2 200/1/2
f 200/1/2 198/1/2 201/1/2
f 200/1/2 201/1/2 203/1/2
f 201/1/2 202/1/2 203/1/2
f 199/1/2 200/1/2 203/1/2
f 203/1/2 202/1/2 204/1/2
f 203/2/2 204/2/2 205/2/2
f 205/2/2 204/2/2 206/2/2
f 205/1/2 206/1/2 207/1/2
f 207/1/2 206/1/2 208/1/2
f 207/2/2 208/2/2 209/2/2
f 209/2/2 208/2/2 210/2/2
f 220/1/3 212/1/3 211/1/3
f 221/2/3 213/2/3 212/2/3
f 221/1/3 212/1/3 220/1/3
f 222/1/3 214/1/3 213/1/3
f 222/2/3 213/2/3 221/2/3
f 223/2/3 215/2/3 214/2/3
f 223/1/3 214/1/3 222/1/3
f 224/2/3 215/2/3 223/2/3
f 226/2/3 225/2/3 224/2/3
f 226/2/3 224/2/3 223/2/3
f 227/2/3 225/2/3 226/2/3
f 229/2/3 225/2/3 227/2/3
f 230/1/3 217/1/3 216/1/3
f 231/2/3 218/2/3 217/2/3
f 231/1/3 217/1/3 230/1/3
f 232/1/3 219/1/3 218/1/3
f 232/2/3 218/2/3 231/2/3
f 233/2/3 220/2/3 219/2/3
f 233/1/3 219/1/3 232/1/3
f 234/2/3 220/2/3 233/2/3
f 237/2/3 229/2/3 228/2/3
f 238/2/3 225/2/3 229/2/3
f 238/2/3 229/2/3 237/2/3
f 239/2/3 225/2/3 238/2/3
f 240/1/3 235/1/3 234/1/3
f 241/2/3 236/2/3 235/2/3
f 241/1/3 235/1/3 240/1/3
f 242/1/3 237/1/3 236/1/3
f 242/2/3 236/2/3 241/2/3
f 243/2/3 238/2/3 237/2/3
f 243/1/3 237/1/3 242/1/3
f 244/2/3 238/2/3 243/2/3
f 251/3/3 248/3/3 247/3/3
f 251/3/3 250/3/3 249/3/3
f 251/3/3 249/3/3 248/3/3
f 252/3/3 250/3/3 251/3/3
f 253/3/3 250/3/3 252/3/3
f 255/2/3 246/2/3 245/2/3
f 256/2/3 246/2/3 255/2/3
f 257/3/3 251/3/3 247/3/3
f 257/5/3 252/5/3 251/5/3
f 258/3/3 254/3/3 253/3/3
f 258/5/3 252/5/3 257/5/3
f 258/3/3 253/3/3 252/3/3
f 261/3/3 257/3/3 247/3/3
f 261/3/3 258/3/3 257/3/3
f 262/3/3 254/3/3 258/3/3
f 262/3/3 258/3/3 261/3/3
f 263/3/3 261/3/3 247/3/3
f 263/5/3 262/5/3 261/5/3
f 264/3/3 254/3/3 262/3/3
f 264/5/3 262/5/3 263/5/3
f 265/3/3 254/3/3 264/3/3
f 266/3/3 254/3/3 265/3/3
f 267/2/3 260/2/3 259/2/3
f 268/2/3 260/2/3 267/2/3
f 269/3/3 263/3/3 247/3/3
f 269/3/3 264/3/3 263/3/3
f 269/3/3 265/3/3 264/3/3
f 270/3/3 265/3/3 269/3/3
f 271/3/3 265/3/3 270/3/3
f 272/3/3 265/3/3 271/3/3
f 278/3/3 274/3/3 273/3/3
f 279/1/3 275/1/3 274/1/3
f 279/3/3 274/3/3 278/3/3
f 280/2/3 276/2/3 275/2/3
f 280/1/3 275/1/3 279/1/3
f 281/1/3 277/1/3 276/1/3
f 281/2/3 276/2/3 280/2/3
f 282/1/3 277/1/3 281/1/3
f 287/1/3 284/1/3 283/1/3
f 288/1/3 284/1/3 287/1/3
f 289/4/3 286/4/3 285/4/3
f 290/4/3 286/4/3 289/4/3
f 293/4/3 292/4/3 291/4/3
f 294/4/3 292/4/3 293/4/3
f 302/1/3 296/1/3 295/1/3
f 303/1/3 296/1/3 302/1/3
f 304/3/3 298/3/3 297/3/3
f 305/1/3 299/1/3 298/1/3
f 305/3/3 298/3/3 304/3/3
f 306/2/3 300/2/3 299/2/3
f 306/1/3 299/1/3 305/1/3
f 307/1/3 301/1/3 300/1/3
f 307/2/3 300/2/3 306/2/3
f 308/1/3 301/1/3 307/1/3
f 309/3/4 310/3/4 314/3/4
f 310/1/4 311/1/4 315/1/4
f 314/3/4 310/3/4 315/3/4
f 311/2/4 312/2/4 316/2/4
f 315/1/4 311/1/4 316/1/4
f 312/1/4 313/1/4 317/1/4
f 316/2/4 312/2/4 317/2/4
f 317/1/4 313/1/4 318/1/4
f 319/1/4 320/1/4 323/1/4
f 323/1/4 320/1/4 324/1/4
f 321/4/4 322/4/4 325/4/4
f 325/4/4 322/4/4 326/4/4
f 327/4/4 328/4/4 329/4/4
f 329/4/4 328/4/4 330/4/4
f 331/1/4 332/1/4 338/1/4
f 338/1/4 332/1/4 339/1/4
f 333/3/4 334/3/4 340/3/4
f 334/1/4 335/1/4 341/1/4
f 340/3/4 334/3/4 341/3/4
f 335/2/4 336/2/4 342/2/4
f 341/1/4 335/1/4 342/1/4
f 336/1/4 337/1/4 343/1/4
f 342/2/4 336/2/4 343/2/4
f 343/1/4 337/1/4 344/1/4
f 345/1/4 346/1/4 352/1/4
f 346/2/4 347/2/4 353/2/4
f 352/1/4 346/1/4 353/1/4
f 347/1/4 348/1/4 354/1/4
f 353/2/4 347/2/4 354/2/4
f 348/2/4 349/2/4 355/2/4
f 354/1/4 348/1/4 355/1/4
f 355/2/4 349/2/4 356/2/4
f 356/2/4 357/2/4 358/2/4
f 358/2/4 357/2/4 359/2/4
f 350/2/4 351/2/4 360/2/4
f 360/2/4 351/2/4 361/2/4
f 362/2/4 363/2/4 366/2/4
f 366/2/4 363/2/4 367/2/4
f 364/2/4 365/2/4 372/2/4
f 372/2/4 365/2/4 373/2/4
f 368/1/4 369/1/4 374/1/4
f 369/2/4 370/2/4 375/2/4
f 374/1/4 369/1/4 375/1/4
f 370/1/4 371/1/4 376/1/4
f 375/2/4 370/2/4 376/2/4
f 371/2/4 372/2/4 377/2/4
f 376/1/4 371/1/4 377/1/4
f 377/2/4 372/2/4 378/2/4
f 382/2/4 383/2/4 388/2/4
f 383/1/4 384/1/4 388/1/4
f 384/2/4 385/2/4 389/2/4
f 388/1/4 384/1/4 389/1/4
f 385/1/4 386/1/4 390/1/4
f 389/2/4 385/2/4 390/2/4
f 386/2/4 387/2/4 391/2/4
f 390/1/4 386/1/4 391/1/4
f 391/2/4 387/2/4 392/2/4
f 379/1/4 380/1/4 394/1/4
f 380/2/4 381/2/4 395/2/4
f 394/1/4 380/1/4 395/1/4
f 395/2/4 381/2/4 397/2/4
f 382/2/4 388/2/4 398/2/4
f 392/2/4 393/2/4 402/2/4
f 402/2/4 393/2/4 403/2/4
f 396/1/4 397/1/4 404/1/4
f 397/2/4 381/2/4 405/2/4
f 404/1/4 397/1/4 405/1/4
f 381/1/4 382/1/4 406/1/4
f 405/2/4 381/2/4 406/2/4
f 382/2/4 398/2/4 407/2/4
f 406/1/4 382/1/4 407/1/4
f 398/1/4 399/1/4 408/1/4
f 407/2/4 398/2/4 408/2/4
f 399/2/4 400/2/4 409/2/4
f 408/1/4 399/1/4 409/1/4
f 400/1/4 401/1/4 410/1/4
f 409/2/4 400/2/4 410/2/4
f 401/2/4 402/2/4 411/2/4
f 410/1/4 401/1/4 411/1/4
f 411/2/4 402/2/4 412/2/4
f 418/2/4 419/2/4 420/2/4
f 420/2/4 419/2/4 421/2/4
f 413/1/4 414/1/4 422/1/4
f 414/2/4 415/2/4 423/2/4
f 422/1/4 414/1/4 423/1/4
f 415/1/4 416/1/4 424/1/4
f 423/2/4 415/2/4 424/2/4
f 416/2/4 417/2/4 425/2/4
f 424/1/4 416/1/4 425/1/4
f 425/2/4 417/2/4 426/2/4
f 431/4/5 428/4/5 427/4/5
f 432/4/5 428/4/5 431/4/5
f 433/4/5 430/4/5 429/4/5
f 434/4/5 430/4/5 433/4/5
f 439/2/5 436/2/5 435/2/5
f 440/2/5 436/2/5 439/2/5
f 441/2/5 438/2/5 437/2/5
f 442/2/5 438/2/5 441/2/5
f 443/2/5 439/2/5 435/2/5
f 446/2/5 438/2/5 442/2/5
f 447/2/5 444/2/5 443/2/5
f 447/2/5 443/2/5 435/2/5
f 448/2/5 444/2/5 447/2/5
f 449/2/5 446/2/5 445/2/5
f 450/2/5 438/2/5 446/2/5
f 450/2/5 446/2/5 449/2/5
f 453/1/5 452/1/5 451/1/5
f 454/1/5 452/1/5 453/1/5
f 455/1/5 452/1/5 454/1/5
f 456/1/5 452/1/5 455/1/5
f 461/3/5 458/3/5 457/3/5
f 462/3/5 458/3/5 461/3/5
f 463/3/5 460/3/5 459/3/5
f 464/3/5 460/3/5 463/3/5
f 466/2/5 455/2/5 454/2/5
f 467/2/5 455/2/5 466/2/5
f 469/1/5 466/1/5 465/1/5
f 469/1/5 468/1/5 467/1/5
f 469/1/5 467/1/5 466/1/5
f 470/1/5 468/1/5 469/1/5
f 471/1/5 468/1/5 470/1/5
f 472/1/5 468/1/5 471/1/5
f 473/2/5 471/2/5 470/2/5
f 474/2/5 471/2/5 473/2/5
f 479/1/5 476/1/5 475/1/5
f 480/1/5 476/1/5 479/1/5
f 481/1/5 478/1/5 477/1/5
f 482/1/5 478/1/5 481/1/5
f 487/1/5 484/1/5 483/1/5
f 488/1/5 484/1/5 487/1/5
f 489/1/5 486/1/5 485/1/5
f 490/1/5 486/1/5 489/1/5
f 493/1/5 492/1/5 491/1/5
f 494/1/5 492/1/5 493/1/5
f 499/2/5 496/2/5 495/2/5
f 500/2/5 496/2/5 499/2/5
f 501/2/5 498/2/5 497/2/5
f 502/2/5 498/2/5 501/2/5
f 505/2/5 504/2/5 503/2/5
f 506/2/5 504/2/5 505/2/5
f 507/2/6 508/2/6 509/2/6
f 509/2/6 508/2/6 510/2/6
f 511/2/6 512/2/6 513/2/6
f 513/2/6 512/2/6 514/2/6
f 515/2/6 516/2/6 519/2/6
f 519/2/6 516/2/6 520/2/6
f 517/2/6 518/2/6 523/2/6
f 523/2/6 518/2/6 524/2/6
f 520/2/6 521/2/6 525/2/6
f 525/2/6 521/2/6 526/2/6
f 522/2/6 523/2/6 527/2/6
f 527/2/6 523/2/6 528/2/6
f 526/2/6 527/2/6 529/2/6
f 529/2/6 527/2/6 530/2/6
f 531/2/6 532/2/6 533/2/6
f 533/2/6 532/2/6 534/2/6
f 534/2/6 532/2/6 535/2/6
f 535/2/6 532/2/6 536/2/6
f 534/2/6 535/2/6 538/2/6
f 538/2/6 535/2/6 539/2/6
f 537/2/6 538/2/6 541/2/6
f 539/2/6 540/2/6 541/2/6
f 538/2/6 539/2/6 541/2/6
f 541/2/6 540/2/6 542/2/6
f 542/2/6 540/2/6 543/2/6
f 543/2/6 540/2/6 544/2/6
f 542/2/6 543/2/6 545/2/6
f 545/2/6 543/2/6 546/2/6
f 547/1/6 548/1/6 551/1/6
f 551/1/6 548/1/6 552/1/6
f 549/1/6 550/1/6 553/1/6
f 553/1/6 550/1/6 554/1/6
