# MagicaVoxel @ Ephtracy

# material
mtllib chr_chef.mtl
usemtl palette

# normals
vn -1 0 0
vn 1 0 0
vn 0 0 1
vn 0 0 -1
vn 0 -1 0
vn 0 1 0

# texcoords
vt 0.201172 0.5
vt 0.958984 0.5
vt 0.970703 0.5
vt 0.990234 0.5
vt 0.994141 0.5

# verts
v -4 2 1
v -4 2 -0
v -4 3 1
v -4 3 -0
v -4 6 1
v -4 6 -0
v -4 7 1
v -4 7 -0
v -4 8 1
v -4 8 -0
v -4 13 2
v -4 13 -1
v -4 14 2
v -4 14 -1
v -3 1 2
v -3 1 -1
v -3 2 3
v -3 2 2
v -3 2 1
v -3 2 -0
v -3 2 -1
v -3 2 -2
v -3 3 3
v -3 3 1
v -3 3 -0
v -3 3 -1
v -3 3 -2
v -3 6 3
v -3 6 2
v -3 6 1
v -3 6 -0
v -3 6 -1
v -3 6 -2
v -3 7 1
v -3 7 -0
v -3 8 1
v -3 8 -0
v -3 9 2
v -3 9 -1
v -3 13 3
v -3 13 2
v -3 13 -1
v -3 13 -2
v -3 14 3
v -3 14 2
v -3 14 -1
v -3 14 -2
v -2 0 1
v -2 0 -0
v -2 1 1
v -2 1 -0
v -2 6 -1
v -2 6 -2
v -2 9 -1
v -2 9 -2
v -2 13 -1
v -2 13 -2
v -2 13 -3
v -2 14 -2
v -2 14 -3
v 1 0 1
v 1 0 -0
v 1 1 2
v 1 1 1
v 1 1 -0
v 1 1 -1
v 1 2 2
v 1 2 1
v 1 2 -0
v 1 2 -1
v -1 0 1
v -1 0 -0
v -1 1 2
v -1 1 1
v -1 1 -0
v -1 1 -1
v -1 2 2
v -1 2 1
v -1 2 -0
v -1 2 -1
v 2 0 1
v 2 0 -0
v 2 1 1
v 2 1 -0
v 2 6 -1
v 2 6 -2
v 2 9 -1
v 2 9 -2
v 2 13 -1
v 2 13 -2
v 2 13 -3
v 2 14 -2
v 2 14 -3
v 3 1 2
v 3 1 -1
v 3 2 3
v 3 2 2
v 3 2 1
v 3 2 -0
v 3 2 -1
v 3 2 -2
v 3 3 3
v 3 3 1
v 3 3 -0
v 3 3 -1
v 3 3 -2
v 3 6 3
v 3 6 2
v 3 6 1
v 3 6 -0
v 3 6 -1
v 3 6 -2
v 3 7 1
v 3 7 -0
v 3 8 1
v 3 8 -0
v 3 9 2
v 3 9 -1
v 3 13 3
v 3 13 2
v 3 13 -1
v 3 13 -2
v 3 14 3
v 3 14 2
v 3 14 -1
v 3 14 -2
v 4 2 1
v 4 2 -0
v 4 3 1
v 4 3 -0
v 4 6 1
v 4 6 -0
v 4 7 1
v 4 7 -0
v 4 8 1
v 4 8 -0
v 4 13 2
v 4 13 -1
v 4 14 2
v 4 14 -1
v -3 2 3
v -3 3 3
v -3 6 3
v -3 13 3
v -3 14 3
v 3 2 3
v 3 3 3
v 3 6 3
v 3 13 3
v 3 14 3
v -4 13 2
v -4 14 2
v -3 1 2
v -3 2 2
v -3 6 2
v -3 9 2
v -3 13 2
v -3 14 2
v -2 7 2
v -2 8 2
v -1 1 2
v -1 2 2
v -1 7 2
v -1 8 2
v 1 1 2
v 1 2 2
v 1 7 2
v 1 8 2
v 2 7 2
v 2 8 2
v 3 1 2
v 3 2 2
v 3 6 2
v 3 9 2
v 3 13 2
v 3 14 2
v 4 13 2
v 4 14 2
v -4 2 1
v -4 3 1
v -4 6 1
v -4 7 1
v -4 8 1
v -3 2 1
v -3 3 1
v -3 6 1
v -3 7 1
v -3 8 1
v -2 0 1
v -2 1 1
v -1 0 1
v -1 1 1
v 1 0 1
v 1 1 1
v 2 0 1
v 2 1 1
v 3 2 1
v 3 3 1
v 3 6 1
v 3 7 1
v 3 8 1
v 4 2 1
v 4 3 1
v 4 6 1
v 4 7 1
v 4 8 1
v -4 2 -0
v -4 3 -0
v -4 6 -0
v -4 7 -0
v -4 8 -0
v -3 2 -0
v -3 3 -0
v -3 6 -0
v -3 7 -0
v -3 8 -0
v -2 0 -0
v -2 1 -0
v -1 0 -0
v -1 1 -0
v 1 0 -0
v 1 1 -0
v 2 0 -0
v 2 1 -0
v 3 2 -0
v 3 3 -0
v 3 6 -0
v 3 7 -0
v 3 8 -0
v 4 2 -0
v 4 3 -0
v 4 6 -0
v 4 7 -0
v 4 8 -0
v -4 13 -1
v -4 14 -1
v -3 1 -1
v -3 2 -1
v -3 6 -1
v -3 9 -1
v -3 13 -1
v -3 14 -1
v -2 6 -1
v -2 9 -1
v -2 13 -1
v -1 1 -1
v -1 2 -1
v 1 1 -1
v 1 2 -1
v 2 6 -1
v 2 9 -1
v 2 13 -1
v 3 1 -1
v 3 2 -1
v 3 6 -1
v 3 9 -1
v 3 13 -1
v 3 14 -1
v 4 13 -1
v 4 14 -1
v -3 2 -2
v -3 3 -2
v -3 6 -2
v -3 13 -2
v -3 14 -2
v -2 6 -2
v -2 9 -2
v -2 13 -2
v -2 14 -2
v 2 6 -2
v 2 9 -2
v 2 13 -2
v 2 14 -2
v 3 2 -2
v 3 3 -2
v 3 6 -2
v 3 13 -2
v 3 14 -2
v -2 13 -3
v -2 14 -3
v 2 13 -3
v 2 14 -3
v -2 0 1
v -1 0 1
v 1 0 1
v 2 0 1
v -2 0 -0
v -1 0 -0
v 1 0 -0
v 2 0 -0
v -3 1 2
v -1 1 2
v 1 1 2
v 3 1 2
v -2 1 1
v -1 1 1
v 1 1 1
v 2 1 1
v -2 1 -0
v -1 1 -0
v 1 1 -0
v 2 1 -0
v -3 1 -1
v -1 1 -1
v 1 1 -1
v 3 1 -1
v -3 2 3
v 3 2 3
v -3 2 2
v -1 2 2
v 1 2 2
v 3 2 2
v -4 2 1
v -3 2 1
v -1 2 1
v 1 2 1
v 3 2 1
v 4 2 1
v -4 2 -0
v -3 2 -0
v -1 2 -0
v 1 2 -0
v 3 2 -0
v 4 2 -0
v -3 2 -1
v -1 2 -1
v 1 2 -1
v 3 2 -1
v -3 2 -2
v 3 2 -2
v -4 7 1
v -3 7 1
v 3 7 1
v 4 7 1
v -4 7 -0
v -3 7 -0
v 3 7 -0
v 4 7 -0
v -3 13 3
v 3 13 3
v -4 13 2
v -3 13 2
v 3 13 2
v 4 13 2
v -4 13 -1
v -3 13 -1
v -2 13 -1
v 2 13 -1
v 3 13 -1
v 4 13 -1
v -3 13 -2
v -2 13 -2
v 2 13 -2
v 3 13 -2
v -2 13 -3
v 2 13 -3
v -3 6 3
v 3 6 3
v -3 6 2
v 3 6 2
v -4 6 1
v -3 6 1
v 3 6 1
v 4 6 1
v -4 6 -0
v -3 6 -0
v 3 6 -0
v 4 6 -0
v -3 6 -1
v -2 6 -1
v 2 6 -1
v 3 6 -1
v -3 6 -2
v -2 6 -2
v 2 6 -2
v 3 6 -2
v -4 8 1
v -3 8 1
v 3 8 1
v 4 8 1
v -4 8 -0
v -3 8 -0
v 3 8 -0
v 4 8 -0
v -3 14 3
v 3 14 3
v -4 14 2
v -3 14 2
v 3 14 2
v 4 14 2
v -4 14 -1
v -3 14 -1
v 3 14 -1
v 4 14 -1
v -3 14 -2
v -2 14 -2
v 2 14 -2
v 3 14 -2
v -2 14 -3
v 2 14 -3

# faces
f 3/1/1 2/1/1 1/1/1
f 4/1/1 2/1/1 3/1/1
f 5/2/1 4/2/1 3/2/1
f 6/2/1 4/2/1 5/2/1
f 9/1/1 8/1/1 7/1/1
f 10/1/1 8/1/1 9/1/1
f 13/2/1 12/2/1 11/2/1
f 14/2/1 12/2/1 13/2/1
f 18/3/1 16/3/1 15/3/1
f 19/3/1 16/3/1 18/3/1
f 20/3/1 16/3/1 19/3/1
f 21/3/1 16/3/1 20/3/1
f 23/3/1 18/3/1 17/3/1
f 23/3/1 19/3/1 18/3/1
f 24/3/1 19/3/1 23/3/1
f 25/2/1 21/2/1 20/2/1
f 26/3/1 22/3/1 21/3/1
f 26/2/1 21/2/1 25/2/1
f 27/3/1 22/3/1 26/3/1
f 28/2/1 24/2/1 23/2/1
f 29/2/1 24/2/1 28/2/1
f 30/2/1 24/2/1 29/2/1
f 31/2/1 26/2/1 25/2/1
f 31/2/1 27/2/1 26/2/1
f 32/2/1 27/2/1 31/2/1
f 33/2/1 27/2/1 32/2/1
f 34/1/1 30/1/1 29/1/1
f 34/1/1 32/1/1 31/1/1
f 34/1/1 31/1/1 30/1/1
f 35/1/1 32/1/1 34/1/1
f 36/1/1 34/1/1 29/1/1
f 37/1/1 32/1/1 35/1/1
f 38/1/1 36/1/1 29/1/1
f 38/1/1 37/1/1 36/1/1
f 39/1/1 32/1/1 37/1/1
f 39/1/1 37/1/1 38/1/1
f 41/2/1 39/2/1 38/2/1
f 42/2/1 39/2/1 41/2/1
f 44/2/1 41/2/1 40/2/1
f 45/2/1 41/2/1 44/2/1
f 46/2/1 43/2/1 42/2/1
f 47/2/1 43/2/1 46/2/1
f 50/4/1 49/4/1 48/4/1
f 51/4/1 49/4/1 50/4/1
f 54/1/1 53/1/1 52/1/1
f 55/1/1 53/1/1 54/1/1
f 56/2/1 55/2/1 54/2/1
f 57/2/1 55/2/1 56/2/1
f 59/2/1 58/2/1 57/2/1
f 60/2/1 58/2/1 59/2/1
f 64/4/1 62/4/1 61/4/1
f 65/4/1 62/4/1 64/4/1
f 67/3/1 64/3/1 63/3/1
f 68/2/1 65/2/1 64/2/1
f 68/3/1 64/3/1 67/3/1
f 69/3/1 66/3/1 65/3/1
f 69/2/1 65/2/1 68/2/1
f 70/3/1 66/3/1 69/3/1
f 71/4/2 72/4/2 74/4/2
f 74/4/2 72/4/2 75/4/2
f 73/3/2 74/3/2 77/3/2
f 74/2/2 75/2/2 78/2/2
f 77/3/2 74/3/2 78/3/2
f 75/3/2 76/3/2 79/3/2
f 78/2/2 75/2/2 79/2/2
f 79/3/2 76/3/2 80/3/2
f 81/4/2 82/4/2 83/4/2
f 83/4/2 82/4/2 84/4/2
f 85/1/2 86/1/2 87/1/2
f 87/1/2 86/1/2 88/1/2
f 87/2/2 88/2/2 89/2/2
f 89/2/2 88/2/2 90/2/2
f 90/2/2 91/2/2 92/2/2
f 92/2/2 91/2/2 93/2/2
f 94/3/2 95/3/2 97/3/2
f 97/3/2 95/3/2 98/3/2
f 98/3/2 95/3/2 99/3/2
f 99/3/2 95/3/2 100/3/2
f 96/3/2 97/3/2 102/3/2
f 97/3/2 98/3/2 102/3/2
f 102/3/2 98/3/2 103/3/2
f 99/2/2 100/2/2 104/2/2
f 100/3/2 101/3/2 105/3/2
f 104/2/2 100/2/2 105/2/2
f 105/3/2 101/3/2 106/3/2
f 102/2/2 103/2/2 107/2/2
f 107/2/2 103/2/2 108/2/2
f 108/2/2 103/2/2 109/2/2
f 104/2/2 105/2/2 110/2/2
f 105/2/2 106/2/2 110/2/2
f 110/2/2 106/2/2 111/2/2
f 111/2/2 106/2/2 112/2/2
f 108/1/2 109/1/2 113/1/2
f 110/1/2 111/1/2 113/1/2
f 109/1/2 110/1/2 113/1/2
f 113/1/2 111/1/2 114/1/2
f 108/1/2 113/1/2 115/1/2
f 114/1/2 111/1/2 116/1/2
f 108/1/2 115/1/2 117/1/2
f 115/1/2 116/1/2 117/1/2
f 116/1/2 111/1/2 118/1/2
f 117/1/2 116/1/2 118/1/2
f 117/2/2 118/2/2 120/2/2
f 120/2/2 118/2/2 121/2/2
f 119/2/2 120/2/2 123/2/2
f 123/2/2 120/2/2 124/2/2
f 121/2/2 122/2/2 125/2/2
f 125/2/2 122/2/2 126/2/2
f 127/1/2 128/1/2 129/1/2
f 129/1/2 128/1/2 130/1/2
f 129/2/2 130/2/2 131/2/2
f 131/2/2 130/2/2 132/2/2
f 133/1/2 134/1/2 135/1/2
f 135/1/2 134/1/2 136/1/2
f 137/2/2 138/2/2 139/2/2
f 139/2/2 138/2/2 140/2/2
f 146/3/3 142/3/3 141/3/3
f 147/2/3 143/2/3 142/2/3
f 147/3/3 142/3/3 146/3/3
f 148/2/3 143/2/3 147/2/3
f 149/2/3 145/2/3 144/2/3
f 150/2/3 145/2/3 149/2/3
f 157/2/3 152/2/3 151/2/3
f 158/2/3 152/2/3 157/2/3
f 159/1/3 156/1/3 155/1/3
f 160/1/3 156/1/3 159/1/3
f 161/3/3 154/3/3 153/3/3
f 162/3/3 154/3/3 161/3/3
f 163/1/3 159/1/3 155/1/3
f 163/5/3 160/5/3 159/5/3
f 164/1/3 156/1/3 160/1/3
f 164/5/3 160/5/3 163/5/3
f 167/1/3 163/1/3 155/1/3
f 167/1/3 164/1/3 163/1/3
f 168/1/3 156/1/3 164/1/3
f 168/1/3 164/1/3 167/1/3
f 169/1/3 167/1/3 155/1/3
f 169/5/3 168/5/3 167/5/3
f 170/1/3 156/1/3 168/1/3
f 170/5/3 168/5/3 169/5/3
f 171/3/3 166/3/3 165/3/3
f 172/3/3 166/3/3 171/3/3
f 173/1/3 169/1/3 155/1/3
f 173/1/3 170/1/3 169/1/3
f 174/1/3 156/1/3 170/1/3
f 174/1/3 170/1/3 173/1/3
f 174/2/3 157/2/3 156/2/3
f 175/2/3 157/2/3 174/2/3
f 177/2/3 176/2/3 175/2/3
f 178/2/3 176/2/3 177/2/3
f 184/1/3 180/1/3 179/1/3
f 185/2/3 181/2/3 180/2/3
f 185/1/3 180/1/3 184/1/3
f 186/2/3 181/2/3 185/2/3
f 187/1/3 183/1/3 182/1/3
f 188/1/3 183/1/3 187/1/3
f 191/4/3 190/4/3 189/4/3
f 192/4/3 190/4/3 191/4/3
f 195/4/3 194/4/3 193/4/3
f 196/4/3 194/4/3 195/4/3
f 202/1/3 198/1/3 197/1/3
f 203/2/3 199/2/3 198/2/3
f 203/1/3 198/1/3 202/1/3
f 204/2/3 199/2/3 203/2/3
f 205/1/3 201/1/3 200/1/3
f 206/1/3 201/1/3 205/1/3
f 207/1/4 208/1/4 212/1/4
f 208/2/4 209/2/4 213/2/4
f 212/1/4 208/1/4 213/1/4
f 213/2/4 209/2/4 214/2/4
f 210/1/4 211/1/4 215/1/4
f 215/1/4 211/1/4 216/1/4
f 217/4/4 218/4/4 219/4/4
f 219/4/4 218/4/4 220/4/4
f 221/4/4 222/4/4 223/4/4
f 223/4/4 222/4/4 224/4/4
f 225/1/4 226/1/4 230/1/4
f 226/2/4 227/2/4 231/2/4
f 230/1/4 226/1/4 231/1/4
f 231/2/4 227/2/4 232/2/4
f 228/1/4 229/1/4 233/1/4
f 233/1/4 229/1/4 234/1/4
f 235/2/4 236/2/4 241/2/4
f 241/2/4 236/2/4 242/2/4
f 239/1/4 240/1/4 243/1/4
f 240/2/4 241/2/4 244/2/4
f 243/1/4 240/1/4 244/1/4
f 244/2/4 241/2/4 245/2/4
f 237/3/4 238/3/4 246/3/4
f 246/3/4 238/3/4 247/3/4
f 248/3/4 249/3/4 253/3/4
f 253/3/4 249/3/4 254/3/4
f 250/1/4 251/1/4 255/1/4
f 251/2/4 252/2/4 256/2/4
f 255/1/4 251/1/4 256/1/4
f 256/2/4 252/2/4 257/2/4
f 257/2/4 258/2/4 259/2/4
f 259/2/4 258/2/4 260/2/4
f 262/2/4 263/2/4 266/2/4
f 264/2/4 265/2/4 268/2/4
f 268/2/4 265/2/4 269/2/4
f 266/1/4 267/1/4 270/1/4
f 262/2/4 266/2/4 270/2/4
f 267/2/4 268/2/4 271/2/4
f 270/1/4 267/1/4 271/1/4
f 271/2/4 268/2/4 272/2/4
f 261/3/4 262/3/4 274/3/4
f 262/2/4 270/2/4 275/2/4
f 274/3/4 262/3/4 275/3/4
f 275/2/4 270/2/4 276/2/4
f 272/2/4 273/2/4 277/2/4
f 277/2/4 273/2/4 278/2/4
f 279/2/4 280/2/4 281/2/4
f 281/2/4 280/2/4 282/2/4
f 287/4/5 284/4/5 283/4/5
f 288/4/5 284/4/5 287/4/5
f 289/4/5 286/4/5 285/4/5
f 290/4/5 286/4/5 289/4/5
f 295/3/5 292/3/5 291/3/5
f 296/3/5 292/3/5 295/3/5
f 297/3/5 294/3/5 293/3/5
f 298/3/5 294/3/5 297/3/5
f 299/3/5 295/3/5 291/3/5
f 302/3/5 294/3/5 298/3/5
f 303/3/5 300/3/5 299/3/5
f 303/3/5 299/3/5 291/3/5
f 304/3/5 300/3/5 303/3/5
f 305/3/5 302/3/5 301/3/5
f 306/3/5 294/3/5 302/3/5
f 306/3/5 302/3/5 305/3/5
f 309/3/5 308/3/5 307/3/5
f 310/3/5 308/3/5 309/3/5
f 311/3/5 308/3/5 310/3/5
f 312/3/5 308/3/5 311/3/5
f 315/3/5 311/3/5 310/3/5
f 316/3/5 311/3/5 315/3/5
f 319/1/5 314/1/5 313/1/5
f 320/1/5 314/1/5 319/1/5
f 321/3/5 316/3/5 315/3/5
f 322/3/5 316/3/5 321/3/5
f 323/1/5 318/1/5 317/1/5
f 324/1/5 318/1/5 323/1/5
f 326/3/5 322/3/5 321/3/5
f 327/3/5 322/3/5 326/3/5
f 329/3/5 326/3/5 325/3/5
f 329/3/5 328/3/5 327/3/5
f 329/3/5 327/3/5 326/3/5
f 330/3/5 328/3/5 329/3/5
f 335/1/5 332/1/5 331/1/5
f 336/1/5 332/1/5 335/1/5
f 337/1/5 334/1/5 333/1/5
f 338/1/5 334/1/5 337/1/5
f 342/2/5 340/2/5 339/2/5
f 343/2/5 340/2/5 342/2/5
f 345/2/5 342/2/5 341/2/5
f 346/2/5 342/2/5 345/2/5
f 349/2/5 344/2/5 343/2/5
f 350/2/5 344/2/5 349/2/5
f 351/2/5 347/2/5 346/2/5
f 352/2/5 347/2/5 351/2/5
f 353/2/5 349/2/5 348/2/5
f 354/2/5 349/2/5 353/2/5
f 355/2/5 353/2/5 352/2/5
f 356/2/5 353/2/5 355/2/5
f 357/2/6 358/2/6 359/2/6
f 359/2/6 358/2/6 360/2/6
f 361/2/6 362/2/6 365/2/6
f 365/2/6 362/2/6 366/2/6
f 363/2/6 364/2/6 367/2/6
f 367/2/6 364/2/6 368/2/6
f 369/2/6 370/2/6 373/2/6
f 373/2/6 370/2/6 374/2/6
f 371/2/6 372/2/6 375/2/6
f 375/2/6 372/2/6 376/2/6
f 377/1/6 378/1/6 381/1/6
f 381/1/6 378/1/6 382/1/6
f 379/1/6 380/1/6 383/1/6
f 383/1/6 380/1/6 384/1/6
f 385/2/6 386/2/6 388/2/6
f 388/2/6 386/2/6 389/2/6
f 387/2/6 388/2/6 391/2/6
f 389/2/6 390/2/6 391/2/6
f 388/2/6 389/2/6 391/2/6
f 391/2/6 390/2/6 392/2/6
f 392/2/6 390/2/6 393/2/6
f 393/2/6 390/2/6 394/2/6
f 392/2/6 393/2/6 395/2/6
f 395/2/6 393/2/6 396/2/6
f 396/2/6 393/2/6 397/2/6
f 397/2/6 393/2/6 398/2/6
f 396/2/6 397/2/6 399/2/6
f 399/2/6 397/2/6 400/2/6
