# MagicaVoxel @ Ephtracy

# material
mtllib chr_costume1.mtl
usemtl palette

# normals
vn -1 0 0
vn 1 0 0
vn 0 0 1
vn 0 0 -1
vn 0 -1 0
vn 0 1 0

# texcoords
vt 0.0332031 0.5
vt 0.849609 0.5
vt 0.857422 0.5
vt 0.865234 0.5
vt 0.990234 0.5
vt 0.994141 0.5

# verts
v -4 2 1
v -4 2 -0
v -4 3 1
v -4 3 -0
v -4 6 3
v -4 6 2
v -4 6 1
v -4 6 -0
v -4 6 -1
v -4 10 3
v -4 10 2
v -4 10 -1
v -3 1 2
v -3 1 -1
v -3 2 3
v -3 2 2
v -3 2 1
v -3 2 -0
v -3 2 -1
v -3 2 -2
v -3 3 1
v -3 3 -0
v -3 5 3
v -3 5 2
v -3 6 3
v -3 6 2
v -3 6 1
v -3 6 -0
v -3 6 -1
v -3 10 3
v -3 10 2
v -3 10 -1
v -3 10 -2
v -3 11 3
v -3 11 2
v -3 11 1
v -3 11 -0
v -3 11 -1
v -3 12 1
v -3 12 -0
v -2 0 1
v -2 0 -0
v -2 1 1
v -2 1 -0
v -2 6 -2
v -2 6 -3
v -2 10 -1
v -2 10 -2
v -2 10 -3
v -2 11 -1
v -2 11 -2
v 1 0 1
v 1 0 -0
v 1 1 2
v 1 1 1
v 1 1 -0
v 1 1 -1
v 1 2 2
v 1 2 -1
v 2 9 3
v 2 9 2
v 2 10 3
v 2 10 2
v 2 11 1
v 2 11 -0
v 2 12 1
v 2 12 -0
v 3 6 3
v 3 6 2
v 3 9 3
v 3 9 2
v -3 6 3
v -3 6 2
v -3 9 3
v -3 9 2
v -2 9 3
v -2 9 2
v -2 10 3
v -2 10 2
v -2 11 1
v -2 11 -0
v -2 12 1
v -2 12 -0
v -1 0 1
v -1 0 -0
v -1 1 2
v -1 1 1
v -1 1 -0
v -1 1 -1
v -1 2 2
v -1 2 -1
v 2 0 1
v 2 0 -0
v 2 1 1
v 2 1 -0
v 2 6 -2
v 2 6 -3
v 2 10 -1
v 2 10 -2
v 2 10 -3
v 2 11 -1
v 2 11 -2
v 3 1 2
v 3 1 -1
v 3 2 3
v 3 2 2
v 3 2 1
v 3 2 -0
v 3 2 -1
v 3 2 -2
v 3 3 1
v 3 3 -0
v 3 5 3
v 3 5 2
v 3 6 3
v 3 6 2
v 3 6 1
v 3 6 -0
v 3 6 -1
v 3 10 3
v 3 10 2
v 3 10 -1
v 3 10 -2
v 3 11 3
v 3 11 2
v 3 11 1
v 3 11 -0
v 3 11 -1
v 3 12 1
v 3 12 -0
v 4 2 1
v 4 2 -0
v 4 3 1
v 4 3 -0
v 4 6 3
v 4 6 2
v 4 6 1
v 4 6 -0
v 4 6 -1
v 4 10 3
v 4 10 2
v 4 10 -1
v -4 6 3
v -4 10 3
v -3 2 3
v -3 5 3
v -3 6 3
v -3 9 3
v -3 10 3
v -3 11 3
v -2 9 3
v -2 10 3
v 2 9 3
v 2 10 3
v 3 2 3
v 3 5 3
v 3 6 3
v 3 9 3
v 3 10 3
v 3 11 3
v 4 6 3
v 4 10 3
v -3 1 2
v -3 2 2
v -3 6 2
v -3 9 2
v -2 7 2
v -2 8 2
v -2 9 2
v -2 10 2
v -1 1 2
v -1 2 2
v -1 7 2
v -1 8 2
v 1 1 2
v 1 2 2
v 1 7 2
v 1 8 2
v 2 7 2
v 2 8 2
v 2 9 2
v 2 10 2
v 3 1 2
v 3 2 2
v 3 6 2
v 3 9 2
v -4 2 1
v -4 3 1
v -4 6 1
v -3 2 1
v -3 3 1
v -3 6 1
v -3 11 1
v -3 12 1
v -2 0 1
v -2 1 1
v -2 11 1
v -2 12 1
v -1 0 1
v -1 1 1
v 1 0 1
v 1 1 1
v 2 0 1
v 2 1 1
v 2 11 1
v 2 12 1
v 3 2 1
v 3 3 1
v 3 6 1
v 3 11 1
v 3 12 1
v 4 2 1
v 4 3 1
v 4 6 1
v -4 2 -0
v -4 3 -0
v -4 6 -0
v -3 2 -0
v -3 3 -0
v -3 6 -0
v -3 11 -0
v -3 12 -0
v -2 0 -0
v -2 1 -0
v -2 11 -0
v -2 12 -0
v -1 0 -0
v -1 1 -0
v 1 0 -0
v 1 1 -0
v 2 0 -0
v 2 1 -0
v 2 11 -0
v 2 12 -0
v 3 2 -0
v 3 3 -0
v 3 6 -0
v 3 11 -0
v 3 12 -0
v 4 2 -0
v 4 3 -0
v 4 6 -0
v -4 6 -1
v -4 10 -1
v -3 1 -1
v -3 2 -1
v -3 6 -1
v -3 10 -1
v -3 11 -1
v -2 10 -1
v -2 11 -1
v -1 1 -1
v -1 2 -1
v 1 1 -1
v 1 2 -1
v 2 10 -1
v 2 11 -1
v 3 1 -1
v 3 2 -1
v 3 6 -1
v 3 10 -1
v 3 11 -1
v 4 6 -1
v 4 10 -1
v -3 2 -2
v -3 10 -2
v -2 6 -2
v -2 10 -2
v -2 11 -2
v 2 6 -2
v 2 10 -2
v 2 11 -2
v 3 2 -2
v 3 10 -2
v -2 6 -3
v -2 10 -3
v 2 6 -3
v 2 10 -3
v -2 0 1
v -1 0 1
v 1 0 1
v 2 0 1
v -2 0 -0
v -1 0 -0
v 1 0 -0
v 2 0 -0
v -3 1 2
v -1 1 2
v 1 1 2
v 3 1 2
v -2 1 1
v -1 1 1
v 1 1 1
v 2 1 1
v -2 1 -0
v -1 1 -0
v 1 1 -0
v 2 1 -0
v -3 1 -1
v -1 1 -1
v 1 1 -1
v 3 1 -1
v -3 2 3
v 3 2 3
v -3 2 2
v -1 2 2
v 1 2 2
v 3 2 2
v -4 2 1
v -3 2 1
v 3 2 1
v 4 2 1
v -4 2 -0
v -3 2 -0
v 3 2 -0
v 4 2 -0
v -3 2 -1
v -1 2 -1
v 1 2 -1
v 3 2 -1
v -3 2 -2
v 3 2 -2
v -4 6 3
v -3 6 3
v 3 6 3
v 4 6 3
v -4 6 2
v -3 6 2
v 3 6 2
v 4 6 2
v -4 6 1
v -3 6 1
v 3 6 1
v 4 6 1
v -4 6 -0
v -3 6 -0
v 3 6 -0
v 4 6 -0
v -4 6 -1
v -3 6 -1
v 3 6 -1
v 4 6 -1
v -2 6 -2
v 2 6 -2
v -2 6 -3
v 2 6 -3
v -3 9 3
v -2 9 3
v 2 9 3
v 3 9 3
v -3 9 2
v -2 9 2
v 2 9 2
v 3 9 2
v -2 10 3
v 2 10 3
v -2 10 2
v 2 10 2
v -3 6 3
v 3 6 3
v -3 6 2
v 3 6 2
v -4 10 3
v -3 10 3
v 3 10 3
v 4 10 3
v -4 10 2
v -3 10 2
v 3 10 2
v 4 10 2
v -4 10 -1
v -3 10 -1
v -2 10 -1
v 2 10 -1
v 3 10 -1
v 4 10 -1
v -3 10 -2
v -2 10 -2
v 2 10 -2
v 3 10 -2
v -2 10 -3
v 2 10 -3
v -3 11 3
v 3 11 3
v -3 11 2
v 3 11 2
v -3 11 1
v -2 11 1
v 2 11 1
v 3 11 1
v -3 11 -0
v -2 11 -0
v 2 11 -0
v 3 11 -0
v -3 11 -1
v -2 11 -1
v 2 11 -1
v 3 11 -1
v -2 11 -2
v 2 11 -2
v -3 12 1
v -2 12 1
v 2 12 1
v 3 12 1
v -3 12 -0
v -2 12 -0
v 2 12 -0
v 3 12 -0

# faces
f 3/1/1 2/1/1 1/1/1
f 4/1/1 2/1/1 3/1/1
f 7/2/1 4/2/1 3/2/1
f 8/2/1 4/2/1 7/2/1
f 10/3/1 6/3/1 5/3/1
f 11/2/1 9/2/1 8/2/1
f 11/3/1 6/3/1 10/3/1
f 11/2/1 8/2/1 7/2/1
f 11/2/1 7/2/1 6/2/1
f 12/2/1 9/2/1 11/2/1
f 16/2/1 14/2/1 13/2/1
f 17/2/1 14/2/1 16/2/1
f 18/2/1 14/2/1 17/2/1
f 19/2/1 14/2/1 18/2/1
f 21/2/1 16/2/1 15/2/1
f 21/2/1 17/2/1 16/2/1
f 22/2/1 20/2/1 19/2/1
f 22/2/1 19/2/1 18/2/1
f 23/2/1 21/2/1 15/2/1
f 24/2/1 21/2/1 23/2/1
f 25/3/1 24/3/1 23/3/1
f 26/2/1 21/2/1 24/2/1
f 26/3/1 24/3/1 25/3/1
f 27/2/1 21/2/1 26/2/1
f 28/2/1 20/2/1 22/2/1
f 29/2/1 20/2/1 28/2/1
f 32/2/1 20/2/1 29/2/1
f 33/2/1 20/2/1 32/2/1
f 34/3/1 31/3/1 30/3/1
f 35/2/1 32/2/1 31/2/1
f 35/3/1 31/3/1 34/3/1
f 36/2/1 32/2/1 35/2/1
f 37/2/1 32/2/1 36/2/1
f 38/2/1 32/2/1 37/2/1
f 39/4/1 37/4/1 36/4/1
f 40/4/1 37/4/1 39/4/1
f 43/5/1 42/5/1 41/5/1
f 44/5/1 42/5/1 43/5/1
f 48/2/1 46/2/1 45/2/1
f 49/2/1 46/2/1 48/2/1
f 50/2/1 48/2/1 47/2/1
f 51/2/1 48/2/1 50/2/1
f 55/5/1 53/5/1 52/5/1
f 56/5/1 53/5/1 55/5/1
f 58/2/1 55/2/1 54/2/1
f 58/2/1 57/2/1 56/2/1
f 58/2/1 56/2/1 55/2/1
f 59/2/1 57/2/1 58/2/1
f 62/3/1 61/3/1 60/3/1
f 63/3/1 61/3/1 62/3/1
f 66/4/1 65/4/1 64/4/1
f 67/4/1 65/4/1 66/4/1
f 70/3/1 69/3/1 68/3/1
f 71/3/1 69/3/1 70/3/1
f 72/3/2 73/3/2 74/3/2
f 74/3/2 73/3/2 75/3/2
f 76/3/2 77/3/2 78/3/2
f 78/3/2 77/3/2 79/3/2
f 80/4/2 81/4/2 82/4/2
f 82/4/2 81/4/2 83/4/2
f 84/5/2 85/5/2 87/5/2
f 87/5/2 85/5/2 88/5/2
f 86/2/2 87/2/2 90/2/2
f 88/2/2 89/2/2 90/2/2
f 87/2/2 88/2/2 90/2/2
f 90/2/2 89/2/2 91/2/2
f 92/5/2 93/5/2 94/5/2
f 94/5/2 93/5/2 95/5/2
f 96/2/2 97/2/2 99/2/2
f 99/2/2 97/2/2 100/2/2
f 98/2/2 99/2/2 101/2/2
f 101/2/2 99/2/2 102/2/2
f 103/2/2 104/2/2 106/2/2
f 106/2/2 104/2/2 107/2/2
f 107/2/2 104/2/2 108/2/2
f 108/2/2 104/2/2 109/2/2
f 105/2/2 106/2/2 111/2/2
f 106/2/2 107/2/2 111/2/2
f 109/2/2 110/2/2 112/2/2
f 108/2/2 109/2/2 112/2/2
f 105/2/2 111/2/2 113/2/2
f 113/2/2 111/2/2 114/2/2
f 113/3/2 114/3/2 115/3/2
f 114/2/2 111/2/2 116/2/2
f 115/3/2 114/3/2 116/3/2
f 116/2/2 111/2/2 117/2/2
f 112/2/2 110/2/2 118/2/2
f 118/2/2 110/2/2 119/2/2
f 119/2/2 110/2/2 122/2/2
f 122/2/2 110/2/2 123/2/2
f 120/3/2 121/3/2 124/3/2
f 121/2/2 122/2/2 125/2/2
f 124/3/2 121/3/2 125/3/2
f 125/2/2 122/2/2 126/2/2
f 126/2/2 122/2/2 127/2/2
f 127/2/2 122/2/2 128/2/2
f 126/4/2 127/4/2 129/4/2
f 129/4/2 127/4/2 130/4/2
f 131/1/2 132/1/2 133/1/2
f 133/1/2 132/1/2 134/1/2
f 133/2/2 134/2/2 137/2/2
f 137/2/2 134/2/2 138/2/2
f 135/3/2 136/3/2 140/3/2
f 138/2/2 139/2/2 141/2/2
f 140/3/2 136/3/2 141/3/2
f 137/2/2 138/2/2 141/2/2
f 136/2/2 137/2/2 141/2/2
f 141/2/2 139/2/2 142/2/2
f 147/3/3 144/3/3 143/3/3
f 148/3/3 144/3/3 147/3/3
f 149/3/3 144/3/3 148/3/3
f 151/3/3 150/3/3 149/3/3
f 151/3/3 149/3/3 148/3/3
f 152/3/3 150/3/3 151/3/3
f 154/3/3 150/3/3 152/3/3
f 155/2/3 146/2/3 145/2/3
f 156/3/3 147/3/3 146/3/3
f 156/2/3 146/2/3 155/2/3
f 157/3/3 147/3/3 156/3/3
f 158/3/3 154/3/3 153/3/3
f 159/3/3 150/3/3 154/3/3
f 159/3/3 154/3/3 158/3/3
f 160/3/3 150/3/3 159/3/3
f 161/3/3 158/3/3 157/3/3
f 161/3/3 159/3/3 158/3/3
f 162/3/3 159/3/3 161/3/3
f 167/1/3 166/1/3 165/1/3
f 168/1/3 166/1/3 167/1/3
f 169/1/3 166/1/3 168/1/3
f 171/2/3 164/2/3 163/2/3
f 172/2/3 164/2/3 171/2/3
f 173/1/3 167/1/3 165/1/3
f 173/6/3 168/6/3 167/6/3
f 174/1/3 170/1/3 169/1/3
f 174/6/3 168/6/3 173/6/3
f 174/1/3 169/1/3 168/1/3
f 177/1/3 173/1/3 165/1/3
f 177/1/3 174/1/3 173/1/3
f 178/1/3 170/1/3 174/1/3
f 178/1/3 174/1/3 177/1/3
f 179/1/3 177/1/3 165/1/3
f 179/6/3 178/6/3 177/6/3
f 180/1/3 170/1/3 178/1/3
f 180/6/3 178/6/3 179/6/3
f 181/1/3 170/1/3 180/1/3
f 182/1/3 170/1/3 181/1/3
f 183/2/3 176/2/3 175/2/3
f 184/2/3 176/2/3 183/2/3
f 185/1/3 179/1/3 165/1/3
f 185/1/3 180/1/3 179/1/3
f 185/1/3 181/1/3 180/1/3
f 186/1/3 181/1/3 185/1/3
f 190/1/3 188/1/3 187/1/3
f 191/2/3 189/2/3 188/2/3
f 191/1/3 188/1/3 190/1/3
f 192/2/3 189/2/3 191/2/3
f 197/4/3 194/4/3 193/4/3
f 198/4/3 194/4/3 197/4/3
f 199/5/3 196/5/3 195/5/3
f 200/5/3 196/5/3 199/5/3
f 203/5/3 202/5/3 201/5/3
f 204/5/3 202/5/3 203/5/3
f 210/4/3 206/4/3 205/4/3
f 211/4/3 206/4/3 210/4/3
f 212/1/3 208/1/3 207/1/3
f 213/2/3 209/2/3 208/2/3
f 213/1/3 208/1/3 212/1/3
f 214/2/3 209/2/3 213/2/3
f 215/1/4 216/1/4 218/1/4
f 216/2/4 217/2/4 219/2/4
f 218/1/4 216/1/4 219/1/4
f 219/2/4 217/2/4 220/2/4
f 221/4/4 222/4/4 225/4/4
f 225/4/4 222/4/4 226/4/4
f 223/5/4 224/5/4 227/5/4
f 227/5/4 224/5/4 228/5/4
f 229/5/4 230/5/4 231/5/4
f 231/5/4 230/5/4 232/5/4
f 233/4/4 234/4/4 238/4/4
f 238/4/4 234/4/4 239/4/4
f 235/1/4 236/1/4 240/1/4
f 236/2/4 237/2/4 241/2/4
f 240/1/4 236/1/4 241/1/4
f 241/2/4 237/2/4 242/2/4
f 243/2/4 244/2/4 247/2/4
f 247/2/4 244/2/4 248/2/4
f 248/2/4 249/2/4 250/2/4
f 250/2/4 249/2/4 251/2/4
f 245/2/4 246/2/4 252/2/4
f 252/2/4 246/2/4 253/2/4
f 254/2/4 255/2/4 258/2/4
f 258/2/4 255/2/4 259/2/4
f 256/2/4 257/2/4 261/2/4
f 261/2/4 257/2/4 262/2/4
f 260/2/4 261/2/4 263/2/4
f 263/2/4 261/2/4 264/2/4
f 265/2/4 266/2/4 267/2/4
f 267/2/4 266/2/4 268/2/4
f 265/2/4 267/2/4 270/2/4
f 268/2/4 269/2/4 271/2/4
f 271/2/4 269/2/4 272/2/4
f 265/2/4 270/2/4 273/2/4
f 270/2/4 271/2/4 273/2/4
f 273/2/4 271/2/4 274/2/4
f 275/2/4 276/2/4 277/2/4
f 277/2/4 276/2/4 278/2/4
f 283/5/5 280/5/5 279/5/5
f 284/5/5 280/5/5 283/5/5
f 285/5/5 282/5/5 281/5/5
f 286/5/5 282/5/5 285/5/5
f 291/2/5 288/2/5 287/2/5
f 292/2/5 288/2/5 291/2/5
f 293/2/5 290/2/5 289/2/5
f 294/2/5 290/2/5 293/2/5
f 295/2/5 291/2/5 287/2/5
f 298/2/5 290/2/5 294/2/5
f 299/2/5 296/2/5 295/2/5
f 299/2/5 295/2/5 287/2/5
f 300/2/5 296/2/5 299/2/5
f 301/2/5 298/2/5 297/2/5
f 302/2/5 290/2/5 298/2/5
f 302/2/5 298/2/5 301/2/5
f 305/2/5 304/2/5 303/2/5
f 306/2/5 304/2/5 305/2/5
f 307/2/5 304/2/5 306/2/5
f 308/2/5 304/2/5 307/2/5
f 313/1/5 310/1/5 309/1/5
f 314/1/5 310/1/5 313/1/5
f 315/1/5 312/1/5 311/1/5
f 316/1/5 312/1/5 315/1/5
f 318/2/5 307/2/5 306/2/5
f 319/2/5 307/2/5 318/2/5
f 321/2/5 318/2/5 317/2/5
f 321/2/5 320/2/5 319/2/5
f 321/2/5 319/2/5 318/2/5
f 322/2/5 320/2/5 321/2/5
f 327/3/5 324/3/5 323/3/5
f 328/3/5 324/3/5 327/3/5
f 329/3/5 326/3/5 325/3/5
f 330/3/5 326/3/5 329/3/5
f 331/2/5 328/2/5 327/2/5
f 332/2/5 328/2/5 331/2/5
f 333/2/5 330/2/5 329/2/5
f 334/2/5 330/2/5 333/2/5
f 339/2/5 336/2/5 335/2/5
f 340/2/5 336/2/5 339/2/5
f 341/2/5 338/2/5 337/2/5
f 342/2/5 338/2/5 341/2/5
f 345/2/5 344/2/5 343/2/5
f 346/2/5 344/2/5 345/2/5
f 351/3/5 348/3/5 347/3/5
f 352/3/5 348/3/5 351/3/5
f 353/3/5 350/3/5 349/3/5
f 354/3/5 350/3/5 353/3/5
f 357/3/5 356/3/5 355/3/5
f 358/3/5 356/3/5 357/3/5
f 359/3/6 360/3/6 361/3/6
f 361/3/6 360/3/6 362/3/6
f 363/3/6 364/3/6 367/3/6
f 367/3/6 364/3/6 368/3/6
f 365/3/6 366/3/6 369/3/6
f 369/3/6 366/3/6 370/3/6
f 367/2/6 368/2/6 371/2/6
f 371/2/6 368/2/6 372/2/6
f 369/2/6 370/2/6 375/2/6
f 375/2/6 370/2/6 376/2/6
f 372/2/6 373/2/6 377/2/6
f 377/2/6 373/2/6 378/2/6
f 374/2/6 375/2/6 379/2/6
f 379/2/6 375/2/6 380/2/6
f 378/2/6 379/2/6 381/2/6
f 381/2/6 379/2/6 382/2/6
f 383/3/6 384/3/6 385/3/6
f 385/3/6 384/3/6 386/3/6
f 385/2/6 386/2/6 387/2/6
f 387/2/6 386/2/6 388/2/6
f 388/2/6 386/2/6 389/2/6
f 389/2/6 386/2/6 390/2/6
f 388/2/6 389/2/6 392/2/6
f 392/2/6 389/2/6 393/2/6
f 391/2/6 392/2/6 395/2/6
f 393/2/6 394/2/6 395/2/6
f 392/2/6 393/2/6 395/2/6
f 395/2/6 394/2/6 396/2/6
f 396/2/6 394/2/6 397/2/6
f 397/2/6 394/2/6 398/2/6
f 396/2/6 397/2/6 399/2/6
f 399/2/6 397/2/6 400/2/6
f 401/4/6 402/4/6 405/4/6
f 405/4/6 402/4/6 406/4/6
f 403/4/6 404/4/6 407/4/6
f 407/4/6 404/4/6 408/4/6
