# MagicaVoxel @ Ephtracy

# material
mtllib chr_hazmat1.mtl
usemtl palette

# normals
vn -1 0 0
vn 1 0 0
vn 0 0 1
vn 0 0 -1
vn 0 -1 0
vn 0 1 0

# texcoords
vt 0.0332031 0.5
vt 0.0410156 0.5
vt 0.0683594 0.5
vt 0.587891 0.5
vt 0.958984 0.5
vt 0.970703 0.5
vt 0.990234 0.5
vt 0.994141 0.5

# verts
v -4 2 1.5
v -4 2 0.5
v -4 3 1.5
v -4 3 0.5
v -4 6 1.5
v -4 6 0.5
v -3 1 2.5
v -3 1 -0.5
v -3 2 3.5
v -3 2 2.5
v -3 2 1.5
v -3 2 0.5
v -3 2 -0.5
v -3 2 -1.5
v -3 3 1.5
v -3 3 0.5
v -3 6 1.5
v -3 6 0.5
v -3 11 3.5
v -3 11 -1.5
v -2 0 1.5
v -2 0 0.5
v -2 1 1.5
v -2 1 0.5
v -1 4 -1.5
v -1 4 -3.5
v -1 9 -1.5
v -1 9 -3.5
v 1 0 1.5
v 1 0 0.5
v 1 1 2.5
v 1 1 1.5
v 1 1 0.5
v 1 1 -0.5
v 1 2 2.5
v 1 2 -0.5
v -1 0 1.5
v -1 0 0.5
v -1 1 2.5
v -1 1 1.5
v -1 1 0.5
v -1 1 -0.5
v -1 2 2.5
v -1 2 1.5
v -1 2 0.5
v -1 2 -0.5
v 1 4 -1.5
v 1 4 -3.5
v 1 9 -1.5
v 1 9 -3.5
v 2 0 1.5
v 2 0 0.5
v 2 1 1.5
v 2 1 0.5
v 3 1 2.5
v 3 1 -0.5
v 3 2 3.5
v 3 2 2.5
v 3 2 1.5
v 3 2 0.5
v 3 2 -0.5
v 3 2 -1.5
v 3 3 1.5
v 3 3 0.5
v 3 6 1.5
v 3 6 0.5
v 3 11 3.5
v 3 11 -1.5
v 4 2 1.5
v 4 2 0.5
v 4 3 1.5
v 4 3 0.5
v 4 6 1.5
v 4 6 0.5
v -3 2 3.5
v -3 11 3.5
v -2 7 3.5
v -2 9 3.5
v 2 7 3.5
v 2 9 3.5
v 3 2 3.5
v 3 11 3.5
v -3 1 2.5
v -3 2 2.5
v -1 1 2.5
v -1 2 2.5
v 1 1 2.5
v 1 2 2.5
v 3 1 2.5
v 3 2 2.5
v -4 2 1.5
v -4 3 1.5
v -4 6 1.5
v -3 2 1.5
v -3 3 1.5
v -3 6 1.5
v -2 0 1.5
v -2 1 1.5
v -1 0 1.5
v -1 1 1.5
v 1 0 1.5
v 1 1 1.5
v 2 0 1.5
v 2 1 1.5
v 3 2 1.5
v 3 3 1.5
v 3 6 1.5
v 4 2 1.5
v 4 3 1.5
v 4 6 1.5
v -4 2 0.5
v -4 3 0.5
v -4 6 0.5
v -3 2 0.5
v -3 3 0.5
v -3 6 0.5
v -2 0 0.5
v -2 1 0.5
v -1 0 0.5
v -1 1 0.5
v 1 0 0.5
v 1 1 0.5
v 2 0 0.5
v 2 1 0.5
v 3 2 0.5
v 3 3 0.5
v 3 6 0.5
v 4 2 0.5
v 4 3 0.5
v 4 6 0.5
v -3 1 -0.5
v -3 2 -0.5
v -1 1 -0.5
v -1 2 -0.5
v 1 1 -0.5
v 1 2 -0.5
v 3 1 -0.5
v 3 2 -0.5
v -3 2 -1.5
v -3 11 -1.5
v -1 4 -1.5
v -1 9 -1.5
v 1 4 -1.5
v 1 9 -1.5
v 3 2 -1.5
v 3 11 -1.5
v -1 4 -3.5
v -1 9 -3.5
v 1 4 -3.5
v 1 9 -3.5
v -2 0 1.5
v -1 0 1.5
v 1 0 1.5
v 2 0 1.5
v -2 0 0.5
v -1 0 0.5
v 1 0 0.5
v 2 0 0.5
v -3 1 2.5
v -1 1 2.5
v 1 1 2.5
v 3 1 2.5
v -2 1 1.5
v -1 1 1.5
v 1 1 1.5
v 2 1 1.5
v -2 1 0.5
v -1 1 0.5
v 1 1 0.5
v 2 1 0.5
v -3 1 -0.5
v -1 1 -0.5
v 1 1 -0.5
v 3 1 -0.5
v -3 2 3.5
v 3 2 3.5
v -3 2 2.5
v -1 2 2.5
v 1 2 2.5
v 3 2 2.5
v -4 2 1.5
v -3 2 1.5
v -1 2 1.5
v 3 2 1.5
v 4 2 1.5
v -4 2 0.5
v -3 2 0.5
v -1 2 0.5
v 3 2 0.5
v 4 2 0.5
v -3 2 -0.5
v -1 2 -0.5
v 1 2 -0.5
v 3 2 -0.5
v -3 2 -1.5
v 3 2 -1.5
v -1 4 -1.5
v 1 4 -1.5
v -1 4 -3.5
v 1 4 -3.5
v -4 6 1.5
v -3 6 1.5
v 3 6 1.5
v 4 6 1.5
v -4 6 0.5
v -3 6 0.5
v 3 6 0.5
v 4 6 0.5
v -1 9 -1.5
v 1 9 -1.5
v -1 9 -3.5
v 1 9 -3.5
v -3 11 3.5
v 3 11 3.5
v -3 11 -1.5
v 3 11 -1.5

# faces
f 3/4/1 2/4/1 1/4/1
f 4/4/1 2/4/1 3/4/1
f 5/2/1 4/2/1 3/2/1
f 6/2/1 4/2/1 5/2/1
f 10/2/1 8/2/1 7/2/1
f 11/2/1 8/2/1 10/2/1
f 12/2/1 8/2/1 11/2/1
f 13/2/1 8/2/1 12/2/1
f 15/2/1 10/2/1 9/2/1
f 15/2/1 11/2/1 10/2/1
f 16/2/1 14/2/1 13/2/1
f 16/2/1 13/2/1 12/2/1
f 17/2/1 15/2/1 9/2/1
f 18/2/1 14/2/1 16/2/1
f 19/2/1 17/2/1 9/2/1
f 19/2/1 18/2/1 17/2/1
f 20/2/1 14/2/1 18/2/1
f 20/2/1 18/2/1 19/2/1
f 23/7/1 22/7/1 21/7/1
f 24/7/1 22/7/1 23/7/1
f 27/3/1 26/3/1 25/3/1
f 28/3/1 26/3/1 27/3/1
f 32/7/1 30/7/1 29/7/1
f 33/7/1 30/7/1 32/7/1
f 35/2/1 32/2/1 31/2/1
f 35/2/1 34/2/1 33/2/1
f 35/2/1 33/2/1 32/2/1
f 36/2/1 34/2/1 35/2/1
f 37/7/2 38/7/2 40/7/2
f 40/7/2 38/7/2 41/7/2
f 39/2/2 40/2/2 43/2/2
f 40/6/2 41/6/2 44/6/2
f 43/2/2 40/2/2 44/2/2
f 41/2/2 42/2/2 45/2/2
f 44/6/2 41/6/2 45/6/2
f 45/2/2 42/2/2 46/2/2
f 47/3/2 48/3/2 49/3/2
f 49/3/2 48/3/2 50/3/2
f 51/7/2 52/7/2 53/7/2
f 53/7/2 52/7/2 54/7/2
f 55/2/2 56/2/2 58/2/2
f 58/2/2 56/2/2 59/2/2
f 59/2/2 56/2/2 60/2/2
f 60/2/2 56/2/2 61/2/2
f 57/2/2 58/2/2 63/2/2
f 58/2/2 59/2/2 63/2/2
f 61/2/2 62/2/2 64/2/2
f 60/2/2 61/2/2 64/2/2
f 57/2/2 63/2/2 65/2/2
f 64/2/2 62/2/2 66/2/2
f 57/2/2 65/2/2 67/2/2
f 65/2/2 66/2/2 67/2/2
f 66/2/2 62/2/2 68/2/2
f 67/2/2 66/2/2 68/2/2
f 69/4/2 70/4/2 71/4/2
f 71/4/2 70/4/2 72/4/2
f 71/2/2 72/2/2 73/2/2
f 73/2/2 72/2/2 74/2/2
f 77/2/3 76/2/3 75/2/3
f 78/2/3 76/2/3 77/2/3
f 79/2/3 77/2/3 75/2/3
f 79/5/3 78/5/3 77/5/3
f 80/2/3 76/2/3 78/2/3
f 80/5/3 78/5/3 79/5/3
f 81/2/3 79/2/3 75/2/3
f 81/2/3 80/2/3 79/2/3
f 82/2/3 76/2/3 80/2/3
f 82/2/3 80/2/3 81/2/3
f 85/2/3 84/2/3 83/2/3
f 86/2/3 84/2/3 85/2/3
f 89/2/3 88/2/3 87/2/3
f 90/2/3 88/2/3 89/2/3
f 94/4/3 92/4/3 91/4/3
f 95/2/3 93/2/3 92/2/3
f 95/4/3 92/4/3 94/4/3
f 96/2/3 93/2/3 95/2/3
f 99/7/3 98/7/3 97/7/3
f 100/7/3 98/7/3 99/7/3
f 103/7/3 102/7/3 101/7/3
f 104/7/3 102/7/3 103/7/3
f 108/4/3 106/4/3 105/4/3
f 109/2/3 107/2/3 106/2/3
f 109/4/3 106/4/3 108/4/3
f 110/2/3 107/2/3 109/2/3
f 111/4/4 112/4/4 114/4/4
f 112/2/4 113/2/4 115/2/4
f 114/4/4 112/4/4 115/4/4
f 115/2/4 113/2/4 116/2/4
f 117/7/4 118/7/4 119/7/4
f 119/7/4 118/7/4 120/7/4
f 121/7/4 122/7/4 123/7/4
f 123/7/4 122/7/4 124/7/4
f 125/4/4 126/4/4 128/4/4
f 126/2/4 127/2/4 129/2/4
f 128/4/4 126/4/4 129/4/4
f 129/2/4 127/2/4 130/2/4
f 131/2/4 132/2/4 133/2/4
f 133/2/4 132/2/4 134/2/4
f 135/2/4 136/2/4 137/2/4
f 137/2/4 136/2/4 138/2/4
f 139/2/4 140/2/4 141/2/4
f 141/2/4 140/2/4 142/2/4
f 139/2/4 141/2/4 143/2/4
f 142/2/4 140/2/4 144/2/4
f 139/2/4 143/2/4 145/2/4
f 143/2/4 144/2/4 145/2/4
f 144/2/4 140/2/4 146/2/4
f 145/2/4 144/2/4 146/2/4
f 147/3/4 148/3/4 149/3/4
f 149/3/4 148/3/4 150/3/4
f 155/7/5 152/7/5 151/7/5
f 156/7/5 152/7/5 155/7/5
f 157/7/5 154/7/5 153/7/5
f 158/7/5 154/7/5 157/7/5
f 163/2/5 160/2/5 159/2/5
f 164/2/5 160/2/5 163/2/5
f 165/2/5 162/2/5 161/2/5
f 166/2/5 162/2/5 165/2/5
f 167/2/5 163/2/5 159/2/5
f 170/2/5 162/2/5 166/2/5
f 171/2/5 168/2/5 167/2/5
f 171/2/5 167/2/5 159/2/5
f 172/2/5 168/2/5 171/2/5
f 173/2/5 170/2/5 169/2/5
f 174/2/5 162/2/5 170/2/5
f 174/2/5 170/2/5 173/2/5
f 177/2/5 176/2/5 175/2/5
f 178/2/5 176/2/5 177/2/5
f 179/2/5 176/2/5 178/2/5
f 180/2/5 176/2/5 179/2/5
f 183/2/5 179/2/5 178/2/5
f 186/4/5 182/4/5 181/4/5
f 187/4/5 182/4/5 186/4/5
f 188/2/5 179/2/5 183/2/5
f 189/4/5 185/4/5 184/4/5
f 190/4/5 185/4/5 189/4/5
f 192/2/5 179/2/5 188/2/5
f 193/2/5 179/2/5 192/2/5
f 195/2/5 192/2/5 191/2/5
f 195/2/5 194/2/5 193/2/5
f 195/2/5 193/2/5 192/2/5
f 196/2/5 194/2/5 195/2/5
f 199/3/5 198/3/5 197/3/5
f 200/3/5 198/3/5 199/3/5
f 201/2/6 202/2/6 205/2/6
f 205/2/6 202/2/6 206/2/6
f 203/2/6 204/2/6 207/2/6
f 207/2/6 204/2/6 208/2/6
f 209/3/6 210/3/6 211/3/6
f 211/3/6 210/3/6 212/3/6
f 213/2/6 214/2/6 215/2/6
f 215/2/6 214/2/6 216/2/6
