# MagicaVoxel @ Ephtracy

# material
mtllib chr_janitor.mtl
usemtl palette

# normals
vn -1 0 0
vn 1 0 0
vn 0 0 1
vn 0 0 -1
vn 0 -1 0
vn 0 1 0

# texcoords
vt 0.0332031 0.5
vt 0.369141 0.5
vt 0.373047 0.5
vt 0.646484 0.5
vt 0.966797 0.5
vt 0.986328 0.5
vt 0.990234 0.5
vt 0.994141 0.5

# verts
v -4 2 1
v -4 2 -0
v -4 3 1
v -4 3 -0
v -4 6 1
v -4 6 -0
v -4 7 1
v -4 7 -0
v -4 7 -1
v -4 8 1
v -4 8 -0
v -4 9 2
v -4 9 1
v -4 10 2
v -4 10 -1
v -3 1 2
v -3 1 -1
v -3 2 3
v -3 2 2
v -3 2 1
v -3 2 -0
v -3 2 -1
v -3 2 -2
v -3 3 3
v -3 3 1
v -3 3 -0
v -3 3 -2
v -3 6 3
v -3 6 2
v -3 6 1
v -3 6 -0
v -3 6 -1
v -3 6 -2
v -3 7 1
v -3 7 -0
v -3 7 -1
v -3 7 -2
v -3 8 3
v -3 8 2
v -3 8 1
v -3 9 3
v -3 9 2
v -3 9 1
v -3 10 1
v -3 10 -1
v -3 10 -2
v -3 11 1
v -3 11 -1
v -2 0 1
v -2 0 -0
v -2 1 1
v -2 1 -0
v -2 6 -1
v -2 6 -2
v -2 7 -1
v -2 7 -2
v -2 7 -3
v -2 10 2
v -2 10 1
v -2 10 -1
v -2 10 -2
v -2 10 -3
v -2 11 2
v -2 11 1
v -2 11 -1
v -2 11 -2
v -1 6 -2
v -1 6 -3
v -1 7 -2
v -1 7 -3
v 1 0 1
v 1 0 -0
v 1 1 2
v 1 1 1
v 1 1 -0
v 1 1 -1
v 1 2 2
v 1 2 -1
v 1 8 3
v 1 8 2
v 1 9 3
v 1 9 2
v -1 0 1
v -1 0 -0
v -1 1 2
v -1 1 1
v -1 1 -0
v -1 1 -1
v -1 2 2
v -1 2 -1
v -1 8 3
v -1 8 2
v -1 9 3
v -1 9 2
v 1 6 -2
v 1 6 -3
v 1 7 -2
v 1 7 -3
v 2 0 1
v 2 0 -0
v 2 1 1
v 2 1 -0
v 2 6 -1
v 2 6 -2
v 2 7 -1
v 2 7 -2
v 2 7 -3
v 2 10 2
v 2 10 1
v 2 10 -1
v 2 10 -2
v 2 10 -3
v 2 11 2
v 2 11 1
v 2 11 -1
v 2 11 -2
v 3 1 2
v 3 1 -1
v 3 2 3
v 3 2 2
v 3 2 1
v 3 2 -0
v 3 2 -1
v 3 2 -2
v 3 3 3
v 3 3 1
v 3 3 -0
v 3 3 -2
v 3 6 3
v 3 6 2
v 3 6 1
v 3 6 -0
v 3 6 -1
v 3 6 -2
v 3 7 1
v 3 7 -0
v 3 7 -1
v 3 7 -2
v 3 8 3
v 3 8 2
v 3 8 1
v 3 9 3
v 3 9 2
v 3 9 1
v 3 10 1
v 3 10 -1
v 3 10 -2
v 3 11 1
v 3 11 -1
v 4 2 1
v 4 2 -0
v 4 3 1
v 4 3 -0
v 4 6 1
v 4 6 -0
v 4 7 1
v 4 7 -0
v 4 7 -1
v 4 8 1
v 4 8 -0
v 4 9 2
v 4 9 1
v 4 10 2
v 4 10 -1
v -3 2 3
v -3 3 3
v -3 6 3
v -3 8 3
v -3 9 3
v -1 8 3
v -1 9 3
v 0 4 3
v 0 5 3
v 1 8 3
v 1 9 3
v 2 4 3
v 2 5 3
v 3 2 3
v 3 3 3
v 3 6 3
v 3 8 3
v 3 9 3
v -4 9 2
v -4 10 2
v -3 1 2
v -3 2 2
v -3 6 2
v -3 8 2
v -3 9 2
v -3 10 2
v -2 7 2
v -2 8 2
v -2 10 2
v -2 11 2
v -1 1 2
v -1 2 2
v -1 7 2
v -1 8 2
v -1 9 2
v 1 1 2
v 1 2 2
v 1 7 2
v 1 8 2
v 1 9 2
v 2 7 2
v 2 8 2
v 2 10 2
v 2 11 2
v 3 1 2
v 3 2 2
v 3 6 2
v 3 8 2
v 3 9 2
v 3 10 2
v 4 9 2
v 4 10 2
v -4 2 1
v -4 3 1
v -4 6 1
v -4 7 1
v -4 8 1
v -4 9 1
v -3 2 1
v -3 3 1
v -3 6 1
v -3 7 1
v -3 8 1
v -3 9 1
v -3 10 1
v -3 11 1
v -2 0 1
v -2 1 1
v -2 10 1
v -2 11 1
v -1 0 1
v -1 1 1
v 1 0 1
v 1 1 1
v 2 0 1
v 2 1 1
v 2 10 1
v 2 11 1
v 3 2 1
v 3 3 1
v 3 6 1
v 3 7 1
v 3 8 1
v 3 9 1
v 3 10 1
v 3 11 1
v 4 2 1
v 4 3 1
v 4 6 1
v 4 7 1
v 4 8 1
v 4 9 1
v -4 2 -0
v -4 3 -0
v -4 6 -0
v -3 2 -0
v -3 3 -0
v -3 6 -0
v -2 0 -0
v -2 1 -0
v -1 0 -0
v -1 1 -0
v 1 0 -0
v 1 1 -0
v 2 0 -0
v 2 1 -0
v 3 2 -0
v 3 3 -0
v 3 6 -0
v 4 2 -0
v 4 3 -0
v 4 6 -0
v -4 7 -1
v -4 10 -1
v -3 1 -1
v -3 2 -1
v -3 6 -1
v -3 7 -1
v -3 10 -1
v -3 11 -1
v -2 6 -1
v -2 7 -1
v -2 10 -1
v -2 11 -1
v -1 1 -1
v -1 2 -1
v 1 1 -1
v 1 2 -1
v 2 6 -1
v 2 7 -1
v 2 10 -1
v 2 11 -1
v 3 1 -1
v 3 2 -1
v 3 6 -1
v 3 7 -1
v 3 10 -1
v 3 11 -1
v 4 7 -1
v 4 10 -1
v -3 2 -2
v -3 3 -2
v -3 6 -2
v -3 7 -2
v -3 10 -2
v -2 6 -2
v -2 7 -2
v -2 10 -2
v -2 11 -2
v -1 6 -2
v -1 7 -2
v 1 6 -2
v 1 7 -2
v 2 6 -2
v 2 7 -2
v 2 10 -2
v 2 11 -2
v 3 2 -2
v 3 3 -2
v 3 6 -2
v 3 7 -2
v 3 10 -2
v -2 7 -3
v -2 10 -3
v -1 6 -3
v -1 7 -3
v 1 6 -3
v 1 7 -3
v 2 7 -3
v 2 10 -3
v -2 0 1
v -1 0 1
v 1 0 1
v 2 0 1
v -2 0 -0
v -1 0 -0
v 1 0 -0
v 2 0 -0
v -3 1 2
v -1 1 2
v 1 1 2
v 3 1 2
v -2 1 1
v -1 1 1
v 1 1 1
v 2 1 1
v -2 1 -0
v -1 1 -0
v 1 1 -0
v 2 1 -0
v -3 1 -1
v -1 1 -1
v 1 1 -1
v 3 1 -1
v -3 2 3
v 3 2 3
v -3 2 2
v -1 2 2
v 1 2 2
v 3 2 2
v -4 2 1
v -3 2 1
v 3 2 1
v 4 2 1
v -4 2 -0
v -3 2 -0
v 3 2 -0
v 4 2 -0
v -3 2 -1
v -1 2 -1
v 1 2 -1
v 3 2 -1
v -3 2 -2
v 3 2 -2
v -1 6 -2
v 1 6 -2
v -1 6 -3
v 1 6 -3
v -4 7 1
v -3 7 1
v 3 7 1
v 4 7 1
v -4 7 -0
v -3 7 -0
v 3 7 -0
v 4 7 -0
v -4 7 -1
v -3 7 -1
v -2 7 -1
v 2 7 -1
v 3 7 -1
v 4 7 -1
v -3 7 -2
v -2 7 -2
v -1 7 -2
v 1 7 -2
v 2 7 -2
v 3 7 -2
v -2 7 -3
v -1 7 -3
v 1 7 -3
v 2 7 -3
v -3 8 3
v -1 8 3
v 1 8 3
v 3 8 3
v -3 8 2
v -2 8 2
v -1 8 2
v 1 8 2
v 2 8 2
v 3 8 2
v -4 9 2
v -3 9 2
v 3 9 2
v 4 9 2
v -4 9 1
v -3 9 1
v 3 9 1
v 4 9 1
v -3 6 3
v 3 6 3
v -3 6 2
v 3 6 2
v -4 6 1
v -3 6 1
v 3 6 1
v 4 6 1
v -4 6 -0
v -3 6 -0
v 3 6 -0
v 4 6 -0
v -3 6 -1
v -2 6 -1
v 2 6 -1
v 3 6 -1
v -3 6 -2
v -2 6 -2
v 2 6 -2
v 3 6 -2
v -3 9 3
v -1 9 3
v 1 9 3
v 3 9 3
v -3 9 2
v -1 9 2
v 1 9 2
v 3 9 2
v -4 10 2
v -3 10 2
v -2 10 2
v 2 10 2
v 3 10 2
v 4 10 2
v -3 10 1
v -2 10 1
v 2 10 1
v 3 10 1
v -4 10 -1
v -3 10 -1
v -2 10 -1
v 2 10 -1
v 3 10 -1
v 4 10 -1
v -3 10 -2
v -2 10 -2
v 2 10 -2
v 3 10 -2
v -2 10 -3
v 2 10 -3
v -2 11 2
v 2 11 2
v -3 11 1
v -2 11 1
v 2 11 1
v 3 11 1
v -3 11 -1
v -2 11 -1
v 2 11 -1
v 3 11 -1
v -2 11 -2
v 2 11 -2

# faces
f 3/1/1 2/1/1 1/1/1
f 4/1/1 2/1/1 3/1/1
f 5/4/1 4/4/1 3/4/1
f 6/4/1 4/4/1 5/4/1
f 10/1/1 8/1/1 7/1/1
f 11/3/1 9/3/1 8/3/1
f 11/1/1 8/1/1 10/1/1
f 13/3/1 11/3/1 10/3/1
f 14/3/1 13/3/1 12/3/1
f 15/3/1 9/3/1 11/3/1
f 15/3/1 13/3/1 14/3/1
f 15/3/1 11/3/1 13/3/1
f 19/4/1 17/4/1 16/4/1
f 20/4/1 17/4/1 19/4/1
f 21/4/1 17/4/1 20/4/1
f 22/4/1 17/4/1 21/4/1
f 24/7/1 19/7/1 18/7/1
f 24/7/1 20/7/1 19/7/1
f 25/7/1 20/7/1 24/7/1
f 26/7/1 23/7/1 22/7/1
f 26/7/1 22/7/1 21/7/1
f 27/7/1 23/7/1 26/7/1
f 28/4/1 25/4/1 24/4/1
f 29/4/1 25/4/1 28/4/1
f 30/4/1 25/4/1 29/4/1
f 31/4/1 27/4/1 26/4/1
f 32/4/1 27/4/1 31/4/1
f 33/4/1 27/4/1 32/4/1
f 34/1/1 30/1/1 29/1/1
f 34/1/1 32/1/1 31/1/1
f 34/1/1 31/1/1 30/1/1
f 35/1/1 32/1/1 34/1/1
f 36/1/1 32/1/1 35/1/1
f 39/1/1 34/1/1 29/1/1
f 40/1/1 34/1/1 39/1/1
f 41/2/1 39/2/1 38/2/1
f 42/1/1 40/1/1 39/1/1
f 42/2/1 39/2/1 41/2/1
f 43/1/1 40/1/1 42/1/1
f 45/3/1 37/3/1 36/3/1
f 46/3/1 37/3/1 45/3/1
f 47/3/1 45/3/1 44/3/1
f 48/3/1 45/3/1 47/3/1
f 51/6/1 50/6/1 49/6/1
f 52/6/1 50/6/1 51/6/1
f 55/1/1 54/1/1 53/1/1
f 56/1/1 54/1/1 55/1/1
f 61/3/1 57/3/1 56/3/1
f 62/3/1 57/3/1 61/3/1
f 63/3/1 59/3/1 58/3/1
f 64/3/1 59/3/1 63/3/1
f 65/3/1 61/3/1 60/3/1
f 66/3/1 61/3/1 65/3/1
f 69/3/1 68/3/1 67/3/1
f 70/3/1 68/3/1 69/3/1
f 74/6/1 72/6/1 71/6/1
f 75/6/1 72/6/1 74/6/1
f 77/4/1 74/4/1 73/4/1
f 77/4/1 76/4/1 75/4/1
f 77/4/1 75/4/1 74/4/1
f 78/4/1 76/4/1 77/4/1
f 81/2/1 80/2/1 79/2/1
f 82/2/1 80/2/1 81/2/1
f 83/6/2 84/6/2 86/6/2
f 86/6/2 84/6/2 87/6/2
f 85/4/2 86/4/2 89/4/2
f 87/4/2 88/4/2 89/4/2
f 86/4/2 87/4/2 89/4/2
f 89/4/2 88/4/2 90/4/2
f 91/2/2 92/2/2 93/2/2
f 93/2/2 92/2/2 94/2/2
f 95/3/2 96/3/2 97/3/2
f 97/3/2 96/3/2 98/3/2
f 99/6/2 100/6/2 101/6/2
f 101/6/2 100/6/2 102/6/2
f 103/1/2 104/1/2 105/1/2
f 105/1/2 104/1/2 106/1/2
f 106/3/2 107/3/2 111/3/2
f 111/3/2 107/3/2 112/3/2
f 108/3/2 109/3/2 113/3/2
f 113/3/2 109/3/2 114/3/2
f 110/3/2 111/3/2 115/3/2
f 115/3/2 111/3/2 116/3/2
f 117/4/2 118/4/2 120/4/2
f 120/4/2 118/4/2 121/4/2
f 121/4/2 118/4/2 122/4/2
f 122/4/2 118/4/2 123/4/2
f 119/7/2 120/7/2 125/7/2
f 120/7/2 121/7/2 125/7/2
f 125/7/2 121/7/2 126/7/2
f 123/7/2 124/7/2 127/7/2
f 122/7/2 123/7/2 127/7/2
f 127/7/2 124/7/2 128/7/2
f 125/4/2 126/4/2 129/4/2
f 129/4/2 126/4/2 130/4/2
f 130/4/2 126/4/2 131/4/2
f 127/4/2 128/4/2 132/4/2
f 132/4/2 128/4/2 133/4/2
f 133/4/2 128/4/2 134/4/2
f 130/1/2 131/1/2 135/1/2
f 132/1/2 133/1/2 135/1/2
f 131/1/2 132/1/2 135/1/2
f 135/1/2 133/1/2 136/1/2
f 136/1/2 133/1/2 137/1/2
f 130/1/2 135/1/2 140/1/2
f 140/1/2 135/1/2 141/1/2
f 139/2/2 140/2/2 142/2/2
f 140/1/2 141/1/2 143/1/2
f 142/2/2 140/2/2 143/2/2
f 143/1/2 141/1/2 144/1/2
f 137/3/2 138/3/2 146/3/2
f 146/3/2 138/3/2 147/3/2
f 145/3/2 146/3/2 148/3/2
f 148/3/2 146/3/2 149/3/2
f 150/1/2 151/1/2 152/1/2
f 152/1/2 151/1/2 153/1/2
f 152/4/2 153/4/2 154/4/2
f 154/4/2 153/4/2 155/4/2
f 156/1/2 157/1/2 159/1/2
f 157/3/2 158/3/2 160/3/2
f 159/1/2 157/1/2 160/1/2
f 159/3/2 160/3/2 162/3/2
f 161/3/2 162/3/2 163/3/2
f 160/3/2 158/3/2 164/3/2
f 163/3/2 162/3/2 164/3/2
f 162/3/2 160/3/2 164/3/2
f 170/2/3 169/2/3 168/2/3
f 171/2/3 169/2/3 170/2/3
f 172/4/3 167/4/3 166/4/3
f 173/4/3 167/4/3 172/4/3
f 176/4/3 172/4/3 166/4/3
f 176/5/3 173/5/3 172/5/3
f 177/4/3 167/4/3 173/4/3
f 177/5/3 173/5/3 176/5/3
f 178/7/3 166/7/3 165/7/3
f 179/4/3 176/4/3 166/4/3
f 179/7/3 166/7/3 178/7/3
f 179/4/3 177/4/3 176/4/3
f 180/4/3 167/4/3 177/4/3
f 180/4/3 177/4/3 179/4/3
f 181/2/3 175/2/3 174/2/3
f 182/2/3 175/2/3 181/2/3
f 189/3/3 184/3/3 183/3/3
f 190/3/3 184/3/3 189/3/3
f 191/1/3 188/1/3 187/1/3
f 192/1/3 188/1/3 191/1/3
f 193/1/3 190/1/3 189/1/3
f 195/4/3 186/4/3 185/4/3
f 196/4/3 186/4/3 195/4/3
f 197/8/3 192/8/3 191/8/3
f 197/1/3 191/1/3 187/1/3
f 198/8/3 192/8/3 197/8/3
f 199/1/3 193/1/3 189/1/3
f 202/1/3 198/1/3 197/1/3
f 202/1/3 199/1/3 198/1/3
f 202/1/3 197/1/3 187/1/3
f 203/1/3 199/1/3 202/1/3
f 204/1/3 193/1/3 199/1/3
f 204/1/3 199/1/3 203/1/3
f 205/8/3 203/8/3 202/8/3
f 205/1/3 202/1/3 187/1/3
f 206/8/3 203/8/3 205/8/3
f 207/3/3 194/3/3 193/3/3
f 207/1/3 193/1/3 204/1/3
f 208/3/3 194/3/3 207/3/3
f 209/4/3 201/4/3 200/4/3
f 210/4/3 201/4/3 209/4/3
f 211/1/3 206/1/3 205/1/3
f 211/1/3 205/1/3 187/1/3
f 212/1/3 206/1/3 211/1/3
f 213/1/3 207/1/3 204/1/3
f 214/1/3 207/1/3 213/1/3
f 215/3/3 214/3/3 213/3/3
f 216/3/3 214/3/3 215/3/3
f 223/1/3 218/1/3 217/1/3
f 224/4/3 219/4/3 218/4/3
f 224/1/3 218/1/3 223/1/3
f 225/4/3 219/4/3 224/4/3
f 226/1/3 221/1/3 220/1/3
f 227/3/3 222/3/3 221/3/3
f 227/1/3 221/1/3 226/1/3
f 228/3/3 222/3/3 227/3/3
f 233/3/3 230/3/3 229/3/3
f 234/3/3 230/3/3 233/3/3
f 235/6/3 232/6/3 231/6/3
f 236/6/3 232/6/3 235/6/3
f 239/6/3 238/6/3 237/6/3
f 240/6/3 238/6/3 239/6/3
f 249/3/3 242/3/3 241/3/3
f 250/3/3 242/3/3 249/3/3
f 251/1/3 244/1/3 243/1/3
f 252/4/3 245/4/3 244/4/3
f 252/1/3 244/1/3 251/1/3
f 253/4/3 245/4/3 252/4/3
f 254/1/3 247/1/3 246/1/3
f 255/3/3 248/3/3 247/3/3
f 255/1/3 247/1/3 254/1/3
f 256/3/3 248/3/3 255/3/3
f 257/1/4 258/1/4 260/1/4
f 258/4/4 259/4/4 261/4/4
f 260/1/4 258/1/4 261/1/4
f 261/4/4 259/4/4 262/4/4
f 263/6/4 264/6/4 265/6/4
f 265/6/4 264/6/4 266/6/4
f 267/6/4 268/6/4 269/6/4
f 269/6/4 268/6/4 270/6/4
f 271/1/4 272/1/4 274/1/4
f 272/4/4 273/4/4 275/4/4
f 274/1/4 272/1/4 275/1/4
f 275/4/4 273/4/4 276/4/4
f 277/3/4 278/3/4 282/3/4
f 282/3/4 278/3/4 283/3/4
f 281/1/4 282/1/4 285/1/4
f 285/1/4 282/1/4 286/1/4
f 283/3/4 284/3/4 287/3/4
f 287/3/4 284/3/4 288/3/4
f 279/4/4 280/4/4 289/4/4
f 289/4/4 280/4/4 290/4/4
f 291/4/4 292/4/4 297/4/4
f 297/4/4 292/4/4 298/4/4
f 293/1/4 294/1/4 299/1/4
f 299/1/4 294/1/4 300/1/4
f 295/3/4 296/3/4 301/3/4
f 301/3/4 296/3/4 302/3/4
f 300/3/4 301/3/4 303/3/4
f 303/3/4 301/3/4 304/3/4
f 306/4/4 307/4/4 310/4/4
f 308/3/4 309/3/4 311/3/4
f 311/3/4 309/3/4 312/3/4
f 306/4/4 310/4/4 314/4/4
f 310/1/4 311/1/4 314/1/4
f 314/1/4 311/1/4 315/1/4
f 306/4/4 314/4/4 316/4/4
f 306/4/4 316/4/4 318/4/4
f 316/1/4 317/1/4 318/1/4
f 318/1/4 317/1/4 319/1/4
f 312/3/4 313/3/4 320/3/4
f 320/3/4 313/3/4 321/3/4
f 305/7/4 306/7/4 322/7/4
f 306/4/4 318/4/4 323/4/4
f 322/7/4 306/7/4 323/7/4
f 323/4/4 318/4/4 324/4/4
f 319/3/4 320/3/4 325/3/4
f 325/3/4 320/3/4 326/3/4
f 327/3/4 328/3/4 330/3/4
f 329/3/4 330/3/4 331/3/4
f 330/3/4 328/3/4 332/3/4
f 331/3/4 330/3/4 332/3/4
f 332/3/4 328/3/4 333/3/4
f 333/3/4 328/3/4 334/3/4
f 339/6/5 336/6/5 335/6/5
f 340/6/5 336/6/5 339/6/5
f 341/6/5 338/6/5 337/6/5
f 342/6/5 338/6/5 341/6/5
f 347/4/5 344/4/5 343/4/5
f 348/4/5 344/4/5 347/4/5
f 349/4/5 346/4/5 345/4/5
f 350/4/5 346/4/5 349/4/5
f 351/4/5 347/4/5 343/4/5
f 354/4/5 346/4/5 350/4/5
f 355/4/5 352/4/5 351/4/5
f 355/4/5 351/4/5 343/4/5
f 356/4/5 352/4/5 355/4/5
f 357/4/5 354/4/5 353/4/5
f 358/4/5 346/4/5 354/4/5
f 358/4/5 354/4/5 357/4/5
f 361/7/5 360/7/5 359/7/5
f 362/7/5 360/7/5 361/7/5
f 363/7/5 360/7/5 362/7/5
f 364/7/5 360/7/5 363/7/5
f 369/1/5 366/1/5 365/1/5
f 370/1/5 366/1/5 369/1/5
f 371/1/5 368/1/5 367/1/5
f 372/1/5 368/1/5 371/1/5
f 374/4/5 363/4/5 362/4/5
f 375/4/5 363/4/5 374/4/5
f 377/7/5 374/7/5 373/7/5
f 377/7/5 376/7/5 375/7/5
f 377/7/5 375/7/5 374/7/5
f 378/7/5 376/7/5 377/7/5
f 381/3/5 380/3/5 379/3/5
f 382/3/5 380/3/5 381/3/5
f 387/1/5 384/1/5 383/1/5
f 388/1/5 384/1/5 387/1/5
f 389/1/5 386/1/5 385/1/5
f 390/1/5 386/1/5 389/1/5
f 391/3/5 388/3/5 387/3/5
f 392/3/5 388/3/5 391/3/5
f 395/3/5 390/3/5 389/3/5
f 396/3/5 390/3/5 395/3/5
f 397/3/5 393/3/5 392/3/5
f 398/3/5 393/3/5 397/3/5
f 401/3/5 395/3/5 394/3/5
f 402/3/5 395/3/5 401/3/5
f 403/3/5 399/3/5 398/3/5
f 404/3/5 399/3/5 403/3/5
f 405/3/5 401/3/5 400/3/5
f 406/3/5 401/3/5 405/3/5
f 411/2/5 408/2/5 407/2/5
f 412/2/5 408/2/5 411/2/5
f 413/2/5 408/2/5 412/2/5
f 414/2/5 410/2/5 409/2/5
f 415/2/5 410/2/5 414/2/5
f 416/2/5 410/2/5 415/2/5
f 421/3/5 418/3/5 417/3/5
f 422/3/5 418/3/5 421/3/5
f 423/3/5 420/3/5 419/3/5
f 424/3/5 420/3/5 423/3/5
f 425/4/6 426/4/6 427/4/6
f 427/4/6 426/4/6 428/4/6
f 429/4/6 430/4/6 433/4/6
f 433/4/6 430/4/6 434/4/6
f 431/4/6 432/4/6 435/4/6
f 435/4/6 432/4/6 436/4/6
f 437/4/6 438/4/6 441/4/6
f 441/4/6 438/4/6 442/4/6
f 439/4/6 440/4/6 443/4/6
f 443/4/6 440/4/6 444/4/6
f 445/2/6 446/2/6 449/2/6
f 449/2/6 446/2/6 450/2/6
f 447/2/6 448/2/6 451/2/6
f 451/2/6 448/2/6 452/2/6
f 453/3/6 454/3/6 459/3/6
f 454/1/6 455/1/6 459/1/6
f 459/1/6 455/1/6 460/1/6
f 456/1/6 457/1/6 461/1/6
f 457/3/6 458/3/6 462/3/6
f 461/1/6 457/1/6 462/1/6
f 453/3/6 459/3/6 463/3/6
f 463/3/6 459/3/6 464/3/6
f 462/3/6 458/3/6 467/3/6
f 467/3/6 458/3/6 468/3/6
f 464/3/6 465/3/6 469/3/6
f 469/3/6 465/3/6 470/3/6
f 466/3/6 467/3/6 471/3/6
f 471/3/6 467/3/6 472/3/6
f 470/3/6 471/3/6 473/3/6
f 473/3/6 471/3/6 474/3/6
f 475/3/6 476/3/6 478/3/6
f 478/3/6 476/3/6 479/3/6
f 477/3/6 478/3/6 481/3/6
f 479/3/6 480/3/6 481/3/6
f 478/3/6 479/3/6 481/3/6
f 481/3/6 480/3/6 482/3/6
f 482/3/6 480/3/6 483/3/6
f 483/3/6 480/3/6 484/3/6
f 482/3/6 483/3/6 485/3/6
f 485/3/6 483/3/6 486/3/6
