# MagicaVoxel @ Ephtracy

# material
mtllib chr_mailman.mtl
usemtl palette

# normals
vn -1 0 0
vn 1 0 0
vn 0 0 1
vn 0 0 -1
vn 0 -1 0
vn 0 1 0

# texcoords
vt 0.0332031 0.5
vt 0.0605469 0.5
vt 0.228516 0.5
vt 0.306641 0.5
vt 0.611328 0.5
vt 0.642578 0.5
vt 0.982422 0.5
vt 0.994141 0.5

# verts
v -4 2 -0
v -4 2 -1
v -4 3 -0
v -4 3 -1
v -4 6 -0
v -4 6 -1
v -4 7 -0
v -4 7 -1
v -4 8 -0
v -4 8 -1
v -3 1 1
v -3 1 -2
v -3 2 2
v -3 2 1
v -3 2 -0
v -3 2 -1
v -3 2 -2
v -3 2 -3
v -3 3 2
v -3 3 -0
v -3 3 -1
v -3 3 -3
v -3 6 2
v -3 6 1
v -3 6 -0
v -3 6 -1
v -3 6 -2
v -3 6 -3
v -3 7 -0
v -3 7 -1
v -3 7 -2
v -3 7 -3
v -3 8 -0
v -3 8 -1
v -3 9 2
v -3 9 1
v -3 9 -0
v -3 9 -3
v -3 10 2
v -3 10 1
v -3 11 1
v -3 11 -3
v -2 0 -0
v -2 0 -1
v -2 1 -0
v -2 1 -1
v -2 6 -2
v -2 6 -3
v -2 7 -2
v -2 7 -3
v 1 0 -0
v 1 0 -1
v 1 1 1
v 1 1 -0
v 1 1 -1
v 1 1 -2
v 1 2 1
v 1 2 -2
v 4 5 2
v 4 5 1
v 4 6 2
v 4 6 1
v -1 0 -0
v -1 0 -1
v -1 1 1
v -1 1 -0
v -1 1 -1
v -1 1 -2
v -1 2 1
v -1 2 -2
v 2 0 -0
v 2 0 -1
v 2 1 -0
v 2 1 -1
v 2 6 -2
v 2 6 -3
v 2 7 -2
v 2 7 -3
v 3 1 1
v 3 1 -2
v 3 2 1
v 3 2 -2
v 3 5 2
v 3 5 1
v 3 5 -2
v 3 5 -3
v 3 6 2
v 3 6 1
v 3 6 -0
v 3 6 -1
v 3 6 -2
v 3 6 -3
v 3 7 -0
v 3 7 -1
v 3 7 -2
v 3 7 -3
v 3 8 -0
v 3 8 -1
v 3 9 2
v 3 9 1
v 3 9 -0
v 3 9 -3
v 3 10 2
v 3 10 1
v 3 11 1
v 3 11 -3
v 4 5 -1
v 4 5 -2
v 4 6 -1
v 4 6 -2
v 4 7 -0
v 4 7 -1
v 4 8 -0
v 4 8 -1
v 5 2 2
v 5 2 -3
v 5 5 2
v 5 5 1
v 5 5 -1
v 5 5 -3
v 5 6 2
v 5 6 1
v 5 6 -1
v -3 2 2
v -3 3 2
v -3 6 2
v -3 9 2
v -3 10 2
v 0 4 2
v 0 5 2
v 2 4 2
v 2 5 2
v 3 2 2
v 3 3 2
v 3 5 2
v 3 6 2
v 3 9 2
v 3 10 2
v 4 5 2
v 4 6 2
v 5 2 2
v 5 5 2
v 5 6 2
v -3 1 1
v -3 2 1
v -3 6 1
v -3 9 1
v -3 10 1
v -3 11 1
v -2 7 1
v -2 8 1
v -1 1 1
v -1 2 1
v -1 7 1
v -1 8 1
v 1 1 1
v 1 2 1
v 1 7 1
v 1 8 1
v 2 7 1
v 2 8 1
v 3 1 1
v 3 2 1
v 3 5 1
v 3 6 1
v 3 9 1
v 3 10 1
v 3 11 1
v 4 5 1
v 4 6 1
v -4 2 -0
v -4 3 -0
v -4 6 -0
v -4 7 -0
v -4 8 -0
v -3 2 -0
v -3 3 -0
v -3 6 -0
v -3 7 -0
v -3 8 -0
v -2 0 -0
v -2 1 -0
v -1 0 -0
v -1 1 -0
v 1 0 -0
v 1 1 -0
v 2 0 -0
v 2 1 -0
v 3 7 -0
v 3 8 -0
v 4 7 -0
v 4 8 -0
v -4 2 -1
v -4 3 -1
v -4 6 -1
v -4 7 -1
v -4 8 -1
v -3 2 -1
v -3 3 -1
v -3 6 -1
v -3 7 -1
v -3 8 -1
v -2 0 -1
v -2 1 -1
v -1 0 -1
v -1 1 -1
v 1 0 -1
v 1 1 -1
v 2 0 -1
v 2 1 -1
v 3 7 -1
v 3 8 -1
v 4 5 -1
v 4 6 -1
v 4 7 -1
v 4 8 -1
v 5 5 -1
v 5 6 -1
v -3 1 -2
v -3 2 -2
v -3 6 -2
v -3 7 -2
v -2 6 -2
v -2 7 -2
v -1 1 -2
v -1 2 -2
v 1 1 -2
v 1 2 -2
v 2 6 -2
v 2 7 -2
v 3 1 -2
v 3 2 -2
v 3 5 -2
v 3 6 -2
v 3 7 -2
v 4 5 -2
v 4 6 -2
v -3 2 -3
v -3 3 -3
v -3 6 -3
v -3 7 -3
v -3 9 -3
v -3 11 -3
v -2 6 -3
v -2 7 -3
v 2 6 -3
v 2 7 -3
v 3 2 -3
v 3 3 -3
v 3 5 -3
v 3 6 -3
v 3 7 -3
v 3 9 -3
v 3 11 -3
v 5 2 -3
v 5 5 -3
v -2 0 -0
v -1 0 -0
v 1 0 -0
v 2 0 -0
v -2 0 -1
v -1 0 -1
v 1 0 -1
v 2 0 -1
v -3 1 1
v -1 1 1
v 1 1 1
v 3 1 1
v -2 1 -0
v -1 1 -0
v 1 1 -0
v 2 1 -0
v -2 1 -1
v -1 1 -1
v 1 1 -1
v 2 1 -1
v -3 1 -2
v -1 1 -2
v 1 1 -2
v 3 1 -2
v -3 2 2
v 3 2 2
v 5 2 2
v -3 2 1
v -1 2 1
v 1 2 1
v 3 2 1
v -4 2 -0
v -3 2 -0
v -4 2 -1
v -3 2 -1
v -3 2 -2
v -1 2 -2
v 1 2 -2
v 3 2 -2
v -3 2 -3
v 3 2 -3
v 5 2 -3
v -4 7 -0
v -3 7 -0
v 3 7 -0
v 4 7 -0
v -4 7 -1
v -3 7 -1
v 3 7 -1
v 4 7 -1
v -3 7 -2
v -2 7 -2
v 2 7 -2
v 3 7 -2
v -3 7 -3
v -2 7 -3
v 2 7 -3
v 3 7 -3
v -3 9 2
v 3 9 2
v -3 9 1
v 3 9 1
v 3 5 2
v 4 5 2
v 3 5 1
v 4 5 1
v 4 5 -1
v 5 5 -1
v 3 5 -2
v 4 5 -2
v 3 5 -3
v 5 5 -3
v -3 6 2
v 3 6 2
v 4 6 2
v 5 6 2
v -3 6 1
v 3 6 1
v 4 6 1
v 5 6 1
v -4 6 -0
v -3 6 -0
v 3 6 -0
v 4 6 -0
v -4 6 -1
v -3 6 -1
v 3 6 -1
v 4 6 -1
v 5 6 -1
v -3 6 -2
v -2 6 -2
v 2 6 -2
v 3 6 -2
v 4 6 -2
v -3 6 -3
v -2 6 -3
v 2 6 -3
v 3 6 -3
v -4 8 -0
v -3 8 -0
v 3 8 -0
v 4 8 -0
v -4 8 -1
v -3 8 -1
v 3 8 -1
v 4 8 -1
v -3 10 2
v 3 10 2
v -3 10 1
v 3 10 1
v -3 11 1
v 3 11 1
v -3 11 -3
v 3 11 -3

# faces
f 3/1/1 2/1/1 1/1/1
f 4/1/1 2/1/1 3/1/1
f 5/4/1 4/4/1 3/4/1
f 6/4/1 4/4/1 5/4/1
f 9/2/1 8/2/1 7/2/1
f 10/2/1 8/2/1 9/2/1
f 14/6/1 12/6/1 11/6/1
f 15/6/1 12/6/1 14/6/1
f 16/6/1 12/6/1 15/6/1
f 17/6/1 12/6/1 16/6/1
f 19/6/1 14/6/1 13/6/1
f 19/6/1 15/6/1 14/6/1
f 20/6/1 15/6/1 19/6/1
f 21/6/1 18/6/1 17/6/1
f 21/6/1 17/6/1 16/6/1
f 22/6/1 18/6/1 21/6/1
f 23/4/1 20/4/1 19/4/1
f 24/4/1 20/4/1 23/4/1
f 25/4/1 20/4/1 24/4/1
f 26/4/1 22/4/1 21/4/1
f 27/4/1 22/4/1 26/4/1
f 28/4/1 22/4/1 27/4/1
f 29/1/1 25/1/1 24/1/1
f 29/1/1 27/1/1 26/1/1
f 29/1/1 26/1/1 25/1/1
f 30/1/1 27/1/1 29/1/1
f 31/1/1 27/1/1 30/1/1
f 33/1/1 29/1/1 24/1/1
f 34/3/1 32/3/1 31/3/1
f 34/3/1 31/3/1 30/3/1
f 36/1/1 33/1/1 24/1/1
f 37/3/1 34/3/1 33/3/1
f 37/1/1 33/1/1 36/1/1
f 38/3/1 32/3/1 34/3/1
f 38/3/1 34/3/1 37/3/1
f 39/5/1 36/5/1 35/5/1
f 39/5/1 37/5/1 36/5/1
f 39/5/1 38/5/1 37/5/1
f 40/5/1 38/5/1 39/5/1
f 41/5/1 38/5/1 40/5/1
f 42/5/1 38/5/1 41/5/1
f 45/7/1 44/7/1 43/7/1
f 46/7/1 44/7/1 45/7/1
f 49/1/1 48/1/1 47/1/1
f 50/1/1 48/1/1 49/1/1
f 54/7/1 52/7/1 51/7/1
f 55/7/1 52/7/1 54/7/1
f 57/6/1 54/6/1 53/6/1
f 57/6/1 56/6/1 55/6/1
f 57/6/1 55/6/1 54/6/1
f 58/6/1 56/6/1 57/6/1
f 61/1/1 60/1/1 59/1/1
f 62/1/1 60/1/1 61/1/1
f 63/7/2 64/7/2 66/7/2
f 66/7/2 64/7/2 67/7/2
f 65/6/2 66/6/2 69/6/2
f 67/6/2 68/6/2 69/6/2
f 66/6/2 67/6/2 69/6/2
f 69/6/2 68/6/2 70/6/2
f 71/7/2 72/7/2 73/7/2
f 73/7/2 72/7/2 74/7/2
f 75/1/2 76/1/2 77/1/2
f 77/1/2 76/1/2 78/1/2
f 79/6/2 80/6/2 81/6/2
f 81/6/2 80/6/2 82/6/2
f 83/4/2 84/4/2 87/4/2
f 87/4/2 84/4/2 88/4/2
f 85/4/2 86/4/2 91/4/2
f 91/4/2 86/4/2 92/4/2
f 89/1/2 90/1/2 93/1/2
f 90/1/2 91/1/2 93/1/2
f 88/1/2 89/1/2 93/1/2
f 93/1/2 91/1/2 94/1/2
f 94/1/2 91/1/2 95/1/2
f 88/1/2 93/1/2 97/1/2
f 95/3/2 96/3/2 98/3/2
f 94/3/2 95/3/2 98/3/2
f 88/1/2 97/1/2 100/1/2
f 97/3/2 98/3/2 101/3/2
f 100/1/2 97/1/2 101/1/2
f 98/3/2 96/3/2 102/3/2
f 101/3/2 98/3/2 102/3/2
f 99/5/2 100/5/2 103/5/2
f 100/5/2 101/5/2 103/5/2
f 101/5/2 102/5/2 103/5/2
f 103/5/2 102/5/2 104/5/2
f 104/5/2 102/5/2 105/5/2
f 105/5/2 102/5/2 106/5/2
f 107/7/2 108/7/2 109/7/2
f 109/7/2 108/7/2 110/7/2
f 111/2/2 112/2/2 113/2/2
f 113/2/2 112/2/2 114/2/2
f 115/7/2 116/7/2 117/7/2
f 117/7/2 116/7/2 118/7/2
f 118/7/2 116/7/2 119/7/2
f 119/7/2 116/7/2 120/7/2
f 117/1/2 118/1/2 121/1/2
f 118/4/2 119/4/2 122/4/2
f 121/1/2 118/1/2 122/1/2
f 122/4/2 119/4/2 123/4/2
f 129/4/3 126/4/3 125/4/3
f 130/4/3 126/4/3 129/4/3
f 131/4/3 129/4/3 125/4/3
f 131/5/3 130/5/3 129/5/3
f 132/4/3 126/4/3 130/4/3
f 132/5/3 130/5/3 131/5/3
f 133/6/3 125/6/3 124/6/3
f 134/4/3 131/4/3 125/4/3
f 134/6/3 125/6/3 133/6/3
f 134/4/3 132/4/3 131/4/3
f 135/4/3 126/4/3 132/4/3
f 135/4/3 132/4/3 134/4/3
f 136/4/3 126/4/3 135/4/3
f 137/5/3 128/5/3 127/5/3
f 138/5/3 128/5/3 137/5/3
f 139/7/3 134/7/3 133/7/3
f 139/7/3 135/7/3 134/7/3
f 141/7/3 139/7/3 133/7/3
f 142/1/3 140/1/3 139/1/3
f 142/7/3 139/7/3 141/7/3
f 143/1/3 140/1/3 142/1/3
f 150/1/3 147/1/3 146/1/3
f 151/1/3 147/1/3 150/1/3
f 152/6/3 145/6/3 144/6/3
f 153/6/3 145/6/3 152/6/3
f 154/1/3 150/1/3 146/1/3
f 154/8/3 151/8/3 150/8/3
f 155/1/3 147/1/3 151/1/3
f 155/8/3 151/8/3 154/8/3
f 158/1/3 154/1/3 146/1/3
f 158/1/3 155/1/3 154/1/3
f 159/1/3 147/1/3 155/1/3
f 159/1/3 155/1/3 158/1/3
f 160/1/3 158/1/3 146/1/3
f 160/8/3 159/8/3 158/8/3
f 161/1/3 147/1/3 159/1/3
f 161/8/3 159/8/3 160/8/3
f 162/6/3 157/6/3 156/6/3
f 163/6/3 157/6/3 162/6/3
f 165/1/3 160/1/3 146/1/3
f 165/1/3 161/1/3 160/1/3
f 166/1/3 147/1/3 161/1/3
f 166/1/3 161/1/3 165/1/3
f 167/5/3 149/5/3 148/5/3
f 168/5/3 149/5/3 167/5/3
f 169/7/3 165/7/3 164/7/3
f 170/7/3 165/7/3 169/7/3
f 176/1/3 172/1/3 171/1/3
f 177/4/3 173/4/3 172/4/3
f 177/1/3 172/1/3 176/1/3
f 178/4/3 173/4/3 177/4/3
f 179/2/3 175/2/3 174/2/3
f 180/2/3 175/2/3 179/2/3
f 183/7/3 182/7/3 181/7/3
f 184/7/3 182/7/3 183/7/3
f 187/7/3 186/7/3 185/7/3
f 188/7/3 186/7/3 187/7/3
f 191/2/3 190/2/3 189/2/3
f 192/2/3 190/2/3 191/2/3
f 193/1/4 194/1/4 198/1/4
f 194/4/4 195/4/4 199/4/4
f 198/1/4 194/1/4 199/1/4
f 199/4/4 195/4/4 200/4/4
f 196/2/4 197/2/4 201/2/4
f 201/2/4 197/2/4 202/2/4
f 203/7/4 204/7/4 205/7/4
f 205/7/4 204/7/4 206/7/4
f 207/7/4 208/7/4 209/7/4
f 209/7/4 208/7/4 210/7/4
f 211/2/4 212/2/4 215/2/4
f 215/2/4 212/2/4 216/2/4
f 213/4/4 214/4/4 217/4/4
f 217/4/4 214/4/4 218/4/4
f 221/1/4 222/1/4 223/1/4
f 223/1/4 222/1/4 224/1/4
f 219/6/4 220/6/4 225/6/4
f 225/6/4 220/6/4 226/6/4
f 227/6/4 228/6/4 231/6/4
f 231/6/4 228/6/4 232/6/4
f 229/1/4 230/1/4 234/1/4
f 234/1/4 230/1/4 235/1/4
f 233/7/4 234/7/4 236/7/4
f 236/7/4 234/7/4 237/7/4
f 239/4/4 240/4/4 244/4/4
f 241/3/4 242/3/4 245/3/4
f 239/4/4 244/4/4 246/4/4
f 244/1/4 245/1/4 246/1/4
f 245/3/4 242/3/4 247/3/4
f 246/1/4 245/1/4 247/1/4
f 238/6/4 239/6/4 248/6/4
f 239/4/4 246/4/4 249/4/4
f 248/6/4 239/6/4 249/6/4
f 249/4/4 246/4/4 250/4/4
f 250/4/4 246/4/4 251/4/4
f 247/3/4 242/3/4 252/3/4
f 242/5/4 243/5/4 253/5/4
f 252/3/4 242/3/4 253/3/4
f 253/5/4 243/5/4 254/5/4
f 248/7/4 249/7/4 255/7/4
f 249/7/4 250/7/4 255/7/4
f 255/7/4 250/7/4 256/7/4
f 261/7/5 258/7/5 257/7/5
f 262/7/5 258/7/5 261/7/5
f 263/7/5 260/7/5 259/7/5
f 264/7/5 260/7/5 263/7/5
f 269/6/5 266/6/5 265/6/5
f 270/6/5 266/6/5 269/6/5
f 271/6/5 268/6/5 267/6/5
f 272/6/5 268/6/5 271/6/5
f 273/6/5 269/6/5 265/6/5
f 276/6/5 268/6/5 272/6/5
f 277/6/5 274/6/5 273/6/5
f 277/6/5 273/6/5 265/6/5
f 278/6/5 274/6/5 277/6/5
f 279/6/5 276/6/5 275/6/5
f 280/6/5 268/6/5 276/6/5
f 280/6/5 276/6/5 279/6/5
f 284/6/5 282/6/5 281/6/5
f 285/6/5 282/6/5 284/6/5
f 286/6/5 282/6/5 285/6/5
f 287/7/5 283/7/5 282/7/5
f 287/6/5 282/6/5 286/6/5
f 290/1/5 289/1/5 288/1/5
f 291/1/5 289/1/5 290/1/5
f 293/6/5 286/6/5 285/6/5
f 294/6/5 286/6/5 293/6/5
f 295/7/5 283/7/5 287/7/5
f 296/6/5 294/6/5 293/6/5
f 296/6/5 295/6/5 294/6/5
f 296/6/5 293/6/5 292/6/5
f 297/7/5 283/7/5 295/7/5
f 297/6/5 295/6/5 296/6/5
f 298/7/5 283/7/5 297/7/5
f 303/2/5 300/2/5 299/2/5
f 304/2/5 300/2/5 303/2/5
f 305/2/5 302/2/5 301/2/5
f 306/2/5 302/2/5 305/2/5
f 311/3/5 308/3/5 307/3/5
f 312/3/5 308/3/5 311/3/5
f 313/3/5 310/3/5 309/3/5
f 314/3/5 310/3/5 313/3/5
f 317/5/5 316/5/5 315/5/5
f 318/5/5 316/5/5 317/5/5
f 319/7/6 320/7/6 321/7/6
f 321/7/6 320/7/6 322/7/6
f 323/7/6 324/7/6 326/7/6
f 325/7/6 326/7/6 327/7/6
f 326/7/6 324/7/6 328/7/6
f 327/7/6 326/7/6 328/7/6
f 329/4/6 330/4/6 333/4/6
f 333/4/6 330/4/6 334/4/6
f 331/1/6 332/1/6 335/1/6
f 335/1/6 332/1/6 336/1/6
f 334/7/6 335/7/6 339/7/6
f 335/4/6 336/4/6 340/4/6
f 339/7/6 335/7/6 340/7/6
f 337/4/6 338/4/6 341/4/6
f 341/4/6 338/4/6 342/4/6
f 339/4/6 340/4/6 343/4/6
f 340/4/6 336/4/6 344/4/6
f 343/4/6 340/4/6 344/4/6
f 344/4/6 336/4/6 345/4/6
f 343/7/6 344/7/6 349/7/6
f 349/7/6 344/7/6 350/7/6
f 346/4/6 347/4/6 351/4/6
f 351/4/6 347/4/6 352/4/6
f 348/4/6 349/4/6 353/4/6
f 353/4/6 349/4/6 354/4/6
f 355/2/6 356/2/6 359/2/6
f 359/2/6 356/2/6 360/2/6
f 357/2/6 358/2/6 361/2/6
f 361/2/6 358/2/6 362/2/6
f 363/5/6 364/5/6 365/5/6
f 365/5/6 364/5/6 366/5/6
f 367/5/6 368/5/6 369/5/6
f 369/5/6 368/5/6 370/5/6
