# MagicaVoxel @ Ephtracy

# material
mtllib chr_army2.mtl
usemtl palette

# normals
vn -1 0 0
vn 1 0 0
vn 0 0 1
vn 0 0 -1
vn 0 -1 0
vn 0 1 0

# texcoords
vt 0.0332031 0.5
vt 0.369141 0.5
vt 0.373047 0.5
vt 0.486328 0.5
vt 0.509766 0.5
vt 0.654297 0.5
vt 0.677734 0.5
vt 0.986328 0.5
vt 0.994141 0.5

# verts
v -4 2 0.5
v -4 2 -0.5
v -4 4 0.5
v -4 4 -0.5
v -4 5 0.5
v -4 5 -0.5
v -4 6 0.5
v -4 6 -0.5
v -4 7 0.5
v -4 7 -0.5
v -4 8 0.5
v -4 8 -0.5
v -3 1 1.5
v -3 1 0.5
v -3 1 -1.5
v -3 2 2.5
v -3 2 1.5
v -3 2 0.5
v -3 2 -0.5
v -3 2 -1.5
v -3 2 -2.5
v -3 3 2.5
v -3 3 1.5
v -3 3 0.5
v -3 3 -0.5
v -3 3 -2.5
v -3 4 2.5
v -3 4 1.5
v -3 4 0.5
v -3 4 -0.5
v -3 4 -1.5
v -3 5 1.5
v -3 5 0.5
v -3 5 -0.5
v -3 5 -1.5
v -3 6 2.5
v -3 6 1.5
v -3 6 0.5
v -3 6 -0.5
v -3 6 -1.5
v -3 6 -2.5
v -3 7 0.5
v -3 7 -0.5
v -3 7 -1.5
v -3 7 -2.5
v -3 8 0.5
v -3 8 -0.5
v -3 9 2.5
v -3 9 1.5
v -3 9 0.5
v -3 9 -1.5
v -3 9 -2.5
v -3 9 -3.5
v -3 10 1.5
v -3 10 0.5
v -3 10 -1.5
v -3 10 -3.5
v -3 11 2.5
v -3 11 1.5
v -3 11 0.5
v -3 11 -0.5
v -3 11 -2.5
v -3 11 -3.5
v -3 12 1.5
v -3 12 0.5
v -3 12 -0.5
v -3 12 -2.5
v -2 0 0.5
v -2 0 -0.5
v -2 1 0.5
v -2 1 -0.5
v -2 2 3.5
v -2 2 2.5
v -2 2 -2.5
v -2 2 -3.5
v -2 2 -4.5
v -2 3 3.5
v -2 3 2.5
v -2 3 -2.5
v -2 3 -3.5
v -2 4 3.5
v -2 4 2.5
v -2 4 -2.5
v -2 4 -3.5
v -2 5 -2.5
v -2 5 -3.5
v -2 6 -1.5
v -2 6 -2.5
v -2 6 -3.5
v -2 6 -4.5
v -2 7 -1.5
v -2 7 -2.5
v -2 7 -3.5
v -2 9 -2.5
v -2 9 -3.5
v -2 11 2.5
v -2 11 1.5
v -2 11 -2.5
v -2 11 -3.5
v -2 12 2.5
v -2 12 1.5
v -2 12 -2.5
v -2 12 -3.5
v 1 0 0.5
v 1 0 -0.5
v 1 1 1.5
v 1 1 0.5
v 1 1 -0.5
v 1 1 -1.5
v 1 2 1.5
v 1 2 -1.5
v -1 0 0.5
v -1 0 -0.5
v -1 1 1.5
v -1 1 0.5
v -1 1 -0.5
v -1 1 -1.5
v -1 2 3.5
v -1 2 2.5
v -1 2 1.5
v -1 2 -0.5
v -1 2 -1.5
v -1 3 3.5
v -1 3 2.5
v -1 4 3.5
v -1 4 2.5
v 2 0 0.5
v 2 0 -0.5
v 2 1 0.5
v 2 1 -0.5
v 2 2 -2.5
v 2 2 -3.5
v 2 2 -4.5
v 2 3 -2.5
v 2 3 -3.5
v 2 4 -2.5
v 2 4 -3.5
v 2 4 -4.5
v 2 5 -2.5
v 2 5 -3.5
v 2 5 -4.5
v 2 6 -1.5
v 2 6 -2.5
v 2 6 -4.5
v 2 7 -1.5
v 2 7 -2.5
v 2 7 -3.5
v 2 9 -2.5
v 2 9 -3.5
v 2 11 2.5
v 2 11 1.5
v 2 11 -2.5
v 2 11 -3.5
v 2 12 2.5
v 2 12 1.5
v 2 12 -2.5
v 2 12 -3.5
v 3 1 1.5
v 3 1 0.5
v 3 1 -0.5
v 3 1 -1.5
v 3 2 2.5
v 3 2 1.5
v 3 2 0.5
v 3 2 -0.5
v 3 2 -1.5
v 3 2 -2.5
v 3 3 2.5
v 3 3 0.5
v 3 3 -0.5
v 3 3 -1.5
v 3 3 -2.5
v 3 4 2.5
v 3 4 1.5
v 3 4 0.5
v 3 4 -0.5
v 3 4 -1.5
v 3 4 -2.5
v 3 5 2.5
v 3 5 1.5
v 3 5 0.5
v 3 5 -0.5
v 3 5 -1.5
v 3 5 -2.5
v 3 6 2.5
v 3 6 1.5
v 3 6 0.5
v 3 6 -0.5
v 3 6 -1.5
v 3 6 -2.5
v 3 7 0.5
v 3 7 -0.5
v 3 7 -1.5
v 3 7 -2.5
v 3 8 0.5
v 3 8 -0.5
v 3 9 2.5
v 3 9 1.5
v 3 9 0.5
v 3 9 -1.5
v 3 9 -2.5
v 3 9 -3.5
v 3 10 2.5
v 3 10 1.5
v 3 10 0.5
v 3 10 -0.5
v 3 10 -1.5
v 3 10 -2.5
v 3 10 -3.5
v 3 11 2.5
v 3 11 1.5
v 3 11 0.5
v 3 11 -0.5
v 3 11 -1.5
v 3 11 -2.5
v 3 11 -3.5
v 3 12 1.5
v 3 12 -1.5
v 3 12 -2.5
v 4 2 0.5
v 4 2 -0.5
v 4 4 0.5
v 4 4 -0.5
v 4 5 0.5
v 4 5 -0.5
v 4 6 0.5
v 4 6 -0.5
v 4 7 0.5
v 4 7 -0.5
v 4 8 0.5
v 4 8 -0.5
v -2 2 3.5
v -2 3 3.5
v -2 4 3.5
v -1 2 3.5
v -1 3 3.5
v -1 4 3.5
v -3 2 2.5
v -3 3 2.5
v -3 4 2.5
v -3 6 2.5
v -3 9 2.5
v -3 11 2.5
v -2 2 2.5
v -2 3 2.5
v -2 4 2.5
v -2 6 2.5
v -2 10 2.5
v -2 11 2.5
v -2 12 2.5
v -1 2 2.5
v -1 3 2.5
v -1 4 2.5
v -1 5 2.5
v -1 6 2.5
v -1 10 2.5
v -1 11 2.5
v 0 4 2.5
v 0 5 2.5
v 0 6 2.5
v 0 9 2.5
v 0 10 2.5
v 0 11 2.5
v 0 12 2.5
v 1 3 2.5
v 1 5 2.5
v 1 6 2.5
v 1 9 2.5
v 1 10 2.5
v 1 11 2.5
v 1 12 2.5
v 2 3 2.5
v 2 4 2.5
v 2 5 2.5
v 2 6 2.5
v 2 10 2.5
v 2 11 2.5
v 2 12 2.5
v 3 2 2.5
v 3 3 2.5
v 3 4 2.5
v 3 5 2.5
v 3 6 2.5
v 3 9 2.5
v 3 10 2.5
v 3 11 2.5
v -3 1 1.5
v -3 2 1.5
v -3 6 1.5
v -3 9 1.5
v -3 11 1.5
v -3 12 1.5
v -2 1 1.5
v -2 2 1.5
v -2 6 1.5
v -2 7 1.5
v -2 8 1.5
v -2 11 1.5
v -2 12 1.5
v -1 1 1.5
v -1 2 1.5
v -1 6 1.5
v -1 7 1.5
v -1 8 1.5
v 0 6 1.5
v 0 9 1.5
v 1 1 1.5
v 1 2 1.5
v 1 6 1.5
v 1 7 1.5
v 1 8 1.5
v 1 9 1.5
v 2 1 1.5
v 2 2 1.5
v 2 6 1.5
v 2 7 1.5
v 2 8 1.5
v 2 11 1.5
v 2 12 1.5
v 3 1 1.5
v 3 2 1.5
v 3 6 1.5
v 3 9 1.5
v 3 11 1.5
v 3 12 1.5
v -4 2 0.5
v -4 4 0.5
v -4 5 0.5
v -4 6 0.5
v -4 7 0.5
v -4 8 0.5
v -3 2 0.5
v -3 3 0.5
v -3 4 0.5
v -3 5 0.5
v -3 6 0.5
v -3 7 0.5
v -3 8 0.5
v -2 0 0.5
v -2 1 0.5
v -1 0 0.5
v -1 1 0.5
v 1 0 0.5
v 1 1 0.5
v 2 0 0.5
v 2 1 0.5
v 3 2 0.5
v 3 3 0.5
v 3 4 0.5
v 3 5 0.5
v 3 6 0.5
v 3 7 0.5
v 3 8 0.5
v 4 2 0.5
v 4 4 0.5
v 4 5 0.5
v 4 6 0.5
v 4 7 0.5
v 4 8 0.5
v -4 2 -0.5
v -4 4 -0.5
v -4 5 -0.5
v -4 6 -0.5
v -4 7 -0.5
v -4 8 -0.5
v -3 2 -0.5
v -3 3 -0.5
v -3 4 -0.5
v -3 5 -0.5
v -3 6 -0.5
v -3 7 -0.5
v -3 8 -0.5
v -2 0 -0.5
v -2 1 -0.5
v -1 0 -0.5
v -1 1 -0.5
v 1 0 -0.5
v 1 1 -0.5
v 2 0 -0.5
v 2 1 -0.5
v 3 2 -0.5
v 3 3 -0.5
v 3 4 -0.5
v 3 5 -0.5
v 3 6 -0.5
v 3 7 -0.5
v 3 8 -0.5
v 4 2 -0.5
v 4 4 -0.5
v 4 5 -0.5
v 4 6 -0.5
v 4 7 -0.5
v 4 8 -0.5
v -3 1 -1.5
v -3 2 -1.5
v -3 6 -1.5
v -3 7 -1.5
v -2 1 -1.5
v -2 2 -1.5
v -2 6 -1.5
v -2 7 -1.5
v -1 1 -1.5
v -1 2 -1.5
v 1 1 -1.5
v 1 2 -1.5
v 2 1 -1.5
v 2 2 -1.5
v 2 6 -1.5
v 2 7 -1.5
v 3 1 -1.5
v 3 2 -1.5
v 3 6 -1.5
v 3 7 -1.5
v -3 2 -2.5
v -3 3 -2.5
v -3 6 -2.5
v -3 7 -2.5
v -3 9 -2.5
v -3 11 -2.5
v -3 12 -2.5
v -2 2 -2.5
v -2 3 -2.5
v -2 4 -2.5
v -2 5 -2.5
v -2 6 -2.5
v -2 7 -2.5
v -2 9 -2.5
v -2 11 -2.5
v -2 12 -2.5
v 2 2 -2.5
v 2 3 -2.5
v 2 4 -2.5
v 2 5 -2.5
v 2 6 -2.5
v 2 7 -2.5
v 2 9 -2.5
v 2 11 -2.5
v 2 12 -2.5
v 3 2 -2.5
v 3 3 -2.5
v 3 4 -2.5
v 3 5 -2.5
v 3 6 -2.5
v 3 7 -2.5
v 3 9 -2.5
v 3 11 -2.5
v 3 12 -2.5
v -3 9 -3.5
v -3 10 -3.5
v -3 11 -3.5
v -2 7 -3.5
v -2 9 -3.5
v -2 10 -3.5
v -2 11 -3.5
v -2 12 -3.5
v -1 11 -3.5
v -1 12 -3.5
v 0 10 -3.5
v 0 11 -3.5
v 1 10 -3.5
v 1 11 -3.5
v 2 7 -3.5
v 2 9 -3.5
v 2 10 -3.5
v 2 11 -3.5
v 2 12 -3.5
v 3 9 -3.5
v 3 10 -3.5
v 3 11 -3.5
v -2 2 -4.5
v -2 6 -4.5
v -1 2 -4.5
v -1 3 -4.5
v -1 4 -4.5
v -1 5 -4.5
v 0 2 -4.5
v 0 3 -4.5
v 0 4 -4.5
v 0 5 -4.5
v 0 6 -4.5
v 1 3 -4.5
v 1 4 -4.5
v 1 5 -4.5
v 2 2 -4.5
v 2 4 -4.5
v 2 5 -4.5
v 2 6 -4.5
v -2 0 0.5
v -1 0 0.5
v 1 0 0.5
v 2 0 0.5
v -2 0 -0.5
v -1 0 -0.5
v 1 0 -0.5
v 2 0 -0.5
v -3 1 1.5
v -2 1 1.5
v -1 1 1.5
v 1 1 1.5
v 2 1 1.5
v 3 1 1.5
v -3 1 0.5
v -2 1 0.5
v -1 1 0.5
v 1 1 0.5
v 2 1 0.5
v 3 1 0.5
v -2 1 -0.5
v -1 1 -0.5
v 1 1 -0.5
v 2 1 -0.5
v 3 1 -0.5
v -3 1 -1.5
v -2 1 -1.5
v -1 1 -1.5
v 1 1 -1.5
v 2 1 -1.5
v 3 1 -1.5
v -2 2 3.5
v -1 2 3.5
v -3 2 2.5
v -2 2 2.5
v -1 2 2.5
v 3 2 2.5
v -3 2 1.5
v -2 2 1.5
v -1 2 1.5
v 1 2 1.5
v 2 2 1.5
v 3 2 1.5
v -4 2 0.5
v -3 2 0.5
v 3 2 0.5
v 4 2 0.5
v -4 2 -0.5
v -3 2 -0.5
v -1 2 -0.5
v 3 2 -0.5
v 4 2 -0.5
v -3 2 -1.5
v -2 2 -1.5
v -1 2 -1.5
v 1 2 -1.5
v 2 2 -1.5
v 3 2 -1.5
v -3 2 -2.5
v -2 2 -2.5
v 2 2 -2.5
v 3 2 -2.5
v -2 2 -3.5
v -1 2 -3.5
v 0 2 -3.5
v 2 2 -3.5
v -2 2 -4.5
v -1 2 -4.5
v 0 2 -4.5
v 2 2 -4.5
v -4 7 0.5
v -3 7 0.5
v 3 7 0.5
v 4 7 0.5
v -4 7 -0.5
v -3 7 -0.5
v 3 7 -0.5
v 4 7 -0.5
v -3 7 -1.5
v -2 7 -1.5
v 2 7 -1.5
v 3 7 -1.5
v -3 7 -2.5
v -2 7 -2.5
v 2 7 -2.5
v 3 7 -2.5
v -2 7 -3.5
v 2 7 -3.5
v -3 9 2.5
v 0 9 2.5
v 1 9 2.5
v 3 9 2.5
v -3 9 1.5
v 0 9 1.5
v 1 9 1.5
v 3 9 1.5
v -3 9 -2.5
v -2 9 -2.5
v 2 9 -2.5
v 3 9 -2.5
v -3 9 -3.5
v -2 9 -3.5
v 2 9 -3.5
v 3 9 -3.5
v -2 4 3.5
v -1 4 3.5
v -2 4 2.5
v -1 4 2.5
v -3 6 2.5
v -2 6 2.5
v -1 6 2.5
v 0 6 2.5
v 1 6 2.5
v 2 6 2.5
v 3 6 2.5
v -3 6 1.5
v -2 6 1.5
v -1 6 1.5
v 0 6 1.5
v 1 6 1.5
v 2 6 1.5
v 3 6 1.5
v -4 6 0.5
v -3 6 0.5
v 3 6 0.5
v 4 6 0.5
v -4 6 -0.5
v -3 6 -0.5
v 3 6 -0.5
v 4 6 -0.5
v -3 6 -1.5
v -2 6 -1.5
v 2 6 -1.5
v 3 6 -1.5
v -3 6 -2.5
v -2 6 -2.5
v 2 6 -2.5
v 3 6 -2.5
v -2 6 -3.5
v 0 6 -3.5
v -2 6 -4.5
v 0 6 -4.5
v 2 6 -4.5
v -4 8 0.5
v -3 8 0.5
v 3 8 0.5
v 4 8 0.5
v -4 8 -0.5
v -3 8 -0.5
v 3 8 -0.5
v 4 8 -0.5
v -3 11 2.5
v -2 11 2.5
v 2 11 2.5
v 3 11 2.5
v -3 11 1.5
v -2 11 1.5
v 2 11 1.5
v 3 11 1.5
v -3 11 -2.5
v -2 11 -2.5
v 2 11 -2.5
v 3 11 -2.5
v -3 11 -3.5
v -2 11 -3.5
v 2 11 -3.5
v 3 11 -3.5
v -2 12 2.5
v 0 12 2.5
v 1 12 2.5
v 2 12 2.5
v -3 12 1.5
v -2 12 1.5
v -1 12 1.5
v 0 12 1.5
v 1 12 1.5
v 2 12 1.5
v 3 12 1.5
v -3 12 0.5
v -2 12 0.5
v -1 12 0.5
v 1 12 0.5
v 2 12 0.5
v -3 12 -0.5
v -2 12 -0.5
v -1 12 -0.5
v 0 12 -0.5
v 1 12 -0.5
v -2 12 -1.5
v -1 12 -1.5
v 0 12 -1.5
v 1 12 -1.5
v 2 12 -1.5
v 3 12 -1.5
v -3 12 -2.5
v -2 12 -2.5
v -1 12 -2.5
v 0 12 -2.5
v 2 12 -2.5
v 3 12 -2.5
v -2 12 -3.5
v -1 12 -3.5
v 2 12 -3.5

# faces
f 3/1/1 2/1/1 1/1/1
f 4/1/1 2/1/1 3/1/1
f 5/6/1 4/6/1 3/6/1
f 6/6/1 4/6/1 5/6/1
f 7/7/1 6/7/1 5/7/1
f 8/7/1 6/7/1 7/7/1
f 11/1/1 10/1/1 9/1/1
f 12/1/1 10/1/1 11/1/1
f 17/7/1 14/7/1 13/7/1
f 18/6/1 15/6/1 14/6/1
f 18/7/1 14/7/1 17/7/1
f 19/6/1 15/6/1 18/6/1
f 20/6/1 15/6/1 19/6/1
f 22/8/1 17/8/1 16/8/1
f 22/8/1 18/8/1 17/8/1
f 23/8/1 18/8/1 22/8/1
f 24/8/1 18/8/1 23/8/1
f 25/8/1 21/8/1 20/8/1
f 25/8/1 20/8/1 19/8/1
f 26/8/1 21/8/1 25/8/1
f 27/7/1 23/7/1 22/7/1
f 28/6/1 24/6/1 23/6/1
f 28/7/1 23/7/1 27/7/1
f 29/6/1 24/6/1 28/6/1
f 30/6/1 26/6/1 25/6/1
f 31/6/1 26/6/1 30/6/1
f 32/6/1 29/6/1 28/6/1
f 32/6/1 28/6/1 27/6/1
f 33/6/1 29/6/1 32/6/1
f 34/7/1 31/7/1 30/7/1
f 35/6/1 26/6/1 31/6/1
f 35/7/1 31/7/1 34/7/1
f 36/6/1 32/6/1 27/6/1
f 37/7/1 33/7/1 32/7/1
f 37/6/1 32/6/1 36/6/1
f 38/7/1 33/7/1 37/7/1
f 39/6/1 35/6/1 34/6/1
f 40/6/1 26/6/1 35/6/1
f 40/6/1 35/6/1 39/6/1
f 41/6/1 26/6/1 40/6/1
f 42/1/1 39/1/1 38/1/1
f 42/1/1 38/1/1 37/1/1
f 42/1/1 40/1/1 39/1/1
f 43/1/1 40/1/1 42/1/1
f 44/1/1 40/1/1 43/1/1
f 46/1/1 42/1/1 37/1/1
f 47/3/1 45/3/1 44/3/1
f 47/3/1 44/3/1 43/3/1
f 49/1/1 46/1/1 37/1/1
f 50/3/1 47/3/1 46/3/1
f 50/1/1 46/1/1 49/1/1
f 51/3/1 45/3/1 47/3/1
f 51/3/1 47/3/1 50/3/1
f 52/3/1 45/3/1 51/3/1
f 54/6/1 51/6/1 50/6/1
f 54/6/1 49/6/1 48/6/1
f 54/6/1 50/6/1 49/6/1
f 55/6/1 51/6/1 54/6/1
f 56/7/1 52/7/1 51/7/1
f 56/6/1 51/6/1 55/6/1
f 56/7/1 53/7/1 52/7/1
f 57/7/1 53/7/1 56/7/1
f 58/6/1 54/6/1 48/6/1
f 59/7/1 55/7/1 54/7/1
f 59/6/1 54/6/1 58/6/1
f 60/6/1 56/6/1 55/6/1
f 60/7/1 55/7/1 59/7/1
f 60/6/1 57/6/1 56/6/1
f 61/6/1 57/6/1 60/6/1
f 62/6/1 57/6/1 61/6/1
f 63/6/1 57/6/1 62/6/1
f 64/6/1 60/6/1 59/6/1
f 65/7/1 61/7/1 60/7/1
f 65/6/1 60/6/1 64/6/1
f 66/6/1 62/6/1 61/6/1
f 66/7/1 61/7/1 65/7/1
f 67/6/1 62/6/1 66/6/1
f 70/8/1 69/8/1 68/8/1
f 71/8/1 69/8/1 70/8/1
f 77/4/1 73/4/1 72/4/1
f 78/4/1 73/4/1 77/4/1
f 79/4/1 75/4/1 74/4/1
f 80/6/1 76/6/1 75/6/1
f 80/4/1 75/4/1 79/4/1
f 81/5/1 78/5/1 77/5/1
f 82/5/1 78/5/1 81/5/1
f 83/6/1 80/6/1 79/6/1
f 84/6/1 76/6/1 80/6/1
f 84/6/1 80/6/1 83/6/1
f 85/4/1 84/4/1 83/4/1
f 86/6/1 76/6/1 84/6/1
f 86/4/1 84/4/1 85/4/1
f 88/5/1 86/5/1 85/5/1
f 89/6/1 76/6/1 86/6/1
f 89/5/1 86/5/1 88/5/1
f 90/6/1 76/6/1 89/6/1
f 91/1/1 88/1/1 87/1/1
f 92/1/1 88/1/1 91/1/1
f 94/3/1 93/3/1 92/3/1
f 95/3/1 93/3/1 94/3/1
f 100/6/1 97/6/1 96/6/1
f 101/6/1 97/6/1 100/6/1
f 102/7/1 99/7/1 98/7/1
f 103/7/1 99/7/1 102/7/1
f 107/8/1 105/8/1 104/8/1
f 108/8/1 105/8/1 107/8/1
f 110/6/1 107/6/1 106/6/1
f 110/6/1 109/6/1 108/6/1
f 110/6/1 108/6/1 107/6/1
f 111/6/1 109/6/1 110/6/1
f 112/8/2 113/8/2 115/8/2
f 115/8/2 113/8/2 116/8/2
f 114/6/2 115/6/2 120/6/2
f 115/6/2 116/6/2 120/6/2
f 116/7/2 117/7/2 121/7/2
f 120/6/2 116/6/2 121/6/2
f 121/7/2 117/7/2 122/7/2
f 118/4/2 119/4/2 123/4/2
f 123/4/2 119/4/2 124/4/2
f 123/5/2 124/5/2 125/5/2
f 125/5/2 124/5/2 126/5/2
f 127/8/2 128/8/2 129/8/2
f 129/8/2 128/8/2 130/8/2
f 131/4/2 132/4/2 134/4/2
f 132/5/2 133/5/2 135/5/2
f 134/4/2 132/4/2 135/4/2
f 134/5/2 135/5/2 136/5/2
f 135/5/2 133/5/2 137/5/2
f 136/5/2 135/5/2 137/5/2
f 137/5/2 133/5/2 138/5/2
f 136/4/2 137/4/2 139/4/2
f 137/6/2 138/6/2 140/6/2
f 139/4/2 137/4/2 140/4/2
f 140/6/2 138/6/2 141/6/2
f 139/5/2 140/5/2 143/5/2
f 140/5/2 141/5/2 143/5/2
f 143/5/2 141/5/2 144/5/2
f 142/1/2 143/1/2 145/1/2
f 145/1/2 143/1/2 146/1/2
f 146/3/2 147/3/2 148/3/2
f 148/3/2 147/3/2 149/3/2
f 150/6/2 151/6/2 154/6/2
f 154/6/2 151/6/2 155/6/2
f 152/6/2 153/6/2 156/6/2
f 156/6/2 153/6/2 157/6/2
f 158/7/2 159/7/2 163/7/2
f 159/6/2 160/6/2 164/6/2
f 163/7/2 159/7/2 164/7/2
f 160/7/2 161/7/2 165/7/2
f 164/6/2 160/6/2 165/6/2
f 165/7/2 161/7/2 166/7/2
f 163/8/2 164/8/2 168/8/2
f 162/8/2 163/8/2 168/8/2
f 168/8/2 164/8/2 169/8/2
f 166/8/2 167/8/2 170/8/2
f 165/8/2 166/8/2 170/8/2
f 170/8/2 167/8/2 171/8/2
f 171/8/2 167/8/2 172/8/2
f 168/6/2 169/6/2 173/6/2
f 173/6/2 169/6/2 174/6/2
f 174/6/2 169/6/2 175/6/2
f 170/6/2 171/6/2 176/6/2
f 171/7/2 172/7/2 177/7/2
f 176/6/2 171/6/2 177/6/2
f 177/7/2 172/7/2 178/7/2
f 173/7/2 174/7/2 179/7/2
f 174/6/2 175/6/2 180/6/2
f 179/7/2 174/7/2 180/7/2
f 180/6/2 175/6/2 181/6/2
f 176/6/2 177/6/2 182/6/2
f 177/6/2 178/6/2 182/6/2
f 182/6/2 178/6/2 183/6/2
f 183/6/2 178/6/2 184/6/2
f 179/6/2 180/6/2 185/6/2
f 180/7/2 181/7/2 186/7/2
f 185/6/2 180/6/2 186/6/2
f 186/7/2 181/7/2 187/7/2
f 182/6/2 183/6/2 188/6/2
f 183/7/2 184/7/2 189/7/2
f 188/6/2 183/6/2 189/6/2
f 189/7/2 184/7/2 190/7/2
f 186/1/2 187/1/2 191/1/2
f 187/1/2 188/1/2 191/1/2
f 188/1/2 189/1/2 191/1/2
f 191/1/2 189/1/2 192/1/2
f 192/1/2 189/1/2 193/1/2
f 186/1/2 191/1/2 195/1/2
f 193/3/2 194/3/2 196/3/2
f 192/3/2 193/3/2 196/3/2
f 186/1/2 195/1/2 198/1/2
f 195/3/2 196/3/2 199/3/2
f 198/1/2 195/1/2 199/1/2
f 196/3/2 194/3/2 200/3/2
f 199/3/2 196/3/2 200/3/2
f 200/3/2 194/3/2 201/3/2
f 199/6/2 200/6/2 203/6/2
f 198/6/2 199/6/2 203/6/2
f 197/6/2 198/6/2 203/6/2
f 203/6/2 200/6/2 204/6/2
f 204/6/2 200/6/2 205/6/2
f 205/6/2 200/6/2 206/6/2
f 200/7/2 201/7/2 207/7/2
f 206/6/2 200/6/2 207/6/2
f 201/6/2 202/6/2 208/6/2
f 207/7/2 201/7/2 208/7/2
f 208/6/2 202/6/2 209/6/2
f 203/7/2 204/7/2 210/7/2
f 204/6/2 205/6/2 211/6/2
f 210/7/2 204/7/2 211/7/2
f 205/7/2 206/7/2 212/7/2
f 211/6/2 205/6/2 212/6/2
f 206/6/2 207/6/2 213/6/2
f 212/7/2 206/7/2 213/7/2
f 207/6/2 208/6/2 213/6/2
f 213/6/2 208/6/2 214/6/2
f 208/7/2 209/7/2 215/7/2
f 214/6/2 208/6/2 215/6/2
f 215/7/2 209/7/2 216/7/2
f 211/6/2 212/6/2 217/6/2
f 213/6/2 214/6/2 217/6/2
f 212/6/2 213/6/2 217/6/2
f 214/7/2 215/7/2 218/7/2
f 217/6/2 214/6/2 218/6/2
f 218/7/2 215/7/2 219/7/2
f 220/1/2 221/1/2 222/1/2
f 222/1/2 221/1/2 223/1/2
f 222/6/2 223/6/2 224/6/2
f 224/6/2 223/6/2 225/6/2
f 224/7/2 225/7/2 226/7/2
f 226/7/2 225/7/2 227/7/2
f 228/1/2 229/1/2 230/1/2
f 230/1/2 229/1/2 231/1/2
f 235/4/3 233/4/3 232/4/3
f 236/5/3 234/5/3 233/5/3
f 236/4/3 233/4/3 235/4/3
f 237/5/3 234/5/3 236/5/3
f 244/8/3 239/8/3 238/8/3
f 245/7/3 240/7/3 239/7/3
f 245/8/3 239/8/3 244/8/3
f 246/6/3 241/6/3 240/6/3
f 246/7/3 240/7/3 245/7/3
f 247/6/3 241/6/3 246/6/3
f 248/6/3 243/6/3 242/6/3
f 249/6/3 243/6/3 248/6/3
f 253/5/3 247/5/3 246/5/3
f 254/5/3 247/5/3 253/5/3
f 255/5/3 247/5/3 254/5/3
f 256/7/3 249/7/3 248/7/3
f 256/6/3 248/6/3 242/6/3
f 257/6/3 250/6/3 249/6/3
f 257/7/3 249/7/3 256/7/3
f 258/7/3 254/7/3 253/7/3
f 258/6/3 253/6/3 252/6/3
f 259/6/3 255/6/3 254/6/3
f 259/7/3 254/7/3 258/7/3
f 260/6/3 255/6/3 259/6/3
f 261/6/3 256/6/3 242/6/3
f 261/6/3 257/6/3 256/6/3
f 262/6/3 257/6/3 261/6/3
f 263/6/3 250/6/3 257/6/3
f 263/6/3 257/6/3 262/6/3
f 264/6/3 250/6/3 263/6/3
f 265/8/3 252/8/3 251/8/3
f 265/6/3 258/6/3 252/6/3
f 265/6/3 259/6/3 258/6/3
f 266/7/3 260/7/3 259/7/3
f 266/6/3 259/6/3 265/6/3
f 267/7/3 260/7/3 266/7/3
f 268/7/3 262/7/3 261/7/3
f 269/6/3 263/6/3 262/6/3
f 269/7/3 262/7/3 268/7/3
f 270/7/3 264/7/3 263/7/3
f 270/6/3 263/6/3 269/6/3
f 271/7/3 264/7/3 270/7/3
f 272/8/3 265/8/3 251/8/3
f 272/5/3 267/5/3 266/5/3
f 272/5/3 266/5/3 265/5/3
f 273/5/3 267/5/3 272/5/3
f 274/5/3 267/5/3 273/5/3
f 275/5/3 267/5/3 274/5/3
f 276/6/3 269/6/3 268/6/3
f 276/6/3 271/6/3 270/6/3
f 276/6/3 270/6/3 269/6/3
f 277/6/3 271/6/3 276/6/3
f 278/6/3 271/6/3 277/6/3
f 279/8/3 272/8/3 251/8/3
f 280/6/3 273/6/3 272/6/3
f 280/8/3 272/8/3 279/8/3
f 281/7/3 274/7/3 273/7/3
f 281/6/3 273/6/3 280/6/3
f 282/6/3 275/6/3 274/6/3
f 282/7/3 274/7/3 281/7/3
f 283/6/3 275/6/3 282/6/3
f 284/6/3 276/6/3 268/6/3
f 285/7/3 277/7/3 276/7/3
f 285/6/3 276/6/3 284/6/3
f 286/7/3 277/7/3 285/7/3
f 293/7/3 288/7/3 287/7/3
f 294/7/3 288/7/3 293/7/3
f 295/1/3 290/1/3 289/1/3
f 296/1/3 290/1/3 295/1/3
f 297/1/3 290/1/3 296/1/3
f 298/6/3 292/6/3 291/6/3
f 299/6/3 292/6/3 298/6/3
f 300/6/3 294/6/3 293/6/3
f 301/6/3 294/6/3 300/6/3
f 302/1/3 296/1/3 295/1/3
f 303/9/3 297/9/3 296/9/3
f 303/1/3 296/1/3 302/1/3
f 304/1/3 290/1/3 297/1/3
f 304/9/3 297/9/3 303/9/3
f 305/1/3 303/1/3 302/1/3
f 305/1/3 304/1/3 303/1/3
f 306/1/3 290/1/3 304/1/3
f 306/1/3 304/1/3 305/1/3
f 309/1/3 306/1/3 305/1/3
f 310/1/3 306/1/3 309/1/3
f 311/1/3 306/1/3 310/1/3
f 312/1/3 306/1/3 311/1/3
f 313/6/3 308/6/3 307/6/3
f 314/6/3 308/6/3 313/6/3
f 315/1/3 310/1/3 309/1/3
f 316/9/3 311/9/3 310/9/3
f 316/1/3 310/1/3 315/1/3
f 317/1/3 312/1/3 311/1/3
f 317/9/3 311/9/3 316/9/3
f 320/7/3 314/7/3 313/7/3
f 321/7/3 314/7/3 320/7/3
f 322/1/3 317/1/3 316/1/3
f 322/1/3 316/1/3 315/1/3
f 323/1/3 312/1/3 317/1/3
f 323/1/3 317/1/3 322/1/3
f 324/6/3 319/6/3 318/6/3
f 325/6/3 319/6/3 324/6/3
f 332/1/3 327/1/3 326/1/3
f 333/1/3 327/1/3 332/1/3
f 334/6/3 328/6/3 327/6/3
f 334/1/3 327/1/3 333/1/3
f 335/7/3 329/7/3 328/7/3
f 335/6/3 328/6/3 334/6/3
f 336/7/3 329/7/3 335/7/3
f 337/1/3 331/1/3 330/1/3
f 338/1/3 331/1/3 337/1/3
f 341/8/3 340/8/3 339/8/3
f 342/8/3 340/8/3 341/8/3
f 345/8/3 344/8/3 343/8/3
f 346/8/3 344/8/3 345/8/3
f 354/1/3 348/1/3 347/1/3
f 354/1/3 349/1/3 348/1/3
f 355/6/3 350/6/3 349/6/3
f 355/1/3 349/1/3 354/1/3
f 356/7/3 351/7/3 350/7/3
f 356/6/3 350/6/3 355/6/3
f 357/7/3 351/7/3 356/7/3
f 358/1/3 353/1/3 352/1/3
f 359/1/3 353/1/3 358/1/3
f 360/1/4 361/1/4 366/1/4
f 366/1/4 361/1/4 367/1/4
f 361/6/4 362/6/4 368/6/4
f 367/1/4 361/1/4 368/1/4
f 362/7/4 363/7/4 369/7/4
f 368/6/4 362/6/4 369/6/4
f 369/7/4 363/7/4 370/7/4
f 364/1/4 365/1/4 371/1/4
f 371/1/4 365/1/4 372/1/4
f 373/8/4 374/8/4 375/8/4
f 375/8/4 374/8/4 376/8/4
f 377/8/4 378/8/4 379/8/4
f 379/8/4 378/8/4 380/8/4
f 381/1/4 382/1/4 388/1/4
f 382/1/4 383/1/4 388/1/4
f 383/6/4 384/6/4 389/6/4
f 388/1/4 383/1/4 389/1/4
f 384/7/4 385/7/4 390/7/4
f 389/6/4 384/6/4 390/6/4
f 390/7/4 385/7/4 391/7/4
f 386/1/4 387/1/4 392/1/4
f 392/1/4 387/1/4 393/1/4
f 394/6/4 395/6/4 398/6/4
f 398/6/4 395/6/4 399/6/4
f 396/1/4 397/1/4 400/1/4
f 400/1/4 397/1/4 401/1/4
f 398/7/4 399/7/4 402/7/4
f 402/7/4 399/7/4 403/7/4
f 404/6/4 405/6/4 406/6/4
f 406/6/4 405/6/4 407/6/4
f 406/7/4 407/7/4 410/7/4
f 410/7/4 407/7/4 411/7/4
f 408/1/4 409/1/4 412/1/4
f 412/1/4 409/1/4 413/1/4
f 414/8/4 415/8/4 421/8/4
f 415/6/4 416/6/4 422/6/4
f 421/8/4 415/8/4 422/8/4
f 422/6/4 416/6/4 423/6/4
f 423/6/4 416/6/4 424/6/4
f 424/6/4 416/6/4 425/6/4
f 417/3/4 418/3/4 426/3/4
f 426/3/4 418/3/4 427/3/4
f 419/6/4 420/6/4 428/6/4
f 428/6/4 420/6/4 429/6/4
f 425/1/4 426/1/4 434/1/4
f 434/1/4 426/1/4 435/1/4
f 430/8/4 431/8/4 439/8/4
f 431/7/4 432/7/4 440/7/4
f 439/8/4 431/8/4 440/8/4
f 432/6/4 433/6/4 441/6/4
f 440/7/4 432/7/4 441/7/4
f 433/7/4 434/7/4 442/7/4
f 441/6/4 433/6/4 442/6/4
f 442/7/4 434/7/4 443/7/4
f 435/3/4 436/3/4 444/3/4
f 444/3/4 436/3/4 445/3/4
f 437/7/4 438/7/4 446/7/4
f 446/7/4 438/7/4 447/7/4
f 448/7/4 449/7/4 452/7/4
f 449/6/4 450/6/4 453/6/4
f 452/7/4 449/7/4 453/7/4
f 453/6/4 450/6/4 454/6/4
f 452/6/4 453/6/4 456/6/4
f 454/7/4 455/7/4 456/7/4
f 453/6/4 454/6/4 456/6/4
f 456/7/4 455/7/4 457/7/4
f 452/6/4 456/6/4 458/6/4
f 456/6/4 457/6/4 458/6/4
f 458/6/4 457/6/4 459/6/4
f 452/6/4 458/6/4 460/6/4
f 458/7/4 459/7/4 460/7/4
f 459/6/4 457/6/4 461/6/4
f 460/7/4 459/7/4 461/7/4
f 451/3/4 452/3/4 462/3/4
f 452/6/4 460/6/4 463/6/4
f 462/3/4 452/3/4 463/3/4
f 460/6/4 461/6/4 463/6/4
f 463/6/4 461/6/4 464/6/4
f 461/6/4 457/6/4 465/6/4
f 464/6/4 461/6/4 465/6/4
f 465/6/4 457/6/4 466/6/4
f 463/6/4 464/6/4 467/6/4
f 464/7/4 465/7/4 468/7/4
f 467/6/4 464/6/4 468/6/4
f 468/7/4 465/7/4 469/7/4
f 470/6/4 471/6/4 472/6/4
f 472/6/4 471/6/4 473/6/4
f 473/6/4 471/6/4 474/6/4
f 474/6/4 471/6/4 475/6/4
f 472/4/4 473/4/4 476/4/4
f 473/5/4 474/5/4 477/5/4
f 476/4/4 473/4/4 477/4/4
f 474/4/4 475/4/4 478/4/4
f 477/5/4 474/5/4 478/5/4
f 475/6/4 471/6/4 479/6/4
f 478/4/4 475/4/4 479/4/4
f 479/6/4 471/6/4 480/6/4
f 477/6/4 478/6/4 481/6/4
f 476/5/4 477/5/4 481/5/4
f 478/4/4 479/4/4 482/4/4
f 481/6/4 478/6/4 482/6/4
f 479/5/4 480/5/4 483/5/4
f 482/4/4 479/4/4 483/4/4
f 481/5/4 482/5/4 484/5/4
f 476/5/4 481/5/4 484/5/4
f 482/6/4 483/6/4 485/6/4
f 484/5/4 482/5/4 485/5/4
f 483/5/4 480/5/4 486/5/4
f 485/6/4 483/6/4 486/6/4
f 486/5/4 480/5/4 487/5/4
f 492/8/5 489/8/5 488/8/5
f 493/8/5 489/8/5 492/8/5
f 494/8/5 491/8/5 490/8/5
f 495/8/5 491/8/5 494/8/5
f 502/7/5 497/7/5 496/7/5
f 503/6/5 498/6/5 497/6/5
f 503/7/5 497/7/5 502/7/5
f 504/6/5 498/6/5 503/6/5
f 505/6/5 500/6/5 499/6/5
f 506/7/5 501/7/5 500/7/5
f 506/6/5 500/6/5 505/6/5
f 507/7/5 501/7/5 506/7/5
f 508/6/5 503/6/5 502/6/5
f 511/6/5 507/6/5 506/6/5
f 512/6/5 507/6/5 511/6/5
f 513/6/5 508/6/5 502/6/5
f 514/7/5 509/7/5 508/7/5
f 514/6/5 508/6/5 513/6/5
f 515/7/5 509/7/5 514/7/5
f 516/6/5 511/6/5 510/6/5
f 517/7/5 512/7/5 511/7/5
f 517/6/5 511/6/5 516/6/5
f 518/7/5 512/7/5 517/7/5
f 522/4/5 520/4/5 519/4/5
f 523/4/5 520/4/5 522/4/5
f 525/8/5 522/8/5 521/8/5
f 525/8/5 524/8/5 523/8/5
f 525/8/5 523/8/5 522/8/5
f 526/8/5 524/8/5 525/8/5
f 527/8/5 524/8/5 526/8/5
f 528/8/5 524/8/5 527/8/5
f 529/8/5 524/8/5 528/8/5
f 530/8/5 524/8/5 529/8/5
f 535/1/5 532/1/5 531/1/5
f 536/1/5 532/1/5 535/1/5
f 537/6/5 528/6/5 527/6/5
f 538/1/5 534/1/5 533/1/5
f 539/1/5 534/1/5 538/1/5
f 542/6/5 528/6/5 537/6/5
f 543/6/5 528/6/5 542/6/5
f 546/8/5 541/8/5 540/8/5
f 546/8/5 545/8/5 544/8/5
f 546/8/5 544/8/5 543/8/5
f 546/8/5 543/8/5 542/8/5
f 546/8/5 542/8/5 541/8/5
f 547/8/5 545/8/5 546/8/5
f 548/8/5 545/8/5 547/8/5
f 549/8/5 545/8/5 548/8/5
f 550/4/5 548/4/5 547/4/5
f 551/4/5 548/4/5 550/4/5
f 552/4/5 548/4/5 551/4/5
f 553/4/5 548/4/5 552/4/5
f 554/6/5 551/6/5 550/6/5
f 555/4/5 552/4/5 551/4/5
f 555/6/5 551/6/5 554/6/5
f 556/5/5 553/5/5 552/5/5
f 556/4/5 552/4/5 555/4/5
f 557/5/5 553/5/5 556/5/5
f 562/1/5 559/1/5 558/1/5
f 563/1/5 559/1/5 562/1/5
f 564/1/5 561/1/5 560/1/5
f 565/1/5 561/1/5 564/1/5
f 570/3/5 567/3/5 566/3/5
f 571/3/5 567/3/5 570/3/5
f 572/3/5 569/3/5 568/3/5
f 573/3/5 569/3/5 572/3/5
f 574/3/5 572/3/5 571/3/5
f 575/3/5 572/3/5 574/3/5
f 580/6/5 577/6/5 576/6/5
f 581/7/5 578/7/5 577/7/5
f 581/6/5 577/6/5 580/6/5
f 582/6/5 579/6/5 578/6/5
f 582/7/5 578/7/5 581/7/5
f 583/6/5 579/6/5 582/6/5
f 588/7/5 585/7/5 584/7/5
f 589/7/5 585/7/5 588/7/5
f 590/6/5 587/6/5 586/6/5
f 591/6/5 587/6/5 590/6/5
f 592/5/6 593/5/6 594/5/6
f 594/5/6 593/5/6 595/5/6
f 596/6/6 597/6/6 603/6/6
f 597/5/6 598/5/6 604/5/6
f 603/6/6 597/6/6 604/6/6
f 598/6/6 599/6/6 605/6/6
f 604/5/6 598/5/6 605/5/6
f 599/7/6 600/7/6 606/7/6
f 605/6/6 599/6/6 606/6/6
f 600/5/6 601/5/6 607/5/6
f 606/7/6 600/7/6 607/7/6
f 601/6/6 602/6/6 608/6/6
f 607/5/6 601/5/6 608/5/6
f 608/6/6 602/6/6 609/6/6
f 610/7/6 611/7/6 614/7/6
f 614/7/6 611/7/6 615/7/6
f 612/7/6 613/7/6 616/7/6
f 616/7/6 613/7/6 617/7/6
f 618/6/6 619/6/6 622/6/6
f 622/6/6 619/6/6 623/6/6
f 620/7/6 621/7/6 624/7/6
f 624/7/6 621/7/6 625/7/6
f 623/5/6 624/5/6 626/5/6
f 626/5/6 624/5/6 627/5/6
f 626/6/6 627/6/6 628/6/6
f 627/5/6 624/5/6 629/5/6
f 628/6/6 627/6/6 629/6/6
f 629/5/6 624/5/6 630/5/6
f 631/1/6 632/1/6 635/1/6
f 635/1/6 632/1/6 636/1/6
f 633/1/6 634/1/6 637/1/6
f 637/1/6 634/1/6 638/1/6
f 639/6/6 640/6/6 643/6/6
f 643/6/6 640/6/6 644/6/6
f 641/7/6 642/7/6 645/7/6
f 645/7/6 642/7/6 646/7/6
f 647/6/6 648/6/6 651/6/6
f 651/6/6 648/6/6 652/6/6
f 649/7/6 650/7/6 653/7/6
f 653/7/6 650/7/6 654/7/6
f 655/6/6 656/6/6 660/6/6
f 660/6/6 656/6/6 661/6/6
f 656/7/6 657/7/6 662/7/6
f 661/6/6 656/6/6 662/6/6
f 657/6/6 658/6/6 663/6/6
f 662/7/6 657/7/6 663/7/6
f 663/6/6 658/6/6 664/6/6
f 659/6/6 660/6/6 666/6/6
f 660/7/6 661/7/6 667/7/6
f 666/6/6 660/6/6 667/6/6
f 661/6/6 662/6/6 668/6/6
f 667/7/6 661/7/6 668/7/6
f 662/6/6 663/6/6 668/6/6
f 663/7/6 664/7/6 669/7/6
f 668/6/6 663/6/6 669/6/6
f 664/6/6 665/6/6 670/6/6
f 669/7/6 664/7/6 670/7/6
f 666/7/6 667/7/6 671/7/6
f 668/6/6 669/6/6 672/6/6
f 671/7/6 667/7/6 672/7/6
f 667/6/6 668/6/6 672/6/6
f 669/6/6 670/6/6 672/6/6
f 672/6/6 670/6/6 673/6/6
f 673/6/6 670/6/6 674/6/6
f 674/6/6 670/6/6 675/6/6
f 671/6/6 672/6/6 676/6/6
f 672/7/6 673/7/6 676/7/6
f 673/6/6 674/6/6 677/6/6
f 676/7/6 673/7/6 677/7/6
f 674/7/6 675/7/6 678/7/6
f 677/6/6 674/6/6 678/6/6
f 675/6/6 670/6/6 679/6/6
f 678/7/6 675/7/6 679/7/6
f 670/6/6 665/6/6 680/6/6
f 679/6/6 670/6/6 680/6/6
f 680/6/6 665/6/6 681/6/6
f 676/6/6 677/6/6 682/6/6
f 671/6/6 676/6/6 682/6/6
f 682/6/6 677/6/6 683/6/6
f 677/7/6 678/7/6 684/7/6
f 683/6/6 677/6/6 684/6/6
f 678/6/6 679/6/6 685/6/6
f 684/7/6 678/7/6 685/7/6
f 679/6/6 680/6/6 685/6/6
f 680/7/6 681/7/6 686/7/6
f 685/6/6 680/6/6 686/6/6
f 686/7/6 681/7/6 687/7/6
f 683/7/6 684/7/6 688/7/6
f 685/6/6 686/6/6 689/6/6
f 688/7/6 684/7/6 689/7/6
f 684/6/6 685/6/6 689/6/6
f 689/6/6 686/6/6 690/6/6
