# MagicaVoxel @ Ephtracy

# material
mtllib chr_worker2.mtl
usemtl palette

# normals
vn -1 0 0
vn 1 0 0
vn 0 0 1
vn 0 0 -1
vn 0 -1 0
vn 0 1 0

# texcoords
vt 0.0175781 0.5
vt 0.373047 0.5
vt 0.853516 0.5
vt 0.958984 0.5
vt 0.982422 0.5
vt 0.990234 0.5
vt 0.994141 0.5

# verts
v -5 6 2.5
v -5 6 1.5
v -5 7 2.5
v -5 7 1.5
v -5 7 0.5
v -5 7 -0.5
v -5 8 0.5
v -5 8 -0.5
v -4 2 1.5
v -4 2 0.5
v -4 3 1.5
v -4 3 0.5
v -4 6 1.5
v -4 6 0.5
v -4 6 -0.5
v -4 7 2.5
v -4 7 1.5
v -4 7 0.5
v -4 7 -0.5
v -4 8 1.5
v -4 8 0.5
v -4 8 -0.5
v -4 9 2.5
v -4 9 -0.5
v -3 1 2.5
v -3 1 -0.5
v -3 2 3.5
v -3 2 2.5
v -3 2 1.5
v -3 2 0.5
v -3 2 -0.5
v -3 2 -1.5
v -3 3 3.5
v -3 3 2.5
v -3 3 1.5
v -3 3 0.5
v -3 3 -0.5
v -3 3 -1.5
v -3 5 2.5
v -3 5 1.5
v -3 5 0.5
v -3 5 -0.5
v -3 6 3.5
v -3 6 2.5
v -3 6 1.5
v -3 6 0.5
v -3 6 -0.5
v -3 6 -1.5
v -3 7 1.5
v -3 7 0.5
v -3 9 3.5
v -3 9 2.5
v -3 9 -0.5
v -3 9 -1.5
v -3 10 3.5
v -3 10 2.5
v -3 12 2.5
v -3 12 -1.5
v -2 0 1.5
v -2 0 0.5
v -2 1 1.5
v -2 1 0.5
v -2 7 -1.5
v -2 7 -2.5
v -2 9 -1.5
v -2 9 -2.5
v -2 12 2.5
v -2 12 -1.5
v -2 13 2.5
v -2 13 -1.5
v -1 6 -1.5
v -1 6 -2.5
v -1 7 -1.5
v -1 7 -2.5
v -1 7 -3.5
v -1 8 -2.5
v -1 8 -3.5
v 1 0 1.5
v 1 0 0.5
v 1 1 2.5
v 1 1 1.5
v 1 1 0.5
v 1 1 -0.5
v 1 2 2.5
v 1 2 -0.5
v 1 5 3.5
v 1 5 2.5
v 1 6 3.5
v 1 6 2.5
v 1 6 -1.5
v 1 6 -2.5
v 1 7 -1.5
v 1 7 -2.5
v 1 7 -3.5
v 1 9 -2.5
v 1 9 -3.5
v 2 6 3.5
v 2 6 2.5
v 2 7 3.5
v 2 7 2.5
v -1 0 1.5
v -1 0 0.5
v -1 1 2.5
v -1 1 1.5
v -1 1 0.5
v -1 1 -0.5
v -1 2 2.5
v -1 2 -0.5
v -1 5 3.5
v -1 5 2.5
v -1 6 3.5
v -1 6 2.5
v 0 6 -1.5
v 0 6 -2.5
v 0 7 -1.5
v 0 7 -2.5
v 0 7 -3.5
v 0 8 -2.5
v 0 8 -3.5
v 2 0 1.5
v 2 0 0.5
v 2 1 1.5
v 2 1 0.5
v 2 6 -1.5
v 2 6 -2.5
v 2 7 -2.5
v 2 7 -3.5
v 2 9 -1.5
v 2 9 -3.5
v 2 12 2.5
v 2 12 -1.5
v 2 13 2.5
v 2 13 -1.5
v 3 1 2.5
v 3 1 -0.5
v 3 2 3.5
v 3 2 2.5
v 3 2 1.5
v 3 2 0.5
v 3 2 -0.5
v 3 2 -1.5
v 3 3 3.5
v 3 3 2.5
v 3 3 1.5
v 3 3 0.5
v 3 3 -0.5
v 3 3 -1.5
v 3 5 2.5
v 3 5 1.5
v 3 5 0.5
v 3 5 -0.5
v 3 6 3.5
v 3 6 2.5
v 3 6 1.5
v 3 6 0.5
v 3 6 -0.5
v 3 6 -1.5
v 3 7 3.5
v 3 7 2.5
v 3 7 1.5
v 3 7 0.5
v 3 7 -0.5
v 3 7 -1.5
v 3 9 3.5
v 3 9 2.5
v 3 9 -1.5
v 3 10 3.5
v 3 10 2.5
v 3 12 2.5
v 3 12 -1.5
v 4 2 1.5
v 4 2 0.5
v 4 3 1.5
v 4 3 0.5
v 4 6 2.5
v 4 6 1.5
v 4 6 0.5
v 4 6 -0.5
v 4 7 1.5
v 4 7 0.5
v 4 7 -0.5
v 4 7 -1.5
v 4 8 1.5
v 4 8 0.5
v 4 8 -0.5
v 4 9 2.5
v 4 9 -1.5
v 5 7 0.5
v 5 7 -0.5
v 5 8 0.5
v 5 8 -0.5
v -3 2 3.5
v -3 3 3.5
v -3 6 3.5
v -3 9 3.5
v -3 10 3.5
v -1 3 3.5
v -1 4 3.5
v -1 5 3.5
v -1 6 3.5
v 1 3 3.5
v 1 4 3.5
v 1 5 3.5
v 1 6 3.5
v 2 6 3.5
v 2 7 3.5
v 3 2 3.5
v 3 3 3.5
v 3 6 3.5
v 3 7 3.5
v 3 9 3.5
v 3 10 3.5
v -5 6 2.5
v -5 7 2.5
v -4 7 2.5
v -4 9 2.5
v -3 1 2.5
v -3 2 2.5
v -3 6 2.5
v -3 9 2.5
v -3 10 2.5
v -3 12 2.5
v -2 7 2.5
v -2 8 2.5
v -2 12 2.5
v -2 13 2.5
v -1 1 2.5
v -1 2 2.5
v -1 5 2.5
v -1 6 2.5
v -1 7 2.5
v -1 8 2.5
v 1 1 2.5
v 1 2 2.5
v 1 5 2.5
v 1 6 2.5
v 1 7 2.5
v 1 8 2.5
v 2 6 2.5
v 2 7 2.5
v 2 8 2.5
v 2 12 2.5
v 2 13 2.5
v 3 1 2.5
v 3 2 2.5
v 3 6 2.5
v 3 7 2.5
v 3 9 2.5
v 3 10 2.5
v 3 12 2.5
v 4 6 2.5
v 4 9 2.5
v -4 2 1.5
v -4 3 1.5
v -4 6 1.5
v -3 2 1.5
v -3 3 1.5
v -3 5 1.5
v -3 6 1.5
v -2 0 1.5
v -2 1 1.5
v -1 0 1.5
v -1 1 1.5
v 1 0 1.5
v 1 1 1.5
v 2 0 1.5
v 2 1 1.5
v 3 2 1.5
v 3 3 1.5
v 3 5 1.5
v 3 6 1.5
v 4 2 1.5
v 4 3 1.5
v 4 6 1.5
v -5 7 0.5
v -5 8 0.5
v -4 6 0.5
v -4 7 0.5
v -4 8 0.5
v -3 6 0.5
v -3 7 0.5
v 3 6 0.5
v 3 7 0.5
v 4 6 0.5
v 4 7 0.5
v 4 8 0.5
v 5 7 0.5
v 5 8 0.5
v -5 6 1.5
v -5 7 1.5
v -4 6 1.5
v -4 7 1.5
v -3 6 1.5
v -3 7 1.5
v 3 6 1.5
v 3 7 1.5
v 4 6 1.5
v 4 7 1.5
v -4 2 0.5
v -4 3 0.5
v -4 6 0.5
v -3 2 0.5
v -3 3 0.5
v -3 5 0.5
v -3 6 0.5
v -2 0 0.5
v -2 1 0.5
v -1 0 0.5
v -1 1 0.5
v 1 0 0.5
v 1 1 0.5
v 2 0 0.5
v 2 1 0.5
v 3 2 0.5
v 3 3 0.5
v 3 5 0.5
v 3 6 0.5
v 4 2 0.5
v 4 3 0.5
v 4 6 0.5
v -5 7 -0.5
v -5 8 -0.5
v -4 6 -0.5
v -4 7 -0.5
v -4 8 -0.5
v -4 9 -0.5
v -3 1 -0.5
v -3 2 -0.5
v -3 6 -0.5
v -3 9 -0.5
v -1 1 -0.5
v -1 2 -0.5
v 1 1 -0.5
v 1 2 -0.5
v 3 1 -0.5
v 3 2 -0.5
v 3 6 -0.5
v 3 7 -0.5
v 4 6 -0.5
v 4 7 -0.5
v 4 8 -0.5
v 5 7 -0.5
v 5 8 -0.5
v -3 2 -1.5
v -3 3 -1.5
v -3 6 -1.5
v -3 9 -1.5
v -3 12 -1.5
v -2 6 -1.5
v -2 7 -1.5
v -2 9 -1.5
v -2 12 -1.5
v -2 13 -1.5
v -1 3 -1.5
v -1 5 -1.5
v -1 6 -1.5
v -1 7 -1.5
v 0 6 -1.5
v 0 7 -1.5
v 1 3 -1.5
v 1 5 -1.5
v 1 6 -1.5
v 1 7 -1.5
v 2 6 -1.5
v 2 9 -1.5
v 2 12 -1.5
v 2 13 -1.5
v 3 2 -1.5
v 3 3 -1.5
v 3 6 -1.5
v 3 7 -1.5
v 3 9 -1.5
v 3 12 -1.5
v 4 7 -1.5
v 4 9 -1.5
v -2 7 -2.5
v -2 9 -2.5
v -1 6 -2.5
v -1 7 -2.5
v -1 8 -2.5
v 0 6 -2.5
v 0 7 -2.5
v 0 8 -2.5
v 1 6 -2.5
v 1 7 -2.5
v 1 9 -2.5
v 2 6 -2.5
v 2 7 -2.5
v -1 7 -3.5
v -1 8 -3.5
v 0 7 -3.5
v 0 8 -3.5
v 1 7 -3.5
v 1 9 -3.5
v 2 7 -3.5
v 2 9 -3.5
v -2 0 1.5
v -1 0 1.5
v 1 0 1.5
v 2 0 1.5
v -2 0 0.5
v -1 0 0.5
v 1 0 0.5
v 2 0 0.5
v -3 1 2.5
v -1 1 2.5
v 1 1 2.5
v 3 1 2.5
v -2 1 1.5
v -1 1 1.5
v 1 1 1.5
v 2 1 1.5
v -2 1 0.5
v -1 1 0.5
v 1 1 0.5
v 2 1 0.5
v -3 1 -0.5
v -1 1 -0.5
v 1 1 -0.5
v 3 1 -0.5
v -3 2 3.5
v 3 2 3.5
v -3 2 2.5
v -1 2 2.5
v 1 2 2.5
v 3 2 2.5
v -4 2 1.5
v -3 2 1.5
v 3 2 1.5
v 4 2 1.5
v -4 2 0.5
v -3 2 0.5
v 3 2 0.5
v 4 2 0.5
v -3 2 -0.5
v -1 2 -0.5
v 1 2 -0.5
v 3 2 -0.5
v -3 2 -1.5
v 3 2 -1.5
v -5 6 2.5
v -3 6 2.5
v 3 6 2.5
v 4 6 2.5
v -5 6 1.5
v -4 6 1.5
v -3 6 1.5
v 3 6 1.5
v 4 6 1.5
v -4 6 0.5
v -3 6 0.5
v 3 6 0.5
v 4 6 0.5
v -4 6 -0.5
v -3 6 -0.5
v 3 6 -0.5
v 4 6 -0.5
v -1 6 -1.5
v 0 6 -1.5
v 1 6 -1.5
v 2 6 -1.5
v -1 6 -2.5
v 0 6 -2.5
v 1 6 -2.5
v 2 6 -2.5
v -4 7 1.5
v -3 7 1.5
v 3 7 1.5
v 4 7 1.5
v -5 7 0.5
v -4 7 0.5
v -3 7 0.5
v 3 7 0.5
v 4 7 0.5
v 5 7 0.5
v -5 7 -0.5
v -4 7 -0.5
v 3 7 -0.5
v 4 7 -0.5
v 5 7 -0.5
v -2 7 -1.5
v -1 7 -1.5
v 0 7 -1.5
v 1 7 -1.5
v 3 7 -1.5
v 4 7 -1.5
v -2 7 -2.5
v -1 7 -2.5
v 0 7 -2.5
v 1 7 -2.5
v 2 7 -2.5
v -1 7 -3.5
v 0 7 -3.5
v 1 7 -3.5
v 2 7 -3.5
v -3 9 3.5
v 3 9 3.5
v -3 9 2.5
v 3 9 2.5
v -1 5 3.5
v 1 5 3.5
v -1 5 2.5
v 1 5 2.5
v -3 6 3.5
v -1 6 3.5
v 1 6 3.5
v 2 6 3.5
v -3 6 2.5
v -1 6 2.5
v 1 6 2.5
v 2 6 2.5
v -4 6 1.5
v -3 6 1.5
v 3 6 1.5
v 4 6 1.5
v -4 6 0.5
v -3 6 0.5
v 3 6 0.5
v 4 6 0.5
v 2 7 3.5
v 3 7 3.5
v -5 7 2.5
v -4 7 2.5
v 2 7 2.5
v 3 7 2.5
v -5 7 1.5
v -4 7 1.5
v -5 8 0.5
v -4 8 0.5
v 4 8 0.5
v 5 8 0.5
v -5 8 -0.5
v -4 8 -0.5
v 4 8 -0.5
v 5 8 -0.5
v -1 8 -2.5
v 0 8 -2.5
v -1 8 -3.5
v 0 8 -3.5
v -4 9 2.5
v -3 9 2.5
v 3 9 2.5
v 4 9 2.5
v -4 9 -0.5
v -3 9 -0.5
v -2 9 -1.5
v 2 9 -1.5
v 3 9 -1.5
v 4 9 -1.5
v -2 9 -2.5
v 1 9 -2.5
v 1 9 -3.5
v 2 9 -3.5
v -3 10 3.5
v 3 10 3.5
v -3 10 2.5
v 3 10 2.5
v -3 12 2.5
v -2 12 2.5
v 2 12 2.5
v 3 12 2.5
v -3 12 -1.5
v -2 12 -1.5
v 2 12 -1.5
v 3 12 -1.5
v -2 13 2.5
v 2 13 2.5
v -2 13 -1.5
v 2 13 -1.5

# faces
f 3/6/1 2/6/1 1/6/1
f 4/6/1 2/6/1 3/6/1
f 7/6/1 6/6/1 5/6/1
f 8/6/1 6/6/1 7/6/1
f 11/2/1 10/2/1 9/2/1
f 12/2/1 10/2/1 11/2/1
f 13/3/1 12/3/1 11/3/1
f 14/3/1 12/3/1 13/3/1
f 18/6/1 15/6/1 14/6/1
f 19/6/1 15/6/1 18/6/1
f 20/6/1 17/6/1 16/6/1
f 20/2/1 18/2/1 17/2/1
f 21/2/1 18/2/1 20/2/1
f 23/6/1 20/6/1 16/6/1
f 23/6/1 22/6/1 21/6/1
f 23/6/1 21/6/1 20/6/1
f 24/6/1 22/6/1 23/6/1
f 28/5/1 26/5/1 25/5/1
f 29/5/1 26/5/1 28/5/1
f 30/5/1 26/5/1 29/5/1
f 31/5/1 26/5/1 30/5/1
f 33/5/1 28/5/1 27/5/1
f 33/5/1 29/5/1 28/5/1
f 34/5/1 29/5/1 33/5/1
f 35/5/1 29/5/1 34/5/1
f 36/5/1 32/5/1 31/5/1
f 36/5/1 31/5/1 30/5/1
f 37/5/1 32/5/1 36/5/1
f 38/5/1 32/5/1 37/5/1
f 39/3/1 35/3/1 34/3/1
f 39/1/1 34/1/1 33/1/1
f 40/3/1 35/3/1 39/3/1
f 41/3/1 37/3/1 36/3/1
f 42/1/1 38/1/1 37/1/1
f 42/3/1 37/3/1 41/3/1
f 43/1/1 40/1/1 39/1/1
f 43/1/1 39/1/1 33/1/1
f 44/1/1 40/1/1 43/1/1
f 45/1/1 40/1/1 44/1/1
f 46/1/1 42/1/1 41/1/1
f 47/1/1 38/1/1 42/1/1
f 47/1/1 42/1/1 46/1/1
f 48/1/1 38/1/1 47/1/1
f 49/2/1 46/2/1 45/2/1
f 50/2/1 46/2/1 49/2/1
f 53/6/1 48/6/1 47/6/1
f 54/6/1 48/6/1 53/6/1
f 55/4/1 52/4/1 51/4/1
f 55/4/1 53/4/1 52/4/1
f 55/4/1 54/4/1 53/4/1
f 56/4/1 54/4/1 55/4/1
f 57/4/1 54/4/1 56/4/1
f 58/4/1 54/4/1 57/4/1
f 61/6/1 60/6/1 59/6/1
f 62/6/1 60/6/1 61/6/1
f 65/6/1 64/6/1 63/6/1
f 66/6/1 64/6/1 65/6/1
f 69/4/1 68/4/1 67/4/1
f 70/4/1 68/4/1 69/4/1
f 73/6/1 72/6/1 71/6/1
f 74/6/1 72/6/1 73/6/1
f 76/6/1 75/6/1 74/6/1
f 77/6/1 75/6/1 76/6/1
f 81/6/1 79/6/1 78/6/1
f 82/6/1 79/6/1 81/6/1
f 84/5/1 81/5/1 80/5/1
f 84/5/1 83/5/1 82/5/1
f 84/5/1 82/5/1 81/5/1
f 85/5/1 83/5/1 84/5/1
f 88/1/1 87/1/1 86/1/1
f 89/1/1 87/1/1 88/1/1
f 92/6/1 91/6/1 90/6/1
f 93/6/1 91/6/1 92/6/1
f 95/6/1 94/6/1 93/6/1
f 96/6/1 94/6/1 95/6/1
f 99/6/1 98/6/1 97/6/1
f 100/6/1 98/6/1 99/6/1
f 101/6/2 102/6/2 104/6/2
f 104/6/2 102/6/2 105/6/2
f 103/5/2 104/5/2 107/5/2
f 105/5/2 106/5/2 107/5/2
f 104/5/2 105/5/2 107/5/2
f 107/5/2 106/5/2 108/5/2
f 109/1/2 110/1/2 111/1/2
f 111/1/2 110/1/2 112/1/2
f 113/6/2 114/6/2 115/6/2
f 115/6/2 114/6/2 116/6/2
f 116/6/2 117/6/2 118/6/2
f 118/6/2 117/6/2 119/6/2
f 120/6/2 121/6/2 122/6/2
f 122/6/2 121/6/2 123/6/2
f 124/6/2 125/6/2 126/6/2
f 124/6/2 126/6/2 128/6/2
f 126/6/2 127/6/2 128/6/2
f 128/6/2 127/6/2 129/6/2
f 130/4/2 131/4/2 132/4/2
f 132/4/2 131/4/2 133/4/2
f 134/5/2 135/5/2 137/5/2
f 137/5/2 135/5/2 138/5/2
f 138/5/2 135/5/2 139/5/2
f 139/5/2 135/5/2 140/5/2
f 136/5/2 137/5/2 142/5/2
f 137/5/2 138/5/2 142/5/2
f 142/5/2 138/5/2 143/5/2
f 143/5/2 138/5/2 144/5/2
f 140/5/2 141/5/2 145/5/2
f 139/5/2 140/5/2 145/5/2
f 145/5/2 141/5/2 146/5/2
f 146/5/2 141/5/2 147/5/2
f 143/3/2 144/3/2 148/3/2
f 142/1/2 143/1/2 148/1/2
f 148/3/2 144/3/2 149/3/2
f 145/3/2 146/3/2 150/3/2
f 146/1/2 147/1/2 151/1/2
f 150/3/2 146/3/2 151/3/2
f 148/1/2 149/1/2 152/1/2
f 142/1/2 148/1/2 152/1/2
f 152/1/2 149/1/2 153/1/2
f 153/1/2 149/1/2 154/1/2
f 150/1/2 151/1/2 155/1/2
f 151/1/2 147/1/2 156/1/2
f 155/1/2 151/1/2 156/1/2
f 156/1/2 147/1/2 157/1/2
f 152/6/2 153/6/2 158/6/2
f 158/6/2 153/6/2 159/6/2
f 154/2/2 155/2/2 160/2/2
f 160/2/2 155/2/2 161/2/2
f 156/6/2 157/6/2 162/6/2
f 162/6/2 157/6/2 163/6/2
f 164/4/2 165/4/2 167/4/2
f 165/4/2 166/4/2 167/4/2
f 167/4/2 166/4/2 168/4/2
f 168/4/2 166/4/2 169/4/2
f 169/4/2 166/4/2 170/4/2
f 171/2/2 172/2/2 173/2/2
f 173/2/2 172/2/2 174/2/2
f 173/3/2 174/3/2 176/3/2
f 176/3/2 174/3/2 177/3/2
f 175/6/2 176/6/2 179/6/2
f 177/6/2 178/6/2 180/6/2
f 180/6/2 178/6/2 181/6/2
f 175/6/2 179/6/2 183/6/2
f 179/2/2 180/2/2 183/2/2
f 183/2/2 180/2/2 184/2/2
f 181/6/2 182/6/2 185/6/2
f 183/6/2 184/6/2 186/6/2
f 184/6/2 185/6/2 186/6/2
f 175/6/2 183/6/2 186/6/2
f 185/6/2 182/6/2 187/6/2
f 186/6/2 185/6/2 187/6/2
f 188/6/2 189/6/2 190/6/2
f 190/6/2 189/6/2 191/6/2
f 197/5/3 193/5/3 192/5/3
f 197/1/3 194/1/3 193/1/3
f 198/1/3 194/1/3 197/1/3
f 199/1/3 194/1/3 198/1/3
f 200/1/3 194/1/3 199/1/3
f 201/5/3 197/5/3 192/5/3
f 201/3/3 198/3/3 197/3/3
f 202/1/3 199/1/3 198/1/3
f 202/3/3 198/3/3 201/3/3
f 203/1/3 199/1/3 202/1/3
f 205/1/3 202/1/3 201/1/3
f 205/1/3 204/1/3 203/1/3
f 205/1/3 203/1/3 202/1/3
f 207/5/3 201/5/3 192/5/3
f 208/1/3 205/1/3 201/1/3
f 208/5/3 201/5/3 207/5/3
f 209/6/3 206/6/3 205/6/3
f 209/1/3 205/1/3 208/1/3
f 210/6/3 206/6/3 209/6/3
f 211/4/3 196/4/3 195/4/3
f 212/4/3 196/4/3 211/4/3
f 215/6/3 214/6/3 213/6/3
f 219/6/3 215/6/3 213/6/3
f 219/6/3 216/6/3 215/6/3
f 220/6/3 216/6/3 219/6/3
f 223/2/3 220/2/3 219/2/3
f 224/2/3 220/2/3 223/2/3
f 225/4/3 222/4/3 221/4/3
f 227/5/3 218/5/3 217/5/3
f 228/5/3 218/5/3 227/5/3
f 230/2/3 223/2/3 219/2/3
f 231/7/3 224/7/3 223/7/3
f 231/2/3 223/2/3 230/2/3
f 232/2/3 220/2/3 224/2/3
f 232/7/3 224/7/3 231/7/3
f 235/2/3 231/2/3 230/2/3
f 235/2/3 230/2/3 229/2/3
f 235/2/3 232/2/3 231/2/3
f 236/2/3 232/2/3 235/2/3
f 237/2/3 232/2/3 236/2/3
f 238/2/3 220/2/3 232/2/3
f 238/2/3 232/2/3 237/2/3
f 239/2/3 237/2/3 236/2/3
f 240/7/3 238/7/3 237/7/3
f 240/2/3 237/2/3 239/2/3
f 241/2/3 220/2/3 238/2/3
f 241/7/3 238/7/3 240/7/3
f 242/4/3 226/4/3 225/4/3
f 242/4/3 225/4/3 221/4/3
f 243/4/3 226/4/3 242/4/3
f 244/5/3 234/5/3 233/5/3
f 245/5/3 234/5/3 244/5/3
f 247/2/3 241/2/3 240/2/3
f 248/2/3 220/2/3 241/2/3
f 248/2/3 241/2/3 247/2/3
f 249/4/3 242/4/3 221/4/3
f 250/4/3 242/4/3 249/4/3
f 251/6/3 247/6/3 246/6/3
f 251/6/3 248/6/3 247/6/3
f 252/6/3 248/6/3 251/6/3
f 256/2/3 254/2/3 253/2/3
f 257/3/3 255/3/3 254/3/3
f 257/2/3 254/2/3 256/2/3
f 258/3/3 255/3/3 257/3/3
f 259/3/3 255/3/3 258/3/3
f 262/6/3 261/6/3 260/6/3
f 263/6/3 261/6/3 262/6/3
f 266/6/3 265/6/3 264/6/3
f 267/6/3 265/6/3 266/6/3
f 272/2/3 269/2/3 268/2/3
f 273/3/3 271/3/3 270/3/3
f 273/2/3 269/2/3 272/2/3
f 273/3/3 270/3/3 269/3/3
f 274/3/3 271/3/3 273/3/3
f 278/6/3 276/6/3 275/6/3
f 279/6/3 276/6/3 278/6/3
f 280/6/3 278/6/3 277/6/3
f 281/6/3 278/6/3 280/6/3
f 284/6/3 283/6/3 282/6/3
f 285/6/3 283/6/3 284/6/3
f 287/6/3 286/6/3 285/6/3
f 288/6/3 286/6/3 287/6/3
f 289/6/4 290/6/4 291/6/4
f 291/6/4 290/6/4 292/6/4
f 291/6/4 292/6/4 293/6/4
f 293/6/4 292/6/4 294/6/4
f 295/6/4 296/6/4 297/6/4
f 297/6/4 296/6/4 298/6/4
f 299/2/4 300/2/4 302/2/4
f 300/3/4 301/3/4 303/3/4
f 302/2/4 300/2/4 303/2/4
f 303/3/4 301/3/4 304/3/4
f 304/3/4 301/3/4 305/3/4
f 306/6/4 307/6/4 308/6/4
f 308/6/4 307/6/4 309/6/4
f 310/6/4 311/6/4 312/6/4
f 312/6/4 311/6/4 313/6/4
f 314/2/4 315/2/4 318/2/4
f 316/3/4 317/3/4 319/3/4
f 318/2/4 315/2/4 319/2/4
f 315/3/4 316/3/4 319/3/4
f 319/3/4 317/3/4 320/3/4
f 321/6/4 322/6/4 324/6/4
f 324/6/4 322/6/4 325/6/4
f 323/6/4 324/6/4 329/6/4
f 324/6/4 325/6/4 329/6/4
f 325/6/4 326/6/4 329/6/4
f 329/6/4 326/6/4 330/6/4
f 327/5/4 328/5/4 331/5/4
f 331/5/4 328/5/4 332/5/4
f 333/5/4 334/5/4 335/5/4
f 335/5/4 334/5/4 336/5/4
f 337/6/4 338/6/4 339/6/4
f 339/6/4 338/6/4 340/6/4
f 340/6/4 341/6/4 342/6/4
f 342/6/4 341/6/4 343/6/4
f 345/1/4 346/1/4 349/1/4
f 346/6/4 347/6/4 349/6/4
f 349/6/4 347/6/4 350/6/4
f 347/4/4 348/4/4 351/4/4
f 350/6/4 347/6/4 351/6/4
f 351/4/4 348/4/4 352/4/4
f 344/5/4 345/5/4 354/5/4
f 345/1/4 349/1/4 354/1/4
f 354/1/4 349/1/4 355/1/4
f 349/2/4 350/2/4 356/2/4
f 355/1/4 349/1/4 356/1/4
f 356/2/4 350/2/4 357/2/4
f 355/1/4 356/1/4 358/1/4
f 354/3/4 355/3/4 360/3/4
f 344/5/4 354/5/4 360/5/4
f 355/1/4 358/1/4 361/1/4
f 360/3/4 355/3/4 361/3/4
f 358/2/4 359/2/4 362/2/4
f 361/1/4 358/1/4 362/1/4
f 362/2/4 359/2/4 363/2/4
f 360/1/4 361/1/4 364/1/4
f 361/1/4 362/1/4 364/1/4
f 352/4/4 353/4/4 365/4/4
f 351/4/4 352/4/4 365/4/4
f 365/4/4 353/4/4 366/4/4
f 366/4/4 353/4/4 367/4/4
f 344/5/4 360/5/4 368/5/4
f 360/1/4 364/1/4 369/1/4
f 368/5/4 360/5/4 369/5/4
f 364/6/4 365/6/4 370/6/4
f 369/1/4 364/1/4 370/1/4
f 370/6/4 365/6/4 371/6/4
f 365/4/4 366/4/4 372/4/4
f 371/6/4 365/6/4 372/6/4
f 372/4/4 366/4/4 373/4/4
f 371/6/4 372/6/4 374/6/4
f 374/6/4 372/6/4 375/6/4
f 376/6/4 377/6/4 379/6/4
f 379/6/4 377/6/4 380/6/4
f 378/6/4 379/6/4 381/6/4
f 381/6/4 379/6/4 382/6/4
f 380/6/4 377/6/4 383/6/4
f 382/6/4 383/6/4 385/6/4
f 383/6/4 377/6/4 386/6/4
f 385/6/4 383/6/4 386/6/4
f 384/6/4 385/6/4 387/6/4
f 387/6/4 385/6/4 388/6/4
f 389/6/4 390/6/4 391/6/4
f 391/6/4 390/6/4 392/6/4
f 393/6/4 394/6/4 395/6/4
f 395/6/4 394/6/4 396/6/4
f 401/6/5 398/6/5 397/6/5
f 402/6/5 398/6/5 401/6/5
f 403/6/5 400/6/5 399/6/5
f 404/6/5 400/6/5 403/6/5
f 409/5/5 406/5/5 405/5/5
f 410/5/5 406/5/5 409/5/5
f 411/5/5 408/5/5 407/5/5
f 412/5/5 408/5/5 411/5/5
f 413/5/5 409/5/5 405/5/5
f 416/5/5 408/5/5 412/5/5
f 417/5/5 414/5/5 413/5/5
f 417/5/5 413/5/5 405/5/5
f 418/5/5 414/5/5 417/5/5
f 419/5/5 416/5/5 415/5/5
f 420/5/5 408/5/5 416/5/5
f 420/5/5 416/5/5 419/5/5
f 423/5/5 422/5/5 421/5/5
f 424/5/5 422/5/5 423/5/5
f 425/5/5 422/5/5 424/5/5
f 426/5/5 422/5/5 425/5/5
f 431/2/5 428/2/5 427/2/5
f 432/2/5 428/2/5 431/2/5
f 433/2/5 430/2/5 429/2/5
f 434/2/5 430/2/5 433/2/5
f 436/5/5 425/5/5 424/5/5
f 437/5/5 425/5/5 436/5/5
f 439/5/5 436/5/5 435/5/5
f 439/5/5 438/5/5 437/5/5
f 439/5/5 437/5/5 436/5/5
f 440/5/5 438/5/5 439/5/5
f 445/6/5 442/6/5 441/6/5
f 446/6/5 442/6/5 445/6/5
f 447/6/5 442/6/5 446/6/5
f 448/6/5 444/6/5 443/6/5
f 449/6/5 444/6/5 448/6/5
f 454/6/5 451/6/5 450/6/5
f 455/6/5 451/6/5 454/6/5
f 456/6/5 453/6/5 452/6/5
f 457/6/5 453/6/5 456/6/5
f 462/6/5 459/6/5 458/6/5
f 463/6/5 459/6/5 462/6/5
f 464/6/5 461/6/5 460/6/5
f 465/6/5 461/6/5 464/6/5
f 471/2/5 467/2/5 466/2/5
f 472/2/5 467/2/5 471/2/5
f 473/2/5 469/2/5 468/2/5
f 474/2/5 469/2/5 473/2/5
f 476/6/5 471/6/5 470/6/5
f 477/6/5 471/6/5 476/6/5
f 479/6/5 475/6/5 474/6/5
f 480/6/5 475/6/5 479/6/5
f 485/6/5 479/6/5 478/6/5
f 486/6/5 479/6/5 485/6/5
f 487/6/5 482/6/5 481/6/5
f 488/6/5 482/6/5 487/6/5
f 489/6/5 484/6/5 483/6/5
f 490/6/5 484/6/5 489/6/5
f 492/6/5 489/6/5 488/6/5
f 493/6/5 489/6/5 492/6/5
f 494/6/5 491/6/5 490/6/5
f 495/6/5 491/6/5 494/6/5
f 498/4/5 497/4/5 496/4/5
f 499/4/5 497/4/5 498/4/5
f 500/1/6 501/1/6 502/1/6
f 502/1/6 501/1/6 503/1/6
f 504/1/6 505/1/6 508/1/6
f 508/1/6 505/1/6 509/1/6
f 506/1/6 507/1/6 510/1/6
f 510/1/6 507/1/6 511/1/6
f 512/3/6 513/3/6 516/3/6
f 516/3/6 513/3/6 517/3/6
f 514/3/6 515/3/6 518/3/6
f 518/3/6 515/3/6 519/3/6
f 520/6/6 521/6/6 524/6/6
f 524/6/6 521/6/6 525/6/6
f 522/6/6 523/6/6 526/6/6
f 526/6/6 523/6/6 527/6/6
f 528/6/6 529/6/6 532/6/6
f 532/6/6 529/6/6 533/6/6
f 530/6/6 531/6/6 534/6/6
f 534/6/6 531/6/6 535/6/6
f 536/6/6 537/6/6 538/6/6
f 538/6/6 537/6/6 539/6/6
f 540/6/6 541/6/6 544/6/6
f 544/6/6 541/6/6 545/6/6
f 542/6/6 543/6/6 548/6/6
f 548/6/6 543/6/6 549/6/6
f 546/6/6 547/6/6 550/6/6
f 550/6/6 547/6/6 551/6/6
f 551/6/6 547/6/6 552/6/6
f 552/6/6 547/6/6 553/6/6
f 554/4/6 555/4/6 556/4/6
f 556/4/6 555/4/6 557/4/6
f 558/4/6 559/4/6 562/4/6
f 562/4/6 559/4/6 563/4/6
f 560/4/6 561/4/6 564/4/6
f 564/4/6 561/4/6 565/4/6
f 566/4/6 567/4/6 568/4/6
f 568/4/6 567/4/6 569/4/6
