# MagicaVoxel @ Ephtracy

# material
mtllib chr_costume4.mtl
usemtl palette

# normals
vn -1 0 0
vn 1 0 0
vn 0 0 1
vn 0 0 -1
vn 0 -1 0
vn 0 1 0

# texcoords
vt 0.0332031 0.5
vt 0.958984 0.5
vt 0.970703 0.5
vt 0.974609 0.5
vt 0.990234 0.5
vt 0.994141 0.5

# verts
v -4 2 0.5
v -4 2 -0.5
v -4 3 0.5
v -4 3 -0.5
v -4 6 2.5
v -4 6 1.5
v -4 6 0.5
v -4 6 -0.5
v -4 6 -1.5
v -4 10 2.5
v -4 10 1.5
v -4 10 0.5
v -4 10 -0.5
v -4 10 -1.5
v -4 12 0.5
v -4 12 -0.5
v -3 1 1.5
v -3 1 -1.5
v -3 2 2.5
v -3 2 1.5
v -3 2 0.5
v -3 2 -0.5
v -3 2 -1.5
v -3 2 -2.5
v -3 3 2.5
v -3 3 0.5
v -3 3 -0.5
v -3 3 -2.5
v -3 4 2.5
v -3 4 0.5
v -3 4 -0.5
v -3 4 -2.5
v -3 5 2.5
v -3 5 0.5
v -3 5 -0.5
v -3 5 -2.5
v -3 6 2.5
v -3 6 1.5
v -3 6 0.5
v -3 6 -0.5
v -3 6 -1.5
v -3 10 2.5
v -3 10 1.5
v -3 10 0.5
v -3 10 -0.5
v -3 10 -1.5
v -3 10 -2.5
v -3 11 2.5
v -3 11 1.5
v -3 11 0.5
v -3 11 -0.5
v -3 11 -1.5
v -3 12 0.5
v -3 12 -0.5
v -3 13 0.5
v -3 13 -0.5
v -2 0 0.5
v -2 0 -0.5
v -2 1 0.5
v -2 1 -0.5
v -2 6 -2.5
v -2 6 -3.5
v -2 10 -1.5
v -2 10 -2.5
v -2 10 -3.5
v -2 11 -1.5
v -2 11 -2.5
v 0 0 -3.5
v 0 0 -4.5
v 0 0 -5.5
v 0 1 -3.5
v 0 1 -4.5
v 0 1 -5.5
v 0 2 -2.5
v 0 2 -3.5
v 0 2 -4.5
v 0 3 -2.5
v 0 3 -3.5
v 0 3 -4.5
v 1 0 0.5
v 1 0 -0.5
v 1 1 1.5
v 1 1 0.5
v 1 1 -0.5
v 1 1 -1.5
v 1 2 1.5
v 1 2 -0.5
v 1 2 -1.5
v 1 5 2.5
v 1 5 1.5
v 1 6 2.5
v 1 6 1.5
v 1 11 0.5
v 1 11 -0.5
v 1 12 0.5
v 1 12 -0.5
v 2 9 2.5
v 2 9 1.5
v 2 10 2.5
v 2 10 1.5
v 2 12 0.5
v 2 12 -0.5
v 2 13 0.5
v 2 13 -0.5
v 3 6 2.5
v 3 6 1.5
v 3 9 2.5
v 3 9 1.5
v -3 6 2.5
v -3 6 1.5
v -3 9 2.5
v -3 9 1.5
v -2 9 2.5
v -2 9 1.5
v -2 10 2.5
v -2 10 1.5
v -2 12 0.5
v -2 12 -0.5
v -2 13 0.5
v -2 13 -0.5
v -1 0 0.5
v -1 0 -0.5
v -1 1 1.5
v -1 1 0.5
v -1 1 -0.5
v -1 1 -1.5
v -1 2 1.5
v -1 2 -0.5
v -1 2 -1.5
v -1 5 2.5
v -1 5 1.5
v -1 6 2.5
v -1 6 1.5
v -1 11 0.5
v -1 11 -0.5
v -1 12 0.5
v -1 12 -0.5
v 1 0 -3.5
v 1 0 -4.5
v 1 0 -5.5
v 1 1 -3.5
v 1 1 -4.5
v 1 1 -5.5
v 1 2 -2.5
v 1 2 -3.5
v 1 2 -4.5
v 1 3 -2.5
v 1 3 -3.5
v 1 3 -4.5
v 2 0 0.5
v 2 0 -0.5
v 2 1 0.5
v 2 1 -0.5
v 2 6 -2.5
v 2 6 -3.5
v 2 10 -1.5
v 2 10 -2.5
v 2 10 -3.5
v 2 11 -1.5
v 2 11 -2.5
v 3 1 1.5
v 3 1 -1.5
v 3 2 2.5
v 3 2 1.5
v 3 2 0.5
v 3 2 -0.5
v 3 2 -1.5
v 3 2 -2.5
v 3 3 2.5
v 3 3 0.5
v 3 3 -0.5
v 3 3 -2.5
v 3 4 2.5
v 3 4 0.5
v 3 4 -0.5
v 3 4 -2.5
v 3 5 2.5
v 3 5 0.5
v 3 5 -0.5
v 3 5 -2.5
v 3 6 2.5
v 3 6 1.5
v 3 6 0.5
v 3 6 -0.5
v 3 6 -1.5
v 3 10 2.5
v 3 10 1.5
v 3 10 0.5
v 3 10 -0.5
v 3 10 -1.5
v 3 10 -2.5
v 3 11 2.5
v 3 11 1.5
v 3 11 0.5
v 3 11 -0.5
v 3 11 -1.5
v 3 12 0.5
v 3 12 -0.5
v 3 13 0.5
v 3 13 -0.5
v 4 2 0.5
v 4 2 -0.5
v 4 3 0.5
v 4 3 -0.5
v 4 6 2.5
v 4 6 1.5
v 4 6 0.5
v 4 6 -0.5
v 4 6 -1.5
v 4 10 2.5
v 4 10 1.5
v 4 10 0.5
v 4 10 -0.5
v 4 10 -1.5
v 4 12 0.5
v 4 12 -0.5
v -4 6 2.5
v -4 10 2.5
v -3 2 2.5
v -3 3 2.5
v -3 4 2.5
v -3 5 2.5
v -3 6 2.5
v -3 9 2.5
v -3 10 2.5
v -3 11 2.5
v -2 9 2.5
v -2 10 2.5
v -1 5 2.5
v -1 6 2.5
v 1 5 2.5
v 1 6 2.5
v 2 9 2.5
v 2 10 2.5
v 3 2 2.5
v 3 3 2.5
v 3 4 2.5
v 3 5 2.5
v 3 6 2.5
v 3 9 2.5
v 3 10 2.5
v 3 11 2.5
v 4 6 2.5
v 4 10 2.5
v -3 1 1.5
v -3 2 1.5
v -3 6 1.5
v -3 9 1.5
v -2 7 1.5
v -2 8 1.5
v -2 9 1.5
v -2 10 1.5
v -1 1 1.5
v -1 2 1.5
v -1 5 1.5
v -1 6 1.5
v -1 7 1.5
v -1 8 1.5
v 1 1 1.5
v 1 2 1.5
v 1 5 1.5
v 1 6 1.5
v 1 7 1.5
v 1 8 1.5
v 2 7 1.5
v 2 8 1.5
v 2 9 1.5
v 2 10 1.5
v 3 1 1.5
v 3 2 1.5
v 3 6 1.5
v 3 9 1.5
v -4 2 0.5
v -4 3 0.5
v -4 6 0.5
v -4 10 0.5
v -4 12 0.5
v -3 2 0.5
v -3 3 0.5
v -3 4 0.5
v -3 5 0.5
v -3 6 0.5
v -3 10 0.5
v -3 11 0.5
v -3 12 0.5
v -3 13 0.5
v -2 0 0.5
v -2 1 0.5
v -2 11 0.5
v -2 12 0.5
v -2 13 0.5
v -1 0 0.5
v -1 1 0.5
v -1 11 0.5
v -1 12 0.5
v 1 0 0.5
v 1 1 0.5
v 1 11 0.5
v 1 12 0.5
v 2 0 0.5
v 2 1 0.5
v 2 11 0.5
v 2 12 0.5
v 2 13 0.5
v 3 2 0.5
v 3 3 0.5
v 3 4 0.5
v 3 5 0.5
v 3 6 0.5
v 3 10 0.5
v 3 11 0.5
v 3 12 0.5
v 3 13 0.5
v 4 2 0.5
v 4 3 0.5
v 4 6 0.5
v 4 10 0.5
v 4 12 0.5
v 0 0 -3.5
v 0 1 -3.5
v 0 2 -3.5
v 1 0 -3.5
v 1 1 -3.5
v 1 2 -3.5
v -4 2 -0.5
v -4 3 -0.5
v -4 6 -0.5
v -4 10 -0.5
v -4 12 -0.5
v -3 2 -0.5
v -3 3 -0.5
v -3 4 -0.5
v -3 5 -0.5
v -3 6 -0.5
v -3 10 -0.5
v -3 11 -0.5
v -3 12 -0.5
v -3 13 -0.5
v -2 0 -0.5
v -2 1 -0.5
v -2 11 -0.5
v -2 12 -0.5
v -2 13 -0.5
v -1 0 -0.5
v -1 1 -0.5
v -1 11 -0.5
v -1 12 -0.5
v 1 0 -0.5
v 1 1 -0.5
v 1 11 -0.5
v 1 12 -0.5
v 2 0 -0.5
v 2 1 -0.5
v 2 11 -0.5
v 2 12 -0.5
v 2 13 -0.5
v 3 2 -0.5
v 3 3 -0.5
v 3 4 -0.5
v 3 5 -0.5
v 3 6 -0.5
v 3 10 -0.5
v 3 11 -0.5
v 3 12 -0.5
v 3 13 -0.5
v 4 2 -0.5
v 4 3 -0.5
v 4 6 -0.5
v 4 10 -0.5
v 4 12 -0.5
v -4 6 -1.5
v -4 10 -1.5
v -3 1 -1.5
v -3 2 -1.5
v -3 6 -1.5
v -3 10 -1.5
v -3 11 -1.5
v -2 10 -1.5
v -2 11 -1.5
v -1 1 -1.5
v -1 2 -1.5
v 1 1 -1.5
v 1 2 -1.5
v 2 10 -1.5
v 2 11 -1.5
v 3 1 -1.5
v 3 2 -1.5
v 3 6 -1.5
v 3 10 -1.5
v 3 11 -1.5
v 4 6 -1.5
v 4 10 -1.5
v -3 2 -2.5
v -3 3 -2.5
v -3 4 -2.5
v -3 5 -2.5
v -3 10 -2.5
v -2 6 -2.5
v -2 10 -2.5
v -2 11 -2.5
v 0 2 -2.5
v 0 3 -2.5
v 1 2 -2.5
v 1 3 -2.5
v 2 6 -2.5
v 2 10 -2.5
v 2 11 -2.5
v 3 2 -2.5
v 3 3 -2.5
v 3 4 -2.5
v 3 5 -2.5
v 3 10 -2.5
v -2 6 -3.5
v -2 10 -3.5
v 2 6 -3.5
v 2 10 -3.5
v 0 1 -4.5
v 0 2 -4.5
v 0 3 -4.5
v 1 1 -4.5
v 1 2 -4.5
v 1 3 -4.5
v 0 0 -5.5
v 0 1 -5.5
v 1 0 -5.5
v 1 1 -5.5
v -2 0 0.5
v -1 0 0.5
v 1 0 0.5
v 2 0 0.5
v -2 0 -0.5
v -1 0 -0.5
v 1 0 -0.5
v 2 0 -0.5
v 0 0 -3.5
v 1 0 -3.5
v 0 0 -4.5
v 1 0 -4.5
v 0 0 -5.5
v 1 0 -5.5
v -3 1 1.5
v -1 1 1.5
v 1 1 1.5
v 3 1 1.5
v -2 1 0.5
v -1 1 0.5
v 1 1 0.5
v 2 1 0.5
v -2 1 -0.5
v -1 1 -0.5
v 1 1 -0.5
v 2 1 -0.5
v -3 1 -1.5
v -1 1 -1.5
v 1 1 -1.5
v 3 1 -1.5
v -3 2 2.5
v 3 2 2.5
v -3 2 1.5
v -1 2 1.5
v 1 2 1.5
v 3 2 1.5
v -4 2 0.5
v -3 2 0.5
v 3 2 0.5
v 4 2 0.5
v -4 2 -0.5
v -3 2 -0.5
v -1 2 -0.5
v 1 2 -0.5
v 3 2 -0.5
v 4 2 -0.5
v -3 2 -1.5
v -1 2 -1.5
v 1 2 -1.5
v 3 2 -1.5
v -3 2 -2.5
v 0 2 -2.5
v 1 2 -2.5
v 3 2 -2.5
v 0 2 -3.5
v 1 2 -3.5
v -4 6 2.5
v -3 6 2.5
v 3 6 2.5
v 4 6 2.5
v -4 6 1.5
v -3 6 1.5
v 3 6 1.5
v 4 6 1.5
v -4 6 0.5
v -3 6 0.5
v 3 6 0.5
v 4 6 0.5
v -4 6 -0.5
v -3 6 -0.5
v 3 6 -0.5
v 4 6 -0.5
v -4 6 -1.5
v -3 6 -1.5
v 3 6 -1.5
v 4 6 -1.5
v -2 6 -2.5
v 2 6 -2.5
v -2 6 -3.5
v 2 6 -3.5
v -3 9 2.5
v -2 9 2.5
v 2 9 2.5
v 3 9 2.5
v -3 9 1.5
v -2 9 1.5
v 2 9 1.5
v 3 9 1.5
v -2 10 2.5
v 2 10 2.5
v -2 10 1.5
v 2 10 1.5
v 0 1 -4.5
v 1 1 -4.5
v 0 1 -5.5
v 1 1 -5.5
v 0 3 -2.5
v 1 3 -2.5
v 0 3 -3.5
v 1 3 -3.5
v 0 3 -4.5
v 1 3 -4.5
v -1 5 2.5
v 1 5 2.5
v -1 5 1.5
v 1 5 1.5
v -3 6 2.5
v -1 6 2.5
v 1 6 2.5
v 3 6 2.5
v -3 6 1.5
v -1 6 1.5
v 1 6 1.5
v 3 6 1.5
v -4 10 2.5
v -3 10 2.5
v 3 10 2.5
v 4 10 2.5
v -4 10 1.5
v -3 10 1.5
v 3 10 1.5
v 4 10 1.5
v -4 10 0.5
v -3 10 0.5
v 3 10 0.5
v 4 10 0.5
v -4 10 -0.5
v -3 10 -0.5
v 3 10 -0.5
v 4 10 -0.5
v -4 10 -1.5
v -3 10 -1.5
v -2 10 -1.5
v 2 10 -1.5
v 3 10 -1.5
v 4 10 -1.5
v -3 10 -2.5
v -2 10 -2.5
v 2 10 -2.5
v 3 10 -2.5
v -2 10 -3.5
v 2 10 -3.5
v -3 11 2.5
v 3 11 2.5
v -3 11 1.5
v 3 11 1.5
v -3 11 0.5
v -2 11 0.5
v -1 11 0.5
v 1 11 0.5
v 2 11 0.5
v 3 11 0.5
v -3 11 -0.5
v -2 11 -0.5
v -1 11 -0.5
v 1 11 -0.5
v 2 11 -0.5
v 3 11 -0.5
v -3 11 -1.5
v -2 11 -1.5
v 2 11 -1.5
v 3 11 -1.5
v -2 11 -2.5
v 2 11 -2.5
v -4 12 0.5
v -3 12 0.5
v -2 12 0.5
v -1 12 0.5
v 1 12 0.5
v 2 12 0.5
v 3 12 0.5
v 4 12 0.5
v -4 12 -0.5
v -3 12 -0.5
v -2 12 -0.5
v -1 12 -0.5
v 1 12 -0.5
v 2 12 -0.5
v 3 12 -0.5
v 4 12 -0.5
v -3 13 0.5
v -2 13 0.5
v 2 13 0.5
v 3 13 0.5
v -3 13 -0.5
v -2 13 -0.5
v 2 13 -0.5
v 3 13 -0.5

# faces
f 3/1/1 2/1/1 1/1/1
f 4/1/1 2/1/1 3/1/1
f 7/4/1 4/4/1 3/4/1
f 8/4/1 4/4/1 7/4/1
f 10/2/1 6/2/1 5/2/1
f 11/4/1 9/4/1 8/4/1
f 11/2/1 6/2/1 10/2/1
f 11/4/1 8/4/1 7/4/1
f 11/4/1 7/4/1 6/4/1
f 12/4/1 9/4/1 11/4/1
f 13/4/1 9/4/1 12/4/1
f 14/4/1 9/4/1 13/4/1
f 15/2/1 13/2/1 12/2/1
f 16/2/1 13/2/1 15/2/1
f 20/4/1 18/4/1 17/4/1
f 21/4/1 18/4/1 20/4/1
f 22/4/1 18/4/1 21/4/1
f 23/4/1 18/4/1 22/4/1
f 25/3/1 20/3/1 19/3/1
f 25/3/1 21/3/1 20/3/1
f 26/3/1 21/3/1 25/3/1
f 27/3/1 24/3/1 23/3/1
f 27/3/1 23/3/1 22/3/1
f 28/3/1 24/3/1 27/3/1
f 29/4/1 26/4/1 25/4/1
f 30/4/1 26/4/1 29/4/1
f 31/4/1 28/4/1 27/4/1
f 32/4/1 28/4/1 31/4/1
f 33/3/1 30/3/1 29/3/1
f 34/3/1 30/3/1 33/3/1
f 35/3/1 32/3/1 31/3/1
f 36/3/1 32/3/1 35/3/1
f 37/4/1 34/4/1 33/4/1
f 38/4/1 34/4/1 37/4/1
f 39/4/1 34/4/1 38/4/1
f 40/4/1 36/4/1 35/4/1
f 41/4/1 36/4/1 40/4/1
f 46/4/1 36/4/1 41/4/1
f 47/4/1 36/4/1 46/4/1
f 48/2/1 43/2/1 42/2/1
f 49/4/1 44/4/1 43/4/1
f 49/2/1 43/2/1 48/2/1
f 50/4/1 44/4/1 49/4/1
f 51/4/1 46/4/1 45/4/1
f 52/4/1 46/4/1 51/4/1
f 55/2/1 54/2/1 53/2/1
f 56/2/1 54/2/1 55/2/1
f 59/5/1 58/5/1 57/5/1
f 60/5/1 58/5/1 59/5/1
f 64/4/1 62/4/1 61/4/1
f 65/4/1 62/4/1 64/4/1
f 66/4/1 64/4/1 63/4/1
f 67/4/1 64/4/1 66/4/1
f 71/4/1 69/4/1 68/4/1
f 72/3/1 70/3/1 69/3/1
f 72/4/1 69/4/1 71/4/1
f 73/3/1 70/3/1 72/3/1
f 75/3/1 72/3/1 71/3/1
f 76/3/1 72/3/1 75/3/1
f 77/3/1 75/3/1 74/3/1
f 78/4/1 76/4/1 75/4/1
f 78/3/1 75/3/1 77/3/1
f 79/4/1 76/4/1 78/4/1
f 83/5/1 81/5/1 80/5/1
f 84/5/1 81/5/1 83/5/1
f 86/4/1 83/4/1 82/4/1
f 86/4/1 85/4/1 84/4/1
f 86/4/1 84/4/1 83/4/1
f 87/4/1 85/4/1 86/4/1
f 88/4/1 85/4/1 87/4/1
f 91/4/1 90/4/1 89/4/1
f 92/4/1 90/4/1 91/4/1
f 95/2/1 94/2/1 93/2/1
f 96/2/1 94/2/1 95/2/1
f 99/2/1 98/2/1 97/2/1
f 100/2/1 98/2/1 99/2/1
f 103/2/1 102/2/1 101/2/1
f 104/2/1 102/2/1 103/2/1
f 107/2/1 106/2/1 105/2/1
f 108/2/1 106/2/1 107/2/1
f 109/2/2 110/2/2 111/2/2
f 111/2/2 110/2/2 112/2/2
f 113/2/2 114/2/2 115/2/2
f 115/2/2 114/2/2 116/2/2
f 117/2/2 118/2/2 119/2/2
f 119/2/2 118/2/2 120/2/2
f 121/5/2 122/5/2 124/5/2
f 124/5/2 122/5/2 125/5/2
f 123/4/2 124/4/2 127/4/2
f 125/4/2 126/4/2 127/4/2
f 124/4/2 125/4/2 127/4/2
f 127/4/2 126/4/2 128/4/2
f 128/4/2 126/4/2 129/4/2
f 130/4/2 131/4/2 132/4/2
f 132/4/2 131/4/2 133/4/2
f 134/2/2 135/2/2 136/2/2
f 136/2/2 135/2/2 137/2/2
f 138/4/2 139/4/2 141/4/2
f 139/3/2 140/3/2 142/3/2
f 141/4/2 139/4/2 142/4/2
f 142/3/2 140/3/2 143/3/2
f 141/3/2 142/3/2 145/3/2
f 145/3/2 142/3/2 146/3/2
f 144/3/2 145/3/2 147/3/2
f 145/4/2 146/4/2 148/4/2
f 147/3/2 145/3/2 148/3/2
f 148/4/2 146/4/2 149/4/2
f 150/5/2 151/5/2 152/5/2
f 152/5/2 151/5/2 153/5/2
f 154/4/2 155/4/2 157/4/2
f 157/4/2 155/4/2 158/4/2
f 156/4/2 157/4/2 159/4/2
f 159/4/2 157/4/2 160/4/2
f 161/4/2 162/4/2 164/4/2
f 164/4/2 162/4/2 165/4/2
f 165/4/2 162/4/2 166/4/2
f 166/4/2 162/4/2 167/4/2
f 163/3/2 164/3/2 169/3/2
f 164/3/2 165/3/2 169/3/2
f 169/3/2 165/3/2 170/3/2
f 167/3/2 168/3/2 171/3/2
f 166/3/2 167/3/2 171/3/2
f 171/3/2 168/3/2 172/3/2
f 169/4/2 170/4/2 173/4/2
f 173/4/2 170/4/2 174/4/2
f 171/4/2 172/4/2 175/4/2
f 175/4/2 172/4/2 176/4/2
f 173/3/2 174/3/2 177/3/2
f 177/3/2 174/3/2 178/3/2
f 175/3/2 176/3/2 179/3/2
f 179/3/2 176/3/2 180/3/2
f 177/4/2 178/4/2 181/4/2
f 181/4/2 178/4/2 182/4/2
f 182/4/2 178/4/2 183/4/2
f 179/4/2 180/4/2 184/4/2
f 184/4/2 180/4/2 185/4/2
f 185/4/2 180/4/2 190/4/2
f 190/4/2 180/4/2 191/4/2
f 186/2/2 187/2/2 192/2/2
f 187/4/2 188/4/2 193/4/2
f 192/2/2 187/2/2 193/2/2
f 193/4/2 188/4/2 194/4/2
f 189/4/2 190/4/2 195/4/2
f 195/4/2 190/4/2 196/4/2
f 197/2/2 198/2/2 199/2/2
f 199/2/2 198/2/2 200/2/2
f 201/1/2 202/1/2 203/1/2
f 203/1/2 202/1/2 204/1/2
f 203/4/2 204/4/2 207/4/2
f 207/4/2 204/4/2 208/4/2
f 205/2/2 206/2/2 210/2/2
f 208/4/2 209/4/2 211/4/2
f 210/2/2 206/2/2 211/2/2
f 207/4/2 208/4/2 211/4/2
f 206/4/2 207/4/2 211/4/2
f 211/4/2 209/4/2 212/4/2
f 212/4/2 209/4/2 213/4/2
f 213/4/2 209/4/2 214/4/2
f 212/2/2 213/2/2 215/2/2
f 215/2/2 213/2/2 216/2/2
f 223/2/3 218/2/3 217/2/3
f 224/2/3 218/2/3 223/2/3
f 225/2/3 218/2/3 224/2/3
f 227/2/3 226/2/3 225/2/3
f 227/2/3 225/2/3 224/2/3
f 228/2/3 226/2/3 227/2/3
f 229/3/3 222/3/3 221/3/3
f 229/4/3 223/4/3 222/4/3
f 230/4/3 223/4/3 229/4/3
f 231/3/3 229/3/3 221/3/3
f 234/2/3 226/2/3 228/2/3
f 235/3/3 220/3/3 219/3/3
f 236/4/3 221/4/3 220/4/3
f 236/3/3 220/3/3 235/3/3
f 237/3/3 231/3/3 221/3/3
f 237/4/3 221/4/3 236/4/3
f 238/4/3 232/4/3 231/4/3
f 238/3/3 231/3/3 237/3/3
f 239/4/3 232/4/3 238/4/3
f 240/2/3 234/2/3 233/2/3
f 241/2/3 226/2/3 234/2/3
f 241/2/3 234/2/3 240/2/3
f 242/2/3 226/2/3 241/2/3
f 243/2/3 241/2/3 240/2/3
f 243/2/3 240/2/3 239/2/3
f 244/2/3 241/2/3 243/2/3
f 249/1/3 248/1/3 247/1/3
f 250/1/3 248/1/3 249/1/3
f 251/1/3 248/1/3 250/1/3
f 253/4/3 246/4/3 245/4/3
f 254/4/3 246/4/3 253/4/3
f 256/1/3 249/1/3 247/1/3
f 257/6/3 250/6/3 249/6/3
f 257/1/3 249/1/3 256/1/3
f 258/1/3 252/1/3 251/1/3
f 258/6/3 250/6/3 257/6/3
f 258/1/3 251/1/3 250/1/3
f 261/1/3 257/1/3 256/1/3
f 261/1/3 256/1/3 255/1/3
f 261/1/3 258/1/3 257/1/3
f 262/1/3 258/1/3 261/1/3
f 263/1/3 258/1/3 262/1/3
f 264/1/3 252/1/3 258/1/3
f 264/1/3 258/1/3 263/1/3
f 265/1/3 263/1/3 262/1/3
f 265/6/3 264/6/3 263/6/3
f 266/1/3 252/1/3 264/1/3
f 266/6/3 264/6/3 265/6/3
f 267/1/3 252/1/3 266/1/3
f 268/1/3 252/1/3 267/1/3
f 269/4/3 260/4/3 259/4/3
f 270/4/3 260/4/3 269/4/3
f 271/1/3 265/1/3 262/1/3
f 271/1/3 266/1/3 265/1/3
f 271/1/3 267/1/3 266/1/3
f 272/1/3 267/1/3 271/1/3
f 278/1/3 274/1/3 273/1/3
f 279/4/3 275/4/3 274/4/3
f 279/1/3 274/1/3 278/1/3
f 280/4/3 275/4/3 279/4/3
f 281/4/3 275/4/3 280/4/3
f 282/4/3 275/4/3 281/4/3
f 283/2/3 277/2/3 276/2/3
f 284/2/3 277/2/3 283/2/3
f 285/2/3 277/2/3 284/2/3
f 289/4/3 285/4/3 284/4/3
f 290/2/3 286/2/3 285/2/3
f 290/4/3 285/4/3 289/4/3
f 291/2/3 286/2/3 290/2/3
f 292/5/3 288/5/3 287/5/3
f 293/5/3 288/5/3 292/5/3
f 294/2/3 290/2/3 289/2/3
f 295/2/3 290/2/3 294/2/3
f 300/5/3 297/5/3 296/5/3
f 301/5/3 297/5/3 300/5/3
f 302/2/3 299/2/3 298/2/3
f 303/2/3 299/2/3 302/2/3
f 311/4/3 303/4/3 302/4/3
f 312/2/3 304/2/3 303/2/3
f 312/4/3 303/4/3 311/4/3
f 313/2/3 304/2/3 312/2/3
f 314/1/3 306/1/3 305/1/3
f 315/4/3 309/4/3 308/4/3
f 315/1/3 306/1/3 314/1/3
f 315/4/3 307/4/3 306/4/3
f 315/4/3 308/4/3 307/4/3
f 316/4/3 309/4/3 315/4/3
f 317/2/3 311/2/3 310/2/3
f 317/2/3 312/2/3 311/2/3
f 318/2/3 312/2/3 317/2/3
f 322/4/3 320/4/3 319/4/3
f 323/3/3 321/3/3 320/3/3
f 323/4/3 320/4/3 322/4/3
f 324/3/3 321/3/3 323/3/3
f 325/1/4 326/1/4 330/1/4
f 326/4/4 327/4/4 331/4/4
f 330/1/4 326/1/4 331/1/4
f 331/4/4 327/4/4 332/4/4
f 332/4/4 327/4/4 333/4/4
f 333/4/4 327/4/4 334/4/4
f 328/2/4 329/2/4 335/2/4
f 335/2/4 329/2/4 336/2/4
f 336/2/4 329/2/4 337/2/4
f 336/4/4 337/4/4 341/4/4
f 337/2/4 338/2/4 342/2/4
f 341/4/4 337/4/4 342/4/4
f 342/2/4 338/2/4 343/2/4
f 339/5/4 340/5/4 344/5/4
f 344/5/4 340/5/4 345/5/4
f 341/2/4 342/2/4 346/2/4
f 346/2/4 342/2/4 347/2/4
f 348/5/4 349/5/4 352/5/4
f 352/5/4 349/5/4 353/5/4
f 350/2/4 351/2/4 354/2/4
f 354/2/4 351/2/4 355/2/4
f 354/4/4 355/4/4 363/4/4
f 355/2/4 356/2/4 364/2/4
f 363/4/4 355/4/4 364/4/4
f 364/2/4 356/2/4 365/2/4
f 357/1/4 358/1/4 366/1/4
f 360/4/4 361/4/4 367/4/4
f 366/1/4 358/1/4 367/1/4
f 358/4/4 359/4/4 367/4/4
f 359/4/4 360/4/4 367/4/4
f 367/4/4 361/4/4 368/4/4
f 362/2/4 363/2/4 369/2/4
f 363/2/4 364/2/4 369/2/4
f 369/2/4 364/2/4 370/2/4
f 371/4/4 372/4/4 375/4/4
f 375/4/4 372/4/4 376/4/4
f 376/4/4 377/4/4 378/4/4
f 378/4/4 377/4/4 379/4/4
f 373/4/4 374/4/4 380/4/4
f 380/4/4 374/4/4 381/4/4
f 382/4/4 383/4/4 386/4/4
f 386/4/4 383/4/4 387/4/4
f 384/4/4 385/4/4 389/4/4
f 389/4/4 385/4/4 390/4/4
f 388/4/4 389/4/4 391/4/4
f 391/4/4 389/4/4 392/4/4
f 396/4/4 397/4/4 398/4/4
f 398/4/4 397/4/4 399/4/4
f 393/3/4 394/3/4 401/3/4
f 394/4/4 395/4/4 402/4/4
f 401/3/4 394/3/4 402/3/4
f 402/4/4 395/4/4 404/4/4
f 396/4/4 398/4/4 405/4/4
f 399/4/4 400/4/4 406/4/4
f 406/4/4 400/4/4 407/4/4
f 403/3/4 404/3/4 408/3/4
f 404/4/4 395/4/4 409/4/4
f 408/3/4 404/3/4 409/3/4
f 395/3/4 396/3/4 410/3/4
f 409/4/4 395/4/4 410/4/4
f 396/4/4 405/4/4 411/4/4
f 410/3/4 396/3/4 411/3/4
f 405/4/4 406/4/4 411/4/4
f 411/4/4 406/4/4 412/4/4
f 413/4/4 414/4/4 415/4/4
f 415/4/4 414/4/4 416/4/4
f 417/3/4 418/3/4 420/3/4
f 418/4/4 419/4/4 421/4/4
f 420/3/4 418/3/4 421/3/4
f 421/4/4 419/4/4 422/4/4
f 423/3/4 424/3/4 425/3/4
f 425/3/4 424/3/4 426/3/4
f 431/5/5 428/5/5 427/5/5
f 432/5/5 428/5/5 431/5/5
f 433/5/5 430/5/5 429/5/5
f 434/5/5 430/5/5 433/5/5
f 437/4/5 436/4/5 435/4/5
f 438/4/5 436/4/5 437/4/5
f 439/3/5 438/3/5 437/3/5
f 440/3/5 438/3/5 439/3/5
f 445/4/5 442/4/5 441/4/5
f 446/4/5 442/4/5 445/4/5
f 447/4/5 444/4/5 443/4/5
f 448/4/5 444/4/5 447/4/5
f 449/4/5 445/4/5 441/4/5
f 452/4/5 444/4/5 448/4/5
f 453/4/5 450/4/5 449/4/5
f 453/4/5 449/4/5 441/4/5
f 454/4/5 450/4/5 453/4/5
f 455/4/5 452/4/5 451/4/5
f 456/4/5 444/4/5 452/4/5
f 456/4/5 452/4/5 455/4/5
f 459/3/5 458/3/5 457/3/5
f 460/3/5 458/3/5 459/3/5
f 461/3/5 458/3/5 460/3/5
f 462/3/5 458/3/5 461/3/5
f 467/1/5 464/1/5 463/1/5
f 468/1/5 464/1/5 467/1/5
f 469/4/5 461/4/5 460/4/5
f 470/4/5 461/4/5 469/4/5
f 471/1/5 466/1/5 465/1/5
f 472/1/5 466/1/5 471/1/5
f 474/3/5 470/3/5 469/3/5
f 475/3/5 470/3/5 474/3/5
f 477/3/5 474/3/5 473/3/5
f 477/3/5 476/3/5 475/3/5
f 477/3/5 475/3/5 474/3/5
f 478/3/5 476/3/5 477/3/5
f 479/3/5 476/3/5 478/3/5
f 480/3/5 476/3/5 479/3/5
f 481/3/5 479/3/5 478/3/5
f 482/3/5 479/3/5 481/3/5
f 487/2/5 484/2/5 483/2/5
f 488/2/5 484/2/5 487/2/5
f 489/2/5 486/2/5 485/2/5
f 490/2/5 486/2/5 489/2/5
f 491/4/5 488/4/5 487/4/5
f 492/4/5 488/4/5 491/4/5
f 493/4/5 490/4/5 489/4/5
f 494/4/5 490/4/5 493/4/5
f 499/4/5 496/4/5 495/4/5
f 500/4/5 496/4/5 499/4/5
f 501/4/5 498/4/5 497/4/5
f 502/4/5 498/4/5 501/4/5
f 505/4/5 504/4/5 503/4/5
f 506/4/5 504/4/5 505/4/5
f 511/2/5 508/2/5 507/2/5
f 512/2/5 508/2/5 511/2/5
f 513/2/5 510/2/5 509/2/5
f 514/2/5 510/2/5 513/2/5
f 517/2/5 516/2/5 515/2/5
f 518/2/5 516/2/5 517/2/5
f 519/3/6 520/3/6 521/3/6
f 521/3/6 520/3/6 522/3/6
f 523/3/6 524/3/6 525/3/6
f 525/3/6 524/3/6 526/3/6
f 525/4/6 526/4/6 527/4/6
f 527/4/6 526/4/6 528/4/6
f 529/3/6 530/3/6 531/3/6
f 531/3/6 530/3/6 532/3/6
f 533/4/6 534/4/6 537/4/6
f 537/4/6 534/4/6 538/4/6
f 535/4/6 536/4/6 539/4/6
f 539/4/6 536/4/6 540/4/6
f 541/2/6 542/2/6 545/2/6
f 545/2/6 542/2/6 546/2/6
f 543/2/6 544/2/6 547/2/6
f 547/2/6 544/2/6 548/2/6
f 545/4/6 546/4/6 549/4/6
f 549/4/6 546/4/6 550/4/6
f 547/4/6 548/4/6 551/4/6
f 551/4/6 548/4/6 552/4/6
f 553/4/6 554/4/6 557/4/6
f 557/4/6 554/4/6 558/4/6
f 555/4/6 556/4/6 561/4/6
f 561/4/6 556/4/6 562/4/6
f 558/4/6 559/4/6 563/4/6
f 563/4/6 559/4/6 564/4/6
f 560/4/6 561/4/6 565/4/6
f 565/4/6 561/4/6 566/4/6
f 564/4/6 565/4/6 567/4/6
f 567/4/6 565/4/6 568/4/6
f 569/2/6 570/2/6 571/2/6
f 571/2/6 570/2/6 572/2/6
f 571/4/6 572/4/6 573/4/6
f 573/4/6 572/4/6 574/4/6
f 574/4/6 572/4/6 575/4/6
f 575/4/6 572/4/6 576/4/6
f 576/4/6 572/4/6 577/4/6
f 577/4/6 572/4/6 578/4/6
f 575/4/6 576/4/6 581/4/6
f 581/4/6 576/4/6 582/4/6
f 579/4/6 580/4/6 585/4/6
f 583/4/6 584/4/6 585/4/6
f 582/4/6 583/4/6 585/4/6
f 581/4/6 582/4/6 585/4/6
f 580/4/6 581/4/6 585/4/6
f 585/4/6 584/4/6 586/4/6
f 586/4/6 584/4/6 587/4/6
f 587/4/6 584/4/6 588/4/6
f 586/4/6 587/4/6 589/4/6
f 589/4/6 587/4/6 590/4/6
f 591/2/6 592/2/6 599/2/6
f 599/2/6 592/2/6 600/2/6
f 593/2/6 594/2/6 601/2/6
f 601/2/6 594/2/6 602/2/6
f 595/2/6 596/2/6 603/2/6
f 603/2/6 596/2/6 604/2/6
f 597/2/6 598/2/6 605/2/6
f 605/2/6 598/2/6 606/2/6
f 607/2/6 608/2/6 611/2/6
f 611/2/6 608/2/6 612/2/6
f 609/2/6 610/2/6 613/2/6
f 613/2/6 610/2/6 614/2/6
