# MagicaVoxel @ Ephtracy

# material
mtllib chr_goth1.mtl
usemtl palette

# normals
vn -1 0 0
vn 1 0 0
vn 0 0 1
vn 0 0 -1
vn 0 -1 0
vn 0 1 0

# texcoords
vt 0.0332031 0.5
vt 0.330078 0.5
vt 0.865234 0.5
vt 0.873047 0.5
vt 0.962891 0.5
vt 0.978516 0.5
vt 0.982422 0.5
vt 0.990234 0.5
vt 0.994141 0.5

# verts
v -5 5 0.5
v -5 5 -0.5
v -5 7 1.5
v -5 7 0.5
v -5 8 0.5
v -5 8 -0.5
v -5 10 1.5
v -5 10 0.5
v -4 2 1.5
v -4 2 0.5
v -4 3 1.5
v -4 3 0.5
v -4 4 2.5
v -4 4 1.5
v -4 4 -0.5
v -4 4 -1.5
v -4 5 0.5
v -4 5 -0.5
v -4 5 -1.5
v -4 6 2.5
v -4 6 1.5
v -4 6 0.5
v -4 6 -0.5
v -4 6 -1.5
v -4 7 2.5
v -4 7 1.5
v -4 7 0.5
v -4 8 2.5
v -4 8 1.5
v -4 8 0.5
v -4 8 -0.5
v -4 9 2.5
v -4 9 1.5
v -4 10 2.5
v -4 10 1.5
v -4 10 0.5
v -4 10 -0.5
v -4 11 1.5
v -4 11 0.5
v -3 1 2.5
v -3 1 -0.5
v -3 2 3.5
v -3 2 2.5
v -3 2 1.5
v -3 2 0.5
v -3 2 -0.5
v -3 2 -1.5
v -3 3 1.5
v -3 3 0.5
v -3 4 2.5
v -3 4 1.5
v -3 4 -0.5
v -3 4 -1.5
v -3 5 0.5
v -3 5 -0.5
v -3 6 3.5
v -3 6 2.5
v -3 6 1.5
v -3 6 -0.5
v -3 6 -1.5
v -3 7 2.5
v -3 7 1.5
v -3 8 2.5
v -3 8 1.5
v -3 9 2.5
v -3 9 1.5
v -3 10 2.5
v -3 10 1.5
v -3 10 0.5
v -3 10 -0.5
v -3 10 -1.5
v -3 11 2.5
v -3 11 1.5
v -3 11 0.5
v -3 11 -0.5
v -2 0 1.5
v -2 0 0.5
v -2 1 1.5
v -2 1 0.5
v -2 5 -1.5
v -2 5 -3.5
v -2 6 -1.5
v -2 7 -2.5
v -2 7 -3.5
v -2 10 -0.5
v -2 10 -1.5
v -2 10 -2.5
v -2 11 -0.5
v -2 11 -1.5
v -1 7 -2.5
v -1 7 -3.5
v -1 8 -2.5
v -1 8 -3.5
v 1 0 1.5
v 1 0 0.5
v 1 1 1.5
v 1 1 0.5
v 1 1 -0.5
v 1 2 1.5
v 1 2 -0.5
v 1 5 3.5
v 1 5 2.5
v 1 5 -1.5
v 1 5 -3.5
v 1 6 3.5
v 1 6 2.5
v 1 6 -1.5
v 1 6 -3.5
v 2 10 2.5
v 2 10 1.5
v 2 11 2.5
v 2 11 1.5
v -2 10 2.5
v -2 10 1.5
v -2 11 2.5
v -2 11 1.5
v -1 0 1.5
v -1 0 0.5
v -1 1 1.5
v -1 1 0.5
v -1 1 -0.5
v -1 2 1.5
v -1 2 -0.5
v -1 5 3.5
v -1 5 2.5
v -1 5 -1.5
v -1 5 -3.5
v -1 6 3.5
v -1 6 2.5
v -1 6 -1.5
v -1 6 -3.5
v 1 7 -2.5
v 1 7 -3.5
v 1 8 -2.5
v 1 8 -3.5
v 2 0 1.5
v 2 0 0.5
v 2 1 1.5
v 2 1 0.5
v 2 5 -1.5
v 2 5 -3.5
v 2 6 -1.5
v 2 7 -2.5
v 2 7 -3.5
v 2 10 -0.5
v 2 10 -1.5
v 2 10 -2.5
v 2 11 -0.5
v 2 11 -1.5
v 3 1 2.5
v 3 1 -0.5
v 3 2 3.5
v 3 2 2.5
v 3 2 1.5
v 3 2 0.5
v 3 2 -0.5
v 3 2 -1.5
v 3 3 1.5
v 3 3 0.5
v 3 4 2.5
v 3 4 1.5
v 3 4 -0.5
v 3 4 -1.5
v 3 5 0.5
v 3 5 -0.5
v 3 6 3.5
v 3 6 2.5
v 3 6 1.5
v 3 6 -0.5
v 3 6 -1.5
v 3 7 2.5
v 3 7 1.5
v 3 8 2.5
v 3 8 1.5
v 3 9 2.5
v 3 9 1.5
v 3 10 2.5
v 3 10 1.5
v 3 10 0.5
v 3 10 -0.5
v 3 10 -1.5
v 3 11 2.5
v 3 11 1.5
v 3 11 0.5
v 3 11 -0.5
v 4 2 1.5
v 4 2 0.5
v 4 3 1.5
v 4 3 0.5
v 4 4 2.5
v 4 4 1.5
v 4 4 -0.5
v 4 4 -1.5
v 4 5 0.5
v 4 5 -0.5
v 4 5 -1.5
v 4 6 2.5
v 4 6 1.5
v 4 6 0.5
v 4 6 -0.5
v 4 6 -1.5
v 4 7 2.5
v 4 7 1.5
v 4 7 0.5
v 4 8 2.5
v 4 8 1.5
v 4 8 0.5
v 4 8 -0.5
v 4 9 2.5
v 4 9 1.5
v 4 10 2.5
v 4 10 1.5
v 4 10 0.5
v 4 10 -0.5
v 4 11 1.5
v 4 11 0.5
v 5 5 0.5
v 5 5 -0.5
v 5 7 1.5
v 5 7 0.5
v 5 8 0.5
v 5 8 -0.5
v 5 10 1.5
v 5 10 0.5
v -3 2 3.5
v -3 6 3.5
v -1 5 3.5
v -1 6 3.5
v 1 5 3.5
v 1 6 3.5
v 3 2 3.5
v 3 6 3.5
v -4 4 2.5
v -4 6 2.5
v -4 7 2.5
v -4 8 2.5
v -4 9 2.5
v -4 10 2.5
v -3 1 2.5
v -3 2 2.5
v -3 4 2.5
v -3 6 2.5
v -3 7 2.5
v -3 8 2.5
v -3 9 2.5
v -3 10 2.5
v -3 11 2.5
v -2 6 2.5
v -2 7 2.5
v -2 8 2.5
v -2 9 2.5
v -2 10 2.5
v -2 11 2.5
v -1 5 2.5
v -1 6 2.5
v -1 7 2.5
v -1 8 2.5
v -1 9 2.5
v 1 5 2.5
v 1 6 2.5
v 1 7 2.5
v 1 8 2.5
v 1 9 2.5
v 2 6 2.5
v 2 7 2.5
v 2 8 2.5
v 2 9 2.5
v 2 10 2.5
v 2 11 2.5
v 3 1 2.5
v 3 2 2.5
v 3 4 2.5
v 3 6 2.5
v 3 7 2.5
v 3 8 2.5
v 3 9 2.5
v 3 10 2.5
v 3 11 2.5
v 4 4 2.5
v 4 6 2.5
v 4 7 2.5
v 4 8 2.5
v 4 9 2.5
v 4 10 2.5
v -5 7 1.5
v -5 10 1.5
v -4 2 1.5
v -4 3 1.5
v -4 4 1.5
v -4 6 1.5
v -4 7 1.5
v -4 8 1.5
v -4 9 1.5
v -4 10 1.5
v -4 11 1.5
v -3 2 1.5
v -3 3 1.5
v -3 4 1.5
v -3 6 1.5
v -3 7 1.5
v -3 8 1.5
v -3 9 1.5
v -3 10 1.5
v -3 11 1.5
v -2 0 1.5
v -2 1 1.5
v -2 10 1.5
v -2 11 1.5
v -1 0 1.5
v -1 1 1.5
v 1 0 1.5
v 1 1 1.5
v 2 0 1.5
v 2 1 1.5
v 2 10 1.5
v 2 11 1.5
v 3 2 1.5
v 3 3 1.5
v 3 4 1.5
v 3 6 1.5
v 3 7 1.5
v 3 8 1.5
v 3 9 1.5
v 3 10 1.5
v 3 11 1.5
v 4 2 1.5
v 4 3 1.5
v 4 4 1.5
v 4 6 1.5
v 4 7 1.5
v 4 8 1.5
v 4 9 1.5
v 4 10 1.5
v 4 11 1.5
v 5 7 1.5
v 5 10 1.5
v -5 5 0.5
v -5 7 0.5
v -4 5 0.5
v -4 6 0.5
v -4 7 0.5
v 4 5 0.5
v 4 6 0.5
v 4 7 0.5
v 5 5 0.5
v 5 7 0.5
v -4 4 -0.5
v -4 5 -0.5
v -3 4 -0.5
v -3 5 -0.5
v 3 4 -0.5
v 3 5 -0.5
v 4 4 -0.5
v 4 5 -0.5
v -1 1 1.5
v -1 2 1.5
v 1 1 1.5
v 1 2 1.5
v -5 8 0.5
v -5 10 0.5
v -4 2 0.5
v -4 3 0.5
v -4 5 0.5
v -4 8 0.5
v -4 10 0.5
v -4 11 0.5
v -3 2 0.5
v -3 3 0.5
v -3 5 0.5
v -3 10 0.5
v -3 11 0.5
v -2 0 0.5
v -2 1 0.5
v -1 0 0.5
v -1 1 0.5
v 1 0 0.5
v 1 1 0.5
v 2 0 0.5
v 2 1 0.5
v 3 2 0.5
v 3 3 0.5
v 3 5 0.5
v 3 10 0.5
v 3 11 0.5
v 4 2 0.5
v 4 3 0.5
v 4 5 0.5
v 4 8 0.5
v 4 10 0.5
v 4 11 0.5
v 5 8 0.5
v 5 10 0.5
v -5 5 -0.5
v -5 8 -0.5
v -4 5 -0.5
v -4 6 -0.5
v -4 8 -0.5
v -4 10 -0.5
v -3 1 -0.5
v -3 2 -0.5
v -3 6 -0.5
v -3 10 -0.5
v -3 11 -0.5
v -2 1 -0.5
v -2 2 -0.5
v -2 10 -0.5
v -2 11 -0.5
v -1 1 -0.5
v -1 2 -0.5
v 1 1 -0.5
v 1 2 -0.5
v 2 1 -0.5
v 2 2 -0.5
v 2 10 -0.5
v 2 11 -0.5
v 3 1 -0.5
v 3 2 -0.5
v 3 6 -0.5
v 3 10 -0.5
v 3 11 -0.5
v 4 5 -0.5
v 4 6 -0.5
v 4 8 -0.5
v 4 10 -0.5
v 5 5 -0.5
v 5 8 -0.5
v -4 4 -1.5
v -4 5 -1.5
v -4 6 -1.5
v -3 2 -1.5
v -3 4 -1.5
v -3 5 -1.5
v -3 6 -1.5
v -3 10 -1.5
v -2 5 -1.5
v -2 6 -1.5
v -2 10 -1.5
v -2 11 -1.5
v -1 5 -1.5
v -1 6 -1.5
v 1 5 -1.5
v 1 6 -1.5
v 2 5 -1.5
v 2 6 -1.5
v 2 10 -1.5
v 2 11 -1.5
v 3 2 -1.5
v 3 4 -1.5
v 3 5 -1.5
v 3 6 -1.5
v 3 10 -1.5
v 4 4 -1.5
v 4 5 -1.5
v 4 6 -1.5
v -2 7 -2.5
v -2 10 -2.5
v -1 7 -2.5
v -1 8 -2.5
v 1 7 -2.5
v 1 8 -2.5
v 2 7 -2.5
v 2 10 -2.5
v -2 5 -3.5
v -2 7 -3.5
v -1 5 -3.5
v -1 6 -3.5
v -1 7 -3.5
v -1 8 -3.5
v 1 5 -3.5
v 1 6 -3.5
v 1 7 -3.5
v 1 8 -3.5
v 2 5 -3.5
v 2 7 -3.5
v -2 0 1.5
v -1 0 1.5
v 1 0 1.5
v 2 0 1.5
v -2 0 0.5
v -1 0 0.5
v 1 0 0.5
v 2 0 0.5
v -3 1 2.5
v 3 1 2.5
v -2 1 1.5
v -1 1 1.5
v 1 1 1.5
v 2 1 1.5
v -2 1 0.5
v -1 1 0.5
v 1 1 0.5
v 2 1 0.5
v -3 1 -0.5
v -2 1 -0.5
v -1 1 -0.5
v 1 1 -0.5
v 2 1 -0.5
v 3 1 -0.5
v -3 2 3.5
v 3 2 3.5
v -3 2 2.5
v 3 2 2.5
v -4 2 1.5
v -3 2 1.5
v -1 2 1.5
v 1 2 1.5
v 3 2 1.5
v 4 2 1.5
v -4 2 0.5
v -3 2 0.5
v 3 2 0.5
v 4 2 0.5
v -3 2 -0.5
v -2 2 -0.5
v -1 2 -0.5
v 1 2 -0.5
v 2 2 -0.5
v 3 2 -0.5
v -3 2 -1.5
v 3 2 -1.5
v -4 4 2.5
v -3 4 2.5
v 3 4 2.5
v 4 4 2.5
v -4 4 1.5
v -3 4 1.5
v 3 4 1.5
v 4 4 1.5
v -4 4 -0.5
v -3 4 -0.5
v 3 4 -0.5
v 4 4 -0.5
v -4 4 -1.5
v -3 4 -1.5
v 3 4 -1.5
v 4 4 -1.5
v -5 5 0.5
v -4 5 0.5
v -3 5 0.5
v 3 5 0.5
v 4 5 0.5
v 5 5 0.5
v -5 5 -0.5
v -4 5 -0.5
v -3 5 -0.5
v 3 5 -0.5
v 4 5 -0.5
v 5 5 -0.5
v -2 5 -1.5
v -1 5 -1.5
v 1 5 -1.5
v 2 5 -1.5
v -2 5 -3.5
v -1 5 -3.5
v 1 5 -3.5
v 2 5 -3.5
v -1 6 -1.5
v 1 6 -1.5
v -1 6 -3.5
v 1 6 -3.5
v -4 7 2.5
v -3 7 2.5
v 3 7 2.5
v 4 7 2.5
v -5 7 1.5
v -4 7 1.5
v -3 7 1.5
v 3 7 1.5
v 4 7 1.5
v 5 7 1.5
v -5 7 0.5
v -4 7 0.5
v 4 7 0.5
v 5 7 0.5
v -4 9 2.5
v -3 9 2.5
v 3 9 2.5
v 4 9 2.5
v -4 9 1.5
v -3 9 1.5
v 3 9 1.5
v 4 9 1.5
v -1 5 3.5
v 1 5 3.5
v -1 5 2.5
v 1 5 2.5
v -3 6 3.5
v -1 6 3.5
v 1 6 3.5
v 3 6 3.5
v -4 6 2.5
v -3 6 2.5
v -2 6 2.5
v -1 6 2.5
v 1 6 2.5
v 2 6 2.5
v 3 6 2.5
v 4 6 2.5
v -4 6 1.5
v -3 6 1.5
v 3 6 1.5
v 4 6 1.5
v -4 6 -0.5
v -3 6 -0.5
v 3 6 -0.5
v 4 6 -0.5
v -4 6 -1.5
v -3 6 -1.5
v 3 6 -1.5
v 4 6 -1.5
v -2 7 -2.5
v -1 7 -2.5
v 1 7 -2.5
v 2 7 -2.5
v -2 7 -3.5
v -1 7 -3.5
v 1 7 -3.5
v 2 7 -3.5
v -4 8 2.5
v -3 8 2.5
v 3 8 2.5
v 4 8 2.5
v -4 8 1.5
v -3 8 1.5
v 3 8 1.5
v 4 8 1.5
v -5 8 0.5
v -4 8 0.5
v 4 8 0.5
v 5 8 0.5
v -5 8 -0.5
v -4 8 -0.5
v 4 8 -0.5
v 5 8 -0.5
v -1 8 -2.5
v 1 8 -2.5
v -1 8 -3.5
v 1 8 -3.5
v -4 10 2.5
v -3 10 2.5
v -2 10 2.5
v 2 10 2.5
v 3 10 2.5
v 4 10 2.5
v -5 10 1.5
v -4 10 1.5
v -3 10 1.5
v -2 10 1.5
v 2 10 1.5
v 3 10 1.5
v 4 10 1.5
v 5 10 1.5
v -5 10 0.5
v -4 10 0.5
v -3 10 0.5
v 3 10 0.5
v 4 10 0.5
v 5 10 0.5
v -4 10 -0.5
v -3 10 -0.5
v -2 10 -0.5
v 2 10 -0.5
v 3 10 -0.5
v 4 10 -0.5
v -3 10 -1.5
v -2 10 -1.5
v 2 10 -1.5
v 3 10 -1.5
v -2 10 -2.5
v 2 10 -2.5
v -3 11 2.5
v -2 11 2.5
v 2 11 2.5
v 3 11 2.5
v -4 11 1.5
v -3 11 1.5
v -2 11 1.5
v 2 11 1.5
v 3 11 1.5
v 4 11 1.5
v -4 11 0.5
v -3 11 0.5
v 3 11 0.5
v 4 11 0.5
v -3 11 -0.5
v -2 11 -0.5
v 2 11 -0.5
v 3 11 -0.5
v -2 11 -1.5
v 2 11 -1.5

# faces
f 4/2/1 2/2/1 1/2/1
f 5/2/1 2/2/1 4/2/1
f 5/2/1 4/2/1 3/2/1
f 6/2/1 2/2/1 5/2/1
f 7/2/1 5/2/1 3/2/1
f 8/2/1 5/2/1 7/2/1
f 11/1/1 10/1/1 9/1/1
f 12/1/1 10/1/1 11/1/1
f 14/3/1 12/3/1 11/3/1
f 17/3/1 12/3/1 14/3/1
f 18/2/1 16/2/1 15/2/1
f 19/2/1 16/2/1 18/2/1
f 20/9/1 14/9/1 13/9/1
f 21/3/1 17/3/1 14/3/1
f 21/9/1 14/9/1 20/9/1
f 22/3/1 17/3/1 21/3/1
f 23/9/1 19/9/1 18/9/1
f 24/9/1 19/9/1 23/9/1
f 26/9/1 22/9/1 21/9/1
f 27/9/1 22/9/1 26/9/1
f 28/9/1 26/9/1 25/9/1
f 29/9/1 26/9/1 28/9/1
f 34/9/1 33/9/1 32/9/1
f 35/9/1 33/9/1 34/9/1
f 36/9/1 31/9/1 30/9/1
f 37/9/1 31/9/1 36/9/1
f 38/2/1 36/2/1 35/2/1
f 39/2/1 36/2/1 38/2/1
f 43/4/1 41/4/1 40/4/1
f 44/4/1 41/4/1 43/4/1
f 45/4/1 41/4/1 44/4/1
f 46/4/1 41/4/1 45/4/1
f 48/4/1 43/4/1 42/4/1
f 48/4/1 44/4/1 43/4/1
f 49/4/1 47/4/1 46/4/1
f 49/4/1 46/4/1 45/4/1
f 50/4/1 48/4/1 42/4/1
f 51/4/1 48/4/1 50/4/1
f 52/4/1 47/4/1 49/4/1
f 53/4/1 47/4/1 52/4/1
f 54/4/1 52/4/1 49/4/1
f 55/4/1 52/4/1 54/4/1
f 56/4/1 50/4/1 42/4/1
f 57/4/1 50/4/1 56/4/1
f 61/5/1 58/5/1 57/5/1
f 62/5/1 58/5/1 61/5/1
f 65/5/1 64/5/1 63/5/1
f 66/5/1 64/5/1 65/5/1
f 70/9/1 60/9/1 59/9/1
f 71/9/1 60/9/1 70/9/1
f 72/9/1 68/9/1 67/9/1
f 73/9/1 68/9/1 72/9/1
f 74/9/1 70/9/1 69/9/1
f 75/9/1 70/9/1 74/9/1
f 78/8/1 77/8/1 76/8/1
f 79/8/1 77/8/1 78/8/1
f 82/9/1 81/9/1 80/9/1
f 83/9/1 81/9/1 82/9/1
f 84/9/1 81/9/1 83/9/1
f 86/9/1 83/9/1 82/9/1
f 87/9/1 83/9/1 86/9/1
f 88/9/1 86/9/1 85/9/1
f 89/9/1 86/9/1 88/9/1
f 92/9/1 91/9/1 90/9/1
f 93/9/1 91/9/1 92/9/1
f 96/8/1 95/8/1 94/8/1
f 97/8/1 95/8/1 96/8/1
f 99/9/1 97/9/1 96/9/1
f 99/9/1 98/9/1 97/9/1
f 100/9/1 98/9/1 99/9/1
f 105/4/1 102/4/1 101/4/1
f 106/4/1 102/4/1 105/4/1
f 107/9/1 104/9/1 103/9/1
f 108/9/1 104/9/1 107/9/1
f 111/9/1 110/9/1 109/9/1
f 112/9/1 110/9/1 111/9/1
f 113/9/2 114/9/2 115/9/2
f 115/9/2 114/9/2 116/9/2
f 117/8/2 118/8/2 119/8/2
f 119/8/2 118/8/2 120/8/2
f 119/9/2 120/9/2 122/9/2
f 120/9/2 121/9/2 122/9/2
f 122/9/2 121/9/2 123/9/2
f 124/4/2 125/4/2 128/4/2
f 128/4/2 125/4/2 129/4/2
f 126/9/2 127/9/2 130/9/2
f 130/9/2 127/9/2 131/9/2
f 132/9/2 133/9/2 134/9/2
f 134/9/2 133/9/2 135/9/2
f 136/8/2 137/8/2 138/8/2
f 138/8/2 137/8/2 139/8/2
f 140/9/2 141/9/2 142/9/2
f 142/9/2 141/9/2 143/9/2
f 143/9/2 141/9/2 144/9/2
f 142/9/2 143/9/2 146/9/2
f 146/9/2 143/9/2 147/9/2
f 145/9/2 146/9/2 148/9/2
f 148/9/2 146/9/2 149/9/2
f 150/4/2 151/4/2 153/4/2
f 153/4/2 151/4/2 154/4/2
f 154/4/2 151/4/2 155/4/2
f 155/4/2 151/4/2 156/4/2
f 152/4/2 153/4/2 158/4/2
f 153/4/2 154/4/2 158/4/2
f 156/4/2 157/4/2 159/4/2
f 155/4/2 156/4/2 159/4/2
f 152/4/2 158/4/2 160/4/2
f 160/4/2 158/4/2 161/4/2
f 159/4/2 157/4/2 162/4/2
f 162/4/2 157/4/2 163/4/2
f 159/4/2 162/4/2 164/4/2
f 164/4/2 162/4/2 165/4/2
f 152/4/2 160/4/2 166/4/2
f 166/4/2 160/4/2 167/4/2
f 167/5/2 168/5/2 171/5/2
f 171/5/2 168/5/2 172/5/2
f 173/5/2 174/5/2 175/5/2
f 175/5/2 174/5/2 176/5/2
f 169/9/2 170/9/2 180/9/2
f 180/9/2 170/9/2 181/9/2
f 177/9/2 178/9/2 182/9/2
f 182/9/2 178/9/2 183/9/2
f 179/9/2 180/9/2 184/9/2
f 184/9/2 180/9/2 185/9/2
f 186/1/2 187/1/2 188/1/2
f 188/1/2 187/1/2 189/1/2
f 188/3/2 189/3/2 191/3/2
f 191/3/2 189/3/2 194/3/2
f 192/2/2 193/2/2 195/2/2
f 195/2/2 193/2/2 196/2/2
f 190/9/2 191/9/2 197/9/2
f 191/3/2 194/3/2 198/3/2
f 197/9/2 191/9/2 198/9/2
f 198/3/2 194/3/2 199/3/2
f 195/9/2 196/9/2 200/9/2
f 200/9/2 196/9/2 201/9/2
f 198/9/2 199/9/2 203/9/2
f 203/9/2 199/9/2 204/9/2
f 202/9/2 203/9/2 205/9/2
f 205/9/2 203/9/2 206/9/2
f 209/9/2 210/9/2 211/9/2
f 211/9/2 210/9/2 212/9/2
f 207/9/2 208/9/2 213/9/2
f 213/9/2 208/9/2 214/9/2
f 212/2/2 213/2/2 215/2/2
f 215/2/2 213/2/2 216/2/2
f 217/2/2 218/2/2 220/2/2
f 220/2/2 218/2/2 221/2/2
f 219/2/2 220/2/2 221/2/2
f 221/2/2 218/2/2 222/2/2
f 219/2/2 221/2/2 223/2/2
f 223/2/2 221/2/2 224/2/2
f 227/4/3 226/4/3 225/4/3
f 228/4/3 226/4/3 227/4/3
f 229/4/3 227/4/3 225/4/3
f 231/4/3 229/4/3 225/4/3
f 231/4/3 230/4/3 229/4/3
f 232/4/3 230/4/3 231/4/3
f 241/9/3 234/9/3 233/9/3
f 242/9/3 234/9/3 241/9/3
f 243/9/3 236/9/3 235/9/3
f 244/9/3 236/9/3 243/9/3
f 245/9/3 238/9/3 237/9/3
f 246/9/3 238/9/3 245/9/3
f 248/5/3 244/5/3 243/5/3
f 248/5/3 246/5/3 245/5/3
f 248/5/3 245/5/3 244/5/3
f 248/5/3 243/5/3 242/5/3
f 249/5/3 246/5/3 248/5/3
f 250/5/3 246/5/3 249/5/3
f 251/5/3 246/5/3 250/5/3
f 252/9/3 247/9/3 246/9/3
f 252/5/3 246/5/3 251/5/3
f 253/9/3 247/9/3 252/9/3
f 255/7/3 249/7/3 248/7/3
f 256/9/3 250/9/3 249/9/3
f 256/7/3 249/7/3 255/7/3
f 257/7/3 251/7/3 250/7/3
f 257/9/3 250/9/3 256/9/3
f 258/5/3 252/5/3 251/5/3
f 258/7/3 251/7/3 257/7/3
f 259/5/3 256/5/3 255/5/3
f 259/5/3 255/5/3 254/5/3
f 259/5/3 258/5/3 257/5/3
f 259/5/3 257/5/3 256/5/3
f 260/5/3 258/5/3 259/5/3
f 261/5/3 258/5/3 260/5/3
f 262/5/3 258/5/3 261/5/3
f 263/5/3 252/5/3 258/5/3
f 263/5/3 258/5/3 262/5/3
f 264/7/3 261/7/3 260/7/3
f 265/9/3 262/9/3 261/9/3
f 265/7/3 261/7/3 264/7/3
f 266/7/3 263/7/3 262/7/3
f 266/9/3 262/9/3 265/9/3
f 267/5/3 252/5/3 263/5/3
f 267/7/3 263/7/3 266/7/3
f 268/5/3 252/5/3 267/5/3
f 270/4/3 240/4/3 239/4/3
f 271/4/3 240/4/3 270/4/3
f 273/5/3 266/5/3 265/5/3
f 273/5/3 265/5/3 264/5/3
f 273/5/3 267/5/3 266/5/3
f 273/5/3 268/5/3 267/5/3
f 274/5/3 268/5/3 273/5/3
f 275/5/3 268/5/3 274/5/3
f 276/5/3 268/5/3 275/5/3
f 277/9/3 269/9/3 268/9/3
f 277/5/3 268/5/3 276/5/3
f 278/9/3 269/9/3 277/9/3
f 279/9/3 273/9/3 272/9/3
f 280/9/3 273/9/3 279/9/3
f 281/9/3 275/9/3 274/9/3
f 282/9/3 275/9/3 281/9/3
f 283/9/3 277/9/3 276/9/3
f 284/9/3 277/9/3 283/9/3
f 291/2/3 286/2/3 285/2/3
f 292/2/3 286/2/3 291/2/3
f 293/2/3 286/2/3 292/2/3
f 294/2/3 286/2/3 293/2/3
f 296/1/3 288/1/3 287/1/3
f 297/3/3 289/3/3 288/3/3
f 297/1/3 288/1/3 296/1/3
f 298/3/3 289/3/3 297/3/3
f 299/9/3 291/9/3 290/9/3
f 300/9/3 291/9/3 299/9/3
f 301/9/3 293/9/3 292/9/3
f 302/9/3 293/9/3 301/9/3
f 303/2/3 295/2/3 294/2/3
f 304/2/3 295/2/3 303/2/3
f 309/8/3 306/8/3 305/8/3
f 310/8/3 306/8/3 309/8/3
f 313/8/3 312/8/3 311/8/3
f 314/8/3 312/8/3 313/8/3
f 315/9/3 308/9/3 307/9/3
f 316/9/3 308/9/3 315/9/3
f 326/1/3 318/1/3 317/1/3
f 327/3/3 319/3/3 318/3/3
f 327/1/3 318/1/3 326/1/3
f 328/3/3 319/3/3 327/3/3
f 329/9/3 321/9/3 320/9/3
f 330/9/3 321/9/3 329/9/3
f 331/9/3 323/9/3 322/9/3
f 332/9/3 323/9/3 331/9/3
f 333/2/3 325/2/3 324/2/3
f 334/2/3 325/2/3 333/2/3
f 335/2/3 332/2/3 331/2/3
f 335/2/3 333/2/3 332/2/3
f 335/2/3 331/2/3 330/2/3
f 336/2/3 333/2/3 335/2/3
f 339/2/3 338/2/3 337/2/3
f 340/2/3 338/2/3 339/2/3
f 341/2/3 338/2/3 340/2/3
f 345/2/3 343/2/3 342/2/3
f 345/2/3 344/2/3 343/2/3
f 346/2/3 344/2/3 345/2/3
f 349/2/3 348/2/3 347/2/3
f 350/2/3 348/2/3 349/2/3
f 353/2/3 352/2/3 351/2/3
f 354/2/3 352/2/3 353/2/3
f 355/4/4 356/4/4 357/4/4
f 357/4/4 356/4/4 358/4/4
f 359/2/4 360/2/4 364/2/4
f 364/2/4 360/2/4 365/2/4
f 361/1/4 362/1/4 367/1/4
f 362/3/4 363/3/4 368/3/4
f 367/1/4 362/1/4 368/1/4
f 368/3/4 363/3/4 369/3/4
f 365/2/4 366/2/4 370/2/4
f 370/2/4 366/2/4 371/2/4
f 372/8/4 373/8/4 374/8/4
f 374/8/4 373/8/4 375/8/4
f 376/8/4 377/8/4 378/8/4
f 378/8/4 377/8/4 379/8/4
f 380/1/4 381/1/4 385/1/4
f 381/3/4 382/3/4 386/3/4
f 385/1/4 381/1/4 386/1/4
f 386/3/4 382/3/4 387/3/4
f 383/2/4 384/2/4 389/2/4
f 389/2/4 384/2/4 390/2/4
f 388/2/4 389/2/4 391/2/4
f 391/2/4 389/2/4 392/2/4
f 393/2/4 394/2/4 395/2/4
f 395/2/4 394/2/4 396/2/4
f 396/2/4 394/2/4 397/2/4
f 397/9/4 398/9/4 401/9/4
f 396/9/4 397/9/4 401/9/4
f 401/9/4 398/9/4 402/9/4
f 399/4/4 400/4/4 404/4/4
f 404/4/4 400/4/4 405/4/4
f 402/9/4 403/9/4 406/9/4
f 406/9/4 403/9/4 407/9/4
f 404/9/4 405/9/4 408/9/4
f 408/9/4 405/9/4 409/9/4
f 410/9/4 411/9/4 412/9/4
f 412/9/4 411/9/4 413/9/4
f 412/4/4 413/4/4 416/4/4
f 416/4/4 413/4/4 417/4/4
f 414/9/4 415/9/4 419/9/4
f 419/9/4 415/9/4 420/9/4
f 418/9/4 419/9/4 422/9/4
f 422/9/4 419/9/4 423/9/4
f 423/9/4 419/9/4 424/9/4
f 421/2/4 422/2/4 425/2/4
f 422/2/4 423/2/4 425/2/4
f 425/2/4 423/2/4 426/2/4
f 427/2/4 428/2/4 431/2/4
f 428/9/4 429/9/4 432/9/4
f 431/2/4 428/2/4 432/2/4
f 432/9/4 429/9/4 433/9/4
f 430/4/4 431/4/4 435/4/4
f 431/4/4 432/4/4 435/4/4
f 432/4/4 433/4/4 435/4/4
f 433/9/4 434/9/4 436/9/4
f 435/4/4 433/4/4 436/4/4
f 436/9/4 434/9/4 437/9/4
f 430/4/4 435/4/4 439/4/4
f 430/4/4 439/4/4 441/4/4
f 439/4/4 440/4/4 441/4/4
f 441/4/4 440/4/4 442/4/4
f 430/4/4 441/4/4 443/4/4
f 437/9/4 438/9/4 445/9/4
f 445/9/4 438/9/4 446/9/4
f 443/4/4 444/4/4 447/4/4
f 430/4/4 443/4/4 447/4/4
f 447/4/4 444/4/4 448/4/4
f 448/4/4 444/4/4 449/4/4
f 444/9/4 445/9/4 450/9/4
f 449/4/4 444/4/4 450/4/4
f 450/9/4 445/9/4 451/9/4
f 448/2/4 449/2/4 452/2/4
f 449/9/4 450/9/4 453/9/4
f 452/2/4 449/2/4 453/2/4
f 453/9/4 450/9/4 454/9/4
f 455/9/4 456/9/4 457/9/4
f 457/9/4 456/9/4 458/9/4
f 458/9/4 456/9/4 460/9/4
f 459/9/4 460/9/4 461/9/4
f 460/9/4 456/9/4 462/9/4
f 461/9/4 460/9/4 462/9/4
f 463/9/4 464/9/4 465/9/4
f 465/9/4 464/9/4 466/9/4
f 466/9/4 464/9/4 467/9/4
f 467/9/4 468/9/4 470/9/4
f 466/9/4 467/9/4 470/9/4
f 470/9/4 468/9/4 471/9/4
f 471/9/4 468/9/4 472/9/4
f 469/9/4 470/9/4 473/9/4
f 470/9/4 471/9/4 473/9/4
f 473/9/4 471/9/4 474/9/4
f 479/8/5 476/8/5 475/8/5
f 480/8/5 476/8/5 479/8/5
f 481/8/5 478/8/5 477/8/5
f 482/8/5 478/8/5 481/8/5
f 485/4/5 484/4/5 483/4/5
f 486/4/5 484/4/5 485/4/5
f 487/4/5 484/4/5 486/4/5
f 488/4/5 484/4/5 487/4/5
f 489/4/5 485/4/5 483/4/5
f 492/4/5 484/4/5 488/4/5
f 493/4/5 489/4/5 483/4/5
f 494/9/5 490/9/5 489/9/5
f 494/4/5 489/4/5 493/4/5
f 495/9/5 490/9/5 494/9/5
f 496/9/5 492/9/5 491/9/5
f 497/4/5 484/4/5 492/4/5
f 497/9/5 492/9/5 496/9/5
f 498/4/5 484/4/5 497/4/5
f 501/4/5 500/4/5 499/4/5
f 502/4/5 500/4/5 501/4/5
f 509/1/5 504/1/5 503/1/5
f 510/1/5 504/1/5 509/1/5
f 511/1/5 508/1/5 507/1/5
f 512/1/5 508/1/5 511/1/5
f 515/9/5 506/9/5 505/9/5
f 516/9/5 506/9/5 515/9/5
f 519/4/5 514/4/5 513/4/5
f 519/4/5 518/4/5 517/4/5
f 519/4/5 517/4/5 516/4/5
f 519/4/5 516/4/5 515/4/5
f 519/4/5 515/4/5 514/4/5
f 520/4/5 518/4/5 519/4/5
f 525/9/5 522/9/5 521/9/5
f 526/9/5 522/9/5 525/9/5
f 527/9/5 524/9/5 523/9/5
f 528/9/5 524/9/5 527/9/5
f 533/2/5 530/2/5 529/2/5
f 534/2/5 530/2/5 533/2/5
f 535/2/5 532/2/5 531/2/5
f 536/2/5 532/2/5 535/2/5
f 543/2/5 538/2/5 537/2/5
f 544/9/5 539/9/5 538/9/5
f 544/2/5 538/2/5 543/2/5
f 545/9/5 539/9/5 544/9/5
f 546/9/5 541/9/5 540/9/5
f 547/2/5 542/2/5 541/2/5
f 547/9/5 541/9/5 546/9/5
f 548/2/5 542/2/5 547/2/5
f 553/9/5 550/9/5 549/9/5
f 554/9/5 550/9/5 553/9/5
f 555/9/5 552/9/5 551/9/5
f 556/9/5 552/9/5 555/9/5
f 559/9/5 558/9/5 557/9/5
f 560/9/5 558/9/5 559/9/5
f 566/9/5 562/9/5 561/9/5
f 567/9/5 562/9/5 566/9/5
f 568/9/5 564/9/5 563/9/5
f 569/9/5 564/9/5 568/9/5
f 571/2/5 566/2/5 565/2/5
f 572/2/5 566/2/5 571/2/5
f 573/2/5 570/2/5 569/2/5
f 574/2/5 570/2/5 573/2/5
f 579/9/5 576/9/5 575/9/5
f 580/9/5 576/9/5 579/9/5
f 581/9/5 578/9/5 577/9/5
f 582/9/5 578/9/5 581/9/5
f 583/4/6 584/4/6 585/4/6
f 585/4/6 584/4/6 586/4/6
f 587/4/6 588/4/6 592/4/6
f 592/4/6 588/4/6 593/4/6
f 593/4/6 588/4/6 594/4/6
f 589/4/6 590/4/6 595/4/6
f 595/4/6 590/4/6 596/4/6
f 596/4/6 590/4/6 597/4/6
f 591/9/6 592/9/6 599/9/6
f 599/9/6 592/9/6 600/9/6
f 597/9/6 598/9/6 601/9/6
f 601/9/6 598/9/6 602/9/6
f 603/9/6 604/9/6 607/9/6
f 607/9/6 604/9/6 608/9/6
f 605/9/6 606/9/6 609/9/6
f 609/9/6 606/9/6 610/9/6
f 611/9/6 612/9/6 615/9/6
f 615/9/6 612/9/6 616/9/6
f 613/9/6 614/9/6 617/9/6
f 617/9/6 614/9/6 618/9/6
f 619/9/6 620/9/6 623/9/6
f 623/9/6 620/9/6 624/9/6
f 621/9/6 622/9/6 625/9/6
f 625/9/6 622/9/6 626/9/6
f 627/2/6 628/2/6 631/2/6
f 631/2/6 628/2/6 632/2/6
f 629/2/6 630/2/6 633/2/6
f 633/2/6 630/2/6 634/2/6
f 635/9/6 636/9/6 637/9/6
f 637/9/6 636/9/6 638/9/6
f 639/9/6 640/9/6 646/9/6
f 646/9/6 640/9/6 647/9/6
f 641/5/6 642/5/6 648/5/6
f 648/5/6 642/5/6 649/5/6
f 643/9/6 644/9/6 650/9/6
f 650/9/6 644/9/6 651/9/6
f 645/2/6 646/2/6 653/2/6
f 653/2/6 646/2/6 654/2/6
f 651/2/6 652/2/6 657/2/6
f 657/2/6 652/2/6 658/2/6
f 654/9/6 655/9/6 659/9/6
f 659/9/6 655/9/6 660/9/6
f 656/9/6 657/9/6 663/9/6
f 663/9/6 657/9/6 664/9/6
f 660/9/6 661/9/6 665/9/6
f 665/9/6 661/9/6 666/9/6
f 662/9/6 663/9/6 667/9/6
f 667/9/6 663/9/6 668/9/6
f 666/9/6 667/9/6 669/9/6
f 669/9/6 667/9/6 670/9/6
f 671/9/6 672/9/6 676/9/6
f 676/9/6 672/9/6 677/9/6
f 673/9/6 674/9/6 678/9/6
f 678/9/6 674/9/6 679/9/6
f 675/2/6 676/2/6 681/2/6
f 676/9/6 677/9/6 682/9/6
f 681/2/6 676/2/6 682/2/6
f 677/9/6 678/9/6 682/9/6
f 678/9/6 679/9/6 682/9/6
f 679/2/6 680/2/6 683/2/6
f 682/9/6 679/9/6 683/9/6
f 683/2/6 680/2/6 684/2/6
f 682/9/6 683/9/6 685/9/6
f 685/9/6 683/9/6 686/9/6
f 686/9/6 683/9/6 687/9/6
f 687/9/6 683/9/6 688/9/6
f 686/9/6 687/9/6 689/9/6
f 689/9/6 687/9/6 690/9/6
