# MagicaVoxel @ Ephtracy

# material
mtllib chr_lady2.mtl
usemtl palette

# normals
vn -1 0 0
vn 1 0 0
vn 0 0 1
vn 0 0 -1
vn 0 -1 0
vn 0 1 0

# texcoords
vt 0.0332031 0.5
vt 0.0605469 0.5
vt 0.587891 0.5
vt 0.982422 0.5
vt 0.986328 0.5
vt 0.990234 0.5
vt 0.994141 0.5

# verts
v -4 2 0.5
v -4 2 -0.5
v -4 5 0.5
v -4 5 -0.5
v -4 6 0.5
v -4 6 -0.5
v -4 7 0.5
v -4 7 -0.5
v -4 8 0.5
v -4 8 -0.5
v -3 1 1.5
v -3 1 -1.5
v -3 2 2.5
v -3 2 1.5
v -3 2 0.5
v -3 2 -0.5
v -3 2 -1.5
v -3 2 -2.5
v -3 3 2.5
v -3 3 0.5
v -3 3 -0.5
v -3 3 -2.5
v -3 5 0.5
v -3 5 -0.5
v -3 6 2.5
v -3 6 1.5
v -3 6 0.5
v -3 6 -0.5
v -3 6 -1.5
v -3 6 -2.5
v -3 7 0.5
v -3 7 -0.5
v -3 7 -1.5
v -3 8 0.5
v -3 8 -0.5
v -3 9 1.5
v -3 9 0.5
v -3 10 1.5
v -3 10 -1.5
v -3 11 1.5
v -3 11 -1.5
v -2 0 0.5
v -2 0 -0.5
v -2 1 0.5
v -2 1 -0.5
v -2 6 -1.5
v -2 6 -2.5
v -2 7 -1.5
v -2 7 -2.5
v -2 7 -3.5
v -2 10 -1.5
v -2 10 -2.5
v -2 10 -3.5
v -2 11 -1.5
v -2 11 -2.5
v -1 6 -2.5
v -1 6 -3.5
v -1 7 -2.5
v -1 7 -3.5
v 0 5 -2.5
v 0 5 -3.5
v 0 6 -2.5
v 0 6 -3.5
v 1 0 0.5
v 1 0 -0.5
v 1 1 1.5
v 1 1 0.5
v 1 1 -0.5
v 1 1 -1.5
v 1 2 1.5
v 1 2 -1.5
v 1 5 2.5
v 1 5 1.5
v 1 6 2.5
v 1 6 1.5
v 1 10 1.5
v 1 10 0.5
v 1 11 1.5
v 1 11 0.5
v 3 6 2.5
v 3 6 1.5
v 3 7 2.5
v 3 7 1.5
v -1 0 0.5
v -1 0 -0.5
v -1 1 1.5
v -1 1 0.5
v -1 1 -0.5
v -1 1 -1.5
v -1 2 1.5
v -1 2 -1.5
v -1 5 2.5
v -1 5 1.5
v -1 6 2.5
v -1 6 1.5
v -1 10 1.5
v -1 10 0.5
v -1 11 1.5
v -1 11 0.5
v 2 0 0.5
v 2 0 -0.5
v 2 1 0.5
v 2 1 -0.5
v 2 6 -2.5
v 2 6 -3.5
v 2 10 -1.5
v 2 10 -2.5
v 2 10 -3.5
v 2 11 -1.5
v 2 11 -2.5
v 3 1 1.5
v 3 1 -1.5
v 3 2 2.5
v 3 2 1.5
v 3 2 0.5
v 3 2 -0.5
v 3 2 -1.5
v 3 2 -2.5
v 3 3 2.5
v 3 3 0.5
v 3 3 -0.5
v 3 3 -2.5
v 3 4 1.5
v 3 4 0.5
v 3 5 -0.5
v 3 5 -2.5
v 3 5 -3.5
v 3 6 2.5
v 3 6 1.5
v 3 6 0.5
v 3 6 -0.5
v 3 6 -1.5
v 3 6 -2.5
v 3 6 -3.5
v 3 7 0.5
v 3 7 -0.5
v 3 10 1.5
v 3 10 -1.5
v 3 10 -2.5
v 3 11 1.5
v 3 11 -1.5
v 4 2 0.5
v 4 2 -0.5
v 4 4 1.5
v 4 4 0.5
v 4 5 0.5
v 4 5 -0.5
v 4 5 -1.5
v 4 5 -2.5
v 4 6 2.5
v 4 6 1.5
v 4 6 0.5
v 4 6 -0.5
v 4 6 -1.5
v 4 6 -2.5
v 4 7 2.5
v 4 7 1.5
v 4 7 0.5
v 4 7 -0.5
v 4 8 0.5
v 4 8 -0.5
v 4 10 1.5
v 4 10 -1.5
v 5 5 -0.5
v 5 5 -1.5
v 5 6 -0.5
v 5 6 -1.5
v -3 2 2.5
v -3 3 2.5
v -3 6 2.5
v -1 5 2.5
v -1 6 2.5
v 1 5 2.5
v 1 6 2.5
v 3 2 2.5
v 3 3 2.5
v 3 6 2.5
v 3 7 2.5
v 4 6 2.5
v 4 7 2.5
v -3 1 1.5
v -3 2 1.5
v -3 6 1.5
v -3 9 1.5
v -3 10 1.5
v -3 11 1.5
v -2 7 1.5
v -2 8 1.5
v -2 9 1.5
v -2 10 1.5
v -1 1 1.5
v -1 2 1.5
v -1 5 1.5
v -1 6 1.5
v -1 7 1.5
v -1 8 1.5
v -1 10 1.5
v -1 11 1.5
v 1 1 1.5
v 1 2 1.5
v 1 5 1.5
v 1 6 1.5
v 1 7 1.5
v 1 8 1.5
v 1 10 1.5
v 1 11 1.5
v 2 7 1.5
v 2 8 1.5
v 2 9 1.5
v 2 10 1.5
v 3 1 1.5
v 3 2 1.5
v 3 4 1.5
v 3 6 1.5
v 3 7 1.5
v 3 9 1.5
v 3 10 1.5
v 3 11 1.5
v 4 4 1.5
v 4 6 1.5
v 4 7 1.5
v 4 10 1.5
v -4 2 0.5
v -4 5 0.5
v -4 6 0.5
v -4 7 0.5
v -4 8 0.5
v -3 2 0.5
v -3 3 0.5
v -3 5 0.5
v -3 6 0.5
v -3 7 0.5
v -3 8 0.5
v -2 0 0.5
v -2 1 0.5
v -1 0 0.5
v -1 1 0.5
v -1 10 0.5
v -1 11 0.5
v 1 0 0.5
v 1 1 0.5
v 1 10 0.5
v 1 11 0.5
v 2 0 0.5
v 2 1 0.5
v 3 2 0.5
v 3 3 0.5
v 3 4 0.5
v 4 2 0.5
v 4 4 0.5
v 3 6 -0.5
v 3 7 -0.5
v 4 5 -0.5
v 4 6 -0.5
v 4 7 -0.5
v 5 5 -0.5
v 5 6 -0.5
v 3 6 0.5
v 3 7 0.5
v 4 6 0.5
v 4 7 0.5
v -4 2 -0.5
v -4 5 -0.5
v -4 6 -0.5
v -4 7 -0.5
v -4 8 -0.5
v -3 2 -0.5
v -3 3 -0.5
v -3 5 -0.5
v -3 6 -0.5
v -3 7 -0.5
v -3 8 -0.5
v -2 0 -0.5
v -2 1 -0.5
v -1 0 -0.5
v -1 1 -0.5
v 1 0 -0.5
v 1 1 -0.5
v 2 0 -0.5
v 2 1 -0.5
v 3 2 -0.5
v 3 3 -0.5
v 3 5 -0.5
v 4 2 -0.5
v 4 5 -0.5
v -3 1 -1.5
v -3 2 -1.5
v -3 6 -1.5
v -3 7 -1.5
v -3 10 -1.5
v -3 11 -1.5
v -2 6 -1.5
v -2 7 -1.5
v -2 10 -1.5
v -2 11 -1.5
v -1 1 -1.5
v -1 2 -1.5
v 1 1 -1.5
v 1 2 -1.5
v 2 10 -1.5
v 2 11 -1.5
v 3 1 -1.5
v 3 2 -1.5
v 3 6 -1.5
v 3 10 -1.5
v 3 11 -1.5
v 4 5 -1.5
v 4 6 -1.5
v 4 10 -1.5
v 5 5 -1.5
v 5 6 -1.5
v -3 2 -2.5
v -3 3 -2.5
v -3 6 -2.5
v -2 6 -2.5
v -2 7 -2.5
v -2 10 -2.5
v -2 11 -2.5
v -1 6 -2.5
v -1 7 -2.5
v 0 5 -2.5
v 0 6 -2.5
v 2 6 -2.5
v 2 10 -2.5
v 2 11 -2.5
v 3 2 -2.5
v 3 3 -2.5
v 3 5 -2.5
v 3 6 -2.5
v 3 10 -2.5
v 4 5 -2.5
v 4 6 -2.5
v -2 7 -3.5
v -2 10 -3.5
v -1 6 -3.5
v -1 7 -3.5
v 0 5 -3.5
v 0 6 -3.5
v 2 6 -3.5
v 2 10 -3.5
v 3 5 -3.5
v 3 6 -3.5
v -2 0 0.5
v -1 0 0.5
v 1 0 0.5
v 2 0 0.5
v -2 0 -0.5
v -1 0 -0.5
v 1 0 -0.5
v 2 0 -0.5
v -3 1 1.5
v -1 1 1.5
v 1 1 1.5
v 3 1 1.5
v -2 1 0.5
v -1 1 0.5
v 1 1 0.5
v 2 1 0.5
v -2 1 -0.5
v -1 1 -0.5
v 1 1 -0.5
v 2 1 -0.5
v -3 1 -1.5
v -1 1 -1.5
v 1 1 -1.5
v 3 1 -1.5
v -3 2 2.5
v 3 2 2.5
v -3 2 1.5
v -1 2 1.5
v 1 2 1.5
v 3 2 1.5
v -4 2 0.5
v -3 2 0.5
v 3 2 0.5
v 4 2 0.5
v -4 2 -0.5
v -3 2 -0.5
v 3 2 -0.5
v 4 2 -0.5
v -3 2 -1.5
v -1 2 -1.5
v 1 2 -1.5
v 3 2 -1.5
v -3 2 -2.5
v 3 2 -2.5
v 3 4 1.5
v 4 4 1.5
v 3 4 0.5
v 4 4 0.5
v 3 5 -0.5
v 4 5 -0.5
v 5 5 -0.5
v 4 5 -1.5
v 5 5 -1.5
v 0 5 -2.5
v 3 5 -2.5
v 4 5 -2.5
v 0 5 -3.5
v 3 5 -3.5
v 3 6 2.5
v 4 6 2.5
v 3 6 1.5
v 4 6 1.5
v -1 6 -2.5
v 0 6 -2.5
v -1 6 -3.5
v 0 6 -3.5
v -4 7 0.5
v -3 7 0.5
v 3 7 0.5
v 4 7 0.5
v -4 7 -0.5
v -3 7 -0.5
v 3 7 -0.5
v 4 7 -0.5
v -2 7 -2.5
v -1 7 -2.5
v -2 7 -3.5
v -1 7 -3.5
v -1 5 2.5
v 1 5 2.5
v -1 5 1.5
v 1 5 1.5
v -3 6 2.5
v -1 6 2.5
v 1 6 2.5
v 3 6 2.5
v -3 6 1.5
v -1 6 1.5
v 1 6 1.5
v 3 6 1.5
v -4 6 0.5
v -3 6 0.5
v 3 6 0.5
v 4 6 0.5
v -4 6 -0.5
v -3 6 -0.5
v 3 6 -0.5
v 4 6 -0.5
v 5 6 -0.5
v -3 6 -1.5
v -2 6 -1.5
v 3 6 -1.5
v 4 6 -1.5
v 5 6 -1.5
v -3 6 -2.5
v -2 6 -2.5
v 2 6 -2.5
v 3 6 -2.5
v 4 6 -2.5
v 2 6 -3.5
v 3 6 -3.5
v 3 7 2.5
v 4 7 2.5
v 3 7 1.5
v 4 7 1.5
v -4 8 0.5
v -3 8 0.5
v -4 8 -0.5
v -3 8 -0.5
v -1 10 1.5
v 1 10 1.5
v 3 10 1.5
v 4 10 1.5
v -1 10 0.5
v 1 10 0.5
v 2 10 -1.5
v 3 10 -1.5
v 4 10 -1.5
v -2 10 -2.5
v 2 10 -2.5
v 3 10 -2.5
v -2 10 -3.5
v 2 10 -3.5
v -3 11 1.5
v -1 11 1.5
v 1 11 1.5
v 3 11 1.5
v -1 11 0.5
v 1 11 0.5
v -3 11 -1.5
v -2 11 -1.5
v 2 11 -1.5
v 3 11 -1.5
v -2 11 -2.5
v 2 11 -2.5

# faces
f 3/1/1 2/1/1 1/1/1
f 4/1/1 2/1/1 3/1/1
f 5/3/1 4/3/1 3/3/1
f 6/3/1 4/3/1 5/3/1
f 9/2/1 8/2/1 7/2/1
f 10/2/1 8/2/1 9/2/1
f 14/4/1 12/4/1 11/4/1
f 15/4/1 12/4/1 14/4/1
f 16/4/1 12/4/1 15/4/1
f 17/4/1 12/4/1 16/4/1
f 19/4/1 14/4/1 13/4/1
f 19/4/1 15/4/1 14/4/1
f 20/4/1 15/4/1 19/4/1
f 21/4/1 18/4/1 17/4/1
f 21/4/1 17/4/1 16/4/1
f 22/4/1 18/4/1 21/4/1
f 23/3/1 20/3/1 19/3/1
f 24/3/1 22/3/1 21/3/1
f 25/3/1 23/3/1 19/3/1
f 26/3/1 23/3/1 25/3/1
f 27/3/1 23/3/1 26/3/1
f 28/3/1 22/3/1 24/3/1
f 29/3/1 22/3/1 28/3/1
f 30/3/1 22/3/1 29/3/1
f 31/1/1 27/1/1 26/1/1
f 31/1/1 29/1/1 28/1/1
f 31/1/1 28/1/1 27/1/1
f 32/1/1 29/1/1 31/1/1
f 33/1/1 29/1/1 32/1/1
f 34/1/1 31/1/1 26/1/1
f 35/5/1 33/5/1 32/5/1
f 36/1/1 34/1/1 26/1/1
f 37/5/1 35/5/1 34/5/1
f 37/1/1 34/1/1 36/1/1
f 38/5/1 37/5/1 36/5/1
f 39/5/1 33/5/1 35/5/1
f 39/5/1 37/5/1 38/5/1
f 39/5/1 35/5/1 37/5/1
f 40/7/1 39/7/1 38/7/1
f 41/7/1 39/7/1 40/7/1
f 44/6/1 43/6/1 42/6/1
f 45/6/1 43/6/1 44/6/1
f 48/1/1 47/1/1 46/1/1
f 49/1/1 47/1/1 48/1/1
f 51/5/1 49/5/1 48/5/1
f 52/7/1 50/7/1 49/7/1
f 52/5/1 49/5/1 51/5/1
f 53/7/1 50/7/1 52/7/1
f 54/7/1 52/7/1 51/7/1
f 55/7/1 52/7/1 54/7/1
f 58/7/1 57/7/1 56/7/1
f 59/7/1 57/7/1 58/7/1
f 62/7/1 61/7/1 60/7/1
f 63/7/1 61/7/1 62/7/1
f 67/6/1 65/6/1 64/6/1
f 68/6/1 65/6/1 67/6/1
f 70/4/1 67/4/1 66/4/1
f 70/4/1 69/4/1 68/4/1
f 70/4/1 68/4/1 67/4/1
f 71/4/1 69/4/1 70/4/1
f 74/3/1 73/3/1 72/3/1
f 75/3/1 73/3/1 74/3/1
f 78/7/1 77/7/1 76/7/1
f 79/7/1 77/7/1 78/7/1
f 82/7/1 81/7/1 80/7/1
f 83/7/1 81/7/1 82/7/1
f 84/6/2 85/6/2 87/6/2
f 87/6/2 85/6/2 88/6/2
f 86/4/2 87/4/2 90/4/2
f 88/4/2 89/4/2 90/4/2
f 87/4/2 88/4/2 90/4/2
f 90/4/2 89/4/2 91/4/2
f 92/3/2 93/3/2 94/3/2
f 94/3/2 93/3/2 95/3/2
f 96/7/2 97/7/2 98/7/2
f 98/7/2 97/7/2 99/7/2
f 100/6/2 101/6/2 102/6/2
f 102/6/2 101/6/2 103/6/2
f 104/7/2 105/7/2 107/7/2
f 107/7/2 105/7/2 108/7/2
f 106/7/2 107/7/2 109/7/2
f 109/7/2 107/7/2 110/7/2
f 111/4/2 112/4/2 114/4/2
f 114/4/2 112/4/2 115/4/2
f 115/4/2 112/4/2 116/4/2
f 116/4/2 112/4/2 117/4/2
f 113/4/2 114/4/2 119/4/2
f 114/4/2 115/4/2 119/4/2
f 119/4/2 115/4/2 120/4/2
f 117/4/2 118/4/2 121/4/2
f 116/4/2 117/4/2 121/4/2
f 121/4/2 118/4/2 122/4/2
f 119/3/2 120/3/2 123/3/2
f 123/3/2 120/3/2 124/3/2
f 121/3/2 122/3/2 125/3/2
f 125/3/2 122/3/2 126/3/2
f 119/3/2 123/3/2 128/3/2
f 128/3/2 123/3/2 129/3/2
f 126/7/2 127/7/2 133/7/2
f 133/7/2 127/7/2 134/7/2
f 130/1/2 131/1/2 135/1/2
f 135/1/2 131/1/2 136/1/2
f 132/7/2 133/7/2 138/7/2
f 138/7/2 133/7/2 139/7/2
f 137/7/2 138/7/2 140/7/2
f 140/7/2 138/7/2 141/7/2
f 142/1/2 143/1/2 145/1/2
f 145/1/2 143/1/2 146/1/2
f 144/7/2 145/7/2 146/7/2
f 146/1/2 143/1/2 147/1/2
f 144/7/2 146/7/2 151/7/2
f 146/3/2 147/3/2 152/3/2
f 151/7/2 146/7/2 152/7/2
f 152/3/2 147/3/2 153/3/2
f 148/7/2 149/7/2 154/7/2
f 154/7/2 149/7/2 155/7/2
f 150/7/2 151/7/2 156/7/2
f 151/7/2 152/7/2 156/7/2
f 156/7/2 152/7/2 157/7/2
f 157/7/2 152/7/2 158/7/2
f 153/7/2 154/7/2 159/7/2
f 157/7/2 158/7/2 160/7/2
f 158/2/2 159/2/2 160/2/2
f 159/7/2 154/7/2 161/7/2
f 160/2/2 159/2/2 161/2/2
f 157/7/2 160/7/2 162/7/2
f 160/7/2 161/7/2 162/7/2
f 161/7/2 154/7/2 163/7/2
f 162/7/2 161/7/2 163/7/2
f 164/7/2 165/7/2 166/7/2
f 166/7/2 165/7/2 167/7/2
f 171/3/3 170/3/3 169/3/3
f 172/3/3 170/3/3 171/3/3
f 173/3/3 171/3/3 169/3/3
f 175/4/3 169/4/3 168/4/3
f 176/3/3 174/3/3 173/3/3
f 176/4/3 169/4/3 175/4/3
f 176/3/3 173/3/3 169/3/3
f 177/3/3 174/3/3 176/3/3
f 179/7/3 178/7/3 177/7/3
f 180/7/3 178/7/3 179/7/3
f 187/1/3 184/1/3 183/1/3
f 188/1/3 184/1/3 187/1/3
f 189/5/3 185/5/3 184/5/3
f 189/1/3 184/1/3 188/1/3
f 190/7/3 186/7/3 185/7/3
f 190/5/3 185/5/3 189/5/3
f 191/4/3 182/4/3 181/4/3
f 192/4/3 182/4/3 191/4/3
f 194/1/3 187/1/3 183/1/3
f 195/7/3 188/7/3 187/7/3
f 195/1/3 187/1/3 194/1/3
f 196/1/3 189/1/3 188/1/3
f 196/7/3 188/7/3 195/7/3
f 196/1/3 190/1/3 189/1/3
f 197/7/3 186/7/3 190/7/3
f 197/1/3 190/1/3 196/1/3
f 198/7/3 186/7/3 197/7/3
f 201/1/3 196/1/3 195/1/3
f 201/1/3 195/1/3 194/1/3
f 201/1/3 197/1/3 196/1/3
f 201/1/3 194/1/3 193/1/3
f 202/1/3 197/1/3 201/1/3
f 203/1/3 197/1/3 202/1/3
f 204/1/3 197/1/3 203/1/3
f 205/1/3 197/1/3 204/1/3
f 207/1/3 203/1/3 202/1/3
f 207/7/3 204/7/3 203/7/3
f 208/1/3 205/1/3 204/1/3
f 208/7/3 204/7/3 207/7/3
f 209/1/3 205/1/3 208/1/3
f 210/7/3 206/7/3 205/7/3
f 210/1/3 205/1/3 209/1/3
f 211/4/3 200/4/3 199/4/3
f 212/4/3 200/4/3 211/4/3
f 214/1/3 209/1/3 208/1/3
f 214/1/3 207/1/3 202/1/3
f 214/1/3 208/1/3 207/1/3
f 215/1/3 209/1/3 214/1/3
f 216/7/3 210/7/3 209/7/3
f 216/1/3 209/1/3 215/1/3
f 217/7/3 206/7/3 210/7/3
f 217/7/3 210/7/3 216/7/3
f 218/7/3 206/7/3 217/7/3
f 219/7/3 214/7/3 213/7/3
f 220/7/3 214/7/3 219/7/3
f 221/7/3 216/7/3 215/7/3
f 221/7/3 217/7/3 216/7/3
f 222/7/3 217/7/3 221/7/3
f 228/1/3 224/1/3 223/1/3
f 229/1/3 224/1/3 228/1/3
f 230/3/3 225/3/3 224/3/3
f 230/1/3 224/1/3 229/1/3
f 231/3/3 225/3/3 230/3/3
f 232/2/3 227/2/3 226/2/3
f 233/2/3 227/2/3 232/2/3
f 236/6/3 235/6/3 234/6/3
f 237/6/3 235/6/3 236/6/3
f 242/7/3 239/7/3 238/7/3
f 243/7/3 239/7/3 242/7/3
f 244/6/3 241/6/3 240/6/3
f 245/6/3 241/6/3 244/6/3
f 249/1/3 247/1/3 246/1/3
f 249/1/3 248/1/3 247/1/3
f 250/1/3 248/1/3 249/1/3
f 254/7/3 252/7/3 251/7/3
f 255/7/3 252/7/3 254/7/3
f 256/7/3 254/7/3 253/7/3
f 257/7/3 254/7/3 256/7/3
f 258/7/4 259/7/4 260/7/4
f 260/7/4 259/7/4 261/7/4
f 262/1/4 263/1/4 267/1/4
f 267/1/4 263/1/4 268/1/4
f 263/3/4 264/3/4 269/3/4
f 268/1/4 263/1/4 269/1/4
f 269/3/4 264/3/4 270/3/4
f 265/2/4 266/2/4 271/2/4
f 271/2/4 266/2/4 272/2/4
f 273/6/4 274/6/4 275/6/4
f 275/6/4 274/6/4 276/6/4
f 277/6/4 278/6/4 279/6/4
f 279/6/4 278/6/4 280/6/4
f 281/1/4 282/1/4 284/1/4
f 282/1/4 283/1/4 284/1/4
f 284/1/4 283/1/4 285/1/4
f 288/1/4 289/1/4 292/1/4
f 289/5/4 290/5/4 293/5/4
f 292/1/4 289/1/4 293/1/4
f 290/7/4 291/7/4 294/7/4
f 293/5/4 290/5/4 294/5/4
f 294/7/4 291/7/4 295/7/4
f 286/4/4 287/4/4 296/4/4
f 296/4/4 287/4/4 297/4/4
f 298/4/4 299/4/4 302/4/4
f 302/4/4 299/4/4 303/4/4
f 300/7/4 301/7/4 305/7/4
f 305/7/4 301/7/4 306/7/4
f 304/7/4 305/7/4 308/7/4
f 308/7/4 305/7/4 309/7/4
f 307/7/4 308/7/4 310/7/4
f 310/7/4 308/7/4 311/7/4
f 313/3/4 314/3/4 315/3/4
f 313/3/4 315/3/4 319/3/4
f 315/1/4 316/1/4 319/1/4
f 319/1/4 316/1/4 320/1/4
f 313/3/4 319/3/4 321/3/4
f 321/3/4 319/3/4 322/3/4
f 317/7/4 318/7/4 324/7/4
f 324/7/4 318/7/4 325/7/4
f 312/4/4 313/4/4 326/4/4
f 313/3/4 321/3/4 327/3/4
f 326/4/4 313/4/4 327/4/4
f 327/3/4 321/3/4 328/3/4
f 323/7/4 324/7/4 329/7/4
f 329/7/4 324/7/4 330/7/4
f 328/7/4 329/7/4 331/7/4
f 331/7/4 329/7/4 332/7/4
f 333/7/4 334/7/4 336/7/4
f 335/7/4 336/7/4 338/7/4
f 338/7/4 336/7/4 339/7/4
f 337/7/4 338/7/4 339/7/4
f 336/7/4 334/7/4 340/7/4
f 339/7/4 336/7/4 340/7/4
f 337/7/4 339/7/4 341/7/4
f 341/7/4 339/7/4 342/7/4
f 347/6/5 344/6/5 343/6/5
f 348/6/5 344/6/5 347/6/5
f 349/6/5 346/6/5 345/6/5
f 350/6/5 346/6/5 349/6/5
f 355/4/5 352/4/5 351/4/5
f 356/4/5 352/4/5 355/4/5
f 357/4/5 354/4/5 353/4/5
f 358/4/5 354/4/5 357/4/5
f 359/4/5 355/4/5 351/4/5
f 362/4/5 354/4/5 358/4/5
f 363/4/5 360/4/5 359/4/5
f 363/4/5 359/4/5 351/4/5
f 364/4/5 360/4/5 363/4/5
f 365/4/5 362/4/5 361/4/5
f 366/4/5 354/4/5 362/4/5
f 366/4/5 362/4/5 365/4/5
f 369/4/5 368/4/5 367/4/5
f 370/4/5 368/4/5 369/4/5
f 371/4/5 368/4/5 370/4/5
f 372/4/5 368/4/5 371/4/5
f 377/1/5 374/1/5 373/1/5
f 378/1/5 374/1/5 377/1/5
f 379/1/5 376/1/5 375/1/5
f 380/1/5 376/1/5 379/1/5
f 382/4/5 371/4/5 370/4/5
f 383/4/5 371/4/5 382/4/5
f 385/4/5 382/4/5 381/4/5
f 385/4/5 384/4/5 383/4/5
f 385/4/5 383/4/5 382/4/5
f 386/4/5 384/4/5 385/4/5
f 389/7/5 388/7/5 387/7/5
f 390/7/5 388/7/5 389/7/5
f 394/7/5 392/7/5 391/7/5
f 394/7/5 393/7/5 392/7/5
f 395/7/5 393/7/5 394/7/5
f 397/7/5 394/7/5 391/7/5
f 398/7/5 394/7/5 397/7/5
f 399/7/5 397/7/5 396/7/5
f 400/7/5 397/7/5 399/7/5
f 403/7/5 402/7/5 401/7/5
f 404/7/5 402/7/5 403/7/5
f 407/7/5 406/7/5 405/7/5
f 408/7/5 406/7/5 407/7/5
f 413/2/5 410/2/5 409/2/5
f 414/2/5 410/2/5 413/2/5
f 415/2/5 412/2/5 411/2/5
f 416/2/5 412/2/5 415/2/5
f 419/7/5 418/7/5 417/7/5
f 420/7/5 418/7/5 419/7/5
f 421/3/6 422/3/6 423/3/6
f 423/3/6 422/3/6 424/3/6
f 425/3/6 426/3/6 429/3/6
f 429/3/6 426/3/6 430/3/6
f 427/3/6 428/3/6 431/3/6
f 431/3/6 428/3/6 432/3/6
f 433/3/6 434/3/6 437/3/6
f 437/3/6 434/3/6 438/3/6
f 435/3/6 436/3/6 439/3/6
f 439/3/6 436/3/6 440/3/6
f 440/7/6 441/7/6 445/7/6
f 445/7/6 441/7/6 446/7/6
f 442/3/6 443/3/6 447/3/6
f 447/3/6 443/3/6 448/3/6
f 444/7/6 445/7/6 450/7/6
f 450/7/6 445/7/6 451/7/6
f 449/7/6 450/7/6 452/7/6
f 452/7/6 450/7/6 453/7/6
f 454/7/6 455/7/6 456/7/6
f 456/7/6 455/7/6 457/7/6
f 458/2/6 459/2/6 460/2/6
f 460/2/6 459/2/6 461/2/6
f 462/1/6 463/1/6 466/1/6
f 466/1/6 463/1/6 467/1/6
f 464/7/6 465/7/6 469/7/6
f 469/7/6 465/7/6 470/7/6
f 468/7/6 469/7/6 472/7/6
f 472/7/6 469/7/6 473/7/6
f 471/7/6 472/7/6 474/7/6
f 474/7/6 472/7/6 475/7/6
f 476/7/6 477/7/6 480/7/6
f 478/7/6 479/7/6 481/7/6
f 476/7/6 480/7/6 482/7/6
f 480/7/6 481/7/6 482/7/6
f 482/7/6 481/7/6 483/7/6
f 481/7/6 479/7/6 484/7/6
f 483/7/6 481/7/6 484/7/6
f 484/7/6 479/7/6 485/7/6
f 483/7/6 484/7/6 486/7/6
f 486/7/6 484/7/6 487/7/6
