# MagicaVoxel @ Ephtracy

# material
mtllib chr_thief.mtl
usemtl palette

# normals
vn -1 0 0
vn 1 0 0
vn 0 0 1
vn 0 0 -1
vn 0 -1 0
vn 0 1 0

# texcoords
vt 0.0332031 0.5
vt 0.0605469 0.5
vt 0.341797 0.5
vt 0.392578 0.5
vt 0.962891 0.5
vt 0.966797 0.5
vt 0.982422 0.5
vt 0.986328 0.5
vt 0.990234 0.5

# verts
v -4 2 1
v -4 2 -0
v -4 3 1
v -4 3 -0
v -4 6 1
v -4 6 -0
v -4 7 1
v -4 7 -0
v -4 7 -1
v -4 8 1
v -4 8 -0
v -4 9 2
v -4 9 1
v -4 10 2
v -4 10 -1
v -3 1 2
v -3 1 -1
v -3 2 3
v -3 2 2
v -3 2 1
v -3 2 -0
v -3 2 -1
v -3 2 -2
v -3 3 3
v -3 3 1
v -3 3 -0
v -3 3 -2
v -3 4 3
v -3 4 1
v -3 4 -0
v -3 4 -2
v -3 5 3
v -3 5 1
v -3 5 -0
v -3 5 -2
v -3 6 3
v -3 6 2
v -3 6 1
v -3 6 -0
v -3 6 -1
v -3 6 -2
v -3 7 2
v -3 7 1
v -3 7 -0
v -3 7 -1
v -3 7 -2
v -3 8 2
v -3 8 1
v -3 9 3
v -3 9 2
v -3 9 1
v -3 10 3
v -3 10 2
v -3 10 -1
v -3 10 -2
v -3 11 2
v -3 11 -1
v -2 0 1
v -2 0 -0
v -2 1 1
v -2 1 -0
v -2 6 -1
v -2 6 -2
v -2 7 -1
v -2 7 -2
v -2 7 -3
v -2 10 -1
v -2 10 -2
v -2 10 -3
v -2 11 -1
v -2 11 -2
v 1 0 1
v 1 0 -0
v 1 1 2
v 1 1 1
v 1 1 -0
v 1 1 -1
v 1 2 2
v 1 2 -1
v 1 9 3
v 1 9 2
v 1 10 3
v 1 10 2
v -1 0 1
v -1 0 -0
v -1 1 2
v -1 1 1
v -1 1 -0
v -1 1 -1
v -1 2 2
v -1 2 -1
v -1 9 3
v -1 9 2
v -1 10 3
v -1 10 2
v 2 0 1
v 2 0 -0
v 2 1 1
v 2 1 -0
v 2 6 -1
v 2 6 -2
v 2 7 -1
v 2 7 -2
v 2 7 -3
v 2 10 -1
v 2 10 -2
v 2 10 -3
v 2 11 -1
v 2 11 -2
v 3 1 2
v 3 1 -1
v 3 2 3
v 3 2 2
v 3 2 1
v 3 2 -0
v 3 2 -1
v 3 2 -2
v 3 3 3
v 3 3 1
v 3 3 -0
v 3 3 -2
v 3 4 3
v 3 4 1
v 3 4 -0
v 3 4 -2
v 3 5 3
v 3 5 1
v 3 5 -0
v 3 5 -2
v 3 6 3
v 3 6 2
v 3 6 1
v 3 6 -0
v 3 6 -1
v 3 6 -2
v 3 7 2
v 3 7 1
v 3 7 -0
v 3 7 -1
v 3 7 -2
v 3 8 2
v 3 8 1
v 3 9 3
v 3 9 2
v 3 9 1
v 3 10 3
v 3 10 2
v 3 10 -1
v 3 10 -2
v 3 11 2
v 3 11 -1
v 4 2 1
v 4 2 -0
v 4 3 1
v 4 3 -0
v 4 6 1
v 4 6 -0
v 4 7 1
v 4 7 -0
v 4 7 -1
v 4 8 1
v 4 8 -0
v 4 9 2
v 4 9 1
v 4 10 2
v 4 10 -1
v -3 2 3
v -3 3 3
v -3 4 3
v -3 5 3
v -3 6 3
v -3 9 3
v -3 10 3
v -1 9 3
v -1 10 3
v 1 9 3
v 1 10 3
v 3 2 3
v 3 3 3
v 3 4 3
v 3 5 3
v 3 6 3
v 3 9 3
v 3 10 3
v -4 9 2
v -4 10 2
v -3 1 2
v -3 2 2
v -3 6 2
v -3 7 2
v -3 8 2
v -3 9 2
v -3 10 2
v -3 11 2
v -2 7 2
v -2 8 2
v -1 1 2
v -1 2 2
v -1 7 2
v -1 8 2
v -1 9 2
v -1 10 2
v 1 1 2
v 1 2 2
v 1 7 2
v 1 8 2
v 1 9 2
v 1 10 2
v 2 7 2
v 2 8 2
v 3 1 2
v 3 2 2
v 3 6 2
v 3 7 2
v 3 8 2
v 3 9 2
v 3 10 2
v 3 11 2
v 4 9 2
v 4 10 2
v -4 2 1
v -4 3 1
v -4 6 1
v -4 7 1
v -4 8 1
v -4 9 1
v -3 2 1
v -3 3 1
v -3 4 1
v -3 5 1
v -3 6 1
v -3 7 1
v -3 8 1
v -3 9 1
v -2 0 1
v -2 1 1
v -1 0 1
v -1 1 1
v 1 0 1
v 1 1 1
v 2 0 1
v 2 1 1
v 3 2 1
v 3 3 1
v 3 4 1
v 3 5 1
v 3 6 1
v 3 7 1
v 3 8 1
v 3 9 1
v 4 2 1
v 4 3 1
v 4 6 1
v 4 7 1
v 4 8 1
v 4 9 1
v -4 2 -0
v -4 3 -0
v -4 6 -0
v -3 2 -0
v -3 3 -0
v -3 4 -0
v -3 5 -0
v -3 6 -0
v -2 0 -0
v -2 1 -0
v -1 0 -0
v -1 1 -0
v 1 0 -0
v 1 1 -0
v 2 0 -0
v 2 1 -0
v 3 2 -0
v 3 3 -0
v 3 4 -0
v 3 5 -0
v 3 6 -0
v 4 2 -0
v 4 3 -0
v 4 6 -0
v -4 7 -1
v -4 10 -1
v -3 1 -1
v -3 2 -1
v -3 6 -1
v -3 7 -1
v -3 10 -1
v -3 11 -1
v -2 6 -1
v -2 7 -1
v -2 10 -1
v -2 11 -1
v -1 1 -1
v -1 2 -1
v 1 1 -1
v 1 2 -1
v 2 6 -1
v 2 7 -1
v 2 10 -1
v 2 11 -1
v 3 1 -1
v 3 2 -1
v 3 6 -1
v 3 7 -1
v 3 10 -1
v 3 11 -1
v 4 7 -1
v 4 10 -1
v -3 2 -2
v -3 3 -2
v -3 4 -2
v -3 5 -2
v -3 6 -2
v -3 7 -2
v -3 10 -2
v -2 6 -2
v -2 7 -2
v -2 10 -2
v -2 11 -2
v 2 6 -2
v 2 7 -2
v 2 10 -2
v 2 11 -2
v 3 2 -2
v 3 3 -2
v 3 4 -2
v 3 5 -2
v 3 6 -2
v 3 7 -2
v 3 10 -2
v -2 7 -3
v -2 10 -3
v 2 7 -3
v 2 10 -3
v -2 0 1
v -1 0 1
v 1 0 1
v 2 0 1
v -2 0 -0
v -1 0 -0
v 1 0 -0
v 2 0 -0
v -3 1 2
v -1 1 2
v 1 1 2
v 3 1 2
v -2 1 1
v -1 1 1
v 1 1 1
v 2 1 1
v -2 1 -0
v -1 1 -0
v 1 1 -0
v 2 1 -0
v -3 1 -1
v -1 1 -1
v 1 1 -1
v 3 1 -1
v -3 2 3
v 3 2 3
v -3 2 2
v -1 2 2
v 1 2 2
v 3 2 2
v -4 2 1
v -3 2 1
v 3 2 1
v 4 2 1
v -4 2 -0
v -3 2 -0
v 3 2 -0
v 4 2 -0
v -3 2 -1
v -1 2 -1
v 1 2 -1
v 3 2 -1
v -3 2 -2
v 3 2 -2
v -4 7 1
v -3 7 1
v 3 7 1
v 4 7 1
v -4 7 -0
v -3 7 -0
v 3 7 -0
v 4 7 -0
v -4 7 -1
v -3 7 -1
v -2 7 -1
v 2 7 -1
v 3 7 -1
v 4 7 -1
v -3 7 -2
v -2 7 -2
v 2 7 -2
v 3 7 -2
v -2 7 -3
v 2 7 -3
v -3 9 3
v -1 9 3
v 1 9 3
v 3 9 3
v -4 9 2
v -3 9 2
v -1 9 2
v 1 9 2
v 3 9 2
v 4 9 2
v -4 9 1
v -3 9 1
v 3 9 1
v 4 9 1
v -3 6 3
v 3 6 3
v -3 6 2
v 3 6 2
v -4 6 1
v -3 6 1
v 3 6 1
v 4 6 1
v -4 6 -0
v -3 6 -0
v 3 6 -0
v 4 6 -0
v -3 6 -1
v -2 6 -1
v 2 6 -1
v 3 6 -1
v -3 6 -2
v -2 6 -2
v 2 6 -2
v 3 6 -2
v -3 10 3
v -1 10 3
v 1 10 3
v 3 10 3
v -4 10 2
v -3 10 2
v -1 10 2
v 1 10 2
v 3 10 2
v 4 10 2
v -4 10 -1
v -3 10 -1
v -2 10 -1
v 2 10 -1
v 3 10 -1
v 4 10 -1
v -3 10 -2
v -2 10 -2
v 2 10 -2
v 3 10 -2
v -2 10 -3
v 2 10 -3
v -3 11 2
v 3 11 2
v -3 11 -1
v -2 11 -1
v 2 11 -1
v 3 11 -1
v -2 11 -2
v 2 11 -2

# faces
f 3/1/1 2/1/1 1/1/1
f 4/1/1 2/1/1 3/1/1
f 5/8/1 4/8/1 3/8/1
f 6/8/1 4/8/1 5/8/1
f 10/2/1 8/2/1 7/2/1
f 11/4/1 9/4/1 8/4/1
f 11/2/1 8/2/1 10/2/1
f 13/4/1 11/4/1 10/4/1
f 14/4/1 13/4/1 12/4/1
f 15/4/1 9/4/1 11/4/1
f 15/4/1 13/4/1 14/4/1
f 15/4/1 11/4/1 13/4/1
f 19/3/1 17/3/1 16/3/1
f 20/3/1 17/3/1 19/3/1
f 21/3/1 17/3/1 20/3/1
f 22/3/1 17/3/1 21/3/1
f 24/3/1 19/3/1 18/3/1
f 24/3/1 20/3/1 19/3/1
f 25/3/1 20/3/1 24/3/1
f 26/3/1 23/3/1 22/3/1
f 26/3/1 22/3/1 21/3/1
f 27/3/1 23/3/1 26/3/1
f 28/7/1 25/7/1 24/7/1
f 29/7/1 25/7/1 28/7/1
f 30/7/1 27/7/1 26/7/1
f 31/7/1 27/7/1 30/7/1
f 32/6/1 29/6/1 28/6/1
f 33/6/1 29/6/1 32/6/1
f 34/6/1 31/6/1 30/6/1
f 35/6/1 31/6/1 34/6/1
f 36/7/1 33/7/1 32/7/1
f 37/7/1 33/7/1 36/7/1
f 38/7/1 33/7/1 37/7/1
f 39/7/1 35/7/1 34/7/1
f 40/7/1 35/7/1 39/7/1
f 41/7/1 35/7/1 40/7/1
f 42/1/1 38/1/1 37/1/1
f 42/1/1 40/1/1 39/1/1
f 42/1/1 39/1/1 38/1/1
f 43/1/1 40/1/1 42/1/1
f 44/1/1 40/1/1 43/1/1
f 45/1/1 40/1/1 44/1/1
f 47/9/1 43/9/1 42/9/1
f 48/9/1 43/9/1 47/9/1
f 50/1/1 48/1/1 47/1/1
f 51/1/1 48/1/1 50/1/1
f 52/4/1 50/4/1 49/4/1
f 53/4/1 50/4/1 52/4/1
f 54/4/1 46/4/1 45/4/1
f 55/4/1 46/4/1 54/4/1
f 56/4/1 54/4/1 53/4/1
f 57/4/1 54/4/1 56/4/1
f 60/9/1 59/9/1 58/9/1
f 61/9/1 59/9/1 60/9/1
f 64/1/1 63/1/1 62/1/1
f 65/1/1 63/1/1 64/1/1
f 68/4/1 66/4/1 65/4/1
f 69/4/1 66/4/1 68/4/1
f 70/4/1 68/4/1 67/4/1
f 71/4/1 68/4/1 70/4/1
f 75/9/1 73/9/1 72/9/1
f 76/9/1 73/9/1 75/9/1
f 78/3/1 75/3/1 74/3/1
f 78/3/1 77/3/1 76/3/1
f 78/3/1 76/3/1 75/3/1
f 79/3/1 77/3/1 78/3/1
f 82/4/1 81/4/1 80/4/1
f 83/4/1 81/4/1 82/4/1
f 84/9/2 85/9/2 87/9/2
f 87/9/2 85/9/2 88/9/2
f 86/3/2 87/3/2 90/3/2
f 88/3/2 89/3/2 90/3/2
f 87/3/2 88/3/2 90/3/2
f 90/3/2 89/3/2 91/3/2
f 92/4/2 93/4/2 94/4/2
f 94/4/2 93/4/2 95/4/2
f 96/9/2 97/9/2 98/9/2
f 98/9/2 97/9/2 99/9/2
f 100/1/2 101/1/2 102/1/2
f 102/1/2 101/1/2 103/1/2
f 103/4/2 104/4/2 106/4/2
f 106/4/2 104/4/2 107/4/2
f 105/4/2 106/4/2 108/4/2
f 108/4/2 106/4/2 109/4/2
f 110/3/2 111/3/2 113/3/2
f 113/3/2 111/3/2 114/3/2
f 114/3/2 111/3/2 115/3/2
f 115/3/2 111/3/2 116/3/2
f 112/3/2 113/3/2 118/3/2
f 113/3/2 114/3/2 118/3/2
f 118/3/2 114/3/2 119/3/2
f 116/3/2 117/3/2 120/3/2
f 115/3/2 116/3/2 120/3/2
f 120/3/2 117/3/2 121/3/2
f 118/7/2 119/7/2 122/7/2
f 122/7/2 119/7/2 123/7/2
f 120/7/2 121/7/2 124/7/2
f 124/7/2 121/7/2 125/7/2
f 122/6/2 123/6/2 126/6/2
f 126/6/2 123/6/2 127/6/2
f 124/6/2 125/6/2 128/6/2
f 128/6/2 125/6/2 129/6/2
f 126/7/2 127/7/2 130/7/2
f 130/7/2 127/7/2 131/7/2
f 131/7/2 127/7/2 132/7/2
f 128/7/2 129/7/2 133/7/2
f 133/7/2 129/7/2 134/7/2
f 134/7/2 129/7/2 135/7/2
f 131/1/2 132/1/2 136/1/2
f 133/1/2 134/1/2 136/1/2
f 132/1/2 133/1/2 136/1/2
f 136/1/2 134/1/2 137/1/2
f 137/1/2 134/1/2 138/1/2
f 138/1/2 134/1/2 139/1/2
f 136/9/2 137/9/2 141/9/2
f 141/9/2 137/9/2 142/9/2
f 141/1/2 142/1/2 144/1/2
f 144/1/2 142/1/2 145/1/2
f 143/4/2 144/4/2 146/4/2
f 146/4/2 144/4/2 147/4/2
f 139/4/2 140/4/2 148/4/2
f 148/4/2 140/4/2 149/4/2
f 147/4/2 148/4/2 150/4/2
f 150/4/2 148/4/2 151/4/2
f 152/1/2 153/1/2 154/1/2
f 154/1/2 153/1/2 155/1/2
f 154/8/2 155/8/2 156/8/2
f 156/8/2 155/8/2 157/8/2
f 158/2/2 159/2/2 161/2/2
f 159/4/2 160/4/2 162/4/2
f 161/2/2 159/2/2 162/2/2
f 161/4/2 162/4/2 164/4/2
f 163/4/2 164/4/2 165/4/2
f 162/4/2 160/4/2 166/4/2
f 165/4/2 164/4/2 166/4/2
f 164/4/2 162/4/2 166/4/2
f 174/4/3 173/4/3 172/4/3
f 175/4/3 173/4/3 174/4/3
f 178/3/3 168/3/3 167/3/3
f 179/7/3 169/7/3 168/7/3
f 179/3/3 168/3/3 178/3/3
f 180/6/3 170/6/3 169/6/3
f 180/7/3 169/7/3 179/7/3
f 181/7/3 171/7/3 170/7/3
f 181/6/3 170/6/3 180/6/3
f 182/7/3 171/7/3 181/7/3
f 183/4/3 177/4/3 176/4/3
f 184/4/3 177/4/3 183/4/3
f 192/4/3 186/4/3 185/4/3
f 193/4/3 186/4/3 192/4/3
f 195/9/3 191/9/3 190/9/3
f 195/1/3 190/1/3 189/1/3
f 196/1/3 192/1/3 191/1/3
f 196/9/3 191/9/3 195/9/3
f 197/3/3 188/3/3 187/3/3
f 198/3/3 188/3/3 197/3/3
f 199/1/3 195/1/3 189/1/3
f 199/5/3 196/5/3 195/5/3
f 200/1/3 192/1/3 196/1/3
f 200/5/3 196/5/3 199/5/3
f 201/1/3 192/1/3 200/1/3
f 202/4/3 194/4/3 193/4/3
f 205/1/3 199/1/3 189/1/3
f 205/9/3 200/9/3 199/9/3
f 206/1/3 201/1/3 200/1/3
f 206/9/3 200/9/3 205/9/3
f 206/1/3 202/1/3 201/1/3
f 207/1/3 202/1/3 206/1/3
f 208/4/3 194/4/3 202/4/3
f 208/1/3 202/1/3 207/1/3
f 209/1/3 205/1/3 189/1/3
f 209/5/3 206/5/3 205/5/3
f 210/1/3 207/1/3 206/1/3
f 210/5/3 206/5/3 209/5/3
f 211/3/3 204/3/3 203/3/3
f 212/3/3 204/3/3 211/3/3
f 213/1/3 209/1/3 189/1/3
f 214/9/3 210/9/3 209/9/3
f 214/1/3 209/1/3 213/1/3
f 215/1/3 207/1/3 210/1/3
f 215/9/3 210/9/3 214/9/3
f 216/1/3 207/1/3 215/1/3
f 217/4/3 194/4/3 208/4/3
f 218/4/3 194/4/3 217/4/3
f 219/4/3 217/4/3 216/4/3
f 220/4/3 217/4/3 219/4/3
f 227/1/3 222/1/3 221/1/3
f 228/8/3 223/8/3 222/8/3
f 228/1/3 222/1/3 227/1/3
f 229/8/3 223/8/3 228/8/3
f 230/8/3 223/8/3 229/8/3
f 231/8/3 223/8/3 230/8/3
f 232/2/3 225/2/3 224/2/3
f 233/4/3 226/4/3 225/4/3
f 233/2/3 225/2/3 232/2/3
f 234/4/3 226/4/3 233/4/3
f 237/9/3 236/9/3 235/9/3
f 238/9/3 236/9/3 237/9/3
f 241/9/3 240/9/3 239/9/3
f 242/9/3 240/9/3 241/9/3
f 251/1/3 244/1/3 243/1/3
f 252/8/3 245/8/3 244/8/3
f 252/1/3 244/1/3 251/1/3
f 252/8/3 246/8/3 245/8/3
f 252/8/3 247/8/3 246/8/3
f 253/8/3 247/8/3 252/8/3
f 254/2/3 249/2/3 248/2/3
f 255/4/3 250/4/3 249/4/3
f 255/2/3 249/2/3 254/2/3
f 256/4/3 250/4/3 255/4/3
f 257/1/4 258/1/4 260/1/4
f 258/8/4 259/8/4 261/8/4
f 260/1/4 258/1/4 261/1/4
f 261/8/4 259/8/4 262/8/4
f 262/8/4 259/8/4 263/8/4
f 263/8/4 259/8/4 264/8/4
f 265/9/4 266/9/4 267/9/4
f 267/9/4 266/9/4 268/9/4
f 269/9/4 270/9/4 271/9/4
f 271/9/4 270/9/4 272/9/4
f 273/1/4 274/1/4 278/1/4
f 276/8/4 277/8/4 279/8/4
f 278/1/4 274/1/4 279/1/4
f 274/8/4 275/8/4 279/8/4
f 275/8/4 276/8/4 279/8/4
f 279/8/4 277/8/4 280/8/4
f 281/4/4 282/4/4 286/4/4
f 286/4/4 282/4/4 287/4/4
f 285/1/4 286/1/4 289/1/4
f 289/1/4 286/1/4 290/1/4
f 287/4/4 288/4/4 291/4/4
f 291/4/4 288/4/4 292/4/4
f 283/3/4 284/3/4 293/3/4
f 293/3/4 284/3/4 294/3/4
f 295/3/4 296/3/4 301/3/4
f 301/3/4 296/3/4 302/3/4
f 297/1/4 298/1/4 303/1/4
f 303/1/4 298/1/4 304/1/4
f 299/4/4 300/4/4 305/4/4
f 305/4/4 300/4/4 306/4/4
f 304/4/4 305/4/4 307/4/4
f 307/4/4 305/4/4 308/4/4
f 312/7/4 313/7/4 316/7/4
f 314/4/4 315/4/4 317/4/4
f 317/4/4 315/4/4 318/4/4
f 312/7/4 316/7/4 320/7/4
f 316/1/4 317/1/4 320/1/4
f 320/1/4 317/1/4 321/1/4
f 318/4/4 319/4/4 322/4/4
f 322/4/4 319/4/4 323/4/4
f 309/3/4 310/3/4 324/3/4
f 310/7/4 311/7/4 325/7/4
f 324/3/4 310/3/4 325/3/4
f 311/6/4 312/6/4 326/6/4
f 325/7/4 311/7/4 326/7/4
f 312/7/4 320/7/4 327/7/4
f 326/6/4 312/6/4 327/6/4
f 327/7/4 320/7/4 328/7/4
f 321/4/4 322/4/4 329/4/4
f 329/4/4 322/4/4 330/4/4
f 331/4/4 332/4/4 333/4/4
f 333/4/4 332/4/4 334/4/4
f 339/9/5 336/9/5 335/9/5
f 340/9/5 336/9/5 339/9/5
f 341/9/5 338/9/5 337/9/5
f 342/9/5 338/9/5 341/9/5
f 347/3/5 344/3/5 343/3/5
f 348/3/5 344/3/5 347/3/5
f 349/3/5 346/3/5 345/3/5
f 350/3/5 346/3/5 349/3/5
f 351/3/5 347/3/5 343/3/5
f 354/3/5 346/3/5 350/3/5
f 355/3/5 352/3/5 351/3/5
f 355/3/5 351/3/5 343/3/5
f 356/3/5 352/3/5 355/3/5
f 357/3/5 354/3/5 353/3/5
f 358/3/5 346/3/5 354/3/5
f 358/3/5 354/3/5 357/3/5
f 361/3/5 360/3/5 359/3/5
f 362/3/5 360/3/5 361/3/5
f 363/3/5 360/3/5 362/3/5
f 364/3/5 360/3/5 363/3/5
f 369/1/5 366/1/5 365/1/5
f 370/1/5 366/1/5 369/1/5
f 371/1/5 368/1/5 367/1/5
f 372/1/5 368/1/5 371/1/5
f 374/3/5 363/3/5 362/3/5
f 375/3/5 363/3/5 374/3/5
f 377/3/5 374/3/5 373/3/5
f 377/3/5 376/3/5 375/3/5
f 377/3/5 375/3/5 374/3/5
f 378/3/5 376/3/5 377/3/5
f 383/2/5 380/2/5 379/2/5
f 384/2/5 380/2/5 383/2/5
f 385/2/5 382/2/5 381/2/5
f 386/2/5 382/2/5 385/2/5
f 387/4/5 384/4/5 383/4/5
f 388/4/5 384/4/5 387/4/5
f 391/4/5 386/4/5 385/4/5
f 392/4/5 386/4/5 391/4/5
f 393/4/5 389/4/5 388/4/5
f 394/4/5 389/4/5 393/4/5
f 395/4/5 391/4/5 390/4/5
f 396/4/5 391/4/5 395/4/5
f 397/4/5 395/4/5 394/4/5
f 398/4/5 395/4/5 397/4/5
f 404/4/5 400/4/5 399/4/5
f 405/4/5 400/4/5 404/4/5
f 406/4/5 402/4/5 401/4/5
f 407/4/5 402/4/5 406/4/5
f 409/4/5 404/4/5 403/4/5
f 410/4/5 404/4/5 409/4/5
f 411/4/5 408/4/5 407/4/5
f 412/4/5 408/4/5 411/4/5
f 413/7/6 414/7/6 415/7/6
f 415/7/6 414/7/6 416/7/6
f 417/8/6 418/8/6 421/8/6
f 421/8/6 418/8/6 422/8/6
f 419/8/6 420/8/6 423/8/6
f 423/8/6 420/8/6 424/8/6
f 425/7/6 426/7/6 429/7/6
f 429/7/6 426/7/6 430/7/6
f 427/7/6 428/7/6 431/7/6
f 431/7/6 428/7/6 432/7/6
f 433/4/6 434/4/6 438/4/6
f 438/4/6 434/4/6 439/4/6
f 435/4/6 436/4/6 440/4/6
f 440/4/6 436/4/6 441/4/6
f 437/4/6 438/4/6 443/4/6
f 443/4/6 438/4/6 444/4/6
f 441/4/6 442/4/6 447/4/6
f 447/4/6 442/4/6 448/4/6
f 444/4/6 445/4/6 449/4/6
f 449/4/6 445/4/6 450/4/6
f 446/4/6 447/4/6 451/4/6
f 451/4/6 447/4/6 452/4/6
f 450/4/6 451/4/6 453/4/6
f 453/4/6 451/4/6 454/4/6
f 455/4/6 456/4/6 457/4/6
f 457/4/6 456/4/6 458/4/6
f 458/4/6 456/4/6 459/4/6
f 459/4/6 456/4/6 460/4/6
f 458/4/6 459/4/6 461/4/6
f 461/4/6 459/4/6 462/4/6
