# MagicaVoxel @ Ephtracy

# material
mtllib chr_mission2.mtl
usemtl palette

# normals
vn -1 0 0
vn 1 0 0
vn 0 0 1
vn 0 0 -1
vn 0 -1 0
vn 0 1 0

# texcoords
vt 0.00976563 0.5
vt 0.0332031 0.5
vt 0.958984 0.5
vt 0.978516 0.5
vt 0.986328 0.5
vt 0.990234 0.5
vt 0.994141 0.5

# verts
v -4 2 1
v -4 2 -0
v -4 4 1
v -4 4 -0
v -4 6 1
v -4 6 -0
v -4 6 -2
v -4 7 1
v -4 7 -0
v -4 8 2
v -4 8 1
v -4 8 -0
v -4 11 2
v -4 11 -2
v -3 1 2
v -3 1 -1
v -3 2 3
v -3 2 2
v -3 2 1
v -3 2 -0
v -3 2 -1
v -3 2 -2
v -3 3 3
v -3 3 1
v -3 3 -0
v -3 3 -2
v -3 4 1
v -3 4 -0
v -3 6 3
v -3 6 2
v -3 6 1
v -3 6 -0
v -3 6 -2
v -3 6 -3
v -3 7 1
v -3 7 -0
v -3 8 2
v -3 8 1
v -3 10 -2
v -3 10 -3
v -2 0 1
v -2 0 -0
v -2 1 1
v -2 1 -0
v -2 10 3
v -2 10 2
v -2 11 2
v -2 11 -2
v -2 12 3
v -2 12 -2
v -1 9 3
v -1 9 2
v -1 10 3
v -1 10 2
v 1 0 1
v 1 0 -0
v 1 1 2
v 1 1 1
v 1 1 -0
v 1 1 -1
v 1 2 2
v 1 2 -1
v -1 0 1
v -1 0 -0
v -1 1 2
v -1 1 1
v -1 1 -0
v -1 1 -1
v -1 2 2
v -1 2 -1
v 2 0 1
v 2 0 -0
v 2 1 1
v 2 1 -0
v 3 1 2
v 3 1 -1
v 3 2 3
v 3 2 2
v 3 2 1
v 3 2 -0
v 3 2 -1
v 3 2 -2
v 3 3 3
v 3 3 1
v 3 3 -0
v 3 3 -2
v 3 4 3
v 3 4 2
v 3 4 1
v 3 4 -0
v 3 5 3
v 3 5 2
v 3 6 3
v 3 6 2
v 3 6 1
v 3 6 -0
v 3 6 -2
v 3 6 -3
v 3 7 1
v 3 7 -0
v 3 8 2
v 3 8 1
v 3 10 -2
v 3 10 -3
v 3 11 3
v 3 11 -2
v 3 12 3
v 3 12 -2
v 4 2 1
v 4 2 -0
v 4 4 1
v 4 4 -0
v 4 6 1
v 4 6 -0
v 4 6 -2
v 4 7 1
v 4 7 -0
v 4 8 2
v 4 8 1
v 4 8 -0
v 4 9 3
v 4 9 2
v 4 11 3
v 4 11 -2
v -3 2 3
v -3 3 3
v -3 6 3
v -2 10 3
v -2 12 3
v -1 4 3
v -1 6 3
v -1 9 3
v -1 10 3
v 0 4 3
v 0 6 3
v 1 4 3
v 1 5 3
v 3 2 3
v 3 3 3
v 3 4 3
v 3 5 3
v 3 6 3
v 3 11 3
v 3 12 3
v 4 9 3
v 4 11 3
v -4 8 2
v -4 11 2
v -3 1 2
v -3 2 2
v -3 6 2
v -3 8 2
v -3 10 2
v -2 7 2
v -2 8 2
v -2 10 2
v -2 11 2
v -1 1 2
v -1 2 2
v -1 6 2
v -1 7 2
v -1 8 2
v -1 9 2
v -1 10 2
v 0 6 2
v 1 1 2
v 1 2 2
v 1 7 2
v 1 8 2
v 2 7 2
v 2 8 2
v 3 1 2
v 3 2 2
v 3 6 2
v 3 8 2
v 3 9 2
v 4 8 2
v 4 9 2
v -4 2 1
v -4 4 1
v -4 6 1
v -4 7 1
v -4 8 1
v -3 2 1
v -3 3 1
v -3 4 1
v -3 6 1
v -3 7 1
v -3 8 1
v -2 0 1
v -2 1 1
v -1 0 1
v -1 1 1
v 1 0 1
v 1 1 1
v 2 0 1
v 2 1 1
v 3 2 1
v 3 3 1
v 3 4 1
v 3 6 1
v 3 7 1
v 3 8 1
v 4 2 1
v 4 4 1
v 4 6 1
v 4 7 1
v 4 8 1
v -4 6 -0
v -4 7 -0
v -3 6 -0
v -3 7 -0
v 3 6 -0
v 3 7 -0
v 4 6 -0
v 4 7 -0
v -4 2 -0
v -4 4 -0
v -4 6 -0
v -3 2 -0
v -3 3 -0
v -3 4 -0
v -3 6 -0
v -2 0 -0
v -2 1 -0
v -1 0 -0
v -1 1 -0
v 1 0 -0
v 1 1 -0
v 2 0 -0
v 2 1 -0
v 3 2 -0
v 3 3 -0
v 3 4 -0
v 3 6 -0
v 4 2 -0
v 4 4 -0
v 4 6 -0
v -3 1 -1
v -3 2 -1
v -1 1 -1
v -1 2 -1
v 1 1 -1
v 1 2 -1
v 3 1 -1
v 3 2 -1
v -4 6 -2
v -4 11 -2
v -3 2 -2
v -3 3 -2
v -3 6 -2
v -3 10 -2
v -2 11 -2
v -2 12 -2
v 3 2 -2
v 3 3 -2
v 3 6 -2
v 3 10 -2
v 3 11 -2
v 3 12 -2
v 4 6 -2
v 4 11 -2
v -3 6 -3
v -3 10 -3
v 3 6 -3
v 3 10 -3
v -2 0 1
v -1 0 1
v 1 0 1
v 2 0 1
v -2 0 -0
v -1 0 -0
v 1 0 -0
v 2 0 -0
v -3 1 2
v -1 1 2
v 1 1 2
v 3 1 2
v -2 1 1
v -1 1 1
v 1 1 1
v 2 1 1
v -2 1 -0
v -1 1 -0
v 1 1 -0
v 2 1 -0
v -3 1 -1
v -1 1 -1
v 1 1 -1
v 3 1 -1
v -3 2 3
v 3 2 3
v -3 2 2
v -1 2 2
v 1 2 2
v 3 2 2
v -4 2 1
v -3 2 1
v 3 2 1
v 4 2 1
v -4 2 -0
v -3 2 -0
v 3 2 -0
v 4 2 -0
v -3 2 -1
v -1 2 -1
v 1 2 -1
v 3 2 -1
v -3 2 -2
v 3 2 -2
v -4 6 -0
v -3 6 -0
v 3 6 -0
v 4 6 -0
v -4 6 -2
v -3 6 -2
v 3 6 -2
v 4 6 -2
v -3 6 -3
v 3 6 -3
v -4 7 1
v -3 7 1
v 3 7 1
v 4 7 1
v -4 7 -0
v -3 7 -0
v 3 7 -0
v 4 7 -0
v -4 8 2
v -3 8 2
v 3 8 2
v 4 8 2
v -4 8 1
v -3 8 1
v 3 8 1
v 4 8 1
v -1 9 3
v 4 9 3
v -1 9 2
v 3 9 2
v 4 9 2
v -2 10 3
v -1 10 3
v -2 10 2
v -1 10 2
v -3 6 3
v -1 6 3
v 0 6 3
v 3 6 3
v -3 6 2
v -1 6 2
v 0 6 2
v 3 6 2
v -4 6 1
v -3 6 1
v 3 6 1
v 4 6 1
v -4 6 -0
v -3 6 -0
v 3 6 -0
v 4 6 -0
v -3 10 -2
v 3 10 -2
v -3 10 -3
v 3 10 -3
v 3 11 3
v 4 11 3
v -4 11 2
v -2 11 2
v -4 11 -2
v -2 11 -2
v 3 11 -2
v 4 11 -2
v -2 12 3
v 3 12 3
v -2 12 -2
v 3 12 -2

# faces
f 3/2/1 2/2/1 1/2/1
f 4/2/1 2/2/1 3/2/1
f 5/3/1 4/3/1 3/3/1
f 6/3/1 4/3/1 5/3/1
f 9/1/1 7/1/1 6/1/1
f 11/2/1 9/2/1 8/2/1
f 12/1/1 7/1/1 9/1/1
f 12/2/1 9/2/1 11/2/1
f 13/1/1 11/1/1 10/1/1
f 13/1/1 12/1/1 11/1/1
f 14/1/1 7/1/1 12/1/1
f 14/1/1 12/1/1 13/1/1
f 18/5/1 16/5/1 15/5/1
f 19/5/1 16/5/1 18/5/1
f 20/5/1 16/5/1 19/5/1
f 21/5/1 16/5/1 20/5/1
f 23/5/1 18/5/1 17/5/1
f 23/5/1 19/5/1 18/5/1
f 24/5/1 19/5/1 23/5/1
f 25/5/1 22/5/1 21/5/1
f 25/5/1 21/5/1 20/5/1
f 26/5/1 22/5/1 25/5/1
f 27/3/1 24/3/1 23/3/1
f 28/3/1 26/3/1 25/3/1
f 29/3/1 27/3/1 23/3/1
f 30/3/1 27/3/1 29/3/1
f 31/3/1 27/3/1 30/3/1
f 32/3/1 26/3/1 28/3/1
f 33/3/1 26/3/1 32/3/1
f 35/2/1 31/2/1 30/2/1
f 35/2/1 32/2/1 31/2/1
f 36/2/1 32/2/1 35/2/1
f 37/2/1 35/2/1 30/2/1
f 38/2/1 35/2/1 37/2/1
f 39/1/1 34/1/1 33/1/1
f 40/1/1 34/1/1 39/1/1
f 43/6/1 42/6/1 41/6/1
f 44/6/1 42/6/1 43/6/1
f 47/1/1 46/1/1 45/1/1
f 49/1/1 47/1/1 45/1/1
f 49/1/1 48/1/1 47/1/1
f 50/1/1 48/1/1 49/1/1
f 53/1/1 52/1/1 51/1/1
f 54/1/1 52/1/1 53/1/1
f 58/6/1 56/6/1 55/6/1
f 59/6/1 56/6/1 58/6/1
f 61/5/1 58/5/1 57/5/1
f 61/5/1 60/5/1 59/5/1
f 61/5/1 59/5/1 58/5/1
f 62/5/1 60/5/1 61/5/1
f 63/6/2 64/6/2 66/6/2
f 66/6/2 64/6/2 67/6/2
f 65/5/2 66/5/2 69/5/2
f 67/5/2 68/5/2 69/5/2
f 66/5/2 67/5/2 69/5/2
f 69/5/2 68/5/2 70/5/2
f 71/6/2 72/6/2 73/6/2
f 73/6/2 72/6/2 74/6/2
f 75/5/2 76/5/2 78/5/2
f 78/5/2 76/5/2 79/5/2
f 79/5/2 76/5/2 80/5/2
f 80/5/2 76/5/2 81/5/2
f 77/5/2 78/5/2 83/5/2
f 78/5/2 79/5/2 83/5/2
f 83/5/2 79/5/2 84/5/2
f 81/5/2 82/5/2 85/5/2
f 80/5/2 81/5/2 85/5/2
f 85/5/2 82/5/2 86/5/2
f 83/3/2 84/3/2 87/3/2
f 87/3/2 84/3/2 88/3/2
f 88/3/2 84/3/2 89/3/2
f 85/3/2 86/3/2 90/3/2
f 87/4/2 88/4/2 91/4/2
f 88/3/2 89/3/2 92/3/2
f 91/4/2 88/4/2 92/4/2
f 91/3/2 92/3/2 93/3/2
f 92/3/2 89/3/2 94/3/2
f 93/3/2 92/3/2 94/3/2
f 94/3/2 89/3/2 95/3/2
f 90/3/2 86/3/2 96/3/2
f 96/3/2 86/3/2 97/3/2
f 94/2/2 95/2/2 99/2/2
f 95/2/2 96/2/2 99/2/2
f 99/2/2 96/2/2 100/2/2
f 94/2/2 99/2/2 101/2/2
f 101/2/2 99/2/2 102/2/2
f 97/1/2 98/1/2 103/1/2
f 103/1/2 98/1/2 104/1/2
f 105/1/2 106/1/2 107/1/2
f 107/1/2 106/1/2 108/1/2
f 109/2/2 110/2/2 111/2/2
f 111/2/2 110/2/2 112/2/2
f 111/3/2 112/3/2 113/3/2
f 113/3/2 112/3/2 114/3/2
f 114/1/2 115/1/2 117/1/2
f 116/2/2 117/2/2 119/2/2
f 117/1/2 115/1/2 120/1/2
f 119/2/2 117/2/2 120/2/2
f 118/1/2 119/1/2 122/1/2
f 119/1/2 120/1/2 122/1/2
f 121/1/2 122/1/2 123/1/2
f 120/1/2 115/1/2 124/1/2
f 123/1/2 122/1/2 124/1/2
f 122/1/2 120/1/2 124/1/2
f 130/3/3 127/3/3 126/3/3
f 131/3/3 127/3/3 130/3/3
f 133/1/3 129/1/3 128/1/3
f 134/6/3 131/6/3 130/6/3
f 134/3/3 130/3/3 126/3/3
f 135/6/3 131/6/3 134/6/3
f 136/3/3 134/3/3 126/3/3
f 136/3/3 135/3/3 134/3/3
f 137/3/3 135/3/3 136/3/3
f 138/5/3 126/5/3 125/5/3
f 139/3/3 136/3/3 126/3/3
f 139/5/3 126/5/3 138/5/3
f 140/4/3 137/4/3 136/4/3
f 140/3/3 136/3/3 139/3/3
f 141/3/3 135/3/3 137/3/3
f 141/4/3 137/4/3 140/4/3
f 142/3/3 135/3/3 141/3/3
f 143/1/3 133/1/3 132/1/3
f 143/1/3 129/1/3 133/1/3
f 144/1/3 129/1/3 143/1/3
f 145/1/3 143/1/3 132/1/3
f 146/1/3 143/1/3 145/1/3
f 152/1/3 148/1/3 147/1/3
f 153/1/3 148/1/3 152/1/3
f 154/2/3 152/2/3 151/2/3
f 154/2/3 153/2/3 152/2/3
f 155/2/3 153/2/3 154/2/3
f 156/1/3 148/1/3 153/1/3
f 156/2/3 153/2/3 155/2/3
f 157/1/3 148/1/3 156/1/3
f 158/5/3 150/5/3 149/5/3
f 159/5/3 150/5/3 158/5/3
f 160/2/3 154/2/3 151/2/3
f 161/7/3 155/7/3 154/7/3
f 161/2/3 154/2/3 160/2/3
f 162/2/3 156/2/3 155/2/3
f 162/7/3 155/7/3 161/7/3
f 163/2/3 156/2/3 162/2/3
f 164/2/3 156/2/3 163/2/3
f 165/2/3 161/2/3 160/2/3
f 165/2/3 163/2/3 162/2/3
f 165/2/3 162/2/3 161/2/3
f 168/2/3 163/2/3 165/2/3
f 169/2/3 163/2/3 168/2/3
f 170/2/3 168/2/3 165/2/3
f 170/7/3 169/7/3 168/7/3
f 171/2/3 163/2/3 169/2/3
f 171/7/3 169/7/3 170/7/3
f 172/5/3 167/5/3 166/5/3
f 173/5/3 167/5/3 172/5/3
f 174/2/3 170/2/3 165/2/3
f 174/2/3 171/2/3 170/2/3
f 175/2/3 163/2/3 171/2/3
f 175/2/3 171/2/3 174/2/3
f 176/2/3 163/2/3 175/2/3
f 177/1/3 176/1/3 175/1/3
f 178/1/3 176/1/3 177/1/3
f 184/2/3 180/2/3 179/2/3
f 185/2/3 180/2/3 184/2/3
f 186/3/3 181/3/3 180/3/3
f 186/2/3 180/2/3 185/2/3
f 187/3/3 181/3/3 186/3/3
f 188/2/3 183/2/3 182/2/3
f 189/2/3 183/2/3 188/2/3
f 192/6/3 191/6/3 190/6/3
f 193/6/3 191/6/3 192/6/3
f 196/6/3 195/6/3 194/6/3
f 197/6/3 195/6/3 196/6/3
f 204/2/3 199/2/3 198/2/3
f 204/2/3 200/2/3 199/2/3
f 205/3/3 201/3/3 200/3/3
f 205/2/3 200/2/3 204/2/3
f 206/3/3 201/3/3 205/3/3
f 207/2/3 203/2/3 202/2/3
f 208/2/3 203/2/3 207/2/3
f 211/1/3 210/1/3 209/1/3
f 212/1/3 210/1/3 211/1/3
f 215/1/3 214/1/3 213/1/3
f 216/1/3 214/1/3 215/1/3
f 217/2/4 218/2/4 220/2/4
f 220/2/4 218/2/4 221/2/4
f 218/3/4 219/3/4 222/3/4
f 221/2/4 218/2/4 222/2/4
f 222/3/4 219/3/4 223/3/4
f 224/6/4 225/6/4 226/6/4
f 226/6/4 225/6/4 227/6/4
f 228/6/4 229/6/4 230/6/4
f 230/6/4 229/6/4 231/6/4
f 232/2/4 233/2/4 236/2/4
f 233/2/4 234/2/4 236/2/4
f 234/3/4 235/3/4 237/3/4
f 236/2/4 234/2/4 237/2/4
f 237/3/4 235/3/4 238/3/4
f 239/5/4 240/5/4 241/5/4
f 241/5/4 240/5/4 242/5/4
f 243/5/4 244/5/4 245/5/4
f 245/5/4 244/5/4 246/5/4
f 247/1/4 248/1/4 251/1/4
f 251/1/4 248/1/4 252/1/4
f 252/1/4 248/1/4 253/1/4
f 249/5/4 250/5/4 255/5/4
f 250/3/4 251/3/4 256/3/4
f 255/5/4 250/5/4 256/5/4
f 256/3/4 251/3/4 257/3/4
f 253/1/4 254/1/4 258/1/4
f 252/1/4 253/1/4 258/1/4
f 258/1/4 254/1/4 259/1/4
f 259/1/4 254/1/4 260/1/4
f 258/1/4 259/1/4 261/1/4
f 257/1/4 258/1/4 261/1/4
f 261/1/4 259/1/4 262/1/4
f 263/1/4 264/1/4 265/1/4
f 265/1/4 264/1/4 266/1/4
f 271/6/5 268/6/5 267/6/5
f 272/6/5 268/6/5 271/6/5
f 273/6/5 270/6/5 269/6/5
f 274/6/5 270/6/5 273/6/5
f 279/5/5 276/5/5 275/5/5
f 280/5/5 276/5/5 279/5/5
f 281/5/5 278/5/5 277/5/5
f 282/5/5 278/5/5 281/5/5
f 283/5/5 279/5/5 275/5/5
f 286/5/5 278/5/5 282/5/5
f 287/5/5 284/5/5 283/5/5
f 287/5/5 283/5/5 275/5/5
f 288/5/5 284/5/5 287/5/5
f 289/5/5 286/5/5 285/5/5
f 290/5/5 278/5/5 286/5/5
f 290/5/5 286/5/5 289/5/5
f 293/5/5 292/5/5 291/5/5
f 294/5/5 292/5/5 293/5/5
f 295/5/5 292/5/5 294/5/5
f 296/5/5 292/5/5 295/5/5
f 301/2/5 298/2/5 297/2/5
f 302/2/5 298/2/5 301/2/5
f 303/2/5 300/2/5 299/2/5
f 304/2/5 300/2/5 303/2/5
f 306/5/5 295/5/5 294/5/5
f 307/5/5 295/5/5 306/5/5
f 309/5/5 306/5/5 305/5/5
f 309/5/5 308/5/5 307/5/5
f 309/5/5 307/5/5 306/5/5
f 310/5/5 308/5/5 309/5/5
f 315/1/5 312/1/5 311/1/5
f 316/1/5 312/1/5 315/1/5
f 317/1/5 314/1/5 313/1/5
f 318/1/5 314/1/5 317/1/5
f 319/1/5 317/1/5 316/1/5
f 320/1/5 317/1/5 319/1/5
f 325/2/5 322/2/5 321/2/5
f 326/2/5 322/2/5 325/2/5
f 327/2/5 324/2/5 323/2/5
f 328/2/5 324/2/5 327/2/5
f 333/1/5 330/1/5 329/1/5
f 334/1/5 330/1/5 333/1/5
f 335/1/5 332/1/5 331/1/5
f 336/1/5 332/1/5 335/1/5
f 339/1/5 338/1/5 337/1/5
f 340/1/5 338/1/5 339/1/5
f 341/1/5 338/1/5 340/1/5
f 344/1/5 343/1/5 342/1/5
f 345/1/5 343/1/5 344/1/5
f 346/3/6 347/3/6 350/3/6
f 347/6/6 348/6/6 351/6/6
f 350/3/6 347/3/6 351/3/6
f 348/3/6 349/3/6 352/3/6
f 351/6/6 348/6/6 352/6/6
f 352/3/6 349/3/6 353/3/6
f 354/3/6 355/3/6 358/3/6
f 358/3/6 355/3/6 359/3/6
f 356/3/6 357/3/6 360/3/6
f 360/3/6 357/3/6 361/3/6
f 362/1/6 363/1/6 364/1/6
f 364/1/6 363/1/6 365/1/6
f 368/1/6 369/1/6 370/1/6
f 370/1/6 369/1/6 371/1/6
f 366/1/6 367/1/6 372/1/6
f 372/1/6 367/1/6 373/1/6
f 374/1/6 375/1/6 376/1/6
f 376/1/6 375/1/6 377/1/6
