# MagicaVoxel @ Ephtracy

# material
mtllib chr_lady4.mtl
usemtl palette

# normals
vn -1 0 0
vn 1 0 0
vn 0 0 1
vn 0 0 -1
vn 0 -1 0
vn 0 1 0

# texcoords
vt 0.00195313 0.5
vt 0.0332031 0.5
vt 0.0605469 0.5
vt 0.587891 0.5
vt 0.962891 0.5
vt 0.994141 0.5

# verts
v -4 2 0.5
v -4 2 -0.5
v -4 5 0.5
v -4 5 -0.5
v -4 6 0.5
v -4 6 -0.5
v -4 7 0.5
v -4 7 -0.5
v -4 7 -1.5
v -4 8 0.5
v -4 8 -0.5
v -4 9 1.5
v -4 9 0.5
v -4 10 1.5
v -4 10 -1.5
v -3 1 1.5
v -3 1 -1.5
v -3 2 2.5
v -3 2 1.5
v -3 2 0.5
v -3 2 -0.5
v -3 2 -1.5
v -3 2 -2.5
v -3 3 2.5
v -3 3 0.5
v -3 3 -0.5
v -3 3 -2.5
v -3 5 0.5
v -3 5 -0.5
v -3 6 2.5
v -3 6 1.5
v -3 6 0.5
v -3 6 -0.5
v -3 6 -1.5
v -3 6 -2.5
v -3 7 0.5
v -3 7 -0.5
v -3 7 -1.5
v -3 7 -2.5
v -3 8 0.5
v -3 9 2.5
v -3 9 1.5
v -3 9 0.5
v -3 10 2.5
v -3 10 1.5
v -3 10 -1.5
v -3 11 1.5
v -3 11 -2.5
v -2 0 0.5
v -2 0 -0.5
v -2 1 0.5
v -2 1 -0.5
v -2 6 -1.5
v -2 6 -2.5
v -2 7 -1.5
v -2 7 -2.5
v -2 7 -3.5
v -2 10 -2.5
v -2 10 -3.5
v -1 10 -2.5
v -1 10 -3.5
v -1 11 -2.5
v -1 11 -3.5
v 0 6 -2.5
v 0 6 -3.5
v 0 7 -2.5
v 0 7 -3.5
v 0 10 1.5
v 0 10 0.5
v 0 11 1.5
v 0 11 0.5
v 1 0 0.5
v 1 0 -0.5
v 1 1 1.5
v 1 1 0.5
v 1 1 -0.5
v 1 1 -1.5
v 1 2 1.5
v 1 2 -1.5
v 1 5 2.5
v 1 5 1.5
v 1 6 2.5
v 1 6 1.5
v 1 9 2.5
v 1 9 1.5
v 1 10 2.5
v 1 10 1.5
v 2 5 -2.5
v 2 5 -3.5
v 2 6 -2.5
v 2 6 -3.5
v -2 9 2.5
v -2 9 1.5
v -2 10 2.5
v -2 10 1.5
v -1 0 0.5
v -1 0 -0.5
v -1 1 1.5
v -1 1 0.5
v -1 1 -0.5
v -1 1 -1.5
v -1 2 1.5
v -1 2 -1.5
v -1 5 2.5
v -1 5 1.5
v -1 6 2.5
v -1 6 1.5
v -1 10 1.5
v -1 10 0.5
v -1 11 1.5
v -1 11 0.5
v 2 0 0.5
v 2 0 -0.5
v 2 1 0.5
v 2 1 -0.5
v 2 7 -2.5
v 2 7 -3.5
v 2 8 -2.5
v 2 8 -3.5
v 2 10 -2.5
v 2 10 -3.5
v 2 11 -2.5
v 2 11 -3.5
v 3 1 1.5
v 3 1 -1.5
v 3 2 2.5
v 3 2 1.5
v 3 2 0.5
v 3 2 -0.5
v 3 2 -1.5
v 3 2 -2.5
v 3 3 2.5
v 3 3 0.5
v 3 3 -0.5
v 3 3 -2.5
v 3 4 -0.5
v 3 4 -1.5
v 3 5 0.5
v 3 5 -1.5
v 3 5 -2.5
v 3 5 -3.5
v 3 6 2.5
v 3 6 1.5
v 3 6 0.5
v 3 6 -0.5
v 3 6 -1.5
v 3 6 -2.5
v 3 7 0.5
v 3 7 -0.5
v 3 7 -2.5
v 3 7 -3.5
v 3 8 0.5
v 3 8 -0.5
v 3 8 -1.5
v 3 8 -2.5
v 3 8 -3.5
v 3 9 2.5
v 3 9 1.5
v 3 9 0.5
v 3 10 2.5
v 3 10 1.5
v 3 10 -1.5
v 3 10 -2.5
v 3 10 -3.5
v 3 11 1.5
v 3 11 -2.5
v 4 2 0.5
v 4 2 -0.5
v 4 4 -0.5
v 4 4 -1.5
v 4 5 0.5
v 4 5 -0.5
v 4 5 -1.5
v 4 5 -2.5
v 4 6 0.5
v 4 6 -0.5
v 4 6 -2.5
v 4 7 0.5
v 4 7 -0.5
v 4 8 0.5
v 4 8 -0.5
v 4 8 -1.5
v 4 9 1.5
v 4 9 0.5
v 4 10 1.5
v 4 10 -1.5
v -3 2 2.5
v -3 3 2.5
v -3 6 2.5
v -3 9 2.5
v -3 10 2.5
v -2 9 2.5
v -2 10 2.5
v -1 5 2.5
v -1 6 2.5
v 1 5 2.5
v 1 6 2.5
v 1 9 2.5
v 1 10 2.5
v 3 2 2.5
v 3 3 2.5
v 3 6 2.5
v 3 9 2.5
v 3 10 2.5
v -4 9 1.5
v -4 10 1.5
v -3 1 1.5
v -3 2 1.5
v -3 6 1.5
v -3 9 1.5
v -3 10 1.5
v -3 11 1.5
v -2 7 1.5
v -2 8 1.5
v -2 9 1.5
v -2 10 1.5
v -1 1 1.5
v -1 2 1.5
v -1 5 1.5
v -1 6 1.5
v -1 7 1.5
v -1 8 1.5
v -1 10 1.5
v -1 11 1.5
v 0 10 1.5
v 0 11 1.5
v 1 1 1.5
v 1 2 1.5
v 1 5 1.5
v 1 6 1.5
v 1 7 1.5
v 1 8 1.5
v 1 9 1.5
v 1 10 1.5
v 2 7 1.5
v 2 8 1.5
v 3 1 1.5
v 3 2 1.5
v 3 6 1.5
v 3 9 1.5
v 3 10 1.5
v 3 11 1.5
v 4 9 1.5
v 4 10 1.5
v -4 2 0.5
v -4 5 0.5
v -4 6 0.5
v -4 7 0.5
v -4 8 0.5
v -4 9 0.5
v -3 2 0.5
v -3 3 0.5
v -3 5 0.5
v -3 6 0.5
v -3 7 0.5
v -3 8 0.5
v -3 9 0.5
v -2 0 0.5
v -2 1 0.5
v -1 0 0.5
v -1 1 0.5
v -1 10 0.5
v -1 11 0.5
v 0 10 0.5
v 0 11 0.5
v 1 0 0.5
v 1 1 0.5
v 2 0 0.5
v 2 1 0.5
v 3 2 0.5
v 3 3 0.5
v 3 5 0.5
v 3 6 0.5
v 3 7 0.5
v 3 8 0.5
v 3 9 0.5
v 4 2 0.5
v 4 5 0.5
v 4 6 0.5
v 4 7 0.5
v 4 8 0.5
v 4 9 0.5
v -4 2 -0.5
v -4 5 -0.5
v -4 6 -0.5
v -3 2 -0.5
v -3 3 -0.5
v -3 5 -0.5
v -3 6 -0.5
v -2 0 -0.5
v -2 1 -0.5
v -1 0 -0.5
v -1 1 -0.5
v 1 0 -0.5
v 1 1 -0.5
v 2 0 -0.5
v 2 1 -0.5
v 3 2 -0.5
v 3 3 -0.5
v 3 4 -0.5
v 3 7 -0.5
v 3 8 -0.5
v 4 2 -0.5
v 4 4 -0.5
v 4 7 -0.5
v 4 8 -0.5
v -4 7 -1.5
v -4 10 -1.5
v -3 1 -1.5
v -3 2 -1.5
v -3 6 -1.5
v -3 7 -1.5
v -3 10 -1.5
v -2 6 -1.5
v -2 7 -1.5
v -1 1 -1.5
v -1 2 -1.5
v 1 1 -1.5
v 1 2 -1.5
v 3 1 -1.5
v 3 2 -1.5
v 3 4 -1.5
v 3 5 -1.5
v 3 8 -1.5
v 3 10 -1.5
v 4 4 -1.5
v 4 5 -1.5
v 4 8 -1.5
v 4 10 -1.5
v -3 2 -2.5
v -3 3 -2.5
v -3 6 -2.5
v -3 7 -2.5
v -3 11 -2.5
v -2 6 -2.5
v -2 7 -2.5
v -2 10 -2.5
v -1 10 -2.5
v -1 11 -2.5
v 0 6 -2.5
v 0 7 -2.5
v 2 5 -2.5
v 2 6 -2.5
v 2 7 -2.5
v 2 8 -2.5
v 2 10 -2.5
v 2 11 -2.5
v 3 2 -2.5
v 3 3 -2.5
v 3 5 -2.5
v 3 6 -2.5
v 3 7 -2.5
v 3 8 -2.5
v 3 10 -2.5
v 3 11 -2.5
v 4 5 -2.5
v 4 6 -2.5
v -2 7 -3.5
v -2 10 -3.5
v -1 10 -3.5
v -1 11 -3.5
v 0 6 -3.5
v 0 7 -3.5
v 2 5 -3.5
v 2 6 -3.5
v 2 7 -3.5
v 2 8 -3.5
v 2 10 -3.5
v 2 11 -3.5
v 3 5 -3.5
v 3 7 -3.5
v 3 8 -3.5
v 3 10 -3.5
v -2 0 0.5
v -1 0 0.5
v 1 0 0.5
v 2 0 0.5
v -2 0 -0.5
v -1 0 -0.5
v 1 0 -0.5
v 2 0 -0.5
v -3 1 1.5
v -1 1 1.5
v 1 1 1.5
v 3 1 1.5
v -2 1 0.5
v -1 1 0.5
v 1 1 0.5
v 2 1 0.5
v -2 1 -0.5
v -1 1 -0.5
v 1 1 -0.5
v 2 1 -0.5
v -3 1 -1.5
v -1 1 -1.5
v 1 1 -1.5
v 3 1 -1.5
v -3 2 2.5
v 3 2 2.5
v -3 2 1.5
v -1 2 1.5
v 1 2 1.5
v 3 2 1.5
v -4 2 0.5
v -3 2 0.5
v 3 2 0.5
v 4 2 0.5
v -4 2 -0.5
v -3 2 -0.5
v 3 2 -0.5
v 4 2 -0.5
v -3 2 -1.5
v -1 2 -1.5
v 1 2 -1.5
v 3 2 -1.5
v -3 2 -2.5
v 3 2 -2.5
v 3 4 -0.5
v 4 4 -0.5
v 3 4 -1.5
v 4 4 -1.5
v 3 5 -1.5
v 4 5 -1.5
v 2 5 -2.5
v 3 5 -2.5
v 4 5 -2.5
v 2 5 -3.5
v 3 5 -3.5
v 0 6 -2.5
v 2 6 -2.5
v 0 6 -3.5
v 2 6 -3.5
v -4 7 0.5
v -3 7 0.5
v 3 7 0.5
v 4 7 0.5
v -4 7 -0.5
v -3 7 -0.5
v 3 7 -0.5
v 4 7 -0.5
v -4 7 -1.5
v -3 7 -1.5
v -2 7 -1.5
v -3 7 -2.5
v -2 7 -2.5
v 0 7 -2.5
v -2 7 -3.5
v 0 7 -3.5
v 3 8 -0.5
v 4 8 -0.5
v 3 8 -1.5
v 4 8 -1.5
v 2 8 -2.5
v 3 8 -2.5
v 2 8 -3.5
v 3 8 -3.5
v -3 9 2.5
v -2 9 2.5
v 1 9 2.5
v 3 9 2.5
v -4 9 1.5
v -3 9 1.5
v -2 9 1.5
v 1 9 1.5
v 3 9 1.5
v 4 9 1.5
v -4 9 0.5
v -3 9 0.5
v 3 9 0.5
v 4 9 0.5
v -1 5 2.5
v 1 5 2.5
v -1 5 1.5
v 1 5 1.5
v -3 6 2.5
v -1 6 2.5
v 1 6 2.5
v 3 6 2.5
v -3 6 1.5
v -1 6 1.5
v 1 6 1.5
v 3 6 1.5
v -4 6 0.5
v -3 6 0.5
v 3 6 0.5
v 4 6 0.5
v -4 6 -0.5
v -3 6 -0.5
v 3 6 -0.5
v 4 6 -0.5
v -3 6 -1.5
v -2 6 -1.5
v 3 6 -1.5
v -3 6 -2.5
v -2 6 -2.5
v 3 6 -2.5
v 4 6 -2.5
v 2 7 -2.5
v 3 7 -2.5
v 2 7 -3.5
v 3 7 -3.5
v -3 10 2.5
v -2 10 2.5
v 1 10 2.5
v 3 10 2.5
v -4 10 1.5
v -3 10 1.5
v -2 10 1.5
v -1 10 1.5
v 0 10 1.5
v 1 10 1.5
v 3 10 1.5
v 4 10 1.5
v -1 10 0.5
v 0 10 0.5
v -4 10 -1.5
v -3 10 -1.5
v 3 10 -1.5
v 4 10 -1.5
v -2 10 -2.5
v -1 10 -2.5
v 2 10 -2.5
v 3 10 -2.5
v -2 10 -3.5
v -1 10 -3.5
v 2 10 -3.5
v 3 10 -3.5
v -3 11 1.5
v -1 11 1.5
v 0 11 1.5
v 3 11 1.5
v -1 11 0.5
v 0 11 0.5
v -3 11 -2.5
v -1 11 -2.5
v 2 11 -2.5
v 3 11 -2.5
v -1 11 -3.5
v 2 11 -3.5

# faces
f 3/2/1 2/2/1 1/2/1
f 4/2/1 2/2/1 3/2/1
f 5/4/1 4/4/1 3/4/1
f 6/4/1 4/4/1 5/4/1
f 10/3/1 8/3/1 7/3/1
f 11/1/1 9/1/1 8/1/1
f 11/3/1 8/3/1 10/3/1
f 13/1/1 11/1/1 10/1/1
f 14/1/1 13/1/1 12/1/1
f 15/1/1 9/1/1 11/1/1
f 15/1/1 13/1/1 14/1/1
f 15/1/1 11/1/1 13/1/1
f 19/5/1 17/5/1 16/5/1
f 20/5/1 17/5/1 19/5/1
f 21/5/1 17/5/1 20/5/1
f 22/5/1 17/5/1 21/5/1
f 24/5/1 19/5/1 18/5/1
f 24/5/1 20/5/1 19/5/1
f 25/5/1 20/5/1 24/5/1
f 26/5/1 23/5/1 22/5/1
f 26/5/1 22/5/1 21/5/1
f 27/5/1 23/5/1 26/5/1
f 28/4/1 25/4/1 24/4/1
f 29/4/1 27/4/1 26/4/1
f 30/4/1 28/4/1 24/4/1
f 31/4/1 28/4/1 30/4/1
f 32/4/1 28/4/1 31/4/1
f 33/4/1 27/4/1 29/4/1
f 34/4/1 27/4/1 33/4/1
f 35/4/1 27/4/1 34/4/1
f 36/2/1 32/2/1 31/2/1
f 36/2/1 34/2/1 33/2/1
f 36/2/1 33/2/1 32/2/1
f 37/2/1 34/2/1 36/2/1
f 38/2/1 34/2/1 37/2/1
f 40/2/1 36/2/1 31/2/1
f 42/2/1 40/2/1 31/2/1
f 43/2/1 40/2/1 42/2/1
f 44/1/1 42/1/1 41/1/1
f 45/1/1 42/1/1 44/1/1
f 46/1/1 39/1/1 38/1/1
f 47/1/1 46/1/1 45/1/1
f 48/1/1 39/1/1 46/1/1
f 48/1/1 46/1/1 47/1/1
f 51/6/1 50/6/1 49/6/1
f 52/6/1 50/6/1 51/6/1
f 55/2/1 54/2/1 53/2/1
f 56/2/1 54/2/1 55/2/1
f 58/1/1 57/1/1 56/1/1
f 59/1/1 57/1/1 58/1/1
f 62/1/1 61/1/1 60/1/1
f 63/1/1 61/1/1 62/1/1
f 66/1/1 65/1/1 64/1/1
f 67/1/1 65/1/1 66/1/1
f 70/1/1 69/1/1 68/1/1
f 71/1/1 69/1/1 70/1/1
f 75/6/1 73/6/1 72/6/1
f 76/6/1 73/6/1 75/6/1
f 78/5/1 75/5/1 74/5/1
f 78/5/1 77/5/1 76/5/1
f 78/5/1 76/5/1 75/5/1
f 79/5/1 77/5/1 78/5/1
f 82/4/1 81/4/1 80/4/1
f 83/4/1 81/4/1 82/4/1
f 86/1/1 85/1/1 84/1/1
f 87/1/1 85/1/1 86/1/1
f 90/1/1 89/1/1 88/1/1
f 91/1/1 89/1/1 90/1/1
f 92/1/2 93/1/2 94/1/2
f 94/1/2 93/1/2 95/1/2
f 96/6/2 97/6/2 99/6/2
f 99/6/2 97/6/2 100/6/2
f 98/5/2 99/5/2 102/5/2
f 100/5/2 101/5/2 102/5/2
f 99/5/2 100/5/2 102/5/2
f 102/5/2 101/5/2 103/5/2
f 104/4/2 105/4/2 106/4/2
f 106/4/2 105/4/2 107/4/2
f 108/1/2 109/1/2 110/1/2
f 110/1/2 109/1/2 111/1/2
f 112/6/2 113/6/2 114/6/2
f 114/6/2 113/6/2 115/6/2
f 116/1/2 117/1/2 118/1/2
f 118/1/2 117/1/2 119/1/2
f 120/1/2 121/1/2 122/1/2
f 122/1/2 121/1/2 123/1/2
f 124/5/2 125/5/2 127/5/2
f 127/5/2 125/5/2 128/5/2
f 128/5/2 125/5/2 129/5/2
f 129/5/2 125/5/2 130/5/2
f 126/5/2 127/5/2 132/5/2
f 127/5/2 128/5/2 132/5/2
f 132/5/2 128/5/2 133/5/2
f 130/5/2 131/5/2 134/5/2
f 129/5/2 130/5/2 134/5/2
f 134/5/2 131/5/2 135/5/2
f 134/4/2 135/4/2 136/4/2
f 136/4/2 135/4/2 137/4/2
f 132/4/2 133/4/2 138/4/2
f 137/4/2 135/4/2 139/4/2
f 139/4/2 135/4/2 140/4/2
f 132/4/2 138/4/2 142/4/2
f 142/4/2 138/4/2 143/4/2
f 143/4/2 138/4/2 144/4/2
f 140/1/2 141/1/2 147/1/2
f 145/2/2 146/2/2 148/2/2
f 143/2/2 144/2/2 148/2/2
f 144/2/2 145/2/2 148/2/2
f 148/2/2 146/2/2 149/2/2
f 146/1/2 147/1/2 150/1/2
f 147/1/2 141/1/2 150/1/2
f 150/1/2 141/1/2 151/1/2
f 143/2/2 148/2/2 152/2/2
f 149/2/2 146/2/2 153/2/2
f 146/1/2 150/1/2 154/1/2
f 153/2/2 146/2/2 154/2/2
f 154/1/2 150/1/2 155/1/2
f 143/2/2 152/2/2 158/2/2
f 158/2/2 152/2/2 159/2/2
f 157/1/2 158/1/2 160/1/2
f 160/1/2 158/1/2 161/1/2
f 154/1/2 155/1/2 162/1/2
f 155/1/2 156/1/2 162/1/2
f 162/1/2 156/1/2 163/1/2
f 163/1/2 156/1/2 164/1/2
f 161/1/2 162/1/2 165/1/2
f 162/1/2 163/1/2 165/1/2
f 165/1/2 163/1/2 166/1/2
f 167/2/2 168/2/2 169/2/2
f 167/2/2 169/2/2 171/2/2
f 169/1/2 170/1/2 172/1/2
f 171/2/2 169/2/2 172/2/2
f 172/1/2 170/1/2 173/1/2
f 171/4/2 172/4/2 175/4/2
f 173/1/2 174/1/2 176/1/2
f 175/4/2 172/4/2 176/4/2
f 172/1/2 173/1/2 176/1/2
f 176/1/2 174/1/2 177/1/2
f 178/3/2 179/3/2 180/3/2
f 180/3/2 179/3/2 181/3/2
f 180/1/2 181/1/2 184/1/2
f 181/1/2 182/1/2 184/1/2
f 183/1/2 184/1/2 185/1/2
f 184/1/2 182/1/2 186/1/2
f 185/1/2 184/1/2 186/1/2
f 192/1/3 191/1/3 190/1/3
f 193/1/3 191/1/3 192/1/3
f 194/4/3 189/4/3 188/4/3
f 195/4/3 189/4/3 194/4/3
f 196/4/3 194/4/3 188/4/3
f 200/5/3 188/5/3 187/5/3
f 201/4/3 197/4/3 196/4/3
f 201/5/3 188/5/3 200/5/3
f 201/4/3 196/4/3 188/4/3
f 202/4/3 197/4/3 201/4/3
f 203/1/3 199/1/3 198/1/3
f 204/1/3 199/1/3 203/1/3
f 210/1/3 206/1/3 205/1/3
f 211/1/3 206/1/3 210/1/3
f 213/2/3 210/2/3 209/2/3
f 214/2/3 210/2/3 213/2/3
f 215/2/3 210/2/3 214/2/3
f 216/1/3 212/1/3 211/1/3
f 217/5/3 208/5/3 207/5/3
f 218/5/3 208/5/3 217/5/3
f 220/2/3 213/2/3 209/2/3
f 221/6/3 214/6/3 213/6/3
f 221/2/3 213/2/3 220/2/3
f 222/2/3 216/2/3 215/2/3
f 222/6/3 214/6/3 221/6/3
f 222/2/3 215/2/3 214/2/3
f 223/1/3 212/1/3 216/1/3
f 223/2/3 216/2/3 222/2/3
f 224/1/3 212/1/3 223/1/3
f 225/2/3 221/2/3 220/2/3
f 225/2/3 223/2/3 222/2/3
f 225/2/3 220/2/3 219/2/3
f 225/2/3 222/2/3 221/2/3
f 229/2/3 225/2/3 219/2/3
f 230/2/3 225/2/3 229/2/3
f 231/2/3 225/2/3 230/2/3
f 232/2/3 225/2/3 231/2/3
f 233/2/3 225/2/3 232/2/3
f 234/1/3 226/1/3 225/1/3
f 234/2/3 225/2/3 233/2/3
f 235/2/3 231/2/3 230/2/3
f 235/6/3 232/6/3 231/6/3
f 236/2/3 233/2/3 232/2/3
f 236/6/3 232/6/3 235/6/3
f 237/5/3 228/5/3 227/5/3
f 238/5/3 228/5/3 237/5/3
f 239/2/3 235/2/3 230/2/3
f 239/2/3 236/2/3 235/2/3
f 240/2/3 233/2/3 236/2/3
f 240/2/3 236/2/3 239/2/3
f 241/1/3 226/1/3 234/1/3
f 242/1/3 226/1/3 241/1/3
f 243/1/3 241/1/3 240/1/3
f 244/1/3 241/1/3 243/1/3
f 251/2/3 246/2/3 245/2/3
f 252/2/3 246/2/3 251/2/3
f 253/4/3 247/4/3 246/4/3
f 253/2/3 246/2/3 252/2/3
f 254/4/3 247/4/3 253/4/3
f 255/3/3 249/3/3 248/3/3
f 256/1/3 250/1/3 249/1/3
f 256/3/3 249/3/3 255/3/3
f 257/1/3 250/1/3 256/1/3
f 260/6/3 259/6/3 258/6/3
f 261/6/3 259/6/3 260/6/3
f 264/1/3 263/1/3 262/1/3
f 265/1/3 263/1/3 264/1/3
f 268/6/3 267/6/3 266/6/3
f 269/6/3 267/6/3 268/6/3
f 277/2/3 271/2/3 270/2/3
f 277/2/3 272/2/3 271/2/3
f 278/4/3 273/4/3 272/4/3
f 278/2/3 272/2/3 277/2/3
f 279/4/3 273/4/3 278/4/3
f 280/3/3 275/3/3 274/3/3
f 281/1/3 276/1/3 275/1/3
f 281/3/3 275/3/3 280/3/3
f 282/1/3 276/1/3 281/1/3
f 283/2/4 284/2/4 286/2/4
f 286/2/4 284/2/4 287/2/4
f 284/4/4 285/4/4 288/4/4
f 287/2/4 284/2/4 288/2/4
f 288/4/4 285/4/4 289/4/4
f 290/6/4 291/6/4 292/6/4
f 292/6/4 291/6/4 293/6/4
f 294/6/4 295/6/4 296/6/4
f 296/6/4 295/6/4 297/6/4
f 299/2/4 300/2/4 303/2/4
f 298/2/4 299/2/4 303/2/4
f 303/2/4 300/2/4 304/2/4
f 301/3/4 302/3/4 305/3/4
f 305/3/4 302/3/4 306/3/4
f 307/1/4 308/1/4 312/1/4
f 312/1/4 308/1/4 313/1/4
f 311/2/4 312/2/4 314/2/4
f 314/2/4 312/2/4 315/2/4
f 309/5/4 310/5/4 316/5/4
f 316/5/4 310/5/4 317/5/4
f 318/5/4 319/5/4 320/5/4
f 320/5/4 319/5/4 321/5/4
f 322/1/4 323/1/4 326/1/4
f 326/1/4 323/1/4 327/1/4
f 324/1/4 325/1/4 328/1/4
f 328/1/4 325/1/4 329/1/4
f 331/4/4 332/4/4 335/4/4
f 333/1/4 334/1/4 336/1/4
f 336/1/4 334/1/4 337/1/4
f 337/1/4 334/1/4 338/1/4
f 338/1/4 334/1/4 339/1/4
f 331/4/4 335/4/4 340/4/4
f 335/2/4 336/2/4 340/2/4
f 340/2/4 336/2/4 341/2/4
f 331/4/4 340/4/4 342/4/4
f 342/4/4 340/4/4 343/4/4
f 330/5/4 331/5/4 348/5/4
f 331/4/4 342/4/4 349/4/4
f 348/5/4 331/5/4 349/5/4
f 349/4/4 342/4/4 350/4/4
f 344/1/4 345/1/4 352/1/4
f 352/1/4 345/1/4 353/1/4
f 346/1/4 347/1/4 354/1/4
f 354/1/4 347/1/4 355/1/4
f 350/1/4 351/1/4 356/1/4
f 356/1/4 351/1/4 357/1/4
f 358/1/4 359/1/4 360/1/4
f 358/1/4 360/1/4 363/1/4
f 360/1/4 361/1/4 363/1/4
f 362/1/4 363/1/4 365/1/4
f 363/1/4 361/1/4 366/1/4
f 365/1/4 363/1/4 366/1/4
f 366/1/4 361/1/4 367/1/4
f 367/1/4 361/1/4 368/1/4
f 368/1/4 361/1/4 369/1/4
f 364/1/4 365/1/4 370/1/4
f 365/1/4 366/1/4 370/1/4
f 370/1/4 366/1/4 371/1/4
f 367/1/4 368/1/4 372/1/4
f 372/1/4 368/1/4 373/1/4
f 378/6/5 375/6/5 374/6/5
f 379/6/5 375/6/5 378/6/5
f 380/6/5 377/6/5 376/6/5
f 381/6/5 377/6/5 380/6/5
f 386/5/5 383/5/5 382/5/5
f 387/5/5 383/5/5 386/5/5
f 388/5/5 385/5/5 384/5/5
f 389/5/5 385/5/5 388/5/5
f 390/5/5 386/5/5 382/5/5
f 393/5/5 385/5/5 389/5/5
f 394/5/5 391/5/5 390/5/5
f 394/5/5 390/5/5 382/5/5
f 395/5/5 391/5/5 394/5/5
f 396/5/5 393/5/5 392/5/5
f 397/5/5 385/5/5 393/5/5
f 397/5/5 393/5/5 396/5/5
f 400/5/5 399/5/5 398/5/5
f 401/5/5 399/5/5 400/5/5
f 402/5/5 399/5/5 401/5/5
f 403/5/5 399/5/5 402/5/5
f 408/2/5 405/2/5 404/2/5
f 409/2/5 405/2/5 408/2/5
f 410/2/5 407/2/5 406/2/5
f 411/2/5 407/2/5 410/2/5
f 413/5/5 402/5/5 401/5/5
f 414/5/5 402/5/5 413/5/5
f 416/5/5 413/5/5 412/5/5
f 416/5/5 415/5/5 414/5/5
f 416/5/5 414/5/5 413/5/5
f 417/5/5 415/5/5 416/5/5
f 420/1/5 419/1/5 418/1/5
f 421/1/5 419/1/5 420/1/5
f 425/1/5 423/1/5 422/1/5
f 426/1/5 423/1/5 425/1/5
f 427/1/5 425/1/5 424/1/5
f 428/1/5 425/1/5 427/1/5
f 431/1/5 430/1/5 429/1/5
f 432/1/5 430/1/5 431/1/5
f 437/3/5 434/3/5 433/3/5
f 438/3/5 434/3/5 437/3/5
f 439/3/5 436/3/5 435/3/5
f 440/3/5 436/3/5 439/3/5
f 441/1/5 438/1/5 437/1/5
f 442/1/5 438/1/5 441/1/5
f 444/1/5 443/1/5 442/1/5
f 445/1/5 443/1/5 444/1/5
f 447/1/5 446/1/5 445/1/5
f 448/1/5 446/1/5 447/1/5
f 451/1/5 450/1/5 449/1/5
f 452/1/5 450/1/5 451/1/5
f 455/1/5 454/1/5 453/1/5
f 456/1/5 454/1/5 455/1/5
f 462/1/5 458/1/5 457/1/5
f 463/1/5 458/1/5 462/1/5
f 464/1/5 460/1/5 459/1/5
f 465/1/5 460/1/5 464/1/5
f 467/1/5 462/1/5 461/1/5
f 468/1/5 462/1/5 467/1/5
f 469/1/5 466/1/5 465/1/5
f 470/1/5 466/1/5 469/1/5
f 471/4/6 472/4/6 473/4/6
f 473/4/6 472/4/6 474/4/6
f 475/4/6 476/4/6 479/4/6
f 479/4/6 476/4/6 480/4/6
f 477/4/6 478/4/6 481/4/6
f 481/4/6 478/4/6 482/4/6
f 483/4/6 484/4/6 487/4/6
f 487/4/6 484/4/6 488/4/6
f 485/4/6 486/4/6 489/4/6
f 489/4/6 486/4/6 490/4/6
f 489/1/6 490/1/6 493/1/6
f 491/4/6 492/4/6 494/4/6
f 494/4/6 492/4/6 495/4/6
f 493/1/6 490/1/6 496/1/6
f 496/1/6 490/1/6 497/1/6
f 498/1/6 499/1/6 500/1/6
f 500/1/6 499/1/6 501/1/6
f 502/1/6 503/1/6 507/1/6
f 507/1/6 503/1/6 508/1/6
f 504/1/6 505/1/6 511/1/6
f 511/1/6 505/1/6 512/1/6
f 509/2/6 510/2/6 514/2/6
f 514/2/6 510/2/6 515/2/6
f 506/1/6 507/1/6 516/1/6
f 516/1/6 507/1/6 517/1/6
f 512/1/6 513/1/6 518/1/6
f 518/1/6 513/1/6 519/1/6
f 520/1/6 521/1/6 524/1/6
f 524/1/6 521/1/6 525/1/6
f 522/1/6 523/1/6 526/1/6
f 526/1/6 523/1/6 527/1/6
f 528/1/6 529/1/6 532/1/6
f 530/1/6 531/1/6 533/1/6
f 528/1/6 532/1/6 534/1/6
f 532/1/6 533/1/6 534/1/6
f 534/1/6 533/1/6 535/1/6
f 533/1/6 531/1/6 536/1/6
f 535/1/6 533/1/6 536/1/6
f 536/1/6 531/1/6 537/1/6
f 535/1/6 536/1/6 538/1/6
f 538/1/6 536/1/6 539/1/6
