# MagicaVoxel @ Ephtracy

# material
mtllib env_grass1b.mtl
usemtl palette

# normals
vn -1 0 0
vn 1 0 0
vn 0 0 1
vn 0 0 -1
vn 0 -1 0
vn 0 1 0

# texcoords
vt 0.435547 0.5
vt 0.794922 0.5

# verts
v -16 0 16
v -16 0 -16
v -16 1 16
v -16 1 -16
v -13 1 13
v -13 1 12
v -13 2 13
v -13 2 12
v -6 1 9
v -6 1 8
v -6 2 9
v -6 2 8
v -5 1 3
v -5 1 2
v -5 2 3
v -5 2 2
v -4 1 -3
v -4 1 -4
v -4 2 -3
v -4 2 -4
v 1 1 -5
v 1 1 -6
v 1 2 -5
v 1 2 -6
v 3 1 5
v 3 1 4
v 3 2 5
v 3 2 4
v 5 1 -11
v 5 1 -12
v 5 2 -11
v 5 2 -12
v 9 1 6
v 9 1 5
v 9 2 6
v 9 2 5
v 10 1 -1
v 10 1 -2
v 10 1 -7
v 10 1 -8
v 10 2 -1
v 10 2 -2
v 10 2 -7
v 10 2 -8
v 11 1 16
v 11 1 15
v 11 2 16
v 11 2 15
v 13 1 12
v 13 1 11
v 13 2 12
v 13 2 11
v -12 1 13
v -12 1 12
v -12 2 13
v -12 2 12
v -5 1 9
v -5 1 8
v -5 2 9
v -5 2 8
v -4 1 3
v -4 1 2
v -4 2 3
v -4 2 2
v -3 1 -3
v -3 1 -4
v -3 2 -3
v -3 2 -4
v 2 1 -5
v 2 1 -6
v 2 2 -5
v 2 2 -6
v 4 1 5
v 4 1 4
v 4 2 5
v 4 2 4
v 6 1 -11
v 6 1 -12
v 6 2 -11
v 6 2 -12
v 10 1 6
v 10 1 5
v 10 2 6
v 10 2 5
v 11 1 -1
v 11 1 -2
v 11 1 -7
v 11 1 -8
v 11 2 -1
v 11 2 -2
v 11 2 -7
v 11 2 -8
v 12 1 16
v 12 1 15
v 12 2 16
v 12 2 15
v 14 1 12
v 14 1 11
v 14 2 12
v 14 2 11
v 16 0 16
v 16 0 -16
v 16 1 16
v 16 1 -16
v -16 0 16
v -16 1 16
v 11 1 16
v 11 2 16
v 12 1 16
v 12 2 16
v 16 0 16
v 16 1 16
v -13 1 13
v -13 2 13
v -12 1 13
v -12 2 13
v 13 1 12
v 13 2 12
v 14 1 12
v 14 2 12
v -6 1 9
v -6 2 9
v -5 1 9
v -5 2 9
v 9 1 6
v 9 2 6
v 10 1 6
v 10 2 6
v 3 1 5
v 3 2 5
v 4 1 5
v 4 2 5
v -5 1 3
v -5 2 3
v -4 1 3
v -4 2 3
v 10 1 -1
v 10 2 -1
v 11 1 -1
v 11 2 -1
v -4 1 -3
v -4 2 -3
v -3 1 -3
v -3 2 -3
v 1 1 -5
v 1 2 -5
v 2 1 -5
v 2 2 -5
v 10 1 -7
v 10 2 -7
v 11 1 -7
v 11 2 -7
v 5 1 -11
v 5 2 -11
v 6 1 -11
v 6 2 -11
v 11 1 15
v 11 2 15
v 12 1 15
v 12 2 15
v -13 1 12
v -13 2 12
v -12 1 12
v -12 2 12
v 13 1 11
v 13 2 11
v 14 1 11
v 14 2 11
v -6 1 8
v -6 2 8
v -5 1 8
v -5 2 8
v 9 1 5
v 9 2 5
v 10 1 5
v 10 2 5
v 3 1 4
v 3 2 4
v 4 1 4
v 4 2 4
v -5 1 2
v -5 2 2
v -4 1 2
v -4 2 2
v 10 1 -2
v 10 2 -2
v 11 1 -2
v 11 2 -2
v -4 1 -4
v -4 2 -4
v -3 1 -4
v -3 2 -4
v 1 1 -6
v 1 2 -6
v 2 1 -6
v 2 2 -6
v 10 1 -8
v 10 2 -8
v 11 1 -8
v 11 2 -8
v 5 1 -12
v 5 2 -12
v 6 1 -12
v 6 2 -12
v -16 0 -16
v -16 1 -16
v 16 0 -16
v 16 1 -16
v -16 0 16
v 16 0 16
v -6 0 9
v -5 0 9
v -6 0 8
v -5 0 8
v 9 0 6
v 10 0 6
v 9 0 5
v 10 0 5
v -4 0 -3
v -3 0 -3
v -4 0 -4
v -3 0 -4
v 1 0 -5
v 2 0 -5
v 1 0 -6
v 2 0 -6
v 10 0 -7
v 11 0 -7
v 10 0 -8
v 11 0 -8
v 5 0 -11
v 6 0 -11
v 5 0 -12
v 6 0 -12
v -16 0 -16
v 16 0 -16
v -16 1 16
v 11 1 16
v 12 1 16
v 16 1 16
v 11 1 15
v 12 1 15
v -13 1 13
v -12 1 13
v -13 1 12
v -12 1 12
v 13 1 12
v 14 1 12
v 13 1 11
v 14 1 11
v -6 1 9
v -5 1 9
v -6 1 8
v -5 1 8
v 9 1 6
v 10 1 6
v 3 1 5
v 4 1 5
v 9 1 5
v 10 1 5
v 3 1 4
v 4 1 4
v -5 1 3
v -4 1 3
v -5 1 2
v -4 1 2
v 10 1 -1
v 11 1 -1
v 10 1 -2
v 11 1 -2
v -4 1 -3
v -3 1 -3
v -4 1 -4
v -3 1 -4
v 1 1 -5
v 2 1 -5
v 1 1 -6
v 2 1 -6
v 10 1 -7
v 11 1 -7
v 10 1 -8
v 11 1 -8
v 5 1 -11
v 6 1 -11
v 5 1 -12
v 6 1 -12
v -16 1 -16
v 16 1 -16
v 11 2 16
v 12 2 16
v 11 2 15
v 12 2 15
v -13 2 13
v -12 2 13
v -13 2 12
v -12 2 12
v 13 2 12
v 14 2 12
v 13 2 11
v 14 2 11
v -6 2 9
v -5 2 9
v -6 2 8
v -5 2 8
v 9 2 6
v 10 2 6
v 3 2 5
v 4 2 5
v 9 2 5
v 10 2 5
v 3 2 4
v 4 2 4
v -5 2 3
v -4 2 3
v -5 2 2
v -4 2 2
v 10 2 -1
v 11 2 -1
v 10 2 -2
v 11 2 -2
v -4 2 -3
v -3 2 -3
v -4 2 -4
v -3 2 -4
v 1 2 -5
v 2 2 -5
v 1 2 -6
v 2 2 -6
v 10 2 -7
v 11 2 -7
v 10 2 -8
v 11 2 -8
v 5 2 -11
v 6 2 -11
v 5 2 -12
v 6 2 -12

# faces
f 3/2/1 2/2/1 1/2/1
f 4/2/1 2/2/1 3/2/1
f 7/2/1 6/2/1 5/2/1
f 8/2/1 6/2/1 7/2/1
f 11/2/1 10/2/1 9/2/1
f 12/2/1 10/2/1 11/2/1
f 15/2/1 14/2/1 13/2/1
f 16/2/1 14/2/1 15/2/1
f 19/2/1 18/2/1 17/2/1
f 20/2/1 18/2/1 19/2/1
f 23/2/1 22/2/1 21/2/1
f 24/2/1 22/2/1 23/2/1
f 27/2/1 26/2/1 25/2/1
f 28/2/1 26/2/1 27/2/1
f 31/2/1 30/2/1 29/2/1
f 32/2/1 30/2/1 31/2/1
f 35/2/1 34/2/1 33/2/1
f 36/2/1 34/2/1 35/2/1
f 41/2/1 38/2/1 37/2/1
f 42/2/1 38/2/1 41/2/1
f 43/2/1 40/2/1 39/2/1
f 44/2/1 40/2/1 43/2/1
f 47/2/1 46/2/1 45/2/1
f 48/2/1 46/2/1 47/2/1
f 51/2/1 50/2/1 49/2/1
f 52/2/1 50/2/1 51/2/1
f 53/2/2 54/2/2 55/2/2
f 55/2/2 54/2/2 56/2/2
f 57/2/2 58/2/2 59/2/2
f 59/2/2 58/2/2 60/2/2
f 61/2/2 62/2/2 63/2/2
f 63/2/2 62/2/2 64/2/2
f 65/2/2 66/2/2 67/2/2
f 67/2/2 66/2/2 68/2/2
f 69/2/2 70/2/2 71/2/2
f 71/2/2 70/2/2 72/2/2
f 73/2/2 74/2/2 75/2/2
f 75/2/2 74/2/2 76/2/2
f 77/2/2 78/2/2 79/2/2
f 79/2/2 78/2/2 80/2/2
f 81/2/2 82/2/2 83/2/2
f 83/2/2 82/2/2 84/2/2
f 85/2/2 86/2/2 89/2/2
f 89/2/2 86/2/2 90/2/2
f 87/2/2 88/2/2 91/2/2
f 91/2/2 88/2/2 92/2/2
f 93/2/2 94/2/2 95/2/2
f 95/2/2 94/2/2 96/2/2
f 97/2/2 98/2/2 99/2/2
f 99/2/2 98/2/2 100/2/2
f 101/2/2 102/2/2 103/2/2
f 103/2/2 102/2/2 104/2/2
f 107/2/3 106/2/3 105/2/3
f 109/2/3 107/2/3 105/2/3
f 109/2/3 108/2/3 107/2/3
f 110/2/3 108/2/3 109/2/3
f 111/2/3 109/2/3 105/2/3
f 112/2/3 109/2/3 111/2/3
f 115/2/3 114/2/3 113/2/3
f 116/2/3 114/2/3 115/2/3
f 119/2/3 118/2/3 117/2/3
f 120/2/3 118/2/3 119/2/3
f 123/2/3 122/2/3 121/2/3
f 124/2/3 122/2/3 123/2/3
f 127/2/3 126/2/3 125/2/3
f 128/2/3 126/2/3 127/2/3
f 131/2/3 130/2/3 129/2/3
f 132/2/3 130/2/3 131/2/3
f 135/2/3 134/2/3 133/2/3
f 136/2/3 134/2/3 135/2/3
f 139/2/3 138/2/3 137/2/3
f 140/2/3 138/2/3 139/2/3
f 143/2/3 142/2/3 141/2/3
f 144/2/3 142/2/3 143/2/3
f 147/2/3 146/2/3 145/2/3
f 148/2/3 146/2/3 147/2/3
f 151/2/3 150/2/3 149/2/3
f 152/2/3 150/2/3 151/2/3
f 155/2/3 154/2/3 153/2/3
f 156/2/3 154/2/3 155/2/3
f 157/2/4 158/2/4 159/2/4
f 159/2/4 158/2/4 160/2/4
f 161/2/4 162/2/4 163/2/4
f 163/2/4 162/2/4 164/2/4
f 165/2/4 166/2/4 167/2/4
f 167/2/4 166/2/4 168/2/4
f 169/2/4 170/2/4 171/2/4
f 171/2/4 170/2/4 172/2/4
f 173/2/4 174/2/4 175/2/4
f 175/2/4 174/2/4 176/2/4
f 177/2/4 178/2/4 179/2/4
f 179/2/4 178/2/4 180/2/4
f 181/2/4 182/2/4 183/2/4
f 183/2/4 182/2/4 184/2/4
f 185/2/4 186/2/4 187/2/4
f 187/2/4 186/2/4 188/2/4
f 189/2/4 190/2/4 191/2/4
f 191/2/4 190/2/4 192/2/4
f 193/2/4 194/2/4 195/2/4
f 195/2/4 194/2/4 196/2/4
f 197/2/4 198/2/4 199/2/4
f 199/2/4 198/2/4 200/2/4
f 201/2/4 202/2/4 203/2/4
f 203/2/4 202/2/4 204/2/4
f 205/2/4 206/2/4 207/2/4
f 207/2/4 206/2/4 208/2/4
f 211/2/5 210/2/5 209/2/5
f 212/2/5 210/2/5 211/2/5
f 213/2/5 211/2/5 209/2/5
f 213/1/5 212/1/5 211/1/5
f 214/2/5 210/2/5 212/2/5
f 214/1/5 212/1/5 213/1/5
f 215/2/5 214/2/5 213/2/5
f 215/2/5 210/2/5 214/2/5
f 216/2/5 210/2/5 215/2/5
f 217/2/5 215/2/5 213/2/5
f 217/1/5 216/1/5 215/1/5
f 218/2/5 210/2/5 216/2/5
f 218/1/5 216/1/5 217/1/5
f 219/2/5 217/2/5 213/2/5
f 219/2/5 218/2/5 217/2/5
f 220/2/5 218/2/5 219/2/5
f 221/2/5 219/2/5 213/2/5
f 221/1/5 220/1/5 219/1/5
f 222/2/5 218/2/5 220/2/5
f 222/1/5 220/1/5 221/1/5
f 223/2/5 222/2/5 221/2/5
f 223/2/5 218/2/5 222/2/5
f 224/2/5 218/2/5 223/2/5
f 225/2/5 223/2/5 221/2/5
f 225/1/5 224/1/5 223/1/5
f 226/2/5 218/2/5 224/2/5
f 226/1/5 224/1/5 225/1/5
f 227/2/5 210/2/5 218/2/5
f 227/2/5 218/2/5 226/2/5
f 227/2/5 226/2/5 225/2/5
f 228/2/5 210/2/5 227/2/5
f 229/2/5 227/2/5 225/2/5
f 229/1/5 228/1/5 227/1/5
f 230/2/5 210/2/5 228/2/5
f 230/1/5 228/1/5 229/1/5
f 231/2/5 229/2/5 225/2/5
f 231/2/5 230/2/5 229/2/5
f 232/2/5 230/2/5 231/2/5
f 233/2/5 231/2/5 225/2/5
f 233/1/5 232/1/5 231/1/5
f 234/2/5 230/2/5 232/2/5
f 234/1/5 232/1/5 233/1/5
f 235/2/5 213/2/5 209/2/5
f 235/2/5 225/2/5 221/2/5
f 235/2/5 234/2/5 233/2/5
f 235/2/5 233/2/5 225/2/5
f 235/2/5 221/2/5 213/2/5
f 236/2/5 230/2/5 234/2/5
f 236/2/5 234/2/5 235/2/5
f 236/2/5 210/2/5 230/2/5
f 237/2/6 238/2/6 241/2/6
f 239/2/6 240/2/6 242/2/6
f 237/2/6 241/2/6 243/2/6
f 241/2/6 242/2/6 243/2/6
f 243/2/6 242/2/6 244/2/6
f 237/2/6 243/2/6 245/2/6
f 244/2/6 242/2/6 246/2/6
f 242/2/6 240/2/6 247/2/6
f 246/2/6 242/2/6 247/2/6
f 247/2/6 240/2/6 248/2/6
f 245/2/6 246/2/6 249/2/6
f 246/2/6 247/2/6 249/2/6
f 248/2/6 240/2/6 250/2/6
f 245/2/6 249/2/6 251/2/6
f 249/2/6 250/2/6 251/2/6
f 251/2/6 250/2/6 252/2/6
f 245/2/6 251/2/6 253/2/6
f 252/2/6 250/2/6 254/2/6
f 254/2/6 250/2/6 255/2/6
f 253/2/6 254/2/6 255/2/6
f 255/2/6 250/2/6 256/2/6
f 253/2/6 255/2/6 257/2/6
f 257/2/6 255/2/6 258/2/6
f 258/2/6 255/2/6 259/2/6
f 256/2/6 250/2/6 260/2/6
f 253/2/6 257/2/6 261/2/6
f 258/2/6 259/2/6 262/2/6
f 259/2/6 260/2/6 262/2/6
f 253/2/6 261/2/6 263/2/6
f 261/2/6 262/2/6 263/2/6
f 263/2/6 262/2/6 264/2/6
f 253/2/6 263/2/6 265/2/6
f 264/2/6 262/2/6 266/2/6
f 262/2/6 260/2/6 267/2/6
f 265/2/6 266/2/6 267/2/6
f 266/2/6 262/2/6 267/2/6
f 260/2/6 250/2/6 267/2/6
f 267/2/6 250/2/6 268/2/6
f 265/2/6 267/2/6 269/2/6
f 268/2/6 250/2/6 270/2/6
f 265/2/6 269/2/6 271/2/6
f 269/2/6 270/2/6 271/2/6
f 271/2/6 270/2/6 272/2/6
f 265/2/6 271/2/6 273/2/6
f 272/2/6 270/2/6 274/2/6
f 274/2/6 270/2/6 275/2/6
f 273/2/6 274/2/6 275/2/6
f 275/2/6 270/2/6 276/2/6
f 273/2/6 275/2/6 277/2/6
f 276/2/6 270/2/6 278/2/6
f 278/2/6 270/2/6 279/2/6
f 277/2/6 278/2/6 279/2/6
f 270/2/6 250/2/6 280/2/6
f 279/2/6 270/2/6 280/2/6
f 277/2/6 279/2/6 281/2/6
f 280/2/6 250/2/6 282/2/6
f 277/2/6 281/2/6 283/2/6
f 281/2/6 282/2/6 283/2/6
f 283/2/6 282/2/6 284/2/6
f 277/2/6 283/2/6 285/2/6
f 284/2/6 282/2/6 286/2/6
f 237/2/6 245/2/6 287/2/6
f 285/2/6 286/2/6 287/2/6
f 245/2/6 253/2/6 287/2/6
f 253/2/6 265/2/6 287/2/6
f 277/2/6 285/2/6 287/2/6
f 265/2/6 273/2/6 287/2/6
f 273/2/6 277/2/6 287/2/6
f 250/2/6 240/2/6 288/2/6
f 287/2/6 286/2/6 288/2/6
f 286/2/6 282/2/6 288/2/6
f 282/2/6 250/2/6 288/2/6
f 289/2/6 290/2/6 291/2/6
f 291/2/6 290/2/6 292/2/6
f 293/2/6 294/2/6 295/2/6
f 295/2/6 294/2/6 296/2/6
f 297/2/6 298/2/6 299/2/6
f 299/2/6 298/2/6 300/2/6
f 301/2/6 302/2/6 303/2/6
f 303/2/6 302/2/6 304/2/6
f 305/2/6 306/2/6 309/2/6
f 309/2/6 306/2/6 310/2/6
f 307/2/6 308/2/6 311/2/6
f 311/2/6 308/2/6 312/2/6
f 313/2/6 314/2/6 315/2/6
f 315/2/6 314/2/6 316/2/6
f 317/2/6 318/2/6 319/2/6
f 319/2/6 318/2/6 320/2/6
f 321/2/6 322/2/6 323/2/6
f 323/2/6 322/2/6 324/2/6
f 325/2/6 326/2/6 327/2/6
f 327/2/6 326/2/6 328/2/6
f 329/2/6 330/2/6 331/2/6
f 331/2/6 330/2/6 332/2/6
f 333/2/6 334/2/6 335/2/6
f 335/2/6 334/2/6 336/2/6
