# MagicaVoxel @ Ephtracy

# material
mtllib mob_penguin.mtl
usemtl palette

# normals
vn -1 0 0
vn 1 0 0
vn 0 0 1
vn 0 0 -1
vn 0 -1 0
vn 0 1 0

# texcoords
vt 0.00195313 0.5
vt 0.00585938 0.5
vt 0.0371094 0.5
vt 0.986328 0.5
vt 0.990234 0.5

# verts
v -3 3 2
v -3 3 -0
v -3 6 2
v -3 6 -0
v -2 0 1
v -2 0 -0
v -2 0 -1
v -2 0 -2
v -2 1 2
v -2 1 1
v -2 1 -0
v -2 3 2
v -2 3 1
v -2 3 -0
v -2 5 -0
v -2 5 -1
v -2 6 2
v -2 6 -0
v -2 7 2
v -2 7 1
v -2 7 -1
v -2 7 -2
v -2 8 1
v -2 8 -0
v -2 9 2
v -2 9 -1
v -1 0 -2
v -1 0 -3
v -1 1 -2
v -1 1 -3
v -1 7 3
v -1 7 2
v -1 8 3
v -1 8 2
v 1 0 1
v 1 0 -0
v 1 0 -1
v 1 1 1
v 1 1 -0
v 1 1 -1
v -1 0 1
v -1 0 -0
v -1 0 -1
v -1 1 1
v -1 1 -0
v -1 1 -1
v 1 0 -2
v 1 0 -3
v 1 1 -2
v 1 1 -3
v 1 7 3
v 1 7 2
v 1 8 3
v 1 8 2
v 2 0 1
v 2 0 -0
v 2 0 -1
v 2 0 -2
v 2 1 2
v 2 1 1
v 2 1 -0
v 2 3 2
v 2 3 1
v 2 3 -0
v 2 5 -0
v 2 5 -1
v 2 6 2
v 2 6 -0
v 2 7 2
v 2 7 1
v 2 7 -1
v 2 7 -2
v 2 8 1
v 2 8 -0
v 2 9 2
v 2 9 -1
v 3 3 2
v 3 3 -0
v 3 6 2
v 3 6 -0
v -1 7 3
v -1 8 3
v 1 7 3
v 1 8 3
v -3 3 2
v -3 6 2
v -2 1 2
v -2 3 2
v -2 6 2
v -2 7 2
v -2 9 2
v -1 6 2
v -1 7 2
v -1 8 2
v 1 6 2
v 1 7 2
v 1 8 2
v 2 1 2
v 2 3 2
v 2 6 2
v 2 7 2
v 2 9 2
v 3 3 2
v 3 6 2
v -2 0 1
v -2 1 1
v -1 0 1
v -1 1 1
v 1 0 1
v 1 1 1
v 2 0 1
v 2 1 1
v -1 0 -1
v -1 1 -1
v 1 0 -1
v 1 1 -1
v -3 3 -0
v -3 6 -0
v -2 3 -0
v -2 5 -0
v -2 6 -0
v 2 3 -0
v 2 5 -0
v 2 6 -0
v 3 3 -0
v 3 6 -0
v -2 7 -1
v -2 9 -1
v 2 7 -1
v 2 9 -1
v -2 0 -2
v -2 7 -2
v -1 0 -2
v -1 1 -2
v 1 0 -2
v 1 1 -2
v 2 0 -2
v 2 7 -2
v -1 0 -3
v -1 1 -3
v 1 0 -3
v 1 1 -3
v -2 0 1
v -1 0 1
v 1 0 1
v 2 0 1
v -2 0 -0
v -1 0 -0
v 1 0 -0
v 2 0 -0
v -2 0 -1
v -1 0 -1
v 1 0 -1
v 2 0 -1
v -2 0 -2
v -1 0 -2
v 1 0 -2
v 2 0 -2
v -1 0 -3
v 1 0 -3
v -2 1 2
v 2 1 2
v -2 1 1
v -1 1 1
v 1 1 1
v 2 1 1
v -1 1 -0
v 1 1 -0
v -1 1 -1
v 1 1 -1
v -3 3 2
v -2 3 2
v 2 3 2
v 3 3 2
v -2 3 1
v 2 3 1
v -3 3 -0
v -2 3 -0
v 2 3 -0
v 3 3 -0
v -1 7 3
v 1 7 3
v -1 7 2
v 1 7 2
v -1 1 -2
v 1 1 -2
v -1 1 -3
v 1 1 -3
v -3 6 2
v -2 6 2
v 2 6 2
v 3 6 2
v -3 6 -0
v -2 6 -0
v 2 6 -0
v 3 6 -0
v -2 7 -1
v 2 7 -1
v -2 7 -2
v 2 7 -2
v -1 8 3
v 1 8 3
v -1 8 2
v 1 8 2
v -2 9 2
v 2 9 2
v -2 9 -1
v 2 9 -1

# faces
f 3/5/1 2/5/1 1/5/1
f 4/5/1 2/5/1 3/5/1
f 10/5/1 6/5/1 5/5/1
f 11/2/1 7/2/1 6/2/1
f 11/5/1 6/5/1 10/5/1
f 12/1/1 10/1/1 9/1/1
f 13/2/1 11/2/1 10/2/1
f 13/1/1 10/1/1 12/1/1
f 14/2/1 7/2/1 11/2/1
f 14/2/1 11/2/1 13/2/1
f 15/2/1 7/2/1 14/2/1
f 16/5/1 8/5/1 7/5/1
f 16/2/1 7/2/1 15/2/1
f 18/5/1 16/5/1 15/5/1
f 19/3/1 18/3/1 17/3/1
f 20/3/1 18/3/1 19/3/1
f 21/5/1 8/5/1 16/5/1
f 21/5/1 16/5/1 18/5/1
f 22/5/1 8/5/1 21/5/1
f 23/3/1 18/3/1 20/3/1
f 23/5/1 20/5/1 19/5/1
f 24/5/1 21/5/1 18/5/1
f 24/3/1 18/3/1 23/3/1
f 25/5/1 23/5/1 19/5/1
f 25/5/1 24/5/1 23/5/1
f 26/5/1 21/5/1 24/5/1
f 26/5/1 24/5/1 25/5/1
f 29/5/1 28/5/1 27/5/1
f 30/5/1 28/5/1 29/5/1
f 33/4/1 32/4/1 31/4/1
f 34/4/1 32/4/1 33/4/1
f 38/5/1 36/5/1 35/5/1
f 39/2/1 37/2/1 36/2/1
f 39/5/1 36/5/1 38/5/1
f 40/2/1 37/2/1 39/2/1
f 41/5/2 42/5/2 44/5/2
f 42/2/2 43/2/2 45/2/2
f 44/5/2 42/5/2 45/5/2
f 45/2/2 43/2/2 46/2/2
f 47/5/2 48/5/2 49/5/2
f 49/5/2 48/5/2 50/5/2
f 51/4/2 52/4/2 53/4/2
f 53/4/2 52/4/2 54/4/2
f 55/5/2 56/5/2 60/5/2
f 56/2/2 57/2/2 61/2/2
f 60/5/2 56/5/2 61/5/2
f 59/1/2 60/1/2 62/1/2
f 60/2/2 61/2/2 63/2/2
f 62/1/2 60/1/2 63/1/2
f 61/2/2 57/2/2 64/2/2
f 63/2/2 61/2/2 64/2/2
f 64/2/2 57/2/2 65/2/2
f 57/5/2 58/5/2 66/5/2
f 65/2/2 57/2/2 66/2/2
f 65/5/2 66/5/2 68/5/2
f 67/3/2 68/3/2 69/3/2
f 69/3/2 68/3/2 70/3/2
f 66/5/2 58/5/2 71/5/2
f 68/5/2 66/5/2 71/5/2
f 71/5/2 58/5/2 72/5/2
f 70/3/2 68/3/2 73/3/2
f 69/5/2 70/5/2 73/5/2
f 68/5/2 71/5/2 74/5/2
f 73/3/2 68/3/2 74/3/2
f 69/5/2 73/5/2 75/5/2
f 73/5/2 74/5/2 75/5/2
f 74/5/2 71/5/2 76/5/2
f 75/5/2 74/5/2 76/5/2
f 77/5/2 78/5/2 79/5/2
f 79/5/2 78/5/2 80/5/2
f 83/4/3 82/4/3 81/4/3
f 84/4/3 82/4/3 83/4/3
f 88/5/3 86/5/3 85/5/3
f 89/5/3 86/5/3 88/5/3
f 92/1/3 88/1/3 87/1/3
f 92/1/3 89/1/3 88/1/3
f 92/3/3 90/3/3 89/3/3
f 93/5/3 91/5/3 90/5/3
f 93/3/3 90/3/3 92/3/3
f 94/5/3 91/5/3 93/5/3
f 95/1/3 92/1/3 87/1/3
f 95/1/3 93/1/3 92/1/3
f 96/1/3 93/1/3 95/1/3
f 97/5/3 91/5/3 94/5/3
f 98/1/3 95/1/3 87/1/3
f 99/1/3 95/1/3 98/1/3
f 100/3/3 96/3/3 95/3/3
f 100/1/3 95/1/3 99/1/3
f 101/5/3 97/5/3 96/5/3
f 101/3/3 96/3/3 100/3/3
f 102/5/3 91/5/3 97/5/3
f 102/5/3 97/5/3 101/5/3
f 103/5/3 100/5/3 99/5/3
f 104/5/3 100/5/3 103/5/3
f 107/5/3 106/5/3 105/5/3
f 108/5/3 106/5/3 107/5/3
f 111/5/3 110/5/3 109/5/3
f 112/5/3 110/5/3 111/5/3
f 115/5/3 114/5/3 113/5/3
f 116/5/3 114/5/3 115/5/3
f 117/5/4 118/5/4 119/5/4
f 119/5/4 118/5/4 120/5/4
f 120/5/4 118/5/4 121/5/4
f 122/5/4 123/5/4 125/5/4
f 123/5/4 124/5/4 125/5/4
f 125/5/4 124/5/4 126/5/4
f 127/5/4 128/5/4 129/5/4
f 129/5/4 128/5/4 130/5/4
f 131/5/4 132/5/4 133/5/4
f 133/5/4 132/5/4 134/5/4
f 134/5/4 132/5/4 136/5/4
f 135/5/4 136/5/4 137/5/4
f 136/5/4 132/5/4 138/5/4
f 137/5/4 136/5/4 138/5/4
f 139/5/4 140/5/4 141/5/4
f 141/5/4 140/5/4 142/5/4
f 147/5/5 144/5/5 143/5/5
f 148/5/5 144/5/5 147/5/5
f 149/5/5 146/5/5 145/5/5
f 150/5/5 146/5/5 149/5/5
f 151/2/5 148/2/5 147/2/5
f 152/2/5 148/2/5 151/2/5
f 153/2/5 150/2/5 149/2/5
f 154/2/5 150/2/5 153/2/5
f 155/5/5 152/5/5 151/5/5
f 155/5/5 153/5/5 152/5/5
f 155/5/5 154/5/5 153/5/5
f 156/5/5 154/5/5 155/5/5
f 157/5/5 154/5/5 156/5/5
f 158/5/5 154/5/5 157/5/5
f 159/5/5 157/5/5 156/5/5
f 160/5/5 157/5/5 159/5/5
f 163/1/5 162/1/5 161/1/5
f 164/1/5 162/1/5 163/1/5
f 165/1/5 162/1/5 164/1/5
f 166/1/5 162/1/5 165/1/5
f 167/2/5 165/2/5 164/2/5
f 168/2/5 165/2/5 167/2/5
f 169/2/5 168/2/5 167/2/5
f 170/2/5 168/2/5 169/2/5
f 175/5/5 172/5/5 171/5/5
f 176/5/5 174/5/5 173/5/5
f 177/5/5 175/5/5 171/5/5
f 178/5/5 175/5/5 177/5/5
f 179/5/5 174/5/5 176/5/5
f 180/5/5 174/5/5 179/5/5
f 183/4/5 182/4/5 181/4/5
f 184/4/5 182/4/5 183/4/5
f 185/5/6 186/5/6 187/5/6
f 187/5/6 186/5/6 188/5/6
f 189/5/6 190/5/6 193/5/6
f 193/5/6 190/5/6 194/5/6
f 191/5/6 192/5/6 195/5/6
f 195/5/6 192/5/6 196/5/6
f 197/5/6 198/5/6 199/5/6
f 199/5/6 198/5/6 200/5/6
f 201/4/6 202/4/6 203/4/6
f 203/4/6 202/4/6 204/4/6
f 205/5/6 206/5/6 207/5/6
f 207/5/6 206/5/6 208/5/6
