# MagicaVoxel @ Ephtracy

# material
mtllib mob_cat4.mtl
usemtl palette

# normals
vn -1 0 0
vn 1 0 0
vn 0 0 1
vn 0 0 -1
vn 0 -1 0
vn 0 1 0

# texcoords
vt 0.169922 0.5
vt 0.369141 0.5
vt 0.537109 0.5

# verts
v -3 1 3.5
v -3 1 2.5
v -3 2 2.5
v -3 2 1.5
v -3 3 3.5
v -3 3 2.5
v -3 3 1.5
v -3 3 0.5
v -3 4 2.5
v -3 4 0.5
v -2 0 4.5
v -2 0 -4.5
v -2 1 4.5
v -2 1 3.5
v -2 1 2.5
v -2 1 -0.5
v -2 1 -2.5
v -2 2 5.5
v -2 2 3.5
v -2 2 2.5
v -2 2 1.5
v -2 2 -0.5
v -2 3 3.5
v -2 3 2.5
v -2 3 1.5
v -2 3 0.5
v -2 3 -2.5
v -2 3 -4.5
v -2 4 5.5
v -2 4 4.5
v -2 4 2.5
v -2 4 0.5
v -2 4 -4.5
v -2 5 5.5
v -2 5 4.5
v -2 5 1.5
v -2 5 0.5
v -2 6 5.5
v -2 6 3.5
v -2 6 2.5
v -2 6 1.5
v -2 7 3.5
v -2 7 2.5
v 0 0 -4.5
v 0 0 -5.5
v 0 3 -4.5
v 0 3 -5.5
v 1 0 4.5
v 1 0 2.5
v 1 1 4.5
v 1 1 3.5
v 1 1 2.5
v 1 6 3.5
v 1 6 2.5
v 1 7 3.5
v 1 7 2.5
v -1 0 4.5
v -1 0 2.5
v -1 1 4.5
v -1 1 3.5
v -1 1 2.5
v -1 6 3.5
v -1 6 2.5
v -1 7 3.5
v -1 7 2.5
v 1 1 -4.5
v 1 1 -5.5
v 1 3 -4.5
v 1 3 -5.5
v 2 0 4.5
v 2 0 0.5
v 2 1 4.5
v 2 1 3.5
v 2 1 2.5
v 2 1 0.5
v 2 1 -1.5
v 2 1 -2.5
v 2 1 -3.5
v 2 1 -4.5
v 2 2 5.5
v 2 2 3.5
v 2 2 2.5
v 2 2 1.5
v 2 2 0.5
v 2 2 -1.5
v 2 3 3.5
v 2 3 2.5
v 2 3 1.5
v 2 3 0.5
v 2 3 -3.5
v 2 3 -4.5
v 2 4 5.5
v 2 4 4.5
v 2 4 2.5
v 2 4 0.5
v 2 4 -4.5
v 2 5 5.5
v 2 5 4.5
v 2 5 1.5
v 2 5 0.5
v 2 6 5.5
v 2 6 3.5
v 2 6 2.5
v 2 6 1.5
v 2 7 3.5
v 2 7 2.5
v 3 0 0.5
v 3 0 -2.5
v 3 0 -5.5
v 3 1 3.5
v 3 1 2.5
v 3 1 0.5
v 3 1 -2.5
v 3 1 -5.5
v 3 2 2.5
v 3 2 1.5
v 3 3 3.5
v 3 3 2.5
v 3 3 1.5
v 3 3 0.5
v 3 4 2.5
v 3 4 0.5
v -2 2 5.5
v -2 4 5.5
v -2 5 5.5
v -2 6 5.5
v -1 4 5.5
v -1 5 5.5
v 1 4 5.5
v 1 5 5.5
v 2 2 5.5
v 2 4 5.5
v 2 5 5.5
v 2 6 5.5
v -2 0 4.5
v -2 1 4.5
v -1 0 4.5
v -1 1 4.5
v 1 0 4.5
v 1 1 4.5
v 2 0 4.5
v 2 1 4.5
v -3 1 3.5
v -3 3 3.5
v -2 1 3.5
v -2 2 3.5
v -2 3 3.5
v -2 6 3.5
v -2 7 3.5
v -1 1 3.5
v -1 6 3.5
v -1 7 3.5
v 1 1 3.5
v 1 6 3.5
v 1 7 3.5
v 2 1 3.5
v 2 2 3.5
v 2 3 3.5
v 2 6 3.5
v 2 7 3.5
v 3 1 3.5
v 3 3 3.5
v -3 3 2.5
v -3 4 2.5
v -2 3 2.5
v -2 4 2.5
v -1 0 2.5
v -1 1 2.5
v 1 0 2.5
v 1 1 2.5
v 2 3 2.5
v 2 4 2.5
v 3 3 2.5
v 3 4 2.5
v 2 0 0.5
v 2 1 0.5
v 3 0 0.5
v 3 1 0.5
v -3 1 2.5
v -3 2 2.5
v -2 1 2.5
v -2 2 2.5
v -2 6 2.5
v -2 7 2.5
v -1 6 2.5
v -1 7 2.5
v 1 6 2.5
v 1 7 2.5
v 2 1 2.5
v 2 2 2.5
v 2 6 2.5
v 2 7 2.5
v 3 1 2.5
v 3 2 2.5
v -3 2 1.5
v -3 3 1.5
v -2 2 1.5
v -2 3 1.5
v -2 5 1.5
v -2 6 1.5
v -1 5 1.5
v -1 6 1.5
v 1 5 1.5
v 1 6 1.5
v 2 2 1.5
v 2 3 1.5
v 2 5 1.5
v 2 6 1.5
v 3 2 1.5
v 3 3 1.5
v -3 3 0.5
v -3 4 0.5
v -2 3 0.5
v -2 4 0.5
v -2 5 0.5
v -1 4 0.5
v -1 5 0.5
v 1 4 0.5
v 1 5 0.5
v 2 3 0.5
v 2 4 0.5
v 2 5 0.5
v 3 3 0.5
v 3 4 0.5
v -2 0 -4.5
v -2 3 -4.5
v -2 4 -4.5
v 0 0 -4.5
v 0 3 -4.5
v 1 1 -4.5
v 1 3 -4.5
v 2 1 -4.5
v 2 3 -4.5
v 2 4 -4.5
v 0 0 -5.5
v 0 3 -5.5
v 1 1 -5.5
v 1 3 -5.5
v 3 0 -5.5
v 3 1 -5.5
v -2 0 4.5
v -1 0 4.5
v 1 0 4.5
v 2 0 4.5
v -1 0 2.5
v 1 0 2.5
v 2 0 0.5
v 3 0 0.5
v 2 0 -2.5
v 3 0 -2.5
v -2 0 -4.5
v 0 0 -4.5
v 2 0 -4.5
v 0 0 -5.5
v 3 0 -5.5
v -3 1 3.5
v -2 1 3.5
v -1 1 3.5
v 1 1 3.5
v 2 1 3.5
v 3 1 3.5
v -3 1 2.5
v -2 1 2.5
v -1 1 2.5
v 1 1 2.5
v 2 1 2.5
v 3 1 2.5
v -2 2 5.5
v 2 2 5.5
v -2 2 3.5
v 2 2 3.5
v -3 2 2.5
v -2 2 2.5
v 2 2 2.5
v 3 2 2.5
v -3 2 1.5
v -2 2 1.5
v 2 2 1.5
v 3 2 1.5
v -3 3 1.5
v -2 3 1.5
v 2 3 1.5
v 3 3 1.5
v -3 3 0.5
v -2 3 0.5
v 2 3 0.5
v 3 3 0.5
v -2 1 4.5
v -1 1 4.5
v 1 1 4.5
v 2 1 4.5
v -2 1 3.5
v -1 1 3.5
v 1 1 3.5
v 2 1 3.5
v 2 1 0.5
v 3 1 0.5
v 2 1 -1.5
v 2 1 -2.5
v 3 1 -2.5
v 2 1 -3.5
v 1 1 -4.5
v 2 1 -4.5
v 1 1 -5.5
v 3 1 -5.5
v -3 3 3.5
v -2 3 3.5
v 2 3 3.5
v 3 3 3.5
v -3 3 2.5
v -2 3 2.5
v 2 3 2.5
v 3 3 2.5
v 0 3 -4.5
v 1 3 -4.5
v 0 3 -5.5
v 1 3 -5.5
v -3 4 2.5
v -2 4 2.5
v 2 4 2.5
v 3 4 2.5
v -3 4 0.5
v -2 4 0.5
v -1 4 0.5
v 1 4 0.5
v 2 4 0.5
v 3 4 0.5
v -2 4 -4.5
v 2 4 -4.5
v -2 5 1.5
v -1 5 1.5
v 1 5 1.5
v 2 5 1.5
v -2 5 0.5
v -1 5 0.5
v 1 5 0.5
v 2 5 0.5
v -2 6 5.5
v 2 6 5.5
v -1 6 4.5
v 1 6 4.5
v -2 6 3.5
v -1 6 3.5
v 1 6 3.5
v 2 6 3.5
v -2 6 2.5
v -1 6 2.5
v 1 6 2.5
v 2 6 2.5
v -2 6 1.5
v -1 6 1.5
v 1 6 1.5
v 2 6 1.5
v -2 7 3.5
v -1 7 3.5
v 1 7 3.5
v 2 7 3.5
v -2 7 2.5
v -1 7 2.5
v 1 7 2.5
v 2 7 2.5

# faces
f 3/2/1 2/2/1 1/2/1
f 5/2/1 3/2/1 1/2/1
f 5/2/1 4/2/1 3/2/1
f 6/2/1 4/2/1 5/2/1
f 7/2/1 4/2/1 6/2/1
f 9/2/1 8/2/1 7/2/1
f 9/2/1 7/2/1 6/2/1
f 10/2/1 8/2/1 9/2/1
f 13/2/1 12/2/1 11/2/1
f 14/2/1 12/2/1 13/2/1
f 15/2/1 12/2/1 14/2/1
f 16/2/1 12/2/1 15/2/1
f 17/2/1 12/2/1 16/2/1
f 20/2/1 16/2/1 15/2/1
f 21/2/1 16/2/1 20/2/1
f 22/3/1 17/3/1 16/3/1
f 22/2/1 16/2/1 21/2/1
f 23/2/1 19/2/1 18/2/1
f 25/3/1 22/3/1 21/3/1
f 26/3/1 22/3/1 25/3/1
f 27/2/1 12/2/1 17/2/1
f 27/3/1 22/3/1 26/3/1
f 27/3/1 17/3/1 22/3/1
f 28/2/1 12/2/1 27/2/1
f 29/2/1 24/2/1 23/2/1
f 29/2/1 23/2/1 18/2/1
f 30/2/1 24/2/1 29/2/1
f 31/2/1 24/2/1 30/2/1
f 32/3/1 28/3/1 27/3/1
f 32/3/1 27/3/1 26/3/1
f 33/3/1 28/3/1 32/3/1
f 34/1/1 30/1/1 29/1/1
f 35/2/1 31/2/1 30/2/1
f 35/1/1 30/1/1 34/1/1
f 35/2/1 32/2/1 31/2/1
f 36/2/1 32/2/1 35/2/1
f 37/2/1 32/2/1 36/2/1
f 38/2/1 35/2/1 34/2/1
f 38/2/1 36/2/1 35/2/1
f 39/2/1 36/2/1 38/2/1
f 40/2/1 36/2/1 39/2/1
f 41/2/1 36/2/1 40/2/1
f 42/2/1 40/2/1 39/2/1
f 43/2/1 40/2/1 42/2/1
f 46/3/1 45/3/1 44/3/1
f 47/3/1 45/3/1 46/3/1
f 50/2/1 49/2/1 48/2/1
f 51/2/1 49/2/1 50/2/1
f 52/2/1 49/2/1 51/2/1
f 55/2/1 54/2/1 53/2/1
f 56/2/1 54/2/1 55/2/1
f 57/2/2 58/2/2 59/2/2
f 59/2/2 58/2/2 60/2/2
f 60/2/2 58/2/2 61/2/2
f 62/2/2 63/2/2 64/2/2
f 64/2/2 63/2/2 65/2/2
f 66/3/2 67/3/2 68/3/2
f 68/3/2 67/3/2 69/3/2
f 70/2/2 71/2/2 72/2/2
f 72/2/2 71/2/2 73/2/2
f 73/2/2 71/2/2 74/2/2
f 74/2/2 71/2/2 75/2/2
f 74/2/2 75/2/2 82/2/2
f 75/2/2 76/2/2 82/2/2
f 82/2/2 76/2/2 83/2/2
f 83/2/2 76/2/2 84/2/2
f 77/3/2 78/3/2 85/3/2
f 84/2/2 76/2/2 85/2/2
f 76/3/2 77/3/2 85/3/2
f 80/2/2 81/2/2 86/2/2
f 83/2/2 84/2/2 88/2/2
f 84/3/2 85/3/2 89/3/2
f 88/2/2 84/2/2 89/2/2
f 78/2/2 79/2/2 90/2/2
f 89/3/2 85/3/2 90/3/2
f 85/3/2 78/3/2 90/3/2
f 90/2/2 79/2/2 91/2/2
f 86/2/2 87/2/2 92/2/2
f 80/2/2 86/2/2 92/2/2
f 92/2/2 87/2/2 93/2/2
f 93/2/2 87/2/2 94/2/2
f 90/3/2 91/3/2 95/3/2
f 89/3/2 90/3/2 95/3/2
f 95/3/2 91/3/2 96/3/2
f 92/1/2 93/1/2 97/1/2
f 93/2/2 94/2/2 98/2/2
f 97/1/2 93/1/2 98/1/2
f 94/2/2 95/2/2 98/2/2
f 98/2/2 95/2/2 99/2/2
f 99/2/2 95/2/2 100/2/2
f 97/2/2 98/2/2 101/2/2
f 98/2/2 99/2/2 101/2/2
f 101/2/2 99/2/2 102/2/2
f 102/2/2 99/2/2 103/2/2
f 103/2/2 99/2/2 104/2/2
f 102/2/2 103/2/2 105/2/2
f 105/2/2 103/2/2 106/2/2
f 107/2/2 108/2/2 112/2/2
f 108/3/2 109/3/2 113/3/2
f 112/2/2 108/2/2 113/2/2
f 113/3/2 109/3/2 114/3/2
f 110/2/2 111/2/2 115/2/2
f 110/2/2 115/2/2 117/2/2
f 115/2/2 116/2/2 117/2/2
f 117/2/2 116/2/2 118/2/2
f 118/2/2 116/2/2 119/2/2
f 119/2/2 120/2/2 121/2/2
f 118/2/2 119/2/2 121/2/2
f 121/2/2 120/2/2 122/2/2
f 127/2/3 124/2/3 123/2/3
f 127/1/3 125/1/3 124/1/3
f 128/2/3 126/2/3 125/2/3
f 128/1/3 125/1/3 127/1/3
f 129/2/3 127/2/3 123/2/3
f 129/2/3 128/2/3 127/2/3
f 130/2/3 126/2/3 128/2/3
f 130/2/3 128/2/3 129/2/3
f 131/2/3 129/2/3 123/2/3
f 132/1/3 130/1/3 129/1/3
f 132/2/3 129/2/3 131/2/3
f 133/2/3 126/2/3 130/2/3
f 133/1/3 130/1/3 132/1/3
f 134/2/3 126/2/3 133/2/3
f 137/2/3 136/2/3 135/2/3
f 138/2/3 136/2/3 137/2/3
f 141/2/3 140/2/3 139/2/3
f 142/2/3 140/2/3 141/2/3
f 145/2/3 144/2/3 143/2/3
f 146/2/3 144/2/3 145/2/3
f 147/2/3 144/2/3 146/2/3
f 150/2/3 146/2/3 145/2/3
f 151/2/3 149/2/3 148/2/3
f 152/2/3 149/2/3 151/2/3
f 153/2/3 146/2/3 150/2/3
f 156/2/3 146/2/3 153/2/3
f 157/2/3 146/2/3 156/2/3
f 159/2/3 155/2/3 154/2/3
f 160/2/3 155/2/3 159/2/3
f 161/2/3 158/2/3 157/2/3
f 161/2/3 157/2/3 156/2/3
f 162/2/3 158/2/3 161/2/3
f 165/2/3 164/2/3 163/2/3
f 166/2/3 164/2/3 165/2/3
f 169/2/3 168/2/3 167/2/3
f 170/2/3 168/2/3 169/2/3
f 173/2/3 172/2/3 171/2/3
f 174/2/3 172/2/3 173/2/3
f 177/2/3 176/2/3 175/2/3
f 178/2/3 176/2/3 177/2/3
f 179/2/4 180/2/4 181/2/4
f 181/2/4 180/2/4 182/2/4
f 183/2/4 184/2/4 185/2/4
f 185/2/4 184/2/4 186/2/4
f 187/2/4 188/2/4 191/2/4
f 191/2/4 188/2/4 192/2/4
f 189/2/4 190/2/4 193/2/4
f 193/2/4 190/2/4 194/2/4
f 195/2/4 196/2/4 197/2/4
f 197/2/4 196/2/4 198/2/4
f 199/2/4 200/2/4 201/2/4
f 201/2/4 200/2/4 202/2/4
f 201/3/4 202/3/4 203/3/4
f 203/3/4 202/3/4 204/3/4
f 203/2/4 204/2/4 207/2/4
f 207/2/4 204/2/4 208/2/4
f 205/2/4 206/2/4 209/2/4
f 209/2/4 206/2/4 210/2/4
f 211/2/4 212/2/4 213/2/4
f 213/2/4 212/2/4 214/2/4
f 214/2/4 215/2/4 216/2/4
f 216/2/4 215/2/4 217/2/4
f 216/3/4 217/3/4 218/3/4
f 218/3/4 217/3/4 219/3/4
f 218/2/4 219/2/4 221/2/4
f 221/2/4 219/2/4 222/2/4
f 220/2/4 221/2/4 223/2/4
f 223/2/4 221/2/4 224/2/4
f 225/2/4 226/2/4 228/2/4
f 226/3/4 227/3/4 229/3/4
f 228/2/4 226/2/4 229/2/4
f 229/3/4 227/3/4 231/3/4
f 230/2/4 231/2/4 232/2/4
f 231/3/4 227/3/4 233/3/4
f 232/2/4 231/2/4 233/2/4
f 233/3/4 227/3/4 234/3/4
f 235/3/4 236/3/4 237/3/4
f 237/3/4 236/3/4 238/3/4
f 235/3/4 237/3/4 239/3/4
f 239/3/4 237/3/4 240/3/4
f 245/2/5 242/2/5 241/2/5
f 246/2/5 244/2/5 243/2/5
f 247/2/5 244/2/5 246/2/5
f 247/2/5 246/2/5 245/2/5
f 249/2/5 247/2/5 245/2/5
f 249/2/5 248/2/5 247/2/5
f 250/2/5 248/2/5 249/2/5
f 251/2/5 245/2/5 241/2/5
f 251/2/5 249/2/5 245/2/5
f 252/2/5 249/2/5 251/2/5
f 253/3/5 250/3/5 249/3/5
f 253/2/5 249/2/5 252/2/5
f 254/3/5 253/3/5 252/3/5
f 255/3/5 250/3/5 253/3/5
f 255/3/5 253/3/5 254/3/5
f 262/2/5 257/2/5 256/2/5
f 263/2/5 257/2/5 262/2/5
f 264/2/5 259/2/5 258/2/5
f 265/2/5 259/2/5 264/2/5
f 266/2/5 261/2/5 260/2/5
f 267/2/5 261/2/5 266/2/5
f 270/2/5 269/2/5 268/2/5
f 271/2/5 269/2/5 270/2/5
f 276/2/5 273/2/5 272/2/5
f 277/2/5 273/2/5 276/2/5
f 278/2/5 275/2/5 274/2/5
f 279/2/5 275/2/5 278/2/5
f 284/2/5 281/2/5 280/2/5
f 285/2/5 281/2/5 284/2/5
f 286/2/5 283/2/5 282/2/5
f 287/2/5 283/2/5 286/2/5
f 288/2/6 289/2/6 292/2/6
f 292/2/6 289/2/6 293/2/6
f 290/2/6 291/2/6 294/2/6
f 294/2/6 291/2/6 295/2/6
f 296/2/6 297/2/6 298/2/6
f 298/2/6 297/2/6 299/2/6
f 299/2/6 297/2/6 300/2/6
f 299/3/6 300/3/6 301/3/6
f 301/3/6 300/3/6 303/3/6
f 302/3/6 303/3/6 304/3/6
f 303/3/6 300/3/6 305/3/6
f 304/3/6 303/3/6 305/3/6
f 306/2/6 307/2/6 310/2/6
f 310/2/6 307/2/6 311/2/6
f 308/2/6 309/2/6 312/2/6
f 312/2/6 309/2/6 313/2/6
f 314/3/6 315/3/6 316/3/6
f 316/3/6 315/3/6 317/3/6
f 318/2/6 319/2/6 322/2/6
f 322/2/6 319/2/6 323/2/6
f 320/2/6 321/2/6 326/2/6
f 326/2/6 321/2/6 327/2/6
f 324/3/6 325/3/6 328/3/6
f 325/3/6 326/3/6 328/3/6
f 323/3/6 324/3/6 328/3/6
f 328/3/6 326/3/6 329/3/6
f 330/2/6 331/2/6 334/2/6
f 331/3/6 332/3/6 335/3/6
f 334/2/6 331/2/6 335/2/6
f 332/2/6 333/2/6 336/2/6
f 335/3/6 332/3/6 336/3/6
f 336/2/6 333/2/6 337/2/6
f 338/2/6 339/2/6 340/2/6
f 340/2/6 339/2/6 341/2/6
f 338/2/6 340/2/6 342/2/6
f 340/3/6 341/3/6 343/3/6
f 342/2/6 340/2/6 343/2/6
f 341/2/6 339/2/6 344/2/6
f 343/3/6 341/3/6 344/3/6
f 344/2/6 339/2/6 345/2/6
f 343/3/6 344/3/6 347/3/6
f 347/3/6 344/3/6 348/3/6
f 346/2/6 347/2/6 350/2/6
f 347/3/6 348/3/6 351/3/6
f 350/2/6 347/2/6 351/2/6
f 348/2/6 349/2/6 352/2/6
f 351/3/6 348/3/6 352/3/6
f 352/2/6 349/2/6 353/2/6
f 354/2/6 355/2/6 358/2/6
f 358/2/6 355/2/6 359/2/6
f 356/2/6 357/2/6 360/2/6
f 360/2/6 357/2/6 361/2/6
