# MagicaVoxel @ Ephtracy

# material
mtllib mob_cat2.mtl
usemtl palette

# normals
vn -1 0 0
vn 1 0 0
vn 0 0 1
vn 0 0 -1
vn 0 -1 0
vn 0 1 0

# texcoords
vt 0.146484 0.5
vt 0.974609 0.5
vt 0.978516 0.5

# verts
v -4.5 0 7
v -4.5 0 6
v -4.5 0 -6
v -4.5 1 7
v -4.5 1 6
v -4.5 1 4
v -4.5 1 2
v -4.5 1 -0
v -4.5 1 -1
v -4.5 1 -2
v -4.5 1 -3
v -4.5 1 -4
v -4.5 1 -5
v -4.5 2 -1
v -4.5 2 -2
v -4.5 3 -0
v -4.5 3 -2
v -4.5 3 -3
v -4.5 3 -4
v -4.5 4 4
v -4.5 4 2
v -4.5 4 -2
v -4.5 4 -5
v -4.5 4 -6
v -3.5 2 6
v -3.5 2 4
v -3.5 4 6
v -3.5 4 5
v -3.5 4 4
v -3.5 4 2
v -3.5 4 -0
v -3.5 5 6
v -3.5 5 5
v -3.5 5 1
v -3.5 5 -0
v -3.5 6 6
v -3.5 6 4
v -3.5 6 3
v -3.5 6 1
v -3.5 7 4
v -3.5 7 3
v -2.5 1 5
v -2.5 1 4
v -2.5 2 5
v -2.5 2 4
v -1.5 0 -6
v -1.5 0 -7
v -1.5 3 -6
v -1.5 3 -7
v -0.5 0 7
v -0.5 0 6
v -0.5 0 5
v -0.5 1 7
v -0.5 1 6
v -0.5 1 5
v -0.5 6 4
v -0.5 6 3
v -0.5 7 4
v -0.5 7 3
v 2.5 0 -2
v 2.5 0 -4
v 2.5 2 -2
v 2.5 2 -4
v -2.5 0 7
v -2.5 0 6
v -2.5 0 5
v -2.5 1 7
v -2.5 1 6
v -2.5 1 5
v -2.5 6 4
v -2.5 6 3
v -2.5 7 4
v -2.5 7 3
v -0.5 1 5
v -0.5 1 4
v -0.5 2 5
v -0.5 2 4
v 0.5 2 6
v 0.5 2 4
v 0.5 2 -6
v 0.5 2 -7
v 0.5 3 -6
v 0.5 3 -7
v 0.5 4 6
v 0.5 4 5
v 0.5 4 4
v 0.5 4 2
v 0.5 4 -0
v 0.5 5 6
v 0.5 5 5
v 0.5 5 1
v 0.5 5 -0
v 0.5 6 6
v 0.5 6 4
v 0.5 6 3
v 0.5 6 1
v 0.5 7 4
v 0.5 7 3
v 1.5 0 7
v 1.5 0 6
v 1.5 0 -4
v 1.5 1 7
v 1.5 1 6
v 1.5 1 4
v 1.5 1 2
v 1.5 1 -0
v 1.5 1 -1
v 1.5 1 -2
v 1.5 1 -3
v 1.5 2 -1
v 1.5 2 -2
v 1.5 2 -4
v 1.5 2 -5
v 1.5 2 -6
v 1.5 3 -0
v 1.5 3 -1
v 1.5 3 -3
v 1.5 3 -4
v 1.5 3 -5
v 1.5 3 -6
v 1.5 4 4
v 1.5 4 2
v 1.5 4 -1
v 1.5 4 -4
v 1.5 4 -5
v 1.5 4 -6
v 2.5 0 -6
v 2.5 0 -7
v 2.5 2 -6
v 2.5 2 -7
v 4.5 0 -2
v 4.5 0 -4
v 4.5 0 -6
v 4.5 2 -2
v 4.5 2 -4
v 4.5 2 -6
v -4.5 0 7
v -4.5 1 7
v -2.5 0 7
v -2.5 1 7
v -0.5 0 7
v -0.5 1 7
v 1.5 0 7
v 1.5 1 7
v -3.5 2 6
v -3.5 4 6
v -3.5 5 6
v -3.5 6 6
v -2.5 4 6
v -2.5 5 6
v -0.5 4 6
v -0.5 5 6
v 0.5 2 6
v 0.5 4 6
v 0.5 5 6
v 0.5 6 6
v -2.5 0 5
v -2.5 1 5
v -2.5 2 5
v -0.5 0 5
v -0.5 1 5
v -0.5 2 5
v -4.5 1 4
v -4.5 4 4
v -3.5 1 4
v -3.5 2 4
v -3.5 4 4
v -3.5 6 4
v -3.5 7 4
v -2.5 1 4
v -2.5 2 4
v -2.5 6 4
v -2.5 7 4
v -0.5 1 4
v -0.5 2 4
v -0.5 6 4
v -0.5 7 4
v 0.5 1 4
v 0.5 2 4
v 0.5 4 4
v 0.5 6 4
v 0.5 7 4
v 1.5 1 4
v 1.5 4 4
v 2.5 0 -2
v 2.5 2 -2
v 4.5 0 -2
v 4.5 2 -2
v 1.5 0 -4
v 1.5 2 -4
v 2.5 0 -4
v 2.5 2 -4
v -3.5 6 3
v -3.5 7 3
v -2.5 6 3
v -2.5 7 3
v -0.5 6 3
v -0.5 7 3
v 0.5 6 3
v 0.5 7 3
v -3.5 5 1
v -3.5 6 1
v -2.5 5 1
v -2.5 6 1
v -0.5 5 1
v -0.5 6 1
v 0.5 5 1
v 0.5 6 1
v -3.5 4 -0
v -3.5 5 -0
v -2.5 4 -0
v -2.5 5 -0
v -0.5 4 -0
v -0.5 5 -0
v 0.5 4 -0
v 0.5 5 -0
v -4.5 0 -6
v -4.5 4 -6
v -2.5 3 -6
v -2.5 4 -6
v -1.5 0 -6
v -1.5 3 -6
v 0.5 2 -6
v 0.5 3 -6
v 1.5 2 -6
v 1.5 3 -6
v 1.5 4 -6
v 2.5 0 -6
v 2.5 2 -6
v 4.5 0 -6
v 4.5 2 -6
v -1.5 0 -7
v -1.5 3 -7
v 0.5 2 -7
v 0.5 3 -7
v 2.5 0 -7
v 2.5 2 -7
v -4.5 0 7
v -2.5 0 7
v -0.5 0 7
v 1.5 0 7
v -4.5 0 6
v -2.5 0 6
v -0.5 0 6
v 1.5 0 6
v -2.5 0 5
v -0.5 0 5
v 2.5 0 -2
v 4.5 0 -2
v 1.5 0 -4
v 2.5 0 -4
v 4.5 0 -4
v -4.5 0 -6
v -1.5 0 -6
v 2.5 0 -6
v 4.5 0 -6
v -1.5 0 -7
v 2.5 0 -7
v -3.5 2 6
v 0.5 2 6
v -2.5 2 5
v -0.5 2 5
v -3.5 2 4
v -2.5 2 4
v -0.5 2 4
v 0.5 2 4
v -4.5 1 7
v -2.5 1 7
v -0.5 1 7
v 1.5 1 7
v -4.5 1 6
v -2.5 1 6
v -0.5 1 6
v 1.5 1 6
v -2.5 1 5
v -0.5 1 5
v -4.5 1 4
v -3.5 1 4
v -2.5 1 4
v -0.5 1 4
v 0.5 1 4
v 1.5 1 4
v 2.5 2 -2
v 4.5 2 -2
v 1.5 2 -4
v 2.5 2 -4
v 4.5 2 -4
v 1.5 2 -5
v 0.5 2 -6
v 1.5 2 -6
v 2.5 2 -6
v 4.5 2 -6
v 0.5 2 -7
v 2.5 2 -7
v -1.5 3 -6
v 0.5 3 -6
v -1.5 3 -7
v 0.5 3 -7
v -4.5 4 4
v -3.5 4 4
v 0.5 4 4
v 1.5 4 4
v -4.5 4 2
v -3.5 4 2
v 0.5 4 2
v 1.5 4 2
v -3.5 4 -0
v -2.5 4 -0
v -0.5 4 -0
v 0.5 4 -0
v -0.5 4 -1
v 1.5 4 -1
v -4.5 4 -2
v -2.5 4 -2
v -0.5 4 -4
v 1.5 4 -4
v -4.5 4 -5
v -2.5 4 -5
v -0.5 4 -5
v 1.5 4 -5
v -4.5 4 -6
v -2.5 4 -6
v 1.5 4 -6
v -3.5 5 1
v -2.5 5 1
v -0.5 5 1
v 0.5 5 1
v -3.5 5 -0
v -2.5 5 -0
v -0.5 5 -0
v 0.5 5 -0
v -3.5 6 6
v 0.5 6 6
v -3.5 6 4
v -2.5 6 4
v -0.5 6 4
v 0.5 6 4
v -3.5 6 3
v -2.5 6 3
v -0.5 6 3
v 0.5 6 3
v -2.5 6 2
v -0.5 6 2
v -3.5 6 1
v -2.5 6 1
v -0.5 6 1
v 0.5 6 1
v -3.5 7 4
v -2.5 7 4
v -0.5 7 4
v 0.5 7 4
v -3.5 7 3
v -2.5 7 3
v -0.5 7 3
v 0.5 7 3

# faces
f 4/3/1 2/3/1 1/3/1
f 5/2/1 3/2/1 2/2/1
f 5/3/1 2/3/1 4/3/1
f 6/2/1 3/2/1 5/2/1
f 7/2/1 3/2/1 6/2/1
f 8/2/1 3/2/1 7/2/1
f 9/2/1 3/2/1 8/2/1
f 10/2/1 3/2/1 9/2/1
f 11/2/1 3/2/1 10/2/1
f 12/2/1 3/2/1 11/2/1
f 13/2/1 3/2/1 12/2/1
f 14/3/1 9/3/1 8/3/1
f 14/2/1 10/2/1 9/2/1
f 15/3/1 11/3/1 10/3/1
f 15/2/1 10/2/1 14/2/1
f 16/2/1 8/2/1 7/2/1
f 16/3/1 14/3/1 8/3/1
f 16/3/1 15/3/1 14/3/1
f 17/3/1 11/3/1 15/3/1
f 17/3/1 15/3/1 16/3/1
f 18/2/1 12/2/1 11/2/1
f 18/3/1 11/3/1 17/3/1
f 19/3/1 13/3/1 12/3/1
f 19/2/1 12/2/1 18/2/1
f 20/3/1 7/3/1 6/3/1
f 21/2/1 16/2/1 7/2/1
f 21/3/1 7/3/1 20/3/1
f 21/2/1 17/2/1 16/2/1
f 22/3/1 18/3/1 17/3/1
f 22/2/1 17/2/1 21/2/1
f 22/3/1 19/3/1 18/3/1
f 23/2/1 3/2/1 13/2/1
f 23/3/1 19/3/1 22/3/1
f 23/3/1 13/3/1 19/3/1
f 24/2/1 3/2/1 23/2/1
f 27/2/1 26/2/1 25/2/1
f 28/2/1 26/2/1 27/2/1
f 29/2/1 26/2/1 28/2/1
f 32/1/1 28/1/1 27/1/1
f 33/2/1 31/2/1 30/2/1
f 33/1/1 28/1/1 32/1/1
f 33/2/1 29/2/1 28/2/1
f 33/2/1 30/2/1 29/2/1
f 34/2/1 31/2/1 33/2/1
f 35/2/1 31/2/1 34/2/1
f 36/2/1 33/2/1 32/2/1
f 36/2/1 34/2/1 33/2/1
f 37/2/1 34/2/1 36/2/1
f 38/2/1 34/2/1 37/2/1
f 39/2/1 34/2/1 38/2/1
f 40/3/1 38/3/1 37/3/1
f 41/3/1 38/3/1 40/3/1
f 44/2/1 43/2/1 42/2/1
f 45/2/1 43/2/1 44/2/1
f 48/2/1 47/2/1 46/2/1
f 49/2/1 47/2/1 48/2/1
f 53/3/1 51/3/1 50/3/1
f 54/2/1 52/2/1 51/2/1
f 54/3/1 51/3/1 53/3/1
f 55/2/1 52/2/1 54/2/1
f 58/3/1 57/3/1 56/3/1
f 59/3/1 57/3/1 58/3/1
f 62/3/1 61/3/1 60/3/1
f 63/3/1 61/3/1 62/3/1
f 64/3/2 65/3/2 67/3/2
f 65/2/2 66/2/2 68/2/2
f 67/3/2 65/3/2 68/3/2
f 68/2/2 66/2/2 69/2/2
f 70/3/2 71/3/2 72/3/2
f 72/3/2 71/3/2 73/3/2
f 74/2/2 75/2/2 76/2/2
f 76/2/2 75/2/2 77/2/2
f 80/2/2 81/2/2 82/2/2
f 82/2/2 81/2/2 83/2/2
f 78/2/2 79/2/2 84/2/2
f 84/2/2 79/2/2 85/2/2
f 85/2/2 79/2/2 86/2/2
f 84/1/2 85/1/2 89/1/2
f 87/2/2 88/2/2 90/2/2
f 89/1/2 85/1/2 90/1/2
f 85/2/2 86/2/2 90/2/2
f 86/2/2 87/2/2 90/2/2
f 90/2/2 88/2/2 91/2/2
f 91/2/2 88/2/2 92/2/2
f 89/2/2 90/2/2 93/2/2
f 90/2/2 91/2/2 93/2/2
f 93/2/2 91/2/2 94/2/2
f 94/2/2 91/2/2 95/2/2
f 95/2/2 91/2/2 96/2/2
f 94/3/2 95/3/2 97/3/2
f 97/3/2 95/3/2 98/3/2
f 99/3/2 100/3/2 102/3/2
f 100/2/2 101/2/2 103/2/2
f 102/3/2 100/3/2 103/3/2
f 103/2/2 101/2/2 104/2/2
f 104/2/2 101/2/2 105/2/2
f 105/2/2 101/2/2 106/2/2
f 106/2/2 101/2/2 107/2/2
f 107/2/2 101/2/2 108/2/2
f 108/2/2 101/2/2 109/2/2
f 106/3/2 107/3/2 110/3/2
f 107/2/2 108/2/2 110/2/2
f 108/3/2 109/3/2 111/3/2
f 110/2/2 108/2/2 111/2/2
f 109/2/2 101/2/2 112/2/2
f 106/3/2 110/3/2 115/3/2
f 105/2/2 106/2/2 115/2/2
f 110/3/2 111/3/2 115/3/2
f 115/3/2 111/3/2 116/3/2
f 111/3/2 109/3/2 117/3/2
f 116/3/2 111/3/2 117/3/2
f 109/2/2 112/2/2 117/2/2
f 112/3/2 113/3/2 118/3/2
f 117/2/2 112/2/2 118/2/2
f 113/2/2 114/2/2 119/2/2
f 118/3/2 113/3/2 119/3/2
f 119/2/2 114/2/2 120/2/2
f 104/3/2 105/3/2 121/3/2
f 115/2/2 116/2/2 122/2/2
f 121/3/2 105/3/2 122/3/2
f 105/2/2 115/2/2 122/2/2
f 117/3/2 118/3/2 123/3/2
f 122/2/2 116/2/2 123/2/2
f 116/3/2 117/3/2 123/3/2
f 118/2/2 119/2/2 124/2/2
f 123/3/2 118/3/2 124/3/2
f 119/3/2 120/3/2 125/3/2
f 124/2/2 119/2/2 125/2/2
f 125/3/2 120/3/2 126/3/2
f 127/2/2 128/2/2 129/2/2
f 129/2/2 128/2/2 130/2/2
f 131/3/2 132/3/2 134/3/2
f 132/2/2 133/2/2 135/2/2
f 134/3/2 132/3/2 135/3/2
f 135/2/2 133/2/2 136/2/2
f 139/3/3 138/3/3 137/3/3
f 140/3/3 138/3/3 139/3/3
f 143/3/3 142/3/3 141/3/3
f 144/3/3 142/3/3 143/3/3
f 149/2/3 146/2/3 145/2/3
f 149/1/3 147/1/3 146/1/3
f 150/2/3 148/2/3 147/2/3
f 150/1/3 147/1/3 149/1/3
f 151/2/3 149/2/3 145/2/3
f 151/2/3 150/2/3 149/2/3
f 152/2/3 148/2/3 150/2/3
f 152/2/3 150/2/3 151/2/3
f 153/2/3 151/2/3 145/2/3
f 154/1/3 152/1/3 151/1/3
f 154/2/3 151/2/3 153/2/3
f 155/2/3 148/2/3 152/2/3
f 155/1/3 152/1/3 154/1/3
f 156/2/3 148/2/3 155/2/3
f 160/2/3 158/2/3 157/2/3
f 160/2/3 159/2/3 158/2/3
f 161/2/3 159/2/3 160/2/3
f 162/2/3 159/2/3 161/2/3
f 165/3/3 164/3/3 163/3/3
f 166/3/3 164/3/3 165/3/3
f 167/3/3 164/3/3 166/3/3
f 170/2/3 166/2/3 165/2/3
f 171/2/3 166/2/3 170/2/3
f 172/3/3 169/3/3 168/3/3
f 173/3/3 169/3/3 172/3/3
f 178/2/3 175/2/3 174/2/3
f 179/2/3 175/2/3 178/2/3
f 181/3/3 177/3/3 176/3/3
f 182/3/3 177/3/3 181/3/3
f 183/3/3 180/3/3 179/3/3
f 183/3/3 179/3/3 178/3/3
f 184/3/3 180/3/3 183/3/3
f 187/3/3 186/3/3 185/3/3
f 188/3/3 186/3/3 187/3/3
f 191/2/3 190/2/3 189/2/3
f 192/2/3 190/2/3 191/2/3
f 193/3/4 194/3/4 195/3/4
f 195/3/4 194/3/4 196/3/4
f 197/3/4 198/3/4 199/3/4
f 199/3/4 198/3/4 200/3/4
f 201/2/4 202/2/4 203/2/4
f 203/2/4 202/2/4 204/2/4
f 203/3/4 204/3/4 205/3/4
f 205/3/4 204/3/4 206/3/4
f 205/2/4 206/2/4 207/2/4
f 207/2/4 206/2/4 208/2/4
f 209/2/4 210/2/4 211/2/4
f 211/2/4 210/2/4 212/2/4
f 211/3/4 212/3/4 213/3/4
f 213/3/4 212/3/4 214/3/4
f 213/2/4 214/2/4 215/2/4
f 215/2/4 214/2/4 216/2/4
f 217/2/4 218/2/4 219/2/4
f 219/2/4 218/2/4 220/2/4
f 217/2/4 219/2/4 221/2/4
f 219/3/4 220/3/4 222/3/4
f 221/2/4 219/2/4 222/2/4
f 222/3/4 220/3/4 224/3/4
f 223/2/4 224/2/4 225/2/4
f 224/3/4 220/3/4 226/3/4
f 225/2/4 224/2/4 226/2/4
f 226/3/4 220/3/4 227/3/4
f 228/2/4 229/2/4 230/2/4
f 230/2/4 229/2/4 231/2/4
f 232/2/4 233/2/4 234/2/4
f 234/2/4 233/2/4 235/2/4
f 232/2/4 234/2/4 236/2/4
f 236/2/4 234/2/4 237/2/4
f 242/3/5 239/3/5 238/3/5
f 243/3/5 239/3/5 242/3/5
f 244/3/5 241/3/5 240/3/5
f 245/3/5 241/3/5 244/3/5
f 246/2/5 243/2/5 242/2/5
f 247/2/5 245/2/5 244/2/5
f 250/2/5 247/2/5 246/2/5
f 250/2/5 245/2/5 247/2/5
f 251/3/5 249/3/5 248/3/5
f 252/3/5 249/3/5 251/3/5
f 253/2/5 250/2/5 246/2/5
f 253/2/5 246/2/5 242/2/5
f 253/2/5 252/2/5 251/2/5
f 253/2/5 251/2/5 250/2/5
f 254/2/5 252/2/5 253/2/5
f 255/2/5 252/2/5 254/2/5
f 256/2/5 252/2/5 255/2/5
f 257/2/5 255/2/5 254/2/5
f 258/2/5 255/2/5 257/2/5
f 261/2/5 260/2/5 259/2/5
f 262/2/5 260/2/5 261/2/5
f 263/2/5 261/2/5 259/2/5
f 264/2/5 261/2/5 263/2/5
f 265/2/5 260/2/5 262/2/5
f 266/2/5 260/2/5 265/2/5
f 267/3/6 268/3/6 271/3/6
f 271/3/6 268/3/6 272/3/6
f 269/3/6 270/3/6 273/3/6
f 273/3/6 270/3/6 274/3/6
f 271/2/6 272/2/6 275/2/6
f 273/2/6 274/2/6 276/2/6
f 271/2/6 275/2/6 277/2/6
f 277/2/6 275/2/6 278/2/6
f 278/2/6 275/2/6 279/2/6
f 276/2/6 274/2/6 280/2/6
f 280/2/6 274/2/6 281/2/6
f 281/2/6 274/2/6 282/2/6
f 283/3/6 284/3/6 286/3/6
f 286/3/6 284/3/6 287/3/6
f 285/2/6 286/2/6 288/2/6
f 286/2/6 287/2/6 288/2/6
f 288/2/6 287/2/6 290/2/6
f 290/2/6 287/2/6 291/2/6
f 291/2/6 287/2/6 292/2/6
f 289/2/6 290/2/6 293/2/6
f 290/2/6 291/2/6 293/2/6
f 293/2/6 291/2/6 294/2/6
f 295/2/6 296/2/6 297/2/6
f 297/2/6 296/2/6 298/2/6
f 299/3/6 300/3/6 303/3/6
f 303/3/6 300/3/6 304/3/6
f 301/3/6 302/3/6 305/3/6
f 305/3/6 302/3/6 306/3/6
f 303/2/6 304/2/6 307/2/6
f 305/2/6 306/2/6 310/2/6
f 308/3/6 309/3/6 311/3/6
f 309/2/6 310/2/6 311/2/6
f 310/2/6 306/2/6 312/2/6
f 311/2/6 310/2/6 312/2/6
f 303/2/6 307/2/6 313/2/6
f 307/2/6 308/2/6 313/2/6
f 308/3/6 311/3/6 314/3/6
f 313/2/6 308/2/6 314/2/6
f 311/3/6 312/3/6 314/3/6
f 313/3/6 314/3/6 315/3/6
f 314/3/6 312/3/6 315/3/6
f 315/3/6 312/3/6 316/3/6
f 313/3/6 315/3/6 317/3/6
f 317/3/6 315/3/6 318/3/6
f 315/2/6 316/2/6 319/2/6
f 318/3/6 315/3/6 319/3/6
f 319/2/6 316/2/6 320/2/6
f 317/2/6 318/2/6 321/2/6
f 318/3/6 319/3/6 322/3/6
f 321/2/6 318/2/6 322/2/6
f 319/3/6 320/3/6 322/3/6
f 322/3/6 320/3/6 323/3/6
f 324/2/6 325/2/6 328/2/6
f 325/3/6 326/3/6 329/3/6
f 328/2/6 325/2/6 329/2/6
f 326/2/6 327/2/6 330/2/6
f 329/3/6 326/3/6 330/3/6
f 330/2/6 327/2/6 331/2/6
f 332/2/6 333/2/6 334/2/6
f 334/2/6 333/2/6 335/2/6
f 335/2/6 333/2/6 336/2/6
f 336/2/6 333/2/6 337/2/6
f 335/2/6 336/2/6 339/2/6
f 339/2/6 336/2/6 340/2/6
f 338/2/6 339/2/6 342/2/6
f 340/2/6 341/2/6 342/2/6
f 339/2/6 340/2/6 342/2/6
f 342/2/6 341/2/6 343/2/6
f 338/2/6 342/2/6 344/2/6
f 342/3/6 343/3/6 345/3/6
f 344/2/6 342/2/6 345/2/6
f 343/2/6 341/2/6 346/2/6
f 345/3/6 343/3/6 346/3/6
f 346/2/6 341/2/6 347/2/6
f 348/3/6 349/3/6 352/3/6
f 352/3/6 349/3/6 353/3/6
f 350/3/6 351/3/6 354/3/6
f 354/3/6 351/3/6 355/3/6
