# MagicaVoxel @ Ephtracy

# material
mtllib obj_mushroom1.mtl
usemtl palette

# normals
vn -1 0 0
vn 1 0 0
vn 0 0 1
vn 0 0 -1
vn 0 -1 0
vn 0 1 0

# texcoords
vt 0.849609 0.5
vt 0.958984 0.5
vt 0.962891 0.5

# verts
v -1.5 1 1.5
v -1.5 1 0.5
v -1.5 1 -0.5
v -1.5 1 -1.5
v -1.5 2 1.5
v -1.5 2 0.5
v -1.5 2 -0.5
v -1.5 2 -1.5
v -0.5 0 0.5
v -0.5 0 -0.5
v -0.5 1 0.5
v -0.5 1 -0.5
v 0.5 0 0.5
v 0.5 0 -0.5
v 0.5 1 0.5
v 0.5 1 -0.5
v 1.5 1 1.5
v 1.5 1 0.5
v 1.5 1 -1.5
v 1.5 2 1.5
v 1.5 2 0.5
v 1.5 2 -1.5
v -1.5 1 1.5
v -1.5 2 1.5
v 0.5 1 1.5
v 0.5 2 1.5
v 1.5 1 1.5
v 1.5 2 1.5
v -0.5 0 0.5
v -0.5 1 0.5
v 0.5 0 0.5
v 0.5 1 0.5
v -0.5 0 -0.5
v -0.5 1 -0.5
v 0.5 0 -0.5
v 0.5 1 -0.5
v -1.5 1 -1.5
v -1.5 2 -1.5
v -0.5 1 -1.5
v -0.5 2 -1.5
v 0.5 1 -1.5
v 0.5 2 -1.5
v 1.5 1 -1.5
v 1.5 2 -1.5
v -0.5 0 0.5
v 0.5 0 0.5
v -0.5 0 -0.5
v 0.5 0 -0.5
v -1.5 1 1.5
v 0.5 1 1.5
v 1.5 1 1.5
v -1.5 1 0.5
v -0.5 1 0.5
v 0.5 1 0.5
v 1.5 1 0.5
v -1.5 1 -0.5
v -0.5 1 -0.5
v 0.5 1 -0.5
v -1.5 1 -1.5
v -0.5 1 -1.5
v 0.5 1 -1.5
v 1.5 1 -1.5
v -1.5 2 1.5
v 0.5 2 1.5
v 1.5 2 1.5
v -1.5 2 0.5
v -0.5 2 0.5
v 0.5 2 0.5
v 1.5 2 0.5
v -1.5 2 -0.5
v -0.5 2 -0.5
v 0.5 2 -0.5
v -1.5 2 -1.5
v -0.5 2 -1.5
v 0.5 2 -1.5
v 1.5 2 -1.5

# faces
f 5/1/1 2/1/1 1/1/1
f 6/3/1 3/3/1 2/3/1
f 6/1/1 2/1/1 5/1/1
f 7/1/1 4/1/1 3/1/1
f 7/3/1 3/3/1 6/3/1
f 8/1/1 4/1/1 7/1/1
f 11/2/1 10/2/1 9/2/1
f 12/2/1 10/2/1 11/2/1
f 13/2/2 14/2/2 15/2/2
f 15/2/2 14/2/2 16/2/2
f 17/3/2 18/3/2 20/3/2
f 18/1/2 19/1/2 21/1/2
f 20/3/2 18/3/2 21/3/2
f 21/1/2 19/1/2 22/1/2
f 25/1/3 24/1/3 23/1/3
f 26/1/3 24/1/3 25/1/3
f 27/3/3 26/3/3 25/3/3
f 28/3/3 26/3/3 27/3/3
f 31/2/3 30/2/3 29/2/3
f 32/2/3 30/2/3 31/2/3
f 33/2/4 34/2/4 35/2/4
f 35/2/4 34/2/4 36/2/4
f 37/1/4 38/1/4 39/1/4
f 39/1/4 38/1/4 40/1/4
f 39/3/4 40/3/4 41/3/4
f 41/3/4 40/3/4 42/3/4
f 41/1/4 42/1/4 43/1/4
f 43/1/4 42/1/4 44/1/4
f 47/2/5 46/2/5 45/2/5
f 48/2/5 46/2/5 47/2/5
f 52/1/5 50/1/5 49/1/5
f 53/1/5 50/1/5 52/1/5
f 54/3/5 51/3/5 50/3/5
f 54/1/5 50/1/5 53/1/5
f 55/3/5 51/3/5 54/3/5
f 56/3/5 53/3/5 52/3/5
f 57/3/5 53/3/5 56/3/5
f 58/1/5 55/1/5 54/1/5
f 59/1/5 57/1/5 56/1/5
f 60/3/5 58/3/5 57/3/5
f 60/1/5 57/1/5 59/1/5
f 61/1/5 55/1/5 58/1/5
f 61/3/5 58/3/5 60/3/5
f 62/1/5 55/1/5 61/1/5
f 63/1/6 64/1/6 66/1/6
f 66/1/6 64/1/6 67/1/6
f 64/3/6 65/3/6 68/3/6
f 67/1/6 64/1/6 68/1/6
f 68/3/6 65/3/6 69/3/6
f 66/3/6 67/3/6 70/3/6
f 67/1/6 68/1/6 71/1/6
f 70/3/6 67/3/6 71/3/6
f 68/1/6 69/1/6 71/1/6
f 71/1/6 69/1/6 72/1/6
f 70/1/6 71/1/6 73/1/6
f 71/3/6 72/3/6 74/3/6
f 73/1/6 71/1/6 74/1/6
f 72/1/6 69/1/6 75/1/6
f 74/3/6 72/3/6 75/3/6
f 75/1/6 69/1/6 76/1/6
