# MagicaVoxel @ Ephtracy

# material
mtllib obj_table1.mtl
usemtl palette

# normals
vn -1 0 0
vn 1 0 0
vn 0 0 1
vn 0 0 -1
vn 0 -1 0
vn 0 1 0

# texcoords
vt 0.966797 0.5
vt 0.986328 0.5

# verts
v -5 4 5
v -5 4 -5
v -5 5 5
v -5 5 -5
v -4 0 4
v -4 0 3
v -4 0 -3
v -4 0 -4
v -4 4 4
v -4 4 3
v -4 4 -3
v -4 4 -4
v 3 0 4
v 3 0 3
v 3 0 -3
v 3 0 -4
v 3 4 4
v 3 4 3
v 3 4 -3
v 3 4 -4
v -3 0 4
v -3 0 3
v -3 0 -3
v -3 0 -4
v -3 4 4
v -3 4 3
v -3 4 -3
v -3 4 -4
v 4 0 4
v 4 0 3
v 4 0 -3
v 4 0 -4
v 4 4 4
v 4 4 3
v 4 4 -3
v 4 4 -4
v 5 4 5
v 5 4 -5
v 5 5 5
v 5 5 -5
v -5 4 5
v -5 5 5
v 5 4 5
v 5 5 5
v -4 0 4
v -4 4 4
v -3 0 4
v -3 4 4
v 3 0 4
v 3 4 4
v 4 0 4
v 4 4 4
v -4 0 -3
v -4 4 -3
v -3 0 -3
v -3 4 -3
v 3 0 -3
v 3 4 -3
v 4 0 -3
v 4 4 -3
v -4 0 3
v -4 4 3
v -3 0 3
v -3 4 3
v 3 0 3
v 3 4 3
v 4 0 3
v 4 4 3
v -4 0 -4
v -4 4 -4
v -3 0 -4
v -3 4 -4
v 3 0 -4
v 3 4 -4
v 4 0 -4
v 4 4 -4
v -5 4 -5
v -5 5 -5
v 5 4 -5
v 5 5 -5
v -4 0 4
v -3 0 4
v 3 0 4
v 4 0 4
v -4 0 3
v -3 0 3
v 3 0 3
v 4 0 3
v -4 0 -3
v -3 0 -3
v 3 0 -3
v 4 0 -3
v -4 0 -4
v -3 0 -4
v 3 0 -4
v 4 0 -4
v -5 4 5
v 5 4 5
v -4 4 4
v -3 4 4
v 3 4 4
v 4 4 4
v -4 4 3
v -3 4 3
v 3 4 3
v 4 4 3
v -4 4 -3
v -3 4 -3
v 3 4 -3
v 4 4 -3
v -4 4 -4
v -3 4 -4
v 3 4 -4
v 4 4 -4
v -5 4 -5
v 5 4 -5
v -5 5 5
v 5 5 5
v -5 5 -5
v 5 5 -5

# faces
f 3/1/1 2/1/1 1/1/1
f 4/1/1 2/1/1 3/1/1
f 9/2/1 6/2/1 5/2/1
f 10/2/1 6/2/1 9/2/1
f 11/2/1 8/2/1 7/2/1
f 12/2/1 8/2/1 11/2/1
f 17/2/1 14/2/1 13/2/1
f 18/2/1 14/2/1 17/2/1
f 19/2/1 16/2/1 15/2/1
f 20/2/1 16/2/1 19/2/1
f 21/2/2 22/2/2 25/2/2
f 25/2/2 22/2/2 26/2/2
f 23/2/2 24/2/2 27/2/2
f 27/2/2 24/2/2 28/2/2
f 29/2/2 30/2/2 33/2/2
f 33/2/2 30/2/2 34/2/2
f 31/2/2 32/2/2 35/2/2
f 35/2/2 32/2/2 36/2/2
f 37/1/2 38/1/2 39/1/2
f 39/1/2 38/1/2 40/1/2
f 43/1/3 42/1/3 41/1/3
f 44/1/3 42/1/3 43/1/3
f 47/2/3 46/2/3 45/2/3
f 48/2/3 46/2/3 47/2/3
f 51/2/3 50/2/3 49/2/3
f 52/2/3 50/2/3 51/2/3
f 55/2/3 54/2/3 53/2/3
f 56/2/3 54/2/3 55/2/3
f 59/2/3 58/2/3 57/2/3
f 60/2/3 58/2/3 59/2/3
f 61/2/4 62/2/4 63/2/4
f 63/2/4 62/2/4 64/2/4
f 65/2/4 66/2/4 67/2/4
f 67/2/4 66/2/4 68/2/4
f 69/2/4 70/2/4 71/2/4
f 71/2/4 70/2/4 72/2/4
f 73/2/4 74/2/4 75/2/4
f 75/2/4 74/2/4 76/2/4
f 77/1/4 78/1/4 79/1/4
f 79/1/4 78/1/4 80/1/4
f 85/2/5 82/2/5 81/2/5
f 86/2/5 82/2/5 85/2/5
f 87/2/5 84/2/5 83/2/5
f 88/2/5 84/2/5 87/2/5
f 93/2/5 90/2/5 89/2/5
f 94/2/5 90/2/5 93/2/5
f 95/2/5 92/2/5 91/2/5
f 96/2/5 92/2/5 95/2/5
f 99/1/5 98/1/5 97/1/5
f 100/1/5 98/1/5 99/1/5
f 101/1/5 98/1/5 100/1/5
f 102/1/5 98/1/5 101/1/5
f 103/1/5 99/1/5 97/1/5
f 104/1/5 101/1/5 100/1/5
f 105/1/5 101/1/5 104/1/5
f 106/1/5 98/1/5 102/1/5
f 107/1/5 105/1/5 104/1/5
f 107/1/5 106/1/5 105/1/5
f 107/1/5 103/1/5 97/1/5
f 107/1/5 104/1/5 103/1/5
f 108/1/5 106/1/5 107/1/5
f 109/1/5 106/1/5 108/1/5
f 110/1/5 98/1/5 106/1/5
f 110/1/5 106/1/5 109/1/5
f 111/1/5 107/1/5 97/1/5
f 112/1/5 109/1/5 108/1/5
f 113/1/5 109/1/5 112/1/5
f 114/1/5 98/1/5 110/1/5
f 115/1/5 111/1/5 97/1/5
f 115/1/5 114/1/5 113/1/5
f 115/1/5 113/1/5 112/1/5
f 115/1/5 112/1/5 111/1/5
f 116/1/5 98/1/5 114/1/5
f 116/1/5 114/1/5 115/1/5
f 117/1/6 118/1/6 119/1/6
f 119/1/6 118/1/6 120/1/6
