# MagicaVoxel @ Ephtracy

# material
mtllib obj_sign7.mtl
usemtl palette

# normals
vn -1 0 0
vn 1 0 0
vn 0 0 1
vn 0 0 -1
vn 0 -1 0
vn 0 1 0

# texcoords
vt 0.0371094 0.5
vt 0.966797 0.5
vt 0.978516 0.5
vt 0.986328 0.5
vt 0.990234 0.5

# verts
v -3.5 0 0.5
v -3.5 0 -0.5
v -3.5 1 0.5
v -3.5 1 -0.5
v -3.5 3 1.5
v -3.5 3 0.5
v -3.5 3 -0.5
v -3.5 3 -1.5
v -3.5 10 1.5
v -3.5 10 0.5
v -3.5 10 -0.5
v -3.5 10 -1.5
v -1.5 0 1.5
v -1.5 0 0.5
v -1.5 0 -0.5
v -1.5 0 -1.5
v -1.5 1 1.5
v -1.5 1 0.5
v -1.5 1 -0.5
v -1.5 1 -1.5
v -0.5 0 3.5
v -0.5 0 1.5
v -0.5 0 -1.5
v -0.5 0 -3.5
v -0.5 1 3.5
v -0.5 1 1.5
v -0.5 1 0.5
v -0.5 1 -0.5
v -0.5 1 -1.5
v -0.5 1 -3.5
v -0.5 3 0.5
v -0.5 3 -0.5
v -0.5 4 -0.5
v -0.5 5 0.5
v -0.5 5 -0.5
v -0.5 6 0.5
v -0.5 6 -0.5
v -0.5 7 0.5
v -0.5 8 0.5
v -0.5 9 -0.5
v -0.5 10 0.5
v -0.5 10 -0.5
v -0.5 11 0.5
v -0.5 11 -0.5
v 0.5 0 3.5
v 0.5 0 1.5
v 0.5 0 -1.5
v 0.5 0 -3.5
v 0.5 1 3.5
v 0.5 1 1.5
v 0.5 1 0.5
v 0.5 1 -0.5
v 0.5 1 -1.5
v 0.5 1 -3.5
v 0.5 3 0.5
v 0.5 3 -0.5
v 0.5 4 -0.5
v 0.5 5 0.5
v 0.5 6 -0.5
v 0.5 7 -0.5
v 0.5 8 -0.5
v 0.5 9 0.5
v 0.5 10 0.5
v 0.5 10 -0.5
v 0.5 11 0.5
v 0.5 11 -0.5
v 1.5 0 1.5
v 1.5 0 0.5
v 1.5 0 -0.5
v 1.5 0 -1.5
v 1.5 1 1.5
v 1.5 1 0.5
v 1.5 1 -0.5
v 1.5 1 -1.5
v 3.5 0 0.5
v 3.5 0 -0.5
v 3.5 1 0.5
v 3.5 1 -0.5
v 3.5 3 1.5
v 3.5 3 0.5
v 3.5 3 -0.5
v 3.5 3 -1.5
v 3.5 10 1.5
v 3.5 10 0.5
v 3.5 10 -0.5
v 3.5 10 -1.5
v -0.5 0 3.5
v -0.5 1 3.5
v 0.5 0 3.5
v 0.5 1 3.5
v -3.5 3 1.5
v -3.5 10 1.5
v -2.5 7 1.5
v -2.5 8 1.5
v -1.5 0 1.5
v -1.5 1 1.5
v -1.5 5 1.5
v -1.5 6 1.5
v -0.5 0 1.5
v -0.5 1 1.5
v -0.5 3 1.5
v -0.5 4 1.5
v -0.5 5 1.5
v -0.5 6 1.5
v -0.5 7 1.5
v -0.5 8 1.5
v -0.5 9 1.5
v -0.5 10 1.5
v 0.5 0 1.5
v 0.5 1 1.5
v 0.5 3 1.5
v 0.5 4 1.5
v 0.5 5 1.5
v 0.5 6 1.5
v 0.5 9 1.5
v 0.5 10 1.5
v 1.5 0 1.5
v 1.5 1 1.5
v 1.5 6 1.5
v 1.5 8 1.5
v 2.5 5 1.5
v 2.5 6 1.5
v 2.5 8 1.5
v 2.5 9 1.5
v 3.5 3 1.5
v 3.5 10 1.5
v -3.5 0 0.5
v -3.5 1 0.5
v -1.5 0 0.5
v -1.5 1 0.5
v -0.5 1 0.5
v -0.5 3 0.5
v -0.5 10 0.5
v -0.5 11 0.5
v 0.5 1 0.5
v 0.5 3 0.5
v 0.5 10 0.5
v 0.5 11 0.5
v 1.5 0 0.5
v 1.5 1 0.5
v 3.5 0 0.5
v 3.5 1 0.5
v -3.5 3 -0.5
v -3.5 10 -0.5
v -2.5 5 -0.5
v -2.5 9 -0.5
v -1.5 4 -0.5
v -1.5 5 -0.5
v -1.5 6 -0.5
v -0.5 3 -0.5
v -0.5 4 -0.5
v -0.5 5 -0.5
v -0.5 6 -0.5
v -0.5 9 -0.5
v -0.5 10 -0.5
v 0.5 3 -0.5
v 0.5 4 -0.5
v 0.5 6 -0.5
v 0.5 7 -0.5
v 0.5 8 -0.5
v 0.5 10 -0.5
v 1.5 5 -0.5
v 1.5 6 -0.5
v 1.5 7 -0.5
v 1.5 8 -0.5
v 1.5 9 -0.5
v 2.5 4 -0.5
v 2.5 5 -0.5
v 2.5 6 -0.5
v 2.5 7 -0.5
v 2.5 8 -0.5
v 2.5 9 -0.5
v 3.5 3 -0.5
v 3.5 10 -0.5
v -3.5 3 0.5
v -3.5 10 0.5
v -2.5 7 0.5
v -2.5 8 0.5
v -1.5 5 0.5
v -1.5 6 0.5
v -0.5 3 0.5
v -0.5 5 0.5
v -0.5 6 0.5
v -0.5 7 0.5
v -0.5 8 0.5
v -0.5 10 0.5
v 0.5 3 0.5
v 0.5 5 0.5
v 0.5 9 0.5
v 0.5 10 0.5
v 1.5 6 0.5
v 1.5 8 0.5
v 2.5 5 0.5
v 2.5 6 0.5
v 2.5 8 0.5
v 2.5 9 0.5
v 3.5 3 0.5
v 3.5 10 0.5
v -3.5 0 -0.5
v -3.5 1 -0.5
v -1.5 0 -0.5
v -1.5 1 -0.5
v -0.5 1 -0.5
v -0.5 3 -0.5
v -0.5 10 -0.5
v -0.5 11 -0.5
v 0.5 1 -0.5
v 0.5 3 -0.5
v 0.5 10 -0.5
v 0.5 11 -0.5
v 1.5 0 -0.5
v 1.5 1 -0.5
v 3.5 0 -0.5
v 3.5 1 -0.5
v -3.5 3 -1.5
v -3.5 10 -1.5
v -2.5 5 -1.5
v -2.5 9 -1.5
v -1.5 0 -1.5
v -1.5 1 -1.5
v -1.5 4 -1.5
v -1.5 5 -1.5
v -1.5 6 -1.5
v -0.5 0 -1.5
v -0.5 1 -1.5
v -0.5 3 -1.5
v -0.5 4 -1.5
v -0.5 5 -1.5
v -0.5 6 -1.5
v -0.5 7 -1.5
v -0.5 9 -1.5
v -0.5 10 -1.5
v 0.5 0 -1.5
v 0.5 1 -1.5
v 0.5 3 -1.5
v 0.5 4 -1.5
v 0.5 5 -1.5
v 0.5 6 -1.5
v 0.5 7 -1.5
v 0.5 8 -1.5
v 0.5 9 -1.5
v 0.5 10 -1.5
v 1.5 0 -1.5
v 1.5 1 -1.5
v 1.5 5 -1.5
v 1.5 6 -1.5
v 1.5 7 -1.5
v 1.5 8 -1.5
v 1.5 9 -1.5
v 2.5 4 -1.5
v 2.5 5 -1.5
v 2.5 6 -1.5
v 2.5 7 -1.5
v 2.5 8 -1.5
v 2.5 9 -1.5
v 3.5 3 -1.5
v 3.5 10 -1.5
v -0.5 0 -3.5
v -0.5 1 -3.5
v 0.5 0 -3.5
v 0.5 1 -3.5
v -0.5 0 3.5
v 0.5 0 3.5
v -1.5 0 1.5
v -0.5 0 1.5
v 0.5 0 1.5
v 1.5 0 1.5
v -3.5 0 0.5
v -1.5 0 0.5
v -0.5 0 0.5
v 0.5 0 0.5
v 1.5 0 0.5
v 3.5 0 0.5
v -3.5 0 -0.5
v -1.5 0 -0.5
v -0.5 0 -0.5
v 0.5 0 -0.5
v 1.5 0 -0.5
v 3.5 0 -0.5
v -1.5 0 -1.5
v -0.5 0 -1.5
v 0.5 0 -1.5
v 1.5 0 -1.5
v -0.5 0 -3.5
v 0.5 0 -3.5
v -3.5 3 1.5
v -0.5 3 1.5
v 0.5 3 1.5
v 3.5 3 1.5
v -3.5 3 0.5
v -0.5 3 0.5
v 0.5 3 0.5
v 3.5 3 0.5
v -3.5 3 -0.5
v -0.5 3 -0.5
v 0.5 3 -0.5
v 3.5 3 -0.5
v -3.5 3 -1.5
v -0.5 3 -1.5
v 0.5 3 -1.5
v 3.5 3 -1.5
v -0.5 1 3.5
v 0.5 1 3.5
v -1.5 1 1.5
v -0.5 1 1.5
v 0.5 1 1.5
v 1.5 1 1.5
v -3.5 1 0.5
v -1.5 1 0.5
v -0.5 1 0.5
v 0.5 1 0.5
v 1.5 1 0.5
v 3.5 1 0.5
v -3.5 1 -0.5
v -1.5 1 -0.5
v -0.5 1 -0.5
v 0.5 1 -0.5
v 1.5 1 -0.5
v 3.5 1 -0.5
v -1.5 1 -1.5
v -0.5 1 -1.5
v 0.5 1 -1.5
v 1.5 1 -1.5
v -0.5 1 -3.5
v 0.5 1 -3.5
v -3.5 10 1.5
v -0.5 10 1.5
v 0.5 10 1.5
v 3.5 10 1.5
v -3.5 10 0.5
v -0.5 10 0.5
v 0.5 10 0.5
v 3.5 10 0.5
v -3.5 10 -0.5
v -0.5 10 -0.5
v 0.5 10 -0.5
v 3.5 10 -0.5
v -3.5 10 -1.5
v -0.5 10 -1.5
v 0.5 10 -1.5
v 3.5 10 -1.5
v -0.5 11 0.5
v 0.5 11 0.5
v -0.5 11 -0.5
v 0.5 11 -0.5

# faces
f 3/3/1 2/3/1 1/3/1
f 4/3/1 2/3/1 3/3/1
f 9/5/1 6/5/1 5/5/1
f 10/5/1 6/5/1 9/5/1
f 11/5/1 8/5/1 7/5/1
f 12/5/1 8/5/1 11/5/1
f 17/3/1 14/3/1 13/3/1
f 18/3/1 14/3/1 17/3/1
f 19/3/1 16/3/1 15/3/1
f 20/3/1 16/3/1 19/3/1
f 25/3/1 22/3/1 21/3/1
f 26/3/1 22/3/1 25/3/1
f 29/3/1 24/3/1 23/3/1
f 30/3/1 24/3/1 29/3/1
f 31/2/1 28/2/1 27/2/1
f 32/2/1 28/2/1 31/2/1
f 33/2/1 32/2/1 31/2/1
f 34/2/1 33/2/1 31/2/1
f 35/2/1 33/2/1 34/2/1
f 36/2/1 35/2/1 34/2/1
f 37/2/1 35/2/1 36/2/1
f 38/2/1 37/2/1 36/2/1
f 39/2/1 37/2/1 38/2/1
f 40/2/1 37/2/1 39/2/1
f 41/2/1 40/2/1 39/2/1
f 42/2/1 40/2/1 41/2/1
f 43/2/1 42/2/1 41/2/1
f 44/2/1 42/2/1 43/2/1
f 45/3/2 46/3/2 49/3/2
f 49/3/2 46/3/2 50/3/2
f 47/3/2 48/3/2 53/3/2
f 53/3/2 48/3/2 54/3/2
f 51/2/2 52/2/2 55/2/2
f 55/2/2 52/2/2 56/2/2
f 55/2/2 56/2/2 57/2/2
f 55/2/2 57/2/2 58/2/2
f 58/2/2 57/2/2 59/2/2
f 58/2/2 59/2/2 60/2/2
f 58/2/2 60/2/2 61/2/2
f 58/2/2 61/2/2 62/2/2
f 62/2/2 61/2/2 63/2/2
f 63/2/2 61/2/2 64/2/2
f 63/2/2 64/2/2 65/2/2
f 65/2/2 64/2/2 66/2/2
f 67/3/2 68/3/2 71/3/2
f 71/3/2 68/3/2 72/3/2
f 69/3/2 70/3/2 73/3/2
f 73/3/2 70/3/2 74/3/2
f 75/3/2 76/3/2 77/3/2
f 77/3/2 76/3/2 78/3/2
f 79/5/2 80/5/2 83/5/2
f 83/5/2 80/5/2 84/5/2
f 81/5/2 82/5/2 85/5/2
f 85/5/2 82/5/2 86/5/2
f 89/3/3 88/3/3 87/3/3
f 90/3/3 88/3/3 89/3/3
f 93/5/3 92/5/3 91/5/3
f 94/5/3 92/5/3 93/5/3
f 97/5/3 93/5/3 91/5/3
f 98/5/3 93/5/3 97/5/3
f 99/3/3 96/3/3 95/3/3
f 100/3/3 96/3/3 99/3/3
f 101/5/3 97/5/3 91/5/3
f 102/5/3 97/5/3 101/5/3
f 103/1/3 98/1/3 97/1/3
f 103/5/3 97/5/3 102/5/3
f 104/5/3 93/5/3 98/5/3
f 104/1/3 98/1/3 103/1/3
f 105/1/3 94/1/3 93/1/3
f 105/5/3 93/5/3 104/5/3
f 106/5/3 92/5/3 94/5/3
f 106/1/3 94/1/3 105/1/3
f 107/5/3 92/5/3 106/5/3
f 108/5/3 92/5/3 107/5/3
f 111/4/3 102/4/3 101/4/3
f 112/1/3 103/1/3 102/1/3
f 112/4/3 102/4/3 111/4/3
f 113/5/3 104/5/3 103/5/3
f 113/1/3 103/1/3 112/1/3
f 114/1/3 105/1/3 104/1/3
f 114/5/3 104/5/3 113/5/3
f 114/1/3 106/1/3 105/1/3
f 114/1/3 107/1/3 106/1/3
f 115/4/3 108/4/3 107/4/3
f 115/1/3 107/1/3 114/1/3
f 116/4/3 108/4/3 115/4/3
f 117/3/3 110/3/3 109/3/3
f 118/3/3 110/3/3 117/3/3
f 119/1/3 114/1/3 113/1/3
f 119/1/3 115/1/3 114/1/3
f 120/1/3 115/1/3 119/1/3
f 121/5/3 112/5/3 111/5/3
f 121/5/3 113/5/3 112/5/3
f 121/1/3 119/1/3 113/1/3
f 122/5/3 120/5/3 119/5/3
f 122/1/3 119/1/3 121/1/3
f 123/1/3 115/1/3 120/1/3
f 123/5/3 120/5/3 122/5/3
f 124/5/3 116/5/3 115/5/3
f 124/1/3 115/1/3 123/1/3
f 125/5/3 122/5/3 121/5/3
f 125/5/3 121/5/3 111/5/3
f 125/5/3 124/5/3 123/5/3
f 125/5/3 123/5/3 122/5/3
f 126/5/3 116/5/3 124/5/3
f 126/5/3 124/5/3 125/5/3
f 129/3/3 128/3/3 127/3/3
f 130/3/3 128/3/3 129/3/3
f 135/2/3 132/2/3 131/2/3
f 136/2/3 132/2/3 135/2/3
f 137/2/3 134/2/3 133/2/3
f 138/2/3 134/2/3 137/2/3
f 141/3/3 140/3/3 139/3/3
f 142/3/3 140/3/3 141/3/3
f 145/5/3 144/5/3 143/5/3
f 146/5/3 144/5/3 145/5/3
f 147/5/3 145/5/3 143/5/3
f 148/1/3 146/1/3 145/1/3
f 148/5/3 145/5/3 147/5/3
f 149/1/3 146/1/3 148/1/3
f 150/5/3 147/5/3 143/5/3
f 151/1/3 148/1/3 147/1/3
f 151/5/3 147/5/3 150/5/3
f 152/5/3 149/5/3 148/5/3
f 152/1/3 148/1/3 151/1/3
f 153/1/3 146/1/3 149/1/3
f 153/5/3 149/5/3 152/5/3
f 154/5/3 144/5/3 146/5/3
f 154/1/3 146/1/3 153/1/3
f 155/5/3 144/5/3 154/5/3
f 162/1/3 158/1/3 157/1/3
f 163/5/3 159/5/3 158/5/3
f 163/1/3 158/1/3 162/1/3
f 164/1/3 160/1/3 159/1/3
f 164/5/3 159/5/3 163/5/3
f 165/5/3 161/5/3 160/5/3
f 165/1/3 160/1/3 164/1/3
f 166/5/3 161/5/3 165/5/3
f 167/5/3 157/5/3 156/5/3
f 167/1/3 162/1/3 157/1/3
f 168/5/3 163/5/3 162/5/3
f 168/1/3 162/1/3 167/1/3
f 169/1/3 164/1/3 163/1/3
f 169/5/3 163/5/3 168/5/3
f 170/5/3 165/5/3 164/5/3
f 170/1/3 164/1/3 169/1/3
f 171/1/3 166/1/3 165/1/3
f 171/5/3 165/5/3 170/5/3
f 172/5/3 161/5/3 166/5/3
f 172/1/3 166/1/3 171/1/3
f 173/5/3 171/5/3 170/5/3
f 173/5/3 168/5/3 167/5/3
f 173/5/3 172/5/3 171/5/3
f 173/5/3 169/5/3 168/5/3
f 173/5/3 167/5/3 156/5/3
f 173/5/3 170/5/3 169/5/3
f 174/5/3 161/5/3 172/5/3
f 174/5/3 172/5/3 173/5/3
f 175/5/4 176/5/4 177/5/4
f 177/5/4 176/5/4 178/5/4
f 175/5/4 177/5/4 179/5/4
f 179/5/4 177/5/4 180/5/4
f 175/5/4 179/5/4 181/5/4
f 179/1/4 180/1/4 182/1/4
f 181/5/4 179/5/4 182/5/4
f 180/5/4 177/5/4 183/5/4
f 182/1/4 180/1/4 183/1/4
f 177/1/4 178/1/4 184/1/4
f 183/5/4 177/5/4 184/5/4
f 178/5/4 176/5/4 185/5/4
f 184/1/4 178/1/4 185/1/4
f 185/5/4 176/5/4 186/5/4
f 188/1/4 189/1/4 191/1/4
f 191/1/4 189/1/4 192/1/4
f 187/5/4 188/5/4 193/5/4
f 188/1/4 191/1/4 193/1/4
f 191/5/4 192/5/4 194/5/4
f 193/1/4 191/1/4 194/1/4
f 192/1/4 189/1/4 195/1/4
f 194/5/4 192/5/4 195/5/4
f 189/5/4 190/5/4 196/5/4
f 195/1/4 189/1/4 196/1/4
f 193/5/4 194/5/4 197/5/4
f 194/5/4 195/5/4 197/5/4
f 195/5/4 196/5/4 197/5/4
f 187/5/4 193/5/4 197/5/4
f 196/5/4 190/5/4 198/5/4
f 197/5/4 196/5/4 198/5/4
f 199/3/4 200/3/4 201/3/4
f 201/3/4 200/3/4 202/3/4
f 203/2/4 204/2/4 207/2/4
f 207/2/4 204/2/4 208/2/4
f 205/2/4 206/2/4 209/2/4
f 209/2/4 206/2/4 210/2/4
f 211/3/4 212/3/4 213/3/4
f 213/3/4 212/3/4 214/3/4
f 215/5/4 216/5/4 217/5/4
f 217/5/4 216/5/4 218/5/4
f 215/5/4 217/5/4 221/5/4
f 217/1/4 218/1/4 222/1/4
f 221/5/4 217/5/4 222/5/4
f 222/1/4 218/1/4 223/1/4
f 219/3/4 220/3/4 224/3/4
f 224/3/4 220/3/4 225/3/4
f 215/5/4 221/5/4 226/5/4
f 221/1/4 222/1/4 227/1/4
f 226/5/4 221/5/4 227/5/4
f 222/5/4 223/5/4 228/5/4
f 227/1/4 222/1/4 228/1/4
f 223/1/4 218/1/4 229/1/4
f 228/5/4 223/5/4 229/5/4
f 229/1/4 218/1/4 230/1/4
f 218/5/4 216/5/4 231/5/4
f 230/1/4 218/1/4 231/1/4
f 231/5/4 216/5/4 232/5/4
f 226/4/4 227/4/4 235/4/4
f 227/5/4 228/5/4 236/5/4
f 235/4/4 227/4/4 236/4/4
f 229/1/4 230/1/4 237/1/4
f 236/5/4 228/5/4 237/5/4
f 228/1/4 229/1/4 237/1/4
f 237/1/4 230/1/4 238/1/4
f 230/5/4 231/5/4 239/5/4
f 238/1/4 230/1/4 239/1/4
f 239/5/4 231/5/4 240/5/4
f 231/4/4 232/4/4 241/4/4
f 240/5/4 231/5/4 241/5/4
f 241/4/4 232/4/4 242/4/4
f 233/3/4 234/3/4 243/3/4
f 243/3/4 234/3/4 244/3/4
f 237/1/4 238/1/4 245/1/4
f 236/1/4 237/1/4 245/1/4
f 238/5/4 239/5/4 246/5/4
f 245/1/4 238/1/4 246/1/4
f 239/1/4 240/1/4 247/1/4
f 246/5/4 239/5/4 247/5/4
f 240/5/4 241/5/4 248/5/4
f 247/1/4 240/1/4 248/1/4
f 241/5/4 242/5/4 248/5/4
f 248/5/4 242/5/4 249/5/4
f 235/5/4 236/5/4 250/5/4
f 236/1/4 245/1/4 250/1/4
f 245/5/4 246/5/4 251/5/4
f 250/1/4 245/1/4 251/1/4
f 246/1/4 247/1/4 252/1/4
f 251/5/4 246/5/4 252/5/4
f 247/5/4 248/5/4 253/5/4
f 252/1/4 247/1/4 253/1/4
f 248/1/4 249/1/4 254/1/4
f 253/5/4 248/5/4 254/5/4
f 249/5/4 242/5/4 255/5/4
f 254/1/4 249/1/4 255/1/4
f 253/5/4 254/5/4 256/5/4
f 235/5/4 250/5/4 256/5/4
f 254/5/4 255/5/4 256/5/4
f 250/5/4 251/5/4 256/5/4
f 251/5/4 252/5/4 256/5/4
f 252/5/4 253/5/4 256/5/4
f 255/5/4 242/5/4 257/5/4
f 256/5/4 255/5/4 257/5/4
f 258/3/4 259/3/4 260/3/4
f 260/3/4 259/3/4 261/3/4
f 265/3/5 263/3/5 262/3/5
f 266/3/5 263/3/5 265/3/5
f 269/3/5 265/3/5 264/3/5
f 269/3/5 267/3/5 266/3/5
f 269/3/5 266/3/5 265/3/5
f 270/3/5 267/3/5 269/3/5
f 271/3/5 267/3/5 270/3/5
f 272/3/5 267/3/5 271/3/5
f 274/3/5 269/3/5 268/3/5
f 274/3/5 270/3/5 269/3/5
f 275/3/5 270/3/5 274/3/5
f 276/2/5 271/2/5 270/2/5
f 276/3/5 270/3/5 275/3/5
f 277/3/5 273/3/5 272/3/5
f 277/2/5 271/2/5 276/2/5
f 277/3/5 272/3/5 271/3/5
f 278/3/5 273/3/5 277/3/5
f 279/3/5 273/3/5 278/3/5
f 280/3/5 276/3/5 275/3/5
f 280/3/5 278/3/5 277/3/5
f 280/3/5 277/3/5 276/3/5
f 281/3/5 278/3/5 280/3/5
f 282/3/5 278/3/5 281/3/5
f 283/3/5 278/3/5 282/3/5
f 284/3/5 282/3/5 281/3/5
f 285/3/5 282/3/5 284/3/5
f 290/5/5 287/5/5 286/5/5
f 291/4/5 288/4/5 287/4/5
f 291/5/5 287/5/5 290/5/5
f 292/5/5 289/5/5 288/5/5
f 292/4/5 288/4/5 291/4/5
f 293/5/5 289/5/5 292/5/5
f 298/5/5 295/5/5 294/5/5
f 299/4/5 296/4/5 295/4/5
f 299/5/5 295/5/5 298/5/5
f 300/5/5 297/5/5 296/5/5
f 300/4/5 296/4/5 299/4/5
f 301/5/5 297/5/5 300/5/5
f 302/3/6 303/3/6 305/3/6
f 305/3/6 303/3/6 306/3/6
f 304/3/6 305/3/6 309/3/6
f 306/3/6 307/3/6 309/3/6
f 305/3/6 306/3/6 309/3/6
f 309/3/6 307/3/6 310/3/6
f 310/3/6 307/3/6 311/3/6
f 311/3/6 307/3/6 312/3/6
f 308/3/6 309/3/6 314/3/6
f 309/3/6 310/3/6 314/3/6
f 314/3/6 310/3/6 315/3/6
f 315/3/6 310/3/6 316/3/6
f 312/3/6 313/3/6 317/3/6
f 311/3/6 312/3/6 317/3/6
f 317/3/6 313/3/6 318/3/6
f 318/3/6 313/3/6 319/3/6
f 315/3/6 316/3/6 320/3/6
f 317/3/6 318/3/6 320/3/6
f 316/3/6 317/3/6 320/3/6
f 320/3/6 318/3/6 321/3/6
f 321/3/6 318/3/6 322/3/6
f 322/3/6 318/3/6 323/3/6
f 321/3/6 322/3/6 324/3/6
f 324/3/6 322/3/6 325/3/6
f 326/5/6 327/5/6 330/5/6
f 327/4/6 328/4/6 331/4/6
f 330/5/6 327/5/6 331/5/6
f 328/5/6 329/5/6 332/5/6
f 331/4/6 328/4/6 332/4/6
f 332/5/6 329/5/6 333/5/6
f 334/5/6 335/5/6 338/5/6
f 335/4/6 336/4/6 339/4/6
f 338/5/6 335/5/6 339/5/6
f 336/5/6 337/5/6 340/5/6
f 339/4/6 336/4/6 340/4/6
f 340/5/6 337/5/6 341/5/6
f 342/2/6 343/2/6 344/2/6
f 344/2/6 343/2/6 345/2/6
