# MagicaVoxel @ Ephtracy

# material
mtllib obj_stretcher.mtl
usemtl palette

# normals
vn -1 0 0
vn 1 0 0
vn 0 0 1
vn 0 0 -1
vn 0 -1 0
vn 0 1 0

# texcoords
vt 0.0214844 0.5
vt 0.990234 0.5

# verts
v -3.5 3 7.5
v -3.5 3 -7.5
v -3.5 4 7.5
v -3.5 4 4.5
v -3.5 4 3.5
v -3.5 4 -3.5
v -3.5 4 -4.5
v -3.5 4 -7.5
v -3.5 5 3.5
v -3.5 5 -3.5
v -3.5 6 4.5
v -3.5 6 -4.5
v -2.5 0 6.5
v -2.5 0 5.5
v -2.5 0 -5.5
v -2.5 0 -6.5
v -2.5 1 6.5
v -2.5 1 5.5
v -2.5 1 -5.5
v -2.5 1 -6.5
v -2.5 2 6.5
v -2.5 2 -6.5
v -2.5 4 6.5
v -2.5 4 4.5
v -2.5 4 3.5
v -2.5 4 -0.5
v -2.5 4 -1.5
v -2.5 4 -3.5
v -2.5 4 -4.5
v -2.5 4 -6.5
v -2.5 5 6.5
v -2.5 5 4.5
v -2.5 5 3.5
v -2.5 5 -0.5
v -2.5 5 -1.5
v -2.5 5 -3.5
v -2.5 5 -4.5
v -2.5 5 -6.5
v -1.5 2 5.5
v -1.5 2 -5.5
v -1.5 3 5.5
v -1.5 3 -5.5
v 1.5 0 6.5
v 1.5 0 5.5
v 1.5 0 -5.5
v 1.5 0 -6.5
v 1.5 1 6.5
v 1.5 1 5.5
v 1.5 1 -5.5
v 1.5 1 -6.5
v 2.5 5 4.5
v 2.5 5 -0.5
v 2.5 5 -1.5
v 2.5 5 -4.5
v 2.5 6 4.5
v 2.5 6 -4.5
v -2.5 5 4.5
v -2.5 5 -0.5
v -2.5 5 -1.5
v -2.5 5 -4.5
v -2.5 6 4.5
v -2.5 6 -4.5
v -1.5 0 6.5
v -1.5 0 5.5
v -1.5 0 -5.5
v -1.5 0 -6.5
v -1.5 1 6.5
v -1.5 1 5.5
v -1.5 1 -5.5
v -1.5 1 -6.5
v 1.5 2 5.5
v 1.5 2 -5.5
v 1.5 3 5.5
v 1.5 3 -5.5
v 2.5 0 6.5
v 2.5 0 5.5
v 2.5 0 -5.5
v 2.5 0 -6.5
v 2.5 1 6.5
v 2.5 1 5.5
v 2.5 1 -5.5
v 2.5 1 -6.5
v 2.5 2 6.5
v 2.5 2 -6.5
v 2.5 4 6.5
v 2.5 4 4.5
v 2.5 4 3.5
v 2.5 4 -0.5
v 2.5 4 -1.5
v 2.5 4 -3.5
v 2.5 4 -4.5
v 2.5 4 -6.5
v 2.5 5 6.5
v 2.5 5 4.5
v 2.5 5 3.5
v 2.5 5 -0.5
v 2.5 5 -1.5
v 2.5 5 -3.5
v 2.5 5 -4.5
v 2.5 5 -6.5
v 3.5 3 7.5
v 3.5 3 -7.5
v 3.5 4 7.5
v 3.5 4 4.5
v 3.5 4 3.5
v 3.5 4 -3.5
v 3.5 4 -4.5
v 3.5 4 -7.5
v 3.5 5 3.5
v 3.5 5 -3.5
v 3.5 6 4.5
v 3.5 6 -4.5
v -3.5 3 7.5
v -3.5 4 7.5
v 3.5 3 7.5
v 3.5 4 7.5
v -2.5 0 6.5
v -2.5 1 6.5
v -2.5 2 6.5
v -2.5 4 6.5
v -2.5 5 6.5
v -1.5 0 6.5
v -1.5 1 6.5
v 1.5 0 6.5
v 1.5 1 6.5
v 2.5 0 6.5
v 2.5 1 6.5
v 2.5 2 6.5
v 2.5 4 6.5
v 2.5 5 6.5
v -1.5 2 5.5
v -1.5 3 5.5
v 1.5 2 5.5
v 1.5 3 5.5
v -3.5 4 4.5
v -3.5 6 4.5
v -2.5 4 4.5
v -2.5 5 4.5
v -2.5 6 4.5
v 2.5 4 4.5
v 2.5 5 4.5
v 2.5 6 4.5
v 3.5 4 4.5
v 3.5 6 4.5
v -2.5 4 -1.5
v -2.5 5 -1.5
v 2.5 4 -1.5
v 2.5 5 -1.5
v -3.5 4 -3.5
v -3.5 5 -3.5
v -2.5 4 -3.5
v -2.5 5 -3.5
v 2.5 4 -3.5
v 2.5 5 -3.5
v 3.5 4 -3.5
v 3.5 5 -3.5
v -2.5 0 -5.5
v -2.5 1 -5.5
v -1.5 0 -5.5
v -1.5 1 -5.5
v 1.5 0 -5.5
v 1.5 1 -5.5
v 2.5 0 -5.5
v 2.5 1 -5.5
v -2.5 0 5.5
v -2.5 1 5.5
v -1.5 0 5.5
v -1.5 1 5.5
v 1.5 0 5.5
v 1.5 1 5.5
v 2.5 0 5.5
v 2.5 1 5.5
v -3.5 4 3.5
v -3.5 5 3.5
v -2.5 4 3.5
v -2.5 5 3.5
v 2.5 4 3.5
v 2.5 5 3.5
v 3.5 4 3.5
v 3.5 5 3.5
v -2.5 4 -0.5
v -2.5 5 -0.5
v 2.5 4 -0.5
v 2.5 5 -0.5
v -3.5 4 -4.5
v -3.5 6 -4.5
v -2.5 4 -4.5
v -2.5 5 -4.5
v -2.5 6 -4.5
v 2.5 4 -4.5
v 2.5 5 -4.5
v 2.5 6 -4.5
v 3.5 4 -4.5
v 3.5 6 -4.5
v -1.5 2 -5.5
v -1.5 3 -5.5
v 1.5 2 -5.5
v 1.5 3 -5.5
v -2.5 0 -6.5
v -2.5 1 -6.5
v -2.5 2 -6.5
v -2.5 4 -6.5
v -2.5 5 -6.5
v -1.5 0 -6.5
v -1.5 1 -6.5
v 1.5 0 -6.5
v 1.5 1 -6.5
v 2.5 0 -6.5
v 2.5 1 -6.5
v 2.5 2 -6.5
v 2.5 4 -6.5
v 2.5 5 -6.5
v -3.5 3 -7.5
v -3.5 4 -7.5
v 3.5 3 -7.5
v 3.5 4 -7.5
v -2.5 0 6.5
v -1.5 0 6.5
v 1.5 0 6.5
v 2.5 0 6.5
v -2.5 0 5.5
v -1.5 0 5.5
v 1.5 0 5.5
v 2.5 0 5.5
v -2.5 0 -5.5
v -1.5 0 -5.5
v 1.5 0 -5.5
v 2.5 0 -5.5
v -2.5 0 -6.5
v -1.5 0 -6.5
v 1.5 0 -6.5
v 2.5 0 -6.5
v -1.5 1 6.5
v 1.5 1 6.5
v -2.5 1 5.5
v -1.5 1 5.5
v 1.5 1 5.5
v 2.5 1 5.5
v -2.5 1 -5.5
v -1.5 1 -5.5
v 1.5 1 -5.5
v 2.5 1 -5.5
v -1.5 1 -6.5
v 1.5 1 -6.5
v -3.5 3 7.5
v 3.5 3 7.5
v -1.5 3 5.5
v 1.5 3 5.5
v -1.5 3 -5.5
v 1.5 3 -5.5
v -3.5 3 -7.5
v 3.5 3 -7.5
v -3.5 5 3.5
v -2.5 5 3.5
v 2.5 5 3.5
v 3.5 5 3.5
v -2.5 5 -0.5
v 2.5 5 -0.5
v -2.5 5 -1.5
v 2.5 5 -1.5
v -3.5 5 -3.5
v -2.5 5 -3.5
v 2.5 5 -3.5
v 3.5 5 -3.5
v -2.5 2 6.5
v 2.5 2 6.5
v -1.5 2 5.5
v 1.5 2 5.5
v -1.5 2 -5.5
v 1.5 2 -5.5
v -2.5 2 -6.5
v 2.5 2 -6.5
v -3.5 4 7.5
v 3.5 4 7.5
v -2.5 4 6.5
v 2.5 4 6.5
v -3.5 4 4.5
v -2.5 4 4.5
v 2.5 4 4.5
v 3.5 4 4.5
v -3.5 4 3.5
v -2.5 4 3.5
v 2.5 4 3.5
v 3.5 4 3.5
v -2.5 4 -0.5
v 2.5 4 -0.5
v -2.5 4 -1.5
v 2.5 4 -1.5
v -3.5 4 -3.5
v -2.5 4 -3.5
v 2.5 4 -3.5
v 3.5 4 -3.5
v -3.5 4 -4.5
v -2.5 4 -4.5
v 2.5 4 -4.5
v 3.5 4 -4.5
v -2.5 4 -6.5
v 2.5 4 -6.5
v -3.5 4 -7.5
v 3.5 4 -7.5
v -2.5 5 6.5
v 2.5 5 6.5
v -2.5 5 4.5
v 2.5 5 4.5
v -2.5 5 -0.5
v 2.5 5 -0.5
v -2.5 5 -1.5
v 2.5 5 -1.5
v -2.5 5 -4.5
v 2.5 5 -4.5
v -2.5 5 -6.5
v 2.5 5 -6.5
v -3.5 6 4.5
v -2.5 6 4.5
v 2.5 6 4.5
v 3.5 6 4.5
v -3.5 6 -4.5
v -2.5 6 -4.5
v 2.5 6 -4.5
v 3.5 6 -4.5

# faces
f 3/1/1 2/1/1 1/1/1
f 4/1/1 2/1/1 3/1/1
f 5/1/1 2/1/1 4/1/1
f 6/1/1 2/1/1 5/1/1
f 7/1/1 2/1/1 6/1/1
f 8/1/1 2/1/1 7/1/1
f 9/1/1 5/1/1 4/1/1
f 10/1/1 7/1/1 6/1/1
f 11/1/1 9/1/1 4/1/1
f 11/1/1 10/1/1 9/1/1
f 12/1/1 7/1/1 10/1/1
f 12/1/1 10/1/1 11/1/1
f 17/2/1 14/2/1 13/2/1
f 18/2/1 14/2/1 17/2/1
f 19/2/1 16/2/1 15/2/1
f 20/2/1 16/2/1 19/2/1
f 21/1/1 18/1/1 17/1/1
f 21/1/1 19/1/1 18/1/1
f 21/1/1 20/1/1 19/1/1
f 22/1/1 20/1/1 21/1/1
f 31/2/1 24/2/1 23/2/1
f 32/2/1 24/2/1 31/2/1
f 33/2/1 26/2/1 25/2/1
f 34/2/1 26/2/1 33/2/1
f 35/2/1 28/2/1 27/2/1
f 36/2/1 28/2/1 35/2/1
f 37/2/1 30/2/1 29/2/1
f 38/2/1 30/2/1 37/2/1
f 41/1/1 40/1/1 39/1/1
f 42/1/1 40/1/1 41/1/1
f 47/2/1 44/2/1 43/2/1
f 48/2/1 44/2/1 47/2/1
f 49/2/1 46/2/1 45/2/1
f 50/2/1 46/2/1 49/2/1
f 55/1/1 52/1/1 51/1/1
f 55/1/1 54/1/1 53/1/1
f 55/1/1 53/1/1 52/1/1
f 56/1/1 54/1/1 55/1/1
f 57/1/2 58/1/2 61/1/2
f 59/1/2 60/1/2 61/1/2
f 58/1/2 59/1/2 61/1/2
f 61/1/2 60/1/2 62/1/2
f 63/2/2 64/2/2 67/2/2
f 67/2/2 64/2/2 68/2/2
f 65/2/2 66/2/2 69/2/2
f 69/2/2 66/2/2 70/2/2
f 71/1/2 72/1/2 73/1/2
f 73/1/2 72/1/2 74/1/2
f 75/2/2 76/2/2 79/2/2
f 79/2/2 76/2/2 80/2/2
f 77/2/2 78/2/2 81/2/2
f 81/2/2 78/2/2 82/2/2
f 79/1/2 80/1/2 83/1/2
f 80/1/2 81/1/2 83/1/2
f 81/1/2 82/1/2 83/1/2
f 83/1/2 82/1/2 84/1/2
f 85/2/2 86/2/2 93/2/2
f 93/2/2 86/2/2 94/2/2
f 87/2/2 88/2/2 95/2/2
f 95/2/2 88/2/2 96/2/2
f 89/2/2 90/2/2 97/2/2
f 97/2/2 90/2/2 98/2/2
f 91/2/2 92/2/2 99/2/2
f 99/2/2 92/2/2 100/2/2
f 101/1/2 102/1/2 103/1/2
f 103/1/2 102/1/2 104/1/2
f 104/1/2 102/1/2 105/1/2
f 105/1/2 102/1/2 106/1/2
f 106/1/2 102/1/2 107/1/2
f 107/1/2 102/1/2 108/1/2
f 104/1/2 105/1/2 109/1/2
f 106/1/2 107/1/2 110/1/2
f 104/1/2 109/1/2 111/1/2
f 109/1/2 110/1/2 111/1/2
f 110/1/2 107/1/2 112/1/2
f 111/1/2 110/1/2 112/1/2
f 115/1/3 114/1/3 113/1/3
f 116/1/3 114/1/3 115/1/3
f 122/2/3 118/2/3 117/2/3
f 123/1/3 119/1/3 118/1/3
f 123/2/3 118/2/3 122/2/3
f 125/1/3 119/1/3 123/1/3
f 126/2/3 125/2/3 124/2/3
f 127/1/3 119/1/3 125/1/3
f 127/2/3 125/2/3 126/2/3
f 128/1/3 119/1/3 127/1/3
f 129/2/3 121/2/3 120/2/3
f 130/2/3 121/2/3 129/2/3
f 133/1/3 132/1/3 131/1/3
f 134/1/3 132/1/3 133/1/3
f 137/1/3 136/1/3 135/1/3
f 138/1/3 136/1/3 137/1/3
f 139/1/3 136/1/3 138/1/3
f 143/1/3 141/1/3 140/1/3
f 143/1/3 142/1/3 141/1/3
f 144/1/3 142/1/3 143/1/3
f 147/2/3 146/2/3 145/2/3
f 148/2/3 146/2/3 147/2/3
f 151/1/3 150/1/3 149/1/3
f 152/1/3 150/1/3 151/1/3
f 155/1/3 154/1/3 153/1/3
f 156/1/3 154/1/3 155/1/3
f 159/2/3 158/2/3 157/2/3
f 160/2/3 158/2/3 159/2/3
f 163/2/3 162/2/3 161/2/3
f 164/2/3 162/2/3 163/2/3
f 165/2/4 166/2/4 167/2/4
f 167/2/4 166/2/4 168/2/4
f 169/2/4 170/2/4 171/2/4
f 171/2/4 170/2/4 172/2/4
f 173/1/4 174/1/4 175/1/4
f 175/1/4 174/1/4 176/1/4
f 177/1/4 178/1/4 179/1/4
f 179/1/4 178/1/4 180/1/4
f 181/2/4 182/2/4 183/2/4
f 183/2/4 182/2/4 184/2/4
f 185/1/4 186/1/4 187/1/4
f 187/1/4 186/1/4 188/1/4
f 188/1/4 186/1/4 189/1/4
f 190/1/4 191/1/4 193/1/4
f 191/1/4 192/1/4 193/1/4
f 193/1/4 192/1/4 194/1/4
f 195/1/4 196/1/4 197/1/4
f 197/1/4 196/1/4 198/1/4
f 199/2/4 200/2/4 204/2/4
f 200/1/4 201/1/4 205/1/4
f 204/2/4 200/2/4 205/2/4
f 205/1/4 201/1/4 207/1/4
f 206/2/4 207/2/4 208/2/4
f 207/1/4 201/1/4 209/1/4
f 208/2/4 207/2/4 209/2/4
f 209/1/4 201/1/4 210/1/4
f 202/2/4 203/2/4 211/2/4
f 211/2/4 203/2/4 212/2/4
f 213/1/4 214/1/4 215/1/4
f 215/1/4 214/1/4 216/1/4
f 221/2/5 218/2/5 217/2/5
f 222/2/5 218/2/5 221/2/5
f 223/2/5 220/2/5 219/2/5
f 224/2/5 220/2/5 223/2/5
f 229/2/5 226/2/5 225/2/5
f 230/2/5 226/2/5 229/2/5
f 231/2/5 228/2/5 227/2/5
f 232/2/5 228/2/5 231/2/5
f 236/1/5 234/1/5 233/1/5
f 237/1/5 234/1/5 236/1/5
f 239/1/5 236/1/5 235/1/5
f 239/1/5 238/1/5 237/1/5
f 239/1/5 237/1/5 236/1/5
f 240/1/5 238/1/5 239/1/5
f 241/1/5 238/1/5 240/1/5
f 242/1/5 238/1/5 241/1/5
f 243/1/5 241/1/5 240/1/5
f 244/1/5 241/1/5 243/1/5
f 247/1/5 246/1/5 245/1/5
f 248/1/5 246/1/5 247/1/5
f 249/1/5 247/1/5 245/1/5
f 250/1/5 246/1/5 248/1/5
f 251/1/5 249/1/5 245/1/5
f 251/1/5 250/1/5 249/1/5
f 252/1/5 246/1/5 250/1/5
f 252/1/5 250/1/5 251/1/5
f 257/1/5 254/1/5 253/1/5
f 258/1/5 256/1/5 255/1/5
f 259/1/5 257/1/5 253/1/5
f 260/1/5 256/1/5 258/1/5
f 261/1/5 259/1/5 253/1/5
f 262/1/5 259/1/5 261/1/5
f 263/1/5 256/1/5 260/1/5
f 264/1/5 256/1/5 263/1/5
f 265/1/6 266/1/6 267/1/6
f 267/1/6 266/1/6 268/1/6
f 265/1/6 267/1/6 269/1/6
f 268/1/6 266/1/6 270/1/6
f 265/1/6 269/1/6 271/1/6
f 269/1/6 270/1/6 271/1/6
f 270/1/6 266/1/6 272/1/6
f 271/1/6 270/1/6 272/1/6
f 273/1/6 274/1/6 275/1/6
f 275/1/6 274/1/6 276/1/6
f 273/1/6 275/1/6 277/1/6
f 277/1/6 275/1/6 278/1/6
f 276/1/6 274/1/6 279/1/6
f 279/1/6 274/1/6 280/1/6
f 281/1/6 282/1/6 285/1/6
f 283/1/6 284/1/6 286/1/6
f 281/1/6 285/1/6 287/1/6
f 285/1/6 286/1/6 287/1/6
f 286/1/6 284/1/6 288/1/6
f 287/1/6 286/1/6 288/1/6
f 281/1/6 287/1/6 289/1/6
f 289/1/6 287/1/6 290/1/6
f 288/1/6 284/1/6 291/1/6
f 291/1/6 284/1/6 292/1/6
f 293/1/6 294/1/6 297/1/6
f 295/1/6 296/1/6 298/1/6
f 293/1/6 297/1/6 299/1/6
f 297/1/6 298/1/6 299/1/6
f 298/1/6 296/1/6 300/1/6
f 299/1/6 298/1/6 300/1/6
f 301/2/6 302/2/6 303/2/6
f 303/2/6 302/2/6 304/2/6
f 303/2/6 304/2/6 305/2/6
f 305/2/6 304/2/6 306/2/6
f 307/2/6 308/2/6 309/2/6
f 309/2/6 308/2/6 310/2/6
f 309/2/6 310/2/6 311/2/6
f 311/2/6 310/2/6 312/2/6
f 313/1/6 314/1/6 317/1/6
f 317/1/6 314/1/6 318/1/6
f 315/1/6 316/1/6 319/1/6
f 319/1/6 316/1/6 320/1/6
