# MagicaVoxel @ Ephtracy

# material
mtllib obj_cart1b.mtl
usemtl palette

# normals
vn -1 0 0
vn 1 0 0
vn 0 0 1
vn 0 0 -1
vn 0 -1 0
vn 0 1 0

# texcoords
vt 0.341797 0.5
vt 0.373047 0.5
vt 0.853516 0.5
vt 0.966797 0.5
vt 0.970703 0.5
vt 0.974609 0.5
vt 0.982422 0.5

# verts
v -4.5 4 6
v -4.5 4 -5
v -4.5 5 5
v -4.5 5 4
v -4.5 5 3
v -4.5 5 2
v -4.5 5 1
v -4.5 5 -0
v -4.5 5 -1
v -4.5 5 -2
v -4.5 5 -3
v -4.5 5 -4
v -4.5 7 5
v -4.5 7 4
v -4.5 7 3
v -4.5 7 2
v -4.5 7 1
v -4.5 7 -0
v -4.5 7 -1
v -4.5 7 -2
v -4.5 7 -3
v -4.5 7 -4
v -4.5 8 6
v -4.5 8 -5
v -3.5 0 4
v -3.5 0 3
v -3.5 0 -3
v -3.5 0 -4
v -3.5 1 5
v -3.5 1 4
v -3.5 1 3
v -3.5 1 -3
v -3.5 1 -4
v -3.5 1 -5
v -3.5 2 5
v -3.5 2 -1
v -3.5 2 -2
v -3.5 2 -4
v -3.5 2 -5
v -3.5 4 -1
v -3.5 4 -2
v -3.5 4 -4
v -3.5 4 -5
v -3.5 5 5
v -3.5 5 4
v -3.5 5 3
v -3.5 5 2
v -3.5 5 1
v -3.5 5 -0
v -3.5 5 -3
v -3.5 5 -4
v -3.5 7 5
v -3.5 7 4
v -3.5 7 3
v -3.5 7 2
v -3.5 7 1
v -3.5 7 -0
v -3.5 7 -3
v -3.5 7 -4
v -3.5 7 -5
v -3.5 7 -6
v -3.5 8 5
v -3.5 8 2
v -3.5 8 -0
v -3.5 8 -2
v -3.5 8 -4
v -3.5 8 -5
v -3.5 8 -6
v -3.5 9 5
v -3.5 9 2
v -3.5 9 -2
v -3.5 9 -4
v -3.5 10 2
v -3.5 10 -0
v -2.5 5 6
v -2.5 5 5
v -2.5 7 6
v -2.5 7 5
v -1.5 1 4
v -1.5 1 -4
v -1.5 2 4
v -1.5 2 -4
v -1.5 5 -4
v -1.5 5 -5
v -1.5 7 -4
v -1.5 7 -5
v -0.5 5 6
v -0.5 5 5
v -0.5 7 6
v -0.5 7 5
v 0.5 1 4
v 0.5 1 -4
v 0.5 2 4
v 0.5 2 -4
v 0.5 5 2
v 0.5 5 -2
v 0.5 5 -4
v 0.5 5 -5
v 0.5 7 -4
v 0.5 7 -5
v 0.5 8 2
v 0.5 8 -2
v 1.5 5 6
v 1.5 5 5
v 1.5 7 6
v 1.5 7 5
v 2.5 0 4
v 2.5 0 3
v 2.5 0 -3
v 2.5 0 -4
v 2.5 1 4
v 2.5 1 3
v 2.5 1 -3
v 2.5 1 -4
v 2.5 2 4
v 2.5 2 -1
v 2.5 2 -2
v 2.5 2 -4
v 2.5 2 -5
v 2.5 4 -1
v 2.5 4 -2
v 2.5 4 -4
v 2.5 4 -5
v 2.5 5 -4
v 2.5 5 -5
v 2.5 7 -4
v 2.5 7 -5
v 3.5 5 6
v 3.5 5 5
v 3.5 5 -2
v 3.5 5 -3
v 3.5 7 6
v 3.5 7 5
v 3.5 7 -3
v 3.5 7 -4
v 3.5 8 -2
v 3.5 8 -4
v -3.5 5 6
v -3.5 5 5
v -3.5 5 -0
v -3.5 5 -1
v -3.5 7 6
v -3.5 7 5
v -3.5 7 -1
v -3.5 7 -2
v -3.5 8 -0
v -3.5 8 -2
v -2.5 0 4
v -2.5 0 3
v -2.5 0 -3
v -2.5 0 -4
v -2.5 1 4
v -2.5 1 3
v -2.5 1 -3
v -2.5 1 -4
v -2.5 2 4
v -2.5 2 -1
v -2.5 2 -2
v -2.5 2 -4
v -2.5 2 -5
v -2.5 4 -1
v -2.5 4 -2
v -2.5 4 -4
v -2.5 4 -5
v -2.5 5 -4
v -2.5 5 -5
v -2.5 7 -4
v -2.5 7 -5
v -1.5 5 6
v -1.5 5 5
v -1.5 5 2
v -1.5 5 -0
v -1.5 7 6
v -1.5 7 5
v -1.5 9 2
v -1.5 10 2
v -1.5 10 -0
v -0.5 1 4
v -0.5 1 -4
v -0.5 2 4
v -0.5 2 -4
v -0.5 5 -4
v -0.5 5 -5
v -0.5 7 -4
v -0.5 7 -5
v 0.5 5 6
v 0.5 5 5
v 0.5 7 6
v 0.5 7 5
v 1.5 1 4
v 1.5 1 -4
v 1.5 2 4
v 1.5 2 -4
v 1.5 5 -2
v 1.5 5 -4
v 1.5 5 -5
v 1.5 7 -4
v 1.5 7 -5
v 1.5 8 -2
v 1.5 8 -4
v 1.5 9 -2
v 1.5 9 -4
v 2.5 5 6
v 2.5 5 5
v 2.5 7 6
v 2.5 7 5
v 3.5 0 4
v 3.5 0 3
v 3.5 0 -3
v 3.5 0 -4
v 3.5 1 5
v 3.5 1 4
v 3.5 1 3
v 3.5 1 -3
v 3.5 1 -4
v 3.5 1 -5
v 3.5 2 5
v 3.5 2 -1
v 3.5 2 -2
v 3.5 2 -4
v 3.5 2 -5
v 3.5 4 -1
v 3.5 4 -2
v 3.5 4 -4
v 3.5 4 -5
v 3.5 5 5
v 3.5 5 4
v 3.5 5 3
v 3.5 5 2
v 3.5 5 1
v 3.5 5 -0
v 3.5 5 -1
v 3.5 5 -2
v 3.5 7 5
v 3.5 7 4
v 3.5 7 3
v 3.5 7 2
v 3.5 7 1
v 3.5 7 -0
v 3.5 7 -1
v 3.5 7 -2
v 3.5 7 -5
v 3.5 7 -6
v 3.5 8 5
v 3.5 8 2
v 3.5 8 -5
v 3.5 8 -6
v 3.5 9 5
v 3.5 9 2
v 4.5 4 6
v 4.5 4 -5
v 4.5 5 5
v 4.5 5 4
v 4.5 5 3
v 4.5 5 2
v 4.5 5 1
v 4.5 5 -0
v 4.5 5 -1
v 4.5 5 -2
v 4.5 5 -3
v 4.5 5 -4
v 4.5 7 5
v 4.5 7 4
v 4.5 7 3
v 4.5 7 2
v 4.5 7 1
v 4.5 7 -0
v 4.5 7 -1
v 4.5 7 -2
v 4.5 7 -3
v 4.5 7 -4
v 4.5 8 6
v 4.5 8 -5
v -4.5 4 6
v -4.5 8 6
v -3.5 5 6
v -3.5 7 6
v -2.5 5 6
v -2.5 7 6
v -1.5 5 6
v -1.5 7 6
v -0.5 5 6
v -0.5 7 6
v 0.5 5 6
v 0.5 7 6
v 1.5 5 6
v 1.5 7 6
v 2.5 5 6
v 2.5 7 6
v 3.5 5 6
v 3.5 7 6
v 4.5 4 6
v 4.5 8 6
v -3.5 1 5
v -3.5 2 5
v -3.5 5 5
v -3.5 7 5
v -3.5 8 5
v -3.5 9 5
v -2.5 5 5
v -2.5 7 5
v -1.5 5 5
v -1.5 7 5
v -0.5 5 5
v -0.5 7 5
v 0.5 5 5
v 0.5 7 5
v 1.5 5 5
v 1.5 7 5
v 2.5 5 5
v 2.5 7 5
v 3.5 1 5
v 3.5 2 5
v 3.5 5 5
v 3.5 7 5
v 3.5 8 5
v 3.5 9 5
v -4.5 5 4
v -4.5 7 4
v -3.5 0 4
v -3.5 1 4
v -3.5 5 4
v -3.5 7 4
v -2.5 0 4
v -2.5 1 4
v 2.5 0 4
v 2.5 1 4
v 3.5 0 4
v 3.5 1 4
v 3.5 5 4
v 3.5 7 4
v 4.5 5 4
v 4.5 7 4
v -4.5 5 2
v -4.5 7 2
v -3.5 5 2
v -3.5 7 2
v -3.5 9 2
v -3.5 10 2
v -1.5 9 2
v -1.5 10 2
v 3.5 5 2
v 3.5 7 2
v 4.5 5 2
v 4.5 7 2
v -4.5 5 -0
v -4.5 7 -0
v -3.5 5 -0
v -3.5 7 -0
v 3.5 5 -0
v 3.5 7 -0
v 4.5 5 -0
v 4.5 7 -0
v -3.5 2 -1
v -3.5 4 -1
v -2.5 2 -1
v -2.5 4 -1
v 2.5 2 -1
v 2.5 4 -1
v 3.5 2 -1
v 3.5 4 -1
v -4.5 5 -2
v -4.5 7 -2
v -3.5 5 -2
v -3.5 7 -2
v -3.5 8 -2
v -3.5 9 -2
v 0.5 5 -2
v 0.5 8 -2
v 1.5 8 -2
v 1.5 9 -2
v 3.5 5 -2
v 3.5 7 -2
v 4.5 5 -2
v 4.5 7 -2
v -3.5 0 -3
v -3.5 1 -3
v -2.5 0 -3
v -2.5 1 -3
v 2.5 0 -3
v 2.5 1 -3
v 3.5 0 -3
v 3.5 1 -3
v -4.5 5 -4
v -4.5 7 -4
v -3.5 2 -4
v -3.5 4 -4
v -3.5 5 -4
v -3.5 7 -4
v -2.5 1 -4
v -2.5 2 -4
v -2.5 4 -4
v -1.5 1 -4
v -1.5 2 -4
v -0.5 1 -4
v -0.5 2 -4
v 0.5 1 -4
v 0.5 2 -4
v 1.5 1 -4
v 1.5 2 -4
v 1.5 7 -4
v 1.5 8 -4
v 2.5 1 -4
v 2.5 2 -4
v 2.5 4 -4
v 2.5 5 -4
v 2.5 7 -4
v 3.5 2 -4
v 3.5 4 -4
v 3.5 7 -4
v 3.5 8 -4
v 4.5 5 -4
v 4.5 7 -4
v -4.5 5 5
v -4.5 7 5
v -3.5 5 5
v -3.5 7 5
v 3.5 5 5
v 3.5 7 5
v 4.5 5 5
v 4.5 7 5
v -2.5 1 4
v -2.5 2 4
v -1.5 1 4
v -1.5 2 4
v -0.5 1 4
v -0.5 2 4
v 0.5 1 4
v 0.5 2 4
v 1.5 1 4
v 1.5 2 4
v 2.5 1 4
v 2.5 2 4
v -4.5 5 3
v -4.5 7 3
v -3.5 0 3
v -3.5 1 3
v -3.5 5 3
v -3.5 7 3
v -2.5 0 3
v -2.5 1 3
v 2.5 0 3
v 2.5 1 3
v 3.5 0 3
v 3.5 1 3
v 3.5 5 3
v 3.5 7 3
v 4.5 5 3
v 4.5 7 3
v -1.5 5 2
v -1.5 9 2
v 0.5 5 2
v 0.5 8 2
v 3.5 8 2
v 3.5 9 2
v -4.5 5 1
v -4.5 7 1
v -3.5 5 1
v -3.5 7 1
v 3.5 5 1
v 3.5 7 1
v 4.5 5 1
v 4.5 7 1
v -3.5 5 -0
v -3.5 8 -0
v -3.5 10 -0
v -1.5 5 -0
v -1.5 10 -0
v -4.5 5 -1
v -4.5 7 -1
v -3.5 5 -1
v -3.5 7 -1
v 3.5 5 -1
v 3.5 7 -1
v 4.5 5 -1
v 4.5 7 -1
v -3.5 2 -2
v -3.5 4 -2
v -2.5 2 -2
v -2.5 4 -2
v 1.5 5 -2
v 1.5 8 -2
v 2.5 2 -2
v 2.5 4 -2
v 3.5 2 -2
v 3.5 4 -2
v 3.5 5 -2
v 3.5 8 -2
v -4.5 5 -3
v -4.5 7 -3
v -3.5 5 -3
v -3.5 7 -3
v 3.5 5 -3
v 3.5 7 -3
v 4.5 5 -3
v 4.5 7 -3
v -3.5 0 -4
v -3.5 1 -4
v -3.5 8 -4
v -3.5 9 -4
v -2.5 0 -4
v -2.5 1 -4
v -2.5 5 -4
v -2.5 7 -4
v -1.5 5 -4
v -1.5 7 -4
v -0.5 5 -4
v -0.5 7 -4
v 0.5 5 -4
v 0.5 7 -4
v 1.5 8 -4
v 1.5 9 -4
v 2.5 0 -4
v 2.5 1 -4
v 3.5 0 -4
v 3.5 1 -4
v -4.5 4 -5
v -4.5 8 -5
v -3.5 1 -5
v -3.5 2 -5
v -3.5 4 -5
v -3.5 7 -5
v -3.5 8 -5
v -2.5 2 -5
v -2.5 4 -5
v -2.5 5 -5
v -2.5 7 -5
v -1.5 5 -5
v -1.5 7 -5
v -0.5 5 -5
v -0.5 7 -5
v 0.5 5 -5
v 0.5 7 -5
v 1.5 5 -5
v 1.5 7 -5
v 2.5 2 -5
v 2.5 4 -5
v 2.5 5 -5
v 2.5 7 -5
v 3.5 1 -5
v 3.5 2 -5
v 3.5 4 -5
v 3.5 7 -5
v 3.5 8 -5
v 4.5 4 -5
v 4.5 8 -5
v -3.5 7 -6
v -3.5 8 -6
v -2.5 7 -6
v -2.5 8 -6
v 2.5 7 -6
v 2.5 8 -6
v 3.5 7 -6
v 3.5 8 -6
v -3.5 0 4
v -2.5 0 4
v 2.5 0 4
v 3.5 0 4
v -3.5 0 3
v -2.5 0 3
v 2.5 0 3
v 3.5 0 3
v -3.5 0 -3
v -2.5 0 -3
v 2.5 0 -3
v 3.5 0 -3
v -3.5 0 -4
v -2.5 0 -4
v 2.5 0 -4
v 3.5 0 -4
v -3.5 1 5
v 3.5 1 5
v -3.5 1 4
v -2.5 1 4
v -1.5 1 4
v -0.5 1 4
v 0.5 1 4
v 1.5 1 4
v 2.5 1 4
v 3.5 1 4
v -3.5 1 3
v -2.5 1 3
v 2.5 1 3
v 3.5 1 3
v -3.5 1 -3
v -2.5 1 -3
v 2.5 1 -3
v 3.5 1 -3
v -3.5 1 -4
v -2.5 1 -4
v -1.5 1 -4
v -0.5 1 -4
v 0.5 1 -4
v 1.5 1 -4
v 2.5 1 -4
v 3.5 1 -4
v -3.5 1 -5
v 3.5 1 -5
v -4.5 4 6
v 4.5 4 6
v -3.5 4 -1
v -2.5 4 -1
v 2.5 4 -1
v 3.5 4 -1
v -3.5 4 -2
v -2.5 4 -2
v 2.5 4 -2
v 3.5 4 -2
v -3.5 4 -4
v -2.5 4 -4
v 2.5 4 -4
v 3.5 4 -4
v -4.5 4 -5
v -3.5 4 -5
v -2.5 4 -5
v 2.5 4 -5
v 3.5 4 -5
v 4.5 4 -5
v -3.5 7 6
v -2.5 7 6
v -1.5 7 6
v -0.5 7 6
v 0.5 7 6
v 1.5 7 6
v 2.5 7 6
v 3.5 7 6
v -4.5 7 5
v -3.5 7 5
v -2.5 7 5
v -1.5 7 5
v -0.5 7 5
v 0.5 7 5
v 1.5 7 5
v 2.5 7 5
v 3.5 7 5
v 4.5 7 5
v -4.5 7 4
v -3.5 7 4
v 3.5 7 4
v 4.5 7 4
v -4.5 7 3
v -3.5 7 3
v 3.5 7 3
v 4.5 7 3
v -4.5 7 2
v -3.5 7 2
v 3.5 7 2
v 4.5 7 2
v -4.5 7 1
v -3.5 7 1
v 3.5 7 1
v 4.5 7 1
v -4.5 7 -0
v -3.5 7 -0
v 3.5 7 -0
v 4.5 7 -0
v -4.5 7 -1
v -3.5 7 -1
v 3.5 7 -1
v 4.5 7 -1
v -4.5 7 -2
v -3.5 7 -2
v 3.5 7 -2
v 4.5 7 -2
v -4.5 7 -3
v -3.5 7 -3
v 3.5 7 -3
v 4.5 7 -3
v -4.5 7 -4
v -3.5 7 -4
v -2.5 7 -4
v -1.5 7 -4
v -0.5 7 -4
v 0.5 7 -4
v 1.5 7 -4
v 2.5 7 -4
v 3.5 7 -4
v 4.5 7 -4
v -3.5 7 -5
v -2.5 7 -5
v -1.5 7 -5
v -0.5 7 -5
v 0.5 7 -5
v 1.5 7 -5
v 2.5 7 -5
v 3.5 7 -5
v -3.5 7 -6
v -2.5 7 -6
v 2.5 7 -6
v 3.5 7 -6
v -3.5 2 5
v 3.5 2 5
v -2.5 2 4
v -1.5 2 4
v -0.5 2 4
v 0.5 2 4
v 1.5 2 4
v 2.5 2 4
v -3.5 2 -1
v -2.5 2 -1
v 2.5 2 -1
v 3.5 2 -1
v -3.5 2 -2
v -2.5 2 -2
v 2.5 2 -2
v 3.5 2 -2
v -3.5 2 -4
v -2.5 2 -4
v -1.5 2 -4
v -0.5 2 -4
v 0.5 2 -4
v 1.5 2 -4
v 2.5 2 -4
v 3.5 2 -4
v -2.5 2 -5
v 2.5 2 -5
v -3.5 5 6
v -2.5 5 6
v -1.5 5 6
v -0.5 5 6
v 0.5 5 6
v 1.5 5 6
v 2.5 5 6
v 3.5 5 6
v -4.5 5 5
v -3.5 5 5
v -2.5 5 5
v -1.5 5 5
v -0.5 5 5
v 0.5 5 5
v 1.5 5 5
v 2.5 5 5
v 3.5 5 5
v 4.5 5 5
v -4.5 5 4
v -3.5 5 4
v 3.5 5 4
v 4.5 5 4
v -4.5 5 3
v -3.5 5 3
v 3.5 5 3
v 4.5 5 3
v -4.5 5 2
v -3.5 5 2
v -1.5 5 2
v 0.5 5 2
v 3.5 5 2
v 4.5 5 2
v -4.5 5 1
v -3.5 5 1
v 3.5 5 1
v 4.5 5 1
v -4.5 5 -0
v -3.5 5 -0
v -1.5 5 -0
v 3.5 5 -0
v 4.5 5 -0
v -4.5 5 -1
v -3.5 5 -1
v 3.5 5 -1
v 4.5 5 -1
v -4.5 5 -2
v -3.5 5 -2
v 0.5 5 -2
v 1.5 5 -2
v 3.5 5 -2
v 4.5 5 -2
v -4.5 5 -3
v -3.5 5 -3
v 3.5 5 -3
v 4.5 5 -3
v -4.5 5 -4
v -3.5 5 -4
v -2.5 5 -4
v -1.5 5 -4
v -0.5 5 -4
v 0.5 5 -4
v 1.5 5 -4
v 2.5 5 -4
v 4.5 5 -4
v -2.5 5 -5
v -1.5 5 -5
v -0.5 5 -5
v 0.5 5 -5
v 1.5 5 -5
v 2.5 5 -5
v -4.5 8 6
v 4.5 8 6
v -3.5 8 5
v 3.5 8 5
v -3.5 8 2
v 0.5 8 2
v 3.5 8 2
v -3.5 8 -0
v -3.5 8 -2
v 0.5 8 -2
v 1.5 8 -2
v 3.5 8 -2
v -3.5 8 -4
v 1.5 8 -4
v 3.5 8 -4
v -4.5 8 -5
v -3.5 8 -5
v -2.5 8 -5
v 2.5 8 -5
v 3.5 8 -5
v 4.5 8 -5
v -3.5 8 -6
v -2.5 8 -6
v 2.5 8 -6
v 3.5 8 -6
v -3.5 9 5
v 3.5 9 5
v -3.5 9 2
v -1.5 9 2
v 3.5 9 2
v -3.5 9 -2
v 1.5 9 -2
v -3.5 9 -4
v 1.5 9 -4
v -3.5 10 2
v -1.5 10 2
v -3.5 10 -0
v -1.5 10 -0

# faces
f 3/5/1 2/5/1 1/5/1
f 4/5/1 2/5/1 3/5/1
f 5/5/1 2/5/1 4/5/1
f 6/5/1 2/5/1 5/5/1
f 7/5/1 2/5/1 6/5/1
f 8/5/1 2/5/1 7/5/1
f 9/5/1 2/5/1 8/5/1
f 10/5/1 2/5/1 9/5/1
f 11/5/1 2/5/1 10/5/1
f 12/5/1 2/5/1 11/5/1
f 13/5/1 3/5/1 1/5/1
f 14/5/1 5/5/1 4/5/1
f 15/5/1 5/5/1 14/5/1
f 16/5/1 7/5/1 6/5/1
f 17/5/1 7/5/1 16/5/1
f 18/5/1 9/5/1 8/5/1
f 19/5/1 9/5/1 18/5/1
f 20/5/1 11/5/1 10/5/1
f 21/5/1 11/5/1 20/5/1
f 22/5/1 2/5/1 12/5/1
f 23/5/1 21/5/1 20/5/1
f 23/5/1 22/5/1 21/5/1
f 23/5/1 19/5/1 18/5/1
f 23/5/1 13/5/1 1/5/1
f 23/5/1 20/5/1 19/5/1
f 23/5/1 17/5/1 16/5/1
f 23/5/1 18/5/1 17/5/1
f 23/5/1 15/5/1 14/5/1
f 23/5/1 16/5/1 15/5/1
f 23/5/1 14/5/1 13/5/1
f 24/5/1 2/5/1 22/5/1
f 24/5/1 22/5/1 23/5/1
f 30/7/1 26/7/1 25/7/1
f 31/7/1 26/7/1 30/7/1
f 32/7/1 28/7/1 27/7/1
f 33/7/1 28/7/1 32/7/1
f 35/5/1 31/5/1 30/5/1
f 35/5/1 34/5/1 33/5/1
f 35/5/1 33/5/1 32/5/1
f 35/5/1 32/5/1 31/5/1
f 35/5/1 30/5/1 29/5/1
f 36/5/1 34/5/1 35/5/1
f 37/5/1 34/5/1 36/5/1
f 38/5/1 34/5/1 37/5/1
f 39/5/1 34/5/1 38/5/1
f 40/4/1 37/4/1 36/4/1
f 41/4/1 37/4/1 40/4/1
f 42/4/1 39/4/1 38/4/1
f 43/4/1 39/4/1 42/4/1
f 52/2/1 45/2/1 44/2/1
f 53/2/1 45/2/1 52/2/1
f 54/2/1 47/2/1 46/2/1
f 55/2/1 47/2/1 54/2/1
f 56/1/1 49/1/1 48/1/1
f 57/1/1 49/1/1 56/1/1
f 58/2/1 51/2/1 50/2/1
f 59/2/1 51/2/1 58/2/1
f 67/6/1 61/6/1 60/6/1
f 68/6/1 61/6/1 67/6/1
f 69/2/1 63/2/1 62/2/1
f 70/1/1 64/1/1 63/1/1
f 70/2/1 63/2/1 69/2/1
f 71/2/1 66/2/1 65/2/1
f 72/2/1 66/2/1 71/2/1
f 73/1/1 64/1/1 70/1/1
f 74/1/1 64/1/1 73/1/1
f 77/5/1 76/5/1 75/5/1
f 78/5/1 76/5/1 77/5/1
f 81/5/1 80/5/1 79/5/1
f 82/5/1 80/5/1 81/5/1
f 85/5/1 84/5/1 83/5/1
f 86/5/1 84/5/1 85/5/1
f 89/5/1 88/5/1 87/5/1
f 90/5/1 88/5/1 89/5/1
f 93/5/1 92/5/1 91/5/1
f 94/5/1 92/5/1 93/5/1
f 99/5/1 98/5/1 97/5/1
f 100/5/1 98/5/1 99/5/1
f 101/1/1 96/1/1 95/1/1
f 102/1/1 96/1/1 101/1/1
f 105/5/1 104/5/1 103/5/1
f 106/5/1 104/5/1 105/5/1
f 111/7/1 108/7/1 107/7/1
f 112/7/1 108/7/1 111/7/1
f 113/7/1 110/7/1 109/7/1
f 114/7/1 110/7/1 113/7/1
f 115/5/1 112/5/1 111/5/1
f 115/5/1 113/5/1 112/5/1
f 115/5/1 114/5/1 113/5/1
f 116/5/1 114/5/1 115/5/1
f 117/5/1 114/5/1 116/5/1
f 118/5/1 114/5/1 117/5/1
f 120/4/1 117/4/1 116/4/1
f 121/4/1 117/4/1 120/4/1
f 122/4/1 119/4/1 118/4/1
f 123/4/1 119/4/1 122/4/1
f 126/5/1 125/5/1 124/5/1
f 127/5/1 125/5/1 126/5/1
f 132/5/1 129/5/1 128/5/1
f 133/5/1 129/5/1 132/5/1
f 134/5/1 131/5/1 130/5/1
f 136/5/1 135/5/1 134/5/1
f 136/5/1 134/5/1 130/5/1
f 137/5/1 135/5/1 136/5/1
f 138/5/2 139/5/2 142/5/2
f 142/5/2 139/5/2 143/5/2
f 140/5/2 141/5/2 144/5/2
f 144/5/2 145/5/2 146/5/2
f 140/5/2 144/5/2 146/5/2
f 146/5/2 145/5/2 147/5/2
f 148/7/2 149/7/2 152/7/2
f 152/7/2 149/7/2 153/7/2
f 150/7/2 151/7/2 154/7/2
f 154/7/2 151/7/2 155/7/2
f 152/5/2 153/5/2 156/5/2
f 153/5/2 154/5/2 156/5/2
f 154/5/2 155/5/2 156/5/2
f 156/5/2 155/5/2 157/5/2
f 157/5/2 155/5/2 158/5/2
f 158/5/2 155/5/2 159/5/2
f 157/4/2 158/4/2 161/4/2
f 161/4/2 158/4/2 162/4/2
f 159/4/2 160/4/2 163/4/2
f 163/4/2 160/4/2 164/4/2
f 165/5/2 166/5/2 167/5/2
f 167/5/2 166/5/2 168/5/2
f 169/5/2 170/5/2 173/5/2
f 173/5/2 170/5/2 174/5/2
f 171/1/2 172/1/2 175/1/2
f 175/1/2 172/1/2 176/1/2
f 176/1/2 172/1/2 177/1/2
f 178/5/2 179/5/2 180/5/2
f 180/5/2 179/5/2 181/5/2
f 182/5/2 183/5/2 184/5/2
f 184/5/2 183/5/2 185/5/2
f 186/5/2 187/5/2 188/5/2
f 188/5/2 187/5/2 189/5/2
f 190/5/2 191/5/2 192/5/2
f 192/5/2 191/5/2 193/5/2
f 194/2/2 195/2/2 197/2/2
f 195/5/2 196/5/2 197/5/2
f 197/5/2 196/5/2 198/5/2
f 194/2/2 197/2/2 199/2/2
f 199/2/2 197/2/2 200/2/2
f 199/2/2 200/2/2 201/2/2
f 201/2/2 200/2/2 202/2/2
f 203/5/2 204/5/2 205/5/2
f 205/5/2 204/5/2 206/5/2
f 207/7/2 208/7/2 212/7/2
f 212/7/2 208/7/2 213/7/2
f 209/7/2 210/7/2 214/7/2
f 214/7/2 210/7/2 215/7/2
f 212/5/2 213/5/2 217/5/2
f 215/5/2 216/5/2 217/5/2
f 214/5/2 215/5/2 217/5/2
f 213/5/2 214/5/2 217/5/2
f 211/5/2 212/5/2 217/5/2
f 217/5/2 216/5/2 218/5/2
f 218/5/2 216/5/2 219/5/2
f 219/5/2 216/5/2 220/5/2
f 220/5/2 216/5/2 221/5/2
f 218/4/2 219/4/2 222/4/2
f 222/4/2 219/4/2 223/4/2
f 220/4/2 221/4/2 224/4/2
f 224/4/2 221/4/2 225/4/2
f 226/2/2 227/2/2 234/2/2
f 234/2/2 227/2/2 235/2/2
f 228/2/2 229/2/2 236/2/2
f 236/2/2 229/2/2 237/2/2
f 230/1/2 231/1/2 238/1/2
f 238/1/2 231/1/2 239/1/2
f 232/1/2 233/1/2 240/1/2
f 240/1/2 233/1/2 241/1/2
f 242/6/2 243/6/2 246/6/2
f 246/6/2 243/6/2 247/6/2
f 244/2/2 245/2/2 248/2/2
f 248/2/2 245/2/2 249/2/2
f 250/5/2 251/5/2 252/5/2
f 252/5/2 251/5/2 253/5/2
f 253/5/2 251/5/2 254/5/2
f 254/5/2 251/5/2 255/5/2
f 255/5/2 251/5/2 256/5/2
f 256/5/2 251/5/2 257/5/2
f 257/5/2 251/5/2 258/5/2
f 258/5/2 251/5/2 259/5/2
f 259/5/2 251/5/2 260/5/2
f 260/5/2 251/5/2 261/5/2
f 250/5/2 252/5/2 262/5/2
f 253/5/2 254/5/2 263/5/2
f 263/5/2 254/5/2 264/5/2
f 255/5/2 256/5/2 265/5/2
f 265/5/2 256/5/2 266/5/2
f 257/5/2 258/5/2 267/5/2
f 267/5/2 258/5/2 268/5/2
f 259/5/2 260/5/2 269/5/2
f 269/5/2 260/5/2 270/5/2
f 261/5/2 251/5/2 271/5/2
f 269/5/2 270/5/2 272/5/2
f 270/5/2 271/5/2 272/5/2
f 267/5/2 268/5/2 272/5/2
f 250/5/2 262/5/2 272/5/2
f 268/5/2 269/5/2 272/5/2
f 265/5/2 266/5/2 272/5/2
f 266/5/2 267/5/2 272/5/2
f 263/5/2 264/5/2 272/5/2
f 264/5/2 265/5/2 272/5/2
f 262/5/2 263/5/2 272/5/2
f 271/5/2 251/5/2 273/5/2
f 272/5/2 271/5/2 273/5/2
f 276/5/3 275/5/3 274/5/3
f 277/5/3 275/5/3 276/5/3
f 278/5/3 276/5/3 274/5/3
f 279/5/3 275/5/3 277/5/3
f 280/5/3 278/5/3 274/5/3
f 280/5/3 279/5/3 278/5/3
f 281/5/3 275/5/3 279/5/3
f 281/5/3 279/5/3 280/5/3
f 282/5/3 280/5/3 274/5/3
f 283/5/3 275/5/3 281/5/3
f 284/5/3 282/5/3 274/5/3
f 284/5/3 283/5/3 282/5/3
f 285/5/3 275/5/3 283/5/3
f 285/5/3 283/5/3 284/5/3
f 286/5/3 284/5/3 274/5/3
f 287/5/3 275/5/3 285/5/3
f 288/5/3 286/5/3 274/5/3
f 288/5/3 287/5/3 286/5/3
f 289/5/3 275/5/3 287/5/3
f 289/5/3 287/5/3 288/5/3
f 290/5/3 288/5/3 274/5/3
f 291/5/3 275/5/3 289/5/3
f 292/5/3 290/5/3 274/5/3
f 292/5/3 291/5/3 290/5/3
f 293/5/3 275/5/3 291/5/3
f 293/5/3 291/5/3 292/5/3
f 300/2/3 297/2/3 296/2/3
f 301/2/3 297/2/3 300/2/3
f 304/2/3 303/2/3 302/2/3
f 305/2/3 303/2/3 304/2/3
f 308/2/3 307/2/3 306/2/3
f 309/2/3 307/2/3 308/2/3
f 312/5/3 295/5/3 294/5/3
f 313/5/3 295/5/3 312/5/3
f 314/2/3 311/2/3 310/2/3
f 315/2/3 311/2/3 314/2/3
f 316/2/3 299/2/3 298/2/3
f 317/2/3 299/2/3 316/2/3
f 322/5/3 319/5/3 318/5/3
f 323/5/3 319/5/3 322/5/3
f 324/7/3 321/7/3 320/7/3
f 325/7/3 321/7/3 324/7/3
f 328/7/3 327/7/3 326/7/3
f 329/7/3 327/7/3 328/7/3
f 332/5/3 331/5/3 330/5/3
f 333/5/3 331/5/3 332/5/3
f 336/5/3 335/5/3 334/5/3
f 337/5/3 335/5/3 336/5/3
f 340/1/3 339/1/3 338/1/3
f 341/1/3 339/1/3 340/1/3
f 344/5/3 343/5/3 342/5/3
f 345/5/3 343/5/3 344/5/3
f 348/5/3 347/5/3 346/5/3
f 349/5/3 347/5/3 348/5/3
f 352/5/3 351/5/3 350/5/3
f 353/5/3 351/5/3 352/5/3
f 356/4/3 355/4/3 354/4/3
f 357/4/3 355/4/3 356/4/3
f 360/4/3 359/4/3 358/4/3
f 361/4/3 359/4/3 360/4/3
f 364/5/3 363/5/3 362/5/3
f 365/5/3 363/5/3 364/5/3
f 368/2/3 365/2/3 364/2/3
f 368/2/3 367/2/3 366/2/3
f 368/2/3 366/2/3 365/2/3
f 369/2/3 367/2/3 368/2/3
f 370/2/3 367/2/3 369/2/3
f 371/2/3 367/2/3 370/2/3
f 374/5/3 373/5/3 372/5/3
f 375/5/3 373/5/3 374/5/3
f 378/7/3 377/7/3 376/7/3
f 379/7/3 377/7/3 378/7/3
f 382/7/3 381/7/3 380/7/3
f 383/7/3 381/7/3 382/7/3
f 388/5/3 385/5/3 384/5/3
f 389/5/3 385/5/3 388/5/3
f 391/4/3 387/4/3 386/4/3
f 392/4/3 387/4/3 391/4/3
f 393/5/3 391/5/3 390/5/3
f 394/5/3 391/5/3 393/5/3
f 397/5/3 396/5/3 395/5/3
f 398/5/3 396/5/3 397/5/3
f 403/5/3 400/5/3 399/5/3
f 404/5/3 400/5/3 403/5/3
f 407/5/3 402/5/3 401/5/3
f 408/4/3 405/4/3 404/4/3
f 409/4/3 405/4/3 408/4/3
f 410/5/3 407/5/3 406/5/3
f 410/5/3 402/5/3 407/5/3
f 411/5/3 402/5/3 410/5/3
f 412/5/3 410/5/3 406/5/3
f 413/5/3 410/5/3 412/5/3
f 414/5/4 415/5/4 416/5/4
f 416/5/4 415/5/4 417/5/4
f 418/5/4 419/5/4 420/5/4
f 420/5/4 419/5/4 421/5/4
f 422/5/4 423/5/4 424/5/4
f 424/5/4 423/5/4 425/5/4
f 426/5/4 427/5/4 428/5/4
f 428/5/4 427/5/4 429/5/4
f 430/5/4 431/5/4 432/5/4
f 432/5/4 431/5/4 433/5/4
f 434/5/4 435/5/4 438/5/4
f 438/5/4 435/5/4 439/5/4
f 436/7/4 437/7/4 440/7/4
f 440/7/4 437/7/4 441/7/4
f 442/7/4 443/7/4 444/7/4
f 444/7/4 443/7/4 445/7/4
f 446/5/4 447/5/4 448/5/4
f 448/5/4 447/5/4 449/5/4
f 450/2/4 451/2/4 452/2/4
f 452/2/4 451/2/4 453/2/4
f 453/2/4 451/2/4 454/2/4
f 454/2/4 451/2/4 455/2/4
f 456/5/4 457/5/4 458/5/4
f 458/5/4 457/5/4 459/5/4
f 460/5/4 461/5/4 462/5/4
f 462/5/4 461/5/4 463/5/4
f 464/1/4 465/1/4 467/1/4
f 465/1/4 466/1/4 467/1/4
f 467/1/4 466/1/4 468/1/4
f 469/5/4 470/5/4 471/5/4
f 471/5/4 470/5/4 472/5/4
f 473/5/4 474/5/4 475/5/4
f 475/5/4 474/5/4 476/5/4
f 477/4/4 478/4/4 479/4/4
f 479/4/4 478/4/4 480/4/4
f 483/4/4 484/4/4 485/4/4
f 485/4/4 484/4/4 486/4/4
f 481/1/4 482/1/4 487/1/4
f 487/1/4 482/1/4 488/1/4
f 489/5/4 490/5/4 491/5/4
f 491/5/4 490/5/4 492/5/4
f 493/5/4 494/5/4 495/5/4
f 495/5/4 494/5/4 496/5/4
f 497/7/4 498/7/4 501/7/4
f 501/7/4 498/7/4 502/7/4
f 503/2/4 504/2/4 505/2/4
f 505/2/4 504/2/4 506/2/4
f 507/2/4 508/2/4 509/2/4
f 509/2/4 508/2/4 510/2/4
f 499/2/4 500/2/4 511/2/4
f 511/2/4 500/2/4 512/2/4
f 513/7/4 514/7/4 515/7/4
f 515/7/4 514/7/4 516/7/4
f 517/5/4 518/5/4 521/5/4
f 521/5/4 518/5/4 522/5/4
f 522/5/4 518/5/4 523/5/4
f 519/5/4 520/5/4 524/5/4
f 520/4/4 521/4/4 524/4/4
f 521/5/4 522/5/4 525/5/4
f 524/4/4 521/4/4 525/4/4
f 525/5/4 522/5/4 526/5/4
f 526/5/4 522/5/4 527/5/4
f 525/5/4 526/5/4 528/5/4
f 525/5/4 528/5/4 530/5/4
f 528/5/4 529/5/4 530/5/4
f 530/5/4 529/5/4 531/5/4
f 525/5/4 530/5/4 532/5/4
f 525/5/4 532/5/4 534/5/4
f 532/5/4 533/5/4 534/5/4
f 534/5/4 533/5/4 535/5/4
f 519/5/4 524/5/4 536/5/4
f 525/5/4 534/5/4 537/5/4
f 537/5/4 534/5/4 538/5/4
f 519/5/4 536/5/4 540/5/4
f 536/4/4 537/4/4 541/4/4
f 540/5/4 536/5/4 541/5/4
f 538/5/4 539/5/4 542/5/4
f 541/4/4 537/4/4 542/4/4
f 537/5/4 538/5/4 542/5/4
f 542/5/4 539/5/4 543/5/4
f 542/5/4 543/5/4 545/5/4
f 543/5/4 544/5/4 545/5/4
f 545/5/4 544/5/4 546/5/4
f 547/6/4 548/6/4 549/6/4
f 549/6/4 548/6/4 550/6/4
f 549/3/4 550/3/4 551/3/4
f 551/3/4 550/3/4 552/3/4
f 551/6/4 552/6/4 553/6/4
f 553/6/4 552/6/4 554/6/4
f 559/7/5 556/7/5 555/7/5
f 560/7/5 556/7/5 559/7/5
f 561/7/5 558/7/5 557/7/5
f 562/7/5 558/7/5 561/7/5
f 567/7/5 564/7/5 563/7/5
f 568/7/5 564/7/5 567/7/5
f 569/7/5 566/7/5 565/7/5
f 570/7/5 566/7/5 569/7/5
f 573/5/5 572/5/5 571/5/5
f 574/5/5 572/5/5 573/5/5
f 575/5/5 572/5/5 574/5/5
f 576/5/5 572/5/5 575/5/5
f 577/5/5 572/5/5 576/5/5
f 578/5/5 572/5/5 577/5/5
f 579/5/5 572/5/5 578/5/5
f 580/5/5 572/5/5 579/5/5
f 585/5/5 582/5/5 581/5/5
f 586/5/5 582/5/5 585/5/5
f 587/5/5 584/5/5 583/5/5
f 588/5/5 584/5/5 587/5/5
f 591/5/5 576/5/5 575/5/5
f 592/5/5 576/5/5 591/5/5
f 593/5/5 578/5/5 577/5/5
f 594/5/5 578/5/5 593/5/5
f 597/5/5 592/5/5 591/5/5
f 597/5/5 596/5/5 595/5/5
f 597/5/5 595/5/5 594/5/5
f 597/5/5 594/5/5 593/5/5
f 597/5/5 593/5/5 592/5/5
f 597/5/5 590/5/5 589/5/5
f 597/5/5 591/5/5 590/5/5
f 598/5/5 596/5/5 597/5/5
f 601/5/5 600/5/5 599/5/5
f 602/5/5 600/5/5 601/5/5
f 603/5/5 600/5/5 602/5/5
f 604/5/5 600/5/5 603/5/5
f 605/5/5 601/5/5 599/5/5
f 606/5/5 603/5/5 602/5/5
f 607/5/5 603/5/5 606/5/5
f 608/5/5 600/5/5 604/5/5
f 609/5/5 607/5/5 606/5/5
f 609/5/5 608/5/5 607/5/5
f 609/5/5 605/5/5 599/5/5
f 609/5/5 606/5/5 605/5/5
f 610/5/5 608/5/5 609/5/5
f 611/5/5 608/5/5 610/5/5
f 612/5/5 600/5/5 608/5/5
f 612/5/5 608/5/5 611/5/5
f 613/5/5 609/5/5 599/5/5
f 614/5/5 609/5/5 613/5/5
f 615/5/5 611/5/5 610/5/5
f 616/5/5 611/5/5 615/5/5
f 617/5/5 600/5/5 612/5/5
f 618/5/5 600/5/5 617/5/5
f 628/5/5 620/5/5 619/5/5
f 629/5/5 620/5/5 628/5/5
f 630/5/5 622/5/5 621/5/5
f 631/5/5 622/5/5 630/5/5
f 632/5/5 624/5/5 623/5/5
f 633/5/5 624/5/5 632/5/5
f 634/5/5 626/5/5 625/5/5
f 635/5/5 626/5/5 634/5/5
f 637/5/5 628/5/5 627/5/5
f 638/5/5 628/5/5 637/5/5
f 639/5/5 636/5/5 635/5/5
f 640/5/5 636/5/5 639/5/5
f 645/5/5 642/5/5 641/5/5
f 646/5/5 642/5/5 645/5/5
f 647/5/5 644/5/5 643/5/5
f 648/5/5 644/5/5 647/5/5
f 653/5/5 650/5/5 649/5/5
f 654/5/5 650/5/5 653/5/5
f 655/5/5 652/5/5 651/5/5
f 656/5/5 652/5/5 655/5/5
f 661/5/5 658/5/5 657/5/5
f 662/5/5 658/5/5 661/5/5
f 663/5/5 660/5/5 659/5/5
f 664/5/5 660/5/5 663/5/5
f 669/5/5 666/5/5 665/5/5
f 670/5/5 666/5/5 669/5/5
f 677/5/5 668/5/5 667/5/5
f 678/5/5 668/5/5 677/5/5
f 680/5/5 672/5/5 671/5/5
f 681/5/5 672/5/5 680/5/5
f 682/5/5 674/5/5 673/5/5
f 683/5/5 674/5/5 682/5/5
f 684/5/5 676/5/5 675/5/5
f 685/5/5 676/5/5 684/5/5
f 687/6/5 680/6/5 679/6/5
f 688/3/5 683/3/5 682/3/5
f 688/6/5 680/6/5 687/6/5
f 688/3/5 681/3/5 680/3/5
f 688/3/5 685/3/5 684/3/5
f 688/3/5 684/3/5 683/3/5
f 688/3/5 682/3/5 681/3/5
f 689/6/5 686/6/5 685/6/5
f 689/3/5 685/3/5 688/3/5
f 690/6/5 686/6/5 689/6/5
f 691/5/6 692/5/6 693/5/6
f 693/5/6 692/5/6 694/5/6
f 694/5/6 692/5/6 695/5/6
f 695/5/6 692/5/6 696/5/6
f 696/5/6 692/5/6 697/5/6
f 697/5/6 692/5/6 698/5/6
f 691/5/6 693/5/6 699/5/6
f 699/5/6 693/5/6 700/5/6
f 698/5/6 692/5/6 701/5/6
f 701/5/6 692/5/6 702/5/6
f 703/5/6 704/5/6 707/5/6
f 707/5/6 704/5/6 708/5/6
f 694/5/6 695/5/6 709/5/6
f 709/5/6 695/5/6 710/5/6
f 696/5/6 697/5/6 711/5/6
f 711/5/6 697/5/6 712/5/6
f 705/5/6 706/5/6 713/5/6
f 713/5/6 706/5/6 714/5/6
f 709/5/6 710/5/6 715/5/6
f 712/5/6 713/5/6 715/5/6
f 711/5/6 712/5/6 715/5/6
f 710/5/6 711/5/6 715/5/6
f 708/5/6 709/5/6 715/5/6
f 715/5/6 713/5/6 716/5/6
f 717/5/6 718/5/6 726/5/6
f 726/5/6 718/5/6 727/5/6
f 719/5/6 720/5/6 728/5/6
f 728/5/6 720/5/6 729/5/6
f 721/5/6 722/5/6 730/5/6
f 730/5/6 722/5/6 731/5/6
f 723/5/6 724/5/6 732/5/6
f 732/5/6 724/5/6 733/5/6
f 725/5/6 726/5/6 735/5/6
f 735/5/6 726/5/6 736/5/6
f 733/5/6 734/5/6 737/5/6
f 737/5/6 734/5/6 738/5/6
f 739/5/6 740/5/6 743/5/6
f 743/5/6 740/5/6 744/5/6
f 741/5/6 742/5/6 747/5/6
f 747/5/6 742/5/6 748/5/6
f 749/5/6 750/5/6 753/5/6
f 753/5/6 750/5/6 754/5/6
f 745/5/6 746/5/6 755/5/6
f 751/5/6 752/5/6 756/5/6
f 756/5/6 752/5/6 757/5/6
f 754/5/6 755/5/6 759/5/6
f 758/5/6 759/5/6 762/5/6
f 759/5/6 755/5/6 763/5/6
f 762/5/6 759/5/6 763/5/6
f 755/5/6 746/5/6 764/5/6
f 763/5/6 755/5/6 764/5/6
f 760/5/6 761/5/6 766/5/6
f 766/5/6 761/5/6 767/5/6
f 765/5/6 766/5/6 770/5/6
f 768/5/6 769/5/6 772/5/6
f 772/5/6 769/5/6 773/5/6
f 770/5/6 771/5/6 778/5/6
f 765/5/6 770/5/6 778/5/6
f 778/5/6 771/5/6 779/5/6
f 779/5/6 771/5/6 780/5/6
f 774/5/6 775/5/6 781/5/6
f 781/5/6 775/5/6 782/5/6
f 776/5/6 777/5/6 783/5/6
f 783/5/6 777/5/6 784/5/6
f 778/5/6 779/5/6 785/5/6
f 785/5/6 779/5/6 786/5/6
f 787/5/6 788/5/6 789/5/6
f 789/5/6 788/5/6 790/5/6
f 787/5/6 789/5/6 791/5/6
f 790/5/6 788/5/6 793/5/6
f 787/5/6 791/5/6 794/5/6
f 787/5/6 794/5/6 795/5/6
f 792/1/6 793/1/6 796/1/6
f 796/1/6 793/1/6 797/1/6
f 793/5/6 788/5/6 798/5/6
f 797/1/6 793/1/6 798/1/6
f 787/5/6 795/5/6 799/5/6
f 798/5/6 788/5/6 801/5/6
f 799/5/6 800/5/6 802/5/6
f 800/5/6 801/5/6 802/5/6
f 787/5/6 799/5/6 802/5/6
f 802/5/6 801/5/6 803/5/6
f 803/5/6 801/5/6 804/5/6
f 804/5/6 801/5/6 805/5/6
f 801/5/6 788/5/6 806/5/6
f 805/5/6 801/5/6 806/5/6
f 806/5/6 788/5/6 807/5/6
f 803/6/6 804/6/6 808/6/6
f 804/3/6 805/3/6 809/3/6
f 808/6/6 804/6/6 809/6/6
f 805/6/6 806/6/6 810/6/6
f 809/3/6 805/3/6 810/3/6
f 810/6/6 806/6/6 811/6/6
f 812/2/6 813/2/6 814/2/6
f 814/2/6 813/2/6 815/2/6
f 815/2/6 813/2/6 816/2/6
f 817/2/6 818/2/6 819/2/6
f 819/2/6 818/2/6 820/2/6
f 821/1/6 822/1/6 823/1/6
f 823/1/6 822/1/6 824/1/6
