# MagicaVoxel @ Ephtracy

# material
mtllib obj_rubbish3.mtl
usemtl palette

# normals
vn -1 0 0
vn 1 0 0
vn 0 0 1
vn 0 0 -1
vn 0 -1 0
vn 0 1 0

# texcoords
vt 0.587891 0.5
vt 0.591797 0.5
vt 0.615234 0.5

# verts
v -2 0 1
v -2 0 -0
v -2 0 -1
v -2 1 -0
v -2 1 -1
v -2 2 1
v -2 2 -0
v -2 2 -1
v 2 0 1
v 2 0 -1
v 2 1 1
v 2 1 -1
v 2 2 1
v 2 2 -1
v -2 0 1
v -2 2 1
v -1 0 1
v -1 1 1
v -1 2 1
v 0 0 1
v 0 1 1
v 1 0 1
v 1 1 1
v 2 0 1
v 2 1 1
v 2 2 1
v -2 0 -1
v -2 1 -1
v -2 2 -1
v 2 0 -1
v 2 1 -1
v 2 2 -1
v -2 0 1
v -1 0 1
v 0 0 1
v 1 0 1
v 2 0 1
v -2 0 -0
v -1 0 -0
v 0 0 -0
v 1 0 -0
v -2 0 -1
v 2 0 -1
v -2 2 1
v -1 2 1
v 2 2 1
v -2 2 -0
v -1 2 -0
v -2 2 -1
v 2 2 -1

# faces
f 4/2/1 2/2/1 1/2/1
f 4/3/1 3/3/1 2/3/1
f 5/3/1 3/3/1 4/3/1
f 6/2/1 4/2/1 1/2/1
f 7/1/1 5/1/1 4/1/1
f 7/2/1 4/2/1 6/2/1
f 8/1/1 5/1/1 7/1/1
f 9/3/2 10/3/2 11/3/2
f 11/3/2 10/3/2 12/3/2
f 11/1/2 12/1/2 13/1/2
f 13/1/2 12/1/2 14/1/2
f 17/2/3 16/2/3 15/2/3
f 18/2/3 16/2/3 17/2/3
f 19/2/3 16/2/3 18/2/3
f 20/3/3 18/3/3 17/3/3
f 21/1/3 19/1/3 18/1/3
f 21/3/3 18/3/3 20/3/3
f 22/1/3 21/1/3 20/1/3
f 23/1/3 19/1/3 21/1/3
f 23/1/3 21/1/3 22/1/3
f 24/3/3 23/3/3 22/3/3
f 25/1/3 19/1/3 23/1/3
f 25/3/3 23/3/3 24/3/3
f 26/1/3 19/1/3 25/1/3
f 27/3/4 28/3/4 30/3/4
f 28/1/4 29/1/4 31/1/4
f 30/3/4 28/3/4 31/3/4
f 31/1/4 29/1/4 32/1/4
f 38/2/5 34/2/5 33/2/5
f 39/3/5 35/3/5 34/3/5
f 39/2/5 34/2/5 38/2/5
f 40/1/5 36/1/5 35/1/5
f 40/3/5 35/3/5 39/3/5
f 41/3/5 37/3/5 36/3/5
f 41/1/5 36/1/5 40/1/5
f 42/3/5 40/3/5 39/3/5
f 42/3/5 39/3/5 38/3/5
f 42/3/5 41/3/5 40/3/5
f 43/3/5 37/3/5 41/3/5
f 43/3/5 41/3/5 42/3/5
f 44/2/6 45/2/6 47/2/6
f 45/1/6 46/1/6 48/1/6
f 47/2/6 45/2/6 48/2/6
f 47/1/6 48/1/6 49/1/6
f 48/1/6 46/1/6 50/1/6
f 49/1/6 48/1/6 50/1/6
