# MagicaVoxel @ Ephtracy

# material
mtllib obj_cart1.mtl
usemtl palette

# normals
vn -1 0 0
vn 1 0 0
vn 0 0 1
vn 0 0 -1
vn 0 -1 0
vn 0 1 0

# texcoords
vt 0.853516 0.5
vt 0.966797 0.5
vt 0.970703 0.5
vt 0.974609 0.5
vt 0.982422 0.5

# verts
v -4.5 4 6
v -4.5 4 -5
v -4.5 5 5
v -4.5 5 4
v -4.5 5 3
v -4.5 5 2
v -4.5 5 1
v -4.5 5 -0
v -4.5 5 -1
v -4.5 5 -2
v -4.5 5 -3
v -4.5 5 -4
v -4.5 7 5
v -4.5 7 4
v -4.5 7 3
v -4.5 7 2
v -4.5 7 1
v -4.5 7 -0
v -4.5 7 -1
v -4.5 7 -2
v -4.5 7 -3
v -4.5 7 -4
v -4.5 8 6
v -4.5 8 -5
v -3.5 0 4
v -3.5 0 3
v -3.5 0 -3
v -3.5 0 -4
v -3.5 1 5
v -3.5 1 4
v -3.5 1 3
v -3.5 1 -3
v -3.5 1 -4
v -3.5 1 -5
v -3.5 2 5
v -3.5 2 -1
v -3.5 2 -2
v -3.5 2 -4
v -3.5 2 -5
v -3.5 4 -1
v -3.5 4 -2
v -3.5 4 -4
v -3.5 4 -5
v -3.5 7 -5
v -3.5 7 -6
v -3.5 8 -5
v -3.5 8 -6
v -2.5 5 6
v -2.5 5 5
v -2.5 7 6
v -2.5 7 5
v -1.5 1 4
v -1.5 1 -4
v -1.5 2 4
v -1.5 2 -4
v -1.5 5 -4
v -1.5 5 -5
v -1.5 7 -4
v -1.5 7 -5
v -0.5 5 6
v -0.5 5 5
v -0.5 7 6
v -0.5 7 5
v 0.5 1 4
v 0.5 1 -4
v 0.5 2 4
v 0.5 2 -4
v 0.5 5 -4
v 0.5 5 -5
v 0.5 7 -4
v 0.5 7 -5
v 1.5 5 6
v 1.5 5 5
v 1.5 7 6
v 1.5 7 5
v 2.5 0 4
v 2.5 0 3
v 2.5 0 -3
v 2.5 0 -4
v 2.5 1 4
v 2.5 1 3
v 2.5 1 -3
v 2.5 1 -4
v 2.5 2 4
v 2.5 2 -1
v 2.5 2 -2
v 2.5 2 -4
v 2.5 2 -5
v 2.5 4 -1
v 2.5 4 -2
v 2.5 4 -4
v 2.5 4 -5
v 2.5 5 -4
v 2.5 5 -5
v 2.5 7 -4
v 2.5 7 -5
v 3.5 5 6
v 3.5 5 5
v 3.5 5 4
v 3.5 5 3
v 3.5 5 2
v 3.5 5 1
v 3.5 5 -0
v 3.5 5 -1
v 3.5 5 -2
v 3.5 5 -3
v 3.5 7 6
v 3.5 7 5
v 3.5 7 4
v 3.5 7 3
v 3.5 7 2
v 3.5 7 1
v 3.5 7 -0
v 3.5 7 -1
v 3.5 7 -2
v 3.5 7 -3
v 3.5 7 -4
v 3.5 8 5
v 3.5 8 -4
v -3.5 5 6
v -3.5 5 5
v -3.5 5 4
v -3.5 5 3
v -3.5 5 2
v -3.5 5 1
v -3.5 5 -0
v -3.5 5 -1
v -3.5 5 -2
v -3.5 5 -3
v -3.5 7 6
v -3.5 7 5
v -3.5 7 4
v -3.5 7 3
v -3.5 7 2
v -3.5 7 1
v -3.5 7 -0
v -3.5 7 -1
v -3.5 7 -2
v -3.5 7 -3
v -3.5 7 -4
v -3.5 8 5
v -3.5 8 -4
v -2.5 0 4
v -2.5 0 3
v -2.5 0 -3
v -2.5 0 -4
v -2.5 1 4
v -2.5 1 3
v -2.5 1 -3
v -2.5 1 -4
v -2.5 2 4
v -2.5 2 -1
v -2.5 2 -2
v -2.5 2 -4
v -2.5 2 -5
v -2.5 4 -1
v -2.5 4 -2
v -2.5 4 -4
v -2.5 4 -5
v -2.5 5 -4
v -2.5 5 -5
v -2.5 7 -4
v -2.5 7 -5
v -1.5 5 6
v -1.5 5 5
v -1.5 7 6
v -1.5 7 5
v -0.5 1 4
v -0.5 1 -4
v -0.5 2 4
v -0.5 2 -4
v -0.5 5 -4
v -0.5 5 -5
v -0.5 7 -4
v -0.5 7 -5
v 0.5 5 6
v 0.5 5 5
v 0.5 7 6
v 0.5 7 5
v 1.5 1 4
v 1.5 1 -4
v 1.5 2 4
v 1.5 2 -4
v 1.5 5 -4
v 1.5 5 -5
v 1.5 7 -4
v 1.5 7 -5
v 2.5 5 6
v 2.5 5 5
v 2.5 7 6
v 2.5 7 5
v 3.5 0 4
v 3.5 0 3
v 3.5 0 -3
v 3.5 0 -4
v 3.5 1 5
v 3.5 1 4
v 3.5 1 3
v 3.5 1 -3
v 3.5 1 -4
v 3.5 1 -5
v 3.5 2 5
v 3.5 2 -1
v 3.5 2 -2
v 3.5 2 -4
v 3.5 2 -5
v 3.5 4 -1
v 3.5 4 -2
v 3.5 4 -4
v 3.5 4 -5
v 3.5 7 -5
v 3.5 7 -6
v 3.5 8 -5
v 3.5 8 -6
v 4.5 4 6
v 4.5 4 -5
v 4.5 5 5
v 4.5 5 4
v 4.5 5 3
v 4.5 5 2
v 4.5 5 1
v 4.5 5 -0
v 4.5 5 -1
v 4.5 5 -2
v 4.5 5 -3
v 4.5 5 -4
v 4.5 7 5
v 4.5 7 4
v 4.5 7 3
v 4.5 7 2
v 4.5 7 1
v 4.5 7 -0
v 4.5 7 -1
v 4.5 7 -2
v 4.5 7 -3
v 4.5 7 -4
v 4.5 8 6
v 4.5 8 -5
v -4.5 4 6
v -4.5 8 6
v -3.5 5 6
v -3.5 7 6
v -2.5 5 6
v -2.5 7 6
v -1.5 5 6
v -1.5 7 6
v -0.5 5 6
v -0.5 7 6
v 0.5 5 6
v 0.5 7 6
v 1.5 5 6
v 1.5 7 6
v 2.5 5 6
v 2.5 7 6
v 3.5 5 6
v 3.5 7 6
v 4.5 4 6
v 4.5 8 6
v -3.5 1 5
v -3.5 2 5
v 3.5 1 5
v 3.5 2 5
v -4.5 5 4
v -4.5 7 4
v -3.5 0 4
v -3.5 1 4
v -3.5 5 4
v -3.5 7 4
v -2.5 0 4
v -2.5 1 4
v 2.5 0 4
v 2.5 1 4
v 3.5 0 4
v 3.5 1 4
v 3.5 5 4
v 3.5 7 4
v 4.5 5 4
v 4.5 7 4
v -4.5 5 2
v -4.5 7 2
v -3.5 5 2
v -3.5 7 2
v 3.5 5 2
v 3.5 7 2
v 4.5 5 2
v 4.5 7 2
v -4.5 5 -0
v -4.5 7 -0
v -3.5 5 -0
v -3.5 7 -0
v 3.5 5 -0
v 3.5 7 -0
v 4.5 5 -0
v 4.5 7 -0
v -3.5 2 -1
v -3.5 4 -1
v -2.5 2 -1
v -2.5 4 -1
v 2.5 2 -1
v 2.5 4 -1
v 3.5 2 -1
v 3.5 4 -1
v -4.5 5 -2
v -4.5 7 -2
v -3.5 5 -2
v -3.5 7 -2
v 3.5 5 -2
v 3.5 7 -2
v 4.5 5 -2
v 4.5 7 -2
v -3.5 0 -3
v -3.5 1 -3
v -2.5 0 -3
v -2.5 1 -3
v 2.5 0 -3
v 2.5 1 -3
v 3.5 0 -3
v 3.5 1 -3
v -4.5 5 -4
v -4.5 7 -4
v -3.5 2 -4
v -3.5 4 -4
v -3.5 7 -4
v -3.5 8 -4
v -2.5 1 -4
v -2.5 2 -4
v -2.5 4 -4
v -2.5 5 -4
v -2.5 7 -4
v -1.5 1 -4
v -1.5 2 -4
v -1.5 5 -4
v -1.5 7 -4
v -0.5 1 -4
v -0.5 2 -4
v -0.5 5 -4
v -0.5 7 -4
v 0.5 1 -4
v 0.5 2 -4
v 0.5 5 -4
v 0.5 7 -4
v 1.5 1 -4
v 1.5 2 -4
v 1.5 5 -4
v 1.5 7 -4
v 2.5 1 -4
v 2.5 2 -4
v 2.5 4 -4
v 2.5 5 -4
v 2.5 7 -4
v 3.5 2 -4
v 3.5 4 -4
v 3.5 7 -4
v 3.5 8 -4
v 4.5 5 -4
v 4.5 7 -4
v -4.5 5 5
v -4.5 7 5
v -3.5 5 5
v -3.5 7 5
v -3.5 8 5
v -2.5 5 5
v -2.5 7 5
v -1.5 5 5
v -1.5 7 5
v -0.5 5 5
v -0.5 7 5
v 0.5 5 5
v 0.5 7 5
v 1.5 5 5
v 1.5 7 5
v 2.5 5 5
v 2.5 7 5
v 3.5 5 5
v 3.5 7 5
v 3.5 8 5
v 4.5 5 5
v 4.5 7 5
v -2.5 1 4
v -2.5 2 4
v -1.5 1 4
v -1.5 2 4
v -0.5 1 4
v -0.5 2 4
v 0.5 1 4
v 0.5 2 4
v 1.5 1 4
v 1.5 2 4
v 2.5 1 4
v 2.5 2 4
v -4.5 5 3
v -4.5 7 3
v -3.5 0 3
v -3.5 1 3
v -3.5 5 3
v -3.5 7 3
v -2.5 0 3
v -2.5 1 3
v 2.5 0 3
v 2.5 1 3
v 3.5 0 3
v 3.5 1 3
v 3.5 5 3
v 3.5 7 3
v 4.5 5 3
v 4.5 7 3
v -4.5 5 1
v -4.5 7 1
v -3.5 5 1
v -3.5 7 1
v 3.5 5 1
v 3.5 7 1
v 4.5 5 1
v 4.5 7 1
v -4.5 5 -1
v -4.5 7 -1
v -3.5 5 -1
v -3.5 7 -1
v 3.5 5 -1
v 3.5 7 -1
v 4.5 5 -1
v 4.5 7 -1
v -3.5 2 -2
v -3.5 4 -2
v -2.5 2 -2
v -2.5 4 -2
v 2.5 2 -2
v 2.5 4 -2
v 3.5 2 -2
v 3.5 4 -2
v -4.5 5 -3
v -4.5 7 -3
v -3.5 5 -3
v -3.5 7 -3
v 3.5 5 -3
v 3.5 7 -3
v 4.5 5 -3
v 4.5 7 -3
v -3.5 0 -4
v -3.5 1 -4
v -2.5 0 -4
v -2.5 1 -4
v 2.5 0 -4
v 2.5 1 -4
v 3.5 0 -4
v 3.5 1 -4
v -4.5 4 -5
v -4.5 8 -5
v -3.5 1 -5
v -3.5 2 -5
v -3.5 4 -5
v -3.5 7 -5
v -3.5 8 -5
v -2.5 2 -5
v -2.5 4 -5
v -2.5 5 -5
v -2.5 7 -5
v -1.5 5 -5
v -1.5 7 -5
v -0.5 5 -5
v -0.5 7 -5
v 0.5 5 -5
v 0.5 7 -5
v 1.5 5 -5
v 1.5 7 -5
v 2.5 2 -5
v 2.5 4 -5
v 2.5 5 -5
v 2.5 7 -5
v 3.5 1 -5
v 3.5 2 -5
v 3.5 4 -5
v 3.5 7 -5
v 3.5 8 -5
v 4.5 4 -5
v 4.5 8 -5
v -3.5 7 -6
v -3.5 8 -6
v -2.5 7 -6
v -2.5 8 -6
v 2.5 7 -6
v 2.5 8 -6
v 3.5 7 -6
v 3.5 8 -6
v -3.5 0 4
v -2.5 0 4
v 2.5 0 4
v 3.5 0 4
v -3.5 0 3
v -2.5 0 3
v 2.5 0 3
v 3.5 0 3
v -3.5 0 -3
v -2.5 0 -3
v 2.5 0 -3
v 3.5 0 -3
v -3.5 0 -4
v -2.5 0 -4
v 2.5 0 -4
v 3.5 0 -4
v -3.5 1 5
v 3.5 1 5
v -3.5 1 4
v -2.5 1 4
v -1.5 1 4
v -0.5 1 4
v 0.5 1 4
v 1.5 1 4
v 2.5 1 4
v 3.5 1 4
v -3.5 1 3
v -2.5 1 3
v 2.5 1 3
v 3.5 1 3
v -3.5 1 -3
v -2.5 1 -3
v 2.5 1 -3
v 3.5 1 -3
v -3.5 1 -4
v -2.5 1 -4
v -1.5 1 -4
v -0.5 1 -4
v 0.5 1 -4
v 1.5 1 -4
v 2.5 1 -4
v 3.5 1 -4
v -3.5 1 -5
v 3.5 1 -5
v -4.5 4 6
v 4.5 4 6
v -3.5 4 -1
v -2.5 4 -1
v 2.5 4 -1
v 3.5 4 -1
v -3.5 4 -2
v -2.5 4 -2
v 2.5 4 -2
v 3.5 4 -2
v -3.5 4 -4
v -2.5 4 -4
v 2.5 4 -4
v 3.5 4 -4
v -4.5 4 -5
v -3.5 4 -5
v -2.5 4 -5
v 2.5 4 -5
v 3.5 4 -5
v 4.5 4 -5
v -3.5 7 6
v -2.5 7 6
v -1.5 7 6
v -0.5 7 6
v 0.5 7 6
v 1.5 7 6
v 2.5 7 6
v 3.5 7 6
v -4.5 7 5
v -3.5 7 5
v -2.5 7 5
v -1.5 7 5
v -0.5 7 5
v 0.5 7 5
v 1.5 7 5
v 2.5 7 5
v 3.5 7 5
v 4.5 7 5
v -4.5 7 4
v -3.5 7 4
v 3.5 7 4
v 4.5 7 4
v -4.5 7 3
v -3.5 7 3
v 3.5 7 3
v 4.5 7 3
v -4.5 7 2
v -3.5 7 2
v 3.5 7 2
v 4.5 7 2
v -4.5 7 1
v -3.5 7 1
v 3.5 7 1
v 4.5 7 1
v -4.5 7 -0
v -3.5 7 -0
v 3.5 7 -0
v 4.5 7 -0
v -4.5 7 -1
v -3.5 7 -1
v 3.5 7 -1
v 4.5 7 -1
v -4.5 7 -2
v -3.5 7 -2
v 3.5 7 -2
v 4.5 7 -2
v -4.5 7 -3
v -3.5 7 -3
v 3.5 7 -3
v 4.5 7 -3
v -4.5 7 -4
v -3.5 7 -4
v -2.5 7 -4
v -1.5 7 -4
v -0.5 7 -4
v 0.5 7 -4
v 1.5 7 -4
v 2.5 7 -4
v 3.5 7 -4
v 4.5 7 -4
v -3.5 7 -5
v -2.5 7 -5
v -1.5 7 -5
v -0.5 7 -5
v 0.5 7 -5
v 1.5 7 -5
v 2.5 7 -5
v 3.5 7 -5
v -3.5 7 -6
v -2.5 7 -6
v 2.5 7 -6
v 3.5 7 -6
v -3.5 2 5
v 3.5 2 5
v -2.5 2 4
v -1.5 2 4
v -0.5 2 4
v 0.5 2 4
v 1.5 2 4
v 2.5 2 4
v -3.5 2 -1
v -2.5 2 -1
v 2.5 2 -1
v 3.5 2 -1
v -3.5 2 -2
v -2.5 2 -2
v 2.5 2 -2
v 3.5 2 -2
v -3.5 2 -4
v -2.5 2 -4
v -1.5 2 -4
v -0.5 2 -4
v 0.5 2 -4
v 1.5 2 -4
v 2.5 2 -4
v 3.5 2 -4
v -2.5 2 -5
v 2.5 2 -5
v -3.5 5 6
v -2.5 5 6
v -1.5 5 6
v -0.5 5 6
v 0.5 5 6
v 1.5 5 6
v 2.5 5 6
v 3.5 5 6
v -4.5 5 5
v -3.5 5 5
v -2.5 5 5
v -1.5 5 5
v -0.5 5 5
v 0.5 5 5
v 1.5 5 5
v 2.5 5 5
v 3.5 5 5
v 4.5 5 5
v -4.5 5 4
v -3.5 5 4
v 3.5 5 4
v 4.5 5 4
v -4.5 5 3
v -3.5 5 3
v 3.5 5 3
v 4.5 5 3
v -4.5 5 2
v -3.5 5 2
v 3.5 5 2
v 4.5 5 2
v -4.5 5 1
v -3.5 5 1
v 3.5 5 1
v 4.5 5 1
v -4.5 5 -0
v -3.5 5 -0
v 3.5 5 -0
v 4.5 5 -0
v -4.5 5 -1
v -3.5 5 -1
v 3.5 5 -1
v 4.5 5 -1
v -4.5 5 -2
v -3.5 5 -2
v 3.5 5 -2
v 4.5 5 -2
v -4.5 5 -3
v -3.5 5 -3
v 3.5 5 -3
v 4.5 5 -3
v -4.5 5 -4
v -2.5 5 -4
v -1.5 5 -4
v -0.5 5 -4
v 0.5 5 -4
v 1.5 5 -4
v 2.5 5 -4
v 4.5 5 -4
v -2.5 5 -5
v -1.5 5 -5
v -0.5 5 -5
v 0.5 5 -5
v 1.5 5 -5
v 2.5 5 -5
v -4.5 8 6
v 4.5 8 6
v -3.5 8 5
v 3.5 8 5
v -3.5 8 -4
v 3.5 8 -4
v -4.5 8 -5
v -3.5 8 -5
v -2.5 8 -5
v 2.5 8 -5
v 3.5 8 -5
v 4.5 8 -5
v -3.5 8 -6
v -2.5 8 -6
v 2.5 8 -6
v 3.5 8 -6

# faces
f 3/3/1 2/3/1 1/3/1
f 4/3/1 2/3/1 3/3/1
f 5/3/1 2/3/1 4/3/1
f 6/3/1 2/3/1 5/3/1
f 7/3/1 2/3/1 6/3/1
f 8/3/1 2/3/1 7/3/1
f 9/3/1 2/3/1 8/3/1
f 10/3/1 2/3/1 9/3/1
f 11/3/1 2/3/1 10/3/1
f 12/3/1 2/3/1 11/3/1
f 13/3/1 3/3/1 1/3/1
f 14/3/1 5/3/1 4/3/1
f 15/3/1 5/3/1 14/3/1
f 16/3/1 7/3/1 6/3/1
f 17/3/1 7/3/1 16/3/1
f 18/3/1 9/3/1 8/3/1
f 19/3/1 9/3/1 18/3/1
f 20/3/1 11/3/1 10/3/1
f 21/3/1 11/3/1 20/3/1
f 22/3/1 2/3/1 12/3/1
f 23/3/1 21/3/1 20/3/1
f 23/3/1 22/3/1 21/3/1
f 23/3/1 19/3/1 18/3/1
f 23/3/1 13/3/1 1/3/1
f 23/3/1 20/3/1 19/3/1
f 23/3/1 17/3/1 16/3/1
f 23/3/1 18/3/1 17/3/1
f 23/3/1 15/3/1 14/3/1
f 23/3/1 16/3/1 15/3/1
f 23/3/1 14/3/1 13/3/1
f 24/3/1 2/3/1 22/3/1
f 24/3/1 22/3/1 23/3/1
f 30/5/1 26/5/1 25/5/1
f 31/5/1 26/5/1 30/5/1
f 32/5/1 28/5/1 27/5/1
f 33/5/1 28/5/1 32/5/1
f 35/3/1 31/3/1 30/3/1
f 35/3/1 34/3/1 33/3/1
f 35/3/1 33/3/1 32/3/1
f 35/3/1 32/3/1 31/3/1
f 35/3/1 30/3/1 29/3/1
f 36/3/1 34/3/1 35/3/1
f 37/3/1 34/3/1 36/3/1
f 38/3/1 34/3/1 37/3/1
f 39/3/1 34/3/1 38/3/1
f 40/2/1 37/2/1 36/2/1
f 41/2/1 37/2/1 40/2/1
f 42/2/1 39/2/1 38/2/1
f 43/2/1 39/2/1 42/2/1
f 46/4/1 45/4/1 44/4/1
f 47/4/1 45/4/1 46/4/1
f 50/3/1 49/3/1 48/3/1
f 51/3/1 49/3/1 50/3/1
f 54/3/1 53/3/1 52/3/1
f 55/3/1 53/3/1 54/3/1
f 58/3/1 57/3/1 56/3/1
f 59/3/1 57/3/1 58/3/1
f 62/3/1 61/3/1 60/3/1
f 63/3/1 61/3/1 62/3/1
f 66/3/1 65/3/1 64/3/1
f 67/3/1 65/3/1 66/3/1
f 70/3/1 69/3/1 68/3/1
f 71/3/1 69/3/1 70/3/1
f 74/3/1 73/3/1 72/3/1
f 75/3/1 73/3/1 74/3/1
f 80/5/1 77/5/1 76/5/1
f 81/5/1 77/5/1 80/5/1
f 82/5/1 79/5/1 78/5/1
f 83/5/1 79/5/1 82/5/1
f 84/3/1 81/3/1 80/3/1
f 84/3/1 82/3/1 81/3/1
f 84/3/1 83/3/1 82/3/1
f 85/3/1 83/3/1 84/3/1
f 86/3/1 83/3/1 85/3/1
f 87/3/1 83/3/1 86/3/1
f 89/2/1 86/2/1 85/2/1
f 90/2/1 86/2/1 89/2/1
f 91/2/1 88/2/1 87/2/1
f 92/2/1 88/2/1 91/2/1
f 95/3/1 94/3/1 93/3/1
f 96/3/1 94/3/1 95/3/1
f 107/3/1 98/3/1 97/3/1
f 108/3/1 98/3/1 107/3/1
f 109/3/1 100/3/1 99/3/1
f 110/3/1 100/3/1 109/3/1
f 111/3/1 102/3/1 101/3/1
f 112/3/1 102/3/1 111/3/1
f 113/3/1 104/3/1 103/3/1
f 114/3/1 104/3/1 113/3/1
f 115/3/1 106/3/1 105/3/1
f 116/3/1 106/3/1 115/3/1
f 118/3/1 114/3/1 113/3/1
f 118/3/1 117/3/1 116/3/1
f 118/3/1 116/3/1 115/3/1
f 118/3/1 115/3/1 114/3/1
f 118/3/1 113/3/1 112/3/1
f 118/3/1 110/3/1 109/3/1
f 118/3/1 111/3/1 110/3/1
f 118/3/1 112/3/1 111/3/1
f 118/3/1 109/3/1 108/3/1
f 119/3/1 117/3/1 118/3/1
f 120/3/2 121/3/2 130/3/2
f 130/3/2 121/3/2 131/3/2
f 122/3/2 123/3/2 132/3/2
f 132/3/2 123/3/2 133/3/2
f 124/3/2 125/3/2 134/3/2
f 134/3/2 125/3/2 135/3/2
f 126/3/2 127/3/2 136/3/2
f 136/3/2 127/3/2 137/3/2
f 128/3/2 129/3/2 138/3/2
f 138/3/2 129/3/2 139/3/2
f 136/3/2 137/3/2 141/3/2
f 139/3/2 140/3/2 141/3/2
f 138/3/2 139/3/2 141/3/2
f 137/3/2 138/3/2 141/3/2
f 135/3/2 136/3/2 141/3/2
f 132/3/2 133/3/2 141/3/2
f 133/3/2 134/3/2 141/3/2
f 134/3/2 135/3/2 141/3/2
f 131/3/2 132/3/2 141/3/2
f 141/3/2 140/3/2 142/3/2
f 143/5/2 144/5/2 147/5/2
f 147/5/2 144/5/2 148/5/2
f 145/5/2 146/5/2 149/5/2
f 149/5/2 146/5/2 150/5/2
f 147/3/2 148/3/2 151/3/2
f 148/3/2 149/3/2 151/3/2
f 149/3/2 150/3/2 151/3/2
f 151/3/2 150/3/2 152/3/2
f 152/3/2 150/3/2 153/3/2
f 153/3/2 150/3/2 154/3/2
f 152/2/2 153/2/2 156/2/2
f 156/2/2 153/2/2 157/2/2
f 154/2/2 155/2/2 158/2/2
f 158/2/2 155/2/2 159/2/2
f 160/3/2 161/3/2 162/3/2
f 162/3/2 161/3/2 163/3/2
f 164/3/2 165/3/2 166/3/2
f 166/3/2 165/3/2 167/3/2
f 168/3/2 169/3/2 170/3/2
f 170/3/2 169/3/2 171/3/2
f 172/3/2 173/3/2 174/3/2
f 174/3/2 173/3/2 175/3/2
f 176/3/2 177/3/2 178/3/2
f 178/3/2 177/3/2 179/3/2
f 180/3/2 181/3/2 182/3/2
f 182/3/2 181/3/2 183/3/2
f 184/3/2 185/3/2 186/3/2
f 186/3/2 185/3/2 187/3/2
f 188/3/2 189/3/2 190/3/2
f 190/3/2 189/3/2 191/3/2
f 192/5/2 193/5/2 197/5/2
f 197/5/2 193/5/2 198/5/2
f 194/5/2 195/5/2 199/5/2
f 199/5/2 195/5/2 200/5/2
f 197/3/2 198/3/2 202/3/2
f 200/3/2 201/3/2 202/3/2
f 199/3/2 200/3/2 202/3/2
f 198/3/2 199/3/2 202/3/2
f 196/3/2 197/3/2 202/3/2
f 202/3/2 201/3/2 203/3/2
f 203/3/2 201/3/2 204/3/2
f 204/3/2 201/3/2 205/3/2
f 205/3/2 201/3/2 206/3/2
f 203/2/2 204/2/2 207/2/2
f 207/2/2 204/2/2 208/2/2
f 205/2/2 206/2/2 209/2/2
f 209/2/2 206/2/2 210/2/2
f 211/4/2 212/4/2 213/4/2
f 213/4/2 212/4/2 214/4/2
f 215/3/2 216/3/2 217/3/2
f 217/3/2 216/3/2 218/3/2
f 218/3/2 216/3/2 219/3/2
f 219/3/2 216/3/2 220/3/2
f 220/3/2 216/3/2 221/3/2
f 221/3/2 216/3/2 222/3/2
f 222/3/2 216/3/2 223/3/2
f 223/3/2 216/3/2 224/3/2
f 224/3/2 216/3/2 225/3/2
f 225/3/2 216/3/2 226/3/2
f 215/3/2 217/3/2 227/3/2
f 218/3/2 219/3/2 228/3/2
f 228/3/2 219/3/2 229/3/2
f 220/3/2 221/3/2 230/3/2
f 230/3/2 221/3/2 231/3/2
f 222/3/2 223/3/2 232/3/2
f 232/3/2 223/3/2 233/3/2
f 224/3/2 225/3/2 234/3/2
f 234/3/2 225/3/2 235/3/2
f 226/3/2 216/3/2 236/3/2
f 234/3/2 235/3/2 237/3/2
f 235/3/2 236/3/2 237/3/2
f 232/3/2 233/3/2 237/3/2
f 215/3/2 227/3/2 237/3/2
f 233/3/2 234/3/2 237/3/2
f 230/3/2 231/3/2 237/3/2
f 231/3/2 232/3/2 237/3/2
f 228/3/2 229/3/2 237/3/2
f 229/3/2 230/3/2 237/3/2
f 227/3/2 228/3/2 237/3/2
f 236/3/2 216/3/2 238/3/2
f 237/3/2 236/3/2 238/3/2
f 241/3/3 240/3/3 239/3/3
f 242/3/3 240/3/3 241/3/3
f 243/3/3 241/3/3 239/3/3
f 244/3/3 240/3/3 242/3/3
f 245/3/3 243/3/3 239/3/3
f 245/3/3 244/3/3 243/3/3
f 246/3/3 240/3/3 244/3/3
f 246/3/3 244/3/3 245/3/3
f 247/3/3 245/3/3 239/3/3
f 248/3/3 240/3/3 246/3/3
f 249/3/3 247/3/3 239/3/3
f 249/3/3 248/3/3 247/3/3
f 250/3/3 240/3/3 248/3/3
f 250/3/3 248/3/3 249/3/3
f 251/3/3 249/3/3 239/3/3
f 252/3/3 240/3/3 250/3/3
f 253/3/3 251/3/3 239/3/3
f 253/3/3 252/3/3 251/3/3
f 254/3/3 240/3/3 252/3/3
f 254/3/3 252/3/3 253/3/3
f 255/3/3 253/3/3 239/3/3
f 256/3/3 240/3/3 254/3/3
f 257/3/3 255/3/3 239/3/3
f 257/3/3 256/3/3 255/3/3
f 258/3/3 240/3/3 256/3/3
f 258/3/3 256/3/3 257/3/3
f 261/3/3 260/3/3 259/3/3
f 262/3/3 260/3/3 261/3/3
f 267/3/3 264/3/3 263/3/3
f 268/3/3 264/3/3 267/3/3
f 269/5/3 266/5/3 265/5/3
f 270/5/3 266/5/3 269/5/3
f 273/5/3 272/5/3 271/5/3
f 274/5/3 272/5/3 273/5/3
f 277/3/3 276/3/3 275/3/3
f 278/3/3 276/3/3 277/3/3
f 281/3/3 280/3/3 279/3/3
f 282/3/3 280/3/3 281/3/3
f 285/3/3 284/3/3 283/3/3
f 286/3/3 284/3/3 285/3/3
f 289/3/3 288/3/3 287/3/3
f 290/3/3 288/3/3 289/3/3
f 293/3/3 292/3/3 291/3/3
f 294/3/3 292/3/3 293/3/3
f 297/2/3 296/2/3 295/2/3
f 298/2/3 296/2/3 297/2/3
f 301/2/3 300/2/3 299/2/3
f 302/2/3 300/2/3 301/2/3
f 305/3/3 304/3/3 303/3/3
f 306/3/3 304/3/3 305/3/3
f 309/3/3 308/3/3 307/3/3
f 310/3/3 308/3/3 309/3/3
f 313/5/3 312/5/3 311/5/3
f 314/5/3 312/5/3 313/5/3
f 317/5/3 316/5/3 315/5/3
f 318/5/3 316/5/3 317/5/3
f 323/3/3 320/3/3 319/3/3
f 326/2/3 322/2/3 321/2/3
f 327/2/3 322/2/3 326/2/3
f 328/3/3 324/3/3 323/3/3
f 328/3/3 323/3/3 319/3/3
f 329/3/3 324/3/3 328/3/3
f 330/3/3 326/3/3 325/3/3
f 331/3/3 326/3/3 330/3/3
f 333/3/3 324/3/3 329/3/3
f 336/3/3 333/3/3 332/3/3
f 337/3/3 324/3/3 333/3/3
f 337/3/3 333/3/3 336/3/3
f 338/3/3 335/3/3 334/3/3
f 339/3/3 335/3/3 338/3/3
f 341/3/3 324/3/3 337/3/3
f 344/3/3 341/3/3 340/3/3
f 345/3/3 324/3/3 341/3/3
f 345/3/3 341/3/3 344/3/3
f 346/3/3 343/3/3 342/3/3
f 347/3/3 343/3/3 346/3/3
f 350/3/3 324/3/3 345/3/3
f 351/2/3 348/2/3 347/2/3
f 352/2/3 348/2/3 351/2/3
f 353/3/3 350/3/3 349/3/3
f 353/3/3 324/3/3 350/3/3
f 354/3/3 324/3/3 353/3/3
f 355/3/3 353/3/3 349/3/3
f 356/3/3 353/3/3 355/3/3
f 357/3/4 358/3/4 359/3/4
f 359/3/4 358/3/4 360/3/4
f 360/3/4 361/3/4 363/3/4
f 362/3/4 363/3/4 364/3/4
f 363/3/4 361/3/4 365/3/4
f 364/3/4 363/3/4 365/3/4
f 365/3/4 361/3/4 367/3/4
f 366/3/4 367/3/4 368/3/4
f 367/3/4 361/3/4 369/3/4
f 368/3/4 367/3/4 369/3/4
f 369/3/4 361/3/4 371/3/4
f 370/3/4 371/3/4 372/3/4
f 371/3/4 361/3/4 373/3/4
f 372/3/4 371/3/4 373/3/4
f 373/3/4 361/3/4 375/3/4
f 375/3/4 361/3/4 376/3/4
f 374/3/4 375/3/4 377/3/4
f 377/3/4 375/3/4 378/3/4
f 379/3/4 380/3/4 381/3/4
f 381/3/4 380/3/4 382/3/4
f 383/3/4 384/3/4 385/3/4
f 385/3/4 384/3/4 386/3/4
f 387/3/4 388/3/4 389/3/4
f 389/3/4 388/3/4 390/3/4
f 391/3/4 392/3/4 395/3/4
f 395/3/4 392/3/4 396/3/4
f 393/5/4 394/5/4 397/5/4
f 397/5/4 394/5/4 398/5/4
f 399/5/4 400/5/4 401/5/4
f 401/5/4 400/5/4 402/5/4
f 403/3/4 404/3/4 405/3/4
f 405/3/4 404/3/4 406/3/4
f 407/3/4 408/3/4 409/3/4
f 409/3/4 408/3/4 410/3/4
f 411/3/4 412/3/4 413/3/4
f 413/3/4 412/3/4 414/3/4
f 415/3/4 416/3/4 417/3/4
f 417/3/4 416/3/4 418/3/4
f 419/3/4 420/3/4 421/3/4
f 421/3/4 420/3/4 422/3/4
f 423/2/4 424/2/4 425/2/4
f 425/2/4 424/2/4 426/2/4
f 427/2/4 428/2/4 429/2/4
f 429/2/4 428/2/4 430/2/4
f 431/3/4 432/3/4 433/3/4
f 433/3/4 432/3/4 434/3/4
f 435/3/4 436/3/4 437/3/4
f 437/3/4 436/3/4 438/3/4
f 439/5/4 440/5/4 441/5/4
f 441/5/4 440/5/4 442/5/4
f 443/5/4 444/5/4 445/5/4
f 445/5/4 444/5/4 446/5/4
f 447/3/4 448/3/4 451/3/4
f 451/3/4 448/3/4 452/3/4
f 452/3/4 448/3/4 453/3/4
f 449/3/4 450/3/4 454/3/4
f 450/2/4 451/2/4 454/2/4
f 451/3/4 452/3/4 455/3/4
f 454/2/4 451/2/4 455/2/4
f 455/3/4 452/3/4 456/3/4
f 456/3/4 452/3/4 457/3/4
f 455/3/4 456/3/4 458/3/4
f 455/3/4 458/3/4 460/3/4
f 458/3/4 459/3/4 460/3/4
f 460/3/4 459/3/4 461/3/4
f 455/3/4 460/3/4 462/3/4
f 455/3/4 462/3/4 464/3/4
f 462/3/4 463/3/4 464/3/4
f 464/3/4 463/3/4 465/3/4
f 449/3/4 454/3/4 466/3/4
f 455/3/4 464/3/4 467/3/4
f 467/3/4 464/3/4 468/3/4
f 449/3/4 466/3/4 470/3/4
f 466/2/4 467/2/4 471/2/4
f 470/3/4 466/3/4 471/3/4
f 468/3/4 469/3/4 472/3/4
f 471/2/4 467/2/4 472/2/4
f 467/3/4 468/3/4 472/3/4
f 472/3/4 469/3/4 473/3/4
f 472/3/4 473/3/4 475/3/4
f 473/3/4 474/3/4 475/3/4
f 475/3/4 474/3/4 476/3/4
f 477/4/4 478/4/4 479/4/4
f 479/4/4 478/4/4 480/4/4
f 479/1/4 480/1/4 481/1/4
f 481/1/4 480/1/4 482/1/4
f 481/4/4 482/4/4 483/4/4
f 483/4/4 482/4/4 484/4/4
f 489/5/5 486/5/5 485/5/5
f 490/5/5 486/5/5 489/5/5
f 491/5/5 488/5/5 487/5/5
f 492/5/5 488/5/5 491/5/5
f 497/5/5 494/5/5 493/5/5
f 498/5/5 494/5/5 497/5/5
f 499/5/5 496/5/5 495/5/5
f 500/5/5 496/5/5 499/5/5
f 503/3/5 502/3/5 501/3/5
f 504/3/5 502/3/5 503/3/5
f 505/3/5 502/3/5 504/3/5
f 506/3/5 502/3/5 505/3/5
f 507/3/5 502/3/5 506/3/5
f 508/3/5 502/3/5 507/3/5
f 509/3/5 502/3/5 508/3/5
f 510/3/5 502/3/5 509/3/5
f 515/3/5 512/3/5 511/3/5
f 516/3/5 512/3/5 515/3/5
f 517/3/5 514/3/5 513/3/5
f 518/3/5 514/3/5 517/3/5
f 521/3/5 506/3/5 505/3/5
f 522/3/5 506/3/5 521/3/5
f 523/3/5 508/3/5 507/3/5
f 524/3/5 508/3/5 523/3/5
f 527/3/5 522/3/5 521/3/5
f 527/3/5 526/3/5 525/3/5
f 527/3/5 525/3/5 524/3/5
f 527/3/5 524/3/5 523/3/5
f 527/3/5 523/3/5 522/3/5
f 527/3/5 520/3/5 519/3/5
f 527/3/5 521/3/5 520/3/5
f 528/3/5 526/3/5 527/3/5
f 531/3/5 530/3/5 529/3/5
f 532/3/5 530/3/5 531/3/5
f 533/3/5 530/3/5 532/3/5
f 534/3/5 530/3/5 533/3/5
f 535/3/5 531/3/5 529/3/5
f 536/3/5 533/3/5 532/3/5
f 537/3/5 533/3/5 536/3/5
f 538/3/5 530/3/5 534/3/5
f 539/3/5 537/3/5 536/3/5
f 539/3/5 538/3/5 537/3/5
f 539/3/5 535/3/5 529/3/5
f 539/3/5 536/3/5 535/3/5
f 540/3/5 538/3/5 539/3/5
f 541/3/5 538/3/5 540/3/5
f 542/3/5 530/3/5 538/3/5
f 542/3/5 538/3/5 541/3/5
f 543/3/5 539/3/5 529/3/5
f 544/3/5 539/3/5 543/3/5
f 545/3/5 541/3/5 540/3/5
f 546/3/5 541/3/5 545/3/5
f 547/3/5 530/3/5 542/3/5
f 548/3/5 530/3/5 547/3/5
f 558/3/5 550/3/5 549/3/5
f 559/3/5 550/3/5 558/3/5
f 560/3/5 552/3/5 551/3/5
f 561/3/5 552/3/5 560/3/5
f 562/3/5 554/3/5 553/3/5
f 563/3/5 554/3/5 562/3/5
f 564/3/5 556/3/5 555/3/5
f 565/3/5 556/3/5 564/3/5
f 567/3/5 558/3/5 557/3/5
f 568/3/5 558/3/5 567/3/5
f 569/3/5 566/3/5 565/3/5
f 570/3/5 566/3/5 569/3/5
f 575/3/5 572/3/5 571/3/5
f 576/3/5 572/3/5 575/3/5
f 577/3/5 574/3/5 573/3/5
f 578/3/5 574/3/5 577/3/5
f 583/3/5 580/3/5 579/3/5
f 584/3/5 580/3/5 583/3/5
f 585/3/5 582/3/5 581/3/5
f 586/3/5 582/3/5 585/3/5
f 591/3/5 588/3/5 587/3/5
f 592/3/5 588/3/5 591/3/5
f 593/3/5 590/3/5 589/3/5
f 594/3/5 590/3/5 593/3/5
f 599/3/5 596/3/5 595/3/5
f 600/3/5 596/3/5 599/3/5
f 607/3/5 598/3/5 597/3/5
f 608/3/5 598/3/5 607/3/5
f 610/3/5 602/3/5 601/3/5
f 611/3/5 602/3/5 610/3/5
f 612/3/5 604/3/5 603/3/5
f 613/3/5 604/3/5 612/3/5
f 614/3/5 606/3/5 605/3/5
f 615/3/5 606/3/5 614/3/5
f 617/4/5 610/4/5 609/4/5
f 618/1/5 613/1/5 612/1/5
f 618/4/5 610/4/5 617/4/5
f 618/1/5 611/1/5 610/1/5
f 618/1/5 615/1/5 614/1/5
f 618/1/5 614/1/5 613/1/5
f 618/1/5 612/1/5 611/1/5
f 619/4/5 616/4/5 615/4/5
f 619/1/5 615/1/5 618/1/5
f 620/4/5 616/4/5 619/4/5
f 621/3/6 622/3/6 623/3/6
f 623/3/6 622/3/6 624/3/6
f 624/3/6 622/3/6 625/3/6
f 625/3/6 622/3/6 626/3/6
f 626/3/6 622/3/6 627/3/6
f 627/3/6 622/3/6 628/3/6
f 621/3/6 623/3/6 629/3/6
f 629/3/6 623/3/6 630/3/6
f 628/3/6 622/3/6 631/3/6
f 631/3/6 622/3/6 632/3/6
f 633/3/6 634/3/6 637/3/6
f 637/3/6 634/3/6 638/3/6
f 624/3/6 625/3/6 639/3/6
f 639/3/6 625/3/6 640/3/6
f 626/3/6 627/3/6 641/3/6
f 641/3/6 627/3/6 642/3/6
f 635/3/6 636/3/6 643/3/6
f 643/3/6 636/3/6 644/3/6
f 639/3/6 640/3/6 645/3/6
f 642/3/6 643/3/6 645/3/6
f 641/3/6 642/3/6 645/3/6
f 640/3/6 641/3/6 645/3/6
f 638/3/6 639/3/6 645/3/6
f 645/3/6 643/3/6 646/3/6
f 647/3/6 648/3/6 656/3/6
f 656/3/6 648/3/6 657/3/6
f 649/3/6 650/3/6 658/3/6
f 658/3/6 650/3/6 659/3/6
f 651/3/6 652/3/6 660/3/6
f 660/3/6 652/3/6 661/3/6
f 653/3/6 654/3/6 662/3/6
f 662/3/6 654/3/6 663/3/6
f 660/3/6 661/3/6 665/3/6
f 663/3/6 664/3/6 665/3/6
f 662/3/6 663/3/6 665/3/6
f 661/3/6 662/3/6 665/3/6
f 656/3/6 657/3/6 665/3/6
f 659/3/6 660/3/6 665/3/6
f 658/3/6 659/3/6 665/3/6
f 657/3/6 658/3/6 665/3/6
f 655/3/6 656/3/6 665/3/6
f 665/3/6 664/3/6 666/3/6
f 666/3/6 664/3/6 667/3/6
f 667/3/6 664/3/6 668/3/6
f 666/3/6 667/3/6 670/3/6
f 670/3/6 667/3/6 671/3/6
f 669/3/6 670/3/6 673/3/6
f 671/3/6 672/3/6 673/3/6
f 670/3/6 671/3/6 673/3/6
f 673/3/6 672/3/6 674/3/6
f 674/3/6 672/3/6 675/3/6
f 675/3/6 672/3/6 676/3/6
f 674/3/6 675/3/6 678/3/6
f 678/3/6 675/3/6 679/3/6
f 677/3/6 678/3/6 681/3/6
f 679/3/6 680/3/6 681/3/6
f 678/3/6 679/3/6 681/3/6
f 681/3/6 680/3/6 682/3/6
f 682/3/6 680/3/6 683/3/6
f 683/3/6 680/3/6 684/3/6
f 682/3/6 683/3/6 686/3/6
f 686/3/6 683/3/6 687/3/6
f 685/3/6 686/3/6 689/3/6
f 687/3/6 688/3/6 689/3/6
f 686/3/6 687/3/6 689/3/6
f 689/3/6 688/3/6 690/3/6
f 690/3/6 688/3/6 691/3/6
f 691/3/6 688/3/6 692/3/6
f 690/3/6 691/3/6 694/3/6
f 694/3/6 691/3/6 695/3/6
f 693/3/6 694/3/6 697/3/6
f 695/3/6 696/3/6 697/3/6
f 694/3/6 695/3/6 697/3/6
f 697/3/6 696/3/6 698/3/6
f 698/3/6 696/3/6 699/3/6
f 699/3/6 696/3/6 700/3/6
f 700/3/6 696/3/6 701/3/6
f 701/3/6 696/3/6 702/3/6
f 702/3/6 696/3/6 703/3/6
f 703/3/6 696/3/6 704/3/6
f 698/3/6 699/3/6 705/3/6
f 705/3/6 699/3/6 706/3/6
f 700/3/6 701/3/6 707/3/6
f 707/3/6 701/3/6 708/3/6
f 702/3/6 703/3/6 709/3/6
f 709/3/6 703/3/6 710/3/6
f 711/3/6 712/3/6 713/3/6
f 713/3/6 712/3/6 714/3/6
f 711/3/6 713/3/6 715/3/6
f 714/3/6 712/3/6 716/3/6
f 711/3/6 715/3/6 717/3/6
f 715/3/6 716/3/6 717/3/6
f 717/3/6 716/3/6 718/3/6
f 718/3/6 716/3/6 719/3/6
f 719/3/6 716/3/6 720/3/6
f 716/3/6 712/3/6 721/3/6
f 720/3/6 716/3/6 721/3/6
f 721/3/6 712/3/6 722/3/6
f 718/4/6 719/4/6 723/4/6
f 719/1/6 720/1/6 724/1/6
f 723/4/6 719/4/6 724/4/6
f 720/4/6 721/4/6 725/4/6
f 724/1/6 720/1/6 725/1/6
f 725/4/6 721/4/6 726/4/6
