# MagicaVoxel @ Ephtracy

# material
mtllib obj_armgate2.mtl
usemtl palette

# normals
vn -1 0 0
vn 1 0 0
vn 0 0 1
vn 0 0 -1
vn 0 -1 0
vn 0 1 0

# texcoords
vt 0.966797 0.5
vt 0.970703 0.5
vt 0.974609 0.5

# verts
v -6 0 2
v -6 0 -2
v -6 1 2
v -6 1 -2
v -5 0 3
v -5 0 2
v -5 0 -2
v -5 0 -3
v -5 1 3
v -5 1 2
v -5 1 -2
v -5 1 -3
v -2 1 2
v -2 1 -2
v -2 5 2
v -2 5 -2
v -2 7 2
v -2 7 -2
v -2 8 2
v -2 8 -2
v 2 1 2
v 2 1 -2
v 2 5 2
v 2 5 -2
v 2 7 2
v 2 7 -2
v 2 8 2
v 2 8 -2
v 5 0 3
v 5 0 2
v 5 0 -2
v 5 0 -3
v 5 1 3
v 5 1 2
v 5 1 -2
v 5 1 -3
v 6 0 2
v 6 0 -2
v 6 1 2
v 6 1 -2
v -5 0 3
v -5 1 3
v 5 0 3
v 5 1 3
v -6 0 2
v -6 1 2
v -5 0 2
v -5 1 2
v -2 1 2
v -2 5 2
v -2 7 2
v -2 8 2
v 2 1 2
v 2 5 2
v 2 7 2
v 2 8 2
v 5 0 2
v 5 1 2
v 6 0 2
v 6 1 2
v -6 0 -2
v -6 1 -2
v -5 0 -2
v -5 1 -2
v -2 1 -2
v -2 5 -2
v -2 7 -2
v -2 8 -2
v 2 1 -2
v 2 5 -2
v 2 7 -2
v 2 8 -2
v 5 0 -2
v 5 1 -2
v 6 0 -2
v 6 1 -2
v -5 0 -3
v -5 1 -3
v 5 0 -3
v 5 1 -3
v -5 0 3
v 5 0 3
v -6 0 2
v -5 0 2
v 5 0 2
v 6 0 2
v -6 0 -2
v -5 0 -2
v 5 0 -2
v 6 0 -2
v -5 0 -3
v 5 0 -3
v -5 1 3
v 5 1 3
v -6 1 2
v -5 1 2
v -2 1 2
v 2 1 2
v 5 1 2
v 6 1 2
v -6 1 -2
v -5 1 -2
v -2 1 -2
v 2 1 -2
v 5 1 -2
v 6 1 -2
v -5 1 -3
v 5 1 -3
v -2 8 2
v 2 8 2
v -2 8 -2
v 2 8 -2

# faces
f 3/1/1 2/1/1 1/1/1
f 4/1/1 2/1/1 3/1/1
f 9/1/1 6/1/1 5/1/1
f 10/1/1 6/1/1 9/1/1
f 11/1/1 8/1/1 7/1/1
f 12/1/1 8/1/1 11/1/1
f 15/2/1 14/2/1 13/2/1
f 16/2/1 14/2/1 15/2/1
f 17/3/1 16/3/1 15/3/1
f 18/3/1 16/3/1 17/3/1
f 19/2/1 18/2/1 17/2/1
f 20/2/1 18/2/1 19/2/1
f 21/2/2 22/2/2 23/2/2
f 23/2/2 22/2/2 24/2/2
f 23/3/2 24/3/2 25/3/2
f 25/3/2 24/3/2 26/3/2
f 25/2/2 26/2/2 27/2/2
f 27/2/2 26/2/2 28/2/2
f 29/1/2 30/1/2 33/1/2
f 33/1/2 30/1/2 34/1/2
f 31/1/2 32/1/2 35/1/2
f 35/1/2 32/1/2 36/1/2
f 37/1/2 38/1/2 39/1/2
f 39/1/2 38/1/2 40/1/2
f 43/1/3 42/1/3 41/1/3
f 44/1/3 42/1/3 43/1/3
f 47/1/3 46/1/3 45/1/3
f 48/1/3 46/1/3 47/1/3
f 53/2/3 50/2/3 49/2/3
f 54/3/3 51/3/3 50/3/3
f 54/2/3 50/2/3 53/2/3
f 55/2/3 52/2/3 51/2/3
f 55/3/3 51/3/3 54/3/3
f 56/2/3 52/2/3 55/2/3
f 59/1/3 58/1/3 57/1/3
f 60/1/3 58/1/3 59/1/3
f 61/1/4 62/1/4 63/1/4
f 63/1/4 62/1/4 64/1/4
f 65/2/4 66/2/4 69/2/4
f 66/3/4 67/3/4 70/3/4
f 69/2/4 66/2/4 70/2/4
f 67/2/4 68/2/4 71/2/4
f 70/3/4 67/3/4 71/3/4
f 71/2/4 68/2/4 72/2/4
f 73/1/4 74/1/4 75/1/4
f 75/1/4 74/1/4 76/1/4
f 77/1/4 78/1/4 79/1/4
f 79/1/4 78/1/4 80/1/4
f 84/1/5 82/1/5 81/1/5
f 85/1/5 82/1/5 84/1/5
f 87/1/5 84/1/5 83/1/5
f 87/1/5 86/1/5 85/1/5
f 87/1/5 85/1/5 84/1/5
f 88/1/5 86/1/5 87/1/5
f 89/1/5 86/1/5 88/1/5
f 90/1/5 86/1/5 89/1/5
f 91/1/5 89/1/5 88/1/5
f 92/1/5 89/1/5 91/1/5
f 93/1/6 94/1/6 96/1/6
f 96/1/6 94/1/6 97/1/6
f 97/1/6 94/1/6 98/1/6
f 98/1/6 94/1/6 99/1/6
f 95/1/6 96/1/6 101/1/6
f 96/1/6 97/1/6 101/1/6
f 101/1/6 97/1/6 102/1/6
f 102/1/6 97/1/6 103/1/6
f 99/1/6 100/1/6 104/1/6
f 98/1/6 99/1/6 104/1/6
f 104/1/6 100/1/6 105/1/6
f 105/1/6 100/1/6 106/1/6
f 102/1/6 103/1/6 107/1/6
f 104/1/6 105/1/6 107/1/6
f 103/1/6 104/1/6 107/1/6
f 107/1/6 105/1/6 108/1/6
f 109/2/6 110/2/6 111/2/6
f 111/2/6 110/2/6 112/2/6
