# MagicaVoxel @ Ephtracy

# material
mtllib obj_newsbox4.mtl
usemtl palette

# normals
vn -1 0 0
vn 1 0 0
vn 0 0 1
vn 0 0 -1
vn 0 -1 0
vn 0 1 0

# texcoords
vt 0.0605469 0.5
vt 0.0917969 0.5
vt 0.341797 0.5
vt 0.369141 0.5
vt 0.373047 0.5
vt 0.587891 0.5
vt 0.970703 0.5
vt 0.982422 0.5
vt 0.986328 0.5

# verts
v -4 0 3
v -4 0 1
v -4 2 3
v -4 2 1
v -4 5 1
v -4 5 -5
v -4 6 -0
v -4 6 -2
v -4 7 1
v -4 7 -0
v -4 7 -2
v -4 7 -4
v -4 8 -3
v -4 8 -4
v -4 9 -3
v -4 9 -5
v -4 10 -1
v -4 10 -2
v -4 11 1
v -4 11 -1
v -4 11 -2
v -4 11 -5
v -3 0 1
v -3 0 -0
v -3 1 1
v -3 1 -0
v -3 6 5
v -3 6 2
v -3 6 1
v -3 7 5
v -3 7 2
v -3 7 1
v -2 0 -0
v -2 0 -4
v -2 1 -0
v -2 1 -4
v -2 7 1
v -2 7 -0
v -2 7 -1
v -2 8 1
v -2 8 -1
v -1 0 3
v -1 0 2
v -1 1 3
v -1 1 2
v -1 1 -1
v -1 1 -3
v -1 5 -1
v -1 5 -3
v 0 7 -0
v 0 7 -1
v 0 7 -2
v 0 7 -3
v 0 9 -0
v 0 9 -1
v 0 9 -3
v 2 7 3
v 2 7 2
v 2 8 3
v 2 8 2
v 3 6 -4
v 3 6 -5
v 3 7 1
v 3 7 -0
v 3 8 2
v 3 8 1
v 3 8 -4
v 3 8 -5
v 3 9 1
v 3 9 -0
v 3 9 -3
v 3 10 2
v 3 10 1
v 3 10 -3
v 3 10 -4
v 3 10 -5
v -3 6 -4
v -3 6 -5
v -3 7 1
v -3 7 -0
v -3 7 -3
v -3 9 -4
v -3 9 -5
v -3 10 1
v -3 10 -3
v -3 10 -4
v -3 10 -5
v -2 0 3
v -2 0 1
v -2 0 -0
v -2 1 1
v -2 1 -0
v -2 2 3
v -2 2 1
v -1 7 1
v -1 7 -1
v -1 8 1
v -1 8 -1
v 0 0 3
v 0 0 2
v 0 1 3
v 0 1 2
v 1 1 -1
v 1 1 -3
v 1 5 -1
v 1 5 -3
v 2 0 -0
v 2 0 -4
v 2 1 -0
v 2 1 -4
v 3 6 5
v 3 6 2
v 3 6 1
v 3 7 5
v 3 7 3
v 3 7 2
v 3 7 1
v 3 8 3
v 3 8 2
v 4 5 1
v 4 5 -1
v 4 5 -4
v 4 5 -5
v 4 6 -1
v 4 6 -4
v 4 7 1
v 4 7 -2
v 4 8 2
v 4 8 1
v 4 8 -3
v 4 8 -5
v 4 9 1
v 4 9 -2
v 4 10 2
v 4 10 1
v 4 10 -3
v 4 10 -5
v 4 11 1
v 4 11 -5
v -3 6 5
v -3 7 5
v 3 6 5
v 3 7 5
v -4 0 3
v -4 2 3
v -2 0 3
v -2 2 3
v -1 0 3
v -1 1 3
v 0 0 3
v 0 1 3
v 2 7 3
v 2 8 3
v 3 7 3
v 3 8 3
v 3 8 2
v 3 10 2
v 4 8 2
v 4 10 2
v -4 5 1
v -4 7 1
v -4 11 1
v -3 6 1
v -3 7 1
v -3 10 1
v -3 11 1
v -2 6 1
v -2 7 1
v -2 8 1
v -1 6 1
v -1 7 1
v -1 8 1
v 2 6 1
v 3 6 1
v 3 7 1
v 3 8 1
v 3 10 1
v 4 5 1
v 4 7 1
v 4 8 1
v 4 10 1
v 4 11 1
v -2 0 -0
v -2 1 -0
v 0 7 -0
v 0 9 -0
v 1 7 -0
v 1 9 -0
v 2 0 -0
v 2 1 -0
v 2 7 -0
v 3 7 -0
v 3 9 -0
v -1 1 -1
v -1 5 -1
v 1 1 -1
v 1 5 -1
v -3 7 -3
v -3 10 -3
v 0 7 -3
v 0 9 -3
v 3 9 -3
v 3 10 -3
v -1 0 2
v -1 1 2
v 0 0 2
v 0 1 2
v 2 7 2
v 2 8 2
v 3 7 2
v 3 8 2
v -4 0 1
v -4 2 1
v -3 0 1
v -3 1 1
v -2 1 1
v -2 2 1
v -3 0 -0
v -3 1 -0
v -2 0 -0
v -2 1 -0
v -2 7 -1
v -2 8 -1
v -1 7 -1
v -1 8 -1
v -1 1 -3
v -1 5 -3
v 1 1 -3
v 1 5 -3
v -3 6 -4
v -3 9 -4
v -3 10 -4
v -2 0 -4
v -2 1 -4
v 2 0 -4
v 2 1 -4
v 3 6 -4
v 3 8 -4
v 3 10 -4
v -4 5 -5
v -4 9 -5
v -4 11 -5
v -3 6 -5
v -3 9 -5
v -3 10 -5
v -3 11 -5
v 3 6 -5
v 3 8 -5
v 3 10 -5
v 4 5 -5
v 4 8 -5
v 4 10 -5
v 4 11 -5
v -4 0 3
v -2 0 3
v -1 0 3
v 0 0 3
v -1 0 2
v 0 0 2
v -4 0 1
v -3 0 1
v -2 0 1
v -3 0 -0
v -2 0 -0
v 2 0 -0
v -2 0 -4
v 2 0 -4
v -4 5 1
v 4 5 1
v -1 5 -1
v 1 5 -1
v 3 5 -1
v 4 5 -1
v -1 5 -3
v 1 5 -3
v 3 5 -4
v 4 5 -4
v -4 5 -5
v 4 5 -5
v -3 6 5
v 3 6 5
v -2 6 4
v 2 6 4
v -2 6 3
v -1 6 3
v -3 6 2
v -2 6 2
v 2 6 2
v 3 6 2
v -3 6 1
v -2 6 1
v -1 6 1
v 2 6 1
v 3 6 1
v 3 8 2
v 4 8 2
v 3 8 1
v 4 8 1
v -3 10 1
v 3 10 1
v -3 10 -3
v 3 10 -3
v -3 10 -4
v 3 10 -4
v -3 10 -5
v 3 10 -5
v -1 1 3
v 0 1 3
v -1 1 2
v 0 1 2
v -3 1 1
v -2 1 1
v -3 1 -0
v -2 1 -0
v 2 1 -0
v -1 1 -1
v 1 1 -1
v -1 1 -3
v 1 1 -3
v -2 1 -4
v 2 1 -4
v -4 2 3
v -2 2 3
v -4 2 1
v -2 2 1
v -3 6 -4
v 3 6 -4
v -3 6 -5
v 3 6 -5
v -3 7 5
v 3 7 5
v -2 7 4
v 2 7 4
v -2 7 3
v -1 7 3
v 2 7 3
v 3 7 3
v -3 7 2
v -2 7 2
v 2 7 2
v 3 7 2
v -3 7 1
v -2 7 1
v -1 7 1
v 2 7 1
v 3 7 1
v -3 7 -0
v -2 7 -0
v 0 7 -0
v 1 7 -0
v 2 7 -0
v 3 7 -0
v -2 7 -1
v -1 7 -1
v 0 7 -1
v -1 7 -2
v 0 7 -2
v -3 7 -3
v 0 7 -3
v 2 8 3
v 3 8 3
v 2 8 2
v 3 8 2
v -2 8 1
v -1 8 1
v -2 8 -1
v -1 8 -1
v 0 9 -0
v 1 9 -0
v 3 9 -0
v 0 9 -1
v 1 9 -1
v 0 9 -3
v 3 9 -3
v 3 10 2
v 4 10 2
v 3 10 1
v 4 10 1
v -4 11 1
v -3 11 1
v 4 11 1
v -4 11 -1
v -3 11 -1
v -4 11 -2
v -3 11 -2
v -4 11 -5
v -3 11 -5
v 4 11 -5

# faces
f 3/5/1 2/5/1 1/5/1
f 4/5/1 2/5/1 3/5/1
f 7/2/1 6/2/1 5/2/1
f 8/2/1 6/2/1 7/2/1
f 9/2/1 7/2/1 5/2/1
f 10/1/1 8/1/1 7/1/1
f 10/2/1 7/2/1 9/2/1
f 11/2/1 6/2/1 8/2/1
f 11/1/1 8/1/1 10/1/1
f 12/2/1 6/2/1 11/2/1
f 13/1/1 10/1/1 9/1/1
f 13/1/1 11/1/1 10/1/1
f 13/1/1 12/1/1 11/1/1
f 14/2/1 6/2/1 12/2/1
f 14/1/1 12/1/1 13/1/1
f 15/1/1 13/1/1 9/1/1
f 15/2/1 14/2/1 13/2/1
f 16/2/1 6/2/1 14/2/1
f 16/2/1 14/2/1 15/2/1
f 17/1/1 15/1/1 9/1/1
f 17/1/1 16/1/1 15/1/1
f 18/1/1 16/1/1 17/1/1
f 19/1/1 17/1/1 9/1/1
f 20/2/1 18/2/1 17/2/1
f 20/1/1 17/1/1 19/1/1
f 21/1/1 16/1/1 18/1/1
f 21/2/1 18/2/1 20/2/1
f 22/1/1 16/1/1 21/1/1
f 25/3/1 24/3/1 23/3/1
f 26/3/1 24/3/1 25/3/1
f 30/9/1 28/9/1 27/9/1
f 31/8/1 29/8/1 28/8/1
f 31/9/1 28/9/1 30/9/1
f 32/8/1 29/8/1 31/8/1
f 35/9/1 34/9/1 33/9/1
f 36/9/1 34/9/1 35/9/1
f 40/4/1 38/4/1 37/4/1
f 40/4/1 39/4/1 38/4/1
f 41/4/1 39/4/1 40/4/1
f 44/3/1 43/3/1 42/3/1
f 45/3/1 43/3/1 44/3/1
f 48/9/1 47/9/1 46/9/1
f 49/9/1 47/9/1 48/9/1
f 54/3/1 51/3/1 50/3/1
f 55/5/1 53/5/1 52/5/1
f 55/3/1 51/3/1 54/3/1
f 55/5/1 52/5/1 51/5/1
f 56/5/1 53/5/1 55/5/1
f 59/3/1 58/3/1 57/3/1
f 60/3/1 58/3/1 59/3/1
f 66/1/1 64/1/1 63/1/1
f 67/2/1 62/2/1 61/2/1
f 68/2/1 62/2/1 67/2/1
f 69/7/1 66/7/1 65/7/1
f 69/1/1 64/1/1 66/1/1
f 70/1/1 64/1/1 69/1/1
f 72/7/1 69/7/1 65/7/1
f 73/2/1 71/2/1 70/2/1
f 73/7/1 69/7/1 72/7/1
f 73/2/1 70/2/1 69/2/1
f 74/2/1 71/2/1 73/2/1
f 75/1/1 68/1/1 67/1/1
f 76/1/1 68/1/1 75/1/1
f 77/2/2 78/2/2 82/2/2
f 82/2/2 78/2/2 83/2/2
f 80/1/2 81/1/2 84/1/2
f 79/1/2 80/1/2 84/1/2
f 84/1/2 81/1/2 85/1/2
f 82/1/2 83/1/2 86/1/2
f 86/1/2 83/1/2 87/1/2
f 88/5/2 89/5/2 91/5/2
f 89/3/2 90/3/2 91/3/2
f 91/3/2 90/3/2 92/3/2
f 88/5/2 91/5/2 93/5/2
f 93/5/2 91/5/2 94/5/2
f 95/4/2 96/4/2 97/4/2
f 97/4/2 96/4/2 98/4/2
f 99/3/2 100/3/2 101/3/2
f 101/3/2 100/3/2 102/3/2
f 103/9/2 104/9/2 105/9/2
f 105/9/2 104/9/2 106/9/2
f 107/9/2 108/9/2 109/9/2
f 109/9/2 108/9/2 110/9/2
f 111/9/2 112/9/2 114/9/2
f 114/9/2 112/9/2 115/9/2
f 112/8/2 113/8/2 116/8/2
f 115/9/2 112/9/2 116/9/2
f 116/8/2 113/8/2 117/8/2
f 115/3/2 116/3/2 118/3/2
f 118/3/2 116/3/2 119/3/2
f 120/2/2 121/2/2 124/2/2
f 121/1/2 122/1/2 124/1/2
f 122/2/2 123/2/2 125/2/2
f 124/1/2 122/1/2 125/1/2
f 120/2/2 124/2/2 126/2/2
f 124/2/2 125/2/2 126/2/2
f 126/2/2 125/2/2 127/2/2
f 126/1/2 127/1/2 129/1/2
f 127/2/2 125/2/2 130/2/2
f 125/2/2 123/2/2 131/2/2
f 130/2/2 125/2/2 131/2/2
f 128/7/2 129/7/2 132/7/2
f 129/1/2 127/1/2 132/1/2
f 127/2/2 130/2/2 133/2/2
f 132/1/2 127/1/2 133/1/2
f 128/7/2 132/7/2 134/7/2
f 132/2/2 133/2/2 135/2/2
f 134/7/2 132/7/2 135/7/2
f 133/2/2 130/2/2 136/2/2
f 135/2/2 133/2/2 136/2/2
f 130/1/2 131/1/2 136/1/2
f 136/1/2 131/1/2 137/1/2
f 135/2/2 136/2/2 138/2/2
f 136/2/2 137/2/2 138/2/2
f 138/2/2 137/2/2 139/2/2
f 142/9/3 141/9/3 140/9/3
f 143/9/3 141/9/3 142/9/3
f 146/5/3 145/5/3 144/5/3
f 147/5/3 145/5/3 146/5/3
f 150/3/3 149/3/3 148/3/3
f 151/3/3 149/3/3 150/3/3
f 154/3/3 153/3/3 152/3/3
f 155/3/3 153/3/3 154/3/3
f 158/7/3 157/7/3 156/7/3
f 159/7/3 157/7/3 158/7/3
f 163/2/3 161/2/3 160/2/3
f 164/1/3 162/1/3 161/1/3
f 164/2/3 161/2/3 163/2/3
f 165/1/3 162/1/3 164/1/3
f 166/1/3 162/1/3 165/1/3
f 167/2/3 163/2/3 160/2/3
f 170/2/3 167/2/3 160/2/3
f 171/4/3 169/4/3 168/4/3
f 172/4/3 169/4/3 171/4/3
f 173/2/3 170/2/3 160/2/3
f 174/2/3 173/2/3 160/2/3
f 177/2/3 166/2/3 165/2/3
f 178/2/3 175/2/3 174/2/3
f 178/2/3 174/2/3 160/2/3
f 179/1/3 176/1/3 175/1/3
f 179/2/3 175/2/3 178/2/3
f 180/1/3 176/1/3 179/1/3
f 181/2/3 166/2/3 177/2/3
f 182/2/3 166/2/3 181/2/3
f 187/3/3 186/3/3 185/3/3
f 188/3/3 186/3/3 187/3/3
f 189/9/3 184/9/3 183/9/3
f 190/9/3 184/9/3 189/9/3
f 191/5/3 188/5/3 187/5/3
f 192/5/3 188/5/3 191/5/3
f 193/5/3 188/5/3 192/5/3
f 196/9/3 195/9/3 194/9/3
f 197/9/3 195/9/3 196/9/3
f 200/9/3 199/9/3 198/9/3
f 201/9/3 199/9/3 200/9/3
f 202/9/3 199/9/3 201/9/3
f 203/9/3 199/9/3 202/9/3
f 204/3/4 205/3/4 206/3/4
f 206/3/4 205/3/4 207/3/4
f 208/3/4 209/3/4 210/3/4
f 210/3/4 209/3/4 211/3/4
f 212/5/4 213/5/4 214/5/4
f 214/5/4 213/5/4 215/5/4
f 215/5/4 213/5/4 216/5/4
f 216/5/4 213/5/4 217/5/4
f 218/3/4 219/3/4 220/3/4
f 220/3/4 219/3/4 221/3/4
f 222/4/4 223/4/4 224/4/4
f 224/4/4 223/4/4 225/4/4
f 226/9/4 227/9/4 228/9/4
f 228/9/4 227/9/4 229/9/4
f 233/9/4 234/9/4 235/9/4
f 235/9/4 234/9/4 236/9/4
f 230/9/4 231/9/4 237/9/4
f 231/9/4 232/9/4 237/9/4
f 237/9/4 232/9/4 238/9/4
f 238/9/4 232/9/4 239/9/4
f 240/2/4 241/2/4 243/2/4
f 241/1/4 242/1/4 244/1/4
f 243/2/4 241/2/4 244/2/4
f 244/1/4 242/1/4 245/1/4
f 245/1/4 242/1/4 246/1/4
f 240/2/4 243/2/4 247/2/4
f 245/2/4 246/2/4 249/2/4
f 247/2/4 248/2/4 250/2/4
f 240/2/4 247/2/4 250/2/4
f 248/1/4 249/1/4 251/1/4
f 250/2/4 248/2/4 251/2/4
f 249/2/4 246/2/4 252/2/4
f 251/1/4 249/1/4 252/1/4
f 252/2/4 246/2/4 253/2/4
f 258/3/5 257/3/5 256/3/5
f 259/3/5 257/3/5 258/3/5
f 260/5/5 255/5/5 254/5/5
f 261/5/5 255/5/5 260/5/5
f 262/5/5 255/5/5 261/5/5
f 263/3/5 262/3/5 261/3/5
f 264/3/5 262/3/5 263/3/5
f 266/9/5 265/9/5 264/9/5
f 267/9/5 265/9/5 266/9/5
f 270/2/5 269/2/5 268/2/5
f 271/2/5 269/2/5 270/2/5
f 272/2/5 269/2/5 271/2/5
f 273/2/5 269/2/5 272/2/5
f 274/2/5 270/2/5 268/2/5
f 275/2/5 272/2/5 271/2/5
f 276/1/5 273/1/5 272/1/5
f 276/2/5 275/2/5 274/2/5
f 276/2/5 272/2/5 275/2/5
f 277/1/5 273/1/5 276/1/5
f 278/2/5 274/2/5 268/2/5
f 278/2/5 276/2/5 274/2/5
f 278/2/5 277/2/5 276/2/5
f 279/2/5 277/2/5 278/2/5
f 282/9/5 281/9/5 280/9/5
f 283/9/5 281/9/5 282/9/5
f 284/9/5 282/9/5 280/9/5
f 284/6/5 283/6/5 282/6/5
f 285/6/5 283/6/5 284/6/5
f 286/9/5 284/9/5 280/9/5
f 287/3/5 285/3/5 284/3/5
f 287/9/5 284/9/5 286/9/5
f 288/9/5 281/9/5 283/9/5
f 288/6/5 283/6/5 285/6/5
f 289/9/5 281/9/5 288/9/5
f 290/8/5 287/8/5 286/8/5
f 291/3/5 285/3/5 287/3/5
f 291/8/5 287/8/5 290/8/5
f 292/6/5 288/6/5 285/6/5
f 292/3/5 285/3/5 291/3/5
f 293/8/5 289/8/5 288/8/5
f 293/6/5 288/6/5 292/6/5
f 294/8/5 289/8/5 293/8/5
f 297/7/5 296/7/5 295/7/5
f 298/7/5 296/7/5 297/7/5
f 301/2/5 300/2/5 299/2/5
f 302/2/5 300/2/5 301/2/5
f 305/2/5 304/2/5 303/2/5
f 306/2/5 304/2/5 305/2/5
f 307/3/6 308/3/6 309/3/6
f 309/3/6 308/3/6 310/3/6
f 311/3/6 312/3/6 313/3/6
f 313/3/6 312/3/6 314/3/6
f 314/9/6 315/9/6 316/9/6
f 316/9/6 315/9/6 317/9/6
f 314/9/6 316/9/6 318/9/6
f 317/9/6 315/9/6 319/9/6
f 314/9/6 318/9/6 320/9/6
f 318/9/6 319/9/6 320/9/6
f 319/9/6 315/9/6 321/9/6
f 320/9/6 319/9/6 321/9/6
f 322/5/6 323/5/6 324/5/6
f 324/5/6 323/5/6 325/5/6
f 326/2/6 327/2/6 328/2/6
f 328/2/6 327/2/6 329/2/6
f 330/9/6 331/9/6 332/9/6
f 332/9/6 331/9/6 333/9/6
f 330/9/6 332/9/6 334/9/6
f 332/6/6 333/6/6 334/6/6
f 334/6/6 333/6/6 335/6/6
f 333/9/6 331/9/6 336/9/6
f 335/6/6 333/6/6 336/6/6
f 336/9/6 331/9/6 337/9/6
f 330/9/6 334/9/6 338/9/6
f 334/3/6 335/3/6 339/3/6
f 338/9/6 334/9/6 339/9/6
f 335/6/6 336/6/6 340/6/6
f 338/8/6 339/8/6 342/8/6
f 339/3/6 335/3/6 343/3/6
f 342/8/6 339/8/6 343/8/6
f 335/6/6 340/6/6 344/6/6
f 343/3/6 335/3/6 344/3/6
f 340/8/6 341/8/6 345/8/6
f 344/6/6 340/6/6 345/6/6
f 345/8/6 341/8/6 346/8/6
f 342/3/6 343/3/6 347/3/6
f 347/3/6 343/3/6 348/3/6
f 344/3/6 345/3/6 349/3/6
f 349/3/6 345/3/6 350/3/6
f 345/9/6 346/9/6 351/9/6
f 350/3/6 345/3/6 351/3/6
f 351/9/6 346/9/6 352/9/6
f 347/9/6 348/9/6 353/9/6
f 344/3/6 349/3/6 354/3/6
f 354/3/6 349/3/6 355/3/6
f 353/9/6 354/9/6 356/9/6
f 354/3/6 355/3/6 356/3/6
f 356/3/6 355/3/6 357/3/6
f 347/9/6 353/9/6 358/9/6
f 353/9/6 356/9/6 358/9/6
f 356/9/6 357/9/6 358/9/6
f 358/9/6 357/9/6 359/9/6
f 360/3/6 361/3/6 362/3/6
f 362/3/6 361/3/6 363/3/6
f 364/4/6 365/4/6 366/4/6
f 366/4/6 365/4/6 367/4/6
f 368/3/6 369/3/6 371/3/6
f 369/5/6 370/5/6 372/5/6
f 371/3/6 369/3/6 372/3/6
f 371/5/6 372/5/6 373/5/6
f 372/5/6 370/5/6 374/5/6
f 373/5/6 372/5/6 374/5/6
f 375/7/6 376/7/6 377/7/6
f 377/7/6 376/7/6 378/7/6
f 379/1/6 380/1/6 382/1/6
f 380/2/6 381/2/6 383/2/6
f 382/1/6 380/1/6 383/1/6
f 382/2/6 383/2/6 384/2/6
f 383/2/6 381/2/6 385/2/6
f 384/2/6 383/2/6 385/2/6
f 384/1/6 385/1/6 386/1/6
f 385/2/6 381/2/6 387/2/6
f 386/1/6 385/1/6 387/1/6
f 387/2/6 381/2/6 388/2/6
