# MagicaVoxel @ Ephtracy

# material
mtllib obj_chair2.mtl
usemtl palette

# normals
vn -1 0 0
vn 1 0 0
vn 0 0 1
vn 0 0 -1
vn 0 -1 0
vn 0 1 0

# texcoords
vt 0.982422 0.5
vt 0.986328 0.5

# verts
v -2 2 4
v -2 2 2
v -2 2 1
v -2 2 -1
v -2 2 -2
v -2 2 -4
v -2 3 4
v -2 3 2
v -2 3 1
v -2 3 -1
v -2 3 -2
v -2 3 -4
v -1 0 2
v -1 0 1
v -1 0 -1
v -1 0 -2
v -1 2 2
v -1 2 1
v -1 2 -1
v -1 2 -2
v 0 0 2
v 0 0 1
v 0 0 -1
v 0 0 -2
v 0 2 2
v 0 2 1
v 0 2 -1
v 0 2 -2
v 1 2 4
v 1 2 2
v 1 2 1
v 1 2 -1
v 1 2 -2
v 1 2 -4
v 1 3 4
v 1 3 2
v 1 3 1
v 1 3 -1
v 1 3 -2
v 1 3 -4
v -2 2 4
v -2 3 4
v 1 2 4
v 1 3 4
v -1 0 2
v -1 2 2
v 0 0 2
v 0 2 2
v -1 0 -1
v -1 2 -1
v 0 0 -1
v 0 2 -1
v -1 0 1
v -1 2 1
v 0 0 1
v 0 2 1
v -1 0 -2
v -1 2 -2
v 0 0 -2
v 0 2 -2
v -2 2 -4
v -2 3 -4
v 1 2 -4
v 1 3 -4
v -1 0 2
v 0 0 2
v -1 0 1
v 0 0 1
v -1 0 -1
v 0 0 -1
v -1 0 -2
v 0 0 -2
v -2 2 4
v 1 2 4
v -2 2 2
v -1 2 2
v 0 2 2
v 1 2 2
v -2 2 1
v -1 2 1
v 0 2 1
v 1 2 1
v -2 2 -1
v -1 2 -1
v 0 2 -1
v 1 2 -1
v -2 2 -2
v -1 2 -2
v 0 2 -2
v 1 2 -2
v -2 2 -4
v 1 2 -4
v -2 3 4
v 1 3 4
v -2 3 2
v 1 3 2
v -2 3 1
v 1 3 1
v -2 3 -1
v 1 3 -1
v -2 3 -2
v 1 3 -2
v -2 3 -4
v 1 3 -4

# faces
f 7/1/1 2/1/1 1/1/1
f 8/2/1 3/2/1 2/2/1
f 8/1/1 2/1/1 7/1/1
f 9/1/1 4/1/1 3/1/1
f 9/2/1 3/2/1 8/2/1
f 10/2/1 5/2/1 4/2/1
f 10/1/1 4/1/1 9/1/1
f 11/1/1 6/1/1 5/1/1
f 11/2/1 5/2/1 10/2/1
f 12/1/1 6/1/1 11/1/1
f 17/2/1 14/2/1 13/2/1
f 18/2/1 14/2/1 17/2/1
f 19/2/1 16/2/1 15/2/1
f 20/2/1 16/2/1 19/2/1
f 21/2/2 22/2/2 25/2/2
f 25/2/2 22/2/2 26/2/2
f 23/2/2 24/2/2 27/2/2
f 27/2/2 24/2/2 28/2/2
f 29/1/2 30/1/2 35/1/2
f 30/2/2 31/2/2 36/2/2
f 35/1/2 30/1/2 36/1/2
f 31/1/2 32/1/2 37/1/2
f 36/2/2 31/2/2 37/2/2
f 32/2/2 33/2/2 38/2/2
f 37/1/2 32/1/2 38/1/2
f 33/1/2 34/1/2 39/1/2
f 38/2/2 33/2/2 39/2/2
f 39/1/2 34/1/2 40/1/2
f 43/1/3 42/1/3 41/1/3
f 44/1/3 42/1/3 43/1/3
f 47/2/3 46/2/3 45/2/3
f 48/2/3 46/2/3 47/2/3
f 51/2/3 50/2/3 49/2/3
f 52/2/3 50/2/3 51/2/3
f 53/2/4 54/2/4 55/2/4
f 55/2/4 54/2/4 56/2/4
f 57/2/4 58/2/4 59/2/4
f 59/2/4 58/2/4 60/2/4
f 61/1/4 62/1/4 63/1/4
f 63/1/4 62/1/4 64/1/4
f 67/2/5 66/2/5 65/2/5
f 68/2/5 66/2/5 67/2/5
f 71/2/5 70/2/5 69/2/5
f 72/2/5 70/2/5 71/2/5
f 75/1/5 74/1/5 73/1/5
f 76/1/5 74/1/5 75/1/5
f 77/1/5 74/1/5 76/1/5
f 78/1/5 74/1/5 77/1/5
f 79/2/5 76/2/5 75/2/5
f 80/2/5 76/2/5 79/2/5
f 81/2/5 78/2/5 77/2/5
f 82/2/5 78/2/5 81/2/5
f 83/1/5 80/1/5 79/1/5
f 83/1/5 81/1/5 80/1/5
f 83/1/5 82/1/5 81/1/5
f 84/1/5 82/1/5 83/1/5
f 85/1/5 82/1/5 84/1/5
f 86/1/5 82/1/5 85/1/5
f 87/2/5 84/2/5 83/2/5
f 88/2/5 84/2/5 87/2/5
f 89/2/5 86/2/5 85/2/5
f 90/2/5 86/2/5 89/2/5
f 91/1/5 88/1/5 87/1/5
f 91/1/5 89/1/5 88/1/5
f 91/1/5 90/1/5 89/1/5
f 92/1/5 90/1/5 91/1/5
f 93/1/6 94/1/6 95/1/6
f 95/1/6 94/1/6 96/1/6
f 95/2/6 96/2/6 97/2/6
f 97/2/6 96/2/6 98/2/6
f 97/1/6 98/1/6 99/1/6
f 99/1/6 98/1/6 100/1/6
f 99/2/6 100/2/6 101/2/6
f 101/2/6 100/2/6 102/2/6
f 101/1/6 102/1/6 103/1/6
f 103/1/6 102/1/6 104/1/6
