# MagicaVoxel @ Ephtracy

# material
mtllib obj_statue3.mtl
usemtl palette

# normals
vn -1 0 0
vn 1 0 0
vn 0 0 1
vn 0 0 -1
vn 0 -1 0
vn 0 1 0

# texcoords
vt 0.970703 0.5
vt 0.974609 0.5
vt 0.978516 0.5

# verts
v -8 0 7
v -8 0 -7
v -8 5 7
v -8 5 -7
v -7 5 5
v -7 5 -5
v -7 6 5
v -7 6 -5
v -6 5 6
v -6 5 5
v -6 5 -5
v -6 5 -6
v -6 6 6
v -6 6 5
v -6 6 -5
v -6 6 -6
v -4 8 -0
v -4 8 -1
v -4 9 -0
v -4 9 -1
v -4 12 -0
v -4 12 -1
v -4 13 2
v -4 13 -0
v -4 14 2
v -4 14 1
v -4 14 -0
v -4 14 -2
v -4 15 -2
v -4 15 -3
v -4 16 -1
v -4 16 -3
v -4 17 1
v -4 17 -1
v -3 7 1
v -3 7 -2
v -3 8 2
v -3 8 1
v -3 8 -0
v -3 8 -1
v -3 8 -2
v -3 8 -3
v -3 9 -0
v -3 9 -1
v -3 12 2
v -3 12 1
v -3 12 -0
v -3 12 -1
v -3 12 -2
v -3 12 -3
v -3 13 1
v -3 13 -0
v -3 14 -0
v -3 14 -2
v -3 14 -3
v -3 15 2
v -3 15 1
v -3 15 -2
v -3 15 -3
v -3 16 2
v -3 16 1
v -3 16 -1
v -3 16 -3
v -3 17 -0
v -3 17 -1
v -3 17 -3
v -3 18 -0
v -3 18 -1
v -2 6 -0
v -2 6 -1
v -2 7 -0
v -2 7 -1
v -2 12 -2
v -2 12 -3
v -2 14 -2
v -2 14 -3
v -2 14 -4
v -2 16 -3
v -2 16 -4
v -2 17 1
v -2 17 -0
v -2 17 -1
v -2 17 -3
v -2 18 1
v -2 18 -0
v -2 18 -1
v -2 18 -3
v -1 13 -3
v -1 13 -4
v -1 14 -3
v -1 14 -4
v 1 6 -0
v 1 6 -1
v 1 7 1
v 1 7 -0
v 1 7 -1
v 1 7 -2
v 1 8 1
v 1 8 -2
v 1 11 2
v 1 11 1
v 1 12 2
v 1 12 1
v 1 17 -2
v 1 17 -3
v 1 18 -2
v 1 18 -3
v 2 15 2
v 2 15 1
v 2 16 2
v 2 16 1
v 3 13 2
v 3 13 1
v 3 14 2
v 3 14 1
v -3 13 2
v -3 13 1
v -3 14 2
v -3 14 1
v -2 15 2
v -2 15 1
v -2 16 2
v -2 16 1
v -1 6 -0
v -1 6 -1
v -1 7 1
v -1 7 -0
v -1 7 -1
v -1 7 -2
v -1 8 1
v -1 8 -2
v -1 11 2
v -1 11 1
v -1 12 2
v -1 12 1
v -1 17 -2
v -1 17 -3
v -1 18 -2
v -1 18 -3
v 1 13 -3
v 1 13 -4
v 1 14 -3
v 1 14 -4
v 2 6 -0
v 2 6 -1
v 2 7 -0
v 2 7 -1
v 2 12 -2
v 2 12 -3
v 2 14 -2
v 2 14 -3
v 2 14 -4
v 2 16 -3
v 2 16 -4
v 2 17 1
v 2 17 -0
v 2 17 -1
v 2 17 -3
v 2 18 1
v 2 18 -0
v 2 18 -1
v 2 18 -3
v 3 7 1
v 3 7 -2
v 3 8 2
v 3 8 1
v 3 8 -0
v 3 8 -1
v 3 8 -2
v 3 8 -3
v 3 9 -0
v 3 9 -1
v 3 12 2
v 3 12 1
v 3 12 -0
v 3 12 -1
v 3 12 -2
v 3 12 -3
v 3 13 1
v 3 13 -0
v 3 14 -0
v 3 14 -2
v 3 14 -3
v 3 15 2
v 3 15 1
v 3 15 -2
v 3 15 -3
v 3 16 2
v 3 16 1
v 3 16 -1
v 3 16 -3
v 3 17 -0
v 3 17 -1
v 3 17 -3
v 3 18 -0
v 3 18 -1
v 4 8 -0
v 4 8 -1
v 4 9 -0
v 4 9 -1
v 4 12 -0
v 4 12 -1
v 4 13 2
v 4 13 -0
v 4 14 2
v 4 14 1
v 4 14 -0
v 4 14 -2
v 4 15 -2
v 4 15 -3
v 4 16 -1
v 4 16 -3
v 4 17 1
v 4 17 -1
v 6 5 6
v 6 5 5
v 6 5 -5
v 6 5 -6
v 6 6 6
v 6 6 5
v 6 6 -5
v 6 6 -6
v 7 5 5
v 7 5 -5
v 7 6 5
v 7 6 -5
v 8 0 7
v 8 0 -7
v 8 5 7
v 8 5 -7
v -8 0 7
v -8 5 7
v -4 1 7
v -4 4 7
v 4 1 7
v 4 4 7
v 8 0 7
v 8 5 7
v -6 5 6
v -6 6 6
v 6 5 6
v 6 6 6
v -7 5 5
v -7 6 5
v -6 5 5
v -6 6 5
v 6 5 5
v 6 6 5
v 7 5 5
v 7 6 5
v -4 13 2
v -4 14 2
v -3 8 2
v -3 12 2
v -3 13 2
v -3 14 2
v -3 15 2
v -3 16 2
v -2 15 2
v -2 16 2
v -1 11 2
v -1 12 2
v 1 11 2
v 1 12 2
v 2 15 2
v 2 16 2
v 3 8 2
v 3 12 2
v 3 13 2
v 3 14 2
v 3 15 2
v 3 16 2
v 4 13 2
v 4 14 2
v -4 14 1
v -4 17 1
v -3 7 1
v -3 8 1
v -3 12 1
v -3 13 1
v -3 14 1
v -3 15 1
v -3 16 1
v -2 13 1
v -2 14 1
v -2 15 1
v -2 16 1
v -2 17 1
v -2 18 1
v -1 7 1
v -1 8 1
v -1 11 1
v -1 12 1
v -1 13 1
v -1 14 1
v 1 7 1
v 1 8 1
v 1 11 1
v 1 12 1
v 1 13 1
v 1 14 1
v 2 13 1
v 2 14 1
v 2 15 1
v 2 16 1
v 2 17 1
v 2 18 1
v 3 7 1
v 3 8 1
v 3 12 1
v 3 13 1
v 3 14 1
v 3 15 1
v 3 16 1
v 4 14 1
v 4 17 1
v -4 8 -0
v -4 9 -0
v -4 12 -0
v -3 8 -0
v -3 9 -0
v -3 12 -0
v -3 17 -0
v -3 18 -0
v -2 6 -0
v -2 7 -0
v -2 17 -0
v -2 18 -0
v -1 6 -0
v -1 7 -0
v 1 6 -0
v 1 7 -0
v 2 6 -0
v 2 7 -0
v 2 17 -0
v 2 18 -0
v 3 8 -0
v 3 9 -0
v 3 12 -0
v 3 17 -0
v 3 18 -0
v 4 8 -0
v 4 9 -0
v 4 12 -0
v -4 13 -0
v -4 14 -0
v -3 13 -0
v -3 14 -0
v 3 13 -0
v 3 14 -0
v 4 13 -0
v 4 14 -0
v -4 8 -1
v -4 9 -1
v -4 12 -1
v -4 16 -1
v -4 17 -1
v -3 8 -1
v -3 9 -1
v -3 12 -1
v -3 16 -1
v -3 17 -1
v -3 18 -1
v -2 6 -1
v -2 7 -1
v -2 17 -1
v -2 18 -1
v -1 6 -1
v -1 7 -1
v 1 6 -1
v 1 7 -1
v 2 6 -1
v 2 7 -1
v 2 17 -1
v 2 18 -1
v 3 8 -1
v 3 9 -1
v 3 12 -1
v 3 16 -1
v 3 17 -1
v 3 18 -1
v 4 8 -1
v 4 9 -1
v 4 12 -1
v 4 16 -1
v 4 17 -1
v -4 14 -2
v -4 15 -2
v -3 7 -2
v -3 8 -2
v -3 12 -2
v -3 14 -2
v -3 15 -2
v -2 12 -2
v -2 14 -2
v -1 7 -2
v -1 8 -2
v -1 17 -2
v -1 18 -2
v 1 7 -2
v 1 8 -2
v 1 17 -2
v 1 18 -2
v 2 12 -2
v 2 14 -2
v 3 7 -2
v 3 8 -2
v 3 12 -2
v 3 14 -2
v 3 15 -2
v 4 14 -2
v 4 15 -2
v -4 15 -3
v -4 16 -3
v -3 8 -3
v -3 12 -3
v -3 14 -3
v -3 15 -3
v -3 16 -3
v -3 17 -3
v -2 12 -3
v -2 14 -3
v -2 16 -3
v -2 17 -3
v -2 18 -3
v -1 13 -3
v -1 14 -3
v -1 17 -3
v -1 18 -3
v 1 13 -3
v 1 14 -3
v 1 17 -3
v 1 18 -3
v 2 12 -3
v 2 14 -3
v 2 16 -3
v 2 17 -3
v 2 18 -3
v 3 8 -3
v 3 12 -3
v 3 14 -3
v 3 15 -3
v 3 16 -3
v 3 17 -3
v 4 15 -3
v 4 16 -3
v -2 14 -4
v -2 16 -4
v -1 13 -4
v -1 14 -4
v 1 13 -4
v 1 14 -4
v 2 14 -4
v 2 16 -4
v -7 5 -5
v -7 6 -5
v -6 5 -5
v -6 6 -5
v 6 5 -5
v 6 6 -5
v 7 5 -5
v 7 6 -5
v -6 5 -6
v -6 6 -6
v 6 5 -6
v 6 6 -6
v -8 0 -7
v -8 5 -7
v 8 0 -7
v 8 5 -7
v -8 0 7
v 8 0 7
v -8 0 -7
v 8 0 -7
v -3 7 1
v -1 7 1
v 1 7 1
v 3 7 1
v -2 7 -0
v -1 7 -0
v 1 7 -0
v 2 7 -0
v -2 7 -1
v -1 7 -1
v 1 7 -1
v 2 7 -1
v -3 7 -2
v -1 7 -2
v 1 7 -2
v 3 7 -2
v -3 8 2
v 3 8 2
v -3 8 1
v -1 8 1
v 1 8 1
v 3 8 1
v -4 8 -0
v -3 8 -0
v 3 8 -0
v 4 8 -0
v -4 8 -1
v -3 8 -1
v 3 8 -1
v 4 8 -1
v -3 8 -2
v -1 8 -2
v 1 8 -2
v 3 8 -2
v -3 8 -3
v 3 8 -3
v -4 13 2
v -3 13 2
v 3 13 2
v 4 13 2
v -3 13 1
v 3 13 1
v -4 13 -0
v -3 13 -0
v 3 13 -0
v 4 13 -0
v -1 13 -3
v 1 13 -3
v -1 13 -4
v 1 13 -4
v -4 14 -0
v -3 14 -0
v 3 14 -0
v 4 14 -0
v -4 14 -2
v -3 14 -2
v -2 14 -2
v 2 14 -2
v 3 14 -2
v 4 14 -2
v -3 14 -3
v -2 14 -3
v -1 14 -3
v 1 14 -3
v 2 14 -3
v 3 14 -3
v -2 14 -4
v -1 14 -4
v 1 14 -4
v 2 14 -4
v -3 15 2
v -2 15 2
v 2 15 2
v 3 15 2
v -3 15 1
v -2 15 1
v 2 15 1
v 3 15 1
v -4 15 -2
v -3 15 -2
v 3 15 -2
v 4 15 -2
v -4 15 -3
v -3 15 -3
v 3 15 -3
v 4 15 -3
v -8 5 7
v 8 5 7
v -6 5 6
v 6 5 6
v -7 5 5
v -6 5 5
v 6 5 5
v 7 5 5
v -7 5 -5
v -6 5 -5
v 6 5 -5
v 7 5 -5
v -6 5 -6
v 6 5 -6
v -8 5 -7
v 8 5 -7
v -6 6 6
v 6 6 6
v -7 6 5
v -6 6 5
v 6 6 5
v 7 6 5
v -2 6 -0
v -1 6 -0
v 1 6 -0
v 2 6 -0
v -2 6 -1
v -1 6 -1
v 1 6 -1
v 2 6 -1
v -7 6 -5
v -6 6 -5
v 6 6 -5
v 7 6 -5
v -6 6 -6
v 6 6 -6
v -1 11 2
v 1 11 2
v -1 11 1
v 1 11 1
v -3 12 2
v -1 12 2
v 1 12 2
v 3 12 2
v -3 12 1
v -1 12 1
v 1 12 1
v 3 12 1
v -4 12 -0
v -3 12 -0
v 3 12 -0
v 4 12 -0
v -4 12 -1
v -3 12 -1
v 3 12 -1
v 4 12 -1
v -3 12 -2
v -2 12 -2
v 2 12 -2
v 3 12 -2
v -3 12 -3
v -2 12 -3
v 2 12 -3
v 3 12 -3
v -4 14 2
v -3 14 2
v 3 14 2
v 4 14 2
v -4 14 1
v -3 14 1
v 3 14 1
v 4 14 1
v -3 16 2
v -2 16 2
v 2 16 2
v 3 16 2
v -3 16 1
v -2 16 1
v 2 16 1
v 3 16 1
v -4 16 -1
v -3 16 -1
v 3 16 -1
v 4 16 -1
v -4 16 -3
v -3 16 -3
v -2 16 -3
v 2 16 -3
v 3 16 -3
v 4 16 -3
v -2 16 -4
v 2 16 -4
v -4 17 1
v -2 17 1
v 2 17 1
v 4 17 1
v -3 17 -0
v -2 17 -0
v 2 17 -0
v 3 17 -0
v -4 17 -1
v -3 17 -1
v -2 17 -1
v 2 17 -1
v 3 17 -1
v 4 17 -1
v -1 17 -2
v 1 17 -2
v -3 17 -3
v -2 17 -3
v -1 17 -3
v 1 17 -3
v 2 17 -3
v 3 17 -3
v -2 18 1
v 2 18 1
v -3 18 -0
v -2 18 -0
v 2 18 -0
v 3 18 -0
v -3 18 -1
v -2 18 -1
v 2 18 -1
v 3 18 -1
v -1 18 -2
v 1 18 -2
v -2 18 -3
v -1 18 -3
v 1 18 -3
v 2 18 -3

# faces
f 3/2/1 2/2/1 1/2/1
f 4/2/1 2/2/1 3/2/1
f 7/2/1 6/2/1 5/2/1
f 8/2/1 6/2/1 7/2/1
f 13/2/1 10/2/1 9/2/1
f 14/2/1 10/2/1 13/2/1
f 15/2/1 12/2/1 11/2/1
f 16/2/1 12/2/1 15/2/1
f 19/1/1 18/1/1 17/1/1
f 20/1/1 18/1/1 19/1/1
f 21/3/1 20/3/1 19/3/1
f 22/3/1 20/3/1 21/3/1
f 25/3/1 24/3/1 23/3/1
f 26/3/1 24/3/1 25/3/1
f 27/3/1 24/3/1 26/3/1
f 29/3/1 27/3/1 26/3/1
f 29/3/1 28/3/1 27/3/1
f 31/3/1 29/3/1 26/3/1
f 31/3/1 30/3/1 29/3/1
f 32/3/1 30/3/1 31/3/1
f 33/3/1 31/3/1 26/3/1
f 34/3/1 31/3/1 33/3/1
f 38/3/1 36/3/1 35/3/1
f 39/3/1 36/3/1 38/3/1
f 40/3/1 36/3/1 39/3/1
f 41/3/1 36/3/1 40/3/1
f 43/3/1 38/3/1 37/3/1
f 43/3/1 39/3/1 38/3/1
f 44/3/1 42/3/1 41/3/1
f 44/3/1 41/3/1 40/3/1
f 45/3/1 43/3/1 37/3/1
f 46/3/1 43/3/1 45/3/1
f 47/3/1 43/3/1 46/3/1
f 48/3/1 42/3/1 44/3/1
f 49/3/1 42/3/1 48/3/1
f 50/3/1 42/3/1 49/3/1
f 51/1/1 47/1/1 46/1/1
f 51/1/1 49/1/1 48/1/1
f 51/1/1 48/1/1 47/1/1
f 52/1/1 49/1/1 51/1/1
f 53/1/1 49/1/1 52/1/1
f 54/1/1 49/1/1 53/1/1
f 58/3/1 55/3/1 54/3/1
f 59/3/1 55/3/1 58/3/1
f 60/3/1 57/3/1 56/3/1
f 61/3/1 57/3/1 60/3/1
f 65/3/1 63/3/1 62/3/1
f 66/3/1 63/3/1 65/3/1
f 67/3/1 65/3/1 64/3/1
f 68/3/1 65/3/1 67/3/1
f 71/3/1 70/3/1 69/3/1
f 72/3/1 70/3/1 71/3/1
f 75/1/1 74/1/1 73/1/1
f 76/1/1 74/1/1 75/1/1
f 78/3/1 77/3/1 76/3/1
f 79/3/1 77/3/1 78/3/1
f 84/3/1 81/3/1 80/3/1
f 85/3/1 81/3/1 84/3/1
f 86/3/1 83/3/1 82/3/1
f 87/3/1 83/3/1 86/3/1
f 90/3/1 89/3/1 88/3/1
f 91/3/1 89/3/1 90/3/1
f 95/3/1 93/3/1 92/3/1
f 96/3/1 93/3/1 95/3/1
f 98/3/1 95/3/1 94/3/1
f 98/3/1 97/3/1 96/3/1
f 98/3/1 96/3/1 95/3/1
f 99/3/1 97/3/1 98/3/1
f 102/3/1 101/3/1 100/3/1
f 103/3/1 101/3/1 102/3/1
f 106/3/1 105/3/1 104/3/1
f 107/3/1 105/3/1 106/3/1
f 110/3/1 109/3/1 108/3/1
f 111/3/1 109/3/1 110/3/1
f 114/3/1 113/3/1 112/3/1
f 115/3/1 113/3/1 114/3/1
f 116/3/2 117/3/2 118/3/2
f 118/3/2 117/3/2 119/3/2
f 120/3/2 121/3/2 122/3/2
f 122/3/2 121/3/2 123/3/2
f 124/3/2 125/3/2 127/3/2
f 127/3/2 125/3/2 128/3/2
f 126/3/2 127/3/2 130/3/2
f 128/3/2 129/3/2 130/3/2
f 127/3/2 128/3/2 130/3/2
f 130/3/2 129/3/2 131/3/2
f 132/3/2 133/3/2 134/3/2
f 134/3/2 133/3/2 135/3/2
f 136/3/2 137/3/2 138/3/2
f 138/3/2 137/3/2 139/3/2
f 140/3/2 141/3/2 142/3/2
f 142/3/2 141/3/2 143/3/2
f 144/3/2 145/3/2 146/3/2
f 146/3/2 145/3/2 147/3/2
f 148/1/2 149/1/2 150/1/2
f 150/1/2 149/1/2 151/1/2
f 151/3/2 152/3/2 153/3/2
f 153/3/2 152/3/2 154/3/2
f 155/3/2 156/3/2 159/3/2
f 159/3/2 156/3/2 160/3/2
f 157/3/2 158/3/2 161/3/2
f 161/3/2 158/3/2 162/3/2
f 163/3/2 164/3/2 166/3/2
f 166/3/2 164/3/2 167/3/2
f 167/3/2 164/3/2 168/3/2
f 168/3/2 164/3/2 169/3/2
f 165/3/2 166/3/2 171/3/2
f 166/3/2 167/3/2 171/3/2
f 169/3/2 170/3/2 172/3/2
f 168/3/2 169/3/2 172/3/2
f 165/3/2 171/3/2 173/3/2
f 173/3/2 171/3/2 174/3/2
f 174/3/2 171/3/2 175/3/2
f 172/3/2 170/3/2 176/3/2
f 176/3/2 170/3/2 177/3/2
f 177/3/2 170/3/2 178/3/2
f 174/1/2 175/1/2 179/1/2
f 176/1/2 177/1/2 179/1/2
f 175/1/2 176/1/2 179/1/2
f 179/1/2 177/1/2 180/1/2
f 180/1/2 177/1/2 181/1/2
f 181/1/2 177/1/2 182/1/2
f 182/3/2 183/3/2 186/3/2
f 186/3/2 183/3/2 187/3/2
f 184/3/2 185/3/2 188/3/2
f 188/3/2 185/3/2 189/3/2
f 190/3/2 191/3/2 193/3/2
f 193/3/2 191/3/2 194/3/2
f 192/3/2 193/3/2 195/3/2
f 195/3/2 193/3/2 196/3/2
f 197/1/2 198/1/2 199/1/2
f 199/1/2 198/1/2 200/1/2
f 199/3/2 200/3/2 201/3/2
f 201/3/2 200/3/2 202/3/2
f 203/3/2 204/3/2 205/3/2
f 205/3/2 204/3/2 206/3/2
f 206/3/2 204/3/2 207/3/2
f 206/3/2 207/3/2 209/3/2
f 207/3/2 208/3/2 209/3/2
f 206/3/2 209/3/2 211/3/2
f 209/3/2 210/3/2 211/3/2
f 211/3/2 210/3/2 212/3/2
f 206/3/2 211/3/2 213/3/2
f 213/3/2 211/3/2 214/3/2
f 215/2/2 216/2/2 219/2/2
f 219/2/2 216/2/2 220/2/2
f 217/2/2 218/2/2 221/2/2
f 221/2/2 218/2/2 222/2/2
f 223/2/2 224/2/2 225/2/2
f 225/2/2 224/2/2 226/2/2
f 227/2/2 228/2/2 229/2/2
f 229/2/2 228/2/2 230/2/2
f 233/2/3 232/2/3 231/2/3
f 234/2/3 232/2/3 233/2/3
f 235/2/3 233/2/3 231/2/3
f 235/3/3 234/3/3 233/3/3
f 236/2/3 232/2/3 234/2/3
f 236/3/3 234/3/3 235/3/3
f 237/2/3 235/2/3 231/2/3
f 237/2/3 236/2/3 235/2/3
f 238/2/3 232/2/3 236/2/3
f 238/2/3 236/2/3 237/2/3
f 241/2/3 240/2/3 239/2/3
f 242/2/3 240/2/3 241/2/3
f 245/2/3 244/2/3 243/2/3
f 246/2/3 244/2/3 245/2/3
f 249/2/3 248/2/3 247/2/3
f 250/2/3 248/2/3 249/2/3
f 255/3/3 252/3/3 251/3/3
f 256/3/3 252/3/3 255/3/3
f 259/3/3 258/3/3 257/3/3
f 260/3/3 258/3/3 259/3/3
f 261/3/3 254/3/3 253/3/3
f 262/3/3 254/3/3 261/3/3
f 263/3/3 261/3/3 253/3/3
f 267/3/3 264/3/3 263/3/3
f 267/3/3 263/3/3 253/3/3
f 268/3/3 264/3/3 267/3/3
f 271/3/3 266/3/3 265/3/3
f 272/3/3 266/3/3 271/3/3
f 273/3/3 270/3/3 269/3/3
f 274/3/3 270/3/3 273/3/3
f 281/3/3 276/3/3 275/3/3
f 282/3/3 276/3/3 281/3/3
f 283/3/3 276/3/3 282/3/3
f 284/1/3 280/1/3 279/1/3
f 284/1/3 281/1/3 280/1/3
f 284/1/3 282/1/3 281/1/3
f 285/1/3 282/1/3 284/1/3
f 286/1/3 282/1/3 285/1/3
f 287/3/3 276/3/3 283/3/3
f 288/3/3 276/3/3 287/3/3
f 290/3/3 278/3/3 277/3/3
f 291/3/3 278/3/3 290/3/3
f 293/1/3 284/1/3 279/1/3
f 294/3/3 285/3/3 284/3/3
f 294/1/3 284/1/3 293/1/3
f 295/1/3 286/1/3 285/1/3
f 295/3/3 285/3/3 294/3/3
f 295/1/3 287/1/3 286/1/3
f 298/1/3 294/1/3 293/1/3
f 298/1/3 293/1/3 292/1/3
f 298/1/3 295/1/3 294/1/3
f 299/1/3 295/1/3 298/1/3
f 300/1/3 295/1/3 299/1/3
f 301/1/3 287/1/3 295/1/3
f 301/1/3 295/1/3 300/1/3
f 302/1/3 300/1/3 299/1/3
f 302/3/3 301/3/3 300/3/3
f 303/1/3 287/1/3 301/1/3
f 303/3/3 301/3/3 302/3/3
f 304/1/3 287/1/3 303/1/3
f 305/3/3 289/3/3 288/3/3
f 305/1/3 287/1/3 304/1/3
f 305/3/3 288/3/3 287/3/3
f 306/3/3 289/3/3 305/3/3
f 307/3/3 289/3/3 306/3/3
f 308/3/3 297/3/3 296/3/3
f 309/3/3 297/3/3 308/3/3
f 310/1/3 304/1/3 303/1/3
f 310/1/3 302/1/3 299/1/3
f 310/1/3 303/1/3 302/1/3
f 311/1/3 304/1/3 310/1/3
f 312/1/3 304/1/3 311/1/3
f 313/1/3 304/1/3 312/1/3
f 314/3/3 306/3/3 305/3/3
f 315/3/3 314/3/3 313/3/3
f 315/3/3 313/3/3 312/3/3
f 316/3/3 306/3/3 314/3/3
f 316/3/3 314/3/3 315/3/3
f 320/1/3 318/1/3 317/1/3
f 321/3/3 319/3/3 318/3/3
f 321/1/3 318/1/3 320/1/3
f 322/3/3 319/3/3 321/3/3
f 327/3/3 324/3/3 323/3/3
f 328/3/3 324/3/3 327/3/3
f 329/3/3 326/3/3 325/3/3
f 330/3/3 326/3/3 329/3/3
f 333/3/3 332/3/3 331/3/3
f 334/3/3 332/3/3 333/3/3
f 340/3/3 336/3/3 335/3/3
f 341/3/3 336/3/3 340/3/3
f 342/1/3 338/1/3 337/1/3
f 343/3/3 339/3/3 338/3/3
f 343/1/3 338/1/3 342/1/3
f 344/3/3 339/3/3 343/3/3
f 345/3/4 346/3/4 347/3/4
f 347/3/4 346/3/4 348/3/4
f 349/3/4 350/3/4 351/3/4
f 351/3/4 350/3/4 352/3/4
f 353/1/4 354/1/4 358/1/4
f 354/3/4 355/3/4 359/3/4
f 358/1/4 354/1/4 359/1/4
f 359/3/4 355/3/4 360/3/4
f 356/3/4 357/3/4 361/3/4
f 361/3/4 357/3/4 362/3/4
f 362/3/4 363/3/4 366/3/4
f 366/3/4 363/3/4 367/3/4
f 364/3/4 365/3/4 368/3/4
f 368/3/4 365/3/4 369/3/4
f 370/3/4 371/3/4 372/3/4
f 372/3/4 371/3/4 373/3/4
f 374/3/4 375/3/4 380/3/4
f 380/3/4 375/3/4 381/3/4
f 376/1/4 377/1/4 382/1/4
f 377/3/4 378/3/4 383/3/4
f 382/1/4 377/1/4 383/1/4
f 383/3/4 378/3/4 384/3/4
f 379/3/4 380/3/4 385/3/4
f 385/3/4 380/3/4 386/3/4
f 387/3/4 388/3/4 392/3/4
f 392/3/4 388/3/4 393/3/4
f 391/1/4 392/1/4 394/1/4
f 394/1/4 392/1/4 395/1/4
f 389/3/4 390/3/4 396/3/4
f 396/3/4 390/3/4 397/3/4
f 398/3/4 399/3/4 402/3/4
f 402/3/4 399/3/4 403/3/4
f 400/3/4 401/3/4 406/3/4
f 406/3/4 401/3/4 407/3/4
f 404/1/4 405/1/4 408/1/4
f 408/1/4 405/1/4 409/1/4
f 409/3/4 410/3/4 411/3/4
f 411/3/4 410/3/4 412/3/4
f 413/3/4 414/3/4 418/3/4
f 418/3/4 414/3/4 419/3/4
f 415/3/4 416/3/4 421/3/4
f 419/3/4 420/3/4 422/3/4
f 417/3/4 418/3/4 422/3/4
f 418/3/4 419/3/4 422/3/4
f 422/3/4 420/3/4 423/3/4
f 423/3/4 420/3/4 424/3/4
f 421/1/4 422/1/4 426/1/4
f 426/1/4 422/1/4 427/1/4
f 424/3/4 425/3/4 428/3/4
f 423/3/4 424/3/4 428/3/4
f 428/3/4 425/3/4 429/3/4
f 421/1/4 426/1/4 430/1/4
f 423/3/4 428/3/4 432/3/4
f 415/3/4 421/3/4 434/3/4
f 430/1/4 431/1/4 434/1/4
f 421/1/4 430/1/4 434/1/4
f 434/1/4 431/1/4 435/1/4
f 432/3/4 433/3/4 436/3/4
f 423/3/4 432/3/4 436/3/4
f 436/3/4 433/3/4 437/3/4
f 437/3/4 433/3/4 438/3/4
f 415/3/4 434/3/4 439/3/4
f 439/3/4 434/3/4 440/3/4
f 436/3/4 437/3/4 441/3/4
f 435/3/4 436/3/4 441/3/4
f 441/3/4 437/3/4 442/3/4
f 442/3/4 437/3/4 443/3/4
f 443/3/4 437/3/4 444/3/4
f 442/3/4 443/3/4 445/3/4
f 445/3/4 443/3/4 446/3/4
f 447/3/4 448/3/4 450/3/4
f 449/3/4 450/3/4 451/3/4
f 450/3/4 448/3/4 452/3/4
f 451/3/4 450/3/4 452/3/4
f 452/3/4 448/3/4 453/3/4
f 453/3/4 448/3/4 454/3/4
f 455/2/4 456/2/4 457/2/4
f 457/2/4 456/2/4 458/2/4
f 459/2/4 460/2/4 461/2/4
f 461/2/4 460/2/4 462/2/4
f 463/2/4 464/2/4 465/2/4
f 465/2/4 464/2/4 466/2/4
f 467/2/4 468/2/4 469/2/4
f 469/2/4 468/2/4 470/2/4
f 473/2/5 472/2/5 471/2/5
f 474/2/5 472/2/5 473/2/5
f 479/3/5 476/3/5 475/3/5
f 480/3/5 476/3/5 479/3/5
f 481/3/5 478/3/5 477/3/5
f 482/3/5 478/3/5 481/3/5
f 483/3/5 479/3/5 475/3/5
f 486/3/5 478/3/5 482/3/5
f 487/3/5 484/3/5 483/3/5
f 487/3/5 483/3/5 475/3/5
f 488/3/5 484/3/5 487/3/5
f 489/3/5 486/3/5 485/3/5
f 490/3/5 478/3/5 486/3/5
f 490/3/5 486/3/5 489/3/5
f 493/3/5 492/3/5 491/3/5
f 494/3/5 492/3/5 493/3/5
f 495/3/5 492/3/5 494/3/5
f 496/3/5 492/3/5 495/3/5
f 501/1/5 498/1/5 497/1/5
f 502/1/5 498/1/5 501/1/5
f 503/1/5 500/1/5 499/1/5
f 504/1/5 500/1/5 503/1/5
f 506/3/5 495/3/5 494/3/5
f 507/3/5 495/3/5 506/3/5
f 509/3/5 506/3/5 505/3/5
f 509/3/5 508/3/5 507/3/5
f 509/3/5 507/3/5 506/3/5
f 510/3/5 508/3/5 509/3/5
f 515/3/5 512/3/5 511/3/5
f 516/3/5 514/3/5 513/3/5
f 517/3/5 515/3/5 511/3/5
f 518/3/5 515/3/5 517/3/5
f 519/3/5 514/3/5 516/3/5
f 520/3/5 514/3/5 519/3/5
f 523/3/5 522/3/5 521/3/5
f 524/3/5 522/3/5 523/3/5
f 529/3/5 526/3/5 525/3/5
f 530/3/5 526/3/5 529/3/5
f 533/3/5 528/3/5 527/3/5
f 534/3/5 528/3/5 533/3/5
f 535/3/5 531/3/5 530/3/5
f 536/3/5 531/3/5 535/3/5
f 539/3/5 533/3/5 532/3/5
f 540/3/5 533/3/5 539/3/5
f 541/3/5 537/3/5 536/3/5
f 542/3/5 537/3/5 541/3/5
f 543/3/5 539/3/5 538/3/5
f 544/3/5 539/3/5 543/3/5
f 549/3/5 546/3/5 545/3/5
f 550/3/5 546/3/5 549/3/5
f 551/3/5 548/3/5 547/3/5
f 552/3/5 548/3/5 551/3/5
f 557/3/5 554/3/5 553/3/5
f 558/3/5 554/3/5 557/3/5
f 559/3/5 556/3/5 555/3/5
f 560/3/5 556/3/5 559/3/5
f 561/2/6 562/2/6 563/2/6
f 563/2/6 562/2/6 564/2/6
f 561/2/6 563/2/6 565/2/6
f 565/2/6 563/2/6 566/2/6
f 564/2/6 562/2/6 567/2/6
f 567/2/6 562/2/6 568/2/6
f 561/2/6 565/2/6 569/2/6
f 568/2/6 562/2/6 572/2/6
f 569/2/6 570/2/6 573/2/6
f 571/2/6 572/2/6 574/2/6
f 569/2/6 573/2/6 575/2/6
f 573/2/6 574/2/6 575/2/6
f 561/2/6 569/2/6 575/2/6
f 574/2/6 572/2/6 576/2/6
f 575/2/6 574/2/6 576/2/6
f 572/2/6 562/2/6 576/2/6
f 577/2/6 578/2/6 580/2/6
f 580/2/6 578/2/6 581/2/6
f 579/2/6 580/2/6 583/2/6
f 581/2/6 582/2/6 583/2/6
f 580/2/6 581/2/6 583/2/6
f 583/2/6 582/2/6 584/2/6
f 584/2/6 582/2/6 585/2/6
f 585/2/6 582/2/6 586/2/6
f 579/2/6 583/2/6 587/2/6
f 584/2/6 585/2/6 588/2/6
f 588/2/6 585/2/6 589/2/6
f 586/2/6 582/2/6 590/2/6
f 588/2/6 589/2/6 591/2/6
f 589/2/6 590/2/6 591/2/6
f 579/2/6 587/2/6 591/2/6
f 587/2/6 588/2/6 591/2/6
f 591/2/6 590/2/6 592/2/6
f 590/2/6 582/2/6 593/2/6
f 592/2/6 590/2/6 593/2/6
f 593/2/6 582/2/6 594/2/6
f 592/2/6 593/2/6 595/2/6
f 595/2/6 593/2/6 596/2/6
f 597/3/6 598/3/6 599/3/6
f 599/3/6 598/3/6 600/3/6
f 601/3/6 602/3/6 605/3/6
f 605/3/6 602/3/6 606/3/6
f 603/3/6 604/3/6 607/3/6
f 607/3/6 604/3/6 608/3/6
f 609/3/6 610/3/6 613/3/6
f 613/3/6 610/3/6 614/3/6
f 611/3/6 612/3/6 615/3/6
f 615/3/6 612/3/6 616/3/6
f 617/3/6 618/3/6 621/3/6
f 621/3/6 618/3/6 622/3/6
f 619/3/6 620/3/6 623/3/6
f 623/3/6 620/3/6 624/3/6
f 625/3/6 626/3/6 629/3/6
f 629/3/6 626/3/6 630/3/6
f 627/3/6 628/3/6 631/3/6
f 631/3/6 628/3/6 632/3/6
f 633/3/6 634/3/6 637/3/6
f 637/3/6 634/3/6 638/3/6
f 635/3/6 636/3/6 639/3/6
f 639/3/6 636/3/6 640/3/6
f 641/3/6 642/3/6 645/3/6
f 645/3/6 642/3/6 646/3/6
f 643/3/6 644/3/6 649/3/6
f 649/3/6 644/3/6 650/3/6
f 647/3/6 648/3/6 651/3/6
f 651/3/6 648/3/6 652/3/6
f 653/3/6 654/3/6 657/3/6
f 657/3/6 654/3/6 658/3/6
f 655/3/6 656/3/6 659/3/6
f 659/3/6 656/3/6 660/3/6
f 653/3/6 657/3/6 661/3/6
f 661/3/6 657/3/6 662/3/6
f 660/3/6 656/3/6 665/3/6
f 665/3/6 656/3/6 666/3/6
f 662/3/6 663/3/6 669/3/6
f 669/3/6 663/3/6 670/3/6
f 667/3/6 668/3/6 671/3/6
f 671/3/6 668/3/6 672/3/6
f 664/3/6 665/3/6 673/3/6
f 673/3/6 665/3/6 674/3/6
f 675/3/6 676/3/6 678/3/6
f 678/3/6 676/3/6 679/3/6
f 677/3/6 678/3/6 681/3/6
f 679/3/6 680/3/6 681/3/6
f 678/3/6 679/3/6 681/3/6
f 681/3/6 680/3/6 682/3/6
f 682/3/6 680/3/6 683/3/6
f 683/3/6 680/3/6 684/3/6
f 682/3/6 683/3/6 685/3/6
f 685/3/6 683/3/6 686/3/6
f 682/3/6 685/3/6 687/3/6
f 687/3/6 685/3/6 688/3/6
f 686/3/6 683/3/6 689/3/6
f 689/3/6 683/3/6 690/3/6
