# MagicaVoxel @ Ephtracy

# material
mtllib obj_sign5.mtl
usemtl palette

# normals
vn -1 0 0
vn 1 0 0
vn 0 0 1
vn 0 0 -1
vn 0 -1 0
vn 0 1 0

# texcoords
vt 0.841797 0.5
vt 0.958984 0.5
vt 0.966797 0.5

# verts
v -2.5 14 1
v -2.5 14 -0
v -2.5 17 1
v -2.5 17 -0
v -1.5 13 1
v -1.5 13 -0
v -1.5 14 1
v -1.5 14 -0
v -1.5 17 1
v -1.5 17 -0
v -1.5 18 1
v -1.5 18 -0
v -0.5 0 -0
v -0.5 0 -1
v -0.5 13 -0
v -0.5 14 -0
v -0.5 17 -0
v -0.5 18 -0
v -0.5 19 -0
v -0.5 19 -1
v 0.5 0 -0
v 0.5 0 -1
v 0.5 13 -0
v 0.5 14 -0
v 0.5 17 -0
v 0.5 18 -0
v 0.5 19 -0
v 0.5 19 -1
v 1.5 13 1
v 1.5 13 -0
v 1.5 14 1
v 1.5 14 -0
v 1.5 17 1
v 1.5 17 -0
v 1.5 18 1
v 1.5 18 -0
v 2.5 14 1
v 2.5 14 -0
v 2.5 17 1
v 2.5 17 -0
v -2.5 14 1
v -2.5 17 1
v -1.5 13 1
v -1.5 14 1
v -1.5 17 1
v -1.5 18 1
v 1.5 13 1
v 1.5 14 1
v 1.5 17 1
v 1.5 18 1
v 2.5 14 1
v 2.5 17 1
v -0.5 0 -0
v -0.5 13 -0
v -0.5 18 -0
v -0.5 19 -0
v 0.5 0 -0
v 0.5 13 -0
v 0.5 18 -0
v 0.5 19 -0
v -2.5 14 -0
v -2.5 17 -0
v -1.5 13 -0
v -1.5 14 -0
v -1.5 17 -0
v -1.5 18 -0
v -0.5 13 -0
v -0.5 14 -0
v -0.5 17 -0
v -0.5 18 -0
v 0.5 13 -0
v 0.5 14 -0
v 0.5 17 -0
v 0.5 18 -0
v 1.5 13 -0
v 1.5 14 -0
v 1.5 17 -0
v 1.5 18 -0
v 2.5 14 -0
v 2.5 17 -0
v -0.5 0 -1
v -0.5 19 -1
v 0.5 0 -1
v 0.5 19 -1
v -0.5 0 -0
v 0.5 0 -0
v -0.5 0 -1
v 0.5 0 -1
v -1.5 13 1
v 1.5 13 1
v -1.5 13 -0
v -0.5 13 -0
v 0.5 13 -0
v 1.5 13 -0
v -2.5 14 1
v -1.5 14 1
v 1.5 14 1
v 2.5 14 1
v -2.5 14 -0
v -1.5 14 -0
v 1.5 14 -0
v 2.5 14 -0
v -2.5 17 1
v -1.5 17 1
v 1.5 17 1
v 2.5 17 1
v -2.5 17 -0
v -1.5 17 -0
v 1.5 17 -0
v 2.5 17 -0
v -1.5 18 1
v 1.5 18 1
v -1.5 18 -0
v -0.5 18 -0
v 0.5 18 -0
v 1.5 18 -0
v -0.5 19 -0
v 0.5 19 -0
v -0.5 19 -1
v 0.5 19 -1

# faces
f 3/2/1 2/2/1 1/2/1
f 4/2/1 2/2/1 3/2/1
f 7/2/1 6/2/1 5/2/1
f 8/2/1 6/2/1 7/2/1
f 11/2/1 10/2/1 9/2/1
f 12/2/1 10/2/1 11/2/1
f 15/3/1 14/3/1 13/3/1
f 16/3/1 14/3/1 15/3/1
f 17/3/1 14/3/1 16/3/1
f 18/3/1 14/3/1 17/3/1
f 19/3/1 14/3/1 18/3/1
f 20/3/1 14/3/1 19/3/1
f 21/3/2 22/3/2 23/3/2
f 23/3/2 22/3/2 24/3/2
f 24/3/2 22/3/2 25/3/2
f 25/3/2 22/3/2 26/3/2
f 26/3/2 22/3/2 27/3/2
f 27/3/2 22/3/2 28/3/2
f 29/2/2 30/2/2 31/2/2
f 31/2/2 30/2/2 32/2/2
f 33/2/2 34/2/2 35/2/2
f 35/2/2 34/2/2 36/2/2
f 37/2/2 38/2/2 39/2/2
f 39/2/2 38/2/2 40/2/2
f 44/2/3 42/2/3 41/2/3
f 45/2/3 42/2/3 44/2/3
f 47/2/3 44/2/3 43/2/3
f 48/1/3 45/1/3 44/1/3
f 48/2/3 44/2/3 47/2/3
f 49/2/3 46/2/3 45/2/3
f 49/1/3 45/1/3 48/1/3
f 50/2/3 46/2/3 49/2/3
f 51/2/3 49/2/3 48/2/3
f 52/2/3 49/2/3 51/2/3
f 57/3/3 54/3/3 53/3/3
f 58/3/3 54/3/3 57/3/3
f 59/3/3 56/3/3 55/3/3
f 60/3/3 56/3/3 59/3/3
f 61/2/4 62/2/4 64/2/4
f 64/2/4 62/2/4 65/2/4
f 63/2/4 64/2/4 67/2/4
f 64/1/4 65/1/4 68/1/4
f 67/2/4 64/2/4 68/2/4
f 65/2/4 66/2/4 69/2/4
f 68/1/4 65/1/4 69/1/4
f 69/2/4 66/2/4 70/2/4
f 71/2/4 72/2/4 75/2/4
f 72/1/4 73/1/4 76/1/4
f 75/2/4 72/2/4 76/2/4
f 73/2/4 74/2/4 77/2/4
f 76/1/4 73/1/4 77/1/4
f 77/2/4 74/2/4 78/2/4
f 76/2/4 77/2/4 79/2/4
f 79/2/4 77/2/4 80/2/4
f 81/3/4 82/3/4 83/3/4
f 83/3/4 82/3/4 84/3/4
f 87/3/5 86/3/5 85/3/5
f 88/3/5 86/3/5 87/3/5
f 91/2/5 90/2/5 89/2/5
f 92/2/5 90/2/5 91/2/5
f 93/2/5 90/2/5 92/2/5
f 94/2/5 90/2/5 93/2/5
f 99/2/5 96/2/5 95/2/5
f 100/2/5 96/2/5 99/2/5
f 101/2/5 98/2/5 97/2/5
f 102/2/5 98/2/5 101/2/5
f 103/2/6 104/2/6 107/2/6
f 107/2/6 104/2/6 108/2/6
f 105/2/6 106/2/6 109/2/6
f 109/2/6 106/2/6 110/2/6
f 111/2/6 112/2/6 113/2/6
f 113/2/6 112/2/6 114/2/6
f 114/2/6 112/2/6 115/2/6
f 115/2/6 112/2/6 116/2/6
f 117/3/6 118/3/6 119/3/6
f 119/3/6 118/3/6 120/3/6
