# MagicaVoxel @ Ephtracy

# material
mtllib obj_table3a.mtl
usemtl palette

# normals
vn -1 0 0
vn 1 0 0
vn 0 0 1
vn 0 0 -1
vn 0 -1 0
vn 0 1 0

# texcoords
vt 0.986328 0.5
vt 0.990234 0.5

# verts
v -9 3 10
v -9 3 -10
v -9 4 10
v -9 4 -10
v -7 2 8
v -7 2 -8
v -7 3 8
v -7 3 -8
v -6 6 9
v -6 6 -10
v -6 7 9
v -6 7 -10
v -1 0 1
v -1 0 -1
v -1 2 1
v -1 2 -1
v -1 3 1
v -1 3 -1
v -1 6 1
v -1 6 -1
v 6 2 8
v 6 2 2
v 6 2 1
v 6 2 -1
v 6 2 -2
v 6 2 -8
v 6 3 10
v 6 3 8
v 6 3 2
v 6 3 1
v 6 3 -1
v 6 3 -2
v 6 3 -8
v 6 3 -10
v 6 4 10
v 6 4 -10
v -6 2 8
v -6 2 2
v -6 2 1
v -6 2 -1
v -6 2 -2
v -6 2 -8
v -6 3 10
v -6 3 8
v -6 3 2
v -6 3 1
v -6 3 -1
v -6 3 -2
v -6 3 -8
v -6 3 -10
v -6 4 10
v -6 4 -10
v 1 0 1
v 1 0 -1
v 1 2 1
v 1 2 -1
v 1 3 1
v 1 3 -1
v 1 6 1
v 1 6 -1
v 6 6 9
v 6 6 -10
v 6 7 9
v 6 7 -10
v 7 2 8
v 7 2 -8
v 7 3 8
v 7 3 -8
v 9 3 10
v 9 3 -10
v 9 4 10
v 9 4 -10
v -9 3 10
v -9 4 10
v -6 3 10
v -6 4 10
v 6 3 10
v 6 4 10
v 9 3 10
v 9 4 10
v -6 6 9
v -6 7 9
v 6 6 9
v 6 7 9
v -7 2 8
v -7 3 8
v -6 2 8
v -6 3 8
v 6 2 8
v 6 3 8
v 7 2 8
v 7 3 8
v -6 2 2
v -6 3 2
v 6 2 2
v 6 3 2
v -1 0 1
v -1 2 1
v -1 3 1
v -1 6 1
v 1 0 1
v 1 2 1
v 1 3 1
v 1 6 1
v -6 2 -1
v -6 3 -1
v -1 2 -1
v -1 3 -1
v 1 2 -1
v 1 3 -1
v 6 2 -1
v 6 3 -1
v -6 2 1
v -6 3 1
v -1 2 1
v -1 3 1
v 1 2 1
v 1 3 1
v 6 2 1
v 6 3 1
v -1 0 -1
v -1 2 -1
v -1 3 -1
v -1 6 -1
v 1 0 -1
v 1 2 -1
v 1 3 -1
v 1 6 -1
v -6 2 -2
v -6 3 -2
v 6 2 -2
v 6 3 -2
v -7 2 -8
v -7 3 -8
v -6 2 -8
v -6 3 -8
v 6 2 -8
v 6 3 -8
v 7 2 -8
v 7 3 -8
v -9 3 -10
v -9 4 -10
v -6 3 -10
v -6 4 -10
v -6 6 -10
v -6 7 -10
v 6 3 -10
v 6 4 -10
v 6 6 -10
v 6 7 -10
v 9 3 -10
v 9 4 -10
v -1 0 1
v 1 0 1
v -1 0 -1
v 1 0 -1
v -7 2 8
v -6 2 8
v 6 2 8
v 7 2 8
v -6 2 2
v 6 2 2
v -6 2 1
v -1 2 1
v 1 2 1
v 6 2 1
v -6 2 -1
v -1 2 -1
v 1 2 -1
v 6 2 -1
v -6 2 -2
v 6 2 -2
v -7 2 -8
v -6 2 -8
v 6 2 -8
v 7 2 -8
v -9 3 10
v -6 3 10
v 6 3 10
v 9 3 10
v -7 3 8
v -6 3 8
v 6 3 8
v 7 3 8
v -7 3 -8
v -6 3 -8
v 6 3 -8
v 7 3 -8
v -9 3 -10
v -6 3 -10
v 6 3 -10
v 9 3 -10
v -6 6 9
v 6 6 9
v -1 6 1
v 1 6 1
v -1 6 -1
v 1 6 -1
v -6 6 -10
v 6 6 -10
v -6 3 2
v 6 3 2
v -6 3 1
v -1 3 1
v 1 3 1
v 6 3 1
v -6 3 -1
v -1 3 -1
v 1 3 -1
v 6 3 -1
v -6 3 -2
v 6 3 -2
v -9 4 10
v -6 4 10
v 6 4 10
v 9 4 10
v -9 4 -10
v -6 4 -10
v 6 4 -10
v 9 4 -10
v -6 7 9
v 6 7 9
v -6 7 -10
v 6 7 -10

# faces
f 3/2/1 2/2/1 1/2/1
f 4/2/1 2/2/1 3/2/1
f 7/1/1 6/1/1 5/1/1
f 8/1/1 6/1/1 7/1/1
f 11/2/1 10/2/1 9/2/1
f 12/2/1 10/2/1 11/2/1
f 15/1/1 14/1/1 13/1/1
f 16/1/1 14/1/1 15/1/1
f 17/1/1 16/1/1 15/1/1
f 18/1/1 16/1/1 17/1/1
f 19/1/1 18/1/1 17/1/1
f 20/1/1 18/1/1 19/1/1
f 28/1/1 22/1/1 21/1/1
f 29/1/1 22/1/1 28/1/1
f 30/1/1 24/1/1 23/1/1
f 31/1/1 24/1/1 30/1/1
f 32/1/1 26/1/1 25/1/1
f 33/1/1 26/1/1 32/1/1
f 35/2/1 31/2/1 30/2/1
f 35/2/1 34/2/1 33/2/1
f 35/2/1 33/2/1 32/2/1
f 35/2/1 32/2/1 31/2/1
f 35/2/1 29/2/1 28/2/1
f 35/2/1 30/2/1 29/2/1
f 35/2/1 28/2/1 27/2/1
f 36/2/1 34/2/1 35/2/1
f 37/1/2 38/1/2 44/1/2
f 44/1/2 38/1/2 45/1/2
f 39/1/2 40/1/2 46/1/2
f 46/1/2 40/1/2 47/1/2
f 41/1/2 42/1/2 48/1/2
f 48/1/2 42/1/2 49/1/2
f 46/2/2 47/2/2 51/2/2
f 49/2/2 50/2/2 51/2/2
f 48/2/2 49/2/2 51/2/2
f 47/2/2 48/2/2 51/2/2
f 44/2/2 45/2/2 51/2/2
f 45/2/2 46/2/2 51/2/2
f 43/2/2 44/2/2 51/2/2
f 51/2/2 50/2/2 52/2/2
f 53/1/2 54/1/2 55/1/2
f 55/1/2 54/1/2 56/1/2
f 55/1/2 56/1/2 57/1/2
f 57/1/2 56/1/2 58/1/2
f 57/1/2 58/1/2 59/1/2
f 59/1/2 58/1/2 60/1/2
f 61/2/2 62/2/2 63/2/2
f 63/2/2 62/2/2 64/2/2
f 65/1/2 66/1/2 67/1/2
f 67/1/2 66/1/2 68/1/2
f 69/2/2 70/2/2 71/2/2
f 71/2/2 70/2/2 72/2/2
f 75/2/3 74/2/3 73/2/3
f 76/2/3 74/2/3 75/2/3
f 79/2/3 78/2/3 77/2/3
f 80/2/3 78/2/3 79/2/3
f 83/2/3 82/2/3 81/2/3
f 84/2/3 82/2/3 83/2/3
f 87/1/3 86/1/3 85/1/3
f 88/1/3 86/1/3 87/1/3
f 91/1/3 90/1/3 89/1/3
f 92/1/3 90/1/3 91/1/3
f 95/1/3 94/1/3 93/1/3
f 96/1/3 94/1/3 95/1/3
f 101/1/3 98/1/3 97/1/3
f 102/1/3 98/1/3 101/1/3
f 103/1/3 100/1/3 99/1/3
f 104/1/3 100/1/3 103/1/3
f 107/1/3 106/1/3 105/1/3
f 108/1/3 106/1/3 107/1/3
f 111/1/3 110/1/3 109/1/3
f 112/1/3 110/1/3 111/1/3
f 113/1/4 114/1/4 115/1/4
f 115/1/4 114/1/4 116/1/4
f 117/1/4 118/1/4 119/1/4
f 119/1/4 118/1/4 120/1/4
f 121/1/4 122/1/4 125/1/4
f 125/1/4 122/1/4 126/1/4
f 123/1/4 124/1/4 127/1/4
f 127/1/4 124/1/4 128/1/4
f 129/1/4 130/1/4 131/1/4
f 131/1/4 130/1/4 132/1/4
f 133/1/4 134/1/4 135/1/4
f 135/1/4 134/1/4 136/1/4
f 137/1/4 138/1/4 139/1/4
f 139/1/4 138/1/4 140/1/4
f 141/2/4 142/2/4 143/2/4
f 143/2/4 142/2/4 144/2/4
f 145/2/4 146/2/4 149/2/4
f 149/2/4 146/2/4 150/2/4
f 147/2/4 148/2/4 151/2/4
f 151/2/4 148/2/4 152/2/4
f 155/1/5 154/1/5 153/1/5
f 156/1/5 154/1/5 155/1/5
f 161/1/5 158/1/5 157/1/5
f 162/1/5 160/1/5 159/1/5
f 163/1/5 161/1/5 157/1/5
f 163/1/5 162/1/5 161/1/5
f 164/1/5 162/1/5 163/1/5
f 165/1/5 162/1/5 164/1/5
f 166/1/5 160/1/5 162/1/5
f 166/1/5 162/1/5 165/1/5
f 167/1/5 163/1/5 157/1/5
f 170/1/5 160/1/5 166/1/5
f 171/1/5 169/1/5 168/1/5
f 171/1/5 170/1/5 169/1/5
f 171/1/5 167/1/5 157/1/5
f 171/1/5 168/1/5 167/1/5
f 172/1/5 160/1/5 170/1/5
f 172/1/5 170/1/5 171/1/5
f 173/1/5 171/1/5 157/1/5
f 174/1/5 171/1/5 173/1/5
f 175/1/5 160/1/5 172/1/5
f 176/1/5 160/1/5 175/1/5
f 181/2/5 178/2/5 177/2/5
f 182/2/5 178/2/5 181/2/5
f 183/2/5 180/2/5 179/2/5
f 184/2/5 180/2/5 183/2/5
f 185/2/5 181/2/5 177/2/5
f 188/2/5 180/2/5 184/2/5
f 189/2/5 186/2/5 185/2/5
f 189/2/5 185/2/5 177/2/5
f 190/2/5 186/2/5 189/2/5
f 191/2/5 188/2/5 187/2/5
f 192/2/5 180/2/5 188/2/5
f 192/2/5 188/2/5 191/2/5
f 195/2/5 194/2/5 193/2/5
f 196/2/5 194/2/5 195/2/5
f 197/2/5 195/2/5 193/2/5
f 198/2/5 194/2/5 196/2/5
f 199/2/5 197/2/5 193/2/5
f 199/2/5 198/2/5 197/2/5
f 200/2/5 194/2/5 198/2/5
f 200/2/5 198/2/5 199/2/5
f 201/1/6 202/1/6 203/1/6
f 203/1/6 202/1/6 204/1/6
f 204/1/6 202/1/6 205/1/6
f 205/1/6 202/1/6 206/1/6
f 207/1/6 208/1/6 211/1/6
f 209/1/6 210/1/6 211/1/6
f 208/1/6 209/1/6 211/1/6
f 211/1/6 210/1/6 212/1/6
f 213/2/6 214/2/6 217/2/6
f 217/2/6 214/2/6 218/2/6
f 215/2/6 216/2/6 219/2/6
f 219/2/6 216/2/6 220/2/6
f 221/2/6 222/2/6 223/2/6
f 223/2/6 222/2/6 224/2/6
