# MagicaVoxel @ Ephtracy

# material
mtllib obj_playgrnd4.mtl
usemtl palette

# normals
vn -1 0 0
vn 1 0 0
vn 0 0 1
vn 0 0 -1
vn 0 -1 0
vn 0 1 0

# texcoords
vt 0.373047 0.5
vt 0.537109 0.5
vt 0.623047 0.5

# verts
v -7.5 13 0.5
v -7.5 13 -0.5
v -7.5 14 0.5
v -7.5 14 -0.5
v -6.5 0 1.5
v -6.5 0 -1.5
v -6.5 2 1.5
v -6.5 2 -1.5
v -6.5 13 0.5
v -6.5 13 -0.5
v -6.5 14 0.5
v -6.5 14 -0.5
v -6.5 15 1.5
v -6.5 15 -1.5
v 4.5 0 1.5
v 4.5 0 -1.5
v 4.5 2 1.5
v 4.5 2 -1.5
v 4.5 13 0.5
v 4.5 13 -0.5
v 4.5 14 0.5
v 4.5 14 -0.5
v 4.5 15 1.5
v 4.5 15 -1.5
v -4.5 0 1.5
v -4.5 0 -1.5
v -4.5 2 1.5
v -4.5 2 -1.5
v -4.5 13 0.5
v -4.5 13 -0.5
v -4.5 14 0.5
v -4.5 14 -0.5
v -4.5 15 1.5
v -4.5 15 -1.5
v 6.5 0 1.5
v 6.5 0 -1.5
v 6.5 2 1.5
v 6.5 2 -1.5
v 6.5 13 0.5
v 6.5 13 -0.5
v 6.5 14 0.5
v 6.5 14 -0.5
v 6.5 15 1.5
v 6.5 15 -1.5
v 7.5 13 0.5
v 7.5 13 -0.5
v 7.5 14 0.5
v 7.5 14 -0.5
v -6.5 0 1.5
v -6.5 2 1.5
v -6.5 15 1.5
v -4.5 0 1.5
v -4.5 2 1.5
v -4.5 15 1.5
v 4.5 0 1.5
v 4.5 2 1.5
v 4.5 15 1.5
v 6.5 0 1.5
v 6.5 2 1.5
v 6.5 15 1.5
v -7.5 13 0.5
v -7.5 14 0.5
v -6.5 13 0.5
v -6.5 14 0.5
v -4.5 13 0.5
v -4.5 14 0.5
v 4.5 13 0.5
v 4.5 14 0.5
v 6.5 13 0.5
v 6.5 14 0.5
v 7.5 13 0.5
v 7.5 14 0.5
v -7.5 13 -0.5
v -7.5 14 -0.5
v -6.5 13 -0.5
v -6.5 14 -0.5
v -4.5 13 -0.5
v -4.5 14 -0.5
v 4.5 13 -0.5
v 4.5 14 -0.5
v 6.5 13 -0.5
v 6.5 14 -0.5
v 7.5 13 -0.5
v 7.5 14 -0.5
v -6.5 0 -1.5
v -6.5 2 -1.5
v -6.5 15 -1.5
v -4.5 0 -1.5
v -4.5 2 -1.5
v -4.5 15 -1.5
v 4.5 0 -1.5
v 4.5 2 -1.5
v 4.5 15 -1.5
v 6.5 0 -1.5
v 6.5 2 -1.5
v 6.5 15 -1.5
v -6.5 0 1.5
v -4.5 0 1.5
v 4.5 0 1.5
v 6.5 0 1.5
v -6.5 0 -1.5
v -4.5 0 -1.5
v 4.5 0 -1.5
v 6.5 0 -1.5
v -7.5 13 0.5
v -6.5 13 0.5
v -4.5 13 0.5
v 4.5 13 0.5
v 6.5 13 0.5
v 7.5 13 0.5
v -7.5 13 -0.5
v -6.5 13 -0.5
v -4.5 13 -0.5
v 4.5 13 -0.5
v 6.5 13 -0.5
v 7.5 13 -0.5
v -7.5 14 0.5
v -6.5 14 0.5
v -4.5 14 0.5
v 4.5 14 0.5
v 6.5 14 0.5
v 7.5 14 0.5
v -7.5 14 -0.5
v -6.5 14 -0.5
v -4.5 14 -0.5
v 4.5 14 -0.5
v 6.5 14 -0.5
v 7.5 14 -0.5
v -6.5 15 1.5
v -4.5 15 1.5
v 4.5 15 1.5
v 6.5 15 1.5
v -6.5 15 -1.5
v -4.5 15 -1.5
v 4.5 15 -1.5
v 6.5 15 -1.5

# faces
f 3/3/1 2/3/1 1/3/1
f 4/3/1 2/3/1 3/3/1
f 7/2/1 6/2/1 5/2/1
f 8/2/1 6/2/1 7/2/1
f 9/1/1 8/1/1 7/1/1
f 10/1/1 8/1/1 9/1/1
f 11/1/1 9/1/1 7/1/1
f 12/1/1 8/1/1 10/1/1
f 13/1/1 11/1/1 7/1/1
f 13/1/1 12/1/1 11/1/1
f 14/1/1 8/1/1 12/1/1
f 14/1/1 12/1/1 13/1/1
f 17/2/1 16/2/1 15/2/1
f 18/2/1 16/2/1 17/2/1
f 19/1/1 18/1/1 17/1/1
f 20/1/1 18/1/1 19/1/1
f 21/1/1 19/1/1 17/1/1
f 22/1/1 18/1/1 20/1/1
f 23/1/1 21/1/1 17/1/1
f 23/1/1 22/1/1 21/1/1
f 24/1/1 18/1/1 22/1/1
f 24/1/1 22/1/1 23/1/1
f 25/2/2 26/2/2 27/2/2
f 27/2/2 26/2/2 28/2/2
f 27/1/2 28/1/2 29/1/2
f 29/1/2 28/1/2 30/1/2
f 27/1/2 29/1/2 31/1/2
f 30/1/2 28/1/2 32/1/2
f 27/1/2 31/1/2 33/1/2
f 31/1/2 32/1/2 33/1/2
f 32/1/2 28/1/2 34/1/2
f 33/1/2 32/1/2 34/1/2
f 35/2/2 36/2/2 37/2/2
f 37/2/2 36/2/2 38/2/2
f 37/1/2 38/1/2 39/1/2
f 39/1/2 38/1/2 40/1/2
f 37/1/2 39/1/2 41/1/2
f 40/1/2 38/1/2 42/1/2
f 37/1/2 41/1/2 43/1/2
f 41/1/2 42/1/2 43/1/2
f 42/1/2 38/1/2 44/1/2
f 43/1/2 42/1/2 44/1/2
f 45/3/2 46/3/2 47/3/2
f 47/3/2 46/3/2 48/3/2
f 52/2/3 50/2/3 49/2/3
f 53/1/3 51/1/3 50/1/3
f 53/2/3 50/2/3 52/2/3
f 54/1/3 51/1/3 53/1/3
f 58/2/3 56/2/3 55/2/3
f 59/1/3 57/1/3 56/1/3
f 59/2/3 56/2/3 58/2/3
f 60/1/3 57/1/3 59/1/3
f 63/3/3 62/3/3 61/3/3
f 64/3/3 62/3/3 63/3/3
f 67/3/3 66/3/3 65/3/3
f 68/3/3 66/3/3 67/3/3
f 71/3/3 70/3/3 69/3/3
f 72/3/3 70/3/3 71/3/3
f 73/3/4 74/3/4 75/3/4
f 75/3/4 74/3/4 76/3/4
f 77/3/4 78/3/4 79/3/4
f 79/3/4 78/3/4 80/3/4
f 81/3/4 82/3/4 83/3/4
f 83/3/4 82/3/4 84/3/4
f 85/2/4 86/2/4 88/2/4
f 86/1/4 87/1/4 89/1/4
f 88/2/4 86/2/4 89/2/4
f 89/1/4 87/1/4 90/1/4
f 91/2/4 92/2/4 94/2/4
f 92/1/4 93/1/4 95/1/4
f 94/2/4 92/2/4 95/2/4
f 95/1/4 93/1/4 96/1/4
f 101/2/5 98/2/5 97/2/5
f 102/2/5 98/2/5 101/2/5
f 103/2/5 100/2/5 99/2/5
f 104/2/5 100/2/5 103/2/5
f 111/3/5 106/3/5 105/3/5
f 112/3/5 106/3/5 111/3/5
f 113/3/5 108/3/5 107/3/5
f 114/3/5 108/3/5 113/3/5
f 115/3/5 110/3/5 109/3/5
f 116/3/5 110/3/5 115/3/5
f 117/3/6 118/3/6 123/3/6
f 123/3/6 118/3/6 124/3/6
f 119/3/6 120/3/6 125/3/6
f 125/3/6 120/3/6 126/3/6
f 121/3/6 122/3/6 127/3/6
f 127/3/6 122/3/6 128/3/6
f 129/1/6 130/1/6 133/1/6
f 133/1/6 130/1/6 134/1/6
f 131/1/6 132/1/6 135/1/6
f 135/1/6 132/1/6 136/1/6
