# MagicaVoxel @ Ephtracy

# material
mtllib obj_grave2.mtl
usemtl palette

# normals
vn -1 0 0
vn 1 0 0
vn 0 0 1
vn 0 0 -1
vn 0 -1 0
vn 0 1 0

# texcoords
vt 0.978516 0.5
vt 0.986328 0.5

# verts
v -7 0 -1.5
v -7 0 -6.5
v -7 2 -1.5
v -7 2 -6.5
v -6 2 -2.5
v -6 2 -5.5
v -6 4 -2.5
v -6 4 -3.5
v -6 4 -4.5
v -6 4 -5.5
v -6 8 -2.5
v -6 8 -3.5
v -6 9 -2.5
v -6 9 -3.5
v -6 10 -3.5
v -6 10 -4.5
v -5 6 -2.5
v -5 6 -3.5
v -5 8 -2.5
v -5 8 -3.5
v -5 9 -2.5
v -5 9 -3.5
v -5 10 -2.5
v -5 10 -3.5
v -2 4 -2.5
v -2 4 -3.5
v -2 9 -2.5
v -2 9 -3.5
v -4 6 -2.5
v -4 6 -3.5
v -4 8 -2.5
v -4 8 -3.5
v -4 9 -2.5
v -4 9 -3.5
v -4 10 -2.5
v -4 10 -3.5
v -3 8 -2.5
v -3 8 -3.5
v -3 9 -2.5
v -3 9 -3.5
v -1 4 -2.5
v -1 4 -3.5
v -1 9 -2.5
v -1 9 -3.5
v 0 2 -2.5
v 0 2 -5.5
v 0 4 -2.5
v 0 4 -3.5
v 0 4 -4.5
v 0 4 -5.5
v 0 10 -3.5
v 0 10 -4.5
v 1 0 -1.5
v 1 0 -6.5
v 1 2 -1.5
v 1 2 -6.5
v -7 0 -1.5
v -7 2 -1.5
v 1 0 -1.5
v 1 2 -1.5
v -6 2 -2.5
v -6 4 -2.5
v -6 8 -2.5
v -6 9 -2.5
v -5 6 -2.5
v -5 8 -2.5
v -5 9 -2.5
v -5 10 -2.5
v -4 6 -2.5
v -4 8 -2.5
v -4 9 -2.5
v -4 10 -2.5
v -3 8 -2.5
v -3 9 -2.5
v -2 4 -2.5
v -2 9 -2.5
v -1 4 -2.5
v -1 9 -2.5
v 0 2 -2.5
v 0 4 -2.5
v -6 4 -3.5
v -6 8 -3.5
v -6 9 -3.5
v -6 10 -3.5
v -5 6 -3.5
v -5 8 -3.5
v -5 9 -3.5
v -5 10 -3.5
v -4 6 -3.5
v -4 8 -3.5
v -4 9 -3.5
v -4 10 -3.5
v -3 8 -3.5
v -3 9 -3.5
v -2 4 -3.5
v -2 9 -3.5
v -1 4 -3.5
v -1 9 -3.5
v 0 4 -3.5
v 0 10 -3.5
v -6 4 -4.5
v -6 10 -4.5
v 0 4 -4.5
v 0 10 -4.5
v -6 2 -5.5
v -6 4 -5.5
v 0 2 -5.5
v 0 4 -5.5
v -7 0 -6.5
v -7 2 -6.5
v 1 0 -6.5
v 1 2 -6.5
v -7 0 -1.5
v 1 0 -1.5
v -7 0 -6.5
v 1 0 -6.5
v -5 6 -2.5
v -4 6 -2.5
v -5 6 -3.5
v -4 6 -3.5
v -6 8 -2.5
v -5 8 -2.5
v -4 8 -2.5
v -3 8 -2.5
v -6 8 -3.5
v -5 8 -3.5
v -4 8 -3.5
v -3 8 -3.5
v -7 2 -1.5
v 1 2 -1.5
v -6 2 -2.5
v 0 2 -2.5
v -6 2 -5.5
v 0 2 -5.5
v -7 2 -6.5
v 1 2 -6.5
v -6 4 -2.5
v -2 4 -2.5
v -1 4 -2.5
v 0 4 -2.5
v -6 4 -3.5
v -2 4 -3.5
v -1 4 -3.5
v 0 4 -3.5
v -6 4 -4.5
v 0 4 -4.5
v -6 4 -5.5
v 0 4 -5.5
v -6 9 -2.5
v -5 9 -2.5
v -4 9 -2.5
v -3 9 -2.5
v -2 9 -2.5
v -1 9 -2.5
v -6 9 -3.5
v -5 9 -3.5
v -4 9 -3.5
v -3 9 -3.5
v -2 9 -3.5
v -1 9 -3.5
v -5 10 -2.5
v -4 10 -2.5
v -6 10 -3.5
v -5 10 -3.5
v -4 10 -3.5
v 0 10 -3.5
v -6 10 -4.5
v 0 10 -4.5

# faces
f 3/1/1 2/1/1 1/1/1
f 4/1/1 2/1/1 3/1/1
f 7/2/1 6/2/1 5/2/1
f 8/2/1 6/2/1 7/2/1
f 9/2/1 6/2/1 8/2/1
f 10/2/1 6/2/1 9/2/1
f 12/1/1 9/1/1 8/1/1
f 13/2/1 12/2/1 11/2/1
f 14/1/1 9/1/1 12/1/1
f 14/2/1 12/2/1 13/2/1
f 15/1/1 9/1/1 14/1/1
f 16/1/1 9/1/1 15/1/1
f 19/2/1 18/2/1 17/2/1
f 20/2/1 18/2/1 19/2/1
f 23/2/1 22/2/1 21/2/1
f 24/2/1 22/2/1 23/2/1
f 27/2/1 26/2/1 25/2/1
f 28/2/1 26/2/1 27/2/1
f 29/2/2 30/2/2 31/2/2
f 31/2/2 30/2/2 32/2/2
f 33/2/2 34/2/2 35/2/2
f 35/2/2 34/2/2 36/2/2
f 37/2/2 38/2/2 39/2/2
f 39/2/2 38/2/2 40/2/2
f 41/2/2 42/2/2 43/2/2
f 43/2/2 42/2/2 44/2/2
f 45/2/2 46/2/2 47/2/2
f 47/2/2 46/2/2 48/2/2
f 48/2/2 46/2/2 49/2/2
f 49/2/2 46/2/2 50/2/2
f 48/1/2 49/1/2 51/1/2
f 51/1/2 49/1/2 52/1/2
f 53/1/2 54/1/2 55/1/2
f 55/1/2 54/1/2 56/1/2
f 59/1/3 58/1/3 57/1/3
f 60/1/3 58/1/3 59/1/3
f 66/2/3 64/2/3 63/2/3
f 67/2/3 64/2/3 66/2/3
f 69/2/3 66/2/3 65/2/3
f 69/2/3 68/2/3 67/2/3
f 69/2/3 67/2/3 66/2/3
f 70/2/3 68/2/3 69/2/3
f 71/2/3 68/2/3 70/2/3
f 72/2/3 68/2/3 71/2/3
f 73/2/3 71/2/3 70/2/3
f 74/2/3 71/2/3 73/2/3
f 75/2/3 62/2/3 61/2/3
f 77/2/3 75/2/3 61/2/3
f 77/2/3 76/2/3 75/2/3
f 78/2/3 76/2/3 77/2/3
f 79/2/3 77/2/3 61/2/3
f 80/2/3 77/2/3 79/2/3
f 85/1/3 82/1/3 81/1/3
f 86/1/3 82/1/3 85/1/3
f 87/1/3 84/1/3 83/1/3
f 88/1/3 84/1/3 87/1/3
f 89/1/3 85/1/3 81/1/3
f 93/1/3 90/1/3 89/1/3
f 94/1/3 92/1/3 91/1/3
f 95/1/3 89/1/3 81/1/3
f 95/1/3 94/1/3 93/1/3
f 95/1/3 93/1/3 89/1/3
f 96/1/3 92/1/3 94/1/3
f 96/1/3 94/1/3 95/1/3
f 98/1/3 92/1/3 96/1/3
f 99/1/3 98/1/3 97/1/3
f 100/1/3 92/1/3 98/1/3
f 100/1/3 98/1/3 99/1/3
f 101/1/4 102/1/4 103/1/4
f 103/1/4 102/1/4 104/1/4
f 105/2/4 106/2/4 107/2/4
f 107/2/4 106/2/4 108/2/4
f 109/1/4 110/1/4 111/1/4
f 111/1/4 110/1/4 112/1/4
f 115/1/5 114/1/5 113/1/5
f 116/1/5 114/1/5 115/1/5
f 119/2/5 118/2/5 117/2/5
f 120/2/5 118/2/5 119/2/5
f 125/2/5 122/2/5 121/2/5
f 126/2/5 122/2/5 125/2/5
f 127/2/5 124/2/5 123/2/5
f 128/2/5 124/2/5 127/2/5
f 129/1/6 130/1/6 131/1/6
f 131/1/6 130/1/6 132/1/6
f 129/1/6 131/1/6 133/1/6
f 132/1/6 130/1/6 134/1/6
f 129/1/6 133/1/6 135/1/6
f 133/1/6 134/1/6 135/1/6
f 134/1/6 130/1/6 136/1/6
f 135/1/6 134/1/6 136/1/6
f 137/2/6 138/2/6 141/2/6
f 141/2/6 138/2/6 142/2/6
f 139/2/6 140/2/6 143/2/6
f 143/2/6 140/2/6 144/2/6
f 145/2/6 146/2/6 147/2/6
f 147/2/6 146/2/6 148/2/6
f 149/2/6 150/2/6 155/2/6
f 155/2/6 150/2/6 156/2/6
f 151/2/6 152/2/6 157/2/6
f 157/2/6 152/2/6 158/2/6
f 153/2/6 154/2/6 159/2/6
f 159/2/6 154/2/6 160/2/6
f 161/2/6 162/2/6 164/2/6
f 164/2/6 162/2/6 165/2/6
f 163/1/6 164/1/6 167/1/6
f 165/1/6 166/1/6 167/1/6
f 164/1/6 165/1/6 167/1/6
f 167/1/6 166/1/6 168/1/6
