# MagicaVoxel @ Ephtracy

# material
mtllib obj_statue2.mtl
usemtl palette

# normals
vn -1 0 0
vn 1 0 0
vn 0 0 1
vn 0 0 -1
vn 0 -1 0
vn 0 1 0

# texcoords
vt 0.962891 0.5
vt 0.970703 0.5
vt 0.974609 0.5
vt 0.978516 0.5

# verts
v -8 0 7
v -8 0 -7
v -8 5 7
v -8 5 -7
v -7 5 5
v -7 5 -5
v -7 6 5
v -7 6 -5
v -6 5 6
v -6 5 5
v -6 5 -5
v -6 5 -6
v -6 6 6
v -6 6 5
v -6 6 -5
v -6 6 -6
v -4 8 1
v -4 8 -0
v -4 9 1
v -4 9 -0
v -4 12 1
v -4 12 -0
v -4 13 1
v -4 13 -0
v -4 14 2
v -4 14 1
v -4 14 -0
v -4 14 -1
v -4 15 3
v -4 15 2
v -4 15 -1
v -4 15 -2
v -4 16 3
v -4 16 -2
v -3 7 2
v -3 7 -1
v -3 8 3
v -3 8 2
v -3 8 1
v -3 8 -0
v -3 8 -1
v -3 8 -2
v -3 9 3
v -3 9 1
v -3 9 -0
v -3 9 -2
v -3 12 3
v -3 12 2
v -3 12 1
v -3 12 -0
v -3 12 -1
v -3 12 -2
v -3 13 1
v -3 13 -0
v -3 13 -1
v -3 13 -2
v -3 14 2
v -3 14 1
v -3 14 -0
v -3 14 -1
v -3 15 -1
v -3 15 -2
v -3 15 -3
v -3 16 2
v -3 16 -1
v -3 16 -2
v -3 16 -3
v -3 19 2
v -3 19 -1
v -2 6 1
v -2 6 -0
v -2 7 1
v -2 7 -0
v -2 12 -1
v -2 12 -2
v -2 13 -1
v -2 13 -2
v -2 13 -3
v -2 15 -2
v -2 15 -3
v -2 16 -1
v -2 16 -2
v -2 19 -1
v -2 19 -2
v 1 6 1
v 1 6 -0
v 1 7 2
v 1 7 1
v 1 7 -0
v 1 7 -1
v 1 8 2
v 1 8 1
v 1 8 -0
v 1 8 -1
v -1 6 1
v -1 6 -0
v -1 7 2
v -1 7 1
v -1 7 -0
v -1 7 -1
v -1 8 2
v -1 8 -1
v 2 6 1
v 2 6 -0
v 2 7 1
v 2 7 -0
v 2 12 -1
v 2 12 -2
v 2 13 -1
v 2 13 -2
v 2 13 -3
v 2 15 -2
v 2 15 -3
v 2 16 -1
v 2 16 -2
v 2 19 -1
v 2 19 -2
v 3 7 2
v 3 7 -1
v 3 8 3
v 3 8 2
v 3 8 1
v 3 8 -0
v 3 8 -1
v 3 8 -2
v 3 9 3
v 3 9 1
v 3 9 -0
v 3 9 -2
v 3 12 3
v 3 12 2
v 3 12 1
v 3 12 -0
v 3 12 -1
v 3 12 -2
v 3 13 1
v 3 13 -0
v 3 13 -1
v 3 13 -2
v 3 14 2
v 3 14 1
v 3 14 -0
v 3 14 -1
v 3 15 -1
v 3 15 -2
v 3 15 -3
v 3 16 2
v 3 16 -1
v 3 16 -2
v 3 16 -3
v 3 19 2
v 3 19 -1
v 4 8 1
v 4 8 -0
v 4 9 1
v 4 9 -0
v 4 12 1
v 4 12 -0
v 4 13 1
v 4 13 -0
v 4 14 2
v 4 14 1
v 4 14 -0
v 4 14 -1
v 4 15 3
v 4 15 2
v 4 15 -1
v 4 15 -2
v 4 16 3
v 4 16 -2
v 6 5 6
v 6 5 5
v 6 5 -5
v 6 5 -6
v 6 6 6
v 6 6 5
v 6 6 -5
v 6 6 -6
v 7 5 5
v 7 5 -5
v 7 6 5
v 7 6 -5
v 8 0 7
v 8 0 -7
v 8 5 7
v 8 5 -7
v -8 0 7
v -8 5 7
v -4 1 7
v -4 4 7
v 4 1 7
v 4 4 7
v 8 0 7
v 8 5 7
v -6 5 6
v -6 6 6
v 6 5 6
v 6 6 6
v -7 5 5
v -7 6 5
v -6 5 5
v -6 6 5
v 6 5 5
v 6 6 5
v 7 5 5
v 7 6 5
v -4 15 3
v -4 16 3
v -3 8 3
v -3 9 3
v -3 12 3
v -2 11 3
v -2 12 3
v -1 10 3
v -1 11 3
v 1 10 3
v 1 11 3
v 2 11 3
v 2 12 3
v 3 8 3
v 3 9 3
v 3 12 3
v 4 15 3
v 4 16 3
v -4 14 2
v -4 15 2
v -3 7 2
v -3 8 2
v -3 12 2
v -3 14 2
v -3 15 2
v -3 16 2
v -3 19 2
v -2 12 2
v -2 13 2
v -2 14 2
v -1 7 2
v -1 8 2
v -1 13 2
v -1 14 2
v 1 7 2
v 1 8 2
v 1 13 2
v 1 14 2
v 2 12 2
v 2 13 2
v 2 14 2
v 3 7 2
v 3 8 2
v 3 12 2
v 3 14 2
v 3 15 2
v 3 16 2
v 3 19 2
v 4 14 2
v 4 15 2
v -4 8 1
v -4 9 1
v -4 12 1
v -4 13 1
v -4 14 1
v -3 8 1
v -3 9 1
v -3 12 1
v -3 13 1
v -3 14 1
v -2 6 1
v -2 7 1
v -1 6 1
v -1 7 1
v 1 6 1
v 1 7 1
v 2 6 1
v 2 7 1
v 3 8 1
v 3 9 1
v 3 12 1
v 3 13 1
v 3 14 1
v 4 8 1
v 4 9 1
v 4 12 1
v 4 13 1
v 4 14 1
v -4 8 -0
v -4 9 -0
v -4 12 -0
v -4 13 -0
v -4 14 -0
v -3 8 -0
v -3 9 -0
v -3 12 -0
v -3 13 -0
v -3 14 -0
v -2 6 -0
v -2 7 -0
v -1 6 -0
v -1 7 -0
v 1 6 -0
v 1 7 -0
v 2 6 -0
v 2 7 -0
v 3 8 -0
v 3 9 -0
v 3 12 -0
v 3 13 -0
v 3 14 -0
v 4 8 -0
v 4 9 -0
v 4 12 -0
v 4 13 -0
v 4 14 -0
v -4 14 -1
v -4 15 -1
v -3 7 -1
v -3 8 -1
v -3 12 -1
v -3 13 -1
v -3 14 -1
v -3 15 -1
v -3 16 -1
v -3 19 -1
v -2 12 -1
v -2 13 -1
v -2 16 -1
v -2 19 -1
v -1 7 -1
v -1 8 -1
v 1 7 -1
v 1 8 -1
v 2 12 -1
v 2 13 -1
v 2 16 -1
v 2 19 -1
v 3 7 -1
v 3 8 -1
v 3 12 -1
v 3 13 -1
v 3 14 -1
v 3 15 -1
v 3 16 -1
v 3 19 -1
v 4 14 -1
v 4 15 -1
v -4 15 -2
v -4 16 -2
v -3 8 -2
v -3 9 -2
v -3 12 -2
v -3 13 -2
v -3 15 -2
v -3 16 -2
v -2 12 -2
v -2 13 -2
v -2 15 -2
v -2 16 -2
v -2 19 -2
v 2 12 -2
v 2 13 -2
v 2 15 -2
v 2 16 -2
v 2 19 -2
v 3 8 -2
v 3 9 -2
v 3 12 -2
v 3 13 -2
v 3 15 -2
v 3 16 -2
v 4 15 -2
v 4 16 -2
v -3 15 -3
v -3 16 -3
v -2 13 -3
v -2 15 -3
v 2 13 -3
v 2 15 -3
v 3 15 -3
v 3 16 -3
v -7 5 -5
v -7 6 -5
v -6 5 -5
v -6 6 -5
v 6 5 -5
v 6 6 -5
v 7 5 -5
v 7 6 -5
v -6 5 -6
v -6 6 -6
v 6 5 -6
v 6 6 -6
v -8 0 -7
v -8 5 -7
v 8 0 -7
v 8 5 -7
v -8 0 7
v 8 0 7
v -8 0 -7
v 8 0 -7
v -3 7 2
v -1 7 2
v 1 7 2
v 3 7 2
v -2 7 1
v -1 7 1
v 1 7 1
v 2 7 1
v -2 7 -0
v -1 7 -0
v 1 7 -0
v 2 7 -0
v -3 7 -1
v -1 7 -1
v 1 7 -1
v 3 7 -1
v -3 8 3
v 3 8 3
v -3 8 2
v -1 8 2
v 1 8 2
v 3 8 2
v -4 8 1
v -3 8 1
v 1 8 1
v 3 8 1
v 4 8 1
v -4 8 -0
v -3 8 -0
v 1 8 -0
v 3 8 -0
v 4 8 -0
v -3 8 -1
v -1 8 -1
v 1 8 -1
v 3 8 -1
v -3 8 -2
v 3 8 -2
v -4 13 1
v -3 13 1
v 3 13 1
v 4 13 1
v -4 13 -0
v -3 13 -0
v 3 13 -0
v 4 13 -0
v -3 13 -1
v -2 13 -1
v 2 13 -1
v 3 13 -1
v -3 13 -2
v -2 13 -2
v 2 13 -2
v 3 13 -2
v -2 13 -3
v 2 13 -3
v -4 14 2
v -3 14 2
v 3 14 2
v 4 14 2
v -4 14 1
v -3 14 1
v 3 14 1
v 4 14 1
v -4 14 -0
v -3 14 -0
v 3 14 -0
v 4 14 -0
v -4 14 -1
v -3 14 -1
v 3 14 -1
v 4 14 -1
v -4 15 3
v 4 15 3
v -4 15 2
v -3 15 2
v 3 15 2
v 4 15 2
v -4 15 -1
v -3 15 -1
v 3 15 -1
v 4 15 -1
v -4 15 -2
v -3 15 -2
v -2 15 -2
v 2 15 -2
v 3 15 -2
v 4 15 -2
v -3 15 -3
v -2 15 -3
v 2 15 -3
v 3 15 -3
v -8 5 7
v 8 5 7
v -6 5 6
v 6 5 6
v -7 5 5
v -6 5 5
v 6 5 5
v 7 5 5
v -7 5 -5
v -6 5 -5
v 6 5 -5
v 7 5 -5
v -6 5 -6
v 6 5 -6
v -8 5 -7
v 8 5 -7
v -6 6 6
v 6 6 6
v -7 6 5
v -6 6 5
v 6 6 5
v 7 6 5
v -2 6 1
v -1 6 1
v 1 6 1
v 2 6 1
v -2 6 -0
v -1 6 -0
v 1 6 -0
v 2 6 -0
v -7 6 -5
v -6 6 -5
v 6 6 -5
v 7 6 -5
v -6 6 -6
v 6 6 -6
v -3 12 3
v -2 12 3
v 2 12 3
v 3 12 3
v -3 12 2
v -2 12 2
v 2 12 2
v 3 12 2
v -4 12 1
v -3 12 1
v 3 12 1
v 4 12 1
v -4 12 -0
v -3 12 -0
v 3 12 -0
v 4 12 -0
v -3 12 -1
v -2 12 -1
v 2 12 -1
v 3 12 -1
v -3 12 -2
v -2 12 -2
v 2 12 -2
v 3 12 -2
v -4 16 3
v 4 16 3
v -3 16 2
v 3 16 2
v -3 16 -1
v -2 16 -1
v 2 16 -1
v 3 16 -1
v -4 16 -2
v -3 16 -2
v -2 16 -2
v 2 16 -2
v 3 16 -2
v 4 16 -2
v -3 16 -3
v 3 16 -3
v -3 19 2
v 3 19 2
v -3 19 -1
v -2 19 -1
v 2 19 -1
v 3 19 -1
v -2 19 -2
v 2 19 -2

# faces
f 3/3/1 2/3/1 1/3/1
f 4/3/1 2/3/1 3/3/1
f 7/3/1 6/3/1 5/3/1
f 8/3/1 6/3/1 7/3/1
f 13/3/1 10/3/1 9/3/1
f 14/3/1 10/3/1 13/3/1
f 15/3/1 12/3/1 11/3/1
f 16/3/1 12/3/1 15/3/1
f 19/2/1 18/2/1 17/2/1
f 20/2/1 18/2/1 19/2/1
f 21/4/1 20/4/1 19/4/1
f 22/4/1 20/4/1 21/4/1
f 26/2/1 24/2/1 23/2/1
f 27/2/1 24/2/1 26/2/1
f 30/3/1 27/3/1 26/3/1
f 30/3/1 28/3/1 27/3/1
f 30/3/1 26/3/1 25/3/1
f 31/3/1 28/3/1 30/3/1
f 33/4/1 30/4/1 29/4/1
f 33/4/1 32/4/1 31/4/1
f 33/4/1 31/4/1 30/4/1
f 34/4/1 32/4/1 33/4/1
f 38/4/1 36/4/1 35/4/1
f 39/4/1 36/4/1 38/4/1
f 40/4/1 36/4/1 39/4/1
f 41/4/1 36/4/1 40/4/1
f 43/4/1 38/4/1 37/4/1
f 43/4/1 39/4/1 38/4/1
f 44/4/1 39/4/1 43/4/1
f 45/4/1 42/4/1 41/4/1
f 45/4/1 41/4/1 40/4/1
f 46/4/1 42/4/1 45/4/1
f 47/3/1 44/3/1 43/3/1
f 48/3/1 44/3/1 47/3/1
f 49/3/1 44/3/1 48/3/1
f 50/3/1 46/3/1 45/3/1
f 51/3/1 46/3/1 50/3/1
f 52/3/1 46/3/1 51/3/1
f 53/2/1 49/2/1 48/2/1
f 53/2/1 51/2/1 50/2/1
f 53/2/1 50/2/1 49/2/1
f 54/2/1 51/2/1 53/2/1
f 55/2/1 51/2/1 54/2/1
f 57/2/1 53/2/1 48/2/1
f 58/2/1 53/2/1 57/2/1
f 59/2/1 55/2/1 54/2/1
f 60/3/1 56/3/1 55/3/1
f 60/2/1 55/2/1 59/2/1
f 61/3/1 56/3/1 60/3/1
f 62/3/1 56/3/1 61/3/1
f 66/4/1 63/4/1 62/4/1
f 67/4/1 63/4/1 66/4/1
f 68/4/1 65/4/1 64/4/1
f 69/4/1 65/4/1 68/4/1
f 72/4/1 71/4/1 70/4/1
f 73/4/1 71/4/1 72/4/1
f 76/2/1 75/2/1 74/2/1
f 77/2/1 75/2/1 76/2/1
f 79/3/1 78/3/1 77/3/1
f 80/3/1 78/3/1 79/3/1
f 83/4/1 82/4/1 81/4/1
f 84/4/1 82/4/1 83/4/1
f 88/4/1 86/4/1 85/4/1
f 89/4/1 86/4/1 88/4/1
f 91/4/1 88/4/1 87/4/1
f 92/1/1 89/1/1 88/1/1
f 92/4/1 88/4/1 91/4/1
f 93/4/1 90/4/1 89/4/1
f 93/1/1 89/1/1 92/1/1
f 94/4/1 90/4/1 93/4/1
f 95/4/2 96/4/2 98/4/2
f 98/4/2 96/4/2 99/4/2
f 97/4/2 98/4/2 101/4/2
f 99/4/2 100/4/2 101/4/2
f 98/4/2 99/4/2 101/4/2
f 101/4/2 100/4/2 102/4/2
f 103/4/2 104/4/2 105/4/2
f 105/4/2 104/4/2 106/4/2
f 107/2/2 108/2/2 109/2/2
f 109/2/2 108/2/2 110/2/2
f 110/3/2 111/3/2 112/3/2
f 112/3/2 111/3/2 113/3/2
f 114/4/2 115/4/2 116/4/2
f 116/4/2 115/4/2 117/4/2
f 118/4/2 119/4/2 121/4/2
f 121/4/2 119/4/2 122/4/2
f 122/4/2 119/4/2 123/4/2
f 123/4/2 119/4/2 124/4/2
f 120/4/2 121/4/2 126/4/2
f 121/4/2 122/4/2 126/4/2
f 126/4/2 122/4/2 127/4/2
f 124/4/2 125/4/2 128/4/2
f 123/4/2 124/4/2 128/4/2
f 128/4/2 125/4/2 129/4/2
f 126/3/2 127/3/2 130/3/2
f 130/3/2 127/3/2 131/3/2
f 131/3/2 127/3/2 132/3/2
f 128/3/2 129/3/2 133/3/2
f 133/3/2 129/3/2 134/3/2
f 134/3/2 129/3/2 135/3/2
f 131/2/2 132/2/2 136/2/2
f 133/2/2 134/2/2 136/2/2
f 132/2/2 133/2/2 136/2/2
f 136/2/2 134/2/2 137/2/2
f 137/2/2 134/2/2 138/2/2
f 131/2/2 136/2/2 140/2/2
f 140/2/2 136/2/2 141/2/2
f 137/2/2 138/2/2 142/2/2
f 138/3/2 139/3/2 143/3/2
f 142/2/2 138/2/2 143/2/2
f 143/3/2 139/3/2 144/3/2
f 144/3/2 139/3/2 145/3/2
f 145/4/2 146/4/2 149/4/2
f 149/4/2 146/4/2 150/4/2
f 147/4/2 148/4/2 151/4/2
f 151/4/2 148/4/2 152/4/2
f 153/2/2 154/2/2 155/2/2
f 155/2/2 154/2/2 156/2/2
f 155/4/2 156/4/2 157/4/2
f 157/4/2 156/4/2 158/4/2
f 159/2/2 160/2/2 162/2/2
f 162/2/2 160/2/2 163/2/2
f 162/3/2 163/3/2 166/3/2
f 163/3/2 164/3/2 166/3/2
f 161/3/2 162/3/2 166/3/2
f 166/3/2 164/3/2 167/3/2
f 165/4/2 166/4/2 169/4/2
f 167/4/2 168/4/2 169/4/2
f 166/4/2 167/4/2 169/4/2
f 169/4/2 168/4/2 170/4/2
f 171/3/2 172/3/2 175/3/2
f 175/3/2 172/3/2 176/3/2
f 173/3/2 174/3/2 177/3/2
f 177/3/2 174/3/2 178/3/2
f 179/3/2 180/3/2 181/3/2
f 181/3/2 180/3/2 182/3/2
f 183/3/2 184/3/2 185/3/2
f 185/3/2 184/3/2 186/3/2
f 189/3/3 188/3/3 187/3/3
f 190/3/3 188/3/3 189/3/3
f 191/3/3 189/3/3 187/3/3
f 191/4/3 190/4/3 189/4/3
f 192/3/3 188/3/3 190/3/3
f 192/4/3 190/4/3 191/4/3
f 193/3/3 191/3/3 187/3/3
f 193/3/3 192/3/3 191/3/3
f 194/3/3 188/3/3 192/3/3
f 194/3/3 192/3/3 193/3/3
f 197/3/3 196/3/3 195/3/3
f 198/3/3 196/3/3 197/3/3
f 201/3/3 200/3/3 199/3/3
f 202/3/3 200/3/3 201/3/3
f 205/3/3 204/3/3 203/3/3
f 206/3/3 204/3/3 205/3/3
f 212/3/3 211/3/3 210/3/3
f 213/3/3 211/3/3 212/3/3
f 214/3/3 212/3/3 210/3/3
f 215/4/3 213/4/3 212/4/3
f 215/3/3 212/3/3 214/3/3
f 216/3/3 214/3/3 210/3/3
f 216/4/3 215/4/3 214/4/3
f 217/4/3 213/4/3 215/4/3
f 217/4/3 215/4/3 216/4/3
f 218/3/3 217/3/3 216/3/3
f 218/4/3 213/4/3 217/4/3
f 219/4/3 213/4/3 218/4/3
f 220/4/3 210/4/3 209/4/3
f 221/3/3 216/3/3 210/3/3
f 221/4/3 210/4/3 220/4/3
f 221/3/3 218/3/3 216/3/3
f 221/3/3 219/3/3 218/3/3
f 222/3/3 219/3/3 221/3/3
f 223/4/3 208/4/3 207/4/3
f 224/4/3 208/4/3 223/4/3
f 230/3/3 226/3/3 225/3/3
f 231/3/3 226/3/3 230/3/3
f 234/2/3 230/2/3 229/2/3
f 234/2/3 231/2/3 230/2/3
f 235/2/3 231/2/3 234/2/3
f 236/2/3 231/2/3 235/2/3
f 237/4/3 228/4/3 227/4/3
f 238/4/3 228/4/3 237/4/3
f 239/2/3 235/2/3 234/2/3
f 239/4/3 236/4/3 235/4/3
f 240/2/3 231/2/3 236/2/3
f 240/4/3 236/4/3 239/4/3
f 243/2/3 239/2/3 234/2/3
f 243/2/3 240/2/3 239/2/3
f 244/2/3 231/2/3 240/2/3
f 244/2/3 240/2/3 243/2/3
f 245/2/3 243/2/3 234/2/3
f 246/4/3 244/4/3 243/4/3
f 246/2/3 243/2/3 245/2/3
f 247/2/3 231/2/3 244/2/3
f 247/4/3 244/4/3 246/4/3
f 248/4/3 242/4/3 241/4/3
f 249/4/3 242/4/3 248/4/3
f 250/2/3 246/2/3 245/2/3
f 250/2/3 247/2/3 246/2/3
f 251/2/3 231/2/3 247/2/3
f 251/2/3 247/2/3 250/2/3
f 252/2/3 231/2/3 251/2/3
f 253/4/3 233/4/3 232/4/3
f 254/4/3 233/4/3 253/4/3
f 255/3/3 252/3/3 251/3/3
f 256/3/3 252/3/3 255/3/3
f 262/2/3 258/2/3 257/2/3
f 263/4/3 259/4/3 258/4/3
f 263/2/3 258/2/3 262/2/3
f 264/4/3 259/4/3 263/4/3
f 265/2/3 261/2/3 260/2/3
f 266/2/3 261/2/3 265/2/3
f 269/4/3 268/4/3 267/4/3
f 270/4/3 268/4/3 269/4/3
f 273/4/3 272/4/3 271/4/3
f 274/4/3 272/4/3 273/4/3
f 280/2/3 276/2/3 275/2/3
f 281/4/3 277/4/3 276/4/3
f 281/2/3 276/2/3 280/2/3
f 282/4/3 277/4/3 281/4/3
f 283/2/3 279/2/3 278/2/3
f 284/2/3 279/2/3 283/2/3
f 285/2/4 286/2/4 290/2/4
f 286/4/4 287/4/4 291/4/4
f 290/2/4 286/2/4 291/2/4
f 291/4/4 287/4/4 292/4/4
f 288/2/4 289/2/4 293/2/4
f 293/2/4 289/2/4 294/2/4
f 295/4/4 296/4/4 297/4/4
f 297/4/4 296/4/4 298/4/4
f 299/4/4 300/4/4 301/4/4
f 301/4/4 300/4/4 302/4/4
f 303/2/4 304/2/4 308/2/4
f 304/4/4 305/4/4 309/4/4
f 308/2/4 304/2/4 309/2/4
f 309/4/4 305/4/4 310/4/4
f 306/2/4 307/2/4 311/2/4
f 311/2/4 307/2/4 312/2/4
f 313/3/4 314/3/4 319/3/4
f 319/3/4 314/3/4 320/3/4
f 317/2/4 318/2/4 323/2/4
f 323/2/4 318/2/4 324/2/4
f 321/4/4 322/4/4 325/4/4
f 325/4/4 322/4/4 326/4/4
f 315/4/4 316/4/4 327/4/4
f 327/4/4 316/4/4 328/4/4
f 329/4/4 330/4/4 335/4/4
f 335/4/4 330/4/4 336/4/4
f 331/2/4 332/2/4 337/2/4
f 337/2/4 332/2/4 338/2/4
f 333/4/4 334/4/4 341/4/4
f 341/4/4 334/4/4 342/4/4
f 339/3/4 340/3/4 343/3/4
f 343/3/4 340/3/4 344/3/4
f 345/4/4 346/4/4 351/4/4
f 351/4/4 346/4/4 352/4/4
f 348/3/4 349/3/4 353/3/4
f 350/3/4 351/3/4 354/3/4
f 354/3/4 351/3/4 355/3/4
f 348/3/4 353/3/4 358/3/4
f 353/2/4 354/2/4 358/2/4
f 358/2/4 354/2/4 359/2/4
f 356/4/4 357/4/4 361/4/4
f 361/4/4 357/4/4 362/4/4
f 347/4/4 348/4/4 363/4/4
f 348/3/4 358/3/4 364/3/4
f 363/4/4 348/4/4 364/4/4
f 364/3/4 358/3/4 365/3/4
f 359/3/4 360/3/4 366/3/4
f 366/3/4 360/3/4 367/3/4
f 367/4/4 368/4/4 369/4/4
f 369/4/4 368/4/4 370/4/4
f 371/4/4 372/4/4 374/4/4
f 373/3/4 374/3/4 375/3/4
f 374/4/4 372/4/4 376/4/4
f 375/3/4 374/3/4 376/3/4
f 376/4/4 372/4/4 377/4/4
f 377/4/4 372/4/4 378/4/4
f 379/3/4 380/3/4 381/3/4
f 381/3/4 380/3/4 382/3/4
f 383/3/4 384/3/4 385/3/4
f 385/3/4 384/3/4 386/3/4
f 387/3/4 388/3/4 389/3/4
f 389/3/4 388/3/4 390/3/4
f 391/3/4 392/3/4 393/3/4
f 393/3/4 392/3/4 394/3/4
f 397/3/5 396/3/5 395/3/5
f 398/3/5 396/3/5 397/3/5
f 403/4/5 400/4/5 399/4/5
f 404/4/5 400/4/5 403/4/5
f 405/4/5 402/4/5 401/4/5
f 406/4/5 402/4/5 405/4/5
f 407/4/5 403/4/5 399/4/5
f 410/4/5 402/4/5 406/4/5
f 411/4/5 408/4/5 407/4/5
f 411/4/5 407/4/5 399/4/5
f 412/4/5 408/4/5 411/4/5
f 413/4/5 410/4/5 409/4/5
f 414/4/5 402/4/5 410/4/5
f 414/4/5 410/4/5 413/4/5
f 417/4/5 416/4/5 415/4/5
f 418/4/5 416/4/5 417/4/5
f 419/4/5 416/4/5 418/4/5
f 420/4/5 416/4/5 419/4/5
f 423/4/5 419/4/5 418/4/5
f 426/2/5 422/2/5 421/2/5
f 427/2/5 422/2/5 426/2/5
f 428/4/5 423/4/5 418/4/5
f 429/2/5 425/2/5 424/2/5
f 430/2/5 425/2/5 429/2/5
f 432/4/5 428/4/5 418/4/5
f 433/4/5 428/4/5 432/4/5
f 435/4/5 432/4/5 431/4/5
f 435/4/5 434/4/5 433/4/5
f 435/4/5 433/4/5 432/4/5
f 436/4/5 434/4/5 435/4/5
f 441/2/5 438/2/5 437/2/5
f 442/2/5 438/2/5 441/2/5
f 443/2/5 440/2/5 439/2/5
f 444/2/5 440/2/5 443/2/5
f 449/3/5 446/3/5 445/3/5
f 450/3/5 446/3/5 449/3/5
f 451/3/5 448/3/5 447/3/5
f 452/3/5 448/3/5 451/3/5
f 453/3/5 451/3/5 450/3/5
f 454/3/5 451/3/5 453/3/5
f 459/3/5 456/3/5 455/3/5
f 460/3/5 456/3/5 459/3/5
f 461/3/5 458/3/5 457/3/5
f 462/3/5 458/3/5 461/3/5
f 467/3/5 464/3/5 463/3/5
f 468/3/5 464/3/5 467/3/5
f 469/3/5 466/3/5 465/3/5
f 470/3/5 466/3/5 469/3/5
f 473/4/5 472/4/5 471/4/5
f 474/4/5 472/4/5 473/4/5
f 475/4/5 472/4/5 474/4/5
f 476/4/5 472/4/5 475/4/5
f 481/4/5 478/4/5 477/4/5
f 482/4/5 478/4/5 481/4/5
f 485/4/5 480/4/5 479/4/5
f 486/4/5 480/4/5 485/4/5
f 487/4/5 483/4/5 482/4/5
f 488/4/5 483/4/5 487/4/5
f 489/4/5 485/4/5 484/4/5
f 490/4/5 485/4/5 489/4/5
f 491/3/6 492/3/6 493/3/6
f 493/3/6 492/3/6 494/3/6
f 491/3/6 493/3/6 495/3/6
f 495/3/6 493/3/6 496/3/6
f 494/3/6 492/3/6 497/3/6
f 497/3/6 492/3/6 498/3/6
f 491/3/6 495/3/6 499/3/6
f 498/3/6 492/3/6 502/3/6
f 499/3/6 500/3/6 503/3/6
f 501/3/6 502/3/6 504/3/6
f 499/3/6 503/3/6 505/3/6
f 503/3/6 504/3/6 505/3/6
f 491/3/6 499/3/6 505/3/6
f 504/3/6 502/3/6 506/3/6
f 505/3/6 504/3/6 506/3/6
f 502/3/6 492/3/6 506/3/6
f 507/3/6 508/3/6 510/3/6
f 510/3/6 508/3/6 511/3/6
f 509/3/6 510/3/6 513/3/6
f 511/3/6 512/3/6 513/3/6
f 510/3/6 511/3/6 513/3/6
f 513/3/6 512/3/6 514/3/6
f 514/3/6 512/3/6 515/3/6
f 515/3/6 512/3/6 516/3/6
f 509/3/6 513/3/6 517/3/6
f 514/3/6 515/3/6 518/3/6
f 518/3/6 515/3/6 519/3/6
f 516/3/6 512/3/6 520/3/6
f 518/3/6 519/3/6 521/3/6
f 519/3/6 520/3/6 521/3/6
f 509/3/6 517/3/6 521/3/6
f 517/3/6 518/3/6 521/3/6
f 521/3/6 520/3/6 522/3/6
f 520/3/6 512/3/6 523/3/6
f 522/3/6 520/3/6 523/3/6
f 523/3/6 512/3/6 524/3/6
f 522/3/6 523/3/6 525/3/6
f 525/3/6 523/3/6 526/3/6
f 527/3/6 528/3/6 531/3/6
f 528/4/6 529/4/6 532/4/6
f 531/3/6 528/3/6 532/3/6
f 529/3/6 530/3/6 533/3/6
f 532/4/6 529/4/6 533/4/6
f 533/3/6 530/3/6 534/3/6
f 535/4/6 536/4/6 539/4/6
f 539/4/6 536/4/6 540/4/6
f 537/4/6 538/4/6 541/4/6
f 541/4/6 538/4/6 542/4/6
f 543/3/6 544/3/6 547/3/6
f 547/3/6 544/3/6 548/3/6
f 545/3/6 546/3/6 549/3/6
f 549/3/6 546/3/6 550/3/6
f 551/4/6 552/4/6 553/4/6
f 553/4/6 552/4/6 554/4/6
f 551/4/6 553/4/6 555/4/6
f 554/4/6 552/4/6 558/4/6
f 555/4/6 556/4/6 559/4/6
f 551/4/6 555/4/6 559/4/6
f 559/4/6 556/4/6 560/4/6
f 560/4/6 556/4/6 561/4/6
f 557/4/6 558/4/6 562/4/6
f 558/4/6 552/4/6 563/4/6
f 562/4/6 558/4/6 563/4/6
f 563/4/6 552/4/6 564/4/6
f 560/4/6 561/4/6 565/4/6
f 561/4/6 562/4/6 565/4/6
f 562/4/6 563/4/6 565/4/6
f 565/4/6 563/4/6 566/4/6
f 567/4/6 568/4/6 569/4/6
f 569/4/6 568/4/6 570/4/6
f 570/4/6 568/4/6 571/4/6
f 571/4/6 568/4/6 572/4/6
f 570/4/6 571/4/6 573/4/6
f 573/4/6 571/4/6 574/4/6
