# MagicaVoxel @ Ephtracy

# material
mtllib obj_statue1.mtl
usemtl palette

# normals
vn -1 0 0
vn 1 0 0
vn 0 0 1
vn 0 0 -1
vn 0 -1 0
vn 0 1 0

# texcoords
vt 0.970703 0.5
vt 0.974609 0.5
vt 0.978516 0.5

# verts
v -8 0 7
v -8 0 -7
v -8 5 7
v -8 5 -7
v -7 5 5
v -7 5 -5
v -7 6 5
v -7 6 -5
v -6 5 6
v -6 5 5
v -6 5 -5
v -6 5 -6
v -6 6 6
v -6 6 5
v -6 6 -5
v -6 6 -6
v -4 8 -0
v -4 8 -1
v -4 9 -0
v -4 9 -1
v -4 12 -0
v -4 12 -1
v -4 13 -0
v -4 13 -1
v -4 14 -0
v -4 14 -1
v -4 14 -2
v -4 15 1
v -4 15 -1
v -4 16 1
v -4 16 -2
v -3 7 1
v -3 7 -2
v -3 8 2
v -3 8 1
v -3 8 -0
v -3 8 -1
v -3 8 -2
v -3 8 -3
v -3 9 2
v -3 9 -0
v -3 9 -1
v -3 9 -2
v -3 12 2
v -3 12 1
v -3 12 -0
v -3 12 -1
v -3 12 -2
v -3 12 -3
v -3 13 -0
v -3 13 -1
v -3 14 -0
v -3 14 -1
v -3 14 -2
v -3 14 -4
v -3 15 2
v -3 15 1
v -3 15 -1
v -3 15 -3
v -3 15 -4
v -3 16 2
v -3 16 1
v -3 16 -2
v -3 16 -3
v -3 17 1
v -3 17 -2
v -2 6 -0
v -2 6 -1
v -2 7 -0
v -2 7 -1
v -2 12 -2
v -2 12 -3
v -2 13 -3
v -2 13 -4
v -2 14 -2
v -2 14 -3
v -2 14 -4
v -2 15 -3
v -2 15 -4
v -2 16 -2
v -2 16 -3
v -2 16 -4
v -2 17 -2
v -2 17 -3
v 1 6 -0
v 1 6 -1
v 1 7 1
v 1 7 -0
v 1 7 -1
v 1 7 -2
v 1 8 1
v 1 8 -2
v 1 16 -0
v 1 16 -1
v 1 17 -0
v 1 17 -1
v 2 15 2
v 2 15 1
v 2 16 2
v 2 16 1
v 2 16 -0
v 2 17 1
v 2 17 -0
v -2 15 2
v -2 15 1
v -2 16 2
v -2 16 1
v -1 6 -0
v -1 6 -1
v -1 7 1
v -1 7 -0
v -1 7 -1
v -1 7 -2
v -1 8 1
v -1 8 -2
v -1 16 1
v -1 16 -0
v -1 17 1
v -1 17 -0
v 0 16 -0
v 0 16 -1
v 0 17 -0
v 0 17 -1
v 2 6 -0
v 2 6 -1
v 2 7 -0
v 2 7 -1
v 2 12 -2
v 2 12 -3
v 2 13 -2
v 2 13 -3
v 2 13 -4
v 2 16 -2
v 2 16 -3
v 2 16 -4
v 2 17 -2
v 2 17 -3
v 3 7 1
v 3 7 -2
v 3 8 2
v 3 8 1
v 3 8 -0
v 3 8 -1
v 3 8 -2
v 3 8 -3
v 3 9 2
v 3 9 -0
v 3 9 -1
v 3 9 -2
v 3 12 2
v 3 12 1
v 3 12 -0
v 3 12 -1
v 3 12 -2
v 3 12 -3
v 3 13 -0
v 3 13 -1
v 3 13 -2
v 3 13 -3
v 3 14 -0
v 3 14 -1
v 3 15 2
v 3 15 1
v 3 15 -1
v 3 16 2
v 3 16 1
v 3 16 -0
v 3 16 -1
v 3 16 -2
v 3 16 -3
v 3 17 1
v 3 17 -0
v 3 17 -1
v 3 17 -2
v 4 8 -0
v 4 8 -1
v 4 9 -0
v 4 9 -1
v 4 12 -0
v 4 12 -1
v 4 13 -0
v 4 13 -1
v 4 13 -2
v 4 14 -0
v 4 14 -1
v 4 15 1
v 4 15 -0
v 4 15 -1
v 4 15 -2
v 4 16 1
v 4 16 -0
v 4 16 -1
v 4 17 -0
v 4 17 -1
v 5 15 -0
v 5 15 -2
v 5 16 -0
v 5 16 -2
v 6 5 6
v 6 5 5
v 6 5 -5
v 6 5 -6
v 6 6 6
v 6 6 5
v 6 6 -5
v 6 6 -6
v 7 5 5
v 7 5 -5
v 7 6 5
v 7 6 -5
v 8 0 7
v 8 0 -7
v 8 5 7
v 8 5 -7
v -8 0 7
v -8 5 7
v -4 1 7
v -4 4 7
v 4 1 7
v 4 4 7
v 8 0 7
v 8 5 7
v -6 5 6
v -6 6 6
v 6 5 6
v 6 6 6
v -7 5 5
v -7 6 5
v -6 5 5
v -6 6 5
v 6 5 5
v 6 6 5
v 7 5 5
v 7 6 5
v -3 8 2
v -3 9 2
v -3 12 2
v -3 15 2
v -3 16 2
v -2 15 2
v -2 16 2
v -1 10 2
v -1 12 2
v 0 10 2
v 0 11 2
v 1 11 2
v 1 12 2
v 2 15 2
v 2 16 2
v 3 8 2
v 3 9 2
v 3 12 2
v 3 15 2
v 3 16 2
v -4 15 1
v -4 16 1
v -3 7 1
v -3 8 1
v -3 12 1
v -3 15 1
v -3 16 1
v -3 17 1
v -2 13 1
v -2 14 1
v -2 15 1
v -2 16 1
v -1 7 1
v -1 8 1
v -1 12 1
v -1 13 1
v -1 14 1
v -1 16 1
v -1 17 1
v 1 7 1
v 1 8 1
v 1 12 1
v 1 13 1
v 1 14 1
v 2 13 1
v 2 14 1
v 2 15 1
v 2 16 1
v 2 17 1
v 3 7 1
v 3 8 1
v 3 12 1
v 3 15 1
v 3 16 1
v 3 17 1
v 4 15 1
v 4 16 1
v -4 8 -0
v -4 9 -0
v -4 12 -0
v -4 13 -0
v -4 14 -0
v -3 8 -0
v -3 9 -0
v -3 12 -0
v -3 13 -0
v -3 14 -0
v -2 6 -0
v -2 7 -0
v -1 6 -0
v -1 7 -0
v -1 16 -0
v -1 17 -0
v 0 16 -0
v 0 17 -0
v 1 6 -0
v 1 7 -0
v 1 16 -0
v 1 17 -0
v 2 6 -0
v 2 7 -0
v 2 16 -0
v 2 17 -0
v 3 8 -0
v 3 9 -0
v 3 12 -0
v 3 13 -0
v 3 14 -0
v 3 16 -0
v 3 17 -0
v 4 8 -0
v 4 9 -0
v 4 12 -0
v 4 13 -0
v 4 14 -0
v 4 15 -0
v 4 16 -0
v 4 17 -0
v 5 15 -0
v 5 16 -0
v -4 14 -1
v -4 15 -1
v -3 14 -1
v -3 15 -1
v 0 16 -1
v 0 17 -1
v 1 16 -1
v 1 17 -1
v 3 14 -1
v 3 15 -1
v 4 14 -1
v 4 15 -1
v -4 8 -1
v -4 9 -1
v -4 12 -1
v -4 13 -1
v -4 14 -1
v -3 8 -1
v -3 9 -1
v -3 12 -1
v -3 13 -1
v -3 14 -1
v -2 6 -1
v -2 7 -1
v -1 6 -1
v -1 7 -1
v 1 6 -1
v 1 7 -1
v 2 6 -1
v 2 7 -1
v 3 8 -1
v 3 9 -1
v 3 12 -1
v 3 16 -1
v 3 17 -1
v 4 8 -1
v 4 9 -1
v 4 12 -1
v 4 16 -1
v 4 17 -1
v -4 14 -2
v -4 16 -2
v -3 7 -2
v -3 8 -2
v -3 12 -2
v -3 14 -2
v -3 16 -2
v -3 17 -2
v -2 12 -2
v -2 14 -2
v -2 16 -2
v -2 17 -2
v -1 7 -2
v -1 8 -2
v 1 7 -2
v 1 8 -2
v 2 12 -2
v 2 13 -2
v 2 16 -2
v 2 17 -2
v 3 7 -2
v 3 8 -2
v 3 12 -2
v 3 13 -2
v 3 16 -2
v 3 17 -2
v 4 13 -2
v 4 15 -2
v 5 15 -2
v 5 16 -2
v -3 8 -3
v -3 12 -3
v -3 15 -3
v -3 16 -3
v -2 12 -3
v -2 13 -3
v -2 15 -3
v -2 16 -3
v -2 17 -3
v 2 12 -3
v 2 13 -3
v 2 16 -3
v 2 17 -3
v 3 8 -3
v 3 12 -3
v 3 13 -3
v 3 16 -3
v -3 14 -4
v -3 15 -4
v -2 13 -4
v -2 14 -4
v -2 15 -4
v -2 16 -4
v 2 13 -4
v 2 16 -4
v -7 5 -5
v -7 6 -5
v -6 5 -5
v -6 6 -5
v 6 5 -5
v 6 6 -5
v 7 5 -5
v 7 6 -5
v -6 5 -6
v -6 6 -6
v 6 5 -6
v 6 6 -6
v -8 0 -7
v -8 5 -7
v 8 0 -7
v 8 5 -7
v -8 0 7
v 8 0 7
v -8 0 -7
v 8 0 -7
v -3 7 1
v -1 7 1
v 1 7 1
v 3 7 1
v -2 7 -0
v -1 7 -0
v 1 7 -0
v 2 7 -0
v -2 7 -1
v -1 7 -1
v 1 7 -1
v 2 7 -1
v -3 7 -2
v -1 7 -2
v 1 7 -2
v 3 7 -2
v -3 8 2
v 3 8 2
v -3 8 1
v -1 8 1
v 1 8 1
v 3 8 1
v -4 8 -0
v -3 8 -0
v 3 8 -0
v 4 8 -0
v -4 8 -1
v -3 8 -1
v 3 8 -1
v 4 8 -1
v -3 8 -2
v -1 8 -2
v 1 8 -2
v 3 8 -2
v -3 8 -3
v 3 8 -3
v -4 13 -0
v -3 13 -0
v 3 13 -0
v 4 13 -0
v -4 13 -1
v -3 13 -1
v 3 13 -1
v 4 13 -1
v 2 13 -2
v 3 13 -2
v 4 13 -2
v -2 13 -3
v 2 13 -3
v 3 13 -3
v -2 13 -4
v 2 13 -4
v -4 14 -1
v -3 14 -1
v -4 14 -2
v -3 14 -2
v -2 14 -2
v -2 14 -3
v -3 14 -4
v -2 14 -4
v -3 15 2
v -2 15 2
v 2 15 2
v 3 15 2
v -4 15 1
v -3 15 1
v -2 15 1
v 2 15 1
v 3 15 1
v 4 15 1
v 4 15 -0
v 5 15 -0
v -4 15 -1
v -3 15 -1
v 3 15 -1
v 4 15 -1
v 4 15 -2
v 5 15 -2
v -8 5 7
v 8 5 7
v -6 5 6
v 6 5 6
v -7 5 5
v -6 5 5
v 6 5 5
v 7 5 5
v -7 5 -5
v -6 5 -5
v 6 5 -5
v 7 5 -5
v -6 5 -6
v 6 5 -6
v -8 5 -7
v 8 5 -7
v -6 6 6
v 6 6 6
v -7 6 5
v -6 6 5
v 6 6 5
v 7 6 5
v -2 6 -0
v -1 6 -0
v 1 6 -0
v 2 6 -0
v -2 6 -1
v -1 6 -1
v 1 6 -1
v 2 6 -1
v -7 6 -5
v -6 6 -5
v 6 6 -5
v 7 6 -5
v -6 6 -6
v 6 6 -6
v -3 12 2
v -1 12 2
v 1 12 2
v 3 12 2
v -3 12 1
v -1 12 1
v 1 12 1
v 3 12 1
v -4 12 -0
v -3 12 -0
v 3 12 -0
v 4 12 -0
v -4 12 -1
v -3 12 -1
v 3 12 -1
v 4 12 -1
v -3 12 -2
v -2 12 -2
v 2 12 -2
v 3 12 -2
v -3 12 -3
v -2 12 -3
v 2 12 -3
v 3 12 -3
v -4 14 -0
v -3 14 -0
v 3 14 -0
v 4 14 -0
v -4 14 -1
v -3 14 -1
v 3 14 -1
v 4 14 -1
v -3 15 -3
v -2 15 -3
v -3 15 -4
v -2 15 -4
v -3 16 2
v -2 16 2
v 2 16 2
v 3 16 2
v -4 16 1
v -3 16 1
v -2 16 1
v -1 16 1
v 2 16 1
v 3 16 1
v 4 16 1
v -1 16 -0
v 0 16 -0
v 1 16 -0
v 2 16 -0
v 3 16 -0
v 4 16 -0
v 5 16 -0
v 0 16 -1
v 1 16 -1
v 3 16 -1
v 4 16 -1
v -4 16 -2
v -3 16 -2
v -2 16 -2
v 2 16 -2
v 3 16 -2
v 5 16 -2
v -3 16 -3
v -2 16 -3
v 2 16 -3
v 3 16 -3
v -2 16 -4
v 2 16 -4
v -3 17 1
v -1 17 1
v 2 17 1
v 3 17 1
v -1 17 -0
v 0 17 -0
v 1 17 -0
v 2 17 -0
v 3 17 -0
v 4 17 -0
v 0 17 -1
v 1 17 -1
v 3 17 -1
v 4 17 -1
v -3 17 -2
v -2 17 -2
v 2 17 -2
v 3 17 -2
v -2 17 -3
v 2 17 -3

# faces
f 3/2/1 2/2/1 1/2/1
f 4/2/1 2/2/1 3/2/1
f 7/2/1 6/2/1 5/2/1
f 8/2/1 6/2/1 7/2/1
f 13/2/1 10/2/1 9/2/1
f 14/2/1 10/2/1 13/2/1
f 15/2/1 12/2/1 11/2/1
f 16/2/1 12/2/1 15/2/1
f 19/1/1 18/1/1 17/1/1
f 20/1/1 18/1/1 19/1/1
f 21/3/1 20/3/1 19/3/1
f 22/3/1 20/3/1 21/3/1
f 25/1/1 24/1/1 23/1/1
f 26/1/1 24/1/1 25/1/1
f 29/3/1 27/3/1 26/3/1
f 30/3/1 29/3/1 28/3/1
f 31/3/1 27/3/1 29/3/1
f 31/3/1 29/3/1 30/3/1
f 35/1/1 33/1/1 32/1/1
f 36/1/1 33/1/1 35/1/1
f 37/1/1 33/1/1 36/1/1
f 38/1/1 33/1/1 37/1/1
f 40/1/1 35/1/1 34/1/1
f 40/1/1 36/1/1 35/1/1
f 41/1/1 36/1/1 40/1/1
f 42/1/1 38/1/1 37/1/1
f 43/3/1 39/3/1 38/3/1
f 43/1/1 38/1/1 42/1/1
f 44/3/1 41/3/1 40/3/1
f 45/3/1 41/3/1 44/3/1
f 46/3/1 41/3/1 45/3/1
f 47/3/1 43/3/1 42/3/1
f 48/3/1 39/3/1 43/3/1
f 48/3/1 43/3/1 47/3/1
f 49/3/1 39/3/1 48/3/1
f 50/1/1 47/1/1 46/1/1
f 50/1/1 46/1/1 45/1/1
f 50/1/1 48/1/1 47/1/1
f 51/1/1 48/1/1 50/1/1
f 52/1/1 50/1/1 45/1/1
f 53/1/1 48/1/1 51/1/1
f 54/1/1 48/1/1 53/1/1
f 57/1/1 52/1/1 45/1/1
f 57/1/1 53/1/1 52/1/1
f 58/1/1 53/1/1 57/1/1
f 59/3/1 55/3/1 54/3/1
f 60/3/1 55/3/1 59/3/1
f 61/3/1 57/3/1 56/3/1
f 62/3/1 57/3/1 61/3/1
f 63/3/1 59/3/1 54/3/1
f 64/3/1 59/3/1 63/3/1
f 65/3/1 63/3/1 62/3/1
f 66/3/1 63/3/1 65/3/1
f 69/3/1 68/3/1 67/3/1
f 70/3/1 68/3/1 69/3/1
f 73/1/1 72/1/1 71/1/1
f 75/1/1 73/1/1 71/1/1
f 76/3/1 74/3/1 73/3/1
f 76/1/1 73/1/1 75/1/1
f 77/3/1 74/3/1 76/3/1
f 81/3/1 79/3/1 78/3/1
f 82/3/1 79/3/1 81/3/1
f 83/3/1 81/3/1 80/3/1
f 84/3/1 81/3/1 83/3/1
f 88/3/1 86/3/1 85/3/1
f 89/3/1 86/3/1 88/3/1
f 91/1/1 88/1/1 87/1/1
f 91/1/1 90/1/1 89/1/1
f 91/1/1 89/1/1 88/1/1
f 92/1/1 90/1/1 91/1/1
f 95/3/1 94/3/1 93/3/1
f 96/3/1 94/3/1 95/3/1
f 99/3/1 98/3/1 97/3/1
f 100/3/1 98/3/1 99/3/1
f 102/3/1 101/3/1 100/3/1
f 103/3/1 101/3/1 102/3/1
f 104/3/2 105/3/2 106/3/2
f 106/3/2 105/3/2 107/3/2
f 108/3/2 109/3/2 111/3/2
f 111/3/2 109/3/2 112/3/2
f 110/1/2 111/1/2 114/1/2
f 112/1/2 113/1/2 114/1/2
f 111/1/2 112/1/2 114/1/2
f 114/1/2 113/1/2 115/1/2
f 116/3/2 117/3/2 118/3/2
f 118/3/2 117/3/2 119/3/2
f 120/3/2 121/3/2 122/3/2
f 122/3/2 121/3/2 123/3/2
f 124/3/2 125/3/2 126/3/2
f 126/3/2 125/3/2 127/3/2
f 128/1/2 129/1/2 130/1/2
f 130/1/2 129/1/2 131/1/2
f 131/3/2 132/3/2 134/3/2
f 134/3/2 132/3/2 135/3/2
f 133/3/2 134/3/2 136/3/2
f 136/3/2 134/3/2 137/3/2
f 138/1/2 139/1/2 141/1/2
f 141/1/2 139/1/2 142/1/2
f 142/1/2 139/1/2 143/1/2
f 143/1/2 139/1/2 144/1/2
f 140/1/2 141/1/2 146/1/2
f 141/1/2 142/1/2 146/1/2
f 146/1/2 142/1/2 147/1/2
f 143/1/2 144/1/2 148/1/2
f 144/3/2 145/3/2 149/3/2
f 148/1/2 144/1/2 149/1/2
f 146/3/2 147/3/2 150/3/2
f 150/3/2 147/3/2 151/3/2
f 151/3/2 147/3/2 152/3/2
f 148/3/2 149/3/2 153/3/2
f 149/3/2 145/3/2 154/3/2
f 153/3/2 149/3/2 154/3/2
f 154/3/2 145/3/2 155/3/2
f 152/1/2 153/1/2 156/1/2
f 151/1/2 152/1/2 156/1/2
f 153/1/2 154/1/2 156/1/2
f 156/1/2 154/1/2 157/1/2
f 157/1/2 154/1/2 158/1/2
f 151/1/2 156/1/2 160/1/2
f 151/1/2 160/1/2 163/1/2
f 160/1/2 161/1/2 163/1/2
f 163/1/2 161/1/2 164/1/2
f 162/3/2 163/3/2 165/3/2
f 165/3/2 163/3/2 166/3/2
f 158/3/2 159/3/2 169/3/2
f 169/3/2 159/3/2 170/3/2
f 166/3/2 167/3/2 171/3/2
f 171/3/2 167/3/2 172/3/2
f 168/3/2 169/3/2 173/3/2
f 173/3/2 169/3/2 174/3/2
f 175/1/2 176/1/2 177/1/2
f 177/1/2 176/1/2 178/1/2
f 177/3/2 178/3/2 179/3/2
f 179/3/2 178/3/2 180/3/2
f 181/1/2 182/1/2 184/1/2
f 182/3/2 183/3/2 185/3/2
f 184/1/2 182/1/2 185/1/2
f 185/3/2 183/3/2 188/3/2
f 188/3/2 183/3/2 189/3/2
f 186/3/2 187/3/2 190/3/2
f 190/3/2 187/3/2 191/3/2
f 191/3/2 192/3/2 193/3/2
f 193/3/2 192/3/2 194/3/2
f 195/3/2 196/3/2 197/3/2
f 197/3/2 196/3/2 198/3/2
f 199/2/2 200/2/2 203/2/2
f 203/2/2 200/2/2 204/2/2
f 201/2/2 202/2/2 205/2/2
f 205/2/2 202/2/2 206/2/2
f 207/2/2 208/2/2 209/2/2
f 209/2/2 208/2/2 210/2/2
f 211/2/2 212/2/2 213/2/2
f 213/2/2 212/2/2 214/2/2
f 217/2/3 216/2/3 215/2/3
f 218/2/3 216/2/3 217/2/3
f 219/2/3 217/2/3 215/2/3
f 219/3/3 218/3/3 217/3/3
f 220/2/3 216/2/3 218/2/3
f 220/3/3 218/3/3 219/3/3
f 221/2/3 219/2/3 215/2/3
f 221/2/3 220/2/3 219/2/3
f 222/2/3 216/2/3 220/2/3
f 222/2/3 220/2/3 221/2/3
f 225/2/3 224/2/3 223/2/3
f 226/2/3 224/2/3 225/2/3
f 229/2/3 228/2/3 227/2/3
f 230/2/3 228/2/3 229/2/3
f 233/2/3 232/2/3 231/2/3
f 234/2/3 232/2/3 233/2/3
f 240/3/3 239/3/3 238/3/3
f 241/3/3 239/3/3 240/3/3
f 242/3/3 237/3/3 236/3/3
f 243/3/3 237/3/3 242/3/3
f 244/3/3 242/3/3 236/3/3
f 244/2/3 243/2/3 242/2/3
f 245/2/3 243/2/3 244/2/3
f 246/3/3 245/3/3 244/3/3
f 246/2/3 243/2/3 245/2/3
f 247/2/3 243/2/3 246/2/3
f 250/1/3 236/1/3 235/1/3
f 251/3/3 247/3/3 246/3/3
f 251/1/3 236/1/3 250/1/3
f 251/3/3 244/3/3 236/3/3
f 251/3/3 246/3/3 244/3/3
f 252/3/3 247/3/3 251/3/3
f 253/3/3 249/3/3 248/3/3
f 254/3/3 249/3/3 253/3/3
f 260/3/3 256/3/3 255/3/3
f 261/3/3 256/3/3 260/3/3
f 263/1/3 260/1/3 259/1/3
f 264/1/3 260/1/3 263/1/3
f 265/1/3 260/1/3 264/1/3
f 266/3/3 262/3/3 261/3/3
f 267/1/3 258/1/3 257/1/3
f 268/1/3 258/1/3 267/1/3
f 269/1/3 263/1/3 259/1/3
f 270/3/3 264/3/3 263/3/3
f 270/1/3 263/1/3 269/1/3
f 271/1/3 266/1/3 265/1/3
f 271/3/3 264/3/3 270/3/3
f 271/1/3 265/1/3 264/1/3
f 272/3/3 262/3/3 266/3/3
f 272/1/3 266/1/3 271/1/3
f 273/3/3 262/3/3 272/3/3
f 276/1/3 270/1/3 269/1/3
f 276/1/3 271/1/3 270/1/3
f 276/1/3 272/1/3 271/1/3
f 277/1/3 272/1/3 276/1/3
f 278/1/3 272/1/3 277/1/3
f 279/1/3 277/1/3 276/1/3
f 279/3/3 278/3/3 277/3/3
f 280/1/3 272/1/3 278/1/3
f 280/3/3 278/3/3 279/3/3
f 281/1/3 272/1/3 280/1/3
f 282/1/3 272/1/3 281/1/3
f 284/1/3 275/1/3 274/1/3
f 285/1/3 275/1/3 284/1/3
f 286/1/3 279/1/3 276/1/3
f 286/1/3 280/1/3 279/1/3
f 286/1/3 281/1/3 280/1/3
f 287/1/3 281/1/3 286/1/3
f 288/3/3 283/3/3 282/3/3
f 289/3/3 283/3/3 288/3/3
f 290/3/3 288/3/3 287/3/3
f 291/3/3 288/3/3 290/3/3
f 297/1/3 293/1/3 292/1/3
f 298/3/3 294/3/3 293/3/3
f 298/1/3 293/1/3 297/1/3
f 299/3/3 294/3/3 298/3/3
f 300/1/3 296/1/3 295/1/3
f 301/1/3 296/1/3 300/1/3
f 304/3/3 303/3/3 302/3/3
f 305/3/3 303/3/3 304/3/3
f 308/3/3 307/3/3 306/3/3
f 309/3/3 307/3/3 308/3/3
f 314/3/3 311/3/3 310/3/3
f 315/3/3 311/3/3 314/3/3
f 316/3/3 313/3/3 312/3/3
f 317/3/3 313/3/3 316/3/3
f 325/1/3 319/1/3 318/1/3
f 326/3/3 320/3/3 319/3/3
f 326/1/3 319/1/3 325/1/3
f 327/3/3 320/3/3 326/3/3
f 328/1/3 322/1/3 321/1/3
f 329/1/3 322/1/3 328/1/3
f 331/3/3 324/3/3 323/3/3
f 332/3/3 324/3/3 331/3/3
f 333/3/3 331/3/3 330/3/3
f 334/3/3 331/3/3 333/3/3
f 337/3/3 336/3/3 335/3/3
f 338/3/3 336/3/3 337/3/3
f 341/3/3 340/3/3 339/3/3
f 342/3/3 340/3/3 341/3/3
f 345/3/3 344/3/3 343/3/3
f 346/3/3 344/3/3 345/3/3
f 347/1/4 348/1/4 352/1/4
f 348/3/4 349/3/4 353/3/4
f 352/1/4 348/1/4 353/1/4
f 353/3/4 349/3/4 354/3/4
f 350/1/4 351/1/4 355/1/4
f 355/1/4 351/1/4 356/1/4
f 357/3/4 358/3/4 359/3/4
f 359/3/4 358/3/4 360/3/4
f 361/3/4 362/3/4 363/3/4
f 363/3/4 362/3/4 364/3/4
f 365/1/4 366/1/4 370/1/4
f 366/3/4 367/3/4 371/3/4
f 370/1/4 366/1/4 371/1/4
f 371/3/4 367/3/4 372/3/4
f 368/3/4 369/3/4 373/3/4
f 373/3/4 369/3/4 374/3/4
f 375/3/4 376/3/4 380/3/4
f 380/3/4 376/3/4 381/3/4
f 379/1/4 380/1/4 383/1/4
f 383/1/4 380/1/4 384/1/4
f 381/3/4 382/3/4 385/3/4
f 385/3/4 382/3/4 386/3/4
f 377/1/4 378/1/4 387/1/4
f 387/1/4 378/1/4 388/1/4
f 389/1/4 390/1/4 395/1/4
f 395/1/4 390/1/4 396/1/4
f 391/1/4 392/1/4 397/1/4
f 397/1/4 392/1/4 398/1/4
f 393/3/4 394/3/4 399/3/4
f 399/3/4 394/3/4 400/3/4
f 398/3/4 399/3/4 401/3/4
f 401/3/4 399/3/4 402/3/4
f 402/3/4 399/3/4 403/3/4
f 403/3/4 399/3/4 404/3/4
f 405/3/4 406/3/4 409/3/4
f 407/3/4 408/3/4 411/3/4
f 411/3/4 408/3/4 412/3/4
f 409/1/4 410/1/4 414/1/4
f 405/3/4 409/3/4 414/3/4
f 414/1/4 410/1/4 415/1/4
f 412/3/4 413/3/4 416/3/4
f 416/3/4 413/3/4 417/3/4
f 405/3/4 414/3/4 418/3/4
f 418/3/4 414/3/4 419/3/4
f 415/3/4 416/3/4 420/3/4
f 420/3/4 416/3/4 421/3/4
f 422/3/4 423/3/4 425/3/4
f 425/3/4 423/3/4 426/3/4
f 424/3/4 425/3/4 428/3/4
f 426/3/4 427/3/4 428/3/4
f 425/3/4 426/3/4 428/3/4
f 428/3/4 427/3/4 429/3/4
f 430/2/4 431/2/4 432/2/4
f 432/2/4 431/2/4 433/2/4
f 434/2/4 435/2/4 436/2/4
f 436/2/4 435/2/4 437/2/4
f 438/2/4 439/2/4 440/2/4
f 440/2/4 439/2/4 441/2/4
f 442/2/4 443/2/4 444/2/4
f 444/2/4 443/2/4 445/2/4
f 448/2/5 447/2/5 446/2/5
f 449/2/5 447/2/5 448/2/5
f 454/1/5 451/1/5 450/1/5
f 455/1/5 451/1/5 454/1/5
f 456/1/5 453/1/5 452/1/5
f 457/1/5 453/1/5 456/1/5
f 458/1/5 454/1/5 450/1/5
f 461/1/5 453/1/5 457/1/5
f 462/1/5 459/1/5 458/1/5
f 462/1/5 458/1/5 450/1/5
f 463/1/5 459/1/5 462/1/5
f 464/1/5 461/1/5 460/1/5
f 465/1/5 453/1/5 461/1/5
f 465/1/5 461/1/5 464/1/5
f 468/1/5 467/1/5 466/1/5
f 469/1/5 467/1/5 468/1/5
f 470/1/5 467/1/5 469/1/5
f 471/1/5 467/1/5 470/1/5
f 476/1/5 473/1/5 472/1/5
f 477/1/5 473/1/5 476/1/5
f 478/1/5 475/1/5 474/1/5
f 479/1/5 475/1/5 478/1/5
f 481/1/5 470/1/5 469/1/5
f 482/1/5 470/1/5 481/1/5
f 484/3/5 481/3/5 480/3/5
f 484/3/5 483/3/5 482/3/5
f 484/3/5 482/3/5 481/3/5
f 485/3/5 483/3/5 484/3/5
f 490/1/5 487/1/5 486/1/5
f 491/1/5 487/1/5 490/1/5
f 492/1/5 489/1/5 488/1/5
f 493/1/5 489/1/5 492/1/5
f 495/3/5 493/3/5 492/3/5
f 496/3/5 493/3/5 495/3/5
f 498/3/5 495/3/5 494/3/5
f 499/3/5 495/3/5 498/3/5
f 500/3/5 498/3/5 497/3/5
f 501/3/5 498/3/5 500/3/5
f 504/3/5 503/3/5 502/3/5
f 505/3/5 503/3/5 504/3/5
f 507/3/5 506/3/5 505/3/5
f 508/3/5 507/3/5 505/3/5
f 509/3/5 507/3/5 508/3/5
f 515/3/5 511/3/5 510/3/5
f 516/3/5 511/3/5 515/3/5
f 517/3/5 513/3/5 512/3/5
f 518/3/5 513/3/5 517/3/5
f 520/3/5 519/3/5 518/3/5
f 522/3/5 515/3/5 514/3/5
f 523/3/5 515/3/5 522/3/5
f 524/3/5 521/3/5 520/3/5
f 524/3/5 520/3/5 518/3/5
f 525/3/5 521/3/5 524/3/5
f 526/3/5 521/3/5 525/3/5
f 527/3/5 521/3/5 526/3/5
f 528/2/6 529/2/6 530/2/6
f 530/2/6 529/2/6 531/2/6
f 528/2/6 530/2/6 532/2/6
f 532/2/6 530/2/6 533/2/6
f 531/2/6 529/2/6 534/2/6
f 534/2/6 529/2/6 535/2/6
f 528/2/6 532/2/6 536/2/6
f 535/2/6 529/2/6 539/2/6
f 536/2/6 537/2/6 540/2/6
f 538/2/6 539/2/6 541/2/6
f 536/2/6 540/2/6 542/2/6
f 540/2/6 541/2/6 542/2/6
f 528/2/6 536/2/6 542/2/6
f 541/2/6 539/2/6 543/2/6
f 542/2/6 541/2/6 543/2/6
f 539/2/6 529/2/6 543/2/6
f 544/2/6 545/2/6 547/2/6
f 547/2/6 545/2/6 548/2/6
f 546/2/6 547/2/6 550/2/6
f 548/2/6 549/2/6 550/2/6
f 547/2/6 548/2/6 550/2/6
f 550/2/6 549/2/6 551/2/6
f 551/2/6 549/2/6 552/2/6
f 552/2/6 549/2/6 553/2/6
f 546/2/6 550/2/6 554/2/6
f 551/2/6 552/2/6 555/2/6
f 555/2/6 552/2/6 556/2/6
f 553/2/6 549/2/6 557/2/6
f 555/2/6 556/2/6 558/2/6
f 556/2/6 557/2/6 558/2/6
f 546/2/6 554/2/6 558/2/6
f 554/2/6 555/2/6 558/2/6
f 558/2/6 557/2/6 559/2/6
f 557/2/6 549/2/6 560/2/6
f 559/2/6 557/2/6 560/2/6
f 560/2/6 549/2/6 561/2/6
f 559/2/6 560/2/6 562/2/6
f 562/2/6 560/2/6 563/2/6
f 564/3/6 565/3/6 568/3/6
f 565/2/6 566/2/6 569/2/6
f 568/3/6 565/3/6 569/3/6
f 566/3/6 567/3/6 570/3/6
f 569/2/6 566/2/6 570/2/6
f 570/3/6 567/3/6 571/3/6
f 572/3/6 573/3/6 576/3/6
f 576/3/6 573/3/6 577/3/6
f 574/3/6 575/3/6 578/3/6
f 578/3/6 575/3/6 579/3/6
f 580/3/6 581/3/6 584/3/6
f 584/3/6 581/3/6 585/3/6
f 582/3/6 583/3/6 586/3/6
f 586/3/6 583/3/6 587/3/6
f 588/1/6 589/1/6 592/1/6
f 592/1/6 589/1/6 593/1/6
f 590/1/6 591/1/6 594/1/6
f 594/1/6 591/1/6 595/1/6
f 596/3/6 597/3/6 598/3/6
f 598/3/6 597/3/6 599/3/6
f 600/3/6 601/3/6 605/3/6
f 605/3/6 601/3/6 606/3/6
f 602/3/6 603/3/6 608/3/6
f 608/3/6 603/3/6 609/3/6
f 607/1/6 608/1/6 611/1/6
f 611/1/6 608/1/6 612/1/6
f 612/1/6 608/1/6 613/1/6
f 613/1/6 608/1/6 614/1/6
f 609/3/6 610/3/6 615/3/6
f 615/3/6 610/3/6 616/3/6
f 612/1/6 613/1/6 618/1/6
f 618/1/6 613/1/6 619/1/6
f 616/3/6 617/3/6 621/3/6
f 604/3/6 605/3/6 622/3/6
f 622/3/6 605/3/6 623/3/6
f 620/3/6 621/3/6 626/3/6
f 621/3/6 617/3/6 627/3/6
f 626/3/6 621/3/6 627/3/6
f 623/3/6 624/3/6 628/3/6
f 628/3/6 624/3/6 629/3/6
f 625/3/6 626/3/6 630/3/6
f 630/3/6 626/3/6 631/3/6
f 629/3/6 630/3/6 632/3/6
f 632/3/6 630/3/6 633/3/6
f 634/3/6 635/3/6 638/3/6
f 636/3/6 637/3/6 641/3/6
f 641/3/6 637/3/6 642/3/6
f 638/3/6 639/3/6 644/3/6
f 642/3/6 643/3/6 645/3/6
f 640/3/6 641/3/6 645/3/6
f 641/3/6 642/3/6 645/3/6
f 645/3/6 643/3/6 646/3/6
f 646/3/6 643/3/6 647/3/6
f 638/3/6 644/3/6 648/3/6
f 634/3/6 638/3/6 648/3/6
f 645/3/6 646/3/6 648/3/6
f 644/3/6 645/3/6 648/3/6
f 648/3/6 646/3/6 649/3/6
f 649/3/6 646/3/6 650/3/6
f 650/3/6 646/3/6 651/3/6
f 649/3/6 650/3/6 652/3/6
f 652/3/6 650/3/6 653/3/6
