# MagicaVoxel @ Ephtracy

# material
mtllib obj_armgate1.mtl
usemtl palette

# normals
vn -1 0 0
vn 1 0 0
vn 0 0 1
vn 0 0 -1
vn 0 -1 0
vn 0 1 0

# texcoords
vt 0.0449219 0.5
vt 0.849609 0.5

# verts
v 0 0 7.5
v 0 0 6.5
v 0 0 5.5
v 0 0 -5.5
v 0 0 -6.5
v 0 0 -7.5
v 0 1 7.5
v 0 1 6.5
v 0 1 5.5
v 0 1 -5.5
v 0 1 -6.5
v 0 1 -7.5
v 1 0 7.5
v 1 0 6.5
v 1 0 5.5
v 1 0 -5.5
v 1 0 -6.5
v 1 0 -7.5
v 1 1 7.5
v 1 1 6.5
v 1 1 5.5
v 1 1 -5.5
v 1 1 -6.5
v 1 1 -7.5
v 0 0 7.5
v 0 1 7.5
v 1 0 7.5
v 1 1 7.5
v 0 0 -7.5
v 0 1 -7.5
v 1 0 -7.5
v 1 1 -7.5
v 0 0 7.5
v 1 0 7.5
v 0 0 6.5
v 1 0 6.5
v 0 0 5.5
v 1 0 5.5
v 0 0 -5.5
v 1 0 -5.5
v 0 0 -6.5
v 1 0 -6.5
v 0 0 -7.5
v 1 0 -7.5
v 0 1 7.5
v 1 1 7.5
v 0 1 6.5
v 1 1 6.5
v 0 1 5.5
v 1 1 5.5
v 0 1 -5.5
v 1 1 -5.5
v 0 1 -6.5
v 1 1 -6.5
v 0 1 -7.5
v 1 1 -7.5

# faces
f 7/1/1 2/1/1 1/1/1
f 8/2/1 3/2/1 2/2/1
f 8/1/1 2/1/1 7/1/1
f 9/1/1 4/1/1 3/1/1
f 9/2/1 3/2/1 8/2/1
f 10/2/1 5/2/1 4/2/1
f 10/1/1 4/1/1 9/1/1
f 11/1/1 6/1/1 5/1/1
f 11/2/1 5/2/1 10/2/1
f 12/1/1 6/1/1 11/1/1
f 13/1/2 14/1/2 19/1/2
f 14/2/2 15/2/2 20/2/2
f 19/1/2 14/1/2 20/1/2
f 15/1/2 16/1/2 21/1/2
f 20/2/2 15/2/2 21/2/2
f 16/2/2 17/2/2 22/2/2
f 21/1/2 16/1/2 22/1/2
f 17/1/2 18/1/2 23/1/2
f 22/2/2 17/2/2 23/2/2
f 23/1/2 18/1/2 24/1/2
f 27/1/3 26/1/3 25/1/3
f 28/1/3 26/1/3 27/1/3
f 29/1/4 30/1/4 31/1/4
f 31/1/4 30/1/4 32/1/4
f 35/1/5 34/1/5 33/1/5
f 36/1/5 34/1/5 35/1/5
f 37/2/5 36/2/5 35/2/5
f 38/2/5 36/2/5 37/2/5
f 39/1/5 38/1/5 37/1/5
f 40/1/5 38/1/5 39/1/5
f 41/2/5 40/2/5 39/2/5
f 42/2/5 40/2/5 41/2/5
f 43/1/5 42/1/5 41/1/5
f 44/1/5 42/1/5 43/1/5
f 45/1/6 46/1/6 47/1/6
f 47/1/6 46/1/6 48/1/6
f 47/2/6 48/2/6 49/2/6
f 49/2/6 48/2/6 50/2/6
f 49/1/6 50/1/6 51/1/6
f 51/1/6 50/1/6 52/1/6
f 51/2/6 52/2/6 53/2/6
f 53/2/6 52/2/6 54/2/6
f 53/1/6 54/1/6 55/1/6
f 55/1/6 54/1/6 56/1/6
