# MagicaVoxel @ Ephtracy

# material
mtllib obj_pumpkin.mtl
usemtl palette

# normals
vn -1 0 0
vn 1 0 0
vn 0 0 1
vn 0 0 -1
vn 0 -1 0
vn 0 1 0

# texcoords
vt 0.0175781 0.5
vt 0.0683594 0.5
vt 0.654297 0.5

# verts
v -3.5 0 1.5
v -3.5 0 -1.5
v -3.5 1 2.5
v -3.5 1 1.5
v -3.5 1 -1.5
v -3.5 1 -2.5
v -3.5 4 2.5
v -3.5 4 1.5
v -3.5 4 -1.5
v -3.5 4 -2.5
v -3.5 5 1.5
v -3.5 5 -1.5
v -2.5 0 2.5
v -2.5 0 1.5
v -2.5 0 -1.5
v -2.5 0 -2.5
v -2.5 1 2.5
v -2.5 1 1.5
v -2.5 1 -1.5
v -2.5 1 -2.5
v -2.5 4 2.5
v -2.5 4 1.5
v -2.5 4 -1.5
v -2.5 4 -2.5
v -2.5 5 2.5
v -2.5 5 1.5
v -2.5 5 -1.5
v -2.5 5 -2.5
v -0.5 5 0.5
v -0.5 5 -0.5
v -0.5 6 0.5
v -0.5 6 -0.5
v 0.5 5 0.5
v 0.5 5 -0.5
v 0.5 6 0.5
v 0.5 6 -0.5
v 2.5 0 2.5
v 2.5 0 1.5
v 2.5 0 -1.5
v 2.5 0 -2.5
v 2.5 1 2.5
v 2.5 1 1.5
v 2.5 1 -1.5
v 2.5 1 -2.5
v 2.5 4 2.5
v 2.5 4 1.5
v 2.5 4 -1.5
v 2.5 4 -2.5
v 2.5 5 2.5
v 2.5 5 1.5
v 2.5 5 -1.5
v 2.5 5 -2.5
v 3.5 0 1.5
v 3.5 0 -1.5
v 3.5 1 2.5
v 3.5 1 1.5
v 3.5 1 -1.5
v 3.5 1 -2.5
v 3.5 4 2.5
v 3.5 4 1.5
v 3.5 4 -1.5
v 3.5 4 -2.5
v 3.5 5 1.5
v 3.5 5 -1.5
v -3.5 1 2.5
v -3.5 4 2.5
v -2.5 0 2.5
v -2.5 1 2.5
v -2.5 4 2.5
v -2.5 5 2.5
v -1.5 1 2.5
v -1.5 2 2.5
v -1.5 3 2.5
v -1.5 4 2.5
v -0.5 3 2.5
v -0.5 4 2.5
v 0.5 3 2.5
v 0.5 4 2.5
v 1.5 1 2.5
v 1.5 2 2.5
v 1.5 3 2.5
v 1.5 4 2.5
v 2.5 0 2.5
v 2.5 1 2.5
v 2.5 4 2.5
v 2.5 5 2.5
v 3.5 1 2.5
v 3.5 4 2.5
v -3.5 0 1.5
v -3.5 1 1.5
v -3.5 4 1.5
v -3.5 5 1.5
v -2.5 0 1.5
v -2.5 1 1.5
v -2.5 4 1.5
v -2.5 5 1.5
v 2.5 0 1.5
v 2.5 1 1.5
v 2.5 4 1.5
v 2.5 5 1.5
v 3.5 0 1.5
v 3.5 1 1.5
v 3.5 4 1.5
v 3.5 5 1.5
v -0.5 5 0.5
v -0.5 6 0.5
v 0.5 5 0.5
v 0.5 6 0.5
v -0.5 5 -0.5
v -0.5 6 -0.5
v 0.5 5 -0.5
v 0.5 6 -0.5
v -3.5 0 -1.5
v -3.5 1 -1.5
v -3.5 4 -1.5
v -3.5 5 -1.5
v -2.5 0 -1.5
v -2.5 1 -1.5
v -2.5 4 -1.5
v -2.5 5 -1.5
v 2.5 0 -1.5
v 2.5 1 -1.5
v 2.5 4 -1.5
v 2.5 5 -1.5
v 3.5 0 -1.5
v 3.5 1 -1.5
v 3.5 4 -1.5
v 3.5 5 -1.5
v -3.5 1 -2.5
v -3.5 4 -2.5
v -2.5 0 -2.5
v -2.5 1 -2.5
v -2.5 4 -2.5
v -2.5 5 -2.5
v 2.5 0 -2.5
v 2.5 1 -2.5
v 2.5 4 -2.5
v 2.5 5 -2.5
v 3.5 1 -2.5
v 3.5 4 -2.5
v -2.5 0 2.5
v 2.5 0 2.5
v -3.5 0 1.5
v -2.5 0 1.5
v 2.5 0 1.5
v 3.5 0 1.5
v -3.5 0 -1.5
v -2.5 0 -1.5
v 2.5 0 -1.5
v 3.5 0 -1.5
v -2.5 0 -2.5
v 2.5 0 -2.5
v -3.5 1 2.5
v -2.5 1 2.5
v 2.5 1 2.5
v 3.5 1 2.5
v -3.5 1 1.5
v -2.5 1 1.5
v 2.5 1 1.5
v 3.5 1 1.5
v -3.5 1 -1.5
v -2.5 1 -1.5
v 2.5 1 -1.5
v 3.5 1 -1.5
v -3.5 1 -2.5
v -2.5 1 -2.5
v 2.5 1 -2.5
v 3.5 1 -2.5
v -3.5 4 2.5
v -2.5 4 2.5
v 2.5 4 2.5
v 3.5 4 2.5
v -3.5 4 1.5
v -2.5 4 1.5
v 2.5 4 1.5
v 3.5 4 1.5
v -3.5 4 -1.5
v -2.5 4 -1.5
v 2.5 4 -1.5
v 3.5 4 -1.5
v -3.5 4 -2.5
v -2.5 4 -2.5
v 2.5 4 -2.5
v 3.5 4 -2.5
v -2.5 5 2.5
v 2.5 5 2.5
v -3.5 5 1.5
v -2.5 5 1.5
v 2.5 5 1.5
v 3.5 5 1.5
v -0.5 5 0.5
v 0.5 5 0.5
v -0.5 5 -0.5
v 0.5 5 -0.5
v -3.5 5 -1.5
v -2.5 5 -1.5
v 2.5 5 -1.5
v 3.5 5 -1.5
v -2.5 5 -2.5
v 2.5 5 -2.5
v -0.5 6 0.5
v 0.5 6 0.5
v -0.5 6 -0.5
v 0.5 6 -0.5

# faces
f 4/2/1 2/2/1 1/2/1
f 5/2/1 2/2/1 4/2/1
f 7/2/1 4/2/1 3/2/1
f 7/2/1 6/2/1 5/2/1
f 7/2/1 5/2/1 4/2/1
f 8/2/1 6/2/1 7/2/1
f 9/2/1 6/2/1 8/2/1
f 10/2/1 6/2/1 9/2/1
f 11/2/1 9/2/1 8/2/1
f 12/2/1 9/2/1 11/2/1
f 17/2/1 14/2/1 13/2/1
f 18/2/1 14/2/1 17/2/1
f 19/2/1 16/2/1 15/2/1
f 20/2/1 16/2/1 19/2/1
f 25/2/1 22/2/1 21/2/1
f 26/2/1 22/2/1 25/2/1
f 27/2/1 24/2/1 23/2/1
f 28/2/1 24/2/1 27/2/1
f 31/3/1 30/3/1 29/3/1
f 32/3/1 30/3/1 31/3/1
f 33/3/2 34/3/2 35/3/2
f 35/3/2 34/3/2 36/3/2
f 37/2/2 38/2/2 41/2/2
f 41/2/2 38/2/2 42/2/2
f 39/2/2 40/2/2 43/2/2
f 43/2/2 40/2/2 44/2/2
f 45/2/2 46/2/2 49/2/2
f 49/2/2 46/2/2 50/2/2
f 47/2/2 48/2/2 51/2/2
f 51/2/2 48/2/2 52/2/2
f 53/2/2 54/2/2 56/2/2
f 56/2/2 54/2/2 57/2/2
f 55/2/2 56/2/2 59/2/2
f 57/2/2 58/2/2 59/2/2
f 56/2/2 57/2/2 59/2/2
f 59/2/2 58/2/2 60/2/2
f 60/2/2 58/2/2 61/2/2
f 61/2/2 58/2/2 62/2/2
f 60/2/2 61/2/2 63/2/2
f 63/2/2 61/2/2 64/2/2
f 68/2/3 66/2/3 65/2/3
f 69/2/3 66/2/3 68/2/3
f 71/2/3 68/2/3 67/2/3
f 71/2/3 70/2/3 69/2/3
f 71/2/3 69/2/3 68/2/3
f 72/2/3 70/2/3 71/2/3
f 73/2/3 70/2/3 72/2/3
f 74/2/3 70/2/3 73/2/3
f 75/2/3 73/2/3 72/2/3
f 75/1/3 74/1/3 73/1/3
f 76/2/3 70/2/3 74/2/3
f 76/1/3 74/1/3 75/1/3
f 77/2/3 75/2/3 72/2/3
f 77/2/3 76/2/3 75/2/3
f 78/2/3 70/2/3 76/2/3
f 78/2/3 76/2/3 77/2/3
f 79/2/3 71/2/3 67/2/3
f 79/1/3 72/1/3 71/1/3
f 80/2/3 77/2/3 72/2/3
f 80/1/3 72/1/3 79/1/3
f 81/1/3 78/1/3 77/1/3
f 81/2/3 77/2/3 80/2/3
f 82/2/3 70/2/3 78/2/3
f 82/1/3 78/1/3 81/1/3
f 83/2/3 81/2/3 80/2/3
f 83/2/3 80/2/3 79/2/3
f 83/2/3 82/2/3 81/2/3
f 83/2/3 79/2/3 67/2/3
f 84/2/3 82/2/3 83/2/3
f 85/2/3 70/2/3 82/2/3
f 85/2/3 82/2/3 84/2/3
f 86/2/3 70/2/3 85/2/3
f 87/2/3 85/2/3 84/2/3
f 88/2/3 85/2/3 87/2/3
f 93/2/3 90/2/3 89/2/3
f 94/2/3 90/2/3 93/2/3
f 95/2/3 92/2/3 91/2/3
f 96/2/3 92/2/3 95/2/3
f 101/2/3 98/2/3 97/2/3
f 102/2/3 98/2/3 101/2/3
f 103/2/3 100/2/3 99/2/3
f 104/2/3 100/2/3 103/2/3
f 107/3/3 106/3/3 105/3/3
f 108/3/3 106/3/3 107/3/3
f 109/3/4 110/3/4 111/3/4
f 111/3/4 110/3/4 112/3/4
f 113/2/4 114/2/4 117/2/4
f 117/2/4 114/2/4 118/2/4
f 115/2/4 116/2/4 119/2/4
f 119/2/4 116/2/4 120/2/4
f 121/2/4 122/2/4 125/2/4
f 125/2/4 122/2/4 126/2/4
f 123/2/4 124/2/4 127/2/4
f 127/2/4 124/2/4 128/2/4
f 129/2/4 130/2/4 132/2/4
f 132/2/4 130/2/4 133/2/4
f 131/2/4 132/2/4 135/2/4
f 133/2/4 134/2/4 135/2/4
f 132/2/4 133/2/4 135/2/4
f 135/2/4 134/2/4 136/2/4
f 136/2/4 134/2/4 137/2/4
f 137/2/4 134/2/4 138/2/4
f 136/2/4 137/2/4 139/2/4
f 139/2/4 137/2/4 140/2/4
f 144/2/5 142/2/5 141/2/5
f 145/2/5 142/2/5 144/2/5
f 147/2/5 144/2/5 143/2/5
f 147/2/5 146/2/5 145/2/5
f 147/2/5 145/2/5 144/2/5
f 148/2/5 146/2/5 147/2/5
f 149/2/5 146/2/5 148/2/5
f 150/2/5 146/2/5 149/2/5
f 151/2/5 149/2/5 148/2/5
f 152/2/5 149/2/5 151/2/5
f 157/2/5 154/2/5 153/2/5
f 158/2/5 154/2/5 157/2/5
f 159/2/5 156/2/5 155/2/5
f 160/2/5 156/2/5 159/2/5
f 165/2/5 162/2/5 161/2/5
f 166/2/5 162/2/5 165/2/5
f 167/2/5 164/2/5 163/2/5
f 168/2/5 164/2/5 167/2/5
f 169/2/6 170/2/6 173/2/6
f 173/2/6 170/2/6 174/2/6
f 171/2/6 172/2/6 175/2/6
f 175/2/6 172/2/6 176/2/6
f 177/2/6 178/2/6 181/2/6
f 181/2/6 178/2/6 182/2/6
f 179/2/6 180/2/6 183/2/6
f 183/2/6 180/2/6 184/2/6
f 185/2/6 186/2/6 188/2/6
f 188/2/6 186/2/6 189/2/6
f 187/2/6 188/2/6 191/2/6
f 189/2/6 190/2/6 191/2/6
f 188/2/6 189/2/6 191/2/6
f 191/2/6 190/2/6 192/2/6
f 187/2/6 191/2/6 193/2/6
f 192/2/6 190/2/6 194/2/6
f 187/2/6 193/2/6 195/2/6
f 193/2/6 194/2/6 195/2/6
f 195/2/6 194/2/6 196/2/6
f 194/2/6 190/2/6 197/2/6
f 196/2/6 194/2/6 197/2/6
f 197/2/6 190/2/6 198/2/6
f 196/2/6 197/2/6 199/2/6
f 199/2/6 197/2/6 200/2/6
f 201/3/6 202/3/6 203/3/6
f 203/3/6 202/3/6 204/3/6
