# MagicaVoxel @ Ephtracy

# material
mtllib obj_table3b.mtl
usemtl palette

# normals
vn -1 0 0
vn 1 0 0
vn 0 0 1
vn 0 0 -1
vn 0 -1 0
vn 0 1 0

# texcoords
vt 0.341797 0.5
vt 0.986328 0.5

# verts
v -9 3 10
v -9 3 -10
v -9 4 10
v -9 4 -10
v -7 2 8
v -7 2 -8
v -7 3 8
v -7 3 -8
v -6 6 9
v -6 6 -10
v -6 7 9
v -6 7 -10
v -1 0 1
v -1 0 -1
v -1 2 1
v -1 2 -1
v -1 3 1
v -1 3 -1
v -1 6 1
v -1 6 -1
v 6 2 8
v 6 2 2
v 6 2 1
v 6 2 -1
v 6 2 -2
v 6 2 -8
v 6 3 10
v 6 3 8
v 6 3 2
v 6 3 1
v 6 3 -1
v 6 3 -2
v 6 3 -8
v 6 3 -10
v 6 4 10
v 6 4 -10
v -6 2 8
v -6 2 2
v -6 2 1
v -6 2 -1
v -6 2 -2
v -6 2 -8
v -6 3 10
v -6 3 8
v -6 3 2
v -6 3 1
v -6 3 -1
v -6 3 -2
v -6 3 -8
v -6 3 -10
v -6 4 10
v -6 4 -10
v 1 0 1
v 1 0 -1
v 1 2 1
v 1 2 -1
v 1 3 1
v 1 3 -1
v 1 6 1
v 1 6 -1
v 6 6 9
v 6 6 -10
v 6 7 9
v 6 7 -10
v 7 2 8
v 7 2 -8
v 7 3 8
v 7 3 -8
v 9 3 10
v 9 3 -10
v 9 4 10
v 9 4 -10
v -9 3 10
v -9 4 10
v -6 3 10
v -6 4 10
v 6 3 10
v 6 4 10
v 9 3 10
v 9 4 10
v -6 6 9
v -6 7 9
v 6 6 9
v 6 7 9
v -7 2 8
v -7 3 8
v -6 2 8
v -6 3 8
v 6 2 8
v 6 3 8
v 7 2 8
v 7 3 8
v -6 2 2
v -6 3 2
v 6 2 2
v 6 3 2
v -1 0 1
v -1 2 1
v -1 3 1
v -1 6 1
v 1 0 1
v 1 2 1
v 1 3 1
v 1 6 1
v -6 2 -1
v -6 3 -1
v -1 2 -1
v -1 3 -1
v 1 2 -1
v 1 3 -1
v 6 2 -1
v 6 3 -1
v -6 2 1
v -6 3 1
v -1 2 1
v -1 3 1
v 1 2 1
v 1 3 1
v 6 2 1
v 6 3 1
v -1 0 -1
v -1 2 -1
v -1 3 -1
v -1 6 -1
v 1 0 -1
v 1 2 -1
v 1 3 -1
v 1 6 -1
v -6 2 -2
v -6 3 -2
v 6 2 -2
v 6 3 -2
v -7 2 -8
v -7 3 -8
v -6 2 -8
v -6 3 -8
v 6 2 -8
v 6 3 -8
v 7 2 -8
v 7 3 -8
v -9 3 -10
v -9 4 -10
v -6 3 -10
v -6 4 -10
v -6 6 -10
v -6 7 -10
v 6 3 -10
v 6 4 -10
v 6 6 -10
v 6 7 -10
v 9 3 -10
v 9 4 -10
v -1 0 1
v 1 0 1
v -1 0 -1
v 1 0 -1
v -7 2 8
v -6 2 8
v 6 2 8
v 7 2 8
v -6 2 2
v 6 2 2
v -6 2 1
v -1 2 1
v 1 2 1
v 6 2 1
v -6 2 -1
v -1 2 -1
v 1 2 -1
v 6 2 -1
v -6 2 -2
v 6 2 -2
v -7 2 -8
v -6 2 -8
v 6 2 -8
v 7 2 -8
v -9 3 10
v -6 3 10
v 6 3 10
v 9 3 10
v -7 3 8
v -6 3 8
v 6 3 8
v 7 3 8
v -7 3 -8
v -6 3 -8
v 6 3 -8
v 7 3 -8
v -9 3 -10
v -6 3 -10
v 6 3 -10
v 9 3 -10
v -6 6 9
v 6 6 9
v -1 6 1
v 1 6 1
v -1 6 -1
v 1 6 -1
v -6 6 -10
v 6 6 -10
v -6 3 2
v 6 3 2
v -6 3 1
v -1 3 1
v 1 3 1
v 6 3 1
v -6 3 -1
v -1 3 -1
v 1 3 -1
v 6 3 -1
v -6 3 -2
v 6 3 -2
v -9 4 10
v -6 4 10
v 6 4 10
v 9 4 10
v -9 4 -10
v -6 4 -10
v 6 4 -10
v 9 4 -10
v -6 7 9
v 6 7 9
v -6 7 -10
v 6 7 -10

# faces
f 3/1/1 2/1/1 1/1/1
f 4/1/1 2/1/1 3/1/1
f 7/2/1 6/2/1 5/2/1
f 8/2/1 6/2/1 7/2/1
f 11/1/1 10/1/1 9/1/1
f 12/1/1 10/1/1 11/1/1
f 15/2/1 14/2/1 13/2/1
f 16/2/1 14/2/1 15/2/1
f 17/2/1 16/2/1 15/2/1
f 18/2/1 16/2/1 17/2/1
f 19/2/1 18/2/1 17/2/1
f 20/2/1 18/2/1 19/2/1
f 28/2/1 22/2/1 21/2/1
f 29/2/1 22/2/1 28/2/1
f 30/2/1 24/2/1 23/2/1
f 31/2/1 24/2/1 30/2/1
f 32/2/1 26/2/1 25/2/1
f 33/2/1 26/2/1 32/2/1
f 35/1/1 31/1/1 30/1/1
f 35/1/1 34/1/1 33/1/1
f 35/1/1 33/1/1 32/1/1
f 35/1/1 32/1/1 31/1/1
f 35/1/1 29/1/1 28/1/1
f 35/1/1 30/1/1 29/1/1
f 35/1/1 28/1/1 27/1/1
f 36/1/1 34/1/1 35/1/1
f 37/2/2 38/2/2 44/2/2
f 44/2/2 38/2/2 45/2/2
f 39/2/2 40/2/2 46/2/2
f 46/2/2 40/2/2 47/2/2
f 41/2/2 42/2/2 48/2/2
f 48/2/2 42/2/2 49/2/2
f 46/1/2 47/1/2 51/1/2
f 49/1/2 50/1/2 51/1/2
f 48/1/2 49/1/2 51/1/2
f 47/1/2 48/1/2 51/1/2
f 44/1/2 45/1/2 51/1/2
f 45/1/2 46/1/2 51/1/2
f 43/1/2 44/1/2 51/1/2
f 51/1/2 50/1/2 52/1/2
f 53/2/2 54/2/2 55/2/2
f 55/2/2 54/2/2 56/2/2
f 55/2/2 56/2/2 57/2/2
f 57/2/2 56/2/2 58/2/2
f 57/2/2 58/2/2 59/2/2
f 59/2/2 58/2/2 60/2/2
f 61/1/2 62/1/2 63/1/2
f 63/1/2 62/1/2 64/1/2
f 65/2/2 66/2/2 67/2/2
f 67/2/2 66/2/2 68/2/2
f 69/1/2 70/1/2 71/1/2
f 71/1/2 70/1/2 72/1/2
f 75/1/3 74/1/3 73/1/3
f 76/1/3 74/1/3 75/1/3
f 79/1/3 78/1/3 77/1/3
f 80/1/3 78/1/3 79/1/3
f 83/1/3 82/1/3 81/1/3
f 84/1/3 82/1/3 83/1/3
f 87/2/3 86/2/3 85/2/3
f 88/2/3 86/2/3 87/2/3
f 91/2/3 90/2/3 89/2/3
f 92/2/3 90/2/3 91/2/3
f 95/2/3 94/2/3 93/2/3
f 96/2/3 94/2/3 95/2/3
f 101/2/3 98/2/3 97/2/3
f 102/2/3 98/2/3 101/2/3
f 103/2/3 100/2/3 99/2/3
f 104/2/3 100/2/3 103/2/3
f 107/2/3 106/2/3 105/2/3
f 108/2/3 106/2/3 107/2/3
f 111/2/3 110/2/3 109/2/3
f 112/2/3 110/2/3 111/2/3
f 113/2/4 114/2/4 115/2/4
f 115/2/4 114/2/4 116/2/4
f 117/2/4 118/2/4 119/2/4
f 119/2/4 118/2/4 120/2/4
f 121/2/4 122/2/4 125/2/4
f 125/2/4 122/2/4 126/2/4
f 123/2/4 124/2/4 127/2/4
f 127/2/4 124/2/4 128/2/4
f 129/2/4 130/2/4 131/2/4
f 131/2/4 130/2/4 132/2/4
f 133/2/4 134/2/4 135/2/4
f 135/2/4 134/2/4 136/2/4
f 137/2/4 138/2/4 139/2/4
f 139/2/4 138/2/4 140/2/4
f 141/1/4 142/1/4 143/1/4
f 143/1/4 142/1/4 144/1/4
f 145/1/4 146/1/4 149/1/4
f 149/1/4 146/1/4 150/1/4
f 147/1/4 148/1/4 151/1/4
f 151/1/4 148/1/4 152/1/4
f 155/2/5 154/2/5 153/2/5
f 156/2/5 154/2/5 155/2/5
f 161/2/5 158/2/5 157/2/5
f 162/2/5 160/2/5 159/2/5
f 163/2/5 161/2/5 157/2/5
f 163/2/5 162/2/5 161/2/5
f 164/2/5 162/2/5 163/2/5
f 165/2/5 162/2/5 164/2/5
f 166/2/5 160/2/5 162/2/5
f 166/2/5 162/2/5 165/2/5
f 167/2/5 163/2/5 157/2/5
f 170/2/5 160/2/5 166/2/5
f 171/2/5 169/2/5 168/2/5
f 171/2/5 170/2/5 169/2/5
f 171/2/5 167/2/5 157/2/5
f 171/2/5 168/2/5 167/2/5
f 172/2/5 160/2/5 170/2/5
f 172/2/5 170/2/5 171/2/5
f 173/2/5 171/2/5 157/2/5
f 174/2/5 171/2/5 173/2/5
f 175/2/5 160/2/5 172/2/5
f 176/2/5 160/2/5 175/2/5
f 181/1/5 178/1/5 177/1/5
f 182/1/5 178/1/5 181/1/5
f 183/1/5 180/1/5 179/1/5
f 184/1/5 180/1/5 183/1/5
f 185/1/5 181/1/5 177/1/5
f 188/1/5 180/1/5 184/1/5
f 189/1/5 186/1/5 185/1/5
f 189/1/5 185/1/5 177/1/5
f 190/1/5 186/1/5 189/1/5
f 191/1/5 188/1/5 187/1/5
f 192/1/5 180/1/5 188/1/5
f 192/1/5 188/1/5 191/1/5
f 195/1/5 194/1/5 193/1/5
f 196/1/5 194/1/5 195/1/5
f 197/1/5 195/1/5 193/1/5
f 198/1/5 194/1/5 196/1/5
f 199/1/5 197/1/5 193/1/5
f 199/1/5 198/1/5 197/1/5
f 200/1/5 194/1/5 198/1/5
f 200/1/5 198/1/5 199/1/5
f 201/2/6 202/2/6 203/2/6
f 203/2/6 202/2/6 204/2/6
f 204/2/6 202/2/6 205/2/6
f 205/2/6 202/2/6 206/2/6
f 207/2/6 208/2/6 211/2/6
f 209/2/6 210/2/6 211/2/6
f 208/2/6 209/2/6 211/2/6
f 211/2/6 210/2/6 212/2/6
f 213/1/6 214/1/6 217/1/6
f 217/1/6 214/1/6 218/1/6
f 215/1/6 216/1/6 219/1/6
f 219/1/6 216/1/6 220/1/6
f 221/1/6 222/1/6 223/1/6
f 223/1/6 222/1/6 224/1/6
