# MagicaVoxel @ Ephtracy

# material
mtllib obj_curb4.mtl
usemtl palette

# normals
vn -1 0 0
vn 1 0 0
vn 0 0 1
vn 0 0 -1
vn 0 -1 0
vn 0 1 0

# texcoords
vt 0.767578 0.5
vt 0.794922 0.5
vt 0.974609 0.5
vt 0.978516 0.5

# verts
v -8 0 6
v -8 0 5
v -8 0 3
v -8 0 -1
v -8 0 -8
v -8 1 6
v -8 1 5
v -8 1 3
v -8 1 -1
v -8 1 -8
v -6 1 -3
v -6 1 -4
v -6 2 -3
v -6 2 -4
v -2 1 1
v -2 1 -0
v -2 2 1
v -2 2 -0
v 4 1 -2
v 4 1 -3
v 4 2 -2
v 4 2 -3
v -5 1 -3
v -5 1 -4
v -5 2 -3
v -5 2 -4
v -1 1 1
v -1 1 -0
v -1 2 1
v -1 2 -0
v 5 1 -2
v 5 1 -3
v 5 2 -2
v 5 2 -3
v 8 0 6
v 8 0 5
v 8 0 4
v 8 0 -8
v 8 1 6
v 8 1 5
v 8 1 4
v 8 1 -8
v -8 0 6
v -8 1 6
v -5 0 6
v -5 1 6
v 0 0 6
v 0 1 6
v 8 0 6
v 8 1 6
v -2 1 1
v -2 2 1
v -1 1 1
v -1 2 1
v 4 1 -2
v 4 2 -2
v 5 1 -2
v 5 2 -2
v -6 1 -3
v -6 2 -3
v -5 1 -3
v -5 2 -3
v -2 1 -0
v -2 2 -0
v -1 1 -0
v -1 2 -0
v 4 1 -3
v 4 2 -3
v 5 1 -3
v 5 2 -3
v -6 1 -4
v -6 2 -4
v -5 1 -4
v -5 2 -4
v -8 0 -8
v -8 1 -8
v -3 0 -8
v -3 1 -8
v 0 0 -8
v 0 1 -8
v 8 0 -8
v 8 1 -8
v -8 0 6
v -5 0 6
v 0 0 6
v 8 0 6
v -8 0 5
v -6 0 5
v -5 0 5
v 0 0 5
v 8 0 5
v -7 0 4
v -6 0 4
v 6 0 4
v 8 0 4
v -8 0 3
v -7 0 3
v 4 0 3
v 6 0 3
v 3 0 2
v 4 0 2
v -8 0 -1
v -7 0 -1
v -6 0 -2
v -5 0 -2
v 3 0 -2
v 4 0 -2
v -7 0 -3
v -6 0 -3
v -5 0 -3
v -4 0 -3
v 3 0 -3
v 4 0 -3
v 1 0 -5
v 3 0 -5
v -4 0 -6
v -3 0 -6
v 0 0 -6
v 1 0 -6
v -8 0 -8
v -3 0 -8
v 0 0 -8
v 8 0 -8
v -8 1 6
v -5 1 6
v 0 1 6
v 8 1 6
v -8 1 5
v -6 1 5
v -5 1 5
v 0 1 5
v 8 1 5
v -7 1 4
v -6 1 4
v 6 1 4
v 8 1 4
v -8 1 3
v -7 1 3
v 4 1 3
v 6 1 3
v 3 1 2
v 4 1 2
v -2 1 1
v -1 1 1
v -2 1 -0
v -1 1 -0
v -8 1 -1
v -7 1 -1
v -6 1 -2
v -5 1 -2
v 3 1 -2
v 4 1 -2
v 5 1 -2
v -7 1 -3
v -6 1 -3
v -5 1 -3
v -4 1 -3
v 3 1 -3
v 4 1 -3
v 5 1 -3
v -6 1 -4
v -5 1 -4
v 1 1 -5
v 3 1 -5
v -4 1 -6
v -3 1 -6
v 0 1 -6
v 1 1 -6
v -8 1 -8
v -3 1 -8
v 0 1 -8
v 8 1 -8
v -2 2 1
v -1 2 1
v -2 2 -0
v -1 2 -0
v 4 2 -2
v 5 2 -2
v -6 2 -3
v -5 2 -3
v 4 2 -3
v 5 2 -3
v -6 2 -4
v -5 2 -4

# faces
f 6/4/1 2/4/1 1/4/1
f 7/1/1 3/1/1 2/1/1
f 7/4/1 2/4/1 6/4/1
f 8/2/1 4/2/1 3/2/1
f 8/1/1 3/1/1 7/1/1
f 9/1/1 5/1/1 4/1/1
f 9/2/1 4/2/1 8/2/1
f 10/1/1 5/1/1 9/1/1
f 13/1/1 12/1/1 11/1/1
f 14/1/1 12/1/1 13/1/1
f 17/2/1 16/2/1 15/2/1
f 18/2/1 16/2/1 17/2/1
f 21/1/1 20/1/1 19/1/1
f 22/1/1 20/1/1 21/1/1
f 23/1/2 24/1/2 25/1/2
f 25/1/2 24/1/2 26/1/2
f 27/2/2 28/2/2 29/2/2
f 29/2/2 28/2/2 30/2/2
f 31/1/2 32/1/2 33/1/2
f 33/1/2 32/1/2 34/1/2
f 35/4/2 36/4/2 39/4/2
f 36/2/2 37/2/2 40/2/2
f 39/4/2 36/4/2 40/4/2
f 37/1/2 38/1/2 41/1/2
f 40/2/2 37/2/2 41/2/2
f 41/1/2 38/1/2 42/1/2
f 45/4/3 44/4/3 43/4/3
f 46/4/3 44/4/3 45/4/3
f 47/3/3 46/3/3 45/3/3
f 48/3/3 46/3/3 47/3/3
f 49/4/3 48/4/3 47/4/3
f 50/4/3 48/4/3 49/4/3
f 53/2/3 52/2/3 51/2/3
f 54/2/3 52/2/3 53/2/3
f 57/1/3 56/1/3 55/1/3
f 58/1/3 56/1/3 57/1/3
f 61/1/3 60/1/3 59/1/3
f 62/1/3 60/1/3 61/1/3
f 63/2/4 64/2/4 65/2/4
f 65/2/4 64/2/4 66/2/4
f 67/1/4 68/1/4 69/1/4
f 69/1/4 68/1/4 70/1/4
f 71/1/4 72/1/4 73/1/4
f 73/1/4 72/1/4 74/1/4
f 75/1/4 76/1/4 77/1/4
f 77/1/4 76/1/4 78/1/4
f 77/2/4 78/2/4 79/2/4
f 79/2/4 78/2/4 80/2/4
f 79/1/4 80/1/4 81/1/4
f 81/1/4 80/1/4 82/1/4
f 87/4/5 84/4/5 83/4/5
f 88/4/5 84/4/5 87/4/5
f 89/3/5 85/3/5 84/3/5
f 89/4/5 84/4/5 88/4/5
f 90/4/5 86/4/5 85/4/5
f 90/3/5 85/3/5 89/3/5
f 91/4/5 86/4/5 90/4/5
f 92/1/5 88/1/5 87/1/5
f 93/2/5 89/2/5 88/2/5
f 93/1/5 88/1/5 92/1/5
f 93/2/5 90/2/5 89/2/5
f 93/2/5 91/2/5 90/2/5
f 94/2/5 91/2/5 93/2/5
f 95/2/5 91/2/5 94/2/5
f 96/1/5 92/1/5 87/1/5
f 97/2/5 93/2/5 92/2/5
f 97/1/5 92/1/5 96/1/5
f 97/2/5 94/2/5 93/2/5
f 98/2/5 94/2/5 97/2/5
f 99/1/5 95/1/5 94/1/5
f 99/2/5 94/2/5 98/2/5
f 100/2/5 98/2/5 97/2/5
f 100/2/5 97/2/5 96/2/5
f 101/1/5 99/1/5 98/1/5
f 101/2/5 98/2/5 100/2/5
f 102/2/5 100/2/5 96/2/5
f 103/2/5 100/2/5 102/2/5
f 104/2/5 100/2/5 103/2/5
f 105/2/5 100/2/5 104/2/5
f 106/1/5 101/1/5 100/1/5
f 106/2/5 100/2/5 105/2/5
f 107/1/5 99/1/5 101/1/5
f 107/1/5 101/1/5 106/1/5
f 108/1/5 103/1/5 102/1/5
f 108/2/5 104/2/5 103/2/5
f 109/1/5 105/1/5 104/1/5
f 109/2/5 104/2/5 108/2/5
f 110/2/5 106/2/5 105/2/5
f 110/1/5 105/1/5 109/1/5
f 110/2/5 107/2/5 106/2/5
f 111/2/5 107/2/5 110/2/5
f 112/2/5 107/2/5 111/2/5
f 113/1/5 99/1/5 107/1/5
f 113/2/5 107/2/5 112/2/5
f 114/2/5 112/2/5 111/2/5
f 115/1/5 113/1/5 112/1/5
f 115/2/5 112/2/5 114/2/5
f 116/1/5 109/1/5 108/1/5
f 116/1/5 110/1/5 109/1/5
f 116/1/5 111/1/5 110/1/5
f 116/2/5 114/2/5 111/2/5
f 117/2/5 114/2/5 116/2/5
f 118/2/5 114/2/5 117/2/5
f 119/1/5 115/1/5 114/1/5
f 119/2/5 114/2/5 118/2/5
f 120/1/5 108/1/5 102/1/5
f 120/1/5 116/1/5 108/1/5
f 120/1/5 117/1/5 116/1/5
f 121/2/5 118/2/5 117/2/5
f 121/1/5 117/1/5 120/1/5
f 122/1/5 119/1/5 118/1/5
f 122/2/5 118/2/5 121/2/5
f 123/1/5 95/1/5 99/1/5
f 123/1/5 119/1/5 122/1/5
f 123/1/5 113/1/5 115/1/5
f 123/1/5 115/1/5 119/1/5
f 123/1/5 99/1/5 113/1/5
f 124/4/6 125/4/6 128/4/6
f 128/4/6 125/4/6 129/4/6
f 125/3/6 126/3/6 130/3/6
f 129/4/6 125/4/6 130/4/6
f 126/4/6 127/4/6 131/4/6
f 130/3/6 126/3/6 131/3/6
f 131/4/6 127/4/6 132/4/6
f 128/1/6 129/1/6 133/1/6
f 129/2/6 130/2/6 134/2/6
f 133/1/6 129/1/6 134/1/6
f 130/2/6 131/2/6 134/2/6
f 131/2/6 132/2/6 134/2/6
f 134/2/6 132/2/6 135/2/6
f 135/2/6 132/2/6 136/2/6
f 128/1/6 133/1/6 137/1/6
f 133/2/6 134/2/6 138/2/6
f 137/1/6 133/1/6 138/1/6
f 134/2/6 135/2/6 138/2/6
f 138/2/6 135/2/6 139/2/6
f 135/1/6 136/1/6 140/1/6
f 139/2/6 135/2/6 140/2/6
f 138/2/6 139/2/6 141/2/6
f 137/2/6 138/2/6 141/2/6
f 139/1/6 140/1/6 142/1/6
f 141/2/6 139/2/6 142/2/6
f 137/2/6 141/2/6 143/2/6
f 143/2/6 141/2/6 144/2/6
f 137/2/6 143/2/6 145/2/6
f 144/2/6 141/2/6 146/2/6
f 137/2/6 145/2/6 147/2/6
f 145/2/6 146/2/6 147/2/6
f 147/2/6 146/2/6 148/2/6
f 148/2/6 146/2/6 149/2/6
f 149/2/6 146/2/6 150/2/6
f 141/1/6 142/1/6 151/1/6
f 150/2/6 146/2/6 151/2/6
f 146/2/6 141/2/6 151/2/6
f 142/1/6 140/1/6 152/1/6
f 151/1/6 142/1/6 152/1/6
f 152/1/6 140/1/6 153/1/6
f 148/2/6 149/2/6 154/2/6
f 147/1/6 148/1/6 154/1/6
f 149/1/6 150/1/6 155/1/6
f 154/2/6 149/2/6 155/2/6
f 150/2/6 151/2/6 156/2/6
f 155/1/6 150/1/6 156/1/6
f 151/2/6 152/2/6 156/2/6
f 156/2/6 152/2/6 157/2/6
f 157/2/6 152/2/6 158/2/6
f 158/2/6 152/2/6 159/2/6
f 153/1/6 140/1/6 160/1/6
f 154/1/6 155/1/6 161/1/6
f 156/1/6 157/1/6 162/1/6
f 157/2/6 158/2/6 163/2/6
f 159/1/6 160/1/6 164/1/6
f 163/2/6 158/2/6 164/2/6
f 158/1/6 159/1/6 164/1/6
f 157/2/6 163/2/6 165/2/6
f 162/1/6 157/1/6 165/1/6
f 161/1/6 162/1/6 165/1/6
f 165/2/6 163/2/6 166/2/6
f 166/2/6 163/2/6 167/2/6
f 163/1/6 164/1/6 168/1/6
f 167/2/6 163/2/6 168/2/6
f 147/1/6 154/1/6 169/1/6
f 154/1/6 161/1/6 169/1/6
f 161/1/6 165/1/6 169/1/6
f 165/1/6 166/1/6 169/1/6
f 166/2/6 167/2/6 170/2/6
f 169/1/6 166/1/6 170/1/6
f 167/1/6 168/1/6 171/1/6
f 170/2/6 167/2/6 171/2/6
f 140/1/6 136/1/6 172/1/6
f 171/1/6 168/1/6 172/1/6
f 164/1/6 160/1/6 172/1/6
f 168/1/6 164/1/6 172/1/6
f 160/1/6 140/1/6 172/1/6
f 173/2/6 174/2/6 175/2/6
f 175/2/6 174/2/6 176/2/6
f 177/1/6 178/1/6 181/1/6
f 181/1/6 178/1/6 182/1/6
f 179/1/6 180/1/6 183/1/6
f 183/1/6 180/1/6 184/1/6
