# MagicaVoxel @ Ephtracy

# material
mtllib obj_bench2.mtl
usemtl palette

# normals
vn -1 0 0
vn 1 0 0
vn 0 0 1
vn 0 0 -1
vn 0 -1 0
vn 0 1 0

# texcoords
vt 0.0332031 0.5
vt 0.341797 0.5
vt 0.369141 0.5
vt 0.373047 0.5
vt 0.615234 0.5
vt 0.673828 0.5
vt 0.962891 0.5
vt 0.990234 0.5

# verts
v -7 0 -0.5
v -7 0 -1.5
v -7 0 -7.5
v -7 0 -8.5
v -7 3 -1.5
v -7 3 -7.5
v -7 4 -0.5
v -7 4 -7.5
v -7 8 -7.5
v -7 8 -8.5
v -5 5 -4.5
v -5 5 -5.5
v -5 6 -4.5
v -5 6 -5.5
v -5 8 -4.5
v -5 8 -5.5
v -5 9 -4.5
v -5 9 -5.5
v -4 4 -3.5
v -4 4 -6.5
v -4 5 -4.5
v -4 5 -5.5
v -4 6 -3.5
v -4 6 -4.5
v -4 6 -5.5
v -4 6 -6.5
v -4 8 -3.5
v -4 8 -4.5
v -4 8 -5.5
v -4 8 -6.5
v -4 9 -4.5
v -4 9 -5.5
v -4 10 -3.5
v -4 10 -6.5
v -3 4 -1.5
v -3 4 -3.5
v -3 4 -6.5
v -3 4 -7.5
v -3 6 -3.5
v -3 6 -6.5
v -3 7 -7.5
v -3 8 -3.5
v -3 8 -6.5
v -3 8 -7.5
v -3 10 -1.5
v -3 10 -3.5
v -3 10 -6.5
v -3 10 -7.5
v -1 10 -2.5
v -1 10 -3.5
v -1 10 -4.5
v -1 10 -5.5
v -1 11 -2.5
v -1 11 -3.5
v -1 11 -4.5
v -1 11 -5.5
v 1 8 -7.5
v 1 8 -8.5
v 1 9 -7.5
v 1 9 -8.5
v 2 10 -4.5
v 2 10 -5.5
v 2 10 -6.5
v 2 11 -4.5
v 2 11 -5.5
v 2 11 -6.5
v 4 4 -2.5
v 4 4 -3.5
v 4 4 -6.5
v 4 4 -7.5
v 4 5 -6.5
v 4 5 -7.5
v 4 6 -2.5
v 4 6 -3.5
v 4 7 -2.5
v 4 7 -3.5
v 4 10 -2.5
v 4 10 -3.5
v 4 10 -5.5
v 4 11 -3.5
v 4 11 -5.5
v 5 6 -2.5
v 5 6 -3.5
v 5 7 -2.5
v 5 7 -3.5
v 7 0 -0.5
v 7 0 -1.5
v 7 0 -7.5
v 7 0 -8.5
v 7 3 -0.5
v 7 3 -1.5
v 7 3 -7.5
v 7 3 -8.5
v -6 0 -0.5
v -6 0 -1.5
v -6 0 -7.5
v -6 0 -8.5
v -6 3 -0.5
v -6 3 -1.5
v -6 3 -7.5
v -6 3 -8.5
v 0 10 -2.5
v 0 10 -3.5
v 0 10 -4.5
v 0 11 -2.5
v 0 11 -3.5
v 0 11 -4.5
v 1 4 -1.5
v 1 4 -3.5
v 1 4 -6.5
v 1 4 -7.5
v 1 5 -6.5
v 1 5 -7.5
v 1 10 -1.5
v 1 10 -3.5
v 1 10 -4.5
v 1 10 -5.5
v 1 11 -4.5
v 1 11 -5.5
v 3 10 -4.5
v 3 10 -5.5
v 3 11 -4.5
v 3 11 -5.5
v 5 4 -6.5
v 5 4 -7.5
v 5 5 -6.5
v 5 5 -7.5
v 5 10 -5.5
v 5 10 -6.5
v 5 11 -5.5
v 5 11 -6.5
v 6 4 -2.5
v 6 4 -3.5
v 6 5 -6.5
v 6 5 -7.5
v 6 6 -6.5
v 6 6 -7.5
v 6 7 -3.5
v 6 7 -4.5
v 6 7 -6.5
v 6 7 -7.5
v 6 8 -4.5
v 6 8 -5.5
v 6 8 -7.5
v 6 8 -8.5
v 6 9 -4.5
v 6 9 -5.5
v 6 9 -7.5
v 6 9 -8.5
v 6 10 -2.5
v 6 10 -3.5
v 6 10 -4.5
v 6 10 -5.5
v 6 10 -6.5
v 6 10 -7.5
v 6 11 -3.5
v 6 11 -5.5
v 7 4 -3.5
v 7 4 -6.5
v 7 6 -6.5
v 7 6 -7.5
v 7 7 -3.5
v 7 7 -4.5
v 7 7 -6.5
v 7 7 -7.5
v 7 8 -4.5
v 7 8 -5.5
v 7 9 -4.5
v 7 9 -5.5
v 7 10 -4.5
v 7 10 -6.5
v 8 0 -0.5
v 8 0 -1.5
v 8 0 -7.5
v 8 0 -8.5
v 8 3 -1.5
v 8 3 -7.5
v 8 4 -0.5
v 8 4 -7.5
v 8 8 -7.5
v 8 8 -8.5
v -7 0 -0.5
v -7 4 -0.5
v -6 0 -0.5
v -6 3 -0.5
v 7 0 -0.5
v 7 3 -0.5
v 8 0 -0.5
v 8 4 -0.5
v -3 4 -1.5
v -3 10 -1.5
v -2 4 -1.5
v -2 10 -1.5
v 1 4 -1.5
v 1 10 -1.5
v -1 10 -2.5
v -1 11 -2.5
v 0 10 -2.5
v 0 11 -2.5
v 4 4 -2.5
v 4 6 -2.5
v 4 7 -2.5
v 4 10 -2.5
v 5 6 -2.5
v 5 7 -2.5
v 6 4 -2.5
v 6 10 -2.5
v -4 4 -3.5
v -4 6 -3.5
v -4 8 -3.5
v -4 10 -3.5
v -3 4 -3.5
v -3 6 -3.5
v -3 8 -3.5
v -3 10 -3.5
v 1 4 -3.5
v 1 10 -3.5
v 4 4 -3.5
v 4 6 -3.5
v 4 7 -3.5
v 4 10 -3.5
v 4 11 -3.5
v 5 6 -3.5
v 5 7 -3.5
v 6 4 -3.5
v 6 7 -3.5
v 6 10 -3.5
v 6 11 -3.5
v 7 4 -3.5
v 7 7 -3.5
v -5 5 -4.5
v -5 6 -4.5
v -5 8 -4.5
v -5 9 -4.5
v -4 5 -4.5
v -4 6 -4.5
v -4 8 -4.5
v -4 9 -4.5
v 0 10 -4.5
v 0 11 -4.5
v 1 10 -4.5
v 1 11 -4.5
v 2 10 -4.5
v 2 11 -4.5
v 3 10 -4.5
v 3 11 -4.5
v 6 7 -4.5
v 6 8 -4.5
v 6 9 -4.5
v 6 10 -4.5
v 7 7 -4.5
v 7 8 -4.5
v 7 9 -4.5
v 7 10 -4.5
v 3 10 -5.5
v 3 11 -5.5
v 4 10 -5.5
v 4 11 -5.5
v 6 8 -5.5
v 6 9 -5.5
v 7 8 -5.5
v 7 9 -5.5
v -7 0 -7.5
v -7 3 -7.5
v -7 4 -7.5
v -7 8 -7.5
v -6 0 -7.5
v -6 3 -7.5
v -6 4 -7.5
v -6 7 -7.5
v -3 4 -7.5
v -3 7 -7.5
v -3 8 -7.5
v 1 4 -7.5
v 1 5 -7.5
v 4 4 -7.5
v 4 5 -7.5
v 5 4 -7.5
v 5 5 -7.5
v 6 5 -7.5
v 6 6 -7.5
v 6 7 -7.5
v 6 8 -7.5
v 7 0 -7.5
v 7 3 -7.5
v 7 4 -7.5
v 7 6 -7.5
v 7 7 -7.5
v 8 0 -7.5
v 8 3 -7.5
v 8 4 -7.5
v 8 8 -7.5
v -7 0 -1.5
v -7 3 -1.5
v -6 0 -1.5
v -6 3 -1.5
v 7 0 -1.5
v 7 3 -1.5
v 8 0 -1.5
v 8 3 -1.5
v -5 5 -5.5
v -5 6 -5.5
v -5 8 -5.5
v -5 9 -5.5
v -4 5 -5.5
v -4 6 -5.5
v -4 8 -5.5
v -4 9 -5.5
v -1 10 -5.5
v -1 11 -5.5
v 1 10 -5.5
v 1 11 -5.5
v 5 10 -5.5
v 5 11 -5.5
v 6 10 -5.5
v 6 11 -5.5
v -4 4 -6.5
v -4 6 -6.5
v -4 8 -6.5
v -4 10 -6.5
v -3 4 -6.5
v -3 6 -6.5
v -3 8 -6.5
v -3 10 -6.5
v 1 4 -6.5
v 1 5 -6.5
v 2 10 -6.5
v 2 11 -6.5
v 4 4 -6.5
v 4 5 -6.5
v 5 4 -6.5
v 5 5 -6.5
v 5 10 -6.5
v 5 11 -6.5
v 6 5 -6.5
v 6 6 -6.5
v 6 7 -6.5
v 6 10 -6.5
v 7 4 -6.5
v 7 6 -6.5
v 7 7 -6.5
v 7 10 -6.5
v -3 8 -7.5
v -3 10 -7.5
v -2 8 -7.5
v -2 10 -7.5
v 1 8 -7.5
v 1 9 -7.5
v 1 10 -7.5
v 6 9 -7.5
v 6 10 -7.5
v -7 0 -8.5
v -7 8 -8.5
v -6 0 -8.5
v -6 3 -8.5
v -6 4 -8.5
v -6 7 -8.5
v 1 8 -8.5
v 1 9 -8.5
v 6 8 -8.5
v 6 9 -8.5
v 7 0 -8.5
v 7 3 -8.5
v 7 4 -8.5
v 7 7 -8.5
v 8 0 -8.5
v 8 8 -8.5
v -7 0 -0.5
v -6 0 -0.5
v 7 0 -0.5
v 8 0 -0.5
v -7 0 -1.5
v -6 0 -1.5
v 7 0 -1.5
v 8 0 -1.5
v -7 0 -7.5
v -6 0 -7.5
v 7 0 -7.5
v 8 0 -7.5
v -7 0 -8.5
v -6 0 -8.5
v 7 0 -8.5
v 8 0 -8.5
v -6 3 -0.5
v 7 3 -0.5
v -7 3 -1.5
v -6 3 -1.5
v 7 3 -1.5
v 8 3 -1.5
v -7 3 -7.5
v -6 3 -7.5
v 7 3 -7.5
v 8 3 -7.5
v -6 3 -8.5
v 7 3 -8.5
v -5 5 -4.5
v -4 5 -4.5
v -5 5 -5.5
v -4 5 -5.5
v 1 5 -6.5
v 4 5 -6.5
v 5 5 -6.5
v 6 5 -6.5
v 1 5 -7.5
v 4 5 -7.5
v 5 5 -7.5
v 6 5 -7.5
v 6 6 -6.5
v 7 6 -6.5
v 6 6 -7.5
v 7 6 -7.5
v 4 7 -2.5
v 5 7 -2.5
v 4 7 -3.5
v 5 7 -3.5
v -4 8 -3.5
v -3 8 -3.5
v -5 8 -4.5
v -4 8 -4.5
v -5 8 -5.5
v -4 8 -5.5
v -4 8 -6.5
v -3 8 -6.5
v 6 9 -4.5
v 7 9 -4.5
v 6 9 -5.5
v 7 9 -5.5
v -7 4 -0.5
v 8 4 -0.5
v -6 4 -1.5
v -3 4 -1.5
v -2 4 -1.5
v 1 4 -1.5
v 7 4 -1.5
v 4 4 -2.5
v 6 4 -2.5
v -4 4 -3.5
v -3 4 -3.5
v 1 4 -3.5
v 4 4 -3.5
v 6 4 -3.5
v 7 4 -3.5
v -4 4 -6.5
v -3 4 -6.5
v 1 4 -6.5
v 4 4 -6.5
v 5 4 -6.5
v 7 4 -6.5
v -7 4 -7.5
v -6 4 -7.5
v -3 4 -7.5
v 1 4 -7.5
v 4 4 -7.5
v 5 4 -7.5
v 7 4 -7.5
v 8 4 -7.5
v 4 6 -2.5
v 5 6 -2.5
v -4 6 -3.5
v -3 6 -3.5
v 4 6 -3.5
v 5 6 -3.5
v -5 6 -4.5
v -4 6 -4.5
v -5 6 -5.5
v -4 6 -5.5
v -4 6 -6.5
v -3 6 -6.5
v 6 7 -3.5
v 7 7 -3.5
v 6 7 -4.5
v 7 7 -4.5
v 6 7 -6.5
v 7 7 -6.5
v 6 7 -7.5
v 7 7 -7.5
v 6 8 -4.5
v 7 8 -4.5
v 6 8 -5.5
v 7 8 -5.5
v -7 8 -7.5
v -3 8 -7.5
v -2 8 -7.5
v 1 8 -7.5
v 6 8 -7.5
v 8 8 -7.5
v -7 8 -8.5
v 1 8 -8.5
v 6 8 -8.5
v 8 8 -8.5
v -5 9 -4.5
v -4 9 -4.5
v -5 9 -5.5
v -4 9 -5.5
v 1 9 -7.5
v 6 9 -7.5
v 1 9 -8.5
v 6 9 -8.5
v -3 10 -1.5
v -2 10 -1.5
v 1 10 -1.5
v -1 10 -2.5
v 0 10 -2.5
v 4 10 -2.5
v 6 10 -2.5
v -4 10 -3.5
v -3 10 -3.5
v -1 10 -3.5
v 0 10 -3.5
v 1 10 -3.5
v 4 10 -3.5
v 6 10 -3.5
v -1 10 -4.5
v 0 10 -4.5
v 1 10 -4.5
v 2 10 -4.5
v 3 10 -4.5
v 6 10 -4.5
v 7 10 -4.5
v -1 10 -5.5
v 1 10 -5.5
v 2 10 -5.5
v 3 10 -5.5
v 4 10 -5.5
v 5 10 -5.5
v 6 10 -5.5
v -4 10 -6.5
v -3 10 -6.5
v 1 10 -6.5
v 2 10 -6.5
v 5 10 -6.5
v 6 10 -6.5
v 7 10 -6.5
v -3 10 -7.5
v -2 10 -7.5
v 1 10 -7.5
v 6 10 -7.5
v -1 11 -2.5
v 0 11 -2.5
v -1 11 -3.5
v 0 11 -3.5
v 4 11 -3.5
v 6 11 -3.5
v -1 11 -4.5
v 0 11 -4.5
v 1 11 -4.5
v 2 11 -4.5
v 3 11 -4.5
v -1 11 -5.5
v 1 11 -5.5
v 2 11 -5.5
v 3 11 -5.5
v 4 11 -5.5
v 5 11 -5.5
v 6 11 -5.5
v 2 11 -6.5
v 5 11 -6.5

# faces
f 5/5/1 2/5/1 1/5/1
f 6/5/1 4/5/1 3/5/1
f 7/5/1 5/5/1 1/5/1
f 7/5/1 6/5/1 5/5/1
f 8/5/1 4/5/1 6/5/1
f 8/5/1 6/5/1 7/5/1
f 9/5/1 4/5/1 8/5/1
f 10/5/1 4/5/1 9/5/1
f 13/8/1 12/8/1 11/8/1
f 14/8/1 12/8/1 13/8/1
f 17/8/1 16/8/1 15/8/1
f 18/8/1 16/8/1 17/8/1
f 21/2/1 20/2/1 19/2/1
f 22/2/1 20/2/1 21/2/1
f 23/2/1 21/2/1 19/2/1
f 24/2/1 21/2/1 23/2/1
f 25/2/1 20/2/1 22/2/1
f 26/2/1 20/2/1 25/2/1
f 31/2/1 28/2/1 27/2/1
f 32/2/1 30/2/1 29/2/1
f 33/2/1 31/2/1 27/2/1
f 33/2/1 32/2/1 31/2/1
f 34/2/1 30/2/1 32/2/1
f 34/2/1 32/2/1 33/2/1
f 39/2/1 36/2/1 35/2/1
f 40/2/1 38/2/1 37/2/1
f 41/2/1 38/2/1 40/2/1
f 41/2/1 40/2/1 39/2/1
f 42/2/1 39/2/1 35/2/1
f 42/2/1 41/2/1 39/2/1
f 43/2/1 41/2/1 42/2/1
f 44/2/1 41/2/1 43/2/1
f 45/2/1 42/2/1 35/2/1
f 46/2/1 42/2/1 45/2/1
f 47/2/1 44/2/1 43/2/1
f 48/2/1 44/2/1 47/2/1
f 53/1/1 50/1/1 49/1/1
f 54/3/1 51/3/1 50/3/1
f 54/1/1 50/1/1 53/1/1
f 55/4/1 52/4/1 51/4/1
f 55/3/1 51/3/1 54/3/1
f 56/4/1 52/4/1 55/4/1
f 59/6/1 58/6/1 57/6/1
f 60/6/1 58/6/1 59/6/1
f 64/1/1 62/1/1 61/1/1
f 65/6/1 63/6/1 62/6/1
f 65/1/1 62/1/1 64/1/1
f 66/6/1 63/6/1 65/6/1
f 71/6/1 70/6/1 69/6/1
f 72/6/1 70/6/1 71/6/1
f 73/6/1 68/6/1 67/6/1
f 74/6/1 68/6/1 73/6/1
f 77/6/1 76/6/1 75/6/1
f 78/6/1 76/6/1 77/6/1
f 80/6/1 79/6/1 78/6/1
f 81/6/1 79/6/1 80/6/1
f 84/6/1 83/6/1 82/6/1
f 85/6/1 83/6/1 84/6/1
f 90/5/1 87/5/1 86/5/1
f 91/5/1 87/5/1 90/5/1
f 92/5/1 89/5/1 88/5/1
f 93/5/1 89/5/1 92/5/1
f 94/5/2 95/5/2 98/5/2
f 98/5/2 95/5/2 99/5/2
f 96/5/2 97/5/2 100/5/2
f 100/5/2 97/5/2 101/5/2
f 102/1/2 103/1/2 105/1/2
f 103/3/2 104/3/2 106/3/2
f 105/1/2 103/1/2 106/1/2
f 106/3/2 104/3/2 107/3/2
f 110/4/2 111/4/2 112/4/2
f 112/4/2 111/4/2 113/4/2
f 108/4/2 109/4/2 114/4/2
f 114/4/2 109/4/2 115/4/2
f 116/4/2 117/4/2 118/4/2
f 118/4/2 117/4/2 119/4/2
f 120/1/2 121/1/2 122/1/2
f 122/1/2 121/1/2 123/1/2
f 124/6/2 125/6/2 126/6/2
f 126/6/2 125/6/2 127/6/2
f 128/6/2 129/6/2 130/6/2
f 130/6/2 129/6/2 131/6/2
f 134/6/2 135/6/2 136/6/2
f 136/6/2 135/6/2 137/6/2
f 132/6/2 133/6/2 138/6/2
f 138/6/2 139/6/2 142/6/2
f 140/6/2 141/6/2 144/6/2
f 142/6/2 143/6/2 146/6/2
f 138/6/2 142/6/2 146/6/2
f 146/6/2 143/6/2 147/6/2
f 140/6/2 144/6/2 148/6/2
f 144/6/2 145/6/2 148/6/2
f 148/6/2 145/6/2 149/6/2
f 132/6/2 138/6/2 150/6/2
f 138/6/2 146/6/2 150/6/2
f 150/6/2 146/6/2 151/6/2
f 151/6/2 146/6/2 152/6/2
f 140/6/2 148/6/2 154/6/2
f 154/6/2 148/6/2 155/6/2
f 152/6/2 153/6/2 156/6/2
f 151/6/2 152/6/2 156/6/2
f 156/6/2 153/6/2 157/6/2
f 158/6/2 159/6/2 160/6/2
f 158/6/2 160/6/2 162/6/2
f 160/6/2 161/6/2 162/6/2
f 162/6/2 161/6/2 163/6/2
f 163/6/2 161/6/2 164/6/2
f 164/6/2 161/6/2 165/6/2
f 163/6/2 164/6/2 166/6/2
f 166/6/2 164/6/2 167/6/2
f 167/6/2 164/6/2 169/6/2
f 168/6/2 169/6/2 170/6/2
f 169/6/2 164/6/2 171/6/2
f 170/6/2 169/6/2 171/6/2
f 172/5/2 173/5/2 176/5/2
f 174/5/2 175/5/2 177/5/2
f 172/5/2 176/5/2 178/5/2
f 176/5/2 177/5/2 178/5/2
f 177/5/2 175/5/2 179/5/2
f 178/5/2 177/5/2 179/5/2
f 179/5/2 175/5/2 180/5/2
f 180/5/2 175/5/2 181/5/2
f 184/5/3 183/5/3 182/5/3
f 185/5/3 183/5/3 184/5/3
f 187/5/3 183/5/3 185/5/3
f 188/5/3 187/5/3 186/5/3
f 189/5/3 183/5/3 187/5/3
f 189/5/3 187/5/3 188/5/3
f 192/2/3 191/2/3 190/2/3
f 193/2/3 191/2/3 192/2/3
f 194/4/3 193/4/3 192/4/3
f 195/4/3 193/4/3 194/4/3
f 198/1/3 197/1/3 196/1/3
f 199/1/3 197/1/3 198/1/3
f 204/6/3 201/6/3 200/6/3
f 205/6/3 203/6/3 202/6/3
f 206/6/3 204/6/3 200/6/3
f 206/6/3 205/6/3 204/6/3
f 207/6/3 203/6/3 205/6/3
f 207/6/3 205/6/3 206/6/3
f 212/2/3 209/2/3 208/2/3
f 213/2/3 209/2/3 212/2/3
f 214/2/3 211/2/3 210/2/3
f 215/2/3 211/2/3 214/2/3
f 218/1/3 217/1/3 216/1/3
f 219/1/3 217/1/3 218/1/3
f 220/1/3 217/1/3 219/1/3
f 221/1/3 217/1/3 220/1/3
f 223/1/3 220/1/3 219/1/3
f 224/1/3 220/1/3 223/1/3
f 227/6/3 222/6/3 221/6/3
f 228/6/3 222/6/3 227/6/3
f 229/6/3 226/6/3 225/6/3
f 230/6/3 226/6/3 229/6/3
f 235/8/3 232/8/3 231/8/3
f 236/8/3 232/8/3 235/8/3
f 237/8/3 234/8/3 233/8/3
f 238/8/3 234/8/3 237/8/3
f 241/4/3 240/4/3 239/4/3
f 242/4/3 240/4/3 241/4/3
f 245/1/3 244/1/3 243/1/3
f 246/1/3 244/1/3 245/1/3
f 251/6/3 248/6/3 247/6/3
f 252/6/3 248/6/3 251/6/3
f 253/6/3 250/6/3 249/6/3
f 254/6/3 250/6/3 253/6/3
f 257/6/3 256/6/3 255/6/3
f 258/6/3 256/6/3 257/6/3
f 261/6/3 260/6/3 259/6/3
f 262/6/3 260/6/3 261/6/3
f 267/5/3 264/5/3 263/5/3
f 268/5/3 264/5/3 267/5/3
f 269/5/3 266/5/3 265/5/3
f 270/5/3 266/5/3 269/5/3
f 271/7/3 270/7/3 269/7/3
f 272/5/3 266/5/3 270/5/3
f 272/7/3 270/7/3 271/7/3
f 273/5/3 266/5/3 272/5/3
f 276/7/3 275/7/3 274/7/3
f 277/7/3 275/7/3 276/7/3
f 280/7/3 279/7/3 278/7/3
f 286/7/3 280/7/3 278/7/3
f 286/7/3 281/7/3 280/7/3
f 287/7/3 281/7/3 286/7/3
f 288/5/3 283/5/3 282/5/3
f 289/5/3 285/5/3 284/5/3
f 290/5/3 285/5/3 289/5/3
f 291/5/3 288/5/3 287/5/3
f 291/5/3 287/5/3 286/5/3
f 292/5/3 283/5/3 288/5/3
f 292/5/3 288/5/3 291/5/3
f 293/5/4 294/5/4 295/5/4
f 295/5/4 294/5/4 296/5/4
f 297/5/4 298/5/4 299/5/4
f 299/5/4 298/5/4 300/5/4
f 301/8/4 302/8/4 305/8/4
f 305/8/4 302/8/4 306/8/4
f 303/8/4 304/8/4 307/8/4
f 307/8/4 304/8/4 308/8/4
f 309/4/4 310/4/4 311/4/4
f 311/4/4 310/4/4 312/4/4
f 313/6/4 314/6/4 315/6/4
f 315/6/4 314/6/4 316/6/4
f 317/2/4 318/2/4 321/2/4
f 321/2/4 318/2/4 322/2/4
f 319/2/4 320/2/4 323/2/4
f 323/2/4 320/2/4 324/2/4
f 325/1/4 326/1/4 329/1/4
f 329/1/4 326/1/4 330/1/4
f 327/6/4 328/6/4 333/6/4
f 333/6/4 328/6/4 334/6/4
f 331/6/4 332/6/4 335/6/4
f 331/6/4 335/6/4 339/6/4
f 335/6/4 336/6/4 339/6/4
f 339/6/4 336/6/4 340/6/4
f 337/6/4 338/6/4 341/6/4
f 341/6/4 338/6/4 342/6/4
f 343/2/4 344/2/4 345/2/4
f 345/2/4 344/2/4 346/2/4
f 345/4/4 346/4/4 347/4/4
f 347/4/4 346/4/4 348/4/4
f 348/4/4 346/4/4 349/4/4
f 348/6/4 349/6/4 350/6/4
f 350/6/4 349/6/4 351/6/4
f 352/5/4 353/5/4 354/5/4
f 354/5/4 353/5/4 355/5/4
f 355/5/4 353/5/4 356/5/4
f 356/5/4 353/5/4 357/5/4
f 357/5/4 353/5/4 358/5/4
f 357/5/4 358/5/4 360/5/4
f 358/6/4 359/6/4 360/6/4
f 360/6/4 359/6/4 361/6/4
f 355/5/4 356/5/4 363/5/4
f 356/7/4 357/7/4 364/7/4
f 363/5/4 356/5/4 364/5/4
f 357/5/4 360/5/4 365/5/4
f 364/7/4 357/7/4 365/7/4
f 362/5/4 363/5/4 366/5/4
f 363/5/4 364/5/4 366/5/4
f 364/5/4 365/5/4 366/5/4
f 365/5/4 360/5/4 367/5/4
f 366/5/4 365/5/4 367/5/4
f 372/5/5 369/5/5 368/5/5
f 373/5/5 369/5/5 372/5/5
f 374/5/5 371/5/5 370/5/5
f 375/5/5 371/5/5 374/5/5
f 380/5/5 377/5/5 376/5/5
f 381/5/5 377/5/5 380/5/5
f 382/5/5 379/5/5 378/5/5
f 383/5/5 379/5/5 382/5/5
f 387/5/5 385/5/5 384/5/5
f 388/5/5 385/5/5 387/5/5
f 390/5/5 387/5/5 386/5/5
f 391/7/5 388/7/5 387/7/5
f 391/5/5 387/5/5 390/5/5
f 392/5/5 389/5/5 388/5/5
f 392/7/5 388/7/5 391/7/5
f 393/5/5 389/5/5 392/5/5
f 394/5/5 392/5/5 391/5/5
f 395/5/5 392/5/5 394/5/5
f 398/8/5 397/8/5 396/8/5
f 399/8/5 397/8/5 398/8/5
f 404/1/5 401/1/5 400/1/5
f 405/1/5 401/1/5 404/1/5
f 406/6/5 403/6/5 402/6/5
f 407/6/5 403/6/5 406/6/5
f 410/6/5 409/6/5 408/6/5
f 411/6/5 409/6/5 410/6/5
f 414/6/5 413/6/5 412/6/5
f 415/6/5 413/6/5 414/6/5
f 419/2/5 417/2/5 416/2/5
f 420/8/5 419/8/5 418/8/5
f 421/2/5 417/2/5 419/2/5
f 421/8/5 419/8/5 420/8/5
f 422/2/5 417/2/5 421/2/5
f 423/2/5 417/2/5 422/2/5
f 426/6/5 425/6/5 424/6/5
f 427/6/5 425/6/5 426/6/5
f 428/5/6 429/5/6 430/5/6
f 430/5/6 429/5/6 431/5/6
f 431/5/6 429/5/6 432/5/6
f 432/5/6 429/5/6 433/5/6
f 433/5/6 429/5/6 434/5/6
f 433/7/6 434/7/6 435/7/6
f 435/7/6 434/7/6 436/7/6
f 430/7/6 431/7/6 437/7/6
f 437/7/6 431/7/6 438/7/6
f 433/7/6 435/7/6 439/7/6
f 439/7/6 435/7/6 440/7/6
f 436/7/6 434/7/6 441/7/6
f 434/5/6 429/5/6 442/5/6
f 441/7/6 434/7/6 442/7/6
f 430/7/6 437/7/6 443/7/6
f 442/5/6 429/5/6 448/5/6
f 428/5/6 430/5/6 449/5/6
f 430/7/6 443/7/6 450/7/6
f 449/5/6 430/5/6 450/5/6
f 443/7/6 444/7/6 450/7/6
f 450/7/6 444/7/6 451/7/6
f 445/7/6 446/7/6 452/7/6
f 452/7/6 446/7/6 453/7/6
f 447/7/6 448/7/6 454/7/6
f 448/5/6 429/5/6 455/5/6
f 454/7/6 448/7/6 455/7/6
f 455/5/6 429/5/6 456/5/6
f 457/6/6 458/6/6 461/6/6
f 461/6/6 458/6/6 462/6/6
f 459/2/6 460/2/6 464/2/6
f 463/8/6 464/8/6 465/8/6
f 464/2/6 460/2/6 466/2/6
f 465/8/6 464/8/6 466/8/6
f 466/2/6 460/2/6 467/2/6
f 467/2/6 460/2/6 468/2/6
f 469/6/6 470/6/6 471/6/6
f 471/6/6 470/6/6 472/6/6
f 473/6/6 474/6/6 475/6/6
f 475/6/6 474/6/6 476/6/6
f 477/6/6 478/6/6 479/6/6
f 479/6/6 478/6/6 480/6/6
f 483/5/6 484/5/6 487/5/6
f 481/5/6 482/5/6 487/5/6
f 482/5/6 483/5/6 487/5/6
f 487/5/6 484/5/6 488/5/6
f 485/5/6 486/5/6 489/5/6
f 489/5/6 486/5/6 490/5/6
f 491/8/6 492/8/6 493/8/6
f 493/8/6 492/8/6 494/8/6
f 495/6/6 496/6/6 497/6/6
f 497/6/6 496/6/6 498/6/6
f 500/4/6 501/4/6 502/4/6
f 502/4/6 501/4/6 503/4/6
f 499/2/6 500/2/6 507/2/6
f 500/4/6 502/4/6 508/4/6
f 503/4/6 501/4/6 509/4/6
f 509/4/6 501/4/6 510/4/6
f 504/6/6 505/6/6 511/6/6
f 511/6/6 505/6/6 512/6/6
f 500/4/6 508/4/6 513/4/6
f 509/4/6 510/4/6 514/4/6
f 510/1/6 511/1/6 515/1/6
f 514/4/6 510/4/6 515/4/6
f 515/1/6 511/1/6 516/1/6
f 516/1/6 511/1/6 517/1/6
f 500/4/6 513/4/6 520/4/6
f 515/1/6 516/1/6 521/1/6
f 521/1/6 516/1/6 522/1/6
f 517/1/6 511/1/6 523/1/6
f 523/1/6 511/1/6 524/1/6
f 518/6/6 519/6/6 526/6/6
f 506/2/6 507/2/6 527/2/6
f 507/2/6 500/2/6 528/2/6
f 527/2/6 507/2/6 528/2/6
f 521/1/6 522/1/6 529/1/6
f 520/4/6 521/4/6 529/4/6
f 529/1/6 522/1/6 530/1/6
f 525/6/6 526/6/6 531/6/6
f 526/6/6 519/6/6 532/6/6
f 531/6/6 526/6/6 532/6/6
f 532/6/6 519/6/6 533/6/6
f 528/2/6 500/2/6 534/2/6
f 500/4/6 520/4/6 535/4/6
f 534/2/6 500/2/6 535/2/6
f 520/4/6 529/4/6 535/4/6
f 529/6/6 530/6/6 536/6/6
f 535/4/6 529/4/6 536/4/6
f 530/6/6 531/6/6 536/6/6
f 531/6/6 532/6/6 536/6/6
f 536/6/6 532/6/6 537/6/6
f 538/1/6 539/1/6 540/1/6
f 540/1/6 539/1/6 541/1/6
f 540/3/6 541/3/6 544/3/6
f 544/3/6 541/3/6 545/3/6
f 544/4/6 545/4/6 549/4/6
f 545/4/6 546/4/6 549/4/6
f 549/4/6 546/4/6 550/4/6
f 547/1/6 548/1/6 551/1/6
f 551/1/6 548/1/6 552/1/6
f 542/6/6 543/6/6 553/6/6
f 553/6/6 543/6/6 554/6/6
f 554/6/6 543/6/6 555/6/6
f 551/6/6 552/6/6 556/6/6
f 553/6/6 554/6/6 556/6/6
f 552/6/6 553/6/6 556/6/6
f 556/6/6 554/6/6 557/6/6
