# MagicaVoxel @ Ephtracy

# material
mtllib obj_curb7a.mtl
usemtl palette

# normals
vn -1 0 0
vn 1 0 0
vn 0 0 1
vn 0 0 -1
vn 0 -1 0
vn 0 1 0

# texcoords
vt 0.794922 0.5
vt 0.978516 0.5

# verts
v -2 0 2
v -2 0 1
v -2 0 -2
v -2 1 2
v -2 1 1
v -2 1 -2
v 2 0 2
v 2 0 -2
v 2 1 2
v 2 1 -2
v -2 0 2
v -2 1 2
v -1 0 2
v -1 1 2
v 2 0 2
v 2 1 2
v -2 0 -2
v -2 1 -2
v 2 0 -2
v 2 1 -2
v -2 0 2
v -1 0 2
v 2 0 2
v -2 0 1
v -1 0 1
v -2 0 -2
v 2 0 -2
v -2 1 2
v -1 1 2
v 2 1 2
v -2 1 1
v -1 1 1
v -2 1 -2
v 2 1 -2

# faces
f 4/2/1 2/2/1 1/2/1
f 5/1/1 3/1/1 2/1/1
f 5/2/1 2/2/1 4/2/1
f 6/1/1 3/1/1 5/1/1
f 7/1/2 8/1/2 9/1/2
f 9/1/2 8/1/2 10/1/2
f 13/2/3 12/2/3 11/2/3
f 14/2/3 12/2/3 13/2/3
f 15/1/3 14/1/3 13/1/3
f 16/1/3 14/1/3 15/1/3
f 17/1/4 18/1/4 19/1/4
f 19/1/4 18/1/4 20/1/4
f 24/2/5 22/2/5 21/2/5
f 25/1/5 23/1/5 22/1/5
f 25/2/5 22/2/5 24/2/5
f 26/1/5 25/1/5 24/1/5
f 27/1/5 23/1/5 25/1/5
f 27/1/5 25/1/5 26/1/5
f 28/2/6 29/2/6 31/2/6
f 29/1/6 30/1/6 32/1/6
f 31/2/6 29/2/6 32/2/6
f 31/1/6 32/1/6 33/1/6
f 32/1/6 30/1/6 34/1/6
f 33/1/6 32/1/6 34/1/6
