# MagicaVoxel @ Ephtracy

# material
mtllib obj_door4.mtl
usemtl palette

# normals
vn -1 0 0
vn 1 0 0
vn 0 0 1
vn 0 0 -1
vn 0 -1 0
vn 0 1 0

# texcoords
vt 0.306641 0.5
vt 0.373047 0.5
vt 0.966797 0.5
vt 0.970703 0.5
vt 0.990234 0.5

# verts
v -6 0 -0
v -6 0 -1
v -6 15 -0
v -6 15 -1
v -5 6 1
v -5 6 -0
v -5 8 1
v -5 8 -0
v -4 6 1
v -4 6 -0
v -4 8 1
v -4 8 -0
v 6 0 -0
v 6 0 -1
v 6 15 -0
v 6 15 -1
v -5 6 1
v -5 8 1
v -4 6 1
v -4 8 1
v -6 0 -0
v -6 15 -0
v -5 0 -0
v -5 1 -0
v -5 6 -0
v -5 8 -0
v -5 14 -0
v -4 6 -0
v -4 8 -0
v -4 10 -0
v -4 13 -0
v -2 10 -0
v -2 13 -0
v -1 10 -0
v -1 13 -0
v 1 10 -0
v 1 13 -0
v 2 10 -0
v 2 13 -0
v 4 10 -0
v 4 13 -0
v 5 0 -0
v 5 1 -0
v 5 14 -0
v 6 0 -0
v 6 15 -0
v -6 0 -1
v -6 15 -1
v -5 0 -1
v -5 1 -1
v -5 14 -1
v -4 10 -1
v -4 13 -1
v -2 10 -1
v -2 13 -1
v -1 10 -1
v -1 13 -1
v 1 10 -1
v 1 13 -1
v 2 10 -1
v 2 13 -1
v 4 10 -1
v 4 13 -1
v 5 0 -1
v 5 1 -1
v 5 14 -1
v 6 0 -1
v 6 15 -1
v -6 0 -0
v -5 0 -0
v 5 0 -0
v 6 0 -0
v -6 0 -1
v -5 0 -1
v 5 0 -1
v 6 0 -1
v -5 6 1
v -4 6 1
v -5 6 -0
v -4 6 -0
v -5 8 1
v -4 8 1
v -5 8 -0
v -4 8 -0
v -6 15 -0
v 6 15 -0
v -6 15 -1
v 6 15 -1

# faces
f 3/3/1 2/3/1 1/3/1
f 4/3/1 2/3/1 3/3/1
f 7/5/1 6/5/1 5/5/1
f 8/5/1 6/5/1 7/5/1
f 9/5/2 10/5/2 11/5/2
f 11/5/2 10/5/2 12/5/2
f 13/3/2 14/3/2 15/3/2
f 15/3/2 14/3/2 16/3/2
f 19/5/3 18/5/3 17/5/3
f 20/5/3 18/5/3 19/5/3
f 23/3/3 22/3/3 21/3/3
f 24/3/3 22/3/3 23/3/3
f 25/3/3 22/3/3 24/3/3
f 26/3/3 22/3/3 25/3/3
f 27/3/3 22/3/3 26/3/3
f 28/2/3 25/2/3 24/2/3
f 29/2/3 27/2/3 26/2/3
f 30/2/3 27/2/3 29/2/3
f 31/2/3 27/2/3 30/2/3
f 32/2/3 29/2/3 28/2/3
f 32/2/3 30/2/3 29/2/3
f 32/1/3 31/1/3 30/1/3
f 33/2/3 27/2/3 31/2/3
f 33/1/3 31/1/3 32/1/3
f 34/2/3 32/2/3 28/2/3
f 34/2/3 33/2/3 32/2/3
f 35/2/3 27/2/3 33/2/3
f 35/2/3 33/2/3 34/2/3
f 36/2/3 34/2/3 28/2/3
f 36/1/3 35/1/3 34/1/3
f 37/2/3 27/2/3 35/2/3
f 37/1/3 35/1/3 36/1/3
f 38/2/3 36/2/3 28/2/3
f 38/2/3 37/2/3 36/2/3
f 39/2/3 27/2/3 37/2/3
f 39/2/3 37/2/3 38/2/3
f 40/2/3 38/2/3 28/2/3
f 40/1/3 39/1/3 38/1/3
f 41/2/3 27/2/3 39/2/3
f 41/1/3 39/1/3 40/1/3
f 42/4/3 24/4/3 23/4/3
f 43/2/3 28/2/3 24/2/3
f 43/4/3 24/4/3 42/4/3
f 43/2/3 40/2/3 28/2/3
f 43/2/3 41/2/3 40/2/3
f 44/2/3 27/2/3 41/2/3
f 44/2/3 41/2/3 43/2/3
f 44/3/3 22/3/3 27/3/3
f 45/3/3 43/3/3 42/3/3
f 45/3/3 44/3/3 43/3/3
f 46/3/3 22/3/3 44/3/3
f 46/3/3 44/3/3 45/3/3
f 47/3/4 48/3/4 49/3/4
f 49/3/4 48/3/4 50/3/4
f 50/3/4 48/3/4 51/3/4
f 50/2/4 51/2/4 52/2/4
f 52/2/4 51/2/4 53/2/4
f 50/2/4 52/2/4 54/2/4
f 52/1/4 53/1/4 54/1/4
f 53/2/4 51/2/4 55/2/4
f 54/1/4 53/1/4 55/1/4
f 50/2/4 54/2/4 56/2/4
f 54/2/4 55/2/4 56/2/4
f 55/2/4 51/2/4 57/2/4
f 56/2/4 55/2/4 57/2/4
f 50/2/4 56/2/4 58/2/4
f 56/1/4 57/1/4 58/1/4
f 57/2/4 51/2/4 59/2/4
f 58/1/4 57/1/4 59/1/4
f 50/2/4 58/2/4 60/2/4
f 58/2/4 59/2/4 60/2/4
f 59/2/4 51/2/4 61/2/4
f 60/2/4 59/2/4 61/2/4
f 50/2/4 60/2/4 62/2/4
f 60/1/4 61/1/4 62/1/4
f 61/2/4 51/2/4 63/2/4
f 62/1/4 61/1/4 63/1/4
f 49/4/4 50/4/4 64/4/4
f 50/2/4 62/2/4 65/2/4
f 64/4/4 50/4/4 65/4/4
f 62/2/4 63/2/4 65/2/4
f 63/2/4 51/2/4 66/2/4
f 65/2/4 63/2/4 66/2/4
f 51/3/4 48/3/4 66/3/4
f 64/3/4 65/3/4 67/3/4
f 65/3/4 66/3/4 67/3/4
f 66/3/4 48/3/4 68/3/4
f 67/3/4 66/3/4 68/3/4
f 73/3/5 70/3/5 69/3/5
f 74/4/5 71/4/5 70/4/5
f 74/3/5 70/3/5 73/3/5
f 75/3/5 72/3/5 71/3/5
f 75/4/5 71/4/5 74/4/5
f 76/3/5 72/3/5 75/3/5
f 79/5/5 78/5/5 77/5/5
f 80/5/5 78/5/5 79/5/5
f 81/5/6 82/5/6 83/5/6
f 83/5/6 82/5/6 84/5/6
f 85/3/6 86/3/6 87/3/6
f 87/3/6 86/3/6 88/3/6
