# MagicaVoxel @ Ephtracy

# material
mtllib obj_boxingring.mtl
usemtl palette

# normals
vn -1 0 0
vn 1 0 0
vn 0 0 1
vn 0 0 -1
vn 0 -1 0
vn 0 1 0

# texcoords
vt 0.181641 0.5
vt 0.587891 0.5
vt 0.638672 0.5
vt 0.857422 0.5
vt 0.958984 0.5
vt 0.966797 0.5
vt 0.982422 0.5

# verts
v -24 0 24
v -24 0 -24
v -24 3 24
v -24 3 -24
v -24 5 24
v -24 5 22
v -24 5 -22
v -24 5 -24
v -24 13 24
v -24 13 22
v -24 13 -22
v -24 13 -24
v -22 7 22
v -22 7 -22
v -22 8 22
v -22 8 -22
v -22 9 22
v -22 9 -22
v -22 10 22
v -22 10 -22
v -22 11 22
v -22 11 -22
v -22 12 22
v -22 12 -22
v 21 7 21
v 21 7 -21
v 21 8 21
v 21 8 -21
v 21 9 21
v 21 9 -21
v 21 10 21
v 21 10 -21
v 21 11 21
v 21 11 -21
v 21 12 21
v 21 12 -21
v 22 5 24
v 22 5 22
v 22 5 -22
v 22 5 -24
v 22 7 22
v 22 7 -22
v 22 8 22
v 22 8 -22
v 22 9 22
v 22 9 -22
v 22 10 22
v 22 10 -22
v 22 11 22
v 22 11 -22
v 22 12 22
v 22 12 -22
v 22 13 24
v 22 13 22
v 22 13 -22
v 22 13 -24
v -22 5 24
v -22 5 22
v -22 5 -22
v -22 5 -24
v -22 7 22
v -22 7 -22
v -22 8 22
v -22 8 -22
v -22 9 22
v -22 9 -22
v -22 10 22
v -22 10 -22
v -22 11 22
v -22 11 -22
v -22 12 22
v -22 12 -22
v -22 13 24
v -22 13 22
v -22 13 -22
v -22 13 -24
v -21 7 21
v -21 7 -21
v -21 8 21
v -21 8 -21
v -21 9 21
v -21 9 -21
v -21 10 21
v -21 10 -21
v -21 11 21
v -21 11 -21
v -21 12 21
v -21 12 -21
v 22 7 22
v 22 7 -22
v 22 8 22
v 22 8 -22
v 22 9 22
v 22 9 -22
v 22 10 22
v 22 10 -22
v 22 11 22
v 22 11 -22
v 22 12 22
v 22 12 -22
v 24 0 24
v 24 0 -24
v 24 3 24
v 24 3 -24
v 24 5 24
v 24 5 22
v 24 5 -22
v 24 5 -24
v 24 13 24
v 24 13 22
v 24 13 -22
v 24 13 -24
v -24 0 24
v -24 3 24
v -24 5 24
v -24 13 24
v -22 5 24
v -22 13 24
v 22 5 24
v 22 13 24
v 24 0 24
v 24 3 24
v 24 5 24
v 24 13 24
v -22 7 22
v -22 8 22
v -22 9 22
v -22 10 22
v -22 11 22
v -22 12 22
v 22 7 22
v 22 8 22
v 22 9 22
v 22 10 22
v 22 11 22
v 22 12 22
v -21 7 -21
v -21 8 -21
v -21 9 -21
v -21 10 -21
v -21 11 -21
v -21 12 -21
v 21 7 -21
v 21 8 -21
v 21 9 -21
v 21 10 -21
v 21 11 -21
v 21 12 -21
v -24 5 -22
v -24 13 -22
v -22 5 -22
v -22 7 -22
v -22 8 -22
v -22 9 -22
v -22 10 -22
v -22 11 -22
v -22 12 -22
v -22 13 -22
v 22 5 -22
v 22 7 -22
v 22 8 -22
v 22 9 -22
v 22 10 -22
v 22 11 -22
v 22 12 -22
v 22 13 -22
v 24 5 -22
v 24 13 -22
v -24 5 22
v -24 13 22
v -22 5 22
v -22 7 22
v -22 8 22
v -22 9 22
v -22 10 22
v -22 11 22
v -22 12 22
v -22 13 22
v 22 5 22
v 22 7 22
v 22 8 22
v 22 9 22
v 22 10 22
v 22 11 22
v 22 12 22
v 22 13 22
v 24 5 22
v 24 13 22
v -21 7 21
v -21 8 21
v -21 9 21
v -21 10 21
v -21 11 21
v -21 12 21
v 21 7 21
v 21 8 21
v 21 9 21
v 21 10 21
v 21 11 21
v 21 12 21
v -22 7 -22
v -22 8 -22
v -22 9 -22
v -22 10 -22
v -22 11 -22
v -22 12 -22
v 22 7 -22
v 22 8 -22
v 22 9 -22
v 22 10 -22
v 22 11 -22
v 22 12 -22
v -24 0 -24
v -24 3 -24
v -24 5 -24
v -24 13 -24
v -22 5 -24
v -22 13 -24
v 22 5 -24
v 22 13 -24
v 24 0 -24
v 24 3 -24
v 24 5 -24
v 24 13 -24
v -24 0 24
v 24 0 24
v -23 0 23
v 23 0 23
v -23 0 -23
v 23 0 -23
v -24 0 -24
v 24 0 -24
v -22 7 22
v 22 7 22
v -21 7 21
v 21 7 21
v -21 7 -21
v 21 7 -21
v -22 7 -22
v 22 7 -22
v -22 9 22
v 22 9 22
v -21 9 21
v 21 9 21
v -21 9 -21
v 21 9 -21
v -22 9 -22
v 22 9 -22
v -22 11 22
v 22 11 22
v -21 11 21
v 21 11 21
v -21 11 -21
v 21 11 -21
v -22 11 -22
v 22 11 -22
v -22 5 24
v 22 5 24
v -24 5 22
v -22 5 22
v 22 5 22
v 24 5 22
v -5 5 6
v -4 5 6
v 4 5 6
v 5 5 6
v -5 5 -6
v -4 5 -6
v 4 5 -6
v 5 5 -6
v -24 5 -22
v -22 5 -22
v 22 5 -22
v 24 5 -22
v -22 5 -24
v 22 5 -24
v -22 8 22
v 22 8 22
v -21 8 21
v 21 8 21
v -21 8 -21
v 21 8 -21
v -22 8 -22
v 22 8 -22
v -22 10 22
v 22 10 22
v -21 10 21
v 21 10 21
v -21 10 -21
v 21 10 -21
v -22 10 -22
v 22 10 -22
v -22 12 22
v 22 12 22
v -21 12 21
v 21 12 21
v -21 12 -21
v 21 12 -21
v -22 12 -22
v 22 12 -22
v -24 13 24
v -22 13 24
v 22 13 24
v 24 13 24
v -24 13 22
v -22 13 22
v 22 13 22
v 24 13 22
v -24 13 -22
v -22 13 -22
v 22 13 -22
v 24 13 -22
v -24 13 -24
v -22 13 -24
v 22 13 -24
v 24 13 -24

# faces
f 3/3/1 2/3/1 1/3/1
f 4/3/1 2/3/1 3/3/1
f 5/7/1 4/7/1 3/7/1
f 6/7/1 4/7/1 5/7/1
f 7/7/1 4/7/1 6/7/1
f 8/7/1 4/7/1 7/7/1
f 9/5/1 6/5/1 5/5/1
f 10/5/1 6/5/1 9/5/1
f 11/5/1 8/5/1 7/5/1
f 12/5/1 8/5/1 11/5/1
f 15/3/1 14/3/1 13/3/1
f 16/3/1 14/3/1 15/3/1
f 19/6/1 18/6/1 17/6/1
f 20/6/1 18/6/1 19/6/1
f 23/4/1 22/4/1 21/4/1
f 24/4/1 22/4/1 23/4/1
f 27/3/1 26/3/1 25/3/1
f 28/3/1 26/3/1 27/3/1
f 31/6/1 30/6/1 29/6/1
f 32/6/1 30/6/1 31/6/1
f 35/4/1 34/4/1 33/4/1
f 36/4/1 34/4/1 35/4/1
f 41/5/1 38/5/1 37/5/1
f 42/5/1 40/5/1 39/5/1
f 43/5/1 41/5/1 37/5/1
f 44/5/1 40/5/1 42/5/1
f 45/5/1 43/5/1 37/5/1
f 46/5/1 40/5/1 44/5/1
f 47/5/1 45/5/1 37/5/1
f 48/5/1 40/5/1 46/5/1
f 49/5/1 47/5/1 37/5/1
f 50/5/1 40/5/1 48/5/1
f 51/5/1 49/5/1 37/5/1
f 52/5/1 40/5/1 50/5/1
f 53/5/1 51/5/1 37/5/1
f 54/5/1 51/5/1 53/5/1
f 55/5/1 40/5/1 52/5/1
f 56/5/1 40/5/1 55/5/1
f 57/5/2 58/5/2 61/5/2
f 59/5/2 60/5/2 62/5/2
f 57/5/2 61/5/2 63/5/2
f 62/5/2 60/5/2 64/5/2
f 57/5/2 63/5/2 65/5/2
f 64/5/2 60/5/2 66/5/2
f 57/5/2 65/5/2 67/5/2
f 66/5/2 60/5/2 68/5/2
f 57/5/2 67/5/2 69/5/2
f 68/5/2 60/5/2 70/5/2
f 57/5/2 69/5/2 71/5/2
f 70/5/2 60/5/2 72/5/2
f 57/5/2 71/5/2 73/5/2
f 73/5/2 71/5/2 74/5/2
f 72/5/2 60/5/2 75/5/2
f 75/5/2 60/5/2 76/5/2
f 77/3/2 78/3/2 79/3/2
f 79/3/2 78/3/2 80/3/2
f 81/6/2 82/6/2 83/6/2
f 83/6/2 82/6/2 84/6/2
f 85/4/2 86/4/2 87/4/2
f 87/4/2 86/4/2 88/4/2
f 89/3/2 90/3/2 91/3/2
f 91/3/2 90/3/2 92/3/2
f 93/6/2 94/6/2 95/6/2
f 95/6/2 94/6/2 96/6/2
f 97/4/2 98/4/2 99/4/2
f 99/4/2 98/4/2 100/4/2
f 101/3/2 102/3/2 103/3/2
f 103/3/2 102/3/2 104/3/2
f 103/7/2 104/7/2 105/7/2
f 105/7/2 104/7/2 106/7/2
f 106/7/2 104/7/2 107/7/2
f 107/7/2 104/7/2 108/7/2
f 105/5/2 106/5/2 109/5/2
f 109/5/2 106/5/2 110/5/2
f 107/5/2 108/5/2 111/5/2
f 111/5/2 108/5/2 112/5/2
f 117/7/3 115/7/3 114/7/3
f 117/5/3 116/5/3 115/5/3
f 118/5/3 116/5/3 117/5/3
f 119/7/3 117/7/3 114/7/3
f 121/3/3 114/3/3 113/3/3
f 122/7/3 119/7/3 114/7/3
f 122/3/3 114/3/3 121/3/3
f 123/5/3 120/5/3 119/5/3
f 123/7/3 119/7/3 122/7/3
f 124/5/3 120/5/3 123/5/3
f 131/3/3 126/3/3 125/3/3
f 132/3/3 126/3/3 131/3/3
f 133/6/3 128/6/3 127/6/3
f 134/6/3 128/6/3 133/6/3
f 135/4/3 130/4/3 129/4/3
f 136/4/3 130/4/3 135/4/3
f 143/3/3 138/3/3 137/3/3
f 144/3/3 138/3/3 143/3/3
f 145/6/3 140/6/3 139/6/3
f 146/6/3 140/6/3 145/6/3
f 147/4/3 142/4/3 141/4/3
f 148/4/3 142/4/3 147/4/3
f 151/5/3 150/5/3 149/5/3
f 152/5/3 150/5/3 151/5/3
f 153/5/3 150/5/3 152/5/3
f 154/5/3 150/5/3 153/5/3
f 155/5/3 150/5/3 154/5/3
f 156/5/3 150/5/3 155/5/3
f 157/5/3 150/5/3 156/5/3
f 158/5/3 150/5/3 157/5/3
f 167/5/3 160/5/3 159/5/3
f 167/5/3 166/5/3 165/5/3
f 167/5/3 165/5/3 164/5/3
f 167/5/3 164/5/3 163/5/3
f 167/5/3 163/5/3 162/5/3
f 167/5/3 162/5/3 161/5/3
f 167/5/3 161/5/3 160/5/3
f 168/5/3 166/5/3 167/5/3
f 169/5/4 170/5/4 171/5/4
f 171/5/4 170/5/4 172/5/4
f 172/5/4 170/5/4 173/5/4
f 173/5/4 170/5/4 174/5/4
f 174/5/4 170/5/4 175/5/4
f 175/5/4 170/5/4 176/5/4
f 176/5/4 170/5/4 177/5/4
f 177/5/4 170/5/4 178/5/4
f 179/5/4 180/5/4 187/5/4
f 185/5/4 186/5/4 187/5/4
f 184/5/4 185/5/4 187/5/4
f 183/5/4 184/5/4 187/5/4
f 182/5/4 183/5/4 187/5/4
f 181/5/4 182/5/4 187/5/4
f 180/5/4 181/5/4 187/5/4
f 187/5/4 186/5/4 188/5/4
f 189/3/4 190/3/4 195/3/4
f 195/3/4 190/3/4 196/3/4
f 191/6/4 192/6/4 197/6/4
f 197/6/4 192/6/4 198/6/4
f 193/4/4 194/4/4 199/4/4
f 199/4/4 194/4/4 200/4/4
f 201/3/4 202/3/4 207/3/4
f 207/3/4 202/3/4 208/3/4
f 203/6/4 204/6/4 209/6/4
f 209/6/4 204/6/4 210/6/4
f 205/4/4 206/4/4 211/4/4
f 211/4/4 206/4/4 212/4/4
f 214/7/4 215/7/4 217/7/4
f 215/5/4 216/5/4 217/5/4
f 217/5/4 216/5/4 218/5/4
f 214/7/4 217/7/4 219/7/4
f 213/3/4 214/3/4 221/3/4
f 214/7/4 219/7/4 222/7/4
f 221/3/4 214/3/4 222/3/4
f 219/5/4 220/5/4 223/5/4
f 222/7/4 219/7/4 223/7/4
f 223/5/4 220/5/4 224/5/4
f 227/3/5 226/3/5 225/3/5
f 228/3/5 226/3/5 227/3/5
f 229/3/5 227/3/5 225/3/5
f 229/2/5 228/2/5 227/2/5
f 230/3/5 226/3/5 228/3/5
f 230/2/5 228/2/5 229/2/5
f 231/3/5 229/3/5 225/3/5
f 231/3/5 230/3/5 229/3/5
f 232/3/5 226/3/5 230/3/5
f 232/3/5 230/3/5 231/3/5
f 235/3/5 234/3/5 233/3/5
f 236/3/5 234/3/5 235/3/5
f 237/3/5 235/3/5 233/3/5
f 238/3/5 234/3/5 236/3/5
f 239/3/5 237/3/5 233/3/5
f 239/3/5 238/3/5 237/3/5
f 240/3/5 234/3/5 238/3/5
f 240/3/5 238/3/5 239/3/5
f 243/6/5 242/6/5 241/6/5
f 244/6/5 242/6/5 243/6/5
f 245/6/5 243/6/5 241/6/5
f 246/6/5 242/6/5 244/6/5
f 247/6/5 245/6/5 241/6/5
f 247/6/5 246/6/5 245/6/5
f 248/6/5 242/6/5 246/6/5
f 248/6/5 246/6/5 247/6/5
f 251/4/5 250/4/5 249/4/5
f 252/4/5 250/4/5 251/4/5
f 253/4/5 251/4/5 249/4/5
f 254/4/5 250/4/5 252/4/5
f 255/4/5 253/4/5 249/4/5
f 255/4/5 254/4/5 253/4/5
f 256/4/5 250/4/5 254/4/5
f 256/4/5 254/4/5 255/4/5
f 257/7/6 258/7/6 260/7/6
f 260/7/6 258/7/6 261/7/6
f 259/7/6 260/7/6 263/7/6
f 261/7/6 262/7/6 263/7/6
f 260/7/6 261/7/6 263/7/6
f 263/7/6 262/7/6 264/7/6
f 264/7/6 262/7/6 265/7/6
f 265/7/6 262/7/6 266/7/6
f 259/7/6 263/7/6 267/7/6
f 263/1/6 264/1/6 267/1/6
f 264/7/6 265/7/6 268/7/6
f 267/1/6 264/1/6 268/1/6
f 265/1/6 266/1/6 269/1/6
f 268/7/6 265/7/6 269/7/6
f 266/7/6 262/7/6 270/7/6
f 269/1/6 266/1/6 270/1/6
f 268/7/6 269/7/6 271/7/6
f 267/7/6 268/7/6 271/7/6
f 269/7/6 270/7/6 271/7/6
f 259/7/6 267/7/6 271/7/6
f 271/7/6 270/7/6 272/7/6
f 270/7/6 262/7/6 273/7/6
f 272/7/6 270/7/6 273/7/6
f 273/7/6 262/7/6 274/7/6
f 272/7/6 273/7/6 275/7/6
f 275/7/6 273/7/6 276/7/6
f 277/3/6 278/3/6 279/3/6
f 279/3/6 278/3/6 280/3/6
f 277/3/6 279/3/6 281/3/6
f 280/3/6 278/3/6 282/3/6
f 277/3/6 281/3/6 283/3/6
f 281/3/6 282/3/6 283/3/6
f 282/3/6 278/3/6 284/3/6
f 283/3/6 282/3/6 284/3/6
f 285/6/6 286/6/6 287/6/6
f 287/6/6 286/6/6 288/6/6
f 285/6/6 287/6/6 289/6/6
f 288/6/6 286/6/6 290/6/6
f 285/6/6 289/6/6 291/6/6
f 289/6/6 290/6/6 291/6/6
f 290/6/6 286/6/6 292/6/6
f 291/6/6 290/6/6 292/6/6
f 293/4/6 294/4/6 295/4/6
f 295/4/6 294/4/6 296/4/6
f 293/4/6 295/4/6 297/4/6
f 296/4/6 294/4/6 298/4/6
f 293/4/6 297/4/6 299/4/6
f 297/4/6 298/4/6 299/4/6
f 298/4/6 294/4/6 300/4/6
f 299/4/6 298/4/6 300/4/6
f 301/5/6 302/5/6 305/5/6
f 305/5/6 302/5/6 306/5/6
f 303/5/6 304/5/6 307/5/6
f 307/5/6 304/5/6 308/5/6
f 309/5/6 310/5/6 313/5/6
f 313/5/6 310/5/6 314/5/6
f 311/5/6 312/5/6 315/5/6
f 315/5/6 312/5/6 316/5/6
