# MagicaVoxel @ Ephtracy

# material
mtllib obj_grave3.mtl
usemtl palette

# normals
vn -1 0 0
vn 1 0 0
vn 0 0 1
vn 0 0 -1
vn 0 -1 0
vn 0 1 0

# texcoords
vt 0.978516 0.5
vt 0.986328 0.5

# verts
v -7 0 -1.5
v -7 0 -6.5
v -7 2 -1.5
v -7 2 -6.5
v -6 2 -3.5
v -6 2 -4.5
v -6 9 -3.5
v -6 9 -4.5
v -5 3 -2.5
v -5 3 -3.5
v -5 4 -2.5
v -5 4 -3.5
v -5 5 -2.5
v -5 5 -3.5
v -5 6 -2.5
v -5 6 -3.5
v -5 7 -2.5
v -5 7 -3.5
v -5 8 -2.5
v -5 8 -3.5
v -5 9 -3.5
v -5 9 -4.5
v -5 10 -3.5
v -5 10 -4.5
v -3 5 -2.5
v -3 5 -3.5
v -3 6 -2.5
v -3 6 -3.5
v -4 5 -2.5
v -4 5 -3.5
v -4 6 -2.5
v -4 6 -3.5
v -1 3 -2.5
v -1 3 -3.5
v -1 4 -2.5
v -1 4 -3.5
v -1 5 -2.5
v -1 5 -3.5
v -1 6 -2.5
v -1 6 -3.5
v -1 7 -2.5
v -1 7 -3.5
v -1 8 -2.5
v -1 8 -3.5
v -1 9 -3.5
v -1 9 -4.5
v -1 10 -3.5
v -1 10 -4.5
v 0 2 -3.5
v 0 2 -4.5
v 0 9 -3.5
v 0 9 -4.5
v 1 0 -1.5
v 1 0 -6.5
v 1 2 -1.5
v 1 2 -6.5
v -7 0 -1.5
v -7 2 -1.5
v 1 0 -1.5
v 1 2 -1.5
v -5 3 -2.5
v -5 4 -2.5
v -5 5 -2.5
v -5 6 -2.5
v -5 7 -2.5
v -5 8 -2.5
v -4 5 -2.5
v -4 6 -2.5
v -3 5 -2.5
v -3 6 -2.5
v -1 3 -2.5
v -1 4 -2.5
v -1 5 -2.5
v -1 6 -2.5
v -1 7 -2.5
v -1 8 -2.5
v -6 2 -3.5
v -6 9 -3.5
v -5 3 -3.5
v -5 4 -3.5
v -5 5 -3.5
v -5 6 -3.5
v -5 7 -3.5
v -5 8 -3.5
v -5 9 -3.5
v -5 10 -3.5
v -4 5 -3.5
v -4 6 -3.5
v -3 5 -3.5
v -3 6 -3.5
v -1 3 -3.5
v -1 4 -3.5
v -1 5 -3.5
v -1 6 -3.5
v -1 7 -3.5
v -1 8 -3.5
v -1 9 -3.5
v -1 10 -3.5
v 0 2 -3.5
v 0 9 -3.5
v -6 2 -4.5
v -6 9 -4.5
v -5 9 -4.5
v -5 10 -4.5
v -1 9 -4.5
v -1 10 -4.5
v 0 2 -4.5
v 0 9 -4.5
v -7 0 -6.5
v -7 2 -6.5
v 1 0 -6.5
v 1 2 -6.5
v -7 0 -1.5
v 1 0 -1.5
v -6 0 -2.5
v 0 0 -2.5
v -6 0 -5.5
v 0 0 -5.5
v -7 0 -6.5
v 1 0 -6.5
v -5 3 -2.5
v -1 3 -2.5
v -5 3 -3.5
v -1 3 -3.5
v -5 5 -2.5
v -4 5 -2.5
v -3 5 -2.5
v -1 5 -2.5
v -5 5 -3.5
v -4 5 -3.5
v -3 5 -3.5
v -1 5 -3.5
v -5 7 -2.5
v -1 7 -2.5
v -5 7 -3.5
v -1 7 -3.5
v -7 2 -1.5
v 1 2 -1.5
v -6 2 -3.5
v 0 2 -3.5
v -6 2 -4.5
v 0 2 -4.5
v -7 2 -6.5
v 1 2 -6.5
v -5 4 -2.5
v -1 4 -2.5
v -5 4 -3.5
v -1 4 -3.5
v -5 6 -2.5
v -4 6 -2.5
v -3 6 -2.5
v -1 6 -2.5
v -5 6 -3.5
v -4 6 -3.5
v -3 6 -3.5
v -1 6 -3.5
v -5 8 -2.5
v -1 8 -2.5
v -5 8 -3.5
v -1 8 -3.5
v -6 9 -3.5
v -5 9 -3.5
v -1 9 -3.5
v 0 9 -3.5
v -6 9 -4.5
v -5 9 -4.5
v -1 9 -4.5
v 0 9 -4.5
v -5 10 -3.5
v -1 10 -3.5
v -5 10 -4.5
v -1 10 -4.5

# faces
f 3/2/1 2/2/1 1/2/1
f 4/2/1 2/2/1 3/2/1
f 7/1/1 6/1/1 5/1/1
f 8/1/1 6/1/1 7/1/1
f 11/1/1 10/1/1 9/1/1
f 12/1/1 10/1/1 11/1/1
f 15/1/1 14/1/1 13/1/1
f 16/1/1 14/1/1 15/1/1
f 19/1/1 18/1/1 17/1/1
f 20/1/1 18/1/1 19/1/1
f 23/1/1 22/1/1 21/1/1
f 24/1/1 22/1/1 23/1/1
f 27/1/1 26/1/1 25/1/1
f 28/1/1 26/1/1 27/1/1
f 29/1/2 30/1/2 31/1/2
f 31/1/2 30/1/2 32/1/2
f 33/1/2 34/1/2 35/1/2
f 35/1/2 34/1/2 36/1/2
f 37/1/2 38/1/2 39/1/2
f 39/1/2 38/1/2 40/1/2
f 41/1/2 42/1/2 43/1/2
f 43/1/2 42/1/2 44/1/2
f 45/1/2 46/1/2 47/1/2
f 47/1/2 46/1/2 48/1/2
f 49/1/2 50/1/2 51/1/2
f 51/1/2 50/1/2 52/1/2
f 53/2/2 54/2/2 55/2/2
f 55/2/2 54/2/2 56/2/2
f 59/2/3 58/2/3 57/2/3
f 60/2/3 58/2/3 59/2/3
f 67/1/3 64/1/3 63/1/3
f 68/1/3 64/1/3 67/1/3
f 71/1/3 62/1/3 61/1/3
f 72/1/3 62/1/3 71/1/3
f 73/1/3 70/1/3 69/1/3
f 74/1/3 70/1/3 73/1/3
f 75/1/3 66/1/3 65/1/3
f 76/1/3 66/1/3 75/1/3
f 79/1/3 78/1/3 77/1/3
f 80/1/3 78/1/3 79/1/3
f 81/1/3 78/1/3 80/1/3
f 82/1/3 78/1/3 81/1/3
f 83/1/3 78/1/3 82/1/3
f 84/1/3 78/1/3 83/1/3
f 85/1/3 78/1/3 84/1/3
f 87/1/3 81/1/3 80/1/3
f 88/1/3 83/1/3 82/1/3
f 89/1/3 87/1/3 80/1/3
f 89/1/3 88/1/3 87/1/3
f 90/1/3 83/1/3 88/1/3
f 90/1/3 88/1/3 89/1/3
f 91/1/3 79/1/3 77/1/3
f 92/1/3 89/1/3 80/1/3
f 93/1/3 89/1/3 92/1/3
f 94/1/3 83/1/3 90/1/3
f 95/1/3 83/1/3 94/1/3
f 96/1/3 86/1/3 85/1/3
f 96/1/3 85/1/3 84/1/3
f 97/1/3 86/1/3 96/1/3
f 98/1/3 86/1/3 97/1/3
f 99/1/3 93/1/3 92/1/3
f 99/1/3 95/1/3 94/1/3
f 99/1/3 97/1/3 96/1/3
f 99/1/3 96/1/3 95/1/3
f 99/1/3 94/1/3 93/1/3
f 99/1/3 91/1/3 77/1/3
f 99/1/3 92/1/3 91/1/3
f 100/1/3 97/1/3 99/1/3
f 101/1/4 102/1/4 103/1/4
f 101/1/4 103/1/4 105/1/4
f 103/1/4 104/1/4 105/1/4
f 105/1/4 104/1/4 106/1/4
f 101/1/4 105/1/4 107/1/4
f 107/1/4 105/1/4 108/1/4
f 109/2/4 110/2/4 111/2/4
f 111/2/4 110/2/4 112/2/4
f 115/2/5 114/2/5 113/2/5
f 116/2/5 114/2/5 115/2/5
f 117/2/5 115/2/5 113/2/5
f 117/1/5 116/1/5 115/1/5
f 118/2/5 114/2/5 116/2/5
f 118/1/5 116/1/5 117/1/5
f 119/2/5 117/2/5 113/2/5
f 119/2/5 118/2/5 117/2/5
f 120/2/5 114/2/5 118/2/5
f 120/2/5 118/2/5 119/2/5
f 123/1/5 122/1/5 121/1/5
f 124/1/5 122/1/5 123/1/5
f 129/1/5 126/1/5 125/1/5
f 130/1/5 126/1/5 129/1/5
f 131/1/5 128/1/5 127/1/5
f 132/1/5 128/1/5 131/1/5
f 135/1/5 134/1/5 133/1/5
f 136/1/5 134/1/5 135/1/5
f 137/2/6 138/2/6 139/2/6
f 139/2/6 138/2/6 140/2/6
f 137/2/6 139/2/6 141/2/6
f 140/2/6 138/2/6 142/2/6
f 137/2/6 141/2/6 143/2/6
f 141/2/6 142/2/6 143/2/6
f 142/2/6 138/2/6 144/2/6
f 143/2/6 142/2/6 144/2/6
f 145/1/6 146/1/6 147/1/6
f 147/1/6 146/1/6 148/1/6
f 149/1/6 150/1/6 153/1/6
f 153/1/6 150/1/6 154/1/6
f 151/1/6 152/1/6 155/1/6
f 155/1/6 152/1/6 156/1/6
f 157/1/6 158/1/6 159/1/6
f 159/1/6 158/1/6 160/1/6
f 161/1/6 162/1/6 165/1/6
f 165/1/6 162/1/6 166/1/6
f 163/1/6 164/1/6 167/1/6
f 167/1/6 164/1/6 168/1/6
f 169/1/6 170/1/6 171/1/6
f 171/1/6 170/1/6 172/1/6
