# MagicaVoxel @ Ephtracy

# material
mtllib obj_sign3.mtl
usemtl palette

# normals
vn -1 0 0
vn 1 0 0
vn 0 0 1
vn 0 0 -1
vn 0 -1 0
vn 0 1 0

# texcoords
vt 0.369141 0.5
vt 0.845703 0.5
vt 0.958984 0.5

# verts
v -2.5 5 1
v -2.5 5 -0
v -2.5 10 1
v -2.5 10 -0
v -0.5 0 -0
v -0.5 0 -1
v -0.5 5 -0
v -0.5 7 -0
v -0.5 8 -0
v -0.5 10 -0
v -0.5 10 -1
v 0.5 0 -0
v 0.5 0 -1
v 0.5 5 -0
v 0.5 7 -0
v 0.5 8 -0
v 0.5 10 -0
v 0.5 10 -1
v 2.5 5 1
v 2.5 5 -0
v 2.5 10 1
v 2.5 10 -0
v -2.5 5 1
v -2.5 10 1
v -1.5 7 1
v -1.5 8 1
v 1.5 7 1
v 1.5 8 1
v 2.5 5 1
v 2.5 10 1
v -0.5 0 -0
v -0.5 5 -0
v 0.5 0 -0
v 0.5 5 -0
v -2.5 5 -0
v -2.5 10 -0
v -1.5 7 -0
v -1.5 8 -0
v -0.5 5 -0
v -0.5 7 -0
v -0.5 8 -0
v -0.5 10 -0
v 0.5 5 -0
v 0.5 7 -0
v 0.5 8 -0
v 0.5 10 -0
v 1.5 7 -0
v 1.5 8 -0
v 2.5 5 -0
v 2.5 10 -0
v -0.5 0 -1
v -0.5 10 -1
v 0.5 0 -1
v 0.5 10 -1
v -0.5 0 -0
v 0.5 0 -0
v -0.5 0 -1
v 0.5 0 -1
v -2.5 5 1
v 2.5 5 1
v -2.5 5 -0
v -0.5 5 -0
v 0.5 5 -0
v 2.5 5 -0
v -2.5 10 1
v 2.5 10 1
v -2.5 10 -0
v -0.5 10 -0
v 0.5 10 -0
v 2.5 10 -0
v -0.5 10 -1
v 0.5 10 -1

# faces
f 3/3/1 2/3/1 1/3/1
f 4/3/1 2/3/1 3/3/1
f 7/1/1 6/1/1 5/1/1
f 8/1/1 6/1/1 7/1/1
f 9/1/1 6/1/1 8/1/1
f 10/1/1 6/1/1 9/1/1
f 11/1/1 6/1/1 10/1/1
f 12/1/2 13/1/2 14/1/2
f 14/1/2 13/1/2 15/1/2
f 15/1/2 13/1/2 16/1/2
f 16/1/2 13/1/2 17/1/2
f 17/1/2 13/1/2 18/1/2
f 19/3/2 20/3/2 21/3/2
f 21/3/2 20/3/2 22/3/2
f 25/3/3 24/3/3 23/3/3
f 26/3/3 24/3/3 25/3/3
f 27/3/3 25/3/3 23/3/3
f 27/2/3 26/2/3 25/2/3
f 28/3/3 24/3/3 26/3/3
f 28/2/3 26/2/3 27/2/3
f 29/3/3 27/3/3 23/3/3
f 29/3/3 28/3/3 27/3/3
f 30/3/3 24/3/3 28/3/3
f 30/3/3 28/3/3 29/3/3
f 33/1/3 32/1/3 31/1/3
f 34/1/3 32/1/3 33/1/3
f 35/3/4 36/3/4 37/3/4
f 37/3/4 36/3/4 38/3/4
f 35/3/4 37/3/4 39/3/4
f 37/2/4 38/2/4 40/2/4
f 39/3/4 37/3/4 40/3/4
f 38/3/4 36/3/4 41/3/4
f 40/2/4 38/2/4 41/2/4
f 41/3/4 36/3/4 42/3/4
f 43/3/4 44/3/4 47/3/4
f 44/2/4 45/2/4 47/2/4
f 45/3/4 46/3/4 48/3/4
f 47/2/4 45/2/4 48/2/4
f 43/3/4 47/3/4 49/3/4
f 47/3/4 48/3/4 49/3/4
f 48/3/4 46/3/4 50/3/4
f 49/3/4 48/3/4 50/3/4
f 51/1/4 52/1/4 53/1/4
f 53/1/4 52/1/4 54/1/4
f 57/1/5 56/1/5 55/1/5
f 58/1/5 56/1/5 57/1/5
f 61/3/5 60/3/5 59/3/5
f 62/3/5 60/3/5 61/3/5
f 63/3/5 60/3/5 62/3/5
f 64/3/5 60/3/5 63/3/5
f 65/3/6 66/3/6 67/3/6
f 67/3/6 66/3/6 68/3/6
f 68/3/6 66/3/6 69/3/6
f 69/3/6 66/3/6 70/3/6
f 68/1/6 69/1/6 71/1/6
f 71/1/6 69/1/6 72/1/6
