# MagicaVoxel @ Ephtracy

# material
mtllib obj_door3.mtl
usemtl palette

# normals
vn -1 0 0
vn 1 0 0
vn 0 0 1
vn 0 0 -1
vn 0 -1 0
vn 0 1 0

# texcoords
vt 0.306641 0.5
vt 0.537109 0.5
vt 0.966797 0.5
vt 0.970703 0.5
vt 0.990234 0.5

# verts
v -6 0 -0
v -6 0 -1
v -6 16 -0
v -6 16 -1
v -5 6 1
v -5 6 -0
v -5 8 1
v -5 8 -0
v -4 6 1
v -4 6 -0
v -4 8 1
v -4 8 -0
v 6 0 -0
v 6 0 -1
v 6 16 -0
v 6 16 -1
v -5 6 1
v -5 8 1
v -4 6 1
v -4 8 1
v -6 0 -0
v -6 16 -0
v -5 0 -0
v -5 1 -0
v -5 6 -0
v -5 8 -0
v -5 14 -0
v -4 6 -0
v -4 8 -0
v 5 0 -0
v 5 1 -0
v 5 14 -0
v 6 0 -0
v 6 16 -0
v -6 0 -1
v -6 16 -1
v -5 0 -1
v -5 1 -1
v -5 6 -1
v -5 8 -1
v -5 14 -1
v -4 6 -1
v -4 8 -1
v 5 0 -1
v 5 1 -1
v 5 14 -1
v 6 0 -1
v 6 16 -1
v -6 0 -0
v -5 0 -0
v 5 0 -0
v 6 0 -0
v -6 0 -1
v -5 0 -1
v 5 0 -1
v 6 0 -1
v -5 6 1
v -4 6 1
v -5 6 -0
v -4 6 -0
v -5 8 1
v -4 8 1
v -5 8 -0
v -4 8 -0
v -6 16 -0
v 6 16 -0
v -6 16 -1
v 6 16 -1

# faces
f 3/3/1 2/3/1 1/3/1
f 4/3/1 2/3/1 3/3/1
f 7/5/1 6/5/1 5/5/1
f 8/5/1 6/5/1 7/5/1
f 9/5/2 10/5/2 11/5/2
f 11/5/2 10/5/2 12/5/2
f 13/3/2 14/3/2 15/3/2
f 15/3/2 14/3/2 16/3/2
f 19/5/3 18/5/3 17/5/3
f 20/5/3 18/5/3 19/5/3
f 23/3/3 22/3/3 21/3/3
f 24/3/3 22/3/3 23/3/3
f 25/3/3 22/3/3 24/3/3
f 26/3/3 22/3/3 25/3/3
f 27/3/3 22/3/3 26/3/3
f 28/1/3 25/1/3 24/1/3
f 29/1/3 27/1/3 26/1/3
f 30/4/3 24/4/3 23/4/3
f 31/1/3 29/1/3 28/1/3
f 31/4/3 24/4/3 30/4/3
f 31/1/3 28/1/3 24/1/3
f 32/3/3 22/3/3 27/3/3
f 32/1/3 29/1/3 31/1/3
f 32/1/3 27/1/3 29/1/3
f 33/3/3 31/3/3 30/3/3
f 33/3/3 32/3/3 31/3/3
f 34/3/3 22/3/3 32/3/3
f 34/3/3 32/3/3 33/3/3
f 35/3/4 36/3/4 37/3/4
f 37/3/4 36/3/4 38/3/4
f 38/3/4 36/3/4 39/3/4
f 39/3/4 36/3/4 40/3/4
f 40/3/4 36/3/4 41/3/4
f 38/1/4 39/1/4 42/1/4
f 39/2/4 40/2/4 42/2/4
f 40/1/4 41/1/4 43/1/4
f 42/2/4 40/2/4 43/2/4
f 37/4/4 38/4/4 44/4/4
f 38/1/4 42/1/4 45/1/4
f 44/4/4 38/4/4 45/4/4
f 42/1/4 43/1/4 45/1/4
f 43/1/4 41/1/4 46/1/4
f 45/1/4 43/1/4 46/1/4
f 41/3/4 36/3/4 46/3/4
f 44/3/4 45/3/4 47/3/4
f 45/3/4 46/3/4 47/3/4
f 46/3/4 36/3/4 48/3/4
f 47/3/4 46/3/4 48/3/4
f 53/3/5 50/3/5 49/3/5
f 54/4/5 51/4/5 50/4/5
f 54/3/5 50/3/5 53/3/5
f 55/3/5 52/3/5 51/3/5
f 55/4/5 51/4/5 54/4/5
f 56/3/5 52/3/5 55/3/5
f 59/5/5 58/5/5 57/5/5
f 60/5/5 58/5/5 59/5/5
f 61/5/6 62/5/6 63/5/6
f 63/5/6 62/5/6 64/5/6
f 65/3/6 66/3/6 67/3/6
f 67/3/6 66/3/6 68/3/6
