# MagicaVoxel @ Ephtracy

# material
mtllib obj_arcade1.mtl
usemtl palette

# normals
vn -1 0 0
vn 1 0 0
vn 0 0 1
vn 0 0 -1
vn 0 -1 0
vn 0 1 0

# texcoords
vt 0.849609 0.5
vt 0.958984 0.5
vt 0.966797 0.5
vt 0.978516 0.5
vt 0.986328 0.5
vt 0.990234 0.5

# verts
v -5 0 3.5
v -5 0 2.5
v -5 0 -3.5
v -5 5 3.5
v -5 5 2.5
v -5 5 0.5
v -5 5 -0.5
v -5 6 3.5
v -5 6 0.5
v -5 10 2.5
v -5 10 1.5
v -5 10 0.5
v -5 10 -0.5
v -5 12 1.5
v -5 12 -3.5
v -5 13 2.5
v -5 13 -3.5
v -3 6 2.5
v -3 6 1.5
v -3 7 2.5
v -3 7 1.5
v 0 6 2.5
v 0 6 1.5
v 0 7 2.5
v 0 7 1.5
v 2 6 2.5
v 2 6 1.5
v 2 7 2.5
v 2 7 1.5
v 4 6 0.5
v 4 6 -0.5
v 4 10 0.5
v 4 10 -0.5
v -4 6 0.5
v -4 6 -0.5
v -4 10 0.5
v -4 10 -0.5
v -2 6 2.5
v -2 6 1.5
v -2 7 2.5
v -2 7 1.5
v 1 6 2.5
v 1 6 1.5
v 1 7 2.5
v 1 7 1.5
v 3 6 2.5
v 3 6 1.5
v 3 7 2.5
v 3 7 1.5
v 5 0 3.5
v 5 0 2.5
v 5 0 -3.5
v 5 5 3.5
v 5 5 2.5
v 5 5 0.5
v 5 5 -0.5
v 5 6 3.5
v 5 6 0.5
v 5 10 2.5
v 5 10 1.5
v 5 10 0.5
v 5 10 -0.5
v 5 12 1.5
v 5 12 -3.5
v 5 13 2.5
v 5 13 -3.5
v -5 0 3.5
v -5 5 3.5
v -5 6 3.5
v -3 4 3.5
v -3 5 3.5
v -2 1 3.5
v -2 3 3.5
v 2 1 3.5
v 2 3 3.5
v 3 4 3.5
v 3 5 3.5
v 5 0 3.5
v 5 5 3.5
v 5 6 3.5
v -5 10 2.5
v -5 13 2.5
v -4 10 2.5
v -4 13 2.5
v -3 6 2.5
v -3 7 2.5
v -2 6 2.5
v -2 7 2.5
v 0 6 2.5
v 0 7 2.5
v 1 6 2.5
v 1 7 2.5
v 2 6 2.5
v 2 7 2.5
v 3 6 2.5
v 3 7 2.5
v 4 10 2.5
v 4 13 2.5
v 5 10 2.5
v 5 13 2.5
v -5 6 0.5
v -5 10 0.5
v -4 6 0.5
v -4 10 0.5
v 4 6 0.5
v 4 10 0.5
v 5 6 0.5
v 5 10 0.5
v -4 6 -0.5
v -4 10 -0.5
v -3 6 -0.5
v -3 10 -0.5
v 3 6 -0.5
v 3 10 -0.5
v 4 6 -0.5
v 4 10 -0.5
v -3 6 1.5
v -3 7 1.5
v -2 6 1.5
v -2 7 1.5
v 0 6 1.5
v 0 7 1.5
v 1 6 1.5
v 1 7 1.5
v 2 6 1.5
v 2 7 1.5
v 3 6 1.5
v 3 7 1.5
v -5 0 -3.5
v -5 12 -3.5
v -5 13 -3.5
v 5 0 -3.5
v 5 12 -3.5
v 5 13 -3.5
v -5 0 3.5
v 5 0 3.5
v -5 0 2.5
v -4 0 2.5
v 4 0 2.5
v 5 0 2.5
v -4 0 -2.5
v 4 0 -2.5
v -5 0 -3.5
v 5 0 -3.5
v -5 10 2.5
v -4 10 2.5
v 4 10 2.5
v 5 10 2.5
v -5 10 1.5
v -4 10 1.5
v 4 10 1.5
v 5 10 1.5
v -5 10 0.5
v -4 10 0.5
v 4 10 0.5
v 5 10 0.5
v -4 10 -0.5
v -3 10 -0.5
v 3 10 -0.5
v 4 10 -0.5
v -5 6 3.5
v 5 6 3.5
v -3 6 2.5
v -2 6 2.5
v 0 6 2.5
v 1 6 2.5
v 2 6 2.5
v 3 6 2.5
v -3 6 1.5
v -2 6 1.5
v 0 6 1.5
v 1 6 1.5
v 2 6 1.5
v 3 6 1.5
v -5 6 0.5
v -4 6 0.5
v 4 6 0.5
v 5 6 0.5
v -4 6 -0.5
v -3 6 -0.5
v 3 6 -0.5
v 4 6 -0.5
v -3 7 2.5
v -2 7 2.5
v 0 7 2.5
v 1 7 2.5
v 2 7 2.5
v 3 7 2.5
v -3 7 1.5
v -2 7 1.5
v 0 7 1.5
v 1 7 1.5
v 2 7 1.5
v 3 7 1.5
v -5 13 2.5
v -4 13 2.5
v 4 13 2.5
v 5 13 2.5
v -4 13 1.5
v 4 13 1.5
v -5 13 -3.5
v 5 13 -3.5

# faces
f 4/1/1 2/1/1 1/1/1
f 5/2/1 3/2/1 2/2/1
f 5/1/1 2/1/1 4/1/1
f 6/2/1 3/2/1 5/2/1
f 7/2/1 3/2/1 6/2/1
f 8/6/1 5/6/1 4/6/1
f 8/6/1 6/6/1 5/6/1
f 9/1/1 7/1/1 6/1/1
f 9/6/1 6/6/1 8/6/1
f 12/1/1 7/1/1 9/1/1
f 13/2/1 3/2/1 7/2/1
f 13/1/1 7/1/1 12/1/1
f 14/2/1 12/2/1 11/2/1
f 14/1/1 11/1/1 10/1/1
f 14/2/1 13/2/1 12/2/1
f 15/2/1 3/2/1 13/2/1
f 15/2/1 13/2/1 14/2/1
f 16/1/1 14/1/1 10/1/1
f 16/1/1 15/1/1 14/1/1
f 17/1/1 15/1/1 16/1/1
f 20/2/1 19/2/1 18/2/1
f 21/2/1 19/2/1 20/2/1
f 24/1/1 23/1/1 22/1/1
f 25/1/1 23/1/1 24/1/1
f 28/4/1 27/4/1 26/4/1
f 29/4/1 27/4/1 28/4/1
f 32/1/1 31/1/1 30/1/1
f 33/1/1 31/1/1 32/1/1
f 34/1/2 35/1/2 36/1/2
f 36/1/2 35/1/2 37/1/2
f 38/2/2 39/2/2 40/2/2
f 40/2/2 39/2/2 41/2/2
f 42/1/2 43/1/2 44/1/2
f 44/1/2 43/1/2 45/1/2
f 46/4/2 47/4/2 48/4/2
f 48/4/2 47/4/2 49/4/2
f 50/1/2 51/1/2 53/1/2
f 51/2/2 52/2/2 54/2/2
f 53/1/2 51/1/2 54/1/2
f 54/2/2 52/2/2 55/2/2
f 55/2/2 52/2/2 56/2/2
f 53/6/2 54/6/2 57/6/2
f 54/6/2 55/6/2 57/6/2
f 55/1/2 56/1/2 58/1/2
f 57/6/2 55/6/2 58/6/2
f 58/1/2 56/1/2 61/1/2
f 56/2/2 52/2/2 62/2/2
f 61/1/2 56/1/2 62/1/2
f 60/2/2 61/2/2 63/2/2
f 59/1/2 60/1/2 63/1/2
f 61/2/2 62/2/2 63/2/2
f 62/2/2 52/2/2 64/2/2
f 63/2/2 62/2/2 64/2/2
f 59/1/2 63/1/2 65/1/2
f 63/1/2 64/1/2 65/1/2
f 65/1/2 64/1/2 66/1/2
f 70/1/3 68/1/3 67/1/3
f 71/6/3 69/6/3 68/6/3
f 71/1/3 68/1/3 70/1/3
f 72/1/3 70/1/3 67/1/3
f 73/1/3 70/1/3 72/1/3
f 74/1/3 72/1/3 67/1/3
f 74/6/3 73/6/3 72/6/3
f 75/1/3 70/1/3 73/1/3
f 75/6/3 73/6/3 74/6/3
f 76/6/3 71/6/3 70/6/3
f 76/1/3 70/1/3 75/1/3
f 76/1/3 75/1/3 74/1/3
f 77/6/3 69/6/3 71/6/3
f 77/6/3 71/6/3 76/6/3
f 78/1/3 76/1/3 74/1/3
f 78/1/3 74/1/3 67/1/3
f 78/1/3 77/1/3 76/1/3
f 79/6/3 69/6/3 77/6/3
f 79/1/3 77/1/3 78/1/3
f 80/6/3 69/6/3 79/6/3
f 83/1/3 82/1/3 81/1/3
f 84/1/3 82/1/3 83/1/3
f 87/2/3 86/2/3 85/2/3
f 88/2/3 86/2/3 87/2/3
f 91/1/3 90/1/3 89/1/3
f 92/1/3 90/1/3 91/1/3
f 95/4/3 94/4/3 93/4/3
f 96/4/3 94/4/3 95/4/3
f 97/6/3 84/6/3 83/6/3
f 98/6/3 84/6/3 97/6/3
f 99/1/3 98/1/3 97/1/3
f 100/1/3 98/1/3 99/1/3
f 103/1/3 102/1/3 101/1/3
f 104/1/3 102/1/3 103/1/3
f 107/1/3 106/1/3 105/1/3
f 108/1/3 106/1/3 107/1/3
f 111/4/3 110/4/3 109/4/3
f 112/4/3 110/4/3 111/4/3
f 113/5/3 112/5/3 111/5/3
f 114/5/3 112/5/3 113/5/3
f 115/4/3 114/4/3 113/4/3
f 116/4/3 114/4/3 115/4/3
f 117/2/4 118/2/4 119/2/4
f 119/2/4 118/2/4 120/2/4
f 121/1/4 122/1/4 123/1/4
f 123/1/4 122/1/4 124/1/4
f 125/4/4 126/4/4 127/4/4
f 127/4/4 126/4/4 128/4/4
f 129/2/4 130/2/4 132/2/4
f 130/1/4 131/1/4 133/1/4
f 132/2/4 130/2/4 133/2/4
f 133/1/4 131/1/4 134/1/4
f 137/1/5 136/1/5 135/1/5
f 138/1/5 136/1/5 137/1/5
f 139/1/5 136/1/5 138/1/5
f 140/1/5 136/1/5 139/1/5
f 141/2/5 138/2/5 137/2/5
f 141/3/5 139/3/5 138/3/5
f 142/2/5 140/2/5 139/2/5
f 142/3/5 139/3/5 141/3/5
f 143/2/5 141/2/5 137/2/5
f 143/2/5 142/2/5 141/2/5
f 144/2/5 140/2/5 142/2/5
f 144/2/5 142/2/5 143/2/5
f 149/1/5 146/1/5 145/1/5
f 150/6/5 147/6/5 146/6/5
f 150/1/5 146/1/5 149/1/5
f 151/1/5 148/1/5 147/1/5
f 151/6/5 147/6/5 150/6/5
f 152/1/5 148/1/5 151/1/5
f 153/2/5 150/2/5 149/2/5
f 154/5/5 151/5/5 150/5/5
f 154/2/5 150/2/5 153/2/5
f 155/2/5 152/2/5 151/2/5
f 155/5/5 151/5/5 154/5/5
f 156/2/5 152/2/5 155/2/5
f 157/5/5 155/5/5 154/5/5
f 158/5/5 155/5/5 157/5/5
f 159/5/5 155/5/5 158/5/5
f 160/5/5 155/5/5 159/5/5
f 161/6/6 162/6/6 163/6/6
f 163/6/6 162/6/6 164/6/6
f 164/6/6 162/6/6 165/6/6
f 165/6/6 162/6/6 166/6/6
f 166/6/6 162/6/6 167/6/6
f 167/6/6 162/6/6 168/6/6
f 161/6/6 163/6/6 169/6/6
f 164/6/6 165/6/6 170/6/6
f 170/6/6 165/6/6 171/6/6
f 166/6/6 167/6/6 172/6/6
f 172/6/6 167/6/6 173/6/6
f 168/6/6 162/6/6 174/6/6
f 172/6/6 173/6/6 175/6/6
f 173/6/6 174/6/6 175/6/6
f 170/6/6 171/6/6 175/6/6
f 161/6/6 169/6/6 175/6/6
f 171/6/6 172/6/6 175/6/6
f 169/6/6 170/6/6 175/6/6
f 175/6/6 174/6/6 176/6/6
f 174/6/6 162/6/6 177/6/6
f 176/6/6 174/6/6 177/6/6
f 177/6/6 162/6/6 178/6/6
f 176/6/6 177/6/6 179/6/6
f 179/6/6 177/6/6 180/6/6
f 180/6/6 177/6/6 181/6/6
f 181/6/6 177/6/6 182/6/6
f 183/2/6 184/2/6 189/2/6
f 189/2/6 184/2/6 190/2/6
f 185/1/6 186/1/6 191/1/6
f 191/1/6 186/1/6 192/1/6
f 187/4/6 188/4/6 193/4/6
f 193/4/6 188/4/6 194/4/6
f 195/1/6 196/1/6 199/1/6
f 196/6/6 197/6/6 199/6/6
f 197/1/6 198/1/6 200/1/6
f 199/6/6 197/6/6 200/6/6
f 195/1/6 199/1/6 201/1/6
f 199/1/6 200/1/6 201/1/6
f 200/1/6 198/1/6 202/1/6
f 201/1/6 200/1/6 202/1/6
