# MagicaVoxel @ Ephtracy

# material
mtllib obj_rubbish2.mtl
usemtl palette

# normals
vn -1 0 0
vn 1 0 0
vn 0 0 1
vn 0 0 -1
vn 0 -1 0
vn 0 1 0

# texcoords
vt 0.337891 0.5
vt 0.341797 0.5
vt 0.373047 0.5

# verts
v -2.5 0 3
v -2.5 0 2
v -2.5 0 -1
v -2.5 0 -2
v -2.5 1 3
v -2.5 1 2
v -2.5 1 -1
v -2.5 1 -2
v 0.5 0 -2
v 0.5 0 -3
v 0.5 1 -2
v 0.5 1 -3
v 1.5 0 1
v 1.5 0 -0
v 1.5 1 1
v 1.5 1 -0
v -1.5 0 -1
v -1.5 0 -2
v -1.5 1 -1
v -1.5 1 -2
v 1.5 0 3
v 1.5 0 2
v 1.5 0 -2
v 1.5 0 -3
v 1.5 1 3
v 1.5 1 2
v 1.5 1 -2
v 1.5 1 -3
v 2.5 0 1
v 2.5 0 -0
v 2.5 1 1
v 2.5 1 -0
v -2.5 0 3
v -2.5 1 3
v 1.5 0 3
v 1.5 1 3
v 1.5 0 1
v 1.5 1 1
v 2.5 0 1
v 2.5 1 1
v -2.5 0 -1
v -2.5 1 -1
v -1.5 0 -1
v -1.5 1 -1
v 0.5 0 -2
v 0.5 1 -2
v 1.5 0 -2
v 1.5 1 -2
v -2.5 0 2
v -2.5 1 2
v 1.5 0 2
v 1.5 1 2
v 1.5 0 -0
v 1.5 1 -0
v 2.5 0 -0
v 2.5 1 -0
v -2.5 0 -2
v -2.5 1 -2
v -1.5 0 -2
v -1.5 1 -2
v 0.5 0 -3
v 0.5 1 -3
v 1.5 0 -3
v 1.5 1 -3
v -2.5 0 3
v 1.5 0 3
v -2.5 0 2
v 1.5 0 2
v 1.5 0 1
v 2.5 0 1
v 1.5 0 -0
v 2.5 0 -0
v -2.5 0 -1
v -1.5 0 -1
v -2.5 0 -2
v -1.5 0 -2
v 0.5 0 -2
v 1.5 0 -2
v 0.5 0 -3
v 1.5 0 -3
v -2.5 1 3
v 1.5 1 3
v -2.5 1 2
v 1.5 1 2
v 1.5 1 1
v 2.5 1 1
v 1.5 1 -0
v 2.5 1 -0
v -2.5 1 -1
v -1.5 1 -1
v -2.5 1 -2
v -1.5 1 -2
v 0.5 1 -2
v 1.5 1 -2
v 0.5 1 -3
v 1.5 1 -3

# faces
f 5/3/1 2/3/1 1/3/1
f 6/3/1 2/3/1 5/3/1
f 7/2/1 4/2/1 3/2/1
f 8/2/1 4/2/1 7/2/1
f 11/2/1 10/2/1 9/2/1
f 12/2/1 10/2/1 11/2/1
f 15/1/1 14/1/1 13/1/1
f 16/1/1 14/1/1 15/1/1
f 17/2/2 18/2/2 19/2/2
f 19/2/2 18/2/2 20/2/2
f 21/3/2 22/3/2 25/3/2
f 25/3/2 22/3/2 26/3/2
f 23/2/2 24/2/2 27/2/2
f 27/2/2 24/2/2 28/2/2
f 29/1/2 30/1/2 31/1/2
f 31/1/2 30/1/2 32/1/2
f 35/3/3 34/3/3 33/3/3
f 36/3/3 34/3/3 35/3/3
f 39/1/3 38/1/3 37/1/3
f 40/1/3 38/1/3 39/1/3
f 43/2/3 42/2/3 41/2/3
f 44/2/3 42/2/3 43/2/3
f 47/2/3 46/2/3 45/2/3
f 48/2/3 46/2/3 47/2/3
f 49/3/4 50/3/4 51/3/4
f 51/3/4 50/3/4 52/3/4
f 53/1/4 54/1/4 55/1/4
f 55/1/4 54/1/4 56/1/4
f 57/2/4 58/2/4 59/2/4
f 59/2/4 58/2/4 60/2/4
f 61/2/4 62/2/4 63/2/4
f 63/2/4 62/2/4 64/2/4
f 67/3/5 66/3/5 65/3/5
f 68/3/5 66/3/5 67/3/5
f 71/1/5 70/1/5 69/1/5
f 72/1/5 70/1/5 71/1/5
f 75/2/5 74/2/5 73/2/5
f 76/2/5 74/2/5 75/2/5
f 79/2/5 78/2/5 77/2/5
f 80/2/5 78/2/5 79/2/5
f 81/3/6 82/3/6 83/3/6
f 83/3/6 82/3/6 84/3/6
f 85/1/6 86/1/6 87/1/6
f 87/1/6 86/1/6 88/1/6
f 89/2/6 90/2/6 91/2/6
f 91/2/6 90/2/6 92/2/6
f 93/2/6 94/2/6 95/2/6
f 95/2/6 94/2/6 96/2/6
