# MagicaVoxel @ Ephtracy

# material
mtllib obj_chair1.mtl
usemtl palette

# normals
vn -1 0 0
vn 1 0 0
vn 0 0 1
vn 0 0 -1
vn 0 -1 0
vn 0 1 0

# texcoords
vt 0.982422 0.5
vt 0.986328 0.5

# verts
v -2 0 2.5
v -2 0 1.5
v -2 0 -1.5
v -2 0 -2.5
v -2 2 1.5
v -2 2 -1.5
v -2 3 2.5
v -2 3 -2.5
v 1 0 2.5
v 1 0 1.5
v 1 0 -1.5
v 1 0 -2.5
v 1 2 2.5
v 1 2 1.5
v 1 2 -1.5
v 1 2 -2.5
v 1 3 2.5
v 1 3 1.5
v 1 3 -1.5
v 1 3 -2.5
v 1 5 2.5
v 1 5 -2.5
v -1 0 2.5
v -1 0 1.5
v -1 0 -1.5
v -1 0 -2.5
v -1 2 2.5
v -1 2 1.5
v -1 2 -1.5
v -1 2 -2.5
v 2 0 2.5
v 2 0 1.5
v 2 0 -1.5
v 2 0 -2.5
v 2 2 1.5
v 2 2 -1.5
v 2 5 2.5
v 2 5 -2.5
v -2 0 2.5
v -2 3 2.5
v -1 0 2.5
v -1 2 2.5
v 1 0 2.5
v 1 2 2.5
v 1 3 2.5
v 1 5 2.5
v 2 0 2.5
v 2 5 2.5
v -2 0 -1.5
v -2 2 -1.5
v -1 0 -1.5
v -1 2 -1.5
v 1 0 -1.5
v 1 2 -1.5
v 2 0 -1.5
v 2 2 -1.5
v -2 0 1.5
v -2 2 1.5
v -1 0 1.5
v -1 2 1.5
v 1 0 1.5
v 1 2 1.5
v 2 0 1.5
v 2 2 1.5
v -2 0 -2.5
v -2 3 -2.5
v -1 0 -2.5
v -1 2 -2.5
v 1 0 -2.5
v 1 2 -2.5
v 1 3 -2.5
v 1 5 -2.5
v 2 0 -2.5
v 2 5 -2.5
v -2 0 2.5
v -1 0 2.5
v 1 0 2.5
v 2 0 2.5
v -2 0 1.5
v -1 0 1.5
v 1 0 1.5
v 2 0 1.5
v -2 0 -1.5
v -1 0 -1.5
v 1 0 -1.5
v 2 0 -1.5
v -2 0 -2.5
v -1 0 -2.5
v 1 0 -2.5
v 2 0 -2.5
v -1 2 2.5
v 1 2 2.5
v -2 2 1.5
v -1 2 1.5
v 1 2 1.5
v 2 2 1.5
v -2 2 -1.5
v -1 2 -1.5
v 1 2 -1.5
v 2 2 -1.5
v -1 2 -2.5
v 1 2 -2.5
v -2 3 2.5
v 1 3 2.5
v -1 3 1.5
v 1 3 1.5
v -1 3 -1.5
v 1 3 -1.5
v -2 3 -2.5
v 1 3 -2.5
v 1 5 2.5
v 2 5 2.5
v 1 5 -2.5
v 2 5 -2.5

# faces
f 5/2/1 2/2/1 1/2/1
f 6/2/1 4/2/1 3/2/1
f 7/2/1 5/2/1 1/2/1
f 7/2/1 6/2/1 5/2/1
f 8/2/1 4/2/1 6/2/1
f 8/2/1 6/2/1 7/2/1
f 13/2/1 10/2/1 9/2/1
f 14/2/1 10/2/1 13/2/1
f 15/2/1 12/2/1 11/2/1
f 16/2/1 12/2/1 15/2/1
f 21/2/1 18/2/1 17/2/1
f 21/2/1 20/2/1 19/2/1
f 21/2/1 19/2/1 18/2/1
f 22/2/1 20/2/1 21/2/1
f 23/2/2 24/2/2 27/2/2
f 27/2/2 24/2/2 28/2/2
f 25/2/2 26/2/2 29/2/2
f 29/2/2 26/2/2 30/2/2
f 31/2/2 32/2/2 35/2/2
f 33/2/2 34/2/2 36/2/2
f 31/2/2 35/2/2 37/2/2
f 35/2/2 36/2/2 37/2/2
f 36/2/2 34/2/2 38/2/2
f 37/2/2 36/2/2 38/2/2
f 41/2/3 40/2/3 39/2/3
f 42/2/3 40/2/3 41/2/3
f 44/2/3 40/2/3 42/2/3
f 45/2/3 40/2/3 44/2/3
f 47/2/3 44/2/3 43/2/3
f 47/2/3 46/2/3 45/2/3
f 47/2/3 45/2/3 44/2/3
f 48/2/3 46/2/3 47/2/3
f 51/2/3 50/2/3 49/2/3
f 52/2/3 50/2/3 51/2/3
f 55/2/3 54/2/3 53/2/3
f 56/2/3 54/2/3 55/2/3
f 57/2/4 58/2/4 59/2/4
f 59/2/4 58/2/4 60/2/4
f 61/2/4 62/2/4 63/2/4
f 63/2/4 62/2/4 64/2/4
f 65/2/4 66/2/4 67/2/4
f 67/2/4 66/2/4 68/2/4
f 68/2/4 66/2/4 70/2/4
f 70/2/4 66/2/4 71/2/4
f 69/2/4 70/2/4 73/2/4
f 71/2/4 72/2/4 73/2/4
f 70/2/4 71/2/4 73/2/4
f 73/2/4 72/2/4 74/2/4
f 79/2/5 76/2/5 75/2/5
f 80/2/5 76/2/5 79/2/5
f 81/2/5 78/2/5 77/2/5
f 82/2/5 78/2/5 81/2/5
f 87/2/5 84/2/5 83/2/5
f 88/2/5 84/2/5 87/2/5
f 89/2/5 86/2/5 85/2/5
f 90/2/5 86/2/5 89/2/5
f 94/2/5 92/2/5 91/2/5
f 95/2/5 92/2/5 94/2/5
f 97/2/5 94/2/5 93/2/5
f 98/1/5 95/1/5 94/1/5
f 98/2/5 94/2/5 97/2/5
f 99/2/5 96/2/5 95/2/5
f 99/1/5 95/1/5 98/1/5
f 100/2/5 96/2/5 99/2/5
f 101/2/5 99/2/5 98/2/5
f 102/2/5 99/2/5 101/2/5
f 103/2/6 104/2/6 105/2/6
f 105/2/6 104/2/6 106/2/6
f 103/2/6 105/2/6 107/2/6
f 105/1/6 106/1/6 107/1/6
f 107/1/6 106/1/6 108/1/6
f 103/2/6 107/2/6 109/2/6
f 107/2/6 108/2/6 109/2/6
f 109/2/6 108/2/6 110/2/6
f 111/2/6 112/2/6 113/2/6
f 113/2/6 112/2/6 114/2/6
