# MagicaVoxel @ Ephtracy

# material
mtllib obj_trashcan4.mtl
usemtl palette

# normals
vn -1 0 0
vn 1 0 0
vn 0 0 1
vn 0 0 -1
vn 0 -1 0
vn 0 1 0

# texcoords
vt 0.794922 0.5
vt 0.966797 0.5
vt 0.974609 0.5
vt 0.978516 0.5
vt 0.982422 0.5

# verts
v -10 4 4
v -10 4 -4
v -10 7 4
v -10 7 -4
v -9 8 6
v -9 8 -0
v -9 9 6
v -9 9 1
v -9 9 -0
v -9 9 -6
v -9 10 1
v -9 10 -6
v -8 0 5
v -8 0 3
v -8 0 -3
v -8 0 -5
v -8 1 5
v -8 1 3
v -8 1 -3
v -8 1 -5
v -8 4 4
v -8 4 -4
v -8 5 4
v -8 5 -4
v -8 6 4
v -8 6 -4
v -8 7 4
v -8 7 -4
v -8 8 5
v -8 8 -0
v -8 9 5
v -8 9 1
v -8 9 -0
v -8 9 -5
v -8 10 5
v -8 10 1
v 7 0 5
v 7 0 3
v 7 0 -3
v 7 0 -5
v 7 1 5
v 7 1 3
v 7 1 -3
v 7 1 -5
v 7 2 4
v 7 2 -4
v 7 9 4
v 7 9 -4
v 9 5 4
v 9 5 -4
v 9 6 4
v 9 6 -4
v -9 5 4
v -9 5 -4
v -9 6 4
v -9 6 -4
v -7 0 5
v -7 0 3
v -7 0 -3
v -7 0 -5
v -7 1 5
v -7 1 3
v -7 1 -3
v -7 1 -5
v -7 2 4
v -7 2 -4
v -7 9 4
v -7 9 -4
v 8 0 5
v 8 0 3
v 8 0 -3
v 8 0 -5
v 8 1 5
v 8 1 3
v 8 1 -3
v 8 1 -5
v 8 4 4
v 8 4 -4
v 8 5 4
v 8 5 -4
v 8 6 4
v 8 6 -4
v 8 7 4
v 8 7 -4
v 8 8 5
v 8 8 -0
v 8 9 5
v 8 9 1
v 8 9 -0
v 8 9 -5
v 8 10 5
v 8 10 1
v 9 8 6
v 9 8 -0
v 9 9 6
v 9 9 1
v 9 9 -0
v 9 9 -6
v 9 10 1
v 9 10 -6
v 10 4 4
v 10 4 -4
v 10 7 4
v 10 7 -4
v -9 8 6
v -9 9 6
v 9 8 6
v 9 9 6
v -8 0 5
v -8 1 5
v -8 8 5
v -8 9 5
v -8 10 5
v -7 0 5
v -7 1 5
v 3 4 5
v 3 7 5
v 6 4 5
v 6 7 5
v 7 0 5
v 7 1 5
v 8 0 5
v 8 1 5
v 8 8 5
v 8 9 5
v 8 10 5
v -10 4 4
v -10 7 4
v -9 5 4
v -9 6 4
v -8 4 4
v -8 5 4
v -8 6 4
v -8 7 4
v 8 4 4
v 8 5 4
v 8 6 4
v 8 7 4
v 9 5 4
v 9 6 4
v 10 4 4
v 10 7 4
v -9 9 1
v -9 10 1
v -8 9 1
v -8 10 1
v 8 9 1
v 8 10 1
v 9 9 1
v 9 10 1
v -8 0 -3
v -8 1 -3
v -7 0 -3
v -7 1 -3
v 7 0 -3
v 7 1 -3
v 8 0 -3
v 8 1 -3
v -7 2 -4
v -7 9 -4
v -1 9 -4
v 1 9 -4
v 7 2 -4
v 7 9 -4
v -7 2 4
v -7 9 4
v -1 9 4
v 1 9 4
v 3 4 4
v 3 7 4
v 6 4 4
v 6 7 4
v 7 2 4
v 7 9 4
v -8 0 3
v -8 1 3
v -7 0 3
v -7 1 3
v 7 0 3
v 7 1 3
v 8 0 3
v 8 1 3
v -9 8 -0
v -9 9 -0
v -8 8 -0
v -8 9 -0
v 8 8 -0
v 8 9 -0
v 9 8 -0
v 9 9 -0
v -10 4 -4
v -10 7 -4
v -9 5 -4
v -9 6 -4
v -8 4 -4
v -8 5 -4
v -8 6 -4
v -8 7 -4
v 8 4 -4
v 8 5 -4
v 8 6 -4
v 8 7 -4
v 9 5 -4
v 9 6 -4
v 10 4 -4
v 10 7 -4
v -8 0 -5
v -8 1 -5
v -8 9 -5
v -7 0 -5
v -7 1 -5
v 7 0 -5
v 7 1 -5
v 8 0 -5
v 8 1 -5
v 8 9 -5
v -9 9 -6
v -9 10 -6
v 9 9 -6
v 9 10 -6
v -8 0 5
v -7 0 5
v 7 0 5
v 8 0 5
v -8 0 3
v -7 0 3
v 7 0 3
v 8 0 3
v -8 0 -3
v -7 0 -3
v 7 0 -3
v 8 0 -3
v -8 0 -5
v -7 0 -5
v 7 0 -5
v 8 0 -5
v -7 1 5
v 7 1 5
v -8 1 3
v -7 1 3
v 7 1 3
v 8 1 3
v -8 1 -3
v -7 1 -3
v 7 1 -3
v 8 1 -3
v -7 1 -5
v 7 1 -5
v -10 4 4
v -8 4 4
v 8 4 4
v 10 4 4
v -10 4 -4
v -8 4 -4
v 8 4 -4
v 10 4 -4
v -9 6 4
v -8 6 4
v 8 6 4
v 9 6 4
v -9 6 -4
v -8 6 -4
v 8 6 -4
v 9 6 -4
v -9 8 6
v 9 8 6
v -8 8 5
v 8 8 5
v -9 8 -0
v -8 8 -0
v 8 8 -0
v 9 8 -0
v -7 9 4
v -1 9 4
v 1 9 4
v 7 9 4
v -9 9 -0
v -8 9 -0
v 8 9 -0
v 9 9 -0
v -7 9 -4
v -1 9 -4
v 1 9 -4
v 7 9 -4
v -8 9 -5
v 8 9 -5
v -9 9 -6
v 9 9 -6
v -7 2 4
v 7 2 4
v -7 2 -4
v 7 2 -4
v -9 5 4
v -8 5 4
v 8 5 4
v 9 5 4
v -9 5 -4
v -8 5 -4
v 8 5 -4
v 9 5 -4
v -10 7 4
v -8 7 4
v 8 7 4
v 10 7 4
v -10 7 -4
v -8 7 -4
v 8 7 -4
v 10 7 -4
v -9 9 6
v 9 9 6
v -8 9 5
v 8 9 5
v -9 9 1
v -8 9 1
v 8 9 1
v 9 9 1
v -8 10 5
v 8 10 5
v -7 10 4
v -1 10 4
v 1 10 4
v 7 10 4
v -9 10 1
v -8 10 1
v 8 10 1
v 9 10 1
v -7 10 -4
v -1 10 -4
v 1 10 -4
v 7 10 -4
v -8 10 -5
v 8 10 -5
v -9 10 -6
v 9 10 -6

# faces
f 3/1/1 2/1/1 1/1/1
f 4/1/1 2/1/1 3/1/1
f 7/1/1 6/1/1 5/1/1
f 8/1/1 6/1/1 7/1/1
f 9/1/1 6/1/1 8/1/1
f 11/1/1 10/1/1 9/1/1
f 11/1/1 9/1/1 8/1/1
f 12/1/1 10/1/1 11/1/1
f 17/5/1 14/5/1 13/5/1
f 18/5/1 14/5/1 17/5/1
f 19/5/1 16/5/1 15/5/1
f 20/5/1 16/5/1 19/5/1
f 21/1/1 18/1/1 17/1/1
f 21/1/1 19/1/1 18/1/1
f 21/1/1 20/1/1 19/1/1
f 22/1/1 20/1/1 21/1/1
f 23/1/1 21/1/1 17/1/1
f 24/1/1 20/1/1 22/1/1
f 25/1/1 23/1/1 17/1/1
f 25/1/1 24/1/1 23/1/1
f 26/1/1 20/1/1 24/1/1
f 26/1/1 24/1/1 25/1/1
f 27/1/1 25/1/1 17/1/1
f 28/1/1 20/1/1 26/1/1
f 29/1/1 27/1/1 17/1/1
f 29/1/1 28/1/1 27/1/1
f 30/1/1 28/1/1 29/1/1
f 33/1/1 28/1/1 30/1/1
f 34/1/1 20/1/1 28/1/1
f 34/1/1 28/1/1 33/1/1
f 35/4/1 32/4/1 31/4/1
f 36/4/1 32/4/1 35/4/1
f 41/5/1 38/5/1 37/5/1
f 42/5/1 38/5/1 41/5/1
f 43/5/1 40/5/1 39/5/1
f 44/5/1 40/5/1 43/5/1
f 47/1/1 46/1/1 45/1/1
f 48/1/1 46/1/1 47/1/1
f 51/1/1 50/1/1 49/1/1
f 52/1/1 50/1/1 51/1/1
f 53/1/2 54/1/2 55/1/2
f 55/1/2 54/1/2 56/1/2
f 57/5/2 58/5/2 61/5/2
f 61/5/2 58/5/2 62/5/2
f 59/5/2 60/5/2 63/5/2
f 63/5/2 60/5/2 64/5/2
f 65/1/2 66/1/2 67/1/2
f 67/1/2 66/1/2 68/1/2
f 69/5/2 70/5/2 73/5/2
f 73/5/2 70/5/2 74/5/2
f 71/5/2 72/5/2 75/5/2
f 75/5/2 72/5/2 76/5/2
f 73/1/2 74/1/2 77/1/2
f 74/1/2 75/1/2 77/1/2
f 75/1/2 76/1/2 77/1/2
f 77/1/2 76/1/2 78/1/2
f 73/1/2 77/1/2 79/1/2
f 78/1/2 76/1/2 80/1/2
f 73/1/2 79/1/2 81/1/2
f 79/1/2 80/1/2 81/1/2
f 80/1/2 76/1/2 82/1/2
f 81/1/2 80/1/2 82/1/2
f 73/1/2 81/1/2 83/1/2
f 82/1/2 76/1/2 84/1/2
f 73/1/2 83/1/2 85/1/2
f 83/1/2 84/1/2 85/1/2
f 85/1/2 84/1/2 86/1/2
f 86/1/2 84/1/2 89/1/2
f 84/1/2 76/1/2 90/1/2
f 89/1/2 84/1/2 90/1/2
f 87/4/2 88/4/2 91/4/2
f 91/4/2 88/4/2 92/4/2
f 93/1/2 94/1/2 95/1/2
f 95/1/2 94/1/2 96/1/2
f 96/1/2 94/1/2 97/1/2
f 97/1/2 98/1/2 99/1/2
f 96/1/2 97/1/2 99/1/2
f 99/1/2 98/1/2 100/1/2
f 101/1/2 102/1/2 103/1/2
f 103/1/2 102/1/2 104/1/2
f 107/1/3 106/1/3 105/1/3
f 108/1/3 106/1/3 107/1/3
f 114/5/3 110/5/3 109/5/3
f 115/1/3 111/1/3 110/1/3
f 115/5/3 110/5/3 114/5/3
f 116/1/3 111/1/3 115/1/3
f 117/1/3 111/1/3 116/1/3
f 118/1/3 116/1/3 115/1/3
f 118/2/3 117/2/3 116/2/3
f 119/1/3 111/1/3 117/1/3
f 119/2/3 117/2/3 118/2/3
f 121/1/3 118/1/3 115/1/3
f 121/1/3 119/1/3 118/1/3
f 122/5/3 121/5/3 120/5/3
f 123/1/3 119/1/3 121/1/3
f 123/5/3 121/5/3 122/5/3
f 124/1/3 111/1/3 119/1/3
f 124/1/3 119/1/3 123/1/3
f 125/4/3 113/4/3 112/4/3
f 126/4/3 113/4/3 125/4/3
f 129/1/3 128/1/3 127/1/3
f 130/1/3 128/1/3 129/1/3
f 131/1/3 129/1/3 127/1/3
f 132/1/3 129/1/3 131/1/3
f 133/1/3 128/1/3 130/1/3
f 134/1/3 128/1/3 133/1/3
f 139/1/3 136/1/3 135/1/3
f 140/1/3 138/1/3 137/1/3
f 141/1/3 139/1/3 135/1/3
f 141/1/3 140/1/3 139/1/3
f 142/1/3 138/1/3 140/1/3
f 142/1/3 140/1/3 141/1/3
f 145/1/3 144/1/3 143/1/3
f 146/1/3 144/1/3 145/1/3
f 149/1/3 148/1/3 147/1/3
f 150/1/3 148/1/3 149/1/3
f 153/5/3 152/5/3 151/5/3
f 154/5/3 152/5/3 153/5/3
f 157/5/3 156/5/3 155/5/3
f 158/5/3 156/5/3 157/5/3
f 161/1/3 160/1/3 159/1/3
f 162/1/3 161/1/3 159/1/3
f 163/1/3 162/1/3 159/1/3
f 164/1/3 162/1/3 163/1/3
f 165/1/4 166/1/4 167/1/4
f 165/1/4 167/1/4 168/1/4
f 165/1/4 168/1/4 169/1/4
f 169/1/4 168/1/4 170/1/4
f 165/1/4 169/1/4 171/1/4
f 169/2/4 170/2/4 171/2/4
f 170/1/4 168/1/4 172/1/4
f 171/2/4 170/2/4 172/2/4
f 165/1/4 171/1/4 173/1/4
f 171/1/4 172/1/4 173/1/4
f 172/1/4 168/1/4 174/1/4
f 173/1/4 172/1/4 174/1/4
f 175/5/4 176/5/4 177/5/4
f 177/5/4 176/5/4 178/5/4
f 179/5/4 180/5/4 181/5/4
f 181/5/4 180/5/4 182/5/4
f 183/1/4 184/1/4 185/1/4
f 185/1/4 184/1/4 186/1/4
f 187/1/4 188/1/4 189/1/4
f 189/1/4 188/1/4 190/1/4
f 191/1/4 192/1/4 193/1/4
f 193/1/4 192/1/4 194/1/4
f 191/1/4 193/1/4 195/1/4
f 195/1/4 193/1/4 196/1/4
f 194/1/4 192/1/4 197/1/4
f 197/1/4 192/1/4 198/1/4
f 199/1/4 200/1/4 203/1/4
f 201/1/4 202/1/4 204/1/4
f 199/1/4 203/1/4 205/1/4
f 203/1/4 204/1/4 205/1/4
f 204/1/4 202/1/4 206/1/4
f 205/1/4 204/1/4 206/1/4
f 207/5/4 208/5/4 210/5/4
f 208/1/4 209/1/4 211/1/4
f 210/5/4 208/5/4 211/5/4
f 211/1/4 209/1/4 213/1/4
f 212/5/4 213/5/4 214/5/4
f 213/1/4 209/1/4 215/1/4
f 214/5/4 213/5/4 215/5/4
f 215/1/4 209/1/4 216/1/4
f 217/1/4 218/1/4 219/1/4
f 219/1/4 218/1/4 220/1/4
f 225/5/5 222/5/5 221/5/5
f 226/5/5 222/5/5 225/5/5
f 227/5/5 224/5/5 223/5/5
f 228/5/5 224/5/5 227/5/5
f 233/5/5 230/5/5 229/5/5
f 234/5/5 230/5/5 233/5/5
f 235/5/5 232/5/5 231/5/5
f 236/5/5 232/5/5 235/5/5
f 240/1/5 238/1/5 237/1/5
f 241/1/5 238/1/5 240/1/5
f 243/1/5 240/1/5 239/1/5
f 243/1/5 242/1/5 241/1/5
f 243/1/5 241/1/5 240/1/5
f 244/1/5 242/1/5 243/1/5
f 245/1/5 242/1/5 244/1/5
f 246/1/5 242/1/5 245/1/5
f 247/1/5 245/1/5 244/1/5
f 248/1/5 245/1/5 247/1/5
f 253/1/5 250/1/5 249/1/5
f 254/1/5 250/1/5 253/1/5
f 255/1/5 252/1/5 251/1/5
f 256/1/5 252/1/5 255/1/5
f 261/1/5 258/1/5 257/1/5
f 262/1/5 258/1/5 261/1/5
f 263/1/5 260/1/5 259/1/5
f 264/1/5 260/1/5 263/1/5
f 267/1/5 266/1/5 265/1/5
f 268/1/5 266/1/5 267/1/5
f 269/1/5 267/1/5 265/1/5
f 270/1/5 267/1/5 269/1/5
f 271/1/5 266/1/5 268/1/5
f 272/1/5 266/1/5 271/1/5
f 281/3/5 274/3/5 273/3/5
f 282/4/5 275/4/5 274/4/5
f 282/3/5 274/3/5 281/3/5
f 283/3/5 276/3/5 275/3/5
f 283/4/5 275/4/5 282/4/5
f 284/3/5 276/3/5 283/3/5
f 285/1/5 278/1/5 277/1/5
f 286/1/5 280/1/5 279/1/5
f 287/1/5 285/1/5 277/1/5
f 287/1/5 286/1/5 285/1/5
f 288/1/5 280/1/5 286/1/5
f 288/1/5 286/1/5 287/1/5
f 289/1/6 290/1/6 291/1/6
f 291/1/6 290/1/6 292/1/6
f 293/1/6 294/1/6 297/1/6
f 297/1/6 294/1/6 298/1/6
f 295/1/6 296/1/6 299/1/6
f 299/1/6 296/1/6 300/1/6
f 301/1/6 302/1/6 305/1/6
f 305/1/6 302/1/6 306/1/6
f 303/1/6 304/1/6 307/1/6
f 307/1/6 304/1/6 308/1/6
f 309/1/6 310/1/6 311/1/6
f 311/1/6 310/1/6 312/1/6
f 309/1/6 311/1/6 313/1/6
f 313/1/6 311/1/6 314/1/6
f 312/1/6 310/1/6 315/1/6
f 315/1/6 310/1/6 316/1/6
f 317/4/6 318/4/6 319/4/6
f 319/4/6 318/4/6 320/4/6
f 320/4/6 318/4/6 321/4/6
f 321/4/6 318/4/6 322/4/6
f 317/4/6 319/4/6 324/4/6
f 322/4/6 318/4/6 325/4/6
f 319/3/6 320/3/6 327/3/6
f 324/4/6 319/4/6 327/4/6
f 320/4/6 321/4/6 328/4/6
f 327/3/6 320/3/6 328/3/6
f 321/3/6 322/3/6 329/3/6
f 328/4/6 321/4/6 329/4/6
f 322/4/6 325/4/6 330/4/6
f 329/3/6 322/3/6 330/3/6
f 323/1/6 324/1/6 331/1/6
f 324/4/6 327/4/6 331/4/6
f 329/4/6 330/4/6 331/4/6
f 328/4/6 329/4/6 331/4/6
f 327/4/6 328/4/6 331/4/6
f 330/4/6 325/4/6 332/4/6
f 331/4/6 330/4/6 332/4/6
f 325/1/6 326/1/6 332/1/6
f 323/1/6 331/1/6 333/1/6
f 331/1/6 332/1/6 333/1/6
f 332/1/6 326/1/6 334/1/6
f 333/1/6 332/1/6 334/1/6
