# MagicaVoxel @ Ephtracy

# material
mtllib obj_mailbox.mtl
usemtl palette

# normals
vn -1 0 0
vn 1 0 0
vn 0 0 1
vn 0 0 -1
vn 0 -1 0
vn 0 1 0

# texcoords
vt 0.634766 0.5
vt 0.962891 0.5

# verts
v -6 0 1.5
v -6 0 0.5
v -6 0 -3.5
v -6 0 -4.5
v -6 2 0.5
v -6 2 -3.5
v -6 5 0.5
v -6 5 -3.5
v -6 7 0.5
v -6 7 -3.5
v -6 9 1.5
v -6 9 0.5
v -6 10 0.5
v -6 10 -0.5
v -6 10 -3.5
v -6 10 -4.5
v -6 11 -0.5
v -6 11 -3.5
v -3 9 -0.5
v -3 9 -1.5
v -3 10 -0.5
v -3 10 -1.5
v 1 0 1.5
v 1 0 0.5
v 1 0 -3.5
v 1 0 -4.5
v 1 2 1.5
v 1 2 0.5
v 1 2 -3.5
v 1 2 -4.5
v 1 8 1.5
v 1 8 -1.5
v 1 9 1.5
v 1 9 0.5
v 1 10 0.5
v 1 10 -0.5
v 1 11 -0.5
v 1 11 -1.5
v -5 0 1.5
v -5 0 0.5
v -5 0 -3.5
v -5 0 -4.5
v -5 2 1.5
v -5 2 0.5
v -5 2 -3.5
v -5 2 -4.5
v -5 8 1.5
v -5 8 -1.5
v -5 9 1.5
v -5 9 0.5
v -5 10 0.5
v -5 10 -0.5
v -5 11 -0.5
v -5 11 -1.5
v -1 9 -0.5
v -1 9 -1.5
v -1 10 -0.5
v -1 10 -1.5
v 2 0 1.5
v 2 0 0.5
v 2 0 -3.5
v 2 0 -4.5
v 2 2 0.5
v 2 2 -3.5
v 2 5 0.5
v 2 5 -3.5
v 2 7 0.5
v 2 7 -3.5
v 2 9 1.5
v 2 9 0.5
v 2 10 0.5
v 2 10 -0.5
v 2 10 -3.5
v 2 10 -4.5
v 2 11 -0.5
v 2 11 -3.5
v -6 0 1.5
v -6 9 1.5
v -5 0 1.5
v -5 2 1.5
v -5 8 1.5
v -5 9 1.5
v -4 4 1.5
v -4 6 1.5
v 0 4 1.5
v 0 6 1.5
v 1 0 1.5
v 1 2 1.5
v 1 8 1.5
v 1 9 1.5
v 2 0 1.5
v 2 9 1.5
v -6 9 0.5
v -6 10 0.5
v -5 9 0.5
v -5 10 0.5
v 1 9 0.5
v 1 10 0.5
v 2 9 0.5
v 2 10 0.5
v -6 10 -0.5
v -6 11 -0.5
v -5 10 -0.5
v -5 11 -0.5
v -3 9 -0.5
v -3 10 -0.5
v -1 9 -0.5
v -1 10 -0.5
v 1 10 -0.5
v 1 11 -0.5
v 2 10 -0.5
v 2 11 -0.5
v -5 8 -1.5
v -5 11 -1.5
v -3 9 -1.5
v -3 10 -1.5
v -1 9 -1.5
v -1 10 -1.5
v 1 8 -1.5
v 1 11 -1.5
v -6 0 -3.5
v -6 2 -3.5
v -5 0 -3.5
v -5 2 -3.5
v 1 0 -3.5
v 1 2 -3.5
v 2 0 -3.5
v 2 2 -3.5
v -6 0 0.5
v -6 2 0.5
v -5 0 0.5
v -5 2 0.5
v 1 0 0.5
v 1 2 0.5
v 2 0 0.5
v 2 2 0.5
v -6 10 -3.5
v -6 11 -3.5
v 2 10 -3.5
v 2 11 -3.5
v -6 0 -4.5
v -6 10 -4.5
v -5 0 -4.5
v -5 2 -4.5
v 1 0 -4.5
v 1 2 -4.5
v 2 0 -4.5
v 2 10 -4.5
v -6 0 1.5
v -5 0 1.5
v 1 0 1.5
v 2 0 1.5
v -6 0 0.5
v -5 0 0.5
v 1 0 0.5
v 2 0 0.5
v -6 0 -3.5
v -5 0 -3.5
v 1 0 -3.5
v 2 0 -3.5
v -6 0 -4.5
v -5 0 -4.5
v 1 0 -4.5
v 2 0 -4.5
v -5 2 1.5
v 1 2 1.5
v -6 2 0.5
v -5 2 0.5
v 1 2 0.5
v 2 2 0.5
v -6 2 -3.5
v -5 2 -3.5
v 1 2 -3.5
v 2 2 -3.5
v -5 2 -4.5
v 1 2 -4.5
v -3 9 -0.5
v -1 9 -0.5
v -3 9 -1.5
v -1 9 -1.5
v -5 8 1.5
v 1 8 1.5
v -5 8 -1.5
v 1 8 -1.5
v -6 9 1.5
v -5 9 1.5
v 1 9 1.5
v 2 9 1.5
v -6 9 0.5
v -5 9 0.5
v 1 9 0.5
v 2 9 0.5
v -6 10 0.5
v -5 10 0.5
v 1 10 0.5
v 2 10 0.5
v -6 10 -0.5
v -5 10 -0.5
v -3 10 -0.5
v -1 10 -0.5
v 1 10 -0.5
v 2 10 -0.5
v -3 10 -1.5
v -1 10 -1.5
v -6 10 -3.5
v 2 10 -3.5
v -6 10 -4.5
v 2 10 -4.5
v -6 11 -0.5
v -5 11 -0.5
v 1 11 -0.5
v 2 11 -0.5
v -5 11 -1.5
v 1 11 -1.5
v -6 11 -3.5
v 2 11 -3.5

# faces
f 5/1/1 2/1/1 1/1/1
f 6/1/1 4/1/1 3/1/1
f 7/1/1 5/1/1 1/1/1
f 7/1/1 6/1/1 5/1/1
f 8/1/1 4/1/1 6/1/1
f 8/1/1 6/1/1 7/1/1
f 9/1/1 7/1/1 1/1/1
f 9/2/1 8/2/1 7/2/1
f 10/1/1 4/1/1 8/1/1
f 10/2/1 8/2/1 9/2/1
f 11/1/1 9/1/1 1/1/1
f 11/1/1 10/1/1 9/1/1
f 12/1/1 10/1/1 11/1/1
f 13/1/1 10/1/1 12/1/1
f 14/1/1 10/1/1 13/1/1
f 15/1/1 4/1/1 10/1/1
f 15/1/1 10/1/1 14/1/1
f 16/1/1 4/1/1 15/1/1
f 17/1/1 15/1/1 14/1/1
f 18/1/1 15/1/1 17/1/1
f 21/1/1 20/1/1 19/1/1
f 22/1/1 20/1/1 21/1/1
f 27/1/1 24/1/1 23/1/1
f 28/1/1 24/1/1 27/1/1
f 29/1/1 26/1/1 25/1/1
f 30/1/1 26/1/1 29/1/1
f 33/1/1 32/1/1 31/1/1
f 34/1/1 32/1/1 33/1/1
f 35/1/1 32/1/1 34/1/1
f 36/1/1 32/1/1 35/1/1
f 37/1/1 32/1/1 36/1/1
f 38/1/1 32/1/1 37/1/1
f 39/1/2 40/1/2 43/1/2
f 43/1/2 40/1/2 44/1/2
f 41/1/2 42/1/2 45/1/2
f 45/1/2 42/1/2 46/1/2
f 47/1/2 48/1/2 49/1/2
f 49/1/2 48/1/2 50/1/2
f 50/1/2 48/1/2 51/1/2
f 51/1/2 48/1/2 52/1/2
f 52/1/2 48/1/2 53/1/2
f 53/1/2 48/1/2 54/1/2
f 55/1/2 56/1/2 57/1/2
f 57/1/2 56/1/2 58/1/2
f 59/1/2 60/1/2 63/1/2
f 61/1/2 62/1/2 64/1/2
f 59/1/2 63/1/2 65/1/2
f 63/1/2 64/1/2 65/1/2
f 64/1/2 62/1/2 66/1/2
f 65/1/2 64/1/2 66/1/2
f 59/1/2 65/1/2 67/1/2
f 65/2/2 66/2/2 67/2/2
f 66/1/2 62/1/2 68/1/2
f 67/2/2 66/2/2 68/2/2
f 59/1/2 67/1/2 69/1/2
f 67/1/2 68/1/2 69/1/2
f 69/1/2 68/1/2 70/1/2
f 70/1/2 68/1/2 71/1/2
f 71/1/2 68/1/2 72/1/2
f 68/1/2 62/1/2 73/1/2
f 72/1/2 68/1/2 73/1/2
f 73/1/2 62/1/2 74/1/2
f 72/1/2 73/1/2 75/1/2
f 75/1/2 73/1/2 76/1/2
f 79/1/3 78/1/3 77/1/3
f 80/1/3 78/1/3 79/1/3
f 81/1/3 78/1/3 80/1/3
f 82/1/3 78/1/3 81/1/3
f 83/1/3 81/1/3 80/1/3
f 84/1/3 81/1/3 83/1/3
f 85/1/3 83/1/3 80/1/3
f 85/2/3 84/2/3 83/2/3
f 86/1/3 81/1/3 84/1/3
f 86/2/3 84/2/3 85/2/3
f 88/1/3 85/1/3 80/1/3
f 88/1/3 86/1/3 85/1/3
f 89/1/3 81/1/3 86/1/3
f 89/1/3 86/1/3 88/1/3
f 91/1/3 88/1/3 87/1/3
f 91/1/3 90/1/3 89/1/3
f 91/1/3 89/1/3 88/1/3
f 92/1/3 90/1/3 91/1/3
f 95/1/3 94/1/3 93/1/3
f 96/1/3 94/1/3 95/1/3
f 99/1/3 98/1/3 97/1/3
f 100/1/3 98/1/3 99/1/3
f 103/1/3 102/1/3 101/1/3
f 104/1/3 102/1/3 103/1/3
f 107/1/3 106/1/3 105/1/3
f 108/1/3 106/1/3 107/1/3
f 111/1/3 110/1/3 109/1/3
f 112/1/3 110/1/3 111/1/3
f 115/1/3 114/1/3 113/1/3
f 116/1/3 114/1/3 115/1/3
f 117/1/3 115/1/3 113/1/3
f 118/1/3 114/1/3 116/1/3
f 119/1/3 117/1/3 113/1/3
f 119/1/3 118/1/3 117/1/3
f 120/1/3 114/1/3 118/1/3
f 120/1/3 118/1/3 119/1/3
f 123/1/3 122/1/3 121/1/3
f 124/1/3 122/1/3 123/1/3
f 127/1/3 126/1/3 125/1/3
f 128/1/3 126/1/3 127/1/3
f 129/1/4 130/1/4 131/1/4
f 131/1/4 130/1/4 132/1/4
f 133/1/4 134/1/4 135/1/4
f 135/1/4 134/1/4 136/1/4
f 137/1/4 138/1/4 139/1/4
f 139/1/4 138/1/4 140/1/4
f 141/1/4 142/1/4 143/1/4
f 143/1/4 142/1/4 144/1/4
f 144/1/4 142/1/4 146/1/4
f 145/1/4 146/1/4 147/1/4
f 146/1/4 142/1/4 148/1/4
f 147/1/4 146/1/4 148/1/4
f 153/1/5 150/1/5 149/1/5
f 154/1/5 150/1/5 153/1/5
f 155/1/5 152/1/5 151/1/5
f 156/1/5 152/1/5 155/1/5
f 161/1/5 158/1/5 157/1/5
f 162/1/5 158/1/5 161/1/5
f 163/1/5 160/1/5 159/1/5
f 164/1/5 160/1/5 163/1/5
f 168/1/5 166/1/5 165/1/5
f 169/1/5 166/1/5 168/1/5
f 171/1/5 168/1/5 167/1/5
f 171/1/5 170/1/5 169/1/5
f 171/1/5 169/1/5 168/1/5
f 172/1/5 170/1/5 171/1/5
f 173/1/5 170/1/5 172/1/5
f 174/1/5 170/1/5 173/1/5
f 175/1/5 173/1/5 172/1/5
f 176/1/5 173/1/5 175/1/5
f 179/1/5 178/1/5 177/1/5
f 180/1/5 178/1/5 179/1/5
f 181/1/6 182/1/6 183/1/6
f 183/1/6 182/1/6 184/1/6
f 185/1/6 186/1/6 189/1/6
f 189/1/6 186/1/6 190/1/6
f 187/1/6 188/1/6 191/1/6
f 191/1/6 188/1/6 192/1/6
f 193/1/6 194/1/6 197/1/6
f 197/1/6 194/1/6 198/1/6
f 195/1/6 196/1/6 201/1/6
f 201/1/6 196/1/6 202/1/6
f 199/1/6 200/1/6 203/1/6
f 203/1/6 200/1/6 204/1/6
f 205/1/6 206/1/6 207/1/6
f 207/1/6 206/1/6 208/1/6
f 209/1/6 210/1/6 213/1/6
f 211/1/6 212/1/6 214/1/6
f 209/1/6 213/1/6 215/1/6
f 213/1/6 214/1/6 215/1/6
f 214/1/6 212/1/6 216/1/6
f 215/1/6 214/1/6 216/1/6
