# MagicaVoxel @ Ephtracy

# material
mtllib obj_sign1.mtl
usemtl palette

# normals
vn -1 0 0
vn 1 0 0
vn 0 0 1
vn 0 0 -1
vn 0 -1 0
vn 0 1 0

# texcoords
vt 0.0175781 0.5
vt 0.712891 0.5
vt 0.958984 0.5
vt 0.966797 0.5

# verts
v -2 0 0.5
v -2 0 -0.5
v -2 19 0.5
v -2 19 -0.5
v -1 0 0.5
v -1 0 -0.5
v -1 13 0.5
v -1 13 -0.5
v -1 18 0.5
v -1 18 -0.5
v -1 19 0.5
v -1 19 -0.5
v 2 13 0.5
v 2 13 -0.5
v 2 16 0.5
v 2 16 -0.5
v 2 17 0.5
v 2 17 -0.5
v 2 18 0.5
v 2 18 -0.5
v -2 0 0.5
v -2 19 0.5
v -1 0 0.5
v -1 13 0.5
v -1 16 0.5
v -1 17 0.5
v -1 18 0.5
v -1 19 0.5
v 2 13 0.5
v 2 16 0.5
v 2 17 0.5
v 2 18 0.5
v -2 0 -0.5
v -2 19 -0.5
v -1 0 -0.5
v -1 13 -0.5
v -1 16 -0.5
v -1 17 -0.5
v -1 18 -0.5
v -1 19 -0.5
v 2 13 -0.5
v 2 16 -0.5
v 2 17 -0.5
v 2 18 -0.5
v -2 0 0.5
v -1 0 0.5
v -2 0 -0.5
v -1 0 -0.5
v -1 13 0.5
v 2 13 0.5
v -1 13 -0.5
v 2 13 -0.5
v -1 18 0.5
v 2 18 0.5
v -1 18 -0.5
v 2 18 -0.5
v -2 19 0.5
v -1 19 0.5
v -2 19 -0.5
v -1 19 -0.5

# faces
f 3/4/1 2/4/1 1/4/1
f 4/4/1 2/4/1 3/4/1
f 5/4/2 6/4/2 7/4/2
f 7/4/2 6/4/2 8/4/2
f 9/4/2 10/4/2 11/4/2
f 11/4/2 10/4/2 12/4/2
f 13/3/2 14/3/2 15/3/2
f 15/3/2 14/3/2 16/3/2
f 15/1/2 16/1/2 17/1/2
f 17/1/2 16/1/2 18/1/2
f 17/2/2 18/2/2 19/2/2
f 19/2/2 18/2/2 20/2/2
f 23/4/3 22/4/3 21/4/3
f 24/4/3 22/4/3 23/4/3
f 25/4/3 22/4/3 24/4/3
f 26/4/3 22/4/3 25/4/3
f 27/4/3 22/4/3 26/4/3
f 28/4/3 22/4/3 27/4/3
f 29/3/3 25/3/3 24/3/3
f 30/1/3 26/1/3 25/1/3
f 30/3/3 25/3/3 29/3/3
f 31/2/3 27/2/3 26/2/3
f 31/1/3 26/1/3 30/1/3
f 32/2/3 27/2/3 31/2/3
f 33/4/4 34/4/4 35/4/4
f 35/4/4 34/4/4 36/4/4
f 36/4/4 34/4/4 37/4/4
f 37/4/4 34/4/4 38/4/4
f 38/4/4 34/4/4 39/4/4
f 39/4/4 34/4/4 40/4/4
f 36/3/4 37/3/4 41/3/4
f 37/1/4 38/1/4 42/1/4
f 41/3/4 37/3/4 42/3/4
f 38/2/4 39/2/4 43/2/4
f 42/1/4 38/1/4 43/1/4
f 43/2/4 39/2/4 44/2/4
f 47/4/5 46/4/5 45/4/5
f 48/4/5 46/4/5 47/4/5
f 51/3/5 50/3/5 49/3/5
f 52/3/5 50/3/5 51/3/5
f 53/2/6 54/2/6 55/2/6
f 55/2/6 54/2/6 56/2/6
f 57/4/6 58/4/6 59/4/6
f 59/4/6 58/4/6 60/4/6
