# MagicaVoxel @ Ephtracy

# material
mtllib obj_trashcan1.mtl
usemtl palette

# normals
vn -1 0 0
vn 1 0 0
vn 0 0 1
vn 0 0 -1
vn 0 -1 0
vn 0 1 0

# texcoords
vt 0.970703 0.5
vt 0.982422 0.5

# verts
v -3 0 2.5
v -3 0 -2.5
v -3 5 2.5
v -3 5 -2.5
v -3 6 2.5
v -3 6 -2.5
v 2 1 1.5
v 2 1 -1.5
v 2 5 1.5
v 2 5 -1.5
v 2 6 1.5
v 2 6 -1.5
v -2 1 1.5
v -2 1 -1.5
v -2 5 1.5
v -2 5 -1.5
v -2 6 1.5
v -2 6 -1.5
v 3 0 2.5
v 3 0 -2.5
v 3 5 2.5
v 3 5 -2.5
v 3 6 2.5
v 3 6 -2.5
v -3 0 2.5
v -3 5 2.5
v -3 6 2.5
v 3 0 2.5
v 3 5 2.5
v 3 6 2.5
v -2 1 -1.5
v -2 5 -1.5
v -2 6 -1.5
v 2 1 -1.5
v 2 5 -1.5
v 2 6 -1.5
v -2 1 1.5
v -2 5 1.5
v -2 6 1.5
v 2 1 1.5
v 2 5 1.5
v 2 6 1.5
v -3 0 -2.5
v -3 5 -2.5
v -3 6 -2.5
v 3 0 -2.5
v 3 5 -2.5
v 3 6 -2.5
v -3 0 2.5
v 3 0 2.5
v -3 0 -2.5
v 3 0 -2.5
v -2 1 1.5
v 2 1 1.5
v -2 1 -1.5
v 2 1 -1.5
v -3 6 2.5
v 3 6 2.5
v -2 6 1.5
v 2 6 1.5
v -2 6 -1.5
v 2 6 -1.5
v -3 6 -2.5
v 3 6 -2.5

# faces
f 3/1/1 2/1/1 1/1/1
f 4/1/1 2/1/1 3/1/1
f 5/2/1 4/2/1 3/2/1
f 6/2/1 4/2/1 5/2/1
f 9/1/1 8/1/1 7/1/1
f 10/1/1 8/1/1 9/1/1
f 11/2/1 10/2/1 9/2/1
f 12/2/1 10/2/1 11/2/1
f 13/1/2 14/1/2 15/1/2
f 15/1/2 14/1/2 16/1/2
f 15/2/2 16/2/2 17/2/2
f 17/2/2 16/2/2 18/2/2
f 19/1/2 20/1/2 21/1/2
f 21/1/2 20/1/2 22/1/2
f 21/2/2 22/2/2 23/2/2
f 23/2/2 22/2/2 24/2/2
f 28/1/3 26/1/3 25/1/3
f 29/2/3 27/2/3 26/2/3
f 29/1/3 26/1/3 28/1/3
f 30/2/3 27/2/3 29/2/3
f 34/1/3 32/1/3 31/1/3
f 35/2/3 33/2/3 32/2/3
f 35/1/3 32/1/3 34/1/3
f 36/2/3 33/2/3 35/2/3
f 37/1/4 38/1/4 40/1/4
f 38/2/4 39/2/4 41/2/4
f 40/1/4 38/1/4 41/1/4
f 41/2/4 39/2/4 42/2/4
f 43/1/4 44/1/4 46/1/4
f 44/2/4 45/2/4 47/2/4
f 46/1/4 44/1/4 47/1/4
f 47/2/4 45/2/4 48/2/4
f 51/1/5 50/1/5 49/1/5
f 52/1/5 50/1/5 51/1/5
f 53/1/6 54/1/6 55/1/6
f 55/1/6 54/1/6 56/1/6
f 57/2/6 58/2/6 59/2/6
f 59/2/6 58/2/6 60/2/6
f 57/2/6 59/2/6 61/2/6
f 60/2/6 58/2/6 62/2/6
f 57/2/6 61/2/6 63/2/6
f 61/2/6 62/2/6 63/2/6
f 62/2/6 58/2/6 64/2/6
f 63/2/6 62/2/6 64/2/6
