# MagicaVoxel @ Ephtracy

# material
mtllib obj_halo.mtl
usemtl palette

# normals
vn -1 0 0
vn 1 0 0
vn 0 0 1
vn 0 0 -1
vn 0 -1 0
vn 0 1 0

# texcoords
vt 0.0449219 0.5
vt 0.958984 0.5

# verts
v -3 1 2
v -3 1 -2
v -3 2 2
v -3 2 -2
v -1 0 -0
v -1 0 -1
v -1 1 -1
v -1 2 -0
v -1 2 -1
v 2 1 1
v 2 1 -1
v 2 2 1
v 2 2 -1
v -2 1 1
v -2 1 -1
v -2 2 1
v -2 2 -1
v 0 0 -0
v 0 0 -1
v 0 1 -1
v 0 2 -0
v 0 2 -1
v 3 1 2
v 3 1 -2
v 3 2 2
v 3 2 -2
v -3 1 2
v -3 2 2
v 3 1 2
v 3 2 2
v -1 0 -0
v -1 2 -0
v 0 0 -0
v 0 2 -0
v -2 1 -1
v -2 2 -1
v -1 1 -1
v -1 2 -1
v 0 1 -1
v 0 2 -1
v 2 1 -1
v 2 2 -1
v -2 1 1
v -2 2 1
v 2 1 1
v 2 2 1
v -1 0 -1
v -1 1 -1
v 0 0 -1
v 0 1 -1
v -3 1 -2
v -3 2 -2
v 3 1 -2
v 3 2 -2
v -1 0 -0
v 0 0 -0
v -1 0 -1
v 0 0 -1
v -3 1 2
v 3 1 2
v -2 1 1
v 2 1 1
v -2 1 -1
v -1 1 -1
v 0 1 -1
v 2 1 -1
v -3 1 -2
v 3 1 -2
v -3 2 2
v 3 2 2
v -2 2 1
v 2 2 1
v -1 2 -0
v 0 2 -0
v -2 2 -1
v -1 2 -1
v 0 2 -1
v 2 2 -1
v -3 2 -2
v 3 2 -2

# faces
f 3/1/1 2/1/1 1/1/1
f 4/1/1 2/1/1 3/1/1
f 7/2/1 6/2/1 5/2/1
f 8/2/1 7/2/1 5/2/1
f 9/2/1 7/2/1 8/2/1
f 12/1/1 11/1/1 10/1/1
f 13/1/1 11/1/1 12/1/1
f 14/1/2 15/1/2 16/1/2
f 16/1/2 15/1/2 17/1/2
f 18/2/2 19/2/2 20/2/2
f 18/2/2 20/2/2 21/2/2
f 21/2/2 20/2/2 22/2/2
f 23/1/2 24/1/2 25/1/2
f 25/1/2 24/1/2 26/1/2
f 29/1/3 28/1/3 27/1/3
f 30/1/3 28/1/3 29/1/3
f 33/2/3 32/2/3 31/2/3
f 34/2/3 32/2/3 33/2/3
f 37/1/3 36/1/3 35/1/3
f 38/1/3 36/1/3 37/1/3
f 41/1/3 40/1/3 39/1/3
f 42/1/3 40/1/3 41/1/3
f 43/1/4 44/1/4 45/1/4
f 45/1/4 44/1/4 46/1/4
f 47/2/4 48/2/4 49/2/4
f 49/2/4 48/2/4 50/2/4
f 51/1/4 52/1/4 53/1/4
f 53/1/4 52/1/4 54/1/4
f 57/2/5 56/2/5 55/2/5
f 58/2/5 56/2/5 57/2/5
f 61/1/5 60/1/5 59/1/5
f 62/1/5 60/1/5 61/1/5
f 63/1/5 61/1/5 59/1/5
f 66/1/5 60/1/5 62/1/5
f 67/1/5 65/1/5 64/1/5
f 67/1/5 66/1/5 65/1/5
f 67/1/5 63/1/5 59/1/5
f 67/1/5 64/1/5 63/1/5
f 68/1/5 60/1/5 66/1/5
f 68/1/5 66/1/5 67/1/5
f 69/1/6 70/1/6 71/1/6
f 71/1/6 70/1/6 72/1/6
f 69/1/6 71/1/6 75/1/6
f 73/2/6 74/2/6 76/2/6
f 76/2/6 74/2/6 77/2/6
f 72/1/6 70/1/6 78/1/6
f 69/1/6 75/1/6 79/1/6
f 77/1/6 78/1/6 79/1/6
f 76/1/6 77/1/6 79/1/6
f 75/1/6 76/1/6 79/1/6
f 78/1/6 70/1/6 80/1/6
f 79/1/6 78/1/6 80/1/6
