# MagicaVoxel @ Ephtracy

# material
mtllib obj_arcade2.mtl
usemtl palette

# normals
vn -1 0 0
vn 1 0 0
vn 0 0 1
vn 0 0 -1
vn 0 -1 0
vn 0 1 0

# texcoords
vt 0.0917969 0.5
vt 0.154297 0.5
vt 0.283203 0.5
vt 0.845703 0.5
vt 0.958984 0.5
vt 0.966797 0.5
vt 0.978516 0.5
vt 0.986328 0.5

# verts
v -5 0 3.5
v -5 0 2.5
v -5 0 1.5
v -5 0 0.5
v -5 0 -0.5
v -5 0 -3.5
v -5 1 2.5
v -5 1 1.5
v -5 1 0.5
v -5 1 -0.5
v -5 1 -1.5
v -5 2 1.5
v -5 2 0.5
v -5 2 -0.5
v -5 2 -1.5
v -5 2 -2.5
v -5 3 0.5
v -5 3 -0.5
v -5 3 -1.5
v -5 3 -2.5
v -5 3 -3.5
v -5 6 3.5
v -5 6 0.5
v -5 10 2.5
v -5 10 0.5
v -5 13 2.5
v -5 13 -0.5
v -5 13 -1.5
v -5 13 -2.5
v -5 13 -3.5
v -3 6 2.5
v -3 6 1.5
v -3 7 2.5
v -3 7 1.5
v 0 6 2.5
v 0 6 1.5
v 0 7 2.5
v 0 7 1.5
v 2 6 2.5
v 2 6 1.5
v 2 7 2.5
v 2 7 1.5
v 4 6 0.5
v 4 6 -0.5
v 4 10 0.5
v 4 10 -0.5
v -4 6 0.5
v -4 6 -0.5
v -4 10 0.5
v -4 10 -0.5
v -2 6 2.5
v -2 6 1.5
v -2 7 2.5
v -2 7 1.5
v 1 6 2.5
v 1 6 1.5
v 1 7 2.5
v 1 7 1.5
v 3 6 2.5
v 3 6 1.5
v 3 7 2.5
v 3 7 1.5
v 5 0 3.5
v 5 0 2.5
v 5 0 1.5
v 5 0 0.5
v 5 0 -0.5
v 5 0 -3.5
v 5 1 2.5
v 5 1 1.5
v 5 1 0.5
v 5 1 -0.5
v 5 1 -1.5
v 5 2 1.5
v 5 2 0.5
v 5 2 -0.5
v 5 2 -1.5
v 5 2 -2.5
v 5 3 0.5
v 5 3 -0.5
v 5 3 -1.5
v 5 3 -2.5
v 5 3 -3.5
v 5 6 3.5
v 5 6 0.5
v 5 10 2.5
v 5 10 0.5
v 5 13 2.5
v 5 13 -0.5
v 5 13 -1.5
v 5 13 -2.5
v 5 13 -3.5
v -5 0 3.5
v -5 6 3.5
v -4 0 3.5
v -4 5 3.5
v -2 2 3.5
v -2 4 3.5
v 2 2 3.5
v 2 4 3.5
v 4 0 3.5
v 4 5 3.5
v 5 0 3.5
v 5 6 3.5
v -5 10 2.5
v -5 13 2.5
v -4 10 2.5
v -4 13 2.5
v -3 6 2.5
v -3 7 2.5
v -2 6 2.5
v -2 7 2.5
v 0 6 2.5
v 0 7 2.5
v 1 6 2.5
v 1 7 2.5
v 2 6 2.5
v 2 7 2.5
v 3 6 2.5
v 3 7 2.5
v 4 10 2.5
v 4 13 2.5
v 5 10 2.5
v 5 13 2.5
v -5 6 0.5
v -5 10 0.5
v -4 6 0.5
v -4 10 0.5
v 4 6 0.5
v 4 10 0.5
v 5 6 0.5
v 5 10 0.5
v -4 6 -0.5
v -4 10 -0.5
v -3 6 -0.5
v -3 10 -0.5
v 3 6 -0.5
v 3 10 -0.5
v 4 6 -0.5
v 4 10 -0.5
v -3 6 1.5
v -3 7 1.5
v -2 6 1.5
v -2 7 1.5
v 0 6 1.5
v 0 7 1.5
v 1 6 1.5
v 1 7 1.5
v 2 6 1.5
v 2 7 1.5
v 3 6 1.5
v 3 7 1.5
v -5 0 -3.5
v -5 3 -3.5
v -5 13 -3.5
v -4 0 -3.5
v -4 3 -3.5
v -4 12 -3.5
v 4 0 -3.5
v 4 3 -3.5
v 4 12 -3.5
v 5 0 -3.5
v 5 3 -3.5
v 5 13 -3.5
v -5 0 3.5
v -4 0 3.5
v 4 0 3.5
v 5 0 3.5
v -5 0 2.5
v -4 0 2.5
v 4 0 2.5
v 5 0 2.5
v -5 0 1.5
v -4 0 1.5
v 4 0 1.5
v 5 0 1.5
v -5 0 0.5
v -4 0 0.5
v 4 0 0.5
v 5 0 0.5
v -5 0 -0.5
v -4 0 -0.5
v 4 0 -0.5
v 5 0 -0.5
v -4 0 -2.5
v 4 0 -2.5
v -5 0 -3.5
v -4 0 -3.5
v 4 0 -3.5
v 5 0 -3.5
v -5 10 2.5
v -4 10 2.5
v 4 10 2.5
v 5 10 2.5
v -4 10 1.5
v 4 10 1.5
v -5 10 0.5
v -4 10 0.5
v 4 10 0.5
v 5 10 0.5
v -4 10 -0.5
v -3 10 -0.5
v 3 10 -0.5
v 4 10 -0.5
v -5 6 3.5
v 5 6 3.5
v -3 6 2.5
v -2 6 2.5
v 0 6 2.5
v 1 6 2.5
v 2 6 2.5
v 3 6 2.5
v -3 6 1.5
v -2 6 1.5
v 0 6 1.5
v 1 6 1.5
v 2 6 1.5
v 3 6 1.5
v -5 6 0.5
v -4 6 0.5
v 4 6 0.5
v 5 6 0.5
v -4 6 -0.5
v -3 6 -0.5
v 3 6 -0.5
v 4 6 -0.5
v -3 7 2.5
v -2 7 2.5
v 0 7 2.5
v 1 7 2.5
v 2 7 2.5
v 3 7 2.5
v -3 7 1.5
v -2 7 1.5
v 0 7 1.5
v 1 7 1.5
v 2 7 1.5
v 3 7 1.5
v -5 13 2.5
v -4 13 2.5
v 4 13 2.5
v 5 13 2.5
v -4 13 1.5
v 4 13 1.5
v -5 13 -0.5
v 5 13 -0.5
v -5 13 -1.5
v 5 13 -1.5
v -5 13 -2.5
v 5 13 -2.5
v -5 13 -3.5
v 5 13 -3.5

# faces
f 7/3/1 2/3/1 1/3/1
f 7/4/1 3/4/1 2/4/1
f 8/1/1 4/1/1 3/1/1
f 8/4/1 3/4/1 7/4/1
f 9/2/1 5/2/1 4/2/1
f 9/1/1 4/1/1 8/1/1
f 10/3/1 6/3/1 5/3/1
f 10/2/1 5/2/1 9/2/1
f 11/3/1 6/3/1 10/3/1
f 12/4/1 9/4/1 8/4/1
f 12/3/1 8/3/1 7/3/1
f 13/1/1 10/1/1 9/1/1
f 13/4/1 9/4/1 12/4/1
f 14/2/1 11/2/1 10/2/1
f 14/1/1 10/1/1 13/1/1
f 15/3/1 6/3/1 11/3/1
f 15/2/1 11/2/1 14/2/1
f 16/3/1 6/3/1 15/3/1
f 17/4/1 14/4/1 13/4/1
f 17/3/1 13/3/1 12/3/1
f 18/1/1 15/1/1 14/1/1
f 18/4/1 14/4/1 17/4/1
f 19/2/1 16/2/1 15/2/1
f 19/1/1 15/1/1 18/1/1
f 20/3/1 6/3/1 16/3/1
f 20/2/1 16/2/1 19/2/1
f 21/3/1 6/3/1 20/3/1
f 22/3/1 18/3/1 17/3/1
f 22/3/1 7/3/1 1/3/1
f 22/3/1 12/3/1 7/3/1
f 22/3/1 17/3/1 12/3/1
f 23/3/1 18/3/1 22/3/1
f 25/3/1 18/3/1 23/3/1
f 26/3/1 25/3/1 24/3/1
f 27/4/1 19/4/1 18/4/1
f 27/3/1 25/3/1 26/3/1
f 27/3/1 18/3/1 25/3/1
f 28/1/1 20/1/1 19/1/1
f 28/4/1 19/4/1 27/4/1
f 29/2/1 21/2/1 20/2/1
f 29/1/1 20/1/1 28/1/1
f 30/2/1 21/2/1 29/2/1
f 33/1/1 32/1/1 31/1/1
f 34/1/1 32/1/1 33/1/1
f 37/4/1 36/4/1 35/4/1
f 38/4/1 36/4/1 37/4/1
f 41/4/1 40/4/1 39/4/1
f 42/4/1 40/4/1 41/4/1
f 45/3/1 44/3/1 43/3/1
f 46/3/1 44/3/1 45/3/1
f 47/3/2 48/3/2 49/3/2
f 49/3/2 48/3/2 50/3/2
f 51/1/2 52/1/2 53/1/2
f 53/1/2 52/1/2 54/1/2
f 55/4/2 56/4/2 57/4/2
f 57/4/2 56/4/2 58/4/2
f 59/4/2 60/4/2 61/4/2
f 61/4/2 60/4/2 62/4/2
f 63/3/2 64/3/2 69/3/2
f 64/4/2 65/4/2 69/4/2
f 65/1/2 66/1/2 70/1/2
f 69/4/2 65/4/2 70/4/2
f 66/2/2 67/2/2 71/2/2
f 70/1/2 66/1/2 71/1/2
f 67/3/2 68/3/2 72/3/2
f 71/2/2 67/2/2 72/2/2
f 72/3/2 68/3/2 73/3/2
f 70/4/2 71/4/2 74/4/2
f 69/3/2 70/3/2 74/3/2
f 71/1/2 72/1/2 75/1/2
f 74/4/2 71/4/2 75/4/2
f 72/2/2 73/2/2 76/2/2
f 75/1/2 72/1/2 76/1/2
f 73/3/2 68/3/2 77/3/2
f 76/2/2 73/2/2 77/2/2
f 77/3/2 68/3/2 78/3/2
f 75/4/2 76/4/2 79/4/2
f 74/3/2 75/3/2 79/3/2
f 76/1/2 77/1/2 80/1/2
f 79/4/2 76/4/2 80/4/2
f 77/2/2 78/2/2 81/2/2
f 80/1/2 77/1/2 81/1/2
f 78/3/2 68/3/2 82/3/2
f 81/2/2 78/2/2 82/2/2
f 82/3/2 68/3/2 83/3/2
f 79/3/2 80/3/2 84/3/2
f 63/3/2 69/3/2 84/3/2
f 69/3/2 74/3/2 84/3/2
f 74/3/2 79/3/2 84/3/2
f 84/3/2 80/3/2 85/3/2
f 85/3/2 80/3/2 87/3/2
f 86/3/2 87/3/2 88/3/2
f 80/4/2 81/4/2 89/4/2
f 88/3/2 87/3/2 89/3/2
f 87/3/2 80/3/2 89/3/2
f 81/1/2 82/1/2 90/1/2
f 89/4/2 81/4/2 90/4/2
f 82/2/2 83/2/2 91/2/2
f 90/1/2 82/1/2 91/1/2
f 91/2/2 83/2/2 92/2/2
f 95/3/3 94/3/3 93/3/3
f 96/3/3 94/3/3 95/3/3
f 97/5/3 96/5/3 95/5/3
f 98/5/3 96/5/3 97/5/3
f 99/5/3 97/5/3 95/5/3
f 99/8/3 98/8/3 97/8/3
f 100/5/3 96/5/3 98/5/3
f 100/8/3 98/8/3 99/8/3
f 101/5/3 99/5/3 95/5/3
f 101/5/3 100/5/3 99/5/3
f 102/3/3 94/3/3 96/3/3
f 102/5/3 100/5/3 101/5/3
f 102/5/3 96/5/3 100/5/3
f 103/3/3 102/3/3 101/3/3
f 104/3/3 94/3/3 102/3/3
f 104/3/3 102/3/3 103/3/3
f 107/3/3 106/3/3 105/3/3
f 108/3/3 106/3/3 107/3/3
f 111/1/3 110/1/3 109/1/3
f 112/1/3 110/1/3 111/1/3
f 115/4/3 114/4/3 113/4/3
f 116/4/3 114/4/3 115/4/3
f 119/4/3 118/4/3 117/4/3
f 120/4/3 118/4/3 119/4/3
f 121/5/3 108/5/3 107/5/3
f 122/5/3 108/5/3 121/5/3
f 123/3/3 122/3/3 121/3/3
f 124/3/3 122/3/3 123/3/3
f 127/3/3 126/3/3 125/3/3
f 128/3/3 126/3/3 127/3/3
f 131/3/3 130/3/3 129/3/3
f 132/3/3 130/3/3 131/3/3
f 135/7/3 134/7/3 133/7/3
f 136/7/3 134/7/3 135/7/3
f 137/8/3 136/8/3 135/8/3
f 138/8/3 136/8/3 137/8/3
f 139/7/3 138/7/3 137/7/3
f 140/7/3 138/7/3 139/7/3
f 141/1/4 142/1/4 143/1/4
f 143/1/4 142/1/4 144/1/4
f 145/4/4 146/4/4 147/4/4
f 147/4/4 146/4/4 148/4/4
f 149/4/4 150/4/4 151/4/4
f 151/4/4 150/4/4 152/4/4
f 153/3/4 154/3/4 156/3/4
f 154/2/4 155/2/4 157/2/4
f 156/3/4 154/3/4 157/3/4
f 157/2/4 155/2/4 158/2/4
f 156/5/4 157/5/4 159/5/4
f 157/5/4 158/5/4 159/5/4
f 159/5/4 158/5/4 160/5/4
f 158/2/4 155/2/4 161/2/4
f 160/5/4 158/5/4 161/5/4
f 159/3/4 160/3/4 162/3/4
f 160/2/4 161/2/4 163/2/4
f 162/3/4 160/3/4 163/3/4
f 161/2/4 155/2/4 164/2/4
f 163/2/4 161/2/4 164/2/4
f 169/3/5 166/3/5 165/3/5
f 170/5/5 167/5/5 166/5/5
f 170/3/5 166/3/5 169/3/5
f 171/3/5 168/3/5 167/3/5
f 171/5/5 167/5/5 170/5/5
f 172/3/5 168/3/5 171/3/5
f 173/4/5 170/4/5 169/4/5
f 174/6/5 171/6/5 170/6/5
f 174/4/5 170/4/5 173/4/5
f 175/4/5 172/4/5 171/4/5
f 175/6/5 171/6/5 174/6/5
f 176/4/5 172/4/5 175/4/5
f 177/1/5 174/1/5 173/1/5
f 178/6/5 175/6/5 174/6/5
f 178/1/5 174/1/5 177/1/5
f 179/1/5 176/1/5 175/1/5
f 179/6/5 175/6/5 178/6/5
f 180/1/5 176/1/5 179/1/5
f 181/2/5 178/2/5 177/2/5
f 182/6/5 179/6/5 178/6/5
f 182/2/5 178/2/5 181/2/5
f 183/2/5 180/2/5 179/2/5
f 183/6/5 179/6/5 182/6/5
f 184/2/5 180/2/5 183/2/5
f 185/3/5 182/3/5 181/3/5
f 185/6/5 183/6/5 182/6/5
f 186/3/5 184/3/5 183/3/5
f 186/6/5 183/6/5 185/6/5
f 187/3/5 185/3/5 181/3/5
f 188/5/5 186/5/5 185/5/5
f 188/3/5 185/3/5 187/3/5
f 189/3/5 184/3/5 186/3/5
f 189/5/5 186/5/5 188/5/5
f 190/3/5 184/3/5 189/3/5
f 195/3/5 192/3/5 191/3/5
f 195/5/5 193/5/5 192/5/5
f 196/3/5 194/3/5 193/3/5
f 196/5/5 193/5/5 195/5/5
f 197/3/5 195/3/5 191/3/5
f 198/8/5 196/8/5 195/8/5
f 198/3/5 195/3/5 197/3/5
f 199/3/5 194/3/5 196/3/5
f 199/8/5 196/8/5 198/8/5
f 200/3/5 194/3/5 199/3/5
f 201/8/5 199/8/5 198/8/5
f 202/8/5 199/8/5 201/8/5
f 203/8/5 199/8/5 202/8/5
f 204/8/5 199/8/5 203/8/5
f 205/3/6 206/3/6 207/3/6
f 207/3/6 206/3/6 208/3/6
f 208/3/6 206/3/6 209/3/6
f 209/3/6 206/3/6 210/3/6
f 210/3/6 206/3/6 211/3/6
f 211/3/6 206/3/6 212/3/6
f 205/3/6 207/3/6 213/3/6
f 208/3/6 209/3/6 214/3/6
f 214/3/6 209/3/6 215/3/6
f 210/3/6 211/3/6 216/3/6
f 216/3/6 211/3/6 217/3/6
f 212/3/6 206/3/6 218/3/6
f 216/3/6 217/3/6 219/3/6
f 217/3/6 218/3/6 219/3/6
f 214/3/6 215/3/6 219/3/6
f 205/3/6 213/3/6 219/3/6
f 215/3/6 216/3/6 219/3/6
f 213/3/6 214/3/6 219/3/6
f 219/3/6 218/3/6 220/3/6
f 218/3/6 206/3/6 221/3/6
f 220/3/6 218/3/6 221/3/6
f 221/3/6 206/3/6 222/3/6
f 220/7/6 221/7/6 223/7/6
f 223/7/6 221/7/6 224/7/6
f 224/7/6 221/7/6 225/7/6
f 225/7/6 221/7/6 226/7/6
f 227/1/6 228/1/6 233/1/6
f 233/1/6 228/1/6 234/1/6
f 229/4/6 230/4/6 235/4/6
f 235/4/6 230/4/6 236/4/6
f 231/4/6 232/4/6 237/4/6
f 237/4/6 232/4/6 238/4/6
f 239/3/6 240/3/6 243/3/6
f 240/5/6 241/5/6 243/5/6
f 241/3/6 242/3/6 244/3/6
f 243/5/6 241/5/6 244/5/6
f 239/3/6 243/3/6 245/3/6
f 243/3/6 244/3/6 245/3/6
f 244/3/6 242/3/6 246/3/6
f 245/3/6 244/3/6 246/3/6
f 245/4/6 246/4/6 247/4/6
f 247/4/6 246/4/6 248/4/6
f 247/1/6 248/1/6 249/1/6
f 249/1/6 248/1/6 250/1/6
f 249/2/6 250/2/6 251/2/6
f 251/2/6 250/2/6 252/2/6
