# MagicaVoxel @ Ephtracy

# material
mtllib obj_tree1.mtl
usemtl palette

# normals
vn -1 0 0
vn 1 0 0
vn 0 0 1
vn 0 0 -1
vn 0 -1 0
vn 0 1 0

# texcoords
vt 0.341797 0.5
vt 0.466797 0.5

# verts
v -4 6 3
v -4 6 -3
v -4 7 4
v -4 7 3
v -4 7 -1
v -4 7 -2
v -4 7 -3
v -4 7 -4
v -4 8 2
v -4 8 1
v -4 8 -1
v -4 8 -2
v -4 9 2
v -4 9 1
v -4 11 -2
v -4 11 -3
v -4 12 2
v -4 12 1
v -4 12 -2
v -4 12 -3
v -4 13 2
v -4 13 1
v -4 13 -1
v -4 13 -2
v -4 14 4
v -4 14 3
v -4 14 -1
v -4 14 -2
v -4 14 -3
v -4 14 -4
v -4 15 3
v -4 15 -3
v -3 6 4
v -3 6 3
v -3 6 -3
v -3 6 -4
v -3 7 4
v -3 7 3
v -3 7 -1
v -3 7 -2
v -3 7 -3
v -3 7 -4
v -3 8 2
v -3 8 1
v -3 8 -1
v -3 8 -2
v -3 9 2
v -3 9 1
v -3 11 -2
v -3 11 -3
v -3 12 2
v -3 12 1
v -3 12 -2
v -3 12 -3
v -3 13 2
v -3 13 1
v -3 13 -1
v -3 13 -2
v -3 14 4
v -3 14 3
v -3 14 -1
v -3 14 -2
v -3 14 -3
v -3 14 -4
v -3 15 4
v -3 15 3
v -3 15 -3
v -3 15 -4
v -2 11 4
v -2 11 3
v -2 12 4
v -2 12 3
v -1 0 1
v -1 0 -1
v -1 6 1
v -1 6 -1
v -1 11 -3
v -1 11 -4
v -1 12 -3
v -1 12 -4
v -1 14 4
v -1 14 3
v -1 14 2
v -1 14 1
v -1 15 4
v -1 15 3
v -1 15 2
v -1 15 1
v 0 7 4
v 0 7 3
v 0 8 4
v 0 8 3
v 0 8 -3
v 0 8 -4
v 0 9 -3
v 0 9 -4
v 0 14 -1
v 0 14 -2
v 0 15 -1
v 0 15 -2
v 1 12 4
v 1 12 3
v 1 13 4
v 1 13 3
v 1 14 -3
v 1 14 -4
v 1 15 -3
v 1 15 -4
v 2 9 -3
v 2 9 -4
v 2 10 -3
v 2 10 -4
v 2 14 3
v 2 14 2
v 2 15 3
v 2 15 2
v 3 9 4
v 3 9 3
v 3 10 4
v 3 10 3
v 3 12 -3
v 3 12 -4
v 3 13 -3
v 3 13 -4
v 3 14 1
v 3 14 -0
v 3 15 1
v 3 15 -0
v -3 11 4
v -3 11 3
v -3 12 4
v -3 12 3
v -2 11 -3
v -2 11 -4
v -2 12 -3
v -2 12 -4
v -2 14 4
v -2 14 3
v -2 14 2
v -2 14 1
v -2 15 4
v -2 15 3
v -2 15 2
v -2 15 1
v -1 7 4
v -1 7 3
v -1 8 4
v -1 8 3
v -1 8 -3
v -1 8 -4
v -1 9 -3
v -1 9 -4
v -1 14 -1
v -1 14 -2
v -1 15 -1
v -1 15 -2
v 0 12 4
v 0 12 3
v 0 13 4
v 0 13 3
v 0 14 -3
v 0 14 -4
v 0 15 -3
v 0 15 -4
v 1 0 1
v 1 0 -1
v 1 6 1
v 1 6 -1
v 1 9 -3
v 1 9 -4
v 1 10 -3
v 1 10 -4
v 1 14 3
v 1 14 2
v 1 15 3
v 1 15 2
v 2 9 4
v 2 9 3
v 2 10 4
v 2 10 3
v 2 12 -3
v 2 12 -4
v 2 13 -3
v 2 13 -4
v 2 14 1
v 2 14 -0
v 2 15 1
v 2 15 -0
v 3 6 4
v 3 6 3
v 3 6 -3
v 3 6 -4
v 3 7 4
v 3 7 3
v 3 7 1
v 3 7 -0
v 3 7 -3
v 3 7 -4
v 3 8 1
v 3 8 -0
v 3 8 -2
v 3 8 -3
v 3 9 -2
v 3 9 -3
v 3 10 2
v 3 10 1
v 3 11 2
v 3 11 1
v 3 13 3
v 3 13 2
v 3 13 -1
v 3 13 -2
v 3 14 4
v 3 14 3
v 3 14 2
v 3 14 -1
v 3 14 -2
v 3 14 -3
v 3 14 -4
v 3 15 4
v 3 15 3
v 3 15 -3
v 3 15 -4
v 4 6 3
v 4 6 -3
v 4 7 4
v 4 7 3
v 4 7 1
v 4 7 -0
v 4 7 -3
v 4 7 -4
v 4 8 1
v 4 8 -0
v 4 8 -2
v 4 8 -3
v 4 9 -2
v 4 9 -3
v 4 10 2
v 4 10 1
v 4 11 2
v 4 11 1
v 4 13 3
v 4 13 2
v 4 13 -1
v 4 13 -2
v 4 14 4
v 4 14 3
v 4 14 2
v 4 14 -1
v 4 14 -2
v 4 14 -3
v 4 14 -4
v 4 15 3
v 4 15 -3
v -4 7 4
v -4 14 4
v -3 6 4
v -3 7 4
v -3 11 4
v -3 12 4
v -3 14 4
v -3 15 4
v -2 11 4
v -2 12 4
v -2 14 4
v -2 15 4
v -1 7 4
v -1 8 4
v -1 14 4
v -1 15 4
v 0 7 4
v 0 8 4
v 0 12 4
v 0 13 4
v 1 12 4
v 1 13 4
v 2 9 4
v 2 10 4
v 3 6 4
v 3 7 4
v 3 9 4
v 3 10 4
v 3 14 4
v 3 15 4
v 4 7 4
v 4 14 4
v -4 6 3
v -4 7 3
v -4 14 3
v -4 15 3
v -3 6 3
v -3 7 3
v -3 11 3
v -3 12 3
v -3 14 3
v -3 15 3
v -2 11 3
v -2 12 3
v -2 14 3
v -2 15 3
v -1 7 3
v -1 8 3
v -1 14 3
v -1 15 3
v 0 7 3
v 0 8 3
v 0 12 3
v 0 13 3
v 1 12 3
v 1 13 3
v 2 9 3
v 2 10 3
v 3 6 3
v 3 7 3
v 3 9 3
v 3 10 3
v 3 14 3
v 3 15 3
v 4 6 3
v 4 7 3
v 4 14 3
v 4 15 3
v 1 14 2
v 1 15 2
v 2 14 2
v 2 15 2
v 3 13 2
v 3 14 2
v 4 13 2
v 4 14 2
v -4 8 1
v -4 9 1
v -4 12 1
v -4 13 1
v -3 8 1
v -3 9 1
v -3 12 1
v -3 13 1
v -2 14 1
v -2 15 1
v -1 0 1
v -1 6 1
v -1 14 1
v -1 15 1
v 1 0 1
v 1 6 1
v 3 10 1
v 3 11 1
v 4 10 1
v 4 11 1
v 2 14 -0
v 2 15 -0
v 3 7 -0
v 3 8 -0
v 3 14 -0
v 3 15 -0
v 4 7 -0
v 4 8 -0
v -4 7 -2
v -4 8 -2
v -4 13 -2
v -4 14 -2
v -3 7 -2
v -3 8 -2
v -3 13 -2
v -3 14 -2
v -1 14 -2
v -1 15 -2
v 0 14 -2
v 0 15 -2
v 3 13 -2
v 3 14 -2
v 4 13 -2
v 4 14 -2
v -4 11 -3
v -4 12 -3
v -3 11 -3
v -3 12 -3
v 3 8 -3
v 3 9 -3
v 4 8 -3
v 4 9 -3
v 1 14 3
v 1 15 3
v 2 14 3
v 2 15 3
v 3 13 3
v 3 14 3
v 4 13 3
v 4 14 3
v -4 8 2
v -4 9 2
v -4 12 2
v -4 13 2
v -3 8 2
v -3 9 2
v -3 12 2
v -3 13 2
v -2 14 2
v -2 15 2
v -1 14 2
v -1 15 2
v 3 10 2
v 3 11 2
v 4 10 2
v 4 11 2
v 2 14 1
v 2 15 1
v 3 7 1
v 3 8 1
v 3 14 1
v 3 15 1
v 4 7 1
v 4 8 1
v -4 7 -1
v -4 8 -1
v -4 13 -1
v -4 14 -1
v -3 7 -1
v -3 8 -1
v -3 13 -1
v -3 14 -1
v -1 0 -1
v -1 6 -1
v -1 14 -1
v -1 15 -1
v 0 14 -1
v 0 15 -1
v 1 0 -1
v 1 6 -1
v 3 13 -1
v 3 14 -1
v 4 13 -1
v 4 14 -1
v -4 11 -2
v -4 12 -2
v -3 11 -2
v -3 12 -2
v 3 8 -2
v 3 9 -2
v 4 8 -2
v 4 9 -2
v -4 6 -3
v -4 7 -3
v -4 14 -3
v -4 15 -3
v -3 6 -3
v -3 7 -3
v -3 14 -3
v -3 15 -3
v -2 11 -3
v -2 12 -3
v -1 8 -3
v -1 9 -3
v -1 11 -3
v -1 12 -3
v 0 8 -3
v 0 9 -3
v 0 14 -3
v 0 15 -3
v 1 9 -3
v 1 10 -3
v 1 14 -3
v 1 15 -3
v 2 9 -3
v 2 10 -3
v 2 12 -3
v 2 13 -3
v 3 6 -3
v 3 7 -3
v 3 12 -3
v 3 13 -3
v 3 14 -3
v 3 15 -3
v 4 6 -3
v 4 7 -3
v 4 14 -3
v 4 15 -3
v -4 7 -4
v -4 14 -4
v -3 6 -4
v -3 7 -4
v -3 14 -4
v -3 15 -4
v -2 11 -4
v -2 12 -4
v -1 8 -4
v -1 9 -4
v -1 11 -4
v -1 12 -4
v 0 8 -4
v 0 9 -4
v 0 14 -4
v 0 15 -4
v 1 9 -4
v 1 10 -4
v 1 14 -4
v 1 15 -4
v 2 9 -4
v 2 10 -4
v 2 12 -4
v 2 13 -4
v 3 6 -4
v 3 7 -4
v 3 12 -4
v 3 13 -4
v 3 14 -4
v 3 15 -4
v 4 7 -4
v 4 14 -4
v -1 0 1
v 1 0 1
v -1 0 -1
v 1 0 -1
v -3 6 4
v 3 6 4
v -4 6 3
v -3 6 3
v 3 6 3
v 4 6 3
v -1 6 1
v 1 6 1
v -1 6 -1
v 1 6 -1
v -4 6 -3
v -3 6 -3
v 3 6 -3
v 4 6 -3
v -3 6 -4
v 3 6 -4
v -4 7 4
v -3 7 4
v 3 7 4
v 4 7 4
v -4 7 3
v -3 7 3
v 3 7 3
v 4 7 3
v -4 7 -3
v -3 7 -3
v 3 7 -3
v 4 7 -3
v -4 7 -4
v -3 7 -4
v 3 7 -4
v 4 7 -4
v -1 8 4
v 0 8 4
v -1 8 3
v 0 8 3
v 3 8 1
v 4 8 1
v 3 8 -0
v 4 8 -0
v -4 8 -1
v -3 8 -1
v -4 8 -2
v -3 8 -2
v -4 9 2
v -3 9 2
v -4 9 1
v -3 9 1
v 3 9 -2
v 4 9 -2
v -1 9 -3
v 0 9 -3
v 3 9 -3
v 4 9 -3
v -1 9 -4
v 0 9 -4
v 2 10 4
v 3 10 4
v 2 10 3
v 3 10 3
v 1 10 -3
v 2 10 -3
v 1 10 -4
v 2 10 -4
v 3 11 2
v 4 11 2
v 3 11 1
v 4 11 1
v -3 12 4
v -2 12 4
v -3 12 3
v -2 12 3
v -4 12 -2
v -3 12 -2
v -4 12 -3
v -3 12 -3
v -2 12 -3
v -1 12 -3
v -2 12 -4
v -1 12 -4
v 0 13 4
v 1 13 4
v 0 13 3
v 1 13 3
v -4 13 2
v -3 13 2
v -4 13 1
v -3 13 1
v 2 13 -3
v 3 13 -3
v 2 13 -4
v 3 13 -4
v 3 14 3
v 4 14 3
v 3 14 2
v 4 14 2
v -4 14 -1
v -3 14 -1
v 3 14 -1
v 4 14 -1
v -4 14 -2
v -3 14 -2
v 3 14 -2
v 4 14 -2
v -1 7 4
v 0 7 4
v -1 7 3
v 0 7 3
v 3 7 1
v 4 7 1
v 3 7 -0
v 4 7 -0
v -4 7 -1
v -3 7 -1
v -4 7 -2
v -3 7 -2
v -4 8 2
v -3 8 2
v -4 8 1
v -3 8 1
v 3 8 -2
v 4 8 -2
v -1 8 -3
v 0 8 -3
v 3 8 -3
v 4 8 -3
v -1 8 -4
v 0 8 -4
v 2 9 4
v 3 9 4
v 2 9 3
v 3 9 3
v 1 9 -3
v 2 9 -3
v 1 9 -4
v 2 9 -4
v 3 10 2
v 4 10 2
v 3 10 1
v 4 10 1
v -3 11 4
v -2 11 4
v -3 11 3
v -2 11 3
v -4 11 -2
v -3 11 -2
v -4 11 -3
v -3 11 -3
v -2 11 -3
v -1 11 -3
v -2 11 -4
v -1 11 -4
v 0 12 4
v 1 12 4
v 0 12 3
v 1 12 3
v -4 12 2
v -3 12 2
v -4 12 1
v -3 12 1
v 2 12 -3
v 3 12 -3
v 2 12 -4
v 3 12 -4
v 3 13 3
v 4 13 3
v 3 13 2
v 4 13 2
v -4 13 -1
v -3 13 -1
v 3 13 -1
v 4 13 -1
v -4 13 -2
v -3 13 -2
v 3 13 -2
v 4 13 -2
v -4 14 4
v -3 14 4
v -2 14 4
v -1 14 4
v 3 14 4
v 4 14 4
v -4 14 3
v -3 14 3
v -2 14 3
v -1 14 3
v 1 14 3
v 2 14 3
v 3 14 3
v 4 14 3
v -2 14 2
v -1 14 2
v 1 14 2
v 2 14 2
v -2 14 1
v -1 14 1
v 2 14 1
v 3 14 1
v 2 14 -0
v 3 14 -0
v -1 14 -1
v 0 14 -1
v -1 14 -2
v 0 14 -2
v -4 14 -3
v -3 14 -3
v 0 14 -3
v 1 14 -3
v 3 14 -3
v 4 14 -3
v -4 14 -4
v -3 14 -4
v 0 14 -4
v 1 14 -4
v 3 14 -4
v 4 14 -4
v -3 15 4
v -2 15 4
v -1 15 4
v 3 15 4
v -4 15 3
v -3 15 3
v -2 15 3
v -1 15 3
v 1 15 3
v 2 15 3
v 3 15 3
v 4 15 3
v -2 15 2
v -1 15 2
v 1 15 2
v 2 15 2
v -2 15 1
v -1 15 1
v 2 15 1
v 3 15 1
v 2 15 -0
v 3 15 -0
v -1 15 -1
v 0 15 -1
v -1 15 -2
v 0 15 -2
v -4 15 -3
v -3 15 -3
v 0 15 -3
v 1 15 -3
v 3 15 -3
v 4 15 -3
v -3 15 -4
v 0 15 -4
v 1 15 -4
v 3 15 -4

# faces
f 4/2/1 2/2/1 1/2/1
f 5/2/1 2/2/1 4/2/1
f 6/2/1 2/2/1 5/2/1
f 7/2/1 2/2/1 6/2/1
f 9/2/1 4/2/1 3/2/1
f 9/2/1 5/2/1 4/2/1
f 10/2/1 5/2/1 9/2/1
f 11/2/1 5/2/1 10/2/1
f 12/2/1 8/2/1 7/2/1
f 12/2/1 7/2/1 6/2/1
f 13/2/1 9/2/1 3/2/1
f 14/2/1 11/2/1 10/2/1
f 14/2/1 12/2/1 11/2/1
f 15/2/1 8/2/1 12/2/1
f 15/2/1 14/2/1 13/2/1
f 15/2/1 12/2/1 14/2/1
f 16/2/1 8/2/1 15/2/1
f 17/2/1 13/2/1 3/2/1
f 17/2/1 15/2/1 13/2/1
f 18/2/1 15/2/1 17/2/1
f 19/2/1 15/2/1 18/2/1
f 20/2/1 8/2/1 16/2/1
f 21/2/1 17/2/1 3/2/1
f 22/2/1 19/2/1 18/2/1
f 22/2/1 20/2/1 19/2/1
f 23/2/1 20/2/1 22/2/1
f 24/2/1 20/2/1 23/2/1
f 25/2/1 21/2/1 3/2/1
f 25/2/1 22/2/1 21/2/1
f 25/2/1 23/2/1 22/2/1
f 26/2/1 23/2/1 25/2/1
f 27/2/1 23/2/1 26/2/1
f 28/2/1 20/2/1 24/2/1
f 29/2/1 8/2/1 20/2/1
f 29/2/1 20/2/1 28/2/1
f 30/2/1 8/2/1 29/2/1
f 31/2/1 27/2/1 26/2/1
f 31/2/1 28/2/1 27/2/1
f 31/2/1 29/2/1 28/2/1
f 32/2/1 29/2/1 31/2/1
f 37/2/1 34/2/1 33/2/1
f 38/2/1 34/2/1 37/2/1
f 41/2/1 36/2/1 35/2/1
f 42/2/1 36/2/1 41/2/1
f 45/2/1 40/2/1 39/2/1
f 46/2/1 40/2/1 45/2/1
f 47/2/1 44/2/1 43/2/1
f 48/2/1 44/2/1 47/2/1
f 53/2/1 50/2/1 49/2/1
f 54/2/1 50/2/1 53/2/1
f 55/2/1 52/2/1 51/2/1
f 56/2/1 52/2/1 55/2/1
f 61/2/1 58/2/1 57/2/1
f 62/2/1 58/2/1 61/2/1
f 65/2/1 60/2/1 59/2/1
f 66/2/1 60/2/1 65/2/1
f 67/2/1 64/2/1 63/2/1
f 68/2/1 64/2/1 67/2/1
f 71/2/1 70/2/1 69/2/1
f 72/2/1 70/2/1 71/2/1
f 75/1/1 74/1/1 73/1/1
f 76/1/1 74/1/1 75/1/1
f 79/2/1 78/2/1 77/2/1
f 80/2/1 78/2/1 79/2/1
f 85/2/1 82/2/1 81/2/1
f 86/2/1 82/2/1 85/2/1
f 87/2/1 84/2/1 83/2/1
f 88/2/1 84/2/1 87/2/1
f 91/2/1 90/2/1 89/2/1
f 92/2/1 90/2/1 91/2/1
f 95/2/1 94/2/1 93/2/1
f 96/2/1 94/2/1 95/2/1
f 99/2/1 98/2/1 97/2/1
f 100/2/1 98/2/1 99/2/1
f 103/2/1 102/2/1 101/2/1
f 104/2/1 102/2/1 103/2/1
f 107/2/1 106/2/1 105/2/1
f 108/2/1 106/2/1 107/2/1
f 111/2/1 110/2/1 109/2/1
f 112/2/1 110/2/1 111/2/1
f 115/2/1 114/2/1 113/2/1
f 116/2/1 114/2/1 115/2/1
f 119/2/1 118/2/1 117/2/1
f 120/2/1 118/2/1 119/2/1
f 123/2/1 122/2/1 121/2/1
f 124/2/1 122/2/1 123/2/1
f 127/2/1 126/2/1 125/2/1
f 128/2/1 126/2/1 127/2/1
f 129/2/2 130/2/2 131/2/2
f 131/2/2 130/2/2 132/2/2
f 133/2/2 134/2/2 135/2/2
f 135/2/2 134/2/2 136/2/2
f 137/2/2 138/2/2 141/2/2
f 141/2/2 138/2/2 142/2/2
f 139/2/2 140/2/2 143/2/2
f 143/2/2 140/2/2 144/2/2
f 145/2/2 146/2/2 147/2/2
f 147/2/2 146/2/2 148/2/2
f 149/2/2 150/2/2 151/2/2
f 151/2/2 150/2/2 152/2/2
f 153/2/2 154/2/2 155/2/2
f 155/2/2 154/2/2 156/2/2
f 157/2/2 158/2/2 159/2/2
f 159/2/2 158/2/2 160/2/2
f 161/2/2 162/2/2 163/2/2
f 163/2/2 162/2/2 164/2/2
f 165/1/2 166/1/2 167/1/2
f 167/1/2 166/1/2 168/1/2
f 169/2/2 170/2/2 171/2/2
f 171/2/2 170/2/2 172/2/2
f 173/2/2 174/2/2 175/2/2
f 175/2/2 174/2/2 176/2/2
f 177/2/2 178/2/2 179/2/2
f 179/2/2 178/2/2 180/2/2
f 181/2/2 182/2/2 183/2/2
f 183/2/2 182/2/2 184/2/2
f 185/2/2 186/2/2 187/2/2
f 187/2/2 186/2/2 188/2/2
f 189/2/2 190/2/2 193/2/2
f 193/2/2 190/2/2 194/2/2
f 191/2/2 192/2/2 197/2/2
f 197/2/2 192/2/2 198/2/2
f 195/2/2 196/2/2 199/2/2
f 199/2/2 196/2/2 200/2/2
f 201/2/2 202/2/2 203/2/2
f 203/2/2 202/2/2 204/2/2
f 205/2/2 206/2/2 207/2/2
f 207/2/2 206/2/2 208/2/2
f 209/2/2 210/2/2 214/2/2
f 214/2/2 210/2/2 215/2/2
f 211/2/2 212/2/2 216/2/2
f 216/2/2 212/2/2 217/2/2
f 213/2/2 214/2/2 220/2/2
f 220/2/2 214/2/2 221/2/2
f 218/2/2 219/2/2 222/2/2
f 222/2/2 219/2/2 223/2/2
f 224/2/2 225/2/2 227/2/2
f 227/2/2 225/2/2 228/2/2
f 228/2/2 225/2/2 229/2/2
f 229/2/2 225/2/2 230/2/2
f 226/2/2 227/2/2 232/2/2
f 227/2/2 228/2/2 232/2/2
f 230/2/2 231/2/2 233/2/2
f 229/2/2 230/2/2 233/2/2
f 233/2/2 231/2/2 234/2/2
f 234/2/2 231/2/2 235/2/2
f 232/2/2 233/2/2 236/2/2
f 233/2/2 234/2/2 236/2/2
f 235/2/2 231/2/2 237/2/2
f 226/2/2 232/2/2 238/2/2
f 236/2/2 237/2/2 238/2/2
f 232/2/2 236/2/2 238/2/2
f 238/2/2 237/2/2 239/2/2
f 226/2/2 238/2/2 240/2/2
f 239/2/2 237/2/2 241/2/2
f 226/2/2 240/2/2 242/2/2
f 240/2/2 241/2/2 242/2/2
f 242/2/2 241/2/2 243/2/2
f 241/2/2 237/2/2 244/2/2
f 243/2/2 241/2/2 244/2/2
f 244/2/2 237/2/2 245/2/2
f 226/2/2 242/2/2 246/2/2
f 246/2/2 242/2/2 247/2/2
f 243/2/2 244/2/2 248/2/2
f 248/2/2 244/2/2 249/2/2
f 245/2/2 237/2/2 250/2/2
f 237/2/2 231/2/2 251/2/2
f 250/2/2 237/2/2 251/2/2
f 251/2/2 231/2/2 252/2/2
f 249/2/2 250/2/2 253/2/2
f 248/2/2 249/2/2 253/2/2
f 250/2/2 251/2/2 253/2/2
f 247/2/2 248/2/2 253/2/2
f 253/2/2 251/2/2 254/2/2
f 258/2/3 256/2/3 255/2/3
f 259/2/3 256/2/3 258/2/3
f 260/2/3 256/2/3 259/2/3
f 261/2/3 256/2/3 260/2/3
f 263/2/3 258/2/3 257/2/3
f 263/2/3 259/2/3 258/2/3
f 264/2/3 262/2/3 261/2/3
f 264/2/3 261/2/3 260/2/3
f 265/2/3 262/2/3 264/2/3
f 266/2/3 262/2/3 265/2/3
f 267/2/3 263/2/3 257/2/3
f 267/2/3 264/2/3 263/2/3
f 267/2/3 265/2/3 264/2/3
f 268/2/3 265/2/3 267/2/3
f 269/2/3 265/2/3 268/2/3
f 271/2/3 267/2/3 257/2/3
f 272/2/3 270/2/3 269/2/3
f 272/2/3 269/2/3 268/2/3
f 273/2/3 270/2/3 272/2/3
f 274/2/3 270/2/3 273/2/3
f 275/2/3 272/2/3 271/2/3
f 275/2/3 273/2/3 272/2/3
f 276/2/3 270/2/3 274/2/3
f 277/2/3 275/2/3 271/2/3
f 277/2/3 276/2/3 275/2/3
f 278/2/3 276/2/3 277/2/3
f 279/2/3 271/2/3 257/2/3
f 279/2/3 277/2/3 271/2/3
f 280/2/3 277/2/3 279/2/3
f 281/2/3 277/2/3 280/2/3
f 282/2/3 276/2/3 278/2/3
f 283/2/3 270/2/3 276/2/3
f 283/2/3 276/2/3 282/2/3
f 284/2/3 270/2/3 283/2/3
f 285/2/3 281/2/3 280/2/3
f 285/2/3 282/2/3 281/2/3
f 285/2/3 283/2/3 282/2/3
f 286/2/3 283/2/3 285/2/3
f 291/2/3 288/2/3 287/2/3
f 292/2/3 288/2/3 291/2/3
f 295/2/3 290/2/3 289/2/3
f 296/2/3 290/2/3 295/2/3
f 297/2/3 294/2/3 293/2/3
f 298/2/3 294/2/3 297/2/3
f 303/2/3 300/2/3 299/2/3
f 304/2/3 300/2/3 303/2/3
f 305/2/3 302/2/3 301/2/3
f 306/2/3 302/2/3 305/2/3
f 309/2/3 308/2/3 307/2/3
f 310/2/3 308/2/3 309/2/3
f 315/2/3 312/2/3 311/2/3
f 316/2/3 312/2/3 315/2/3
f 319/2/3 314/2/3 313/2/3
f 320/2/3 314/2/3 319/2/3
f 321/2/3 318/2/3 317/2/3
f 322/2/3 318/2/3 321/2/3
f 325/2/3 324/2/3 323/2/3
f 326/2/3 324/2/3 325/2/3
f 329/2/3 328/2/3 327/2/3
f 330/2/3 328/2/3 329/2/3
f 335/2/3 332/2/3 331/2/3
f 336/2/3 332/2/3 335/2/3
f 337/2/3 334/2/3 333/2/3
f 338/2/3 334/2/3 337/2/3
f 343/2/3 340/2/3 339/2/3
f 344/2/3 340/2/3 343/2/3
f 345/1/3 342/1/3 341/1/3
f 346/1/3 342/1/3 345/1/3
f 349/2/3 348/2/3 347/2/3
f 350/2/3 348/2/3 349/2/3
f 355/2/3 352/2/3 351/2/3
f 356/2/3 352/2/3 355/2/3
f 357/2/3 354/2/3 353/2/3
f 358/2/3 354/2/3 357/2/3
f 363/2/3 360/2/3 359/2/3
f 364/2/3 360/2/3 363/2/3
f 365/2/3 362/2/3 361/2/3
f 366/2/3 362/2/3 365/2/3
f 369/2/3 368/2/3 367/2/3
f 370/2/3 368/2/3 369/2/3
f 373/2/3 372/2/3 371/2/3
f 374/2/3 372/2/3 373/2/3
f 377/2/3 376/2/3 375/2/3
f 378/2/3 376/2/3 377/2/3
f 381/2/3 380/2/3 379/2/3
f 382/2/3 380/2/3 381/2/3
f 383/2/4 384/2/4 385/2/4
f 385/2/4 384/2/4 386/2/4
f 387/2/4 388/2/4 389/2/4
f 389/2/4 388/2/4 390/2/4
f 391/2/4 392/2/4 395/2/4
f 395/2/4 392/2/4 396/2/4
f 393/2/4 394/2/4 397/2/4
f 397/2/4 394/2/4 398/2/4
f 399/2/4 400/2/4 401/2/4
f 401/2/4 400/2/4 402/2/4
f 403/2/4 404/2/4 405/2/4
f 405/2/4 404/2/4 406/2/4
f 407/2/4 408/2/4 411/2/4
f 411/2/4 408/2/4 412/2/4
f 409/2/4 410/2/4 413/2/4
f 413/2/4 410/2/4 414/2/4
f 415/2/4 416/2/4 419/2/4
f 419/2/4 416/2/4 420/2/4
f 417/2/4 418/2/4 421/2/4
f 421/2/4 418/2/4 422/2/4
f 425/2/4 426/2/4 427/2/4
f 427/2/4 426/2/4 428/2/4
f 423/1/4 424/1/4 429/1/4
f 429/1/4 424/1/4 430/1/4
f 431/2/4 432/2/4 433/2/4
f 433/2/4 432/2/4 434/2/4
f 435/2/4 436/2/4 437/2/4
f 437/2/4 436/2/4 438/2/4
f 439/2/4 440/2/4 441/2/4
f 441/2/4 440/2/4 442/2/4
f 443/2/4 444/2/4 447/2/4
f 447/2/4 444/2/4 448/2/4
f 445/2/4 446/2/4 449/2/4
f 449/2/4 446/2/4 450/2/4
f 451/2/4 452/2/4 455/2/4
f 455/2/4 452/2/4 456/2/4
f 453/2/4 454/2/4 457/2/4
f 457/2/4 454/2/4 458/2/4
f 459/2/4 460/2/4 463/2/4
f 463/2/4 460/2/4 464/2/4
f 461/2/4 462/2/4 465/2/4
f 465/2/4 462/2/4 466/2/4
f 467/2/4 468/2/4 471/2/4
f 471/2/4 468/2/4 472/2/4
f 469/2/4 470/2/4 475/2/4
f 475/2/4 470/2/4 476/2/4
f 473/2/4 474/2/4 477/2/4
f 477/2/4 474/2/4 478/2/4
f 479/2/4 480/2/4 482/2/4
f 482/2/4 480/2/4 483/2/4
f 481/2/4 482/2/4 485/2/4
f 483/2/4 484/2/4 485/2/4
f 482/2/4 483/2/4 485/2/4
f 485/2/4 484/2/4 486/2/4
f 481/2/4 485/2/4 487/2/4
f 487/2/4 485/2/4 488/2/4
f 488/2/4 485/2/4 489/2/4
f 486/2/4 484/2/4 490/2/4
f 481/2/4 487/2/4 491/2/4
f 488/2/4 489/2/4 492/2/4
f 489/2/4 490/2/4 492/2/4
f 490/2/4 484/2/4 493/2/4
f 492/2/4 490/2/4 493/2/4
f 493/2/4 484/2/4 494/2/4
f 491/2/4 492/2/4 495/2/4
f 492/2/4 493/2/4 495/2/4
f 495/2/4 493/2/4 496/2/4
f 496/2/4 493/2/4 497/2/4
f 491/2/4 495/2/4 499/2/4
f 497/2/4 498/2/4 500/2/4
f 496/2/4 497/2/4 500/2/4
f 500/2/4 498/2/4 501/2/4
f 501/2/4 498/2/4 502/2/4
f 481/2/4 491/2/4 503/2/4
f 491/2/4 499/2/4 503/2/4
f 500/2/4 501/2/4 503/2/4
f 499/2/4 500/2/4 503/2/4
f 503/2/4 501/2/4 504/2/4
f 504/2/4 501/2/4 505/2/4
f 502/2/4 498/2/4 506/2/4
f 506/2/4 498/2/4 507/2/4
f 507/2/4 498/2/4 508/2/4
f 504/2/4 505/2/4 509/2/4
f 506/2/4 507/2/4 509/2/4
f 505/2/4 506/2/4 509/2/4
f 509/2/4 507/2/4 510/2/4
f 513/1/5 512/1/5 511/1/5
f 514/1/5 512/1/5 513/1/5
f 518/2/5 516/2/5 515/2/5
f 519/2/5 516/2/5 518/2/5
f 521/2/5 518/2/5 517/2/5
f 521/2/5 520/2/5 519/2/5
f 521/2/5 519/2/5 518/2/5
f 522/2/5 520/2/5 521/2/5
f 523/2/5 521/2/5 517/2/5
f 524/2/5 520/2/5 522/2/5
f 525/2/5 523/2/5 517/2/5
f 525/2/5 524/2/5 523/2/5
f 526/2/5 524/2/5 525/2/5
f 527/2/5 520/2/5 524/2/5
f 527/2/5 524/2/5 526/2/5
f 528/2/5 520/2/5 527/2/5
f 529/2/5 527/2/5 526/2/5
f 530/2/5 527/2/5 529/2/5
f 535/2/5 532/2/5 531/2/5
f 536/2/5 532/2/5 535/2/5
f 537/2/5 534/2/5 533/2/5
f 538/2/5 534/2/5 537/2/5
f 543/2/5 540/2/5 539/2/5
f 544/2/5 540/2/5 543/2/5
f 545/2/5 542/2/5 541/2/5
f 546/2/5 542/2/5 545/2/5
f 549/2/5 548/2/5 547/2/5
f 550/2/5 548/2/5 549/2/5
f 553/2/5 552/2/5 551/2/5
f 554/2/5 552/2/5 553/2/5
f 557/2/5 556/2/5 555/2/5
f 558/2/5 556/2/5 557/2/5
f 561/2/5 560/2/5 559/2/5
f 562/2/5 560/2/5 561/2/5
f 567/2/5 564/2/5 563/2/5
f 568/2/5 564/2/5 567/2/5
f 569/2/5 566/2/5 565/2/5
f 570/2/5 566/2/5 569/2/5
f 573/2/5 572/2/5 571/2/5
f 574/2/5 572/2/5 573/2/5
f 577/2/5 576/2/5 575/2/5
f 578/2/5 576/2/5 577/2/5
f 581/2/5 580/2/5 579/2/5
f 582/2/5 580/2/5 581/2/5
f 585/2/5 584/2/5 583/2/5
f 586/2/5 584/2/5 585/2/5
f 589/2/5 588/2/5 587/2/5
f 590/2/5 588/2/5 589/2/5
f 593/2/5 592/2/5 591/2/5
f 594/2/5 592/2/5 593/2/5
f 597/2/5 596/2/5 595/2/5
f 598/2/5 596/2/5 597/2/5
f 601/2/5 600/2/5 599/2/5
f 602/2/5 600/2/5 601/2/5
f 605/2/5 604/2/5 603/2/5
f 606/2/5 604/2/5 605/2/5
f 609/2/5 608/2/5 607/2/5
f 610/2/5 608/2/5 609/2/5
f 615/2/5 612/2/5 611/2/5
f 616/2/5 612/2/5 615/2/5
f 617/2/5 614/2/5 613/2/5
f 618/2/5 614/2/5 617/2/5
f 619/2/6 620/2/6 621/2/6
f 621/2/6 620/2/6 622/2/6
f 623/2/6 624/2/6 625/2/6
f 625/2/6 624/2/6 626/2/6
f 627/2/6 628/2/6 629/2/6
f 629/2/6 628/2/6 630/2/6
f 631/2/6 632/2/6 633/2/6
f 633/2/6 632/2/6 634/2/6
f 635/2/6 636/2/6 639/2/6
f 639/2/6 636/2/6 640/2/6
f 637/2/6 638/2/6 641/2/6
f 641/2/6 638/2/6 642/2/6
f 643/2/6 644/2/6 645/2/6
f 645/2/6 644/2/6 646/2/6
f 647/2/6 648/2/6 649/2/6
f 649/2/6 648/2/6 650/2/6
f 651/2/6 652/2/6 653/2/6
f 653/2/6 652/2/6 654/2/6
f 655/2/6 656/2/6 657/2/6
f 657/2/6 656/2/6 658/2/6
f 659/2/6 660/2/6 661/2/6
f 661/2/6 660/2/6 662/2/6
f 663/2/6 664/2/6 665/2/6
f 665/2/6 664/2/6 666/2/6
f 667/2/6 668/2/6 669/2/6
f 669/2/6 668/2/6 670/2/6
f 671/2/6 672/2/6 673/2/6
f 673/2/6 672/2/6 674/2/6
f 675/2/6 676/2/6 677/2/6
f 677/2/6 676/2/6 678/2/6
f 679/2/6 680/2/6 681/2/6
f 681/2/6 680/2/6 682/2/6
f 683/2/6 684/2/6 687/2/6
f 687/2/6 684/2/6 688/2/6
f 685/2/6 686/2/6 689/2/6
f 689/2/6 686/2/6 690/2/6
f 691/2/6 692/2/6 697/2/6
f 697/2/6 692/2/6 698/2/6
f 693/2/6 694/2/6 699/2/6
f 699/2/6 694/2/6 700/2/6
f 695/2/6 696/2/6 703/2/6
f 703/2/6 696/2/6 704/2/6
f 701/2/6 702/2/6 707/2/6
f 707/2/6 702/2/6 708/2/6
f 705/2/6 706/2/6 709/2/6
f 709/2/6 706/2/6 710/2/6
f 711/2/6 712/2/6 713/2/6
f 713/2/6 712/2/6 714/2/6
f 715/2/6 716/2/6 717/2/6
f 717/2/6 716/2/6 718/2/6
f 719/2/6 720/2/6 725/2/6
f 725/2/6 720/2/6 726/2/6
f 721/2/6 722/2/6 727/2/6
f 727/2/6 722/2/6 728/2/6
f 723/2/6 724/2/6 729/2/6
f 729/2/6 724/2/6 730/2/6
f 731/2/6 732/2/6 736/2/6
f 736/2/6 732/2/6 737/2/6
f 733/2/6 734/2/6 738/2/6
f 738/2/6 734/2/6 739/2/6
f 739/2/6 734/2/6 740/2/6
f 740/2/6 734/2/6 741/2/6
f 736/2/6 737/2/6 743/2/6
f 735/2/6 736/2/6 743/2/6
f 737/2/6 738/2/6 743/2/6
f 738/2/6 739/2/6 743/2/6
f 743/2/6 739/2/6 744/2/6
f 744/2/6 739/2/6 745/2/6
f 741/2/6 742/2/6 746/2/6
f 740/2/6 741/2/6 746/2/6
f 735/2/6 743/2/6 747/2/6
f 744/2/6 745/2/6 748/2/6
f 745/2/6 746/2/6 748/2/6
f 746/2/6 742/2/6 749/2/6
f 748/2/6 746/2/6 749/2/6
f 749/2/6 742/2/6 750/2/6
f 747/2/6 748/2/6 751/2/6
f 748/2/6 749/2/6 751/2/6
f 750/2/6 742/2/6 752/2/6
f 747/2/6 751/2/6 753/2/6
f 751/2/6 752/2/6 753/2/6
f 753/2/6 752/2/6 754/2/6
f 747/2/6 753/2/6 755/2/6
f 754/2/6 752/2/6 756/2/6
f 735/2/6 747/2/6 757/2/6
f 755/2/6 756/2/6 757/2/6
f 747/2/6 755/2/6 757/2/6
f 757/2/6 756/2/6 758/2/6
f 756/2/6 752/2/6 759/2/6
f 758/2/6 756/2/6 759/2/6
f 759/2/6 752/2/6 760/2/6
f 752/2/6 742/2/6 761/2/6
f 760/2/6 752/2/6 761/2/6
f 761/2/6 742/2/6 762/2/6
f 758/2/6 759/2/6 763/2/6
f 763/2/6 759/2/6 764/2/6
f 760/2/6 761/2/6 765/2/6
f 765/2/6 761/2/6 766/2/6
