# MagicaVoxel @ Ephtracy

# material
mtllib obj_tree1b.mtl
usemtl palette

# normals
vn -1 0 0
vn 1 0 0
vn 0 0 1
vn 0 0 -1
vn 0 -1 0
vn 0 1 0

# texcoords
vt 0.0449219 0.5
vt 0.341797 0.5

# verts
v -4 6 3
v -4 6 -3
v -4 7 4
v -4 7 3
v -4 7 -1
v -4 7 -2
v -4 7 -3
v -4 7 -4
v -4 8 2
v -4 8 1
v -4 8 -1
v -4 8 -2
v -4 9 2
v -4 9 1
v -4 11 -2
v -4 11 -3
v -4 12 2
v -4 12 1
v -4 12 -2
v -4 12 -3
v -4 13 2
v -4 13 1
v -4 13 -1
v -4 13 -2
v -4 14 4
v -4 14 3
v -4 14 -1
v -4 14 -2
v -4 14 -3
v -4 14 -4
v -4 15 3
v -4 15 -3
v -3 6 4
v -3 6 3
v -3 6 -3
v -3 6 -4
v -3 7 4
v -3 7 3
v -3 7 -1
v -3 7 -2
v -3 7 -3
v -3 7 -4
v -3 8 2
v -3 8 1
v -3 8 -1
v -3 8 -2
v -3 9 2
v -3 9 1
v -3 11 -2
v -3 11 -3
v -3 12 2
v -3 12 1
v -3 12 -2
v -3 12 -3
v -3 13 2
v -3 13 1
v -3 13 -1
v -3 13 -2
v -3 14 4
v -3 14 3
v -3 14 -1
v -3 14 -2
v -3 14 -3
v -3 14 -4
v -3 15 4
v -3 15 3
v -3 15 -3
v -3 15 -4
v -2 11 4
v -2 11 3
v -2 12 4
v -2 12 3
v -1 0 1
v -1 0 -1
v -1 6 1
v -1 6 -1
v -1 11 -3
v -1 11 -4
v -1 12 -3
v -1 12 -4
v -1 14 4
v -1 14 3
v -1 14 2
v -1 14 1
v -1 15 4
v -1 15 3
v -1 15 2
v -1 15 1
v 0 7 4
v 0 7 3
v 0 8 4
v 0 8 3
v 0 8 -3
v 0 8 -4
v 0 9 -3
v 0 9 -4
v 0 14 -1
v 0 14 -2
v 0 15 -1
v 0 15 -2
v 1 12 4
v 1 12 3
v 1 13 4
v 1 13 3
v 1 14 -3
v 1 14 -4
v 1 15 -3
v 1 15 -4
v 2 9 -3
v 2 9 -4
v 2 10 -3
v 2 10 -4
v 2 14 3
v 2 14 2
v 2 15 3
v 2 15 2
v 3 9 4
v 3 9 3
v 3 10 4
v 3 10 3
v 3 12 -3
v 3 12 -4
v 3 13 -3
v 3 13 -4
v 3 14 1
v 3 14 -0
v 3 15 1
v 3 15 -0
v -3 11 4
v -3 11 3
v -3 12 4
v -3 12 3
v -2 11 -3
v -2 11 -4
v -2 12 -3
v -2 12 -4
v -2 14 4
v -2 14 3
v -2 14 2
v -2 14 1
v -2 15 4
v -2 15 3
v -2 15 2
v -2 15 1
v -1 7 4
v -1 7 3
v -1 8 4
v -1 8 3
v -1 8 -3
v -1 8 -4
v -1 9 -3
v -1 9 -4
v -1 14 -1
v -1 14 -2
v -1 15 -1
v -1 15 -2
v 0 12 4
v 0 12 3
v 0 13 4
v 0 13 3
v 0 14 -3
v 0 14 -4
v 0 15 -3
v 0 15 -4
v 1 0 1
v 1 0 -1
v 1 6 1
v 1 6 -1
v 1 9 -3
v 1 9 -4
v 1 10 -3
v 1 10 -4
v 1 14 3
v 1 14 2
v 1 15 3
v 1 15 2
v 2 9 4
v 2 9 3
v 2 10 4
v 2 10 3
v 2 12 -3
v 2 12 -4
v 2 13 -3
v 2 13 -4
v 2 14 1
v 2 14 -0
v 2 15 1
v 2 15 -0
v 3 6 4
v 3 6 3
v 3 6 -3
v 3 6 -4
v 3 7 4
v 3 7 3
v 3 7 1
v 3 7 -0
v 3 7 -3
v 3 7 -4
v 3 8 1
v 3 8 -0
v 3 8 -2
v 3 8 -3
v 3 9 -2
v 3 9 -3
v 3 10 2
v 3 10 1
v 3 11 2
v 3 11 1
v 3 13 3
v 3 13 2
v 3 13 -1
v 3 13 -2
v 3 14 4
v 3 14 3
v 3 14 2
v 3 14 -1
v 3 14 -2
v 3 14 -3
v 3 14 -4
v 3 15 4
v 3 15 3
v 3 15 -3
v 3 15 -4
v 4 6 3
v 4 6 -3
v 4 7 4
v 4 7 3
v 4 7 1
v 4 7 -0
v 4 7 -3
v 4 7 -4
v 4 8 1
v 4 8 -0
v 4 8 -2
v 4 8 -3
v 4 9 -2
v 4 9 -3
v 4 10 2
v 4 10 1
v 4 11 2
v 4 11 1
v 4 13 3
v 4 13 2
v 4 13 -1
v 4 13 -2
v 4 14 4
v 4 14 3
v 4 14 2
v 4 14 -1
v 4 14 -2
v 4 14 -3
v 4 14 -4
v 4 15 3
v 4 15 -3
v -4 7 4
v -4 14 4
v -3 6 4
v -3 7 4
v -3 11 4
v -3 12 4
v -3 14 4
v -3 15 4
v -2 11 4
v -2 12 4
v -2 14 4
v -2 15 4
v -1 7 4
v -1 8 4
v -1 14 4
v -1 15 4
v 0 7 4
v 0 8 4
v 0 12 4
v 0 13 4
v 1 12 4
v 1 13 4
v 2 9 4
v 2 10 4
v 3 6 4
v 3 7 4
v 3 9 4
v 3 10 4
v 3 14 4
v 3 15 4
v 4 7 4
v 4 14 4
v -4 6 3
v -4 7 3
v -4 14 3
v -4 15 3
v -3 6 3
v -3 7 3
v -3 11 3
v -3 12 3
v -3 14 3
v -3 15 3
v -2 11 3
v -2 12 3
v -2 14 3
v -2 15 3
v -1 7 3
v -1 8 3
v -1 14 3
v -1 15 3
v 0 7 3
v 0 8 3
v 0 12 3
v 0 13 3
v 1 12 3
v 1 13 3
v 2 9 3
v 2 10 3
v 3 6 3
v 3 7 3
v 3 9 3
v 3 10 3
v 3 14 3
v 3 15 3
v 4 6 3
v 4 7 3
v 4 14 3
v 4 15 3
v 1 14 2
v 1 15 2
v 2 14 2
v 2 15 2
v 3 13 2
v 3 14 2
v 4 13 2
v 4 14 2
v -4 8 1
v -4 9 1
v -4 12 1
v -4 13 1
v -3 8 1
v -3 9 1
v -3 12 1
v -3 13 1
v -2 14 1
v -2 15 1
v -1 0 1
v -1 6 1
v -1 14 1
v -1 15 1
v 1 0 1
v 1 6 1
v 3 10 1
v 3 11 1
v 4 10 1
v 4 11 1
v 2 14 -0
v 2 15 -0
v 3 7 -0
v 3 8 -0
v 3 14 -0
v 3 15 -0
v 4 7 -0
v 4 8 -0
v -4 7 -2
v -4 8 -2
v -4 13 -2
v -4 14 -2
v -3 7 -2
v -3 8 -2
v -3 13 -2
v -3 14 -2
v -1 14 -2
v -1 15 -2
v 0 14 -2
v 0 15 -2
v 3 13 -2
v 3 14 -2
v 4 13 -2
v 4 14 -2
v -4 11 -3
v -4 12 -3
v -3 11 -3
v -3 12 -3
v 3 8 -3
v 3 9 -3
v 4 8 -3
v 4 9 -3
v 1 14 3
v 1 15 3
v 2 14 3
v 2 15 3
v 3 13 3
v 3 14 3
v 4 13 3
v 4 14 3
v -4 8 2
v -4 9 2
v -4 12 2
v -4 13 2
v -3 8 2
v -3 9 2
v -3 12 2
v -3 13 2
v -2 14 2
v -2 15 2
v -1 14 2
v -1 15 2
v 3 10 2
v 3 11 2
v 4 10 2
v 4 11 2
v 2 14 1
v 2 15 1
v 3 7 1
v 3 8 1
v 3 14 1
v 3 15 1
v 4 7 1
v 4 8 1
v -4 7 -1
v -4 8 -1
v -4 13 -1
v -4 14 -1
v -3 7 -1
v -3 8 -1
v -3 13 -1
v -3 14 -1
v -1 0 -1
v -1 6 -1
v -1 14 -1
v -1 15 -1
v 0 14 -1
v 0 15 -1
v 1 0 -1
v 1 6 -1
v 3 13 -1
v 3 14 -1
v 4 13 -1
v 4 14 -1
v -4 11 -2
v -4 12 -2
v -3 11 -2
v -3 12 -2
v 3 8 -2
v 3 9 -2
v 4 8 -2
v 4 9 -2
v -4 6 -3
v -4 7 -3
v -4 14 -3
v -4 15 -3
v -3 6 -3
v -3 7 -3
v -3 14 -3
v -3 15 -3
v -2 11 -3
v -2 12 -3
v -1 8 -3
v -1 9 -3
v -1 11 -3
v -1 12 -3
v 0 8 -3
v 0 9 -3
v 0 14 -3
v 0 15 -3
v 1 9 -3
v 1 10 -3
v 1 14 -3
v 1 15 -3
v 2 9 -3
v 2 10 -3
v 2 12 -3
v 2 13 -3
v 3 6 -3
v 3 7 -3
v 3 12 -3
v 3 13 -3
v 3 14 -3
v 3 15 -3
v 4 6 -3
v 4 7 -3
v 4 14 -3
v 4 15 -3
v -4 7 -4
v -4 14 -4
v -3 6 -4
v -3 7 -4
v -3 14 -4
v -3 15 -4
v -2 11 -4
v -2 12 -4
v -1 8 -4
v -1 9 -4
v -1 11 -4
v -1 12 -4
v 0 8 -4
v 0 9 -4
v 0 14 -4
v 0 15 -4
v 1 9 -4
v 1 10 -4
v 1 14 -4
v 1 15 -4
v 2 9 -4
v 2 10 -4
v 2 12 -4
v 2 13 -4
v 3 6 -4
v 3 7 -4
v 3 12 -4
v 3 13 -4
v 3 14 -4
v 3 15 -4
v 4 7 -4
v 4 14 -4
v -1 0 1
v 1 0 1
v -1 0 -1
v 1 0 -1
v -3 6 4
v 3 6 4
v -4 6 3
v -3 6 3
v 3 6 3
v 4 6 3
v -1 6 1
v 1 6 1
v -1 6 -1
v 1 6 -1
v -4 6 -3
v -3 6 -3
v 3 6 -3
v 4 6 -3
v -3 6 -4
v 3 6 -4
v -4 7 4
v -3 7 4
v 3 7 4
v 4 7 4
v -4 7 3
v -3 7 3
v 3 7 3
v 4 7 3
v -4 7 -3
v -3 7 -3
v 3 7 -3
v 4 7 -3
v -4 7 -4
v -3 7 -4
v 3 7 -4
v 4 7 -4
v -1 8 4
v 0 8 4
v -1 8 3
v 0 8 3
v 3 8 1
v 4 8 1
v 3 8 -0
v 4 8 -0
v -4 8 -1
v -3 8 -1
v -4 8 -2
v -3 8 -2
v -4 9 2
v -3 9 2
v -4 9 1
v -3 9 1
v 3 9 -2
v 4 9 -2
v -1 9 -3
v 0 9 -3
v 3 9 -3
v 4 9 -3
v -1 9 -4
v 0 9 -4
v 2 10 4
v 3 10 4
v 2 10 3
v 3 10 3
v 1 10 -3
v 2 10 -3
v 1 10 -4
v 2 10 -4
v 3 11 2
v 4 11 2
v 3 11 1
v 4 11 1
v -3 12 4
v -2 12 4
v -3 12 3
v -2 12 3
v -4 12 -2
v -3 12 -2
v -4 12 -3
v -3 12 -3
v -2 12 -3
v -1 12 -3
v -2 12 -4
v -1 12 -4
v 0 13 4
v 1 13 4
v 0 13 3
v 1 13 3
v -4 13 2
v -3 13 2
v -4 13 1
v -3 13 1
v 2 13 -3
v 3 13 -3
v 2 13 -4
v 3 13 -4
v 3 14 3
v 4 14 3
v 3 14 2
v 4 14 2
v -4 14 -1
v -3 14 -1
v 3 14 -1
v 4 14 -1
v -4 14 -2
v -3 14 -2
v 3 14 -2
v 4 14 -2
v -1 7 4
v 0 7 4
v -1 7 3
v 0 7 3
v 3 7 1
v 4 7 1
v 3 7 -0
v 4 7 -0
v -4 7 -1
v -3 7 -1
v -4 7 -2
v -3 7 -2
v -4 8 2
v -3 8 2
v -4 8 1
v -3 8 1
v 3 8 -2
v 4 8 -2
v -1 8 -3
v 0 8 -3
v 3 8 -3
v 4 8 -3
v -1 8 -4
v 0 8 -4
v 2 9 4
v 3 9 4
v 2 9 3
v 3 9 3
v 1 9 -3
v 2 9 -3
v 1 9 -4
v 2 9 -4
v 3 10 2
v 4 10 2
v 3 10 1
v 4 10 1
v -3 11 4
v -2 11 4
v -3 11 3
v -2 11 3
v -4 11 -2
v -3 11 -2
v -4 11 -3
v -3 11 -3
v -2 11 -3
v -1 11 -3
v -2 11 -4
v -1 11 -4
v 0 12 4
v 1 12 4
v 0 12 3
v 1 12 3
v -4 12 2
v -3 12 2
v -4 12 1
v -3 12 1
v 2 12 -3
v 3 12 -3
v 2 12 -4
v 3 12 -4
v 3 13 3
v 4 13 3
v 3 13 2
v 4 13 2
v -4 13 -1
v -3 13 -1
v 3 13 -1
v 4 13 -1
v -4 13 -2
v -3 13 -2
v 3 13 -2
v 4 13 -2
v -4 14 4
v -3 14 4
v -2 14 4
v -1 14 4
v 3 14 4
v 4 14 4
v -4 14 3
v -3 14 3
v -2 14 3
v -1 14 3
v 1 14 3
v 2 14 3
v 3 14 3
v 4 14 3
v -2 14 2
v -1 14 2
v 1 14 2
v 2 14 2
v -2 14 1
v -1 14 1
v 2 14 1
v 3 14 1
v 2 14 -0
v 3 14 -0
v -1 14 -1
v 0 14 -1
v -1 14 -2
v 0 14 -2
v -4 14 -3
v -3 14 -3
v 0 14 -3
v 1 14 -3
v 3 14 -3
v 4 14 -3
v -4 14 -4
v -3 14 -4
v 0 14 -4
v 1 14 -4
v 3 14 -4
v 4 14 -4
v -3 15 4
v -2 15 4
v -1 15 4
v 3 15 4
v -4 15 3
v -3 15 3
v -2 15 3
v -1 15 3
v 1 15 3
v 2 15 3
v 3 15 3
v 4 15 3
v -2 15 2
v -1 15 2
v 1 15 2
v 2 15 2
v -2 15 1
v -1 15 1
v 2 15 1
v 3 15 1
v 2 15 -0
v 3 15 -0
v -1 15 -1
v 0 15 -1
v -1 15 -2
v 0 15 -2
v -4 15 -3
v -3 15 -3
v 0 15 -3
v 1 15 -3
v 3 15 -3
v 4 15 -3
v -3 15 -4
v 0 15 -4
v 1 15 -4
v 3 15 -4

# faces
f 4/1/1 2/1/1 1/1/1
f 5/1/1 2/1/1 4/1/1
f 6/1/1 2/1/1 5/1/1
f 7/1/1 2/1/1 6/1/1
f 9/1/1 4/1/1 3/1/1
f 9/1/1 5/1/1 4/1/1
f 10/1/1 5/1/1 9/1/1
f 11/1/1 5/1/1 10/1/1
f 12/1/1 8/1/1 7/1/1
f 12/1/1 7/1/1 6/1/1
f 13/1/1 9/1/1 3/1/1
f 14/1/1 11/1/1 10/1/1
f 14/1/1 12/1/1 11/1/1
f 15/1/1 8/1/1 12/1/1
f 15/1/1 14/1/1 13/1/1
f 15/1/1 12/1/1 14/1/1
f 16/1/1 8/1/1 15/1/1
f 17/1/1 13/1/1 3/1/1
f 17/1/1 15/1/1 13/1/1
f 18/1/1 15/1/1 17/1/1
f 19/1/1 15/1/1 18/1/1
f 20/1/1 8/1/1 16/1/1
f 21/1/1 17/1/1 3/1/1
f 22/1/1 19/1/1 18/1/1
f 22/1/1 20/1/1 19/1/1
f 23/1/1 20/1/1 22/1/1
f 24/1/1 20/1/1 23/1/1
f 25/1/1 21/1/1 3/1/1
f 25/1/1 22/1/1 21/1/1
f 25/1/1 23/1/1 22/1/1
f 26/1/1 23/1/1 25/1/1
f 27/1/1 23/1/1 26/1/1
f 28/1/1 20/1/1 24/1/1
f 29/1/1 8/1/1 20/1/1
f 29/1/1 20/1/1 28/1/1
f 30/1/1 8/1/1 29/1/1
f 31/1/1 27/1/1 26/1/1
f 31/1/1 28/1/1 27/1/1
f 31/1/1 29/1/1 28/1/1
f 32/1/1 29/1/1 31/1/1
f 37/1/1 34/1/1 33/1/1
f 38/1/1 34/1/1 37/1/1
f 41/1/1 36/1/1 35/1/1
f 42/1/1 36/1/1 41/1/1
f 45/1/1 40/1/1 39/1/1
f 46/1/1 40/1/1 45/1/1
f 47/1/1 44/1/1 43/1/1
f 48/1/1 44/1/1 47/1/1
f 53/1/1 50/1/1 49/1/1
f 54/1/1 50/1/1 53/1/1
f 55/1/1 52/1/1 51/1/1
f 56/1/1 52/1/1 55/1/1
f 61/1/1 58/1/1 57/1/1
f 62/1/1 58/1/1 61/1/1
f 65/1/1 60/1/1 59/1/1
f 66/1/1 60/1/1 65/1/1
f 67/1/1 64/1/1 63/1/1
f 68/1/1 64/1/1 67/1/1
f 71/1/1 70/1/1 69/1/1
f 72/1/1 70/1/1 71/1/1
f 75/2/1 74/2/1 73/2/1
f 76/2/1 74/2/1 75/2/1
f 79/1/1 78/1/1 77/1/1
f 80/1/1 78/1/1 79/1/1
f 85/1/1 82/1/1 81/1/1
f 86/1/1 82/1/1 85/1/1
f 87/1/1 84/1/1 83/1/1
f 88/1/1 84/1/1 87/1/1
f 91/1/1 90/1/1 89/1/1
f 92/1/1 90/1/1 91/1/1
f 95/1/1 94/1/1 93/1/1
f 96/1/1 94/1/1 95/1/1
f 99/1/1 98/1/1 97/1/1
f 100/1/1 98/1/1 99/1/1
f 103/1/1 102/1/1 101/1/1
f 104/1/1 102/1/1 103/1/1
f 107/1/1 106/1/1 105/1/1
f 108/1/1 106/1/1 107/1/1
f 111/1/1 110/1/1 109/1/1
f 112/1/1 110/1/1 111/1/1
f 115/1/1 114/1/1 113/1/1
f 116/1/1 114/1/1 115/1/1
f 119/1/1 118/1/1 117/1/1
f 120/1/1 118/1/1 119/1/1
f 123/1/1 122/1/1 121/1/1
f 124/1/1 122/1/1 123/1/1
f 127/1/1 126/1/1 125/1/1
f 128/1/1 126/1/1 127/1/1
f 129/1/2 130/1/2 131/1/2
f 131/1/2 130/1/2 132/1/2
f 133/1/2 134/1/2 135/1/2
f 135/1/2 134/1/2 136/1/2
f 137/1/2 138/1/2 141/1/2
f 141/1/2 138/1/2 142/1/2
f 139/1/2 140/1/2 143/1/2
f 143/1/2 140/1/2 144/1/2
f 145/1/2 146/1/2 147/1/2
f 147/1/2 146/1/2 148/1/2
f 149/1/2 150/1/2 151/1/2
f 151/1/2 150/1/2 152/1/2
f 153/1/2 154/1/2 155/1/2
f 155/1/2 154/1/2 156/1/2
f 157/1/2 158/1/2 159/1/2
f 159/1/2 158/1/2 160/1/2
f 161/1/2 162/1/2 163/1/2
f 163/1/2 162/1/2 164/1/2
f 165/2/2 166/2/2 167/2/2
f 167/2/2 166/2/2 168/2/2
f 169/1/2 170/1/2 171/1/2
f 171/1/2 170/1/2 172/1/2
f 173/1/2 174/1/2 175/1/2
f 175/1/2 174/1/2 176/1/2
f 177/1/2 178/1/2 179/1/2
f 179/1/2 178/1/2 180/1/2
f 181/1/2 182/1/2 183/1/2
f 183/1/2 182/1/2 184/1/2
f 185/1/2 186/1/2 187/1/2
f 187/1/2 186/1/2 188/1/2
f 189/1/2 190/1/2 193/1/2
f 193/1/2 190/1/2 194/1/2
f 191/1/2 192/1/2 197/1/2
f 197/1/2 192/1/2 198/1/2
f 195/1/2 196/1/2 199/1/2
f 199/1/2 196/1/2 200/1/2
f 201/1/2 202/1/2 203/1/2
f 203/1/2 202/1/2 204/1/2
f 205/1/2 206/1/2 207/1/2
f 207/1/2 206/1/2 208/1/2
f 209/1/2 210/1/2 214/1/2
f 214/1/2 210/1/2 215/1/2
f 211/1/2 212/1/2 216/1/2
f 216/1/2 212/1/2 217/1/2
f 213/1/2 214/1/2 220/1/2
f 220/1/2 214/1/2 221/1/2
f 218/1/2 219/1/2 222/1/2
f 222/1/2 219/1/2 223/1/2
f 224/1/2 225/1/2 227/1/2
f 227/1/2 225/1/2 228/1/2
f 228/1/2 225/1/2 229/1/2
f 229/1/2 225/1/2 230/1/2
f 226/1/2 227/1/2 232/1/2
f 227/1/2 228/1/2 232/1/2
f 230/1/2 231/1/2 233/1/2
f 229/1/2 230/1/2 233/1/2
f 233/1/2 231/1/2 234/1/2
f 234/1/2 231/1/2 235/1/2
f 232/1/2 233/1/2 236/1/2
f 233/1/2 234/1/2 236/1/2
f 235/1/2 231/1/2 237/1/2
f 226/1/2 232/1/2 238/1/2
f 236/1/2 237/1/2 238/1/2
f 232/1/2 236/1/2 238/1/2
f 238/1/2 237/1/2 239/1/2
f 226/1/2 238/1/2 240/1/2
f 239/1/2 237/1/2 241/1/2
f 226/1/2 240/1/2 242/1/2
f 240/1/2 241/1/2 242/1/2
f 242/1/2 241/1/2 243/1/2
f 241/1/2 237/1/2 244/1/2
f 243/1/2 241/1/2 244/1/2
f 244/1/2 237/1/2 245/1/2
f 226/1/2 242/1/2 246/1/2
f 246/1/2 242/1/2 247/1/2
f 243/1/2 244/1/2 248/1/2
f 248/1/2 244/1/2 249/1/2
f 245/1/2 237/1/2 250/1/2
f 237/1/2 231/1/2 251/1/2
f 250/1/2 237/1/2 251/1/2
f 251/1/2 231/1/2 252/1/2
f 249/1/2 250/1/2 253/1/2
f 248/1/2 249/1/2 253/1/2
f 250/1/2 251/1/2 253/1/2
f 247/1/2 248/1/2 253/1/2
f 253/1/2 251/1/2 254/1/2
f 258/1/3 256/1/3 255/1/3
f 259/1/3 256/1/3 258/1/3
f 260/1/3 256/1/3 259/1/3
f 261/1/3 256/1/3 260/1/3
f 263/1/3 258/1/3 257/1/3
f 263/1/3 259/1/3 258/1/3
f 264/1/3 262/1/3 261/1/3
f 264/1/3 261/1/3 260/1/3
f 265/1/3 262/1/3 264/1/3
f 266/1/3 262/1/3 265/1/3
f 267/1/3 263/1/3 257/1/3
f 267/1/3 264/1/3 263/1/3
f 267/1/3 265/1/3 264/1/3
f 268/1/3 265/1/3 267/1/3
f 269/1/3 265/1/3 268/1/3
f 271/1/3 267/1/3 257/1/3
f 272/1/3 270/1/3 269/1/3
f 272/1/3 269/1/3 268/1/3
f 273/1/3 270/1/3 272/1/3
f 274/1/3 270/1/3 273/1/3
f 275/1/3 272/1/3 271/1/3
f 275/1/3 273/1/3 272/1/3
f 276/1/3 270/1/3 274/1/3
f 277/1/3 275/1/3 271/1/3
f 277/1/3 276/1/3 275/1/3
f 278/1/3 276/1/3 277/1/3
f 279/1/3 271/1/3 257/1/3
f 279/1/3 277/1/3 271/1/3
f 280/1/3 277/1/3 279/1/3
f 281/1/3 277/1/3 280/1/3
f 282/1/3 276/1/3 278/1/3
f 283/1/3 270/1/3 276/1/3
f 283/1/3 276/1/3 282/1/3
f 284/1/3 270/1/3 283/1/3
f 285/1/3 281/1/3 280/1/3
f 285/1/3 282/1/3 281/1/3
f 285/1/3 283/1/3 282/1/3
f 286/1/3 283/1/3 285/1/3
f 291/1/3 288/1/3 287/1/3
f 292/1/3 288/1/3 291/1/3
f 295/1/3 290/1/3 289/1/3
f 296/1/3 290/1/3 295/1/3
f 297/1/3 294/1/3 293/1/3
f 298/1/3 294/1/3 297/1/3
f 303/1/3 300/1/3 299/1/3
f 304/1/3 300/1/3 303/1/3
f 305/1/3 302/1/3 301/1/3
f 306/1/3 302/1/3 305/1/3
f 309/1/3 308/1/3 307/1/3
f 310/1/3 308/1/3 309/1/3
f 315/1/3 312/1/3 311/1/3
f 316/1/3 312/1/3 315/1/3
f 319/1/3 314/1/3 313/1/3
f 320/1/3 314/1/3 319/1/3
f 321/1/3 318/1/3 317/1/3
f 322/1/3 318/1/3 321/1/3
f 325/1/3 324/1/3 323/1/3
f 326/1/3 324/1/3 325/1/3
f 329/1/3 328/1/3 327/1/3
f 330/1/3 328/1/3 329/1/3
f 335/1/3 332/1/3 331/1/3
f 336/1/3 332/1/3 335/1/3
f 337/1/3 334/1/3 333/1/3
f 338/1/3 334/1/3 337/1/3
f 343/1/3 340/1/3 339/1/3
f 344/1/3 340/1/3 343/1/3
f 345/2/3 342/2/3 341/2/3
f 346/2/3 342/2/3 345/2/3
f 349/1/3 348/1/3 347/1/3
f 350/1/3 348/1/3 349/1/3
f 355/1/3 352/1/3 351/1/3
f 356/1/3 352/1/3 355/1/3
f 357/1/3 354/1/3 353/1/3
f 358/1/3 354/1/3 357/1/3
f 363/1/3 360/1/3 359/1/3
f 364/1/3 360/1/3 363/1/3
f 365/1/3 362/1/3 361/1/3
f 366/1/3 362/1/3 365/1/3
f 369/1/3 368/1/3 367/1/3
f 370/1/3 368/1/3 369/1/3
f 373/1/3 372/1/3 371/1/3
f 374/1/3 372/1/3 373/1/3
f 377/1/3 376/1/3 375/1/3
f 378/1/3 376/1/3 377/1/3
f 381/1/3 380/1/3 379/1/3
f 382/1/3 380/1/3 381/1/3
f 383/1/4 384/1/4 385/1/4
f 385/1/4 384/1/4 386/1/4
f 387/1/4 388/1/4 389/1/4
f 389/1/4 388/1/4 390/1/4
f 391/1/4 392/1/4 395/1/4
f 395/1/4 392/1/4 396/1/4
f 393/1/4 394/1/4 397/1/4
f 397/1/4 394/1/4 398/1/4
f 399/1/4 400/1/4 401/1/4
f 401/1/4 400/1/4 402/1/4
f 403/1/4 404/1/4 405/1/4
f 405/1/4 404/1/4 406/1/4
f 407/1/4 408/1/4 411/1/4
f 411/1/4 408/1/4 412/1/4
f 409/1/4 410/1/4 413/1/4
f 413/1/4 410/1/4 414/1/4
f 415/1/4 416/1/4 419/1/4
f 419/1/4 416/1/4 420/1/4
f 417/1/4 418/1/4 421/1/4
f 421/1/4 418/1/4 422/1/4
f 425/1/4 426/1/4 427/1/4
f 427/1/4 426/1/4 428/1/4
f 423/2/4 424/2/4 429/2/4
f 429/2/4 424/2/4 430/2/4
f 431/1/4 432/1/4 433/1/4
f 433/1/4 432/1/4 434/1/4
f 435/1/4 436/1/4 437/1/4
f 437/1/4 436/1/4 438/1/4
f 439/1/4 440/1/4 441/1/4
f 441/1/4 440/1/4 442/1/4
f 443/1/4 444/1/4 447/1/4
f 447/1/4 444/1/4 448/1/4
f 445/1/4 446/1/4 449/1/4
f 449/1/4 446/1/4 450/1/4
f 451/1/4 452/1/4 455/1/4
f 455/1/4 452/1/4 456/1/4
f 453/1/4 454/1/4 457/1/4
f 457/1/4 454/1/4 458/1/4
f 459/1/4 460/1/4 463/1/4
f 463/1/4 460/1/4 464/1/4
f 461/1/4 462/1/4 465/1/4
f 465/1/4 462/1/4 466/1/4
f 467/1/4 468/1/4 471/1/4
f 471/1/4 468/1/4 472/1/4
f 469/1/4 470/1/4 475/1/4
f 475/1/4 470/1/4 476/1/4
f 473/1/4 474/1/4 477/1/4
f 477/1/4 474/1/4 478/1/4
f 479/1/4 480/1/4 482/1/4
f 482/1/4 480/1/4 483/1/4
f 481/1/4 482/1/4 485/1/4
f 483/1/4 484/1/4 485/1/4
f 482/1/4 483/1/4 485/1/4
f 485/1/4 484/1/4 486/1/4
f 481/1/4 485/1/4 487/1/4
f 487/1/4 485/1/4 488/1/4
f 488/1/4 485/1/4 489/1/4
f 486/1/4 484/1/4 490/1/4
f 481/1/4 487/1/4 491/1/4
f 488/1/4 489/1/4 492/1/4
f 489/1/4 490/1/4 492/1/4
f 490/1/4 484/1/4 493/1/4
f 492/1/4 490/1/4 493/1/4
f 493/1/4 484/1/4 494/1/4
f 491/1/4 492/1/4 495/1/4
f 492/1/4 493/1/4 495/1/4
f 495/1/4 493/1/4 496/1/4
f 496/1/4 493/1/4 497/1/4
f 491/1/4 495/1/4 499/1/4
f 497/1/4 498/1/4 500/1/4
f 496/1/4 497/1/4 500/1/4
f 500/1/4 498/1/4 501/1/4
f 501/1/4 498/1/4 502/1/4
f 481/1/4 491/1/4 503/1/4
f 491/1/4 499/1/4 503/1/4
f 500/1/4 501/1/4 503/1/4
f 499/1/4 500/1/4 503/1/4
f 503/1/4 501/1/4 504/1/4
f 504/1/4 501/1/4 505/1/4
f 502/1/4 498/1/4 506/1/4
f 506/1/4 498/1/4 507/1/4
f 507/1/4 498/1/4 508/1/4
f 504/1/4 505/1/4 509/1/4
f 506/1/4 507/1/4 509/1/4
f 505/1/4 506/1/4 509/1/4
f 509/1/4 507/1/4 510/1/4
f 513/2/5 512/2/5 511/2/5
f 514/2/5 512/2/5 513/2/5
f 518/1/5 516/1/5 515/1/5
f 519/1/5 516/1/5 518/1/5
f 521/1/5 518/1/5 517/1/5
f 521/1/5 520/1/5 519/1/5
f 521/1/5 519/1/5 518/1/5
f 522/1/5 520/1/5 521/1/5
f 523/1/5 521/1/5 517/1/5
f 524/1/5 520/1/5 522/1/5
f 525/1/5 523/1/5 517/1/5
f 525/1/5 524/1/5 523/1/5
f 526/1/5 524/1/5 525/1/5
f 527/1/5 520/1/5 524/1/5
f 527/1/5 524/1/5 526/1/5
f 528/1/5 520/1/5 527/1/5
f 529/1/5 527/1/5 526/1/5
f 530/1/5 527/1/5 529/1/5
f 535/1/5 532/1/5 531/1/5
f 536/1/5 532/1/5 535/1/5
f 537/1/5 534/1/5 533/1/5
f 538/1/5 534/1/5 537/1/5
f 543/1/5 540/1/5 539/1/5
f 544/1/5 540/1/5 543/1/5
f 545/1/5 542/1/5 541/1/5
f 546/1/5 542/1/5 545/1/5
f 549/1/5 548/1/5 547/1/5
f 550/1/5 548/1/5 549/1/5
f 553/1/5 552/1/5 551/1/5
f 554/1/5 552/1/5 553/1/5
f 557/1/5 556/1/5 555/1/5
f 558/1/5 556/1/5 557/1/5
f 561/1/5 560/1/5 559/1/5
f 562/1/5 560/1/5 561/1/5
f 567/1/5 564/1/5 563/1/5
f 568/1/5 564/1/5 567/1/5
f 569/1/5 566/1/5 565/1/5
f 570/1/5 566/1/5 569/1/5
f 573/1/5 572/1/5 571/1/5
f 574/1/5 572/1/5 573/1/5
f 577/1/5 576/1/5 575/1/5
f 578/1/5 576/1/5 577/1/5
f 581/1/5 580/1/5 579/1/5
f 582/1/5 580/1/5 581/1/5
f 585/1/5 584/1/5 583/1/5
f 586/1/5 584/1/5 585/1/5
f 589/1/5 588/1/5 587/1/5
f 590/1/5 588/1/5 589/1/5
f 593/1/5 592/1/5 591/1/5
f 594/1/5 592/1/5 593/1/5
f 597/1/5 596/1/5 595/1/5
f 598/1/5 596/1/5 597/1/5
f 601/1/5 600/1/5 599/1/5
f 602/1/5 600/1/5 601/1/5
f 605/1/5 604/1/5 603/1/5
f 606/1/5 604/1/5 605/1/5
f 609/1/5 608/1/5 607/1/5
f 610/1/5 608/1/5 609/1/5
f 615/1/5 612/1/5 611/1/5
f 616/1/5 612/1/5 615/1/5
f 617/1/5 614/1/5 613/1/5
f 618/1/5 614/1/5 617/1/5
f 619/1/6 620/1/6 621/1/6
f 621/1/6 620/1/6 622/1/6
f 623/1/6 624/1/6 625/1/6
f 625/1/6 624/1/6 626/1/6
f 627/1/6 628/1/6 629/1/6
f 629/1/6 628/1/6 630/1/6
f 631/1/6 632/1/6 633/1/6
f 633/1/6 632/1/6 634/1/6
f 635/1/6 636/1/6 639/1/6
f 639/1/6 636/1/6 640/1/6
f 637/1/6 638/1/6 641/1/6
f 641/1/6 638/1/6 642/1/6
f 643/1/6 644/1/6 645/1/6
f 645/1/6 644/1/6 646/1/6
f 647/1/6 648/1/6 649/1/6
f 649/1/6 648/1/6 650/1/6
f 651/1/6 652/1/6 653/1/6
f 653/1/6 652/1/6 654/1/6
f 655/1/6 656/1/6 657/1/6
f 657/1/6 656/1/6 658/1/6
f 659/1/6 660/1/6 661/1/6
f 661/1/6 660/1/6 662/1/6
f 663/1/6 664/1/6 665/1/6
f 665/1/6 664/1/6 666/1/6
f 667/1/6 668/1/6 669/1/6
f 669/1/6 668/1/6 670/1/6
f 671/1/6 672/1/6 673/1/6
f 673/1/6 672/1/6 674/1/6
f 675/1/6 676/1/6 677/1/6
f 677/1/6 676/1/6 678/1/6
f 679/1/6 680/1/6 681/1/6
f 681/1/6 680/1/6 682/1/6
f 683/1/6 684/1/6 687/1/6
f 687/1/6 684/1/6 688/1/6
f 685/1/6 686/1/6 689/1/6
f 689/1/6 686/1/6 690/1/6
f 691/1/6 692/1/6 697/1/6
f 697/1/6 692/1/6 698/1/6
f 693/1/6 694/1/6 699/1/6
f 699/1/6 694/1/6 700/1/6
f 695/1/6 696/1/6 703/1/6
f 703/1/6 696/1/6 704/1/6
f 701/1/6 702/1/6 707/1/6
f 707/1/6 702/1/6 708/1/6
f 705/1/6 706/1/6 709/1/6
f 709/1/6 706/1/6 710/1/6
f 711/1/6 712/1/6 713/1/6
f 713/1/6 712/1/6 714/1/6
f 715/1/6 716/1/6 717/1/6
f 717/1/6 716/1/6 718/1/6
f 719/1/6 720/1/6 725/1/6
f 725/1/6 720/1/6 726/1/6
f 721/1/6 722/1/6 727/1/6
f 727/1/6 722/1/6 728/1/6
f 723/1/6 724/1/6 729/1/6
f 729/1/6 724/1/6 730/1/6
f 731/1/6 732/1/6 736/1/6
f 736/1/6 732/1/6 737/1/6
f 733/1/6 734/1/6 738/1/6
f 738/1/6 734/1/6 739/1/6
f 739/1/6 734/1/6 740/1/6
f 740/1/6 734/1/6 741/1/6
f 736/1/6 737/1/6 743/1/6
f 735/1/6 736/1/6 743/1/6
f 737/1/6 738/1/6 743/1/6
f 738/1/6 739/1/6 743/1/6
f 743/1/6 739/1/6 744/1/6
f 744/1/6 739/1/6 745/1/6
f 741/1/6 742/1/6 746/1/6
f 740/1/6 741/1/6 746/1/6
f 735/1/6 743/1/6 747/1/6
f 744/1/6 745/1/6 748/1/6
f 745/1/6 746/1/6 748/1/6
f 746/1/6 742/1/6 749/1/6
f 748/1/6 746/1/6 749/1/6
f 749/1/6 742/1/6 750/1/6
f 747/1/6 748/1/6 751/1/6
f 748/1/6 749/1/6 751/1/6
f 750/1/6 742/1/6 752/1/6
f 747/1/6 751/1/6 753/1/6
f 751/1/6 752/1/6 753/1/6
f 753/1/6 752/1/6 754/1/6
f 747/1/6 753/1/6 755/1/6
f 754/1/6 752/1/6 756/1/6
f 735/1/6 747/1/6 757/1/6
f 755/1/6 756/1/6 757/1/6
f 747/1/6 755/1/6 757/1/6
f 757/1/6 756/1/6 758/1/6
f 756/1/6 752/1/6 759/1/6
f 758/1/6 756/1/6 759/1/6
f 759/1/6 752/1/6 760/1/6
f 752/1/6 742/1/6 761/1/6
f 760/1/6 752/1/6 761/1/6
f 761/1/6 742/1/6 762/1/6
f 758/1/6 759/1/6 763/1/6
f 763/1/6 759/1/6 764/1/6
f 760/1/6 761/1/6 765/1/6
f 765/1/6 761/1/6 766/1/6
