# MagicaVoxel @ Ephtracy

# material
mtllib obj_curb2.mtl
usemtl palette

# normals
vn -1 0 0
vn 1 0 0
vn 0 0 1
vn 0 0 -1
vn 0 -1 0
vn 0 1 0

# texcoords
vt 0.767578 0.5
vt 0.794922 0.5
vt 0.974609 0.5
vt 0.978516 0.5

# verts
v -8 0 6
v -8 0 5
v -8 0 -8
v -8 1 6
v -8 1 5
v -8 1 -8
v -6 1 -2
v -6 1 -3
v -6 2 -2
v -6 2 -3
v -5 1 4
v -5 1 3
v -5 2 4
v -5 2 3
v -2 1 -3
v -2 1 -4
v -2 2 -3
v -2 2 -4
v 2 1 -0
v 2 1 -1
v 2 2 -0
v 2 2 -1
v 5 1 3
v 5 1 2
v 5 1 -3
v 5 1 -4
v 5 2 3
v 5 2 2
v 5 2 -3
v 5 2 -4
v -5 1 -2
v -5 1 -3
v -5 2 -2
v -5 2 -3
v -4 1 4
v -4 1 3
v -4 2 4
v -4 2 3
v -1 1 -3
v -1 1 -4
v -1 2 -3
v -1 2 -4
v 3 1 -0
v 3 1 -1
v 3 2 -0
v 3 2 -1
v 6 1 3
v 6 1 2
v 6 1 -3
v 6 1 -4
v 6 2 3
v 6 2 2
v 6 2 -3
v 6 2 -4
v 8 0 6
v 8 0 5
v 8 0 3
v 8 0 -4
v 8 0 -8
v 8 1 6
v 8 1 5
v 8 1 3
v 8 1 -4
v 8 1 -8
v -8 0 6
v -8 1 6
v -6 0 6
v -6 1 6
v -1 0 6
v -1 1 6
v 3 0 6
v 3 1 6
v 4 0 6
v 4 1 6
v 5 0 6
v 5 1 6
v 6 0 6
v 6 1 6
v 8 0 6
v 8 1 6
v -5 1 4
v -5 2 4
v -4 1 4
v -4 2 4
v 5 1 3
v 5 2 3
v 6 1 3
v 6 2 3
v 2 1 -0
v 2 2 -0
v 3 1 -0
v 3 2 -0
v -6 1 -2
v -6 2 -2
v -5 1 -2
v -5 2 -2
v -2 1 -3
v -2 2 -3
v -1 1 -3
v -1 2 -3
v 5 1 -3
v 5 2 -3
v 6 1 -3
v 6 2 -3
v -5 1 3
v -5 2 3
v -4 1 3
v -4 2 3
v 5 1 2
v 5 2 2
v 6 1 2
v 6 2 2
v 2 1 -1
v 2 2 -1
v 3 1 -1
v 3 2 -1
v -6 1 -3
v -6 2 -3
v -5 1 -3
v -5 2 -3
v -2 1 -4
v -2 2 -4
v -1 1 -4
v -1 2 -4
v 5 1 -4
v 5 2 -4
v 6 1 -4
v 6 2 -4
v -8 0 -8
v -8 1 -8
v 8 0 -8
v 8 1 -8
v -8 0 6
v -6 0 6
v -1 0 6
v 3 0 6
v 4 0 6
v 5 0 6
v 6 0 6
v 8 0 6
v -8 0 5
v -6 0 5
v -1 0 5
v 3 0 5
v 4 0 5
v 5 0 5
v 6 0 5
v 8 0 5
v 1 0 4
v 3 0 4
v -7 0 3
v -5 0 3
v 0 0 3
v 1 0 3
v 6 0 3
v 8 0 3
v -6 0 2
v -5 0 2
v -1 0 2
v 0 0 2
v 5 0 2
v 6 0 2
v -7 0 1
v -6 0 1
v -2 0 1
v -1 0 1
v -7 0 -1
v -5 0 -1
v -2 0 -3
v 1 0 -3
v 7 0 -4
v 8 0 -4
v 6 0 -5
v 7 0 -5
v -7 0 -6
v -5 0 -6
v 1 0 -6
v 6 0 -6
v -8 0 -8
v 8 0 -8
v -8 1 6
v -6 1 6
v -1 1 6
v 3 1 6
v 4 1 6
v 5 1 6
v 6 1 6
v 8 1 6
v -8 1 5
v -6 1 5
v -1 1 5
v 3 1 5
v 4 1 5
v 5 1 5
v 6 1 5
v 8 1 5
v -5 1 4
v -4 1 4
v 1 1 4
v 3 1 4
v -7 1 3
v -5 1 3
v -4 1 3
v 0 1 3
v 1 1 3
v 5 1 3
v 6 1 3
v 8 1 3
v -6 1 2
v -5 1 2
v -1 1 2
v 0 1 2
v 5 1 2
v 6 1 2
v -7 1 1
v -6 1 1
v -2 1 1
v -1 1 1
v 2 1 -0
v 3 1 -0
v -7 1 -1
v -5 1 -1
v 2 1 -1
v 3 1 -1
v -6 1 -2
v -5 1 -2
v -6 1 -3
v -5 1 -3
v -2 1 -3
v -1 1 -3
v 1 1 -3
v 5 1 -3
v 6 1 -3
v -2 1 -4
v -1 1 -4
v 5 1 -4
v 6 1 -4
v 7 1 -4
v 8 1 -4
v 6 1 -5
v 7 1 -5
v -7 1 -6
v -5 1 -6
v 1 1 -6
v 6 1 -6
v -8 1 -8
v 8 1 -8
v -5 2 4
v -4 2 4
v -5 2 3
v -4 2 3
v 5 2 3
v 6 2 3
v 5 2 2
v 6 2 2
v 2 2 -0
v 3 2 -0
v 2 2 -1
v 3 2 -1
v -6 2 -2
v -5 2 -2
v -6 2 -3
v -5 2 -3
v -2 2 -3
v -1 2 -3
v 5 2 -3
v 6 2 -3
v -2 2 -4
v -1 2 -4
v 5 2 -4
v 6 2 -4

# faces
f 4/4/1 2/4/1 1/4/1
f 5/1/1 3/1/1 2/1/1
f 5/4/1 2/4/1 4/4/1
f 6/1/1 3/1/1 5/1/1
f 9/2/1 8/2/1 7/2/1
f 10/2/1 8/2/1 9/2/1
f 13/2/1 12/2/1 11/2/1
f 14/2/1 12/2/1 13/2/1
f 17/1/1 16/1/1 15/1/1
f 18/1/1 16/1/1 17/1/1
f 21/2/1 20/2/1 19/2/1
f 22/2/1 20/2/1 21/2/1
f 27/2/1 24/2/1 23/2/1
f 28/2/1 24/2/1 27/2/1
f 29/2/1 26/2/1 25/2/1
f 30/2/1 26/2/1 29/2/1
f 31/2/2 32/2/2 33/2/2
f 33/2/2 32/2/2 34/2/2
f 35/2/2 36/2/2 37/2/2
f 37/2/2 36/2/2 38/2/2
f 39/1/2 40/1/2 41/1/2
f 41/1/2 40/1/2 42/1/2
f 43/2/2 44/2/2 45/2/2
f 45/2/2 44/2/2 46/2/2
f 47/2/2 48/2/2 51/2/2
f 51/2/2 48/2/2 52/2/2
f 49/2/2 50/2/2 53/2/2
f 53/2/2 50/2/2 54/2/2
f 55/4/2 56/4/2 60/4/2
f 56/1/2 57/1/2 61/1/2
f 60/4/2 56/4/2 61/4/2
f 57/2/2 58/2/2 62/2/2
f 61/1/2 57/1/2 62/1/2
f 58/1/2 59/1/2 63/1/2
f 62/2/2 58/2/2 63/2/2
f 63/1/2 59/1/2 64/1/2
f 67/4/3 66/4/3 65/4/3
f 68/4/3 66/4/3 67/4/3
f 69/3/3 68/3/3 67/3/3
f 70/3/3 68/3/3 69/3/3
f 71/4/3 70/4/3 69/4/3
f 72/4/3 70/4/3 71/4/3
f 73/3/3 72/3/3 71/3/3
f 74/3/3 72/3/3 73/3/3
f 75/4/3 74/4/3 73/4/3
f 76/4/3 74/4/3 75/4/3
f 77/3/3 76/3/3 75/3/3
f 78/3/3 76/3/3 77/3/3
f 79/4/3 78/4/3 77/4/3
f 80/4/3 78/4/3 79/4/3
f 83/2/3 82/2/3 81/2/3
f 84/2/3 82/2/3 83/2/3
f 87/2/3 86/2/3 85/2/3
f 88/2/3 86/2/3 87/2/3
f 91/2/3 90/2/3 89/2/3
f 92/2/3 90/2/3 91/2/3
f 95/2/3 94/2/3 93/2/3
f 96/2/3 94/2/3 95/2/3
f 99/1/3 98/1/3 97/1/3
f 100/1/3 98/1/3 99/1/3
f 103/2/3 102/2/3 101/2/3
f 104/2/3 102/2/3 103/2/3
f 105/2/4 106/2/4 107/2/4
f 107/2/4 106/2/4 108/2/4
f 109/2/4 110/2/4 111/2/4
f 111/2/4 110/2/4 112/2/4
f 113/2/4 114/2/4 115/2/4
f 115/2/4 114/2/4 116/2/4
f 117/2/4 118/2/4 119/2/4
f 119/2/4 118/2/4 120/2/4
f 121/1/4 122/1/4 123/1/4
f 123/1/4 122/1/4 124/1/4
f 125/2/4 126/2/4 127/2/4
f 127/2/4 126/2/4 128/2/4
f 129/1/4 130/1/4 131/1/4
f 131/1/4 130/1/4 132/1/4
f 141/4/5 134/4/5 133/4/5
f 142/3/5 135/3/5 134/3/5
f 142/4/5 134/4/5 141/4/5
f 143/4/5 136/4/5 135/4/5
f 143/3/5 135/3/5 142/3/5
f 144/3/5 137/3/5 136/3/5
f 144/4/5 136/4/5 143/4/5
f 145/4/5 138/4/5 137/4/5
f 145/3/5 137/3/5 144/3/5
f 146/3/5 139/3/5 138/3/5
f 146/4/5 138/4/5 145/4/5
f 147/4/5 140/4/5 139/4/5
f 147/3/5 139/3/5 146/3/5
f 148/4/5 140/4/5 147/4/5
f 149/1/5 142/1/5 141/1/5
f 149/1/5 143/1/5 142/1/5
f 149/1/5 144/1/5 143/1/5
f 150/2/5 146/2/5 145/2/5
f 150/1/5 144/1/5 149/1/5
f 150/2/5 145/2/5 144/2/5
f 151/1/5 149/1/5 141/1/5
f 152/1/5 149/1/5 151/1/5
f 153/1/5 149/1/5 152/1/5
f 154/2/5 150/2/5 149/2/5
f 154/1/5 149/1/5 153/1/5
f 155/1/5 148/1/5 147/1/5
f 155/1/5 147/1/5 146/1/5
f 156/1/5 148/1/5 155/1/5
f 157/2/5 152/2/5 151/2/5
f 158/1/5 153/1/5 152/1/5
f 158/2/5 152/2/5 157/2/5
f 159/1/5 153/1/5 158/1/5
f 160/2/5 154/2/5 153/2/5
f 160/1/5 153/1/5 159/1/5
f 161/2/5 146/2/5 150/2/5
f 161/2/5 154/2/5 160/2/5
f 161/2/5 150/2/5 154/2/5
f 161/1/5 155/1/5 146/1/5
f 162/2/5 156/2/5 155/2/5
f 162/1/5 155/1/5 161/1/5
f 163/2/5 157/2/5 151/2/5
f 163/1/5 151/1/5 141/1/5
f 164/1/5 158/1/5 157/1/5
f 164/2/5 157/2/5 163/2/5
f 164/1/5 159/1/5 158/1/5
f 165/1/5 159/1/5 164/1/5
f 166/2/5 160/2/5 159/2/5
f 166/1/5 159/1/5 165/1/5
f 166/2/5 161/2/5 160/2/5
f 166/2/5 162/2/5 161/2/5
f 167/1/5 165/1/5 164/1/5
f 167/1/5 163/1/5 141/1/5
f 167/1/5 164/1/5 163/1/5
f 168/1/5 165/1/5 167/1/5
f 169/2/5 166/2/5 165/2/5
f 169/1/5 165/1/5 168/1/5
f 170/2/5 162/2/5 166/2/5
f 170/2/5 166/2/5 169/2/5
f 171/2/5 156/2/5 162/2/5
f 171/2/5 162/2/5 170/2/5
f 172/2/5 156/2/5 171/2/5
f 173/2/5 171/2/5 170/2/5
f 174/1/5 172/1/5 171/1/5
f 174/2/5 171/2/5 173/2/5
f 175/2/5 168/2/5 167/2/5
f 175/1/5 167/1/5 141/1/5
f 176/1/5 169/1/5 168/1/5
f 176/2/5 168/2/5 175/2/5
f 176/1/5 170/1/5 169/1/5
f 177/2/5 173/2/5 170/2/5
f 177/1/5 170/1/5 176/1/5
f 178/1/5 174/1/5 173/1/5
f 178/2/5 173/2/5 177/2/5
f 179/1/5 175/1/5 141/1/5
f 179/1/5 176/1/5 175/1/5
f 179/1/5 178/1/5 177/1/5
f 179/1/5 177/1/5 176/1/5
f 180/1/5 174/1/5 178/1/5
f 180/1/5 178/1/5 179/1/5
f 180/1/5 172/1/5 174/1/5
f 181/4/6 182/4/6 189/4/6
f 182/3/6 183/3/6 190/3/6
f 189/4/6 182/4/6 190/4/6
f 183/4/6 184/4/6 191/4/6
f 190/3/6 183/3/6 191/3/6
f 184/3/6 185/3/6 192/3/6
f 191/4/6 184/4/6 192/4/6
f 185/4/6 186/4/6 193/4/6
f 192/3/6 185/3/6 193/3/6
f 186/3/6 187/3/6 194/3/6
f 193/4/6 186/4/6 194/4/6
f 187/4/6 188/4/6 195/4/6
f 194/3/6 187/3/6 195/3/6
f 195/4/6 188/4/6 196/4/6
f 189/1/6 190/1/6 197/1/6
f 190/1/6 191/1/6 197/1/6
f 191/1/6 192/1/6 197/1/6
f 197/1/6 192/1/6 198/1/6
f 198/1/6 192/1/6 199/1/6
f 193/2/6 194/2/6 200/2/6
f 199/1/6 192/1/6 200/1/6
f 192/2/6 193/2/6 200/2/6
f 189/1/6 197/1/6 201/1/6
f 201/1/6 197/1/6 202/1/6
f 198/1/6 199/1/6 203/1/6
f 203/1/6 199/1/6 204/1/6
f 199/2/6 200/2/6 205/2/6
f 204/1/6 199/1/6 205/1/6
f 195/1/6 196/1/6 206/1/6
f 205/2/6 200/2/6 206/2/6
f 194/1/6 195/1/6 206/1/6
f 200/2/6 194/2/6 206/2/6
f 206/1/6 196/1/6 207/1/6
f 207/1/6 196/1/6 208/1/6
f 201/2/6 202/2/6 209/2/6
f 202/1/6 203/1/6 210/1/6
f 209/2/6 202/2/6 210/2/6
f 203/1/6 204/1/6 210/1/6
f 210/1/6 204/1/6 211/1/6
f 204/2/6 205/2/6 212/2/6
f 211/1/6 204/1/6 212/1/6
f 205/2/6 206/2/6 212/2/6
f 212/2/6 206/2/6 213/2/6
f 207/2/6 208/2/6 214/2/6
f 201/2/6 209/2/6 215/2/6
f 189/1/6 201/1/6 215/1/6
f 210/1/6 211/1/6 216/1/6
f 215/2/6 209/2/6 216/2/6
f 209/1/6 210/1/6 216/1/6
f 216/1/6 211/1/6 217/1/6
f 213/2/6 214/2/6 218/2/6
f 217/1/6 211/1/6 218/1/6
f 212/2/6 213/2/6 218/2/6
f 211/2/6 212/2/6 218/2/6
f 217/2/6 218/2/6 219/2/6
f 218/2/6 214/2/6 219/2/6
f 219/2/6 214/2/6 220/2/6
f 189/1/6 215/1/6 221/1/6
f 216/1/6 217/1/6 221/1/6
f 215/1/6 216/1/6 221/1/6
f 221/1/6 217/1/6 222/1/6
f 217/2/6 219/2/6 223/2/6
f 220/2/6 214/2/6 224/2/6
f 221/2/6 222/2/6 225/2/6
f 222/1/6 217/1/6 226/1/6
f 225/2/6 222/2/6 226/2/6
f 221/2/6 225/2/6 227/2/6
f 226/1/6 217/1/6 228/1/6
f 217/2/6 223/2/6 229/2/6
f 223/2/6 224/2/6 229/2/6
f 228/1/6 217/1/6 229/1/6
f 229/2/6 224/2/6 230/2/6
f 230/2/6 224/2/6 231/2/6
f 224/2/6 214/2/6 232/2/6
f 231/2/6 224/2/6 232/2/6
f 214/2/6 208/2/6 233/2/6
f 232/2/6 214/2/6 233/2/6
f 228/1/6 229/1/6 234/1/6
f 230/1/6 231/1/6 235/1/6
f 231/2/6 232/2/6 236/2/6
f 233/2/6 208/2/6 237/2/6
f 237/2/6 208/2/6 238/2/6
f 238/2/6 208/2/6 239/2/6
f 236/2/6 237/2/6 240/2/6
f 237/2/6 238/2/6 240/2/6
f 238/1/6 239/1/6 241/1/6
f 240/2/6 238/2/6 241/2/6
f 227/2/6 228/2/6 242/2/6
f 221/2/6 227/2/6 242/2/6
f 189/1/6 221/1/6 242/1/6
f 234/1/6 235/1/6 243/1/6
f 242/2/6 228/2/6 243/2/6
f 228/1/6 234/1/6 243/1/6
f 236/2/6 240/2/6 244/2/6
f 243/1/6 235/1/6 244/1/6
f 231/2/6 236/2/6 244/2/6
f 235/1/6 231/1/6 244/1/6
f 240/1/6 241/1/6 245/1/6
f 244/2/6 240/2/6 245/2/6
f 243/1/6 244/1/6 246/1/6
f 189/1/6 242/1/6 246/1/6
f 244/1/6 245/1/6 246/1/6
f 242/1/6 243/1/6 246/1/6
f 241/1/6 239/1/6 247/1/6
f 246/1/6 245/1/6 247/1/6
f 245/1/6 241/1/6 247/1/6
f 248/2/6 249/2/6 250/2/6
f 250/2/6 249/2/6 251/2/6
f 252/2/6 253/2/6 254/2/6
f 254/2/6 253/2/6 255/2/6
f 256/2/6 257/2/6 258/2/6
f 258/2/6 257/2/6 259/2/6
f 260/2/6 261/2/6 262/2/6
f 262/2/6 261/2/6 263/2/6
f 264/1/6 265/1/6 268/1/6
f 268/1/6 265/1/6 269/1/6
f 266/2/6 267/2/6 270/2/6
f 270/2/6 267/2/6 271/2/6
