# MagicaVoxel @ Ephtracy

# material
mtllib obj_rubbish1.mtl
usemtl palette

# normals
vn -1 0 0
vn 1 0 0
vn 0 0 1
vn 0 0 -1
vn 0 -1 0
vn 0 1 0

# texcoords
vt 0.337891 0.5
vt 0.341797 0.5
vt 0.369141 0.5
vt 0.373047 0.5

# verts
v -2.5 0 3
v -2.5 0 -0
v -2.5 1 3
v -2.5 1 2
v -2.5 2 3
v -2.5 2 2
v -2.5 2 -0
v -1.5 0 -0
v -1.5 0 -1
v -1.5 0 -2
v -1.5 0 -3
v -1.5 1 -0
v -1.5 1 -1
v -1.5 1 -2
v -1.5 1 -3
v 0.5 0 3
v 0.5 0 2
v 0.5 0 -2
v 0.5 0 -3
v 0.5 1 3
v 0.5 1 2
v 0.5 1 -2
v 0.5 1 -3
v 1.5 0 1
v 1.5 0 -0
v 1.5 1 1
v 1.5 1 -0
v -0.5 0 3
v -0.5 0 2
v -0.5 0 -0
v -0.5 0 -1
v -0.5 0 -2
v -0.5 0 -3
v -0.5 1 2
v -0.5 1 1
v -0.5 1 -0
v -0.5 1 -1
v -0.5 1 -2
v -0.5 1 -3
v -0.5 2 3
v -0.5 2 1
v -0.5 2 -0
v 1.5 0 3
v 1.5 0 2
v 1.5 0 -2
v 1.5 0 -3
v 1.5 1 3
v 1.5 1 2
v 1.5 1 -2
v 1.5 1 -3
v 2.5 0 1
v 2.5 0 -0
v 2.5 1 1
v 2.5 1 -0
v -2.5 0 3
v -2.5 1 3
v -2.5 2 3
v -1.5 0 3
v -1.5 1 3
v -0.5 0 3
v -0.5 2 3
v 0.5 0 3
v 0.5 1 3
v 1.5 0 3
v 1.5 1 3
v 1.5 0 1
v 1.5 1 1
v 2.5 0 1
v 2.5 1 1
v -1.5 0 -2
v -1.5 1 -2
v -0.5 0 -2
v -0.5 1 -2
v 0.5 0 -2
v 0.5 1 -2
v 1.5 0 -2
v 1.5 1 -2
v 0.5 0 2
v 0.5 1 2
v 1.5 0 2
v 1.5 1 2
v -2.5 0 -0
v -2.5 2 -0
v -1.5 0 -0
v -1.5 1 -0
v -0.5 1 -0
v -0.5 2 -0
v 1.5 0 -0
v 1.5 1 -0
v 2.5 0 -0
v 2.5 1 -0
v -1.5 0 -1
v -1.5 1 -1
v -0.5 0 -1
v -0.5 1 -1
v -1.5 0 -3
v -1.5 1 -3
v -0.5 0 -3
v -0.5 1 -3
v 0.5 0 -3
v 0.5 1 -3
v 1.5 0 -3
v 1.5 1 -3
v -2.5 0 3
v -1.5 0 3
v -0.5 0 3
v 0.5 0 3
v 1.5 0 3
v -1.5 0 2
v -0.5 0 2
v 0.5 0 2
v 1.5 0 2
v 1.5 0 1
v 2.5 0 1
v -2.5 0 -0
v -1.5 0 -0
v -0.5 0 -0
v 1.5 0 -0
v 2.5 0 -0
v -1.5 0 -1
v -0.5 0 -1
v -1.5 0 -2
v -0.5 0 -2
v 0.5 0 -2
v 1.5 0 -2
v -1.5 0 -3
v -0.5 0 -3
v 0.5 0 -3
v 1.5 0 -3
v 0.5 1 3
v 1.5 1 3
v 0.5 1 2
v 1.5 1 2
v 1.5 1 1
v 2.5 1 1
v -1.5 1 -0
v -0.5 1 -0
v 1.5 1 -0
v 2.5 1 -0
v -1.5 1 -1
v -0.5 1 -1
v -1.5 1 -2
v -0.5 1 -2
v 0.5 1 -2
v 1.5 1 -2
v -1.5 1 -3
v -0.5 1 -3
v 0.5 1 -3
v 1.5 1 -3
v -2.5 2 3
v -0.5 2 3
v -2.5 2 2
v -1.5 2 2
v -1.5 2 1
v -0.5 2 1
v -2.5 2 -0
v -0.5 2 -0

# faces
f 3/4/1 2/4/1 1/4/1
f 4/4/1 2/4/1 3/4/1
f 5/3/1 4/3/1 3/3/1
f 6/4/1 2/4/1 4/4/1
f 6/3/1 4/3/1 5/3/1
f 7/4/1 2/4/1 6/4/1
f 12/1/1 9/1/1 8/1/1
f 13/1/1 9/1/1 12/1/1
f 14/4/1 11/4/1 10/4/1
f 15/4/1 11/4/1 14/4/1
f 20/2/1 17/2/1 16/2/1
f 21/2/1 17/2/1 20/2/1
f 22/2/1 19/2/1 18/2/1
f 23/2/1 19/2/1 22/2/1
f 26/1/1 25/1/1 24/1/1
f 27/1/1 25/1/1 26/1/1
f 28/3/2 29/3/2 34/3/2
f 29/4/2 30/4/2 34/4/2
f 34/4/2 30/4/2 35/4/2
f 30/1/2 31/1/2 36/1/2
f 35/4/2 30/4/2 36/4/2
f 36/1/2 31/1/2 37/1/2
f 32/4/2 33/4/2 38/4/2
f 38/4/2 33/4/2 39/4/2
f 34/3/2 35/3/2 40/3/2
f 28/3/2 34/3/2 40/3/2
f 35/4/2 36/4/2 41/4/2
f 40/3/2 35/3/2 41/3/2
f 41/4/2 36/4/2 42/4/2
f 43/2/2 44/2/2 47/2/2
f 47/2/2 44/2/2 48/2/2
f 45/2/2 46/2/2 49/2/2
f 49/2/2 46/2/2 50/2/2
f 51/1/2 52/1/2 53/1/2
f 53/1/2 52/1/2 54/1/2
f 58/4/3 56/4/3 55/4/3
f 59/3/3 57/3/3 56/3/3
f 59/4/3 56/4/3 58/4/3
f 60/3/3 59/3/3 58/3/3
f 61/3/3 57/3/3 59/3/3
f 61/3/3 59/3/3 60/3/3
f 64/2/3 63/2/3 62/2/3
f 65/2/3 63/2/3 64/2/3
f 68/1/3 67/1/3 66/1/3
f 69/1/3 67/1/3 68/1/3
f 72/4/3 71/4/3 70/4/3
f 73/4/3 71/4/3 72/4/3
f 76/2/3 75/2/3 74/2/3
f 77/2/3 75/2/3 76/2/3
f 78/2/4 79/2/4 80/2/4
f 80/2/4 79/2/4 81/2/4
f 82/4/4 83/4/4 84/4/4
f 84/4/4 83/4/4 85/4/4
f 85/4/4 83/4/4 86/4/4
f 86/4/4 83/4/4 87/4/4
f 88/1/4 89/1/4 90/1/4
f 90/1/4 89/1/4 91/1/4
f 92/1/4 93/1/4 94/1/4
f 94/1/4 93/1/4 95/1/4
f 96/4/4 97/4/4 98/4/4
f 98/4/4 97/4/4 99/4/4
f 100/2/4 101/2/4 102/2/4
f 102/2/4 101/2/4 103/2/4
f 109/4/5 105/4/5 104/4/5
f 109/3/5 106/3/5 105/3/5
f 110/3/5 106/3/5 109/3/5
f 111/2/5 108/2/5 107/2/5
f 112/2/5 108/2/5 111/2/5
f 115/4/5 110/4/5 109/4/5
f 115/4/5 109/4/5 104/4/5
f 116/4/5 110/4/5 115/4/5
f 117/4/5 110/4/5 116/4/5
f 118/1/5 114/1/5 113/1/5
f 119/1/5 114/1/5 118/1/5
f 120/1/5 117/1/5 116/1/5
f 121/1/5 117/1/5 120/1/5
f 126/4/5 123/4/5 122/4/5
f 127/4/5 123/4/5 126/4/5
f 128/2/5 125/2/5 124/2/5
f 129/2/5 125/2/5 128/2/5
f 130/2/6 131/2/6 132/2/6
f 132/2/6 131/2/6 133/2/6
f 134/1/6 135/1/6 138/1/6
f 138/1/6 135/1/6 139/1/6
f 136/1/6 137/1/6 140/1/6
f 140/1/6 137/1/6 141/1/6
f 142/4/6 143/4/6 146/4/6
f 146/4/6 143/4/6 147/4/6
f 144/2/6 145/2/6 148/2/6
f 148/2/6 145/2/6 149/2/6
f 150/3/6 151/3/6 152/3/6
f 152/3/6 151/3/6 153/3/6
f 152/4/6 153/4/6 154/4/6
f 153/3/6 151/3/6 154/3/6
f 154/3/6 151/3/6 155/3/6
f 152/4/6 154/4/6 156/4/6
f 154/4/6 155/4/6 156/4/6
f 156/4/6 155/4/6 157/4/6
