# MagicaVoxel @ Ephtracy

# material
mtllib obj_arcade4.mtl
usemtl palette

# normals
vn -1 0 0
vn 1 0 0
vn 0 0 1
vn 0 0 -1
vn 0 -1 0
vn 0 1 0

# texcoords
vt 0.0175781 0.5
vt 0.0449219 0.5
vt 0.0683594 0.5
vt 0.0917969 0.5
vt 0.966797 0.5
vt 0.978516 0.5
vt 0.982422 0.5
vt 0.986328 0.5

# verts
v -5 0 3.5
v -5 0 -3.5
v -5 6 3.5
v -5 6 0.5
v -5 10 2.5
v -5 10 0.5
v -5 13 2.5
v -5 13 -3.5
v -3 6 2.5
v -3 6 1.5
v -3 7 2.5
v -3 7 1.5
v 0 6 2.5
v 0 6 1.5
v 0 7 2.5
v 0 7 1.5
v 2 6 2.5
v 2 6 1.5
v 2 7 2.5
v 2 7 1.5
v 4 6 0.5
v 4 6 -0.5
v 4 10 0.5
v 4 10 -0.5
v -4 6 0.5
v -4 6 -0.5
v -4 10 0.5
v -4 10 -0.5
v -2 6 2.5
v -2 6 1.5
v -2 7 2.5
v -2 7 1.5
v 1 6 2.5
v 1 6 1.5
v 1 7 2.5
v 1 7 1.5
v 3 6 2.5
v 3 6 1.5
v 3 7 2.5
v 3 7 1.5
v 5 0 3.5
v 5 0 -3.5
v 5 6 3.5
v 5 6 0.5
v 5 10 2.5
v 5 10 0.5
v 5 13 2.5
v 5 13 -3.5
v -5 0 3.5
v -5 6 3.5
v -4 0 3.5
v -4 6 3.5
v -2 1 3.5
v -2 5 3.5
v 2 1 3.5
v 2 5 3.5
v 4 0 3.5
v 4 6 3.5
v 5 0 3.5
v 5 6 3.5
v -5 10 2.5
v -5 13 2.5
v -4 10 2.5
v -4 13 2.5
v -3 6 2.5
v -3 7 2.5
v -2 6 2.5
v -2 7 2.5
v 0 6 2.5
v 0 7 2.5
v 1 6 2.5
v 1 7 2.5
v 2 6 2.5
v 2 7 2.5
v 3 6 2.5
v 3 7 2.5
v 4 10 2.5
v 4 13 2.5
v 5 10 2.5
v 5 13 2.5
v -5 6 0.5
v -5 10 0.5
v -4 6 0.5
v -4 10 0.5
v 4 6 0.5
v 4 10 0.5
v 5 6 0.5
v 5 10 0.5
v -4 6 -0.5
v -4 10 -0.5
v -3 6 -0.5
v -3 10 -0.5
v 3 6 -0.5
v 3 10 -0.5
v 4 6 -0.5
v 4 10 -0.5
v -3 6 1.5
v -3 7 1.5
v -2 6 1.5
v -2 7 1.5
v 0 6 1.5
v 0 7 1.5
v 1 6 1.5
v 1 7 1.5
v 2 6 1.5
v 2 7 1.5
v 3 6 1.5
v 3 7 1.5
v -5 0 -3.5
v -5 13 -3.5
v -4 0 -3.5
v -4 13 -3.5
v 4 0 -3.5
v 4 13 -3.5
v 5 0 -3.5
v 5 13 -3.5
v -5 0 3.5
v -4 0 3.5
v 4 0 3.5
v 5 0 3.5
v -4 0 2.5
v 4 0 2.5
v -4 0 -2.5
v 4 0 -2.5
v -5 0 -3.5
v -4 0 -3.5
v 4 0 -3.5
v 5 0 -3.5
v -5 10 2.5
v -4 10 2.5
v 4 10 2.5
v 5 10 2.5
v -4 10 1.5
v 4 10 1.5
v -5 10 0.5
v -4 10 0.5
v 4 10 0.5
v 5 10 0.5
v -4 10 -0.5
v -3 10 -0.5
v 3 10 -0.5
v 4 10 -0.5
v -5 6 3.5
v -4 6 3.5
v 4 6 3.5
v 5 6 3.5
v -3 6 2.5
v -2 6 2.5
v 0 6 2.5
v 1 6 2.5
v 2 6 2.5
v 3 6 2.5
v -3 6 1.5
v -2 6 1.5
v 0 6 1.5
v 1 6 1.5
v 2 6 1.5
v 3 6 1.5
v -5 6 0.5
v -4 6 0.5
v 4 6 0.5
v 5 6 0.5
v -4 6 -0.5
v -3 6 -0.5
v 3 6 -0.5
v 4 6 -0.5
v -3 7 2.5
v -2 7 2.5
v 0 7 2.5
v 1 7 2.5
v 2 7 2.5
v 3 7 2.5
v -3 7 1.5
v -2 7 1.5
v 0 7 1.5
v 1 7 1.5
v 2 7 1.5
v 3 7 1.5
v -5 13 2.5
v -4 13 2.5
v 4 13 2.5
v 5 13 2.5
v -4 13 1.5
v 4 13 1.5
v -5 13 -3.5
v -4 13 -3.5
v 4 13 -3.5
v 5 13 -3.5

# faces
f 3/2/1 2/2/1 1/2/1
f 4/2/1 2/2/1 3/2/1
f 6/2/1 2/2/1 4/2/1
f 7/2/1 6/2/1 5/2/1
f 8/2/1 2/2/1 6/2/1
f 8/2/1 6/2/1 7/2/1
f 11/4/1 10/4/1 9/4/1
f 12/4/1 10/4/1 11/4/1
f 15/3/1 14/3/1 13/3/1
f 16/3/1 14/3/1 15/3/1
f 19/3/1 18/3/1 17/3/1
f 20/3/1 18/3/1 19/3/1
f 23/2/1 22/2/1 21/2/1
f 24/2/1 22/2/1 23/2/1
f 25/2/2 26/2/2 27/2/2
f 27/2/2 26/2/2 28/2/2
f 29/4/2 30/4/2 31/4/2
f 31/4/2 30/4/2 32/4/2
f 33/3/2 34/3/2 35/3/2
f 35/3/2 34/3/2 36/3/2
f 37/3/2 38/3/2 39/3/2
f 39/3/2 38/3/2 40/3/2
f 41/2/2 42/2/2 43/2/2
f 43/2/2 42/2/2 44/2/2
f 44/2/2 42/2/2 46/2/2
f 45/2/2 46/2/2 47/2/2
f 46/2/2 42/2/2 48/2/2
f 47/2/2 46/2/2 48/2/2
f 51/2/3 50/2/3 49/2/3
f 52/2/3 50/2/3 51/2/3
f 53/1/3 52/1/3 51/1/3
f 54/1/3 52/1/3 53/1/3
f 55/1/3 53/1/3 51/1/3
f 55/8/3 54/8/3 53/8/3
f 56/1/3 52/1/3 54/1/3
f 56/8/3 54/8/3 55/8/3
f 57/1/3 55/1/3 51/1/3
f 57/1/3 56/1/3 55/1/3
f 58/1/3 52/1/3 56/1/3
f 58/1/3 56/1/3 57/1/3
f 59/2/3 58/2/3 57/2/3
f 60/2/3 58/2/3 59/2/3
f 63/2/3 62/2/3 61/2/3
f 64/2/3 62/2/3 63/2/3
f 67/4/3 66/4/3 65/4/3
f 68/4/3 66/4/3 67/4/3
f 71/3/3 70/3/3 69/3/3
f 72/3/3 70/3/3 71/3/3
f 75/3/3 74/3/3 73/3/3
f 76/3/3 74/3/3 75/3/3
f 77/1/3 64/1/3 63/1/3
f 78/1/3 64/1/3 77/1/3
f 79/2/3 78/2/3 77/2/3
f 80/2/3 78/2/3 79/2/3
f 83/2/3 82/2/3 81/2/3
f 84/2/3 82/2/3 83/2/3
f 87/2/3 86/2/3 85/2/3
f 88/2/3 86/2/3 87/2/3
f 91/6/3 90/6/3 89/6/3
f 92/6/3 90/6/3 91/6/3
f 93/8/3 92/8/3 91/8/3
f 94/8/3 92/8/3 93/8/3
f 95/6/3 94/6/3 93/6/3
f 96/6/3 94/6/3 95/6/3
f 97/4/4 98/4/4 99/4/4
f 99/4/4 98/4/4 100/4/4
f 101/3/4 102/3/4 103/3/4
f 103/3/4 102/3/4 104/3/4
f 105/3/4 106/3/4 107/3/4
f 107/3/4 106/3/4 108/3/4
f 109/2/4 110/2/4 111/2/4
f 111/2/4 110/2/4 112/2/4
f 111/7/4 112/7/4 113/7/4
f 113/7/4 112/7/4 114/7/4
f 113/2/4 114/2/4 115/2/4
f 115/2/4 114/2/4 116/2/4
f 121/2/5 118/2/5 117/2/5
f 121/1/5 119/1/5 118/1/5
f 122/2/5 120/2/5 119/2/5
f 122/1/5 119/1/5 121/1/5
f 123/2/5 121/2/5 117/2/5
f 123/5/5 122/5/5 121/5/5
f 124/2/5 120/2/5 122/2/5
f 124/5/5 122/5/5 123/5/5
f 125/2/5 123/2/5 117/2/5
f 126/7/5 124/7/5 123/7/5
f 126/2/5 123/2/5 125/2/5
f 127/2/5 120/2/5 124/2/5
f 127/7/5 124/7/5 126/7/5
f 128/2/5 120/2/5 127/2/5
f 133/2/5 130/2/5 129/2/5
f 133/1/5 131/1/5 130/1/5
f 134/2/5 132/2/5 131/2/5
f 134/1/5 131/1/5 133/1/5
f 135/2/5 133/2/5 129/2/5
f 136/8/5 134/8/5 133/8/5
f 136/2/5 133/2/5 135/2/5
f 137/2/5 132/2/5 134/2/5
f 137/8/5 134/8/5 136/8/5
f 138/2/5 132/2/5 137/2/5
f 139/8/5 137/8/5 136/8/5
f 140/8/5 137/8/5 139/8/5
f 141/8/5 137/8/5 140/8/5
f 142/8/5 137/8/5 141/8/5
f 144/1/6 145/1/6 147/1/6
f 147/1/6 145/1/6 148/1/6
f 148/1/6 145/1/6 149/1/6
f 149/1/6 145/1/6 150/1/6
f 150/1/6 145/1/6 151/1/6
f 151/1/6 145/1/6 152/1/6
f 144/1/6 147/1/6 153/1/6
f 148/1/6 149/1/6 154/1/6
f 154/1/6 149/1/6 155/1/6
f 150/1/6 151/1/6 156/1/6
f 156/1/6 151/1/6 157/1/6
f 152/1/6 145/1/6 158/1/6
f 143/2/6 144/2/6 159/2/6
f 157/1/6 158/1/6 160/1/6
f 159/2/6 144/2/6 160/2/6
f 156/1/6 157/1/6 160/1/6
f 154/1/6 155/1/6 160/1/6
f 144/1/6 153/1/6 160/1/6
f 155/1/6 156/1/6 160/1/6
f 153/1/6 154/1/6 160/1/6
f 145/2/6 146/2/6 161/2/6
f 160/1/6 158/1/6 161/1/6
f 158/1/6 145/1/6 161/1/6
f 161/2/6 146/2/6 162/2/6
f 160/6/6 161/6/6 163/6/6
f 163/6/6 161/6/6 164/6/6
f 164/6/6 161/6/6 165/6/6
f 165/6/6 161/6/6 166/6/6
f 167/4/6 168/4/6 173/4/6
f 173/4/6 168/4/6 174/4/6
f 169/3/6 170/3/6 175/3/6
f 175/3/6 170/3/6 176/3/6
f 171/3/6 172/3/6 177/3/6
f 177/3/6 172/3/6 178/3/6
f 179/2/6 180/2/6 183/2/6
f 180/1/6 181/1/6 183/1/6
f 181/2/6 182/2/6 184/2/6
f 183/1/6 181/1/6 184/1/6
f 179/2/6 183/2/6 185/2/6
f 183/7/6 184/7/6 186/7/6
f 185/2/6 183/2/6 186/2/6
f 184/2/6 182/2/6 187/2/6
f 186/7/6 184/7/6 187/7/6
f 187/2/6 182/2/6 188/2/6
