# MagicaVoxel @ Ephtracy

# material
mtllib obj_tree3.mtl
usemtl palette

# normals
vn -1 0 0
vn 1 0 0
vn 0 0 1
vn 0 0 -1
vn 0 -1 0
vn 0 1 0

# texcoords
vt 0.138672 0.5
vt 0.341797 0.5
vt 0.466797 0.5

# verts
v -5 11 1
v -5 11 -0
v -5 12 1
v -5 12 -0
v -5 12 -2
v -5 12 -3
v -5 13 -2
v -5 13 -3
v -4 6 3
v -4 6 -3
v -4 7 4
v -4 7 3
v -4 7 -1
v -4 7 -2
v -4 7 -3
v -4 7 -4
v -4 8 2
v -4 8 1
v -4 8 -1
v -4 8 -2
v -4 9 2
v -4 9 1
v -4 11 1
v -4 11 -0
v -4 11 -2
v -4 11 -3
v -4 12 2
v -4 12 1
v -4 12 -0
v -4 12 -2
v -4 12 -3
v -4 13 2
v -4 13 1
v -4 13 -1
v -4 13 -2
v -4 13 -3
v -4 14 4
v -4 14 3
v -4 14 -1
v -4 14 -2
v -4 14 -3
v -4 14 -4
v -4 15 3
v -4 15 -3
v -3 6 4
v -3 6 3
v -3 6 -3
v -3 6 -4
v -3 7 4
v -3 7 3
v -3 7 -1
v -3 7 -2
v -3 7 -3
v -3 7 -4
v -3 8 2
v -3 8 1
v -3 8 -1
v -3 8 -2
v -3 9 5
v -3 9 4
v -3 9 2
v -3 9 1
v -3 10 5
v -3 10 4
v -3 11 -2
v -3 11 -3
v -3 12 2
v -3 12 1
v -3 12 -2
v -3 12 -3
v -3 13 2
v -3 13 1
v -3 13 -1
v -3 13 -2
v -3 14 4
v -3 14 3
v -3 14 -1
v -3 14 -2
v -3 14 -3
v -3 14 -4
v -3 15 4
v -3 15 3
v -3 15 -0
v -3 15 -1
v -3 15 -3
v -3 15 -4
v -3 16 -0
v -3 16 -1
v -2 11 4
v -2 11 3
v -2 12 4
v -2 12 3
v -1 0 1
v -1 0 -1
v -1 6 1
v -1 6 -1
v -1 14 4
v -1 14 3
v -1 14 2
v -1 14 1
v -1 15 4
v -1 15 3
v -1 15 2
v -1 15 1
v 0 7 4
v 0 7 3
v 0 8 4
v 0 8 3
v 0 8 -3
v 0 8 -4
v 0 9 -3
v 0 9 -4
v 0 14 -1
v 0 14 -2
v 0 15 -1
v 0 15 -2
v 1 12 4
v 1 12 3
v 1 13 4
v 1 13 3
v 1 14 -3
v 1 14 -4
v 1 15 -3
v 1 15 -4
v 2 8 -4
v 2 8 -5
v 2 9 -3
v 2 9 -4
v 2 9 -5
v 2 10 -3
v 2 10 -4
v 2 11 5
v 2 11 4
v 2 12 5
v 2 12 4
v 2 14 3
v 2 14 2
v 2 15 3
v 2 15 2
v 3 9 4
v 3 9 3
v 3 10 4
v 3 10 3
v 3 12 -3
v 3 12 -4
v 3 13 -3
v 3 13 -4
v 3 14 1
v 3 14 -0
v 3 15 1
v 3 15 -0
v -3 11 4
v -3 11 3
v -3 12 4
v -3 12 3
v -2 9 5
v -2 9 4
v -2 10 5
v -2 10 4
v -2 14 4
v -2 14 3
v -2 14 2
v -2 14 1
v -2 15 4
v -2 15 3
v -2 15 2
v -2 15 1
v -2 15 -0
v -2 15 -1
v -2 16 -0
v -2 16 -1
v -1 7 4
v -1 7 3
v -1 8 4
v -1 8 3
v -1 8 -3
v -1 8 -4
v -1 9 -3
v -1 9 -4
v -1 14 -1
v -1 14 -2
v -1 15 -1
v -1 15 -2
v 0 12 4
v 0 12 3
v 0 13 4
v 0 13 3
v 0 14 -3
v 0 14 -4
v 0 15 -3
v 0 15 -4
v 1 0 1
v 1 0 -1
v 1 6 1
v 1 6 -1
v 1 9 -3
v 1 9 -4
v 1 10 -3
v 1 10 -4
v 1 14 3
v 1 14 2
v 1 15 3
v 1 15 2
v 2 9 4
v 2 9 3
v 2 10 4
v 2 10 3
v 2 12 -3
v 2 12 -4
v 2 13 -3
v 2 13 -4
v 2 14 1
v 2 14 -0
v 2 15 1
v 2 15 -0
v 3 6 4
v 3 6 3
v 3 6 -3
v 3 6 -4
v 3 7 4
v 3 7 3
v 3 7 1
v 3 7 -0
v 3 7 -3
v 3 7 -4
v 3 8 1
v 3 8 -0
v 3 8 -2
v 3 8 -3
v 3 8 -4
v 3 8 -5
v 3 9 -2
v 3 9 -3
v 3 9 -4
v 3 9 -5
v 3 10 2
v 3 10 1
v 3 11 5
v 3 11 4
v 3 11 2
v 3 11 1
v 3 12 5
v 3 12 4
v 3 13 3
v 3 13 2
v 3 13 -1
v 3 13 -2
v 3 14 4
v 3 14 3
v 3 14 2
v 3 14 -1
v 3 14 -2
v 3 14 -3
v 3 14 -4
v 3 15 4
v 3 15 3
v 3 15 -3
v 3 15 -4
v 4 6 3
v 4 6 -3
v 4 7 4
v 4 7 3
v 4 7 1
v 4 7 -0
v 4 7 -3
v 4 7 -4
v 4 8 2
v 4 8 1
v 4 8 -0
v 4 8 -2
v 4 8 -3
v 4 9 2
v 4 9 1
v 4 9 -2
v 4 9 -3
v 4 10 2
v 4 10 1
v 4 11 2
v 4 11 1
v 4 12 -0
v 4 12 -1
v 4 13 3
v 4 13 2
v 4 13 -0
v 4 13 -1
v 4 13 -2
v 4 14 4
v 4 14 3
v 4 14 2
v 4 14 -1
v 4 14 -2
v 4 14 -3
v 4 14 -4
v 4 15 3
v 4 15 -3
v 5 8 2
v 5 8 1
v 5 9 2
v 5 9 1
v 5 12 -0
v 5 12 -1
v 5 13 -0
v 5 13 -1
v -3 9 5
v -3 10 5
v -2 9 5
v -2 10 5
v 2 11 5
v 2 12 5
v 3 11 5
v 3 12 5
v -4 7 4
v -4 14 4
v -3 6 4
v -3 7 4
v -3 9 4
v -3 10 4
v -3 11 4
v -3 12 4
v -3 14 4
v -3 15 4
v -2 9 4
v -2 10 4
v -2 11 4
v -2 12 4
v -2 14 4
v -2 15 4
v -1 7 4
v -1 8 4
v -1 14 4
v -1 15 4
v 0 7 4
v 0 8 4
v 0 12 4
v 0 13 4
v 1 12 4
v 1 13 4
v 2 9 4
v 2 10 4
v 2 11 4
v 2 12 4
v 3 6 4
v 3 7 4
v 3 9 4
v 3 10 4
v 3 11 4
v 3 12 4
v 3 14 4
v 3 15 4
v 4 7 4
v 4 14 4
v -4 6 3
v -4 7 3
v -4 14 3
v -4 15 3
v -3 6 3
v -3 7 3
v -3 11 3
v -3 12 3
v -3 14 3
v -3 15 3
v -2 11 3
v -2 12 3
v -2 14 3
v -2 15 3
v -1 7 3
v -1 8 3
v -1 14 3
v -1 15 3
v 0 7 3
v 0 8 3
v 0 12 3
v 0 13 3
v 1 12 3
v 1 13 3
v 2 9 3
v 2 10 3
v 3 6 3
v 3 7 3
v 3 9 3
v 3 10 3
v 3 14 3
v 3 15 3
v 4 6 3
v 4 7 3
v 4 14 3
v 4 15 3
v 1 14 2
v 1 15 2
v 2 14 2
v 2 15 2
v 3 13 2
v 3 14 2
v 4 8 2
v 4 9 2
v 4 13 2
v 4 14 2
v 5 8 2
v 5 9 2
v -5 11 1
v -5 12 1
v -4 8 1
v -4 9 1
v -4 11 1
v -4 12 1
v -4 13 1
v -3 8 1
v -3 9 1
v -3 12 1
v -3 13 1
v -2 14 1
v -2 15 1
v -1 0 1
v -1 6 1
v -1 14 1
v -1 15 1
v 1 0 1
v 1 6 1
v 3 10 1
v 3 11 1
v 4 10 1
v 4 11 1
v -3 15 -0
v -3 16 -0
v -2 15 -0
v -2 16 -0
v 2 14 -0
v 2 15 -0
v 3 7 -0
v 3 8 -0
v 3 14 -0
v 3 15 -0
v 4 7 -0
v 4 8 -0
v 4 12 -0
v 4 13 -0
v 5 12 -0
v 5 13 -0
v -5 12 -2
v -5 13 -2
v -4 7 -2
v -4 8 -2
v -4 12 -2
v -4 13 -2
v -4 14 -2
v -3 7 -2
v -3 8 -2
v -3 13 -2
v -3 14 -2
v -1 14 -2
v -1 15 -2
v 0 14 -2
v 0 15 -2
v 3 13 -2
v 3 14 -2
v 4 13 -2
v 4 14 -2
v -4 11 -3
v -4 12 -3
v -3 11 -3
v -3 12 -3
v 3 8 -3
v 3 9 -3
v 4 8 -3
v 4 9 -3
v 1 14 3
v 1 15 3
v 2 14 3
v 2 15 3
v 3 13 3
v 3 14 3
v 4 13 3
v 4 14 3
v -4 8 2
v -4 9 2
v -4 12 2
v -4 13 2
v -3 8 2
v -3 9 2
v -3 12 2
v -3 13 2
v -2 14 2
v -2 15 2
v -1 14 2
v -1 15 2
v 3 10 2
v 3 11 2
v 4 10 2
v 4 11 2
v 2 14 1
v 2 15 1
v 3 7 1
v 3 8 1
v 3 14 1
v 3 15 1
v 4 7 1
v 4 8 1
v 4 9 1
v 5 8 1
v 5 9 1
v -5 11 -0
v -5 12 -0
v -4 11 -0
v -4 12 -0
v -4 7 -1
v -4 8 -1
v -4 13 -1
v -4 14 -1
v -3 7 -1
v -3 8 -1
v -3 13 -1
v -3 14 -1
v -3 15 -1
v -3 16 -1
v -2 15 -1
v -2 16 -1
v -1 0 -1
v -1 6 -1
v -1 14 -1
v -1 15 -1
v 0 14 -1
v 0 15 -1
v 1 0 -1
v 1 6 -1
v 3 13 -1
v 3 14 -1
v 4 12 -1
v 4 13 -1
v 4 14 -1
v 5 12 -1
v 5 13 -1
v -4 11 -2
v -4 12 -2
v -3 11 -2
v -3 12 -2
v 3 8 -2
v 3 9 -2
v 4 8 -2
v 4 9 -2
v -5 12 -3
v -5 13 -3
v -4 6 -3
v -4 7 -3
v -4 12 -3
v -4 13 -3
v -4 14 -3
v -4 15 -3
v -3 6 -3
v -3 7 -3
v -3 14 -3
v -3 15 -3
v -1 8 -3
v -1 9 -3
v 0 8 -3
v 0 9 -3
v 0 14 -3
v 0 15 -3
v 1 9 -3
v 1 10 -3
v 1 14 -3
v 1 15 -3
v 2 9 -3
v 2 10 -3
v 2 12 -3
v 2 13 -3
v 3 6 -3
v 3 7 -3
v 3 12 -3
v 3 13 -3
v 3 14 -3
v 3 15 -3
v 4 6 -3
v 4 7 -3
v 4 14 -3
v 4 15 -3
v -4 7 -4
v -4 14 -4
v -3 6 -4
v -3 7 -4
v -3 14 -4
v -3 15 -4
v -2 11 -4
v -2 12 -4
v -1 8 -4
v -1 9 -4
v -1 11 -4
v -1 12 -4
v 0 8 -4
v 0 9 -4
v 0 14 -4
v 0 15 -4
v 1 9 -4
v 1 10 -4
v 1 14 -4
v 1 15 -4
v 2 8 -4
v 2 9 -4
v 2 10 -4
v 2 12 -4
v 2 13 -4
v 3 6 -4
v 3 7 -4
v 3 8 -4
v 3 9 -4
v 3 12 -4
v 3 13 -4
v 3 14 -4
v 3 15 -4
v 4 7 -4
v 4 14 -4
v 2 8 -5
v 2 9 -5
v 3 8 -5
v 3 9 -5
v -1 0 1
v 1 0 1
v -1 0 -1
v 1 0 -1
v -3 6 4
v 3 6 4
v -4 6 3
v -3 6 3
v 3 6 3
v 4 6 3
v -1 6 1
v 1 6 1
v -1 6 -1
v 1 6 -1
v -4 6 -3
v -3 6 -3
v 3 6 -3
v 4 6 -3
v -3 6 -4
v 3 6 -4
v -4 7 4
v -3 7 4
v 3 7 4
v 4 7 4
v -4 7 3
v -3 7 3
v 3 7 3
v 4 7 3
v -4 7 -3
v -3 7 -3
v 3 7 -3
v 4 7 -3
v -4 7 -4
v -3 7 -4
v 3 7 -4
v 4 7 -4
v -1 8 4
v 0 8 4
v -1 8 3
v 0 8 3
v 4 8 2
v 5 8 2
v 3 8 1
v 4 8 1
v 5 8 1
v 3 8 -0
v 4 8 -0
v -4 8 -1
v -3 8 -1
v -4 8 -2
v -3 8 -2
v 2 8 -4
v 3 8 -4
v 2 8 -5
v 3 8 -5
v -3 9 5
v -2 9 5
v -3 9 4
v -2 9 4
v -4 9 2
v -3 9 2
v -4 9 1
v -3 9 1
v 3 9 -2
v 4 9 -2
v -1 9 -3
v 0 9 -3
v 3 9 -3
v 4 9 -3
v -1 9 -4
v 0 9 -4
v 2 10 4
v 3 10 4
v 2 10 3
v 3 10 3
v 1 10 -3
v 2 10 -3
v 1 10 -4
v 2 10 -4
v 2 11 5
v 3 11 5
v 2 11 4
v 3 11 4
v 3 11 2
v 4 11 2
v -5 11 1
v -4 11 1
v 3 11 1
v 4 11 1
v -5 11 -0
v -4 11 -0
v -3 12 4
v -2 12 4
v -3 12 3
v -2 12 3
v 4 12 -0
v 5 12 -0
v 4 12 -1
v 5 12 -1
v -5 12 -2
v -4 12 -2
v -3 12 -2
v -5 12 -3
v -4 12 -3
v -3 12 -3
v 0 13 4
v 1 13 4
v 0 13 3
v 1 13 3
v -4 13 2
v -3 13 2
v -4 13 1
v -3 13 1
v 2 13 -3
v 3 13 -3
v 2 13 -4
v 3 13 -4
v 3 14 3
v 4 14 3
v 3 14 2
v 4 14 2
v -4 14 -1
v -3 14 -1
v 3 14 -1
v 4 14 -1
v -4 14 -2
v -3 14 -2
v 3 14 -2
v 4 14 -2
v -1 7 4
v 0 7 4
v -1 7 3
v 0 7 3
v 3 7 1
v 4 7 1
v 3 7 -0
v 4 7 -0
v -4 7 -1
v -3 7 -1
v -4 7 -2
v -3 7 -2
v -4 8 2
v -3 8 2
v -4 8 1
v -3 8 1
v 3 8 -2
v 4 8 -2
v -1 8 -3
v 0 8 -3
v 3 8 -3
v 4 8 -3
v -1 8 -4
v 0 8 -4
v 2 9 4
v 3 9 4
v 2 9 3
v 3 9 3
v 4 9 2
v 5 9 2
v 4 9 1
v 5 9 1
v 1 9 -3
v 2 9 -3
v 1 9 -4
v 2 9 -4
v 3 9 -4
v 2 9 -5
v 3 9 -5
v -3 10 5
v -2 10 5
v -3 10 4
v -2 10 4
v 3 10 2
v 4 10 2
v 3 10 1
v 4 10 1
v -3 11 4
v -2 11 4
v -3 11 3
v -2 11 3
v -4 11 -2
v -3 11 -2
v -4 11 -3
v -3 11 -3
v 2 12 5
v 3 12 5
v 0 12 4
v 1 12 4
v 2 12 4
v 3 12 4
v 0 12 3
v 1 12 3
v -4 12 2
v -3 12 2
v -5 12 1
v -4 12 1
v -3 12 1
v -5 12 -0
v -4 12 -0
v 2 12 -3
v 3 12 -3
v 2 12 -4
v 3 12 -4
v 3 13 3
v 4 13 3
v 3 13 2
v 4 13 2
v 4 13 -0
v 5 13 -0
v -4 13 -1
v -3 13 -1
v 3 13 -1
v 4 13 -1
v 5 13 -1
v -5 13 -2
v -4 13 -2
v -3 13 -2
v 3 13 -2
v 4 13 -2
v -5 13 -3
v -4 13 -3
v -4 14 4
v -3 14 4
v -2 14 4
v -1 14 4
v 3 14 4
v 4 14 4
v -4 14 3
v -3 14 3
v -2 14 3
v -1 14 3
v 1 14 3
v 2 14 3
v 3 14 3
v 4 14 3
v -2 14 2
v -1 14 2
v 1 14 2
v 2 14 2
v -2 14 1
v -1 14 1
v 2 14 1
v 3 14 1
v 2 14 -0
v 3 14 -0
v -1 14 -1
v 0 14 -1
v -1 14 -2
v 0 14 -2
v -4 14 -3
v -3 14 -3
v 0 14 -3
v 1 14 -3
v 3 14 -3
v 4 14 -3
v -4 14 -4
v -3 14 -4
v 0 14 -4
v 1 14 -4
v 3 14 -4
v 4 14 -4
v -3 15 4
v -2 15 4
v -1 15 4
v 3 15 4
v -4 15 3
v -3 15 3
v -2 15 3
v -1 15 3
v 1 15 3
v 2 15 3
v 3 15 3
v 4 15 3
v -2 15 2
v -1 15 2
v 1 15 2
v 2 15 2
v -2 15 1
v -1 15 1
v 2 15 1
v 3 15 1
v -3 15 -0
v -2 15 -0
v 2 15 -0
v 3 15 -0
v -3 15 -1
v -2 15 -1
v -1 15 -1
v 0 15 -1
v -1 15 -2
v 0 15 -2
v -4 15 -3
v -3 15 -3
v 0 15 -3
v 1 15 -3
v 3 15 -3
v 4 15 -3
v -3 15 -4
v 0 15 -4
v 1 15 -4
v 3 15 -4
v -3 16 -0
v -2 16 -0
v -3 16 -1
v -2 16 -1

# faces
f 3/1/1 2/1/1 1/1/1
f 4/1/1 2/1/1 3/1/1
f 7/1/1 6/1/1 5/1/1
f 8/1/1 6/1/1 7/1/1
f 12/3/1 10/3/1 9/3/1
f 13/3/1 10/3/1 12/3/1
f 14/3/1 10/3/1 13/3/1
f 15/3/1 10/3/1 14/3/1
f 17/3/1 12/3/1 11/3/1
f 17/3/1 13/3/1 12/3/1
f 18/3/1 13/3/1 17/3/1
f 19/3/1 13/3/1 18/3/1
f 20/3/1 16/3/1 15/3/1
f 20/3/1 15/3/1 14/3/1
f 21/3/1 17/3/1 11/3/1
f 22/3/1 19/3/1 18/3/1
f 22/3/1 20/3/1 19/3/1
f 23/3/1 20/3/1 22/3/1
f 23/3/1 22/3/1 21/3/1
f 24/3/1 20/3/1 23/3/1
f 25/3/1 16/3/1 20/3/1
f 25/3/1 20/3/1 24/3/1
f 26/3/1 16/3/1 25/3/1
f 27/3/1 21/3/1 11/3/1
f 27/3/1 23/3/1 21/3/1
f 28/3/1 23/3/1 27/3/1
f 29/3/1 25/3/1 24/3/1
f 30/3/1 25/3/1 29/3/1
f 31/3/1 16/3/1 26/3/1
f 32/3/1 27/3/1 11/3/1
f 33/3/1 30/3/1 29/3/1
f 33/3/1 29/3/1 28/3/1
f 34/3/1 30/3/1 33/3/1
f 35/3/1 30/3/1 34/3/1
f 36/3/1 16/3/1 31/3/1
f 37/3/1 32/3/1 11/3/1
f 37/3/1 33/3/1 32/3/1
f 37/3/1 34/3/1 33/3/1
f 38/3/1 34/3/1 37/3/1
f 39/3/1 34/3/1 38/3/1
f 40/3/1 36/3/1 35/3/1
f 41/3/1 16/3/1 36/3/1
f 41/3/1 36/3/1 40/3/1
f 42/3/1 16/3/1 41/3/1
f 43/3/1 39/3/1 38/3/1
f 43/3/1 40/3/1 39/3/1
f 43/3/1 41/3/1 40/3/1
f 44/3/1 41/3/1 43/3/1
f 49/3/1 46/3/1 45/3/1
f 50/3/1 46/3/1 49/3/1
f 53/3/1 48/3/1 47/3/1
f 54/3/1 48/3/1 53/3/1
f 57/3/1 52/3/1 51/3/1
f 58/3/1 52/3/1 57/3/1
f 61/3/1 56/3/1 55/3/1
f 62/3/1 56/3/1 61/3/1
f 63/1/1 60/1/1 59/1/1
f 64/1/1 60/1/1 63/1/1
f 69/3/1 66/3/1 65/3/1
f 70/3/1 66/3/1 69/3/1
f 71/3/1 68/3/1 67/3/1
f 72/3/1 68/3/1 71/3/1
f 77/3/1 74/3/1 73/3/1
f 78/3/1 74/3/1 77/3/1
f 81/3/1 76/3/1 75/3/1
f 82/3/1 76/3/1 81/3/1
f 85/3/1 80/3/1 79/3/1
f 86/3/1 80/3/1 85/3/1
f 87/1/1 84/1/1 83/1/1
f 88/1/1 84/1/1 87/1/1
f 91/3/1 90/3/1 89/3/1
f 92/3/1 90/3/1 91/3/1
f 95/2/1 94/2/1 93/2/1
f 96/2/1 94/2/1 95/2/1
f 101/3/1 98/3/1 97/3/1
f 102/3/1 98/3/1 101/3/1
f 103/3/1 100/3/1 99/3/1
f 104/3/1 100/3/1 103/3/1
f 107/3/1 106/3/1 105/3/1
f 108/3/1 106/3/1 107/3/1
f 111/3/1 110/3/1 109/3/1
f 112/3/1 110/3/1 111/3/1
f 115/3/1 114/3/1 113/3/1
f 116/3/1 114/3/1 115/3/1
f 119/3/1 118/3/1 117/3/1
f 120/3/1 118/3/1 119/3/1
f 123/3/1 122/3/1 121/3/1
f 124/3/1 122/3/1 123/3/1
f 128/1/1 126/1/1 125/1/1
f 129/1/1 126/1/1 128/1/1
f 130/3/1 128/3/1 127/3/1
f 131/3/1 128/3/1 130/3/1
f 134/1/1 133/1/1 132/1/1
f 135/1/1 133/1/1 134/1/1
f 138/3/1 137/3/1 136/3/1
f 139/3/1 137/3/1 138/3/1
f 142/3/1 141/3/1 140/3/1
f 143/3/1 141/3/1 142/3/1
f 146/3/1 145/3/1 144/3/1
f 147/3/1 145/3/1 146/3/1
f 150/3/1 149/3/1 148/3/1
f 151/3/1 149/3/1 150/3/1
f 152/3/2 153/3/2 154/3/2
f 154/3/2 153/3/2 155/3/2
f 156/1/2 157/1/2 158/1/2
f 158/1/2 157/1/2 159/1/2
f 160/3/2 161/3/2 164/3/2
f 164/3/2 161/3/2 165/3/2
f 162/3/2 163/3/2 166/3/2
f 166/3/2 163/3/2 167/3/2
f 168/1/2 169/1/2 170/1/2
f 170/1/2 169/1/2 171/1/2
f 172/3/2 173/3/2 174/3/2
f 174/3/2 173/3/2 175/3/2
f 176/3/2 177/3/2 178/3/2
f 178/3/2 177/3/2 179/3/2
f 180/3/2 181/3/2 182/3/2
f 182/3/2 181/3/2 183/3/2
f 184/3/2 185/3/2 186/3/2
f 186/3/2 185/3/2 187/3/2
f 188/3/2 189/3/2 190/3/2
f 190/3/2 189/3/2 191/3/2
f 192/2/2 193/2/2 194/2/2
f 194/2/2 193/2/2 195/2/2
f 196/3/2 197/3/2 198/3/2
f 198/3/2 197/3/2 199/3/2
f 200/3/2 201/3/2 202/3/2
f 202/3/2 201/3/2 203/3/2
f 204/3/2 205/3/2 206/3/2
f 206/3/2 205/3/2 207/3/2
f 208/3/2 209/3/2 210/3/2
f 210/3/2 209/3/2 211/3/2
f 212/3/2 213/3/2 214/3/2
f 214/3/2 213/3/2 215/3/2
f 216/3/2 217/3/2 220/3/2
f 220/3/2 217/3/2 221/3/2
f 218/3/2 219/3/2 224/3/2
f 224/3/2 219/3/2 225/3/2
f 222/3/2 223/3/2 226/3/2
f 226/3/2 223/3/2 227/3/2
f 228/3/2 229/3/2 232/3/2
f 232/3/2 229/3/2 233/3/2
f 230/1/2 231/1/2 234/1/2
f 234/1/2 231/1/2 235/1/2
f 236/3/2 237/3/2 240/3/2
f 240/3/2 237/3/2 241/3/2
f 238/1/2 239/1/2 242/1/2
f 242/1/2 239/1/2 243/1/2
f 244/3/2 245/3/2 249/3/2
f 249/3/2 245/3/2 250/3/2
f 246/3/2 247/3/2 251/3/2
f 251/3/2 247/3/2 252/3/2
f 248/3/2 249/3/2 255/3/2
f 255/3/2 249/3/2 256/3/2
f 253/3/2 254/3/2 257/3/2
f 257/3/2 254/3/2 258/3/2
f 259/3/2 260/3/2 262/3/2
f 262/3/2 260/3/2 263/3/2
f 263/3/2 260/3/2 264/3/2
f 264/3/2 260/3/2 265/3/2
f 261/3/2 262/3/2 267/3/2
f 262/3/2 263/3/2 267/3/2
f 267/3/2 263/3/2 268/3/2
f 265/3/2 266/3/2 269/3/2
f 264/3/2 265/3/2 269/3/2
f 269/3/2 266/3/2 270/3/2
f 270/3/2 266/3/2 271/3/2
f 261/3/2 267/3/2 272/3/2
f 269/3/2 270/3/2 273/3/2
f 268/3/2 269/3/2 273/3/2
f 273/3/2 270/3/2 274/3/2
f 271/3/2 266/3/2 275/3/2
f 273/3/2 274/3/2 276/3/2
f 274/3/2 275/3/2 276/3/2
f 261/3/2 272/3/2 276/3/2
f 272/3/2 273/3/2 276/3/2
f 276/3/2 275/3/2 277/3/2
f 261/3/2 276/3/2 278/3/2
f 277/3/2 275/3/2 279/3/2
f 279/3/2 275/3/2 280/3/2
f 278/3/2 279/3/2 280/3/2
f 280/3/2 275/3/2 281/3/2
f 261/3/2 278/3/2 282/3/2
f 278/3/2 280/3/2 282/3/2
f 282/3/2 280/3/2 283/3/2
f 283/3/2 280/3/2 284/3/2
f 281/3/2 275/3/2 285/3/2
f 285/3/2 275/3/2 286/3/2
f 261/3/2 282/3/2 287/3/2
f 287/3/2 282/3/2 288/3/2
f 283/3/2 284/3/2 289/3/2
f 284/3/2 285/3/2 289/3/2
f 289/3/2 285/3/2 290/3/2
f 286/3/2 275/3/2 291/3/2
f 275/3/2 266/3/2 292/3/2
f 291/3/2 275/3/2 292/3/2
f 292/3/2 266/3/2 293/3/2
f 290/3/2 291/3/2 294/3/2
f 291/3/2 292/3/2 294/3/2
f 289/3/2 290/3/2 294/3/2
f 288/3/2 289/3/2 294/3/2
f 294/3/2 292/3/2 295/3/2
f 296/1/2 297/1/2 298/1/2
f 298/1/2 297/1/2 299/1/2
f 300/1/2 301/1/2 302/1/2
f 302/1/2 301/1/2 303/1/2
f 306/1/3 305/1/3 304/1/3
f 307/1/3 305/1/3 306/1/3
f 310/1/3 309/1/3 308/1/3
f 311/1/3 309/1/3 310/1/3
f 315/3/3 313/3/3 312/3/3
f 316/3/3 313/3/3 315/3/3
f 317/3/3 313/3/3 316/3/3
f 318/3/3 313/3/3 317/3/3
f 319/3/3 313/3/3 318/3/3
f 320/3/3 313/3/3 319/3/3
f 322/3/3 315/3/3 314/3/3
f 322/3/3 316/3/3 315/3/3
f 323/3/3 318/3/3 317/3/3
f 324/3/3 318/3/3 323/3/3
f 325/3/3 321/3/3 320/3/3
f 325/3/3 320/3/3 319/3/3
f 326/3/3 321/3/3 325/3/3
f 327/3/3 321/3/3 326/3/3
f 328/3/3 324/3/3 323/3/3
f 328/3/3 323/3/3 322/3/3
f 328/3/3 326/3/3 325/3/3
f 328/3/3 325/3/3 324/3/3
f 328/3/3 322/3/3 314/3/3
f 329/3/3 326/3/3 328/3/3
f 330/3/3 326/3/3 329/3/3
f 332/3/3 328/3/3 314/3/3
f 333/3/3 331/3/3 330/3/3
f 333/3/3 330/3/3 329/3/3
f 334/3/3 331/3/3 333/3/3
f 335/3/3 331/3/3 334/3/3
f 336/3/3 333/3/3 332/3/3
f 336/3/3 334/3/3 333/3/3
f 337/3/3 331/3/3 335/3/3
f 338/3/3 336/3/3 332/3/3
f 338/3/3 337/3/3 336/3/3
f 339/3/3 337/3/3 338/3/3
f 340/3/3 337/3/3 339/3/3
f 341/3/3 337/3/3 340/3/3
f 342/3/3 332/3/3 314/3/3
f 342/3/3 338/3/3 332/3/3
f 343/3/3 338/3/3 342/3/3
f 344/3/3 338/3/3 343/3/3
f 345/3/3 340/3/3 339/3/3
f 346/3/3 340/3/3 345/3/3
f 347/3/3 337/3/3 341/3/3
f 348/3/3 331/3/3 337/3/3
f 348/3/3 337/3/3 347/3/3
f 349/3/3 331/3/3 348/3/3
f 350/3/3 346/3/3 345/3/3
f 350/3/3 347/3/3 346/3/3
f 350/3/3 348/3/3 347/3/3
f 350/3/3 344/3/3 343/3/3
f 350/3/3 345/3/3 344/3/3
f 351/3/3 348/3/3 350/3/3
f 356/3/3 353/3/3 352/3/3
f 357/3/3 353/3/3 356/3/3
f 360/3/3 355/3/3 354/3/3
f 361/3/3 355/3/3 360/3/3
f 362/3/3 359/3/3 358/3/3
f 363/3/3 359/3/3 362/3/3
f 368/3/3 365/3/3 364/3/3
f 369/3/3 365/3/3 368/3/3
f 370/3/3 367/3/3 366/3/3
f 371/3/3 367/3/3 370/3/3
f 374/3/3 373/3/3 372/3/3
f 375/3/3 373/3/3 374/3/3
f 380/3/3 377/3/3 376/3/3
f 381/3/3 377/3/3 380/3/3
f 384/3/3 379/3/3 378/3/3
f 385/3/3 379/3/3 384/3/3
f 386/3/3 383/3/3 382/3/3
f 387/3/3 383/3/3 386/3/3
f 390/3/3 389/3/3 388/3/3
f 391/3/3 389/3/3 390/3/3
f 396/3/3 393/3/3 392/3/3
f 397/3/3 393/3/3 396/3/3
f 398/1/3 395/1/3 394/1/3
f 399/1/3 395/1/3 398/1/3
f 404/1/3 401/1/3 400/1/3
f 405/1/3 401/1/3 404/1/3
f 407/3/3 403/3/3 402/3/3
f 408/3/3 403/3/3 407/3/3
f 409/3/3 406/3/3 405/3/3
f 410/3/3 406/3/3 409/3/3
f 415/3/3 412/3/3 411/3/3
f 416/3/3 412/3/3 415/3/3
f 417/2/3 414/2/3 413/2/3
f 418/2/3 414/2/3 417/2/3
f 421/3/3 420/3/3 419/3/3
f 422/3/3 420/3/3 421/3/3
f 425/1/3 424/1/3 423/1/3
f 426/1/3 424/1/3 425/1/3
f 431/3/3 428/3/3 427/3/3
f 432/3/3 428/3/3 431/3/3
f 433/3/3 430/3/3 429/3/3
f 434/3/3 430/3/3 433/3/3
f 437/1/3 436/1/3 435/1/3
f 438/1/3 436/1/3 437/1/3
f 443/1/3 440/1/3 439/1/3
f 444/1/3 440/1/3 443/1/3
f 446/3/3 442/3/3 441/3/3
f 447/3/3 442/3/3 446/3/3
f 448/3/3 445/3/3 444/3/3
f 449/3/3 445/3/3 448/3/3
f 452/3/3 451/3/3 450/3/3
f 453/3/3 451/3/3 452/3/3
f 456/3/3 455/3/3 454/3/3
f 457/3/3 455/3/3 456/3/3
f 460/3/3 459/3/3 458/3/3
f 461/3/3 459/3/3 460/3/3
f 464/3/3 463/3/3 462/3/3
f 465/3/3 463/3/3 464/3/3
f 466/3/4 467/3/4 468/3/4
f 468/3/4 467/3/4 469/3/4
f 470/3/4 471/3/4 472/3/4
f 472/3/4 471/3/4 473/3/4
f 474/3/4 475/3/4 478/3/4
f 478/3/4 475/3/4 479/3/4
f 476/3/4 477/3/4 480/3/4
f 480/3/4 477/3/4 481/3/4
f 482/3/4 483/3/4 484/3/4
f 484/3/4 483/3/4 485/3/4
f 486/3/4 487/3/4 488/3/4
f 488/3/4 487/3/4 489/3/4
f 490/3/4 491/3/4 494/3/4
f 494/3/4 491/3/4 495/3/4
f 492/3/4 493/3/4 496/3/4
f 496/3/4 493/3/4 497/3/4
f 497/1/4 498/1/4 499/1/4
f 499/1/4 498/1/4 500/1/4
f 501/1/4 502/1/4 503/1/4
f 503/1/4 502/1/4 504/1/4
f 505/3/4 506/3/4 509/3/4
f 509/3/4 506/3/4 510/3/4
f 507/3/4 508/3/4 511/3/4
f 511/3/4 508/3/4 512/3/4
f 513/1/4 514/1/4 515/1/4
f 515/1/4 514/1/4 516/1/4
f 519/3/4 520/3/4 521/3/4
f 521/3/4 520/3/4 522/3/4
f 517/2/4 518/2/4 523/2/4
f 523/2/4 518/2/4 524/2/4
f 525/3/4 526/3/4 528/3/4
f 528/3/4 526/3/4 529/3/4
f 527/1/4 528/1/4 530/1/4
f 530/1/4 528/1/4 531/1/4
f 532/3/4 533/3/4 534/3/4
f 534/3/4 533/3/4 535/3/4
f 536/3/4 537/3/4 538/3/4
f 538/3/4 537/3/4 539/3/4
f 540/1/4 541/1/4 544/1/4
f 544/1/4 541/1/4 545/1/4
f 542/3/4 543/3/4 548/3/4
f 548/3/4 543/3/4 549/3/4
f 546/3/4 547/3/4 550/3/4
f 550/3/4 547/3/4 551/3/4
f 552/3/4 553/3/4 554/3/4
f 554/3/4 553/3/4 555/3/4
f 556/3/4 557/3/4 560/3/4
f 560/3/4 557/3/4 561/3/4
f 558/3/4 559/3/4 562/3/4
f 562/3/4 559/3/4 563/3/4
f 564/3/4 565/3/4 568/3/4
f 568/3/4 565/3/4 569/3/4
f 566/3/4 567/3/4 572/3/4
f 572/3/4 567/3/4 573/3/4
f 570/3/4 571/3/4 574/3/4
f 574/3/4 571/3/4 575/3/4
f 576/3/4 577/3/4 579/3/4
f 579/3/4 577/3/4 580/3/4
f 578/3/4 579/3/4 582/3/4
f 580/3/4 581/3/4 582/3/4
f 579/3/4 580/3/4 582/3/4
f 582/3/4 581/3/4 583/3/4
f 578/3/4 582/3/4 584/3/4
f 584/3/4 582/3/4 585/3/4
f 582/1/4 583/1/4 586/1/4
f 585/3/4 582/3/4 586/3/4
f 583/3/4 581/3/4 587/3/4
f 586/1/4 583/1/4 587/1/4
f 578/3/4 584/3/4 588/3/4
f 585/3/4 586/3/4 589/3/4
f 586/3/4 587/3/4 589/3/4
f 587/3/4 581/3/4 590/3/4
f 589/3/4 587/3/4 590/3/4
f 590/3/4 581/3/4 591/3/4
f 588/3/4 589/3/4 592/3/4
f 589/3/4 590/3/4 592/3/4
f 592/3/4 590/3/4 593/3/4
f 593/3/4 590/3/4 594/3/4
f 578/3/4 588/3/4 596/3/4
f 588/3/4 592/3/4 596/3/4
f 596/3/4 592/3/4 597/3/4
f 594/3/4 595/3/4 598/3/4
f 593/3/4 594/3/4 598/3/4
f 598/3/4 595/3/4 599/3/4
f 599/3/4 595/3/4 600/3/4
f 578/3/4 596/3/4 601/3/4
f 601/3/4 596/3/4 602/3/4
f 602/3/4 596/3/4 603/3/4
f 598/3/4 599/3/4 604/3/4
f 597/3/4 598/3/4 604/3/4
f 604/3/4 599/3/4 605/3/4
f 600/3/4 595/3/4 606/3/4
f 606/3/4 595/3/4 607/3/4
f 607/3/4 595/3/4 608/3/4
f 604/3/4 605/3/4 609/3/4
f 602/3/4 603/3/4 609/3/4
f 606/3/4 607/3/4 609/3/4
f 605/3/4 606/3/4 609/3/4
f 603/3/4 604/3/4 609/3/4
f 609/3/4 607/3/4 610/3/4
f 611/1/4 612/1/4 613/1/4
f 613/1/4 612/1/4 614/1/4
f 617/2/5 616/2/5 615/2/5
f 618/2/5 616/2/5 617/2/5
f 622/3/5 620/3/5 619/3/5
f 623/3/5 620/3/5 622/3/5
f 625/3/5 622/3/5 621/3/5
f 625/3/5 624/3/5 623/3/5
f 625/3/5 623/3/5 622/3/5
f 626/3/5 624/3/5 625/3/5
f 627/3/5 625/3/5 621/3/5
f 628/3/5 624/3/5 626/3/5
f 629/3/5 627/3/5 621/3/5
f 629/3/5 628/3/5 627/3/5
f 630/3/5 628/3/5 629/3/5
f 631/3/5 624/3/5 628/3/5
f 631/3/5 628/3/5 630/3/5
f 632/3/5 624/3/5 631/3/5
f 633/3/5 631/3/5 630/3/5
f 634/3/5 631/3/5 633/3/5
f 639/3/5 636/3/5 635/3/5
f 640/3/5 636/3/5 639/3/5
f 641/3/5 638/3/5 637/3/5
f 642/3/5 638/3/5 641/3/5
f 647/3/5 644/3/5 643/3/5
f 648/3/5 644/3/5 647/3/5
f 649/3/5 646/3/5 645/3/5
f 650/3/5 646/3/5 649/3/5
f 653/3/5 652/3/5 651/3/5
f 654/3/5 652/3/5 653/3/5
f 658/1/5 656/1/5 655/1/5
f 659/1/5 656/1/5 658/1/5
f 660/3/5 658/3/5 657/3/5
f 661/3/5 658/3/5 660/3/5
f 664/3/5 663/3/5 662/3/5
f 665/3/5 663/3/5 664/3/5
f 668/1/5 667/1/5 666/1/5
f 669/1/5 667/1/5 668/1/5
f 672/1/5 671/1/5 670/1/5
f 673/1/5 671/1/5 672/1/5
f 676/3/5 675/3/5 674/3/5
f 677/3/5 675/3/5 676/3/5
f 682/3/5 679/3/5 678/3/5
f 683/3/5 679/3/5 682/3/5
f 684/3/5 681/3/5 680/3/5
f 685/3/5 681/3/5 684/3/5
f 688/3/5 687/3/5 686/3/5
f 689/3/5 687/3/5 688/3/5
f 692/3/5 691/3/5 690/3/5
f 693/3/5 691/3/5 692/3/5
f 696/1/5 695/1/5 694/1/5
f 697/1/5 695/1/5 696/1/5
f 702/3/5 699/3/5 698/3/5
f 703/3/5 699/3/5 702/3/5
f 704/1/5 701/1/5 700/1/5
f 705/1/5 701/1/5 704/1/5
f 708/3/5 707/3/5 706/3/5
f 709/3/5 707/3/5 708/3/5
f 712/1/5 711/1/5 710/1/5
f 713/1/5 711/1/5 712/1/5
f 717/1/5 715/1/5 714/1/5
f 718/3/5 716/3/5 715/3/5
f 718/1/5 715/1/5 717/1/5
f 719/3/5 716/3/5 718/3/5
f 722/3/5 721/3/5 720/3/5
f 723/3/5 721/3/5 722/3/5
f 726/3/5 725/3/5 724/3/5
f 727/3/5 725/3/5 726/3/5
f 730/3/5 729/3/5 728/3/5
f 731/3/5 729/3/5 730/3/5
f 734/3/5 733/3/5 732/3/5
f 735/3/5 733/3/5 734/3/5
f 740/3/5 737/3/5 736/3/5
f 741/3/5 737/3/5 740/3/5
f 742/3/5 739/3/5 738/3/5
f 743/3/5 739/3/5 742/3/5
f 744/3/6 745/3/6 746/3/6
f 746/3/6 745/3/6 747/3/6
f 748/3/6 749/3/6 750/3/6
f 750/3/6 749/3/6 751/3/6
f 752/3/6 753/3/6 754/3/6
f 754/3/6 753/3/6 755/3/6
f 756/3/6 757/3/6 758/3/6
f 758/3/6 757/3/6 759/3/6
f 760/3/6 761/3/6 764/3/6
f 764/3/6 761/3/6 765/3/6
f 762/3/6 763/3/6 766/3/6
f 766/3/6 763/3/6 767/3/6
f 768/3/6 769/3/6 770/3/6
f 770/3/6 769/3/6 771/3/6
f 772/1/6 773/1/6 774/1/6
f 774/1/6 773/1/6 775/1/6
f 776/3/6 777/3/6 778/3/6
f 778/3/6 777/3/6 779/3/6
f 779/1/6 780/1/6 781/1/6
f 781/1/6 780/1/6 782/1/6
f 783/1/6 784/1/6 785/1/6
f 785/1/6 784/1/6 786/1/6
f 787/3/6 788/3/6 789/3/6
f 789/3/6 788/3/6 790/3/6
f 791/3/6 792/3/6 793/3/6
f 793/3/6 792/3/6 794/3/6
f 795/3/6 796/3/6 797/3/6
f 797/3/6 796/3/6 798/3/6
f 799/1/6 800/1/6 803/1/6
f 803/1/6 800/1/6 804/1/6
f 801/3/6 802/3/6 805/3/6
f 805/3/6 802/3/6 806/3/6
f 807/3/6 808/3/6 810/3/6
f 810/3/6 808/3/6 811/3/6
f 809/1/6 810/1/6 812/1/6
f 812/1/6 810/1/6 813/1/6
f 814/3/6 815/3/6 816/3/6
f 816/3/6 815/3/6 817/3/6
f 818/3/6 819/3/6 820/3/6
f 820/3/6 819/3/6 821/3/6
f 822/1/6 823/1/6 827/1/6
f 827/1/6 823/1/6 828/1/6
f 824/3/6 825/3/6 830/3/6
f 830/3/6 825/3/6 831/3/6
f 826/3/6 827/3/6 832/3/6
f 832/3/6 827/3/6 833/3/6
f 829/1/6 830/1/6 834/1/6
f 834/1/6 830/1/6 835/1/6
f 836/3/6 837/3/6 842/3/6
f 842/3/6 837/3/6 843/3/6
f 838/3/6 839/3/6 844/3/6
f 844/3/6 839/3/6 845/3/6
f 840/3/6 841/3/6 848/3/6
f 848/3/6 841/3/6 849/3/6
f 846/3/6 847/3/6 852/3/6
f 852/3/6 847/3/6 853/3/6
f 850/3/6 851/3/6 854/3/6
f 854/3/6 851/3/6 855/3/6
f 856/3/6 857/3/6 858/3/6
f 858/3/6 857/3/6 859/3/6
f 860/3/6 861/3/6 862/3/6
f 862/3/6 861/3/6 863/3/6
f 864/3/6 865/3/6 870/3/6
f 870/3/6 865/3/6 871/3/6
f 866/3/6 867/3/6 872/3/6
f 872/3/6 867/3/6 873/3/6
f 868/3/6 869/3/6 874/3/6
f 874/3/6 869/3/6 875/3/6
f 876/3/6 877/3/6 881/3/6
f 881/3/6 877/3/6 882/3/6
f 878/3/6 879/3/6 883/3/6
f 883/3/6 879/3/6 884/3/6
f 884/3/6 879/3/6 885/3/6
f 885/3/6 879/3/6 886/3/6
f 881/3/6 882/3/6 888/3/6
f 880/3/6 881/3/6 888/3/6
f 882/3/6 883/3/6 888/3/6
f 883/3/6 884/3/6 888/3/6
f 888/3/6 884/3/6 889/3/6
f 889/3/6 884/3/6 890/3/6
f 886/3/6 887/3/6 891/3/6
f 885/3/6 886/3/6 891/3/6
f 880/3/6 888/3/6 892/3/6
f 889/3/6 890/3/6 893/3/6
f 890/3/6 891/3/6 893/3/6
f 891/3/6 887/3/6 894/3/6
f 893/3/6 891/3/6 894/3/6
f 894/3/6 887/3/6 895/3/6
f 880/3/6 892/3/6 896/3/6
f 892/3/6 893/3/6 896/3/6
f 893/3/6 894/3/6 896/3/6
f 896/3/6 894/3/6 897/3/6
f 897/3/6 894/3/6 898/3/6
f 895/3/6 887/3/6 899/3/6
f 880/3/6 896/3/6 900/3/6
f 897/3/6 898/3/6 901/3/6
f 898/3/6 899/3/6 901/3/6
f 901/3/6 899/3/6 902/3/6
f 902/3/6 899/3/6 903/3/6
f 900/3/6 901/3/6 904/3/6
f 901/3/6 902/3/6 904/3/6
f 903/3/6 899/3/6 905/3/6
f 880/3/6 900/3/6 906/3/6
f 904/3/6 905/3/6 906/3/6
f 900/3/6 904/3/6 906/3/6
f 906/3/6 905/3/6 907/3/6
f 905/3/6 899/3/6 908/3/6
f 907/3/6 905/3/6 908/3/6
f 908/3/6 899/3/6 909/3/6
f 899/3/6 887/3/6 910/3/6
f 909/3/6 899/3/6 910/3/6
f 910/3/6 887/3/6 911/3/6
f 907/3/6 908/3/6 912/3/6
f 912/3/6 908/3/6 913/3/6
f 909/3/6 910/3/6 914/3/6
f 914/3/6 910/3/6 915/3/6
f 916/1/6 917/1/6 918/1/6
f 918/1/6 917/1/6 919/1/6
