# MagicaVoxel @ Ephtracy

# material
mtllib obj_newsbox2.mtl
usemtl palette

# normals
vn -1 0 0
vn 1 0 0
vn 0 0 1
vn 0 0 -1
vn 0 -1 0
vn 0 1 0

# texcoords
vt 0.0175781 0.5
vt 0.0605469 0.5
vt 0.341797 0.5
vt 0.958984 0.5
vt 0.962891 0.5
vt 0.970703 0.5
vt 0.986328 0.5

# verts
v -4 5 2.5
v -4 5 -3.5
v -4 7 1.5
v -4 7 -2.5
v -4 9 1.5
v -4 9 -2.5
v -4 11 2.5
v -4 11 -3.5
v -2 0 1.5
v -2 0 -2.5
v -2 1 1.5
v -2 1 -2.5
v -1 1 0.5
v -1 1 -1.5
v -1 5 0.5
v -1 5 -1.5
v 3 6 2.5
v 3 6 1.5
v 3 6 -2.5
v 3 6 -3.5
v 3 8 3.5
v 3 8 2.5
v 3 10 3.5
v 3 10 2.5
v 3 10 1.5
v 3 10 -2.5
v 3 10 -3.5
v -3 6 2.5
v -3 6 1.5
v -3 6 -2.5
v -3 6 -3.5
v -3 10 2.5
v -3 10 1.5
v -3 10 -2.5
v -3 10 -3.5
v 1 1 0.5
v 1 1 -1.5
v 1 5 0.5
v 1 5 -1.5
v 2 0 1.5
v 2 0 -2.5
v 2 1 1.5
v 2 1 -2.5
v 4 5 2.5
v 4 5 -3.5
v 4 7 1.5
v 4 7 -2.5
v 4 8 3.5
v 4 8 2.5
v 4 9 1.5
v 4 9 -2.5
v 4 10 3.5
v 4 10 2.5
v 4 11 2.5
v 4 11 -3.5
v 3 8 3.5
v 3 10 3.5
v 4 8 3.5
v 4 10 3.5
v -4 5 2.5
v -4 11 2.5
v -3 6 2.5
v -3 10 2.5
v 3 6 2.5
v 3 8 2.5
v 3 10 2.5
v 4 5 2.5
v 4 8 2.5
v 4 10 2.5
v 4 11 2.5
v -3 6 1.5
v -3 10 1.5
v -2 0 1.5
v -2 1 1.5
v -2 6 1.5
v -2 7 1.5
v -2 9 1.5
v -1 6 1.5
v -1 7 1.5
v -1 8 1.5
v -1 9 1.5
v 1 6 1.5
v 1 8 1.5
v 1 9 1.5
v 2 0 1.5
v 2 1 1.5
v 2 6 1.5
v 2 9 1.5
v 3 6 1.5
v 3 10 1.5
v -1 1 0.5
v -1 5 0.5
v 1 1 0.5
v 1 5 0.5
v -1 1 -1.5
v -1 5 -1.5
v 1 1 -1.5
v 1 5 -1.5
v -3 6 -2.5
v -3 10 -2.5
v -2 0 -2.5
v -2 1 -2.5
v 2 0 -2.5
v 2 1 -2.5
v 3 6 -2.5
v 3 10 -2.5
v -4 5 -3.5
v -4 11 -3.5
v -3 6 -3.5
v -3 10 -3.5
v 3 6 -3.5
v 3 10 -3.5
v 4 5 -3.5
v 4 11 -3.5
v -2 0 1.5
v 2 0 1.5
v -2 0 -2.5
v 2 0 -2.5
v -4 5 2.5
v 4 5 2.5
v -1 5 0.5
v 1 5 0.5
v -1 5 -1.5
v 1 5 -1.5
v -4 5 -3.5
v 4 5 -3.5
v 3 8 3.5
v 4 8 3.5
v 3 8 2.5
v 4 8 2.5
v -3 10 2.5
v 3 10 2.5
v -3 10 1.5
v 3 10 1.5
v -3 10 -2.5
v 3 10 -2.5
v -3 10 -3.5
v 3 10 -3.5
v -2 1 1.5
v 2 1 1.5
v -1 1 0.5
v 1 1 0.5
v -1 1 -1.5
v 1 1 -1.5
v -2 1 -2.5
v 2 1 -2.5
v -3 6 2.5
v 3 6 2.5
v -3 6 1.5
v -2 6 1.5
v -1 6 1.5
v 1 6 1.5
v 2 6 1.5
v 3 6 1.5
v -3 6 -2.5
v 3 6 -2.5
v -3 6 -3.5
v 3 6 -3.5
v 3 10 3.5
v 4 10 3.5
v 3 10 2.5
v 4 10 2.5
v -4 11 2.5
v 4 11 2.5
v -4 11 -3.5
v 4 11 -3.5

# faces
f 3/1/1 2/1/1 1/1/1
f 4/1/1 2/1/1 3/1/1
f 5/1/1 3/1/1 1/1/1
f 5/3/1 4/3/1 3/3/1
f 6/1/1 2/1/1 4/1/1
f 6/3/1 4/3/1 5/3/1
f 7/1/1 5/1/1 1/1/1
f 7/1/1 6/1/1 5/1/1
f 8/1/1 2/1/1 6/1/1
f 8/1/1 6/1/1 7/1/1
f 11/7/1 10/7/1 9/7/1
f 12/7/1 10/7/1 11/7/1
f 15/7/1 14/7/1 13/7/1
f 16/7/1 14/7/1 15/7/1
f 22/1/1 18/1/1 17/1/1
f 23/6/1 22/6/1 21/6/1
f 24/1/1 18/1/1 22/1/1
f 24/6/1 22/6/1 23/6/1
f 25/1/1 18/1/1 24/1/1
f 26/1/1 20/1/1 19/1/1
f 27/1/1 20/1/1 26/1/1
f 28/1/2 29/1/2 32/1/2
f 32/1/2 29/1/2 33/1/2
f 30/1/2 31/1/2 34/1/2
f 34/1/2 31/1/2 35/1/2
f 36/7/2 37/7/2 38/7/2
f 38/7/2 37/7/2 39/7/2
f 40/7/2 41/7/2 42/7/2
f 42/7/2 41/7/2 43/7/2
f 44/1/2 45/1/2 46/1/2
f 46/1/2 45/1/2 47/1/2
f 44/1/2 46/1/2 49/1/2
f 46/3/2 47/3/2 50/3/2
f 49/1/2 46/1/2 50/1/2
f 47/1/2 45/1/2 51/1/2
f 50/3/2 47/3/2 51/3/2
f 48/6/2 49/6/2 52/6/2
f 49/1/2 50/1/2 53/1/2
f 52/6/2 49/6/2 53/6/2
f 50/1/2 51/1/2 53/1/2
f 53/1/2 51/1/2 54/1/2
f 51/1/2 45/1/2 55/1/2
f 54/1/2 51/1/2 55/1/2
f 58/6/3 57/6/3 56/6/3
f 59/6/3 57/6/3 58/6/3
f 62/1/3 61/1/3 60/1/3
f 63/1/3 61/1/3 62/1/3
f 64/1/3 62/1/3 60/1/3
f 66/1/3 61/1/3 63/1/3
f 67/1/3 65/1/3 64/1/3
f 67/1/3 64/1/3 60/1/3
f 68/1/3 65/1/3 67/1/3
f 69/1/3 61/1/3 66/1/3
f 70/1/3 61/1/3 69/1/3
f 75/7/3 72/7/3 71/7/3
f 76/7/3 72/7/3 75/7/3
f 77/7/3 72/7/3 76/7/3
f 78/4/3 76/4/3 75/4/3
f 79/5/3 77/5/3 76/5/3
f 79/4/3 76/4/3 78/4/3
f 80/5/3 77/5/3 79/5/3
f 81/7/3 72/7/3 77/7/3
f 81/5/3 77/5/3 80/5/3
f 82/2/3 80/2/3 79/2/3
f 82/2/3 79/2/3 78/2/3
f 83/3/3 81/3/3 80/3/3
f 83/2/3 80/2/3 82/2/3
f 84/7/3 72/7/3 81/7/3
f 84/3/3 81/3/3 83/3/3
f 85/7/3 74/7/3 73/7/3
f 86/7/3 74/7/3 85/7/3
f 87/4/3 83/4/3 82/4/3
f 87/4/3 84/4/3 83/4/3
f 88/7/3 72/7/3 84/7/3
f 88/4/3 84/4/3 87/4/3
f 89/7/3 88/7/3 87/7/3
f 90/7/3 72/7/3 88/7/3
f 90/7/3 88/7/3 89/7/3
f 93/7/3 92/7/3 91/7/3
f 94/7/3 92/7/3 93/7/3
f 95/7/4 96/7/4 97/7/4
f 97/7/4 96/7/4 98/7/4
f 101/7/4 102/7/4 103/7/4
f 103/7/4 102/7/4 104/7/4
f 99/7/4 100/7/4 105/7/4
f 105/7/4 100/7/4 106/7/4
f 107/1/4 108/1/4 109/1/4
f 109/1/4 108/1/4 110/1/4
f 107/1/4 109/1/4 111/1/4
f 110/1/4 108/1/4 112/1/4
f 107/1/4 111/1/4 113/1/4
f 111/1/4 112/1/4 113/1/4
f 112/1/4 108/1/4 114/1/4
f 113/1/4 112/1/4 114/1/4
f 117/7/5 116/7/5 115/7/5
f 118/7/5 116/7/5 117/7/5
f 121/1/5 120/1/5 119/1/5
f 122/1/5 120/1/5 121/1/5
f 123/1/5 121/1/5 119/1/5
f 124/1/5 120/1/5 122/1/5
f 125/1/5 123/1/5 119/1/5
f 125/1/5 124/1/5 123/1/5
f 126/1/5 120/1/5 124/1/5
f 126/1/5 124/1/5 125/1/5
f 129/6/5 128/6/5 127/6/5
f 130/6/5 128/6/5 129/6/5
f 133/1/5 132/1/5 131/1/5
f 134/1/5 132/1/5 133/1/5
f 137/1/5 136/1/5 135/1/5
f 138/1/5 136/1/5 137/1/5
f 139/7/6 140/7/6 141/7/6
f 141/7/6 140/7/6 142/7/6
f 139/7/6 141/7/6 143/7/6
f 142/7/6 140/7/6 144/7/6
f 139/7/6 143/7/6 145/7/6
f 143/7/6 144/7/6 145/7/6
f 144/7/6 140/7/6 146/7/6
f 145/7/6 144/7/6 146/7/6
f 147/1/6 148/1/6 149/1/6
f 149/1/6 148/1/6 150/1/6
f 150/1/6 148/1/6 151/1/6
f 151/1/6 148/1/6 152/1/6
f 152/1/6 148/1/6 153/1/6
f 153/1/6 148/1/6 154/1/6
f 155/1/6 156/1/6 157/1/6
f 157/1/6 156/1/6 158/1/6
f 159/6/6 160/6/6 161/6/6
f 161/6/6 160/6/6 162/6/6
f 163/1/6 164/1/6 165/1/6
f 165/1/6 164/1/6 166/1/6
