# MagicaVoxel @ Ephtracy

# material
mtllib obj_mailbox2b.mtl
usemtl palette

# normals
vn -1 0 0
vn 1 0 0
vn 0 0 1
vn 0 0 -1
vn 0 -1 0
vn 0 1 0

# texcoords
vt 0.642578 0.5
vt 0.669922 0.5
vt 0.958984 0.5
vt 0.962891 0.5
vt 0.966797 0.5

# verts
v -2.5 7 5.5
v -2.5 7 4.5
v -2.5 7 -1.5
v -2.5 10 5.5
v -2.5 10 4.5
v -2.5 10 -1.5
v -2.5 12 -0.5
v -2.5 12 -4.5
v -2.5 13 -0.5
v -2.5 13 -4.5
v -1.5 0 -1.5
v -1.5 0 -3.5
v -1.5 1 -1.5
v -1.5 1 -3.5
v -1.5 5 4.5
v -1.5 5 -1.5
v -1.5 5 -3.5
v -1.5 5 -5.5
v -1.5 7 4.5
v -1.5 7 -1.5
v -1.5 7 -3.5
v -1.5 7 -5.5
v -1.5 10 5.5
v -1.5 10 4.5
v -1.5 10 -1.5
v -1.5 11 5.5
v -1.5 11 4.5
v -1.5 11 -1.5
v -1.5 12 -1.5
v -1.5 12 -3.5
v 1.5 10 4.5
v 1.5 10 3.5
v 1.5 12 4.5
v 1.5 12 3.5
v 0.5 0 -1.5
v 0.5 0 -3.5
v 0.5 1 -1.5
v 0.5 1 -3.5
v 0.5 5 4.5
v 0.5 5 -1.5
v 0.5 5 -3.5
v 0.5 5 -5.5
v 0.5 7 4.5
v 0.5 7 -1.5
v 0.5 7 -3.5
v 0.5 7 -5.5
v 0.5 10 5.5
v 0.5 10 4.5
v 0.5 10 -1.5
v 0.5 11 5.5
v 0.5 11 4.5
v 0.5 11 -1.5
v 0.5 12 -1.5
v 0.5 12 -3.5
v 1.5 7 5.5
v 1.5 7 4.5
v 1.5 7 -1.5
v 1.5 9 4.5
v 1.5 9 3.5
v 1.5 10 5.5
v 1.5 10 4.5
v 1.5 10 3.5
v 1.5 10 -1.5
v 1.5 12 -0.5
v 1.5 12 -4.5
v 1.5 13 -0.5
v 1.5 13 -4.5
v 2.5 9 4.5
v 2.5 9 3.5
v 2.5 12 4.5
v 2.5 12 3.5
v -2.5 7 5.5
v -2.5 10 5.5
v -1.5 10 5.5
v -1.5 11 5.5
v 0.5 10 5.5
v 0.5 11 5.5
v 1.5 7 5.5
v 1.5 10 5.5
v -1.5 5 4.5
v -1.5 7 4.5
v 0.5 5 4.5
v 0.5 7 4.5
v 1.5 9 4.5
v 1.5 10 4.5
v 1.5 12 4.5
v 2.5 9 4.5
v 2.5 12 4.5
v -2.5 12 -0.5
v -2.5 13 -0.5
v 1.5 12 -0.5
v 1.5 13 -0.5
v -1.5 0 -1.5
v -1.5 1 -1.5
v -1.5 5 -1.5
v -1.5 11 -1.5
v -1.5 12 -1.5
v 0.5 0 -1.5
v 0.5 1 -1.5
v 0.5 5 -1.5
v 0.5 11 -1.5
v 0.5 12 -1.5
v 1.5 9 3.5
v 1.5 10 3.5
v 1.5 12 3.5
v 2.5 9 3.5
v 2.5 12 3.5
v -2.5 7 -1.5
v -2.5 10 -1.5
v -1.5 7 -1.5
v -1.5 10 -1.5
v 0.5 7 -1.5
v 0.5 10 -1.5
v 1.5 7 -1.5
v 1.5 10 -1.5
v -1.5 0 -3.5
v -1.5 1 -3.5
v -1.5 5 -3.5
v -1.5 7 -3.5
v -1.5 12 -3.5
v 0.5 0 -3.5
v 0.5 1 -3.5
v 0.5 5 -3.5
v 0.5 7 -3.5
v 0.5 12 -3.5
v -2.5 12 -4.5
v -2.5 13 -4.5
v 1.5 12 -4.5
v 1.5 13 -4.5
v -1.5 5 -5.5
v -1.5 7 -5.5
v 0.5 5 -5.5
v 0.5 7 -5.5
v -1.5 0 -1.5
v 0.5 0 -1.5
v -1.5 0 -3.5
v 0.5 0 -3.5
v -1.5 5 4.5
v 0.5 5 4.5
v -1.5 5 -1.5
v 0.5 5 -1.5
v -1.5 5 -3.5
v 0.5 5 -3.5
v -1.5 5 -5.5
v 0.5 5 -5.5
v -2.5 7 5.5
v 1.5 7 5.5
v -2.5 7 4.5
v -1.5 7 4.5
v 0.5 7 4.5
v 1.5 7 4.5
v -2.5 7 -1.5
v -1.5 7 -1.5
v 0.5 7 -1.5
v 1.5 7 -1.5
v 1.5 9 4.5
v 2.5 9 4.5
v 1.5 9 3.5
v 2.5 9 3.5
v -2.5 12 -0.5
v 1.5 12 -0.5
v -1.5 12 -1.5
v 0.5 12 -1.5
v -1.5 12 -3.5
v 0.5 12 -3.5
v -2.5 12 -4.5
v 1.5 12 -4.5
v -1.5 7 -3.5
v 0.5 7 -3.5
v -1.5 7 -5.5
v 0.5 7 -5.5
v -2.5 10 5.5
v -1.5 10 5.5
v 0.5 10 5.5
v 1.5 10 5.5
v -2.5 10 4.5
v -1.5 10 4.5
v 0.5 10 4.5
v 1.5 10 4.5
v 1.5 10 3.5
v -2.5 10 -1.5
v -1.5 10 -1.5
v 0.5 10 -1.5
v 1.5 10 -1.5
v -1.5 11 5.5
v 0.5 11 5.5
v -1.5 11 4.5
v 0.5 11 4.5
v -1.5 11 -1.5
v 0.5 11 -1.5
v 1.5 12 4.5
v 2.5 12 4.5
v 1.5 12 3.5
v 2.5 12 3.5
v -2.5 13 -0.5
v 1.5 13 -0.5
v -2.5 13 -4.5
v 1.5 13 -4.5

# faces
f 4/2/1 2/2/1 1/2/1
f 5/1/1 3/1/1 2/1/1
f 5/2/1 2/2/1 4/2/1
f 6/1/1 3/1/1 5/1/1
f 9/4/1 8/4/1 7/4/1
f 10/4/1 8/4/1 9/4/1
f 13/5/1 12/5/1 11/5/1
f 14/5/1 12/5/1 13/5/1
f 16/4/1 14/4/1 13/4/1
f 17/4/1 14/4/1 16/4/1
f 19/4/1 17/4/1 16/4/1
f 19/4/1 18/4/1 17/4/1
f 19/4/1 16/4/1 15/4/1
f 20/4/1 18/4/1 19/4/1
f 21/4/1 18/4/1 20/4/1
f 22/4/1 18/4/1 21/4/1
f 25/4/1 21/4/1 20/4/1
f 26/2/1 24/2/1 23/2/1
f 27/1/1 25/1/1 24/1/1
f 27/2/1 24/2/1 26/2/1
f 28/4/1 21/4/1 25/4/1
f 28/1/1 25/1/1 27/1/1
f 29/4/1 21/4/1 28/4/1
f 30/4/1 21/4/1 29/4/1
f 33/3/1 32/3/1 31/3/1
f 34/3/1 32/3/1 33/3/1
f 35/5/2 36/5/2 37/5/2
f 37/5/2 36/5/2 38/5/2
f 37/4/2 38/4/2 40/4/2
f 40/4/2 38/4/2 41/4/2
f 40/4/2 41/4/2 43/4/2
f 41/4/2 42/4/2 43/4/2
f 39/4/2 40/4/2 43/4/2
f 43/4/2 42/4/2 44/4/2
f 44/4/2 42/4/2 45/4/2
f 45/4/2 42/4/2 46/4/2
f 44/4/2 45/4/2 49/4/2
f 47/2/2 48/2/2 50/2/2
f 48/1/2 49/1/2 51/1/2
f 50/2/2 48/2/2 51/2/2
f 49/4/2 45/4/2 52/4/2
f 51/1/2 49/1/2 52/1/2
f 52/4/2 45/4/2 53/4/2
f 53/4/2 45/4/2 54/4/2
f 55/2/2 56/2/2 58/2/2
f 56/1/2 57/1/2 58/1/2
f 58/1/2 57/1/2 59/1/2
f 55/2/2 58/2/2 60/2/2
f 60/2/2 58/2/2 61/2/2
f 59/1/2 57/1/2 62/1/2
f 62/1/2 57/1/2 63/1/2
f 64/4/2 65/4/2 66/4/2
f 66/4/2 65/4/2 67/4/2
f 68/3/2 69/3/2 70/3/2
f 70/3/2 69/3/2 71/3/2
f 74/2/3 73/2/3 72/2/3
f 76/2/3 74/2/3 72/2/3
f 76/2/3 75/2/3 74/2/3
f 77/2/3 75/2/3 76/2/3
f 78/2/3 76/2/3 72/2/3
f 79/2/3 76/2/3 78/2/3
f 82/4/3 81/4/3 80/4/3
f 83/4/3 81/4/3 82/4/3
f 87/3/3 85/3/3 84/3/3
f 87/3/3 86/3/3 85/3/3
f 88/3/3 86/3/3 87/3/3
f 91/4/3 90/4/3 89/4/3
f 92/4/3 90/4/3 91/4/3
f 98/5/3 94/5/3 93/5/3
f 99/4/3 95/4/3 94/4/3
f 99/5/3 94/5/3 98/5/3
f 100/4/3 95/4/3 99/4/3
f 101/4/3 97/4/3 96/4/3
f 102/4/3 97/4/3 101/4/3
f 103/3/4 104/3/4 106/3/4
f 104/3/4 105/3/4 106/3/4
f 106/3/4 105/3/4 107/3/4
f 108/1/4 109/1/4 110/1/4
f 110/1/4 109/1/4 111/1/4
f 112/1/4 113/1/4 114/1/4
f 114/1/4 113/1/4 115/1/4
f 116/5/4 117/5/4 121/5/4
f 117/4/4 118/4/4 122/4/4
f 121/5/4 117/5/4 122/5/4
f 122/4/4 118/4/4 123/4/4
f 119/4/4 120/4/4 124/4/4
f 124/4/4 120/4/4 125/4/4
f 126/4/4 127/4/4 128/4/4
f 128/4/4 127/4/4 129/4/4
f 130/4/4 131/4/4 132/4/4
f 132/4/4 131/4/4 133/4/4
f 136/5/5 135/5/5 134/5/5
f 137/5/5 135/5/5 136/5/5
f 140/4/5 139/4/5 138/4/5
f 141/4/5 139/4/5 140/4/5
f 144/4/5 143/4/5 142/4/5
f 145/4/5 143/4/5 144/4/5
f 148/2/5 147/2/5 146/2/5
f 149/2/5 147/2/5 148/2/5
f 150/2/5 147/2/5 149/2/5
f 151/2/5 147/2/5 150/2/5
f 152/1/5 149/1/5 148/1/5
f 153/1/5 149/1/5 152/1/5
f 154/1/5 151/1/5 150/1/5
f 155/1/5 151/1/5 154/1/5
f 158/3/5 157/3/5 156/3/5
f 159/3/5 157/3/5 158/3/5
f 162/4/5 161/4/5 160/4/5
f 163/4/5 161/4/5 162/4/5
f 164/4/5 162/4/5 160/4/5
f 165/4/5 161/4/5 163/4/5
f 166/4/5 164/4/5 160/4/5
f 166/4/5 165/4/5 164/4/5
f 167/4/5 161/4/5 165/4/5
f 167/4/5 165/4/5 166/4/5
f 168/4/6 169/4/6 170/4/6
f 170/4/6 169/4/6 171/4/6
f 172/2/6 173/2/6 176/2/6
f 176/2/6 173/2/6 177/2/6
f 174/2/6 175/2/6 178/2/6
f 178/2/6 175/2/6 179/2/6
f 178/1/6 179/1/6 180/1/6
f 176/1/6 177/1/6 181/1/6
f 181/1/6 177/1/6 182/1/6
f 178/1/6 180/1/6 183/1/6
f 183/1/6 180/1/6 184/1/6
f 185/2/6 186/2/6 187/2/6
f 187/2/6 186/2/6 188/2/6
f 187/1/6 188/1/6 189/1/6
f 189/1/6 188/1/6 190/1/6
f 191/3/6 192/3/6 193/3/6
f 193/3/6 192/3/6 194/3/6
f 195/4/6 196/4/6 197/4/6
f 197/4/6 196/4/6 198/4/6
