# MagicaVoxel @ Ephtracy

# material
mtllib obj_bench4.mtl
usemtl palette

# normals
vn -1 0 0
vn 1 0 0
vn 0 0 1
vn 0 0 -1
vn 0 -1 0
vn 0 1 0

# texcoords
vt 0.978516 0.5
vt 0.982422 0.5

# verts
v -7.5 0 3
v -7.5 0 2
v -7.5 0 -2
v -7.5 0 -3
v -7.5 1 -2
v -7.5 1 -3
v -7.5 2 3
v -7.5 2 2
v -7.5 3 2
v -7.5 3 -2
v -7.5 4 3
v -7.5 4 -2
v -7.5 4 -3
v -7.5 6 -2
v -7.5 6 -3
v -7.5 7 -2
v -7.5 7 -3
v 6.5 0 3
v 6.5 0 2
v 6.5 0 -2
v 6.5 0 -3
v 6.5 1 3
v 6.5 1 2
v 6.5 2 -2
v 6.5 2 -3
v 6.5 3 3
v 6.5 3 2
v 6.5 3 -2
v 6.5 3 -3
v -6.5 0 3
v -6.5 0 2
v -6.5 0 -2
v -6.5 0 -3
v -6.5 1 -2
v -6.5 1 -3
v -6.5 2 3
v -6.5 2 2
v -6.5 3 3
v -6.5 3 2
v -6.5 3 -2
v -6.5 3 -3
v 7.5 0 3
v 7.5 0 2
v 7.5 0 -2
v 7.5 0 -3
v 7.5 1 3
v 7.5 1 2
v 7.5 2 -2
v 7.5 2 -3
v 7.5 3 2
v 7.5 3 -2
v 7.5 4 3
v 7.5 4 -2
v 7.5 7 -2
v 7.5 7 -3
v -7.5 0 3
v -7.5 2 3
v -7.5 4 3
v -6.5 0 3
v -6.5 2 3
v -6.5 3 3
v 6.5 0 3
v 6.5 1 3
v 6.5 3 3
v 7.5 0 3
v 7.5 1 3
v 7.5 4 3
v -7.5 0 -2
v -7.5 1 -2
v -7.5 3 -2
v -7.5 4 -2
v -7.5 6 -2
v -7.5 7 -2
v -6.5 0 -2
v -6.5 1 -2
v -6.5 3 -2
v -5.5 4 -2
v -5.5 6 -2
v -3.5 5 -2
v -3.5 7 -2
v 3.5 5 -2
v 3.5 7 -2
v 6.5 0 -2
v 6.5 2 -2
v 6.5 3 -2
v 7.5 0 -2
v 7.5 2 -2
v 7.5 3 -2
v 7.5 4 -2
v 7.5 7 -2
v -7.5 0 2
v -7.5 2 2
v -7.5 3 2
v -6.5 0 2
v -6.5 2 2
v -6.5 3 2
v 6.5 0 2
v 6.5 1 2
v 6.5 3 2
v 7.5 0 2
v 7.5 1 2
v 7.5 3 2
v -7.5 0 -3
v -7.5 1 -3
v -7.5 4 -3
v -7.5 6 -3
v -7.5 7 -3
v -6.5 0 -3
v -6.5 1 -3
v -6.5 3 -3
v -5.5 4 -3
v -5.5 6 -3
v -3.5 5 -3
v -3.5 7 -3
v 3.5 5 -3
v 3.5 7 -3
v 6.5 0 -3
v 6.5 2 -3
v 6.5 3 -3
v 7.5 0 -3
v 7.5 2 -3
v 7.5 7 -3
v -7.5 0 3
v -6.5 0 3
v 6.5 0 3
v 7.5 0 3
v -7.5 0 2
v -6.5 0 2
v 6.5 0 2
v 7.5 0 2
v -7.5 0 -2
v -6.5 0 -2
v 6.5 0 -2
v 7.5 0 -2
v -7.5 0 -3
v -6.5 0 -3
v 6.5 0 -3
v 7.5 0 -3
v -6.5 3 3
v 6.5 3 3
v -7.5 3 2
v -6.5 3 2
v 6.5 3 2
v 7.5 3 2
v -7.5 3 -2
v -6.5 3 -2
v 6.5 3 -2
v 7.5 3 -2
v -6.5 3 -3
v 6.5 3 -3
v -7.5 4 3
v 7.5 4 3
v -7.5 4 -2
v -5.5 4 -2
v 7.5 4 -2
v -7.5 7 -2
v -3.5 7 -2
v 3.5 7 -2
v 7.5 7 -2
v -7.5 7 -3
v -3.5 7 -3
v 3.5 7 -3
v 7.5 7 -3

# faces
f 5/2/1 4/2/1 3/2/1
f 6/2/1 4/2/1 5/2/1
f 7/2/1 2/2/1 1/2/1
f 8/2/1 2/2/1 7/2/1
f 9/1/1 8/1/1 7/1/1
f 10/1/1 6/1/1 5/1/1
f 11/1/1 9/1/1 7/1/1
f 11/1/1 10/1/1 9/1/1
f 12/1/1 6/1/1 10/1/1
f 12/1/1 10/1/1 11/1/1
f 13/1/1 6/1/1 12/1/1
f 14/2/1 13/2/1 12/2/1
f 15/2/1 13/2/1 14/2/1
f 16/1/1 15/1/1 14/1/1
f 17/1/1 15/1/1 16/1/1
f 22/2/1 19/2/1 18/2/1
f 23/2/1 19/2/1 22/2/1
f 24/2/1 21/2/1 20/2/1
f 25/2/1 21/2/1 24/2/1
f 26/1/1 23/1/1 22/1/1
f 27/1/1 23/1/1 26/1/1
f 28/1/1 25/1/1 24/1/1
f 29/1/1 25/1/1 28/1/1
f 32/2/2 33/2/2 34/2/2
f 34/2/2 33/2/2 35/2/2
f 30/2/2 31/2/2 36/2/2
f 36/2/2 31/2/2 37/2/2
f 36/1/2 37/1/2 38/1/2
f 38/1/2 37/1/2 39/1/2
f 34/1/2 35/1/2 40/1/2
f 40/1/2 35/1/2 41/1/2
f 42/2/2 43/2/2 46/2/2
f 46/2/2 43/2/2 47/2/2
f 44/2/2 45/2/2 48/2/2
f 48/2/2 45/2/2 49/2/2
f 46/1/2 47/1/2 50/1/2
f 48/1/2 49/1/2 51/1/2
f 46/1/2 50/1/2 52/1/2
f 50/1/2 51/1/2 52/1/2
f 51/1/2 49/1/2 53/1/2
f 52/1/2 51/1/2 53/1/2
f 53/1/2 49/1/2 54/1/2
f 54/1/2 49/1/2 55/1/2
f 59/2/3 57/2/3 56/2/3
f 60/1/3 58/1/3 57/1/3
f 60/2/3 57/2/3 59/2/3
f 61/1/3 58/1/3 60/1/3
f 64/1/3 58/1/3 61/1/3
f 65/2/3 63/2/3 62/2/3
f 66/1/3 64/1/3 63/1/3
f 66/2/3 63/2/3 65/2/3
f 67/1/3 58/1/3 64/1/3
f 67/1/3 64/1/3 66/1/3
f 74/2/3 69/2/3 68/2/3
f 75/1/3 70/1/3 69/1/3
f 75/2/3 69/2/3 74/2/3
f 76/1/3 70/1/3 75/1/3
f 77/2/3 72/2/3 71/2/3
f 78/1/3 73/1/3 72/1/3
f 78/2/3 72/2/3 77/2/3
f 79/1/3 78/1/3 77/1/3
f 80/1/3 73/1/3 78/1/3
f 80/1/3 78/1/3 79/1/3
f 81/1/3 79/1/3 77/1/3
f 81/2/3 80/2/3 79/2/3
f 82/2/3 80/2/3 81/2/3
f 86/2/3 84/2/3 83/2/3
f 87/1/3 85/1/3 84/1/3
f 87/2/3 84/2/3 86/2/3
f 88/1/3 85/1/3 87/1/3
f 89/1/3 81/1/3 77/1/3
f 89/1/3 82/1/3 81/1/3
f 90/1/3 82/1/3 89/1/3
f 91/2/4 92/2/4 94/2/4
f 92/1/4 93/1/4 95/1/4
f 94/2/4 92/2/4 95/2/4
f 95/1/4 93/1/4 96/1/4
f 97/2/4 98/2/4 100/2/4
f 98/1/4 99/1/4 101/1/4
f 100/2/4 98/2/4 101/2/4
f 101/1/4 99/1/4 102/1/4
f 103/2/4 104/2/4 108/2/4
f 104/1/4 105/1/4 109/1/4
f 108/2/4 104/2/4 109/2/4
f 109/1/4 105/1/4 110/1/4
f 105/2/4 106/2/4 111/2/4
f 110/1/4 105/1/4 111/1/4
f 106/1/4 107/1/4 112/1/4
f 111/2/4 106/2/4 112/2/4
f 111/1/4 112/1/4 113/1/4
f 112/1/4 107/1/4 114/1/4
f 113/1/4 112/1/4 114/1/4
f 111/1/4 113/1/4 115/1/4
f 113/2/4 114/2/4 115/2/4
f 115/2/4 114/2/4 116/2/4
f 110/1/4 111/1/4 119/1/4
f 111/1/4 115/1/4 119/1/4
f 115/1/4 116/1/4 119/1/4
f 117/2/4 118/2/4 120/2/4
f 118/1/4 119/1/4 121/1/4
f 120/2/4 118/2/4 121/2/4
f 119/1/4 116/1/4 122/1/4
f 121/1/4 119/1/4 122/1/4
f 127/2/5 124/2/5 123/2/5
f 128/2/5 124/2/5 127/2/5
f 129/2/5 126/2/5 125/2/5
f 130/2/5 126/2/5 129/2/5
f 135/2/5 132/2/5 131/2/5
f 136/2/5 132/2/5 135/2/5
f 137/2/5 134/2/5 133/2/5
f 138/2/5 134/2/5 137/2/5
f 142/1/5 140/1/5 139/1/5
f 143/1/5 140/1/5 142/1/5
f 145/1/5 142/1/5 141/1/5
f 145/1/5 144/1/5 143/1/5
f 145/1/5 143/1/5 142/1/5
f 146/1/5 144/1/5 145/1/5
f 147/1/5 144/1/5 146/1/5
f 148/1/5 144/1/5 147/1/5
f 149/1/5 147/1/5 146/1/5
f 150/1/5 147/1/5 149/1/5
f 151/1/6 152/1/6 153/1/6
f 153/1/6 152/1/6 154/1/6
f 154/1/6 152/1/6 155/1/6
f 156/1/6 157/1/6 160/1/6
f 157/2/6 158/2/6 161/2/6
f 160/1/6 157/1/6 161/1/6
f 158/1/6 159/1/6 162/1/6
f 161/2/6 158/2/6 162/2/6
f 162/1/6 159/1/6 163/1/6
