# MagicaVoxel @ Ephtracy

# material
mtllib obj_stlight1.mtl
usemtl palette

# normals
vn -1 0 0
vn 1 0 0
vn 0 0 1
vn 0 0 -1
vn 0 -1 0
vn 0 1 0

# texcoords
vt 0.173828 0.5
vt 0.970703 0.5
vt 0.986328 0.5

# verts
v -19 30 2
v -19 30 -2
v -19 32 2
v -19 32 -2
v -7 29 1
v -7 29 -1
v -7 30 1
v -7 30 -1
v -2 0 2
v -2 0 -2
v -2 3 2
v -2 3 -2
v -1 3 1
v -1 3 -1
v -1 29 1
v -1 29 -1
v -1 31 1
v -1 31 -1
v -1 32 1
v -1 32 -1
v 14 30 2
v 14 30 1
v 14 30 -1
v 14 30 -2
v 14 31 1
v 14 31 -1
v 14 32 2
v 14 32 -2
v -14 30 2
v -14 30 1
v -14 30 -1
v -14 30 -2
v -14 31 1
v -14 31 -1
v -14 32 2
v -14 32 -2
v 1 3 1
v 1 3 -1
v 1 29 1
v 1 29 -1
v 1 31 1
v 1 31 -1
v 1 32 1
v 1 32 -1
v 2 0 2
v 2 0 -2
v 2 3 2
v 2 3 -2
v 7 29 1
v 7 29 -1
v 7 30 1
v 7 30 -1
v 19 30 2
v 19 30 -2
v 19 32 2
v 19 32 -2
v -19 30 2
v -19 32 2
v -14 30 2
v -14 32 2
v -2 0 2
v -2 3 2
v 2 0 2
v 2 3 2
v 14 30 2
v 14 32 2
v 19 30 2
v 19 32 2
v -14 30 1
v -14 31 1
v -7 29 1
v -7 30 1
v -1 3 1
v -1 29 1
v -1 31 1
v -1 32 1
v 1 3 1
v 1 29 1
v 1 31 1
v 1 32 1
v 7 29 1
v 7 30 1
v 14 30 1
v 14 31 1
v -14 30 -1
v -14 31 -1
v -7 29 -1
v -7 30 -1
v -1 3 -1
v -1 29 -1
v -1 31 -1
v -1 32 -1
v 1 3 -1
v 1 29 -1
v 1 31 -1
v 1 32 -1
v 7 29 -1
v 7 30 -1
v 14 30 -1
v 14 31 -1
v -19 30 -2
v -19 32 -2
v -14 30 -2
v -14 32 -2
v -2 0 -2
v -2 3 -2
v 2 0 -2
v 2 3 -2
v 14 30 -2
v 14 32 -2
v 19 30 -2
v 19 32 -2
v -2 0 2
v 2 0 2
v -2 0 -2
v 2 0 -2
v -7 29 1
v -1 29 1
v 1 29 1
v 7 29 1
v -7 29 -1
v -1 29 -1
v 1 29 -1
v 7 29 -1
v -19 30 2
v -14 30 2
v 14 30 2
v 19 30 2
v -18 30 1
v -15 30 1
v -14 30 1
v -7 30 1
v 7 30 1
v 14 30 1
v 15 30 1
v 18 30 1
v -18 30 -1
v -15 30 -1
v -14 30 -1
v -7 30 -1
v 7 30 -1
v 14 30 -1
v 15 30 -1
v 18 30 -1
v -19 30 -2
v -14 30 -2
v 14 30 -2
v 19 30 -2
v -2 3 2
v 2 3 2
v -1 3 1
v 1 3 1
v -1 3 -1
v 1 3 -1
v -2 3 -2
v 2 3 -2
v -14 31 1
v -1 31 1
v 1 31 1
v 14 31 1
v -14 31 -1
v -1 31 -1
v 1 31 -1
v 14 31 -1
v -19 32 2
v -14 32 2
v 14 32 2
v 19 32 2
v -1 32 1
v 1 32 1
v -1 32 -1
v 1 32 -1
v -19 32 -2
v -14 32 -2
v 14 32 -2
v 19 32 -2

# faces
f 3/3/1 2/3/1 1/3/1
f 4/3/1 2/3/1 3/3/1
f 7/2/1 6/2/1 5/2/1
f 8/2/1 6/2/1 7/2/1
f 11/2/1 10/2/1 9/2/1
f 12/2/1 10/2/1 11/2/1
f 15/2/1 14/2/1 13/2/1
f 16/2/1 14/2/1 15/2/1
f 19/2/1 18/2/1 17/2/1
f 20/2/1 18/2/1 19/2/1
f 25/3/1 22/3/1 21/3/1
f 26/3/1 24/3/1 23/3/1
f 27/3/1 25/3/1 21/3/1
f 27/3/1 26/3/1 25/3/1
f 28/3/1 24/3/1 26/3/1
f 28/3/1 26/3/1 27/3/1
f 29/3/2 30/3/2 33/3/2
f 31/3/2 32/3/2 34/3/2
f 29/3/2 33/3/2 35/3/2
f 33/3/2 34/3/2 35/3/2
f 34/3/2 32/3/2 36/3/2
f 35/3/2 34/3/2 36/3/2
f 37/2/2 38/2/2 39/2/2
f 39/2/2 38/2/2 40/2/2
f 41/2/2 42/2/2 43/2/2
f 43/2/2 42/2/2 44/2/2
f 45/2/2 46/2/2 47/2/2
f 47/2/2 46/2/2 48/2/2
f 49/2/2 50/2/2 51/2/2
f 51/2/2 50/2/2 52/2/2
f 53/3/2 54/3/2 55/3/2
f 55/3/2 54/3/2 56/3/2
f 59/3/3 58/3/3 57/3/3
f 60/3/3 58/3/3 59/3/3
f 63/2/3 62/2/3 61/2/3
f 64/2/3 62/2/3 63/2/3
f 67/3/3 66/3/3 65/3/3
f 68/3/3 66/3/3 67/3/3
f 72/2/3 70/2/3 69/2/3
f 74/2/3 72/2/3 71/2/3
f 75/2/3 70/2/3 72/2/3
f 75/2/3 72/2/3 74/2/3
f 77/2/3 74/2/3 73/2/3
f 77/2/3 76/2/3 75/2/3
f 77/2/3 75/2/3 74/2/3
f 78/2/3 76/2/3 77/2/3
f 79/2/3 76/2/3 78/2/3
f 80/2/3 76/2/3 79/2/3
f 81/2/3 79/2/3 78/2/3
f 82/2/3 79/2/3 81/2/3
f 83/2/3 79/2/3 82/2/3
f 84/2/3 79/2/3 83/2/3
f 85/2/4 86/2/4 88/2/4
f 87/2/4 88/2/4 90/2/4
f 88/2/4 86/2/4 91/2/4
f 90/2/4 88/2/4 91/2/4
f 89/2/4 90/2/4 93/2/4
f 91/2/4 92/2/4 93/2/4
f 90/2/4 91/2/4 93/2/4
f 93/2/4 92/2/4 94/2/4
f 94/2/4 92/2/4 95/2/4
f 95/2/4 92/2/4 96/2/4
f 94/2/4 95/2/4 97/2/4
f 97/2/4 95/2/4 98/2/4
f 98/2/4 95/2/4 99/2/4
f 99/2/4 95/2/4 100/2/4
f 101/3/4 102/3/4 103/3/4
f 103/3/4 102/3/4 104/3/4
f 105/2/4 106/2/4 107/2/4
f 107/2/4 106/2/4 108/2/4
f 109/3/4 110/3/4 111/3/4
f 111/3/4 110/3/4 112/3/4
f 115/2/5 114/2/5 113/2/5
f 116/2/5 114/2/5 115/2/5
f 121/2/5 118/2/5 117/2/5
f 122/2/5 118/2/5 121/2/5
f 123/2/5 120/2/5 119/2/5
f 124/2/5 120/2/5 123/2/5
f 129/3/5 126/3/5 125/3/5
f 130/3/5 126/3/5 129/3/5
f 131/3/5 126/3/5 130/3/5
f 134/3/5 128/3/5 127/3/5
f 135/3/5 128/3/5 134/3/5
f 136/3/5 128/3/5 135/3/5
f 137/3/5 129/3/5 125/3/5
f 137/1/5 130/1/5 129/1/5
f 138/3/5 131/3/5 130/3/5
f 138/1/5 130/1/5 137/1/5
f 139/2/5 132/2/5 131/2/5
f 139/3/5 131/3/5 138/3/5
f 140/2/5 132/2/5 139/2/5
f 141/2/5 134/2/5 133/2/5
f 142/3/5 135/3/5 134/3/5
f 142/2/5 134/2/5 141/2/5
f 143/1/5 136/1/5 135/1/5
f 143/3/5 135/3/5 142/3/5
f 144/3/5 128/3/5 136/3/5
f 144/1/5 136/1/5 143/1/5
f 145/3/5 138/3/5 137/3/5
f 145/3/5 137/3/5 125/3/5
f 145/3/5 139/3/5 138/3/5
f 146/3/5 139/3/5 145/3/5
f 147/3/5 143/3/5 142/3/5
f 147/3/5 144/3/5 143/3/5
f 148/3/5 128/3/5 144/3/5
f 148/3/5 144/3/5 147/3/5
f 149/2/6 150/2/6 151/2/6
f 151/2/6 150/2/6 152/2/6
f 149/2/6 151/2/6 153/2/6
f 152/2/6 150/2/6 154/2/6
f 149/2/6 153/2/6 155/2/6
f 153/2/6 154/2/6 155/2/6
f 154/2/6 150/2/6 156/2/6
f 155/2/6 154/2/6 156/2/6
f 157/2/6 158/2/6 161/2/6
f 161/2/6 158/2/6 162/2/6
f 159/2/6 160/2/6 163/2/6
f 163/2/6 160/2/6 164/2/6
f 169/2/6 170/2/6 171/2/6
f 171/2/6 170/2/6 172/2/6
f 165/3/6 166/3/6 173/3/6
f 173/3/6 166/3/6 174/3/6
f 167/3/6 168/3/6 175/3/6
f 175/3/6 168/3/6 176/3/6
