# MagicaVoxel @ Ephtracy

# material
mtllib obj_newsbox3.mtl
usemtl palette

# normals
vn -1 0 0
vn 1 0 0
vn 0 0 1
vn 0 0 -1
vn 0 -1 0
vn 0 1 0

# texcoords
vt 0.587891 0.5
vt 0.623047 0.5
vt 0.958984 0.5
vt 0.962891 0.5
vt 0.966797 0.5
vt 0.970703 0.5
vt 0.986328 0.5

# verts
v -4 5 2.5
v -4 5 -3.5
v -4 11 2.5
v -4 11 -3.5
v -2 0 1.5
v -2 0 -2.5
v -2 1 1.5
v -2 1 -2.5
v -1 1 0.5
v -1 1 -1.5
v -1 5 0.5
v -1 5 -1.5
v 3 6 2.5
v 3 6 1.5
v 3 6 -2.5
v 3 6 -3.5
v 3 8 3.5
v 3 8 2.5
v 3 10 3.5
v 3 10 2.5
v 3 10 1.5
v 3 10 -2.5
v 3 10 -3.5
v -3 6 2.5
v -3 6 1.5
v -3 6 -2.5
v -3 6 -3.5
v -3 10 2.5
v -3 10 1.5
v -3 10 -2.5
v -3 10 -3.5
v 1 1 0.5
v 1 1 -1.5
v 1 5 0.5
v 1 5 -1.5
v 2 0 1.5
v 2 0 -2.5
v 2 1 1.5
v 2 1 -2.5
v 4 5 2.5
v 4 5 -3.5
v 4 8 3.5
v 4 8 2.5
v 4 10 3.5
v 4 10 2.5
v 4 11 2.5
v 4 11 -3.5
v 3 8 3.5
v 3 10 3.5
v 4 8 3.5
v 4 10 3.5
v -4 5 2.5
v -4 11 2.5
v -3 6 2.5
v -3 10 2.5
v 3 6 2.5
v 3 8 2.5
v 3 10 2.5
v 4 5 2.5
v 4 8 2.5
v 4 10 2.5
v 4 11 2.5
v -3 6 1.5
v -3 10 1.5
v -2 0 1.5
v -2 1 1.5
v -2 6 1.5
v -2 7 1.5
v -2 8 1.5
v -2 9 1.5
v -1 6 1.5
v -1 7 1.5
v -1 8 1.5
v -1 9 1.5
v 2 0 1.5
v 2 1 1.5
v 2 6 1.5
v 2 8 1.5
v 2 9 1.5
v 3 6 1.5
v 3 10 1.5
v -1 1 0.5
v -1 5 0.5
v 1 1 0.5
v 1 5 0.5
v -1 1 -1.5
v -1 5 -1.5
v 1 1 -1.5
v 1 5 -1.5
v -3 6 -2.5
v -3 10 -2.5
v -2 0 -2.5
v -2 1 -2.5
v 2 0 -2.5
v 2 1 -2.5
v 3 6 -2.5
v 3 10 -2.5
v -4 5 -3.5
v -4 11 -3.5
v -3 6 -3.5
v -3 10 -3.5
v 3 6 -3.5
v 3 10 -3.5
v 4 5 -3.5
v 4 11 -3.5
v -2 0 1.5
v 2 0 1.5
v -2 0 -2.5
v 2 0 -2.5
v -4 5 2.5
v 4 5 2.5
v -1 5 0.5
v 1 5 0.5
v -1 5 -1.5
v 1 5 -1.5
v -4 5 -3.5
v 4 5 -3.5
v 3 8 3.5
v 4 8 3.5
v 3 8 2.5
v 4 8 2.5
v -3 10 2.5
v 3 10 2.5
v -3 10 1.5
v 3 10 1.5
v -3 10 -2.5
v 3 10 -2.5
v -3 10 -3.5
v 3 10 -3.5
v -2 1 1.5
v 2 1 1.5
v -1 1 0.5
v 1 1 0.5
v -1 1 -1.5
v 1 1 -1.5
v -2 1 -2.5
v 2 1 -2.5
v -3 6 2.5
v 3 6 2.5
v -3 6 1.5
v -2 6 1.5
v -1 6 1.5
v 2 6 1.5
v 3 6 1.5
v -3 6 -2.5
v 3 6 -2.5
v -3 6 -3.5
v 3 6 -3.5
v 3 10 3.5
v 4 10 3.5
v 3 10 2.5
v 4 10 2.5
v -4 11 2.5
v 4 11 2.5
v -4 11 -3.5
v 4 11 -3.5

# faces
f 3/1/1 2/1/1 1/1/1
f 4/1/1 2/1/1 3/1/1
f 7/7/1 6/7/1 5/7/1
f 8/7/1 6/7/1 7/7/1
f 11/7/1 10/7/1 9/7/1
f 12/7/1 10/7/1 11/7/1
f 18/1/1 14/1/1 13/1/1
f 19/6/1 18/6/1 17/6/1
f 20/1/1 14/1/1 18/1/1
f 20/6/1 18/6/1 19/6/1
f 21/1/1 14/1/1 20/1/1
f 22/1/1 16/1/1 15/1/1
f 23/1/1 16/1/1 22/1/1
f 24/1/2 25/1/2 28/1/2
f 28/1/2 25/1/2 29/1/2
f 26/1/2 27/1/2 30/1/2
f 30/1/2 27/1/2 31/1/2
f 32/7/2 33/7/2 34/7/2
f 34/7/2 33/7/2 35/7/2
f 36/7/2 37/7/2 38/7/2
f 38/7/2 37/7/2 39/7/2
f 40/1/2 41/1/2 43/1/2
f 42/6/2 43/6/2 44/6/2
f 43/1/2 41/1/2 45/1/2
f 44/6/2 43/6/2 45/6/2
f 45/1/2 41/1/2 46/1/2
f 46/1/2 41/1/2 47/1/2
f 50/6/3 49/6/3 48/6/3
f 51/6/3 49/6/3 50/6/3
f 54/1/3 53/1/3 52/1/3
f 55/1/3 53/1/3 54/1/3
f 56/1/3 54/1/3 52/1/3
f 58/1/3 53/1/3 55/1/3
f 59/1/3 57/1/3 56/1/3
f 59/1/3 56/1/3 52/1/3
f 60/1/3 57/1/3 59/1/3
f 61/1/3 53/1/3 58/1/3
f 62/1/3 53/1/3 61/1/3
f 67/7/3 64/7/3 63/7/3
f 68/7/3 64/7/3 67/7/3
f 69/7/3 64/7/3 68/7/3
f 70/7/3 64/7/3 69/7/3
f 71/3/3 68/3/3 67/3/3
f 72/5/3 69/5/3 68/5/3
f 72/3/3 68/3/3 71/3/3
f 73/4/3 70/4/3 69/4/3
f 73/5/3 69/5/3 72/5/3
f 74/7/3 64/7/3 70/7/3
f 74/4/3 70/4/3 73/4/3
f 75/7/3 66/7/3 65/7/3
f 76/7/3 66/7/3 75/7/3
f 77/4/3 73/4/3 72/4/3
f 77/4/3 72/4/3 71/4/3
f 78/2/3 74/2/3 73/2/3
f 78/4/3 73/4/3 77/4/3
f 79/7/3 64/7/3 74/7/3
f 79/2/3 74/2/3 78/2/3
f 80/7/3 78/7/3 77/7/3
f 80/7/3 79/7/3 78/7/3
f 81/7/3 64/7/3 79/7/3
f 81/7/3 79/7/3 80/7/3
f 84/7/3 83/7/3 82/7/3
f 85/7/3 83/7/3 84/7/3
f 86/7/4 87/7/4 88/7/4
f 88/7/4 87/7/4 89/7/4
f 92/7/4 93/7/4 94/7/4
f 94/7/4 93/7/4 95/7/4
f 90/7/4 91/7/4 96/7/4
f 96/7/4 91/7/4 97/7/4
f 98/1/4 99/1/4 100/1/4
f 100/1/4 99/1/4 101/1/4
f 98/1/4 100/1/4 102/1/4
f 101/1/4 99/1/4 103/1/4
f 98/1/4 102/1/4 104/1/4
f 102/1/4 103/1/4 104/1/4
f 103/1/4 99/1/4 105/1/4
f 104/1/4 103/1/4 105/1/4
f 108/7/5 107/7/5 106/7/5
f 109/7/5 107/7/5 108/7/5
f 112/1/5 111/1/5 110/1/5
f 113/1/5 111/1/5 112/1/5
f 114/1/5 112/1/5 110/1/5
f 115/1/5 111/1/5 113/1/5
f 116/1/5 114/1/5 110/1/5
f 116/1/5 115/1/5 114/1/5
f 117/1/5 111/1/5 115/1/5
f 117/1/5 115/1/5 116/1/5
f 120/6/5 119/6/5 118/6/5
f 121/6/5 119/6/5 120/6/5
f 124/1/5 123/1/5 122/1/5
f 125/1/5 123/1/5 124/1/5
f 128/1/5 127/1/5 126/1/5
f 129/1/5 127/1/5 128/1/5
f 130/7/6 131/7/6 132/7/6
f 132/7/6 131/7/6 133/7/6
f 130/7/6 132/7/6 134/7/6
f 133/7/6 131/7/6 135/7/6
f 130/7/6 134/7/6 136/7/6
f 134/7/6 135/7/6 136/7/6
f 135/7/6 131/7/6 137/7/6
f 136/7/6 135/7/6 137/7/6
f 138/1/6 139/1/6 140/1/6
f 140/1/6 139/1/6 141/1/6
f 141/1/6 139/1/6 142/1/6
f 142/1/6 139/1/6 143/1/6
f 143/1/6 139/1/6 144/1/6
f 145/1/6 146/1/6 147/1/6
f 147/1/6 146/1/6 148/1/6
f 149/6/6 150/6/6 151/6/6
f 151/6/6 150/6/6 152/6/6
f 153/1/6 154/1/6 155/1/6
f 155/1/6 154/1/6 156/1/6
