# MagicaVoxel @ Ephtracy

# material
mtllib obj_planter3b.mtl
usemtl palette

# normals
vn -1 0 0
vn 1 0 0
vn 0 0 1
vn 0 0 -1
vn 0 -1 0
vn 0 1 0

# texcoords
vt 0.0449219 0.5
vt 0.232422 0.5
vt 0.341797 0.5
vt 0.537109 0.5
vt 0.654297 0.5
vt 0.849609 0.5
vt 0.970703 0.5
vt 0.982422 0.5

# verts
v -5.5 0 2.5
v -5.5 0 -2.5
v -5.5 4 2.5
v -5.5 4 -2.5
v -5.5 5 2.5
v -5.5 5 -2.5
v -4.5 5 -0.5
v -4.5 5 -1.5
v -4.5 6 -0.5
v -4.5 6 -1.5
v -1.5 3 0.5
v -1.5 3 -0.5
v -1.5 5 0.5
v -1.5 5 -0.5
v -1.5 6 0.5
v -1.5 6 -0.5
v 0.5 3 -0.5
v 0.5 3 -1.5
v 0.5 4 -1.5
v 0.5 5 -0.5
v 0.5 5 -1.5
v 0.5 6 -0.5
v 0.5 6 -1.5
v 2.5 3 1.5
v 2.5 3 0.5
v 2.5 4 1.5
v 2.5 5 1.5
v 2.5 5 0.5
v 2.5 6 1.5
v 2.5 6 0.5
v 4.5 3 1.5
v 4.5 3 -1.5
v 4.5 4 1.5
v 4.5 4 -1.5
v 4.5 5 1.5
v 4.5 5 -1.5
v -4.5 3 1.5
v -4.5 3 -0.5
v -4.5 4 1.5
v -4.5 4 -0.5
v -4.5 5 1.5
v -4.5 5 -0.5
v -3.5 3 -0.5
v -3.5 3 -1.5
v -3.5 4 -1.5
v -3.5 5 -0.5
v -3.5 5 -1.5
v -3.5 6 -0.5
v -3.5 6 -1.5
v -0.5 3 0.5
v -0.5 3 -0.5
v -0.5 5 0.5
v -0.5 5 -0.5
v -0.5 6 0.5
v -0.5 6 -0.5
v 1.5 3 -0.5
v 1.5 3 -1.5
v 1.5 4 -1.5
v 1.5 5 -0.5
v 1.5 5 -1.5
v 1.5 6 -0.5
v 1.5 6 -1.5
v 3.5 3 1.5
v 3.5 3 0.5
v 3.5 4 1.5
v 3.5 5 1.5
v 3.5 5 0.5
v 3.5 6 1.5
v 3.5 6 0.5
v 5.5 0 2.5
v 5.5 0 -2.5
v 5.5 4 2.5
v 5.5 4 -2.5
v 5.5 5 2.5
v 5.5 5 -2.5
v -5.5 0 2.5
v -5.5 4 2.5
v -5.5 5 2.5
v 5.5 0 2.5
v 5.5 4 2.5
v 5.5 5 2.5
v 2.5 5 1.5
v 2.5 6 1.5
v 3.5 5 1.5
v 3.5 6 1.5
v -1.5 3 0.5
v -1.5 5 0.5
v -1.5 6 0.5
v -0.5 3 0.5
v -0.5 5 0.5
v -0.5 6 0.5
v -4.5 3 -0.5
v -4.5 4 -0.5
v -4.5 5 -0.5
v -4.5 6 -0.5
v -3.5 3 -0.5
v -3.5 5 -0.5
v -3.5 6 -0.5
v 0.5 3 -0.5
v 0.5 5 -0.5
v 0.5 6 -0.5
v 1.5 3 -0.5
v 1.5 5 -0.5
v 1.5 6 -0.5
v -3.5 3 -1.5
v -3.5 4 -1.5
v -3.5 5 -1.5
v 0.5 3 -1.5
v 0.5 4 -1.5
v 0.5 5 -1.5
v 1.5 3 -1.5
v 1.5 4 -1.5
v 1.5 5 -1.5
v 3.5 3 -1.5
v 4.5 3 -1.5
v 4.5 4 -1.5
v 4.5 5 -1.5
v -4.5 3 1.5
v -4.5 4 1.5
v -4.5 5 1.5
v -2.5 3 1.5
v -0.5 3 1.5
v 2.5 3 1.5
v 2.5 4 1.5
v 2.5 5 1.5
v 3.5 3 1.5
v 3.5 4 1.5
v 3.5 5 1.5
v 4.5 3 1.5
v 4.5 4 1.5
v 4.5 5 1.5
v 2.5 3 0.5
v 2.5 5 0.5
v 2.5 6 0.5
v 3.5 3 0.5
v 3.5 5 0.5
v 3.5 6 0.5
v -1.5 3 -0.5
v -1.5 5 -0.5
v -1.5 6 -0.5
v -0.5 3 -0.5
v -0.5 5 -0.5
v -0.5 6 -0.5
v -4.5 5 -1.5
v -4.5 6 -1.5
v -3.5 5 -1.5
v -3.5 6 -1.5
v 0.5 5 -1.5
v 0.5 6 -1.5
v 1.5 5 -1.5
v 1.5 6 -1.5
v -5.5 0 -2.5
v -5.5 4 -2.5
v -5.5 5 -2.5
v 5.5 0 -2.5
v 5.5 4 -2.5
v 5.5 5 -2.5
v -5.5 0 2.5
v 5.5 0 2.5
v -5.5 0 -2.5
v 5.5 0 -2.5
v -4.5 3 1.5
v -2.5 3 1.5
v -0.5 3 1.5
v 2.5 3 1.5
v 3.5 3 1.5
v 4.5 3 1.5
v -1.5 3 0.5
v -0.5 3 0.5
v 1.5 3 0.5
v 2.5 3 0.5
v 3.5 3 0.5
v -4.5 3 -0.5
v -3.5 3 -0.5
v -2.5 3 -0.5
v -1.5 3 -0.5
v -0.5 3 -0.5
v 0.5 3 -0.5
v 1.5 3 -0.5
v -3.5 3 -1.5
v 0.5 3 -1.5
v 1.5 3 -1.5
v 3.5 3 -1.5
v 4.5 3 -1.5
v -5.5 5 2.5
v 5.5 5 2.5
v -4.5 5 1.5
v 2.5 5 1.5
v 3.5 5 1.5
v 4.5 5 1.5
v -4.5 5 -0.5
v -4.5 5 -1.5
v -3.5 5 -1.5
v 0.5 5 -1.5
v 1.5 5 -1.5
v 4.5 5 -1.5
v -5.5 5 -2.5
v 5.5 5 -2.5
v 2.5 6 1.5
v 3.5 6 1.5
v -1.5 6 0.5
v -0.5 6 0.5
v 2.5 6 0.5
v 3.5 6 0.5
v -4.5 6 -0.5
v -3.5 6 -0.5
v -1.5 6 -0.5
v -0.5 6 -0.5
v 0.5 6 -0.5
v 1.5 6 -0.5
v -4.5 6 -1.5
v -3.5 6 -1.5
v 0.5 6 -1.5
v 1.5 6 -1.5

# faces
f 3/7/1 2/7/1 1/7/1
f 4/7/1 2/7/1 3/7/1
f 5/8/1 4/8/1 3/8/1
f 6/8/1 4/8/1 5/8/1
f 9/6/1 8/6/1 7/6/1
f 10/6/1 8/6/1 9/6/1
f 13/5/1 12/5/1 11/5/1
f 14/5/1 12/5/1 13/5/1
f 15/1/1 14/1/1 13/1/1
f 16/1/1 14/1/1 15/1/1
f 19/5/1 18/5/1 17/5/1
f 20/5/1 19/5/1 17/5/1
f 21/5/1 19/5/1 20/5/1
f 22/2/1 21/2/1 20/2/1
f 23/2/1 21/2/1 22/2/1
f 26/5/1 25/5/1 24/5/1
f 27/5/1 25/5/1 26/5/1
f 28/5/1 25/5/1 27/5/1
f 29/1/1 28/1/1 27/1/1
f 30/1/1 28/1/1 29/1/1
f 33/7/1 32/7/1 31/7/1
f 34/7/1 32/7/1 33/7/1
f 35/8/1 34/8/1 33/8/1
f 36/8/1 34/8/1 35/8/1
f 37/7/2 38/7/2 39/7/2
f 39/7/2 38/7/2 40/7/2
f 39/8/2 40/8/2 41/8/2
f 41/8/2 40/8/2 42/8/2
f 43/5/2 44/5/2 45/5/2
f 43/5/2 45/5/2 46/5/2
f 46/5/2 45/5/2 47/5/2
f 46/6/2 47/6/2 48/6/2
f 48/6/2 47/6/2 49/6/2
f 50/5/2 51/5/2 52/5/2
f 52/5/2 51/5/2 53/5/2
f 52/1/2 53/1/2 54/1/2
f 54/1/2 53/1/2 55/1/2
f 56/5/2 57/5/2 58/5/2
f 56/5/2 58/5/2 59/5/2
f 59/5/2 58/5/2 60/5/2
f 59/2/2 60/2/2 61/2/2
f 61/2/2 60/2/2 62/2/2
f 63/5/2 64/5/2 65/5/2
f 65/5/2 64/5/2 66/5/2
f 66/5/2 64/5/2 67/5/2
f 66/1/2 67/1/2 68/1/2
f 68/1/2 67/1/2 69/1/2
f 70/7/2 71/7/2 72/7/2
f 72/7/2 71/7/2 73/7/2
f 72/8/2 73/8/2 74/8/2
f 74/8/2 73/8/2 75/8/2
f 79/7/3 77/7/3 76/7/3
f 80/8/3 78/8/3 77/8/3
f 80/7/3 77/7/3 79/7/3
f 81/8/3 78/8/3 80/8/3
f 84/1/3 83/1/3 82/1/3
f 85/1/3 83/1/3 84/1/3
f 89/5/3 87/5/3 86/5/3
f 90/1/3 88/1/3 87/1/3
f 90/5/3 87/5/3 89/5/3
f 91/1/3 88/1/3 90/1/3
f 96/5/3 93/5/3 92/5/3
f 96/5/3 94/5/3 93/5/3
f 97/6/3 95/6/3 94/6/3
f 97/5/3 94/5/3 96/5/3
f 98/6/3 95/6/3 97/6/3
f 102/5/3 100/5/3 99/5/3
f 103/2/3 101/2/3 100/2/3
f 103/5/3 100/5/3 102/5/3
f 104/2/3 101/2/3 103/2/3
f 108/7/3 106/7/3 105/7/3
f 109/8/3 107/8/3 106/8/3
f 109/7/3 106/7/3 108/7/3
f 110/8/3 107/8/3 109/8/3
f 114/7/3 112/7/3 111/7/3
f 115/7/3 112/7/3 114/7/3
f 116/8/3 113/8/3 112/8/3
f 116/7/3 112/7/3 115/7/3
f 117/8/3 113/8/3 116/8/3
f 118/7/4 119/7/4 121/7/4
f 121/7/4 119/7/4 122/7/4
f 122/7/4 119/7/4 123/7/4
f 119/8/4 120/8/4 124/8/4
f 123/7/4 119/7/4 124/7/4
f 124/8/4 120/8/4 125/8/4
f 126/7/4 127/7/4 129/7/4
f 127/8/4 128/8/4 130/8/4
f 129/7/4 127/7/4 130/7/4
f 130/8/4 128/8/4 131/8/4
f 132/5/4 133/5/4 135/5/4
f 133/1/4 134/1/4 136/1/4
f 135/5/4 133/5/4 136/5/4
f 136/1/4 134/1/4 137/1/4
f 138/5/4 139/5/4 141/5/4
f 139/1/4 140/1/4 142/1/4
f 141/5/4 139/5/4 142/5/4
f 142/1/4 140/1/4 143/1/4
f 144/6/4 145/6/4 146/6/4
f 146/6/4 145/6/4 147/6/4
f 148/2/4 149/2/4 150/2/4
f 150/2/4 149/2/4 151/2/4
f 152/7/4 153/7/4 155/7/4
f 153/8/4 154/8/4 156/8/4
f 155/7/4 153/7/4 156/7/4
f 156/8/4 154/8/4 157/8/4
f 160/7/5 159/7/5 158/7/5
f 161/7/5 159/7/5 160/7/5
f 163/3/6 164/3/6 168/3/6
f 164/4/6 165/4/6 169/4/6
f 168/3/6 164/3/6 169/3/6
f 169/4/6 165/4/6 170/4/6
f 170/4/6 165/4/6 171/4/6
f 166/4/6 167/4/6 172/4/6
f 162/4/6 163/4/6 173/4/6
f 173/4/6 163/4/6 174/4/6
f 163/3/6 168/3/6 175/3/6
f 174/4/6 163/4/6 175/4/6
f 175/3/6 168/3/6 176/3/6
f 169/4/6 170/4/6 177/4/6
f 177/4/6 170/4/6 178/4/6
f 171/3/6 172/3/6 179/3/6
f 178/4/6 170/4/6 179/4/6
f 170/3/6 171/3/6 179/3/6
f 177/4/6 178/4/6 180/4/6
f 176/4/6 177/4/6 180/4/6
f 174/4/6 175/4/6 180/4/6
f 175/4/6 176/4/6 180/4/6
f 180/4/6 178/4/6 181/4/6
f 179/3/6 172/3/6 182/3/6
f 172/4/6 167/4/6 183/4/6
f 182/3/6 172/3/6 183/3/6
f 183/4/6 167/4/6 184/4/6
f 185/8/6 186/8/6 187/8/6
f 187/8/6 186/8/6 188/8/6
f 188/8/6 186/8/6 189/8/6
f 189/8/6 186/8/6 190/8/6
f 185/8/6 187/8/6 191/8/6
f 185/8/6 191/8/6 192/8/6
f 190/8/6 186/8/6 196/8/6
f 194/8/6 195/8/6 197/8/6
f 195/8/6 196/8/6 197/8/6
f 185/8/6 192/8/6 197/8/6
f 192/8/6 193/8/6 197/8/6
f 193/8/6 194/8/6 197/8/6
f 196/8/6 186/8/6 198/8/6
f 197/8/6 196/8/6 198/8/6
f 199/1/6 200/1/6 203/1/6
f 203/1/6 200/1/6 204/1/6
f 201/1/6 202/1/6 207/1/6
f 207/1/6 202/1/6 208/1/6
f 205/6/6 206/6/6 211/6/6
f 211/6/6 206/6/6 212/6/6
f 209/2/6 210/2/6 213/2/6
f 213/2/6 210/2/6 214/2/6
