# MagicaVoxel @ Ephtracy

# material
mtllib obj_planter1.mtl
usemtl palette

# normals
vn -1 0 0
vn 1 0 0
vn 0 0 1
vn 0 0 -1
vn 0 -1 0
vn 0 1 0

# texcoords
vt 0.341797 0.5
vt 0.466797 0.5
vt 0.970703 0.5
vt 0.982422 0.5

# verts
v -4 6 3
v -4 6 -3
v -4 7 4
v -4 7 3
v -4 7 -3
v -4 7 -4
v -4 8 -1
v -4 8 -2
v -4 9 2
v -4 9 1
v -4 9 -1
v -4 9 -2
v -4 10 2
v -4 10 1
v -4 12 4
v -4 12 3
v -4 12 -0
v -4 12 -1
v -4 12 -2
v -4 12 -4
v -4 13 3
v -4 13 -0
v -4 13 -1
v -4 13 -2
v -3 0 3
v -3 0 -2
v -3 4 3
v -3 4 -2
v -3 5 3
v -3 5 -2
v -3 6 4
v -3 6 3
v -3 6 -3
v -3 6 -4
v -3 7 4
v -3 7 3
v -3 7 -3
v -3 7 -4
v -3 8 -1
v -3 8 -2
v -3 9 2
v -3 9 1
v -3 9 -1
v -3 9 -2
v -3 10 2
v -3 10 1
v -3 12 -0
v -3 12 -1
v -3 12 -2
v -3 12 -4
v -3 13 -0
v -3 13 -1
v -3 13 -2
v -3 13 -4
v -2 12 4
v -2 12 3
v -2 13 4
v -2 13 3
v -1 1 1
v -1 1 -1
v -1 4 -1
v -1 5 -1
v -1 6 1
v -1 6 -1
v -1 12 -3
v -1 12 -4
v -1 13 -3
v -1 13 -4
v 0 8 4
v 0 8 3
v 0 9 4
v 0 9 3
v 0 9 -3
v 0 9 -4
v 0 10 -3
v 0 10 -4
v 2 1 2
v 2 1 -1
v 2 4 2
v 2 4 -1
v 2 5 2
v 2 5 -1
v 2 10 -3
v 2 10 -4
v 2 11 -3
v 2 11 -4
v 2 12 1
v 2 12 -0
v 2 13 1
v 2 13 -0
v 3 10 4
v 3 10 3
v 3 11 4
v 3 11 3
v -2 1 2
v -2 1 -1
v -2 4 2
v -2 4 -1
v -2 5 2
v -2 5 -1
v -2 12 -3
v -2 12 -4
v -2 13 -3
v -2 13 -4
v -1 8 4
v -1 8 3
v -1 9 4
v -1 9 3
v -1 9 -3
v -1 9 -4
v -1 10 -3
v -1 10 -4
v 1 1 1
v 1 1 -1
v 1 4 -1
v 1 5 -1
v 1 6 1
v 1 6 -1
v 1 10 -3
v 1 10 -4
v 1 11 -3
v 1 11 -4
v 1 12 1
v 1 12 -0
v 1 13 1
v 1 13 -0
v 2 10 4
v 2 10 3
v 2 11 4
v 2 11 3
v 3 0 3
v 3 0 -2
v 3 4 3
v 3 4 -2
v 3 5 3
v 3 5 -2
v 3 6 4
v 3 6 3
v 3 6 -3
v 3 6 -4
v 3 7 4
v 3 7 3
v 3 7 -3
v 3 7 -4
v 3 8 1
v 3 8 -0
v 3 9 1
v 3 9 -0
v 3 9 -2
v 3 9 -3
v 3 10 -2
v 3 10 -3
v 3 11 2
v 3 11 1
v 3 12 4
v 3 12 3
v 3 12 2
v 3 12 1
v 3 12 -3
v 3 12 -4
v 3 13 4
v 3 13 3
v 3 13 -3
v 3 13 -4
v 4 6 3
v 4 6 -3
v 4 7 4
v 4 7 3
v 4 7 -3
v 4 7 -4
v 4 8 1
v 4 8 -0
v 4 9 1
v 4 9 -0
v 4 9 -2
v 4 9 -3
v 4 10 -2
v 4 10 -3
v 4 11 2
v 4 11 1
v 4 12 4
v 4 12 3
v 4 12 2
v 4 12 1
v 4 12 -3
v 4 12 -4
v 4 13 3
v 4 13 -3
v -4 7 4
v -4 12 4
v -3 6 4
v -3 7 4
v -2 12 4
v -2 13 4
v -1 8 4
v -1 9 4
v 0 8 4
v 0 9 4
v 2 10 4
v 2 11 4
v 3 6 4
v 3 7 4
v 3 10 4
v 3 11 4
v 3 12 4
v 3 13 4
v 4 7 4
v 4 12 4
v -4 6 3
v -4 7 3
v -4 12 3
v -4 13 3
v -3 0 3
v -3 4 3
v -3 5 3
v -3 6 3
v -3 7 3
v -2 12 3
v -2 13 3
v -1 8 3
v -1 9 3
v 0 8 3
v 0 9 3
v 2 10 3
v 2 11 3
v 3 0 3
v 3 4 3
v 3 5 3
v 3 6 3
v 3 7 3
v 3 10 3
v 3 11 3
v 3 12 3
v 3 13 3
v 4 6 3
v 4 7 3
v 4 12 3
v 4 13 3
v -4 9 1
v -4 10 1
v -3 9 1
v -3 10 1
v -1 1 1
v -1 6 1
v 1 1 1
v 1 6 1
v 3 11 1
v 3 12 1
v 4 11 1
v 4 12 1
v 1 12 -0
v 1 13 -0
v 2 12 -0
v 2 13 -0
v 3 8 -0
v 3 9 -0
v 4 8 -0
v 4 9 -0
v -4 12 -1
v -4 13 -1
v -3 12 -1
v -3 13 -1
v -2 1 -1
v -2 4 -1
v -2 5 -1
v -1 1 -1
v -1 4 -1
v -1 5 -1
v 1 1 -1
v 1 4 -1
v 1 5 -1
v 2 1 -1
v 2 4 -1
v 2 5 -1
v -4 8 -2
v -4 9 -2
v -3 8 -2
v -3 9 -2
v 3 9 -3
v 3 10 -3
v 4 9 -3
v 4 10 -3
v -4 9 2
v -4 10 2
v -3 9 2
v -3 10 2
v -2 1 2
v -2 4 2
v -2 5 2
v 2 1 2
v 2 4 2
v 2 5 2
v 3 11 2
v 3 12 2
v 4 11 2
v 4 12 2
v 1 12 1
v 1 13 1
v 2 12 1
v 2 13 1
v 3 8 1
v 3 9 1
v 4 8 1
v 4 9 1
v -4 12 -0
v -4 13 -0
v -3 12 -0
v -3 13 -0
v -4 8 -1
v -4 9 -1
v -3 8 -1
v -3 9 -1
v -1 5 -1
v -1 6 -1
v 1 5 -1
v 1 6 -1
v -4 12 -2
v -4 13 -2
v -3 0 -2
v -3 4 -2
v -3 5 -2
v -3 12 -2
v -3 13 -2
v 3 0 -2
v 3 4 -2
v 3 5 -2
v 3 9 -2
v 3 10 -2
v 4 9 -2
v 4 10 -2
v -4 6 -3
v -4 7 -3
v -3 6 -3
v -3 7 -3
v -2 12 -3
v -2 13 -3
v -1 9 -3
v -1 10 -3
v -1 12 -3
v -1 13 -3
v 0 9 -3
v 0 10 -3
v 1 10 -3
v 1 11 -3
v 2 10 -3
v 2 11 -3
v 3 6 -3
v 3 7 -3
v 3 12 -3
v 3 13 -3
v 4 6 -3
v 4 7 -3
v 4 12 -3
v 4 13 -3
v -4 7 -4
v -4 12 -4
v -3 6 -4
v -3 7 -4
v -3 12 -4
v -3 13 -4
v -2 12 -4
v -2 13 -4
v -1 9 -4
v -1 10 -4
v -1 12 -4
v -1 13 -4
v 0 9 -4
v 0 10 -4
v 1 10 -4
v 1 11 -4
v 2 10 -4
v 2 11 -4
v 3 6 -4
v 3 7 -4
v 3 12 -4
v 3 13 -4
v 4 7 -4
v 4 12 -4
v -3 0 3
v 3 0 3
v -3 0 -2
v 3 0 -2
v -3 6 4
v 3 6 4
v -4 6 3
v -3 6 3
v 3 6 3
v 4 6 3
v -1 6 1
v 1 6 1
v -1 6 -1
v 1 6 -1
v -4 6 -3
v -3 6 -3
v 3 6 -3
v 4 6 -3
v -3 6 -4
v 3 6 -4
v -4 7 4
v -3 7 4
v 3 7 4
v 4 7 4
v -4 7 3
v -3 7 3
v 3 7 3
v 4 7 3
v -4 7 -3
v -3 7 -3
v 3 7 -3
v 4 7 -3
v -4 7 -4
v -3 7 -4
v 3 7 -4
v 4 7 -4
v -1 9 4
v 0 9 4
v -1 9 3
v 0 9 3
v 3 9 1
v 4 9 1
v 3 9 -0
v 4 9 -0
v -4 9 -1
v -3 9 -1
v -4 9 -2
v -3 9 -2
v -4 10 2
v -3 10 2
v -4 10 1
v -3 10 1
v 3 10 -2
v 4 10 -2
v -1 10 -3
v 0 10 -3
v 3 10 -3
v 4 10 -3
v -1 10 -4
v 0 10 -4
v 2 11 4
v 3 11 4
v 2 11 3
v 3 11 3
v 1 11 -3
v 2 11 -3
v 1 11 -4
v 2 11 -4
v 3 12 2
v 4 12 2
v 3 12 1
v 4 12 1
v -2 1 2
v 2 1 2
v -1 1 1
v 1 1 1
v -2 1 -1
v -1 1 -1
v 1 1 -1
v 2 1 -1
v -3 5 3
v 3 5 3
v -2 5 2
v 2 5 2
v -2 5 -1
v -1 5 -1
v 1 5 -1
v 2 5 -1
v -3 5 -2
v 3 5 -2
v -1 8 4
v 0 8 4
v -1 8 3
v 0 8 3
v 3 8 1
v 4 8 1
v 3 8 -0
v 4 8 -0
v -4 8 -1
v -3 8 -1
v -4 8 -2
v -3 8 -2
v -4 9 2
v -3 9 2
v -4 9 1
v -3 9 1
v 3 9 -2
v 4 9 -2
v -1 9 -3
v 0 9 -3
v 3 9 -3
v 4 9 -3
v -1 9 -4
v 0 9 -4
v 2 10 4
v 3 10 4
v 2 10 3
v 3 10 3
v 1 10 -3
v 2 10 -3
v 1 10 -4
v 2 10 -4
v 3 11 2
v 4 11 2
v 3 11 1
v 4 11 1
v -4 12 4
v -2 12 4
v 3 12 4
v 4 12 4
v -4 12 3
v -2 12 3
v 3 12 3
v 4 12 3
v 1 12 1
v 2 12 1
v -4 12 -0
v -3 12 -0
v 1 12 -0
v 2 12 -0
v -4 12 -1
v -3 12 -1
v -4 12 -2
v -3 12 -2
v -2 12 -3
v -1 12 -3
v 3 12 -3
v 4 12 -3
v -4 12 -4
v -3 12 -4
v -2 12 -4
v -1 12 -4
v 3 12 -4
v 4 12 -4
v -2 13 4
v 3 13 4
v -4 13 3
v -2 13 3
v 3 13 3
v 4 13 3
v 1 13 1
v 2 13 1
v -4 13 -0
v -3 13 -0
v 1 13 -0
v 2 13 -0
v -4 13 -1
v -3 13 -1
v -4 13 -2
v -3 13 -2
v -2 13 -3
v -1 13 -3
v 3 13 -3
v 4 13 -3
v -3 13 -4
v -2 13 -4
v -1 13 -4
v 3 13 -4

# faces
f 4/2/1 2/2/1 1/2/1
f 5/2/1 2/2/1 4/2/1
f 7/2/1 4/2/1 3/2/1
f 7/2/1 6/2/1 5/2/1
f 7/2/1 5/2/1 4/2/1
f 8/2/1 6/2/1 7/2/1
f 9/2/1 7/2/1 3/2/1
f 10/2/1 7/2/1 9/2/1
f 11/2/1 7/2/1 10/2/1
f 12/2/1 6/2/1 8/2/1
f 13/2/1 9/2/1 3/2/1
f 14/2/1 11/2/1 10/2/1
f 14/2/1 12/2/1 11/2/1
f 15/2/1 13/2/1 3/2/1
f 15/2/1 14/2/1 13/2/1
f 16/2/1 14/2/1 15/2/1
f 17/2/1 12/2/1 14/2/1
f 17/2/1 14/2/1 16/2/1
f 18/2/1 12/2/1 17/2/1
f 19/2/1 6/2/1 12/2/1
f 19/2/1 12/2/1 18/2/1
f 20/2/1 6/2/1 19/2/1
f 21/2/1 17/2/1 16/2/1
f 22/2/1 17/2/1 21/2/1
f 23/2/1 19/2/1 18/2/1
f 24/2/1 19/2/1 23/2/1
f 27/3/1 26/3/1 25/3/1
f 28/3/1 26/3/1 27/3/1
f 29/4/1 28/4/1 27/4/1
f 30/4/1 28/4/1 29/4/1
f 35/2/1 32/2/1 31/2/1
f 36/2/1 32/2/1 35/2/1
f 37/2/1 34/2/1 33/2/1
f 38/2/1 34/2/1 37/2/1
f 43/2/1 40/2/1 39/2/1
f 44/2/1 40/2/1 43/2/1
f 45/2/1 42/2/1 41/2/1
f 46/2/1 42/2/1 45/2/1
f 51/2/1 48/2/1 47/2/1
f 52/2/1 48/2/1 51/2/1
f 53/2/1 50/2/1 49/2/1
f 54/2/1 50/2/1 53/2/1
f 57/2/1 56/2/1 55/2/1
f 58/2/1 56/2/1 57/2/1
f 61/1/1 60/1/1 59/1/1
f 62/1/1 61/1/1 59/1/1
f 63/1/1 62/1/1 59/1/1
f 64/1/1 62/1/1 63/1/1
f 67/2/1 66/2/1 65/2/1
f 68/2/1 66/2/1 67/2/1
f 71/2/1 70/2/1 69/2/1
f 72/2/1 70/2/1 71/2/1
f 75/2/1 74/2/1 73/2/1
f 76/2/1 74/2/1 75/2/1
f 79/3/1 78/3/1 77/3/1
f 80/3/1 78/3/1 79/3/1
f 81/4/1 80/4/1 79/4/1
f 82/4/1 80/4/1 81/4/1
f 85/2/1 84/2/1 83/2/1
f 86/2/1 84/2/1 85/2/1
f 89/2/1 88/2/1 87/2/1
f 90/2/1 88/2/1 89/2/1
f 93/2/1 92/2/1 91/2/1
f 94/2/1 92/2/1 93/2/1
f 95/3/2 96/3/2 97/3/2
f 97/3/2 96/3/2 98/3/2
f 97/4/2 98/4/2 99/4/2
f 99/4/2 98/4/2 100/4/2
f 101/2/2 102/2/2 103/2/2
f 103/2/2 102/2/2 104/2/2
f 105/2/2 106/2/2 107/2/2
f 107/2/2 106/2/2 108/2/2
f 109/2/2 110/2/2 111/2/2
f 111/2/2 110/2/2 112/2/2
f 113/1/2 114/1/2 115/1/2
f 113/1/2 115/1/2 116/1/2
f 113/1/2 116/1/2 117/1/2
f 117/1/2 116/1/2 118/1/2
f 119/2/2 120/2/2 121/2/2
f 121/2/2 120/2/2 122/2/2
f 123/2/2 124/2/2 125/2/2
f 125/2/2 124/2/2 126/2/2
f 127/2/2 128/2/2 129/2/2
f 129/2/2 128/2/2 130/2/2
f 131/3/2 132/3/2 133/3/2
f 133/3/2 132/3/2 134/3/2
f 133/4/2 134/4/2 135/4/2
f 135/4/2 134/4/2 136/4/2
f 137/2/2 138/2/2 141/2/2
f 141/2/2 138/2/2 142/2/2
f 139/2/2 140/2/2 143/2/2
f 143/2/2 140/2/2 144/2/2
f 145/2/2 146/2/2 147/2/2
f 147/2/2 146/2/2 148/2/2
f 149/2/2 150/2/2 151/2/2
f 151/2/2 150/2/2 152/2/2
f 153/2/2 154/2/2 157/2/2
f 157/2/2 154/2/2 158/2/2
f 155/2/2 156/2/2 161/2/2
f 161/2/2 156/2/2 162/2/2
f 159/2/2 160/2/2 163/2/2
f 163/2/2 160/2/2 164/2/2
f 165/2/2 166/2/2 168/2/2
f 168/2/2 166/2/2 169/2/2
f 167/2/2 168/2/2 171/2/2
f 169/2/2 170/2/2 171/2/2
f 168/2/2 169/2/2 171/2/2
f 171/2/2 170/2/2 172/2/2
f 167/2/2 171/2/2 173/2/2
f 172/2/2 170/2/2 174/2/2
f 174/2/2 170/2/2 175/2/2
f 175/2/2 170/2/2 176/2/2
f 173/2/2 174/2/2 177/2/2
f 174/2/2 175/2/2 177/2/2
f 176/2/2 170/2/2 178/2/2
f 167/2/2 173/2/2 179/2/2
f 177/2/2 178/2/2 179/2/2
f 173/2/2 177/2/2 179/2/2
f 179/2/2 178/2/2 180/2/2
f 167/2/2 179/2/2 181/2/2
f 181/2/2 179/2/2 182/2/2
f 182/2/2 179/2/2 183/2/2
f 180/2/2 178/2/2 184/2/2
f 178/2/2 170/2/2 185/2/2
f 184/2/2 178/2/2 185/2/2
f 185/2/2 170/2/2 186/2/2
f 183/2/2 184/2/2 187/2/2
f 182/2/2 183/2/2 187/2/2
f 184/2/2 185/2/2 187/2/2
f 187/2/2 185/2/2 188/2/2
f 192/2/3 190/2/3 189/2/3
f 193/2/3 190/2/3 192/2/3
f 193/2/3 192/2/3 191/2/3
f 195/2/3 193/2/3 191/2/3
f 195/2/3 194/2/3 193/2/3
f 196/2/3 194/2/3 195/2/3
f 197/2/3 195/2/3 191/2/3
f 198/2/3 194/2/3 196/2/3
f 199/2/3 194/2/3 198/2/3
f 199/2/3 198/2/3 197/2/3
f 200/2/3 194/2/3 199/2/3
f 201/2/3 197/2/3 191/2/3
f 201/2/3 199/2/3 197/2/3
f 202/2/3 199/2/3 201/2/3
f 203/2/3 199/2/3 202/2/3
f 204/2/3 194/2/3 200/2/3
f 205/2/3 194/2/3 204/2/3
f 206/2/3 194/2/3 205/2/3
f 207/2/3 203/2/3 202/2/3
f 207/2/3 205/2/3 204/2/3
f 207/2/3 204/2/3 203/2/3
f 208/2/3 205/2/3 207/2/3
f 216/2/3 210/2/3 209/2/3
f 217/2/3 210/2/3 216/2/3
f 218/2/3 212/2/3 211/2/3
f 219/2/3 212/2/3 218/2/3
f 222/2/3 221/2/3 220/2/3
f 223/2/3 221/2/3 222/2/3
f 226/3/3 214/3/3 213/3/3
f 227/4/3 215/4/3 214/4/3
f 227/3/3 214/3/3 226/3/3
f 228/4/3 215/4/3 227/4/3
f 231/2/3 225/2/3 224/2/3
f 232/2/3 225/2/3 231/2/3
f 235/2/3 230/2/3 229/2/3
f 236/2/3 230/2/3 235/2/3
f 237/2/3 234/2/3 233/2/3
f 238/2/3 234/2/3 237/2/3
f 241/2/3 240/2/3 239/2/3
f 242/2/3 240/2/3 241/2/3
f 245/1/3 244/1/3 243/1/3
f 246/1/3 244/1/3 245/1/3
f 249/2/3 248/2/3 247/2/3
f 250/2/3 248/2/3 249/2/3
f 253/2/3 252/2/3 251/2/3
f 254/2/3 252/2/3 253/2/3
f 257/2/3 256/2/3 255/2/3
f 258/2/3 256/2/3 257/2/3
f 261/2/3 260/2/3 259/2/3
f 262/2/3 260/2/3 261/2/3
f 266/3/3 264/3/3 263/3/3
f 267/4/3 265/4/3 264/4/3
f 267/3/3 264/3/3 266/3/3
f 268/4/3 265/4/3 267/4/3
f 272/3/3 270/3/3 269/3/3
f 273/4/3 271/4/3 270/4/3
f 273/3/3 270/3/3 272/3/3
f 274/4/3 271/4/3 273/4/3
f 277/2/3 276/2/3 275/2/3
f 278/2/3 276/2/3 277/2/3
f 281/2/3 280/2/3 279/2/3
f 282/2/3 280/2/3 281/2/3
f 283/2/4 284/2/4 285/2/4
f 285/2/4 284/2/4 286/2/4
f 287/3/4 288/3/4 290/3/4
f 288/4/4 289/4/4 291/4/4
f 290/3/4 288/3/4 291/3/4
f 291/4/4 289/4/4 292/4/4
f 293/2/4 294/2/4 295/2/4
f 295/2/4 294/2/4 296/2/4
f 297/2/4 298/2/4 299/2/4
f 299/2/4 298/2/4 300/2/4
f 301/2/4 302/2/4 303/2/4
f 303/2/4 302/2/4 304/2/4
f 305/2/4 306/2/4 307/2/4
f 307/2/4 306/2/4 308/2/4
f 309/2/4 310/2/4 311/2/4
f 311/2/4 310/2/4 312/2/4
f 313/1/4 314/1/4 315/1/4
f 315/1/4 314/1/4 316/1/4
f 317/2/4 318/2/4 322/2/4
f 322/2/4 318/2/4 323/2/4
f 319/3/4 320/3/4 324/3/4
f 320/4/4 321/4/4 325/4/4
f 324/3/4 320/3/4 325/3/4
f 325/4/4 321/4/4 326/4/4
f 327/2/4 328/2/4 329/2/4
f 329/2/4 328/2/4 330/2/4
f 331/2/4 332/2/4 333/2/4
f 333/2/4 332/2/4 334/2/4
f 335/2/4 336/2/4 339/2/4
f 339/2/4 336/2/4 340/2/4
f 337/2/4 338/2/4 341/2/4
f 341/2/4 338/2/4 342/2/4
f 343/2/4 344/2/4 345/2/4
f 345/2/4 344/2/4 346/2/4
f 347/2/4 348/2/4 351/2/4
f 351/2/4 348/2/4 352/2/4
f 349/2/4 350/2/4 353/2/4
f 353/2/4 350/2/4 354/2/4
f 355/2/4 356/2/4 358/2/4
f 358/2/4 356/2/4 359/2/4
f 357/2/4 358/2/4 361/2/4
f 359/2/4 360/2/4 361/2/4
f 358/2/4 359/2/4 361/2/4
f 361/2/4 360/2/4 362/2/4
f 357/2/4 361/2/4 363/2/4
f 363/2/4 361/2/4 364/2/4
f 364/2/4 361/2/4 365/2/4
f 357/2/4 363/2/4 367/2/4
f 365/2/4 366/2/4 368/2/4
f 364/2/4 365/2/4 368/2/4
f 368/2/4 366/2/4 369/2/4
f 367/2/4 368/2/4 369/2/4
f 369/2/4 366/2/4 370/2/4
f 367/2/4 369/2/4 371/2/4
f 370/2/4 366/2/4 372/2/4
f 357/2/4 367/2/4 373/2/4
f 371/2/4 372/2/4 373/2/4
f 367/2/4 371/2/4 373/2/4
f 373/2/4 372/2/4 374/2/4
f 372/2/4 366/2/4 375/2/4
f 374/2/4 372/2/4 375/2/4
f 375/2/4 366/2/4 376/2/4
f 374/2/4 375/2/4 377/2/4
f 377/2/4 375/2/4 378/2/4
f 381/3/5 380/3/5 379/3/5
f 382/3/5 380/3/5 381/3/5
f 386/2/5 384/2/5 383/2/5
f 387/2/5 384/2/5 386/2/5
f 389/2/5 386/2/5 385/2/5
f 389/2/5 388/2/5 387/2/5
f 389/2/5 387/2/5 386/2/5
f 390/2/5 388/2/5 389/2/5
f 391/2/5 389/2/5 385/2/5
f 392/2/5 388/2/5 390/2/5
f 393/2/5 391/2/5 385/2/5
f 393/2/5 392/2/5 391/2/5
f 394/2/5 392/2/5 393/2/5
f 395/2/5 388/2/5 392/2/5
f 395/2/5 392/2/5 394/2/5
f 396/2/5 388/2/5 395/2/5
f 397/2/5 395/2/5 394/2/5
f 398/2/5 395/2/5 397/2/5
f 403/2/5 400/2/5 399/2/5
f 404/2/5 400/2/5 403/2/5
f 405/2/5 402/2/5 401/2/5
f 406/2/5 402/2/5 405/2/5
f 411/2/5 408/2/5 407/2/5
f 412/2/5 408/2/5 411/2/5
f 413/2/5 410/2/5 409/2/5
f 414/2/5 410/2/5 413/2/5
f 417/2/5 416/2/5 415/2/5
f 418/2/5 416/2/5 417/2/5
f 421/2/5 420/2/5 419/2/5
f 422/2/5 420/2/5 421/2/5
f 425/2/5 424/2/5 423/2/5
f 426/2/5 424/2/5 425/2/5
f 429/2/5 428/2/5 427/2/5
f 430/2/5 428/2/5 429/2/5
f 435/2/5 432/2/5 431/2/5
f 436/2/5 432/2/5 435/2/5
f 437/2/5 434/2/5 433/2/5
f 438/2/5 434/2/5 437/2/5
f 441/2/5 440/2/5 439/2/5
f 442/2/5 440/2/5 441/2/5
f 445/2/5 444/2/5 443/2/5
f 446/2/5 444/2/5 445/2/5
f 449/2/5 448/2/5 447/2/5
f 450/2/5 448/2/5 449/2/5
f 451/3/6 452/3/6 453/3/6
f 453/3/6 452/3/6 454/3/6
f 451/3/6 453/3/6 455/3/6
f 455/3/6 453/3/6 456/3/6
f 454/3/6 452/3/6 457/3/6
f 457/3/6 452/3/6 458/3/6
f 459/4/6 460/4/6 461/4/6
f 461/4/6 460/4/6 462/4/6
f 459/4/6 461/4/6 463/4/6
f 462/4/6 460/4/6 466/4/6
f 464/4/6 465/4/6 467/4/6
f 465/4/6 466/4/6 467/4/6
f 459/4/6 463/4/6 467/4/6
f 463/4/6 464/4/6 467/4/6
f 466/4/6 460/4/6 468/4/6
f 467/4/6 466/4/6 468/4/6
f 469/2/6 470/2/6 471/2/6
f 471/2/6 470/2/6 472/2/6
f 473/2/6 474/2/6 475/2/6
f 475/2/6 474/2/6 476/2/6
f 477/2/6 478/2/6 479/2/6
f 479/2/6 478/2/6 480/2/6
f 481/2/6 482/2/6 483/2/6
f 483/2/6 482/2/6 484/2/6
f 485/2/6 486/2/6 489/2/6
f 489/2/6 486/2/6 490/2/6
f 487/2/6 488/2/6 491/2/6
f 491/2/6 488/2/6 492/2/6
f 493/2/6 494/2/6 495/2/6
f 495/2/6 494/2/6 496/2/6
f 497/2/6 498/2/6 499/2/6
f 499/2/6 498/2/6 500/2/6
f 501/2/6 502/2/6 503/2/6
f 503/2/6 502/2/6 504/2/6
f 505/2/6 506/2/6 509/2/6
f 509/2/6 506/2/6 510/2/6
f 507/2/6 508/2/6 511/2/6
f 511/2/6 508/2/6 512/2/6
f 513/2/6 514/2/6 517/2/6
f 517/2/6 514/2/6 518/2/6
f 515/2/6 516/2/6 519/2/6
f 519/2/6 516/2/6 520/2/6
f 521/2/6 522/2/6 527/2/6
f 527/2/6 522/2/6 528/2/6
f 523/2/6 524/2/6 529/2/6
f 529/2/6 524/2/6 530/2/6
f 525/2/6 526/2/6 531/2/6
f 531/2/6 526/2/6 532/2/6
f 533/2/6 534/2/6 536/2/6
f 536/2/6 534/2/6 537/2/6
f 535/2/6 536/2/6 539/2/6
f 537/2/6 538/2/6 539/2/6
f 536/2/6 537/2/6 539/2/6
f 539/2/6 538/2/6 540/2/6
f 535/2/6 539/2/6 541/2/6
f 541/2/6 539/2/6 542/2/6
f 542/2/6 539/2/6 543/2/6
f 540/2/6 538/2/6 544/2/6
f 542/2/6 543/2/6 546/2/6
f 543/2/6 544/2/6 546/2/6
f 545/2/6 546/2/6 547/2/6
f 546/2/6 544/2/6 548/2/6
f 547/2/6 546/2/6 548/2/6
f 548/2/6 544/2/6 549/2/6
f 549/2/6 544/2/6 550/2/6
f 544/2/6 538/2/6 551/2/6
f 550/2/6 544/2/6 551/2/6
f 551/2/6 538/2/6 552/2/6
f 548/2/6 549/2/6 553/2/6
f 553/2/6 549/2/6 554/2/6
f 550/2/6 551/2/6 555/2/6
f 555/2/6 551/2/6 556/2/6
