# MagicaVoxel @ Ephtracy

# material
mtllib obj_tracks2.mtl
usemtl palette

# normals
vn -1 0 0
vn 1 0 0
vn 0 0 1
vn 0 0 -1
vn 0 -1 0
vn 0 1 0

# texcoords
vt 0.537109 0.5
vt 0.986328 0.5

# verts
v -15 0 8.5
v -15 0 -8.5
v -15 1 8.5
v -15 1 7.5
v -15 1 6.5
v -15 1 -6.5
v -15 1 -7.5
v -15 1 -8.5
v -15 2 7.5
v -15 2 6.5
v -15 2 -6.5
v -15 2 -7.5
v -12 0 8.5
v -12 0 -8.5
v -12 1 8.5
v -12 1 7.5
v -12 1 6.5
v -12 1 -6.5
v -12 1 -7.5
v -12 1 -8.5
v -9 0 8.5
v -9 0 -8.5
v -9 1 8.5
v -9 1 7.5
v -9 1 6.5
v -9 1 -6.5
v -9 1 -7.5
v -9 1 -8.5
v -6 0 8.5
v -6 0 -8.5
v -6 1 8.5
v -6 1 7.5
v -6 1 6.5
v -6 1 -6.5
v -6 1 -7.5
v -6 1 -8.5
v -3 0 8.5
v -3 0 -8.5
v -3 1 8.5
v -3 1 7.5
v -3 1 6.5
v -3 1 -6.5
v -3 1 -7.5
v -3 1 -8.5
v 0 0 8.5
v 0 0 -8.5
v 0 1 8.5
v 0 1 7.5
v 0 1 6.5
v 0 1 -6.5
v 0 1 -7.5
v 0 1 -8.5
v 3 0 8.5
v 3 0 -8.5
v 3 1 8.5
v 3 1 7.5
v 3 1 6.5
v 3 1 -6.5
v 3 1 -7.5
v 3 1 -8.5
v 6 0 8.5
v 6 0 -8.5
v 6 1 8.5
v 6 1 7.5
v 6 1 6.5
v 6 1 -6.5
v 6 1 -7.5
v 6 1 -8.5
v 9 0 8.5
v 9 0 -8.5
v 9 1 8.5
v 9 1 7.5
v 9 1 6.5
v 9 1 -6.5
v 9 1 -7.5
v 9 1 -8.5
v 12 0 8.5
v 12 0 -8.5
v 12 1 8.5
v 12 1 7.5
v 12 1 6.5
v 12 1 -6.5
v 12 1 -7.5
v 12 1 -8.5
v -13 0 8.5
v -13 0 -8.5
v -13 1 8.5
v -13 1 7.5
v -13 1 6.5
v -13 1 -6.5
v -13 1 -7.5
v -13 1 -8.5
v -10 0 8.5
v -10 0 -8.5
v -10 1 8.5
v -10 1 7.5
v -10 1 6.5
v -10 1 -6.5
v -10 1 -7.5
v -10 1 -8.5
v -7 0 8.5
v -7 0 -8.5
v -7 1 8.5
v -7 1 7.5
v -7 1 6.5
v -7 1 -6.5
v -7 1 -7.5
v -7 1 -8.5
v -4 0 8.5
v -4 0 -8.5
v -4 1 8.5
v -4 1 7.5
v -4 1 6.5
v -4 1 -6.5
v -4 1 -7.5
v -4 1 -8.5
v -1 0 8.5
v -1 0 -8.5
v -1 1 8.5
v -1 1 7.5
v -1 1 6.5
v -1 1 -6.5
v -1 1 -7.5
v -1 1 -8.5
v 2 0 8.5
v 2 0 -8.5
v 2 1 8.5
v 2 1 7.5
v 2 1 6.5
v 2 1 -6.5
v 2 1 -7.5
v 2 1 -8.5
v 5 0 8.5
v 5 0 -8.5
v 5 1 8.5
v 5 1 7.5
v 5 1 6.5
v 5 1 -6.5
v 5 1 -7.5
v 5 1 -8.5
v 8 0 8.5
v 8 0 -8.5
v 8 1 8.5
v 8 1 7.5
v 8 1 6.5
v 8 1 -6.5
v 8 1 -7.5
v 8 1 -8.5
v 11 0 8.5
v 11 0 -8.5
v 11 1 8.5
v 11 1 7.5
v 11 1 6.5
v 11 1 -6.5
v 11 1 -7.5
v 11 1 -8.5
v 14 0 8.5
v 14 0 -8.5
v 14 1 8.5
v 14 1 7.5
v 14 1 6.5
v 14 1 -6.5
v 14 1 -7.5
v 14 1 -8.5
v 15 1 7.5
v 15 1 6.5
v 15 1 -6.5
v 15 1 -7.5
v 15 2 7.5
v 15 2 6.5
v 15 2 -6.5
v 15 2 -7.5
v -15 0 8.5
v -15 1 8.5
v -13 0 8.5
v -13 1 8.5
v -12 0 8.5
v -12 1 8.5
v -10 0 8.5
v -10 1 8.5
v -9 0 8.5
v -9 1 8.5
v -7 0 8.5
v -7 1 8.5
v -6 0 8.5
v -6 1 8.5
v -4 0 8.5
v -4 1 8.5
v -3 0 8.5
v -3 1 8.5
v -1 0 8.5
v -1 1 8.5
v 0 0 8.5
v 0 1 8.5
v 2 0 8.5
v 2 1 8.5
v 3 0 8.5
v 3 1 8.5
v 5 0 8.5
v 5 1 8.5
v 6 0 8.5
v 6 1 8.5
v 8 0 8.5
v 8 1 8.5
v 9 0 8.5
v 9 1 8.5
v 11 0 8.5
v 11 1 8.5
v 12 0 8.5
v 12 1 8.5
v 14 0 8.5
v 14 1 8.5
v -15 1 7.5
v -15 2 7.5
v -13 1 7.5
v -12 1 7.5
v -10 1 7.5
v -9 1 7.5
v -7 1 7.5
v -6 1 7.5
v -4 1 7.5
v -3 1 7.5
v -1 1 7.5
v 0 1 7.5
v 2 1 7.5
v 3 1 7.5
v 5 1 7.5
v 6 1 7.5
v 8 1 7.5
v 9 1 7.5
v 11 1 7.5
v 12 1 7.5
v 14 1 7.5
v 15 1 7.5
v 15 2 7.5
v -15 1 -6.5
v -15 2 -6.5
v -13 1 -6.5
v -12 1 -6.5
v -10 1 -6.5
v -9 1 -6.5
v -7 1 -6.5
v -6 1 -6.5
v -4 1 -6.5
v -3 1 -6.5
v -1 1 -6.5
v 0 1 -6.5
v 2 1 -6.5
v 3 1 -6.5
v 5 1 -6.5
v 6 1 -6.5
v 8 1 -6.5
v 9 1 -6.5
v 11 1 -6.5
v 12 1 -6.5
v 14 1 -6.5
v 15 1 -6.5
v 15 2 -6.5
v -15 1 6.5
v -15 2 6.5
v -13 1 6.5
v -12 1 6.5
v -10 1 6.5
v -9 1 6.5
v -7 1 6.5
v -6 1 6.5
v -4 1 6.5
v -3 1 6.5
v -1 1 6.5
v 0 1 6.5
v 2 1 6.5
v 3 1 6.5
v 5 1 6.5
v 6 1 6.5
v 8 1 6.5
v 9 1 6.5
v 11 1 6.5
v 12 1 6.5
v 14 1 6.5
v 15 1 6.5
v 15 2 6.5
v -15 1 -7.5
v -15 2 -7.5
v -13 1 -7.5
v -12 1 -7.5
v -10 1 -7.5
v -9 1 -7.5
v -7 1 -7.5
v -6 1 -7.5
v -4 1 -7.5
v -3 1 -7.5
v -1 1 -7.5
v 0 1 -7.5
v 2 1 -7.5
v 3 1 -7.5
v 5 1 -7.5
v 6 1 -7.5
v 8 1 -7.5
v 9 1 -7.5
v 11 1 -7.5
v 12 1 -7.5
v 14 1 -7.5
v 15 1 -7.5
v 15 2 -7.5
v -15 0 -8.5
v -15 1 -8.5
v -13 0 -8.5
v -13 1 -8.5
v -12 0 -8.5
v -12 1 -8.5
v -10 0 -8.5
v -10 1 -8.5
v -9 0 -8.5
v -9 1 -8.5
v -7 0 -8.5
v -7 1 -8.5
v -6 0 -8.5
v -6 1 -8.5
v -4 0 -8.5
v -4 1 -8.5
v -3 0 -8.5
v -3 1 -8.5
v -1 0 -8.5
v -1 1 -8.5
v 0 0 -8.5
v 0 1 -8.5
v 2 0 -8.5
v 2 1 -8.5
v 3 0 -8.5
v 3 1 -8.5
v 5 0 -8.5
v 5 1 -8.5
v 6 0 -8.5
v 6 1 -8.5
v 8 0 -8.5
v 8 1 -8.5
v 9 0 -8.5
v 9 1 -8.5
v 11 0 -8.5
v 11 1 -8.5
v 12 0 -8.5
v 12 1 -8.5
v 14 0 -8.5
v 14 1 -8.5
v -15 0 8.5
v -13 0 8.5
v -12 0 8.5
v -10 0 8.5
v -9 0 8.5
v -7 0 8.5
v -6 0 8.5
v -4 0 8.5
v -3 0 8.5
v -1 0 8.5
v 0 0 8.5
v 2 0 8.5
v 3 0 8.5
v 5 0 8.5
v 6 0 8.5
v 8 0 8.5
v 9 0 8.5
v 11 0 8.5
v 12 0 8.5
v 14 0 8.5
v -15 0 -8.5
v -13 0 -8.5
v -12 0 -8.5
v -10 0 -8.5
v -9 0 -8.5
v -7 0 -8.5
v -6 0 -8.5
v -4 0 -8.5
v -3 0 -8.5
v -1 0 -8.5
v 0 0 -8.5
v 2 0 -8.5
v 3 0 -8.5
v 5 0 -8.5
v 6 0 -8.5
v 8 0 -8.5
v 9 0 -8.5
v 11 0 -8.5
v 12 0 -8.5
v 14 0 -8.5
v -13 1 7.5
v -12 1 7.5
v -10 1 7.5
v -9 1 7.5
v -7 1 7.5
v -6 1 7.5
v -4 1 7.5
v -3 1 7.5
v -1 1 7.5
v 0 1 7.5
v 2 1 7.5
v 3 1 7.5
v 5 1 7.5
v 6 1 7.5
v 8 1 7.5
v 9 1 7.5
v 11 1 7.5
v 12 1 7.5
v 14 1 7.5
v 15 1 7.5
v -13 1 6.5
v -12 1 6.5
v -10 1 6.5
v -9 1 6.5
v -7 1 6.5
v -6 1 6.5
v -4 1 6.5
v -3 1 6.5
v -1 1 6.5
v 0 1 6.5
v 2 1 6.5
v 3 1 6.5
v 5 1 6.5
v 6 1 6.5
v 8 1 6.5
v 9 1 6.5
v 11 1 6.5
v 12 1 6.5
v 14 1 6.5
v 15 1 6.5
v -13 1 -6.5
v -12 1 -6.5
v -10 1 -6.5
v -9 1 -6.5
v -7 1 -6.5
v -6 1 -6.5
v -4 1 -6.5
v -3 1 -6.5
v -1 1 -6.5
v 0 1 -6.5
v 2 1 -6.5
v 3 1 -6.5
v 5 1 -6.5
v 6 1 -6.5
v 8 1 -6.5
v 9 1 -6.5
v 11 1 -6.5
v 12 1 -6.5
v 14 1 -6.5
v 15 1 -6.5
v -13 1 -7.5
v -12 1 -7.5
v -10 1 -7.5
v -9 1 -7.5
v -7 1 -7.5
v -6 1 -7.5
v -4 1 -7.5
v -3 1 -7.5
v -1 1 -7.5
v 0 1 -7.5
v 2 1 -7.5
v 3 1 -7.5
v 5 1 -7.5
v 6 1 -7.5
v 8 1 -7.5
v 9 1 -7.5
v 11 1 -7.5
v 12 1 -7.5
v 14 1 -7.5
v 15 1 -7.5
v -15 1 8.5
v -13 1 8.5
v -12 1 8.5
v -10 1 8.5
v -9 1 8.5
v -7 1 8.5
v -6 1 8.5
v -4 1 8.5
v -3 1 8.5
v -1 1 8.5
v 0 1 8.5
v 2 1 8.5
v 3 1 8.5
v 5 1 8.5
v 6 1 8.5
v 8 1 8.5
v 9 1 8.5
v 11 1 8.5
v 12 1 8.5
v 14 1 8.5
v -15 1 7.5
v -13 1 7.5
v -12 1 7.5
v -10 1 7.5
v -9 1 7.5
v -7 1 7.5
v -6 1 7.5
v -4 1 7.5
v -3 1 7.5
v -1 1 7.5
v 0 1 7.5
v 2 1 7.5
v 3 1 7.5
v 5 1 7.5
v 6 1 7.5
v 8 1 7.5
v 9 1 7.5
v 11 1 7.5
v 12 1 7.5
v 14 1 7.5
v -15 1 6.5
v -13 1 6.5
v -12 1 6.5
v -10 1 6.5
v -9 1 6.5
v -7 1 6.5
v -6 1 6.5
v -4 1 6.5
v -3 1 6.5
v -1 1 6.5
v 0 1 6.5
v 2 1 6.5
v 3 1 6.5
v 5 1 6.5
v 6 1 6.5
v 8 1 6.5
v 9 1 6.5
v 11 1 6.5
v 12 1 6.5
v 14 1 6.5
v -15 1 -6.5
v -13 1 -6.5
v -12 1 -6.5
v -10 1 -6.5
v -9 1 -6.5
v -7 1 -6.5
v -6 1 -6.5
v -4 1 -6.5
v -3 1 -6.5
v -1 1 -6.5
v 0 1 -6.5
v 2 1 -6.5
v 3 1 -6.5
v 5 1 -6.5
v 6 1 -6.5
v 8 1 -6.5
v 9 1 -6.5
v 11 1 -6.5
v 12 1 -6.5
v 14 1 -6.5
v -15 1 -7.5
v -13 1 -7.5
v -12 1 -7.5
v -10 1 -7.5
v -9 1 -7.5
v -7 1 -7.5
v -6 1 -7.5
v -4 1 -7.5
v -3 1 -7.5
v -1 1 -7.5
v 0 1 -7.5
v 2 1 -7.5
v 3 1 -7.5
v 5 1 -7.5
v 6 1 -7.5
v 8 1 -7.5
v 9 1 -7.5
v 11 1 -7.5
v 12 1 -7.5
v 14 1 -7.5
v -15 1 -8.5
v -13 1 -8.5
v -12 1 -8.5
v -10 1 -8.5
v -9 1 -8.5
v -7 1 -8.5
v -6 1 -8.5
v -4 1 -8.5
v -3 1 -8.5
v -1 1 -8.5
v 0 1 -8.5
v 2 1 -8.5
v 3 1 -8.5
v 5 1 -8.5
v 6 1 -8.5
v 8 1 -8.5
v 9 1 -8.5
v 11 1 -8.5
v 12 1 -8.5
v 14 1 -8.5
v -15 2 7.5
v 15 2 7.5
v -15 2 6.5
v 15 2 6.5
v -15 2 -6.5
v 15 2 -6.5
v -15 2 -7.5
v 15 2 -7.5

# faces
f 3/1/1 2/1/1 1/1/1
f 4/1/1 2/1/1 3/1/1
f 5/1/1 2/1/1 4/1/1
f 6/1/1 2/1/1 5/1/1
f 7/1/1 2/1/1 6/1/1
f 8/1/1 2/1/1 7/1/1
f 9/2/1 5/2/1 4/2/1
f 10/2/1 5/2/1 9/2/1
f 11/2/1 7/2/1 6/2/1
f 12/2/1 7/2/1 11/2/1
f 15/1/1 14/1/1 13/1/1
f 16/1/1 14/1/1 15/1/1
f 17/1/1 14/1/1 16/1/1
f 18/1/1 14/1/1 17/1/1
f 19/1/1 14/1/1 18/1/1
f 20/1/1 14/1/1 19/1/1
f 23/1/1 22/1/1 21/1/1
f 24/1/1 22/1/1 23/1/1
f 25/1/1 22/1/1 24/1/1
f 26/1/1 22/1/1 25/1/1
f 27/1/1 22/1/1 26/1/1
f 28/1/1 22/1/1 27/1/1
f 31/1/1 30/1/1 29/1/1
f 32/1/1 30/1/1 31/1/1
f 33/1/1 30/1/1 32/1/1
f 34/1/1 30/1/1 33/1/1
f 35/1/1 30/1/1 34/1/1
f 36/1/1 30/1/1 35/1/1
f 39/1/1 38/1/1 37/1/1
f 40/1/1 38/1/1 39/1/1
f 41/1/1 38/1/1 40/1/1
f 42/1/1 38/1/1 41/1/1
f 43/1/1 38/1/1 42/1/1
f 44/1/1 38/1/1 43/1/1
f 47/1/1 46/1/1 45/1/1
f 48/1/1 46/1/1 47/1/1
f 49/1/1 46/1/1 48/1/1
f 50/1/1 46/1/1 49/1/1
f 51/1/1 46/1/1 50/1/1
f 52/1/1 46/1/1 51/1/1
f 55/1/1 54/1/1 53/1/1
f 56/1/1 54/1/1 55/1/1
f 57/1/1 54/1/1 56/1/1
f 58/1/1 54/1/1 57/1/1
f 59/1/1 54/1/1 58/1/1
f 60/1/1 54/1/1 59/1/1
f 63/1/1 62/1/1 61/1/1
f 64/1/1 62/1/1 63/1/1
f 65/1/1 62/1/1 64/1/1
f 66/1/1 62/1/1 65/1/1
f 67/1/1 62/1/1 66/1/1
f 68/1/1 62/1/1 67/1/1
f 71/1/1 70/1/1 69/1/1
f 72/1/1 70/1/1 71/1/1
f 73/1/1 70/1/1 72/1/1
f 74/1/1 70/1/1 73/1/1
f 75/1/1 70/1/1 74/1/1
f 76/1/1 70/1/1 75/1/1
f 79/1/1 78/1/1 77/1/1
f 80/1/1 78/1/1 79/1/1
f 81/1/1 78/1/1 80/1/1
f 82/1/1 78/1/1 81/1/1
f 83/1/1 78/1/1 82/1/1
f 84/1/1 78/1/1 83/1/1
f 85/1/2 86/1/2 87/1/2
f 87/1/2 86/1/2 88/1/2
f 88/1/2 86/1/2 89/1/2
f 89/1/2 86/1/2 90/1/2
f 90/1/2 86/1/2 91/1/2
f 91/1/2 86/1/2 92/1/2
f 93/1/2 94/1/2 95/1/2
f 95/1/2 94/1/2 96/1/2
f 96/1/2 94/1/2 97/1/2
f 97/1/2 94/1/2 98/1/2
f 98/1/2 94/1/2 99/1/2
f 99/1/2 94/1/2 100/1/2
f 101/1/2 102/1/2 103/1/2
f 103/1/2 102/1/2 104/1/2
f 104/1/2 102/1/2 105/1/2
f 105/1/2 102/1/2 106/1/2
f 106/1/2 102/1/2 107/1/2
f 107/1/2 102/1/2 108/1/2
f 109/1/2 110/1/2 111/1/2
f 111/1/2 110/1/2 112/1/2
f 112/1/2 110/1/2 113/1/2
f 113/1/2 110/1/2 114/1/2
f 114/1/2 110/1/2 115/1/2
f 115/1/2 110/1/2 116/1/2
f 117/1/2 118/1/2 119/1/2
f 119/1/2 118/1/2 120/1/2
f 120/1/2 118/1/2 121/1/2
f 121/1/2 118/1/2 122/1/2
f 122/1/2 118/1/2 123/1/2
f 123/1/2 118/1/2 124/1/2
f 125/1/2 126/1/2 127/1/2
f 127/1/2 126/1/2 128/1/2
f 128/1/2 126/1/2 129/1/2
f 129/1/2 126/1/2 130/1/2
f 130/1/2 126/1/2 131/1/2
f 131/1/2 126/1/2 132/1/2
f 133/1/2 134/1/2 135/1/2
f 135/1/2 134/1/2 136/1/2
f 136/1/2 134/1/2 137/1/2
f 137/1/2 134/1/2 138/1/2
f 138/1/2 134/1/2 139/1/2
f 139/1/2 134/1/2 140/1/2
f 141/1/2 142/1/2 143/1/2
f 143/1/2 142/1/2 144/1/2
f 144/1/2 142/1/2 145/1/2
f 145/1/2 142/1/2 146/1/2
f 146/1/2 142/1/2 147/1/2
f 147/1/2 142/1/2 148/1/2
f 149/1/2 150/1/2 151/1/2
f 151/1/2 150/1/2 152/1/2
f 152/1/2 150/1/2 153/1/2
f 153/1/2 150/1/2 154/1/2
f 154/1/2 150/1/2 155/1/2
f 155/1/2 150/1/2 156/1/2
f 157/1/2 158/1/2 159/1/2
f 159/1/2 158/1/2 160/1/2
f 160/1/2 158/1/2 161/1/2
f 161/1/2 158/1/2 162/1/2
f 162/1/2 158/1/2 163/1/2
f 163/1/2 158/1/2 164/1/2
f 165/2/2 166/2/2 169/2/2
f 169/2/2 166/2/2 170/2/2
f 167/2/2 168/2/2 171/2/2
f 171/2/2 168/2/2 172/2/2
f 175/1/3 174/1/3 173/1/3
f 176/1/3 174/1/3 175/1/3
f 179/1/3 178/1/3 177/1/3
f 180/1/3 178/1/3 179/1/3
f 183/1/3 182/1/3 181/1/3
f 184/1/3 182/1/3 183/1/3
f 187/1/3 186/1/3 185/1/3
f 188/1/3 186/1/3 187/1/3
f 191/1/3 190/1/3 189/1/3
f 192/1/3 190/1/3 191/1/3
f 195/1/3 194/1/3 193/1/3
f 196/1/3 194/1/3 195/1/3
f 199/1/3 198/1/3 197/1/3
f 200/1/3 198/1/3 199/1/3
f 203/1/3 202/1/3 201/1/3
f 204/1/3 202/1/3 203/1/3
f 207/1/3 206/1/3 205/1/3
f 208/1/3 206/1/3 207/1/3
f 211/1/3 210/1/3 209/1/3
f 212/1/3 210/1/3 211/1/3
f 215/2/3 214/2/3 213/2/3
f 216/2/3 214/2/3 215/2/3
f 217/2/3 214/2/3 216/2/3
f 218/2/3 214/2/3 217/2/3
f 219/2/3 214/2/3 218/2/3
f 220/2/3 214/2/3 219/2/3
f 221/2/3 214/2/3 220/2/3
f 222/2/3 214/2/3 221/2/3
f 223/2/3 214/2/3 222/2/3
f 224/2/3 214/2/3 223/2/3
f 225/2/3 214/2/3 224/2/3
f 226/2/3 214/2/3 225/2/3
f 227/2/3 214/2/3 226/2/3
f 228/2/3 214/2/3 227/2/3
f 229/2/3 214/2/3 228/2/3
f 230/2/3 214/2/3 229/2/3
f 231/2/3 214/2/3 230/2/3
f 232/2/3 214/2/3 231/2/3
f 233/2/3 214/2/3 232/2/3
f 234/2/3 214/2/3 233/2/3
f 235/2/3 214/2/3 234/2/3
f 238/2/3 237/2/3 236/2/3
f 239/2/3 237/2/3 238/2/3
f 240/2/3 237/2/3 239/2/3
f 241/2/3 237/2/3 240/2/3
f 242/2/3 237/2/3 241/2/3
f 243/2/3 237/2/3 242/2/3
f 244/2/3 237/2/3 243/2/3
f 245/2/3 237/2/3 244/2/3
f 246/2/3 237/2/3 245/2/3
f 247/2/3 237/2/3 246/2/3
f 248/2/3 237/2/3 247/2/3
f 249/2/3 237/2/3 248/2/3
f 250/2/3 237/2/3 249/2/3
f 251/2/3 237/2/3 250/2/3
f 252/2/3 237/2/3 251/2/3
f 253/2/3 237/2/3 252/2/3
f 254/2/3 237/2/3 253/2/3
f 255/2/3 237/2/3 254/2/3
f 256/2/3 237/2/3 255/2/3
f 257/2/3 237/2/3 256/2/3
f 258/2/3 237/2/3 257/2/3
f 259/2/4 260/2/4 261/2/4
f 261/2/4 260/2/4 262/2/4
f 262/2/4 260/2/4 263/2/4
f 263/2/4 260/2/4 264/2/4
f 264/2/4 260/2/4 265/2/4
f 265/2/4 260/2/4 266/2/4
f 266/2/4 260/2/4 267/2/4
f 267/2/4 260/2/4 268/2/4
f 268/2/4 260/2/4 269/2/4
f 269/2/4 260/2/4 270/2/4
f 270/2/4 260/2/4 271/2/4
f 271/2/4 260/2/4 272/2/4
f 272/2/4 260/2/4 273/2/4
f 273/2/4 260/2/4 274/2/4
f 274/2/4 260/2/4 275/2/4
f 275/2/4 260/2/4 276/2/4
f 276/2/4 260/2/4 277/2/4
f 277/2/4 260/2/4 278/2/4
f 278/2/4 260/2/4 279/2/4
f 279/2/4 260/2/4 280/2/4
f 280/2/4 260/2/4 281/2/4
f 282/2/4 283/2/4 284/2/4
f 284/2/4 283/2/4 285/2/4
f 285/2/4 283/2/4 286/2/4
f 286/2/4 283/2/4 287/2/4
f 287/2/4 283/2/4 288/2/4
f 288/2/4 283/2/4 289/2/4
f 289/2/4 283/2/4 290/2/4
f 290/2/4 283/2/4 291/2/4
f 291/2/4 283/2/4 292/2/4
f 292/2/4 283/2/4 293/2/4
f 293/2/4 283/2/4 294/2/4
f 294/2/4 283/2/4 295/2/4
f 295/2/4 283/2/4 296/2/4
f 296/2/4 283/2/4 297/2/4
f 297/2/4 283/2/4 298/2/4
f 298/2/4 283/2/4 299/2/4
f 299/2/4 283/2/4 300/2/4
f 300/2/4 283/2/4 301/2/4
f 301/2/4 283/2/4 302/2/4
f 302/2/4 283/2/4 303/2/4
f 303/2/4 283/2/4 304/2/4
f 305/1/4 306/1/4 307/1/4
f 307/1/4 306/1/4 308/1/4
f 309/1/4 310/1/4 311/1/4
f 311/1/4 310/1/4 312/1/4
f 313/1/4 314/1/4 315/1/4
f 315/1/4 314/1/4 316/1/4
f 317/1/4 318/1/4 319/1/4
f 319/1/4 318/1/4 320/1/4
f 321/1/4 322/1/4 323/1/4
f 323/1/4 322/1/4 324/1/4
f 325/1/4 326/1/4 327/1/4
f 327/1/4 326/1/4 328/1/4
f 329/1/4 330/1/4 331/1/4
f 331/1/4 330/1/4 332/1/4
f 333/1/4 334/1/4 335/1/4
f 335/1/4 334/1/4 336/1/4
f 337/1/4 338/1/4 339/1/4
f 339/1/4 338/1/4 340/1/4
f 341/1/4 342/1/4 343/1/4
f 343/1/4 342/1/4 344/1/4
f 365/1/5 346/1/5 345/1/5
f 366/1/5 346/1/5 365/1/5
f 367/1/5 348/1/5 347/1/5
f 368/1/5 348/1/5 367/1/5
f 369/1/5 350/1/5 349/1/5
f 370/1/5 350/1/5 369/1/5
f 371/1/5 352/1/5 351/1/5
f 372/1/5 352/1/5 371/1/5
f 373/1/5 354/1/5 353/1/5
f 374/1/5 354/1/5 373/1/5
f 375/1/5 356/1/5 355/1/5
f 376/1/5 356/1/5 375/1/5
f 377/1/5 358/1/5 357/1/5
f 378/1/5 358/1/5 377/1/5
f 379/1/5 360/1/5 359/1/5
f 380/1/5 360/1/5 379/1/5
f 381/1/5 362/1/5 361/1/5
f 382/1/5 362/1/5 381/1/5
f 383/1/5 364/1/5 363/1/5
f 384/1/5 364/1/5 383/1/5
f 405/2/5 386/2/5 385/2/5
f 406/2/5 386/2/5 405/2/5
f 407/2/5 388/2/5 387/2/5
f 408/2/5 388/2/5 407/2/5
f 409/2/5 390/2/5 389/2/5
f 410/2/5 390/2/5 409/2/5
f 411/2/5 392/2/5 391/2/5
f 412/2/5 392/2/5 411/2/5
f 413/2/5 394/2/5 393/2/5
f 414/2/5 394/2/5 413/2/5
f 415/2/5 396/2/5 395/2/5
f 416/2/5 396/2/5 415/2/5
f 417/2/5 398/2/5 397/2/5
f 418/2/5 398/2/5 417/2/5
f 419/2/5 400/2/5 399/2/5
f 420/2/5 400/2/5 419/2/5
f 421/2/5 402/2/5 401/2/5
f 422/2/5 402/2/5 421/2/5
f 423/2/5 404/2/5 403/2/5
f 424/2/5 404/2/5 423/2/5
f 445/2/5 426/2/5 425/2/5
f 446/2/5 426/2/5 445/2/5
f 447/2/5 428/2/5 427/2/5
f 448/2/5 428/2/5 447/2/5
f 449/2/5 430/2/5 429/2/5
f 450/2/5 430/2/5 449/2/5
f 451/2/5 432/2/5 431/2/5
f 452/2/5 432/2/5 451/2/5
f 453/2/5 434/2/5 433/2/5
f 454/2/5 434/2/5 453/2/5
f 455/2/5 436/2/5 435/2/5
f 456/2/5 436/2/5 455/2/5
f 457/2/5 438/2/5 437/2/5
f 458/2/5 438/2/5 457/2/5
f 459/2/5 440/2/5 439/2/5
f 460/2/5 440/2/5 459/2/5
f 461/2/5 442/2/5 441/2/5
f 462/2/5 442/2/5 461/2/5
f 463/2/5 444/2/5 443/2/5
f 464/2/5 444/2/5 463/2/5
f 465/1/6 466/1/6 485/1/6
f 485/1/6 466/1/6 486/1/6
f 467/1/6 468/1/6 487/1/6
f 487/1/6 468/1/6 488/1/6
f 469/1/6 470/1/6 489/1/6
f 489/1/6 470/1/6 490/1/6
f 471/1/6 472/1/6 491/1/6
f 491/1/6 472/1/6 492/1/6
f 473/1/6 474/1/6 493/1/6
f 493/1/6 474/1/6 494/1/6
f 475/1/6 476/1/6 495/1/6
f 495/1/6 476/1/6 496/1/6
f 477/1/6 478/1/6 497/1/6
f 497/1/6 478/1/6 498/1/6
f 479/1/6 480/1/6 499/1/6
f 499/1/6 480/1/6 500/1/6
f 481/1/6 482/1/6 501/1/6
f 501/1/6 482/1/6 502/1/6
f 483/1/6 484/1/6 503/1/6
f 503/1/6 484/1/6 504/1/6
f 505/1/6 506/1/6 525/1/6
f 525/1/6 506/1/6 526/1/6
f 507/1/6 508/1/6 527/1/6
f 527/1/6 508/1/6 528/1/6
f 509/1/6 510/1/6 529/1/6
f 529/1/6 510/1/6 530/1/6
f 511/1/6 512/1/6 531/1/6
f 531/1/6 512/1/6 532/1/6
f 513/1/6 514/1/6 533/1/6
f 533/1/6 514/1/6 534/1/6
f 515/1/6 516/1/6 535/1/6
f 535/1/6 516/1/6 536/1/6
f 517/1/6 518/1/6 537/1/6
f 537/1/6 518/1/6 538/1/6
f 519/1/6 520/1/6 539/1/6
f 539/1/6 520/1/6 540/1/6
f 521/1/6 522/1/6 541/1/6
f 541/1/6 522/1/6 542/1/6
f 523/1/6 524/1/6 543/1/6
f 543/1/6 524/1/6 544/1/6
f 545/1/6 546/1/6 565/1/6
f 565/1/6 546/1/6 566/1/6
f 547/1/6 548/1/6 567/1/6
f 567/1/6 548/1/6 568/1/6
f 549/1/6 550/1/6 569/1/6
f 569/1/6 550/1/6 570/1/6
f 551/1/6 552/1/6 571/1/6
f 571/1/6 552/1/6 572/1/6
f 553/1/6 554/1/6 573/1/6
f 573/1/6 554/1/6 574/1/6
f 555/1/6 556/1/6 575/1/6
f 575/1/6 556/1/6 576/1/6
f 557/1/6 558/1/6 577/1/6
f 577/1/6 558/1/6 578/1/6
f 559/1/6 560/1/6 579/1/6
f 579/1/6 560/1/6 580/1/6
f 561/1/6 562/1/6 581/1/6
f 581/1/6 562/1/6 582/1/6
f 563/1/6 564/1/6 583/1/6
f 583/1/6 564/1/6 584/1/6
f 585/2/6 586/2/6 587/2/6
f 587/2/6 586/2/6 588/2/6
f 589/2/6 590/2/6 591/2/6
f 591/2/6 590/2/6 592/2/6
