# MagicaVoxel @ Ephtracy

# material
mtllib obj_arcade3.mtl
usemtl palette

# normals
vn -1 0 0
vn 1 0 0
vn 0 0 1
vn 0 0 -1
vn 0 -1 0
vn 0 1 0

# texcoords
vt 0.162109 0.5
vt 0.166016 0.5
vt 0.845703 0.5
vt 0.966797 0.5
vt 0.978516 0.5
vt 0.982422 0.5
vt 0.986328 0.5

# verts
v -5 0 3.5
v -5 0 -3.5
v -5 1 0.5
v -5 1 -0.5
v -5 4 -0.5
v -5 4 -1.5
v -5 5 0.5
v -5 5 -0.5
v -5 6 3.5
v -5 6 0.5
v -5 6 -1.5
v -5 6 -2.5
v -5 8 -0.5
v -5 8 -1.5
v -5 10 2.5
v -5 10 0.5
v -5 12 -1.5
v -5 12 -2.5
v -5 13 2.5
v -5 13 -3.5
v -3 6 2.5
v -3 6 1.5
v -3 7 2.5
v -3 7 1.5
v 0 6 2.5
v 0 6 1.5
v 0 7 2.5
v 0 7 1.5
v 2 6 2.5
v 2 6 1.5
v 2 7 2.5
v 2 7 1.5
v 4 6 0.5
v 4 6 -0.5
v 4 10 0.5
v 4 10 -0.5
v -4 6 0.5
v -4 6 -0.5
v -4 10 0.5
v -4 10 -0.5
v -2 6 2.5
v -2 6 1.5
v -2 7 2.5
v -2 7 1.5
v 1 6 2.5
v 1 6 1.5
v 1 7 2.5
v 1 7 1.5
v 3 6 2.5
v 3 6 1.5
v 3 7 2.5
v 3 7 1.5
v 5 0 3.5
v 5 0 -3.5
v 5 1 0.5
v 5 1 -0.5
v 5 4 -0.5
v 5 4 -1.5
v 5 5 0.5
v 5 5 -0.5
v 5 6 3.5
v 5 6 0.5
v 5 6 -1.5
v 5 6 -2.5
v 5 8 -0.5
v 5 8 -1.5
v 5 10 2.5
v 5 10 0.5
v 5 12 -1.5
v 5 12 -2.5
v 5 13 2.5
v 5 13 -3.5
v -5 0 3.5
v -5 6 3.5
v -4 0 3.5
v -4 6 3.5
v -2 1 3.5
v -2 5 3.5
v 2 1 3.5
v 2 5 3.5
v 4 0 3.5
v 4 6 3.5
v 5 0 3.5
v 5 6 3.5
v -5 10 2.5
v -5 13 2.5
v -4 10 2.5
v -4 13 2.5
v -3 6 2.5
v -3 7 2.5
v -2 6 2.5
v -2 7 2.5
v 0 6 2.5
v 0 7 2.5
v 1 6 2.5
v 1 7 2.5
v 2 6 2.5
v 2 7 2.5
v 3 6 2.5
v 3 7 2.5
v 4 10 2.5
v 4 13 2.5
v 5 10 2.5
v 5 13 2.5
v -5 6 0.5
v -5 10 0.5
v -4 6 0.5
v -4 10 0.5
v 4 6 0.5
v 4 10 0.5
v 5 6 0.5
v 5 10 0.5
v -4 6 -0.5
v -4 10 -0.5
v -3 6 -0.5
v -3 10 -0.5
v 3 6 -0.5
v 3 10 -0.5
v 4 6 -0.5
v 4 10 -0.5
v -3 6 1.5
v -3 7 1.5
v -2 6 1.5
v -2 7 1.5
v 0 6 1.5
v 0 7 1.5
v 1 6 1.5
v 1 7 1.5
v 2 6 1.5
v 2 7 1.5
v 3 6 1.5
v 3 7 1.5
v -5 0 -3.5
v -5 13 -3.5
v -4 0 -3.5
v -4 13 -3.5
v 4 0 -3.5
v 4 13 -3.5
v 5 0 -3.5
v 5 13 -3.5
v -5 0 3.5
v -4 0 3.5
v 4 0 3.5
v 5 0 3.5
v -4 0 2.5
v 4 0 2.5
v -4 0 -2.5
v 4 0 -2.5
v -5 0 -3.5
v -4 0 -3.5
v 4 0 -3.5
v 5 0 -3.5
v -5 10 2.5
v -4 10 2.5
v 4 10 2.5
v 5 10 2.5
v -4 10 1.5
v 4 10 1.5
v -5 10 0.5
v -4 10 0.5
v 4 10 0.5
v 5 10 0.5
v -4 10 -0.5
v -3 10 -0.5
v 3 10 -0.5
v 4 10 -0.5
v -5 6 3.5
v -4 6 3.5
v 4 6 3.5
v 5 6 3.5
v -4 6 2.5
v -3 6 2.5
v -2 6 2.5
v 0 6 2.5
v 1 6 2.5
v 2 6 2.5
v 3 6 2.5
v 4 6 2.5
v -3 6 1.5
v -2 6 1.5
v 0 6 1.5
v 1 6 1.5
v 2 6 1.5
v 3 6 1.5
v -5 6 0.5
v -4 6 0.5
v 4 6 0.5
v 5 6 0.5
v -4 6 -0.5
v -3 6 -0.5
v 3 6 -0.5
v 4 6 -0.5
v -3 7 2.5
v -2 7 2.5
v 0 7 2.5
v 1 7 2.5
v 2 7 2.5
v 3 7 2.5
v -3 7 1.5
v -2 7 1.5
v 0 7 1.5
v 1 7 1.5
v 2 7 1.5
v 3 7 1.5
v -5 13 2.5
v -4 13 2.5
v 4 13 2.5
v 5 13 2.5
v -4 13 1.5
v 4 13 1.5
v -5 13 -3.5
v -4 13 -3.5
v 4 13 -3.5
v 5 13 -3.5

# faces
f 3/7/1 2/7/1 1/7/1
f 4/7/1 2/7/1 3/7/1
f 5/3/1 4/3/1 3/3/1
f 5/7/1 2/7/1 4/7/1
f 6/7/1 2/7/1 5/7/1
f 7/7/1 3/7/1 1/7/1
f 7/3/1 5/3/1 3/3/1
f 7/3/1 6/3/1 5/3/1
f 8/3/1 6/3/1 7/3/1
f 9/7/1 7/7/1 1/7/1
f 9/7/1 8/7/1 7/7/1
f 10/7/1 8/7/1 9/7/1
f 11/7/1 2/7/1 6/7/1
f 11/3/1 6/3/1 8/3/1
f 12/7/1 2/7/1 11/7/1
f 13/7/1 8/7/1 10/7/1
f 13/3/1 12/3/1 11/3/1
f 13/3/1 11/3/1 8/3/1
f 14/3/1 12/3/1 13/3/1
f 16/7/1 13/7/1 10/7/1
f 16/7/1 14/7/1 13/7/1
f 17/3/1 12/3/1 14/3/1
f 17/7/1 16/7/1 15/7/1
f 17/7/1 14/7/1 16/7/1
f 18/7/1 2/7/1 12/7/1
f 18/3/1 12/3/1 17/3/1
f 19/7/1 17/7/1 15/7/1
f 19/7/1 18/7/1 17/7/1
f 20/7/1 2/7/1 18/7/1
f 20/7/1 18/7/1 19/7/1
f 23/1/1 22/1/1 21/1/1
f 24/1/1 22/1/1 23/1/1
f 27/2/1 26/2/1 25/2/1
f 28/2/1 26/2/1 27/2/1
f 31/2/1 30/2/1 29/2/1
f 32/2/1 30/2/1 31/2/1
f 35/7/1 34/7/1 33/7/1
f 36/7/1 34/7/1 35/7/1
f 37/7/2 38/7/2 39/7/2
f 39/7/2 38/7/2 40/7/2
f 41/1/2 42/1/2 43/1/2
f 43/1/2 42/1/2 44/1/2
f 45/2/2 46/2/2 47/2/2
f 47/2/2 46/2/2 48/2/2
f 49/2/2 50/2/2 51/2/2
f 51/2/2 50/2/2 52/2/2
f 53/7/2 54/7/2 55/7/2
f 55/7/2 54/7/2 56/7/2
f 55/3/2 56/3/2 57/3/2
f 56/7/2 54/7/2 57/7/2
f 57/7/2 54/7/2 58/7/2
f 53/7/2 55/7/2 59/7/2
f 55/3/2 57/3/2 59/3/2
f 57/3/2 58/3/2 59/3/2
f 59/3/2 58/3/2 60/3/2
f 53/7/2 59/7/2 61/7/2
f 59/7/2 60/7/2 61/7/2
f 61/7/2 60/7/2 62/7/2
f 58/7/2 54/7/2 63/7/2
f 60/3/2 58/3/2 63/3/2
f 63/7/2 54/7/2 64/7/2
f 62/7/2 60/7/2 65/7/2
f 63/3/2 64/3/2 65/3/2
f 60/3/2 63/3/2 65/3/2
f 65/3/2 64/3/2 66/3/2
f 62/7/2 65/7/2 68/7/2
f 65/7/2 66/7/2 68/7/2
f 66/3/2 64/3/2 69/3/2
f 67/7/2 68/7/2 69/7/2
f 68/7/2 66/7/2 69/7/2
f 64/7/2 54/7/2 70/7/2
f 69/3/2 64/3/2 70/3/2
f 67/7/2 69/7/2 71/7/2
f 69/7/2 70/7/2 71/7/2
f 70/7/2 54/7/2 72/7/2
f 71/7/2 70/7/2 72/7/2
f 75/7/3 74/7/3 73/7/3
f 76/7/3 74/7/3 75/7/3
f 77/6/3 76/6/3 75/6/3
f 78/6/3 76/6/3 77/6/3
f 79/6/3 77/6/3 75/6/3
f 79/7/3 78/7/3 77/7/3
f 80/6/3 76/6/3 78/6/3
f 80/7/3 78/7/3 79/7/3
f 81/6/3 79/6/3 75/6/3
f 81/6/3 80/6/3 79/6/3
f 82/6/3 76/6/3 80/6/3
f 82/6/3 80/6/3 81/6/3
f 83/7/3 82/7/3 81/7/3
f 84/7/3 82/7/3 83/7/3
f 87/7/3 86/7/3 85/7/3
f 88/7/3 86/7/3 87/7/3
f 91/1/3 90/1/3 89/1/3
f 92/1/3 90/1/3 91/1/3
f 95/2/3 94/2/3 93/2/3
f 96/2/3 94/2/3 95/2/3
f 99/2/3 98/2/3 97/2/3
f 100/2/3 98/2/3 99/2/3
f 101/5/3 88/5/3 87/5/3
f 102/5/3 88/5/3 101/5/3
f 103/7/3 102/7/3 101/7/3
f 104/7/3 102/7/3 103/7/3
f 107/7/3 106/7/3 105/7/3
f 108/7/3 106/7/3 107/7/3
f 111/7/3 110/7/3 109/7/3
f 112/7/3 110/7/3 111/7/3
f 115/5/3 114/5/3 113/5/3
f 116/5/3 114/5/3 115/5/3
f 117/7/3 116/7/3 115/7/3
f 118/7/3 116/7/3 117/7/3
f 119/5/3 118/5/3 117/5/3
f 120/5/3 118/5/3 119/5/3
f 121/1/4 122/1/4 123/1/4
f 123/1/4 122/1/4 124/1/4
f 125/2/4 126/2/4 127/2/4
f 127/2/4 126/2/4 128/2/4
f 129/2/4 130/2/4 131/2/4
f 131/2/4 130/2/4 132/2/4
f 133/7/4 134/7/4 135/7/4
f 135/7/4 134/7/4 136/7/4
f 135/6/4 136/6/4 137/6/4
f 137/6/4 136/6/4 138/6/4
f 137/7/4 138/7/4 139/7/4
f 139/7/4 138/7/4 140/7/4
f 145/7/5 142/7/5 141/7/5
f 145/6/5 143/6/5 142/6/5
f 146/7/5 144/7/5 143/7/5
f 146/6/5 143/6/5 145/6/5
f 147/7/5 145/7/5 141/7/5
f 147/4/5 146/4/5 145/4/5
f 148/7/5 144/7/5 146/7/5
f 148/4/5 146/4/5 147/4/5
f 149/7/5 147/7/5 141/7/5
f 150/6/5 148/6/5 147/6/5
f 150/7/5 147/7/5 149/7/5
f 151/7/5 144/7/5 148/7/5
f 151/6/5 148/6/5 150/6/5
f 152/7/5 144/7/5 151/7/5
f 157/7/5 154/7/5 153/7/5
f 157/5/5 155/5/5 154/5/5
f 158/7/5 156/7/5 155/7/5
f 158/5/5 155/5/5 157/5/5
f 159/7/5 157/7/5 153/7/5
f 159/7/5 158/7/5 157/7/5
f 160/7/5 158/7/5 159/7/5
f 161/7/5 156/7/5 158/7/5
f 161/7/5 158/7/5 160/7/5
f 162/7/5 156/7/5 161/7/5
f 163/7/5 161/7/5 160/7/5
f 164/7/5 161/7/5 163/7/5
f 165/7/5 161/7/5 164/7/5
f 166/7/5 161/7/5 165/7/5
f 167/7/6 168/7/6 171/7/6
f 168/6/6 169/6/6 171/6/6
f 171/6/6 169/6/6 172/6/6
f 172/6/6 169/6/6 173/6/6
f 173/6/6 169/6/6 174/6/6
f 174/6/6 169/6/6 175/6/6
f 175/6/6 169/6/6 176/6/6
f 176/6/6 169/6/6 177/6/6
f 169/7/6 170/7/6 178/7/6
f 177/6/6 169/6/6 178/6/6
f 171/7/6 172/7/6 179/7/6
f 173/7/6 174/7/6 180/7/6
f 180/7/6 174/7/6 181/7/6
f 175/7/6 176/7/6 182/7/6
f 182/7/6 176/7/6 183/7/6
f 177/7/6 178/7/6 184/7/6
f 167/7/6 171/7/6 185/7/6
f 183/7/6 184/7/6 185/7/6
f 182/7/6 183/7/6 185/7/6
f 180/7/6 181/7/6 185/7/6
f 181/7/6 182/7/6 185/7/6
f 171/7/6 179/7/6 185/7/6
f 179/7/6 180/7/6 185/7/6
f 185/7/6 184/7/6 186/7/6
f 178/7/6 170/7/6 187/7/6
f 186/7/6 184/7/6 187/7/6
f 184/7/6 178/7/6 187/7/6
f 187/7/6 170/7/6 188/7/6
f 186/5/6 187/5/6 189/5/6
f 189/5/6 187/5/6 190/5/6
f 190/5/6 187/5/6 191/5/6
f 191/5/6 187/5/6 192/5/6
f 193/1/6 194/1/6 199/1/6
f 199/1/6 194/1/6 200/1/6
f 195/2/6 196/2/6 201/2/6
f 201/2/6 196/2/6 202/2/6
f 197/2/6 198/2/6 203/2/6
f 203/2/6 198/2/6 204/2/6
f 205/7/6 206/7/6 209/7/6
f 206/5/6 207/5/6 209/5/6
f 207/7/6 208/7/6 210/7/6
f 209/5/6 207/5/6 210/5/6
f 205/7/6 209/7/6 211/7/6
f 209/6/6 210/6/6 212/6/6
f 211/7/6 209/7/6 212/7/6
f 210/7/6 208/7/6 213/7/6
f 212/6/6 210/6/6 213/6/6
f 213/7/6 208/7/6 214/7/6
