# MagicaVoxel @ Ephtracy

# material
mtllib obj_hydrant.mtl
usemtl palette

# normals
vn -1 0 0
vn 1 0 0
vn 0 0 1
vn 0 0 -1
vn 0 -1 0
vn 0 1 0

# texcoords
vt 0.849609 0.5
vt 0.857422 0.5

# verts
v -2 3 0.5
v -2 3 -0.5
v -2 4 0.5
v -2 4 -0.5
v -1 0 0.5
v -1 0 -1.5
v -1 1 0.5
v -1 1 -1.5
v -1 3 1.5
v -1 3 0.5
v -1 3 -0.5
v -1 3 -1.5
v -1 3 -2.5
v -1 4 1.5
v -1 4 0.5
v -1 4 -0.5
v -1 4 -1.5
v -1 4 -2.5
v -1 5 0.5
v -1 5 -1.5
v -1 6 0.5
v -1 6 -1.5
v 0 3 1.5
v 0 3 0.5
v 0 3 -1.5
v 0 3 -2.5
v 0 4 1.5
v 0 4 0.5
v 0 4 -1.5
v 0 4 -2.5
v 1 0 0.5
v 1 0 -1.5
v 1 2 0.5
v 1 2 -1.5
v 1 3 0.5
v 1 3 -0.5
v 1 4 0.5
v 1 4 -0.5
v 1 5 0.5
v 1 5 -1.5
v 1 6 0.5
v 1 6 -1.5
v 2 3 0.5
v 2 3 -0.5
v 2 4 0.5
v 2 4 -0.5
v -1 3 1.5
v -1 4 1.5
v 0 3 1.5
v 0 4 1.5
v -2 3 0.5
v -2 4 0.5
v -1 0 0.5
v -1 1 0.5
v -1 3 0.5
v -1 4 0.5
v -1 5 0.5
v -1 6 0.5
v 0 1 0.5
v 0 2 0.5
v 0 3 0.5
v 0 4 0.5
v 1 0 0.5
v 1 2 0.5
v 1 3 0.5
v 1 4 0.5
v 1 5 0.5
v 1 6 0.5
v 2 3 0.5
v 2 4 0.5
v -2 3 -0.5
v -2 4 -0.5
v -1 3 -0.5
v -1 4 -0.5
v 1 3 -0.5
v 1 4 -0.5
v 2 3 -0.5
v 2 4 -0.5
v -1 0 -1.5
v -1 1 -1.5
v -1 3 -1.5
v -1 4 -1.5
v -1 5 -1.5
v -1 6 -1.5
v 0 1 -1.5
v 0 2 -1.5
v 0 3 -1.5
v 0 4 -1.5
v 1 0 -1.5
v 1 2 -1.5
v 1 5 -1.5
v 1 6 -1.5
v -1 3 -2.5
v -1 4 -2.5
v 0 3 -2.5
v 0 4 -2.5
v -1 0 0.5
v 1 0 0.5
v -1 0 -1.5
v 1 0 -1.5
v -1 3 1.5
v 0 3 1.5
v -2 3 0.5
v -1 3 0.5
v 0 3 0.5
v 1 3 0.5
v 2 3 0.5
v -2 3 -0.5
v -1 3 -0.5
v 1 3 -0.5
v 2 3 -0.5
v -1 3 -1.5
v 0 3 -1.5
v -1 3 -2.5
v 0 3 -2.5
v -1 4 1.5
v 0 4 1.5
v -2 4 0.5
v -1 4 0.5
v 0 4 0.5
v 1 4 0.5
v 2 4 0.5
v -2 4 -0.5
v -1 4 -0.5
v 1 4 -0.5
v 2 4 -0.5
v -1 4 -1.5
v 0 4 -1.5
v -1 4 -2.5
v 0 4 -2.5
v -1 6 0.5
v 1 6 0.5
v -1 6 -1.5
v 1 6 -1.5

# faces
f 3/1/1 2/1/1 1/1/1
f 4/1/1 2/1/1 3/1/1
f 7/2/1 6/2/1 5/2/1
f 8/2/1 6/2/1 7/2/1
f 10/1/1 8/1/1 7/1/1
f 11/1/1 8/1/1 10/1/1
f 12/1/1 8/1/1 11/1/1
f 14/1/1 10/1/1 9/1/1
f 15/1/1 10/1/1 14/1/1
f 16/1/1 12/1/1 11/1/1
f 16/1/1 13/1/1 12/1/1
f 17/1/1 13/1/1 16/1/1
f 18/1/1 13/1/1 17/1/1
f 19/1/1 16/1/1 15/1/1
f 19/1/1 17/1/1 16/1/1
f 20/1/1 17/1/1 19/1/1
f 21/2/1 20/2/1 19/2/1
f 22/2/1 20/2/1 21/2/1
f 23/1/2 24/1/2 27/1/2
f 27/1/2 24/1/2 28/1/2
f 25/1/2 26/1/2 29/1/2
f 29/1/2 26/1/2 30/1/2
f 31/2/2 32/2/2 33/2/2
f 33/2/2 32/2/2 34/2/2
f 33/1/2 34/1/2 35/1/2
f 35/1/2 34/1/2 36/1/2
f 36/1/2 34/1/2 38/1/2
f 37/1/2 38/1/2 39/1/2
f 38/1/2 34/1/2 40/1/2
f 39/1/2 38/1/2 40/1/2
f 39/2/2 40/2/2 41/2/2
f 41/2/2 40/2/2 42/2/2
f 43/1/2 44/1/2 45/1/2
f 45/1/2 44/1/2 46/1/2
f 49/1/3 48/1/3 47/1/3
f 50/1/3 48/1/3 49/1/3
f 55/1/3 52/1/3 51/1/3
f 56/1/3 52/1/3 55/1/3
f 59/2/3 54/2/3 53/2/3
f 59/1/3 55/1/3 54/1/3
f 60/1/3 55/1/3 59/1/3
f 61/1/3 55/1/3 60/1/3
f 62/1/3 57/1/3 56/1/3
f 63/2/3 59/2/3 53/2/3
f 63/2/3 60/2/3 59/2/3
f 64/1/3 61/1/3 60/1/3
f 64/2/3 60/2/3 63/2/3
f 64/1/3 62/1/3 61/1/3
f 65/1/3 62/1/3 64/1/3
f 66/1/3 57/1/3 62/1/3
f 66/1/3 62/1/3 65/1/3
f 67/2/3 58/2/3 57/2/3
f 67/1/3 57/1/3 66/1/3
f 68/2/3 58/2/3 67/2/3
f 69/1/3 66/1/3 65/1/3
f 70/1/3 66/1/3 69/1/3
f 71/1/4 72/1/4 73/1/4
f 73/1/4 72/1/4 74/1/4
f 75/1/4 76/1/4 77/1/4
f 77/1/4 76/1/4 78/1/4
f 79/2/4 80/2/4 85/2/4
f 80/1/4 81/1/4 85/1/4
f 85/1/4 81/1/4 86/1/4
f 86/1/4 81/1/4 87/1/4
f 82/1/4 83/1/4 88/1/4
f 79/2/4 85/2/4 89/2/4
f 85/2/4 86/2/4 89/2/4
f 86/1/4 87/1/4 90/1/4
f 89/2/4 86/2/4 90/2/4
f 87/1/4 88/1/4 90/1/4
f 83/2/4 84/2/4 91/2/4
f 90/1/4 88/1/4 91/1/4
f 88/1/4 83/1/4 91/1/4
f 91/2/4 84/2/4 92/2/4
f 93/1/4 94/1/4 95/1/4
f 95/1/4 94/1/4 96/1/4
f 99/2/5 98/2/5 97/2/5
f 100/2/5 98/2/5 99/2/5
f 104/1/5 102/1/5 101/1/5
f 105/1/5 102/1/5 104/1/5
f 108/1/5 104/1/5 103/1/5
f 109/1/5 104/1/5 108/1/5
f 110/1/5 107/1/5 106/1/5
f 111/1/5 107/1/5 110/1/5
f 114/1/5 113/1/5 112/1/5
f 115/1/5 113/1/5 114/1/5
f 116/1/6 117/1/6 119/1/6
f 119/1/6 117/1/6 120/1/6
f 118/1/6 119/1/6 123/1/6
f 123/1/6 119/1/6 124/1/6
f 121/1/6 122/1/6 125/1/6
f 125/1/6 122/1/6 126/1/6
f 127/1/6 128/1/6 129/1/6
f 129/1/6 128/1/6 130/1/6
f 131/2/6 132/2/6 133/2/6
f 133/2/6 132/2/6 134/2/6
