# MagicaVoxel @ Ephtracy

# material
mtllib obj_stlight3.mtl
usemtl palette

# normals
vn -1 0 0
vn 1 0 0
vn 0 0 1
vn 0 0 -1
vn 0 -1 0
vn 0 1 0

# texcoords
vt 0.0371094 0.5
vt 0.966797 0.5
vt 0.970703 0.5
vt 0.978516 0.5

# verts
v -13 59 3
v -13 59 -3
v -13 63 3
v -13 63 -3
v -9 59 2
v -9 59 -2
v -9 60 2
v -9 60 -2
v -4 60 1
v -4 60 -1
v -4 61 1
v -4 61 -1
v -4 62 1
v -4 62 -1
v -4 63 1
v -4 63 -1
v -3 59 14
v -3 59 9
v -3 59 -9
v -3 59 -14
v -3 63 14
v -3 63 9
v -3 63 -9
v -3 63 -14
v -2 0 2
v -2 0 -2
v -2 4 2
v -2 4 -2
v -1 4 1
v -1 4 -1
v -1 60 4
v -1 60 1
v -1 60 -1
v -1 60 -4
v -1 61 9
v -1 61 4
v -1 61 -4
v -1 61 -9
v -1 62 9
v -1 62 4
v -1 62 -4
v -1 62 -9
v -1 63 4
v -1 63 1
v -1 63 -1
v -1 63 -4
v -1 64 1
v -1 64 -1
v 2 59 13
v 2 59 10
v 2 59 -10
v 2 59 -13
v 2 60 13
v 2 60 10
v 2 60 -10
v 2 60 -13
v 8 59 3
v 8 59 -3
v 8 61 1
v 8 61 -1
v 8 62 1
v 8 62 -1
v 8 63 3
v 8 63 -3
v 12 59 2
v 12 59 -2
v 12 60 2
v 12 60 -2
v -12 59 2
v -12 59 -2
v -12 60 2
v -12 60 -2
v -8 59 3
v -8 59 -3
v -8 61 1
v -8 61 -1
v -8 62 1
v -8 62 -1
v -8 63 3
v -8 63 -3
v -2 59 13
v -2 59 10
v -2 59 -10
v -2 59 -13
v -2 60 13
v -2 60 10
v -2 60 -10
v -2 60 -13
v 1 4 1
v 1 4 -1
v 1 60 4
v 1 60 1
v 1 60 -1
v 1 60 -4
v 1 61 9
v 1 61 4
v 1 61 -4
v 1 61 -9
v 1 62 9
v 1 62 4
v 1 62 -4
v 1 62 -9
v 1 63 4
v 1 63 1
v 1 63 -1
v 1 63 -4
v 1 64 1
v 1 64 -1
v 2 0 2
v 2 0 -2
v 2 4 2
v 2 4 -2
v 3 59 14
v 3 59 9
v 3 59 -9
v 3 59 -14
v 3 63 14
v 3 63 9
v 3 63 -9
v 3 63 -14
v 4 60 1
v 4 60 -1
v 4 61 1
v 4 61 -1
v 4 62 1
v 4 62 -1
v 4 63 1
v 4 63 -1
v 9 59 2
v 9 59 -2
v 9 60 2
v 9 60 -2
v 13 59 3
v 13 59 -3
v 13 63 3
v 13 63 -3
v -3 59 14
v -3 63 14
v 3 59 14
v 3 63 14
v -2 59 10
v -2 60 10
v 2 59 10
v 2 60 10
v -1 60 4
v -1 61 4
v -1 62 4
v -1 63 4
v 1 60 4
v 1 61 4
v 1 62 4
v 1 63 4
v -13 59 3
v -13 63 3
v -8 59 3
v -8 63 3
v 8 59 3
v 8 63 3
v 13 59 3
v 13 63 3
v -2 0 2
v -2 4 2
v 2 0 2
v 2 4 2
v -8 61 1
v -8 62 1
v -4 60 1
v -4 61 1
v -4 62 1
v -4 63 1
v -1 4 1
v -1 60 1
v -1 63 1
v -1 64 1
v 1 4 1
v 1 60 1
v 1 63 1
v 1 64 1
v 4 60 1
v 4 61 1
v 4 62 1
v 4 63 1
v 8 61 1
v 8 62 1
v -12 59 -2
v -12 60 -2
v -9 59 -2
v -9 60 -2
v 9 59 -2
v 9 60 -2
v 12 59 -2
v 12 60 -2
v -3 59 -9
v -3 63 -9
v -1 61 -9
v -1 62 -9
v 1 61 -9
v 1 62 -9
v 3 59 -9
v 3 63 -9
v -2 59 -13
v -2 60 -13
v 2 59 -13
v 2 60 -13
v -2 59 13
v -2 60 13
v 2 59 13
v 2 60 13
v -3 59 9
v -3 63 9
v -1 61 9
v -1 62 9
v 1 61 9
v 1 62 9
v 3 59 9
v 3 63 9
v -12 59 2
v -12 60 2
v -9 59 2
v -9 60 2
v 9 59 2
v 9 60 2
v 12 59 2
v 12 60 2
v -8 61 -1
v -8 62 -1
v -4 60 -1
v -4 61 -1
v -4 62 -1
v -4 63 -1
v -1 4 -1
v -1 60 -1
v -1 63 -1
v -1 64 -1
v 1 4 -1
v 1 60 -1
v 1 63 -1
v 1 64 -1
v 4 60 -1
v 4 61 -1
v 4 62 -1
v 4 63 -1
v 8 61 -1
v 8 62 -1
v -2 0 -2
v -2 4 -2
v 2 0 -2
v 2 4 -2
v -13 59 -3
v -13 63 -3
v -8 59 -3
v -8 63 -3
v 8 59 -3
v 8 63 -3
v 13 59 -3
v 13 63 -3
v -1 60 -4
v -1 61 -4
v -1 62 -4
v -1 63 -4
v 1 60 -4
v 1 61 -4
v 1 62 -4
v 1 63 -4
v -2 59 -10
v -2 60 -10
v 2 59 -10
v 2 60 -10
v -3 59 -14
v -3 63 -14
v 3 59 -14
v 3 63 -14
v -2 0 2
v 2 0 2
v -2 0 -2
v 2 0 -2
v -3 59 14
v 3 59 14
v -2 59 13
v 2 59 13
v -2 59 10
v 2 59 10
v -3 59 9
v 3 59 9
v -13 59 3
v -8 59 3
v 8 59 3
v 13 59 3
v -12 59 2
v -9 59 2
v 9 59 2
v 12 59 2
v -12 59 -2
v -9 59 -2
v 9 59 -2
v 12 59 -2
v -13 59 -3
v -8 59 -3
v 8 59 -3
v 13 59 -3
v -3 59 -9
v 3 59 -9
v -2 59 -10
v 2 59 -10
v -2 59 -13
v 2 59 -13
v -3 59 -14
v 3 59 -14
v -2 60 13
v 2 60 13
v -2 60 10
v 2 60 10
v -1 60 4
v 1 60 4
v -12 60 2
v -9 60 2
v 9 60 2
v 12 60 2
v -4 60 1
v -1 60 1
v 1 60 1
v 4 60 1
v -4 60 -1
v -1 60 -1
v 1 60 -1
v 4 60 -1
v -12 60 -2
v -9 60 -2
v 9 60 -2
v 12 60 -2
v -1 60 -4
v 1 60 -4
v -2 60 -10
v 2 60 -10
v -2 60 -13
v 2 60 -13
v -1 61 9
v 1 61 9
v -1 61 4
v 1 61 4
v -8 61 1
v -4 61 1
v 4 61 1
v 8 61 1
v -8 61 -1
v -4 61 -1
v 4 61 -1
v 8 61 -1
v -1 61 -4
v 1 61 -4
v -1 61 -9
v 1 61 -9
v -2 4 2
v 2 4 2
v -1 4 1
v 1 4 1
v -1 4 -1
v 1 4 -1
v -2 4 -2
v 2 4 -2
v -1 62 9
v 1 62 9
v -1 62 4
v 1 62 4
v -8 62 1
v -4 62 1
v 4 62 1
v 8 62 1
v -8 62 -1
v -4 62 -1
v 4 62 -1
v 8 62 -1
v -1 62 -4
v 1 62 -4
v -1 62 -9
v 1 62 -9
v -3 63 14
v 3 63 14
v -3 63 9
v 3 63 9
v -1 63 4
v 1 63 4
v -13 63 3
v -8 63 3
v 8 63 3
v 13 63 3
v -4 63 1
v -1 63 1
v 1 63 1
v 4 63 1
v -4 63 -1
v -1 63 -1
v 1 63 -1
v 4 63 -1
v -13 63 -3
v -8 63 -3
v 8 63 -3
v 13 63 -3
v -1 63 -4
v 1 63 -4
v -3 63 -9
v 3 63 -9
v -3 63 -14
v 3 63 -14
v -1 64 1
v 1 64 1
v -1 64 -1
v 1 64 -1

# faces
f 3/4/1 2/4/1 1/4/1
f 4/4/1 2/4/1 3/4/1
f 7/4/1 6/4/1 5/4/1
f 8/4/1 6/4/1 7/4/1
f 11/2/1 10/2/1 9/2/1
f 12/2/1 10/2/1 11/2/1
f 15/2/1 14/2/1 13/2/1
f 16/2/1 14/2/1 15/2/1
f 21/4/1 18/4/1 17/4/1
f 22/4/1 18/4/1 21/4/1
f 23/4/1 20/4/1 19/4/1
f 24/4/1 20/4/1 23/4/1
f 27/3/1 26/3/1 25/3/1
f 28/3/1 26/3/1 27/3/1
f 32/3/1 30/3/1 29/3/1
f 33/3/1 30/3/1 32/3/1
f 36/2/1 32/2/1 31/2/1
f 37/2/1 34/2/1 33/2/1
f 39/2/1 36/2/1 35/2/1
f 40/2/1 32/2/1 36/2/1
f 40/2/1 36/2/1 39/2/1
f 41/2/1 38/2/1 37/2/1
f 41/2/1 37/2/1 33/2/1
f 42/2/1 38/2/1 41/2/1
f 43/2/1 32/2/1 40/2/1
f 44/2/1 32/2/1 43/2/1
f 45/2/1 41/2/1 33/2/1
f 46/2/1 41/2/1 45/2/1
f 47/3/1 45/3/1 44/3/1
f 48/3/1 45/3/1 47/3/1
f 53/4/1 50/4/1 49/4/1
f 54/4/1 50/4/1 53/4/1
f 55/4/1 52/4/1 51/4/1
f 56/4/1 52/4/1 55/4/1
f 59/4/1 58/4/1 57/4/1
f 60/4/1 58/4/1 59/4/1
f 61/4/1 59/4/1 57/4/1
f 62/4/1 58/4/1 60/4/1
f 63/4/1 61/4/1 57/4/1
f 63/4/1 62/4/1 61/4/1
f 64/4/1 58/4/1 62/4/1
f 64/4/1 62/4/1 63/4/1
f 67/4/1 66/4/1 65/4/1
f 68/4/1 66/4/1 67/4/1
f 69/4/2 70/4/2 71/4/2
f 71/4/2 70/4/2 72/4/2
f 73/4/2 74/4/2 75/4/2
f 75/4/2 74/4/2 76/4/2
f 73/4/2 75/4/2 77/4/2
f 76/4/2 74/4/2 78/4/2
f 73/4/2 77/4/2 79/4/2
f 77/4/2 78/4/2 79/4/2
f 78/4/2 74/4/2 80/4/2
f 79/4/2 78/4/2 80/4/2
f 81/4/2 82/4/2 85/4/2
f 85/4/2 82/4/2 86/4/2
f 83/4/2 84/4/2 87/4/2
f 87/4/2 84/4/2 88/4/2
f 89/3/2 90/3/2 92/3/2
f 92/3/2 90/3/2 93/3/2
f 91/2/2 92/2/2 96/2/2
f 93/2/2 94/2/2 97/2/2
f 95/2/2 96/2/2 99/2/2
f 96/2/2 92/2/2 100/2/2
f 99/2/2 96/2/2 100/2/2
f 97/2/2 98/2/2 101/2/2
f 93/2/2 97/2/2 101/2/2
f 101/2/2 98/2/2 102/2/2
f 100/2/2 92/2/2 103/2/2
f 103/2/2 92/2/2 104/2/2
f 93/2/2 101/2/2 105/2/2
f 105/2/2 101/2/2 106/2/2
f 104/3/2 105/3/2 107/3/2
f 107/3/2 105/3/2 108/3/2
f 109/3/2 110/3/2 111/3/2
f 111/3/2 110/3/2 112/3/2
f 113/4/2 114/4/2 117/4/2
f 117/4/2 114/4/2 118/4/2
f 115/4/2 116/4/2 119/4/2
f 119/4/2 116/4/2 120/4/2
f 121/2/2 122/2/2 123/2/2
f 123/2/2 122/2/2 124/2/2
f 125/2/2 126/2/2 127/2/2
f 127/2/2 126/2/2 128/2/2
f 129/4/2 130/4/2 131/4/2
f 131/4/2 130/4/2 132/4/2
f 133/4/2 134/4/2 135/4/2
f 135/4/2 134/4/2 136/4/2
f 139/4/3 138/4/3 137/4/3
f 140/4/3 138/4/3 139/4/3
f 143/4/3 142/4/3 141/4/3
f 144/4/3 142/4/3 143/4/3
f 149/2/3 146/2/3 145/2/3
f 150/2/3 146/2/3 149/2/3
f 151/2/3 148/2/3 147/2/3
f 152/2/3 148/2/3 151/2/3
f 155/4/3 154/4/3 153/4/3
f 156/4/3 154/4/3 155/4/3
f 159/4/3 158/4/3 157/4/3
f 160/4/3 158/4/3 159/4/3
f 163/3/3 162/3/3 161/3/3
f 164/3/3 162/3/3 163/3/3
f 168/2/3 166/2/3 165/2/3
f 169/2/3 166/2/3 168/2/3
f 172/2/3 168/2/3 167/2/3
f 172/2/3 170/2/3 169/2/3
f 172/2/3 169/2/3 168/2/3
f 173/2/3 170/2/3 172/2/3
f 175/3/3 172/3/3 171/3/3
f 176/3/3 172/3/3 175/3/3
f 177/3/3 174/3/3 173/3/3
f 178/3/3 174/3/3 177/3/3
f 179/2/3 177/2/3 176/2/3
f 180/2/3 177/2/3 179/2/3
f 181/2/3 177/2/3 180/2/3
f 182/2/3 177/2/3 181/2/3
f 183/2/3 181/2/3 180/2/3
f 184/2/3 181/2/3 183/2/3
f 187/4/3 186/4/3 185/4/3
f 188/4/3 186/4/3 187/4/3
f 191/4/3 190/4/3 189/4/3
f 192/4/3 190/4/3 191/4/3
f 195/4/3 194/4/3 193/4/3
f 196/4/3 194/4/3 195/4/3
f 197/4/3 195/4/3 193/4/3
f 198/4/3 194/4/3 196/4/3
f 199/4/3 197/4/3 193/4/3
f 199/4/3 198/4/3 197/4/3
f 200/4/3 194/4/3 198/4/3
f 200/4/3 198/4/3 199/4/3
f 203/4/3 202/4/3 201/4/3
f 204/4/3 202/4/3 203/4/3
f 205/4/4 206/4/4 207/4/4
f 207/4/4 206/4/4 208/4/4
f 209/4/4 210/4/4 211/4/4
f 211/4/4 210/4/4 212/4/4
f 209/4/4 211/4/4 213/4/4
f 212/4/4 210/4/4 214/4/4
f 209/4/4 213/4/4 215/4/4
f 213/4/4 214/4/4 215/4/4
f 214/4/4 210/4/4 216/4/4
f 215/4/4 214/4/4 216/4/4
f 217/4/4 218/4/4 219/4/4
f 219/4/4 218/4/4 220/4/4
f 221/4/4 222/4/4 223/4/4
f 223/4/4 222/4/4 224/4/4
f 225/2/4 226/2/4 228/2/4
f 228/2/4 226/2/4 229/2/4
f 227/2/4 228/2/4 232/2/4
f 229/2/4 230/2/4 232/2/4
f 228/2/4 229/2/4 232/2/4
f 232/2/4 230/2/4 233/2/4
f 231/3/4 232/3/4 235/3/4
f 235/3/4 232/3/4 236/3/4
f 233/3/4 234/3/4 237/3/4
f 237/3/4 234/3/4 238/3/4
f 236/2/4 237/2/4 239/2/4
f 239/2/4 237/2/4 240/2/4
f 240/2/4 237/2/4 241/2/4
f 241/2/4 237/2/4 242/2/4
f 240/2/4 241/2/4 243/2/4
f 243/2/4 241/2/4 244/2/4
f 245/3/4 246/3/4 247/3/4
f 247/3/4 246/3/4 248/3/4
f 249/4/4 250/4/4 251/4/4
f 251/4/4 250/4/4 252/4/4
f 253/4/4 254/4/4 255/4/4
f 255/4/4 254/4/4 256/4/4
f 257/2/4 258/2/4 261/2/4
f 261/2/4 258/2/4 262/2/4
f 259/2/4 260/2/4 263/2/4
f 263/2/4 260/2/4 264/2/4
f 265/4/4 266/4/4 267/4/4
f 267/4/4 266/4/4 268/4/4
f 269/4/4 270/4/4 271/4/4
f 271/4/4 270/4/4 272/4/4
f 275/3/5 274/3/5 273/3/5
f 276/3/5 274/3/5 275/3/5
f 279/4/5 278/4/5 277/4/5
f 280/4/5 278/4/5 279/4/5
f 281/4/5 279/4/5 277/4/5
f 282/4/5 278/4/5 280/4/5
f 283/4/5 281/4/5 277/4/5
f 283/4/5 282/4/5 281/4/5
f 284/4/5 278/4/5 282/4/5
f 284/4/5 282/4/5 283/4/5
f 289/4/5 286/4/5 285/4/5
f 290/4/5 286/4/5 289/4/5
f 291/4/5 288/4/5 287/4/5
f 292/4/5 288/4/5 291/4/5
f 293/4/5 289/4/5 285/4/5
f 294/4/5 286/4/5 290/4/5
f 295/4/5 291/4/5 287/4/5
f 296/4/5 288/4/5 292/4/5
f 297/4/5 293/4/5 285/4/5
f 297/4/5 294/4/5 293/4/5
f 298/4/5 286/4/5 294/4/5
f 298/4/5 294/4/5 297/4/5
f 299/4/5 296/4/5 295/4/5
f 299/4/5 295/4/5 287/4/5
f 300/4/5 288/4/5 296/4/5
f 300/4/5 296/4/5 299/4/5
f 303/4/5 302/4/5 301/4/5
f 304/4/5 302/4/5 303/4/5
f 305/4/5 303/4/5 301/4/5
f 306/4/5 302/4/5 304/4/5
f 307/4/5 305/4/5 301/4/5
f 307/4/5 306/4/5 305/4/5
f 308/4/5 302/4/5 306/4/5
f 308/4/5 306/4/5 307/4/5
f 311/1/5 310/1/5 309/1/5
f 312/1/5 310/1/5 311/1/5
f 320/2/5 314/2/5 313/2/5
f 321/2/5 314/2/5 320/2/5
f 323/2/5 320/2/5 319/2/5
f 324/2/5 320/2/5 323/2/5
f 325/2/5 322/2/5 321/2/5
f 326/2/5 322/2/5 325/2/5
f 327/1/5 316/1/5 315/1/5
f 328/1/5 316/1/5 327/1/5
f 329/1/5 318/1/5 317/1/5
f 330/1/5 318/1/5 329/1/5
f 331/2/5 325/2/5 324/2/5
f 332/2/5 325/2/5 331/2/5
f 335/1/5 334/1/5 333/1/5
f 336/1/5 334/1/5 335/1/5
f 339/2/5 338/2/5 337/2/5
f 340/2/5 338/2/5 339/2/5
f 345/2/5 342/2/5 341/2/5
f 346/2/5 342/2/5 345/2/5
f 347/2/5 344/2/5 343/2/5
f 348/2/5 344/2/5 347/2/5
f 351/2/5 350/2/5 349/2/5
f 352/2/5 350/2/5 351/2/5
f 353/3/6 354/3/6 355/3/6
f 355/3/6 354/3/6 356/3/6
f 353/3/6 355/3/6 357/3/6
f 356/3/6 354/3/6 358/3/6
f 353/3/6 357/3/6 359/3/6
f 357/3/6 358/3/6 359/3/6
f 358/3/6 354/3/6 360/3/6
f 359/3/6 358/3/6 360/3/6
f 361/2/6 362/2/6 363/2/6
f 363/2/6 362/2/6 364/2/6
f 365/2/6 366/2/6 369/2/6
f 369/2/6 366/2/6 370/2/6
f 367/2/6 368/2/6 371/2/6
f 371/2/6 368/2/6 372/2/6
f 373/2/6 374/2/6 375/2/6
f 375/2/6 374/2/6 376/2/6
f 377/4/6 378/4/6 379/4/6
f 379/4/6 378/4/6 380/4/6
f 381/2/6 382/2/6 388/2/6
f 388/2/6 382/2/6 389/2/6
f 387/2/6 388/2/6 391/2/6
f 391/2/6 388/2/6 392/2/6
f 389/2/6 390/2/6 393/2/6
f 393/2/6 390/2/6 394/2/6
f 383/4/6 384/4/6 395/4/6
f 395/4/6 384/4/6 396/4/6
f 385/4/6 386/4/6 397/4/6
f 397/4/6 386/4/6 398/4/6
f 392/2/6 393/2/6 399/2/6
f 399/2/6 393/2/6 400/2/6
f 401/4/6 402/4/6 403/4/6
f 403/4/6 402/4/6 404/4/6
f 405/3/6 406/3/6 407/3/6
f 407/3/6 406/3/6 408/3/6
