# MagicaVoxel @ Ephtracy

# material
mtllib obj_curb7.mtl
usemtl palette

# normals
vn -1 0 0
vn 1 0 0
vn 0 0 1
vn 0 0 -1
vn 0 -1 0
vn 0 1 0

# texcoords
vt 0.794922 0.5
vt 0.974609 0.5
vt 0.978516 0.5

# verts
v -2 0 2
v -2 0 1
v -2 0 -0
v -2 0 -1
v -2 0 -2
v -2 1 2
v -2 1 1
v -2 1 -0
v -2 1 -1
v -2 1 -2
v 2 0 2
v 2 0 1
v 2 0 -2
v 2 1 2
v 2 1 1
v 2 1 -2
v -2 0 2
v -2 1 2
v 0 0 2
v 0 1 2
v 2 0 2
v 2 1 2
v -2 0 -2
v -2 1 -2
v -1 0 -2
v -1 1 -2
v 2 0 -2
v 2 1 -2
v -2 0 2
v 0 0 2
v 2 0 2
v -2 0 1
v -1 0 1
v 0 0 1
v 2 0 1
v -2 0 -0
v -1 0 -0
v -2 0 -1
v -1 0 -1
v -2 0 -2
v -1 0 -2
v 2 0 -2
v -2 1 2
v 0 1 2
v 2 1 2
v -2 1 1
v -1 1 1
v 0 1 1
v 2 1 1
v -2 1 -0
v -1 1 -0
v -2 1 -1
v -1 1 -1
v -2 1 -2
v -1 1 -2
v 2 1 -2

# faces
f 6/3/1 2/3/1 1/3/1
f 7/2/1 3/2/1 2/2/1
f 7/3/1 2/3/1 6/3/1
f 8/3/1 4/3/1 3/3/1
f 8/2/1 3/2/1 7/2/1
f 9/2/1 5/2/1 4/2/1
f 9/3/1 4/3/1 8/3/1
f 10/2/1 5/2/1 9/2/1
f 11/2/2 12/2/2 14/2/2
f 12/1/2 13/1/2 15/1/2
f 14/2/2 12/2/2 15/2/2
f 15/1/2 13/1/2 16/1/2
f 19/3/3 18/3/3 17/3/3
f 20/3/3 18/3/3 19/3/3
f 21/2/3 20/2/3 19/2/3
f 22/2/3 20/2/3 21/2/3
f 23/2/4 24/2/4 25/2/4
f 25/2/4 24/2/4 26/2/4
f 25/1/4 26/1/4 27/1/4
f 27/1/4 26/1/4 28/1/4
f 32/3/5 30/3/5 29/3/5
f 33/3/5 30/3/5 32/3/5
f 34/2/5 31/2/5 30/2/5
f 34/3/5 30/3/5 33/3/5
f 35/2/5 31/2/5 34/2/5
f 36/2/5 33/2/5 32/2/5
f 37/1/5 34/1/5 33/1/5
f 37/2/5 33/2/5 36/2/5
f 37/1/5 35/1/5 34/1/5
f 38/3/5 37/3/5 36/3/5
f 39/1/5 35/1/5 37/1/5
f 39/3/5 37/3/5 38/3/5
f 40/2/5 39/2/5 38/2/5
f 41/1/5 35/1/5 39/1/5
f 41/2/5 39/2/5 40/2/5
f 42/1/5 35/1/5 41/1/5
f 43/3/6 44/3/6 46/3/6
f 46/3/6 44/3/6 47/3/6
f 44/2/6 45/2/6 48/2/6
f 47/3/6 44/3/6 48/3/6
f 48/2/6 45/2/6 49/2/6
f 46/2/6 47/2/6 50/2/6
f 47/1/6 48/1/6 51/1/6
f 50/2/6 47/2/6 51/2/6
f 48/1/6 49/1/6 51/1/6
f 50/3/6 51/3/6 52/3/6
f 51/1/6 49/1/6 53/1/6
f 52/3/6 51/3/6 53/3/6
f 52/2/6 53/2/6 54/2/6
f 53/1/6 49/1/6 55/1/6
f 54/2/6 53/2/6 55/2/6
f 55/1/6 49/1/6 56/1/6
