# MagicaVoxel @ Ephtracy

# material
mtllib scene_store10.mtl
usemtl palette

# normals
vn -1 0 0
vn 1 0 0
vn 0 0 1
vn 0 0 -1
vn 0 -1 0
vn 0 1 0

# texcoords
vt 0.638672 0.5
vt 0.962891 0.5
vt 0.966797 0.5
vt 0.974609 0.5

# verts
v -6.5 0 4.5
v -6.5 0 -4.5
v -6.5 1 4.5
v -6.5 1 3.5
v -6.5 1 -3.5
v -6.5 1 -4.5
v -6.5 4 2.5
v -6.5 4 -2.5
v -6.5 5 2.5
v -6.5 5 -2.5
v -6.5 6 2.5
v -6.5 6 -2.5
v -6.5 7 4.5
v -6.5 7 3.5
v -6.5 7 2.5
v -6.5 7 -2.5
v -6.5 7 -3.5
v -6.5 7 -4.5
v -6.5 8 4.5
v -6.5 8 -4.5
v -6.5 9 4.5
v -6.5 9 -4.5
v -6.5 10 4.5
v -6.5 10 -4.5
v -6.5 11 4.5
v -6.5 11 -4.5
v -6.5 12 4.5
v -6.5 12 -4.5
v -6.5 13 4.5
v -6.5 13 -4.5
v -5.5 1 4.5
v -5.5 1 3.5
v -5.5 1 -3.5
v -5.5 1 -4.5
v -5.5 4 2.5
v -5.5 4 -2.5
v -5.5 5 2.5
v -5.5 5 -2.5
v -5.5 6 2.5
v -5.5 6 -2.5
v -5.5 7 4.5
v -5.5 7 3.5
v -5.5 7 2.5
v -5.5 7 -2.5
v -5.5 7 -3.5
v -5.5 7 -4.5
v -5.5 8 4.5
v -5.5 8 -4.5
v -5.5 9 4.5
v -5.5 9 -4.5
v -5.5 10 4.5
v -5.5 10 -4.5
v -5.5 11 4.5
v -5.5 11 -4.5
v -5.5 13 4.5
v -5.5 13 -4.5
v -5.5 14 4.5
v -5.5 14 -4.5
v -3.5 0 4.5
v -3.5 0 3.5
v -3.5 11 4.5
v -3.5 11 3.5
v -2.5 11 4.5
v -2.5 11 3.5
v -2.5 12 4.5
v -2.5 12 3.5
v 1.5 11 3.5
v 1.5 11 2.5
v 1.5 12 3.5
v 1.5 12 2.5
v 2.5 6 4.5
v 2.5 6 3.5
v 2.5 7 4.5
v 2.5 7 3.5
v 3.5 12 4.5
v 3.5 12 3.5
v 3.5 13 4.5
v 3.5 13 3.5
v 4.5 0 4.5
v 4.5 0 3.5
v 4.5 12 4.5
v 4.5 12 3.5
v -4.5 0 4.5
v -4.5 0 3.5
v -4.5 12 4.5
v -4.5 12 3.5
v -3.5 12 4.5
v -3.5 12 3.5
v -3.5 13 4.5
v -3.5 13 3.5
v -0.5 11 3.5
v -0.5 11 2.5
v -0.5 12 3.5
v -0.5 12 2.5
v 0.5 6 4.5
v 0.5 6 3.5
v 0.5 7 4.5
v 0.5 7 3.5
v 2.5 11 4.5
v 2.5 11 3.5
v 2.5 12 4.5
v 2.5 12 3.5
v 3.5 0 4.5
v 3.5 0 3.5
v 3.5 11 4.5
v 3.5 11 3.5
v 5.5 1 4.5
v 5.5 1 3.5
v 5.5 1 -3.5
v 5.5 1 -4.5
v 5.5 4 2.5
v 5.5 4 -2.5
v 5.5 5 2.5
v 5.5 5 -2.5
v 5.5 6 2.5
v 5.5 6 -2.5
v 5.5 7 4.5
v 5.5 7 3.5
v 5.5 7 2.5
v 5.5 7 -2.5
v 5.5 7 -3.5
v 5.5 7 -4.5
v 5.5 8 4.5
v 5.5 8 -4.5
v 5.5 9 4.5
v 5.5 9 -4.5
v 5.5 10 4.5
v 5.5 10 -4.5
v 5.5 11 4.5
v 5.5 11 -4.5
v 5.5 13 4.5
v 5.5 13 -4.5
v 5.5 14 4.5
v 5.5 14 -4.5
v 6.5 0 4.5
v 6.5 0 -4.5
v 6.5 1 4.5
v 6.5 1 3.5
v 6.5 1 -3.5
v 6.5 1 -4.5
v 6.5 4 2.5
v 6.5 4 -2.5
v 6.5 5 2.5
v 6.5 5 -2.5
v 6.5 6 2.5
v 6.5 6 -2.5
v 6.5 7 4.5
v 6.5 7 3.5
v 6.5 7 2.5
v 6.5 7 -2.5
v 6.5 7 -3.5
v 6.5 7 -4.5
v 6.5 8 4.5
v 6.5 8 -4.5
v 6.5 9 4.5
v 6.5 9 -4.5
v 6.5 10 4.5
v 6.5 10 -4.5
v 6.5 11 4.5
v 6.5 11 -4.5
v 6.5 12 4.5
v 6.5 12 -4.5
v 6.5 13 4.5
v 6.5 13 -4.5
v -6.5 0 4.5
v -6.5 1 4.5
v -6.5 7 4.5
v -6.5 8 4.5
v -6.5 9 4.5
v -6.5 10 4.5
v -6.5 11 4.5
v -6.5 12 4.5
v -6.5 13 4.5
v -5.5 1 4.5
v -5.5 7 4.5
v -5.5 8 4.5
v -5.5 9 4.5
v -5.5 10 4.5
v -5.5 11 4.5
v -5.5 13 4.5
v -5.5 14 4.5
v -4.5 0 4.5
v -4.5 12 4.5
v -3.5 0 4.5
v -3.5 11 4.5
v -3.5 12 4.5
v -3.5 13 4.5
v -2.5 11 4.5
v -2.5 12 4.5
v 0.5 6 4.5
v 0.5 7 4.5
v 2.5 6 4.5
v 2.5 7 4.5
v 2.5 11 4.5
v 2.5 12 4.5
v 3.5 0 4.5
v 3.5 11 4.5
v 3.5 12 4.5
v 3.5 13 4.5
v 4.5 0 4.5
v 4.5 12 4.5
v 5.5 1 4.5
v 5.5 7 4.5
v 5.5 8 4.5
v 5.5 9 4.5
v 5.5 10 4.5
v 5.5 11 4.5
v 5.5 13 4.5
v 5.5 14 4.5
v 6.5 0 4.5
v 6.5 1 4.5
v 6.5 7 4.5
v 6.5 8 4.5
v 6.5 9 4.5
v 6.5 10 4.5
v 6.5 11 4.5
v 6.5 12 4.5
v 6.5 13 4.5
v -6.5 1 3.5
v -6.5 7 3.5
v -5.5 1 3.5
v -5.5 7 3.5
v -4.5 0 3.5
v -4.5 12 3.5
v -3.5 0 3.5
v -3.5 11 3.5
v -3.5 12 3.5
v -3.5 13 3.5
v -2.5 11 3.5
v -2.5 12 3.5
v 0.5 6 3.5
v 0.5 7 3.5
v 2.5 6 3.5
v 2.5 7 3.5
v 2.5 11 3.5
v 2.5 12 3.5
v 3.5 0 3.5
v 3.5 11 3.5
v 3.5 12 3.5
v 3.5 13 3.5
v 4.5 0 3.5
v 4.5 12 3.5
v 5.5 1 3.5
v 5.5 7 3.5
v 6.5 1 3.5
v 6.5 7 3.5
v -0.5 11 2.5
v -0.5 12 2.5
v 1.5 11 2.5
v 1.5 12 2.5
v -6.5 4 -2.5
v -6.5 5 -2.5
v -6.5 6 -2.5
v -6.5 7 -2.5
v -5.5 4 -2.5
v -5.5 5 -2.5
v -5.5 6 -2.5
v -5.5 7 -2.5
v 5.5 4 -2.5
v 5.5 5 -2.5
v 5.5 6 -2.5
v 5.5 7 -2.5
v 6.5 4 -2.5
v 6.5 5 -2.5
v 6.5 6 -2.5
v 6.5 7 -2.5
v -0.5 11 3.5
v -0.5 12 3.5
v 1.5 11 3.5
v 1.5 12 3.5
v -6.5 4 2.5
v -6.5 5 2.5
v -6.5 6 2.5
v -6.5 7 2.5
v -5.5 4 2.5
v -5.5 5 2.5
v -5.5 6 2.5
v -5.5 7 2.5
v 5.5 4 2.5
v 5.5 5 2.5
v 5.5 6 2.5
v 5.5 7 2.5
v 6.5 4 2.5
v 6.5 5 2.5
v 6.5 6 2.5
v 6.5 7 2.5
v -6.5 1 -3.5
v -6.5 7 -3.5
v -5.5 1 -3.5
v -5.5 7 -3.5
v 5.5 1 -3.5
v 5.5 7 -3.5
v 6.5 1 -3.5
v 6.5 7 -3.5
v -6.5 0 -4.5
v -6.5 1 -4.5
v -6.5 7 -4.5
v -6.5 8 -4.5
v -6.5 9 -4.5
v -6.5 10 -4.5
v -6.5 11 -4.5
v -6.5 12 -4.5
v -6.5 13 -4.5
v -5.5 1 -4.5
v -5.5 7 -4.5
v -5.5 8 -4.5
v -5.5 9 -4.5
v -5.5 10 -4.5
v -5.5 11 -4.5
v -5.5 13 -4.5
v -5.5 14 -4.5
v 5.5 1 -4.5
v 5.5 7 -4.5
v 5.5 8 -4.5
v 5.5 9 -4.5
v 5.5 10 -4.5
v 5.5 11 -4.5
v 5.5 13 -4.5
v 5.5 14 -4.5
v 6.5 0 -4.5
v 6.5 1 -4.5
v 6.5 7 -4.5
v 6.5 8 -4.5
v 6.5 9 -4.5
v 6.5 10 -4.5
v 6.5 11 -4.5
v 6.5 12 -4.5
v 6.5 13 -4.5
v -6.5 0 4.5
v -4.5 0 4.5
v -3.5 0 4.5
v 3.5 0 4.5
v 4.5 0 4.5
v 6.5 0 4.5
v -4.5 0 3.5
v -3.5 0 3.5
v 2.5 0 3.5
v 3.5 0 3.5
v 4.5 0 3.5
v -4.5 0 2.5
v -3.5 0 2.5
v 2.5 0 2.5
v 3.5 0 2.5
v 4.5 0 2.5
v -6.5 0 -4.5
v 6.5 0 -4.5
v -6.5 5 2.5
v -5.5 5 2.5
v 5.5 5 2.5
v 6.5 5 2.5
v -6.5 5 -2.5
v -5.5 5 -2.5
v 5.5 5 -2.5
v 6.5 5 -2.5
v -6.5 7 4.5
v -5.5 7 4.5
v 0.5 7 4.5
v 2.5 7 4.5
v 5.5 7 4.5
v 6.5 7 4.5
v -6.5 7 3.5
v -5.5 7 3.5
v 0.5 7 3.5
v 2.5 7 3.5
v 5.5 7 3.5
v 6.5 7 3.5
v -6.5 7 2.5
v -5.5 7 2.5
v 5.5 7 2.5
v 6.5 7 2.5
v -6.5 7 -2.5
v -5.5 7 -2.5
v 5.5 7 -2.5
v 6.5 7 -2.5
v -6.5 7 -3.5
v -5.5 7 -3.5
v 5.5 7 -3.5
v 6.5 7 -3.5
v -6.5 7 -4.5
v -5.5 7 -4.5
v 5.5 7 -4.5
v 6.5 7 -4.5
v -6.5 9 4.5
v -5.5 9 4.5
v 5.5 9 4.5
v 6.5 9 4.5
v -6.5 9 -4.5
v -5.5 9 -4.5
v 5.5 9 -4.5
v 6.5 9 -4.5
v -6.5 11 4.5
v -5.5 11 4.5
v 5.5 11 4.5
v 6.5 11 4.5
v -6.5 11 -4.5
v -5.5 11 -4.5
v 5.5 11 -4.5
v 6.5 11 -4.5
v -4.5 12 4.5
v -3.5 12 4.5
v 3.5 12 4.5
v 4.5 12 4.5
v -4.5 12 3.5
v -3.5 12 3.5
v -0.5 12 3.5
v 1.5 12 3.5
v 3.5 12 3.5
v 4.5 12 3.5
v -0.5 12 2.5
v 1.5 12 2.5
v -3.5 13 4.5
v 3.5 13 4.5
v -3.5 13 3.5
v 3.5 13 3.5
v -6.5 1 4.5
v -5.5 1 4.5
v 5.5 1 4.5
v 6.5 1 4.5
v -6.5 1 3.5
v -5.5 1 3.5
v 5.5 1 3.5
v 6.5 1 3.5
v -6.5 1 -3.5
v -5.5 1 -3.5
v 5.5 1 -3.5
v 6.5 1 -3.5
v -6.5 1 -4.5
v -5.5 1 -4.5
v 5.5 1 -4.5
v 6.5 1 -4.5
v -6.5 4 2.5
v -5.5 4 2.5
v 5.5 4 2.5
v 6.5 4 2.5
v -6.5 4 -2.5
v -5.5 4 -2.5
v 5.5 4 -2.5
v 6.5 4 -2.5
v 0.5 6 4.5
v 2.5 6 4.5
v 0.5 6 3.5
v 2.5 6 3.5
v -6.5 6 2.5
v -5.5 6 2.5
v 5.5 6 2.5
v 6.5 6 2.5
v -6.5 6 -2.5
v -5.5 6 -2.5
v 5.5 6 -2.5
v 6.5 6 -2.5
v -6.5 8 4.5
v -5.5 8 4.5
v 5.5 8 4.5
v 6.5 8 4.5
v -6.5 8 -4.5
v -5.5 8 -4.5
v 5.5 8 -4.5
v 6.5 8 -4.5
v -6.5 10 4.5
v -5.5 10 4.5
v 5.5 10 4.5
v 6.5 10 4.5
v -6.5 10 -4.5
v -5.5 10 -4.5
v 5.5 10 -4.5
v 6.5 10 -4.5
v -3.5 11 4.5
v -2.5 11 4.5
v 2.5 11 4.5
v 3.5 11 4.5
v -3.5 11 3.5
v -2.5 11 3.5
v -0.5 11 3.5
v 1.5 11 3.5
v 2.5 11 3.5
v 3.5 11 3.5
v -0.5 11 2.5
v 1.5 11 2.5
v -2.5 12 4.5
v 2.5 12 4.5
v -2.5 12 3.5
v 2.5 12 3.5
v -6.5 13 4.5
v -5.5 13 4.5
v 5.5 13 4.5
v 6.5 13 4.5
v -6.5 13 -4.5
v -5.5 13 -4.5
v 5.5 13 -4.5
v 6.5 13 -4.5
v -5.5 14 4.5
v 5.5 14 4.5
v -5.5 14 -4.5
v 5.5 14 -4.5

# faces
f 3/1/1 2/1/1 1/1/1
f 4/1/1 2/1/1 3/1/1
f 5/1/1 2/1/1 4/1/1
f 6/1/1 2/1/1 5/1/1
f 7/1/1 5/1/1 4/1/1
f 8/1/1 5/1/1 7/1/1
f 9/1/1 7/1/1 4/1/1
f 10/1/1 5/1/1 8/1/1
f 11/1/1 9/1/1 4/1/1
f 11/1/1 10/1/1 9/1/1
f 12/1/1 5/1/1 10/1/1
f 12/1/1 10/1/1 11/1/1
f 14/1/1 11/1/1 4/1/1
f 15/1/1 11/1/1 14/1/1
f 16/1/1 5/1/1 12/1/1
f 17/1/1 5/1/1 16/1/1
f 19/1/1 15/1/1 14/1/1
f 19/1/1 18/1/1 17/1/1
f 19/1/1 17/1/1 16/1/1
f 19/1/1 16/1/1 15/1/1
f 19/1/1 14/1/1 13/1/1
f 20/1/1 18/1/1 19/1/1
f 23/1/1 22/1/1 21/1/1
f 24/1/1 22/1/1 23/1/1
f 27/1/1 26/1/1 25/1/1
f 28/1/1 26/1/1 27/1/1
f 29/2/1 28/2/1 27/2/1
f 30/2/1 28/2/1 29/2/1
f 37/1/1 36/1/1 35/1/1
f 38/1/1 36/1/1 37/1/1
f 41/1/1 32/1/1 31/1/1
f 42/1/1 32/1/1 41/1/1
f 43/1/1 40/1/1 39/1/1
f 44/1/1 40/1/1 43/1/1
f 45/1/1 34/1/1 33/1/1
f 46/1/1 34/1/1 45/1/1
f 49/1/1 48/1/1 47/1/1
f 50/1/1 48/1/1 49/1/1
f 53/1/1 52/1/1 51/1/1
f 54/1/1 52/1/1 53/1/1
f 57/2/1 56/2/1 55/2/1
f 58/2/1 56/2/1 57/2/1
f 61/1/1 60/1/1 59/1/1
f 62/1/1 60/1/1 61/1/1
f 65/1/1 64/1/1 63/1/1
f 66/1/1 64/1/1 65/1/1
f 69/2/1 68/2/1 67/2/1
f 70/2/1 68/2/1 69/2/1
f 73/1/1 72/1/1 71/1/1
f 74/1/1 72/1/1 73/1/1
f 77/2/1 76/2/1 75/2/1
f 78/2/1 76/2/1 77/2/1
f 81/1/1 80/1/1 79/1/1
f 82/1/1 80/1/1 81/1/1
f 83/1/2 84/1/2 85/1/2
f 85/1/2 84/1/2 86/1/2
f 87/2/2 88/2/2 89/2/2
f 89/2/2 88/2/2 90/2/2
f 91/2/2 92/2/2 93/2/2
f 93/2/2 92/2/2 94/2/2
f 95/1/2 96/1/2 97/1/2
f 97/1/2 96/1/2 98/1/2
f 99/1/2 100/1/2 101/1/2
f 101/1/2 100/1/2 102/1/2
f 103/1/2 104/1/2 105/1/2
f 105/1/2 104/1/2 106/1/2
f 111/1/2 112/1/2 113/1/2
f 113/1/2 112/1/2 114/1/2
f 107/1/2 108/1/2 117/1/2
f 117/1/2 108/1/2 118/1/2
f 115/1/2 116/1/2 119/1/2
f 119/1/2 116/1/2 120/1/2
f 109/1/2 110/1/2 121/1/2
f 121/1/2 110/1/2 122/1/2
f 123/1/2 124/1/2 125/1/2
f 125/1/2 124/1/2 126/1/2
f 127/1/2 128/1/2 129/1/2
f 129/1/2 128/1/2 130/1/2
f 131/2/2 132/2/2 133/2/2
f 133/2/2 132/2/2 134/2/2
f 135/1/2 136/1/2 137/1/2
f 137/1/2 136/1/2 138/1/2
f 138/1/2 136/1/2 139/1/2
f 139/1/2 136/1/2 140/1/2
f 138/1/2 139/1/2 141/1/2
f 141/1/2 139/1/2 142/1/2
f 138/1/2 141/1/2 143/1/2
f 142/1/2 139/1/2 144/1/2
f 138/1/2 143/1/2 145/1/2
f 143/1/2 144/1/2 145/1/2
f 144/1/2 139/1/2 146/1/2
f 145/1/2 144/1/2 146/1/2
f 138/1/2 145/1/2 148/1/2
f 148/1/2 145/1/2 149/1/2
f 146/1/2 139/1/2 150/1/2
f 150/1/2 139/1/2 151/1/2
f 148/1/2 149/1/2 153/1/2
f 151/1/2 152/1/2 153/1/2
f 150/1/2 151/1/2 153/1/2
f 149/1/2 150/1/2 153/1/2
f 147/1/2 148/1/2 153/1/2
f 153/1/2 152/1/2 154/1/2
f 155/1/2 156/1/2 157/1/2
f 157/1/2 156/1/2 158/1/2
f 159/1/2 160/1/2 161/1/2
f 161/1/2 160/1/2 162/1/2
f 161/2/2 162/2/2 163/2/2
f 163/2/2 162/2/2 164/2/2
f 174/1/3 166/1/3 165/1/3
f 175/1/3 168/1/3 167/1/3
f 176/1/3 168/1/3 175/1/3
f 177/1/3 170/1/3 169/1/3
f 178/1/3 170/1/3 177/1/3
f 179/1/3 172/1/3 171/1/3
f 180/2/3 173/2/3 172/2/3
f 182/1/3 179/1/3 178/1/3
f 182/1/3 174/1/3 165/1/3
f 182/1/3 176/1/3 175/1/3
f 182/1/3 178/1/3 177/1/3
f 182/1/3 175/1/3 174/1/3
f 182/1/3 177/1/3 176/1/3
f 183/2/3 181/2/3 180/2/3
f 183/1/3 179/1/3 182/1/3
f 183/2/3 180/2/3 172/2/3
f 183/1/3 172/1/3 179/1/3
f 186/2/3 181/2/3 183/2/3
f 187/2/3 181/2/3 186/2/3
f 188/1/3 185/1/3 184/1/3
f 190/1/3 188/1/3 184/1/3
f 190/1/3 189/1/3 188/1/3
f 191/1/3 189/1/3 190/1/3
f 192/1/3 190/1/3 184/1/3
f 193/1/3 189/1/3 191/1/3
f 194/1/3 189/1/3 193/1/3
f 195/1/3 189/1/3 194/1/3
f 196/1/3 192/1/3 184/1/3
f 196/1/3 193/1/3 192/1/3
f 196/1/3 194/1/3 193/1/3
f 197/1/3 194/1/3 196/1/3
f 199/2/3 181/2/3 187/2/3
f 201/2/3 199/2/3 198/2/3
f 202/1/3 201/1/3 200/1/3
f 203/1/3 201/1/3 202/1/3
f 204/1/3 201/1/3 203/1/3
f 205/1/3 201/1/3 204/1/3
f 206/1/3 201/1/3 205/1/3
f 207/1/3 201/1/3 206/1/3
f 208/2/3 181/2/3 199/2/3
f 208/2/3 199/2/3 201/2/3
f 209/2/3 181/2/3 208/2/3
f 210/1/3 202/1/3 200/1/3
f 211/1/3 202/1/3 210/1/3
f 212/1/3 204/1/3 203/1/3
f 213/1/3 204/1/3 212/1/3
f 214/1/3 206/1/3 205/1/3
f 215/1/3 206/1/3 214/1/3
f 216/1/3 201/1/3 207/1/3
f 217/2/3 208/2/3 201/2/3
f 217/1/3 201/1/3 216/1/3
f 218/2/3 208/2/3 217/2/3
f 221/1/3 220/1/3 219/1/3
f 222/1/3 220/1/3 221/1/3
f 225/3/3 224/3/3 223/3/3
f 226/3/3 224/3/3 225/3/3
f 227/3/3 224/3/3 226/3/3
f 229/3/3 228/3/3 227/3/3
f 229/3/3 227/3/3 226/3/3
f 230/3/3 228/3/3 229/3/3
f 233/1/3 232/1/3 231/1/3
f 234/1/3 232/1/3 233/1/3
f 236/3/3 228/3/3 230/3/3
f 238/3/3 236/3/3 235/3/3
f 239/3/3 228/3/3 236/3/3
f 239/3/3 236/3/3 238/3/3
f 240/3/3 228/3/3 239/3/3
f 241/3/3 238/3/3 237/3/3
f 241/3/3 239/3/3 238/3/3
f 242/3/3 239/3/3 241/3/3
f 245/1/3 244/1/3 243/1/3
f 246/1/3 244/1/3 245/1/3
f 249/1/3 248/1/3 247/1/3
f 250/1/3 248/1/3 249/1/3
f 255/1/3 252/1/3 251/1/3
f 256/1/3 252/1/3 255/1/3
f 257/1/3 254/1/3 253/1/3
f 258/1/3 254/1/3 257/1/3
f 263/1/3 260/1/3 259/1/3
f 264/1/3 260/1/3 263/1/3
f 265/1/3 262/1/3 261/1/3
f 266/1/3 262/1/3 265/1/3
f 267/1/4 268/1/4 269/1/4
f 269/1/4 268/1/4 270/1/4
f 271/1/4 272/1/4 275/1/4
f 275/1/4 272/1/4 276/1/4
f 273/1/4 274/1/4 277/1/4
f 277/1/4 274/1/4 278/1/4
f 279/1/4 280/1/4 283/1/4
f 283/1/4 280/1/4 284/1/4
f 281/1/4 282/1/4 285/1/4
f 285/1/4 282/1/4 286/1/4
f 287/1/4 288/1/4 289/1/4
f 289/1/4 288/1/4 290/1/4
f 291/1/4 292/1/4 293/1/4
f 293/1/4 292/1/4 294/1/4
f 295/1/4 296/1/4 304/1/4
f 297/1/4 298/1/4 305/1/4
f 305/1/4 298/1/4 306/1/4
f 299/1/4 300/1/4 307/1/4
f 307/1/4 300/1/4 308/1/4
f 301/1/4 302/1/4 309/1/4
f 302/2/4 303/2/4 310/2/4
f 308/1/4 309/1/4 312/1/4
f 295/1/4 304/1/4 312/1/4
f 305/1/4 306/1/4 312/1/4
f 307/1/4 308/1/4 312/1/4
f 304/1/4 305/1/4 312/1/4
f 306/1/4 307/1/4 312/1/4
f 312/1/4 309/1/4 313/1/4
f 313/1/4 309/1/4 314/1/4
f 314/1/4 309/1/4 315/1/4
f 315/1/4 309/1/4 316/1/4
f 309/1/4 302/1/4 317/1/4
f 316/1/4 309/1/4 317/1/4
f 310/2/4 311/2/4 318/2/4
f 302/2/4 310/2/4 318/2/4
f 318/2/4 311/2/4 319/2/4
f 295/1/4 312/1/4 320/1/4
f 320/1/4 312/1/4 321/1/4
f 313/1/4 314/1/4 322/1/4
f 322/1/4 314/1/4 323/1/4
f 315/1/4 316/1/4 324/1/4
f 324/1/4 316/1/4 325/1/4
f 317/1/4 302/1/4 326/1/4
f 302/2/4 318/2/4 327/2/4
f 326/1/4 302/1/4 327/1/4
f 327/2/4 318/2/4 328/2/4
f 335/1/5 330/1/5 329/1/5
f 336/1/5 332/1/5 331/1/5
f 337/1/5 332/1/5 336/1/5
f 338/1/5 332/1/5 337/1/5
f 339/1/5 334/1/5 333/1/5
f 340/1/5 335/1/5 329/1/5
f 340/3/5 336/3/5 335/3/5
f 341/1/5 337/1/5 336/1/5
f 341/3/5 336/3/5 340/3/5
f 342/4/5 338/4/5 337/4/5
f 342/1/5 337/1/5 341/1/5
f 343/3/5 339/3/5 338/3/5
f 343/4/5 338/4/5 342/4/5
f 344/1/5 334/1/5 339/1/5
f 344/3/5 339/3/5 343/3/5
f 345/1/5 341/1/5 340/1/5
f 345/1/5 342/1/5 341/1/5
f 345/1/5 344/1/5 343/1/5
f 345/1/5 343/1/5 342/1/5
f 345/1/5 340/1/5 329/1/5
f 346/1/5 334/1/5 344/1/5
f 346/1/5 344/1/5 345/1/5
f 351/1/5 348/1/5 347/1/5
f 352/1/5 348/1/5 351/1/5
f 353/1/5 350/1/5 349/1/5
f 354/1/5 350/1/5 353/1/5
f 361/1/5 356/1/5 355/1/5
f 362/1/5 356/1/5 361/1/5
f 363/1/5 358/1/5 357/1/5
f 364/1/5 358/1/5 363/1/5
f 365/1/5 360/1/5 359/1/5
f 366/1/5 360/1/5 365/1/5
f 371/1/5 368/1/5 367/1/5
f 372/1/5 368/1/5 371/1/5
f 373/1/5 370/1/5 369/1/5
f 374/1/5 370/1/5 373/1/5
f 379/1/5 376/1/5 375/1/5
f 380/1/5 376/1/5 379/1/5
f 381/1/5 378/1/5 377/1/5
f 382/1/5 378/1/5 381/1/5
f 387/1/5 384/1/5 383/1/5
f 388/1/5 384/1/5 387/1/5
f 389/1/5 386/1/5 385/1/5
f 390/1/5 386/1/5 389/1/5
f 395/1/5 392/1/5 391/1/5
f 396/1/5 392/1/5 395/1/5
f 397/1/5 394/1/5 393/1/5
f 398/1/5 394/1/5 397/1/5
f 403/2/5 400/2/5 399/2/5
f 404/2/5 400/2/5 403/2/5
f 407/2/5 402/2/5 401/2/5
f 408/2/5 402/2/5 407/2/5
f 409/3/5 406/3/5 405/3/5
f 410/3/5 406/3/5 409/3/5
f 413/2/5 412/2/5 411/2/5
f 414/2/5 412/2/5 413/2/5
f 415/1/6 416/1/6 419/1/6
f 419/1/6 416/1/6 420/1/6
f 417/1/6 418/1/6 421/1/6
f 421/1/6 418/1/6 422/1/6
f 423/1/6 424/1/6 427/1/6
f 427/1/6 424/1/6 428/1/6
f 425/1/6 426/1/6 429/1/6
f 429/1/6 426/1/6 430/1/6
f 431/1/6 432/1/6 435/1/6
f 435/1/6 432/1/6 436/1/6
f 433/1/6 434/1/6 437/1/6
f 437/1/6 434/1/6 438/1/6
f 439/1/6 440/1/6 441/1/6
f 441/1/6 440/1/6 442/1/6
f 443/1/6 444/1/6 447/1/6
f 447/1/6 444/1/6 448/1/6
f 445/1/6 446/1/6 449/1/6
f 449/1/6 446/1/6 450/1/6
f 451/1/6 452/1/6 455/1/6
f 455/1/6 452/1/6 456/1/6
f 453/1/6 454/1/6 457/1/6
f 457/1/6 454/1/6 458/1/6
f 459/1/6 460/1/6 463/1/6
f 463/1/6 460/1/6 464/1/6
f 461/1/6 462/1/6 465/1/6
f 465/1/6 462/1/6 466/1/6
f 467/1/6 468/1/6 471/1/6
f 471/1/6 468/1/6 472/1/6
f 469/1/6 470/1/6 475/1/6
f 475/1/6 470/1/6 476/1/6
f 473/1/6 474/1/6 477/1/6
f 477/1/6 474/1/6 478/1/6
f 479/1/6 480/1/6 481/1/6
f 481/1/6 480/1/6 482/1/6
f 483/2/6 484/2/6 487/2/6
f 487/2/6 484/2/6 488/2/6
f 485/2/6 486/2/6 489/2/6
f 489/2/6 486/2/6 490/2/6
f 491/2/6 492/2/6 493/2/6
f 493/2/6 492/2/6 494/2/6
