# MagicaVoxel @ Ephtracy

# material
mtllib veh_lunch2.mtl
usemtl palette

# normals
vn -1 0 0
vn 1 0 0
vn 0 0 1
vn 0 0 -1
vn 0 -1 0
vn 0 1 0

# texcoords
vt 0.111328 0.5
vt 0.587891 0.5
vt 0.615234 0.5
vt 0.958984 0.5
vt 0.966797 0.5
vt 0.970703 0.5
vt 0.974609 0.5
vt 0.978516 0.5
vt 0.982422 0.5
vt 0.986328 0.5
vt 0.990234 0.5

# verts
v -8.5 6 12.5
v -8.5 6 3.5
v -8.5 7 12.5
v -8.5 7 3.5
v -7.5 7 -9.5
v -7.5 7 -10.5
v -7.5 9 -9.5
v -7.5 9 -10.5
v -6.5 0 10.5
v -6.5 0 7.5
v -6.5 0 -8.5
v -6.5 0 -11.5
v -6.5 1 14.5
v -6.5 1 12.5
v -6.5 1 11.5
v -6.5 1 10.5
v -6.5 1 7.5
v -6.5 1 6.5
v -6.5 1 -7.5
v -6.5 1 -8.5
v -6.5 1 -11.5
v -6.5 1 -12.5
v -6.5 1 -14.5
v -6.5 2 -1.5
v -6.5 2 -5.5
v -6.5 3 14.5
v -6.5 3 12.5
v -6.5 3 -12.5
v -6.5 3 -14.5
v -6.5 4 14.5
v -6.5 4 13.5
v -6.5 4 11.5
v -6.5 4 10.5
v -6.5 4 7.5
v -6.5 4 6.5
v -6.5 4 -7.5
v -6.5 4 -8.5
v -6.5 4 -11.5
v -6.5 4 -12.5
v -6.5 5 10.5
v -6.5 5 7.5
v -6.5 5 -8.5
v -6.5 5 -11.5
v -6.5 6 14.5
v -6.5 6 13.5
v -6.5 6 12.5
v -6.5 6 3.5
v -6.5 7 12.5
v -6.5 7 11.5
v -6.5 7 8.5
v -6.5 7 7.5
v -6.5 7 4.5
v -6.5 7 3.5
v -6.5 7 2.5
v -6.5 7 -0.5
v -6.5 7 -6.5
v -6.5 7 -9.5
v -6.5 7 -10.5
v -6.5 8 -11.5
v -6.5 8 -14.5
v -6.5 9 -9.5
v -6.5 9 -10.5
v -6.5 11 11.5
v -6.5 11 8.5
v -6.5 11 7.5
v -6.5 11 4.5
v -6.5 12 12.5
v -6.5 12 3.5
v -6.5 12 2.5
v -6.5 12 -0.5
v -6.5 12 -1.5
v -6.5 12 -5.5
v -6.5 12 -6.5
v -6.5 12 -10.5
v -6.5 13 14.5
v -6.5 13 -11.5
v -6.5 14 14.5
v -6.5 14 -11.5
v -4.5 14 12.5
v -4.5 14 9.5
v -4.5 14 7.5
v -4.5 14 3.5
v -4.5 14 1.5
v -4.5 14 -2.5
v -4.5 15 12.5
v -4.5 15 9.5
v -4.5 15 7.5
v -4.5 15 3.5
v -4.5 15 1.5
v -4.5 15 -2.5
v 4.5 2 3.5
v 4.5 2 2.5
v 4.5 4 3.5
v 4.5 4 2.5
v 5.5 0 10.5
v 5.5 0 7.5
v 5.5 0 -8.5
v 5.5 0 -11.5
v 5.5 1 10.5
v 5.5 1 7.5
v 5.5 1 -8.5
v 5.5 1 -11.5
v -5.5 0 10.5
v -5.5 0 7.5
v -5.5 0 -8.5
v -5.5 0 -11.5
v -5.5 1 10.5
v -5.5 1 7.5
v -5.5 1 -8.5
v -5.5 1 -11.5
v -4.5 2 3.5
v -4.5 2 2.5
v -4.5 3 3.5
v -4.5 4 3.5
v -4.5 4 2.5
v 4.5 14 12.5
v 4.5 14 9.5
v 4.5 14 7.5
v 4.5 14 3.5
v 4.5 14 1.5
v 4.5 14 -2.5
v 4.5 15 12.5
v 4.5 15 9.5
v 4.5 15 7.5
v 4.5 15 3.5
v 4.5 15 1.5
v 4.5 15 -2.5
v 6.5 0 10.5
v 6.5 0 7.5
v 6.5 0 -8.5
v 6.5 0 -11.5
v 6.5 1 14.5
v 6.5 1 12.5
v 6.5 1 11.5
v 6.5 1 10.5
v 6.5 1 7.5
v 6.5 1 6.5
v 6.5 1 -7.5
v 6.5 1 -8.5
v 6.5 1 -11.5
v 6.5 1 -12.5
v 6.5 1 -14.5
v 6.5 2 -1.5
v 6.5 2 -5.5
v 6.5 3 14.5
v 6.5 3 12.5
v 6.5 3 -12.5
v 6.5 3 -14.5
v 6.5 4 14.5
v 6.5 4 13.5
v 6.5 4 11.5
v 6.5 4 10.5
v 6.5 4 7.5
v 6.5 4 6.5
v 6.5 4 -7.5
v 6.5 4 -8.5
v 6.5 4 -11.5
v 6.5 4 -12.5
v 6.5 5 10.5
v 6.5 5 7.5
v 6.5 5 -8.5
v 6.5 5 -11.5
v 6.5 6 14.5
v 6.5 6 13.5
v 6.5 6 12.5
v 6.5 6 3.5
v 6.5 7 12.5
v 6.5 7 11.5
v 6.5 7 8.5
v 6.5 7 7.5
v 6.5 7 4.5
v 6.5 7 3.5
v 6.5 7 2.5
v 6.5 7 -0.5
v 6.5 7 -6.5
v 6.5 7 -9.5
v 6.5 7 -10.5
v 6.5 8 -11.5
v 6.5 8 -14.5
v 6.5 9 -9.5
v 6.5 9 -10.5
v 6.5 11 11.5
v 6.5 11 8.5
v 6.5 11 7.5
v 6.5 11 4.5
v 6.5 12 12.5
v 6.5 12 3.5
v 6.5 12 2.5
v 6.5 12 -0.5
v 6.5 12 -1.5
v 6.5 12 -5.5
v 6.5 12 -6.5
v 6.5 12 -10.5
v 6.5 13 14.5
v 6.5 13 -11.5
v 6.5 14 14.5
v 6.5 14 -11.5
v 7.5 7 -9.5
v 7.5 7 -10.5
v 7.5 9 -9.5
v 7.5 9 -10.5
v 8.5 6 12.5
v 8.5 6 3.5
v 8.5 7 12.5
v 8.5 7 3.5
v -6.5 1 14.5
v -6.5 3 14.5
v -6.5 4 14.5
v -6.5 6 14.5
v -6.5 13 14.5
v -6.5 14 14.5
v -5.5 4 14.5
v -5.5 6 14.5
v -5.5 7 14.5
v -5.5 8 14.5
v -5.5 9 14.5
v -5.5 10 14.5
v -5.5 11 14.5
v -5.5 12 14.5
v -4.5 5 14.5
v -4.5 6 14.5
v -2.5 5 14.5
v -2.5 6 14.5
v -1.5 5 14.5
v -1.5 6 14.5
v -0.5 5 14.5
v -0.5 6 14.5
v 0.5 5 14.5
v 0.5 6 14.5
v 1.5 5 14.5
v 1.5 6 14.5
v 2.5 5 14.5
v 2.5 6 14.5
v 3.5 3 14.5
v 3.5 4 14.5
v 4.5 5 14.5
v 4.5 6 14.5
v 5.5 3 14.5
v 5.5 4 14.5
v 5.5 6 14.5
v 5.5 7 14.5
v 5.5 8 14.5
v 5.5 9 14.5
v 5.5 10 14.5
v 5.5 11 14.5
v 5.5 12 14.5
v 6.5 1 14.5
v 6.5 3 14.5
v 6.5 4 14.5
v 6.5 6 14.5
v 6.5 13 14.5
v 6.5 14 14.5
v -8.5 6 12.5
v -8.5 7 12.5
v -6.5 6 12.5
v -6.5 7 12.5
v -4.5 14 12.5
v -4.5 15 12.5
v 4.5 14 12.5
v 4.5 15 12.5
v 6.5 6 12.5
v 6.5 7 12.5
v 8.5 6 12.5
v 8.5 7 12.5
v -6.5 0 10.5
v -6.5 1 10.5
v -5.5 0 10.5
v -5.5 1 10.5
v 5.5 0 10.5
v 5.5 1 10.5
v 6.5 0 10.5
v 6.5 1 10.5
v -4.5 14 7.5
v -4.5 15 7.5
v 4.5 14 7.5
v 4.5 15 7.5
v -4.5 2 2.5
v -4.5 4 2.5
v 4.5 2 2.5
v 4.5 4 2.5
v -4.5 14 1.5
v -4.5 15 1.5
v 4.5 14 1.5
v 4.5 15 1.5
v -6.5 0 -8.5
v -6.5 1 -8.5
v -5.5 0 -8.5
v -5.5 1 -8.5
v 5.5 0 -8.5
v 5.5 1 -8.5
v 6.5 0 -8.5
v 6.5 1 -8.5
v -7.5 7 -9.5
v -7.5 9 -9.5
v -6.5 7 -9.5
v -6.5 9 -9.5
v 6.5 7 -9.5
v 6.5 9 -9.5
v 7.5 7 -9.5
v 7.5 9 -9.5
v -4.5 14 9.5
v -4.5 15 9.5
v 4.5 14 9.5
v 4.5 15 9.5
v -6.5 0 7.5
v -6.5 1 7.5
v -5.5 0 7.5
v -5.5 1 7.5
v 5.5 0 7.5
v 5.5 1 7.5
v 6.5 0 7.5
v 6.5 1 7.5
v -8.5 6 3.5
v -8.5 7 3.5
v -6.5 6 3.5
v -6.5 7 3.5
v -4.5 2 3.5
v -4.5 3 3.5
v -4.5 4 3.5
v -4.5 14 3.5
v -4.5 15 3.5
v -3.5 2 3.5
v -3.5 3 3.5
v 4.5 2 3.5
v 4.5 4 3.5
v 4.5 14 3.5
v 4.5 15 3.5
v 6.5 6 3.5
v 6.5 7 3.5
v 8.5 6 3.5
v 8.5 7 3.5
v -4.5 14 -2.5
v -4.5 15 -2.5
v 4.5 14 -2.5
v 4.5 15 -2.5
v -7.5 7 -10.5
v -7.5 9 -10.5
v -6.5 7 -10.5
v -6.5 9 -10.5
v 6.5 7 -10.5
v 6.5 9 -10.5
v 7.5 7 -10.5
v 7.5 9 -10.5
v -6.5 0 -11.5
v -6.5 1 -11.5
v -6.5 8 -11.5
v -6.5 13 -11.5
v -6.5 14 -11.5
v -5.5 0 -11.5
v -5.5 1 -11.5
v -5.5 8 -11.5
v -5.5 12 -11.5
v 5.5 0 -11.5
v 5.5 1 -11.5
v 5.5 8 -11.5
v 5.5 12 -11.5
v 6.5 0 -11.5
v 6.5 1 -11.5
v 6.5 8 -11.5
v 6.5 13 -11.5
v 6.5 14 -11.5
v -6.5 1 -14.5
v -6.5 3 -14.5
v -6.5 8 -14.5
v -5.5 4 -14.5
v -5.5 6 -14.5
v -3.5 4 -14.5
v -3.5 6 -14.5
v -2.5 3 -14.5
v -2.5 6 -14.5
v 2.5 3 -14.5
v 2.5 6 -14.5
v 3.5 4 -14.5
v 3.5 6 -14.5
v 5.5 4 -14.5
v 5.5 6 -14.5
v 6.5 1 -14.5
v 6.5 3 -14.5
v 6.5 8 -14.5
v -6.5 0 10.5
v -5.5 0 10.5
v 5.5 0 10.5
v 6.5 0 10.5
v -6.5 0 7.5
v -5.5 0 7.5
v 5.5 0 7.5
v 6.5 0 7.5
v -6.5 0 -8.5
v -5.5 0 -8.5
v 5.5 0 -8.5
v 6.5 0 -8.5
v -6.5 0 -11.5
v -5.5 0 -11.5
v 5.5 0 -11.5
v 6.5 0 -11.5
v -6.5 1 14.5
v 6.5 1 14.5
v -5.5 1 13.5
v 5.5 1 13.5
v -6.5 1 12.5
v -5.5 1 12.5
v 5.5 1 12.5
v 6.5 1 12.5
v -6.5 1 11.5
v -5.5 1 11.5
v 5.5 1 11.5
v 6.5 1 11.5
v -6.5 1 10.5
v -5.5 1 10.5
v 5.5 1 10.5
v 6.5 1 10.5
v -6.5 1 7.5
v -5.5 1 7.5
v 5.5 1 7.5
v 6.5 1 7.5
v -6.5 1 6.5
v -5.5 1 6.5
v 5.5 1 6.5
v 6.5 1 6.5
v -6.5 1 -7.5
v -5.5 1 -7.5
v 5.5 1 -7.5
v 6.5 1 -7.5
v -6.5 1 -8.5
v -5.5 1 -8.5
v 5.5 1 -8.5
v 6.5 1 -8.5
v -6.5 1 -11.5
v -5.5 1 -11.5
v 5.5 1 -11.5
v 6.5 1 -11.5
v -6.5 1 -12.5
v -5.5 1 -12.5
v 5.5 1 -12.5
v 6.5 1 -12.5
v -5.5 1 -13.5
v 5.5 1 -13.5
v -6.5 1 -14.5
v 6.5 1 -14.5
v -4.5 4 3.5
v 4.5 4 3.5
v -4.5 4 2.5
v 4.5 4 2.5
v -8.5 6 12.5
v -6.5 6 12.5
v 6.5 6 12.5
v 8.5 6 12.5
v -8.5 6 3.5
v -6.5 6 3.5
v 6.5 6 3.5
v 8.5 6 3.5
v -7.5 7 -9.5
v -6.5 7 -9.5
v 6.5 7 -9.5
v 7.5 7 -9.5
v -7.5 7 -10.5
v -6.5 7 -10.5
v 6.5 7 -10.5
v 7.5 7 -10.5
v -4.5 2 3.5
v -3.5 2 3.5
v 4.5 2 3.5
v -4.5 2 2.5
v 4.5 2 2.5
v -8.5 7 12.5
v -6.5 7 12.5
v 6.5 7 12.5
v 8.5 7 12.5
v -6.5 7 11.5
v 6.5 7 11.5
v -6.5 7 8.5
v 6.5 7 8.5
v -6.5 7 7.5
v 6.5 7 7.5
v -6.5 7 4.5
v 6.5 7 4.5
v -8.5 7 3.5
v -6.5 7 3.5
v 6.5 7 3.5
v 8.5 7 3.5
v -6.5 8 -11.5
v -5.5 8 -11.5
v 5.5 8 -11.5
v 6.5 8 -11.5
v -6.5 8 -14.5
v 6.5 8 -14.5
v -7.5 9 -9.5
v -6.5 9 -9.5
v 6.5 9 -9.5
v 7.5 9 -9.5
v -7.5 9 -10.5
v -6.5 9 -10.5
v 6.5 9 -10.5
v 7.5 9 -10.5
v -6.5 14 14.5
v 6.5 14 14.5
v -4.5 14 12.5
v 4.5 14 12.5
v -4.5 14 9.5
v 4.5 14 9.5
v -4.5 14 7.5
v 4.5 14 7.5
v -4.5 14 3.5
v 4.5 14 3.5
v -4.5 14 1.5
v 4.5 14 1.5
v -4.5 14 -2.5
v 4.5 14 -2.5
v -6.5 14 -11.5
v 6.5 14 -11.5
v -4.5 15 12.5
v 4.5 15 12.5
v -4.5 15 9.5
v 4.5 15 9.5
v -4.5 15 7.5
v 4.5 15 7.5
v -4.5 15 3.5
v 4.5 15 3.5
v -4.5 15 1.5
v 4.5 15 1.5
v -4.5 15 -2.5
v 4.5 15 -2.5

# faces
f 3/10/1 2/10/1 1/10/1
f 4/10/1 2/10/1 3/10/1
f 7/4/1 6/4/1 5/4/1
f 8/4/1 6/4/1 7/4/1
f 16/10/1 10/10/1 9/10/1
f 17/10/1 10/10/1 16/10/1
f 20/10/1 12/10/1 11/10/1
f 21/10/1 12/10/1 20/10/1
f 24/4/1 19/4/1 18/4/1
f 25/4/1 19/4/1 24/4/1
f 26/8/1 14/8/1 13/8/1
f 27/4/1 15/4/1 14/4/1
f 27/8/1 14/8/1 26/8/1
f 28/8/1 23/8/1 22/8/1
f 28/10/1 22/10/1 21/10/1
f 29/8/1 23/8/1 28/8/1
f 30/4/1 27/4/1 26/4/1
f 31/4/1 27/4/1 30/4/1
f 32/4/1 15/4/1 27/4/1
f 32/4/1 27/4/1 31/4/1
f 32/10/1 16/10/1 15/10/1
f 33/7/1 17/7/1 16/7/1
f 33/10/1 16/10/1 32/10/1
f 34/10/1 18/10/1 17/10/1
f 34/7/1 17/7/1 33/7/1
f 35/4/1 24/4/1 18/4/1
f 35/10/1 18/10/1 34/10/1
f 36/4/1 19/4/1 25/4/1
f 36/10/1 20/10/1 19/10/1
f 37/7/1 21/7/1 20/7/1
f 37/10/1 20/10/1 36/10/1
f 38/10/1 28/10/1 21/10/1
f 38/7/1 21/7/1 37/7/1
f 39/4/1 29/4/1 28/4/1
f 39/10/1 28/10/1 38/10/1
f 40/4/1 32/4/1 31/4/1
f 40/4/1 33/4/1 32/4/1
f 40/10/1 34/10/1 33/10/1
f 41/4/1 35/4/1 34/4/1
f 41/10/1 34/10/1 40/10/1
f 42/10/1 38/10/1 37/10/1
f 42/4/1 37/4/1 36/4/1
f 43/4/1 39/4/1 38/4/1
f 43/10/1 38/10/1 42/10/1
f 44/1/1 31/1/1 30/1/1
f 45/4/1 40/4/1 31/4/1
f 45/1/1 31/1/1 44/1/1
f 45/4/1 41/4/1 40/4/1
f 46/4/1 41/4/1 45/4/1
f 47/4/1 24/4/1 35/4/1
f 47/4/1 41/4/1 46/4/1
f 47/4/1 35/4/1 41/4/1
f 48/4/1 46/4/1 45/4/1
f 48/4/1 45/4/1 44/4/1
f 53/4/1 24/4/1 47/4/1
f 54/4/1 24/4/1 53/4/1
f 55/4/1 24/4/1 54/4/1
f 56/4/1 42/4/1 36/4/1
f 56/4/1 36/4/1 25/4/1
f 56/4/1 43/4/1 42/4/1
f 57/4/1 43/4/1 56/4/1
f 58/4/1 43/4/1 57/4/1
f 59/4/1 39/4/1 43/4/1
f 59/4/1 43/4/1 58/4/1
f 60/4/1 29/4/1 39/4/1
f 60/4/1 39/4/1 59/4/1
f 61/11/1 57/11/1 56/11/1
f 62/4/1 59/4/1 58/4/1
f 63/10/1 49/10/1 48/10/1
f 63/11/1 50/11/1 49/11/1
f 64/10/1 51/10/1 50/10/1
f 64/11/1 50/11/1 63/11/1
f 65/11/1 52/11/1 51/11/1
f 65/10/1 51/10/1 64/10/1
f 66/10/1 53/10/1 52/10/1
f 66/11/1 52/11/1 65/11/1
f 67/10/1 64/10/1 63/10/1
f 67/4/1 48/4/1 44/4/1
f 67/10/1 66/10/1 65/10/1
f 67/10/1 63/10/1 48/10/1
f 67/10/1 65/10/1 64/10/1
f 68/10/1 53/10/1 66/10/1
f 68/10/1 66/10/1 67/10/1
f 68/4/1 54/4/1 53/4/1
f 69/5/1 55/5/1 54/5/1
f 69/4/1 54/4/1 68/4/1
f 70/4/1 24/4/1 55/4/1
f 70/5/1 55/5/1 69/5/1
f 71/11/1 25/11/1 24/11/1
f 71/4/1 24/4/1 70/4/1
f 72/4/1 56/4/1 25/4/1
f 72/11/1 25/11/1 71/11/1
f 73/11/1 61/11/1 56/11/1
f 73/4/1 56/4/1 72/4/1
f 73/11/1 62/11/1 61/11/1
f 74/4/1 59/4/1 62/4/1
f 74/11/1 62/11/1 73/11/1
f 75/4/1 67/4/1 44/4/1
f 75/4/1 72/4/1 71/4/1
f 75/4/1 74/4/1 73/4/1
f 75/4/1 73/4/1 72/4/1
f 75/4/1 71/4/1 70/4/1
f 75/4/1 69/4/1 68/4/1
f 75/4/1 70/4/1 69/4/1
f 75/4/1 68/4/1 67/4/1
f 76/4/1 59/4/1 74/4/1
f 76/4/1 74/4/1 75/4/1
f 77/7/1 76/7/1 75/7/1
f 78/7/1 76/7/1 77/7/1
f 85/10/1 80/10/1 79/10/1
f 86/10/1 80/10/1 85/10/1
f 87/10/1 82/10/1 81/10/1
f 88/10/1 82/10/1 87/10/1
f 89/10/1 84/10/1 83/10/1
f 90/10/1 84/10/1 89/10/1
f 93/6/1 92/6/1 91/6/1
f 94/6/1 92/6/1 93/6/1
f 99/10/1 96/10/1 95/10/1
f 100/10/1 96/10/1 99/10/1
f 101/10/1 98/10/1 97/10/1
f 102/10/1 98/10/1 101/10/1
f 103/10/2 104/10/2 107/10/2
f 107/10/2 104/10/2 108/10/2
f 105/10/2 106/10/2 109/10/2
f 109/10/2 106/10/2 110/10/2
f 111/6/2 112/6/2 113/6/2
f 113/6/2 112/6/2 114/6/2
f 114/6/2 112/6/2 115/6/2
f 116/10/2 117/10/2 122/10/2
f 122/10/2 117/10/2 123/10/2
f 118/10/2 119/10/2 124/10/2
f 124/10/2 119/10/2 125/10/2
f 120/10/2 121/10/2 126/10/2
f 126/10/2 121/10/2 127/10/2
f 128/10/2 129/10/2 135/10/2
f 135/10/2 129/10/2 136/10/2
f 130/10/2 131/10/2 139/10/2
f 139/10/2 131/10/2 140/10/2
f 137/4/2 138/4/2 143/4/2
f 143/4/2 138/4/2 144/4/2
f 132/8/2 133/8/2 145/8/2
f 133/4/2 134/4/2 146/4/2
f 145/8/2 133/8/2 146/8/2
f 141/8/2 142/8/2 147/8/2
f 140/10/2 141/10/2 147/10/2
f 147/8/2 142/8/2 148/8/2
f 145/4/2 146/4/2 149/4/2
f 149/4/2 146/4/2 150/4/2
f 146/4/2 134/4/2 151/4/2
f 150/4/2 146/4/2 151/4/2
f 134/10/2 135/10/2 151/10/2
f 135/7/2 136/7/2 152/7/2
f 151/10/2 135/10/2 152/10/2
f 136/10/2 137/10/2 153/10/2
f 152/7/2 136/7/2 153/7/2
f 137/4/2 143/4/2 154/4/2
f 153/10/2 137/10/2 154/10/2
f 144/4/2 138/4/2 155/4/2
f 138/10/2 139/10/2 155/10/2
f 139/7/2 140/7/2 156/7/2
f 155/10/2 139/10/2 156/10/2
f 140/10/2 147/10/2 157/10/2
f 156/7/2 140/7/2 157/7/2
f 147/4/2 148/4/2 158/4/2
f 157/10/2 147/10/2 158/10/2
f 150/4/2 151/4/2 159/4/2
f 151/4/2 152/4/2 159/4/2
f 152/10/2 153/10/2 159/10/2
f 153/4/2 154/4/2 160/4/2
f 159/10/2 153/10/2 160/10/2
f 156/10/2 157/10/2 161/10/2
f 155/4/2 156/4/2 161/4/2
f 157/4/2 158/4/2 162/4/2
f 161/10/2 157/10/2 162/10/2
f 149/1/2 150/1/2 163/1/2
f 150/4/2 159/4/2 164/4/2
f 163/1/2 150/1/2 164/1/2
f 159/4/2 160/4/2 164/4/2
f 164/4/2 160/4/2 165/4/2
f 154/4/2 143/4/2 166/4/2
f 165/4/2 160/4/2 166/4/2
f 160/4/2 154/4/2 166/4/2
f 164/4/2 165/4/2 167/4/2
f 163/4/2 164/4/2 167/4/2
f 166/4/2 143/4/2 172/4/2
f 172/4/2 143/4/2 173/4/2
f 173/4/2 143/4/2 174/4/2
f 155/4/2 161/4/2 175/4/2
f 144/4/2 155/4/2 175/4/2
f 161/4/2 162/4/2 175/4/2
f 175/4/2 162/4/2 176/4/2
f 176/4/2 162/4/2 177/4/2
f 162/4/2 158/4/2 178/4/2
f 177/4/2 162/4/2 178/4/2
f 158/4/2 148/4/2 179/4/2
f 178/4/2 158/4/2 179/4/2
f 175/11/2 176/11/2 180/11/2
f 177/4/2 178/4/2 181/4/2
f 167/10/2 168/10/2 182/10/2
f 168/11/2 169/11/2 182/11/2
f 169/10/2 170/10/2 183/10/2
f 182/11/2 169/11/2 183/11/2
f 170/11/2 171/11/2 184/11/2
f 183/10/2 170/10/2 184/10/2
f 171/10/2 172/10/2 185/10/2
f 184/11/2 171/11/2 185/11/2
f 182/10/2 183/10/2 186/10/2
f 163/4/2 167/4/2 186/4/2
f 184/10/2 185/10/2 186/10/2
f 167/10/2 182/10/2 186/10/2
f 183/10/2 184/10/2 186/10/2
f 185/10/2 172/10/2 187/10/2
f 186/10/2 185/10/2 187/10/2
f 172/4/2 173/4/2 187/4/2
f 173/5/2 174/5/2 188/5/2
f 187/4/2 173/4/2 188/4/2
f 174/4/2 143/4/2 189/4/2
f 188/5/2 174/5/2 189/5/2
f 143/11/2 144/11/2 190/11/2
f 189/4/2 143/4/2 190/4/2
f 144/4/2 175/4/2 191/4/2
f 190/11/2 144/11/2 191/11/2
f 175/11/2 180/11/2 192/11/2
f 191/4/2 175/4/2 192/4/2
f 180/11/2 181/11/2 192/11/2
f 181/4/2 178/4/2 193/4/2
f 192/11/2 181/11/2 193/11/2
f 163/4/2 186/4/2 194/4/2
f 190/4/2 191/4/2 194/4/2
f 192/4/2 193/4/2 194/4/2
f 191/4/2 192/4/2 194/4/2
f 189/4/2 190/4/2 194/4/2
f 187/4/2 188/4/2 194/4/2
f 188/4/2 189/4/2 194/4/2
f 186/4/2 187/4/2 194/4/2
f 193/4/2 178/4/2 195/4/2
f 194/4/2 193/4/2 195/4/2
f 194/7/2 195/7/2 196/7/2
f 196/7/2 195/7/2 197/7/2
f 198/4/2 199/4/2 200/4/2
f 200/4/2 199/4/2 201/4/2
f 202/10/2 203/10/2 204/10/2
f 204/10/2 203/10/2 205/10/2
f 212/4/3 208/4/3 207/4/3
f 212/1/3 209/1/3 208/1/3
f 213/4/3 210/4/3 209/4/3
f 213/1/3 209/1/3 212/1/3
f 214/4/3 210/4/3 213/4/3
f 215/4/3 210/4/3 214/4/3
f 216/4/3 210/4/3 215/4/3
f 217/4/3 210/4/3 216/4/3
f 218/4/3 210/4/3 217/4/3
f 219/4/3 210/4/3 218/4/3
f 220/4/3 213/4/3 212/4/3
f 220/4/3 214/4/3 213/4/3
f 221/4/3 214/4/3 220/4/3
f 222/4/3 220/4/3 212/4/3
f 222/7/3 221/7/3 220/7/3
f 223/4/3 214/4/3 221/4/3
f 223/7/3 221/7/3 222/7/3
f 224/4/3 222/4/3 212/4/3
f 224/4/3 223/4/3 222/4/3
f 225/4/3 214/4/3 223/4/3
f 225/4/3 223/4/3 224/4/3
f 226/4/3 224/4/3 212/4/3
f 226/7/3 225/7/3 224/7/3
f 227/4/3 214/4/3 225/4/3
f 227/7/3 225/7/3 226/7/3
f 228/4/3 226/4/3 212/4/3
f 228/4/3 227/4/3 226/4/3
f 229/4/3 214/4/3 227/4/3
f 229/4/3 227/4/3 228/4/3
f 230/4/3 228/4/3 212/4/3
f 230/7/3 229/7/3 228/7/3
f 231/4/3 214/4/3 229/4/3
f 231/7/3 229/7/3 230/7/3
f 232/4/3 230/4/3 212/4/3
f 232/4/3 231/4/3 230/4/3
f 233/4/3 214/4/3 231/4/3
f 233/4/3 231/4/3 232/4/3
f 234/8/3 207/8/3 206/8/3
f 234/4/3 212/4/3 207/4/3
f 234/4/3 232/4/3 212/4/3
f 235/4/3 232/4/3 234/4/3
f 236/7/3 233/7/3 232/7/3
f 236/4/3 232/4/3 235/4/3
f 237/4/3 214/4/3 233/4/3
f 237/7/3 233/7/3 236/7/3
f 238/5/3 235/5/3 234/5/3
f 238/8/3 234/8/3 206/8/3
f 239/4/3 236/4/3 235/4/3
f 239/5/3 235/5/3 238/5/3
f 239/4/3 237/4/3 236/4/3
f 240/4/3 214/4/3 237/4/3
f 240/4/3 237/4/3 239/4/3
f 241/10/3 215/10/3 214/10/3
f 241/4/3 214/4/3 240/4/3
f 242/9/3 216/9/3 215/9/3
f 242/10/3 215/10/3 241/10/3
f 243/10/3 217/10/3 216/10/3
f 243/9/3 216/9/3 242/9/3
f 244/9/3 218/9/3 217/9/3
f 244/10/3 217/10/3 243/10/3
f 245/10/3 219/10/3 218/10/3
f 245/9/3 218/9/3 244/9/3
f 246/4/3 210/4/3 219/4/3
f 246/10/3 219/10/3 245/10/3
f 247/8/3 238/8/3 206/8/3
f 248/4/3 239/4/3 238/4/3
f 248/8/3 238/8/3 247/8/3
f 249/1/3 240/1/3 239/1/3
f 249/4/3 239/4/3 248/4/3
f 250/4/3 245/4/3 244/4/3
f 250/1/3 240/1/3 249/1/3
f 250/4/3 244/4/3 243/4/3
f 250/4/3 246/4/3 245/4/3
f 250/4/3 243/4/3 242/4/3
f 250/4/3 242/4/3 241/4/3
f 250/4/3 241/4/3 240/4/3
f 251/4/3 210/4/3 246/4/3
f 251/4/3 246/4/3 250/4/3
f 251/7/3 211/7/3 210/7/3
f 252/7/3 211/7/3 251/7/3
f 255/10/3 254/10/3 253/10/3
f 256/10/3 254/10/3 255/10/3
f 259/10/3 258/10/3 257/10/3
f 260/10/3 258/10/3 259/10/3
f 263/10/3 262/10/3 261/10/3
f 264/10/3 262/10/3 263/10/3
f 267/10/3 266/10/3 265/10/3
f 268/10/3 266/10/3 267/10/3
f 271/10/3 270/10/3 269/10/3
f 272/10/3 270/10/3 271/10/3
f 275/10/3 274/10/3 273/10/3
f 276/10/3 274/10/3 275/10/3
f 279/4/3 278/4/3 277/4/3
f 280/4/3 278/4/3 279/4/3
f 283/10/3 282/10/3 281/10/3
f 284/10/3 282/10/3 283/10/3
f 287/10/3 286/10/3 285/10/3
f 288/10/3 286/10/3 287/10/3
f 291/10/3 290/10/3 289/10/3
f 292/10/3 290/10/3 291/10/3
f 295/4/3 294/4/3 293/4/3
f 296/4/3 294/4/3 295/4/3
f 299/4/3 298/4/3 297/4/3
f 300/4/3 298/4/3 299/4/3
f 301/10/4 302/10/4 303/10/4
f 303/10/4 302/10/4 304/10/4
f 305/10/4 306/10/4 307/10/4
f 307/10/4 306/10/4 308/10/4
f 309/10/4 310/10/4 311/10/4
f 311/10/4 310/10/4 312/10/4
f 313/10/4 314/10/4 315/10/4
f 315/10/4 314/10/4 316/10/4
f 317/6/4 318/6/4 322/6/4
f 318/10/4 319/10/4 323/10/4
f 322/6/4 318/6/4 323/6/4
f 322/10/4 323/10/4 324/10/4
f 323/10/4 319/10/4 325/10/4
f 324/10/4 323/10/4 325/10/4
f 320/10/4 321/10/4 326/10/4
f 326/10/4 321/10/4 327/10/4
f 328/10/4 329/10/4 330/10/4
f 330/10/4 329/10/4 331/10/4
f 332/10/4 333/10/4 334/10/4
f 334/10/4 333/10/4 335/10/4
f 336/4/4 337/4/4 338/4/4
f 338/4/4 337/4/4 339/4/4
f 340/4/4 341/4/4 342/4/4
f 342/4/4 341/4/4 343/4/4
f 344/10/4 345/10/4 349/10/4
f 349/10/4 345/10/4 350/10/4
f 346/4/4 347/4/4 351/4/4
f 351/4/4 347/4/4 352/4/4
f 351/11/4 352/11/4 355/11/4
f 352/4/4 347/4/4 356/4/4
f 355/11/4 352/11/4 356/11/4
f 353/10/4 354/10/4 357/10/4
f 357/10/4 354/10/4 358/10/4
f 355/4/4 356/4/4 359/4/4
f 347/7/4 348/7/4 360/7/4
f 359/4/4 356/4/4 360/4/4
f 356/4/4 347/4/4 360/4/4
f 360/7/4 348/7/4 361/7/4
f 363/4/4 364/4/4 365/4/4
f 365/4/4 364/4/4 366/4/4
f 363/4/4 365/4/4 367/4/4
f 365/5/4 366/5/4 367/5/4
f 366/4/4 364/4/4 368/4/4
f 367/5/4 366/5/4 368/5/4
f 362/8/4 363/8/4 369/8/4
f 363/4/4 367/4/4 369/4/4
f 367/4/4 368/4/4 369/4/4
f 368/4/4 364/4/4 370/4/4
f 369/4/4 368/4/4 370/4/4
f 362/8/4 369/8/4 371/8/4
f 369/6/4 370/6/4 371/6/4
f 370/4/4 364/4/4 372/4/4
f 371/6/4 370/6/4 372/6/4
f 371/4/4 372/4/4 373/4/4
f 372/4/4 364/4/4 374/4/4
f 373/4/4 372/4/4 374/4/4
f 371/4/4 373/4/4 375/4/4
f 373/5/4 374/5/4 375/5/4
f 374/4/4 364/4/4 376/4/4
f 375/5/4 374/5/4 376/5/4
f 362/8/4 371/8/4 377/8/4
f 371/4/4 375/4/4 378/4/4
f 377/8/4 371/8/4 378/8/4
f 375/4/4 376/4/4 378/4/4
f 376/4/4 364/4/4 379/4/4
f 378/4/4 376/4/4 379/4/4
f 384/10/5 381/10/5 380/10/5
f 385/10/5 381/10/5 384/10/5
f 386/10/5 383/10/5 382/10/5
f 387/10/5 383/10/5 386/10/5
f 392/10/5 389/10/5 388/10/5
f 393/10/5 389/10/5 392/10/5
f 394/10/5 391/10/5 390/10/5
f 395/10/5 391/10/5 394/10/5
f 398/8/5 397/8/5 396/8/5
f 399/8/5 397/8/5 398/8/5
f 400/8/5 398/8/5 396/8/5
f 401/6/5 399/6/5 398/6/5
f 401/8/5 398/8/5 400/8/5
f 402/8/5 397/8/5 399/8/5
f 402/6/5 399/6/5 401/6/5
f 403/8/5 397/8/5 402/8/5
f 404/4/5 401/4/5 400/4/5
f 405/6/5 402/6/5 401/6/5
f 405/4/5 401/4/5 404/4/5
f 406/4/5 403/4/5 402/4/5
f 406/6/5 402/6/5 405/6/5
f 407/4/5 403/4/5 406/4/5
f 408/10/5 405/10/5 404/10/5
f 409/6/5 406/6/5 405/6/5
f 409/10/5 405/10/5 408/10/5
f 410/10/5 407/10/5 406/10/5
f 410/6/5 406/6/5 409/6/5
f 411/10/5 407/10/5 410/10/5
f 413/6/5 410/6/5 409/6/5
f 414/6/5 410/6/5 413/6/5
f 416/10/5 413/10/5 412/10/5
f 417/6/5 414/6/5 413/6/5
f 417/10/5 413/10/5 416/10/5
f 418/10/5 415/10/5 414/10/5
f 418/6/5 414/6/5 417/6/5
f 419/10/5 415/10/5 418/10/5
f 420/4/5 417/4/5 416/4/5
f 421/6/5 418/6/5 417/6/5
f 421/4/5 417/4/5 420/4/5
f 422/4/5 419/4/5 418/4/5
f 422/6/5 418/6/5 421/6/5
f 423/4/5 419/4/5 422/4/5
f 424/10/5 421/10/5 420/10/5
f 425/6/5 422/6/5 421/6/5
f 425/10/5 421/10/5 424/10/5
f 426/10/5 423/10/5 422/10/5
f 426/6/5 422/6/5 425/6/5
f 427/10/5 423/10/5 426/10/5
f 429/6/5 426/6/5 425/6/5
f 430/6/5 426/6/5 429/6/5
f 432/10/5 429/10/5 428/10/5
f 433/6/5 430/6/5 429/6/5
f 433/10/5 429/10/5 432/10/5
f 434/10/5 431/10/5 430/10/5
f 434/6/5 430/6/5 433/6/5
f 435/10/5 431/10/5 434/10/5
f 436/8/5 433/8/5 432/8/5
f 436/6/5 434/6/5 433/6/5
f 437/8/5 435/8/5 434/8/5
f 437/6/5 434/6/5 436/6/5
f 438/8/5 436/8/5 432/8/5
f 438/8/5 437/8/5 436/8/5
f 439/8/5 435/8/5 437/8/5
f 439/8/5 437/8/5 438/8/5
f 442/4/5 441/4/5 440/4/5
f 443/4/5 441/4/5 442/4/5
f 448/10/5 445/10/5 444/10/5
f 449/10/5 445/10/5 448/10/5
f 450/10/5 447/10/5 446/10/5
f 451/10/5 447/10/5 450/10/5
f 456/4/5 453/4/5 452/4/5
f 457/4/5 453/4/5 456/4/5
f 458/4/5 455/4/5 454/4/5
f 459/4/5 455/4/5 458/4/5
f 460/6/6 461/6/6 463/6/6
f 461/6/6 462/6/6 463/6/6
f 463/6/6 462/6/6 464/6/6
f 465/10/6 466/10/6 469/10/6
f 467/10/6 468/10/6 470/10/6
f 465/10/6 469/10/6 471/10/6
f 470/10/6 468/10/6 472/10/6
f 465/10/6 471/10/6 473/10/6
f 472/10/6 468/10/6 474/10/6
f 465/10/6 473/10/6 475/10/6
f 474/10/6 468/10/6 476/10/6
f 465/10/6 475/10/6 477/10/6
f 477/10/6 475/10/6 478/10/6
f 476/10/6 468/10/6 479/10/6
f 479/10/6 468/10/6 480/10/6
f 481/4/6 482/4/6 485/4/6
f 483/4/6 484/4/6 485/4/6
f 482/4/6 483/4/6 485/4/6
f 485/4/6 484/4/6 486/4/6
f 487/4/6 488/4/6 491/4/6
f 491/4/6 488/4/6 492/4/6
f 489/4/6 490/4/6 493/4/6
f 493/4/6 490/4/6 494/4/6
f 495/7/6 496/7/6 497/7/6
f 497/7/6 496/7/6 498/7/6
f 495/7/6 497/7/6 499/7/6
f 498/7/6 496/7/6 500/7/6
f 495/7/6 499/7/6 501/7/6
f 499/7/6 500/7/6 501/7/6
f 500/7/6 496/7/6 502/7/6
f 501/7/6 500/7/6 502/7/6
f 495/7/6 501/7/6 503/7/6
f 502/7/6 496/7/6 504/7/6
f 495/7/6 503/7/6 505/7/6
f 503/7/6 504/7/6 505/7/6
f 504/7/6 496/7/6 506/7/6
f 505/7/6 504/7/6 506/7/6
f 495/7/6 505/7/6 507/7/6
f 506/7/6 496/7/6 508/7/6
f 495/7/6 507/7/6 509/7/6
f 507/7/6 508/7/6 509/7/6
f 508/7/6 496/7/6 510/7/6
f 509/7/6 508/7/6 510/7/6
f 511/10/6 512/10/6 513/10/6
f 513/10/6 512/10/6 514/10/6
f 515/10/6 516/10/6 517/10/6
f 517/10/6 516/10/6 518/10/6
f 519/10/6 520/10/6 521/10/6
f 521/10/6 520/10/6 522/10/6
