# MagicaVoxel @ Ephtracy

# material
mtllib veh_car2.mtl
usemtl palette

# normals
vn -1 0 0
vn 1 0 0
vn 0 0 1
vn 0 0 -1
vn 0 -1 0
vn 0 1 0

# texcoords
vt 0.0527344 0.5
vt 0.166016 0.5
vt 0.587891 0.5
vt 0.841797 0.5
vt 0.958984 0.5
vt 0.966797 0.5
vt 0.970703 0.5
vt 0.974609 0.5
vt 0.978516 0.5
vt 0.986328 0.5
vt 0.990234 0.5

# verts
v -7.5 2 16
v -7.5 2 14
v -7.5 2 -14
v -7.5 2 -16
v -7.5 4 16
v -7.5 4 14
v -7.5 4 -14
v -7.5 4 -16
v -7.5 6 -3
v -7.5 6 -4
v -7.5 8 -3
v -7.5 8 -4
v -6.5 0 10
v -6.5 0 7
v -6.5 0 -8
v -6.5 0 -11
v -6.5 1 13
v -6.5 1 11
v -6.5 1 10
v -6.5 1 7
v -6.5 1 6
v -6.5 1 -7
v -6.5 1 -8
v -6.5 1 -11
v -6.5 1 -12
v -6.5 1 -14
v -6.5 2 14
v -6.5 2 13
v -6.5 2 6
v -6.5 2 -7
v -6.5 2 -14
v -6.5 3 14
v -6.5 3 11
v -6.5 3 -12
v -6.5 3 -14
v -6.5 4 15
v -6.5 4 14
v -6.5 4 11
v -6.5 4 10
v -6.5 4 7
v -6.5 4 6
v -6.5 4 -7
v -6.5 4 -8
v -6.5 4 -11
v -6.5 4 -12
v -6.5 4 -14
v -6.5 4 -15
v -6.5 5 15
v -6.5 5 14
v -6.5 5 10
v -6.5 5 7
v -6.5 5 3
v -6.5 5 1
v -6.5 5 -8
v -6.5 5 -11
v -6.5 6 3
v -6.5 6 1
v -6.5 6 -3
v -6.5 6 -4
v -6.5 7 15
v -6.5 7 14
v -6.5 7 8
v -6.5 7 6
v -6.5 7 4
v -6.5 7 3
v -6.5 7 -3
v -6.5 7 -4
v -6.5 7 -5
v -6.5 7 -15
v -6.5 8 -3
v -6.5 8 -4
v -6.5 10 6
v -6.5 10 4
v -6.5 10 3
v -6.5 10 -4
v -6.5 11 8
v -6.5 11 -5
v -5.5 7 -14
v -5.5 7 -15
v -5.5 8 -14
v -5.5 8 -15
v 3.5 7 -14
v 3.5 7 -15
v 3.5 8 -14
v 3.5 8 -15
v 4.5 4 6
v 4.5 4 -2
v 4.5 7 6
v 4.5 7 -2
v 5.5 0 10
v 5.5 0 7
v 5.5 0 -8
v 5.5 0 -11
v 5.5 1 10
v 5.5 1 7
v 5.5 1 -8
v 5.5 1 -11
v -5.5 0 10
v -5.5 0 7
v -5.5 0 -8
v -5.5 0 -11
v -5.5 1 10
v -5.5 1 7
v -5.5 1 -8
v -5.5 1 -11
v -4.5 4 6
v -4.5 4 -2
v -4.5 7 6
v -4.5 7 -2
v -3.5 7 -14
v -3.5 7 -15
v -3.5 8 -14
v -3.5 8 -15
v 5.5 7 -14
v 5.5 7 -15
v 5.5 8 -14
v 5.5 8 -15
v 6.5 0 10
v 6.5 0 7
v 6.5 0 -8
v 6.5 0 -11
v 6.5 1 13
v 6.5 1 11
v 6.5 1 10
v 6.5 1 7
v 6.5 1 6
v 6.5 1 -7
v 6.5 1 -8
v 6.5 1 -11
v 6.5 1 -12
v 6.5 1 -14
v 6.5 2 14
v 6.5 2 13
v 6.5 2 6
v 6.5 2 -7
v 6.5 2 -14
v 6.5 3 14
v 6.5 3 11
v 6.5 3 -12
v 6.5 3 -14
v 6.5 4 15
v 6.5 4 14
v 6.5 4 11
v 6.5 4 10
v 6.5 4 7
v 6.5 4 6
v 6.5 4 -7
v 6.5 4 -8
v 6.5 4 -11
v 6.5 4 -12
v 6.5 4 -14
v 6.5 4 -15
v 6.5 5 15
v 6.5 5 14
v 6.5 5 10
v 6.5 5 7
v 6.5 5 3
v 6.5 5 1
v 6.5 5 -8
v 6.5 5 -11
v 6.5 6 3
v 6.5 6 1
v 6.5 6 -3
v 6.5 6 -4
v 6.5 7 15
v 6.5 7 14
v 6.5 7 8
v 6.5 7 6
v 6.5 7 4
v 6.5 7 3
v 6.5 7 -3
v 6.5 7 -4
v 6.5 7 -5
v 6.5 7 -15
v 6.5 8 -3
v 6.5 8 -4
v 6.5 10 6
v 6.5 10 4
v 6.5 10 3
v 6.5 10 -4
v 6.5 11 8
v 6.5 11 -5
v 7.5 2 16
v 7.5 2 14
v 7.5 2 -14
v 7.5 2 -16
v 7.5 4 16
v 7.5 4 14
v 7.5 4 -14
v 7.5 4 -16
v 7.5 6 -3
v 7.5 6 -4
v 7.5 8 -3
v 7.5 8 -4
v -7.5 2 16
v -7.5 4 16
v 7.5 2 16
v 7.5 4 16
v -6.5 4 15
v -6.5 5 15
v -6.5 7 15
v -5.5 5 15
v -5.5 7 15
v -2.5 4 15
v -2.5 6 15
v 2.5 4 15
v 2.5 6 15
v 5.5 5 15
v 5.5 7 15
v 6.5 4 15
v 6.5 5 15
v 6.5 7 15
v -6.5 1 13
v -6.5 2 13
v 6.5 1 13
v 6.5 2 13
v -6.5 0 10
v -6.5 1 10
v -5.5 0 10
v -5.5 1 10
v 5.5 0 10
v 5.5 1 10
v 6.5 0 10
v 6.5 1 10
v -6.5 7 8
v -6.5 11 8
v -4.5 8 8
v -4.5 10 8
v 4.5 8 8
v 4.5 10 8
v 6.5 7 8
v 6.5 11 8
v -4.5 4 -2
v -4.5 7 -2
v 4.5 4 -2
v 4.5 7 -2
v -7.5 6 -3
v -7.5 8 -3
v -6.5 6 -3
v -6.5 7 -3
v -6.5 8 -3
v 6.5 6 -3
v 6.5 7 -3
v 6.5 8 -3
v 7.5 6 -3
v 7.5 8 -3
v -6.5 0 -8
v -6.5 1 -8
v -5.5 0 -8
v -5.5 1 -8
v 5.5 0 -8
v 5.5 1 -8
v 6.5 0 -8
v 6.5 1 -8
v -7.5 2 -14
v -7.5 4 -14
v -6.5 2 -14
v -6.5 3 -14
v -6.5 4 -14
v -5.5 7 -14
v -5.5 8 -14
v -3.5 7 -14
v -3.5 8 -14
v 3.5 7 -14
v 3.5 8 -14
v 5.5 7 -14
v 5.5 8 -14
v 6.5 2 -14
v 6.5 3 -14
v 6.5 4 -14
v 7.5 2 -14
v 7.5 4 -14
v -7.5 2 14
v -7.5 4 14
v -6.5 2 14
v -6.5 3 14
v -6.5 4 14
v 6.5 2 14
v 6.5 3 14
v 6.5 4 14
v 7.5 2 14
v 7.5 4 14
v -6.5 0 7
v -6.5 1 7
v -5.5 0 7
v -5.5 1 7
v 5.5 0 7
v 5.5 1 7
v 6.5 0 7
v 6.5 1 7
v -4.5 4 6
v -4.5 7 6
v -2.5 4 6
v -2.5 7 6
v 2.5 4 6
v 2.5 7 6
v 4.5 4 6
v 4.5 7 6
v -7.5 6 -4
v -7.5 8 -4
v -6.5 6 -4
v -6.5 7 -4
v -6.5 8 -4
v 6.5 6 -4
v 6.5 7 -4
v 6.5 8 -4
v 7.5 6 -4
v 7.5 8 -4
v -6.5 7 -5
v -6.5 11 -5
v -5.5 7 -5
v -5.5 10 -5
v 5.5 7 -5
v 5.5 10 -5
v 6.5 7 -5
v 6.5 11 -5
v -6.5 0 -11
v -6.5 1 -11
v -5.5 0 -11
v -5.5 1 -11
v 5.5 0 -11
v 5.5 1 -11
v 6.5 0 -11
v 6.5 1 -11
v -6.5 1 -14
v -6.5 2 -14
v 6.5 1 -14
v 6.5 2 -14
v -6.5 4 -15
v -6.5 7 -15
v -5.5 6 -15
v -5.5 7 -15
v -5.5 8 -15
v -3.5 6 -15
v -3.5 7 -15
v -3.5 8 -15
v -1.5 4 -15
v -1.5 5 -15
v 1.5 4 -15
v 1.5 5 -15
v 3.5 6 -15
v 3.5 7 -15
v 3.5 8 -15
v 5.5 6 -15
v 5.5 7 -15
v 5.5 8 -15
v 6.5 4 -15
v 6.5 7 -15
v -7.5 2 -16
v -7.5 4 -16
v 7.5 2 -16
v 7.5 4 -16
v -6.5 0 10
v -5.5 0 10
v 5.5 0 10
v 6.5 0 10
v -6.5 0 7
v -5.5 0 7
v 5.5 0 7
v 6.5 0 7
v -6.5 0 -8
v -5.5 0 -8
v 5.5 0 -8
v 6.5 0 -8
v -6.5 0 -11
v -5.5 0 -11
v 5.5 0 -11
v 6.5 0 -11
v -6.5 1 13
v 6.5 1 13
v -5.5 1 12
v 5.5 1 12
v -6.5 1 11
v -5.5 1 11
v 5.5 1 11
v 6.5 1 11
v -6.5 1 10
v -5.5 1 10
v 5.5 1 10
v 6.5 1 10
v -6.5 1 7
v -5.5 1 7
v 5.5 1 7
v 6.5 1 7
v -6.5 1 6
v -5.5 1 6
v 5.5 1 6
v 6.5 1 6
v -6.5 1 -7
v -5.5 1 -7
v 5.5 1 -7
v 6.5 1 -7
v -6.5 1 -8
v -5.5 1 -8
v 5.5 1 -8
v 6.5 1 -8
v -6.5 1 -11
v -5.5 1 -11
v 5.5 1 -11
v 6.5 1 -11
v -6.5 1 -12
v -5.5 1 -12
v 5.5 1 -12
v 6.5 1 -12
v -5.5 1 -13
v 5.5 1 -13
v -6.5 1 -14
v 6.5 1 -14
v -7.5 2 16
v 7.5 2 16
v -6.5 2 15
v 6.5 2 15
v -7.5 2 14
v -6.5 2 14
v 6.5 2 14
v 7.5 2 14
v -6.5 2 13
v 6.5 2 13
v -7.5 2 -14
v -6.5 2 -14
v 6.5 2 -14
v 7.5 2 -14
v -6.5 2 -15
v 6.5 2 -15
v -7.5 2 -16
v 7.5 2 -16
v -7.5 6 -3
v -6.5 6 -3
v 6.5 6 -3
v 7.5 6 -3
v -7.5 6 -4
v -6.5 6 -4
v 6.5 6 -4
v 7.5 6 -4
v -4.5 7 6
v -2.5 7 6
v 2.5 7 6
v 4.5 7 6
v -4.5 7 -2
v 4.5 7 -2
v -7.5 4 16
v 7.5 4 16
v -6.5 4 15
v -2.5 4 15
v 2.5 4 15
v 6.5 4 15
v -7.5 4 14
v -6.5 4 14
v 6.5 4 14
v 7.5 4 14
v -4.5 4 6
v -2.5 4 6
v 2.5 4 6
v 4.5 4 6
v -4.5 4 -2
v 4.5 4 -2
v -7.5 4 -14
v -6.5 4 -14
v 6.5 4 -14
v 7.5 4 -14
v -6.5 4 -15
v -1.5 4 -15
v 1.5 4 -15
v 6.5 4 -15
v -7.5 4 -16
v 7.5 4 -16
v -6.5 7 15
v -5.5 7 15
v 5.5 7 15
v 6.5 7 15
v -6.5 7 14
v -5.5 7 14
v 5.5 7 14
v 6.5 7 14
v -6.5 7 8
v 6.5 7 8
v -6.5 7 -5
v -5.5 7 -5
v 5.5 7 -5
v 6.5 7 -5
v -5.5 7 -14
v -3.5 7 -14
v 3.5 7 -14
v 5.5 7 -14
v -6.5 7 -15
v -5.5 7 -15
v -3.5 7 -15
v 3.5 7 -15
v 5.5 7 -15
v 6.5 7 -15
v -7.5 8 -3
v -6.5 8 -3
v 6.5 8 -3
v 7.5 8 -3
v -7.5 8 -4
v -6.5 8 -4
v 6.5 8 -4
v 7.5 8 -4
v -5.5 8 -14
v -3.5 8 -14
v 3.5 8 -14
v 5.5 8 -14
v -5.5 8 -15
v -3.5 8 -15
v 3.5 8 -15
v 5.5 8 -15
v -6.5 11 8
v 6.5 11 8
v -6.5 11 -5
v 6.5 11 -5

# faces
f 5/9/1 2/9/1 1/9/1
f 6/9/1 2/9/1 5/9/1
f 7/9/1 4/9/1 3/9/1
f 8/9/1 4/9/1 7/9/1
f 11/1/1 10/1/1 9/1/1
f 12/1/1 10/1/1 11/1/1
f 19/10/1 14/10/1 13/10/1
f 20/10/1 14/10/1 19/10/1
f 23/10/1 16/10/1 15/10/1
f 24/10/1 16/10/1 23/10/1
f 28/6/1 18/6/1 17/6/1
f 29/6/1 22/6/1 21/6/1
f 29/10/1 21/10/1 20/10/1
f 30/10/1 23/10/1 22/10/1
f 30/6/1 22/6/1 29/6/1
f 31/6/1 26/6/1 25/6/1
f 32/6/1 28/6/1 27/6/1
f 33/10/1 19/10/1 18/10/1
f 33/6/1 28/6/1 32/6/1
f 33/6/1 18/6/1 28/6/1
f 34/6/1 31/6/1 25/6/1
f 34/10/1 25/10/1 24/10/1
f 35/6/1 31/6/1 34/6/1
f 37/1/1 33/1/1 32/1/1
f 38/10/1 19/10/1 33/10/1
f 38/1/1 33/1/1 37/1/1
f 39/8/1 20/8/1 19/8/1
f 39/10/1 19/10/1 38/10/1
f 40/10/1 29/10/1 20/10/1
f 40/8/1 20/8/1 39/8/1
f 41/1/1 30/1/1 29/1/1
f 41/10/1 29/10/1 40/10/1
f 42/10/1 23/10/1 30/10/1
f 42/1/1 30/1/1 41/1/1
f 43/8/1 24/8/1 23/8/1
f 43/10/1 23/10/1 42/10/1
f 44/10/1 34/10/1 24/10/1
f 44/8/1 24/8/1 43/8/1
f 45/1/1 35/1/1 34/1/1
f 45/10/1 34/10/1 44/10/1
f 46/1/1 35/1/1 45/1/1
f 48/1/1 38/1/1 37/1/1
f 48/1/1 37/1/1 36/1/1
f 48/1/1 39/1/1 38/1/1
f 49/1/1 39/1/1 48/1/1
f 50/10/1 40/10/1 39/10/1
f 50/1/1 39/1/1 49/1/1
f 51/1/1 41/1/1 40/1/1
f 51/10/1 40/10/1 50/10/1
f 51/1/1 42/1/1 41/1/1
f 51/1/1 43/1/1 42/1/1
f 52/1/1 43/1/1 51/1/1
f 53/1/1 43/1/1 52/1/1
f 54/10/1 44/10/1 43/10/1
f 54/1/1 43/1/1 53/1/1
f 55/1/1 46/1/1 45/1/1
f 55/10/1 44/10/1 54/10/1
f 55/1/1 47/1/1 46/1/1
f 55/1/1 45/1/1 44/1/1
f 56/1/1 50/1/1 49/1/1
f 56/1/1 52/1/1 51/1/1
f 56/8/1 53/8/1 52/8/1
f 56/1/1 51/1/1 50/1/1
f 57/1/1 54/1/1 53/1/1
f 57/8/1 53/8/1 56/8/1
f 57/1/1 55/1/1 54/1/1
f 58/1/1 55/1/1 57/1/1
f 59/1/1 55/1/1 58/1/1
f 60/4/1 49/4/1 48/4/1
f 61/1/1 56/1/1 49/1/1
f 61/4/1 49/4/1 60/4/1
f 61/1/1 57/1/1 56/1/1
f 61/1/1 58/1/1 57/1/1
f 62/1/1 58/1/1 61/1/1
f 63/1/1 58/1/1 62/1/1
f 64/1/1 58/1/1 63/1/1
f 65/1/1 58/1/1 64/1/1
f 66/1/1 58/1/1 65/1/1
f 67/1/1 55/1/1 59/1/1
f 68/1/1 55/1/1 67/1/1
f 69/1/1 47/1/1 55/1/1
f 69/1/1 55/1/1 68/1/1
f 70/11/1 66/11/1 65/11/1
f 71/2/1 68/2/1 67/2/1
f 72/2/1 63/2/1 62/2/1
f 72/11/1 64/11/1 63/11/1
f 73/2/1 65/2/1 64/2/1
f 73/11/1 64/11/1 72/11/1
f 74/11/1 70/11/1 65/11/1
f 74/2/1 65/2/1 73/2/1
f 74/11/1 71/11/1 70/11/1
f 75/2/1 68/2/1 71/2/1
f 75/11/1 71/11/1 74/11/1
f 76/2/1 73/2/1 72/2/1
f 76/2/1 72/2/1 62/2/1
f 76/2/1 75/2/1 74/2/1
f 76/2/1 74/2/1 73/2/1
f 77/2/1 68/2/1 75/2/1
f 77/2/1 75/2/1 76/2/1
f 80/5/1 79/5/1 78/5/1
f 81/5/1 79/5/1 80/5/1
f 84/5/1 83/5/1 82/5/1
f 85/5/1 83/5/1 84/5/1
f 88/1/1 87/1/1 86/1/1
f 89/1/1 87/1/1 88/1/1
f 94/10/1 91/10/1 90/10/1
f 95/10/1 91/10/1 94/10/1
f 96/10/1 93/10/1 92/10/1
f 97/10/1 93/10/1 96/10/1
f 98/10/2 99/10/2 102/10/2
f 102/10/2 99/10/2 103/10/2
f 100/10/2 101/10/2 104/10/2
f 104/10/2 101/10/2 105/10/2
f 106/1/2 107/1/2 108/1/2
f 108/1/2 107/1/2 109/1/2
f 110/5/2 111/5/2 112/5/2
f 112/5/2 111/5/2 113/5/2
f 114/5/2 115/5/2 116/5/2
f 116/5/2 115/5/2 117/5/2
f 118/10/2 119/10/2 124/10/2
f 124/10/2 119/10/2 125/10/2
f 120/10/2 121/10/2 128/10/2
f 128/10/2 121/10/2 129/10/2
f 122/6/2 123/6/2 133/6/2
f 126/6/2 127/6/2 134/6/2
f 125/10/2 126/10/2 134/10/2
f 127/10/2 128/10/2 135/10/2
f 134/6/2 127/6/2 135/6/2
f 130/6/2 131/6/2 136/6/2
f 132/6/2 133/6/2 137/6/2
f 123/10/2 124/10/2 138/10/2
f 137/6/2 133/6/2 138/6/2
f 133/6/2 123/6/2 138/6/2
f 130/6/2 136/6/2 139/6/2
f 129/10/2 130/10/2 139/10/2
f 139/6/2 136/6/2 140/6/2
f 137/1/2 138/1/2 142/1/2
f 138/10/2 124/10/2 143/10/2
f 142/1/2 138/1/2 143/1/2
f 124/8/2 125/8/2 144/8/2
f 143/10/2 124/10/2 144/10/2
f 125/10/2 134/10/2 145/10/2
f 144/8/2 125/8/2 145/8/2
f 134/1/2 135/1/2 146/1/2
f 145/10/2 134/10/2 146/10/2
f 135/10/2 128/10/2 147/10/2
f 146/1/2 135/1/2 147/1/2
f 128/8/2 129/8/2 148/8/2
f 147/10/2 128/10/2 148/10/2
f 129/10/2 139/10/2 149/10/2
f 148/8/2 129/8/2 149/8/2
f 139/1/2 140/1/2 150/1/2
f 149/10/2 139/10/2 150/10/2
f 150/1/2 140/1/2 151/1/2
f 142/1/2 143/1/2 153/1/2
f 141/1/2 142/1/2 153/1/2
f 143/1/2 144/1/2 153/1/2
f 153/1/2 144/1/2 154/1/2
f 144/10/2 145/10/2 155/10/2
f 154/1/2 144/1/2 155/1/2
f 145/1/2 146/1/2 156/1/2
f 155/10/2 145/10/2 156/10/2
f 146/1/2 147/1/2 156/1/2
f 147/1/2 148/1/2 156/1/2
f 156/1/2 148/1/2 157/1/2
f 157/1/2 148/1/2 158/1/2
f 148/10/2 149/10/2 159/10/2
f 158/1/2 148/1/2 159/1/2
f 150/1/2 151/1/2 160/1/2
f 159/10/2 149/10/2 160/10/2
f 151/1/2 152/1/2 160/1/2
f 149/1/2 150/1/2 160/1/2
f 154/1/2 155/1/2 161/1/2
f 156/1/2 157/1/2 161/1/2
f 157/8/2 158/8/2 161/8/2
f 155/1/2 156/1/2 161/1/2
f 158/1/2 159/1/2 162/1/2
f 161/8/2 158/8/2 162/8/2
f 159/1/2 160/1/2 162/1/2
f 162/1/2 160/1/2 163/1/2
f 163/1/2 160/1/2 164/1/2
f 153/4/2 154/4/2 165/4/2
f 154/1/2 161/1/2 166/1/2
f 165/4/2 154/4/2 166/4/2
f 161/1/2 162/1/2 166/1/2
f 162/1/2 163/1/2 166/1/2
f 166/1/2 163/1/2 167/1/2
f 167/1/2 163/1/2 168/1/2
f 168/1/2 163/1/2 169/1/2
f 169/1/2 163/1/2 170/1/2
f 170/1/2 163/1/2 171/1/2
f 164/1/2 160/1/2 172/1/2
f 172/1/2 160/1/2 173/1/2
f 160/1/2 152/1/2 174/1/2
f 173/1/2 160/1/2 174/1/2
f 170/11/2 171/11/2 175/11/2
f 172/2/2 173/2/2 176/2/2
f 167/2/2 168/2/2 177/2/2
f 168/11/2 169/11/2 177/11/2
f 169/2/2 170/2/2 178/2/2
f 177/11/2 169/11/2 178/11/2
f 170/11/2 175/11/2 179/11/2
f 178/2/2 170/2/2 179/2/2
f 175/11/2 176/11/2 179/11/2
f 176/2/2 173/2/2 180/2/2
f 179/11/2 176/11/2 180/11/2
f 177/2/2 178/2/2 181/2/2
f 167/2/2 177/2/2 181/2/2
f 179/2/2 180/2/2 181/2/2
f 178/2/2 179/2/2 181/2/2
f 180/2/2 173/2/2 182/2/2
f 181/2/2 180/2/2 182/2/2
f 183/9/2 184/9/2 187/9/2
f 187/9/2 184/9/2 188/9/2
f 185/9/2 186/9/2 189/9/2
f 189/9/2 186/9/2 190/9/2
f 191/1/2 192/1/2 193/1/2
f 193/1/2 192/1/2 194/1/2
f 197/9/3 196/9/3 195/9/3
f 198/9/3 196/9/3 197/9/3
f 202/1/3 200/1/3 199/1/3
f 202/4/3 201/4/3 200/4/3
f 203/4/3 201/4/3 202/4/3
f 204/1/3 202/1/3 199/1/3
f 204/1/3 203/1/3 202/1/3
f 205/1/3 203/1/3 204/1/3
f 206/5/3 205/5/3 204/5/3
f 207/1/3 203/1/3 205/1/3
f 207/5/3 205/5/3 206/5/3
f 208/1/3 207/1/3 206/1/3
f 209/1/3 203/1/3 207/1/3
f 209/1/3 207/1/3 208/1/3
f 210/1/3 208/1/3 206/1/3
f 211/4/3 209/4/3 208/4/3
f 211/1/3 208/1/3 210/1/3
f 212/4/3 209/4/3 211/4/3
f 215/6/3 214/6/3 213/6/3
f 216/6/3 214/6/3 215/6/3
f 219/10/3 218/10/3 217/10/3
f 220/10/3 218/10/3 219/10/3
f 223/10/3 222/10/3 221/10/3
f 224/10/3 222/10/3 223/10/3
f 227/2/3 226/2/3 225/2/3
f 228/2/3 226/2/3 227/2/3
f 229/2/3 227/2/3 225/2/3
f 229/11/3 228/11/3 227/11/3
f 230/2/3 226/2/3 228/2/3
f 230/11/3 228/11/3 229/11/3
f 231/2/3 229/2/3 225/2/3
f 231/2/3 230/2/3 229/2/3
f 232/2/3 226/2/3 230/2/3
f 232/2/3 230/2/3 231/2/3
f 235/2/3 234/2/3 233/2/3
f 236/2/3 234/2/3 235/2/3
f 239/1/3 238/1/3 237/1/3
f 240/1/3 238/1/3 239/1/3
f 241/1/3 238/1/3 240/1/3
f 245/1/3 243/1/3 242/1/3
f 245/1/3 244/1/3 243/1/3
f 246/1/3 244/1/3 245/1/3
f 249/10/3 248/10/3 247/10/3
f 250/10/3 248/10/3 249/10/3
f 253/10/3 252/10/3 251/10/3
f 254/10/3 252/10/3 253/10/3
f 257/9/3 256/9/3 255/9/3
f 258/9/3 256/9/3 257/9/3
f 259/9/3 256/9/3 258/9/3
f 262/5/3 261/5/3 260/5/3
f 263/5/3 261/5/3 262/5/3
f 266/5/3 265/5/3 264/5/3
f 267/5/3 265/5/3 266/5/3
f 271/9/3 269/9/3 268/9/3
f 271/9/3 270/9/3 269/9/3
f 272/9/3 270/9/3 271/9/3
f 273/9/4 274/9/4 275/9/4
f 275/9/4 274/9/4 276/9/4
f 276/9/4 274/9/4 277/9/4
f 278/9/4 279/9/4 281/9/4
f 279/9/4 280/9/4 281/9/4
f 281/9/4 280/9/4 282/9/4
f 283/10/4 284/10/4 285/10/4
f 285/10/4 284/10/4 286/10/4
f 287/10/4 288/10/4 289/10/4
f 289/10/4 288/10/4 290/10/4
f 291/2/4 292/2/4 293/2/4
f 293/2/4 292/2/4 294/2/4
f 293/1/4 294/1/4 295/1/4
f 295/1/4 294/1/4 296/1/4
f 295/2/4 296/2/4 297/2/4
f 297/2/4 296/2/4 298/2/4
f 299/1/4 300/1/4 301/1/4
f 301/1/4 300/1/4 302/1/4
f 302/1/4 300/1/4 303/1/4
f 304/1/4 305/1/4 307/1/4
f 305/1/4 306/1/4 307/1/4
f 307/1/4 306/1/4 308/1/4
f 309/2/4 310/2/4 311/2/4
f 311/2/4 310/2/4 312/2/4
f 311/11/4 312/11/4 313/11/4
f 312/2/4 310/2/4 314/2/4
f 313/11/4 312/11/4 314/11/4
f 313/2/4 314/2/4 315/2/4
f 314/2/4 310/2/4 316/2/4
f 315/2/4 314/2/4 316/2/4
f 317/10/4 318/10/4 319/10/4
f 319/10/4 318/10/4 320/10/4
f 321/10/4 322/10/4 323/10/4
f 323/10/4 322/10/4 324/10/4
f 325/6/4 326/6/4 327/6/4
f 327/6/4 326/6/4 328/6/4
f 329/1/4 330/1/4 331/1/4
f 331/1/4 330/1/4 332/1/4
f 329/1/4 331/1/4 334/1/4
f 332/5/4 333/5/4 334/5/4
f 331/5/4 332/5/4 334/5/4
f 334/5/4 333/5/4 335/5/4
f 335/5/4 333/5/4 336/5/4
f 329/1/4 334/1/4 337/1/4
f 334/1/4 335/1/4 337/1/4
f 337/1/4 335/1/4 338/1/4
f 337/10/4 338/10/4 339/10/4
f 338/1/4 335/1/4 340/1/4
f 339/10/4 338/10/4 340/10/4
f 339/1/4 340/1/4 341/1/4
f 340/1/4 335/1/4 341/1/4
f 341/1/4 335/1/4 342/1/4
f 339/1/4 341/1/4 344/1/4
f 342/5/4 343/5/4 344/5/4
f 341/5/4 342/5/4 344/5/4
f 344/5/4 343/5/4 345/5/4
f 345/5/4 343/5/4 346/5/4
f 339/1/4 344/1/4 347/1/4
f 344/1/4 345/1/4 347/1/4
f 347/1/4 345/1/4 348/1/4
f 349/9/4 350/9/4 351/9/4
f 351/9/4 350/9/4 352/9/4
f 357/10/5 354/10/5 353/10/5
f 358/10/5 354/10/5 357/10/5
f 359/10/5 356/10/5 355/10/5
f 360/10/5 356/10/5 359/10/5
f 365/10/5 362/10/5 361/10/5
f 366/10/5 362/10/5 365/10/5
f 367/10/5 364/10/5 363/10/5
f 368/10/5 364/10/5 367/10/5
f 371/6/5 370/6/5 369/6/5
f 372/6/5 370/6/5 371/6/5
f 373/6/5 371/6/5 369/6/5
f 374/2/5 372/2/5 371/2/5
f 374/6/5 371/6/5 373/6/5
f 375/6/5 370/6/5 372/6/5
f 375/2/5 372/2/5 374/2/5
f 376/6/5 370/6/5 375/6/5
f 377/10/5 374/10/5 373/10/5
f 378/2/5 375/2/5 374/2/5
f 378/10/5 374/10/5 377/10/5
f 379/10/5 376/10/5 375/10/5
f 379/2/5 375/2/5 378/2/5
f 380/10/5 376/10/5 379/10/5
f 382/2/5 379/2/5 378/2/5
f 383/2/5 379/2/5 382/2/5
f 385/10/5 382/10/5 381/10/5
f 386/2/5 383/2/5 382/2/5
f 386/10/5 382/10/5 385/10/5
f 387/10/5 384/10/5 383/10/5
f 387/2/5 383/2/5 386/2/5
f 388/10/5 384/10/5 387/10/5
f 389/6/5 386/6/5 385/6/5
f 390/2/5 387/2/5 386/2/5
f 390/6/5 386/6/5 389/6/5
f 391/6/5 388/6/5 387/6/5
f 391/2/5 387/2/5 390/2/5
f 392/6/5 388/6/5 391/6/5
f 393/10/5 390/10/5 389/10/5
f 394/2/5 391/2/5 390/2/5
f 394/10/5 390/10/5 393/10/5
f 395/10/5 392/10/5 391/10/5
f 395/2/5 391/2/5 394/2/5
f 396/10/5 392/10/5 395/10/5
f 398/2/5 395/2/5 394/2/5
f 399/2/5 395/2/5 398/2/5
f 401/10/5 398/10/5 397/10/5
f 402/2/5 399/2/5 398/2/5
f 402/10/5 398/10/5 401/10/5
f 403/10/5 400/10/5 399/10/5
f 403/2/5 399/2/5 402/2/5
f 404/10/5 400/10/5 403/10/5
f 405/6/5 402/6/5 401/6/5
f 405/2/5 403/2/5 402/2/5
f 406/6/5 404/6/5 403/6/5
f 406/2/5 403/2/5 405/2/5
f 407/6/5 405/6/5 401/6/5
f 407/6/5 406/6/5 405/6/5
f 408/6/5 404/6/5 406/6/5
f 408/6/5 406/6/5 407/6/5
f 411/9/5 410/9/5 409/9/5
f 412/9/5 410/9/5 411/9/5
f 413/9/5 411/9/5 409/9/5
f 414/6/5 412/6/5 411/6/5
f 414/9/5 411/9/5 413/9/5
f 415/9/5 410/9/5 412/9/5
f 415/6/5 412/6/5 414/6/5
f 416/9/5 410/9/5 415/9/5
f 417/6/5 415/6/5 414/6/5
f 418/6/5 415/6/5 417/6/5
f 423/6/5 421/6/5 420/6/5
f 423/9/5 420/9/5 419/9/5
f 424/9/5 422/9/5 421/9/5
f 424/6/5 421/6/5 423/6/5
f 425/9/5 423/9/5 419/9/5
f 425/9/5 424/9/5 423/9/5
f 426/9/5 422/9/5 424/9/5
f 426/9/5 424/9/5 425/9/5
f 431/1/5 428/1/5 427/1/5
f 432/1/5 428/1/5 431/1/5
f 433/1/5 430/1/5 429/1/5
f 434/1/5 430/1/5 433/1/5
f 439/11/5 436/11/5 435/11/5
f 439/11/5 438/11/5 437/11/5
f 439/11/5 437/11/5 436/11/5
f 440/11/5 438/11/5 439/11/5
f 441/9/6 442/9/6 443/9/6
f 443/9/6 442/9/6 444/9/6
f 444/9/6 442/9/6 445/9/6
f 445/9/6 442/9/6 446/9/6
f 441/9/6 443/9/6 447/9/6
f 447/9/6 443/9/6 448/9/6
f 446/9/6 442/9/6 449/9/6
f 449/9/6 442/9/6 450/9/6
f 451/2/6 452/2/6 455/2/6
f 453/2/6 454/2/6 455/2/6
f 452/2/6 453/2/6 455/2/6
f 455/2/6 454/2/6 456/2/6
f 457/9/6 458/9/6 461/9/6
f 459/9/6 460/9/6 464/9/6
f 462/9/6 463/9/6 465/9/6
f 463/9/6 464/9/6 465/9/6
f 457/9/6 461/9/6 465/9/6
f 461/9/6 462/9/6 465/9/6
f 464/9/6 460/9/6 466/9/6
f 465/9/6 464/9/6 466/9/6
f 467/4/6 468/4/6 471/4/6
f 468/1/6 469/1/6 472/1/6
f 471/4/6 468/4/6 472/4/6
f 469/4/6 470/4/6 473/4/6
f 472/1/6 469/1/6 473/1/6
f 473/4/6 470/4/6 474/4/6
f 471/1/6 472/1/6 475/1/6
f 472/1/6 473/1/6 475/1/6
f 473/1/6 474/1/6 475/1/6
f 475/1/6 474/1/6 476/1/6
f 477/1/6 478/1/6 481/1/6
f 479/1/6 480/1/6 481/1/6
f 478/1/6 479/1/6 481/1/6
f 481/1/6 480/1/6 482/1/6
f 482/1/6 480/1/6 483/1/6
f 483/1/6 480/1/6 484/1/6
f 477/1/6 481/1/6 485/1/6
f 485/1/6 481/1/6 486/1/6
f 482/1/6 483/1/6 487/1/6
f 487/1/6 483/1/6 488/1/6
f 484/1/6 480/1/6 489/1/6
f 489/1/6 480/1/6 490/1/6
f 491/1/6 492/1/6 495/1/6
f 495/1/6 492/1/6 496/1/6
f 493/1/6 494/1/6 497/1/6
f 497/1/6 494/1/6 498/1/6
f 499/5/6 500/5/6 503/5/6
f 503/5/6 500/5/6 504/5/6
f 501/5/6 502/5/6 505/5/6
f 505/5/6 502/5/6 506/5/6
f 507/2/6 508/2/6 509/2/6
f 509/2/6 508/2/6 510/2/6
