# MagicaVoxel @ Ephtracy

# material
mtllib veh_cab1.mtl
usemtl palette

# normals
vn -1 0 0
vn 1 0 0
vn 0 0 1
vn 0 0 -1
vn 0 -1 0
vn 0 1 0

# texcoords
vt 0.0449219 0.5
vt 0.615234 0.5
vt 0.853516 0.5
vt 0.958984 0.5
vt 0.966797 0.5
vt 0.970703 0.5
vt 0.974609 0.5
vt 0.978516 0.5
vt 0.982422 0.5
vt 0.986328 0.5
vt 0.990234 0.5

# verts
v -7.5 2 17
v -7.5 2 14
v -7.5 2 -15
v -7.5 2 -17
v -7.5 4 17
v -7.5 4 14
v -7.5 4 -15
v -7.5 4 -17
v -7.5 6 -4
v -7.5 6 -5
v -7.5 8 -4
v -7.5 8 -5
v -6.5 0 11
v -6.5 0 8
v -6.5 0 -9
v -6.5 0 -12
v -6.5 1 14
v -6.5 1 12
v -6.5 1 11
v -6.5 1 8
v -6.5 1 7
v -6.5 1 -8
v -6.5 1 -9
v -6.5 1 -12
v -6.5 1 -13
v -6.5 1 -15
v -6.5 2 14
v -6.5 2 -15
v -6.5 4 16
v -6.5 4 14
v -6.5 4 12
v -6.5 4 11
v -6.5 4 8
v -6.5 4 7
v -6.5 4 -8
v -6.5 4 -9
v -6.5 4 -12
v -6.5 4 -13
v -6.5 4 -15
v -6.5 4 -16
v -6.5 5 16
v -6.5 5 15
v -6.5 5 14
v -6.5 5 13
v -6.5 5 12
v -6.5 5 11
v -6.5 5 10
v -6.5 5 9
v -6.5 5 8
v -6.5 5 7
v -6.5 5 6
v -6.5 5 5
v -6.5 5 4
v -6.5 5 3
v -6.5 5 2
v -6.5 5 1
v -6.5 5 -0
v -6.5 5 -1
v -6.5 5 -2
v -6.5 5 -3
v -6.5 5 -4
v -6.5 5 -5
v -6.5 5 -6
v -6.5 5 -7
v -6.5 5 -8
v -6.5 5 -9
v -6.5 5 -10
v -6.5 5 -11
v -6.5 5 -12
v -6.5 5 -13
v -6.5 5 -14
v -6.5 5 -15
v -6.5 6 16
v -6.5 6 15
v -6.5 6 14
v -6.5 6 13
v -6.5 6 12
v -6.5 6 11
v -6.5 6 10
v -6.5 6 9
v -6.5 6 8
v -6.5 6 7
v -6.5 6 6
v -6.5 6 5
v -6.5 6 4
v -6.5 6 3
v -6.5 6 2
v -6.5 6 1
v -6.5 6 -0
v -6.5 6 -1
v -6.5 6 -2
v -6.5 6 -3
v -6.5 6 -4
v -6.5 6 -5
v -6.5 6 -6
v -6.5 6 -7
v -6.5 6 -8
v -6.5 6 -9
v -6.5 6 -10
v -6.5 6 -11
v -6.5 6 -12
v -6.5 6 -13
v -6.5 6 -14
v -6.5 6 -15
v -6.5 7 16
v -6.5 7 9
v -6.5 7 7
v -6.5 7 3
v -6.5 7 2
v -6.5 7 -4
v -6.5 7 -6
v -6.5 7 -16
v -6.5 8 -4
v -6.5 8 -5
v -6.5 10 7
v -6.5 10 3
v -6.5 10 2
v -6.5 10 -5
v -6.5 11 9
v -6.5 11 -6
v -2.5 11 -2
v -2.5 11 -4
v -2.5 12 -2
v -2.5 12 -4
v 4.5 4 5
v 4.5 4 -3
v 4.5 7 5
v 4.5 7 4
v 4.5 7 -3
v 5.5 0 11
v 5.5 0 8
v 5.5 0 -9
v 5.5 0 -12
v 5.5 1 14
v 5.5 1 12
v 5.5 1 11
v 5.5 1 8
v 5.5 1 -9
v 5.5 1 -12
v 5.5 2 14
v 5.5 2 12
v -5.5 0 11
v -5.5 0 8
v -5.5 0 -9
v -5.5 0 -12
v -5.5 1 14
v -5.5 1 12
v -5.5 1 11
v -5.5 1 8
v -5.5 1 -9
v -5.5 1 -12
v -5.5 2 14
v -5.5 2 12
v -4.5 4 5
v -4.5 4 -3
v -4.5 7 5
v -4.5 7 4
v -4.5 7 -3
v 2.5 11 -2
v 2.5 11 -4
v 2.5 12 -2
v 2.5 12 -4
v 6.5 0 11
v 6.5 0 8
v 6.5 0 -9
v 6.5 0 -12
v 6.5 1 14
v 6.5 1 12
v 6.5 1 11
v 6.5 1 8
v 6.5 1 7
v 6.5 1 -8
v 6.5 1 -9
v 6.5 1 -12
v 6.5 1 -13
v 6.5 1 -15
v 6.5 2 14
v 6.5 2 -15
v 6.5 4 16
v 6.5 4 14
v 6.5 4 12
v 6.5 4 11
v 6.5 4 8
v 6.5 4 7
v 6.5 4 -8
v 6.5 4 -9
v 6.5 4 -12
v 6.5 4 -13
v 6.5 4 -15
v 6.5 4 -16
v 6.5 5 16
v 6.5 5 15
v 6.5 5 14
v 6.5 5 13
v 6.5 5 12
v 6.5 5 11
v 6.5 5 10
v 6.5 5 9
v 6.5 5 8
v 6.5 5 7
v 6.5 5 6
v 6.5 5 5
v 6.5 5 4
v 6.5 5 3
v 6.5 5 2
v 6.5 5 1
v 6.5 5 -0
v 6.5 5 -1
v 6.5 5 -2
v 6.5 5 -3
v 6.5 5 -4
v 6.5 5 -5
v 6.5 5 -6
v 6.5 5 -7
v 6.5 5 -8
v 6.5 5 -9
v 6.5 5 -10
v 6.5 5 -11
v 6.5 5 -12
v 6.5 5 -13
v 6.5 5 -14
v 6.5 5 -15
v 6.5 6 16
v 6.5 6 15
v 6.5 6 14
v 6.5 6 13
v 6.5 6 12
v 6.5 6 11
v 6.5 6 10
v 6.5 6 9
v 6.5 6 8
v 6.5 6 7
v 6.5 6 6
v 6.5 6 5
v 6.5 6 4
v 6.5 6 3
v 6.5 6 2
v 6.5 6 1
v 6.5 6 -0
v 6.5 6 -1
v 6.5 6 -2
v 6.5 6 -3
v 6.5 6 -4
v 6.5 6 -5
v 6.5 6 -6
v 6.5 6 -7
v 6.5 6 -8
v 6.5 6 -9
v 6.5 6 -10
v 6.5 6 -11
v 6.5 6 -12
v 6.5 6 -13
v 6.5 6 -14
v 6.5 6 -15
v 6.5 7 16
v 6.5 7 9
v 6.5 7 8
v 6.5 7 3
v 6.5 7 2
v 6.5 7 -4
v 6.5 7 -6
v 6.5 7 -16
v 6.5 8 -4
v 6.5 8 -5
v 6.5 10 8
v 6.5 10 3
v 6.5 10 2
v 6.5 10 -5
v 6.5 11 9
v 6.5 11 -6
v 7.5 2 17
v 7.5 2 14
v 7.5 2 -15
v 7.5 2 -17
v 7.5 4 17
v 7.5 4 14
v 7.5 4 -15
v 7.5 4 -17
v 7.5 6 -4
v 7.5 6 -5
v 7.5 8 -4
v 7.5 8 -5
v -7.5 2 17
v -7.5 4 17
v 7.5 2 17
v 7.5 4 17
v -6.5 4 16
v -6.5 5 16
v -6.5 6 16
v -6.5 7 16
v -3.5 5 16
v -3.5 6 16
v -1.5 4 16
v -1.5 6 16
v 1.5 4 16
v 1.5 6 16
v 3.5 5 16
v 3.5 6 16
v 6.5 4 16
v 6.5 5 16
v 6.5 6 16
v 6.5 7 16
v -6.5 1 14
v -6.5 2 14
v -5.5 1 14
v -5.5 2 14
v 5.5 1 14
v 5.5 2 14
v 6.5 1 14
v 6.5 2 14
v -5.5 1 12
v -5.5 2 12
v 5.5 1 12
v 5.5 2 12
v -6.5 0 11
v -6.5 1 11
v -5.5 0 11
v -5.5 1 11
v 5.5 0 11
v 5.5 1 11
v 6.5 0 11
v 6.5 1 11
v -6.5 7 9
v -6.5 11 9
v -5.5 7 9
v -5.5 10 9
v 5.5 7 9
v 5.5 10 9
v 6.5 7 9
v 6.5 11 9
v -2.5 11 -2
v -2.5 12 -2
v 2.5 11 -2
v 2.5 12 -2
v -4.5 4 -3
v -4.5 7 -3
v 4.5 4 -3
v 4.5 7 -3
v -7.5 6 -4
v -7.5 8 -4
v -6.5 6 -4
v -6.5 7 -4
v -6.5 8 -4
v 6.5 6 -4
v 6.5 7 -4
v 6.5 8 -4
v 7.5 6 -4
v 7.5 8 -4
v -6.5 0 -9
v -6.5 1 -9
v -5.5 0 -9
v -5.5 1 -9
v 5.5 0 -9
v 5.5 1 -9
v 6.5 0 -9
v 6.5 1 -9
v -7.5 2 -15
v -7.5 4 -15
v -6.5 2 -15
v -6.5 4 -15
v 6.5 2 -15
v 6.5 4 -15
v 7.5 2 -15
v 7.5 4 -15
v -7.5 2 14
v -7.5 4 14
v -6.5 2 14
v -6.5 4 14
v 6.5 2 14
v 6.5 4 14
v 7.5 2 14
v 7.5 4 14
v -6.5 0 8
v -6.5 1 8
v -5.5 0 8
v -5.5 1 8
v 5.5 0 8
v 5.5 1 8
v 6.5 0 8
v 6.5 1 8
v -4.5 4 5
v -4.5 7 5
v -2.5 4 5
v -2.5 7 5
v 2.5 4 5
v 2.5 7 5
v 4.5 4 5
v 4.5 7 5
v -2.5 11 -4
v -2.5 12 -4
v 2.5 11 -4
v 2.5 12 -4
v -7.5 6 -5
v -7.5 8 -5
v -6.5 6 -5
v -6.5 8 -5
v 6.5 6 -5
v 6.5 8 -5
v 7.5 6 -5
v 7.5 8 -5
v -6.5 7 -6
v -6.5 11 -6
v -5.5 7 -6
v -5.5 10 -6
v 5.5 7 -6
v 5.5 10 -6
v 6.5 7 -6
v 6.5 11 -6
v -6.5 0 -12
v -6.5 1 -12
v -5.5 0 -12
v -5.5 1 -12
v 5.5 0 -12
v 5.5 1 -12
v 6.5 0 -12
v 6.5 1 -12
v -6.5 1 -15
v -6.5 2 -15
v -5.5 1 -15
v -5.5 2 -15
v -4.5 1 -15
v -4.5 2 -15
v 4.5 1 -15
v 4.5 2 -15
v 5.5 1 -15
v 5.5 2 -15
v 6.5 1 -15
v 6.5 2 -15
v -6.5 4 -16
v -6.5 7 -16
v -5.5 6 -16
v -5.5 7 -16
v -2.5 6 -16
v -2.5 7 -16
v -1.5 4 -16
v -1.5 5 -16
v 1.5 4 -16
v 1.5 5 -16
v 2.5 6 -16
v 2.5 7 -16
v 5.5 6 -16
v 5.5 7 -16
v 6.5 4 -16
v 6.5 7 -16
v -7.5 2 -17
v -7.5 4 -17
v 7.5 2 -17
v 7.5 4 -17
v -6.5 0 11
v -5.5 0 11
v 5.5 0 11
v 6.5 0 11
v -6.5 0 8
v -5.5 0 8
v 5.5 0 8
v 6.5 0 8
v -6.5 0 -9
v -5.5 0 -9
v 5.5 0 -9
v 6.5 0 -9
v -6.5 0 -12
v -5.5 0 -12
v 5.5 0 -12
v 6.5 0 -12
v -6.5 1 14
v -5.5 1 14
v 5.5 1 14
v 6.5 1 14
v -6.5 1 12
v -5.5 1 12
v 5.5 1 12
v 6.5 1 12
v -6.5 1 11
v -5.5 1 11
v 5.5 1 11
v 6.5 1 11
v -6.5 1 8
v -5.5 1 8
v 5.5 1 8
v 6.5 1 8
v -6.5 1 7
v -5.5 1 7
v 5.5 1 7
v 6.5 1 7
v -6.5 1 -8
v -5.5 1 -8
v 5.5 1 -8
v 6.5 1 -8
v -6.5 1 -9
v -5.5 1 -9
v 5.5 1 -9
v 6.5 1 -9
v -6.5 1 -12
v -5.5 1 -12
v 5.5 1 -12
v 6.5 1 -12
v -6.5 1 -13
v -5.5 1 -13
v -4.5 1 -13
v 4.5 1 -13
v 5.5 1 -13
v 6.5 1 -13
v -4.5 1 -14
v 4.5 1 -14
v -6.5 1 -15
v -5.5 1 -15
v -4.5 1 -15
v 4.5 1 -15
v 5.5 1 -15
v 6.5 1 -15
v -7.5 2 17
v 7.5 2 17
v -7.5 2 14
v -6.5 2 14
v -5.5 2 14
v 5.5 2 14
v 6.5 2 14
v 7.5 2 14
v -5.5 2 12
v 5.5 2 12
v -7.5 2 -15
v -6.5 2 -15
v -5.5 2 -15
v -4.5 2 -15
v 4.5 2 -15
v 5.5 2 -15
v 6.5 2 -15
v 7.5 2 -15
v -6.5 2 -16
v 6.5 2 -16
v -7.5 2 -17
v 7.5 2 -17
v -7.5 6 -4
v -6.5 6 -4
v 6.5 6 -4
v 7.5 6 -4
v -7.5 6 -5
v -6.5 6 -5
v 6.5 6 -5
v 7.5 6 -5
v -4.5 7 5
v -2.5 7 5
v 2.5 7 5
v 4.5 7 5
v -4.5 7 4
v 4.5 7 4
v -4.5 7 -3
v 4.5 7 -3
v -7.5 4 17
v 7.5 4 17
v -6.5 4 16
v -1.5 4 16
v 1.5 4 16
v 6.5 4 16
v -7.5 4 14
v -6.5 4 14
v 6.5 4 14
v 7.5 4 14
v -4.5 4 5
v -2.5 4 5
v 2.5 4 5
v 4.5 4 5
v -4.5 4 -3
v 4.5 4 -3
v -7.5 4 -15
v -6.5 4 -15
v 6.5 4 -15
v 7.5 4 -15
v -6.5 4 -16
v -1.5 4 -16
v 1.5 4 -16
v 6.5 4 -16
v -7.5 4 -17
v 7.5 4 -17
v -6.5 7 16
v 6.5 7 16
v -6.5 7 9
v -5.5 7 9
v 5.5 7 9
v 6.5 7 9
v -6.5 7 -6
v -5.5 7 -6
v 5.5 7 -6
v 6.5 7 -6
v -5.5 7 -15
v -2.5 7 -15
v 2.5 7 -15
v 5.5 7 -15
v -6.5 7 -16
v -5.5 7 -16
v -2.5 7 -16
v 2.5 7 -16
v 5.5 7 -16
v 6.5 7 -16
v -7.5 8 -4
v -6.5 8 -4
v 6.5 8 -4
v 7.5 8 -4
v -7.5 8 -5
v -6.5 8 -5
v 6.5 8 -5
v 7.5 8 -5
v -6.5 11 9
v 6.5 11 9
v -2.5 11 -2
v 2.5 11 -2
v -2.5 11 -4
v 2.5 11 -4
v -6.5 11 -6
v 6.5 11 -6
v -2.5 12 -2
v 2.5 12 -2
v -2.5 12 -4
v 2.5 12 -4

# faces
f 5/8/1 2/8/1 1/8/1
f 6/8/1 2/8/1 5/8/1
f 7/8/1 4/8/1 3/8/1
f 8/8/1 4/8/1 7/8/1
f 11/4/1 10/4/1 9/4/1
f 12/4/1 10/4/1 11/4/1
f 19/10/1 14/10/1 13/10/1
f 20/10/1 14/10/1 19/10/1
f 23/10/1 16/10/1 15/10/1
f 24/10/1 16/10/1 23/10/1
f 27/1/1 18/1/1 17/1/1
f 28/1/1 26/1/1 25/1/1
f 30/1/1 18/1/1 27/1/1
f 31/10/1 19/10/1 18/10/1
f 31/1/1 18/1/1 30/1/1
f 32/7/1 20/7/1 19/7/1
f 32/10/1 19/10/1 31/10/1
f 33/10/1 21/10/1 20/10/1
f 33/7/1 20/7/1 32/7/1
f 34/1/1 22/1/1 21/1/1
f 34/10/1 21/10/1 33/10/1
f 35/10/1 23/10/1 22/10/1
f 35/1/1 22/1/1 34/1/1
f 36/7/1 24/7/1 23/7/1
f 36/10/1 23/10/1 35/10/1
f 37/10/1 25/10/1 24/10/1
f 37/7/1 24/7/1 36/7/1
f 38/1/1 28/1/1 25/1/1
f 38/10/1 25/10/1 37/10/1
f 39/1/1 28/1/1 38/1/1
f 41/1/1 30/1/1 29/1/1
f 41/1/1 31/1/1 30/1/1
f 41/1/1 32/1/1 31/1/1
f 42/1/1 32/1/1 41/1/1
f 43/1/1 32/1/1 42/1/1
f 44/1/1 32/1/1 43/1/1
f 45/1/1 32/1/1 44/1/1
f 46/10/1 33/10/1 32/10/1
f 46/1/1 32/1/1 45/1/1
f 47/10/1 33/10/1 46/10/1
f 48/10/1 33/10/1 47/10/1
f 49/1/1 34/1/1 33/1/1
f 49/10/1 33/10/1 48/10/1
f 49/1/1 35/1/1 34/1/1
f 49/1/1 36/1/1 35/1/1
f 50/1/1 36/1/1 49/1/1
f 51/1/1 36/1/1 50/1/1
f 52/1/1 36/1/1 51/1/1
f 53/1/1 36/1/1 52/1/1
f 54/1/1 36/1/1 53/1/1
f 55/1/1 36/1/1 54/1/1
f 56/1/1 36/1/1 55/1/1
f 57/1/1 36/1/1 56/1/1
f 58/1/1 36/1/1 57/1/1
f 59/1/1 36/1/1 58/1/1
f 60/1/1 36/1/1 59/1/1
f 61/1/1 36/1/1 60/1/1
f 62/1/1 36/1/1 61/1/1
f 63/1/1 36/1/1 62/1/1
f 64/1/1 36/1/1 63/1/1
f 65/1/1 36/1/1 64/1/1
f 66/10/1 37/10/1 36/10/1
f 66/1/1 36/1/1 65/1/1
f 67/10/1 37/10/1 66/10/1
f 68/10/1 37/10/1 67/10/1
f 69/1/1 39/1/1 38/1/1
f 69/10/1 37/10/1 68/10/1
f 69/1/1 40/1/1 39/1/1
f 69/1/1 38/1/1 37/1/1
f 70/1/1 40/1/1 69/1/1
f 71/1/1 40/1/1 70/1/1
f 72/1/1 40/1/1 71/1/1
f 73/3/1 42/3/1 41/3/1
f 74/1/1 43/1/1 42/1/1
f 74/3/1 42/3/1 73/3/1
f 75/9/1 44/9/1 43/9/1
f 75/1/1 43/1/1 74/1/1
f 76/1/1 45/1/1 44/1/1
f 76/9/1 44/9/1 75/9/1
f 77/9/1 46/9/1 45/9/1
f 77/1/1 45/1/1 76/1/1
f 78/1/1 47/1/1 46/1/1
f 78/9/1 46/9/1 77/9/1
f 79/9/1 48/9/1 47/9/1
f 79/1/1 47/1/1 78/1/1
f 80/1/1 49/1/1 48/1/1
f 80/9/1 48/9/1 79/9/1
f 81/9/1 50/9/1 49/9/1
f 81/1/1 49/1/1 80/1/1
f 82/1/1 51/1/1 50/1/1
f 82/9/1 50/9/1 81/9/1
f 83/9/1 52/9/1 51/9/1
f 83/1/1 51/1/1 82/1/1
f 84/1/1 53/1/1 52/1/1
f 84/9/1 52/9/1 83/9/1
f 85/9/1 54/9/1 53/9/1
f 85/1/1 53/1/1 84/1/1
f 86/1/1 55/1/1 54/1/1
f 86/9/1 54/9/1 85/9/1
f 87/9/1 56/9/1 55/9/1
f 87/1/1 55/1/1 86/1/1
f 88/1/1 57/1/1 56/1/1
f 88/9/1 56/9/1 87/9/1
f 89/9/1 58/9/1 57/9/1
f 89/1/1 57/1/1 88/1/1
f 90/1/1 59/1/1 58/1/1
f 90/9/1 58/9/1 89/9/1
f 91/9/1 60/9/1 59/9/1
f 91/1/1 59/1/1 90/1/1
f 92/1/1 61/1/1 60/1/1
f 92/9/1 60/9/1 91/9/1
f 93/9/1 62/9/1 61/9/1
f 93/1/1 61/1/1 92/1/1
f 94/1/1 63/1/1 62/1/1
f 94/9/1 62/9/1 93/9/1
f 95/9/1 64/9/1 63/9/1
f 95/1/1 63/1/1 94/1/1
f 96/1/1 65/1/1 64/1/1
f 96/9/1 64/9/1 95/9/1
f 97/9/1 66/9/1 65/9/1
f 97/1/1 65/1/1 96/1/1
f 98/1/1 67/1/1 66/1/1
f 98/9/1 66/9/1 97/9/1
f 99/9/1 68/9/1 67/9/1
f 99/1/1 67/1/1 98/1/1
f 100/1/1 69/1/1 68/1/1
f 100/9/1 68/9/1 99/9/1
f 101/9/1 70/9/1 69/9/1
f 101/1/1 69/1/1 100/1/1
f 102/1/1 71/1/1 70/1/1
f 102/9/1 70/9/1 101/9/1
f 103/9/1 72/9/1 71/9/1
f 103/1/1 71/1/1 102/1/1
f 104/1/1 40/1/1 72/1/1
f 104/9/1 72/9/1 103/9/1
f 105/1/1 75/1/1 74/1/1
f 105/1/1 78/1/1 77/1/1
f 105/1/1 77/1/1 76/1/1
f 105/1/1 76/1/1 75/1/1
f 105/1/1 74/1/1 73/1/1
f 105/1/1 79/1/1 78/1/1
f 105/1/1 80/1/1 79/1/1
f 105/1/1 93/1/1 92/1/1
f 105/1/1 92/1/1 91/1/1
f 105/1/1 91/1/1 90/1/1
f 105/1/1 90/1/1 89/1/1
f 105/1/1 89/1/1 88/1/1
f 105/1/1 88/1/1 87/1/1
f 105/1/1 87/1/1 86/1/1
f 105/1/1 86/1/1 85/1/1
f 105/1/1 85/1/1 84/1/1
f 105/1/1 84/1/1 83/1/1
f 105/1/1 83/1/1 82/1/1
f 105/1/1 82/1/1 81/1/1
f 105/1/1 81/1/1 80/1/1
f 106/1/1 93/1/1 105/1/1
f 107/1/1 93/1/1 106/1/1
f 108/1/1 93/1/1 107/1/1
f 109/1/1 93/1/1 108/1/1
f 110/1/1 93/1/1 109/1/1
f 111/1/1 98/1/1 97/1/1
f 111/1/1 97/1/1 96/1/1
f 111/1/1 96/1/1 95/1/1
f 111/1/1 104/1/1 103/1/1
f 111/1/1 102/1/1 101/1/1
f 111/1/1 101/1/1 100/1/1
f 111/1/1 95/1/1 94/1/1
f 111/1/1 99/1/1 98/1/1
f 111/1/1 100/1/1 99/1/1
f 111/1/1 103/1/1 102/1/1
f 112/1/1 40/1/1 104/1/1
f 112/1/1 104/1/1 111/1/1
f 113/11/1 110/11/1 109/11/1
f 114/1/1 111/1/1 94/1/1
f 115/11/1 108/11/1 107/11/1
f 115/1/1 107/1/1 106/1/1
f 116/1/1 109/1/1 108/1/1
f 116/11/1 108/11/1 115/11/1
f 117/11/1 113/11/1 109/11/1
f 117/1/1 109/1/1 116/1/1
f 117/11/1 114/11/1 113/11/1
f 118/1/1 111/1/1 114/1/1
f 118/11/1 114/11/1 117/11/1
f 119/1/1 116/1/1 115/1/1
f 119/1/1 115/1/1 106/1/1
f 119/1/1 118/1/1 117/1/1
f 119/1/1 117/1/1 116/1/1
f 120/1/1 111/1/1 118/1/1
f 120/1/1 118/1/1 119/1/1
f 123/4/1 122/4/1 121/4/1
f 124/4/1 122/4/1 123/4/1
f 127/2/1 126/2/1 125/2/1
f 128/2/1 126/2/1 127/2/1
f 129/2/1 126/2/1 128/2/1
f 136/10/1 131/10/1 130/10/1
f 137/10/1 131/10/1 136/10/1
f 138/10/1 133/10/1 132/10/1
f 139/10/1 133/10/1 138/10/1
f 140/1/1 135/1/1 134/1/1
f 141/1/1 135/1/1 140/1/1
f 142/10/2 143/10/2 148/10/2
f 148/10/2 143/10/2 149/10/2
f 144/10/2 145/10/2 150/10/2
f 150/10/2 145/10/2 151/10/2
f 146/1/2 147/1/2 152/1/2
f 152/1/2 147/1/2 153/1/2
f 154/2/2 155/2/2 156/2/2
f 156/2/2 155/2/2 157/2/2
f 157/2/2 155/2/2 158/2/2
f 159/4/2 160/4/2 161/4/2
f 161/4/2 160/4/2 162/4/2
f 163/10/2 164/10/2 169/10/2
f 169/10/2 164/10/2 170/10/2
f 165/10/2 166/10/2 173/10/2
f 173/10/2 166/10/2 174/10/2
f 167/1/2 168/1/2 177/1/2
f 175/1/2 176/1/2 178/1/2
f 177/1/2 168/1/2 180/1/2
f 168/10/2 169/10/2 181/10/2
f 180/1/2 168/1/2 181/1/2
f 169/7/2 170/7/2 182/7/2
f 181/10/2 169/10/2 182/10/2
f 170/10/2 171/10/2 183/10/2
f 182/7/2 170/7/2 183/7/2
f 171/1/2 172/1/2 184/1/2
f 183/10/2 171/10/2 184/10/2
f 172/10/2 173/10/2 185/10/2
f 184/1/2 172/1/2 185/1/2
f 173/7/2 174/7/2 186/7/2
f 185/10/2 173/10/2 186/10/2
f 174/10/2 175/10/2 187/10/2
f 186/7/2 174/7/2 187/7/2
f 175/1/2 178/1/2 188/1/2
f 187/10/2 175/10/2 188/10/2
f 188/1/2 178/1/2 189/1/2
f 179/1/2 180/1/2 191/1/2
f 180/1/2 181/1/2 191/1/2
f 181/1/2 182/1/2 191/1/2
f 191/1/2 182/1/2 192/1/2
f 192/1/2 182/1/2 193/1/2
f 193/1/2 182/1/2 194/1/2
f 194/1/2 182/1/2 195/1/2
f 182/10/2 183/10/2 196/10/2
f 195/1/2 182/1/2 196/1/2
f 196/10/2 183/10/2 197/10/2
f 197/10/2 183/10/2 198/10/2
f 183/1/2 184/1/2 199/1/2
f 198/10/2 183/10/2 199/10/2
f 184/1/2 185/1/2 199/1/2
f 185/1/2 186/1/2 199/1/2
f 199/1/2 186/1/2 200/1/2
f 200/1/2 186/1/2 201/1/2
f 201/1/2 186/1/2 202/1/2
f 202/1/2 186/1/2 203/1/2
f 203/1/2 186/1/2 204/1/2
f 204/1/2 186/1/2 205/1/2
f 205/1/2 186/1/2 206/1/2
f 206/1/2 186/1/2 207/1/2
f 207/1/2 186/1/2 208/1/2
f 208/1/2 186/1/2 209/1/2
f 209/1/2 186/1/2 210/1/2
f 210/1/2 186/1/2 211/1/2
f 211/1/2 186/1/2 212/1/2
f 212/1/2 186/1/2 213/1/2
f 213/1/2 186/1/2 214/1/2
f 214/1/2 186/1/2 215/1/2
f 186/10/2 187/10/2 216/10/2
f 215/1/2 186/1/2 216/1/2
f 216/10/2 187/10/2 217/10/2
f 217/10/2 187/10/2 218/10/2
f 188/1/2 189/1/2 219/1/2
f 218/10/2 187/10/2 219/10/2
f 189/1/2 190/1/2 219/1/2
f 187/1/2 188/1/2 219/1/2
f 219/1/2 190/1/2 220/1/2
f 220/1/2 190/1/2 221/1/2
f 221/1/2 190/1/2 222/1/2
f 191/3/2 192/3/2 223/3/2
f 192/1/2 193/1/2 224/1/2
f 223/3/2 192/3/2 224/3/2
f 193/9/2 194/9/2 225/9/2
f 224/1/2 193/1/2 225/1/2
f 194/1/2 195/1/2 226/1/2
f 225/9/2 194/9/2 226/9/2
f 195/9/2 196/9/2 227/9/2
f 226/1/2 195/1/2 227/1/2
f 196/1/2 197/1/2 228/1/2
f 227/9/2 196/9/2 228/9/2
f 197/9/2 198/9/2 229/9/2
f 228/1/2 197/1/2 229/1/2
f 198/1/2 199/1/2 230/1/2
f 229/9/2 198/9/2 230/9/2
f 199/9/2 200/9/2 231/9/2
f 230/1/2 199/1/2 231/1/2
f 200/1/2 201/1/2 232/1/2
f 231/9/2 200/9/2 232/9/2
f 201/9/2 202/9/2 233/9/2
f 232/1/2 201/1/2 233/1/2
f 202/1/2 203/1/2 234/1/2
f 233/9/2 202/9/2 234/9/2
f 203/9/2 204/9/2 235/9/2
f 234/1/2 203/1/2 235/1/2
f 204/1/2 205/1/2 236/1/2
f 235/9/2 204/9/2 236/9/2
f 205/9/2 206/9/2 237/9/2
f 236/1/2 205/1/2 237/1/2
f 206/1/2 207/1/2 238/1/2
f 237/9/2 206/9/2 238/9/2
f 207/9/2 208/9/2 239/9/2
f 238/1/2 207/1/2 239/1/2
f 208/1/2 209/1/2 240/1/2
f 239/9/2 208/9/2 240/9/2
f 209/9/2 210/9/2 241/9/2
f 240/1/2 209/1/2 241/1/2
f 210/1/2 211/1/2 242/1/2
f 241/9/2 210/9/2 242/9/2
f 211/9/2 212/9/2 243/9/2
f 242/1/2 211/1/2 243/1/2
f 212/1/2 213/1/2 244/1/2
f 243/9/2 212/9/2 244/9/2
f 213/9/2 214/9/2 245/9/2
f 244/1/2 213/1/2 245/1/2
f 214/1/2 215/1/2 246/1/2
f 245/9/2 214/9/2 246/9/2
f 215/9/2 216/9/2 247/9/2
f 246/1/2 215/1/2 247/1/2
f 216/1/2 217/1/2 248/1/2
f 247/9/2 216/9/2 248/9/2
f 217/9/2 218/9/2 249/9/2
f 248/1/2 217/1/2 249/1/2
f 218/1/2 219/1/2 250/1/2
f 249/9/2 218/9/2 250/9/2
f 219/9/2 220/9/2 251/9/2
f 250/1/2 219/1/2 251/1/2
f 220/1/2 221/1/2 252/1/2
f 251/9/2 220/9/2 252/9/2
f 221/9/2 222/9/2 253/9/2
f 252/1/2 221/1/2 253/1/2
f 222/1/2 190/1/2 254/1/2
f 253/9/2 222/9/2 254/9/2
f 224/1/2 225/1/2 255/1/2
f 227/1/2 228/1/2 255/1/2
f 226/1/2 227/1/2 255/1/2
f 225/1/2 226/1/2 255/1/2
f 223/1/2 224/1/2 255/1/2
f 228/1/2 229/1/2 255/1/2
f 229/1/2 230/1/2 255/1/2
f 242/1/2 243/1/2 255/1/2
f 241/1/2 242/1/2 255/1/2
f 240/1/2 241/1/2 255/1/2
f 239/1/2 240/1/2 255/1/2
f 238/1/2 239/1/2 255/1/2
f 237/1/2 238/1/2 255/1/2
f 236/1/2 237/1/2 255/1/2
f 235/1/2 236/1/2 255/1/2
f 234/1/2 235/1/2 255/1/2
f 233/1/2 234/1/2 255/1/2
f 232/1/2 233/1/2 255/1/2
f 231/1/2 232/1/2 255/1/2
f 230/1/2 231/1/2 255/1/2
f 255/1/2 243/1/2 256/1/2
f 256/1/2 243/1/2 257/1/2
f 257/1/2 243/1/2 258/1/2
f 258/1/2 243/1/2 259/1/2
f 259/1/2 243/1/2 260/1/2
f 247/1/2 248/1/2 261/1/2
f 246/1/2 247/1/2 261/1/2
f 245/1/2 246/1/2 261/1/2
f 253/1/2 254/1/2 261/1/2
f 251/1/2 252/1/2 261/1/2
f 250/1/2 251/1/2 261/1/2
f 244/1/2 245/1/2 261/1/2
f 248/1/2 249/1/2 261/1/2
f 249/1/2 250/1/2 261/1/2
f 252/1/2 253/1/2 261/1/2
f 254/1/2 190/1/2 262/1/2
f 261/1/2 254/1/2 262/1/2
f 259/11/2 260/11/2 263/11/2
f 244/1/2 261/1/2 264/1/2
f 257/11/2 258/11/2 265/11/2
f 256/1/2 257/1/2 265/1/2
f 258/1/2 259/1/2 266/1/2
f 265/11/2 258/11/2 266/11/2
f 259/11/2 263/11/2 267/11/2
f 266/1/2 259/1/2 267/1/2
f 263/11/2 264/11/2 267/11/2
f 264/1/2 261/1/2 268/1/2
f 267/11/2 264/11/2 268/11/2
f 265/1/2 266/1/2 269/1/2
f 256/1/2 265/1/2 269/1/2
f 267/1/2 268/1/2 269/1/2
f 266/1/2 267/1/2 269/1/2
f 268/1/2 261/1/2 270/1/2
f 269/1/2 268/1/2 270/1/2
f 271/8/2 272/8/2 275/8/2
f 275/8/2 272/8/2 276/8/2
f 273/8/2 274/8/2 277/8/2
f 277/8/2 274/8/2 278/8/2
f 279/1/2 280/1/2 281/1/2
f 281/1/2 280/1/2 282/1/2
f 285/8/3 284/8/3 283/8/3
f 286/8/3 284/8/3 285/8/3
f 291/1/3 288/1/3 287/1/3
f 291/3/3 289/3/3 288/3/3
f 292/1/3 290/1/3 289/1/3
f 292/3/3 289/3/3 291/3/3
f 293/1/3 291/1/3 287/1/3
f 293/1/3 292/1/3 291/1/3
f 294/1/3 290/1/3 292/1/3
f 294/1/3 292/1/3 293/1/3
f 295/7/3 294/7/3 293/7/3
f 296/1/3 290/1/3 294/1/3
f 296/7/3 294/7/3 295/7/3
f 297/1/3 296/1/3 295/1/3
f 298/1/3 290/1/3 296/1/3
f 298/1/3 296/1/3 297/1/3
f 299/1/3 297/1/3 295/1/3
f 300/3/3 298/3/3 297/3/3
f 300/1/3 297/1/3 299/1/3
f 301/1/3 290/1/3 298/1/3
f 301/3/3 298/3/3 300/3/3
f 302/1/3 290/1/3 301/1/3
f 305/1/3 304/1/3 303/1/3
f 306/1/3 304/1/3 305/1/3
f 309/1/3 308/1/3 307/1/3
f 310/1/3 308/1/3 309/1/3
f 313/5/3 312/5/3 311/5/3
f 314/5/3 312/5/3 313/5/3
f 317/10/3 316/10/3 315/10/3
f 318/10/3 316/10/3 317/10/3
f 321/10/3 320/10/3 319/10/3
f 322/10/3 320/10/3 321/10/3
f 325/1/3 324/1/3 323/1/3
f 326/1/3 324/1/3 325/1/3
f 327/11/3 326/11/3 325/11/3
f 328/1/3 324/1/3 326/1/3
f 328/11/3 326/11/3 327/11/3
f 329/1/3 328/1/3 327/1/3
f 330/1/3 324/1/3 328/1/3
f 330/1/3 328/1/3 329/1/3
f 333/4/3 332/4/3 331/4/3
f 334/4/3 332/4/3 333/4/3
f 337/4/3 336/4/3 335/4/3
f 338/4/3 336/4/3 337/4/3
f 341/4/3 340/4/3 339/4/3
f 342/4/3 340/4/3 341/4/3
f 343/4/3 340/4/3 342/4/3
f 347/1/3 345/1/3 344/1/3
f 347/1/3 346/1/3 345/1/3
f 348/1/3 346/1/3 347/1/3
f 351/10/3 350/10/3 349/10/3
f 352/10/3 350/10/3 351/10/3
f 355/10/3 354/10/3 353/10/3
f 356/10/3 354/10/3 355/10/3
f 359/8/3 358/8/3 357/8/3
f 360/8/3 358/8/3 359/8/3
f 363/8/3 362/8/3 361/8/3
f 364/8/3 362/8/3 363/8/3
f 365/8/4 366/8/4 367/8/4
f 367/8/4 366/8/4 368/8/4
f 369/8/4 370/8/4 371/8/4
f 371/8/4 370/8/4 372/8/4
f 373/10/4 374/10/4 375/10/4
f 375/10/4 374/10/4 376/10/4
f 377/10/4 378/10/4 379/10/4
f 379/10/4 378/10/4 380/10/4
f 381/4/4 382/4/4 383/4/4
f 383/4/4 382/4/4 384/4/4
f 383/2/4 384/2/4 385/2/4
f 385/2/4 384/2/4 386/2/4
f 385/4/4 386/4/4 387/4/4
f 387/4/4 386/4/4 388/4/4
f 389/4/4 390/4/4 391/4/4
f 391/4/4 390/4/4 392/4/4
f 393/4/4 394/4/4 395/4/4
f 395/4/4 394/4/4 396/4/4
f 397/1/4 398/1/4 399/1/4
f 399/1/4 398/1/4 400/1/4
f 401/1/4 402/1/4 403/1/4
f 403/1/4 402/1/4 404/1/4
f 403/11/4 404/11/4 405/11/4
f 404/1/4 402/1/4 406/1/4
f 405/11/4 404/11/4 406/11/4
f 405/1/4 406/1/4 407/1/4
f 406/1/4 402/1/4 408/1/4
f 407/1/4 406/1/4 408/1/4
f 409/10/4 410/10/4 411/10/4
f 411/10/4 410/10/4 412/10/4
f 413/10/4 414/10/4 415/10/4
f 415/10/4 414/10/4 416/10/4
f 417/1/4 418/1/4 419/1/4
f 419/1/4 418/1/4 420/1/4
f 419/2/4 420/2/4 421/2/4
f 421/2/4 420/2/4 422/2/4
f 421/5/4 422/5/4 423/5/4
f 423/5/4 422/5/4 424/5/4
f 423/2/4 424/2/4 425/2/4
f 425/2/4 424/2/4 426/2/4
f 425/1/4 426/1/4 427/1/4
f 427/1/4 426/1/4 428/1/4
f 429/1/4 430/1/4 431/1/4
f 431/1/4 430/1/4 432/1/4
f 429/1/4 431/1/4 433/1/4
f 431/4/4 432/4/4 433/4/4
f 433/4/4 432/4/4 434/4/4
f 429/1/4 433/1/4 435/1/4
f 433/1/4 434/1/4 435/1/4
f 435/1/4 434/1/4 436/1/4
f 435/10/4 436/10/4 437/10/4
f 436/1/4 434/1/4 438/1/4
f 437/10/4 436/10/4 438/10/4
f 437/1/4 438/1/4 439/1/4
f 438/1/4 434/1/4 439/1/4
f 439/1/4 434/1/4 440/1/4
f 437/1/4 439/1/4 441/1/4
f 439/4/4 440/4/4 441/4/4
f 441/4/4 440/4/4 442/4/4
f 437/1/4 441/1/4 443/1/4
f 441/1/4 442/1/4 443/1/4
f 443/1/4 442/1/4 444/1/4
f 445/8/4 446/8/4 447/8/4
f 447/8/4 446/8/4 448/8/4
f 453/10/5 450/10/5 449/10/5
f 454/10/5 450/10/5 453/10/5
f 455/10/5 452/10/5 451/10/5
f 456/10/5 452/10/5 455/10/5
f 461/10/5 458/10/5 457/10/5
f 462/10/5 458/10/5 461/10/5
f 463/10/5 460/10/5 459/10/5
f 464/10/5 460/10/5 463/10/5
f 469/1/5 466/1/5 465/1/5
f 470/1/5 466/1/5 469/1/5
f 471/1/5 468/1/5 467/1/5
f 472/1/5 468/1/5 471/1/5
f 473/10/5 470/10/5 469/10/5
f 474/5/5 471/5/5 470/5/5
f 474/10/5 470/10/5 473/10/5
f 475/10/5 472/10/5 471/10/5
f 475/5/5 471/5/5 474/5/5
f 476/10/5 472/10/5 475/10/5
f 478/4/5 475/4/5 474/4/5
f 479/4/5 475/4/5 478/4/5
f 481/10/5 478/10/5 477/10/5
f 482/4/5 479/4/5 478/4/5
f 482/10/5 478/10/5 481/10/5
f 483/10/5 480/10/5 479/10/5
f 483/4/5 479/4/5 482/4/5
f 484/10/5 480/10/5 483/10/5
f 485/1/5 482/1/5 481/1/5
f 486/4/5 483/4/5 482/4/5
f 486/1/5 482/1/5 485/1/5
f 487/1/5 484/1/5 483/1/5
f 487/4/5 483/4/5 486/4/5
f 488/1/5 484/1/5 487/1/5
f 489/10/5 486/10/5 485/10/5
f 490/4/5 487/4/5 486/4/5
f 490/10/5 486/10/5 489/10/5
f 491/10/5 488/10/5 487/10/5
f 491/4/5 487/4/5 490/4/5
f 492/10/5 488/10/5 491/10/5
f 494/4/5 491/4/5 490/4/5
f 495/4/5 491/4/5 494/4/5
f 497/10/5 494/10/5 493/10/5
f 498/4/5 495/4/5 494/4/5
f 498/10/5 494/10/5 497/10/5
f 499/4/5 495/4/5 498/4/5
f 500/4/5 495/4/5 499/4/5
f 501/10/5 496/10/5 495/10/5
f 501/4/5 495/4/5 500/4/5
f 502/10/5 496/10/5 501/10/5
f 503/4/5 500/4/5 499/4/5
f 503/2/5 499/2/5 498/2/5
f 504/2/5 501/2/5 500/2/5
f 504/4/5 500/4/5 503/4/5
f 505/1/5 498/1/5 497/1/5
f 506/2/5 503/2/5 498/2/5
f 506/1/5 498/1/5 505/1/5
f 507/5/5 504/5/5 503/5/5
f 507/2/5 503/2/5 506/2/5
f 508/2/5 501/2/5 504/2/5
f 508/5/5 504/5/5 507/5/5
f 509/1/5 502/1/5 501/1/5
f 509/2/5 501/2/5 508/2/5
f 510/1/5 502/1/5 509/1/5
f 513/8/5 512/8/5 511/8/5
f 514/8/5 512/8/5 513/8/5
f 515/8/5 512/8/5 514/8/5
f 516/8/5 512/8/5 515/8/5
f 517/8/5 512/8/5 516/8/5
f 518/8/5 512/8/5 517/8/5
f 519/5/5 516/5/5 515/5/5
f 520/5/5 516/5/5 519/5/5
f 529/5/5 526/5/5 525/5/5
f 529/8/5 522/8/5 521/8/5
f 529/5/5 527/5/5 526/5/5
f 529/5/5 525/5/5 524/5/5
f 529/5/5 524/5/5 523/5/5
f 529/5/5 523/5/5 522/5/5
f 530/8/5 528/8/5 527/8/5
f 530/5/5 527/5/5 529/5/5
f 531/8/5 529/8/5 521/8/5
f 531/8/5 530/8/5 529/8/5
f 532/8/5 528/8/5 530/8/5
f 532/8/5 530/8/5 531/8/5
f 537/4/5 534/4/5 533/4/5
f 538/4/5 534/4/5 537/4/5
f 539/1/5 536/1/5 535/1/5
f 540/1/5 536/1/5 539/1/5
f 545/11/5 542/11/5 541/11/5
f 545/11/5 544/11/5 543/11/5
f 545/11/5 543/11/5 542/11/5
f 546/11/5 544/11/5 545/11/5
f 547/2/5 546/2/5 545/2/5
f 548/2/5 546/2/5 547/2/5
f 549/8/6 550/8/6 551/8/6
f 551/8/6 550/8/6 552/8/6
f 552/8/6 550/8/6 553/8/6
f 553/8/6 550/8/6 554/8/6
f 549/8/6 551/8/6 555/8/6
f 555/8/6 551/8/6 556/8/6
f 554/8/6 550/8/6 557/8/6
f 557/8/6 550/8/6 558/8/6
f 559/4/6 560/4/6 563/4/6
f 561/4/6 562/4/6 563/4/6
f 560/4/6 561/4/6 563/4/6
f 563/4/6 562/4/6 564/4/6
f 565/8/6 566/8/6 569/8/6
f 567/8/6 568/8/6 572/8/6
f 570/8/6 571/8/6 573/8/6
f 571/8/6 572/8/6 573/8/6
f 565/8/6 569/8/6 573/8/6
f 569/8/6 570/8/6 573/8/6
f 572/8/6 568/8/6 574/8/6
f 573/8/6 572/8/6 574/8/6
f 575/1/6 576/1/6 577/1/6
f 577/1/6 576/1/6 578/1/6
f 578/1/6 576/1/6 579/1/6
f 579/1/6 576/1/6 580/1/6
f 581/1/6 582/1/6 585/1/6
f 583/1/6 584/1/6 585/1/6
f 582/1/6 583/1/6 585/1/6
f 585/1/6 584/1/6 586/1/6
f 586/1/6 584/1/6 587/1/6
f 587/1/6 584/1/6 588/1/6
f 581/1/6 585/1/6 589/1/6
f 585/4/6 586/4/6 590/4/6
f 589/1/6 585/1/6 590/1/6
f 586/1/6 587/1/6 591/1/6
f 590/4/6 586/4/6 591/4/6
f 587/4/6 588/4/6 592/4/6
f 591/1/6 587/1/6 592/1/6
f 588/1/6 584/1/6 593/1/6
f 592/4/6 588/4/6 593/4/6
f 593/1/6 584/1/6 594/1/6
f 595/4/6 596/4/6 599/4/6
f 599/4/6 596/4/6 600/4/6
f 597/1/6 598/1/6 601/1/6
f 601/1/6 598/1/6 602/1/6
f 603/1/6 604/1/6 605/1/6
f 605/1/6 604/1/6 606/1/6
f 603/1/6 605/1/6 607/1/6
f 606/1/6 604/1/6 608/1/6
f 603/1/6 607/1/6 609/1/6
f 607/1/6 608/1/6 609/1/6
f 608/1/6 604/1/6 610/1/6
f 609/1/6 608/1/6 610/1/6
f 611/4/6 612/4/6 613/4/6
f 613/4/6 612/4/6 614/4/6
