# MagicaVoxel @ Ephtracy

# material
mtllib veh_lunch3.mtl
usemtl palette

# normals
vn -1 0 0
vn 1 0 0
vn 0 0 1
vn 0 0 -1
vn 0 -1 0
vn 0 1 0

# texcoords
vt 0.0136719 0.5
vt 0.0410156 0.5
vt 0.111328 0.5
vt 0.138672 0.5
vt 0.458984 0.5
vt 0.587891 0.5
vt 0.615234 0.5
vt 0.958984 0.5
vt 0.966797 0.5
vt 0.970703 0.5
vt 0.974609 0.5
vt 0.978516 0.5
vt 0.982422 0.5
vt 0.986328 0.5
vt 0.990234 0.5

# verts
v -8.5 6 12.5
v -8.5 6 3.5
v -8.5 7 12.5
v -8.5 7 3.5
v -7.5 7 -9.5
v -7.5 7 -10.5
v -7.5 9 -9.5
v -7.5 9 -10.5
v -6.5 0 10.5
v -6.5 0 7.5
v -6.5 0 -8.5
v -6.5 0 -11.5
v -6.5 1 14.5
v -6.5 1 12.5
v -6.5 1 11.5
v -6.5 1 10.5
v -6.5 1 7.5
v -6.5 1 6.5
v -6.5 1 -2.5
v -6.5 1 -7.5
v -6.5 1 -8.5
v -6.5 1 -11.5
v -6.5 1 -12.5
v -6.5 1 -14.5
v -6.5 2 -1.5
v -6.5 2 -2.5
v -6.5 2 -5.5
v -6.5 3 14.5
v -6.5 3 12.5
v -6.5 3 -12.5
v -6.5 3 -14.5
v -6.5 4 14.5
v -6.5 4 13.5
v -6.5 4 11.5
v -6.5 4 10.5
v -6.5 4 7.5
v -6.5 4 6.5
v -6.5 4 5.5
v -6.5 4 -7.5
v -6.5 4 -8.5
v -6.5 4 -11.5
v -6.5 4 -12.5
v -6.5 5 10.5
v -6.5 5 7.5
v -6.5 5 5.5
v -6.5 5 4.5
v -6.5 5 -5.5
v -6.5 5 -6.5
v -6.5 5 -8.5
v -6.5 5 -11.5
v -6.5 6 14.5
v -6.5 6 13.5
v -6.5 6 12.5
v -6.5 6 4.5
v -6.5 6 3.5
v -6.5 6 -0.5
v -6.5 6 -6.5
v -6.5 6 -7.5
v -6.5 7 12.5
v -6.5 7 11.5
v -6.5 7 8.5
v -6.5 7 7.5
v -6.5 7 4.5
v -6.5 7 3.5
v -6.5 7 2.5
v -6.5 7 0.5
v -6.5 7 -6.5
v -6.5 7 -7.5
v -6.5 7 -9.5
v -6.5 7 -10.5
v -6.5 8 -11.5
v -6.5 8 -14.5
v -6.5 9 -9.5
v -6.5 9 -10.5
v -6.5 9 -11.5
v -6.5 11 11.5
v -6.5 11 8.5
v -6.5 11 7.5
v -6.5 11 4.5
v -6.5 11 2.5
v -6.5 11 0.5
v -6.5 11 -0.5
v -6.5 11 -1.5
v -6.5 12 12.5
v -6.5 12 3.5
v -6.5 12 -0.5
v -6.5 12 -1.5
v -6.5 12 -2.5
v -6.5 12 -5.5
v -6.5 12 -6.5
v -6.5 12 -10.5
v -6.5 13 14.5
v -6.5 13 -2.5
v -6.5 13 -11.5
v -6.5 14 14.5
v -6.5 14 -11.5
v -4.5 14 12.5
v -4.5 14 9.5
v -4.5 14 7.5
v -4.5 14 3.5
v -4.5 14 1.5
v -4.5 14 -2.5
v -4.5 15 12.5
v -4.5 15 9.5
v -4.5 15 7.5
v -4.5 15 3.5
v -4.5 15 1.5
v -4.5 15 -2.5
v 4.5 2 3.5
v 4.5 2 2.5
v 4.5 4 3.5
v 4.5 4 2.5
v 5.5 0 10.5
v 5.5 0 7.5
v 5.5 0 -8.5
v 5.5 0 -11.5
v 5.5 1 10.5
v 5.5 1 7.5
v 5.5 1 -8.5
v 5.5 1 -11.5
v -5.5 0 10.5
v -5.5 0 7.5
v -5.5 0 -8.5
v -5.5 0 -11.5
v -5.5 1 10.5
v -5.5 1 7.5
v -5.5 1 -8.5
v -5.5 1 -11.5
v -4.5 2 3.5
v -4.5 2 2.5
v -4.5 3 3.5
v -4.5 4 3.5
v -4.5 4 2.5
v 4.5 14 12.5
v 4.5 14 9.5
v 4.5 14 7.5
v 4.5 14 3.5
v 4.5 14 1.5
v 4.5 14 -2.5
v 4.5 15 12.5
v 4.5 15 9.5
v 4.5 15 7.5
v 4.5 15 3.5
v 4.5 15 1.5
v 4.5 15 -2.5
v 6.5 0 10.5
v 6.5 0 7.5
v 6.5 0 -8.5
v 6.5 0 -11.5
v 6.5 1 14.5
v 6.5 1 12.5
v 6.5 1 11.5
v 6.5 1 10.5
v 6.5 1 7.5
v 6.5 1 6.5
v 6.5 1 -2.5
v 6.5 1 -7.5
v 6.5 1 -8.5
v 6.5 1 -11.5
v 6.5 1 -12.5
v 6.5 1 -14.5
v 6.5 2 -1.5
v 6.5 2 -2.5
v 6.5 2 -5.5
v 6.5 3 14.5
v 6.5 3 12.5
v 6.5 3 -12.5
v 6.5 3 -14.5
v 6.5 4 14.5
v 6.5 4 13.5
v 6.5 4 11.5
v 6.5 4 10.5
v 6.5 4 7.5
v 6.5 4 6.5
v 6.5 4 5.5
v 6.5 4 -7.5
v 6.5 4 -8.5
v 6.5 4 -11.5
v 6.5 4 -12.5
v 6.5 5 10.5
v 6.5 5 7.5
v 6.5 5 5.5
v 6.5 5 4.5
v 6.5 5 -5.5
v 6.5 5 -6.5
v 6.5 5 -8.5
v 6.5 5 -11.5
v 6.5 6 14.5
v 6.5 6 13.5
v 6.5 6 12.5
v 6.5 6 4.5
v 6.5 6 3.5
v 6.5 6 -0.5
v 6.5 6 -6.5
v 6.5 6 -7.5
v 6.5 7 12.5
v 6.5 7 11.5
v 6.5 7 8.5
v 6.5 7 7.5
v 6.5 7 4.5
v 6.5 7 3.5
v 6.5 7 2.5
v 6.5 7 0.5
v 6.5 7 -6.5
v 6.5 7 -7.5
v 6.5 7 -9.5
v 6.5 7 -10.5
v 6.5 8 -11.5
v 6.5 8 -14.5
v 6.5 9 -9.5
v 6.5 9 -10.5
v 6.5 9 -11.5
v 6.5 11 11.5
v 6.5 11 8.5
v 6.5 11 7.5
v 6.5 11 4.5
v 6.5 11 2.5
v 6.5 11 0.5
v 6.5 11 -0.5
v 6.5 11 -1.5
v 6.5 12 12.5
v 6.5 12 3.5
v 6.5 12 -0.5
v 6.5 12 -1.5
v 6.5 12 -2.5
v 6.5 12 -5.5
v 6.5 12 -6.5
v 6.5 12 -10.5
v 6.5 13 14.5
v 6.5 13 -2.5
v 6.5 13 -11.5
v 6.5 14 14.5
v 6.5 14 -11.5
v 7.5 7 -9.5
v 7.5 7 -10.5
v 7.5 9 -9.5
v 7.5 9 -10.5
v 8.5 6 12.5
v 8.5 6 3.5
v 8.5 7 12.5
v 8.5 7 3.5
v -6.5 1 14.5
v -6.5 3 14.5
v -6.5 4 14.5
v -6.5 6 14.5
v -6.5 13 14.5
v -6.5 14 14.5
v -5.5 4 14.5
v -5.5 6 14.5
v -5.5 7 14.5
v -5.5 8 14.5
v -5.5 9 14.5
v -5.5 10 14.5
v -5.5 11 14.5
v -5.5 12 14.5
v -4.5 5 14.5
v -4.5 6 14.5
v -2.5 5 14.5
v -2.5 6 14.5
v -1.5 5 14.5
v -1.5 6 14.5
v -0.5 5 14.5
v -0.5 6 14.5
v 0.5 5 14.5
v 0.5 6 14.5
v 1.5 5 14.5
v 1.5 6 14.5
v 2.5 5 14.5
v 2.5 6 14.5
v 3.5 3 14.5
v 3.5 4 14.5
v 4.5 5 14.5
v 4.5 6 14.5
v 5.5 3 14.5
v 5.5 4 14.5
v 5.5 6 14.5
v 5.5 7 14.5
v 5.5 8 14.5
v 5.5 9 14.5
v 5.5 10 14.5
v 5.5 11 14.5
v 5.5 12 14.5
v 6.5 1 14.5
v 6.5 3 14.5
v 6.5 4 14.5
v 6.5 6 14.5
v 6.5 13 14.5
v 6.5 14 14.5
v -8.5 6 12.5
v -8.5 7 12.5
v -6.5 6 12.5
v -6.5 7 12.5
v -4.5 14 12.5
v -4.5 15 12.5
v 4.5 14 12.5
v 4.5 15 12.5
v 6.5 6 12.5
v 6.5 7 12.5
v 8.5 6 12.5
v 8.5 7 12.5
v -6.5 0 10.5
v -6.5 1 10.5
v -5.5 0 10.5
v -5.5 1 10.5
v 5.5 0 10.5
v 5.5 1 10.5
v 6.5 0 10.5
v 6.5 1 10.5
v -4.5 14 7.5
v -4.5 15 7.5
v 4.5 14 7.5
v 4.5 15 7.5
v -4.5 2 2.5
v -4.5 4 2.5
v 4.5 2 2.5
v 4.5 4 2.5
v -4.5 14 1.5
v -4.5 15 1.5
v 4.5 14 1.5
v 4.5 15 1.5
v -6.5 0 -8.5
v -6.5 1 -8.5
v -5.5 0 -8.5
v -5.5 1 -8.5
v 5.5 0 -8.5
v 5.5 1 -8.5
v 6.5 0 -8.5
v 6.5 1 -8.5
v -7.5 7 -9.5
v -7.5 9 -9.5
v -6.5 7 -9.5
v -6.5 9 -9.5
v 6.5 7 -9.5
v 6.5 9 -9.5
v 7.5 7 -9.5
v 7.5 9 -9.5
v -4.5 14 9.5
v -4.5 15 9.5
v 4.5 14 9.5
v 4.5 15 9.5
v -6.5 0 7.5
v -6.5 1 7.5
v -5.5 0 7.5
v -5.5 1 7.5
v 5.5 0 7.5
v 5.5 1 7.5
v 6.5 0 7.5
v 6.5 1 7.5
v -8.5 6 3.5
v -8.5 7 3.5
v -6.5 6 3.5
v -6.5 7 3.5
v -4.5 2 3.5
v -4.5 3 3.5
v -4.5 4 3.5
v -4.5 14 3.5
v -4.5 15 3.5
v -3.5 2 3.5
v -3.5 3 3.5
v 4.5 2 3.5
v 4.5 4 3.5
v 4.5 14 3.5
v 4.5 15 3.5
v 6.5 6 3.5
v 6.5 7 3.5
v 8.5 6 3.5
v 8.5 7 3.5
v -4.5 14 -2.5
v -4.5 15 -2.5
v 4.5 14 -2.5
v 4.5 15 -2.5
v -7.5 7 -10.5
v -7.5 9 -10.5
v -6.5 7 -10.5
v -6.5 9 -10.5
v 6.5 7 -10.5
v 6.5 9 -10.5
v 7.5 7 -10.5
v 7.5 9 -10.5
v -6.5 0 -11.5
v -6.5 1 -11.5
v -6.5 8 -11.5
v -6.5 9 -11.5
v -6.5 13 -11.5
v -6.5 14 -11.5
v -5.5 0 -11.5
v -5.5 1 -11.5
v -5.5 8 -11.5
v -5.5 9 -11.5
v -5.5 12 -11.5
v -2.5 12 -11.5
v -2.5 13 -11.5
v 2.5 12 -11.5
v 2.5 13 -11.5
v 5.5 0 -11.5
v 5.5 1 -11.5
v 5.5 8 -11.5
v 5.5 9 -11.5
v 5.5 12 -11.5
v 6.5 0 -11.5
v 6.5 1 -11.5
v 6.5 8 -11.5
v 6.5 9 -11.5
v 6.5 13 -11.5
v 6.5 14 -11.5
v -6.5 1 -14.5
v -6.5 3 -14.5
v -6.5 8 -14.5
v -5.5 4 -14.5
v -5.5 6 -14.5
v -3.5 4 -14.5
v -3.5 6 -14.5
v -2.5 3 -14.5
v -2.5 6 -14.5
v 2.5 3 -14.5
v 2.5 6 -14.5
v 3.5 4 -14.5
v 3.5 6 -14.5
v 5.5 4 -14.5
v 5.5 6 -14.5
v 6.5 1 -14.5
v 6.5 3 -14.5
v 6.5 8 -14.5
v -6.5 0 10.5
v -5.5 0 10.5
v 5.5 0 10.5
v 6.5 0 10.5
v -6.5 0 7.5
v -5.5 0 7.5
v 5.5 0 7.5
v 6.5 0 7.5
v -6.5 0 -8.5
v -5.5 0 -8.5
v 5.5 0 -8.5
v 6.5 0 -8.5
v -6.5 0 -11.5
v -5.5 0 -11.5
v 5.5 0 -11.5
v 6.5 0 -11.5
v -6.5 1 14.5
v 6.5 1 14.5
v -5.5 1 13.5
v 5.5 1 13.5
v -6.5 1 12.5
v -5.5 1 12.5
v 5.5 1 12.5
v 6.5 1 12.5
v -6.5 1 11.5
v -5.5 1 11.5
v 5.5 1 11.5
v 6.5 1 11.5
v -6.5 1 10.5
v -5.5 1 10.5
v 5.5 1 10.5
v 6.5 1 10.5
v -6.5 1 7.5
v -5.5 1 7.5
v 5.5 1 7.5
v 6.5 1 7.5
v -6.5 1 6.5
v -5.5 1 6.5
v 5.5 1 6.5
v 6.5 1 6.5
v -6.5 1 -2.5
v -5.5 1 -2.5
v 5.5 1 -2.5
v 6.5 1 -2.5
v -6.5 1 -7.5
v -5.5 1 -7.5
v 5.5 1 -7.5
v 6.5 1 -7.5
v -6.5 1 -8.5
v -5.5 1 -8.5
v 5.5 1 -8.5
v 6.5 1 -8.5
v -6.5 1 -11.5
v -5.5 1 -11.5
v 5.5 1 -11.5
v 6.5 1 -11.5
v -6.5 1 -12.5
v -5.5 1 -12.5
v 5.5 1 -12.5
v 6.5 1 -12.5
v -5.5 1 -13.5
v 5.5 1 -13.5
v -6.5 1 -14.5
v 6.5 1 -14.5
v -4.5 4 3.5
v 4.5 4 3.5
v -4.5 4 2.5
v 4.5 4 2.5
v -8.5 6 12.5
v -6.5 6 12.5
v 6.5 6 12.5
v 8.5 6 12.5
v -6.5 6 4.5
v 6.5 6 4.5
v -8.5 6 3.5
v -6.5 6 3.5
v 6.5 6 3.5
v 8.5 6 3.5
v -7.5 7 -9.5
v -6.5 7 -9.5
v 6.5 7 -9.5
v 7.5 7 -9.5
v -7.5 7 -10.5
v -6.5 7 -10.5
v 6.5 7 -10.5
v 7.5 7 -10.5
v -4.5 2 3.5
v -3.5 2 3.5
v 4.5 2 3.5
v -4.5 2 2.5
v 4.5 2 2.5
v -8.5 7 12.5
v -6.5 7 12.5
v 6.5 7 12.5
v 8.5 7 12.5
v -6.5 7 11.5
v 6.5 7 11.5
v -6.5 7 8.5
v 6.5 7 8.5
v -6.5 7 7.5
v 6.5 7 7.5
v -6.5 7 4.5
v 6.5 7 4.5
v -8.5 7 3.5
v -6.5 7 3.5
v 6.5 7 3.5
v 8.5 7 3.5
v -6.5 8 -11.5
v -5.5 8 -11.5
v 5.5 8 -11.5
v 6.5 8 -11.5
v -6.5 8 -14.5
v 6.5 8 -14.5
v -7.5 9 -9.5
v -6.5 9 -9.5
v 6.5 9 -9.5
v 7.5 9 -9.5
v -7.5 9 -10.5
v -6.5 9 -10.5
v 6.5 9 -10.5
v 7.5 9 -10.5
v -6.5 14 14.5
v 6.5 14 14.5
v -4.5 14 12.5
v 4.5 14 12.5
v -4.5 14 9.5
v 4.5 14 9.5
v -4.5 14 7.5
v 4.5 14 7.5
v -4.5 14 3.5
v 4.5 14 3.5
v -4.5 14 1.5
v 4.5 14 1.5
v -4.5 14 -2.5
v 4.5 14 -2.5
v -6.5 14 -11.5
v 6.5 14 -11.5
v -4.5 15 12.5
v 4.5 15 12.5
v -4.5 15 9.5
v 4.5 15 9.5
v -4.5 15 7.5
v 4.5 15 7.5
v -4.5 15 3.5
v 4.5 15 3.5
v -4.5 15 1.5
v 4.5 15 1.5
v -4.5 15 -2.5
v 4.5 15 -2.5

# faces
f 3/14/1 2/14/1 1/14/1
f 4/14/1 2/14/1 3/14/1
f 7/5/1 6/5/1 5/5/1
f 8/5/1 6/5/1 7/5/1
f 16/14/1 10/14/1 9/14/1
f 17/14/1 10/14/1 16/14/1
f 21/14/1 12/14/1 11/14/1
f 22/14/1 12/14/1 21/14/1
f 25/2/1 19/2/1 18/2/1
f 26/5/1 20/5/1 19/5/1
f 26/2/1 19/2/1 25/2/1
f 27/5/1 20/5/1 26/5/1
f 28/12/1 14/12/1 13/12/1
f 29/5/1 15/5/1 14/5/1
f 29/12/1 14/12/1 28/12/1
f 30/12/1 24/12/1 23/12/1
f 30/14/1 23/14/1 22/14/1
f 31/12/1 24/12/1 30/12/1
f 32/5/1 29/5/1 28/5/1
f 33/5/1 29/5/1 32/5/1
f 34/14/1 16/14/1 15/14/1
f 34/5/1 29/5/1 33/5/1
f 34/5/1 15/5/1 29/5/1
f 35/11/1 17/11/1 16/11/1
f 35/14/1 16/14/1 34/14/1
f 36/14/1 18/14/1 17/14/1
f 36/11/1 17/11/1 35/11/1
f 37/2/1 25/2/1 18/2/1
f 37/14/1 18/14/1 36/14/1
f 38/2/1 25/2/1 37/2/1
f 39/5/1 20/5/1 27/5/1
f 39/14/1 21/14/1 20/14/1
f 40/11/1 22/11/1 21/11/1
f 40/14/1 21/14/1 39/14/1
f 41/14/1 30/14/1 22/14/1
f 41/11/1 22/11/1 40/11/1
f 42/5/1 31/5/1 30/5/1
f 42/14/1 30/14/1 41/14/1
f 43/14/1 36/14/1 35/14/1
f 43/5/1 34/5/1 33/5/1
f 43/5/1 35/5/1 34/5/1
f 44/5/1 37/5/1 36/5/1
f 44/14/1 36/14/1 43/14/1
f 44/5/1 38/5/1 37/5/1
f 45/2/1 25/2/1 38/2/1
f 45/5/1 38/5/1 44/5/1
f 46/2/1 25/2/1 45/2/1
f 47/5/1 39/5/1 27/5/1
f 47/15/1 26/15/1 25/15/1
f 47/15/1 27/15/1 26/15/1
f 47/5/1 40/5/1 39/5/1
f 48/5/1 40/5/1 47/5/1
f 49/14/1 41/14/1 40/14/1
f 49/5/1 40/5/1 48/5/1
f 50/5/1 42/5/1 41/5/1
f 50/14/1 41/14/1 49/14/1
f 51/3/1 33/3/1 32/3/1
f 52/5/1 44/5/1 43/5/1
f 52/3/1 33/3/1 51/3/1
f 52/5/1 43/5/1 33/5/1
f 52/5/1 46/5/1 45/5/1
f 52/5/1 45/5/1 44/5/1
f 53/5/1 46/5/1 52/5/1
f 54/2/1 25/2/1 46/2/1
f 54/5/1 46/5/1 53/5/1
f 55/2/1 25/2/1 54/2/1
f 56/2/1 25/2/1 55/2/1
f 57/5/1 49/5/1 48/5/1
f 57/5/1 50/5/1 49/5/1
f 57/2/1 48/2/1 47/2/1
f 58/5/1 50/5/1 57/5/1
f 59/5/1 53/5/1 52/5/1
f 59/5/1 52/5/1 51/5/1
f 64/4/1 56/4/1 55/4/1
f 65/4/1 56/4/1 64/4/1
f 66/4/1 56/4/1 65/4/1
f 67/2/1 58/2/1 57/2/1
f 67/2/1 57/2/1 47/2/1
f 68/5/1 50/5/1 58/5/1
f 68/2/1 58/2/1 67/2/1
f 69/5/1 50/5/1 68/5/1
f 70/5/1 50/5/1 69/5/1
f 71/5/1 42/5/1 50/5/1
f 71/5/1 50/5/1 70/5/1
f 72/5/1 31/5/1 42/5/1
f 72/5/1 42/5/1 71/5/1
f 73/15/1 69/15/1 68/15/1
f 73/15/1 68/15/1 67/15/1
f 74/5/1 71/5/1 70/5/1
f 75/5/1 71/5/1 74/5/1
f 76/14/1 60/14/1 59/14/1
f 76/15/1 61/15/1 60/15/1
f 77/14/1 62/14/1 61/14/1
f 77/15/1 61/15/1 76/15/1
f 78/15/1 63/15/1 62/15/1
f 78/14/1 62/14/1 77/14/1
f 79/14/1 64/14/1 63/14/1
f 79/15/1 63/15/1 78/15/1
f 80/1/1 66/1/1 65/1/1
f 80/4/1 65/4/1 64/4/1
f 81/4/1 56/4/1 66/4/1
f 81/1/1 66/1/1 80/1/1
f 82/2/1 25/2/1 56/2/1
f 82/4/1 56/4/1 81/4/1
f 83/15/1 47/15/1 25/15/1
f 83/2/1 25/2/1 82/2/1
f 84/14/1 77/14/1 76/14/1
f 84/5/1 59/5/1 51/5/1
f 84/14/1 76/14/1 59/14/1
f 84/14/1 78/14/1 77/14/1
f 84/14/1 79/14/1 78/14/1
f 85/4/1 81/4/1 80/4/1
f 85/14/1 79/14/1 84/14/1
f 85/4/1 80/4/1 64/4/1
f 85/4/1 82/4/1 81/4/1
f 85/14/1 64/14/1 79/14/1
f 86/5/1 83/5/1 82/5/1
f 86/4/1 82/4/1 85/4/1
f 87/15/1 47/15/1 83/15/1
f 87/5/1 83/5/1 86/5/1
f 88/15/1 47/15/1 87/15/1
f 89/2/1 67/2/1 47/2/1
f 89/15/1 47/15/1 88/15/1
f 90/15/1 73/15/1 67/15/1
f 90/2/1 67/2/1 89/2/1
f 90/15/1 74/15/1 73/15/1
f 91/2/1 75/2/1 74/2/1
f 91/15/1 74/15/1 90/15/1
f 92/5/1 84/5/1 51/5/1
f 92/5/1 86/5/1 85/5/1
f 92/5/1 88/5/1 87/5/1
f 92/5/1 87/5/1 86/5/1
f 92/5/1 85/5/1 84/5/1
f 93/2/1 89/2/1 88/2/1
f 93/5/1 88/5/1 92/5/1
f 93/2/1 91/2/1 90/2/1
f 93/2/1 90/2/1 89/2/1
f 94/2/1 75/2/1 91/2/1
f 94/2/1 91/2/1 93/2/1
f 95/11/1 93/11/1 92/11/1
f 95/11/1 94/11/1 93/11/1
f 96/11/1 94/11/1 95/11/1
f 103/14/1 98/14/1 97/14/1
f 104/14/1 98/14/1 103/14/1
f 105/14/1 100/14/1 99/14/1
f 106/14/1 100/14/1 105/14/1
f 107/14/1 102/14/1 101/14/1
f 108/14/1 102/14/1 107/14/1
f 111/10/1 110/10/1 109/10/1
f 112/10/1 110/10/1 111/10/1
f 117/14/1 114/14/1 113/14/1
f 118/14/1 114/14/1 117/14/1
f 119/14/1 116/14/1 115/14/1
f 120/14/1 116/14/1 119/14/1
f 121/14/2 122/14/2 125/14/2
f 125/14/2 122/14/2 126/14/2
f 123/14/2 124/14/2 127/14/2
f 127/14/2 124/14/2 128/14/2
f 129/10/2 130/10/2 131/10/2
f 131/10/2 130/10/2 132/10/2
f 132/10/2 130/10/2 133/10/2
f 134/14/2 135/14/2 140/14/2
f 140/14/2 135/14/2 141/14/2
f 136/14/2 137/14/2 142/14/2
f 142/14/2 137/14/2 143/14/2
f 138/14/2 139/14/2 144/14/2
f 144/14/2 139/14/2 145/14/2
f 146/14/2 147/14/2 153/14/2
f 153/14/2 147/14/2 154/14/2
f 148/14/2 149/14/2 158/14/2
f 158/14/2 149/14/2 159/14/2
f 155/2/2 156/2/2 162/2/2
f 156/5/2 157/5/2 163/5/2
f 162/2/2 156/2/2 163/2/2
f 163/5/2 157/5/2 164/5/2
f 150/12/2 151/12/2 165/12/2
f 151/5/2 152/5/2 166/5/2
f 165/12/2 151/12/2 166/12/2
f 160/12/2 161/12/2 167/12/2
f 159/14/2 160/14/2 167/14/2
f 167/12/2 161/12/2 168/12/2
f 165/5/2 166/5/2 169/5/2
f 169/5/2 166/5/2 170/5/2
f 152/14/2 153/14/2 171/14/2
f 170/5/2 166/5/2 171/5/2
f 166/5/2 152/5/2 171/5/2
f 153/11/2 154/11/2 172/11/2
f 171/14/2 153/14/2 172/14/2
f 154/14/2 155/14/2 173/14/2
f 172/11/2 154/11/2 173/11/2
f 155/2/2 162/2/2 174/2/2
f 173/14/2 155/14/2 174/14/2
f 174/2/2 162/2/2 175/2/2
f 164/5/2 157/5/2 176/5/2
f 157/14/2 158/14/2 176/14/2
f 158/11/2 159/11/2 177/11/2
f 176/14/2 158/14/2 177/14/2
f 159/14/2 167/14/2 178/14/2
f 177/11/2 159/11/2 178/11/2
f 167/5/2 168/5/2 179/5/2
f 178/14/2 167/14/2 179/14/2
f 172/14/2 173/14/2 180/14/2
f 170/5/2 171/5/2 180/5/2
f 171/5/2 172/5/2 180/5/2
f 173/5/2 174/5/2 181/5/2
f 180/14/2 173/14/2 181/14/2
f 174/5/2 175/5/2 181/5/2
f 175/2/2 162/2/2 182/2/2
f 181/5/2 175/5/2 182/5/2
f 182/2/2 162/2/2 183/2/2
f 164/5/2 176/5/2 184/5/2
f 162/15/2 163/15/2 184/15/2
f 163/15/2 164/15/2 184/15/2
f 176/5/2 177/5/2 184/5/2
f 184/5/2 177/5/2 185/5/2
f 177/14/2 178/14/2 186/14/2
f 185/5/2 177/5/2 186/5/2
f 178/5/2 179/5/2 187/5/2
f 186/14/2 178/14/2 187/14/2
f 169/3/2 170/3/2 188/3/2
f 180/5/2 181/5/2 189/5/2
f 188/3/2 170/3/2 189/3/2
f 170/5/2 180/5/2 189/5/2
f 182/5/2 183/5/2 189/5/2
f 181/5/2 182/5/2 189/5/2
f 189/5/2 183/5/2 190/5/2
f 183/2/2 162/2/2 191/2/2
f 190/5/2 183/5/2 191/5/2
f 191/2/2 162/2/2 192/2/2
f 192/2/2 162/2/2 193/2/2
f 185/5/2 186/5/2 194/5/2
f 186/5/2 187/5/2 194/5/2
f 184/2/2 185/2/2 194/2/2
f 194/5/2 187/5/2 195/5/2
f 189/5/2 190/5/2 196/5/2
f 188/5/2 189/5/2 196/5/2
f 192/4/2 193/4/2 201/4/2
f 201/4/2 193/4/2 202/4/2
f 202/4/2 193/4/2 203/4/2
f 194/2/2 195/2/2 204/2/2
f 184/2/2 194/2/2 204/2/2
f 195/5/2 187/5/2 205/5/2
f 204/2/2 195/2/2 205/2/2
f 205/5/2 187/5/2 206/5/2
f 206/5/2 187/5/2 207/5/2
f 187/5/2 179/5/2 208/5/2
f 207/5/2 187/5/2 208/5/2
f 179/5/2 168/5/2 209/5/2
f 208/5/2 179/5/2 209/5/2
f 205/15/2 206/15/2 210/15/2
f 204/15/2 205/15/2 210/15/2
f 207/5/2 208/5/2 211/5/2
f 211/5/2 208/5/2 212/5/2
f 196/14/2 197/14/2 213/14/2
f 197/15/2 198/15/2 213/15/2
f 198/14/2 199/14/2 214/14/2
f 213/15/2 198/15/2 214/15/2
f 199/15/2 200/15/2 215/15/2
f 214/14/2 199/14/2 215/14/2
f 200/14/2 201/14/2 216/14/2
f 215/15/2 200/15/2 216/15/2
f 202/1/2 203/1/2 217/1/2
f 201/4/2 202/4/2 217/4/2
f 203/4/2 193/4/2 218/4/2
f 217/1/2 203/1/2 218/1/2
f 193/2/2 162/2/2 219/2/2
f 218/4/2 193/4/2 219/4/2
f 162/15/2 184/15/2 220/15/2
f 219/2/2 162/2/2 220/2/2
f 213/14/2 214/14/2 221/14/2
f 188/5/2 196/5/2 221/5/2
f 196/14/2 213/14/2 221/14/2
f 214/14/2 215/14/2 221/14/2
f 215/14/2 216/14/2 221/14/2
f 217/4/2 218/4/2 222/4/2
f 221/14/2 216/14/2 222/14/2
f 201/4/2 217/4/2 222/4/2
f 218/4/2 219/4/2 222/4/2
f 216/14/2 201/14/2 222/14/2
f 219/5/2 220/5/2 223/5/2
f 222/4/2 219/4/2 223/4/2
f 220/15/2 184/15/2 224/15/2
f 223/5/2 220/5/2 224/5/2
f 224/15/2 184/15/2 225/15/2
f 184/2/2 204/2/2 226/2/2
f 225/15/2 184/15/2 226/15/2
f 204/15/2 210/15/2 227/15/2
f 226/2/2 204/2/2 227/2/2
f 210/15/2 211/15/2 227/15/2
f 211/2/2 212/2/2 228/2/2
f 227/15/2 211/15/2 228/15/2
f 188/5/2 221/5/2 229/5/2
f 222/5/2 223/5/2 229/5/2
f 224/5/2 225/5/2 229/5/2
f 223/5/2 224/5/2 229/5/2
f 221/5/2 222/5/2 229/5/2
f 225/2/2 226/2/2 230/2/2
f 229/5/2 225/5/2 230/5/2
f 227/2/2 228/2/2 230/2/2
f 226/2/2 227/2/2 230/2/2
f 228/2/2 212/2/2 231/2/2
f 230/2/2 228/2/2 231/2/2
f 229/11/2 230/11/2 232/11/2
f 230/11/2 231/11/2 232/11/2
f 232/11/2 231/11/2 233/11/2
f 234/5/2 235/5/2 236/5/2
f 236/5/2 235/5/2 237/5/2
f 238/14/2 239/14/2 240/14/2
f 240/14/2 239/14/2 241/14/2
f 248/5/3 244/5/3 243/5/3
f 248/3/3 245/3/3 244/3/3
f 249/5/3 246/5/3 245/5/3
f 249/3/3 245/3/3 248/3/3
f 250/5/3 246/5/3 249/5/3
f 251/5/3 246/5/3 250/5/3
f 252/5/3 246/5/3 251/5/3
f 253/5/3 246/5/3 252/5/3
f 254/5/3 246/5/3 253/5/3
f 255/5/3 246/5/3 254/5/3
f 256/5/3 249/5/3 248/5/3
f 256/5/3 250/5/3 249/5/3
f 257/5/3 250/5/3 256/5/3
f 258/5/3 256/5/3 248/5/3
f 258/11/3 257/11/3 256/11/3
f 259/5/3 250/5/3 257/5/3
f 259/11/3 257/11/3 258/11/3
f 260/5/3 258/5/3 248/5/3
f 260/5/3 259/5/3 258/5/3
f 261/5/3 250/5/3 259/5/3
f 261/5/3 259/5/3 260/5/3
f 262/5/3 260/5/3 248/5/3
f 262/11/3 261/11/3 260/11/3
f 263/5/3 250/5/3 261/5/3
f 263/11/3 261/11/3 262/11/3
f 264/5/3 262/5/3 248/5/3
f 264/5/3 263/5/3 262/5/3
f 265/5/3 250/5/3 263/5/3
f 265/5/3 263/5/3 264/5/3
f 266/5/3 264/5/3 248/5/3
f 266/11/3 265/11/3 264/11/3
f 267/5/3 250/5/3 265/5/3
f 267/11/3 265/11/3 266/11/3
f 268/5/3 266/5/3 248/5/3
f 268/5/3 267/5/3 266/5/3
f 269/5/3 250/5/3 267/5/3
f 269/5/3 267/5/3 268/5/3
f 270/12/3 243/12/3 242/12/3
f 270/5/3 248/5/3 243/5/3
f 270/5/3 268/5/3 248/5/3
f 271/5/3 268/5/3 270/5/3
f 272/11/3 269/11/3 268/11/3
f 272/5/3 268/5/3 271/5/3
f 273/5/3 250/5/3 269/5/3
f 273/11/3 269/11/3 272/11/3
f 274/9/3 271/9/3 270/9/3
f 274/12/3 270/12/3 242/12/3
f 275/5/3 272/5/3 271/5/3
f 275/9/3 271/9/3 274/9/3
f 275/5/3 273/5/3 272/5/3
f 276/5/3 250/5/3 273/5/3
f 276/5/3 273/5/3 275/5/3
f 277/14/3 251/14/3 250/14/3
f 277/5/3 250/5/3 276/5/3
f 278/13/3 252/13/3 251/13/3
f 278/14/3 251/14/3 277/14/3
f 279/14/3 253/14/3 252/14/3
f 279/13/3 252/13/3 278/13/3
f 280/13/3 254/13/3 253/13/3
f 280/14/3 253/14/3 279/14/3
f 281/14/3 255/14/3 254/14/3
f 281/13/3 254/13/3 280/13/3
f 282/5/3 246/5/3 255/5/3
f 282/14/3 255/14/3 281/14/3
f 283/12/3 274/12/3 242/12/3
f 284/5/3 275/5/3 274/5/3
f 284/12/3 274/12/3 283/12/3
f 285/3/3 276/3/3 275/3/3
f 285/5/3 275/5/3 284/5/3
f 286/5/3 281/5/3 280/5/3
f 286/3/3 276/3/3 285/3/3
f 286/5/3 280/5/3 279/5/3
f 286/5/3 282/5/3 281/5/3
f 286/5/3 279/5/3 278/5/3
f 286/5/3 278/5/3 277/5/3
f 286/5/3 277/5/3 276/5/3
f 287/5/3 246/5/3 282/5/3
f 287/5/3 282/5/3 286/5/3
f 287/11/3 247/11/3 246/11/3
f 288/11/3 247/11/3 287/11/3
f 291/14/3 290/14/3 289/14/3
f 292/14/3 290/14/3 291/14/3
f 295/14/3 294/14/3 293/14/3
f 296/14/3 294/14/3 295/14/3
f 299/14/3 298/14/3 297/14/3
f 300/14/3 298/14/3 299/14/3
f 303/14/3 302/14/3 301/14/3
f 304/14/3 302/14/3 303/14/3
f 307/14/3 306/14/3 305/14/3
f 308/14/3 306/14/3 307/14/3
f 311/14/3 310/14/3 309/14/3
f 312/14/3 310/14/3 311/14/3
f 315/5/3 314/5/3 313/5/3
f 316/5/3 314/5/3 315/5/3
f 319/14/3 318/14/3 317/14/3
f 320/14/3 318/14/3 319/14/3
f 323/14/3 322/14/3 321/14/3
f 324/14/3 322/14/3 323/14/3
f 327/14/3 326/14/3 325/14/3
f 328/14/3 326/14/3 327/14/3
f 331/5/3 330/5/3 329/5/3
f 332/5/3 330/5/3 331/5/3
f 335/5/3 334/5/3 333/5/3
f 336/5/3 334/5/3 335/5/3
f 337/14/4 338/14/4 339/14/4
f 339/14/4 338/14/4 340/14/4
f 341/14/4 342/14/4 343/14/4
f 343/14/4 342/14/4 344/14/4
f 345/14/4 346/14/4 347/14/4
f 347/14/4 346/14/4 348/14/4
f 349/14/4 350/14/4 351/14/4
f 351/14/4 350/14/4 352/14/4
f 353/10/4 354/10/4 358/10/4
f 354/14/4 355/14/4 359/14/4
f 358/10/4 354/10/4 359/10/4
f 358/14/4 359/14/4 360/14/4
f 359/14/4 355/14/4 361/14/4
f 360/14/4 359/14/4 361/14/4
f 356/14/4 357/14/4 362/14/4
f 362/14/4 357/14/4 363/14/4
f 364/14/4 365/14/4 366/14/4
f 366/14/4 365/14/4 367/14/4
f 368/14/4 369/14/4 370/14/4
f 370/14/4 369/14/4 371/14/4
f 372/5/4 373/5/4 374/5/4
f 374/5/4 373/5/4 375/5/4
f 376/5/4 377/5/4 378/5/4
f 378/5/4 377/5/4 379/5/4
f 380/14/4 381/14/4 386/14/4
f 386/14/4 381/14/4 387/14/4
f 382/5/4 383/5/4 388/5/4
f 383/2/4 384/2/4 389/2/4
f 388/5/4 383/5/4 389/5/4
f 389/2/4 384/2/4 390/2/4
f 390/2/4 384/2/4 391/2/4
f 389/15/4 390/15/4 391/15/4
f 388/15/4 389/15/4 391/15/4
f 384/11/4 385/11/4 392/11/4
f 391/2/4 384/2/4 392/2/4
f 388/15/4 391/15/4 393/15/4
f 391/5/4 392/5/4 393/5/4
f 392/11/4 385/11/4 394/11/4
f 393/5/4 392/5/4 394/5/4
f 388/15/4 393/15/4 397/15/4
f 397/15/4 393/15/4 398/15/4
f 393/2/4 394/2/4 399/2/4
f 398/15/4 393/15/4 399/15/4
f 395/14/4 396/14/4 400/14/4
f 400/14/4 396/14/4 401/14/4
f 397/5/4 398/5/4 402/5/4
f 398/2/4 399/2/4 403/2/4
f 402/5/4 398/5/4 403/5/4
f 399/2/4 394/2/4 404/2/4
f 403/2/4 399/2/4 404/2/4
f 394/11/4 385/11/4 404/11/4
f 404/11/4 385/11/4 405/11/4
f 407/5/4 408/5/4 409/5/4
f 409/5/4 408/5/4 410/5/4
f 407/5/4 409/5/4 411/5/4
f 409/8/4 410/8/4 411/8/4
f 410/5/4 408/5/4 412/5/4
f 411/8/4 410/8/4 412/8/4
f 406/12/4 407/12/4 413/12/4
f 407/5/4 411/5/4 413/5/4
f 411/5/4 412/5/4 413/5/4
f 412/5/4 408/5/4 414/5/4
f 413/5/4 412/5/4 414/5/4
f 406/12/4 413/12/4 415/12/4
f 413/10/4 414/10/4 415/10/4
f 414/5/4 408/5/4 416/5/4
f 415/10/4 414/10/4 416/10/4
f 415/5/4 416/5/4 417/5/4
f 416/5/4 408/5/4 418/5/4
f 417/5/4 416/5/4 418/5/4
f 415/5/4 417/5/4 419/5/4
f 417/8/4 418/8/4 419/8/4
f 418/5/4 408/5/4 420/5/4
f 419/8/4 418/8/4 420/8/4
f 406/12/4 415/12/4 421/12/4
f 415/5/4 419/5/4 422/5/4
f 421/12/4 415/12/4 422/12/4
f 419/5/4 420/5/4 422/5/4
f 420/5/4 408/5/4 423/5/4
f 422/5/4 420/5/4 423/5/4
f 428/14/5 425/14/5 424/14/5
f 429/14/5 425/14/5 428/14/5
f 430/14/5 427/14/5 426/14/5
f 431/14/5 427/14/5 430/14/5
f 436/14/5 433/14/5 432/14/5
f 437/14/5 433/14/5 436/14/5
f 438/14/5 435/14/5 434/14/5
f 439/14/5 435/14/5 438/14/5
f 442/12/5 441/12/5 440/12/5
f 443/12/5 441/12/5 442/12/5
f 444/12/5 442/12/5 440/12/5
f 445/10/5 443/10/5 442/10/5
f 445/12/5 442/12/5 444/12/5
f 446/12/5 441/12/5 443/12/5
f 446/10/5 443/10/5 445/10/5
f 447/12/5 441/12/5 446/12/5
f 448/5/5 445/5/5 444/5/5
f 449/10/5 446/10/5 445/10/5
f 449/5/5 445/5/5 448/5/5
f 450/5/5 447/5/5 446/5/5
f 450/10/5 446/10/5 449/10/5
f 451/5/5 447/5/5 450/5/5
f 452/14/5 449/14/5 448/14/5
f 453/10/5 450/10/5 449/10/5
f 453/14/5 449/14/5 452/14/5
f 454/14/5 451/14/5 450/14/5
f 454/10/5 450/10/5 453/10/5
f 455/14/5 451/14/5 454/14/5
f 457/10/5 454/10/5 453/10/5
f 458/10/5 454/10/5 457/10/5
f 460/14/5 457/14/5 456/14/5
f 461/10/5 458/10/5 457/10/5
f 461/14/5 457/14/5 460/14/5
f 462/14/5 459/14/5 458/14/5
f 462/10/5 458/10/5 461/10/5
f 463/14/5 459/14/5 462/14/5
f 464/2/5 461/2/5 460/2/5
f 465/10/5 462/10/5 461/10/5
f 465/2/5 461/2/5 464/2/5
f 466/2/5 463/2/5 462/2/5
f 466/10/5 462/10/5 465/10/5
f 467/2/5 463/2/5 466/2/5
f 468/5/5 465/5/5 464/5/5
f 469/10/5 466/10/5 465/10/5
f 469/5/5 465/5/5 468/5/5
f 470/5/5 467/5/5 466/5/5
f 470/10/5 466/10/5 469/10/5
f 471/5/5 467/5/5 470/5/5
f 472/14/5 469/14/5 468/14/5
f 473/10/5 470/10/5 469/10/5
f 473/14/5 469/14/5 472/14/5
f 474/14/5 471/14/5 470/14/5
f 474/10/5 470/10/5 473/10/5
f 475/14/5 471/14/5 474/14/5
f 477/10/5 474/10/5 473/10/5
f 478/10/5 474/10/5 477/10/5
f 480/14/5 477/14/5 476/14/5
f 481/10/5 478/10/5 477/10/5
f 481/14/5 477/14/5 480/14/5
f 482/14/5 479/14/5 478/14/5
f 482/10/5 478/10/5 481/10/5
f 483/14/5 479/14/5 482/14/5
f 484/12/5 481/12/5 480/12/5
f 484/10/5 482/10/5 481/10/5
f 485/12/5 483/12/5 482/12/5
f 485/10/5 482/10/5 484/10/5
f 486/12/5 484/12/5 480/12/5
f 486/12/5 485/12/5 484/12/5
f 487/12/5 483/12/5 485/12/5
f 487/12/5 485/12/5 486/12/5
f 490/5/5 489/5/5 488/5/5
f 491/5/5 489/5/5 490/5/5
f 496/14/5 493/14/5 492/14/5
f 497/14/5 495/14/5 494/14/5
f 498/14/5 496/14/5 492/14/5
f 499/14/5 496/14/5 498/14/5
f 500/14/5 495/14/5 497/14/5
f 501/14/5 495/14/5 500/14/5
f 506/5/5 503/5/5 502/5/5
f 507/5/5 503/5/5 506/5/5
f 508/5/5 505/5/5 504/5/5
f 509/5/5 505/5/5 508/5/5
f 510/10/6 511/10/6 513/10/6
f 511/10/6 512/10/6 513/10/6
f 513/10/6 512/10/6 514/10/6
f 515/14/6 516/14/6 519/14/6
f 517/14/6 518/14/6 520/14/6
f 515/14/6 519/14/6 521/14/6
f 520/14/6 518/14/6 522/14/6
f 515/14/6 521/14/6 523/14/6
f 522/14/6 518/14/6 524/14/6
f 515/14/6 523/14/6 525/14/6
f 524/14/6 518/14/6 526/14/6
f 515/14/6 525/14/6 527/14/6
f 527/14/6 525/14/6 528/14/6
f 526/14/6 518/14/6 529/14/6
f 529/14/6 518/14/6 530/14/6
f 531/5/6 532/5/6 535/5/6
f 533/5/6 534/5/6 535/5/6
f 532/5/6 533/5/6 535/5/6
f 535/5/6 534/5/6 536/5/6
f 537/5/6 538/5/6 541/5/6
f 541/5/6 538/5/6 542/5/6
f 539/5/6 540/5/6 543/5/6
f 543/5/6 540/5/6 544/5/6
f 545/11/6 546/11/6 547/11/6
f 547/11/6 546/11/6 548/11/6
f 545/11/6 547/11/6 549/11/6
f 548/11/6 546/11/6 550/11/6
f 545/11/6 549/11/6 551/11/6
f 549/11/6 550/11/6 551/11/6
f 550/11/6 546/11/6 552/11/6
f 551/11/6 550/11/6 552/11/6
f 545/11/6 551/11/6 553/11/6
f 552/11/6 546/11/6 554/11/6
f 545/11/6 553/11/6 555/11/6
f 553/11/6 554/11/6 555/11/6
f 554/11/6 546/11/6 556/11/6
f 555/11/6 554/11/6 556/11/6
f 545/11/6 555/11/6 557/11/6
f 556/11/6 546/11/6 558/11/6
f 545/11/6 557/11/6 559/11/6
f 557/11/6 558/11/6 559/11/6
f 558/11/6 546/11/6 560/11/6
f 559/11/6 558/11/6 560/11/6
f 561/14/6 562/14/6 563/14/6
f 563/14/6 562/14/6 564/14/6
f 565/14/6 566/14/6 567/14/6
f 567/14/6 566/14/6 568/14/6
f 569/14/6 570/14/6 571/14/6
f 571/14/6 570/14/6 572/14/6
