# MagicaVoxel @ Ephtracy

# material
mtllib veh_police1.mtl
usemtl palette

# normals
vn -1 0 0
vn 1 0 0
vn 0 0 1
vn 0 0 -1
vn 0 -1 0
vn 0 1 0

# texcoords
vt 0.0410156 0.5
vt 0.615234 0.5
vt 0.802734 0.5
vt 0.853516 0.5
vt 0.958984 0.5
vt 0.966797 0.5
vt 0.970703 0.5
vt 0.974609 0.5
vt 0.978516 0.5
vt 0.986328 0.5
vt 0.990234 0.5

# verts
v -7.5 2 17
v -7.5 2 14
v -7.5 2 -15
v -7.5 2 -17
v -7.5 4 17
v -7.5 4 14
v -7.5 4 -15
v -7.5 4 -17
v -7.5 6 -4
v -7.5 6 -5
v -7.5 8 -4
v -7.5 8 -5
v -6.5 0 11
v -6.5 0 8
v -6.5 0 -9
v -6.5 0 -12
v -6.5 1 14
v -6.5 1 12
v -6.5 1 11
v -6.5 1 8
v -6.5 1 7
v -6.5 1 -8
v -6.5 1 -9
v -6.5 1 -12
v -6.5 1 -13
v -6.5 1 -15
v -6.5 2 14
v -6.5 2 -0
v -6.5 2 -2
v -6.5 2 -15
v -6.5 3 1
v -6.5 3 -0
v -6.5 3 -2
v -6.5 3 -3
v -6.5 4 16
v -6.5 4 14
v -6.5 4 12
v -6.5 4 11
v -6.5 4 8
v -6.5 4 7
v -6.5 4 -8
v -6.5 4 -9
v -6.5 4 -12
v -6.5 4 -13
v -6.5 4 -15
v -6.5 4 -16
v -6.5 5 16
v -6.5 5 15
v -6.5 5 14
v -6.5 5 11
v -6.5 5 8
v -6.5 5 1
v -6.5 5 -0
v -6.5 5 -2
v -6.5 5 -3
v -6.5 5 -9
v -6.5 5 -12
v -6.5 5 -15
v -6.5 6 16
v -6.5 6 15
v -6.5 6 14
v -6.5 6 -0
v -6.5 6 -2
v -6.5 6 -4
v -6.5 6 -5
v -6.5 6 -15
v -6.5 7 16
v -6.5 7 9
v -6.5 7 7
v -6.5 7 3
v -6.5 7 2
v -6.5 7 -4
v -6.5 7 -5
v -6.5 7 -6
v -6.5 7 -16
v -6.5 8 -4
v -6.5 8 -5
v -6.5 10 7
v -6.5 10 3
v -6.5 10 2
v -6.5 10 -5
v -6.5 11 9
v -6.5 11 -6
v -6.5 12 2
v -6.5 12 -1
v -6.5 13 2
v -6.5 13 -1
v -5.5 11 2
v -5.5 11 -1
v -5.5 12 2
v -5.5 12 -1
v 4.5 4 5
v 4.5 4 -3
v 4.5 7 5
v 4.5 7 4
v 4.5 7 -3
v 4.5 11 2
v 4.5 11 -1
v 4.5 12 2
v 4.5 12 -1
v 5.5 0 11
v 5.5 0 8
v 5.5 0 -9
v 5.5 0 -12
v 5.5 1 14
v 5.5 1 12
v 5.5 1 11
v 5.5 1 8
v 5.5 1 -9
v 5.5 1 -12
v 5.5 2 14
v 5.5 2 12
v -5.5 0 11
v -5.5 0 8
v -5.5 0 -9
v -5.5 0 -12
v -5.5 1 14
v -5.5 1 12
v -5.5 1 11
v -5.5 1 8
v -5.5 1 -9
v -5.5 1 -12
v -5.5 2 14
v -5.5 2 12
v -4.5 4 5
v -4.5 4 -3
v -4.5 7 5
v -4.5 7 4
v -4.5 7 -3
v -4.5 11 2
v -4.5 11 -1
v -4.5 12 2
v -4.5 12 -1
v 5.5 11 2
v 5.5 11 -1
v 5.5 12 2
v 5.5 12 -1
v 6.5 0 11
v 6.5 0 8
v 6.5 0 -9
v 6.5 0 -12
v 6.5 1 14
v 6.5 1 12
v 6.5 1 11
v 6.5 1 8
v 6.5 1 7
v 6.5 1 -8
v 6.5 1 -9
v 6.5 1 -12
v 6.5 1 -13
v 6.5 1 -15
v 6.5 2 14
v 6.5 2 -0
v 6.5 2 -2
v 6.5 2 -15
v 6.5 3 1
v 6.5 3 -0
v 6.5 3 -2
v 6.5 3 -3
v 6.5 4 16
v 6.5 4 14
v 6.5 4 12
v 6.5 4 11
v 6.5 4 8
v 6.5 4 7
v 6.5 4 -8
v 6.5 4 -9
v 6.5 4 -12
v 6.5 4 -13
v 6.5 4 -15
v 6.5 4 -16
v 6.5 5 16
v 6.5 5 15
v 6.5 5 11
v 6.5 5 8
v 6.5 5 1
v 6.5 5 -0
v 6.5 5 -2
v 6.5 5 -3
v 6.5 5 -9
v 6.5 5 -12
v 6.5 5 -15
v 6.5 6 16
v 6.5 6 15
v 6.5 6 -0
v 6.5 6 -2
v 6.5 6 -4
v 6.5 6 -5
v 6.5 6 -15
v 6.5 7 16
v 6.5 7 9
v 6.5 7 8
v 6.5 7 3
v 6.5 7 2
v 6.5 7 -4
v 6.5 7 -5
v 6.5 7 -6
v 6.5 7 -16
v 6.5 8 -4
v 6.5 8 -5
v 6.5 10 8
v 6.5 10 3
v 6.5 10 2
v 6.5 10 -5
v 6.5 11 9
v 6.5 11 -6
v 6.5 12 2
v 6.5 12 -1
v 6.5 13 2
v 6.5 13 -1
v 7.5 2 17
v 7.5 2 14
v 7.5 2 -15
v 7.5 2 -17
v 7.5 4 17
v 7.5 4 14
v 7.5 4 -15
v 7.5 4 -17
v 7.5 6 -4
v 7.5 6 -5
v 7.5 8 -4
v 7.5 8 -5
v -7.5 2 17
v -7.5 4 17
v 7.5 2 17
v 7.5 4 17
v -6.5 4 16
v -6.5 5 16
v -6.5 6 16
v -6.5 7 16
v -3.5 5 16
v -3.5 6 16
v -2.5 4 16
v -2.5 6 16
v 2.5 4 16
v 2.5 6 16
v 3.5 5 16
v 3.5 6 16
v 6.5 4 16
v 6.5 5 16
v 6.5 6 16
v 6.5 7 16
v -6.5 1 14
v -6.5 2 14
v -5.5 1 14
v -5.5 2 14
v 5.5 1 14
v 5.5 2 14
v 6.5 1 14
v 6.5 2 14
v -5.5 1 12
v -5.5 2 12
v 5.5 1 12
v 5.5 2 12
v -6.5 0 11
v -6.5 1 11
v -5.5 0 11
v -5.5 1 11
v 5.5 0 11
v 5.5 1 11
v 6.5 0 11
v 6.5 1 11
v -6.5 7 9
v -6.5 11 9
v -5.5 7 9
v -5.5 10 9
v 5.5 7 9
v 5.5 10 9
v 6.5 7 9
v 6.5 11 9
v -6.5 12 2
v -6.5 13 2
v -5.5 11 2
v -5.5 12 2
v -4.5 11 2
v -4.5 12 2
v -2.5 12 2
v -2.5 13 2
v 2.5 12 2
v 2.5 13 2
v 4.5 11 2
v 4.5 12 2
v 5.5 11 2
v 5.5 12 2
v 6.5 12 2
v 6.5 13 2
v -4.5 4 -3
v -4.5 7 -3
v 4.5 4 -3
v 4.5 7 -3
v -7.5 6 -4
v -7.5 8 -4
v -6.5 6 -4
v -6.5 7 -4
v -6.5 8 -4
v 6.5 6 -4
v 6.5 7 -4
v 6.5 8 -4
v 7.5 6 -4
v 7.5 8 -4
v -6.5 0 -9
v -6.5 1 -9
v -5.5 0 -9
v -5.5 1 -9
v 5.5 0 -9
v 5.5 1 -9
v 6.5 0 -9
v 6.5 1 -9
v -7.5 2 -15
v -7.5 4 -15
v -6.5 2 -15
v -6.5 4 -15
v 6.5 2 -15
v 6.5 4 -15
v 7.5 2 -15
v 7.5 4 -15
v -7.5 2 14
v -7.5 4 14
v -6.5 2 14
v -6.5 4 14
v 6.5 2 14
v 6.5 4 14
v 7.5 2 14
v 7.5 4 14
v -6.5 0 8
v -6.5 1 8
v -5.5 0 8
v -5.5 1 8
v 5.5 0 8
v 5.5 1 8
v 6.5 0 8
v 6.5 1 8
v -4.5 4 5
v -4.5 7 5
v -2.5 4 5
v -2.5 7 5
v 2.5 4 5
v 2.5 7 5
v 4.5 4 5
v 4.5 7 5
v -6.5 12 -1
v -6.5 13 -1
v -5.5 11 -1
v -5.5 12 -1
v -4.5 11 -1
v -4.5 12 -1
v -2.5 12 -1
v -2.5 13 -1
v 2.5 12 -1
v 2.5 13 -1
v 4.5 11 -1
v 4.5 12 -1
v 5.5 11 -1
v 5.5 12 -1
v 6.5 12 -1
v 6.5 13 -1
v -7.5 6 -5
v -7.5 8 -5
v -6.5 6 -5
v -6.5 7 -5
v -6.5 8 -5
v 6.5 6 -5
v 6.5 7 -5
v 6.5 8 -5
v 7.5 6 -5
v 7.5 8 -5
v -6.5 7 -6
v -6.5 11 -6
v -5.5 7 -6
v -5.5 10 -6
v 5.5 7 -6
v 5.5 10 -6
v 6.5 7 -6
v 6.5 11 -6
v -6.5 0 -12
v -6.5 1 -12
v -5.5 0 -12
v -5.5 1 -12
v 5.5 0 -12
v 5.5 1 -12
v 6.5 0 -12
v 6.5 1 -12
v -6.5 1 -15
v -6.5 2 -15
v -4.5 1 -15
v -4.5 2 -15
v 4.5 1 -15
v 4.5 2 -15
v 6.5 1 -15
v 6.5 2 -15
v -6.5 4 -16
v -6.5 7 -16
v -5.5 5 -16
v -5.5 6 -16
v -2.5 5 -16
v -2.5 6 -16
v -1.5 4 -16
v -1.5 5 -16
v 1.5 4 -16
v 1.5 5 -16
v 2.5 5 -16
v 2.5 6 -16
v 5.5 5 -16
v 5.5 6 -16
v 6.5 4 -16
v 6.5 7 -16
v -7.5 2 -17
v -7.5 4 -17
v 7.5 2 -17
v 7.5 4 -17
v -6.5 0 11
v -5.5 0 11
v 5.5 0 11
v 6.5 0 11
v -6.5 0 8
v -5.5 0 8
v 5.5 0 8
v 6.5 0 8
v -6.5 0 -9
v -5.5 0 -9
v 5.5 0 -9
v 6.5 0 -9
v -6.5 0 -12
v -5.5 0 -12
v 5.5 0 -12
v 6.5 0 -12
v -6.5 1 14
v -5.5 1 14
v 5.5 1 14
v 6.5 1 14
v -6.5 1 12
v -5.5 1 12
v 5.5 1 12
v 6.5 1 12
v -6.5 1 11
v -5.5 1 11
v 5.5 1 11
v 6.5 1 11
v -6.5 1 8
v -5.5 1 8
v 5.5 1 8
v 6.5 1 8
v -6.5 1 7
v -5.5 1 7
v 5.5 1 7
v 6.5 1 7
v -6.5 1 -8
v -5.5 1 -8
v 5.5 1 -8
v 6.5 1 -8
v -6.5 1 -9
v -5.5 1 -9
v 5.5 1 -9
v 6.5 1 -9
v -6.5 1 -12
v -5.5 1 -12
v 5.5 1 -12
v 6.5 1 -12
v -6.5 1 -13
v -5.5 1 -13
v -4.5 1 -13
v 4.5 1 -13
v 5.5 1 -13
v 6.5 1 -13
v -4.5 1 -14
v 4.5 1 -14
v -6.5 1 -15
v -4.5 1 -15
v 4.5 1 -15
v 6.5 1 -15
v -7.5 2 17
v 7.5 2 17
v -7.5 2 14
v -6.5 2 14
v -5.5 2 14
v 5.5 2 14
v 6.5 2 14
v 7.5 2 14
v -5.5 2 12
v 5.5 2 12
v -7.5 2 -15
v -6.5 2 -15
v -4.5 2 -15
v 4.5 2 -15
v 6.5 2 -15
v 7.5 2 -15
v -6.5 2 -16
v 6.5 2 -16
v -7.5 2 -17
v 7.5 2 -17
v -7.5 6 -4
v -6.5 6 -4
v 6.5 6 -4
v 7.5 6 -4
v -7.5 6 -5
v -6.5 6 -5
v 6.5 6 -5
v 7.5 6 -5
v -4.5 7 5
v -2.5 7 5
v 2.5 7 5
v 4.5 7 5
v -4.5 7 4
v 4.5 7 4
v -4.5 7 -3
v 4.5 7 -3
v -6.5 12 2
v -5.5 12 2
v -4.5 12 2
v -2.5 12 2
v 2.5 12 2
v 4.5 12 2
v 5.5 12 2
v 6.5 12 2
v -6.5 12 -1
v -5.5 12 -1
v -4.5 12 -1
v -2.5 12 -1
v 2.5 12 -1
v 4.5 12 -1
v 5.5 12 -1
v 6.5 12 -1
v -7.5 4 17
v 7.5 4 17
v -6.5 4 16
v -2.5 4 16
v 2.5 4 16
v 6.5 4 16
v -7.5 4 14
v -6.5 4 14
v 6.5 4 14
v 7.5 4 14
v -4.5 4 5
v -2.5 4 5
v 2.5 4 5
v 4.5 4 5
v -4.5 4 -3
v 4.5 4 -3
v -7.5 4 -15
v -6.5 4 -15
v 6.5 4 -15
v 7.5 4 -15
v -6.5 4 -16
v -1.5 4 -16
v 1.5 4 -16
v 6.5 4 -16
v -7.5 4 -17
v 7.5 4 -17
v -6.5 7 16
v 6.5 7 16
v -6.5 7 9
v -5.5 7 9
v 5.5 7 9
v 6.5 7 9
v -6.5 7 -6
v -5.5 7 -6
v 5.5 7 -6
v 6.5 7 -6
v -6.5 7 -16
v 6.5 7 -16
v -7.5 8 -4
v -6.5 8 -4
v 6.5 8 -4
v 7.5 8 -4
v -7.5 8 -5
v -6.5 8 -5
v 6.5 8 -5
v 7.5 8 -5
v -6.5 11 9
v 6.5 11 9
v -5.5 11 2
v -4.5 11 2
v 4.5 11 2
v 5.5 11 2
v -5.5 11 -1
v -4.5 11 -1
v 4.5 11 -1
v 5.5 11 -1
v -6.5 11 -6
v 6.5 11 -6
v -6.5 13 2
v -2.5 13 2
v 2.5 13 2
v 6.5 13 2
v -6.5 13 -1
v -2.5 13 -1
v 2.5 13 -1
v 6.5 13 -1

# faces
f 5/9/1 2/9/1 1/9/1
f 6/9/1 2/9/1 5/9/1
f 7/9/1 4/9/1 3/9/1
f 8/9/1 4/9/1 7/9/1
f 11/5/1 10/5/1 9/5/1
f 12/5/1 10/5/1 11/5/1
f 19/10/1 14/10/1 13/10/1
f 20/10/1 14/10/1 19/10/1
f 23/10/1 16/10/1 15/10/1
f 24/10/1 16/10/1 23/10/1
f 27/2/1 18/2/1 17/2/1
f 28/2/1 22/2/1 21/2/1
f 29/2/1 22/2/1 28/2/1
f 30/2/1 26/2/1 25/2/1
f 31/2/1 28/2/1 21/2/1
f 32/1/1 29/1/1 28/1/1
f 32/2/1 28/2/1 31/2/1
f 33/2/1 22/2/1 29/2/1
f 33/1/1 29/1/1 32/1/1
f 34/2/1 22/2/1 33/2/1
f 36/2/1 18/2/1 27/2/1
f 37/10/1 19/10/1 18/10/1
f 37/2/1 18/2/1 36/2/1
f 38/8/1 20/8/1 19/8/1
f 38/10/1 19/10/1 37/10/1
f 39/10/1 21/10/1 20/10/1
f 39/8/1 20/8/1 38/8/1
f 40/2/1 31/2/1 21/2/1
f 40/10/1 21/10/1 39/10/1
f 41/2/1 22/2/1 34/2/1
f 41/10/1 23/10/1 22/10/1
f 42/8/1 24/8/1 23/8/1
f 42/10/1 23/10/1 41/10/1
f 43/10/1 25/10/1 24/10/1
f 43/8/1 24/8/1 42/8/1
f 44/2/1 30/2/1 25/2/1
f 44/10/1 25/10/1 43/10/1
f 45/2/1 30/2/1 44/2/1
f 47/2/1 36/2/1 35/2/1
f 47/2/1 37/2/1 36/2/1
f 47/2/1 38/2/1 37/2/1
f 48/2/1 38/2/1 47/2/1
f 49/2/1 38/2/1 48/2/1
f 50/10/1 39/10/1 38/10/1
f 50/2/1 38/2/1 49/2/1
f 51/2/1 40/2/1 39/2/1
f 51/10/1 39/10/1 50/10/1
f 52/1/1 32/1/1 31/1/1
f 52/2/1 40/2/1 51/2/1
f 52/2/1 31/2/1 40/2/1
f 52/1/1 33/1/1 32/1/1
f 52/1/1 34/1/1 33/1/1
f 53/1/1 34/1/1 52/1/1
f 54/1/1 34/1/1 53/1/1
f 55/2/1 41/2/1 34/2/1
f 55/1/1 34/1/1 54/1/1
f 55/2/1 42/2/1 41/2/1
f 56/10/1 43/10/1 42/10/1
f 56/2/1 42/2/1 55/2/1
f 57/2/1 46/2/1 45/2/1
f 57/10/1 43/10/1 56/10/1
f 57/2/1 44/2/1 43/2/1
f 57/2/1 45/2/1 44/2/1
f 58/2/1 46/2/1 57/2/1
f 59/4/1 48/4/1 47/4/1
f 60/2/1 49/2/1 48/2/1
f 60/4/1 48/4/1 59/4/1
f 61/5/1 51/5/1 50/5/1
f 61/2/1 49/2/1 60/2/1
f 61/5/1 52/5/1 51/5/1
f 61/5/1 50/5/1 49/5/1
f 61/5/1 53/5/1 52/5/1
f 62/1/1 54/1/1 53/1/1
f 62/5/1 53/5/1 61/5/1
f 63/5/1 56/5/1 55/5/1
f 63/1/1 54/1/1 62/1/1
f 63/5/1 58/5/1 57/5/1
f 63/5/1 57/5/1 56/5/1
f 63/5/1 55/5/1 54/5/1
f 64/5/1 58/5/1 63/5/1
f 65/5/1 58/5/1 64/5/1
f 66/2/1 46/2/1 58/2/1
f 66/5/1 58/5/1 65/5/1
f 67/2/1 60/2/1 59/2/1
f 67/2/1 62/2/1 61/2/1
f 67/2/1 64/2/1 63/2/1
f 67/2/1 63/2/1 62/2/1
f 67/2/1 61/2/1 60/2/1
f 68/2/1 64/2/1 67/2/1
f 69/2/1 64/2/1 68/2/1
f 70/2/1 64/2/1 69/2/1
f 71/2/1 64/2/1 70/2/1
f 72/2/1 64/2/1 71/2/1
f 73/2/1 66/2/1 65/2/1
f 74/2/1 66/2/1 73/2/1
f 75/2/1 46/2/1 66/2/1
f 75/2/1 66/2/1 74/2/1
f 76/11/1 72/11/1 71/11/1
f 77/5/1 74/5/1 73/5/1
f 78/5/1 69/5/1 68/5/1
f 78/11/1 70/11/1 69/11/1
f 79/5/1 71/5/1 70/5/1
f 79/11/1 70/11/1 78/11/1
f 80/11/1 76/11/1 71/11/1
f 80/5/1 71/5/1 79/5/1
f 80/11/1 77/11/1 76/11/1
f 81/5/1 74/5/1 77/5/1
f 81/11/1 77/11/1 80/11/1
f 82/5/1 79/5/1 78/5/1
f 82/5/1 80/5/1 79/5/1
f 82/5/1 81/5/1 80/5/1
f 82/5/1 78/5/1 68/5/1
f 83/5/1 74/5/1 81/5/1
f 83/5/1 81/5/1 82/5/1
f 86/3/1 85/3/1 84/3/1
f 87/3/1 85/3/1 86/3/1
f 90/6/1 89/6/1 88/6/1
f 91/6/1 89/6/1 90/6/1
f 94/2/1 93/2/1 92/2/1
f 95/2/1 93/2/1 94/2/1
f 96/2/1 93/2/1 95/2/1
f 99/6/1 98/6/1 97/6/1
f 100/6/1 98/6/1 99/6/1
f 107/10/1 102/10/1 101/10/1
f 108/10/1 102/10/1 107/10/1
f 109/10/1 104/10/1 103/10/1
f 110/10/1 104/10/1 109/10/1
f 111/2/1 106/2/1 105/2/1
f 112/2/1 106/2/1 111/2/1
f 113/10/2 114/10/2 119/10/2
f 119/10/2 114/10/2 120/10/2
f 115/10/2 116/10/2 121/10/2
f 121/10/2 116/10/2 122/10/2
f 117/2/2 118/2/2 123/2/2
f 123/2/2 118/2/2 124/2/2
f 125/2/2 126/2/2 127/2/2
f 127/2/2 126/2/2 128/2/2
f 128/2/2 126/2/2 129/2/2
f 130/6/2 131/6/2 132/6/2
f 132/6/2 131/6/2 133/6/2
f 134/6/2 135/6/2 136/6/2
f 136/6/2 135/6/2 137/6/2
f 138/10/2 139/10/2 144/10/2
f 144/10/2 139/10/2 145/10/2
f 140/10/2 141/10/2 148/10/2
f 148/10/2 141/10/2 149/10/2
f 142/2/2 143/2/2 152/2/2
f 146/2/2 147/2/2 153/2/2
f 153/2/2 147/2/2 154/2/2
f 150/2/2 151/2/2 155/2/2
f 146/2/2 153/2/2 156/2/2
f 153/1/2 154/1/2 157/1/2
f 156/2/2 153/2/2 157/2/2
f 154/2/2 147/2/2 158/2/2
f 157/1/2 154/1/2 158/1/2
f 158/2/2 147/2/2 159/2/2
f 152/2/2 143/2/2 161/2/2
f 143/10/2 144/10/2 162/10/2
f 161/2/2 143/2/2 162/2/2
f 144/8/2 145/8/2 163/8/2
f 162/10/2 144/10/2 163/10/2
f 145/10/2 146/10/2 164/10/2
f 163/8/2 145/8/2 164/8/2
f 146/2/2 156/2/2 165/2/2
f 164/10/2 146/10/2 165/10/2
f 159/2/2 147/2/2 166/2/2
f 147/10/2 148/10/2 166/10/2
f 148/8/2 149/8/2 167/8/2
f 166/10/2 148/10/2 167/10/2
f 149/10/2 150/10/2 168/10/2
f 167/8/2 149/8/2 168/8/2
f 150/2/2 155/2/2 169/2/2
f 168/10/2 150/10/2 169/10/2
f 169/2/2 155/2/2 170/2/2
f 160/2/2 161/2/2 172/2/2
f 161/2/2 162/2/2 172/2/2
f 162/2/2 163/2/2 172/2/2
f 172/2/2 163/2/2 173/2/2
f 163/10/2 164/10/2 174/10/2
f 173/2/2 163/2/2 174/2/2
f 164/2/2 165/2/2 175/2/2
f 174/10/2 164/10/2 175/10/2
f 156/1/2 157/1/2 176/1/2
f 175/2/2 165/2/2 176/2/2
f 165/2/2 156/2/2 176/2/2
f 157/1/2 158/1/2 176/1/2
f 158/1/2 159/1/2 176/1/2
f 176/1/2 159/1/2 177/1/2
f 177/1/2 159/1/2 178/1/2
f 159/2/2 166/2/2 179/2/2
f 178/1/2 159/1/2 179/1/2
f 166/2/2 167/2/2 179/2/2
f 167/10/2 168/10/2 180/10/2
f 179/2/2 167/2/2 180/2/2
f 170/2/2 171/2/2 181/2/2
f 180/10/2 168/10/2 181/10/2
f 168/2/2 169/2/2 181/2/2
f 169/2/2 170/2/2 181/2/2
f 181/2/2 171/2/2 182/2/2
f 172/4/2 173/4/2 183/4/2
f 174/5/2 175/5/2 184/5/2
f 183/4/2 173/4/2 184/4/2
f 175/5/2 176/5/2 184/5/2
f 173/5/2 174/5/2 184/5/2
f 176/5/2 177/5/2 184/5/2
f 177/1/2 178/1/2 185/1/2
f 184/5/2 177/5/2 185/5/2
f 179/5/2 180/5/2 186/5/2
f 185/1/2 178/1/2 186/1/2
f 181/5/2 182/5/2 186/5/2
f 178/5/2 179/5/2 186/5/2
f 180/5/2 181/5/2 186/5/2
f 186/5/2 182/5/2 187/5/2
f 187/5/2 182/5/2 188/5/2
f 182/2/2 171/2/2 189/2/2
f 188/5/2 182/5/2 189/5/2
f 184/2/2 185/2/2 190/2/2
f 183/2/2 184/2/2 190/2/2
f 186/2/2 187/2/2 190/2/2
f 185/2/2 186/2/2 190/2/2
f 190/2/2 187/2/2 191/2/2
f 191/2/2 187/2/2 192/2/2
f 192/2/2 187/2/2 193/2/2
f 193/2/2 187/2/2 194/2/2
f 194/2/2 187/2/2 195/2/2
f 188/2/2 189/2/2 196/2/2
f 196/2/2 189/2/2 197/2/2
f 189/2/2 171/2/2 198/2/2
f 197/2/2 189/2/2 198/2/2
f 194/11/2 195/11/2 199/11/2
f 196/5/2 197/5/2 200/5/2
f 191/5/2 192/5/2 201/5/2
f 192/11/2 193/11/2 201/11/2
f 193/5/2 194/5/2 202/5/2
f 201/11/2 193/11/2 202/11/2
f 194/11/2 199/11/2 203/11/2
f 202/5/2 194/5/2 203/5/2
f 199/11/2 200/11/2 203/11/2
f 200/5/2 197/5/2 204/5/2
f 203/11/2 200/11/2 204/11/2
f 201/5/2 202/5/2 205/5/2
f 202/5/2 203/5/2 205/5/2
f 203/5/2 204/5/2 205/5/2
f 191/5/2 201/5/2 205/5/2
f 204/5/2 197/5/2 206/5/2
f 205/5/2 204/5/2 206/5/2
f 207/4/2 208/4/2 209/4/2
f 209/4/2 208/4/2 210/4/2
f 211/9/2 212/9/2 215/9/2
f 215/9/2 212/9/2 216/9/2
f 213/9/2 214/9/2 217/9/2
f 217/9/2 214/9/2 218/9/2
f 219/5/2 220/5/2 221/5/2
f 221/5/2 220/5/2 222/5/2
f 225/9/3 224/9/3 223/9/3
f 226/9/3 224/9/3 225/9/3
f 231/2/3 228/2/3 227/2/3
f 231/4/3 229/4/3 228/4/3
f 232/2/3 230/2/3 229/2/3
f 232/4/3 229/4/3 231/4/3
f 233/2/3 231/2/3 227/2/3
f 233/2/3 232/2/3 231/2/3
f 234/2/3 230/2/3 232/2/3
f 234/2/3 232/2/3 233/2/3
f 235/6/3 234/6/3 233/6/3
f 236/2/3 230/2/3 234/2/3
f 236/6/3 234/6/3 235/6/3
f 237/2/3 236/2/3 235/2/3
f 238/2/3 230/2/3 236/2/3
f 238/2/3 236/2/3 237/2/3
f 239/2/3 237/2/3 235/2/3
f 240/4/3 238/4/3 237/4/3
f 240/2/3 237/2/3 239/2/3
f 241/2/3 230/2/3 238/2/3
f 241/4/3 238/4/3 240/4/3
f 242/2/3 230/2/3 241/2/3
f 245/2/3 244/2/3 243/2/3
f 246/2/3 244/2/3 245/2/3
f 249/2/3 248/2/3 247/2/3
f 250/2/3 248/2/3 249/2/3
f 253/6/3 252/6/3 251/6/3
f 254/6/3 252/6/3 253/6/3
f 257/10/3 256/10/3 255/10/3
f 258/10/3 256/10/3 257/10/3
f 261/10/3 260/10/3 259/10/3
f 262/10/3 260/10/3 261/10/3
f 265/5/3 264/5/3 263/5/3
f 266/5/3 264/5/3 265/5/3
f 267/11/3 266/11/3 265/11/3
f 268/5/3 264/5/3 266/5/3
f 268/11/3 266/11/3 267/11/3
f 269/5/3 268/5/3 267/5/3
f 270/5/3 264/5/3 268/5/3
f 270/5/3 268/5/3 269/5/3
f 274/3/3 272/3/3 271/3/3
f 275/6/3 274/6/3 273/6/3
f 276/3/3 272/3/3 274/3/3
f 276/6/3 274/6/3 275/6/3
f 277/3/3 272/3/3 276/3/3
f 278/3/3 272/3/3 277/3/3
f 279/7/3 278/7/3 277/7/3
f 280/7/3 278/7/3 279/7/3
f 282/4/3 280/4/3 279/4/3
f 283/6/3 282/6/3 281/6/3
f 284/4/3 280/4/3 282/4/3
f 284/6/3 282/6/3 283/6/3
f 285/4/3 280/4/3 284/4/3
f 286/4/3 280/4/3 285/4/3
f 289/5/3 288/5/3 287/5/3
f 290/5/3 288/5/3 289/5/3
f 293/5/3 292/5/3 291/5/3
f 294/5/3 292/5/3 293/5/3
f 295/5/3 292/5/3 294/5/3
f 299/5/3 297/5/3 296/5/3
f 299/5/3 298/5/3 297/5/3
f 300/5/3 298/5/3 299/5/3
f 303/10/3 302/10/3 301/10/3
f 304/10/3 302/10/3 303/10/3
f 307/10/3 306/10/3 305/10/3
f 308/10/3 306/10/3 307/10/3
f 311/9/3 310/9/3 309/9/3
f 312/9/3 310/9/3 311/9/3
f 315/9/3 314/9/3 313/9/3
f 316/9/3 314/9/3 315/9/3
f 317/9/4 318/9/4 319/9/4
f 319/9/4 318/9/4 320/9/4
f 321/9/4 322/9/4 323/9/4
f 323/9/4 322/9/4 324/9/4
f 325/10/4 326/10/4 327/10/4
f 327/10/4 326/10/4 328/10/4
f 329/10/4 330/10/4 331/10/4
f 331/10/4 330/10/4 332/10/4
f 333/5/4 334/5/4 335/5/4
f 335/5/4 334/5/4 336/5/4
f 335/2/4 336/2/4 337/2/4
f 337/2/4 336/2/4 338/2/4
f 337/5/4 338/5/4 339/5/4
f 339/5/4 338/5/4 340/5/4
f 341/3/4 342/3/4 344/3/4
f 343/6/4 344/6/4 345/6/4
f 344/3/4 342/3/4 346/3/4
f 345/6/4 344/6/4 346/6/4
f 346/3/4 342/3/4 347/3/4
f 347/3/4 342/3/4 348/3/4
f 347/7/4 348/7/4 349/7/4
f 349/7/4 348/7/4 350/7/4
f 349/4/4 350/4/4 352/4/4
f 351/6/4 352/6/4 353/6/4
f 352/4/4 350/4/4 354/4/4
f 353/6/4 352/6/4 354/6/4
f 354/4/4 350/4/4 355/4/4
f 355/4/4 350/4/4 356/4/4
f 357/5/4 358/5/4 359/5/4
f 359/5/4 358/5/4 360/5/4
f 360/5/4 358/5/4 361/5/4
f 362/5/4 363/5/4 365/5/4
f 363/5/4 364/5/4 365/5/4
f 365/5/4 364/5/4 366/5/4
f 367/5/4 368/5/4 369/5/4
f 369/5/4 368/5/4 370/5/4
f 369/11/4 370/11/4 371/11/4
f 370/5/4 368/5/4 372/5/4
f 371/11/4 370/11/4 372/11/4
f 371/5/4 372/5/4 373/5/4
f 372/5/4 368/5/4 374/5/4
f 373/5/4 372/5/4 374/5/4
f 375/10/4 376/10/4 377/10/4
f 377/10/4 376/10/4 378/10/4
f 379/10/4 380/10/4 381/10/4
f 381/10/4 380/10/4 382/10/4
f 383/2/4 384/2/4 385/2/4
f 385/2/4 384/2/4 386/2/4
f 385/6/4 386/6/4 387/6/4
f 387/6/4 386/6/4 388/6/4
f 387/2/4 388/2/4 389/2/4
f 389/2/4 388/2/4 390/2/4
f 391/2/4 392/2/4 393/2/4
f 393/2/4 392/2/4 394/2/4
f 391/2/4 393/2/4 395/2/4
f 393/5/4 394/5/4 395/5/4
f 394/2/4 392/2/4 396/2/4
f 395/5/4 394/5/4 396/5/4
f 391/2/4 395/2/4 397/2/4
f 395/2/4 396/2/4 397/2/4
f 397/2/4 396/2/4 398/2/4
f 397/10/4 398/10/4 399/10/4
f 398/2/4 396/2/4 400/2/4
f 399/10/4 398/10/4 400/10/4
f 399/2/4 400/2/4 401/2/4
f 400/2/4 396/2/4 401/2/4
f 396/2/4 392/2/4 402/2/4
f 401/2/4 396/2/4 402/2/4
f 399/2/4 401/2/4 403/2/4
f 401/5/4 402/5/4 403/5/4
f 402/2/4 392/2/4 404/2/4
f 403/5/4 402/5/4 404/5/4
f 399/2/4 403/2/4 405/2/4
f 403/2/4 404/2/4 405/2/4
f 404/2/4 392/2/4 406/2/4
f 405/2/4 404/2/4 406/2/4
f 407/9/4 408/9/4 409/9/4
f 409/9/4 408/9/4 410/9/4
f 415/10/5 412/10/5 411/10/5
f 416/10/5 412/10/5 415/10/5
f 417/10/5 414/10/5 413/10/5
f 418/10/5 414/10/5 417/10/5
f 423/10/5 420/10/5 419/10/5
f 424/10/5 420/10/5 423/10/5
f 425/10/5 422/10/5 421/10/5
f 426/10/5 422/10/5 425/10/5
f 431/2/5 428/2/5 427/2/5
f 432/2/5 428/2/5 431/2/5
f 433/2/5 430/2/5 429/2/5
f 434/2/5 430/2/5 433/2/5
f 435/10/5 432/10/5 431/10/5
f 436/6/5 433/6/5 432/6/5
f 436/10/5 432/10/5 435/10/5
f 437/10/5 434/10/5 433/10/5
f 437/6/5 433/6/5 436/6/5
f 438/10/5 434/10/5 437/10/5
f 440/5/5 437/5/5 436/5/5
f 441/5/5 437/5/5 440/5/5
f 443/10/5 440/10/5 439/10/5
f 444/5/5 441/5/5 440/5/5
f 444/10/5 440/10/5 443/10/5
f 445/10/5 442/10/5 441/10/5
f 445/5/5 441/5/5 444/5/5
f 446/10/5 442/10/5 445/10/5
f 447/2/5 444/2/5 443/2/5
f 448/5/5 445/5/5 444/5/5
f 448/2/5 444/2/5 447/2/5
f 449/2/5 446/2/5 445/2/5
f 449/5/5 445/5/5 448/5/5
f 450/2/5 446/2/5 449/2/5
f 451/10/5 448/10/5 447/10/5
f 452/5/5 449/5/5 448/5/5
f 452/10/5 448/10/5 451/10/5
f 453/10/5 450/10/5 449/10/5
f 453/5/5 449/5/5 452/5/5
f 454/10/5 450/10/5 453/10/5
f 456/5/5 453/5/5 452/5/5
f 457/5/5 453/5/5 456/5/5
f 459/10/5 456/10/5 455/10/5
f 460/5/5 457/5/5 456/5/5
f 460/10/5 456/10/5 459/10/5
f 461/5/5 457/5/5 460/5/5
f 462/5/5 457/5/5 461/5/5
f 463/10/5 458/10/5 457/10/5
f 463/5/5 457/5/5 462/5/5
f 464/10/5 458/10/5 463/10/5
f 465/5/5 462/5/5 461/5/5
f 465/2/5 460/2/5 459/2/5
f 465/2/5 461/2/5 460/2/5
f 466/2/5 464/2/5 463/2/5
f 466/5/5 462/5/5 465/5/5
f 466/2/5 463/2/5 462/2/5
f 467/2/5 465/2/5 459/2/5
f 468/6/5 466/6/5 465/6/5
f 468/2/5 465/2/5 467/2/5
f 469/2/5 464/2/5 466/2/5
f 469/6/5 466/6/5 468/6/5
f 470/2/5 464/2/5 469/2/5
f 473/9/5 472/9/5 471/9/5
f 474/9/5 472/9/5 473/9/5
f 475/9/5 472/9/5 474/9/5
f 476/9/5 472/9/5 475/9/5
f 477/9/5 472/9/5 476/9/5
f 478/9/5 472/9/5 477/9/5
f 479/6/5 476/6/5 475/6/5
f 480/6/5 476/6/5 479/6/5
f 487/6/5 484/6/5 483/6/5
f 487/9/5 482/9/5 481/9/5
f 487/6/5 485/6/5 484/6/5
f 487/6/5 483/6/5 482/6/5
f 488/9/5 486/9/5 485/9/5
f 488/6/5 485/6/5 487/6/5
f 489/9/5 487/9/5 481/9/5
f 489/9/5 488/9/5 487/9/5
f 490/9/5 486/9/5 488/9/5
f 490/9/5 488/9/5 489/9/5
f 495/5/5 492/5/5 491/5/5
f 496/5/5 492/5/5 495/5/5
f 497/5/5 494/5/5 493/5/5
f 498/5/5 494/5/5 497/5/5
f 503/11/5 500/11/5 499/11/5
f 503/11/5 502/11/5 501/11/5
f 503/11/5 501/11/5 500/11/5
f 504/11/5 502/11/5 503/11/5
f 505/2/5 504/2/5 503/2/5
f 506/2/5 504/2/5 505/2/5
f 515/3/5 508/3/5 507/3/5
f 516/3/5 508/3/5 515/3/5
f 517/3/5 510/3/5 509/3/5
f 518/7/5 511/7/5 510/7/5
f 518/3/5 510/3/5 517/3/5
f 519/4/5 512/4/5 511/4/5
f 519/7/5 511/7/5 518/7/5
f 520/4/5 512/4/5 519/4/5
f 521/4/5 514/4/5 513/4/5
f 522/4/5 514/4/5 521/4/5
f 523/9/6 524/9/6 525/9/6
f 525/9/6 524/9/6 526/9/6
f 526/9/6 524/9/6 527/9/6
f 527/9/6 524/9/6 528/9/6
f 523/9/6 525/9/6 529/9/6
f 529/9/6 525/9/6 530/9/6
f 528/9/6 524/9/6 531/9/6
f 531/9/6 524/9/6 532/9/6
f 533/5/6 534/5/6 537/5/6
f 535/5/6 536/5/6 537/5/6
f 534/5/6 535/5/6 537/5/6
f 537/5/6 536/5/6 538/5/6
f 539/9/6 540/9/6 543/9/6
f 541/9/6 542/9/6 546/9/6
f 544/9/6 545/9/6 547/9/6
f 545/9/6 546/9/6 547/9/6
f 539/9/6 543/9/6 547/9/6
f 543/9/6 544/9/6 547/9/6
f 546/9/6 542/9/6 548/9/6
f 547/9/6 546/9/6 548/9/6
f 549/2/6 550/2/6 551/2/6
f 551/2/6 550/2/6 552/2/6
f 552/2/6 550/2/6 553/2/6
f 553/2/6 550/2/6 554/2/6
f 555/2/6 556/2/6 559/2/6
f 557/2/6 558/2/6 559/2/6
f 556/2/6 557/2/6 559/2/6
f 559/2/6 558/2/6 560/2/6
f 561/5/6 562/5/6 565/5/6
f 565/5/6 562/5/6 566/5/6
f 563/5/6 564/5/6 567/5/6
f 567/5/6 564/5/6 568/5/6
f 569/5/6 570/5/6 571/5/6
f 571/5/6 570/5/6 572/5/6
f 572/5/6 570/5/6 573/5/6
f 573/5/6 570/5/6 574/5/6
f 569/5/6 571/5/6 575/5/6
f 572/5/6 573/5/6 576/5/6
f 576/5/6 573/5/6 577/5/6
f 574/5/6 570/5/6 578/5/6
f 576/5/6 577/5/6 579/5/6
f 577/5/6 578/5/6 579/5/6
f 569/5/6 575/5/6 579/5/6
f 575/5/6 576/5/6 579/5/6
f 578/5/6 570/5/6 580/5/6
f 579/5/6 578/5/6 580/5/6
f 581/3/6 582/3/6 585/3/6
f 582/7/6 583/7/6 586/7/6
f 585/3/6 582/3/6 586/3/6
f 583/4/6 584/4/6 587/4/6
f 586/7/6 583/7/6 587/7/6
f 587/4/6 584/4/6 588/4/6
