# MagicaVoxel @ Ephtracy

# material
mtllib veh_wagon2.mtl
usemtl palette

# normals
vn -1 0 0
vn 1 0 0
vn 0 0 1
vn 0 0 -1
vn 0 -1 0
vn 0 1 0

# texcoords
vt 0.150391 0.5
vt 0.841797 0.5
vt 0.896484 0.5
vt 0.904297 0.5
vt 0.958984 0.5
vt 0.966797 0.5
vt 0.970703 0.5
vt 0.974609 0.5
vt 0.978516 0.5
vt 0.986328 0.5
vt 0.990234 0.5

# verts
v -7.5 2 16
v -7.5 2 14
v -7.5 2 -14
v -7.5 2 -16
v -7.5 4 16
v -7.5 4 14
v -7.5 4 -14
v -7.5 4 -16
v -7.5 6 -2
v -7.5 6 -3
v -7.5 8 -2
v -7.5 8 -3
v -6.5 0 10
v -6.5 0 7
v -6.5 0 -8
v -6.5 0 -11
v -6.5 1 13
v -6.5 1 11
v -6.5 1 10
v -6.5 1 7
v -6.5 1 6
v -6.5 1 -7
v -6.5 1 -8
v -6.5 1 -11
v -6.5 1 -12
v -6.5 1 -14
v -6.5 2 14
v -6.5 2 13
v -6.5 2 6
v -6.5 2 -7
v -6.5 2 -14
v -6.5 3 14
v -6.5 3 11
v -6.5 3 -12
v -6.5 3 -14
v -6.5 4 15
v -6.5 4 14
v -6.5 4 11
v -6.5 4 10
v -6.5 4 7
v -6.5 4 6
v -6.5 4 -7
v -6.5 4 -8
v -6.5 4 -11
v -6.5 4 -12
v -6.5 4 -14
v -6.5 4 -15
v -6.5 5 15
v -6.5 5 14
v -6.5 5 10
v -6.5 5 7
v -6.5 5 5
v -6.5 5 3
v -6.5 5 -8
v -6.5 5 -11
v -6.5 6 5
v -6.5 6 3
v -6.5 6 -2
v -6.5 6 -3
v -6.5 7 15
v -6.5 7 14
v -6.5 7 13
v -6.5 7 12
v -6.5 7 8
v -6.5 7 6
v -6.5 7 -2
v -6.5 7 -3
v -6.5 7 -15
v -6.5 8 -2
v -6.5 8 -3
v -6.5 10 12
v -6.5 10 8
v -6.5 10 6
v -6.5 10 -2
v -6.5 11 13
v -6.5 11 -3
v -5.5 7 -14
v -5.5 7 -15
v -5.5 8 -14
v -5.5 8 -15
v 3.5 7 -14
v 3.5 7 -15
v 3.5 8 -14
v 3.5 8 -15
v 4.5 4 6
v 4.5 4 -2
v 4.5 7 6
v 4.5 7 -2
v 5.5 0 10
v 5.5 0 7
v 5.5 0 -8
v 5.5 0 -11
v 5.5 1 10
v 5.5 1 7
v 5.5 1 -8
v 5.5 1 -11
v -5.5 0 10
v -5.5 0 7
v -5.5 0 -8
v -5.5 0 -11
v -5.5 1 10
v -5.5 1 7
v -5.5 1 -8
v -5.5 1 -11
v -4.5 4 6
v -4.5 4 -2
v -4.5 7 6
v -4.5 7 -2
v -3.5 7 -14
v -3.5 7 -15
v -3.5 8 -14
v -3.5 8 -15
v 5.5 7 -14
v 5.5 7 -15
v 5.5 8 -14
v 5.5 8 -15
v 6.5 0 10
v 6.5 0 7
v 6.5 0 -8
v 6.5 0 -11
v 6.5 1 13
v 6.5 1 11
v 6.5 1 10
v 6.5 1 7
v 6.5 1 6
v 6.5 1 -7
v 6.5 1 -8
v 6.5 1 -11
v 6.5 1 -12
v 6.5 1 -14
v 6.5 2 14
v 6.5 2 13
v 6.5 2 6
v 6.5 2 -7
v 6.5 2 -14
v 6.5 3 14
v 6.5 3 11
v 6.5 3 -12
v 6.5 3 -14
v 6.5 4 15
v 6.5 4 14
v 6.5 4 11
v 6.5 4 10
v 6.5 4 7
v 6.5 4 6
v 6.5 4 -7
v 6.5 4 -8
v 6.5 4 -11
v 6.5 4 -12
v 6.5 4 -14
v 6.5 4 -15
v 6.5 5 15
v 6.5 5 14
v 6.5 5 10
v 6.5 5 7
v 6.5 5 5
v 6.5 5 3
v 6.5 5 -8
v 6.5 5 -11
v 6.5 6 5
v 6.5 6 3
v 6.5 6 -2
v 6.5 6 -3
v 6.5 7 15
v 6.5 7 14
v 6.5 7 13
v 6.5 7 12
v 6.5 7 8
v 6.5 7 6
v 6.5 7 -2
v 6.5 7 -3
v 6.5 7 -15
v 6.5 8 -2
v 6.5 8 -3
v 6.5 10 12
v 6.5 10 8
v 6.5 10 6
v 6.5 10 -2
v 6.5 11 13
v 6.5 11 -3
v 7.5 2 16
v 7.5 2 14
v 7.5 2 -14
v 7.5 2 -16
v 7.5 4 16
v 7.5 4 14
v 7.5 4 -14
v 7.5 4 -16
v 7.5 6 -2
v 7.5 6 -3
v 7.5 8 -2
v 7.5 8 -3
v -7.5 2 16
v -7.5 4 16
v 7.5 2 16
v 7.5 4 16
v -6.5 4 15
v -6.5 5 15
v -6.5 7 15
v -5.5 5 15
v -5.5 7 15
v -2.5 4 15
v -2.5 7 15
v 2.5 4 15
v 2.5 7 15
v 5.5 5 15
v 5.5 7 15
v 6.5 4 15
v 6.5 5 15
v 6.5 7 15
v -6.5 1 13
v -6.5 2 13
v -6.5 7 13
v -6.5 11 13
v -4.5 7 13
v -4.5 10 13
v -2.5 7 13
v 2.5 7 13
v 4.5 7 13
v 4.5 10 13
v 6.5 1 13
v 6.5 2 13
v 6.5 7 13
v 6.5 11 13
v -6.5 0 10
v -6.5 1 10
v -5.5 0 10
v -5.5 1 10
v 5.5 0 10
v 5.5 1 10
v 6.5 0 10
v 6.5 1 10
v -7.5 6 -2
v -7.5 8 -2
v -6.5 6 -2
v -6.5 7 -2
v -6.5 8 -2
v -4.5 4 -2
v -4.5 7 -2
v 4.5 4 -2
v 4.5 7 -2
v 6.5 6 -2
v 6.5 7 -2
v 6.5 8 -2
v 7.5 6 -2
v 7.5 8 -2
v -6.5 0 -8
v -6.5 1 -8
v -5.5 0 -8
v -5.5 1 -8
v 5.5 0 -8
v 5.5 1 -8
v 6.5 0 -8
v 6.5 1 -8
v -7.5 2 -14
v -7.5 4 -14
v -6.5 2 -14
v -6.5 3 -14
v -6.5 4 -14
v -5.5 7 -14
v -5.5 8 -14
v -3.5 7 -14
v -3.5 8 -14
v 3.5 7 -14
v 3.5 8 -14
v 5.5 7 -14
v 5.5 8 -14
v 6.5 2 -14
v 6.5 3 -14
v 6.5 4 -14
v 7.5 2 -14
v 7.5 4 -14
v -7.5 2 14
v -7.5 4 14
v -6.5 2 14
v -6.5 3 14
v -6.5 4 14
v 6.5 2 14
v 6.5 3 14
v 6.5 4 14
v 7.5 2 14
v 7.5 4 14
v -6.5 0 7
v -6.5 1 7
v -5.5 0 7
v -5.5 1 7
v 5.5 0 7
v 5.5 1 7
v 6.5 0 7
v 6.5 1 7
v -4.5 4 6
v -4.5 7 6
v -2.5 4 6
v -2.5 7 6
v 2.5 4 6
v 2.5 7 6
v 4.5 4 6
v 4.5 7 6
v -7.5 6 -3
v -7.5 8 -3
v -6.5 6 -3
v -6.5 7 -3
v -6.5 8 -3
v -6.5 11 -3
v -5.5 7 -3
v -5.5 10 -3
v -3.5 7 -3
v 3.5 7 -3
v 5.5 7 -3
v 5.5 10 -3
v 6.5 6 -3
v 6.5 7 -3
v 6.5 8 -3
v 6.5 11 -3
v 7.5 6 -3
v 7.5 8 -3
v -6.5 0 -11
v -6.5 1 -11
v -5.5 0 -11
v -5.5 1 -11
v 5.5 0 -11
v 5.5 1 -11
v 6.5 0 -11
v 6.5 1 -11
v -6.5 1 -14
v -6.5 2 -14
v 6.5 1 -14
v 6.5 2 -14
v -6.5 4 -15
v -6.5 7 -15
v -5.5 6 -15
v -5.5 7 -15
v -5.5 8 -15
v -3.5 4 -15
v -3.5 6 -15
v -3.5 7 -15
v -3.5 8 -15
v -1.5 4 -15
v -1.5 5 -15
v 1.5 4 -15
v 1.5 5 -15
v 3.5 4 -15
v 3.5 6 -15
v 3.5 7 -15
v 3.5 8 -15
v 5.5 6 -15
v 5.5 7 -15
v 5.5 8 -15
v 6.5 4 -15
v 6.5 7 -15
v -7.5 2 -16
v -7.5 4 -16
v 7.5 2 -16
v 7.5 4 -16
v -6.5 0 10
v -5.5 0 10
v 5.5 0 10
v 6.5 0 10
v -6.5 0 7
v -5.5 0 7
v 5.5 0 7
v 6.5 0 7
v -6.5 0 -8
v -5.5 0 -8
v 5.5 0 -8
v 6.5 0 -8
v -6.5 0 -11
v -5.5 0 -11
v 5.5 0 -11
v 6.5 0 -11
v -6.5 1 13
v 6.5 1 13
v -5.5 1 12
v 5.5 1 12
v -6.5 1 11
v -5.5 1 11
v 5.5 1 11
v 6.5 1 11
v -6.5 1 10
v -5.5 1 10
v 5.5 1 10
v 6.5 1 10
v -6.5 1 7
v -5.5 1 7
v 5.5 1 7
v 6.5 1 7
v -6.5 1 6
v -5.5 1 6
v 5.5 1 6
v 6.5 1 6
v -6.5 1 -7
v -5.5 1 -7
v 5.5 1 -7
v 6.5 1 -7
v -6.5 1 -8
v -5.5 1 -8
v 5.5 1 -8
v 6.5 1 -8
v -6.5 1 -11
v -5.5 1 -11
v 5.5 1 -11
v 6.5 1 -11
v -6.5 1 -12
v -5.5 1 -12
v 5.5 1 -12
v 6.5 1 -12
v -5.5 1 -13
v 5.5 1 -13
v -6.5 1 -14
v 6.5 1 -14
v -7.5 2 16
v 7.5 2 16
v -6.5 2 15
v 6.5 2 15
v -7.5 2 14
v -6.5 2 14
v 6.5 2 14
v 7.5 2 14
v -6.5 2 13
v 6.5 2 13
v -7.5 2 -14
v -6.5 2 -14
v 6.5 2 -14
v 7.5 2 -14
v -6.5 2 -15
v 6.5 2 -15
v -7.5 2 -16
v 7.5 2 -16
v -7.5 6 -2
v -6.5 6 -2
v 6.5 6 -2
v 7.5 6 -2
v -7.5 6 -3
v -6.5 6 -3
v 6.5 6 -3
v 7.5 6 -3
v -4.5 7 6
v -2.5 7 6
v 2.5 7 6
v 4.5 7 6
v -4.5 7 -2
v 4.5 7 -2
v -7.5 4 16
v 7.5 4 16
v -6.5 4 15
v -2.5 4 15
v 2.5 4 15
v 6.5 4 15
v -7.5 4 14
v -6.5 4 14
v 6.5 4 14
v 7.5 4 14
v -4.5 4 6
v -2.5 4 6
v 2.5 4 6
v 4.5 4 6
v -4.5 4 -2
v 4.5 4 -2
v -7.5 4 -14
v -6.5 4 -14
v 6.5 4 -14
v 7.5 4 -14
v -6.5 4 -15
v -3.5 4 -15
v -1.5 4 -15
v 1.5 4 -15
v 3.5 4 -15
v 6.5 4 -15
v -7.5 4 -16
v 7.5 4 -16
v -6.5 7 15
v -5.5 7 15
v -2.5 7 15
v 2.5 7 15
v 5.5 7 15
v 6.5 7 15
v -6.5 7 14
v -5.5 7 14
v 5.5 7 14
v 6.5 7 14
v -6.5 7 13
v -4.5 7 13
v -2.5 7 13
v 2.5 7 13
v 4.5 7 13
v 6.5 7 13
v -6.5 7 -3
v -5.5 7 -3
v -3.5 7 -3
v 3.5 7 -3
v 5.5 7 -3
v 6.5 7 -3
v -5.5 7 -14
v -3.5 7 -14
v 3.5 7 -14
v 5.5 7 -14
v -6.5 7 -15
v -5.5 7 -15
v -3.5 7 -15
v 3.5 7 -15
v 5.5 7 -15
v 6.5 7 -15
v -7.5 8 -2
v -6.5 8 -2
v 6.5 8 -2
v 7.5 8 -2
v -7.5 8 -3
v -6.5 8 -3
v 6.5 8 -3
v 7.5 8 -3
v -5.5 8 -14
v -3.5 8 -14
v 3.5 8 -14
v 5.5 8 -14
v -5.5 8 -15
v -3.5 8 -15
v 3.5 8 -15
v 5.5 8 -15
v -6.5 11 13
v 6.5 11 13
v -6.5 11 -3
v 6.5 11 -3

# faces
f 5/9/1 2/9/1 1/9/1
f 6/9/1 2/9/1 5/9/1
f 7/9/1 4/9/1 3/9/1
f 8/9/1 4/9/1 7/9/1
f 11/4/1 10/4/1 9/4/1
f 12/4/1 10/4/1 11/4/1
f 19/10/1 14/10/1 13/10/1
f 20/10/1 14/10/1 19/10/1
f 23/10/1 16/10/1 15/10/1
f 24/10/1 16/10/1 23/10/1
f 28/6/1 18/6/1 17/6/1
f 29/6/1 22/6/1 21/6/1
f 29/10/1 21/10/1 20/10/1
f 30/10/1 23/10/1 22/10/1
f 30/6/1 22/6/1 29/6/1
f 31/6/1 26/6/1 25/6/1
f 32/6/1 28/6/1 27/6/1
f 33/10/1 19/10/1 18/10/1
f 33/6/1 28/6/1 32/6/1
f 33/6/1 18/6/1 28/6/1
f 34/6/1 31/6/1 25/6/1
f 34/10/1 25/10/1 24/10/1
f 35/6/1 31/6/1 34/6/1
f 37/4/1 33/4/1 32/4/1
f 38/10/1 19/10/1 33/10/1
f 38/4/1 33/4/1 37/4/1
f 39/8/1 20/8/1 19/8/1
f 39/10/1 19/10/1 38/10/1
f 40/10/1 29/10/1 20/10/1
f 40/8/1 20/8/1 39/8/1
f 41/4/1 30/4/1 29/4/1
f 41/10/1 29/10/1 40/10/1
f 42/10/1 23/10/1 30/10/1
f 42/4/1 30/4/1 41/4/1
f 43/8/1 24/8/1 23/8/1
f 43/10/1 23/10/1 42/10/1
f 44/10/1 34/10/1 24/10/1
f 44/8/1 24/8/1 43/8/1
f 45/4/1 35/4/1 34/4/1
f 45/10/1 34/10/1 44/10/1
f 46/4/1 35/4/1 45/4/1
f 48/4/1 38/4/1 37/4/1
f 48/4/1 37/4/1 36/4/1
f 48/4/1 39/4/1 38/4/1
f 49/4/1 39/4/1 48/4/1
f 50/10/1 40/10/1 39/10/1
f 50/4/1 39/4/1 49/4/1
f 51/4/1 41/4/1 40/4/1
f 51/10/1 40/10/1 50/10/1
f 51/4/1 42/4/1 41/4/1
f 51/4/1 43/4/1 42/4/1
f 52/4/1 43/4/1 51/4/1
f 53/4/1 43/4/1 52/4/1
f 54/10/1 44/10/1 43/10/1
f 54/4/1 43/4/1 53/4/1
f 55/4/1 46/4/1 45/4/1
f 55/10/1 44/10/1 54/10/1
f 55/4/1 47/4/1 46/4/1
f 55/4/1 45/4/1 44/4/1
f 56/4/1 50/4/1 49/4/1
f 56/4/1 52/4/1 51/4/1
f 56/8/1 53/8/1 52/8/1
f 56/4/1 51/4/1 50/4/1
f 57/4/1 54/4/1 53/4/1
f 57/8/1 53/8/1 56/8/1
f 57/4/1 55/4/1 54/4/1
f 58/4/1 55/4/1 57/4/1
f 59/4/1 55/4/1 58/4/1
f 60/2/1 49/2/1 48/2/1
f 61/4/1 56/4/1 49/4/1
f 61/2/1 49/2/1 60/2/1
f 61/4/1 57/4/1 56/4/1
f 61/4/1 58/4/1 57/4/1
f 62/4/1 58/4/1 61/4/1
f 63/4/1 58/4/1 62/4/1
f 64/4/1 58/4/1 63/4/1
f 65/4/1 58/4/1 64/4/1
f 66/4/1 58/4/1 65/4/1
f 67/4/1 55/4/1 59/4/1
f 68/4/1 47/4/1 55/4/1
f 68/4/1 55/4/1 67/4/1
f 69/11/1 66/11/1 65/11/1
f 71/11/1 64/11/1 63/11/1
f 71/1/1 63/1/1 62/1/1
f 72/1/1 65/1/1 64/1/1
f 72/11/1 64/11/1 71/11/1
f 73/11/1 69/11/1 65/11/1
f 73/1/1 65/1/1 72/1/1
f 74/1/1 70/1/1 69/1/1
f 74/11/1 69/11/1 73/11/1
f 75/1/1 71/1/1 62/1/1
f 75/1/1 73/1/1 72/1/1
f 75/1/1 74/1/1 73/1/1
f 75/1/1 72/1/1 71/1/1
f 76/1/1 70/1/1 74/1/1
f 76/1/1 74/1/1 75/1/1
f 79/5/1 78/5/1 77/5/1
f 80/5/1 78/5/1 79/5/1
f 83/5/1 82/5/1 81/5/1
f 84/5/1 82/5/1 83/5/1
f 87/4/1 86/4/1 85/4/1
f 88/4/1 86/4/1 87/4/1
f 93/10/1 90/10/1 89/10/1
f 94/10/1 90/10/1 93/10/1
f 95/10/1 92/10/1 91/10/1
f 96/10/1 92/10/1 95/10/1
f 97/10/2 98/10/2 101/10/2
f 101/10/2 98/10/2 102/10/2
f 99/10/2 100/10/2 103/10/2
f 103/10/2 100/10/2 104/10/2
f 105/4/2 106/4/2 107/4/2
f 107/4/2 106/4/2 108/4/2
f 109/5/2 110/5/2 111/5/2
f 111/5/2 110/5/2 112/5/2
f 113/5/2 114/5/2 115/5/2
f 115/5/2 114/5/2 116/5/2
f 117/10/2 118/10/2 123/10/2
f 123/10/2 118/10/2 124/10/2
f 119/10/2 120/10/2 127/10/2
f 127/10/2 120/10/2 128/10/2
f 121/6/2 122/6/2 132/6/2
f 125/6/2 126/6/2 133/6/2
f 124/10/2 125/10/2 133/10/2
f 126/10/2 127/10/2 134/10/2
f 133/6/2 126/6/2 134/6/2
f 129/6/2 130/6/2 135/6/2
f 131/6/2 132/6/2 136/6/2
f 122/10/2 123/10/2 137/10/2
f 136/6/2 132/6/2 137/6/2
f 132/6/2 122/6/2 137/6/2
f 129/6/2 135/6/2 138/6/2
f 128/10/2 129/10/2 138/10/2
f 138/6/2 135/6/2 139/6/2
f 136/4/2 137/4/2 141/4/2
f 137/10/2 123/10/2 142/10/2
f 141/4/2 137/4/2 142/4/2
f 123/8/2 124/8/2 143/8/2
f 142/10/2 123/10/2 143/10/2
f 124/10/2 133/10/2 144/10/2
f 143/8/2 124/8/2 144/8/2
f 133/4/2 134/4/2 145/4/2
f 144/10/2 133/10/2 145/10/2
f 134/10/2 127/10/2 146/10/2
f 145/4/2 134/4/2 146/4/2
f 127/8/2 128/8/2 147/8/2
f 146/10/2 127/10/2 147/10/2
f 128/10/2 138/10/2 148/10/2
f 147/8/2 128/8/2 148/8/2
f 138/4/2 139/4/2 149/4/2
f 148/10/2 138/10/2 149/10/2
f 149/4/2 139/4/2 150/4/2
f 141/4/2 142/4/2 152/4/2
f 140/4/2 141/4/2 152/4/2
f 142/4/2 143/4/2 152/4/2
f 152/4/2 143/4/2 153/4/2
f 143/10/2 144/10/2 154/10/2
f 153/4/2 143/4/2 154/4/2
f 144/4/2 145/4/2 155/4/2
f 154/10/2 144/10/2 155/10/2
f 145/4/2 146/4/2 155/4/2
f 146/4/2 147/4/2 155/4/2
f 155/4/2 147/4/2 156/4/2
f 156/4/2 147/4/2 157/4/2
f 147/10/2 148/10/2 158/10/2
f 157/4/2 147/4/2 158/4/2
f 149/4/2 150/4/2 159/4/2
f 158/10/2 148/10/2 159/10/2
f 150/4/2 151/4/2 159/4/2
f 148/4/2 149/4/2 159/4/2
f 153/4/2 154/4/2 160/4/2
f 155/4/2 156/4/2 160/4/2
f 156/8/2 157/8/2 160/8/2
f 154/4/2 155/4/2 160/4/2
f 157/4/2 158/4/2 161/4/2
f 160/8/2 157/8/2 161/8/2
f 158/4/2 159/4/2 161/4/2
f 161/4/2 159/4/2 162/4/2
f 162/4/2 159/4/2 163/4/2
f 152/2/2 153/2/2 164/2/2
f 153/4/2 160/4/2 165/4/2
f 164/2/2 153/2/2 165/2/2
f 160/4/2 161/4/2 165/4/2
f 161/4/2 162/4/2 165/4/2
f 165/4/2 162/4/2 166/4/2
f 166/4/2 162/4/2 167/4/2
f 167/4/2 162/4/2 168/4/2
f 168/4/2 162/4/2 169/4/2
f 169/4/2 162/4/2 170/4/2
f 163/4/2 159/4/2 171/4/2
f 159/4/2 151/4/2 172/4/2
f 171/4/2 159/4/2 172/4/2
f 169/11/2 170/11/2 173/11/2
f 167/11/2 168/11/2 175/11/2
f 166/1/2 167/1/2 175/1/2
f 168/1/2 169/1/2 176/1/2
f 175/11/2 168/11/2 176/11/2
f 169/11/2 173/11/2 177/11/2
f 176/1/2 169/1/2 177/1/2
f 173/1/2 174/1/2 178/1/2
f 177/11/2 173/11/2 178/11/2
f 166/1/2 175/1/2 179/1/2
f 176/1/2 177/1/2 179/1/2
f 177/1/2 178/1/2 179/1/2
f 175/1/2 176/1/2 179/1/2
f 178/1/2 174/1/2 180/1/2
f 179/1/2 178/1/2 180/1/2
f 181/9/2 182/9/2 185/9/2
f 185/9/2 182/9/2 186/9/2
f 183/9/2 184/9/2 187/9/2
f 187/9/2 184/9/2 188/9/2
f 189/4/2 190/4/2 191/4/2
f 191/4/2 190/4/2 192/4/2
f 195/9/3 194/9/3 193/9/3
f 196/9/3 194/9/3 195/9/3
f 200/4/3 198/4/3 197/4/3
f 200/2/3 199/2/3 198/2/3
f 201/2/3 199/2/3 200/2/3
f 202/4/3 200/4/3 197/4/3
f 202/4/3 201/4/3 200/4/3
f 203/4/3 201/4/3 202/4/3
f 204/3/3 203/3/3 202/3/3
f 205/3/3 203/3/3 204/3/3
f 206/4/3 205/4/3 204/4/3
f 207/4/3 205/4/3 206/4/3
f 208/4/3 206/4/3 204/4/3
f 209/2/3 207/2/3 206/2/3
f 209/4/3 206/4/3 208/4/3
f 210/2/3 207/2/3 209/2/3
f 215/1/3 214/1/3 213/1/3
f 216/1/3 214/1/3 215/1/3
f 217/11/3 216/11/3 215/11/3
f 218/11/3 216/11/3 217/11/3
f 219/11/3 216/11/3 218/11/3
f 220/1/3 214/1/3 216/1/3
f 220/11/3 216/11/3 219/11/3
f 221/6/3 212/6/3 211/6/3
f 222/6/3 212/6/3 221/6/3
f 223/1/3 220/1/3 219/1/3
f 224/1/3 214/1/3 220/1/3
f 224/1/3 220/1/3 223/1/3
f 227/10/3 226/10/3 225/10/3
f 228/10/3 226/10/3 227/10/3
f 231/10/3 230/10/3 229/10/3
f 232/10/3 230/10/3 231/10/3
f 235/4/3 234/4/3 233/4/3
f 236/4/3 234/4/3 235/4/3
f 237/4/3 234/4/3 236/4/3
f 240/5/3 239/5/3 238/5/3
f 241/5/3 239/5/3 240/5/3
f 245/4/3 243/4/3 242/4/3
f 245/4/3 244/4/3 243/4/3
f 246/4/3 244/4/3 245/4/3
f 249/10/3 248/10/3 247/10/3
f 250/10/3 248/10/3 249/10/3
f 253/10/3 252/10/3 251/10/3
f 254/10/3 252/10/3 253/10/3
f 257/9/3 256/9/3 255/9/3
f 258/9/3 256/9/3 257/9/3
f 259/9/3 256/9/3 258/9/3
f 262/5/3 261/5/3 260/5/3
f 263/5/3 261/5/3 262/5/3
f 266/5/3 265/5/3 264/5/3
f 267/5/3 265/5/3 266/5/3
f 271/9/3 269/9/3 268/9/3
f 271/9/3 270/9/3 269/9/3
f 272/9/3 270/9/3 271/9/3
f 273/9/4 274/9/4 275/9/4
f 275/9/4 274/9/4 276/9/4
f 276/9/4 274/9/4 277/9/4
f 278/9/4 279/9/4 281/9/4
f 279/9/4 280/9/4 281/9/4
f 281/9/4 280/9/4 282/9/4
f 283/10/4 284/10/4 285/10/4
f 285/10/4 284/10/4 286/10/4
f 287/10/4 288/10/4 289/10/4
f 289/10/4 288/10/4 290/10/4
f 291/5/4 292/5/4 293/5/4
f 293/5/4 292/5/4 294/5/4
f 293/4/4 294/4/4 295/4/4
f 295/4/4 294/4/4 296/4/4
f 295/5/4 296/5/4 297/5/4
f 297/5/4 296/5/4 298/5/4
f 299/4/4 300/4/4 301/4/4
f 301/4/4 300/4/4 302/4/4
f 302/4/4 300/4/4 303/4/4
f 303/1/4 304/1/4 305/1/4
f 302/1/4 303/1/4 305/1/4
f 305/1/4 304/1/4 306/1/4
f 305/11/4 306/11/4 307/11/4
f 307/11/4 306/11/4 308/11/4
f 308/11/4 306/11/4 309/11/4
f 306/1/4 304/1/4 310/1/4
f 309/11/4 306/11/4 310/11/4
f 309/1/4 310/1/4 312/1/4
f 312/1/4 310/1/4 313/1/4
f 310/1/4 304/1/4 314/1/4
f 313/1/4 310/1/4 314/1/4
f 312/4/4 313/4/4 315/4/4
f 311/4/4 312/4/4 315/4/4
f 315/4/4 313/4/4 316/4/4
f 317/10/4 318/10/4 319/10/4
f 319/10/4 318/10/4 320/10/4
f 321/10/4 322/10/4 323/10/4
f 323/10/4 322/10/4 324/10/4
f 325/6/4 326/6/4 327/6/4
f 327/6/4 326/6/4 328/6/4
f 329/4/4 330/4/4 331/4/4
f 331/4/4 330/4/4 332/4/4
f 329/4/4 331/4/4 334/4/4
f 332/5/4 333/5/4 335/5/4
f 334/4/4 331/4/4 335/4/4
f 331/5/4 332/5/4 335/5/4
f 335/5/4 333/5/4 336/5/4
f 336/5/4 333/5/4 337/5/4
f 334/3/4 335/3/4 338/3/4
f 335/3/4 336/3/4 338/3/4
f 338/3/4 336/3/4 339/3/4
f 338/10/4 339/10/4 340/10/4
f 339/3/4 336/3/4 341/3/4
f 340/10/4 339/10/4 341/10/4
f 340/3/4 341/3/4 342/3/4
f 341/3/4 336/3/4 343/3/4
f 342/3/4 341/3/4 343/3/4
f 343/3/4 336/3/4 344/3/4
f 342/4/4 343/4/4 346/4/4
f 344/5/4 345/5/4 346/5/4
f 343/5/4 344/5/4 346/5/4
f 346/5/4 345/5/4 347/5/4
f 347/5/4 345/5/4 348/5/4
f 342/4/4 346/4/4 349/4/4
f 346/4/4 347/4/4 349/4/4
f 349/4/4 347/4/4 350/4/4
f 351/9/4 352/9/4 353/9/4
f 353/9/4 352/9/4 354/9/4
f 359/10/5 356/10/5 355/10/5
f 360/10/5 356/10/5 359/10/5
f 361/10/5 358/10/5 357/10/5
f 362/10/5 358/10/5 361/10/5
f 367/10/5 364/10/5 363/10/5
f 368/10/5 364/10/5 367/10/5
f 369/10/5 366/10/5 365/10/5
f 370/10/5 366/10/5 369/10/5
f 373/6/5 372/6/5 371/6/5
f 374/6/5 372/6/5 373/6/5
f 375/6/5 373/6/5 371/6/5
f 376/5/5 374/5/5 373/5/5
f 376/6/5 373/6/5 375/6/5
f 377/6/5 372/6/5 374/6/5
f 377/5/5 374/5/5 376/5/5
f 378/6/5 372/6/5 377/6/5
f 379/10/5 376/10/5 375/10/5
f 380/5/5 377/5/5 376/5/5
f 380/10/5 376/10/5 379/10/5
f 381/10/5 378/10/5 377/10/5
f 381/5/5 377/5/5 380/5/5
f 382/10/5 378/10/5 381/10/5
f 384/5/5 381/5/5 380/5/5
f 385/5/5 381/5/5 384/5/5
f 387/10/5 384/10/5 383/10/5
f 388/5/5 385/5/5 384/5/5
f 388/10/5 384/10/5 387/10/5
f 389/10/5 386/10/5 385/10/5
f 389/5/5 385/5/5 388/5/5
f 390/10/5 386/10/5 389/10/5
f 391/6/5 388/6/5 387/6/5
f 392/5/5 389/5/5 388/5/5
f 392/6/5 388/6/5 391/6/5
f 393/6/5 390/6/5 389/6/5
f 393/5/5 389/5/5 392/5/5
f 394/6/5 390/6/5 393/6/5
f 395/10/5 392/10/5 391/10/5
f 396/5/5 393/5/5 392/5/5
f 396/10/5 392/10/5 395/10/5
f 397/10/5 394/10/5 393/10/5
f 397/5/5 393/5/5 396/5/5
f 398/10/5 394/10/5 397/10/5
f 400/5/5 397/5/5 396/5/5
f 401/5/5 397/5/5 400/5/5
f 403/10/5 400/10/5 399/10/5
f 404/5/5 401/5/5 400/5/5
f 404/10/5 400/10/5 403/10/5
f 405/10/5 402/10/5 401/10/5
f 405/5/5 401/5/5 404/5/5
f 406/10/5 402/10/5 405/10/5
f 407/6/5 404/6/5 403/6/5
f 407/5/5 405/5/5 404/5/5
f 408/6/5 406/6/5 405/6/5
f 408/5/5 405/5/5 407/5/5
f 409/6/5 407/6/5 403/6/5
f 409/6/5 408/6/5 407/6/5
f 410/6/5 406/6/5 408/6/5
f 410/6/5 408/6/5 409/6/5
f 413/9/5 412/9/5 411/9/5
f 414/9/5 412/9/5 413/9/5
f 415/9/5 413/9/5 411/9/5
f 416/6/5 414/6/5 413/6/5
f 416/9/5 413/9/5 415/9/5
f 417/9/5 412/9/5 414/9/5
f 417/6/5 414/6/5 416/6/5
f 418/9/5 412/9/5 417/9/5
f 419/6/5 417/6/5 416/6/5
f 420/6/5 417/6/5 419/6/5
f 425/6/5 423/6/5 422/6/5
f 425/9/5 422/9/5 421/9/5
f 426/9/5 424/9/5 423/9/5
f 426/6/5 423/6/5 425/6/5
f 427/9/5 425/9/5 421/9/5
f 427/9/5 426/9/5 425/9/5
f 428/9/5 424/9/5 426/9/5
f 428/9/5 426/9/5 427/9/5
f 433/4/5 430/4/5 429/4/5
f 434/4/5 430/4/5 433/4/5
f 435/4/5 432/4/5 431/4/5
f 436/4/5 432/4/5 435/4/5
f 441/11/5 438/11/5 437/11/5
f 441/11/5 440/11/5 439/11/5
f 441/11/5 439/11/5 438/11/5
f 442/11/5 440/11/5 441/11/5
f 443/9/6 444/9/6 445/9/6
f 445/9/6 444/9/6 446/9/6
f 446/9/6 444/9/6 447/9/6
f 447/9/6 444/9/6 448/9/6
f 443/9/6 445/9/6 449/9/6
f 449/9/6 445/9/6 450/9/6
f 448/9/6 444/9/6 451/9/6
f 451/9/6 444/9/6 452/9/6
f 453/5/6 454/5/6 457/5/6
f 455/5/6 456/5/6 457/5/6
f 454/5/6 455/5/6 457/5/6
f 457/5/6 456/5/6 458/5/6
f 459/9/6 460/9/6 463/9/6
f 461/9/6 462/9/6 468/9/6
f 466/9/6 467/9/6 469/9/6
f 467/9/6 468/9/6 469/9/6
f 459/9/6 463/9/6 469/9/6
f 463/9/6 464/9/6 469/9/6
f 465/9/6 466/9/6 469/9/6
f 464/9/6 465/9/6 469/9/6
f 468/9/6 462/9/6 470/9/6
f 469/9/6 468/9/6 470/9/6
f 471/2/6 472/2/6 477/2/6
f 472/4/6 473/4/6 478/4/6
f 477/2/6 472/2/6 478/2/6
f 475/2/6 476/2/6 479/2/6
f 474/4/6 475/4/6 479/4/6
f 479/2/6 476/2/6 480/2/6
f 477/4/6 478/4/6 481/4/6
f 478/4/6 473/4/6 482/4/6
f 481/4/6 478/4/6 482/4/6
f 473/3/6 474/3/6 483/3/6
f 482/4/6 473/4/6 483/4/6
f 474/4/6 479/4/6 484/4/6
f 483/3/6 474/3/6 484/3/6
f 479/4/6 480/4/6 484/4/6
f 484/4/6 480/4/6 485/4/6
f 485/4/6 480/4/6 486/4/6
f 487/4/6 488/4/6 493/4/6
f 488/4/6 489/4/6 493/4/6
f 489/3/6 490/3/6 494/3/6
f 493/4/6 489/4/6 494/4/6
f 491/4/6 492/4/6 495/4/6
f 494/3/6 490/3/6 495/3/6
f 490/4/6 491/4/6 495/4/6
f 495/4/6 492/4/6 496/4/6
f 487/4/6 493/4/6 497/4/6
f 497/4/6 493/4/6 498/4/6
f 494/3/6 495/3/6 499/3/6
f 499/3/6 495/3/6 500/3/6
f 496/4/6 492/4/6 501/4/6
f 501/4/6 492/4/6 502/4/6
f 503/4/6 504/4/6 507/4/6
f 507/4/6 504/4/6 508/4/6
f 505/4/6 506/4/6 509/4/6
f 509/4/6 506/4/6 510/4/6
f 511/5/6 512/5/6 515/5/6
f 515/5/6 512/5/6 516/5/6
f 513/5/6 514/5/6 517/5/6
f 517/5/6 514/5/6 518/5/6
f 519/1/6 520/1/6 521/1/6
f 521/1/6 520/1/6 522/1/6
