# MagicaVoxel @ Ephtracy

# material
mtllib veh_car3.mtl
usemtl palette

# normals
vn -1 0 0
vn 1 0 0
vn 0 0 1
vn 0 0 -1
vn 0 -1 0
vn 0 1 0

# texcoords
vt 0.587891 0.5
vt 0.841797 0.5
vt 0.958984 0.5
vt 0.966797 0.5
vt 0.970703 0.5
vt 0.974609 0.5
vt 0.978516 0.5
vt 0.986328 0.5
vt 0.990234 0.5

# verts
v -7.5 2 16
v -7.5 2 14
v -7.5 2 -14
v -7.5 2 -16
v -7.5 4 16
v -7.5 4 14
v -7.5 4 -14
v -7.5 4 -16
v -7.5 6 -3
v -7.5 6 -4
v -7.5 8 -3
v -7.5 8 -4
v -6.5 0 10
v -6.5 0 7
v -6.5 0 -8
v -6.5 0 -11
v -6.5 1 13
v -6.5 1 11
v -6.5 1 10
v -6.5 1 7
v -6.5 1 6
v -6.5 1 -7
v -6.5 1 -8
v -6.5 1 -11
v -6.5 1 -12
v -6.5 1 -14
v -6.5 2 14
v -6.5 2 13
v -6.5 2 6
v -6.5 2 -7
v -6.5 2 -14
v -6.5 3 14
v -6.5 3 11
v -6.5 3 -12
v -6.5 3 -14
v -6.5 4 15
v -6.5 4 14
v -6.5 4 10
v -6.5 4 7
v -6.5 4 -8
v -6.5 4 -11
v -6.5 4 -14
v -6.5 4 -15
v -6.5 5 15
v -6.5 5 14
v -6.5 5 3
v -6.5 5 1
v -6.5 6 3
v -6.5 6 1
v -6.5 6 -3
v -6.5 6 -4
v -6.5 7 15
v -6.5 7 14
v -6.5 7 8
v -6.5 7 6
v -6.5 7 4
v -6.5 7 3
v -6.5 7 -3
v -6.5 7 -4
v -6.5 7 -5
v -6.5 7 -15
v -6.5 8 -3
v -6.5 8 -4
v -6.5 10 6
v -6.5 10 4
v -6.5 10 3
v -6.5 10 -4
v -6.5 11 8
v -6.5 11 -5
v -5.5 7 -14
v -5.5 7 -15
v -5.5 8 -14
v -5.5 8 -15
v 3.5 7 -14
v 3.5 7 -15
v 3.5 8 -14
v 3.5 8 -15
v 4.5 4 6
v 4.5 4 -2
v 4.5 7 6
v 4.5 7 -2
v 5.5 0 10
v 5.5 0 7
v 5.5 0 -8
v 5.5 0 -11
v 5.5 1 10
v 5.5 1 7
v 5.5 1 -8
v 5.5 1 -11
v -5.5 0 10
v -5.5 0 7
v -5.5 0 -8
v -5.5 0 -11
v -5.5 1 10
v -5.5 1 7
v -5.5 1 -8
v -5.5 1 -11
v -4.5 4 6
v -4.5 4 -2
v -4.5 7 6
v -4.5 7 -2
v -3.5 7 -14
v -3.5 7 -15
v -3.5 8 -14
v -3.5 8 -15
v 5.5 7 -14
v 5.5 7 -15
v 5.5 8 -14
v 5.5 8 -15
v 6.5 0 10
v 6.5 0 7
v 6.5 0 -8
v 6.5 0 -11
v 6.5 1 13
v 6.5 1 11
v 6.5 1 10
v 6.5 1 7
v 6.5 1 6
v 6.5 1 -7
v 6.5 1 -8
v 6.5 1 -11
v 6.5 1 -12
v 6.5 1 -14
v 6.5 2 14
v 6.5 2 13
v 6.5 2 6
v 6.5 2 -7
v 6.5 2 -14
v 6.5 3 14
v 6.5 3 11
v 6.5 3 -12
v 6.5 3 -14
v 6.5 4 15
v 6.5 4 14
v 6.5 4 10
v 6.5 4 7
v 6.5 4 -8
v 6.5 4 -11
v 6.5 4 -14
v 6.5 4 -15
v 6.5 5 15
v 6.5 5 14
v 6.5 5 3
v 6.5 5 1
v 6.5 6 3
v 6.5 6 1
v 6.5 6 -3
v 6.5 6 -4
v 6.5 7 15
v 6.5 7 14
v 6.5 7 8
v 6.5 7 6
v 6.5 7 4
v 6.5 7 3
v 6.5 7 -3
v 6.5 7 -4
v 6.5 7 -5
v 6.5 7 -15
v 6.5 8 -3
v 6.5 8 -4
v 6.5 10 6
v 6.5 10 4
v 6.5 10 3
v 6.5 10 -4
v 6.5 11 8
v 6.5 11 -5
v 7.5 2 16
v 7.5 2 14
v 7.5 2 -14
v 7.5 2 -16
v 7.5 4 16
v 7.5 4 14
v 7.5 4 -14
v 7.5 4 -16
v 7.5 6 -3
v 7.5 6 -4
v 7.5 8 -3
v 7.5 8 -4
v -7.5 2 16
v -7.5 4 16
v 7.5 2 16
v 7.5 4 16
v -6.5 4 15
v -6.5 5 15
v -6.5 7 15
v -5.5 5 15
v -5.5 7 15
v -2.5 4 15
v -2.5 6 15
v 2.5 4 15
v 2.5 6 15
v 5.5 5 15
v 5.5 7 15
v 6.5 4 15
v 6.5 5 15
v 6.5 7 15
v -6.5 1 13
v -6.5 2 13
v 6.5 1 13
v 6.5 2 13
v -6.5 0 10
v -6.5 1 10
v -5.5 0 10
v -5.5 1 10
v 5.5 0 10
v 5.5 1 10
v 6.5 0 10
v 6.5 1 10
v -6.5 7 8
v -6.5 11 8
v -4.5 8 8
v -4.5 10 8
v 4.5 8 8
v 4.5 10 8
v 6.5 7 8
v 6.5 11 8
v -4.5 4 -2
v -4.5 7 -2
v 4.5 4 -2
v 4.5 7 -2
v -7.5 6 -3
v -7.5 8 -3
v -6.5 6 -3
v -6.5 7 -3
v -6.5 8 -3
v 6.5 6 -3
v 6.5 7 -3
v 6.5 8 -3
v 7.5 6 -3
v 7.5 8 -3
v -6.5 0 -8
v -6.5 1 -8
v -5.5 0 -8
v -5.5 1 -8
v 5.5 0 -8
v 5.5 1 -8
v 6.5 0 -8
v 6.5 1 -8
v -7.5 2 -14
v -7.5 4 -14
v -6.5 2 -14
v -6.5 3 -14
v -6.5 4 -14
v -5.5 7 -14
v -5.5 8 -14
v -3.5 7 -14
v -3.5 8 -14
v 3.5 7 -14
v 3.5 8 -14
v 5.5 7 -14
v 5.5 8 -14
v 6.5 2 -14
v 6.5 3 -14
v 6.5 4 -14
v 7.5 2 -14
v 7.5 4 -14
v -7.5 2 14
v -7.5 4 14
v -6.5 2 14
v -6.5 3 14
v -6.5 4 14
v 6.5 2 14
v 6.5 3 14
v 6.5 4 14
v 7.5 2 14
v 7.5 4 14
v -6.5 0 7
v -6.5 1 7
v -5.5 0 7
v -5.5 1 7
v 5.5 0 7
v 5.5 1 7
v 6.5 0 7
v 6.5 1 7
v -4.5 4 6
v -4.5 7 6
v -2.5 4 6
v -2.5 7 6
v 2.5 4 6
v 2.5 7 6
v 4.5 4 6
v 4.5 7 6
v -7.5 6 -4
v -7.5 8 -4
v -6.5 6 -4
v -6.5 7 -4
v -6.5 8 -4
v 6.5 6 -4
v 6.5 7 -4
v 6.5 8 -4
v 7.5 6 -4
v 7.5 8 -4
v -6.5 7 -5
v -6.5 11 -5
v -5.5 7 -5
v -5.5 10 -5
v 5.5 7 -5
v 5.5 10 -5
v 6.5 7 -5
v 6.5 11 -5
v -6.5 0 -11
v -6.5 1 -11
v -5.5 0 -11
v -5.5 1 -11
v 5.5 0 -11
v 5.5 1 -11
v 6.5 0 -11
v 6.5 1 -11
v -6.5 1 -14
v -6.5 2 -14
v 6.5 1 -14
v 6.5 2 -14
v -6.5 4 -15
v -6.5 7 -15
v -5.5 6 -15
v -5.5 7 -15
v -5.5 8 -15
v -3.5 6 -15
v -3.5 7 -15
v -3.5 8 -15
v 3.5 6 -15
v 3.5 7 -15
v 3.5 8 -15
v 5.5 6 -15
v 5.5 7 -15
v 5.5 8 -15
v 6.5 4 -15
v 6.5 7 -15
v -7.5 2 -16
v -7.5 4 -16
v 7.5 2 -16
v 7.5 4 -16
v -6.5 0 10
v -5.5 0 10
v 5.5 0 10
v 6.5 0 10
v -6.5 0 7
v -5.5 0 7
v 5.5 0 7
v 6.5 0 7
v -6.5 0 -8
v -5.5 0 -8
v 5.5 0 -8
v 6.5 0 -8
v -6.5 0 -11
v -5.5 0 -11
v 5.5 0 -11
v 6.5 0 -11
v -6.5 1 13
v 6.5 1 13
v -5.5 1 12
v 5.5 1 12
v -6.5 1 11
v -5.5 1 11
v 5.5 1 11
v 6.5 1 11
v -6.5 1 10
v -5.5 1 10
v 5.5 1 10
v 6.5 1 10
v -6.5 1 7
v -5.5 1 7
v 5.5 1 7
v 6.5 1 7
v -6.5 1 6
v -5.5 1 6
v 5.5 1 6
v 6.5 1 6
v -6.5 1 -7
v -5.5 1 -7
v 5.5 1 -7
v 6.5 1 -7
v -6.5 1 -8
v -5.5 1 -8
v 5.5 1 -8
v 6.5 1 -8
v -6.5 1 -11
v -5.5 1 -11
v 5.5 1 -11
v 6.5 1 -11
v -6.5 1 -12
v -5.5 1 -12
v 5.5 1 -12
v 6.5 1 -12
v -5.5 1 -13
v 5.5 1 -13
v -6.5 1 -14
v 6.5 1 -14
v -7.5 2 16
v 7.5 2 16
v -6.5 2 15
v 6.5 2 15
v -7.5 2 14
v -6.5 2 14
v 6.5 2 14
v 7.5 2 14
v -6.5 2 13
v 6.5 2 13
v -7.5 2 -14
v -6.5 2 -14
v 6.5 2 -14
v 7.5 2 -14
v -6.5 2 -15
v 6.5 2 -15
v -7.5 2 -16
v 7.5 2 -16
v -7.5 6 -3
v -6.5 6 -3
v 6.5 6 -3
v 7.5 6 -3
v -7.5 6 -4
v -6.5 6 -4
v 6.5 6 -4
v 7.5 6 -4
v -4.5 7 6
v -2.5 7 6
v 2.5 7 6
v 4.5 7 6
v -4.5 7 -2
v 4.5 7 -2
v -7.5 4 16
v 7.5 4 16
v -6.5 4 15
v -2.5 4 15
v 2.5 4 15
v 6.5 4 15
v -7.5 4 14
v -6.5 4 14
v 6.5 4 14
v 7.5 4 14
v -4.5 4 6
v -2.5 4 6
v 2.5 4 6
v 4.5 4 6
v -4.5 4 -2
v 4.5 4 -2
v -7.5 4 -14
v -6.5 4 -14
v 6.5 4 -14
v 7.5 4 -14
v -6.5 4 -15
v 6.5 4 -15
v -7.5 4 -16
v 7.5 4 -16
v -6.5 7 15
v -5.5 7 15
v 5.5 7 15
v 6.5 7 15
v -6.5 7 14
v -5.5 7 14
v 5.5 7 14
v 6.5 7 14
v -6.5 7 8
v 6.5 7 8
v -6.5 7 -5
v -5.5 7 -5
v 5.5 7 -5
v 6.5 7 -5
v -5.5 7 -14
v -3.5 7 -14
v 3.5 7 -14
v 5.5 7 -14
v -6.5 7 -15
v -5.5 7 -15
v -3.5 7 -15
v 3.5 7 -15
v 5.5 7 -15
v 6.5 7 -15
v -7.5 8 -3
v -6.5 8 -3
v 6.5 8 -3
v 7.5 8 -3
v -7.5 8 -4
v -6.5 8 -4
v 6.5 8 -4
v 7.5 8 -4
v -5.5 8 -14
v -3.5 8 -14
v 3.5 8 -14
v 5.5 8 -14
v -5.5 8 -15
v -3.5 8 -15
v 3.5 8 -15
v 5.5 8 -15
v -6.5 11 8
v 6.5 11 8
v -6.5 11 -5
v 6.5 11 -5

# faces
f 5/7/1 2/7/1 1/7/1
f 6/7/1 2/7/1 5/7/1
f 7/7/1 4/7/1 3/7/1
f 8/7/1 4/7/1 7/7/1
f 11/8/1 10/8/1 9/8/1
f 12/8/1 10/8/1 11/8/1
f 19/8/1 14/8/1 13/8/1
f 20/8/1 14/8/1 19/8/1
f 23/8/1 16/8/1 15/8/1
f 24/8/1 16/8/1 23/8/1
f 28/4/1 18/4/1 17/4/1
f 29/4/1 22/4/1 21/4/1
f 29/8/1 21/8/1 20/8/1
f 30/8/1 23/8/1 22/8/1
f 30/4/1 22/4/1 29/4/1
f 31/4/1 26/4/1 25/4/1
f 32/4/1 28/4/1 27/4/1
f 33/8/1 19/8/1 18/8/1
f 33/4/1 28/4/1 32/4/1
f 33/4/1 18/4/1 28/4/1
f 34/4/1 31/4/1 25/4/1
f 34/8/1 25/8/1 24/8/1
f 35/4/1 31/4/1 34/4/1
f 37/8/1 33/8/1 32/8/1
f 38/6/1 20/6/1 19/6/1
f 38/8/1 19/8/1 33/8/1
f 38/8/1 33/8/1 37/8/1
f 39/8/1 29/8/1 20/8/1
f 39/6/1 20/6/1 38/6/1
f 39/8/1 30/8/1 29/8/1
f 40/8/1 23/8/1 30/8/1
f 40/8/1 30/8/1 39/8/1
f 40/6/1 24/6/1 23/6/1
f 41/8/1 34/8/1 24/8/1
f 41/6/1 24/6/1 40/6/1
f 41/8/1 35/8/1 34/8/1
f 42/8/1 35/8/1 41/8/1
f 44/8/1 39/8/1 38/8/1
f 44/8/1 43/8/1 42/8/1
f 44/8/1 42/8/1 41/8/1
f 44/8/1 41/8/1 40/8/1
f 44/8/1 40/8/1 39/8/1
f 44/8/1 38/8/1 37/8/1
f 44/8/1 37/8/1 36/8/1
f 45/8/1 43/8/1 44/8/1
f 46/8/1 43/8/1 45/8/1
f 47/8/1 43/8/1 46/8/1
f 48/8/1 46/8/1 45/8/1
f 48/6/1 47/6/1 46/6/1
f 49/8/1 43/8/1 47/8/1
f 49/6/1 47/6/1 48/6/1
f 50/8/1 43/8/1 49/8/1
f 51/8/1 43/8/1 50/8/1
f 52/2/1 45/2/1 44/2/1
f 53/8/1 48/8/1 45/8/1
f 53/2/1 45/2/1 52/2/1
f 53/8/1 49/8/1 48/8/1
f 53/8/1 50/8/1 49/8/1
f 54/8/1 50/8/1 53/8/1
f 55/8/1 50/8/1 54/8/1
f 56/8/1 50/8/1 55/8/1
f 57/8/1 50/8/1 56/8/1
f 58/8/1 50/8/1 57/8/1
f 59/8/1 43/8/1 51/8/1
f 60/8/1 43/8/1 59/8/1
f 61/8/1 43/8/1 60/8/1
f 62/9/1 58/9/1 57/9/1
f 63/5/1 60/5/1 59/5/1
f 64/5/1 55/5/1 54/5/1
f 64/9/1 56/9/1 55/9/1
f 65/5/1 57/5/1 56/5/1
f 65/9/1 56/9/1 64/9/1
f 66/9/1 62/9/1 57/9/1
f 66/5/1 57/5/1 65/5/1
f 66/9/1 63/9/1 62/9/1
f 67/5/1 60/5/1 63/5/1
f 67/9/1 63/9/1 66/9/1
f 68/5/1 65/5/1 64/5/1
f 68/5/1 66/5/1 65/5/1
f 68/5/1 67/5/1 66/5/1
f 68/5/1 64/5/1 54/5/1
f 69/5/1 60/5/1 67/5/1
f 69/5/1 67/5/1 68/5/1
f 72/3/1 71/3/1 70/3/1
f 73/3/1 71/3/1 72/3/1
f 76/3/1 75/3/1 74/3/1
f 77/3/1 75/3/1 76/3/1
f 80/8/1 79/8/1 78/8/1
f 81/8/1 79/8/1 80/8/1
f 86/8/1 83/8/1 82/8/1
f 87/8/1 83/8/1 86/8/1
f 88/8/1 85/8/1 84/8/1
f 89/8/1 85/8/1 88/8/1
f 90/8/2 91/8/2 94/8/2
f 94/8/2 91/8/2 95/8/2
f 92/8/2 93/8/2 96/8/2
f 96/8/2 93/8/2 97/8/2
f 98/8/2 99/8/2 100/8/2
f 100/8/2 99/8/2 101/8/2
f 102/3/2 103/3/2 104/3/2
f 104/3/2 103/3/2 105/3/2
f 106/3/2 107/3/2 108/3/2
f 108/3/2 107/3/2 109/3/2
f 110/8/2 111/8/2 116/8/2
f 116/8/2 111/8/2 117/8/2
f 112/8/2 113/8/2 120/8/2
f 120/8/2 113/8/2 121/8/2
f 114/4/2 115/4/2 125/4/2
f 118/4/2 119/4/2 126/4/2
f 117/8/2 118/8/2 126/8/2
f 119/8/2 120/8/2 127/8/2
f 126/4/2 119/4/2 127/4/2
f 122/4/2 123/4/2 128/4/2
f 124/4/2 125/4/2 129/4/2
f 115/8/2 116/8/2 130/8/2
f 129/4/2 125/4/2 130/4/2
f 125/4/2 115/4/2 130/4/2
f 122/4/2 128/4/2 131/4/2
f 121/8/2 122/8/2 131/8/2
f 131/4/2 128/4/2 132/4/2
f 129/8/2 130/8/2 134/8/2
f 116/6/2 117/6/2 135/6/2
f 130/8/2 116/8/2 135/8/2
f 134/8/2 130/8/2 135/8/2
f 117/8/2 126/8/2 136/8/2
f 135/6/2 117/6/2 136/6/2
f 126/8/2 127/8/2 136/8/2
f 127/8/2 120/8/2 137/8/2
f 136/8/2 127/8/2 137/8/2
f 120/6/2 121/6/2 137/6/2
f 121/8/2 131/8/2 138/8/2
f 137/6/2 121/6/2 138/6/2
f 131/8/2 132/8/2 138/8/2
f 138/8/2 132/8/2 139/8/2
f 135/8/2 136/8/2 141/8/2
f 139/8/2 140/8/2 141/8/2
f 138/8/2 139/8/2 141/8/2
f 137/8/2 138/8/2 141/8/2
f 136/8/2 137/8/2 141/8/2
f 134/8/2 135/8/2 141/8/2
f 133/8/2 134/8/2 141/8/2
f 141/8/2 140/8/2 142/8/2
f 142/8/2 140/8/2 143/8/2
f 143/8/2 140/8/2 144/8/2
f 142/8/2 143/8/2 145/8/2
f 143/6/2 144/6/2 145/6/2
f 144/8/2 140/8/2 146/8/2
f 145/6/2 144/6/2 146/6/2
f 146/8/2 140/8/2 147/8/2
f 147/8/2 140/8/2 148/8/2
f 141/2/2 142/2/2 149/2/2
f 142/8/2 145/8/2 150/8/2
f 149/2/2 142/2/2 150/2/2
f 145/8/2 146/8/2 150/8/2
f 146/8/2 147/8/2 150/8/2
f 150/8/2 147/8/2 151/8/2
f 151/8/2 147/8/2 152/8/2
f 152/8/2 147/8/2 153/8/2
f 153/8/2 147/8/2 154/8/2
f 154/8/2 147/8/2 155/8/2
f 148/8/2 140/8/2 156/8/2
f 156/8/2 140/8/2 157/8/2
f 157/8/2 140/8/2 158/8/2
f 154/9/2 155/9/2 159/9/2
f 156/5/2 157/5/2 160/5/2
f 151/5/2 152/5/2 161/5/2
f 152/9/2 153/9/2 161/9/2
f 153/5/2 154/5/2 162/5/2
f 161/9/2 153/9/2 162/9/2
f 154/9/2 159/9/2 163/9/2
f 162/5/2 154/5/2 163/5/2
f 159/9/2 160/9/2 163/9/2
f 160/5/2 157/5/2 164/5/2
f 163/9/2 160/9/2 164/9/2
f 161/5/2 162/5/2 165/5/2
f 162/5/2 163/5/2 165/5/2
f 163/5/2 164/5/2 165/5/2
f 151/5/2 161/5/2 165/5/2
f 164/5/2 157/5/2 166/5/2
f 165/5/2 164/5/2 166/5/2
f 167/7/2 168/7/2 171/7/2
f 171/7/2 168/7/2 172/7/2
f 169/7/2 170/7/2 173/7/2
f 173/7/2 170/7/2 174/7/2
f 175/8/2 176/8/2 177/8/2
f 177/8/2 176/8/2 178/8/2
f 181/7/3 180/7/3 179/7/3
f 182/7/3 180/7/3 181/7/3
f 186/8/3 184/8/3 183/8/3
f 186/2/3 185/2/3 184/2/3
f 187/2/3 185/2/3 186/2/3
f 188/8/3 186/8/3 183/8/3
f 188/8/3 187/8/3 186/8/3
f 189/8/3 187/8/3 188/8/3
f 190/3/3 189/3/3 188/3/3
f 191/8/3 187/8/3 189/8/3
f 191/3/3 189/3/3 190/3/3
f 192/8/3 191/8/3 190/8/3
f 193/8/3 187/8/3 191/8/3
f 193/8/3 191/8/3 192/8/3
f 194/8/3 192/8/3 190/8/3
f 195/2/3 193/2/3 192/2/3
f 195/8/3 192/8/3 194/8/3
f 196/2/3 193/2/3 195/2/3
f 199/4/3 198/4/3 197/4/3
f 200/4/3 198/4/3 199/4/3
f 203/8/3 202/8/3 201/8/3
f 204/8/3 202/8/3 203/8/3
f 207/8/3 206/8/3 205/8/3
f 208/8/3 206/8/3 207/8/3
f 211/5/3 210/5/3 209/5/3
f 212/5/3 210/5/3 211/5/3
f 213/5/3 211/5/3 209/5/3
f 213/9/3 212/9/3 211/9/3
f 214/5/3 210/5/3 212/5/3
f 214/9/3 212/9/3 213/9/3
f 215/5/3 213/5/3 209/5/3
f 215/5/3 214/5/3 213/5/3
f 216/5/3 210/5/3 214/5/3
f 216/5/3 214/5/3 215/5/3
f 219/5/3 218/5/3 217/5/3
f 220/5/3 218/5/3 219/5/3
f 223/8/3 222/8/3 221/8/3
f 224/8/3 222/8/3 223/8/3
f 225/8/3 222/8/3 224/8/3
f 229/8/3 227/8/3 226/8/3
f 229/8/3 228/8/3 227/8/3
f 230/8/3 228/8/3 229/8/3
f 233/8/3 232/8/3 231/8/3
f 234/8/3 232/8/3 233/8/3
f 237/8/3 236/8/3 235/8/3
f 238/8/3 236/8/3 237/8/3
f 241/7/3 240/7/3 239/7/3
f 242/7/3 240/7/3 241/7/3
f 243/7/3 240/7/3 242/7/3
f 246/3/3 245/3/3 244/3/3
f 247/3/3 245/3/3 246/3/3
f 250/3/3 249/3/3 248/3/3
f 251/3/3 249/3/3 250/3/3
f 255/7/3 253/7/3 252/7/3
f 255/7/3 254/7/3 253/7/3
f 256/7/3 254/7/3 255/7/3
f 257/7/4 258/7/4 259/7/4
f 259/7/4 258/7/4 260/7/4
f 260/7/4 258/7/4 261/7/4
f 262/7/4 263/7/4 265/7/4
f 263/7/4 264/7/4 265/7/4
f 265/7/4 264/7/4 266/7/4
f 267/8/4 268/8/4 269/8/4
f 269/8/4 268/8/4 270/8/4
f 271/8/4 272/8/4 273/8/4
f 273/8/4 272/8/4 274/8/4
f 275/5/4 276/5/4 277/5/4
f 277/5/4 276/5/4 278/5/4
f 277/8/4 278/8/4 279/8/4
f 279/8/4 278/8/4 280/8/4
f 279/5/4 280/5/4 281/5/4
f 281/5/4 280/5/4 282/5/4
f 283/8/4 284/8/4 285/8/4
f 285/8/4 284/8/4 286/8/4
f 286/8/4 284/8/4 287/8/4
f 288/8/4 289/8/4 291/8/4
f 289/8/4 290/8/4 291/8/4
f 291/8/4 290/8/4 292/8/4
f 293/5/4 294/5/4 295/5/4
f 295/5/4 294/5/4 296/5/4
f 295/9/4 296/9/4 297/9/4
f 296/5/4 294/5/4 298/5/4
f 297/9/4 296/9/4 298/9/4
f 297/5/4 298/5/4 299/5/4
f 298/5/4 294/5/4 300/5/4
f 299/5/4 298/5/4 300/5/4
f 301/8/4 302/8/4 303/8/4
f 303/8/4 302/8/4 304/8/4
f 305/8/4 306/8/4 307/8/4
f 307/8/4 306/8/4 308/8/4
f 309/4/4 310/4/4 311/4/4
f 311/4/4 310/4/4 312/4/4
f 313/8/4 314/8/4 315/8/4
f 315/8/4 314/8/4 316/8/4
f 313/8/4 315/8/4 318/8/4
f 316/3/4 317/3/4 318/3/4
f 315/3/4 316/3/4 318/3/4
f 318/3/4 317/3/4 319/3/4
f 319/3/4 317/3/4 320/3/4
f 313/8/4 318/8/4 321/8/4
f 318/8/4 319/8/4 321/8/4
f 321/8/4 319/8/4 322/8/4
f 313/8/4 321/8/4 324/8/4
f 322/3/4 323/3/4 324/3/4
f 321/3/4 322/3/4 324/3/4
f 324/3/4 323/3/4 325/3/4
f 325/3/4 323/3/4 326/3/4
f 313/8/4 324/8/4 327/8/4
f 324/8/4 325/8/4 327/8/4
f 327/8/4 325/8/4 328/8/4
f 329/7/4 330/7/4 331/7/4
f 331/7/4 330/7/4 332/7/4
f 337/8/5 334/8/5 333/8/5
f 338/8/5 334/8/5 337/8/5
f 339/8/5 336/8/5 335/8/5
f 340/8/5 336/8/5 339/8/5
f 345/8/5 342/8/5 341/8/5
f 346/8/5 342/8/5 345/8/5
f 347/8/5 344/8/5 343/8/5
f 348/8/5 344/8/5 347/8/5
f 351/4/5 350/4/5 349/4/5
f 352/4/5 350/4/5 351/4/5
f 353/4/5 351/4/5 349/4/5
f 354/5/5 352/5/5 351/5/5
f 354/4/5 351/4/5 353/4/5
f 355/4/5 350/4/5 352/4/5
f 355/5/5 352/5/5 354/5/5
f 356/4/5 350/4/5 355/4/5
f 357/8/5 354/8/5 353/8/5
f 358/5/5 355/5/5 354/5/5
f 358/8/5 354/8/5 357/8/5
f 359/8/5 356/8/5 355/8/5
f 359/5/5 355/5/5 358/5/5
f 360/8/5 356/8/5 359/8/5
f 362/5/5 359/5/5 358/5/5
f 363/5/5 359/5/5 362/5/5
f 365/8/5 362/8/5 361/8/5
f 366/5/5 363/5/5 362/5/5
f 366/8/5 362/8/5 365/8/5
f 367/8/5 364/8/5 363/8/5
f 367/5/5 363/5/5 366/5/5
f 368/8/5 364/8/5 367/8/5
f 369/4/5 366/4/5 365/4/5
f 370/5/5 367/5/5 366/5/5
f 370/4/5 366/4/5 369/4/5
f 371/4/5 368/4/5 367/4/5
f 371/5/5 367/5/5 370/5/5
f 372/4/5 368/4/5 371/4/5
f 373/8/5 370/8/5 369/8/5
f 374/5/5 371/5/5 370/5/5
f 374/8/5 370/8/5 373/8/5
f 375/8/5 372/8/5 371/8/5
f 375/5/5 371/5/5 374/5/5
f 376/8/5 372/8/5 375/8/5
f 378/5/5 375/5/5 374/5/5
f 379/5/5 375/5/5 378/5/5
f 381/8/5 378/8/5 377/8/5
f 382/5/5 379/5/5 378/5/5
f 382/8/5 378/8/5 381/8/5
f 383/8/5 380/8/5 379/8/5
f 383/5/5 379/5/5 382/5/5
f 384/8/5 380/8/5 383/8/5
f 385/4/5 382/4/5 381/4/5
f 385/5/5 383/5/5 382/5/5
f 386/4/5 384/4/5 383/4/5
f 386/5/5 383/5/5 385/5/5
f 387/4/5 385/4/5 381/4/5
f 387/4/5 386/4/5 385/4/5
f 388/4/5 384/4/5 386/4/5
f 388/4/5 386/4/5 387/4/5
f 391/7/5 390/7/5 389/7/5
f 392/7/5 390/7/5 391/7/5
f 393/7/5 391/7/5 389/7/5
f 394/4/5 392/4/5 391/4/5
f 394/7/5 391/7/5 393/7/5
f 395/7/5 390/7/5 392/7/5
f 395/4/5 392/4/5 394/4/5
f 396/7/5 390/7/5 395/7/5
f 397/4/5 395/4/5 394/4/5
f 398/4/5 395/4/5 397/4/5
f 403/4/5 401/4/5 400/4/5
f 403/7/5 400/7/5 399/7/5
f 404/7/5 402/7/5 401/7/5
f 404/4/5 401/4/5 403/4/5
f 405/7/5 403/7/5 399/7/5
f 405/7/5 404/7/5 403/7/5
f 406/7/5 402/7/5 404/7/5
f 406/7/5 404/7/5 405/7/5
f 411/8/5 408/8/5 407/8/5
f 412/8/5 408/8/5 411/8/5
f 413/8/5 410/8/5 409/8/5
f 414/8/5 410/8/5 413/8/5
f 419/9/5 416/9/5 415/9/5
f 419/9/5 418/9/5 417/9/5
f 419/9/5 417/9/5 416/9/5
f 420/9/5 418/9/5 419/9/5
f 421/7/6 422/7/6 423/7/6
f 423/7/6 422/7/6 424/7/6
f 424/7/6 422/7/6 425/7/6
f 425/7/6 422/7/6 426/7/6
f 421/7/6 423/7/6 427/7/6
f 427/7/6 423/7/6 428/7/6
f 426/7/6 422/7/6 429/7/6
f 429/7/6 422/7/6 430/7/6
f 431/5/6 432/5/6 435/5/6
f 433/5/6 434/5/6 435/5/6
f 432/5/6 433/5/6 435/5/6
f 435/5/6 434/5/6 436/5/6
f 437/7/6 438/7/6 441/7/6
f 439/7/6 440/7/6 442/7/6
f 437/7/6 441/7/6 443/7/6
f 441/7/6 442/7/6 443/7/6
f 442/7/6 440/7/6 444/7/6
f 443/7/6 442/7/6 444/7/6
f 445/2/6 446/2/6 449/2/6
f 446/8/6 447/8/6 450/8/6
f 449/2/6 446/2/6 450/2/6
f 447/2/6 448/2/6 451/2/6
f 450/8/6 447/8/6 451/8/6
f 451/2/6 448/2/6 452/2/6
f 449/8/6 450/8/6 453/8/6
f 450/8/6 451/8/6 453/8/6
f 451/8/6 452/8/6 453/8/6
f 453/8/6 452/8/6 454/8/6
f 455/8/6 456/8/6 459/8/6
f 457/8/6 458/8/6 459/8/6
f 456/8/6 457/8/6 459/8/6
f 459/8/6 458/8/6 460/8/6
f 460/8/6 458/8/6 461/8/6
f 461/8/6 458/8/6 462/8/6
f 455/8/6 459/8/6 463/8/6
f 463/8/6 459/8/6 464/8/6
f 460/8/6 461/8/6 465/8/6
f 465/8/6 461/8/6 466/8/6
f 462/8/6 458/8/6 467/8/6
f 467/8/6 458/8/6 468/8/6
f 469/8/6 470/8/6 473/8/6
f 473/8/6 470/8/6 474/8/6
f 471/8/6 472/8/6 475/8/6
f 475/8/6 472/8/6 476/8/6
f 477/3/6 478/3/6 481/3/6
f 481/3/6 478/3/6 482/3/6
f 479/3/6 480/3/6 483/3/6
f 483/3/6 480/3/6 484/3/6
f 485/5/6 486/5/6 487/5/6
f 487/5/6 486/5/6 488/5/6
