# MagicaVoxel @ Ephtracy

# material
mtllib veh_lunch1.mtl
usemtl palette

# normals
vn -1 0 0
vn 1 0 0
vn 0 0 1
vn 0 0 -1
vn 0 -1 0
vn 0 1 0

# texcoords
vt 0.111328 0.5
vt 0.279297 0.5
vt 0.587891 0.5
vt 0.615234 0.5
vt 0.958984 0.5
vt 0.966797 0.5
vt 0.970703 0.5
vt 0.974609 0.5
vt 0.978516 0.5
vt 0.982422 0.5
vt 0.986328 0.5
vt 0.990234 0.5

# verts
v -8.5 6 12.5
v -8.5 6 3.5
v -8.5 7 12.5
v -8.5 7 3.5
v -7.5 7 -9.5
v -7.5 7 -10.5
v -7.5 9 -9.5
v -7.5 9 -10.5
v -6.5 0 10.5
v -6.5 0 7.5
v -6.5 0 -8.5
v -6.5 0 -11.5
v -6.5 1 14.5
v -6.5 1 12.5
v -6.5 1 11.5
v -6.5 1 10.5
v -6.5 1 7.5
v -6.5 1 6.5
v -6.5 1 -7.5
v -6.5 1 -8.5
v -6.5 1 -11.5
v -6.5 1 -12.5
v -6.5 1 -14.5
v -6.5 2 -1.5
v -6.5 2 -5.5
v -6.5 3 14.5
v -6.5 3 12.5
v -6.5 3 -12.5
v -6.5 3 -14.5
v -6.5 4 14.5
v -6.5 4 13.5
v -6.5 4 11.5
v -6.5 4 10.5
v -6.5 4 7.5
v -6.5 4 6.5
v -6.5 4 -7.5
v -6.5 4 -8.5
v -6.5 4 -11.5
v -6.5 4 -12.5
v -6.5 5 10.5
v -6.5 5 7.5
v -6.5 5 -8.5
v -6.5 5 -11.5
v -6.5 6 14.5
v -6.5 6 13.5
v -6.5 6 12.5
v -6.5 6 3.5
v -6.5 7 12.5
v -6.5 7 11.5
v -6.5 7 8.5
v -6.5 7 7.5
v -6.5 7 4.5
v -6.5 7 3.5
v -6.5 7 2.5
v -6.5 7 -0.5
v -6.5 7 -6.5
v -6.5 7 -9.5
v -6.5 7 -10.5
v -6.5 8 -11.5
v -6.5 8 -14.5
v -6.5 9 -9.5
v -6.5 9 -10.5
v -6.5 11 11.5
v -6.5 11 8.5
v -6.5 11 7.5
v -6.5 11 4.5
v -6.5 12 12.5
v -6.5 12 3.5
v -6.5 12 2.5
v -6.5 12 -0.5
v -6.5 12 -1.5
v -6.5 12 -5.5
v -6.5 12 -6.5
v -6.5 12 -10.5
v -6.5 13 14.5
v -6.5 13 -11.5
v -6.5 14 14.5
v -6.5 14 -11.5
v -4.5 14 12.5
v -4.5 14 9.5
v -4.5 14 7.5
v -4.5 14 3.5
v -4.5 14 1.5
v -4.5 14 -2.5
v -4.5 15 12.5
v -4.5 15 9.5
v -4.5 15 7.5
v -4.5 15 3.5
v -4.5 15 1.5
v -4.5 15 -2.5
v 4.5 2 3.5
v 4.5 2 2.5
v 4.5 4 3.5
v 4.5 4 2.5
v 5.5 0 10.5
v 5.5 0 7.5
v 5.5 0 -8.5
v 5.5 0 -11.5
v 5.5 1 10.5
v 5.5 1 7.5
v 5.5 1 -8.5
v 5.5 1 -11.5
v -5.5 0 10.5
v -5.5 0 7.5
v -5.5 0 -8.5
v -5.5 0 -11.5
v -5.5 1 10.5
v -5.5 1 7.5
v -5.5 1 -8.5
v -5.5 1 -11.5
v -4.5 2 3.5
v -4.5 2 2.5
v -4.5 3 3.5
v -4.5 4 3.5
v -4.5 4 2.5
v 4.5 14 12.5
v 4.5 14 9.5
v 4.5 14 7.5
v 4.5 14 3.5
v 4.5 14 1.5
v 4.5 14 -2.5
v 4.5 15 12.5
v 4.5 15 9.5
v 4.5 15 7.5
v 4.5 15 3.5
v 4.5 15 1.5
v 4.5 15 -2.5
v 6.5 0 10.5
v 6.5 0 7.5
v 6.5 0 -8.5
v 6.5 0 -11.5
v 6.5 1 14.5
v 6.5 1 12.5
v 6.5 1 11.5
v 6.5 1 10.5
v 6.5 1 7.5
v 6.5 1 6.5
v 6.5 1 -7.5
v 6.5 1 -8.5
v 6.5 1 -11.5
v 6.5 1 -12.5
v 6.5 1 -14.5
v 6.5 2 -1.5
v 6.5 2 -5.5
v 6.5 3 14.5
v 6.5 3 12.5
v 6.5 3 -12.5
v 6.5 3 -14.5
v 6.5 4 14.5
v 6.5 4 13.5
v 6.5 4 11.5
v 6.5 4 10.5
v 6.5 4 7.5
v 6.5 4 6.5
v 6.5 4 -7.5
v 6.5 4 -8.5
v 6.5 4 -11.5
v 6.5 4 -12.5
v 6.5 5 10.5
v 6.5 5 7.5
v 6.5 5 -8.5
v 6.5 5 -11.5
v 6.5 6 14.5
v 6.5 6 13.5
v 6.5 6 12.5
v 6.5 6 3.5
v 6.5 7 12.5
v 6.5 7 11.5
v 6.5 7 8.5
v 6.5 7 7.5
v 6.5 7 4.5
v 6.5 7 3.5
v 6.5 7 2.5
v 6.5 7 -0.5
v 6.5 7 -6.5
v 6.5 7 -9.5
v 6.5 7 -10.5
v 6.5 8 -11.5
v 6.5 8 -14.5
v 6.5 9 -9.5
v 6.5 9 -10.5
v 6.5 11 11.5
v 6.5 11 8.5
v 6.5 11 7.5
v 6.5 11 4.5
v 6.5 12 12.5
v 6.5 12 3.5
v 6.5 12 2.5
v 6.5 12 -0.5
v 6.5 12 -1.5
v 6.5 12 -5.5
v 6.5 12 -6.5
v 6.5 12 -10.5
v 6.5 13 14.5
v 6.5 13 -11.5
v 6.5 14 14.5
v 6.5 14 -11.5
v 7.5 7 -9.5
v 7.5 7 -10.5
v 7.5 9 -9.5
v 7.5 9 -10.5
v 8.5 6 12.5
v 8.5 6 3.5
v 8.5 7 12.5
v 8.5 7 3.5
v -6.5 1 14.5
v -6.5 3 14.5
v -6.5 4 14.5
v -6.5 6 14.5
v -6.5 13 14.5
v -6.5 14 14.5
v -5.5 4 14.5
v -5.5 6 14.5
v -5.5 7 14.5
v -5.5 8 14.5
v -5.5 9 14.5
v -5.5 10 14.5
v -5.5 11 14.5
v -5.5 12 14.5
v -4.5 5 14.5
v -4.5 6 14.5
v -2.5 5 14.5
v -2.5 6 14.5
v -1.5 5 14.5
v -1.5 6 14.5
v -0.5 5 14.5
v -0.5 6 14.5
v 0.5 5 14.5
v 0.5 6 14.5
v 1.5 5 14.5
v 1.5 6 14.5
v 2.5 5 14.5
v 2.5 6 14.5
v 3.5 3 14.5
v 3.5 4 14.5
v 4.5 5 14.5
v 4.5 6 14.5
v 5.5 3 14.5
v 5.5 4 14.5
v 5.5 6 14.5
v 5.5 7 14.5
v 5.5 8 14.5
v 5.5 9 14.5
v 5.5 10 14.5
v 5.5 11 14.5
v 5.5 12 14.5
v 6.5 1 14.5
v 6.5 3 14.5
v 6.5 4 14.5
v 6.5 6 14.5
v 6.5 13 14.5
v 6.5 14 14.5
v -8.5 6 12.5
v -8.5 7 12.5
v -6.5 6 12.5
v -6.5 7 12.5
v -4.5 14 12.5
v -4.5 15 12.5
v 4.5 14 12.5
v 4.5 15 12.5
v 6.5 6 12.5
v 6.5 7 12.5
v 8.5 6 12.5
v 8.5 7 12.5
v -6.5 0 10.5
v -6.5 1 10.5
v -5.5 0 10.5
v -5.5 1 10.5
v 5.5 0 10.5
v 5.5 1 10.5
v 6.5 0 10.5
v 6.5 1 10.5
v -4.5 14 7.5
v -4.5 15 7.5
v 4.5 14 7.5
v 4.5 15 7.5
v -4.5 2 2.5
v -4.5 4 2.5
v 4.5 2 2.5
v 4.5 4 2.5
v -4.5 14 1.5
v -4.5 15 1.5
v 4.5 14 1.5
v 4.5 15 1.5
v -6.5 0 -8.5
v -6.5 1 -8.5
v -5.5 0 -8.5
v -5.5 1 -8.5
v 5.5 0 -8.5
v 5.5 1 -8.5
v 6.5 0 -8.5
v 6.5 1 -8.5
v -7.5 7 -9.5
v -7.5 9 -9.5
v -6.5 7 -9.5
v -6.5 9 -9.5
v 6.5 7 -9.5
v 6.5 9 -9.5
v 7.5 7 -9.5
v 7.5 9 -9.5
v -4.5 14 9.5
v -4.5 15 9.5
v 4.5 14 9.5
v 4.5 15 9.5
v -6.5 0 7.5
v -6.5 1 7.5
v -5.5 0 7.5
v -5.5 1 7.5
v 5.5 0 7.5
v 5.5 1 7.5
v 6.5 0 7.5
v 6.5 1 7.5
v -8.5 6 3.5
v -8.5 7 3.5
v -6.5 6 3.5
v -6.5 7 3.5
v -4.5 2 3.5
v -4.5 3 3.5
v -4.5 4 3.5
v -4.5 14 3.5
v -4.5 15 3.5
v -3.5 2 3.5
v -3.5 3 3.5
v 4.5 2 3.5
v 4.5 4 3.5
v 4.5 14 3.5
v 4.5 15 3.5
v 6.5 6 3.5
v 6.5 7 3.5
v 8.5 6 3.5
v 8.5 7 3.5
v -4.5 14 -2.5
v -4.5 15 -2.5
v 4.5 14 -2.5
v 4.5 15 -2.5
v -7.5 7 -10.5
v -7.5 9 -10.5
v -6.5 7 -10.5
v -6.5 9 -10.5
v 6.5 7 -10.5
v 6.5 9 -10.5
v 7.5 7 -10.5
v 7.5 9 -10.5
v -6.5 0 -11.5
v -6.5 1 -11.5
v -6.5 8 -11.5
v -6.5 13 -11.5
v -6.5 14 -11.5
v -5.5 0 -11.5
v -5.5 1 -11.5
v -5.5 8 -11.5
v -5.5 12 -11.5
v 5.5 0 -11.5
v 5.5 1 -11.5
v 5.5 8 -11.5
v 5.5 12 -11.5
v 6.5 0 -11.5
v 6.5 1 -11.5
v 6.5 8 -11.5
v 6.5 13 -11.5
v 6.5 14 -11.5
v -6.5 1 -14.5
v -6.5 3 -14.5
v -6.5 8 -14.5
v -5.5 4 -14.5
v -5.5 6 -14.5
v -3.5 4 -14.5
v -3.5 6 -14.5
v -2.5 3 -14.5
v -2.5 6 -14.5
v 2.5 3 -14.5
v 2.5 6 -14.5
v 3.5 4 -14.5
v 3.5 6 -14.5
v 5.5 4 -14.5
v 5.5 6 -14.5
v 6.5 1 -14.5
v 6.5 3 -14.5
v 6.5 8 -14.5
v -6.5 0 10.5
v -5.5 0 10.5
v 5.5 0 10.5
v 6.5 0 10.5
v -6.5 0 7.5
v -5.5 0 7.5
v 5.5 0 7.5
v 6.5 0 7.5
v -6.5 0 -8.5
v -5.5 0 -8.5
v 5.5 0 -8.5
v 6.5 0 -8.5
v -6.5 0 -11.5
v -5.5 0 -11.5
v 5.5 0 -11.5
v 6.5 0 -11.5
v -6.5 1 14.5
v 6.5 1 14.5
v -5.5 1 13.5
v 5.5 1 13.5
v -6.5 1 12.5
v -5.5 1 12.5
v 5.5 1 12.5
v 6.5 1 12.5
v -6.5 1 11.5
v -5.5 1 11.5
v 5.5 1 11.5
v 6.5 1 11.5
v -6.5 1 10.5
v -5.5 1 10.5
v 5.5 1 10.5
v 6.5 1 10.5
v -6.5 1 7.5
v -5.5 1 7.5
v 5.5 1 7.5
v 6.5 1 7.5
v -6.5 1 6.5
v -5.5 1 6.5
v 5.5 1 6.5
v 6.5 1 6.5
v -6.5 1 -7.5
v -5.5 1 -7.5
v 5.5 1 -7.5
v 6.5 1 -7.5
v -6.5 1 -8.5
v -5.5 1 -8.5
v 5.5 1 -8.5
v 6.5 1 -8.5
v -6.5 1 -11.5
v -5.5 1 -11.5
v 5.5 1 -11.5
v 6.5 1 -11.5
v -6.5 1 -12.5
v -5.5 1 -12.5
v 5.5 1 -12.5
v 6.5 1 -12.5
v -5.5 1 -13.5
v 5.5 1 -13.5
v -6.5 1 -14.5
v 6.5 1 -14.5
v -4.5 4 3.5
v 4.5 4 3.5
v -4.5 4 2.5
v 4.5 4 2.5
v -8.5 6 12.5
v -6.5 6 12.5
v 6.5 6 12.5
v 8.5 6 12.5
v -8.5 6 3.5
v -6.5 6 3.5
v 6.5 6 3.5
v 8.5 6 3.5
v -7.5 7 -9.5
v -6.5 7 -9.5
v 6.5 7 -9.5
v 7.5 7 -9.5
v -7.5 7 -10.5
v -6.5 7 -10.5
v 6.5 7 -10.5
v 7.5 7 -10.5
v -4.5 2 3.5
v -3.5 2 3.5
v 4.5 2 3.5
v -4.5 2 2.5
v 4.5 2 2.5
v -8.5 7 12.5
v -6.5 7 12.5
v 6.5 7 12.5
v 8.5 7 12.5
v -6.5 7 11.5
v 6.5 7 11.5
v -6.5 7 8.5
v 6.5 7 8.5
v -6.5 7 7.5
v 6.5 7 7.5
v -6.5 7 4.5
v 6.5 7 4.5
v -8.5 7 3.5
v -6.5 7 3.5
v 6.5 7 3.5
v 8.5 7 3.5
v -6.5 8 -11.5
v -5.5 8 -11.5
v 5.5 8 -11.5
v 6.5 8 -11.5
v -6.5 8 -14.5
v 6.5 8 -14.5
v -7.5 9 -9.5
v -6.5 9 -9.5
v 6.5 9 -9.5
v 7.5 9 -9.5
v -7.5 9 -10.5
v -6.5 9 -10.5
v 6.5 9 -10.5
v 7.5 9 -10.5
v -6.5 14 14.5
v 6.5 14 14.5
v -4.5 14 12.5
v 4.5 14 12.5
v -4.5 14 9.5
v 4.5 14 9.5
v -4.5 14 7.5
v 4.5 14 7.5
v -4.5 14 3.5
v 4.5 14 3.5
v -4.5 14 1.5
v 4.5 14 1.5
v -4.5 14 -2.5
v 4.5 14 -2.5
v -6.5 14 -11.5
v 6.5 14 -11.5
v -4.5 15 12.5
v 4.5 15 12.5
v -4.5 15 9.5
v 4.5 15 9.5
v -4.5 15 7.5
v 4.5 15 7.5
v -4.5 15 3.5
v 4.5 15 3.5
v -4.5 15 1.5
v 4.5 15 1.5
v -4.5 15 -2.5
v 4.5 15 -2.5

# faces
f 3/11/1 2/11/1 1/11/1
f 4/11/1 2/11/1 3/11/1
f 7/2/1 6/2/1 5/2/1
f 8/2/1 6/2/1 7/2/1
f 16/11/1 10/11/1 9/11/1
f 17/11/1 10/11/1 16/11/1
f 20/11/1 12/11/1 11/11/1
f 21/11/1 12/11/1 20/11/1
f 24/2/1 19/2/1 18/2/1
f 25/2/1 19/2/1 24/2/1
f 26/9/1 14/9/1 13/9/1
f 27/2/1 15/2/1 14/2/1
f 27/9/1 14/9/1 26/9/1
f 28/9/1 23/9/1 22/9/1
f 28/11/1 22/11/1 21/11/1
f 29/9/1 23/9/1 28/9/1
f 30/2/1 27/2/1 26/2/1
f 31/2/1 27/2/1 30/2/1
f 32/2/1 15/2/1 27/2/1
f 32/2/1 27/2/1 31/2/1
f 32/11/1 16/11/1 15/11/1
f 33/8/1 17/8/1 16/8/1
f 33/11/1 16/11/1 32/11/1
f 34/11/1 18/11/1 17/11/1
f 34/8/1 17/8/1 33/8/1
f 35/2/1 24/2/1 18/2/1
f 35/11/1 18/11/1 34/11/1
f 36/2/1 19/2/1 25/2/1
f 36/11/1 20/11/1 19/11/1
f 37/8/1 21/8/1 20/8/1
f 37/11/1 20/11/1 36/11/1
f 38/11/1 28/11/1 21/11/1
f 38/8/1 21/8/1 37/8/1
f 39/2/1 29/2/1 28/2/1
f 39/11/1 28/11/1 38/11/1
f 40/2/1 32/2/1 31/2/1
f 40/2/1 33/2/1 32/2/1
f 40/11/1 34/11/1 33/11/1
f 41/2/1 35/2/1 34/2/1
f 41/11/1 34/11/1 40/11/1
f 42/11/1 38/11/1 37/11/1
f 42/2/1 37/2/1 36/2/1
f 43/2/1 39/2/1 38/2/1
f 43/11/1 38/11/1 42/11/1
f 44/1/1 31/1/1 30/1/1
f 45/2/1 40/2/1 31/2/1
f 45/1/1 31/1/1 44/1/1
f 45/2/1 41/2/1 40/2/1
f 46/2/1 41/2/1 45/2/1
f 47/2/1 24/2/1 35/2/1
f 47/2/1 41/2/1 46/2/1
f 47/2/1 35/2/1 41/2/1
f 48/2/1 46/2/1 45/2/1
f 48/2/1 45/2/1 44/2/1
f 53/2/1 24/2/1 47/2/1
f 54/2/1 24/2/1 53/2/1
f 55/2/1 24/2/1 54/2/1
f 56/2/1 42/2/1 36/2/1
f 56/2/1 36/2/1 25/2/1
f 56/2/1 43/2/1 42/2/1
f 57/2/1 43/2/1 56/2/1
f 58/2/1 43/2/1 57/2/1
f 59/2/1 39/2/1 43/2/1
f 59/2/1 43/2/1 58/2/1
f 60/2/1 29/2/1 39/2/1
f 60/2/1 39/2/1 59/2/1
f 61/12/1 57/12/1 56/12/1
f 62/2/1 59/2/1 58/2/1
f 63/11/1 49/11/1 48/11/1
f 63/12/1 50/12/1 49/12/1
f 64/11/1 51/11/1 50/11/1
f 64/12/1 50/12/1 63/12/1
f 65/12/1 52/12/1 51/12/1
f 65/11/1 51/11/1 64/11/1
f 66/11/1 53/11/1 52/11/1
f 66/12/1 52/12/1 65/12/1
f 67/11/1 64/11/1 63/11/1
f 67/2/1 48/2/1 44/2/1
f 67/11/1 66/11/1 65/11/1
f 67/11/1 63/11/1 48/11/1
f 67/11/1 65/11/1 64/11/1
f 68/11/1 53/11/1 66/11/1
f 68/11/1 66/11/1 67/11/1
f 68/2/1 54/2/1 53/2/1
f 69/6/1 55/6/1 54/6/1
f 69/2/1 54/2/1 68/2/1
f 70/2/1 24/2/1 55/2/1
f 70/6/1 55/6/1 69/6/1
f 71/12/1 25/12/1 24/12/1
f 71/2/1 24/2/1 70/2/1
f 72/2/1 56/2/1 25/2/1
f 72/12/1 25/12/1 71/12/1
f 73/12/1 61/12/1 56/12/1
f 73/2/1 56/2/1 72/2/1
f 73/12/1 62/12/1 61/12/1
f 74/2/1 59/2/1 62/2/1
f 74/12/1 62/12/1 73/12/1
f 75/2/1 67/2/1 44/2/1
f 75/2/1 72/2/1 71/2/1
f 75/2/1 74/2/1 73/2/1
f 75/2/1 73/2/1 72/2/1
f 75/2/1 71/2/1 70/2/1
f 75/2/1 69/2/1 68/2/1
f 75/2/1 70/2/1 69/2/1
f 75/2/1 68/2/1 67/2/1
f 76/2/1 59/2/1 74/2/1
f 76/2/1 74/2/1 75/2/1
f 77/12/1 76/12/1 75/12/1
f 78/12/1 76/12/1 77/12/1
f 85/11/1 80/11/1 79/11/1
f 86/11/1 80/11/1 85/11/1
f 87/11/1 82/11/1 81/11/1
f 88/11/1 82/11/1 87/11/1
f 89/11/1 84/11/1 83/11/1
f 90/11/1 84/11/1 89/11/1
f 93/7/1 92/7/1 91/7/1
f 94/7/1 92/7/1 93/7/1
f 99/11/1 96/11/1 95/11/1
f 100/11/1 96/11/1 99/11/1
f 101/11/1 98/11/1 97/11/1
f 102/11/1 98/11/1 101/11/1
f 103/11/2 104/11/2 107/11/2
f 107/11/2 104/11/2 108/11/2
f 105/11/2 106/11/2 109/11/2
f 109/11/2 106/11/2 110/11/2
f 111/7/2 112/7/2 113/7/2
f 113/7/2 112/7/2 114/7/2
f 114/7/2 112/7/2 115/7/2
f 116/11/2 117/11/2 122/11/2
f 122/11/2 117/11/2 123/11/2
f 118/11/2 119/11/2 124/11/2
f 124/11/2 119/11/2 125/11/2
f 120/11/2 121/11/2 126/11/2
f 126/11/2 121/11/2 127/11/2
f 128/11/2 129/11/2 135/11/2
f 135/11/2 129/11/2 136/11/2
f 130/11/2 131/11/2 139/11/2
f 139/11/2 131/11/2 140/11/2
f 137/2/2 138/2/2 143/2/2
f 143/2/2 138/2/2 144/2/2
f 132/9/2 133/9/2 145/9/2
f 133/2/2 134/2/2 146/2/2
f 145/9/2 133/9/2 146/9/2
f 141/9/2 142/9/2 147/9/2
f 140/11/2 141/11/2 147/11/2
f 147/9/2 142/9/2 148/9/2
f 145/2/2 146/2/2 149/2/2
f 149/2/2 146/2/2 150/2/2
f 146/2/2 134/2/2 151/2/2
f 150/2/2 146/2/2 151/2/2
f 134/11/2 135/11/2 151/11/2
f 135/8/2 136/8/2 152/8/2
f 151/11/2 135/11/2 152/11/2
f 136/11/2 137/11/2 153/11/2
f 152/8/2 136/8/2 153/8/2
f 137/2/2 143/2/2 154/2/2
f 153/11/2 137/11/2 154/11/2
f 144/2/2 138/2/2 155/2/2
f 138/11/2 139/11/2 155/11/2
f 139/8/2 140/8/2 156/8/2
f 155/11/2 139/11/2 156/11/2
f 140/11/2 147/11/2 157/11/2
f 156/8/2 140/8/2 157/8/2
f 147/2/2 148/2/2 158/2/2
f 157/11/2 147/11/2 158/11/2
f 150/2/2 151/2/2 159/2/2
f 151/2/2 152/2/2 159/2/2
f 152/11/2 153/11/2 159/11/2
f 153/2/2 154/2/2 160/2/2
f 159/11/2 153/11/2 160/11/2
f 156/11/2 157/11/2 161/11/2
f 155/2/2 156/2/2 161/2/2
f 157/2/2 158/2/2 162/2/2
f 161/11/2 157/11/2 162/11/2
f 149/1/2 150/1/2 163/1/2
f 150/2/2 159/2/2 164/2/2
f 163/1/2 150/1/2 164/1/2
f 159/2/2 160/2/2 164/2/2
f 164/2/2 160/2/2 165/2/2
f 154/2/2 143/2/2 166/2/2
f 165/2/2 160/2/2 166/2/2
f 160/2/2 154/2/2 166/2/2
f 164/2/2 165/2/2 167/2/2
f 163/2/2 164/2/2 167/2/2
f 166/2/2 143/2/2 172/2/2
f 172/2/2 143/2/2 173/2/2
f 173/2/2 143/2/2 174/2/2
f 155/2/2 161/2/2 175/2/2
f 144/2/2 155/2/2 175/2/2
f 161/2/2 162/2/2 175/2/2
f 175/2/2 162/2/2 176/2/2
f 176/2/2 162/2/2 177/2/2
f 162/2/2 158/2/2 178/2/2
f 177/2/2 162/2/2 178/2/2
f 158/2/2 148/2/2 179/2/2
f 178/2/2 158/2/2 179/2/2
f 175/12/2 176/12/2 180/12/2
f 177/2/2 178/2/2 181/2/2
f 167/11/2 168/11/2 182/11/2
f 168/12/2 169/12/2 182/12/2
f 169/11/2 170/11/2 183/11/2
f 182/12/2 169/12/2 183/12/2
f 170/12/2 171/12/2 184/12/2
f 183/11/2 170/11/2 184/11/2
f 171/11/2 172/11/2 185/11/2
f 184/12/2 171/12/2 185/12/2
f 182/11/2 183/11/2 186/11/2
f 163/2/2 167/2/2 186/2/2
f 184/11/2 185/11/2 186/11/2
f 167/11/2 182/11/2 186/11/2
f 183/11/2 184/11/2 186/11/2
f 185/11/2 172/11/2 187/11/2
f 186/11/2 185/11/2 187/11/2
f 172/2/2 173/2/2 187/2/2
f 173/6/2 174/6/2 188/6/2
f 187/2/2 173/2/2 188/2/2
f 174/2/2 143/2/2 189/2/2
f 188/6/2 174/6/2 189/6/2
f 143/12/2 144/12/2 190/12/2
f 189/2/2 143/2/2 190/2/2
f 144/2/2 175/2/2 191/2/2
f 190/12/2 144/12/2 191/12/2
f 175/12/2 180/12/2 192/12/2
f 191/2/2 175/2/2 192/2/2
f 180/12/2 181/12/2 192/12/2
f 181/2/2 178/2/2 193/2/2
f 192/12/2 181/12/2 193/12/2
f 163/2/2 186/2/2 194/2/2
f 190/2/2 191/2/2 194/2/2
f 192/2/2 193/2/2 194/2/2
f 191/2/2 192/2/2 194/2/2
f 189/2/2 190/2/2 194/2/2
f 187/2/2 188/2/2 194/2/2
f 188/2/2 189/2/2 194/2/2
f 186/2/2 187/2/2 194/2/2
f 193/2/2 178/2/2 195/2/2
f 194/2/2 193/2/2 195/2/2
f 194/12/2 195/12/2 196/12/2
f 196/12/2 195/12/2 197/12/2
f 198/2/2 199/2/2 200/2/2
f 200/2/2 199/2/2 201/2/2
f 202/11/2 203/11/2 204/11/2
f 204/11/2 203/11/2 205/11/2
f 212/2/3 208/2/3 207/2/3
f 212/1/3 209/1/3 208/1/3
f 213/2/3 210/2/3 209/2/3
f 213/1/3 209/1/3 212/1/3
f 214/2/3 210/2/3 213/2/3
f 215/2/3 210/2/3 214/2/3
f 216/2/3 210/2/3 215/2/3
f 217/2/3 210/2/3 216/2/3
f 218/2/3 210/2/3 217/2/3
f 219/2/3 210/2/3 218/2/3
f 220/2/3 213/2/3 212/2/3
f 220/2/3 214/2/3 213/2/3
f 221/2/3 214/2/3 220/2/3
f 222/2/3 220/2/3 212/2/3
f 222/8/3 221/8/3 220/8/3
f 223/2/3 214/2/3 221/2/3
f 223/8/3 221/8/3 222/8/3
f 224/2/3 222/2/3 212/2/3
f 224/2/3 223/2/3 222/2/3
f 225/2/3 214/2/3 223/2/3
f 225/2/3 223/2/3 224/2/3
f 226/2/3 224/2/3 212/2/3
f 226/8/3 225/8/3 224/8/3
f 227/2/3 214/2/3 225/2/3
f 227/8/3 225/8/3 226/8/3
f 228/2/3 226/2/3 212/2/3
f 228/2/3 227/2/3 226/2/3
f 229/2/3 214/2/3 227/2/3
f 229/2/3 227/2/3 228/2/3
f 230/2/3 228/2/3 212/2/3
f 230/8/3 229/8/3 228/8/3
f 231/2/3 214/2/3 229/2/3
f 231/8/3 229/8/3 230/8/3
f 232/2/3 230/2/3 212/2/3
f 232/2/3 231/2/3 230/2/3
f 233/2/3 214/2/3 231/2/3
f 233/2/3 231/2/3 232/2/3
f 234/9/3 207/9/3 206/9/3
f 234/2/3 212/2/3 207/2/3
f 234/2/3 232/2/3 212/2/3
f 235/2/3 232/2/3 234/2/3
f 236/8/3 233/8/3 232/8/3
f 236/2/3 232/2/3 235/2/3
f 237/2/3 214/2/3 233/2/3
f 237/8/3 233/8/3 236/8/3
f 238/5/3 235/5/3 234/5/3
f 238/9/3 234/9/3 206/9/3
f 239/2/3 236/2/3 235/2/3
f 239/5/3 235/5/3 238/5/3
f 239/2/3 237/2/3 236/2/3
f 240/2/3 214/2/3 237/2/3
f 240/2/3 237/2/3 239/2/3
f 241/11/3 215/11/3 214/11/3
f 241/2/3 214/2/3 240/2/3
f 242/10/3 216/10/3 215/10/3
f 242/11/3 215/11/3 241/11/3
f 243/11/3 217/11/3 216/11/3
f 243/10/3 216/10/3 242/10/3
f 244/10/3 218/10/3 217/10/3
f 244/11/3 217/11/3 243/11/3
f 245/11/3 219/11/3 218/11/3
f 245/10/3 218/10/3 244/10/3
f 246/2/3 210/2/3 219/2/3
f 246/11/3 219/11/3 245/11/3
f 247/9/3 238/9/3 206/9/3
f 248/2/3 239/2/3 238/2/3
f 248/9/3 238/9/3 247/9/3
f 249/1/3 240/1/3 239/1/3
f 249/2/3 239/2/3 248/2/3
f 250/2/3 245/2/3 244/2/3
f 250/1/3 240/1/3 249/1/3
f 250/2/3 244/2/3 243/2/3
f 250/2/3 246/2/3 245/2/3
f 250/2/3 243/2/3 242/2/3
f 250/2/3 242/2/3 241/2/3
f 250/2/3 241/2/3 240/2/3
f 251/2/3 210/2/3 246/2/3
f 251/2/3 246/2/3 250/2/3
f 251/12/3 211/12/3 210/12/3
f 252/12/3 211/12/3 251/12/3
f 255/11/3 254/11/3 253/11/3
f 256/11/3 254/11/3 255/11/3
f 259/11/3 258/11/3 257/11/3
f 260/11/3 258/11/3 259/11/3
f 263/11/3 262/11/3 261/11/3
f 264/11/3 262/11/3 263/11/3
f 267/11/3 266/11/3 265/11/3
f 268/11/3 266/11/3 267/11/3
f 271/11/3 270/11/3 269/11/3
f 272/11/3 270/11/3 271/11/3
f 275/11/3 274/11/3 273/11/3
f 276/11/3 274/11/3 275/11/3
f 279/5/3 278/5/3 277/5/3
f 280/5/3 278/5/3 279/5/3
f 283/11/3 282/11/3 281/11/3
f 284/11/3 282/11/3 283/11/3
f 287/11/3 286/11/3 285/11/3
f 288/11/3 286/11/3 287/11/3
f 291/11/3 290/11/3 289/11/3
f 292/11/3 290/11/3 291/11/3
f 295/2/3 294/2/3 293/2/3
f 296/2/3 294/2/3 295/2/3
f 299/2/3 298/2/3 297/2/3
f 300/2/3 298/2/3 299/2/3
f 301/11/4 302/11/4 303/11/4
f 303/11/4 302/11/4 304/11/4
f 305/11/4 306/11/4 307/11/4
f 307/11/4 306/11/4 308/11/4
f 309/11/4 310/11/4 311/11/4
f 311/11/4 310/11/4 312/11/4
f 313/11/4 314/11/4 315/11/4
f 315/11/4 314/11/4 316/11/4
f 317/7/4 318/7/4 322/7/4
f 318/11/4 319/11/4 323/11/4
f 322/7/4 318/7/4 323/7/4
f 322/11/4 323/11/4 324/11/4
f 323/11/4 319/11/4 325/11/4
f 324/11/4 323/11/4 325/11/4
f 320/11/4 321/11/4 326/11/4
f 326/11/4 321/11/4 327/11/4
f 328/11/4 329/11/4 330/11/4
f 330/11/4 329/11/4 331/11/4
f 332/11/4 333/11/4 334/11/4
f 334/11/4 333/11/4 335/11/4
f 336/2/4 337/2/4 338/2/4
f 338/2/4 337/2/4 339/2/4
f 340/2/4 341/2/4 342/2/4
f 342/2/4 341/2/4 343/2/4
f 344/11/4 345/11/4 349/11/4
f 349/11/4 345/11/4 350/11/4
f 346/2/4 347/2/4 351/2/4
f 351/2/4 347/2/4 352/2/4
f 351/12/4 352/12/4 355/12/4
f 352/2/4 347/2/4 356/2/4
f 355/12/4 352/12/4 356/12/4
f 353/11/4 354/11/4 357/11/4
f 357/11/4 354/11/4 358/11/4
f 355/2/4 356/2/4 359/2/4
f 347/12/4 348/12/4 360/12/4
f 359/2/4 356/2/4 360/2/4
f 356/2/4 347/2/4 360/2/4
f 360/12/4 348/12/4 361/12/4
f 363/2/4 364/2/4 365/2/4
f 365/2/4 364/2/4 366/2/4
f 363/2/4 365/2/4 367/2/4
f 365/5/4 366/5/4 367/5/4
f 366/2/4 364/2/4 368/2/4
f 367/5/4 366/5/4 368/5/4
f 362/9/4 363/9/4 369/9/4
f 363/2/4 367/2/4 369/2/4
f 367/2/4 368/2/4 369/2/4
f 368/2/4 364/2/4 370/2/4
f 369/2/4 368/2/4 370/2/4
f 362/9/4 369/9/4 371/9/4
f 369/7/4 370/7/4 371/7/4
f 370/2/4 364/2/4 372/2/4
f 371/7/4 370/7/4 372/7/4
f 371/2/4 372/2/4 373/2/4
f 372/2/4 364/2/4 374/2/4
f 373/2/4 372/2/4 374/2/4
f 371/2/4 373/2/4 375/2/4
f 373/5/4 374/5/4 375/5/4
f 374/2/4 364/2/4 376/2/4
f 375/5/4 374/5/4 376/5/4
f 362/9/4 371/9/4 377/9/4
f 371/2/4 375/2/4 378/2/4
f 377/9/4 371/9/4 378/9/4
f 375/2/4 376/2/4 378/2/4
f 376/2/4 364/2/4 379/2/4
f 378/2/4 376/2/4 379/2/4
f 384/11/5 381/11/5 380/11/5
f 385/11/5 381/11/5 384/11/5
f 386/11/5 383/11/5 382/11/5
f 387/11/5 383/11/5 386/11/5
f 392/11/5 389/11/5 388/11/5
f 393/11/5 389/11/5 392/11/5
f 394/11/5 391/11/5 390/11/5
f 395/11/5 391/11/5 394/11/5
f 398/9/5 397/9/5 396/9/5
f 399/9/5 397/9/5 398/9/5
f 400/9/5 398/9/5 396/9/5
f 401/7/5 399/7/5 398/7/5
f 401/9/5 398/9/5 400/9/5
f 402/9/5 397/9/5 399/9/5
f 402/7/5 399/7/5 401/7/5
f 403/9/5 397/9/5 402/9/5
f 404/2/5 401/2/5 400/2/5
f 405/7/5 402/7/5 401/7/5
f 405/2/5 401/2/5 404/2/5
f 406/2/5 403/2/5 402/2/5
f 406/7/5 402/7/5 405/7/5
f 407/2/5 403/2/5 406/2/5
f 408/11/5 405/11/5 404/11/5
f 409/7/5 406/7/5 405/7/5
f 409/11/5 405/11/5 408/11/5
f 410/11/5 407/11/5 406/11/5
f 410/7/5 406/7/5 409/7/5
f 411/11/5 407/11/5 410/11/5
f 413/7/5 410/7/5 409/7/5
f 414/7/5 410/7/5 413/7/5
f 416/11/5 413/11/5 412/11/5
f 417/7/5 414/7/5 413/7/5
f 417/11/5 413/11/5 416/11/5
f 418/11/5 415/11/5 414/11/5
f 418/7/5 414/7/5 417/7/5
f 419/11/5 415/11/5 418/11/5
f 420/2/5 417/2/5 416/2/5
f 421/7/5 418/7/5 417/7/5
f 421/2/5 417/2/5 420/2/5
f 422/2/5 419/2/5 418/2/5
f 422/7/5 418/7/5 421/7/5
f 423/2/5 419/2/5 422/2/5
f 424/11/5 421/11/5 420/11/5
f 425/7/5 422/7/5 421/7/5
f 425/11/5 421/11/5 424/11/5
f 426/11/5 423/11/5 422/11/5
f 426/7/5 422/7/5 425/7/5
f 427/11/5 423/11/5 426/11/5
f 429/7/5 426/7/5 425/7/5
f 430/7/5 426/7/5 429/7/5
f 432/11/5 429/11/5 428/11/5
f 433/7/5 430/7/5 429/7/5
f 433/11/5 429/11/5 432/11/5
f 434/11/5 431/11/5 430/11/5
f 434/7/5 430/7/5 433/7/5
f 435/11/5 431/11/5 434/11/5
f 436/9/5 433/9/5 432/9/5
f 436/7/5 434/7/5 433/7/5
f 437/9/5 435/9/5 434/9/5
f 437/7/5 434/7/5 436/7/5
f 438/9/5 436/9/5 432/9/5
f 438/9/5 437/9/5 436/9/5
f 439/9/5 435/9/5 437/9/5
f 439/9/5 437/9/5 438/9/5
f 442/2/5 441/2/5 440/2/5
f 443/2/5 441/2/5 442/2/5
f 448/11/5 445/11/5 444/11/5
f 449/11/5 445/11/5 448/11/5
f 450/11/5 447/11/5 446/11/5
f 451/11/5 447/11/5 450/11/5
f 456/2/5 453/2/5 452/2/5
f 457/2/5 453/2/5 456/2/5
f 458/2/5 455/2/5 454/2/5
f 459/2/5 455/2/5 458/2/5
f 460/7/6 461/7/6 463/7/6
f 461/7/6 462/7/6 463/7/6
f 463/7/6 462/7/6 464/7/6
f 465/11/6 466/11/6 469/11/6
f 467/11/6 468/11/6 470/11/6
f 465/11/6 469/11/6 471/11/6
f 470/11/6 468/11/6 472/11/6
f 465/11/6 471/11/6 473/11/6
f 472/11/6 468/11/6 474/11/6
f 465/11/6 473/11/6 475/11/6
f 474/11/6 468/11/6 476/11/6
f 465/11/6 475/11/6 477/11/6
f 477/11/6 475/11/6 478/11/6
f 476/11/6 468/11/6 479/11/6
f 479/11/6 468/11/6 480/11/6
f 481/2/6 482/2/6 485/2/6
f 483/2/6 484/2/6 485/2/6
f 482/2/6 483/2/6 485/2/6
f 485/2/6 484/2/6 486/2/6
f 487/2/6 488/2/6 491/2/6
f 491/2/6 488/2/6 492/2/6
f 489/2/6 490/2/6 493/2/6
f 493/2/6 490/2/6 494/2/6
f 495/12/6 496/12/6 497/12/6
f 497/12/6 496/12/6 498/12/6
f 495/12/6 497/12/6 499/12/6
f 498/12/6 496/12/6 500/12/6
f 495/12/6 499/12/6 501/12/6
f 499/12/6 500/12/6 501/12/6
f 500/12/6 496/12/6 502/12/6
f 501/12/6 500/12/6 502/12/6
f 495/12/6 501/12/6 503/12/6
f 502/12/6 496/12/6 504/12/6
f 495/12/6 503/12/6 505/12/6
f 503/12/6 504/12/6 505/12/6
f 504/12/6 496/12/6 506/12/6
f 505/12/6 504/12/6 506/12/6
f 495/12/6 505/12/6 507/12/6
f 506/12/6 496/12/6 508/12/6
f 495/12/6 507/12/6 509/12/6
f 507/12/6 508/12/6 509/12/6
f 508/12/6 496/12/6 510/12/6
f 509/12/6 508/12/6 510/12/6
f 511/11/6 512/11/6 513/11/6
f 513/11/6 512/11/6 514/11/6
f 515/11/6 516/11/6 517/11/6
f 517/11/6 516/11/6 518/11/6
f 519/11/6 520/11/6 521/11/6
f 521/11/6 520/11/6 522/11/6
