# This file uses centimeters as units for non-parametric coordinates.

mtllib table.mtl
g default
v -83.876795 -1.000000 42.036244
v 76.123205 -1.000000 42.036244
v -83.876795 1.000000 42.036244
v 76.123205 1.000000 42.036244
v -83.876795 1.000000 -42.963756
v 76.123205 1.000000 -42.963756
v -83.876795 -1.000000 -42.963756
v 76.123205 -1.000000 -42.963756
vt 0.001892 0.668530
vt 0.331363 0.668530
vt 0.331363 0.676282
vt 0.001892 0.676282
vt 0.338728 0.668530
vt 0.668206 0.668530
vt 0.668206 0.676282
vt 0.338728 0.676282
vt 0.338727 0.331464
vt 0.338727 0.001992
vt 0.513759 0.001992
vt 0.513759 0.331464
vt 0.282420 0.335263
vt 0.611898 0.335263
vt 0.611898 0.510298
vt 0.282420 0.510298
vt 0.001893 0.001995
vt 0.331371 0.001995
vt 0.331371 0.006114
vt 0.001893 0.006114
vt 0.617722 0.664725
vt 0.617722 0.335253
vt 0.621840 0.335253
vt 0.621840 0.664725
vn 0.000000 0.000000 1.000000
vn 0.000000 0.000000 1.000000
vn 0.000000 0.000000 1.000000
vn 0.000000 0.000000 1.000000
vn 0.000000 1.000000 0.000000
vn 0.000000 1.000000 0.000000
vn 0.000000 1.000000 0.000000
vn 0.000000 1.000000 0.000000
vn 0.000000 0.000000 -1.000000
vn 0.000000 0.000000 -1.000000
vn 0.000000 0.000000 -1.000000
vn 0.000000 0.000000 -1.000000
vn 0.000000 -1.000000 0.000000
vn 0.000000 -1.000000 0.000000
vn 0.000000 -1.000000 0.000000
vn 0.000000 -1.000000 0.000000
vn 1.000000 0.000000 0.000000
vn 1.000000 0.000000 0.000000
vn 1.000000 0.000000 0.000000
vn 1.000000 0.000000 0.000000
vn -1.000000 0.000000 0.000000
vn -1.000000 0.000000 0.000000
vn -1.000000 0.000000 0.000000
vn -1.000000 0.000000 0.000000
s off
g pCube1
usemtl initialShadingGroup
f 1/17/1 2/18/2 4/19/3 3/20/4
f 3/9/5 4/10/6 6/11/7 5/12/8
f 5/21/9 6/22/10 8/23/11 7/24/12
f 7/13/13 8/14/14 2/15/15 1/16/16
f 2/1/17 8/2/18 6/3/19 4/4/20
f 7/5/21 1/6/22 3/7/23 5/8/24
g default
v 65.998729 -56.083390 36.198887
v 70.998729 -56.083390 36.198887
v 65.998729 -6.083390 36.198887
v 70.998729 -6.083390 36.198887
v 65.998729 -6.083390 31.198887
v 70.998729 -6.083390 31.198887
v 65.998729 -56.083390 31.198887
v 70.998729 -56.083390 31.198887
vt 0.480918 0.003386
vt 0.530401 0.003386
vt 0.530401 0.498221
vt 0.480918 0.498221
vt 0.054493 0.002078
vt 0.103977 0.002078
vt 0.103977 0.496916
vt 0.054493 0.496916
vt 0.535460 0.551515
vt 0.535460 0.502032
vt 0.584943 0.502032
vt 0.584943 0.551515
vt 0.213163 0.552338
vt 0.213163 0.502854
vt 0.262647 0.502854
vt 0.262647 0.552338
vt 0.001603 0.003455
vt 0.051087 0.003455
vt 0.051087 0.498293
vt 0.001603 0.498293
vt 0.475859 0.498051
vt 0.426375 0.498051
vt 0.426375 0.003216
vt 0.475859 0.003216
vn 0.000000 0.000000 1.000000
vn 0.000000 0.000000 1.000000
vn 0.000000 0.000000 1.000000
vn 0.000000 0.000000 1.000000
vn 0.000000 1.000000 0.000000
vn 0.000000 1.000000 0.000000
vn 0.000000 1.000000 0.000000
vn 0.000000 1.000000 0.000000
vn 0.000000 0.000000 -1.000000
vn 0.000000 0.000000 -1.000000
vn 0.000000 0.000000 -1.000000
vn 0.000000 0.000000 -1.000000
vn 0.000000 -1.000000 0.000000
vn 0.000000 -1.000000 0.000000
vn 0.000000 -1.000000 0.000000
vn 0.000000 -1.000000 0.000000
vn 1.000000 0.000000 0.000000
vn 1.000000 0.000000 0.000000
vn 1.000000 0.000000 0.000000
vn 1.000000 0.000000 0.000000
vn -1.000000 0.000000 0.000000
vn -1.000000 0.000000 0.000000
vn -1.000000 0.000000 0.000000
vn -1.000000 0.000000 0.000000
s off
g pCube2
usemtl initialShadingGroup
f 9/41/25 10/42/26 12/43/27 11/44/28
f 11/33/29 12/34/30 14/35/31 13/36/32
f 13/45/33 14/46/34 16/47/35 15/48/36
f 15/37/37 16/38/38 10/39/39 9/40/40
f 10/25/41 16/26/42 14/27/43 12/28/44
f 15/29/45 9/30/46 11/31/47 13/32/48
g default
v -78.001271 -6.083390 37.198887
v 71.998729 -6.083390 37.198887
v -78.001271 -1.083390 37.198887
v 71.998729 -1.083390 37.198887
v -78.001271 -1.083390 36.198887
v 71.998729 -1.083390 36.198887
v -78.001271 -6.083390 36.198887
v 71.998729 -6.083390 36.198887
vt 0.109487 0.069519
vt 0.096218 0.069519
vt 0.096218 0.003177
vt 0.109486 0.003177
vt 0.149866 0.002890
vt 0.163135 0.002890
vt 0.163135 0.069232
vt 0.149866 0.069232
vt 0.258951 0.016703
vt 0.258951 0.003435
vt 0.259039 0.003435
vt 0.259039 0.016703
vt 0.266104 0.015818
vt 0.266104 0.002550
vt 0.266192 0.002550
vt 0.266192 0.015818
vt 0.251798 0.016880
vt 0.251798 0.003612
vt 0.252240 0.003612
vt 0.252240 0.016880
vt 0.287563 0.017043
vt 0.287563 0.003775
vt 0.288005 0.003775
vt 0.288005 0.017043
vn 0.000000 0.000000 1.000000
vn 0.000000 0.000000 1.000000
vn 0.000000 0.000000 1.000000
vn 0.000000 0.000000 1.000000
vn 0.000000 1.000000 0.000000
vn 0.000000 1.000000 0.000000
vn 0.000000 1.000000 0.000000
vn 0.000000 1.000000 0.000000
vn 0.000000 0.000000 -1.000000
vn 0.000000 0.000000 -1.000000
vn 0.000000 0.000000 -1.000000
vn 0.000000 0.000000 -1.000000
vn 0.000000 -1.000000 0.000000
vn 0.000000 -1.000000 0.000000
vn 0.000000 -1.000000 0.000000
vn 0.000000 -1.000000 0.000000
vn 1.000000 0.000000 0.000000
vn 1.000000 0.000000 0.000000
vn 1.000000 0.000000 0.000000
vn 1.000000 0.000000 0.000000
vn -1.000000 0.000000 0.000000
vn -1.000000 0.000000 0.000000
vn -1.000000 0.000000 0.000000
vn -1.000000 0.000000 0.000000
s off
g pCube3
usemtl initialShadingGroup
f 17/65/49 18/66/50 20/67/51 19/68/52
f 19/57/53 20/58/54 22/59/55 21/60/56
f 21/69/57 22/70/58 24/71/59 23/72/60
f 23/61/61 24/62/62 18/63/63 17/64/64
f 18/49/65 24/50/66 22/51/67 20/52/68
f 23/53/69 17/54/70 19/55/71 21/56/72
g default
v -78.887611 -6.189528 -37.417925
v 71.112389 -6.189528 -37.417925
v -78.887611 -1.189528 -37.417925
v 71.112389 -1.189528 -37.417925
v -78.887611 -1.189528 -38.417925
v 71.112389 -1.189528 -38.417925
v -78.887611 -6.189528 -38.417925
v 71.112389 -6.189528 -38.417925
vt 0.091604 0.069519
vt 0.078335 0.069519
vt 0.078335 0.003177
vt 0.091604 0.003177
vt 0.131984 0.002890
vt 0.145252 0.002890
vt 0.145252 0.069232
vt 0.131984 0.069232
vt 0.237492 0.016703
vt 0.237492 0.003435
vt 0.237580 0.003435
vt 0.237580 0.016703
vt 0.244645 0.015818
vt 0.244645 0.002550
vt 0.244733 0.002550
vt 0.244733 0.015818
vt 0.230338 0.016880
vt 0.230338 0.003612
vt 0.230781 0.003612
vt 0.230781 0.016880
vt 0.280410 0.017043
vt 0.280410 0.003775
vt 0.280852 0.003775
vt 0.280852 0.017043
vn 0.000000 0.000000 1.000000
vn 0.000000 0.000000 1.000000
vn 0.000000 0.000000 1.000000
vn 0.000000 0.000000 1.000000
vn 0.000000 1.000000 0.000000
vn 0.000000 1.000000 0.000000
vn 0.000000 1.000000 0.000000
vn 0.000000 1.000000 0.000000
vn 0.000000 0.000000 -1.000000
vn 0.000000 0.000000 -1.000000
vn 0.000000 0.000000 -1.000000
vn 0.000000 0.000000 -1.000000
vn 0.000000 -1.000000 0.000000
vn 0.000000 -1.000000 0.000000
vn 0.000000 -1.000000 0.000000
vn 0.000000 -1.000000 0.000000
vn 1.000000 0.000000 0.000000
vn 1.000000 0.000000 0.000000
vn 1.000000 0.000000 0.000000
vn 1.000000 0.000000 0.000000
vn -1.000000 0.000000 0.000000
vn -1.000000 0.000000 0.000000
vn -1.000000 0.000000 0.000000
vn -1.000000 0.000000 0.000000
s off
g pCube4
usemtl initialShadingGroup
f 25/89/73 26/90/74 28/91/75 27/92/76
f 27/81/77 28/82/78 30/83/79 29/84/80
f 29/93/81 30/94/82 32/95/83 31/96/84
f 31/85/85 32/86/86 26/87/87 25/88/88
f 26/73/89 32/74/90 30/75/91 28/76/92
f 31/77/93 25/78/94 27/79/95 29/80/96
g default
v 70.998729 -6.083390 36.198887
v 71.998729 -6.083390 36.198887
v 70.998729 -1.083390 36.198887
v 71.998729 -1.083390 36.198887
v 70.998729 -1.083390 -38.801113
v 71.998729 -1.083390 -38.801113
v 70.998729 -6.083390 -38.801113
v 71.998729 -6.083390 -38.801113
vt 0.714961 0.016158
vt 0.714961 0.002890
vt 0.715845 0.002890
vt 0.715845 0.016158
vt 0.223185 0.015331
vt 0.223185 0.002063
vt 0.224070 0.002063
vt 0.224070 0.015331
vt 0.001440 0.002877
vt 0.014708 0.002877
vt 0.014708 0.998009
vt 0.001440 0.998009
vt 0.019322 0.001992
vt 0.032591 0.001992
vt 0.032591 0.997123
vt 0.019322 0.997123
vt 0.114101 0.002872
vt 0.127369 0.002872
vt 0.127369 0.069214
vt 0.114101 0.069214
vt 0.198900 0.070403
vt 0.185632 0.070403
vt 0.185632 0.004063
vt 0.198900 0.004063
vn 0.000000 0.000000 1.000000
vn 0.000000 0.000000 1.000000
vn 0.000000 0.000000 1.000000
vn 0.000000 0.000000 1.000000
vn 0.000000 1.000000 0.000000
vn 0.000000 1.000000 0.000000
vn 0.000000 1.000000 0.000000
vn 0.000000 1.000000 0.000000
vn 0.000000 0.000000 -1.000000
vn 0.000000 0.000000 -1.000000
vn 0.000000 0.000000 -1.000000
vn 0.000000 0.000000 -1.000000
vn 0.000000 -1.000000 0.000000
vn 0.000000 -1.000000 0.000000
vn 0.000000 -1.000000 0.000000
vn 0.000000 -1.000000 0.000000
vn 1.000000 0.000000 0.000000
vn 1.000000 0.000000 0.000000
vn 1.000000 0.000000 0.000000
vn 1.000000 0.000000 0.000000
vn -1.000000 0.000000 0.000000
vn -1.000000 0.000000 0.000000
vn -1.000000 0.000000 0.000000
vn -1.000000 0.000000 0.000000
s off
g pCube5
usemtl initialShadingGroup
f 33/113/97 34/114/98 36/115/99 35/116/100
f 35/105/101 36/106/102 38/107/103 37/108/104
f 37/117/105 38/118/106 40/119/107 39/120/108
f 39/109/109 40/110/110 34/111/111 33/112/112
f 34/97/113 40/98/114 38/99/115 36/100/116
f 39/101/117 33/102/118 35/103/119 37/104/120
g default
v -79.001271 -6.083390 37.198887
v -78.001271 -6.083390 37.198887
v -79.001271 -1.083390 37.198887
v -78.001271 -1.083390 37.198887
v -79.001271 -1.083390 -37.801113
v -78.001271 -1.083390 -37.801113
v -79.001271 -6.083390 -37.801113
v -78.001271 -6.083390 -37.801113
vt 0.720326 0.016158
vt 0.720326 0.002890
vt 0.721210 0.002890
vt 0.721210 0.016158
vt 0.273257 0.015331
vt 0.273257 0.002063
vt 0.274141 0.002063
vt 0.274141 0.015331
vt 0.038993 0.002877
vt 0.052262 0.002877
vt 0.052262 0.998009
vt 0.038993 0.998009
vt 0.058664 0.001992
vt 0.071933 0.001992
vt 0.071933 0.997123
vt 0.058664 0.997123
vt 0.167749 0.002872
vt 0.181018 0.002872
vt 0.181018 0.069214
vt 0.167749 0.069214
vt 0.216782 0.070403
vt 0.203514 0.070403
vt 0.203515 0.004063
vt 0.216783 0.004063
vn 0.000000 0.000000 1.000000
vn 0.000000 0.000000 1.000000
vn 0.000000 0.000000 1.000000
vn 0.000000 0.000000 1.000000
vn 0.000000 1.000000 0.000000
vn 0.000000 1.000000 0.000000
vn 0.000000 1.000000 0.000000
vn 0.000000 1.000000 0.000000
vn 0.000000 0.000000 -1.000000
vn 0.000000 0.000000 -1.000000
vn 0.000000 0.000000 -1.000000
vn 0.000000 0.000000 -1.000000
vn 0.000000 -1.000000 0.000000
vn 0.000000 -1.000000 0.000000
vn 0.000000 -1.000000 0.000000
vn 0.000000 -1.000000 0.000000
vn 1.000000 0.000000 0.000000
vn 1.000000 0.000000 0.000000
vn 1.000000 0.000000 0.000000
vn 1.000000 0.000000 0.000000
vn -1.000000 0.000000 0.000000
vn -1.000000 0.000000 0.000000
vn -1.000000 0.000000 0.000000
vn -1.000000 0.000000 0.000000
s off
g pCube6
usemtl initialShadingGroup
f 41/137/121 42/138/122 44/139/123 43/140/124
f 43/129/125 44/130/126 46/131/127 45/132/128
f 45/141/129 46/142/130 48/143/131 47/144/132
f 47/133/133 48/134/134 42/135/135 41/136/136
f 42/121/137 48/122/138 46/123/139 44/124/140
f 47/125/141 41/126/142 43/127/143 45/128/144
g default
v 66.112389 -56.189528 -32.417925
v 71.112389 -56.189528 -32.417925
v 66.112389 -6.189528 -32.417925
v 71.112389 -6.189528 -32.417925
v 66.112389 -6.189528 -37.417925
v 71.112389 -6.189528 -37.417925
v 66.112389 -56.189528 -37.417925
v 71.112389 -56.189528 -37.417925
vt 0.590002 0.002377
vt 0.639485 0.002377
vt 0.639485 0.497212
vt 0.590002 0.497212
vt 0.160273 0.002940
vt 0.209757 0.002940
vt 0.209757 0.497778
vt 0.160273 0.497778
vt 0.158620 0.552930
vt 0.158620 0.503447
vt 0.208104 0.503447
vt 0.208104 0.552930
vt 0.317290 0.552449
vt 0.317290 0.502965
vt 0.366774 0.502965
vt 0.366774 0.552449
vt 0.107383 0.002619
vt 0.156867 0.002619
vt 0.156867 0.497456
vt 0.107383 0.497456
vt 0.584943 0.498000
vt 0.535460 0.498000
vt 0.535460 0.003165
vt 0.584943 0.003165
vn 0.000000 0.000000 1.000000
vn 0.000000 0.000000 1.000000
vn 0.000000 0.000000 1.000000
vn 0.000000 0.000000 1.000000
vn 0.000000 1.000000 0.000000
vn 0.000000 1.000000 0.000000
vn 0.000000 1.000000 0.000000
vn 0.000000 1.000000 0.000000
vn 0.000000 0.000000 -1.000000
vn 0.000000 0.000000 -1.000000
vn 0.000000 0.000000 -1.000000
vn 0.000000 0.000000 -1.000000
vn 0.000000 -1.000000 0.000000
vn 0.000000 -1.000000 0.000000
vn 0.000000 -1.000000 0.000000
vn 0.000000 -1.000000 0.000000
vn 1.000000 0.000000 0.000000
vn 1.000000 0.000000 0.000000
vn 1.000000 0.000000 0.000000
vn 1.000000 0.000000 0.000000
vn -1.000000 0.000000 0.000000
vn -1.000000 0.000000 0.000000
vn -1.000000 0.000000 0.000000
vn -1.000000 0.000000 0.000000
s off
g pCube7
usemtl initialShadingGroup
f 49/161/145 50/162/146 52/163/147 51/164/148
f 51/153/149 52/154/150 54/155/151 53/156/152
f 53/165/153 54/166/154 56/167/155 55/168/156
f 55/157/157 56/158/158 50/159/159 49/160/160
f 50/145/161 56/146/162 54/147/163 52/148/164
f 55/149/165 49/150/166 51/151/167 53/152/168
g default
v -78.001271 -56.083390 36.198887
v -73.001271 -56.083390 36.198887
v -78.001271 -6.083390 36.198887
v -73.001271 -6.083390 36.198887
v -78.001271 -6.083390 31.198887
v -73.001271 -6.083390 31.198887
v -78.001271 -56.083390 31.198887
v -73.001271 -56.083390 31.198887
vt 0.699086 0.002377
vt 0.748570 0.002377
vt 0.748570 0.497212
vt 0.699086 0.497212
vt 0.266053 0.002377
vt 0.315537 0.002377
vt 0.315537 0.497214
vt 0.266053 0.497214
vt 0.001603 0.552061
vt 0.001603 0.502577
vt 0.051086 0.502577
vt 0.051086 0.552061
vt 0.479265 0.552547
vt 0.479265 0.503063
vt 0.528748 0.503063
vt 0.528748 0.552547
vt 0.213163 0.003314
vt 0.262647 0.003314
vt 0.262647 0.498152
vt 0.213163 0.498152
vt 0.694027 0.496827
vt 0.644544 0.496827
vt 0.644544 0.001992
vt 0.694027 0.001992
vn 0.000000 0.000000 1.000000
vn 0.000000 0.000000 1.000000
vn 0.000000 0.000000 1.000000
vn 0.000000 0.000000 1.000000
vn 0.000000 1.000000 0.000000
vn 0.000000 1.000000 0.000000
vn 0.000000 1.000000 0.000000
vn 0.000000 1.000000 0.000000
vn 0.000000 0.000000 -1.000000
vn 0.000000 0.000000 -1.000000
vn 0.000000 0.000000 -1.000000
vn 0.000000 0.000000 -1.000000
vn 0.000000 -1.000000 0.000000
vn 0.000000 -1.000000 0.000000
vn 0.000000 -1.000000 0.000000
vn 0.000000 -1.000000 0.000000
vn 1.000000 0.000000 0.000000
vn 1.000000 0.000000 0.000000
vn 1.000000 0.000000 0.000000
vn 1.000000 0.000000 0.000000
vn -1.000000 0.000000 0.000000
vn -1.000000 0.000000 0.000000
vn -1.000000 0.000000 0.000000
vn -1.000000 0.000000 0.000000
s off
g pCube8
usemtl initialShadingGroup
f 57/185/169 58/186/170 60/187/171 59/188/172
f 59/177/173 60/178/174 62/179/175 61/180/176
f 61/189/177 62/190/178 64/191/179 63/192/180
f 63/181/181 64/182/182 58/183/183 57/184/184
f 58/169/185 64/170/186 62/171/187 60/172/188
f 63/173/189 57/174/190 59/175/191 61/176/192
g default
v -78.001271 -51.083390 -32.801113
v -73.001271 -51.083390 -32.801113
v -78.001271 -1.083390 -32.801113
v -73.001271 -1.083390 -32.801113
v -78.001271 -1.083390 -37.801113
v -73.001271 -1.083390 -37.801113
v -78.001271 -51.083390 -37.801113
v -73.001271 -51.083390 -37.801113
vt 0.424723 0.503173
vt 0.474206 0.503173
vt 0.474206 0.998008
vt 0.424723 0.998008
vt 0.371833 0.002377
vt 0.421317 0.002377
vt 0.421317 0.497214
vt 0.371833 0.497214
vt 0.105730 0.552403
vt 0.105730 0.502920
vt 0.155214 0.502920
vt 0.155214 0.552403
vt 0.370180 0.551444
vt 0.370180 0.501960
vt 0.419664 0.501960
vt 0.419664 0.551444
vt 0.318943 0.003090
vt 0.368427 0.003090
vt 0.368427 0.497928
vt 0.318943 0.497928
vt 0.828419 0.501191
vt 0.778935 0.501191
vt 0.778935 0.006356
vt 0.828419 0.006356
vn 0.000000 0.000000 1.000000
vn 0.000000 0.000000 1.000000
vn 0.000000 0.000000 1.000000
vn 0.000000 0.000000 1.000000
vn 0.000000 1.000000 0.000000
vn 0.000000 1.000000 0.000000
vn 0.000000 1.000000 0.000000
vn 0.000000 1.000000 0.000000
vn 0.000000 0.000000 -1.000000
vn 0.000000 0.000000 -1.000000
vn 0.000000 0.000000 -1.000000
vn 0.000000 0.000000 -1.000000
vn 0.000000 -1.000000 0.000000
vn 0.000000 -1.000000 0.000000
vn 0.000000 -1.000000 0.000000
vn 0.000000 -1.000000 0.000000
vn 1.000000 0.000000 0.000000
vn 1.000000 0.000000 0.000000
vn 1.000000 0.000000 0.000000
vn 1.000000 0.000000 0.000000
vn -1.000000 0.000000 0.000000
vn -1.000000 0.000000 0.000000
vn -1.000000 0.000000 0.000000
vn -1.000000 0.000000 0.000000
s off
g pCube9
usemtl initialShadingGroup
f 65/209/193 66/210/194 68/211/195 67/212/196
f 67/201/197 68/202/198 70/203/199 69/204/200
f 69/213/201 70/214/202 72/215/203 71/216/204
f 71/205/205 72/206/206 66/207/207 65/208/208
f 66/193/209 72/194/210 70/195/211 68/196/212
f 71/197/213 65/198/214 67/199/215 69/200/216
