ply
format ascii 1.0
comment : 
comment : MagicaVoxel @ Ephtracy
element vertex 1340
property float x
property float y
property float z
property uchar red
property uchar green
property uchar blue
element face 1072
property list uchar int vertex_index
end_header
1 -2 6 143 143 143
2 -2 6 163 163 163
2 -1 6 129 129 129
1 -1 6 109 109 109
1.5 -1.5 6 136 136 136
-1 -2 11 56 238 255
0 -2 11 56 238 255
0 -1 11 56 238 255
-1 -1 11 56 238 255
-0.5 -1.5 11 56 238 255
-3 -2 11 56 238 255
-2 -2 11 56 238 255
-2 -1 11 56 238 255
-3 -1 11 56 238 255
-2.5 -1.5 11 56 238 255
-4 -1 6 208 208 208
-3 -1 6 161 161 161
-3 0 6 149 149 149
-4 0 6 198 198 198
-3.5 -0.5 6 179 179 179
0 -2 6 138 138 138
1 -2 6 143 143 143
1 -1 6 109 109 109
0 -1 6 105 105 105
0.5 -1.5 6 124 124 124
1 -2 11 56 238 255
2 -2 11 56 238 255
2 -1 11 56 238 255
1 -1 11 56 238 255
1.5 -1.5 11 56 238 255
2 -1 6 138 112 0
3 -1 6 180 145 0
3 0 6 172 139 0
2 0 6 132 107 0
2.5 -0.5 6 155 126 0
1 0 11 56 238 255
2 0 11 56 238 255
2 1 11 56 238 255
1 1 11 56 238 255
1.5 0.5 11 56 238 255
1 1 11 56 177 238
2 1 11 56 177 238
2 2 11 56 177 238
1 2 11 56 177 238
1.5 1.5 11 56 177 238
-3 0 6 149 149 149
-2 0 6 116 116 116
-2 1 6 137 137 137
-3 1 6 170 170 170
-2.5 0.5 6 143 143 143
0 1 11 56 238 255
1 1 11 56 238 255
1 2 11 56 238 255
0 2 11 56 238 255
0.5 1.5 11 56 238 255
2 0 11 56 238 255
3 0 11 56 238 255
3 1 11 56 238 255
2 1 11 56 238 255
2.5 0.5 11 56 238 255
-3 -1 6 161 161 161
-2 -1 6 124 124 124
-2 0 6 116 116 116
-3 0 6 149 149 149
-2.5 -0.5 6 137 137 137
1 -1 11 56 238 255
2 -1 11 56 238 255
2 0 11 56 238 255
1 0 11 56 238 255
1.5 -0.5 11 56 238 255
-3 -1 11 56 238 255
-2 -1 11 56 238 255
-2 0 11 56 238 255
-3 0 11 56 238 255
-2.5 -0.5 11 56 238 255
2 -2 11 56 238 255
3 -2 11 56 238 255
3 -1 11 56 238 255
2 -1 11 56 238 255
2.5 -1.5 11 56 238 255
-3 -2 6 197 197 197
-2 -2 6 162 162 162
-2 -1 6 124 124 124
-3 -1 6 161 161 161
-2.5 -1.5 6 161 161 161
-1 -2 6 142 142 142
0 -2 6 138 138 138
0 -1 6 105 105 105
-1 -1 6 108 108 108
-0.5 -1.5 6 123 123 123
0 0 11 56 238 255
1 0 11 56 238 255
1 1 11 56 238 255
0 1 11 56 238 255
0.5 0.5 11 56 238 255
0 -1 11 56 238 255
1 -1 11 56 238 255
1 0 11 56 238 255
0 0 11 56 238 255
0.5 -0.5 11 56 238 255
-2 0 11 56 238 255
-1 0 11 56 238 255
-1 1 11 56 238 255
-2 1 11 56 238 255
-1.5 0.5 11 56 238 255
-1 1 11 56 238 255
0 1 11 56 238 255
0 2 11 56 238 255
-1 2 11 56 238 255
-0.5 1.5 11 56 238 255
-1 0 11 56 238 255
0 0 11 56 238 255
0 1 11 56 238 255
-1 1 11 56 238 255
-0.5 0.5 11 56 238 255
2 0 6 132 107 0
3 0 6 172 139 0
3 1 6 195 157 0
2 1 6 153 124 0
2.5 0.5 6 163 132 0
3 -1 6 168 168 168
4 -1 6 213 213 213
4 0 6 212 212 212
3 0 6 161 161 161
3.5 -0.5 6 188 188 188
-2 -2 6 162 162 162
-1 -2 6 142 142 142
-1 -1 6 108 108 108
-2 -1 6 124 124 124
-1.5 -1.5 6 134 134 134
-2 -1 11 56 238 255
-1 -1 11 56 238 255
-1 0 11 56 238 255
-2 0 11 56 238 255
-1.5 -0.5 11 56 238 255
2 -1 11 56 238 255
3 -1 11 56 238 255
3 0 11 56 238 255
2 0 11 56 238 255
2.5 -0.5 11 56 238 255
0 -2 11 56 238 255
1 -2 11 56 238 255
1 -1 11 56 238 255
0 -1 11 56 238 255
0.5 -1.5 11 56 238 255
-1 -1 11 56 238 255
0 -1 11 56 238 255
0 0 11 56 238 255
-1 0 11 56 238 255
-0.5 -0.5 11 56 238 255
-2 -2 11 56 238 255
-1 -2 11 56 238 255
-1 -1 11 56 238 255
-2 -1 11 56 238 255
-1.5 -1.5 11 56 238 255
-2 1 11 56 177 238
-1 1 11 56 177 238
-1 2 11 56 177 238
-2 2 11 56 177 238
-1.5 1.5 11 56 177 238
2 -2 6 174 141 0
3 -2 6 211 171 0
3 -1 6 180 145 0
2 -1 6 138 112 0
2.5 -1.5 6 176 142 0
-3 0 11 56 238 255
-2 0 11 56 238 255
-2 1 11 56 238 255
-3 1 11 56 238 255
-2.5 0.5 11 56 238 255
3 -2 7 46 199 246
3 -1 7 46 196 242
3 -1 8 48 206 255
3 -2 8 48 206 255
3 -1.5 7.5 47 202 249
3 -1 1 172 139 0
3 0 1 166 134 0
3 0 2 153 124 0
3 -1 2 163 132 0
3 -0.5 1.5 164 132 0
3 -2 9 49 210 255
3 -1 9 49 210 255
3 -1 10 50 213 255
3 -2 10 50 213 255
3 -1.5 9.5 49 212 255
3 -2 4 193 156 0
3 -1 4 174 141 0
3 -1 5 187 151 0
3 -2 5 206 166 0
3 -1.5 4.5 190 154 0
3 -2 8 48 206 255
3 -1 8 48 206 255
3 -1 9 49 210 255
3 -2 9 49 210 255
3 -1.5 8.5 49 208 255
4 -1 2 40 127 170
4 0 2 40 126 170
4 0 3 41 132 178
4 -1 3 41 132 178
4 -0.5 2.5 41 129 174
3 0 7 46 197 243
3 1 7 47 200 248
3 1 8 48 207 255
3 0 8 48 206 255
3 0.5 7.5 47 203 250
3 -2 3 185 150 0
3 -1 3 167 135 0
3 -1 4 174 141 0
3 -2 4 193 156 0
3 -1.5 3.5 180 146 0
3 -1 8 48 206 255
3 0 8 48 206 255
3 0 9 49 209 255
3 -1 9 49 210 255
3 -0.5 8.5 49 208 255
3 0 4 159 129 0
3 1 4 185 150 0
3 1 5 198 161 0
3 0 5 174 141 0
3 0.5 4.5 179 145 0
3 -1 9 49 210 255
3 0 9 49 209 255
3 0 10 50 213 255
3 -1 10 50 213 255
3 -0.5 9.5 49 211 255
3 -2 2 186 150 0
3 -1 2 163 132 0
3 -1 3 167 135 0
3 -2 3 185 150 0
3 -1.5 2.5 175 142 0
2 -1 6 26 112 138
2 0 6 25 107 132
2 0 7 25 107 132
2 -1 7 26 112 138
2 -0.5 6.5 25 109 135
2 1 10 36 117 157
2 2 10 42 133 179
2 2 11 46 146 196
2 1 11 43 137 183
2 1.5 10.5 42 133 179
3 0 9 49 209 255
3 1 9 49 210 255
3 1 10 50 213 255
3 0 10 50 213 255
3 0.5 9.5 49 211 255
3 0 3 153 124 0
3 1 3 178 144 0
3 1 4 185 150 0
3 0 4 159 129 0
3 0.5 3.5 169 137 0
3 0 10 50 213 255
3 1 10 50 213 255
3 1 11 50 216 255
3 0 11 50 216 255
3 0.5 10.5 50 214 255
2 -1 0 19 19 19
2 0 0 18 18 18
2 0 1 15 15 15
2 -1 1 16 16 16
2 -0.5 0.5 17 17 17
2 1 7 32 103 138
2 2 7 39 126 169
2 2 8 39 125 168
2 1 8 34 107 144
2 1.5 7.5 36 115 155
3 -2 10 50 213 255
3 -1 10 50 213 255
3 -1 11 50 216 255
3 -2 11 51 216 255
3 -1.5 10.5 50 215 255
4 -1 4 43 185 229
4 0 4 43 185 229
4 0 5 45 193 239
4 -1 5 45 194 239
4 -0.5 4.5 44 189 234
2 0 6 25 107 132
2 1 6 32 137 169
2 1 7 32 138 170
2 0 7 25 107 132
2 0.5 6.5 28 122 151
3 0 2 153 124 0
3 1 2 177 144 0
3 1 3 178 144 0
3 0 3 153 124 0
3 0.5 2.5 165 134 0
3 0 5 174 141 0
3 1 5 198 161 0
3 1 6 225 182 0
3 0 6 217 176 0
3 0.5 5.5 204 165 0
4 -1 5 224 224 224
4 0 5 223 223 223
4 0 6 232 232 232
4 -1 6 231 231 231
4 -0.5 5.5 228 228 228
-1 -1 1 91 91 91
-1 0 1 85 85 85
-1 0 2 73 73 73
-1 -1 2 77 77 77
-1 -0.5 1.5 82 82 82
-1 -1 0 15 15 15
-1 0 0 14 14 14
-1 0 1 11 11 11
-1 -1 1 12 12 12
-1 -0.5 0.5 13 13 13
3 0 8 48 206 255
3 1 8 48 207 255
3 1 9 49 210 255
3 0 9 49 209 255
3 0.5 8.5 49 208 255
2 1 9 34 147 182
2 2 9 40 171 212
2 2 10 42 179 221
2 1 10 36 157 194
2 1.5 9.5 38 164 202
2 1 8 34 144 178
2 2 8 39 168 207
2 2 9 40 171 212
2 1 9 34 147 182
2 1.5 8.5 37 158 195
3 -1 10 50 213 255
3 0 10 50 213 255
3 0 11 50 216 255
3 -1 11 50 216 255
3 -0.5 10.5 50 214 255
4 -1 3 41 132 178
4 0 3 41 132 178
4 0 4 43 138 185
4 -1 4 43 138 185
4 -0.5 3.5 42 135 182
3 -1 7 46 196 242
3 0 7 46 197 243
3 0 8 48 206 255
3 -1 8 48 206 255
3 -0.5 7.5 47 201 249
3 -2 5 206 166 0
3 -1 5 187 151 0
3 -1 6 220 178 0
3 -2 6 227 183 0
3 -1.5 5.5 210 170 0
2 0 1 138 112 0
2 0 2 118 96 0
3 0 2 144 116 0
3 0 1 152 123 0
2.5 0 1.5 138 112 0
-4 0 5 170 170 170
-4 0 6 180 180 180
-3 0 6 150 150 150
-3 0 5 155 155 155
-3.5 0 5.5 164 164 164
-4 0 4 33 141 174
-4 0 5 34 147 182
-3 0 5 31 134 166
-3 0 4 30 128 158
-3.5 0 4.5 32 137 170
-3 0 1 144 144 144
-3 0 2 136 136 136
-2 0 2 113 113 113
-2 0 1 131 131 131
-2.5 0 1.5 131 131 131
-4 0 2 31 100 134
-4 0 3 31 101 135
-3 0 3 28 91 123
-3 0 2 27 88 118
-3.5 0 2.5 30 95 127
3 0 2 27 86 116
3 0 3 28 90 121
4 0 3 31 101 135
4 0 2 31 100 134
3.5 0 2.5 29 94 127
2 1 7 35 151 186
2 1 8 34 146 180
3 1 8 38 163 202
3 1 7 39 169 208
2.5 1 7.5 37 157 194
2 1 4 208 168 0
2 1 5 212 172 0
3 1 5 215 174 0
3 1 4 209 169 0
2.5 1 4.5 211 171 0
-4 0 3 31 101 135
-4 0 4 33 105 141
-3 0 4 30 95 128
-3 0 3 28 91 123
-3.5 0 3.5 31 98 132
1 0 1 125 125 125
1 0 2 105 105 105
2 0 2 111 111 111
2 0 1 129 129 129
1.5 0 1.5 118 118 118
0 1 6 35 149 184
0 1 7 30 130 160
1 1 7 31 134 165
1 1 6 35 152 188
0.5 1 6.5 33 141 174
-3 1 9 38 165 204
-3 1 10 40 172 212
-2 1 10 36 155 192
-2 1 9 34 148 183
-2.5 1 9.5 37 160 198
-3 1 8 38 162 200
-3 1 9 38 165 204
-2 1 9 34 148 183
-2 1 8 34 146 180
-2.5 1 8.5 36 155 192
1 2 10 48 152 204
1 2 11 48 154 207
2 2 11 48 154 207
2 2 10 48 152 204
1.5 2 10.5 48 153 206
-3 1 5 202 202 202
-3 1 6 203 203 203
-2 1 6 190 190 190
-2 1 5 199 199 199
-2.5 1 5.5 198 198 198
-3 1 4 195 195 195
-3 1 5 202 202 202
-2 1 5 199 199 199
-2 1 4 194 194 194
-2.5 1 4.5 197 197 197
-3 1 3 187 187 187
-3 1 4 195 195 195
-2 1 4 194 194 194
-2 1 3 187 187 187
-2.5 1 3.5 191 191 191
-3 1 2 178 178 178
-3 1 3 187 187 187
-2 1 3 187 187 187
-2 1 2 178 178 178
-2.5 1 2.5 183 183 183
2 1 9 34 148 183
2 1 10 36 153 190
3 1 10 40 171 212
3 1 9 39 166 205
2.5 1 9.5 37 160 197
2 1 3 200 162 0
2 1 4 208 168 0
3 1 4 209 169 0
3 1 3 201 163 0
2.5 1 3.5 204 165 0
1 1 3 186 186 186
1 1 4 194 194 194
2 1 4 194 194 194
2 1 3 187 187 187
1.5 1 3.5 190 190 190
0 2 10 48 204 252
0 2 11 48 207 255
1 2 11 48 207 255
1 2 10 48 204 252
0.5 2 10.5 48 205 253
2 1 10 36 153 190
2 1 11 41 175 216
3 1 11 44 187 231
3 1 10 40 171 212
2.5 1 10.5 40 172 212
1 0 0 19 19 19
1 0 1 17 17 17
2 0 1 17 17 17
2 0 0 19 19 19
1.5 0 0.5 18 18 18
1 2 7 45 143 192
1 2 8 46 146 196
2 2 8 46 146 196
2 2 7 45 143 192
1.5 2 7.5 45 144 194
0 2 9 47 200 247
0 2 10 48 204 252
1 2 10 48 204 252
1 2 9 47 200 247
0.5 2 9.5 47 202 250
-3 1 7 39 167 207
-3 1 8 38 162 200
-2 1 8 34 146 180
-2 1 7 35 151 187
-2.5 1 7.5 36 157 194
0 2 7 45 191 236
0 2 8 46 196 242
1 2 8 46 196 242
1 2 7 45 192 237
0.5 2 7.5 45 194 239
3 0 4 29 126 156
3 0 5 31 132 163
4 0 5 34 148 182
4 0 4 33 141 174
3.5 0 4.5 32 137 169
-2 2 9 47 201 248
-2 2 10 48 204 252
-1 2 10 48 204 252
-1 2 9 47 200 248
-1.5 2 9.5 47 202 250
-2 2 8 46 196 242
-2 2 9 47 201 248
-1 2 9 47 200 248
-1 2 8 46 196 242
-1.5 2 8.5 46 198 245
-2 2 7 44 142 191
-2 2 8 46 146 196
-1 2 8 46 146 196
-1 2 7 44 142 191
-1.5 2 7.5 45 144 193
-1 2 10 48 204 252
-1 2 11 48 207 255
0 2 11 48 207 255
0 2 10 48 204 252
-0.5 2 10.5 48 205 253
0 1 2 177 177 177
0 1 3 186 186 186
1 1 3 186 186 186
1 1 2 177 177 177
0.5 1 2.5 182 182 182
0 1 5 196 196 196
0 1 6 173 173 173
1 1 6 176 176 176
1 1 5 197 197 197
0.5 1 5.5 185 185 185
1 1 6 35 152 188
1 1 7 31 134 165
2 1 7 35 151 186
2 1 6 38 163 202
1.5 1 6.5 35 150 185
2 1 2 190 153 0
2 1 3 200 162 0
3 1 3 201 163 0
3 1 2 191 154 0
2.5 1 2.5 195 158 0
-2 1 6 38 164 203
-2 1 7 35 151 187
-1 1 7 31 135 167
-1 1 6 35 152 188
-1.5 1 6.5 35 151 186
-2 1 5 199 199 199
-2 1 6 190 190 190
-1 1 6 176 176 176
-1 1 5 196 196 196
-1.5 1 5.5 190 190 190
-2 1 4 194 194 194
-2 1 5 199 199 199
-1 1 5 196 196 196
-1 1 4 194 194 194
-1.5 1 4.5 196 196 196
-2 1 3 187 187 187
-2 1 4 194 194 194
-1 1 4 194 194 194
-1 1 3 187 187 187
-1.5 1 3.5 190 190 190
-2 1 2 178 178 178
-2 1 3 187 187 187
-1 1 3 187 187 187
-1 1 2 177 177 177
-1.5 1 2.5 182 182 182
2 1 5 212 172 0
2 1 6 202 163 0
3 1 6 217 175 0
3 1 5 215 174 0
2.5 1 5.5 212 171 0
1 1 2 177 177 177
1 1 3 186 186 186
2 1 3 187 187 187
2 1 2 177 177 177
1.5 1 2.5 182 182 182
1 1 4 194 194 194
1 1 5 197 197 197
2 1 5 199 199 199
2 1 4 194 194 194
1.5 1 4.5 196 196 196
3 0 5 153 153 153
3 0 6 149 149 149
4 0 6 182 182 182
4 0 5 171 171 171
3.5 0 5.5 164 164 164
-1 1 2 177 177 177
-1 1 3 187 187 187
0 1 3 186 186 186
0 1 2 177 177 177
-0.5 1 2.5 182 182 182
-1 1 3 187 187 187
-1 1 4 194 194 194
0 1 4 193 193 193
0 1 3 186 186 186
-0.5 1 3.5 190 190 190
-1 1 4 194 194 194
-1 1 5 196 196 196
0 1 5 196 196 196
0 1 4 193 193 193
-0.5 1 4.5 195 195 195
-1 1 5 196 196 196
-1 1 6 176 176 176
0 1 6 173 173 173
0 1 5 196 196 196
-0.5 1 5.5 185 185 185
-1 1 6 35 152 188
-1 1 7 31 135 167
0 1 7 30 130 160
0 1 6 35 149 184
-0.5 1 6.5 33 142 175
-2 0 1 131 131 131
-2 0 2 113 113 113
-1 0 2 107 107 107
-1 0 1 127 127 127
-1.5 0 1.5 119 119 119
-2 0 0 20 20 20
-2 0 1 17 17 17
-1 0 1 17 17 17
-1 0 0 19 19 19
-1.5 0 0.5 18 18 18
2 1 8 34 146 180
2 1 9 34 148 183
3 1 9 39 166 205
3 1 8 38 163 202
2.5 1 8.5 36 156 192
1 1 5 197 197 197
1 1 6 176 176 176
2 1 6 189 189 189
2 1 5 199 199 199
1.5 1 5.5 190 190 190
0 1 4 193 193 193
0 1 5 196 196 196
1 1 5 197 197 197
1 1 4 194 194 194
0.5 1 4.5 195 195 195
0 2 8 46 196 242
0 2 9 47 200 247
1 2 9 47 200 247
1 2 8 46 196 242
0.5 2 8.5 46 198 244
1 2 9 47 200 247
1 2 10 48 204 252
2 2 10 48 204 252
2 2 9 47 200 248
1.5 2 9.5 47 202 250
1 2 8 46 196 242
1 2 9 47 200 247
2 2 9 47 200 248
2 2 8 46 196 243
1.5 2 8.5 46 198 245
3 0 3 28 90 121
3 0 4 29 94 126
4 0 4 33 105 141
4 0 3 31 101 135
3.5 0 3.5 30 97 131
-2 2 10 48 152 204
-2 2 11 48 154 207
-1 2 11 48 154 207
-1 2 10 48 152 204
-1.5 2 10.5 48 153 205
0 1 3 186 186 186
0 1 4 193 193 193
1 1 4 194 194 194
1 1 3 186 186 186
0.5 1 3.5 190 190 190
-1 2 9 47 200 248
-1 2 10 48 204 252
0 2 10 48 204 252
0 2 9 47 200 247
-0.5 2 9.5 47 202 250
-1 2 8 46 196 242
-1 2 9 47 200 248
0 2 9 47 200 247
0 2 8 46 196 242
-0.5 2 8.5 46 198 245
-1 2 7 44 191 236
-1 2 8 46 196 242
0 2 8 46 196 242
0 2 7 45 191 236
-0.5 2 7.5 45 193 239
-3 1 10 40 172 212
-3 1 11 43 186 230
-2 1 11 41 175 216
-2 1 10 36 155 192
-2.5 1 10.5 40 172 213
2 -2 7 14 61 76
2 -1 7 14 60 74
3 -1 7 15 67 83
3 -2 7 16 68 84
2.5 -1.5 7 15 64 79
2 -1 1 32 25 0
2 0 1 30 24 0
3 0 1 32 26 0
3 -1 1 32 26 0
2.5 -0.5 1 32 25 0
-3 -1 1 31 31 31
-3 0 1 31 31 31
-2 0 1 29 29 29
-2 -1 1 30 30 30
-2.5 -0.5 1 30 30 30
-4 -1 2 8 25 34
-4 0 2 7 25 33
-3 0 2 7 23 31
-3 -1 2 7 24 33
-3.5 -0.5 2 7 24 33
-3 -2 7 16 70 86
-3 -1 7 16 68 84
-2 -1 7 14 61 75
-2 -2 7 15 64 79
-2.5 -1.5 7 15 66 81
3 -1 2 7 24 32
3 0 2 7 23 31
4 0 2 8 25 34
4 -1 2 8 25 34
3.5 -0.5 2 7 24 33
2 0 7 14 60 74
2 1 7 13 59 73
3 1 7 15 65 81
3 0 7 15 65 81
2.5 0.5 7 14 62 77
2 -2 2 39 32 0
2 -1 2 38 31 0
3 -1 2 40 32 0
3 -2 2 40 32 0
2.5 -1.5 2 39 32 0
1 -2 2 37 37 37
1 -1 2 35 35 35
2 -1 2 36 36 36
2 -2 2 37 37 37
1.5 -1.5 2 36 36 36
0 -2 2 36 36 36
0 -1 2 35 35 35
1 -1 2 35 35 35
1 -2 2 37 37 37
0.5 -1.5 2 36 36 36
-1 -2 2 36 36 36
-1 -1 2 35 35 35
0 -1 2 35 35 35
0 -2 2 36 36 36
-0.5 -1.5 2 35 35 35
-2 -2 2 37 37 37
-2 -1 2 36 36 36
-1 -1 2 35 35 35
-1 -2 2 36 36 36
-1.5 -1.5 2 36 36 36
-3 -2 2 39 39 39
-3 -1 2 38 38 38
-2 -1 2 36 36 36
-2 -2 2 37 37 37
-2.5 -1.5 2 38 38 38
-3 0 2 36 36 36
-3 1 2 35 35 35
-2 1 2 33 33 33
-2 0 2 32 32 32
-2.5 0.5 2 34 34 34
1 -1 0 3 3 3
1 0 0 3 3 3
2 0 0 3 3 3
2 -1 0 3 3 3
1.5 -0.5 0 3 3 3
1 1 7 12 40 54
1 2 7 13 42 57
2 2 7 14 45 60
2 1 7 13 44 59
1.5 1.5 7 13 43 57
1 -2 7 13 56 70
1 -1 7 12 52 65
2 -1 7 14 60 74
2 -2 7 14 61 76
1.5 -1.5 7 13 57 71
-3 0 7 15 65 80
-3 1 7 15 65 80
-2 1 7 13 58 72
-2 0 7 14 59 73
-2.5 0.5 7 14 62 76
-3 -1 7 16 68 84
-3 0 7 15 65 80
-2 0 7 14 59 73
-2 -1 7 14 61 75
-2.5 -0.5 7 14 63 78
0 1 7 12 52 65
0 2 7 13 56 69
1 2 7 13 57 70
1 1 7 12 54 66
0.5 1.5 7 12 55 68
0 -2 7 13 55 68
0 -1 7 12 51 63
1 -1 7 12 52 65
1 -2 7 13 56 70
0.5 -1.5 7 12 54 66
-1 -2 7 13 58 71
-1 -1 7 12 54 66
0 -1 7 12 51 63
0 -2 7 13 55 68
-0.5 -1.5 7 12 54 67
-2 1 7 13 43 58
-2 2 7 14 45 61
-1 2 7 13 42 56
-1 1 7 12 39 53
-1.5 1.5 7 13 42 57
0 -1 2 35 35 35
0 0 2 34 34 34
1 0 2 33 33 33
1 -1 2 35 35 35
0.5 -0.5 2 34 34 34
0 0 2 34 34 34
0 1 2 34 34 34
1 1 2 33 33 33
1 0 2 33 33 33
0.5 0.5 2 34 34 34
2 0 2 34 27 0
2 1 2 35 29 0
3 1 2 38 31 0
3 0 2 38 31 0
2.5 0.5 2 36 29 0
-1 -1 2 35 35 35
-1 0 2 32 32 32
0 0 2 34 34 34
0 -1 2 35 35 35
-0.5 -0.5 2 34 34 34
-2 0 2 32 32 32
-2 1 2 33 33 33
-1 1 2 33 33 33
-1 0 2 32 32 32
-1.5 0.5 2 32 32 32
1 0 2 33 33 33
1 1 2 33 33 33
2 1 2 33 33 33
2 0 2 32 32 32
1.5 0.5 2 33 33 33
-1 0 2 32 32 32
-1 1 2 33 33 33
0 1 2 34 34 34
0 0 2 34 34 34
-0.5 0.5 2 33 33 33
-2 -1 0 3 3 3
-2 0 0 3 3 3
-1 0 0 3 3 3
-1 -1 0 3 3 3
-1.5 -0.5 0 3 3 3
-2 -2 7 15 64 79
-2 -1 7 14 61 75
-1 -1 7 12 54 66
-1 -2 7 13 58 71
-1.5 -1.5 7 13 59 73
2 -1 7 14 60 74
2 0 7 14 60 74
3 0 7 15 65 81
3 -1 7 15 67 83
2.5 -0.5 7 14 63 78
-1 1 7 12 53 66
-1 2 7 13 56 70
0 2 7 13 56 69
0 1 7 12 52 65
-0.5 1.5 7 12 54 67
-3 -2 10 47 201 249
-3 -2 11 48 204 252
-3 -1 11 47 203 251
-3 -1 10 47 201 249
-3 -1.5 10.5 47 202 250
-4 -1 5 212 212 212
-4 -1 6 218 218 218
-4 0 6 219 219 219
-4 0 5 212 212 212
-4 -0.5 5.5 215 215 215
-4 -1 4 41 176 218
-4 -1 5 43 183 226
-4 0 5 43 183 226
-4 0 4 41 176 218
-4 -0.5 4.5 42 180 222
-3 -1 1 151 151 151
-3 -1 2 144 144 144
-3 0 2 142 142 142
-3 0 1 149 149 149
-3 -0.5 1.5 146 146 146
-4 -1 2 37 119 160
-4 -1 3 39 125 169
-4 0 3 39 125 169
-4 0 2 37 119 160
-4 -0.5 2.5 38 122 164
-3 -2 7 44 188 233
-3 -2 8 45 195 241
-3 -1 8 46 195 241
-3 -1 7 43 185 229
-3 -1.5 7.5 45 191 236
-4 -1 3 39 125 169
-4 -1 4 41 131 176
-4 0 4 41 131 176
-4 0 3 39 125 169
-4 -0.5 3.5 40 128 172
1 -1 1 84 84 84
1 -1 2 73 73 73
1 0 2 75 75 75
1 0 1 85 85 85
1 -0.5 1.5 79 79 79
-3 -2 2 162 162 162
-3 -2 3 162 162 162
-3 -1 3 145 145 145
-3 -1 2 144 144 144
-3 -1.5 2.5 153 153 153
-3 0 9 46 199 246
-3 0 10 47 201 249
-3 1 10 47 201 249
-3 1 9 46 199 246
-3 0.5 9.5 47 200 247
-3 0 8 46 195 241
-3 0 9 46 199 246
-3 1 9 46 199 246
-3 1 8 46 195 241
-3 0.5 8.5 46 197 244
-3 0 5 162 162 162
-3 0 6 193 193 193
-3 1 6 200 200 200
-3 1 5 180 180 180
-3 0.5 5.5 184 184 184
-3 0 4 152 152 152
-3 0 5 162 162 162
-3 1 5 180 180 180
-3 1 4 169 169 169
-3 0.5 4.5 166 166 166
-3 0 3 144 144 144
-3 0 4 152 152 152
-3 1 4 169 169 169
-3 1 3 161 161 161
-3 0.5 3.5 157 157 157
-3 0 2 142 142 142
-3 0 3 144 144 144
-3 1 3 161 161 161
-3 1 2 159 159 159
-3 0.5 2.5 152 152 152
-3 -1 9 46 199 246
-3 -1 10 47 201 249
-3 0 10 47 201 249
-3 0 9 46 199 246
-3 -0.5 9.5 47 200 247
-3 -1 8 46 195 241
-3 -1 9 46 199 246
-3 0 9 46 199 246
-3 0 8 46 195 241
-3 -0.5 8.5 46 197 243
1 -1 0 13 13 13
1 -1 1 11 11 11
1 0 1 11 11 11
1 0 0 13 13 13
1 -0.5 0.5 12 12 12
-3 -2 9 46 198 245
-3 -2 10 47 201 249
-3 -1 10 47 201 249
-3 -1 9 46 199 246
-3 -1.5 9.5 47 200 247
-3 -2 8 45 195 241
-3 -2 9 46 198 245
-3 -1 9 46 199 246
-3 -1 8 46 195 241
-3 -1.5 8.5 46 197 243
-3 -1 10 47 201 249
-3 -1 11 47 203 251
-3 0 11 47 203 251
-3 0 10 47 201 249
-3 -0.5 10.5 47 202 250
-3 -2 5 181 181 181
-3 -2 6 201 201 201
-3 -1 6 194 194 194
-3 -1 5 163 163 163
-3 -1.5 5.5 185 185 185
-3 -2 4 170 170 170
-3 -2 5 181 181 181
-3 -1 5 163 163 163
-3 -1 4 152 152 152
-3 -1.5 4.5 166 166 166
-3 -2 3 162 162 162
-3 -2 4 170 170 170
-3 -1 4 152 152 152
-3 -1 3 145 145 145
-3 -1.5 3.5 157 157 157
-3 0 7 43 185 229
-3 0 8 46 195 241
-3 1 8 46 195 241
-3 1 7 44 189 233
-3 0.5 7.5 45 191 236
-3 -1 7 43 185 229
-3 -1 8 46 195 241
-3 0 8 46 195 241
-3 0 7 43 185 229
-3 -0.5 7.5 44 190 235
-2 1 9 35 148 184
-2 1 10 36 155 192
-2 2 10 40 173 213
-2 2 9 39 166 206
-2 1.5 9.5 37 161 199
-2 1 8 34 146 180
-2 1 9 35 148 184
-2 2 9 39 166 206
-2 2 8 38 163 202
-2 1.5 8.5 36 156 193
-2 1 7 32 104 140
-2 1 8 34 109 146
-2 2 8 38 122 163
-2 2 7 38 123 165
-2 1.5 7.5 36 114 154
-2 0 6 25 109 135
-2 0 7 25 109 135
-2 1 7 32 140 173
-2 1 6 32 138 170
-2 0.5 6.5 29 124 153
-2 -1 6 26 110 137
-2 -1 7 26 110 137
-2 0 7 25 109 135
-2 0 6 25 109 135
-2 -0.5 6.5 25 110 136
-2 -1 0 17 17 17
-2 -1 1 15 15 15
-2 0 1 15 15 15
-2 0 0 17 17 17
-2 -0.5 0.5 16 16 16
-2 1 10 36 116 155
-2 1 11 41 130 174
-2 2 11 43 139 186
-2 2 10 40 128 173
-2 1.5 10.5 40 128 172
-3 0 10 47 201 249
-3 0 11 47 203 251
-3 1 11 47 203 251
-3 1 10 47 201 249
-3 0.5 10.5 47 202 250
2 -2 7 47 201 248
3 -2 7 47 201 248
3 -2 8 48 205 254
2 -2 8 48 205 253
2.5 -2 7.5 47 203 251
1 -2 5 217 217 217
2 -2 5 218 218 218
2 -2 6 225 225 225
1 -2 6 224 224 224
1.5 -2 5.5 221 221 221
-1 -2 10 50 213 255
0 -2 10 50 213 255
0 -2 11 50 215 255
-1 -2 11 50 215 255
-0.5 -2 10.5 50 214 255
2 -1 1 141 114 0
3 -1 1 160 129 0
3 -1 2 149 121 0
2 -1 2 118 95 0
2.5 -1 1.5 142 115 0
2 -2 9 49 209 255
3 -2 9 49 209 255
3 -2 10 50 213 255
2 -2 10 50 213 255
2.5 -2 9.5 49 211 255
2 -2 4 224 182 0
3 -2 4 225 182 0
3 -2 5 233 189 0
2 -2 5 233 188 0
2.5 -2 4.5 229 185 0
2 -2 8 48 205 253
3 -2 8 48 205 254
3 -2 9 49 209 255
2 -2 9 49 209 255
2.5 -2 8.5 48 207 254
-3 -2 10 50 213 255
-2 -2 10 50 213 255
-2 -2 11 50 215 255
-3 -2 11 50 215 255
-2.5 -2 10.5 50 214 255
-4 -1 5 181 181 181
-3 -1 5 160 160 160
-3 -1 6 164 164 164
-4 -1 6 195 195 195
-3.5 -1 5.5 175 175 175
-4 -1 4 35 149 184
-3 -1 4 30 131 161
-3 -1 5 32 138 171
-4 -1 5 36 156 193
-3.5 -1 4.5 33 143 177
-3 -1 1 146 146 146
-2 -1 1 131 131 131
-2 -1 2 111 111 111
-3 -1 2 137 137 137
-2.5 -1 1.5 131 131 131
-4 -1 2 33 104 140
-3 -1 2 27 88 118
-3 -1 3 29 93 125
-4 -1 3 33 106 143
-3.5 -1 2.5 31 98 132
-3 -2 7 47 201 249
-2 -2 7 47 200 247
-2 -2 8 48 206 254
-3 -2 8 48 206 255
-2.5 -2 7.5 47 203 251
0 -2 9 49 210 255
1 -2 9 49 210 255
1 -2 10 50 213 255
0 -2 10 50 213 255
0.5 -2 9.5 49 211 255
3 -1 2 28 90 121
4 -1 2 33 105 141
4 -1 3 33 106 142
3 -1 3 30 95 128
3.5 -1 2.5 31 99 133
0 -2 5 217 217 217
1 -2 5 217 217 217
1 -2 6 224 224 224
0 -2 6 224 224 224
0.5 -2 5.5 221 221 221
2 -2 3 213 173 0
3 -2 3 214 173 0
3 -2 4 225 182 0
2 -2 4 224 182 0
2.5 -2 3.5 219 177 0
1 -2 10 50 213 255
2 -2 10 50 213 255
2 -2 11 50 216 255
1 -2 11 50 215 255
1.5 -2 10.5 50 214 255
-4 -1 3 33 106 143
-3 -1 3 29 93 125
-3 -1 4 30 97 131
-4 -1 4 35 111 149
-3.5 -1 3.5 32 102 137
2 -2 2 202 163 0
3 -2 2 202 164 0
3 -2 3 214 173 0
2 -2 3 213 173 0
2.5 -2 2.5 208 168 0
1 -2 2 189 189 189
2 -2 2 189 189 189
2 -2 3 200 200 200
1 -2 3 199 199 199
1.5 -2 2.5 194 194 194
1 -1 1 125 125 125
2 -1 1 132 132 132
2 -1 2 110 110 110
1 -1 2 103 103 103
1.5 -1 1.5 118 118 118
0 -2 2 189 189 189
1 -2 2 189 189 189
1 -2 3 199 199 199
0 -2 3 199 199 199
0.5 -2 2.5 194 194 194
-1 -2 2 189 189 189
0 -2 2 189 189 189
0 -2 3 199 199 199
-1 -2 3 199 199 199
-0.5 -2 2.5 194 194 194
-2 -2 2 190 190 190
-1 -2 2 189 189 189
-1 -2 3 199 199 199
-2 -2 3 200 200 200
-1.5 -2 2.5 195 195 195
-3 -2 2 191 191 191
-2 -2 2 190 190 190
-2 -2 3 200 200 200
-3 -2 3 201 201 201
-2.5 -2 2.5 195 195 195
1 -1 6 24 102 126
2 -1 6 25 109 135
2 -1 7 25 109 135
1 -1 7 24 102 126
1.5 -1 6.5 24 105 130
1 -1 0 20 20 20
2 -1 0 21 21 21
2 -1 1 17 17 17
1 -1 1 17 17 17
1.5 -1 0.5 19 19 19
-1 -2 3 199 199 199
0 -2 3 199 199 199
0 -2 4 209 209 209
-1 -2 4 208 208 208
-0.5 -2 3.5 204 204 204
-1 -2 4 208 208 208
0 -2 4 209 209 209
0 -2 5 217 217 217
-1 -2 5 217 217 217
-0.5 -2 4.5 213 213 213
-3 -2 9 49 210 255
-2 -2 9 49 210 255
-2 -2 10 50 213 255
-3 -2 10 50 213 255
-2.5 -2 9.5 49 212 255
-3 -2 8 48 206 255
-2 -2 8 48 206 254
-2 -2 9 49 210 255
-3 -2 9 49 210 255
-2.5 -2 8.5 49 208 254
2 -2 10 50 213 255
3 -2 10 50 213 255
3 -2 11 50 216 255
2 -2 11 50 216 255
2.5 -2 10.5 50 214 255
-3 -2 5 218 218 218
-2 -2 5 217 217 217
-2 -2 6 225 225 225
-3 -2 6 226 226 226
-2.5 -2 5.5 221 221 221
-3 -2 4 209 209 209
-2 -2 4 209 209 209
-2 -2 5 217 217 217
-3 -2 5 218 218 218
-2.5 -2 4.5 213 213 213
-3 -2 3 201 201 201
-2 -2 3 200 200 200
-2 -2 4 209 209 209
-3 -2 4 209 209 209
-2.5 -2 3.5 205 205 205
1 -2 7 47 200 247
2 -2 7 47 201 248
2 -2 8 48 205 253
1 -2 8 48 205 254
1.5 -2 7.5 47 203 251
-1 -2 5 217 217 217
0 -2 5 217 217 217
0 -2 6 224 224 224
-1 -2 6 224 224 224
-0.5 -2 5.5 221 221 221
0 -2 3 199 199 199
1 -2 3 199 199 199
1 -2 4 209 209 209
0 -2 4 209 209 209
0.5 -2 3.5 204 204 204
1 -2 9 16 16 16
2 -2 9 16 16 16
2 -2 10 16 16 16
1 -2 10 16 16 16
1.5 -2 9.5 16 16 16
3 -1 4 31 134 165
4 -1 4 35 149 184
4 -1 5 37 157 194
3 -1 5 33 141 175
3.5 -1 4.5 34 145 180
0 -2 7 47 200 247
1 -2 7 47 200 247
1 -2 8 48 205 254
0 -2 8 48 205 254
0.5 -2 7.5 47 203 250
1 -2 3 199 199 199
2 -2 3 200 200 200
2 -2 4 210 210 210
1 -2 4 209 209 209
1.5 -2 3.5 205 205 205
-1 -2 7 47 200 247
0 -2 7 47 200 247
0 -2 8 48 205 254
-1 -2 8 48 205 254
-0.5 -2 7.5 47 203 250
-1 -2 8 48 205 254
0 -2 8 48 205 254
0 -2 9 49 210 255
-1 -2 9 49 210 255
-0.5 -2 8.5 48 208 254
-1 -2 9 49 210 255
0 -2 9 49 210 255
0 -2 10 50 213 255
-1 -2 10 50 213 255
-0.5 -2 9.5 49 211 255
-1 -1 6 24 103 127
0 -1 6 24 102 126
0 -1 7 24 102 126
-1 -1 7 24 103 127
-0.5 -1 6.5 24 102 126
3 -1 5 164 164 164
4 -1 5 182 182 182
4 -1 6 195 195 195
3 -1 6 166 166 166
3.5 -1 5.5 177 177 177
-2 -1 6 26 111 138
-1 -1 6 24 103 127
-1 -1 7 24 103 127
-2 -1 7 26 111 138
-1.5 -1 6.5 25 107 132
-2 -1 1 131 131 131
-1 -1 1 126 126 126
-1 -1 2 103 103 103
-2 -1 2 111 111 111
-1.5 -1 1.5 118 118 118
-2 -1 0 21 21 21
-1 -1 0 20 20 20
-1 -1 1 17 17 17
-2 -1 1 17 17 17
-1.5 -1 0.5 19 19 19
-2 -2 9 16 16 16
-1 -2 9 16 16 16
-1 -2 10 16 16 16
-2 -2 10 16 16 16
-1.5 -2 9.5 16 16 16
-2 -2 8 16 16 16
-1 -2 8 16 16 16
-1 -2 9 16 16 16
-2 -2 9 16 16 16
-1.5 -2 8.5 16 16 16
-2 -2 7 47 200 247
-1 -2 7 47 200 247
-1 -2 8 48 205 254
-2 -2 8 48 206 254
-1.5 -2 7.5 47 203 251
0 -2 4 209 209 209
1 -2 4 209 209 209
1 -2 5 217 217 217
0 -2 5 217 217 217
0.5 -2 4.5 213 213 213
-2 -2 5 217 217 217
-1 -2 5 217 217 217
-1 -2 6 224 224 224
-2 -2 6 225 225 225
-1.5 -2 5.5 221 221 221
-2 -2 4 223 180 0
-1 -2 4 223 180 0
-1 -2 5 232 187 0
-2 -2 5 232 187 0
-1.5 -2 4.5 227 184 0
-2 -2 3 200 200 200
-1 -2 3 199 199 199
-1 -2 4 208 208 208
-2 -2 4 209 209 209
-1.5 -2 3.5 204 204 204
1 -2 4 209 209 209
2 -2 4 210 210 210
2 -2 5 218 218 218
1 -2 5 217 217 217
1.5 -2 4.5 214 214 214
3 -1 3 30 95 128
4 -1 3 33 106 142
4 -1 4 35 111 149
3 -1 4 31 100 134
3.5 -1 3.5 32 103 138
0 -2 10 50 213 255
1 -2 10 50 213 255
1 -2 11 50 215 255
0 -2 11 50 215 255
0.5 -2 10.5 50 214 255
1 -2 8 16 16 16
2 -2 8 16 16 16
2 -2 9 16 16 16
1 -2 9 16 16 16
1.5 -2 8.5 16 16 16
0 -2 8 48 205 254
1 -2 8 48 205 254
1 -2 9 49 210 255
0 -2 9 49 210 255
0.5 -2 8.5 48 208 254
-2 -2 10 50 213 255
-1 -2 10 50 213 255
-1 -2 11 50 215 255
-2 -2 11 50 215 255
-1.5 -2 10.5 50 214 255
2 -2 5 233 188 0
3 -2 5 233 189 0
3 -2 6 241 195 0
2 -2 6 240 195 0
2.5 -2 5.5 237 192 0
0 -1 6 24 102 126
1 -1 6 24 102 126
1 -1 7 24 102 126
0 -1 7 24 102 126
0.5 -1 6.5 24 102 126
3 4 0 1
3 4 1 2
3 4 2 3
3 4 3 0
3 9 5 6
3 9 6 7
3 9 7 8
3 9 8 5
3 14 10 11
3 14 11 12
3 14 12 13
3 14 13 10
3 19 15 16
3 19 16 17
3 19 17 18
3 19 18 15
3 24 20 21
3 24 21 22
3 24 22 23
3 24 23 20
3 29 25 26
3 29 26 27
3 29 27 28
3 29 28 25
3 34 30 31
3 34 31 32
3 34 32 33
3 34 33 30
3 39 35 36
3 39 36 37
3 39 37 38
3 39 38 35
3 44 40 41
3 44 41 42
3 44 42 43
3 44 43 40
3 49 45 46
3 49 46 47
3 49 47 48
3 49 48 45
3 54 50 51
3 54 51 52
3 54 52 53
3 54 53 50
3 59 55 56
3 59 56 57
3 59 57 58
3 59 58 55
3 64 60 61
3 64 61 62
3 64 62 63
3 64 63 60
3 69 65 66
3 69 66 67
3 69 67 68
3 69 68 65
3 74 70 71
3 74 71 72
3 74 72 73
3 74 73 70
3 79 75 76
3 79 76 77
3 79 77 78
3 79 78 75
3 84 80 81
3 84 81 82
3 84 82 83
3 84 83 80
3 89 85 86
3 89 86 87
3 89 87 88
3 89 88 85
3 94 90 91
3 94 91 92
3 94 92 93
3 94 93 90
3 99 95 96
3 99 96 97
3 99 97 98
3 99 98 95
3 104 100 101
3 104 101 102
3 104 102 103
3 104 103 100
3 109 105 106
3 109 106 107
3 109 107 108
3 109 108 105
3 114 110 111
3 114 111 112
3 114 112 113
3 114 113 110
3 119 115 116
3 119 116 117
3 119 117 118
3 119 118 115
3 124 120 121
3 124 121 122
3 124 122 123
3 124 123 120
3 129 125 126
3 129 126 127
3 129 127 128
3 129 128 125
3 134 130 131
3 134 131 132
3 134 132 133
3 134 133 130
3 139 135 136
3 139 136 137
3 139 137 138
3 139 138 135
3 144 140 141
3 144 141 142
3 144 142 143
3 144 143 140
3 149 145 146
3 149 146 147
3 149 147 148
3 149 148 145
3 154 150 151
3 154 151 152
3 154 152 153
3 154 153 150
3 159 155 156
3 159 156 157
3 159 157 158
3 159 158 155
3 164 160 161
3 164 161 162
3 164 162 163
3 164 163 160
3 169 165 166
3 169 166 167
3 169 167 168
3 169 168 165
3 174 170 171
3 174 171 172
3 174 172 173
3 174 173 170
3 179 175 176
3 179 176 177
3 179 177 178
3 179 178 175
3 184 180 181
3 184 181 182
3 184 182 183
3 184 183 180
3 189 185 186
3 189 186 187
3 189 187 188
3 189 188 185
3 194 190 191
3 194 191 192
3 194 192 193
3 194 193 190
3 199 195 196
3 199 196 197
3 199 197 198
3 199 198 195
3 204 200 201
3 204 201 202
3 204 202 203
3 204 203 200
3 209 205 206
3 209 206 207
3 209 207 208
3 209 208 205
3 214 210 211
3 214 211 212
3 214 212 213
3 214 213 210
3 219 215 216
3 219 216 217
3 219 217 218
3 219 218 215
3 224 220 221
3 224 221 222
3 224 222 223
3 224 223 220
3 229 225 226
3 229 226 227
3 229 227 228
3 229 228 225
3 234 230 231
3 234 231 232
3 234 232 233
3 234 233 230
3 239 235 236
3 239 236 237
3 239 237 238
3 239 238 235
3 244 240 241
3 244 241 242
3 244 242 243
3 244 243 240
3 249 245 246
3 249 246 247
3 249 247 248
3 249 248 245
3 254 250 251
3 254 251 252
3 254 252 253
3 254 253 250
3 259 255 256
3 259 256 257
3 259 257 258
3 259 258 255
3 264 260 261
3 264 261 262
3 264 262 263
3 264 263 260
3 269 265 266
3 269 266 267
3 269 267 268
3 269 268 265
3 274 270 271
3 274 271 272
3 274 272 273
3 274 273 270
3 279 275 276
3 279 276 277
3 279 277 278
3 279 278 275
3 284 280 281
3 284 281 282
3 284 282 283
3 284 283 280
3 289 285 286
3 289 286 287
3 289 287 288
3 289 288 285
3 294 290 291
3 294 291 292
3 294 292 293
3 294 293 290
3 299 295 296
3 299 296 297
3 299 297 298
3 299 298 295
3 304 300 301
3 304 301 302
3 304 302 303
3 304 303 300
3 309 305 306
3 309 306 307
3 309 307 308
3 309 308 305
3 314 310 311
3 314 311 312
3 314 312 313
3 314 313 310
3 319 315 316
3 319 316 317
3 319 317 318
3 319 318 315
3 324 320 321
3 324 321 322
3 324 322 323
3 324 323 320
3 329 325 326
3 329 326 327
3 329 327 328
3 329 328 325
3 334 330 331
3 334 331 332
3 334 332 333
3 334 333 330
3 339 335 336
3 339 336 337
3 339 337 338
3 339 338 335
3 344 340 341
3 344 341 342
3 344 342 343
3 344 343 340
3 349 345 346
3 349 346 347
3 349 347 348
3 349 348 345
3 354 350 351
3 354 351 352
3 354 352 353
3 354 353 350
3 359 355 356
3 359 356 357
3 359 357 358
3 359 358 355
3 364 360 361
3 364 361 362
3 364 362 363
3 364 363 360
3 369 365 366
3 369 366 367
3 369 367 368
3 369 368 365
3 374 370 371
3 374 371 372
3 374 372 373
3 374 373 370
3 379 375 376
3 379 376 377
3 379 377 378
3 379 378 375
3 384 380 381
3 384 381 382
3 384 382 383
3 384 383 380
3 389 385 386
3 389 386 387
3 389 387 388
3 389 388 385
3 394 390 391
3 394 391 392
3 394 392 393
3 394 393 390
3 399 395 396
3 399 396 397
3 399 397 398
3 399 398 395
3 404 400 401
3 404 401 402
3 404 402 403
3 404 403 400
3 409 405 406
3 409 406 407
3 409 407 408
3 409 408 405
3 414 410 411
3 414 411 412
3 414 412 413
3 414 413 410
3 419 415 416
3 419 416 417
3 419 417 418
3 419 418 415
3 424 420 421
3 424 421 422
3 424 422 423
3 424 423 420
3 429 425 426
3 429 426 427
3 429 427 428
3 429 428 425
3 434 430 431
3 434 431 432
3 434 432 433
3 434 433 430
3 439 435 436
3 439 436 437
3 439 437 438
3 439 438 435
3 444 440 441
3 444 441 442
3 444 442 443
3 444 443 440
3 449 445 446
3 449 446 447
3 449 447 448
3 449 448 445
3 454 450 451
3 454 451 452
3 454 452 453
3 454 453 450
3 459 455 456
3 459 456 457
3 459 457 458
3 459 458 455
3 464 460 461
3 464 461 462
3 464 462 463
3 464 463 460
3 469 465 466
3 469 466 467
3 469 467 468
3 469 468 465
3 474 470 471
3 474 471 472
3 474 472 473
3 474 473 470
3 479 475 476
3 479 476 477
3 479 477 478
3 479 478 475
3 484 480 481
3 484 481 482
3 484 482 483
3 484 483 480
3 489 485 486
3 489 486 487
3 489 487 488
3 489 488 485
3 494 490 491
3 494 491 492
3 494 492 493
3 494 493 490
3 499 495 496
3 499 496 497
3 499 497 498
3 499 498 495
3 504 500 501
3 504 501 502
3 504 502 503
3 504 503 500
3 509 505 506
3 509 506 507
3 509 507 508
3 509 508 505
3 514 510 511
3 514 511 512
3 514 512 513
3 514 513 510
3 519 515 516
3 519 516 517
3 519 517 518
3 519 518 515
3 524 520 521
3 524 521 522
3 524 522 523
3 524 523 520
3 529 525 526
3 529 526 527
3 529 527 528
3 529 528 525
3 534 530 531
3 534 531 532
3 534 532 533
3 534 533 530
3 539 535 536
3 539 536 537
3 539 537 538
3 539 538 535
3 544 540 541
3 544 541 542
3 544 542 543
3 544 543 540
3 549 545 546
3 549 546 547
3 549 547 548
3 549 548 545
3 554 550 551
3 554 551 552
3 554 552 553
3 554 553 550
3 559 555 556
3 559 556 557
3 559 557 558
3 559 558 555
3 564 560 561
3 564 561 562
3 564 562 563
3 564 563 560
3 569 565 566
3 569 566 567
3 569 567 568
3 569 568 565
3 574 570 571
3 574 571 572
3 574 572 573
3 574 573 570
3 579 575 576
3 579 576 577
3 579 577 578
3 579 578 575
3 584 580 581
3 584 581 582
3 584 582 583
3 584 583 580
3 589 585 586
3 589 586 587
3 589 587 588
3 589 588 585
3 594 590 591
3 594 591 592
3 594 592 593
3 594 593 590
3 599 595 596
3 599 596 597
3 599 597 598
3 599 598 595
3 604 600 601
3 604 601 602
3 604 602 603
3 604 603 600
3 609 605 606
3 609 606 607
3 609 607 608
3 609 608 605
3 614 610 611
3 614 611 612
3 614 612 613
3 614 613 610
3 619 615 616
3 619 616 617
3 619 617 618
3 619 618 615
3 624 620 621
3 624 621 622
3 624 622 623
3 624 623 620
3 629 625 626
3 629 626 627
3 629 627 628
3 629 628 625
3 634 630 631
3 634 631 632
3 634 632 633
3 634 633 630
3 639 635 636
3 639 636 637
3 639 637 638
3 639 638 635
3 644 640 641
3 644 641 642
3 644 642 643
3 644 643 640
3 649 645 646
3 649 646 647
3 649 647 648
3 649 648 645
3 654 650 651
3 654 651 652
3 654 652 653
3 654 653 650
3 659 655 656
3 659 656 657
3 659 657 658
3 659 658 655
3 664 660 661
3 664 661 662
3 664 662 663
3 664 663 660
3 669 665 666
3 669 666 667
3 669 667 668
3 669 668 665
3 674 670 671
3 674 671 672
3 674 672 673
3 674 673 670
3 679 675 676
3 679 676 677
3 679 677 678
3 679 678 675
3 684 680 681
3 684 681 682
3 684 682 683
3 684 683 680
3 689 685 686
3 689 686 687
3 689 687 688
3 689 688 685
3 694 690 691
3 694 691 692
3 694 692 693
3 694 693 690
3 699 695 696
3 699 696 697
3 699 697 698
3 699 698 695
3 704 700 701
3 704 701 702
3 704 702 703
3 704 703 700
3 709 705 706
3 709 706 707
3 709 707 708
3 709 708 705
3 714 710 711
3 714 711 712
3 714 712 713
3 714 713 710
3 719 715 716
3 719 716 717
3 719 717 718
3 719 718 715
3 724 720 721
3 724 721 722
3 724 722 723
3 724 723 720
3 729 725 726
3 729 726 727
3 729 727 728
3 729 728 725
3 734 730 731
3 734 731 732
3 734 732 733
3 734 733 730
3 739 735 736
3 739 736 737
3 739 737 738
3 739 738 735
3 744 740 741
3 744 741 742
3 744 742 743
3 744 743 740
3 749 745 746
3 749 746 747
3 749 747 748
3 749 748 745
3 754 750 751
3 754 751 752
3 754 752 753
3 754 753 750
3 759 755 756
3 759 756 757
3 759 757 758
3 759 758 755
3 764 760 761
3 764 761 762
3 764 762 763
3 764 763 760
3 769 765 766
3 769 766 767
3 769 767 768
3 769 768 765
3 774 770 771
3 774 771 772
3 774 772 773
3 774 773 770
3 779 775 776
3 779 776 777
3 779 777 778
3 779 778 775
3 784 780 781
3 784 781 782
3 784 782 783
3 784 783 780
3 789 785 786
3 789 786 787
3 789 787 788
3 789 788 785
3 794 790 791
3 794 791 792
3 794 792 793
3 794 793 790
3 799 795 796
3 799 796 797
3 799 797 798
3 799 798 795
3 804 800 801
3 804 801 802
3 804 802 803
3 804 803 800
3 809 805 806
3 809 806 807
3 809 807 808
3 809 808 805
3 814 810 811
3 814 811 812
3 814 812 813
3 814 813 810
3 819 815 816
3 819 816 817
3 819 817 818
3 819 818 815
3 824 820 821
3 824 821 822
3 824 822 823
3 824 823 820
3 829 825 826
3 829 826 827
3 829 827 828
3 829 828 825
3 834 830 831
3 834 831 832
3 834 832 833
3 834 833 830
3 839 835 836
3 839 836 837
3 839 837 838
3 839 838 835
3 844 840 841
3 844 841 842
3 844 842 843
3 844 843 840
3 849 845 846
3 849 846 847
3 849 847 848
3 849 848 845
3 854 850 851
3 854 851 852
3 854 852 853
3 854 853 850
3 859 855 856
3 859 856 857
3 859 857 858
3 859 858 855
3 864 860 861
3 864 861 862
3 864 862 863
3 864 863 860
3 869 865 866
3 869 866 867
3 869 867 868
3 869 868 865
3 874 870 871
3 874 871 872
3 874 872 873
3 874 873 870
3 879 875 876
3 879 876 877
3 879 877 878
3 879 878 875
3 884 880 881
3 884 881 882
3 884 882 883
3 884 883 880
3 889 885 886
3 889 886 887
3 889 887 888
3 889 888 885
3 894 890 891
3 894 891 892
3 894 892 893
3 894 893 890
3 899 895 896
3 899 896 897
3 899 897 898
3 899 898 895
3 904 900 901
3 904 901 902
3 904 902 903
3 904 903 900
3 909 905 906
3 909 906 907
3 909 907 908
3 909 908 905
3 914 910 911
3 914 911 912
3 914 912 913
3 914 913 910
3 919 915 916
3 919 916 917
3 919 917 918
3 919 918 915
3 924 920 921
3 924 921 922
3 924 922 923
3 924 923 920
3 929 925 926
3 929 926 927
3 929 927 928
3 929 928 925
3 934 930 931
3 934 931 932
3 934 932 933
3 934 933 930
3 939 935 936
3 939 936 937
3 939 937 938
3 939 938 935
3 944 940 941
3 944 941 942
3 944 942 943
3 944 943 940
3 949 945 946
3 949 946 947
3 949 947 948
3 949 948 945
3 954 950 951
3 954 951 952
3 954 952 953
3 954 953 950
3 959 955 956
3 959 956 957
3 959 957 958
3 959 958 955
3 964 960 961
3 964 961 962
3 964 962 963
3 964 963 960
3 969 965 966
3 969 966 967
3 969 967 968
3 969 968 965
3 974 970 971
3 974 971 972
3 974 972 973
3 974 973 970
3 979 975 976
3 979 976 977
3 979 977 978
3 979 978 975
3 984 980 981
3 984 981 982
3 984 982 983
3 984 983 980
3 989 985 986
3 989 986 987
3 989 987 988
3 989 988 985
3 994 990 991
3 994 991 992
3 994 992 993
3 994 993 990
3 999 995 996
3 999 996 997
3 999 997 998
3 999 998 995
3 1004 1000 1001
3 1004 1001 1002
3 1004 1002 1003
3 1004 1003 1000
3 1009 1005 1006
3 1009 1006 1007
3 1009 1007 1008
3 1009 1008 1005
3 1014 1010 1011
3 1014 1011 1012
3 1014 1012 1013
3 1014 1013 1010
3 1019 1015 1016
3 1019 1016 1017
3 1019 1017 1018
3 1019 1018 1015
3 1024 1020 1021
3 1024 1021 1022
3 1024 1022 1023
3 1024 1023 1020
3 1029 1025 1026
3 1029 1026 1027
3 1029 1027 1028
3 1029 1028 1025
3 1034 1030 1031
3 1034 1031 1032
3 1034 1032 1033
3 1034 1033 1030
3 1039 1035 1036
3 1039 1036 1037
3 1039 1037 1038
3 1039 1038 1035
3 1044 1040 1041
3 1044 1041 1042
3 1044 1042 1043
3 1044 1043 1040
3 1049 1045 1046
3 1049 1046 1047
3 1049 1047 1048
3 1049 1048 1045
3 1054 1050 1051
3 1054 1051 1052
3 1054 1052 1053
3 1054 1053 1050
3 1059 1055 1056
3 1059 1056 1057
3 1059 1057 1058
3 1059 1058 1055
3 1064 1060 1061
3 1064 1061 1062
3 1064 1062 1063
3 1064 1063 1060
3 1069 1065 1066
3 1069 1066 1067
3 1069 1067 1068
3 1069 1068 1065
3 1074 1070 1071
3 1074 1071 1072
3 1074 1072 1073
3 1074 1073 1070
3 1079 1075 1076
3 1079 1076 1077
3 1079 1077 1078
3 1079 1078 1075
3 1084 1080 1081
3 1084 1081 1082
3 1084 1082 1083
3 1084 1083 1080
3 1089 1085 1086
3 1089 1086 1087
3 1089 1087 1088
3 1089 1088 1085
3 1094 1090 1091
3 1094 1091 1092
3 1094 1092 1093
3 1094 1093 1090
3 1099 1095 1096
3 1099 1096 1097
3 1099 1097 1098
3 1099 1098 1095
3 1104 1100 1101
3 1104 1101 1102
3 1104 1102 1103
3 1104 1103 1100
3 1109 1105 1106
3 1109 1106 1107
3 1109 1107 1108
3 1109 1108 1105
3 1114 1110 1111
3 1114 1111 1112
3 1114 1112 1113
3 1114 1113 1110
3 1119 1115 1116
3 1119 1116 1117
3 1119 1117 1118
3 1119 1118 1115
3 1124 1120 1121
3 1124 1121 1122
3 1124 1122 1123
3 1124 1123 1120
3 1129 1125 1126
3 1129 1126 1127
3 1129 1127 1128
3 1129 1128 1125
3 1134 1130 1131
3 1134 1131 1132
3 1134 1132 1133
3 1134 1133 1130
3 1139 1135 1136
3 1139 1136 1137
3 1139 1137 1138
3 1139 1138 1135
3 1144 1140 1141
3 1144 1141 1142
3 1144 1142 1143
3 1144 1143 1140
3 1149 1145 1146
3 1149 1146 1147
3 1149 1147 1148
3 1149 1148 1145
3 1154 1150 1151
3 1154 1151 1152
3 1154 1152 1153
3 1154 1153 1150
3 1159 1155 1156
3 1159 1156 1157
3 1159 1157 1158
3 1159 1158 1155
3 1164 1160 1161
3 1164 1161 1162
3 1164 1162 1163
3 1164 1163 1160
3 1169 1165 1166
3 1169 1166 1167
3 1169 1167 1168
3 1169 1168 1165
3 1174 1170 1171
3 1174 1171 1172
3 1174 1172 1173
3 1174 1173 1170
3 1179 1175 1176
3 1179 1176 1177
3 1179 1177 1178
3 1179 1178 1175
3 1184 1180 1181
3 1184 1181 1182
3 1184 1182 1183
3 1184 1183 1180
3 1189 1185 1186
3 1189 1186 1187
3 1189 1187 1188
3 1189 1188 1185
3 1194 1190 1191
3 1194 1191 1192
3 1194 1192 1193
3 1194 1193 1190
3 1199 1195 1196
3 1199 1196 1197
3 1199 1197 1198
3 1199 1198 1195
3 1204 1200 1201
3 1204 1201 1202
3 1204 1202 1203
3 1204 1203 1200
3 1209 1205 1206
3 1209 1206 1207
3 1209 1207 1208
3 1209 1208 1205
3 1214 1210 1211
3 1214 1211 1212
3 1214 1212 1213
3 1214 1213 1210
3 1219 1215 1216
3 1219 1216 1217
3 1219 1217 1218
3 1219 1218 1215
3 1224 1220 1221
3 1224 1221 1222
3 1224 1222 1223
3 1224 1223 1220
3 1229 1225 1226
3 1229 1226 1227
3 1229 1227 1228
3 1229 1228 1225
3 1234 1230 1231
3 1234 1231 1232
3 1234 1232 1233
3 1234 1233 1230
3 1239 1235 1236
3 1239 1236 1237
3 1239 1237 1238
3 1239 1238 1235
3 1244 1240 1241
3 1244 1241 1242
3 1244 1242 1243
3 1244 1243 1240
3 1249 1245 1246
3 1249 1246 1247
3 1249 1247 1248
3 1249 1248 1245
3 1254 1250 1251
3 1254 1251 1252
3 1254 1252 1253
3 1254 1253 1250
3 1259 1255 1256
3 1259 1256 1257
3 1259 1257 1258
3 1259 1258 1255
3 1264 1260 1261
3 1264 1261 1262
3 1264 1262 1263
3 1264 1263 1260
3 1269 1265 1266
3 1269 1266 1267
3 1269 1267 1268
3 1269 1268 1265
3 1274 1270 1271
3 1274 1271 1272
3 1274 1272 1273
3 1274 1273 1270
3 1279 1275 1276
3 1279 1276 1277
3 1279 1277 1278
3 1279 1278 1275
3 1284 1280 1281
3 1284 1281 1282
3 1284 1282 1283
3 1284 1283 1280
3 1289 1285 1286
3 1289 1286 1287
3 1289 1287 1288
3 1289 1288 1285
3 1294 1290 1291
3 1294 1291 1292
3 1294 1292 1293
3 1294 1293 1290
3 1299 1295 1296
3 1299 1296 1297
3 1299 1297 1298
3 1299 1298 1295
3 1304 1300 1301
3 1304 1301 1302
3 1304 1302 1303
3 1304 1303 1300
3 1309 1305 1306
3 1309 1306 1307
3 1309 1307 1308
3 1309 1308 1305
3 1314 1310 1311
3 1314 1311 1312
3 1314 1312 1313
3 1314 1313 1310
3 1319 1315 1316
3 1319 1316 1317
3 1319 1317 1318
3 1319 1318 1315
3 1324 1320 1321
3 1324 1321 1322
3 1324 1322 1323
3 1324 1323 1320
3 1329 1325 1326
3 1329 1326 1327
3 1329 1327 1328
3 1329 1328 1325
3 1334 1330 1331
3 1334 1331 1332
3 1334 1332 1333
3 1334 1333 1330
3 1339 1335 1336
3 1339 1336 1337
3 1339 1337 1338
3 1339 1338 1335
