# MagicaVoxel @ ephtracy

# material
mtllib obj_treekf.mtl
usemtl palette

# normals
vn -1 0 0
vn 1 0 0
vn 0 0 1
vn 0 0 -1
vn 0 -1 0
vn 0 1 0

# texcoords
vt 0.533203 0.5
vt 0.767578 0.5

# verts
v -1.5 8 2.5
v -1.5 8 -2.5
v -1.5 10 2.5
v -1.5 10 -2.5
v -0.5 7 1.5
v -0.5 7 -1.5
v -0.5 8 3.5
v -0.5 8 2.5
v -0.5 8 1.5
v -0.5 8 -1.5
v -0.5 8 -2.5
v -0.5 8 -3.5
v -0.5 10 3.5
v -0.5 10 2.5
v -0.5 10 1.5
v -0.5 10 -1.5
v -0.5 10 -2.5
v -0.5 10 -3.5
v -0.5 11 1.5
v -0.5 11 -1.5
v 0.5 6 1.5
v 0.5 6 -1.5
v 0.5 7 2.5
v 0.5 7 1.5
v 0.5 7 -1.5
v 0.5 7 -2.5
v 0.5 8 4.5
v 0.5 8 3.5
v 0.5 8 2.5
v 0.5 8 1.5
v 0.5 8 -1.5
v 0.5 8 -2.5
v 0.5 8 -3.5
v 0.5 8 -4.5
v 0.5 10 4.5
v 0.5 10 3.5
v 0.5 10 2.5
v 0.5 10 1.5
v 0.5 10 -1.5
v 0.5 10 -2.5
v 0.5 10 -3.5
v 0.5 10 -4.5
v 0.5 11 2.5
v 0.5 11 1.5
v 0.5 11 -1.5
v 0.5 11 -2.5
v 0.5 12 1.5
v 0.5 12 -1.5
v 1.5 0 0.5
v 1.5 0 -0.5
v 1.5 5 1.5
v 1.5 5 0.5
v 1.5 5 -0.5
v 1.5 5 -1.5
v 1.5 6 2.5
v 1.5 6 1.5
v 1.5 6 -1.5
v 1.5 6 -2.5
v 1.5 7 3.5
v 1.5 7 2.5
v 1.5 7 1.5
v 1.5 7 -1.5
v 1.5 7 -2.5
v 1.5 7 -3.5
v 1.5 8 3.5
v 1.5 8 2.5
v 1.5 8 -2.5
v 1.5 8 -3.5
v 1.5 10 3.5
v 1.5 10 2.5
v 1.5 10 -2.5
v 1.5 10 -3.5
v 1.5 11 3.5
v 1.5 11 2.5
v 1.5 11 1.5
v 1.5 11 -1.5
v 1.5 11 -2.5
v 1.5 11 -3.5
v 1.5 12 2.5
v 1.5 12 1.5
v 1.5 12 -1.5
v 1.5 12 -2.5
v 1.5 13 1.5
v 1.5 13 -1.5
v 2.5 0 1.5
v 2.5 0 0.5
v 2.5 0 -0.5
v 2.5 0 -1.5
v 2.5 5 1.5
v 2.5 5 0.5
v 2.5 5 -0.5
v 2.5 5 -1.5
v 2.5 13 0.5
v 2.5 13 -0.5
v 2.5 14 0.5
v 2.5 14 -0.5
v 3.5 0 1.5
v 3.5 0 0.5
v 3.5 0 -0.5
v 3.5 0 -1.5
v 3.5 5 1.5
v 3.5 5 0.5
v 3.5 5 -0.5
v 3.5 5 -1.5
v 3.5 13 0.5
v 3.5 13 -0.5
v 3.5 14 0.5
v 3.5 14 -0.5
v 4.5 0 0.5
v 4.5 0 -0.5
v 4.5 5 1.5
v 4.5 5 0.5
v 4.5 5 -0.5
v 4.5 5 -1.5
v 4.5 6 2.5
v 4.5 6 1.5
v 4.5 6 -1.5
v 4.5 6 -2.5
v 4.5 7 3.5
v 4.5 7 2.5
v 4.5 7 1.5
v 4.5 7 -1.5
v 4.5 7 -2.5
v 4.5 7 -3.5
v 4.5 8 3.5
v 4.5 8 2.5
v 4.5 8 -2.5
v 4.5 8 -3.5
v 4.5 10 3.5
v 4.5 10 2.5
v 4.5 10 -2.5
v 4.5 10 -3.5
v 4.5 11 3.5
v 4.5 11 2.5
v 4.5 11 1.5
v 4.5 11 -1.5
v 4.5 11 -2.5
v 4.5 11 -3.5
v 4.5 12 2.5
v 4.5 12 1.5
v 4.5 12 -1.5
v 4.5 12 -2.5
v 4.5 13 1.5
v 4.5 13 -1.5
v 5.5 6 1.5
v 5.5 6 -1.5
v 5.5 7 2.5
v 5.5 7 1.5
v 5.5 7 -1.5
v 5.5 7 -2.5
v 5.5 8 4.5
v 5.5 8 3.5
v 5.5 8 2.5
v 5.5 8 1.5
v 5.5 8 -1.5
v 5.5 8 -2.5
v 5.5 8 -3.5
v 5.5 8 -4.5
v 5.5 10 4.5
v 5.5 10 3.5
v 5.5 10 2.5
v 5.5 10 1.5
v 5.5 10 -1.5
v 5.5 10 -2.5
v 5.5 10 -3.5
v 5.5 10 -4.5
v 5.5 11 2.5
v 5.5 11 1.5
v 5.5 11 -1.5
v 5.5 11 -2.5
v 5.5 12 1.5
v 5.5 12 -1.5
v 6.5 7 1.5
v 6.5 7 -1.5
v 6.5 8 3.5
v 6.5 8 2.5
v 6.5 8 1.5
v 6.5 8 -1.5
v 6.5 8 -2.5
v 6.5 8 -3.5
v 6.5 10 3.5
v 6.5 10 2.5
v 6.5 10 1.5
v 6.5 10 -1.5
v 6.5 10 -2.5
v 6.5 10 -3.5
v 6.5 11 1.5
v 6.5 11 -1.5
v 7.5 8 2.5
v 7.5 8 -2.5
v 7.5 10 2.5
v 7.5 10 -2.5
v 0.5 8 4.5
v 0.5 10 4.5
v 5.5 8 4.5
v 5.5 10 4.5
v -0.5 8 3.5
v -0.5 10 3.5
v 0.5 8 3.5
v 0.5 10 3.5
v 1.5 7 3.5
v 1.5 8 3.5
v 1.5 10 3.5
v 1.5 11 3.5
v 4.5 7 3.5
v 4.5 8 3.5
v 4.5 10 3.5
v 4.5 11 3.5
v 5.5 8 3.5
v 5.5 10 3.5
v 6.5 8 3.5
v 6.5 10 3.5
v -1.5 8 2.5
v -1.5 10 2.5
v -0.5 8 2.5
v -0.5 10 2.5
v 0.5 7 2.5
v 0.5 8 2.5
v 0.5 10 2.5
v 0.5 11 2.5
v 1.5 6 2.5
v 1.5 7 2.5
v 1.5 8 2.5
v 1.5 10 2.5
v 1.5 11 2.5
v 1.5 12 2.5
v 4.5 6 2.5
v 4.5 7 2.5
v 4.5 8 2.5
v 4.5 10 2.5
v 4.5 11 2.5
v 4.5 12 2.5
v 5.5 7 2.5
v 5.5 8 2.5
v 5.5 10 2.5
v 5.5 11 2.5
v 6.5 8 2.5
v 6.5 10 2.5
v 7.5 8 2.5
v 7.5 10 2.5
v -0.5 7 1.5
v -0.5 8 1.5
v -0.5 10 1.5
v -0.5 11 1.5
v 0.5 6 1.5
v 0.5 7 1.5
v 0.5 8 1.5
v 0.5 10 1.5
v 0.5 11 1.5
v 0.5 12 1.5
v 1.5 5 1.5
v 1.5 6 1.5
v 1.5 7 1.5
v 1.5 11 1.5
v 1.5 12 1.5
v 1.5 13 1.5
v 2.5 0 1.5
v 2.5 5 1.5
v 3.5 0 1.5
v 3.5 5 1.5
v 4.5 5 1.5
v 4.5 6 1.5
v 4.5 7 1.5
v 4.5 11 1.5
v 4.5 12 1.5
v 4.5 13 1.5
v 5.5 6 1.5
v 5.5 7 1.5
v 5.5 8 1.5
v 5.5 10 1.5
v 5.5 11 1.5
v 5.5 12 1.5
v 6.5 7 1.5
v 6.5 8 1.5
v 6.5 10 1.5
v 6.5 11 1.5
v 1.5 0 0.5
v 1.5 5 0.5
v 2.5 0 0.5
v 2.5 5 0.5
v 2.5 13 0.5
v 2.5 14 0.5
v 3.5 0 0.5
v 3.5 5 0.5
v 3.5 13 0.5
v 3.5 14 0.5
v 4.5 0 0.5
v 4.5 5 0.5
v 1.5 0 -0.5
v 1.5 5 -0.5
v 2.5 0 -0.5
v 2.5 5 -0.5
v 2.5 13 -0.5
v 2.5 14 -0.5
v 3.5 0 -0.5
v 3.5 5 -0.5
v 3.5 13 -0.5
v 3.5 14 -0.5
v 4.5 0 -0.5
v 4.5 5 -0.5
v -0.5 7 -1.5
v -0.5 8 -1.5
v -0.5 10 -1.5
v -0.5 11 -1.5
v 0.5 6 -1.5
v 0.5 7 -1.5
v 0.5 8 -1.5
v 0.5 10 -1.5
v 0.5 11 -1.5
v 0.5 12 -1.5
v 1.5 5 -1.5
v 1.5 6 -1.5
v 1.5 7 -1.5
v 1.5 11 -1.5
v 1.5 12 -1.5
v 1.5 13 -1.5
v 2.5 0 -1.5
v 2.5 5 -1.5
v 3.5 0 -1.5
v 3.5 5 -1.5
v 4.5 5 -1.5
v 4.5 6 -1.5
v 4.5 7 -1.5
v 4.5 11 -1.5
v 4.5 12 -1.5
v 4.5 13 -1.5
v 5.5 6 -1.5
v 5.5 7 -1.5
v 5.5 8 -1.5
v 5.5 10 -1.5
v 5.5 11 -1.5
v 5.5 12 -1.5
v 6.5 7 -1.5
v 6.5 8 -1.5
v 6.5 10 -1.5
v 6.5 11 -1.5
v -1.5 8 -2.5
v -1.5 10 -2.5
v -0.5 8 -2.5
v -0.5 10 -2.5
v 0.5 7 -2.5
v 0.5 8 -2.5
v 0.5 10 -2.5
v 0.5 11 -2.5
v 1.5 6 -2.5
v 1.5 7 -2.5
v 1.5 8 -2.5
v 1.5 10 -2.5
v 1.5 11 -2.5
v 1.5 12 -2.5
v 4.5 6 -2.5
v 4.5 7 -2.5
v 4.5 8 -2.5
v 4.5 10 -2.5
v 4.5 11 -2.5
v 4.5 12 -2.5
v 5.5 7 -2.5
v 5.5 8 -2.5
v 5.5 10 -2.5
v 5.5 11 -2.5
v 6.5 8 -2.5
v 6.5 10 -2.5
v 7.5 8 -2.5
v 7.5 10 -2.5
v -0.5 8 -3.5
v -0.5 10 -3.5
v 0.5 8 -3.5
v 0.5 10 -3.5
v 1.5 7 -3.5
v 1.5 8 -3.5
v 1.5 10 -3.5
v 1.5 11 -3.5
v 4.5 7 -3.5
v 4.5 8 -3.5
v 4.5 10 -3.5
v 4.5 11 -3.5
v 5.5 8 -3.5
v 5.5 10 -3.5
v 6.5 8 -3.5
v 6.5 10 -3.5
v 0.5 8 -4.5
v 0.5 10 -4.5
v 5.5 8 -4.5
v 5.5 10 -4.5
v 2.5 0 1.5
v 3.5 0 1.5
v 1.5 0 0.5
v 2.5 0 0.5
v 3.5 0 0.5
v 4.5 0 0.5
v 1.5 0 -0.5
v 2.5 0 -0.5
v 3.5 0 -0.5
v 4.5 0 -0.5
v 2.5 0 -1.5
v 3.5 0 -1.5
v 1.5 5 1.5
v 2.5 5 1.5
v 3.5 5 1.5
v 4.5 5 1.5
v 1.5 5 0.5
v 2.5 5 0.5
v 3.5 5 0.5
v 4.5 5 0.5
v 1.5 5 -0.5
v 2.5 5 -0.5
v 3.5 5 -0.5
v 4.5 5 -0.5
v 1.5 5 -1.5
v 2.5 5 -1.5
v 3.5 5 -1.5
v 4.5 5 -1.5
v 1.5 6 2.5
v 4.5 6 2.5
v 0.5 6 1.5
v 1.5 6 1.5
v 4.5 6 1.5
v 5.5 6 1.5
v 0.5 6 -1.5
v 1.5 6 -1.5
v 4.5 6 -1.5
v 5.5 6 -1.5
v 1.5 6 -2.5
v 4.5 6 -2.5
v 1.5 7 3.5
v 4.5 7 3.5
v 0.5 7 2.5
v 1.5 7 2.5
v 4.5 7 2.5
v 5.5 7 2.5
v -0.5 7 1.5
v 0.5 7 1.5
v 1.5 7 1.5
v 4.5 7 1.5
v 5.5 7 1.5
v 6.5 7 1.5
v -0.5 7 -1.5
v 0.5 7 -1.5
v 1.5 7 -1.5
v 4.5 7 -1.5
v 5.5 7 -1.5
v 6.5 7 -1.5
v 0.5 7 -2.5
v 1.5 7 -2.5
v 4.5 7 -2.5
v 5.5 7 -2.5
v 1.5 7 -3.5
v 4.5 7 -3.5
v 0.5 8 4.5
v 5.5 8 4.5
v -0.5 8 3.5
v 0.5 8 3.5
v 1.5 8 3.5
v 4.5 8 3.5
v 5.5 8 3.5
v 6.5 8 3.5
v -1.5 8 2.5
v -0.5 8 2.5
v 0.5 8 2.5
v 1.5 8 2.5
v 4.5 8 2.5
v 5.5 8 2.5
v 6.5 8 2.5
v 7.5 8 2.5
v -0.5 8 1.5
v 0.5 8 1.5
v 5.5 8 1.5
v 6.5 8 1.5
v -0.5 8 -1.5
v 0.5 8 -1.5
v 5.5 8 -1.5
v 6.5 8 -1.5
v -1.5 8 -2.5
v -0.5 8 -2.5
v 0.5 8 -2.5
v 1.5 8 -2.5
v 4.5 8 -2.5
v 5.5 8 -2.5
v 6.5 8 -2.5
v 7.5 8 -2.5
v -0.5 8 -3.5
v 0.5 8 -3.5
v 1.5 8 -3.5
v 4.5 8 -3.5
v 5.5 8 -3.5
v 6.5 8 -3.5
v 0.5 8 -4.5
v 5.5 8 -4.5
v 0.5 10 4.5
v 5.5 10 4.5
v -0.5 10 3.5
v 0.5 10 3.5
v 1.5 10 3.5
v 4.5 10 3.5
v 5.5 10 3.5
v 6.5 10 3.5
v -1.5 10 2.5
v -0.5 10 2.5
v 0.5 10 2.5
v 1.5 10 2.5
v 4.5 10 2.5
v 5.5 10 2.5
v 6.5 10 2.5
v 7.5 10 2.5
v -0.5 10 1.5
v 0.5 10 1.5
v 5.5 10 1.5
v 6.5 10 1.5
v -0.5 10 -1.5
v 0.5 10 -1.5
v 5.5 10 -1.5
v 6.5 10 -1.5
v -1.5 10 -2.5
v -0.5 10 -2.5
v 0.5 10 -2.5
v 1.5 10 -2.5
v 4.5 10 -2.5
v 5.5 10 -2.5
v 6.5 10 -2.5
v 7.5 10 -2.5
v -0.5 10 -3.5
v 0.5 10 -3.5
v 1.5 10 -3.5
v 4.5 10 -3.5
v 5.5 10 -3.5
v 6.5 10 -3.5
v 0.5 10 -4.5
v 5.5 10 -4.5
v 1.5 11 3.5
v 4.5 11 3.5
v 0.5 11 2.5
v 1.5 11 2.5
v 4.5 11 2.5
v 5.5 11 2.5
v -0.5 11 1.5
v 0.5 11 1.5
v 1.5 11 1.5
v 4.5 11 1.5
v 5.5 11 1.5
v 6.5 11 1.5
v -0.5 11 -1.5
v 0.5 11 -1.5
v 1.5 11 -1.5
v 4.5 11 -1.5
v 5.5 11 -1.5
v 6.5 11 -1.5
v 0.5 11 -2.5
v 1.5 11 -2.5
v 4.5 11 -2.5
v 5.5 11 -2.5
v 1.5 11 -3.5
v 4.5 11 -3.5
v 1.5 12 2.5
v 4.5 12 2.5
v 0.5 12 1.5
v 1.5 12 1.5
v 4.5 12 1.5
v 5.5 12 1.5
v 0.5 12 -1.5
v 1.5 12 -1.5
v 4.5 12 -1.5
v 5.5 12 -1.5
v 1.5 12 -2.5
v 4.5 12 -2.5
v 1.5 13 1.5
v 4.5 13 1.5
v 2.5 13 0.5
v 3.5 13 0.5
v 2.5 13 -0.5
v 3.5 13 -0.5
v 1.5 13 -1.5
v 4.5 13 -1.5
v 2.5 14 0.5
v 3.5 14 0.5
v 2.5 14 -0.5
v 3.5 14 -0.5

# faces
f 3/2/1 2/2/1 1/2/1
f 4/2/1 2/2/1 3/2/1
f 9/2/1 6/2/1 5/2/1
f 10/2/1 6/2/1 9/2/1
f 13/2/1 8/2/1 7/2/1
f 14/2/1 8/2/1 13/2/1
f 17/2/1 12/2/1 11/2/1
f 18/2/1 12/2/1 17/2/1
f 19/2/1 16/2/1 15/2/1
f 20/2/1 16/2/1 19/2/1
f 24/2/1 22/2/1 21/2/1
f 25/2/1 22/2/1 24/2/1
f 29/2/1 24/2/1 23/2/1
f 30/2/1 24/2/1 29/2/1
f 31/2/1 26/2/1 25/2/1
f 32/2/1 26/2/1 31/2/1
f 35/2/1 28/2/1 27/2/1
f 36/2/1 28/2/1 35/2/1
f 41/2/1 34/2/1 33/2/1
f 42/2/1 34/2/1 41/2/1
f 43/2/1 38/2/1 37/2/1
f 44/2/1 38/2/1 43/2/1
f 45/2/1 40/2/1 39/2/1
f 46/2/1 40/2/1 45/2/1
f 47/2/1 45/2/1 44/2/1
f 48/2/1 45/2/1 47/2/1
f 52/1/1 50/1/1 49/1/1
f 53/1/1 50/1/1 52/1/1
f 56/2/1 52/2/1 51/2/1
f 56/2/1 54/2/1 53/2/1
f 56/2/1 53/2/1 52/2/1
f 57/2/1 54/2/1 56/2/1
f 60/2/1 56/2/1 55/2/1
f 61/2/1 56/2/1 60/2/1
f 62/2/1 58/2/1 57/2/1
f 63/2/1 58/2/1 62/2/1
f 65/2/1 60/2/1 59/2/1
f 66/2/1 60/2/1 65/2/1
f 67/2/1 64/2/1 63/2/1
f 68/2/1 64/2/1 67/2/1
f 73/2/1 70/2/1 69/2/1
f 74/2/1 70/2/1 73/2/1
f 77/2/1 72/2/1 71/2/1
f 78/2/1 72/2/1 77/2/1
f 79/2/1 75/2/1 74/2/1
f 80/2/1 75/2/1 79/2/1
f 81/2/1 77/2/1 76/2/1
f 82/2/1 77/2/1 81/2/1
f 83/2/1 81/2/1 80/2/1
f 84/2/1 81/2/1 83/2/1
f 89/1/1 86/1/1 85/1/1
f 90/1/1 86/1/1 89/1/1
f 91/1/1 88/1/1 87/1/1
f 92/1/1 88/1/1 91/1/1
f 95/2/1 94/2/1 93/2/1
f 96/2/1 94/2/1 95/2/1
f 97/1/2 98/1/2 101/1/2
f 101/1/2 98/1/2 102/1/2
f 99/1/2 100/1/2 103/1/2
f 103/1/2 100/1/2 104/1/2
f 105/2/2 106/2/2 107/2/2
f 107/2/2 106/2/2 108/2/2
f 109/1/2 110/1/2 112/1/2
f 112/1/2 110/1/2 113/1/2
f 111/2/2 112/2/2 116/2/2
f 113/2/2 114/2/2 116/2/2
f 112/2/2 113/2/2 116/2/2
f 116/2/2 114/2/2 117/2/2
f 115/2/2 116/2/2 120/2/2
f 120/2/2 116/2/2 121/2/2
f 117/2/2 118/2/2 122/2/2
f 122/2/2 118/2/2 123/2/2
f 119/2/2 120/2/2 125/2/2
f 125/2/2 120/2/2 126/2/2
f 123/2/2 124/2/2 127/2/2
f 127/2/2 124/2/2 128/2/2
f 129/2/2 130/2/2 133/2/2
f 133/2/2 130/2/2 134/2/2
f 131/2/2 132/2/2 137/2/2
f 137/2/2 132/2/2 138/2/2
f 134/2/2 135/2/2 139/2/2
f 139/2/2 135/2/2 140/2/2
f 136/2/2 137/2/2 141/2/2
f 141/2/2 137/2/2 142/2/2
f 140/2/2 141/2/2 143/2/2
f 143/2/2 141/2/2 144/2/2
f 145/2/2 146/2/2 148/2/2
f 148/2/2 146/2/2 149/2/2
f 147/2/2 148/2/2 153/2/2
f 153/2/2 148/2/2 154/2/2
f 149/2/2 150/2/2 155/2/2
f 155/2/2 150/2/2 156/2/2
f 151/2/2 152/2/2 159/2/2
f 159/2/2 152/2/2 160/2/2
f 157/2/2 158/2/2 165/2/2
f 165/2/2 158/2/2 166/2/2
f 161/2/2 162/2/2 167/2/2
f 167/2/2 162/2/2 168/2/2
f 163/2/2 164/2/2 169/2/2
f 169/2/2 164/2/2 170/2/2
f 168/2/2 169/2/2 171/2/2
f 171/2/2 169/2/2 172/2/2
f 173/2/2 174/2/2 177/2/2
f 177/2/2 174/2/2 178/2/2
f 175/2/2 176/2/2 181/2/2
f 181/2/2 176/2/2 182/2/2
f 179/2/2 180/2/2 185/2/2
f 185/2/2 180/2/2 186/2/2
f 183/2/2 184/2/2 187/2/2
f 187/2/2 184/2/2 188/2/2
f 189/2/2 190/2/2 191/2/2
f 191/2/2 190/2/2 192/2/2
f 195/2/3 194/2/3 193/2/3
f 196/2/3 194/2/3 195/2/3
f 199/2/3 198/2/3 197/2/3
f 200/2/3 198/2/3 199/2/3
f 205/2/3 202/2/3 201/2/3
f 206/2/3 202/2/3 205/2/3
f 207/2/3 204/2/3 203/2/3
f 208/2/3 204/2/3 207/2/3
f 211/2/3 210/2/3 209/2/3
f 212/2/3 210/2/3 211/2/3
f 215/2/3 214/2/3 213/2/3
f 216/2/3 214/2/3 215/2/3
f 222/2/3 218/2/3 217/2/3
f 223/2/3 218/2/3 222/2/3
f 224/2/3 220/2/3 219/2/3
f 225/2/3 220/2/3 224/2/3
f 227/2/3 222/2/3 221/2/3
f 228/2/3 222/2/3 227/2/3
f 231/2/3 226/2/3 225/2/3
f 232/2/3 226/2/3 231/2/3
f 233/2/3 229/2/3 228/2/3
f 234/2/3 229/2/3 233/2/3
f 235/2/3 231/2/3 230/2/3
f 236/2/3 231/2/3 235/2/3
f 239/2/3 238/2/3 237/2/3
f 240/2/3 238/2/3 239/2/3
f 246/2/3 242/2/3 241/2/3
f 247/2/3 242/2/3 246/2/3
f 248/2/3 244/2/3 243/2/3
f 249/2/3 244/2/3 248/2/3
f 252/2/3 246/2/3 245/2/3
f 253/2/3 246/2/3 252/2/3
f 254/2/3 250/2/3 249/2/3
f 255/2/3 250/2/3 254/2/3
f 258/2/3 252/2/3 251/2/3
f 259/1/3 258/1/3 257/1/3
f 260/2/3 252/2/3 258/2/3
f 260/1/3 258/1/3 259/1/3
f 261/2/3 252/2/3 260/2/3
f 262/2/3 252/2/3 261/2/3
f 265/2/3 256/2/3 255/2/3
f 266/2/3 256/2/3 265/2/3
f 267/2/3 263/2/3 262/2/3
f 268/2/3 263/2/3 267/2/3
f 271/2/3 265/2/3 264/2/3
f 272/2/3 265/2/3 271/2/3
f 273/2/3 269/2/3 268/2/3
f 274/2/3 269/2/3 273/2/3
f 275/2/3 271/2/3 270/2/3
f 276/2/3 271/2/3 275/2/3
f 279/1/3 278/1/3 277/1/3
f 280/1/3 278/1/3 279/1/3
f 285/2/3 282/2/3 281/2/3
f 286/2/3 282/2/3 285/2/3
f 287/1/3 284/1/3 283/1/3
f 288/1/3 284/1/3 287/1/3
f 289/1/4 290/1/4 291/1/4
f 291/1/4 290/1/4 292/1/4
f 293/2/4 294/2/4 297/2/4
f 297/2/4 294/2/4 298/2/4
f 295/1/4 296/1/4 299/1/4
f 299/1/4 296/1/4 300/1/4
f 301/2/4 302/2/4 306/2/4
f 306/2/4 302/2/4 307/2/4
f 303/2/4 304/2/4 308/2/4
f 308/2/4 304/2/4 309/2/4
f 305/2/4 306/2/4 312/2/4
f 312/2/4 306/2/4 313/2/4
f 309/2/4 310/2/4 314/2/4
f 314/2/4 310/2/4 315/2/4
f 311/2/4 312/2/4 318/2/4
f 317/1/4 318/1/4 319/1/4
f 318/2/4 312/2/4 320/2/4
f 319/1/4 318/1/4 320/1/4
f 320/2/4 312/2/4 321/2/4
f 321/2/4 312/2/4 322/2/4
f 315/2/4 316/2/4 325/2/4
f 325/2/4 316/2/4 326/2/4
f 322/2/4 323/2/4 327/2/4
f 327/2/4 323/2/4 328/2/4
f 324/2/4 325/2/4 331/2/4
f 331/2/4 325/2/4 332/2/4
f 328/2/4 329/2/4 333/2/4
f 333/2/4 329/2/4 334/2/4
f 330/2/4 331/2/4 335/2/4
f 335/2/4 331/2/4 336/2/4
f 337/2/4 338/2/4 339/2/4
f 339/2/4 338/2/4 340/2/4
f 341/2/4 342/2/4 346/2/4
f 346/2/4 342/2/4 347/2/4
f 343/2/4 344/2/4 348/2/4
f 348/2/4 344/2/4 349/2/4
f 345/2/4 346/2/4 351/2/4
f 351/2/4 346/2/4 352/2/4
f 349/2/4 350/2/4 355/2/4
f 355/2/4 350/2/4 356/2/4
f 352/2/4 353/2/4 357/2/4
f 357/2/4 353/2/4 358/2/4
f 354/2/4 355/2/4 359/2/4
f 359/2/4 355/2/4 360/2/4
f 361/2/4 362/2/4 363/2/4
f 363/2/4 362/2/4 364/2/4
f 365/2/4 366/2/4 367/2/4
f 367/2/4 366/2/4 368/2/4
f 369/2/4 370/2/4 373/2/4
f 373/2/4 370/2/4 374/2/4
f 371/2/4 372/2/4 375/2/4
f 375/2/4 372/2/4 376/2/4
f 377/2/4 378/2/4 379/2/4
f 379/2/4 378/2/4 380/2/4
f 381/2/4 382/2/4 383/2/4
f 383/2/4 382/2/4 384/2/4
f 388/1/5 386/1/5 385/1/5
f 389/1/5 386/1/5 388/1/5
f 391/1/5 388/1/5 387/1/5
f 391/1/5 390/1/5 389/1/5
f 391/1/5 389/1/5 388/1/5
f 392/1/5 390/1/5 391/1/5
f 393/1/5 390/1/5 392/1/5
f 394/1/5 390/1/5 393/1/5
f 395/1/5 393/1/5 392/1/5
f 396/1/5 393/1/5 395/1/5
f 401/2/5 398/2/5 397/2/5
f 402/2/5 398/2/5 401/2/5
f 403/2/5 400/2/5 399/2/5
f 404/2/5 400/2/5 403/2/5
f 409/2/5 406/2/5 405/2/5
f 410/2/5 406/2/5 409/2/5
f 411/2/5 408/2/5 407/2/5
f 412/2/5 408/2/5 411/2/5
f 416/2/5 414/2/5 413/2/5
f 417/2/5 414/2/5 416/2/5
f 419/2/5 416/2/5 415/2/5
f 420/2/5 416/2/5 419/2/5
f 421/2/5 418/2/5 417/2/5
f 422/2/5 418/2/5 421/2/5
f 423/2/5 421/2/5 420/2/5
f 424/2/5 421/2/5 423/2/5
f 428/2/5 426/2/5 425/2/5
f 429/2/5 426/2/5 428/2/5
f 432/2/5 428/2/5 427/2/5
f 433/2/5 428/2/5 432/2/5
f 434/2/5 430/2/5 429/2/5
f 435/2/5 430/2/5 434/2/5
f 437/2/5 432/2/5 431/2/5
f 438/2/5 432/2/5 437/2/5
f 441/2/5 436/2/5 435/2/5
f 442/2/5 436/2/5 441/2/5
f 443/2/5 439/2/5 438/2/5
f 444/2/5 439/2/5 443/2/5
f 445/2/5 441/2/5 440/2/5
f 446/2/5 441/2/5 445/2/5
f 447/2/5 445/2/5 444/2/5
f 448/2/5 445/2/5 447/2/5
f 452/2/5 450/2/5 449/2/5
f 453/2/5 450/2/5 452/2/5
f 454/2/5 450/2/5 453/2/5
f 455/2/5 450/2/5 454/2/5
f 458/2/5 452/2/5 451/2/5
f 458/2/5 453/2/5 452/2/5
f 459/2/5 453/2/5 458/2/5
f 460/2/5 453/2/5 459/2/5
f 461/2/5 455/2/5 454/2/5
f 461/2/5 456/2/5 455/2/5
f 462/2/5 456/2/5 461/2/5
f 463/2/5 456/2/5 462/2/5
f 465/2/5 459/2/5 458/2/5
f 465/2/5 458/2/5 457/2/5
f 466/2/5 459/2/5 465/2/5
f 467/2/5 464/2/5 463/2/5
f 467/2/5 463/2/5 462/2/5
f 468/2/5 464/2/5 467/2/5
f 469/2/5 465/2/5 457/2/5
f 472/2/5 464/2/5 468/2/5
f 473/2/5 470/2/5 469/2/5
f 473/2/5 469/2/5 457/2/5
f 474/2/5 470/2/5 473/2/5
f 475/2/5 470/2/5 474/2/5
f 478/2/5 472/2/5 471/2/5
f 479/2/5 464/2/5 472/2/5
f 479/2/5 472/2/5 478/2/5
f 480/2/5 464/2/5 479/2/5
f 481/2/5 476/2/5 475/2/5
f 481/2/5 475/2/5 474/2/5
f 482/2/5 476/2/5 481/2/5
f 483/2/5 476/2/5 482/2/5
f 484/2/5 478/2/5 477/2/5
f 484/2/5 479/2/5 478/2/5
f 485/2/5 479/2/5 484/2/5
f 486/2/5 479/2/5 485/2/5
f 487/2/5 483/2/5 482/2/5
f 487/2/5 485/2/5 484/2/5
f 487/2/5 484/2/5 483/2/5
f 488/2/5 485/2/5 487/2/5
f 489/2/6 490/2/6 492/2/6
f 492/2/6 490/2/6 493/2/6
f 493/2/6 490/2/6 494/2/6
f 494/2/6 490/2/6 495/2/6
f 491/2/6 492/2/6 498/2/6
f 492/2/6 493/2/6 498/2/6
f 498/2/6 493/2/6 499/2/6
f 499/2/6 493/2/6 500/2/6
f 494/2/6 495/2/6 501/2/6
f 495/2/6 496/2/6 501/2/6
f 501/2/6 496/2/6 502/2/6
f 502/2/6 496/2/6 503/2/6
f 498/2/6 499/2/6 505/2/6
f 497/2/6 498/2/6 505/2/6
f 505/2/6 499/2/6 506/2/6
f 503/2/6 504/2/6 507/2/6
f 502/2/6 503/2/6 507/2/6
f 507/2/6 504/2/6 508/2/6
f 497/2/6 505/2/6 509/2/6
f 508/2/6 504/2/6 512/2/6
f 509/2/6 510/2/6 513/2/6
f 497/2/6 509/2/6 513/2/6
f 513/2/6 510/2/6 514/2/6
f 514/2/6 510/2/6 515/2/6
f 511/2/6 512/2/6 518/2/6
f 512/2/6 504/2/6 519/2/6
f 518/2/6 512/2/6 519/2/6
f 519/2/6 504/2/6 520/2/6
f 515/2/6 516/2/6 521/2/6
f 514/2/6 515/2/6 521/2/6
f 521/2/6 516/2/6 522/2/6
f 522/2/6 516/2/6 523/2/6
f 517/2/6 518/2/6 524/2/6
f 518/2/6 519/2/6 524/2/6
f 524/2/6 519/2/6 525/2/6
f 525/2/6 519/2/6 526/2/6
f 522/2/6 523/2/6 527/2/6
f 524/2/6 525/2/6 527/2/6
f 523/2/6 524/2/6 527/2/6
f 527/2/6 525/2/6 528/2/6
f 529/2/6 530/2/6 532/2/6
f 532/2/6 530/2/6 533/2/6
f 531/2/6 532/2/6 536/2/6
f 536/2/6 532/2/6 537/2/6
f 533/2/6 534/2/6 538/2/6
f 538/2/6 534/2/6 539/2/6
f 535/2/6 536/2/6 541/2/6
f 541/2/6 536/2/6 542/2/6
f 539/2/6 540/2/6 545/2/6
f 545/2/6 540/2/6 546/2/6
f 542/2/6 543/2/6 547/2/6
f 547/2/6 543/2/6 548/2/6
f 544/2/6 545/2/6 549/2/6
f 549/2/6 545/2/6 550/2/6
f 548/2/6 549/2/6 551/2/6
f 551/2/6 549/2/6 552/2/6
f 553/2/6 554/2/6 556/2/6
f 556/2/6 554/2/6 557/2/6
f 555/2/6 556/2/6 559/2/6
f 559/2/6 556/2/6 560/2/6
f 557/2/6 558/2/6 561/2/6
f 561/2/6 558/2/6 562/2/6
f 560/2/6 561/2/6 563/2/6
f 563/2/6 561/2/6 564/2/6
f 565/2/6 566/2/6 567/2/6
f 567/2/6 566/2/6 568/2/6
f 565/2/6 567/2/6 569/2/6
f 568/2/6 566/2/6 570/2/6
f 565/2/6 569/2/6 571/2/6
f 569/2/6 570/2/6 571/2/6
f 570/2/6 566/2/6 572/2/6
f 571/2/6 570/2/6 572/2/6
f 573/2/6 574/2/6 575/2/6
f 575/2/6 574/2/6 576/2/6
