# MagicaVoxel @ ephtracy

# material
mtllib plate-streetv1.mtl
usemtl palette

# normals
vn -1 0 0
vn 1 0 0
vn 0 0 1
vn 0 0 -1
vn 0 -1 0
vn 0 1 0

# texcoords
vt 0.0214844 0.5
vt 0.767578 0.5
vt 0.958984 0.5
vt 0.974609 0.5

# verts
v -22.5 0 22.5
v -22.5 0 11.5
v -22.5 0 10.5
v -22.5 0 9.5
v -22.5 0 1.5
v -22.5 0 -0.5
v -22.5 0 -8.5
v -22.5 0 -9.5
v -22.5 0 -10.5
v -22.5 0 -22.5
v -22.5 1 22.5
v -22.5 1 11.5
v -22.5 1 10.5
v -22.5 1 9.5
v -22.5 1 1.5
v -22.5 1 -0.5
v -22.5 1 -8.5
v -22.5 1 -9.5
v -22.5 1 -10.5
v -22.5 1 -22.5
v 22.5 0 22.5
v 22.5 0 11.5
v 22.5 0 10.5
v 22.5 0 9.5
v 22.5 0 1.5
v 22.5 0 -0.5
v 22.5 0 -8.5
v 22.5 0 -9.5
v 22.5 0 -10.5
v 22.5 0 -22.5
v 22.5 1 22.5
v 22.5 1 11.5
v 22.5 1 10.5
v 22.5 1 9.5
v 22.5 1 1.5
v 22.5 1 -0.5
v 22.5 1 -8.5
v 22.5 1 -9.5
v 22.5 1 -10.5
v 22.5 1 -22.5
v -22.5 0 22.5
v -22.5 1 22.5
v 22.5 0 22.5
v 22.5 1 22.5
v -22.5 0 -22.5
v -22.5 1 -22.5
v 22.5 0 -22.5
v 22.5 1 -22.5
v -22.5 0 22.5
v 22.5 0 22.5
v -22.5 0 11.5
v 22.5 0 11.5
v -22.5 0 10.5
v 22.5 0 10.5
v -22.5 0 9.5
v 22.5 0 9.5
v -22.5 0 1.5
v -18.5 0 1.5
v -13.5 0 1.5
v -7.5 0 1.5
v -1.5 0 1.5
v 4.5 0 1.5
v 10.5 0 1.5
v 16.5 0 1.5
v 20.5 0 1.5
v 22.5 0 1.5
v -22.5 0 -0.5
v -18.5 0 -0.5
v -13.5 0 -0.5
v -7.5 0 -0.5
v -1.5 0 -0.5
v 4.5 0 -0.5
v 10.5 0 -0.5
v 16.5 0 -0.5
v 20.5 0 -0.5
v 22.5 0 -0.5
v -22.5 0 -8.5
v 22.5 0 -8.5
v -22.5 0 -9.5
v 22.5 0 -9.5
v -22.5 0 -10.5
v 22.5 0 -10.5
v -22.5 0 -22.5
v 22.5 0 -22.5
v -22.5 1 22.5
v 22.5 1 22.5
v -22.5 1 11.5
v 22.5 1 11.5
v -22.5 1 10.5
v 22.5 1 10.5
v -22.5 1 9.5
v 22.5 1 9.5
v -22.5 1 1.5
v -18.5 1 1.5
v -13.5 1 1.5
v -7.5 1 1.5
v -1.5 1 1.5
v 4.5 1 1.5
v 10.5 1 1.5
v 16.5 1 1.5
v 20.5 1 1.5
v 22.5 1 1.5
v -22.5 1 -0.5
v -18.5 1 -0.5
v -13.5 1 -0.5
v -7.5 1 -0.5
v -1.5 1 -0.5
v 4.5 1 -0.5
v 10.5 1 -0.5
v 16.5 1 -0.5
v 20.5 1 -0.5
v 22.5 1 -0.5
v -22.5 1 -8.5
v 22.5 1 -8.5
v -22.5 1 -9.5
v 22.5 1 -9.5
v -22.5 1 -10.5
v 22.5 1 -10.5
v -22.5 1 -22.5
v 22.5 1 -22.5

# faces
f 11/2/1 2/2/1 1/2/1
f 12/4/1 3/4/1 2/4/1
f 12/2/1 2/2/1 11/2/1
f 13/3/1 4/3/1 3/3/1
f 13/4/1 3/4/1 12/4/1
f 14/4/1 5/4/1 4/4/1
f 14/3/1 4/3/1 13/3/1
f 15/1/1 6/1/1 5/1/1
f 15/4/1 5/4/1 14/4/1
f 16/4/1 7/4/1 6/4/1
f 16/1/1 6/1/1 15/1/1
f 17/3/1 8/3/1 7/3/1
f 17/4/1 7/4/1 16/4/1
f 18/4/1 9/4/1 8/4/1
f 18/3/1 8/3/1 17/3/1
f 19/2/1 10/2/1 9/2/1
f 19/4/1 9/4/1 18/4/1
f 20/2/1 10/2/1 19/2/1
f 21/2/2 22/2/2 31/2/2
f 22/4/2 23/4/2 32/4/2
f 31/2/2 22/2/2 32/2/2
f 23/3/2 24/3/2 33/3/2
f 32/4/2 23/4/2 33/4/2
f 24/4/2 25/4/2 34/4/2
f 33/3/2 24/3/2 34/3/2
f 25/1/2 26/1/2 35/1/2
f 34/4/2 25/4/2 35/4/2
f 26/4/2 27/4/2 36/4/2
f 35/1/2 26/1/2 36/1/2
f 27/3/2 28/3/2 37/3/2
f 36/4/2 27/4/2 37/4/2
f 28/4/2 29/4/2 38/4/2
f 37/3/2 28/3/2 38/3/2
f 29/2/2 30/2/2 39/2/2
f 38/4/2 29/4/2 39/4/2
f 39/2/2 30/2/2 40/2/2
f 43/2/3 42/2/3 41/2/3
f 44/2/3 42/2/3 43/2/3
f 45/2/4 46/2/4 47/2/4
f 47/2/4 46/2/4 48/2/4
f 51/2/5 50/2/5 49/2/5
f 52/2/5 50/2/5 51/2/5
f 53/4/5 52/4/5 51/4/5
f 54/4/5 52/4/5 53/4/5
f 55/3/5 54/3/5 53/3/5
f 56/3/5 54/3/5 55/3/5
f 57/4/5 56/4/5 55/4/5
f 58/4/5 56/4/5 57/4/5
f 59/4/5 56/4/5 58/4/5
f 60/4/5 56/4/5 59/4/5
f 61/4/5 56/4/5 60/4/5
f 62/4/5 56/4/5 61/4/5
f 63/4/5 56/4/5 62/4/5
f 64/4/5 56/4/5 63/4/5
f 65/4/5 56/4/5 64/4/5
f 66/4/5 56/4/5 65/4/5
f 67/1/5 58/1/5 57/1/5
f 68/4/5 59/4/5 58/4/5
f 68/1/5 58/1/5 67/1/5
f 69/1/5 60/1/5 59/1/5
f 69/4/5 59/4/5 68/4/5
f 70/4/5 61/4/5 60/4/5
f 70/1/5 60/1/5 69/1/5
f 71/1/5 62/1/5 61/1/5
f 71/4/5 61/4/5 70/4/5
f 72/4/5 63/4/5 62/4/5
f 72/1/5 62/1/5 71/1/5
f 73/1/5 64/1/5 63/1/5
f 73/4/5 63/4/5 72/4/5
f 74/4/5 65/4/5 64/4/5
f 74/1/5 64/1/5 73/1/5
f 75/1/5 66/1/5 65/1/5
f 75/4/5 65/4/5 74/4/5
f 76/1/5 66/1/5 75/1/5
f 77/4/5 68/4/5 67/4/5
f 77/4/5 69/4/5 68/4/5
f 77/4/5 76/4/5 75/4/5
f 77/4/5 75/4/5 74/4/5
f 77/4/5 74/4/5 73/4/5
f 77/4/5 73/4/5 72/4/5
f 77/4/5 72/4/5 71/4/5
f 77/4/5 71/4/5 70/4/5
f 77/4/5 70/4/5 69/4/5
f 78/4/5 76/4/5 77/4/5
f 79/3/5 78/3/5 77/3/5
f 80/3/5 78/3/5 79/3/5
f 81/4/5 80/4/5 79/4/5
f 82/4/5 80/4/5 81/4/5
f 83/2/5 82/2/5 81/2/5
f 84/2/5 82/2/5 83/2/5
f 85/2/6 86/2/6 87/2/6
f 87/2/6 86/2/6 88/2/6
f 87/4/6 88/4/6 89/4/6
f 89/4/6 88/4/6 90/4/6
f 89/3/6 90/3/6 91/3/6
f 91/3/6 90/3/6 92/3/6
f 91/4/6 92/4/6 93/4/6
f 93/4/6 92/4/6 94/4/6
f 94/4/6 92/4/6 95/4/6
f 95/4/6 92/4/6 96/4/6
f 96/4/6 92/4/6 97/4/6
f 97/4/6 92/4/6 98/4/6
f 98/4/6 92/4/6 99/4/6
f 99/4/6 92/4/6 100/4/6
f 100/4/6 92/4/6 101/4/6
f 101/4/6 92/4/6 102/4/6
f 93/1/6 94/1/6 103/1/6
f 94/4/6 95/4/6 104/4/6
f 103/1/6 94/1/6 104/1/6
f 95/1/6 96/1/6 105/1/6
f 104/4/6 95/4/6 105/4/6
f 96/4/6 97/4/6 106/4/6
f 105/1/6 96/1/6 106/1/6
f 97/1/6 98/1/6 107/1/6
f 106/4/6 97/4/6 107/4/6
f 98/4/6 99/4/6 108/4/6
f 107/1/6 98/1/6 108/1/6
f 99/1/6 100/1/6 109/1/6
f 108/4/6 99/4/6 109/4/6
f 100/4/6 101/4/6 110/4/6
f 109/1/6 100/1/6 110/1/6
f 101/1/6 102/1/6 111/1/6
f 110/4/6 101/4/6 111/4/6
f 111/1/6 102/1/6 112/1/6
f 103/4/6 104/4/6 113/4/6
f 104/4/6 105/4/6 113/4/6
f 111/4/6 112/4/6 113/4/6
f 110/4/6 111/4/6 113/4/6
f 109/4/6 110/4/6 113/4/6
f 108/4/6 109/4/6 113/4/6
f 107/4/6 108/4/6 113/4/6
f 106/4/6 107/4/6 113/4/6
f 105/4/6 106/4/6 113/4/6
f 113/4/6 112/4/6 114/4/6
f 113/3/6 114/3/6 115/3/6
f 115/3/6 114/3/6 116/3/6
f 115/4/6 116/4/6 117/4/6
f 117/4/6 116/4/6 118/4/6
f 117/2/6 118/2/6 119/2/6
f 119/2/6 118/2/6 120/2/6
